%TF.GenerationSoftware,KiCad,Pcbnew,7.0.10*%
%TF.CreationDate,2024-02-11T10:34:46+07:00*%
%TF.ProjectId,HV-BOARD,48562d42-4f41-4524-942e-6b696361645f,rev?*%
%TF.SameCoordinates,PX86b4dd0PY68e7780*%
%TF.FileFunction,Copper,L1,Top*%
%TF.FilePolarity,Positive*%
%FSLAX46Y46*%
G04 Gerber Fmt 4.6, Leading zero omitted, Abs format (unit mm)*
G04 Created by KiCad (PCBNEW 7.0.10) date 2024-02-11 10:34:46*
%MOMM*%
%LPD*%
G01*
G04 APERTURE LIST*
G04 Aperture macros list*
%AMRoundRect*
0 Rectangle with rounded corners*
0 $1 Rounding radius*
0 $2 $3 $4 $5 $6 $7 $8 $9 X,Y pos of 4 corners*
0 Add a 4 corners polygon primitive as box body*
4,1,4,$2,$3,$4,$5,$6,$7,$8,$9,$2,$3,0*
0 Add four circle primitives for the rounded corners*
1,1,$1+$1,$2,$3*
1,1,$1+$1,$4,$5*
1,1,$1+$1,$6,$7*
1,1,$1+$1,$8,$9*
0 Add four rect primitives between the rounded corners*
20,1,$1+$1,$2,$3,$4,$5,0*
20,1,$1+$1,$4,$5,$6,$7,0*
20,1,$1+$1,$6,$7,$8,$9,0*
20,1,$1+$1,$8,$9,$2,$3,0*%
G04 Aperture macros list end*
%TA.AperFunction,SMDPad,CuDef*%
%ADD10RoundRect,0.250000X-0.325000X-0.650000X0.325000X-0.650000X0.325000X0.650000X-0.325000X0.650000X0*%
%TD*%
%TA.AperFunction,SMDPad,CuDef*%
%ADD11RoundRect,0.250000X-0.650000X0.325000X-0.650000X-0.325000X0.650000X-0.325000X0.650000X0.325000X0*%
%TD*%
%TA.AperFunction,SMDPad,CuDef*%
%ADD12RoundRect,0.250000X0.700000X-0.275000X0.700000X0.275000X-0.700000X0.275000X-0.700000X-0.275000X0*%
%TD*%
%TA.AperFunction,SMDPad,CuDef*%
%ADD13RoundRect,0.250000X0.325000X0.650000X-0.325000X0.650000X-0.325000X-0.650000X0.325000X-0.650000X0*%
%TD*%
%TA.AperFunction,SMDPad,CuDef*%
%ADD14RoundRect,0.250000X0.250000X0.675000X-0.250000X0.675000X-0.250000X-0.675000X0.250000X-0.675000X0*%
%TD*%
%TA.AperFunction,ComponentPad*%
%ADD15R,1.700000X1.700000*%
%TD*%
%TA.AperFunction,ComponentPad*%
%ADD16O,1.700000X1.700000*%
%TD*%
%TA.AperFunction,ViaPad*%
%ADD17C,0.800000*%
%TD*%
%TA.AperFunction,Conductor*%
%ADD18C,0.500000*%
%TD*%
%TA.AperFunction,Conductor*%
%ADD19C,1.500000*%
%TD*%
%TA.AperFunction,Conductor*%
%ADD20C,1.000000*%
%TD*%
G04 APERTURE END LIST*
D10*
%TO.P,C12,1*%
%TO.N,GND*%
X3525000Y19750000D03*
%TO.P,C12,2*%
%TO.N,-HV*%
X6475000Y19750000D03*
%TD*%
D11*
%TO.P,C11,1*%
%TO.N,GND*%
X2250000Y14975000D03*
%TO.P,C11,2*%
%TO.N,Net-(B1-+VIN)*%
X2250000Y12025000D03*
%TD*%
D12*
%TO.P,L1,1*%
%TO.N,+5V*%
X2250000Y6425000D03*
%TO.P,L1,2*%
%TO.N,Net-(B1-+VIN)*%
X2250000Y9575000D03*
%TD*%
D13*
%TO.P,C13,1*%
%TO.N,GND*%
X19225000Y2000000D03*
%TO.P,C13,2*%
%TO.N,+HV*%
X16275000Y2000000D03*
%TD*%
D10*
%TO.P,C10,1*%
%TO.N,GND*%
X4025000Y2000000D03*
%TO.P,C10,2*%
%TO.N,+5V*%
X6975000Y2000000D03*
%TD*%
D14*
%TO.P,B1,1,-VIN*%
%TO.N,GND*%
X17580000Y15925000D03*
%TO.P,B1,2,+VIN*%
%TO.N,Net-(B1-+VIN)*%
X15040000Y15925000D03*
%TO.P,B1,4,0_VOUT*%
%TO.N,GND*%
X9960000Y15925000D03*
%TO.P,B1,5,-VOUT*%
%TO.N,-HV*%
X7420000Y15925000D03*
%TO.P,B1,7,+VOUT*%
%TO.N,+HV*%
X9960000Y5575000D03*
%TO.P,B1,10,NC*%
%TO.N,unconnected-(B1-NC-Pad10)*%
X17580000Y5575000D03*
%TD*%
D15*
%TO.P,J5,1,Pin_1*%
%TO.N,OE*%
X15500000Y20000000D03*
D16*
%TO.P,J5,2,Pin_2*%
%TO.N,GND*%
X12960000Y20000000D03*
%TO.P,J5,3,Pin_3*%
%TO.N,-HV*%
X10420000Y20000000D03*
%TD*%
%TO.P,J7,2,Pin_2*%
%TO.N,+HV*%
X12960000Y2000000D03*
D15*
%TO.P,J7,1,Pin_1*%
%TO.N,+5V*%
X10420000Y2000000D03*
%TD*%
D17*
%TO.N,GND*%
X17250000Y20750000D03*
X5250000Y17500000D03*
X12750000Y8000000D03*
X5500000Y8000000D03*
X12750000Y10500000D03*
X8750000Y10500000D03*
X5500000Y10500000D03*
X1000000Y4750000D03*
X1000000Y16500000D03*
X12000000Y13500000D03*
X7500000Y13500000D03*
X4250000Y13500000D03*
X19500000Y8000000D03*
X19500000Y12250000D03*
X19500000Y16750000D03*
X16500000Y10500000D03*
X16500000Y7500000D03*
X16500000Y14000000D03*
X19500000Y4250000D03*
X1000000Y1250000D03*
X19500000Y20750000D03*
X1000000Y20750000D03*
X11750000Y16000000D03*
X2250000Y16500000D03*
X2000000Y19750000D03*
%TD*%
D18*
%TO.N,GND*%
X12960000Y18040000D02*
X13000000Y18000000D01*
D19*
X12960000Y20000000D02*
X12960000Y18040000D01*
D20*
%TO.N,+HV*%
X12960000Y2000000D02*
X16275000Y2000000D01*
%TO.N,Net-(B1-+VIN)*%
X12525000Y12025000D02*
X2250000Y12025000D01*
X15040000Y14540000D02*
X12525000Y12025000D01*
X15040000Y15925000D02*
X15040000Y14540000D01*
D18*
%TO.N,GND*%
X11675000Y15925000D02*
X11750000Y16000000D01*
X9960000Y15925000D02*
X11675000Y15925000D01*
X2250000Y14975000D02*
X2250000Y16500000D01*
X3525000Y19750000D02*
X2000000Y19750000D01*
D20*
%TO.N,Net-(B1-+VIN)*%
X2250000Y12025000D02*
X2250000Y9575000D01*
%TO.N,+5V*%
X5075000Y6425000D02*
X2250000Y6425000D01*
X6975000Y2000000D02*
X6975000Y4525000D01*
X6975000Y4525000D02*
X5075000Y6425000D01*
X6975000Y2000000D02*
X10420000Y2000000D01*
%TO.N,+HV*%
X11675000Y5575000D02*
X9960000Y5575000D01*
X12960000Y4290000D02*
X11675000Y5575000D01*
X12960000Y2000000D02*
X12960000Y4290000D01*
%TO.N,-HV*%
X7420000Y19750000D02*
X6475000Y19750000D01*
X7420000Y15925000D02*
X7420000Y19750000D01*
X10170000Y19750000D02*
X10420000Y20000000D01*
X6475000Y19750000D02*
X10170000Y19750000D01*
%TD*%
%TA.AperFunction,Conductor*%
%TO.N,GND*%
G36*
X4146288Y5405546D02*
G01*
X4227070Y5351570D01*
X4281046Y5270788D01*
X4300000Y5175500D01*
X4300000Y3528139D01*
X4281046Y3432851D01*
X4275000Y3423803D01*
X4275000Y2250001D01*
X4275001Y2250000D01*
X4300000Y2250000D01*
X4300000Y1750000D01*
X2950002Y1750000D01*
X2950001Y1749999D01*
X2950001Y1300016D01*
X2960494Y1197301D01*
X2960495Y1197298D01*
X3000251Y1077322D01*
X3012232Y980908D01*
X2986405Y887249D01*
X2926701Y810603D01*
X2842212Y762639D01*
X2763890Y750000D01*
X749000Y750000D01*
X653712Y768954D01*
X572930Y822930D01*
X518954Y903712D01*
X500000Y999000D01*
X500000Y2250001D01*
X2950000Y2250001D01*
X2950001Y2250000D01*
X3774999Y2250000D01*
X3775000Y2250001D01*
X3775000Y3400001D01*
X3650024Y3400000D01*
X3547300Y3389506D01*
X3547297Y3389505D01*
X3380880Y3334360D01*
X3380878Y3334359D01*
X3231658Y3242319D01*
X3231654Y3242316D01*
X3107684Y3118346D01*
X3107681Y3118342D01*
X3015641Y2969122D01*
X3015640Y2969121D01*
X2960495Y2802702D01*
X2960494Y2802695D01*
X2950000Y2699982D01*
X2950000Y2250001D01*
X500000Y2250001D01*
X500000Y5151000D01*
X518954Y5246288D01*
X572930Y5327070D01*
X653712Y5381046D01*
X749000Y5400000D01*
X1483836Y5400000D01*
X1496503Y5399678D01*
X1499965Y5399503D01*
X1499991Y5399500D01*
X3000008Y5399501D01*
X3102797Y5410001D01*
X3102908Y5410038D01*
X3108411Y5411861D01*
X3186734Y5424500D01*
X4051000Y5424500D01*
X4146288Y5405546D01*
G37*
%TD.AperFunction*%
%TA.AperFunction,Conductor*%
G36*
X2296288Y21231046D02*
G01*
X2377070Y21177070D01*
X2431046Y21096288D01*
X2450000Y21001000D01*
X2450000Y20000001D01*
X2450001Y20000000D01*
X3526000Y20000000D01*
X3621288Y19981046D01*
X3702070Y19927070D01*
X3756046Y19846288D01*
X3775000Y19751000D01*
X3775000Y18350002D01*
X3775002Y18350000D01*
X5028388Y18350000D01*
X5123676Y18331046D01*
X5204454Y18277073D01*
X5345346Y18136181D01*
X5345349Y18136179D01*
X5345350Y18136178D01*
X5470973Y18049146D01*
X5530374Y18007993D01*
X5735317Y17914904D01*
X5735318Y17914904D01*
X5735320Y17914903D01*
X5745865Y17911213D01*
X5745204Y17909324D01*
X5819100Y17874251D01*
X5884248Y17802176D01*
X5916854Y17710656D01*
X5919500Y17674454D01*
X5919500Y15185792D01*
X5919501Y15185784D01*
X5929904Y15053588D01*
X5984904Y14835317D01*
X6077993Y14630374D01*
X6077995Y14630371D01*
X6077996Y14630369D01*
X6206177Y14445351D01*
X6206178Y14445350D01*
X6206181Y14445346D01*
X6365346Y14286181D01*
X6365349Y14286179D01*
X6365350Y14286178D01*
X6537444Y14166951D01*
X6550374Y14157993D01*
X6755317Y14064904D01*
X6973588Y14009904D01*
X6973591Y14009904D01*
X6973594Y14009903D01*
X7039685Y14004702D01*
X7105783Y13999500D01*
X7734216Y13999501D01*
X7866412Y14009904D01*
X8084683Y14064904D01*
X8289626Y14157993D01*
X8474654Y14286181D01*
X8615545Y14427073D01*
X8696324Y14481046D01*
X8791612Y14500000D01*
X9709999Y14500000D01*
X9710000Y14500002D01*
X10210000Y14500002D01*
X10210001Y14500001D01*
X10259968Y14500001D01*
X10259984Y14500002D01*
X10362699Y14510495D01*
X10362702Y14510496D01*
X10529119Y14565641D01*
X10529121Y14565642D01*
X10678341Y14657682D01*
X10678345Y14657685D01*
X10802315Y14781655D01*
X10802318Y14781659D01*
X10894358Y14930879D01*
X10894359Y14930880D01*
X10949504Y15097299D01*
X10949505Y15097306D01*
X10959999Y15200019D01*
X10960000Y15200029D01*
X10960000Y15674999D01*
X10959999Y15675000D01*
X10210001Y15675000D01*
X10210000Y15674999D01*
X10210000Y14500002D01*
X9710000Y14500002D01*
X9710000Y16175001D01*
X10210000Y16175001D01*
X10210001Y16175000D01*
X10959998Y16175000D01*
X10959999Y16175001D01*
X10959999Y16649968D01*
X10959998Y16649985D01*
X10949505Y16752700D01*
X10949504Y16752703D01*
X10894359Y16919120D01*
X10894358Y16919122D01*
X10802318Y17068342D01*
X10802315Y17068346D01*
X10678345Y17192316D01*
X10678341Y17192319D01*
X10529121Y17284359D01*
X10529120Y17284360D01*
X10362701Y17339505D01*
X10362694Y17339506D01*
X10259981Y17350000D01*
X10210001Y17350000D01*
X10210000Y17349999D01*
X10210000Y16175001D01*
X9710000Y16175001D01*
X9710000Y17412866D01*
X9700000Y17463139D01*
X9700000Y17953858D01*
X9718954Y18049146D01*
X9772930Y18129928D01*
X9853712Y18183904D01*
X9949000Y18202858D01*
X10001922Y18197169D01*
X10155974Y18163657D01*
X10420000Y18144773D01*
X10684026Y18163657D01*
X10942678Y18219923D01*
X11190689Y18312426D01*
X11423011Y18439284D01*
X11634915Y18597913D01*
X11634919Y18597918D01*
X11638149Y18600335D01*
X11725789Y18642265D01*
X11787369Y18650000D01*
X12709999Y18650000D01*
X13210001Y18650000D01*
X14586130Y18650000D01*
X14599458Y18649643D01*
X14602110Y18649502D01*
X14602127Y18649500D01*
X16397872Y18649501D01*
X16457483Y18655909D01*
X16592331Y18706204D01*
X16707546Y18792454D01*
X16793796Y18907669D01*
X16844091Y19042517D01*
X16850500Y19102127D01*
X16850499Y20897872D01*
X16844091Y20957483D01*
X16844090Y20957484D01*
X16842426Y20972972D01*
X16846285Y20973387D01*
X16843861Y21040766D01*
X16877789Y21131804D01*
X16943974Y21202928D01*
X17032339Y21243311D01*
X17089665Y21250000D01*
X19751000Y21250000D01*
X19846288Y21231046D01*
X19927070Y21177070D01*
X19981046Y21096288D01*
X20000000Y21001000D01*
X20000000Y3633807D01*
X19981046Y3538519D01*
X19927070Y3457737D01*
X19846288Y3403761D01*
X19751000Y3384807D01*
X19716256Y3388485D01*
X19716220Y3388124D01*
X19599981Y3400000D01*
X19475001Y3400000D01*
X19475000Y3399999D01*
X19475000Y1999000D01*
X19456046Y1903712D01*
X19402070Y1822930D01*
X19321288Y1768954D01*
X19226000Y1750000D01*
X19224000Y1750000D01*
X19128712Y1768954D01*
X19047930Y1822930D01*
X18993954Y1903712D01*
X18975000Y1999000D01*
X18975000Y3400001D01*
X18850024Y3400000D01*
X18774305Y3392264D01*
X18677584Y3401436D01*
X18591735Y3446924D01*
X18529829Y3521802D01*
X18501289Y3614670D01*
X18500000Y3639975D01*
X18500000Y4495781D01*
X18512639Y4574104D01*
X18514812Y4580665D01*
X18514814Y4580666D01*
X18569999Y4747203D01*
X18580500Y4849991D01*
X18580499Y6300008D01*
X18569999Y6402797D01*
X18555548Y6446406D01*
X18536218Y6504742D01*
X18514814Y6569334D01*
X18422712Y6718656D01*
X18298656Y6842712D01*
X18149334Y6934814D01*
X18149332Y6934815D01*
X18149330Y6934816D01*
X18149332Y6934816D01*
X17982802Y6989998D01*
X17982798Y6989999D01*
X17982797Y6989999D01*
X17880009Y7000500D01*
X17880005Y7000500D01*
X17279983Y7000500D01*
X17276529Y7000323D01*
X17263859Y7000000D01*
X12197728Y7000000D01*
X12114634Y7015639D01*
X12114478Y7015112D01*
X12109404Y7016623D01*
X12107213Y7017035D01*
X12104617Y7018048D01*
X12104609Y7018051D01*
X12018326Y7036143D01*
X12008302Y7038462D01*
X11922824Y7060108D01*
X11922814Y7060110D01*
X11907154Y7061407D01*
X11876630Y7065854D01*
X11861237Y7069081D01*
X11861234Y7069082D01*
X11861230Y7069082D01*
X11773143Y7072725D01*
X11762872Y7073362D01*
X11737071Y7075500D01*
X11737067Y7075500D01*
X11711176Y7075500D01*
X11700885Y7075713D01*
X11612780Y7079358D01*
X11597175Y7077412D01*
X11566375Y7075500D01*
X11256113Y7075500D01*
X11160825Y7094454D01*
X11080045Y7148429D01*
X11014656Y7213817D01*
X11014649Y7213823D01*
X10829631Y7342004D01*
X10829629Y7342005D01*
X10829626Y7342007D01*
X10662773Y7417795D01*
X10624686Y7435095D01*
X10624684Y7435096D01*
X10624683Y7435096D01*
X10406412Y7490096D01*
X10406411Y7490097D01*
X10406408Y7490097D01*
X10406405Y7490098D01*
X10274222Y7500500D01*
X9645788Y7500500D01*
X9640903Y7500307D01*
X9640897Y7500442D01*
X9629662Y7500000D01*
X5249000Y7500000D01*
X5153712Y7518954D01*
X5072930Y7572930D01*
X5018954Y7653712D01*
X5000000Y7749000D01*
X5000000Y10775500D01*
X5018954Y10870788D01*
X5072930Y10951570D01*
X5153712Y11005546D01*
X5249000Y11024500D01*
X12509134Y11024500D01*
X12515441Y11024420D01*
X12601360Y11022243D01*
X12601360Y11022244D01*
X12601363Y11022243D01*
X12654751Y11031813D01*
X12673462Y11034438D01*
X12727438Y11039926D01*
X12748892Y11046658D01*
X12779511Y11054174D01*
X12801653Y11058142D01*
X12852047Y11078273D01*
X12869811Y11084597D01*
X12921588Y11100841D01*
X12941251Y11111756D01*
X12969732Y11125281D01*
X12972744Y11126485D01*
X12990617Y11133623D01*
X13035908Y11163473D01*
X13052073Y11173267D01*
X13099502Y11199591D01*
X13116575Y11214249D01*
X13141734Y11233219D01*
X13160519Y11245598D01*
X13198875Y11283955D01*
X13212738Y11296804D01*
X13253895Y11332134D01*
X13267661Y11349920D01*
X13288486Y11373567D01*
X15736296Y13821377D01*
X15740693Y13825664D01*
X15803053Y13884941D01*
X15834036Y13929459D01*
X15845423Y13944560D01*
X15879698Y13986593D01*
X15890113Y14006533D01*
X15906448Y14033494D01*
X15919295Y14051951D01*
X15940680Y14101787D01*
X15948791Y14118867D01*
X15973909Y14166951D01*
X15980094Y14188570D01*
X15990672Y14218280D01*
X15992280Y14222027D01*
X15999540Y14238942D01*
X16010459Y14292082D01*
X16014969Y14310456D01*
X16017567Y14319531D01*
X16062015Y14405923D01*
X16136140Y14468729D01*
X16228658Y14498387D01*
X16256951Y14500000D01*
X17329998Y14500000D01*
X17330000Y14500002D01*
X17830000Y14500002D01*
X17830001Y14500001D01*
X17879968Y14500001D01*
X17879984Y14500002D01*
X17982699Y14510495D01*
X17982702Y14510496D01*
X18149119Y14565641D01*
X18149121Y14565642D01*
X18298341Y14657682D01*
X18298345Y14657685D01*
X18422315Y14781655D01*
X18422318Y14781659D01*
X18514358Y14930879D01*
X18514359Y14930880D01*
X18569504Y15097299D01*
X18569505Y15097306D01*
X18579999Y15200019D01*
X18580000Y15200029D01*
X18580000Y15674999D01*
X18579999Y15675000D01*
X17830001Y15675000D01*
X17830000Y15674999D01*
X17830000Y14500002D01*
X17330000Y14500002D01*
X17330000Y16175001D01*
X17830000Y16175001D01*
X17830001Y16175000D01*
X18579998Y16175000D01*
X18579999Y16175001D01*
X18579999Y16649968D01*
X18579998Y16649985D01*
X18569505Y16752700D01*
X18569504Y16752703D01*
X18514359Y16919120D01*
X18514358Y16919122D01*
X18422318Y17068342D01*
X18422315Y17068346D01*
X18298345Y17192316D01*
X18298341Y17192319D01*
X18149121Y17284359D01*
X18149120Y17284360D01*
X17982701Y17339505D01*
X17982694Y17339506D01*
X17879981Y17350000D01*
X17830001Y17350000D01*
X17830000Y17349999D01*
X17830000Y16175001D01*
X17330000Y16175001D01*
X17330000Y17349999D01*
X17329999Y17350000D01*
X17300000Y17350000D01*
X15356164Y17350000D01*
X15343497Y17350322D01*
X15340015Y17350500D01*
X15340009Y17350500D01*
X15340002Y17350500D01*
X14739993Y17350500D01*
X14637199Y17339999D01*
X14470667Y17284815D01*
X14321346Y17192714D01*
X14197286Y17068654D01*
X14105184Y16919332D01*
X14050002Y16752803D01*
X14050001Y16752796D01*
X14039500Y16650012D01*
X14039500Y15057561D01*
X14020546Y14962273D01*
X13966570Y14881491D01*
X12183510Y13098430D01*
X12102728Y13044454D01*
X12007440Y13025500D01*
X3899000Y13025500D01*
X3803712Y13044454D01*
X3722930Y13098430D01*
X3668954Y13179212D01*
X3650000Y13274500D01*
X3650000Y14724999D01*
X3649999Y14725000D01*
X2249000Y14725000D01*
X2153712Y14743954D01*
X2072930Y14797930D01*
X2018954Y14878712D01*
X2000000Y14974000D01*
X2000000Y15225001D01*
X2500000Y15225001D01*
X2500001Y15225000D01*
X3649998Y15225000D01*
X3649999Y15225001D01*
X3649999Y15349968D01*
X3649998Y15349985D01*
X3639505Y15452700D01*
X3639504Y15452703D01*
X3584359Y15619120D01*
X3584358Y15619122D01*
X3492318Y15768342D01*
X3492315Y15768346D01*
X3368345Y15892316D01*
X3368341Y15892319D01*
X3219121Y15984359D01*
X3219120Y15984360D01*
X3052701Y16039505D01*
X3052694Y16039506D01*
X2949981Y16050000D01*
X2500001Y16050000D01*
X2500000Y16049999D01*
X2500000Y15225001D01*
X2000000Y15225001D01*
X2000000Y16049999D01*
X1999999Y16050000D01*
X1550024Y16050000D01*
X1447303Y16039506D01*
X1447302Y16039506D01*
X1366225Y16012639D01*
X1287903Y16000000D01*
X749000Y16000000D01*
X653712Y16018954D01*
X572930Y16072930D01*
X518954Y16153712D01*
X500000Y16249000D01*
X500000Y19050016D01*
X2450001Y19050016D01*
X2460494Y18947301D01*
X2460495Y18947298D01*
X2515640Y18780881D01*
X2515641Y18780879D01*
X2607681Y18631659D01*
X2607684Y18631655D01*
X2731654Y18507685D01*
X2731658Y18507682D01*
X2880878Y18415642D01*
X2880879Y18415641D01*
X3047298Y18360496D01*
X3047305Y18360495D01*
X3150023Y18350001D01*
X3275000Y18350002D01*
X3275000Y19499999D01*
X3274999Y19500000D01*
X2450002Y19500000D01*
X2450001Y19499999D01*
X2450001Y19050016D01*
X500000Y19050016D01*
X500000Y21001000D01*
X518954Y21096288D01*
X572930Y21177070D01*
X653712Y21231046D01*
X749000Y21250000D01*
X2201000Y21250000D01*
X2296288Y21231046D01*
G37*
%TD.AperFunction*%
%TA.AperFunction,Conductor*%
G36*
X13210000Y18734500D02*
G01*
X12710000Y18759500D01*
X12710000Y19564499D01*
X12817685Y19515320D01*
X12924237Y19500000D01*
X12995763Y19500000D01*
X13102315Y19515320D01*
X13210000Y19564499D01*
X13210000Y18734500D01*
G37*
%TD.AperFunction*%
%TD*%
M02*
