M48
; DRILL file {KiCad 8.0.6} date 2024-11-11T11:34:17+0700
; FORMAT={-:-/ absolute / inch / decimal}
; #@! TF.CreationDate,2024-11-11T11:34:17+07:00
; #@! TF.GenerationSoftware,Kicad,Pcbnew,8.0.6
; #@! TF.FileFunction,NonPlated,1,2,NPTH
FMAT,2
INCH
; #@! TA.AperFunction,NonPlated,NPTH,ComponentDrill
T1C0.0197
%
G90
G05
T1
X0.2756Y-0.6545
X0.2756Y-0.6939
X0.2756Y-0.7333
X0.2756Y-0.7726
X0.2756Y-1.6093
X0.2756Y-1.6486
X0.2756Y-1.688
X0.2756Y-1.7274
X0.625Y-0.2756
X0.625Y-1.1516
X0.625Y-1.2303
X0.625Y-2.1063
X0.6644Y-0.2756
X0.6644Y-1.1516
X0.6644Y-1.2303
X0.6644Y-2.1063
X0.7037Y-0.2756
X0.7037Y-1.1516
X0.7037Y-1.2303
X0.7037Y-2.1063
X0.7431Y-0.2756
X0.7431Y-1.1516
X0.7431Y-1.2303
X0.7431Y-2.1063
X1.0925Y-0.6545
X1.0925Y-0.6939
X1.0925Y-0.7333
X1.0925Y-0.7726
X1.0925Y-1.6093
X1.0925Y-1.6486
X1.0925Y-1.688
X1.0925Y-1.7274
X1.1713Y-0.6545
X1.1713Y-0.6939
X1.1713Y-0.7333
X1.1713Y-0.7726
X1.1713Y-1.6093
X1.1713Y-1.6486
X1.1713Y-1.688
X1.1713Y-1.7274
X1.5207Y-0.2756
X1.5207Y-1.1516
X1.5207Y-1.2303
X1.5207Y-2.1063
X1.56Y-0.2756
X1.56Y-1.1516
X1.56Y-1.2303
X1.56Y-2.1063
X1.5994Y-0.2756
X1.5994Y-1.1516
X1.5994Y-1.2303
X1.5994Y-2.1063
X1.6388Y-0.2756
X1.6388Y-1.1516
X1.6388Y-1.2303
X1.6388Y-2.1063
X1.9882Y-0.6545
X1.9882Y-0.6939
X1.9882Y-0.7333
X1.9882Y-0.7726
X1.9882Y-1.6093
X1.9882Y-1.6486
X1.9882Y-1.688
X1.9882Y-1.7274
X2.0669Y-0.6545
X2.0669Y-0.6939
X2.0669Y-0.7333
X2.0669Y-0.7726
X2.0669Y-1.6093
X2.0669Y-1.6486
X2.0669Y-1.688
X2.0669Y-1.7274
X2.4163Y-0.2756
X2.4163Y-1.1516
X2.4163Y-1.2303
X2.4163Y-2.1063
X2.4557Y-0.2756
X2.4557Y-1.1516
X2.4557Y-1.2303
X2.4557Y-2.1063
X2.4951Y-0.2756
X2.4951Y-1.1516
X2.4951Y-1.2303
X2.4951Y-2.1063
X2.5344Y-0.2756
X2.5344Y-1.1516
X2.5344Y-1.2303
X2.5344Y-2.1063
X2.8839Y-0.6545
X2.8839Y-0.6939
X2.8839Y-0.7333
X2.8839Y-0.7726
X2.8839Y-1.6093
X2.8839Y-1.6486
X2.8839Y-1.688
X2.8839Y-1.7274
X2.9626Y-0.6545
X2.9626Y-0.6939
X2.9626Y-0.7333
X2.9626Y-0.7726
X2.9626Y-1.6093
X2.9626Y-1.6486
X2.9626Y-1.688
X2.9626Y-1.7274
X3.312Y-0.2756
X3.312Y-1.1516
X3.312Y-1.2303
X3.312Y-2.1063
X3.3514Y-0.2756
X3.3514Y-1.1516
X3.3514Y-1.2303
X3.3514Y-2.1063
X3.3907Y-0.2756
X3.3907Y-1.1516
X3.3907Y-1.2303
X3.3907Y-2.1063
X3.4301Y-0.2756
X3.4301Y-1.1516
X3.4301Y-1.2303
X3.4301Y-2.1063
X3.7795Y-0.6545
X3.7795Y-0.6939
X3.7795Y-0.7333
X3.7795Y-0.7726
X3.7795Y-1.6093
X3.7795Y-1.6486
X3.7795Y-1.688
X3.7795Y-1.7274
M30
