%TF.GenerationSoftware,KiCad,Pcbnew,8.0.6*%
%TF.CreationDate,2024-11-11T11:34:17+07:00*%
%TF.ProjectId,HV-BOARD - pannel,48562d42-4f41-4524-9420-2d2070616e6e,rev?*%
%TF.SameCoordinates,Original*%
%TF.FileFunction,Copper,L2,Bot*%
%TF.FilePolarity,Positive*%
%FSLAX46Y46*%
G04 Gerber Fmt 4.6, Leading zero omitted, Abs format (unit mm)*
G04 Created by KiCad (PCBNEW 8.0.6) date 2024-11-11 11:34:17*
%MOMM*%
%LPD*%
G01*
G04 APERTURE LIST*
%TA.AperFunction,ComponentPad*%
%ADD10R,1.700000X1.700000*%
%TD*%
%TA.AperFunction,ComponentPad*%
%ADD11O,1.700000X1.700000*%
%TD*%
%TA.AperFunction,SMDPad,CuDef*%
%ADD12C,1.000000*%
%TD*%
%TA.AperFunction,ViaPad*%
%ADD13C,0.800000*%
%TD*%
%TA.AperFunction,Conductor*%
%ADD14C,1.500000*%
%TD*%
%TA.AperFunction,Conductor*%
%ADD15C,0.500000*%
%TD*%
G04 APERTURE END LIST*
D10*
%TO.P,J5,1,Pin_1*%
%TO.N,Board_7-OE*%
X90749995Y-33500001D03*
D11*
%TO.P,J5,2,Pin_2*%
%TO.N,Board_7-GND*%
X88209995Y-33500001D03*
%TO.P,J5,3,Pin_3*%
%TO.N,Board_7--HV*%
X85669995Y-33500001D03*
%TD*%
D10*
%TO.P,J5,1,Pin_1*%
%TO.N,Board_0-OE*%
X22499998Y-9250001D03*
D11*
%TO.P,J5,2,Pin_2*%
%TO.N,Board_0-GND*%
X19959998Y-9250001D03*
%TO.P,J5,3,Pin_3*%
%TO.N,Board_0--HV*%
X17419998Y-9250001D03*
%TD*%
D10*
%TO.P,J5,1,Pin_1*%
%TO.N,Board_2-OE*%
X67999996Y-9250001D03*
D11*
%TO.P,J5,2,Pin_2*%
%TO.N,Board_2-GND*%
X65459996Y-9250001D03*
%TO.P,J5,3,Pin_3*%
%TO.N,Board_2--HV*%
X62919996Y-9250001D03*
%TD*%
D10*
%TO.P,J7,1,Pin_1*%
%TO.N,Board_5-+5V*%
X40169997Y-51500001D03*
D11*
%TO.P,J7,2,Pin_2*%
%TO.N,Board_5-+HV*%
X42709997Y-51500001D03*
%TD*%
D10*
%TO.P,J5,1,Pin_1*%
%TO.N,Board_4-OE*%
X22499998Y-33500001D03*
D11*
%TO.P,J5,2,Pin_2*%
%TO.N,Board_4-GND*%
X19959998Y-33500001D03*
%TO.P,J5,3,Pin_3*%
%TO.N,Board_4--HV*%
X17419998Y-33500001D03*
%TD*%
D10*
%TO.P,J7,1,Pin_1*%
%TO.N,Board_4-+5V*%
X17419998Y-51500001D03*
D11*
%TO.P,J7,2,Pin_2*%
%TO.N,Board_4-+HV*%
X19959998Y-51500001D03*
%TD*%
D12*
%TO.P,KiKit_FID_B_1,*%
%TO.N,*%
X5000000Y-2500000D03*
%TD*%
D10*
%TO.P,J5,1,Pin_1*%
%TO.N,Board_6-OE*%
X67999996Y-33500001D03*
D11*
%TO.P,J5,2,Pin_2*%
%TO.N,Board_6-GND*%
X65459996Y-33500001D03*
%TO.P,J5,3,Pin_3*%
%TO.N,Board_6--HV*%
X62919996Y-33500001D03*
%TD*%
D12*
%TO.P,KiKit_FID_B_2,*%
%TO.N,*%
X97999995Y-2500000D03*
%TD*%
D10*
%TO.P,J5,1,Pin_1*%
%TO.N,Board_5-OE*%
X45249997Y-33500001D03*
D11*
%TO.P,J5,2,Pin_2*%
%TO.N,Board_5-GND*%
X42709997Y-33500001D03*
%TO.P,J5,3,Pin_3*%
%TO.N,Board_5--HV*%
X40169997Y-33500001D03*
%TD*%
D10*
%TO.P,J7,1,Pin_1*%
%TO.N,Board_3-+5V*%
X85669995Y-27250001D03*
D11*
%TO.P,J7,2,Pin_2*%
%TO.N,Board_3-+HV*%
X88209995Y-27250001D03*
%TD*%
D10*
%TO.P,J7,1,Pin_1*%
%TO.N,Board_1-+5V*%
X40169997Y-27250001D03*
D11*
%TO.P,J7,2,Pin_2*%
%TO.N,Board_1-+HV*%
X42709997Y-27250001D03*
%TD*%
D12*
%TO.P,KiKit_FID_B_3,*%
%TO.N,*%
X5000000Y-58000001D03*
%TD*%
D10*
%TO.P,J5,1,Pin_1*%
%TO.N,Board_1-OE*%
X45249997Y-9250001D03*
D11*
%TO.P,J5,2,Pin_2*%
%TO.N,Board_1-GND*%
X42709997Y-9250001D03*
%TO.P,J5,3,Pin_3*%
%TO.N,Board_1--HV*%
X40169997Y-9250001D03*
%TD*%
D10*
%TO.P,J7,1,Pin_1*%
%TO.N,Board_6-+5V*%
X62919996Y-51500001D03*
D11*
%TO.P,J7,2,Pin_2*%
%TO.N,Board_6-+HV*%
X65459996Y-51500001D03*
%TD*%
D10*
%TO.P,J7,1,Pin_1*%
%TO.N,Board_2-+5V*%
X62919996Y-27250001D03*
D11*
%TO.P,J7,2,Pin_2*%
%TO.N,Board_2-+HV*%
X65459996Y-27250001D03*
%TD*%
D10*
%TO.P,J5,1,Pin_1*%
%TO.N,Board_3-OE*%
X90749995Y-9250001D03*
D11*
%TO.P,J5,2,Pin_2*%
%TO.N,Board_3-GND*%
X88209995Y-9250001D03*
%TO.P,J5,3,Pin_3*%
%TO.N,Board_3--HV*%
X85669995Y-9250001D03*
%TD*%
D10*
%TO.P,J7,1,Pin_1*%
%TO.N,Board_7-+5V*%
X85669995Y-51500001D03*
D11*
%TO.P,J7,2,Pin_2*%
%TO.N,Board_7-+HV*%
X88209995Y-51500001D03*
%TD*%
D10*
%TO.P,J7,1,Pin_1*%
%TO.N,Board_0-+5V*%
X17419998Y-27250001D03*
D11*
%TO.P,J7,2,Pin_2*%
%TO.N,Board_0-+HV*%
X19959998Y-27250001D03*
%TD*%
D13*
%TO.N,Board_0-GND*%
X8999998Y-9500001D03*
X7999998Y-24500001D03*
X9249998Y-12750001D03*
X15749998Y-18750001D03*
X7999998Y-12750001D03*
X26499998Y-17000001D03*
X26499998Y-25000001D03*
X26499998Y-21250001D03*
X26499998Y-8500001D03*
X12499998Y-18750001D03*
X26499998Y-12500001D03*
X18749998Y-13250001D03*
X18999998Y-15750001D03*
X19749998Y-21250001D03*
X7999998Y-8500001D03*
X14499998Y-15750001D03*
X24249998Y-8500001D03*
X11249998Y-15750001D03*
X23499998Y-21750001D03*
X12499998Y-21250001D03*
X12249998Y-11750001D03*
X7999998Y-28000001D03*
X19749998Y-18750001D03*
X23499998Y-15250001D03*
X23499998Y-18750001D03*
%TO.N,Board_1-GND*%
X30749997Y-24500001D03*
X46999997Y-8500001D03*
X42499997Y-21250001D03*
X46249997Y-21750001D03*
X34999997Y-11750001D03*
X33999997Y-15750001D03*
X46249997Y-15250001D03*
X49249997Y-8500001D03*
X49249997Y-12500001D03*
X42499997Y-18750001D03*
X41499997Y-13250001D03*
X37249997Y-15750001D03*
X31999997Y-12750001D03*
X49249997Y-21250001D03*
X30749997Y-12750001D03*
X30749997Y-28000001D03*
X49249997Y-17000001D03*
X30749997Y-8500001D03*
X49249997Y-25000001D03*
X41749997Y-15750001D03*
X38499997Y-18750001D03*
X46249997Y-18750001D03*
X35249997Y-21250001D03*
X31749997Y-9500001D03*
X35249997Y-18750001D03*
%TO.N,Board_2-GND*%
X61249996Y-18750001D03*
X71999996Y-8500001D03*
X54749996Y-12750001D03*
X53499996Y-12750001D03*
X57999996Y-21250001D03*
X71999996Y-17000001D03*
X65249996Y-21250001D03*
X57749996Y-11750001D03*
X64499996Y-15750001D03*
X71999996Y-21250001D03*
X71999996Y-25000001D03*
X53499996Y-8500001D03*
X71999996Y-12500001D03*
X68999996Y-18750001D03*
X59999996Y-15750001D03*
X57999996Y-18750001D03*
X68999996Y-21750001D03*
X65249996Y-18750001D03*
X69749996Y-8500001D03*
X64249996Y-13250001D03*
X53499996Y-24500001D03*
X56749996Y-15750001D03*
X68999996Y-15250001D03*
X54499996Y-9500001D03*
X53499996Y-28000001D03*
%TO.N,Board_3-GND*%
X83999995Y-18750001D03*
X86999995Y-13250001D03*
X87999995Y-18750001D03*
X80749995Y-21250001D03*
X82749995Y-15750001D03*
X94749995Y-12500001D03*
X76249995Y-24500001D03*
X94749995Y-17000001D03*
X94749995Y-8500001D03*
X79499995Y-15750001D03*
X76249995Y-8500001D03*
X91749995Y-18750001D03*
X77249995Y-9500001D03*
X91749995Y-21750001D03*
X80499995Y-11750001D03*
X80749995Y-18750001D03*
X87999995Y-21250001D03*
X92499995Y-8500001D03*
X77499995Y-12750001D03*
X94749995Y-21250001D03*
X91749995Y-15250001D03*
X76249995Y-12750001D03*
X87249995Y-15750001D03*
X94749995Y-25000001D03*
X76249995Y-28000001D03*
%TO.N,Board_4-GND*%
X26499998Y-49250001D03*
X19749998Y-45500001D03*
X12499998Y-45500001D03*
X26499998Y-36750001D03*
X26499998Y-32750001D03*
X26499998Y-45500001D03*
X23499998Y-39500001D03*
X24249998Y-32750001D03*
X12499998Y-43000001D03*
X23499998Y-43000001D03*
X9249998Y-37000001D03*
X19749998Y-43000001D03*
X12249998Y-36000001D03*
X18749998Y-37500001D03*
X7999998Y-32750001D03*
X11249998Y-40000001D03*
X18999998Y-40000001D03*
X7999998Y-48750001D03*
X14499998Y-40000001D03*
X7999998Y-37000001D03*
X15749998Y-43000001D03*
X7999998Y-52250001D03*
X26499998Y-41250001D03*
X23499998Y-46000001D03*
X8999998Y-33750001D03*
%TO.N,Board_5-GND*%
X30749997Y-37000001D03*
X30749997Y-52250001D03*
X35249997Y-45500001D03*
X38499997Y-43000001D03*
X33999997Y-40000001D03*
X49249997Y-45500001D03*
X49249997Y-32750001D03*
X42499997Y-45500001D03*
X30749997Y-48750001D03*
X46249997Y-43000001D03*
X30749997Y-32750001D03*
X42499997Y-43000001D03*
X31999997Y-37000001D03*
X41749997Y-40000001D03*
X49249997Y-36750001D03*
X31749997Y-33750001D03*
X41499997Y-37500001D03*
X35249997Y-43000001D03*
X46249997Y-39500001D03*
X46999997Y-32750001D03*
X34999997Y-36000001D03*
X37249997Y-40000001D03*
X49249997Y-49250001D03*
X46249997Y-46000001D03*
X49249997Y-41250001D03*
%TO.N,Board_6-GND*%
X71999996Y-32750001D03*
X65249996Y-45500001D03*
X68999996Y-39500001D03*
X57749996Y-36000001D03*
X57999996Y-43000001D03*
X59999996Y-40000001D03*
X68999996Y-43000001D03*
X53499996Y-48750001D03*
X61249996Y-43000001D03*
X69749996Y-32750001D03*
X56749996Y-40000001D03*
X71999996Y-36750001D03*
X53499996Y-52250001D03*
X71999996Y-49250001D03*
X53499996Y-32750001D03*
X64249996Y-37500001D03*
X71999996Y-41250001D03*
X68999996Y-46000001D03*
X54499996Y-33750001D03*
X53499996Y-37000001D03*
X57999996Y-45500001D03*
X71999996Y-45500001D03*
X64499996Y-40000001D03*
X65249996Y-43000001D03*
X54749996Y-37000001D03*
%TO.N,Board_7-GND*%
X87249995Y-40000001D03*
X94749995Y-41250001D03*
X91749995Y-46000001D03*
X76249995Y-37000001D03*
X80749995Y-45500001D03*
X94749995Y-36750001D03*
X86999995Y-37500001D03*
X76249995Y-52250001D03*
X94749995Y-32750001D03*
X80749995Y-43000001D03*
X94749995Y-45500001D03*
X82749995Y-40000001D03*
X87999995Y-45500001D03*
X92499995Y-32750001D03*
X91749995Y-39500001D03*
X76249995Y-48750001D03*
X91749995Y-43000001D03*
X87999995Y-43000001D03*
X77499995Y-37000001D03*
X80499995Y-36000001D03*
X76249995Y-32750001D03*
X77249995Y-33750001D03*
X79499995Y-40000001D03*
X83999995Y-43000001D03*
X94749995Y-49250001D03*
%TD*%
D14*
%TO.N,Board_0-GND*%
X19959998Y-9250001D02*
X19959998Y-11190001D01*
D15*
X19959998Y-11190001D02*
X19949998Y-11200001D01*
%TO.N,Board_1-GND*%
X42709997Y-11190001D02*
X42699997Y-11200001D01*
D14*
X42709997Y-9250001D02*
X42709997Y-11190001D01*
%TO.N,Board_2-GND*%
X65459996Y-9250001D02*
X65459996Y-11190001D01*
D15*
X65459996Y-11190001D02*
X65449996Y-11200001D01*
D14*
%TO.N,Board_3-GND*%
X88209995Y-9250001D02*
X88209995Y-11190001D01*
D15*
X88209995Y-11190001D02*
X88199995Y-11200001D01*
%TO.N,Board_4-GND*%
X19959998Y-35440001D02*
X19949998Y-35450001D01*
D14*
X19959998Y-33500001D02*
X19959998Y-35440001D01*
%TO.N,Board_5-GND*%
X42709997Y-33500001D02*
X42709997Y-35440001D01*
D15*
X42709997Y-35440001D02*
X42699997Y-35450001D01*
D14*
%TO.N,Board_6-GND*%
X65459996Y-33500001D02*
X65459996Y-35440001D01*
D15*
X65459996Y-35440001D02*
X65449996Y-35450001D01*
%TO.N,Board_7-GND*%
X88209995Y-35440001D02*
X88199995Y-35450001D01*
D14*
X88209995Y-33500001D02*
X88209995Y-35440001D01*
%TD*%
%TA.AperFunction,Conductor*%
%TO.N,Board_6-GND*%
G36*
X61169767Y-32268955D02*
G01*
X61250549Y-32322931D01*
X61304525Y-32403713D01*
X61323479Y-32499001D01*
X61304525Y-32594289D01*
X61293025Y-32618324D01*
X61232422Y-32729312D01*
X61139919Y-32977323D01*
X61083653Y-33235975D01*
X61064769Y-33500001D01*
X61083653Y-33764027D01*
X61139919Y-34022679D01*
X61205749Y-34199178D01*
X61232421Y-34270688D01*
X61232423Y-34270692D01*
X61334418Y-34457482D01*
X61359280Y-34503012D01*
X61517909Y-34714916D01*
X61705081Y-34902088D01*
X61916985Y-35060717D01*
X62149307Y-35187575D01*
X62397318Y-35280078D01*
X62655970Y-35336344D01*
X62919996Y-35355228D01*
X63184022Y-35336344D01*
X63442674Y-35280078D01*
X63690685Y-35187575D01*
X63923007Y-35060717D01*
X64134911Y-34902088D01*
X64134915Y-34902083D01*
X64138145Y-34899666D01*
X64225785Y-34857736D01*
X64287365Y-34850001D01*
X65209995Y-34850001D01*
X65709997Y-34850001D01*
X67086126Y-34850001D01*
X67099454Y-34850358D01*
X67102106Y-34850499D01*
X67102123Y-34850501D01*
X68897868Y-34850500D01*
X68957479Y-34844092D01*
X69092327Y-34793797D01*
X69207542Y-34707547D01*
X69293792Y-34592332D01*
X69344087Y-34457484D01*
X69350496Y-34397874D01*
X69350495Y-32602129D01*
X69344087Y-32542518D01*
X69344086Y-32542517D01*
X69342422Y-32527029D01*
X69346281Y-32526614D01*
X69343857Y-32459235D01*
X69377785Y-32368197D01*
X69443970Y-32297073D01*
X69532335Y-32256690D01*
X69589661Y-32250001D01*
X72250996Y-32250001D01*
X72346284Y-32268955D01*
X72427066Y-32322931D01*
X72481042Y-32403713D01*
X72499996Y-32499001D01*
X72499996Y-52501001D01*
X72481042Y-52596289D01*
X72427066Y-52677071D01*
X72346284Y-52731047D01*
X72250996Y-52750001D01*
X67305513Y-52750001D01*
X67210225Y-52731047D01*
X67129443Y-52677071D01*
X67075467Y-52596289D01*
X67056513Y-52501001D01*
X67075467Y-52405713D01*
X67086966Y-52381677D01*
X67147570Y-52270690D01*
X67240073Y-52022679D01*
X67296339Y-51764027D01*
X67315223Y-51500001D01*
X67296339Y-51235975D01*
X67240073Y-50977323D01*
X67147570Y-50729312D01*
X67020712Y-50496990D01*
X66862083Y-50285086D01*
X66674911Y-50097914D01*
X66463007Y-49939285D01*
X66230685Y-49812427D01*
X66230683Y-49812426D01*
X66159173Y-49785754D01*
X65982674Y-49719924D01*
X65780289Y-49675898D01*
X65724023Y-49663658D01*
X65459996Y-49644774D01*
X65195968Y-49663658D01*
X65083436Y-49688138D01*
X64937318Y-49719924D01*
X64865806Y-49746596D01*
X64689308Y-49812426D01*
X64689304Y-49812428D01*
X64456991Y-49939281D01*
X64456984Y-49939285D01*
X64245086Y-50097909D01*
X64245082Y-50097913D01*
X64216126Y-50126868D01*
X64135343Y-50180842D01*
X64040054Y-50199793D01*
X63953047Y-50184094D01*
X63877480Y-50155910D01*
X63877481Y-50155910D01*
X63817869Y-50149501D01*
X62022130Y-50149501D01*
X62022126Y-50149501D01*
X62022124Y-50149502D01*
X62009310Y-50150879D01*
X61962515Y-50155909D01*
X61962511Y-50155910D01*
X61827666Y-50206204D01*
X61712451Y-50292454D01*
X61712449Y-50292456D01*
X61626200Y-50407670D01*
X61575904Y-50542519D01*
X61569496Y-50602124D01*
X61569496Y-52397866D01*
X61569497Y-52397870D01*
X61577570Y-52472973D01*
X61573710Y-52473387D01*
X61576135Y-52540767D01*
X61542207Y-52631805D01*
X61476022Y-52702929D01*
X61387657Y-52743312D01*
X61330331Y-52750001D01*
X53248996Y-52750001D01*
X53153708Y-52731047D01*
X53072926Y-52677071D01*
X53018950Y-52596289D01*
X52999996Y-52501001D01*
X52999996Y-32499001D01*
X53018950Y-32403713D01*
X53072926Y-32322931D01*
X53153708Y-32268955D01*
X53248996Y-32250001D01*
X61074479Y-32250001D01*
X61169767Y-32268955D01*
G37*
%TD.AperFunction*%
%TA.AperFunction,Conductor*%
G36*
X65709996Y-34658001D02*
G01*
X65209996Y-34591334D01*
X65209996Y-33935502D01*
X65317681Y-33984681D01*
X65424233Y-34000001D01*
X65495759Y-34000001D01*
X65602311Y-33984681D01*
X65709996Y-33935502D01*
X65709996Y-34658001D01*
G37*
%TD.AperFunction*%
%TD*%
%TA.AperFunction,Conductor*%
%TO.N,Board_5-GND*%
G36*
X38419768Y-32268955D02*
G01*
X38500550Y-32322931D01*
X38554526Y-32403713D01*
X38573480Y-32499001D01*
X38554526Y-32594289D01*
X38543026Y-32618324D01*
X38482423Y-32729312D01*
X38389920Y-32977323D01*
X38333654Y-33235975D01*
X38314770Y-33500001D01*
X38333654Y-33764027D01*
X38389920Y-34022679D01*
X38455750Y-34199178D01*
X38482422Y-34270688D01*
X38482424Y-34270692D01*
X38584419Y-34457482D01*
X38609281Y-34503012D01*
X38767910Y-34714916D01*
X38955082Y-34902088D01*
X39166986Y-35060717D01*
X39399308Y-35187575D01*
X39647319Y-35280078D01*
X39905971Y-35336344D01*
X40169997Y-35355228D01*
X40434023Y-35336344D01*
X40692675Y-35280078D01*
X40940686Y-35187575D01*
X41173008Y-35060717D01*
X41384912Y-34902088D01*
X41384916Y-34902083D01*
X41388146Y-34899666D01*
X41475786Y-34857736D01*
X41537366Y-34850001D01*
X42459996Y-34850001D01*
X42959998Y-34850001D01*
X44336127Y-34850001D01*
X44349455Y-34850358D01*
X44352107Y-34850499D01*
X44352124Y-34850501D01*
X46147869Y-34850500D01*
X46207480Y-34844092D01*
X46342328Y-34793797D01*
X46457543Y-34707547D01*
X46543793Y-34592332D01*
X46594088Y-34457484D01*
X46600497Y-34397874D01*
X46600496Y-32602129D01*
X46594088Y-32542518D01*
X46594087Y-32542517D01*
X46592423Y-32527029D01*
X46596282Y-32526614D01*
X46593858Y-32459235D01*
X46627786Y-32368197D01*
X46693971Y-32297073D01*
X46782336Y-32256690D01*
X46839662Y-32250001D01*
X49500997Y-32250001D01*
X49596285Y-32268955D01*
X49677067Y-32322931D01*
X49731043Y-32403713D01*
X49749997Y-32499001D01*
X49749997Y-52501001D01*
X49731043Y-52596289D01*
X49677067Y-52677071D01*
X49596285Y-52731047D01*
X49500997Y-52750001D01*
X44555514Y-52750001D01*
X44460226Y-52731047D01*
X44379444Y-52677071D01*
X44325468Y-52596289D01*
X44306514Y-52501001D01*
X44325468Y-52405713D01*
X44336967Y-52381677D01*
X44397571Y-52270690D01*
X44490074Y-52022679D01*
X44546340Y-51764027D01*
X44565224Y-51500001D01*
X44546340Y-51235975D01*
X44490074Y-50977323D01*
X44397571Y-50729312D01*
X44270713Y-50496990D01*
X44112084Y-50285086D01*
X43924912Y-50097914D01*
X43713008Y-49939285D01*
X43480686Y-49812427D01*
X43480684Y-49812426D01*
X43409174Y-49785754D01*
X43232675Y-49719924D01*
X43030290Y-49675898D01*
X42974024Y-49663658D01*
X42709997Y-49644774D01*
X42445969Y-49663658D01*
X42333437Y-49688138D01*
X42187319Y-49719924D01*
X42115807Y-49746596D01*
X41939309Y-49812426D01*
X41939305Y-49812428D01*
X41706992Y-49939281D01*
X41706985Y-49939285D01*
X41495087Y-50097909D01*
X41495083Y-50097913D01*
X41466127Y-50126868D01*
X41385344Y-50180842D01*
X41290055Y-50199793D01*
X41203048Y-50184094D01*
X41127481Y-50155910D01*
X41127482Y-50155910D01*
X41067870Y-50149501D01*
X39272131Y-50149501D01*
X39272127Y-50149501D01*
X39272125Y-50149502D01*
X39259311Y-50150879D01*
X39212516Y-50155909D01*
X39212512Y-50155910D01*
X39077667Y-50206204D01*
X38962452Y-50292454D01*
X38962450Y-50292456D01*
X38876201Y-50407670D01*
X38825905Y-50542519D01*
X38819497Y-50602124D01*
X38819497Y-52397866D01*
X38819498Y-52397870D01*
X38827571Y-52472973D01*
X38823711Y-52473387D01*
X38826136Y-52540767D01*
X38792208Y-52631805D01*
X38726023Y-52702929D01*
X38637658Y-52743312D01*
X38580332Y-52750001D01*
X30498997Y-52750001D01*
X30403709Y-52731047D01*
X30322927Y-52677071D01*
X30268951Y-52596289D01*
X30249997Y-52501001D01*
X30249997Y-32499001D01*
X30268951Y-32403713D01*
X30322927Y-32322931D01*
X30403709Y-32268955D01*
X30498997Y-32250001D01*
X38324480Y-32250001D01*
X38419768Y-32268955D01*
G37*
%TD.AperFunction*%
%TA.AperFunction,Conductor*%
G36*
X42959997Y-34658001D02*
G01*
X42459997Y-34591334D01*
X42459997Y-33935502D01*
X42567682Y-33984681D01*
X42674234Y-34000001D01*
X42745760Y-34000001D01*
X42852312Y-33984681D01*
X42959997Y-33935502D01*
X42959997Y-34658001D01*
G37*
%TD.AperFunction*%
%TD*%
%TA.AperFunction,NonConductor*%
G36*
X86624996Y-6000954D02*
G01*
X86625147Y-6013265D01*
X86626350Y-6062293D01*
X86627554Y-6086807D01*
X86631162Y-6135712D01*
X86633568Y-6160138D01*
X86639567Y-6208783D01*
X86643168Y-6233060D01*
X86651552Y-6281371D01*
X86656338Y-6305432D01*
X86666084Y-6348835D01*
X86661564Y-6418558D01*
X86620067Y-6474770D01*
X86554767Y-6499623D01*
X86545096Y-6500001D01*
X86202812Y-6500001D01*
X86195183Y-6499501D01*
X86190888Y-6499501D01*
X86059104Y-6499501D01*
X86054809Y-6499501D01*
X86047180Y-6500001D01*
X85202812Y-6500001D01*
X85195183Y-6499501D01*
X85190888Y-6499501D01*
X85059104Y-6499501D01*
X85054809Y-6499501D01*
X85047180Y-6500001D01*
X84704896Y-6500001D01*
X84637857Y-6480316D01*
X84592102Y-6427512D01*
X84582158Y-6358354D01*
X84583908Y-6348835D01*
X84593651Y-6305447D01*
X84598439Y-6281377D01*
X84606822Y-6233066D01*
X84610423Y-6208790D01*
X84616425Y-6160126D01*
X84618830Y-6135703D01*
X84622438Y-6086802D01*
X84623642Y-6062290D01*
X84624845Y-6013259D01*
X84624996Y-6000989D01*
X84624996Y-6000001D01*
X86624996Y-6000001D01*
X86624996Y-6000954D01*
G37*
%TD.AperFunction*%
%TA.AperFunction,NonConductor*%
G36*
X63874997Y-6000954D02*
G01*
X63875148Y-6013265D01*
X63876351Y-6062293D01*
X63877555Y-6086807D01*
X63881163Y-6135712D01*
X63883569Y-6160138D01*
X63889568Y-6208783D01*
X63893169Y-6233060D01*
X63901553Y-6281371D01*
X63906339Y-6305432D01*
X63916085Y-6348835D01*
X63911565Y-6418558D01*
X63870068Y-6474770D01*
X63804768Y-6499623D01*
X63795097Y-6500001D01*
X63452813Y-6500001D01*
X63445184Y-6499501D01*
X63440889Y-6499501D01*
X63309105Y-6499501D01*
X63304810Y-6499501D01*
X63297181Y-6500001D01*
X62452813Y-6500001D01*
X62445184Y-6499501D01*
X62440889Y-6499501D01*
X62309105Y-6499501D01*
X62304810Y-6499501D01*
X62297181Y-6500001D01*
X61954897Y-6500001D01*
X61887858Y-6480316D01*
X61842103Y-6427512D01*
X61832159Y-6358354D01*
X61833909Y-6348835D01*
X61843652Y-6305447D01*
X61848440Y-6281377D01*
X61856823Y-6233066D01*
X61860424Y-6208790D01*
X61866426Y-6160126D01*
X61868831Y-6135703D01*
X61872439Y-6086802D01*
X61873643Y-6062290D01*
X61874846Y-6013259D01*
X61874997Y-6000989D01*
X61874997Y-6000001D01*
X63874997Y-6000001D01*
X63874997Y-6000954D01*
G37*
%TD.AperFunction*%
%TA.AperFunction,NonConductor*%
G36*
X41124998Y-6000954D02*
G01*
X41125149Y-6013265D01*
X41126352Y-6062293D01*
X41127556Y-6086807D01*
X41131164Y-6135712D01*
X41133570Y-6160138D01*
X41139569Y-6208783D01*
X41143170Y-6233060D01*
X41151554Y-6281371D01*
X41156340Y-6305432D01*
X41166086Y-6348835D01*
X41161566Y-6418558D01*
X41120069Y-6474770D01*
X41054769Y-6499623D01*
X41045098Y-6500001D01*
X40702814Y-6500001D01*
X40695185Y-6499501D01*
X40690890Y-6499501D01*
X40559106Y-6499501D01*
X40554811Y-6499501D01*
X40547182Y-6500001D01*
X39702814Y-6500001D01*
X39695185Y-6499501D01*
X39690890Y-6499501D01*
X39559106Y-6499501D01*
X39554811Y-6499501D01*
X39547182Y-6500001D01*
X39204898Y-6500001D01*
X39137859Y-6480316D01*
X39092104Y-6427512D01*
X39082160Y-6358354D01*
X39083910Y-6348835D01*
X39093653Y-6305447D01*
X39098441Y-6281377D01*
X39106824Y-6233066D01*
X39110425Y-6208790D01*
X39116427Y-6160126D01*
X39118832Y-6135703D01*
X39122440Y-6086802D01*
X39123644Y-6062290D01*
X39124847Y-6013259D01*
X39124998Y-6000989D01*
X39124998Y-6000001D01*
X41124998Y-6000001D01*
X41124998Y-6000954D01*
G37*
%TD.AperFunction*%
%TA.AperFunction,NonConductor*%
G36*
X18374999Y-6000954D02*
G01*
X18375150Y-6013265D01*
X18376353Y-6062293D01*
X18377557Y-6086807D01*
X18381165Y-6135712D01*
X18383571Y-6160138D01*
X18389570Y-6208783D01*
X18393171Y-6233060D01*
X18401555Y-6281371D01*
X18406341Y-6305432D01*
X18416087Y-6348835D01*
X18411567Y-6418558D01*
X18370070Y-6474770D01*
X18304770Y-6499623D01*
X18295099Y-6500001D01*
X17952815Y-6500001D01*
X17945186Y-6499501D01*
X17940891Y-6499501D01*
X17809107Y-6499501D01*
X17804812Y-6499501D01*
X17797183Y-6500001D01*
X16952816Y-6500001D01*
X16945187Y-6499501D01*
X16940892Y-6499501D01*
X16809108Y-6499501D01*
X16804813Y-6499501D01*
X16797184Y-6500001D01*
X16454900Y-6500001D01*
X16387861Y-6480316D01*
X16342106Y-6427512D01*
X16332162Y-6358354D01*
X16333912Y-6348835D01*
X16343655Y-6305447D01*
X16348443Y-6281377D01*
X16356826Y-6233066D01*
X16360427Y-6208790D01*
X16366429Y-6160126D01*
X16368834Y-6135703D01*
X16372442Y-6086802D01*
X16373646Y-6062290D01*
X16374849Y-6013259D01*
X16375000Y-6000989D01*
X16375000Y-6000001D01*
X18374999Y-6000001D01*
X18374999Y-6000954D01*
G37*
%TD.AperFunction*%
%TA.AperFunction,NonConductor*%
G36*
X96651143Y-17083909D02*
G01*
X96694549Y-17093656D01*
X96718619Y-17098444D01*
X96760539Y-17105718D01*
X96766935Y-17106828D01*
X96791212Y-17110429D01*
X96814926Y-17113353D01*
X96839871Y-17116430D01*
X96861398Y-17118549D01*
X96864283Y-17118834D01*
X96864286Y-17118834D01*
X96864294Y-17118835D01*
X96913194Y-17122443D01*
X96937706Y-17123647D01*
X96986737Y-17124850D01*
X96999007Y-17125001D01*
X96999995Y-17125001D01*
X96999994Y-19125000D01*
X96999042Y-19125000D01*
X96999007Y-19125000D01*
X96988782Y-19125125D01*
X96986730Y-19125151D01*
X96937702Y-19126354D01*
X96913188Y-19127558D01*
X96864282Y-19131166D01*
X96839856Y-19133572D01*
X96791212Y-19139571D01*
X96766935Y-19143172D01*
X96718624Y-19151556D01*
X96694563Y-19156342D01*
X96694554Y-19156343D01*
X96694549Y-19156345D01*
X96651160Y-19166087D01*
X96581438Y-19161568D01*
X96525226Y-19120071D01*
X96500373Y-19054771D01*
X96499995Y-19045100D01*
X96499995Y-18702816D01*
X96500495Y-18695186D01*
X96500495Y-18554815D01*
X96499995Y-18547185D01*
X96499995Y-17702817D01*
X96500495Y-17695187D01*
X96500495Y-17554816D01*
X96499995Y-17547186D01*
X96499995Y-17204900D01*
X96519680Y-17137861D01*
X96572484Y-17092106D01*
X96641642Y-17082162D01*
X96651143Y-17083909D01*
G37*
%TD.AperFunction*%
%TA.AperFunction,NonConductor*%
G36*
X6418556Y-17088431D02*
G01*
X6474768Y-17129927D01*
X6499623Y-17195226D01*
X6500001Y-17204900D01*
X6500001Y-17547186D01*
X6499501Y-17554816D01*
X6499501Y-17695187D01*
X6500001Y-17702817D01*
X6500001Y-18547185D01*
X6499501Y-18554815D01*
X6499501Y-18695186D01*
X6500001Y-18702816D01*
X6500001Y-19045100D01*
X6480316Y-19112139D01*
X6427512Y-19157894D01*
X6358354Y-19167838D01*
X6348838Y-19166088D01*
X6305447Y-19156345D01*
X6281377Y-19151557D01*
X6279384Y-19151211D01*
X6233060Y-19143172D01*
X6208783Y-19139571D01*
X6160138Y-19133572D01*
X6135712Y-19131166D01*
X6086807Y-19127558D01*
X6062293Y-19126354D01*
X6013265Y-19125151D01*
X6011463Y-19125128D01*
X6000989Y-19125000D01*
X6000954Y-19125000D01*
X6000001Y-19125000D01*
X6000002Y-17125001D01*
X6000954Y-17125001D01*
X6000989Y-17125001D01*
X6013259Y-17124850D01*
X6062290Y-17123647D01*
X6086802Y-17122443D01*
X6135703Y-17118835D01*
X6160126Y-17116430D01*
X6196318Y-17111966D01*
X6208783Y-17110429D01*
X6233060Y-17106828D01*
X6233066Y-17106827D01*
X6281377Y-17098444D01*
X6305447Y-17093656D01*
X6348834Y-17083913D01*
X6418556Y-17088431D01*
G37*
%TD.AperFunction*%
%TA.AperFunction,NonConductor*%
G36*
X96651143Y-41333908D02*
G01*
X96694549Y-41343655D01*
X96718619Y-41348443D01*
X96760539Y-41355717D01*
X96766935Y-41356827D01*
X96791212Y-41360428D01*
X96814926Y-41363352D01*
X96839871Y-41366429D01*
X96861398Y-41368548D01*
X96864283Y-41368833D01*
X96864286Y-41368833D01*
X96864294Y-41368834D01*
X96913194Y-41372442D01*
X96937706Y-41373646D01*
X96986737Y-41374849D01*
X96999007Y-41375000D01*
X96999995Y-41375000D01*
X96999994Y-43375000D01*
X96999042Y-43375000D01*
X96999007Y-43375000D01*
X96988782Y-43375125D01*
X96986730Y-43375151D01*
X96937702Y-43376354D01*
X96913188Y-43377558D01*
X96864282Y-43381166D01*
X96839856Y-43383572D01*
X96791212Y-43389571D01*
X96766935Y-43393172D01*
X96718624Y-43401556D01*
X96694563Y-43406342D01*
X96694554Y-43406343D01*
X96694549Y-43406345D01*
X96651160Y-43416087D01*
X96581438Y-43411568D01*
X96525226Y-43370071D01*
X96500373Y-43304771D01*
X96499995Y-43295100D01*
X96499995Y-42952816D01*
X96500495Y-42945186D01*
X96500495Y-42804815D01*
X96499995Y-42797185D01*
X96499995Y-41952816D01*
X96500495Y-41945186D01*
X96500495Y-41804815D01*
X96499995Y-41797185D01*
X96499995Y-41454899D01*
X96519680Y-41387860D01*
X96572484Y-41342105D01*
X96641642Y-41332161D01*
X96651143Y-41333908D01*
G37*
%TD.AperFunction*%
%TA.AperFunction,NonConductor*%
G36*
X6418556Y-41338430D02*
G01*
X6474768Y-41379926D01*
X6499623Y-41445225D01*
X6500001Y-41454899D01*
X6500001Y-41797185D01*
X6499501Y-41804815D01*
X6499501Y-41945186D01*
X6500001Y-41952816D01*
X6500001Y-42797185D01*
X6499501Y-42804815D01*
X6499501Y-42945186D01*
X6500001Y-42952816D01*
X6500001Y-43295100D01*
X6480316Y-43362139D01*
X6427512Y-43407894D01*
X6358354Y-43417838D01*
X6348838Y-43416088D01*
X6305447Y-43406345D01*
X6281377Y-43401557D01*
X6279384Y-43401211D01*
X6233060Y-43393172D01*
X6208783Y-43389571D01*
X6160138Y-43383572D01*
X6135712Y-43381166D01*
X6086807Y-43377558D01*
X6062293Y-43376354D01*
X6013265Y-43375151D01*
X6011463Y-43375128D01*
X6000989Y-43375000D01*
X6000954Y-43375000D01*
X6000001Y-43375000D01*
X6000002Y-41375000D01*
X6000954Y-41375000D01*
X6000989Y-41375000D01*
X6013259Y-41374849D01*
X6062290Y-41373646D01*
X6086802Y-41372442D01*
X6135703Y-41368834D01*
X6160126Y-41366429D01*
X6196318Y-41361965D01*
X6208783Y-41360428D01*
X6233060Y-41356827D01*
X6233066Y-41356826D01*
X6281377Y-41348443D01*
X6305447Y-41343655D01*
X6348834Y-41333912D01*
X6418556Y-41338430D01*
G37*
%TD.AperFunction*%
%TA.AperFunction,NonConductor*%
G36*
X85054809Y-54000500D02*
G01*
X85059104Y-54000500D01*
X85195183Y-54000500D01*
X85202812Y-54000000D01*
X86047180Y-54000000D01*
X86054809Y-54000500D01*
X86059104Y-54000500D01*
X86195183Y-54000500D01*
X86202812Y-54000000D01*
X86545096Y-54000000D01*
X86612135Y-54019685D01*
X86657890Y-54072489D01*
X86667834Y-54141647D01*
X86666084Y-54151166D01*
X86656338Y-54194568D01*
X86651552Y-54218629D01*
X86643168Y-54266940D01*
X86639567Y-54291217D01*
X86633568Y-54339862D01*
X86631162Y-54364288D01*
X86627554Y-54413193D01*
X86627554Y-54413199D01*
X86626350Y-54437711D01*
X86625147Y-54486742D01*
X86624996Y-54499012D01*
X86624996Y-54500000D01*
X84624996Y-54500000D01*
X84624996Y-54499012D01*
X84624845Y-54486742D01*
X84623642Y-54437711D01*
X84622438Y-54413199D01*
X84618830Y-54364298D01*
X84616425Y-54339875D01*
X84610423Y-54291211D01*
X84606822Y-54266935D01*
X84598439Y-54218624D01*
X84593651Y-54194554D01*
X84583908Y-54151165D01*
X84588428Y-54081443D01*
X84629925Y-54025231D01*
X84695225Y-54000378D01*
X84704896Y-54000000D01*
X85047180Y-54000000D01*
X85054809Y-54000500D01*
G37*
%TD.AperFunction*%
%TA.AperFunction,NonConductor*%
G36*
X62304810Y-54000500D02*
G01*
X62309105Y-54000500D01*
X62445184Y-54000500D01*
X62452813Y-54000000D01*
X63297181Y-54000000D01*
X63304810Y-54000500D01*
X63309105Y-54000500D01*
X63445184Y-54000500D01*
X63452813Y-54000000D01*
X63795097Y-54000000D01*
X63862136Y-54019685D01*
X63907891Y-54072489D01*
X63917835Y-54141647D01*
X63916085Y-54151166D01*
X63906339Y-54194568D01*
X63901553Y-54218629D01*
X63893169Y-54266940D01*
X63889568Y-54291217D01*
X63883569Y-54339862D01*
X63881163Y-54364288D01*
X63877555Y-54413193D01*
X63877555Y-54413199D01*
X63876351Y-54437711D01*
X63875148Y-54486742D01*
X63874997Y-54499012D01*
X63874997Y-54500000D01*
X61874997Y-54500000D01*
X61874997Y-54499012D01*
X61874846Y-54486742D01*
X61873643Y-54437711D01*
X61872439Y-54413199D01*
X61868831Y-54364298D01*
X61866426Y-54339875D01*
X61860424Y-54291211D01*
X61856823Y-54266935D01*
X61848440Y-54218624D01*
X61843652Y-54194554D01*
X61833909Y-54151165D01*
X61838429Y-54081443D01*
X61879926Y-54025231D01*
X61945226Y-54000378D01*
X61954897Y-54000000D01*
X62297181Y-54000000D01*
X62304810Y-54000500D01*
G37*
%TD.AperFunction*%
%TA.AperFunction,NonConductor*%
G36*
X39554811Y-54000500D02*
G01*
X39559106Y-54000500D01*
X39695185Y-54000500D01*
X39702814Y-54000000D01*
X40547182Y-54000000D01*
X40554811Y-54000500D01*
X40559106Y-54000500D01*
X40695185Y-54000500D01*
X40702814Y-54000000D01*
X41045098Y-54000000D01*
X41112137Y-54019685D01*
X41157892Y-54072489D01*
X41167836Y-54141647D01*
X41166086Y-54151166D01*
X41156340Y-54194568D01*
X41151554Y-54218629D01*
X41143170Y-54266940D01*
X41139569Y-54291217D01*
X41133570Y-54339862D01*
X41131164Y-54364288D01*
X41127556Y-54413193D01*
X41127556Y-54413199D01*
X41126352Y-54437711D01*
X41125149Y-54486742D01*
X41124998Y-54499012D01*
X41124998Y-54500000D01*
X39124998Y-54500000D01*
X39124998Y-54499012D01*
X39124847Y-54486742D01*
X39123644Y-54437711D01*
X39122440Y-54413199D01*
X39118832Y-54364298D01*
X39116427Y-54339875D01*
X39110425Y-54291211D01*
X39106824Y-54266935D01*
X39098441Y-54218624D01*
X39093653Y-54194554D01*
X39083910Y-54151165D01*
X39088430Y-54081443D01*
X39129927Y-54025231D01*
X39195227Y-54000378D01*
X39204898Y-54000000D01*
X39547182Y-54000000D01*
X39554811Y-54000500D01*
G37*
%TD.AperFunction*%
%TA.AperFunction,NonConductor*%
G36*
X16804813Y-54000500D02*
G01*
X16809108Y-54000500D01*
X16945187Y-54000500D01*
X16952816Y-54000000D01*
X17797183Y-54000000D01*
X17804812Y-54000500D01*
X17809107Y-54000500D01*
X17945186Y-54000500D01*
X17952815Y-54000000D01*
X18295099Y-54000000D01*
X18362138Y-54019685D01*
X18407893Y-54072489D01*
X18417837Y-54141647D01*
X18416087Y-54151166D01*
X18406341Y-54194568D01*
X18401555Y-54218629D01*
X18393171Y-54266940D01*
X18389570Y-54291217D01*
X18383571Y-54339862D01*
X18381165Y-54364288D01*
X18377557Y-54413193D01*
X18377557Y-54413199D01*
X18376353Y-54437711D01*
X18375150Y-54486742D01*
X18374999Y-54499012D01*
X18374999Y-54500000D01*
X16375000Y-54500000D01*
X16375000Y-54499012D01*
X16374849Y-54486742D01*
X16373646Y-54437711D01*
X16372442Y-54413199D01*
X16368834Y-54364298D01*
X16366429Y-54339875D01*
X16360427Y-54291211D01*
X16356826Y-54266935D01*
X16348443Y-54218624D01*
X16343655Y-54194554D01*
X16333912Y-54151165D01*
X16338432Y-54081443D01*
X16379929Y-54025231D01*
X16445229Y-54000378D01*
X16454900Y-54000000D01*
X16797184Y-54000000D01*
X16804813Y-54000500D01*
G37*
%TD.AperFunction*%
%TA.AperFunction,NonConductor*%
G36*
X51151145Y-41333908D02*
G01*
X51194551Y-41343655D01*
X51218621Y-41348443D01*
X51260541Y-41355717D01*
X51266937Y-41356827D01*
X51291214Y-41360428D01*
X51314928Y-41363352D01*
X51339873Y-41366429D01*
X51361400Y-41368548D01*
X51364285Y-41368833D01*
X51364288Y-41368833D01*
X51364296Y-41368834D01*
X51413196Y-41372442D01*
X51437708Y-41373646D01*
X51486739Y-41374849D01*
X51499009Y-41375000D01*
X51499997Y-41375000D01*
X51499996Y-43375000D01*
X51499044Y-43375000D01*
X51499009Y-43375000D01*
X51488784Y-43375125D01*
X51486732Y-43375151D01*
X51437704Y-43376354D01*
X51413190Y-43377558D01*
X51364284Y-43381166D01*
X51339858Y-43383572D01*
X51291214Y-43389571D01*
X51266937Y-43393172D01*
X51218626Y-43401556D01*
X51194565Y-43406342D01*
X51194556Y-43406343D01*
X51194551Y-43406345D01*
X51151162Y-43416087D01*
X51081440Y-43411568D01*
X51025228Y-43370071D01*
X51000375Y-43304771D01*
X50999997Y-43295100D01*
X50999997Y-42952816D01*
X51000497Y-42945186D01*
X51000497Y-42804815D01*
X50999997Y-42797185D01*
X50999997Y-41952816D01*
X51000497Y-41945186D01*
X51000497Y-41804815D01*
X50999997Y-41797185D01*
X50999997Y-41454899D01*
X51019682Y-41387860D01*
X51072486Y-41342105D01*
X51141644Y-41332161D01*
X51151145Y-41333908D01*
G37*
%TD.AperFunction*%
%TA.AperFunction,NonConductor*%
G36*
X51918553Y-41338430D02*
G01*
X51974765Y-41379926D01*
X51999620Y-41445225D01*
X51999998Y-41454899D01*
X51999998Y-41797185D01*
X51999498Y-41804815D01*
X51999498Y-41945186D01*
X51999998Y-41952816D01*
X51999998Y-42797185D01*
X51999498Y-42804815D01*
X51999498Y-42945186D01*
X51999998Y-42952816D01*
X51999998Y-43295100D01*
X51980313Y-43362139D01*
X51927509Y-43407894D01*
X51858351Y-43417838D01*
X51848835Y-43416088D01*
X51805444Y-43406345D01*
X51781374Y-43401557D01*
X51779381Y-43401211D01*
X51733057Y-43393172D01*
X51708780Y-43389571D01*
X51660135Y-43383572D01*
X51635709Y-43381166D01*
X51586804Y-43377558D01*
X51562290Y-43376354D01*
X51513262Y-43375151D01*
X51511460Y-43375128D01*
X51500986Y-43375000D01*
X51500951Y-43375000D01*
X51499998Y-43375000D01*
X51499999Y-41375000D01*
X51500951Y-41375000D01*
X51500986Y-41375000D01*
X51513256Y-41374849D01*
X51562287Y-41373646D01*
X51586799Y-41372442D01*
X51635700Y-41368834D01*
X51660123Y-41366429D01*
X51696315Y-41361965D01*
X51708780Y-41360428D01*
X51733057Y-41356827D01*
X51733063Y-41356826D01*
X51781374Y-41348443D01*
X51805444Y-41343655D01*
X51848831Y-41333912D01*
X51918553Y-41338430D01*
G37*
%TD.AperFunction*%
%TA.AperFunction,Conductor*%
%TO.N,Board_7-GND*%
G36*
X83919766Y-32268955D02*
G01*
X84000548Y-32322931D01*
X84054524Y-32403713D01*
X84073478Y-32499001D01*
X84054524Y-32594289D01*
X84043024Y-32618324D01*
X83982421Y-32729312D01*
X83889918Y-32977323D01*
X83833652Y-33235975D01*
X83814768Y-33500001D01*
X83833652Y-33764027D01*
X83889918Y-34022679D01*
X83955748Y-34199178D01*
X83982420Y-34270688D01*
X83982422Y-34270692D01*
X84084417Y-34457482D01*
X84109279Y-34503012D01*
X84267908Y-34714916D01*
X84455080Y-34902088D01*
X84666984Y-35060717D01*
X84899306Y-35187575D01*
X85147317Y-35280078D01*
X85405969Y-35336344D01*
X85669995Y-35355228D01*
X85934021Y-35336344D01*
X86192673Y-35280078D01*
X86440684Y-35187575D01*
X86673006Y-35060717D01*
X86884910Y-34902088D01*
X86884914Y-34902083D01*
X86888144Y-34899666D01*
X86975784Y-34857736D01*
X87037364Y-34850001D01*
X87959994Y-34850001D01*
X88459996Y-34850001D01*
X89836125Y-34850001D01*
X89849453Y-34850358D01*
X89852105Y-34850499D01*
X89852122Y-34850501D01*
X91647867Y-34850500D01*
X91707478Y-34844092D01*
X91842326Y-34793797D01*
X91957541Y-34707547D01*
X92043791Y-34592332D01*
X92094086Y-34457484D01*
X92100495Y-34397874D01*
X92100494Y-32602129D01*
X92094086Y-32542518D01*
X92094085Y-32542517D01*
X92092421Y-32527029D01*
X92096280Y-32526614D01*
X92093856Y-32459235D01*
X92127784Y-32368197D01*
X92193969Y-32297073D01*
X92282334Y-32256690D01*
X92339660Y-32250001D01*
X95000995Y-32250001D01*
X95096283Y-32268955D01*
X95177065Y-32322931D01*
X95231041Y-32403713D01*
X95249995Y-32499001D01*
X95249995Y-52501001D01*
X95231041Y-52596289D01*
X95177065Y-52677071D01*
X95096283Y-52731047D01*
X95000995Y-52750001D01*
X90055512Y-52750001D01*
X89960224Y-52731047D01*
X89879442Y-52677071D01*
X89825466Y-52596289D01*
X89806512Y-52501001D01*
X89825466Y-52405713D01*
X89836965Y-52381677D01*
X89897569Y-52270690D01*
X89990072Y-52022679D01*
X90046338Y-51764027D01*
X90065222Y-51500001D01*
X90046338Y-51235975D01*
X89990072Y-50977323D01*
X89897569Y-50729312D01*
X89770711Y-50496990D01*
X89612082Y-50285086D01*
X89424910Y-50097914D01*
X89213006Y-49939285D01*
X88980684Y-49812427D01*
X88980682Y-49812426D01*
X88909172Y-49785754D01*
X88732673Y-49719924D01*
X88530288Y-49675898D01*
X88474022Y-49663658D01*
X88209995Y-49644774D01*
X87945967Y-49663658D01*
X87833435Y-49688138D01*
X87687317Y-49719924D01*
X87615805Y-49746596D01*
X87439307Y-49812426D01*
X87439303Y-49812428D01*
X87206990Y-49939281D01*
X87206983Y-49939285D01*
X86995085Y-50097909D01*
X86995081Y-50097913D01*
X86966125Y-50126868D01*
X86885342Y-50180842D01*
X86790053Y-50199793D01*
X86703046Y-50184094D01*
X86627479Y-50155910D01*
X86627480Y-50155910D01*
X86567868Y-50149501D01*
X84772129Y-50149501D01*
X84772125Y-50149501D01*
X84772123Y-50149502D01*
X84759309Y-50150879D01*
X84712514Y-50155909D01*
X84712510Y-50155910D01*
X84577665Y-50206204D01*
X84462450Y-50292454D01*
X84462448Y-50292456D01*
X84376199Y-50407670D01*
X84325903Y-50542519D01*
X84319495Y-50602124D01*
X84319495Y-52397866D01*
X84319496Y-52397870D01*
X84327569Y-52472973D01*
X84323709Y-52473387D01*
X84326134Y-52540767D01*
X84292206Y-52631805D01*
X84226021Y-52702929D01*
X84137656Y-52743312D01*
X84080330Y-52750001D01*
X75998995Y-52750001D01*
X75903707Y-52731047D01*
X75822925Y-52677071D01*
X75768949Y-52596289D01*
X75749995Y-52501001D01*
X75749995Y-32499001D01*
X75768949Y-32403713D01*
X75822925Y-32322931D01*
X75903707Y-32268955D01*
X75998995Y-32250001D01*
X83824478Y-32250001D01*
X83919766Y-32268955D01*
G37*
%TD.AperFunction*%
%TA.AperFunction,Conductor*%
G36*
X88459995Y-34658001D02*
G01*
X87959995Y-34591334D01*
X87959995Y-33935502D01*
X88067680Y-33984681D01*
X88174232Y-34000001D01*
X88245758Y-34000001D01*
X88352310Y-33984681D01*
X88459995Y-33935502D01*
X88459995Y-34658001D01*
G37*
%TD.AperFunction*%
%TD*%
%TA.AperFunction,NonConductor*%
G36*
X62304810Y-29750500D02*
G01*
X62309105Y-29750500D01*
X62445184Y-29750500D01*
X62452813Y-29750000D01*
X63297181Y-29750000D01*
X63304810Y-29750500D01*
X63309105Y-29750500D01*
X63445184Y-29750500D01*
X63452813Y-29750000D01*
X63795097Y-29750000D01*
X63862136Y-29769685D01*
X63907891Y-29822489D01*
X63917835Y-29891647D01*
X63916085Y-29901166D01*
X63906339Y-29944568D01*
X63901553Y-29968629D01*
X63893169Y-30016940D01*
X63889568Y-30041217D01*
X63883569Y-30089862D01*
X63881163Y-30114288D01*
X63877555Y-30163193D01*
X63876351Y-30187707D01*
X63875148Y-30236735D01*
X63874997Y-30249046D01*
X63874997Y-30250953D01*
X63875148Y-30263264D01*
X63876351Y-30312292D01*
X63877555Y-30336806D01*
X63881163Y-30385711D01*
X63883569Y-30410137D01*
X63889568Y-30458782D01*
X63893169Y-30483059D01*
X63901553Y-30531370D01*
X63906339Y-30555431D01*
X63916085Y-30598834D01*
X63911565Y-30668557D01*
X63870068Y-30724769D01*
X63804768Y-30749622D01*
X63795097Y-30750000D01*
X63452813Y-30750000D01*
X63445184Y-30749500D01*
X63440889Y-30749500D01*
X63309105Y-30749500D01*
X63304810Y-30749500D01*
X63297181Y-30750000D01*
X62452813Y-30750000D01*
X62445184Y-30749500D01*
X62440889Y-30749500D01*
X62309105Y-30749500D01*
X62304810Y-30749500D01*
X62297181Y-30750000D01*
X61954897Y-30750000D01*
X61887858Y-30730315D01*
X61842103Y-30677511D01*
X61832159Y-30608353D01*
X61833909Y-30598834D01*
X61843652Y-30555446D01*
X61848440Y-30531376D01*
X61856823Y-30483065D01*
X61860424Y-30458789D01*
X61866426Y-30410125D01*
X61868831Y-30385702D01*
X61872439Y-30336801D01*
X61873643Y-30312289D01*
X61874846Y-30263258D01*
X61874997Y-30250988D01*
X61874997Y-30250000D01*
X62874996Y-30250000D01*
X61874997Y-30249999D01*
X61874997Y-30249012D01*
X61874846Y-30236742D01*
X61873643Y-30187711D01*
X61872439Y-30163199D01*
X61868831Y-30114298D01*
X61866426Y-30089875D01*
X61860424Y-30041211D01*
X61856823Y-30016935D01*
X61848440Y-29968624D01*
X61843652Y-29944554D01*
X61833909Y-29901165D01*
X61838429Y-29831443D01*
X61879926Y-29775231D01*
X61945226Y-29750378D01*
X61954897Y-29750000D01*
X62297181Y-29750000D01*
X62304810Y-29750500D01*
G37*
%TD.AperFunction*%
%TA.AperFunction,NonConductor*%
G36*
X51151145Y-17083909D02*
G01*
X51194551Y-17093656D01*
X51218621Y-17098444D01*
X51260541Y-17105718D01*
X51266937Y-17106828D01*
X51291214Y-17110429D01*
X51314928Y-17113353D01*
X51339873Y-17116430D01*
X51361400Y-17118549D01*
X51364285Y-17118834D01*
X51364288Y-17118834D01*
X51364296Y-17118835D01*
X51413196Y-17122443D01*
X51437708Y-17123647D01*
X51486739Y-17124850D01*
X51499009Y-17125001D01*
X51499997Y-17125001D01*
X51499996Y-19125000D01*
X51499044Y-19125000D01*
X51499009Y-19125000D01*
X51488784Y-19125125D01*
X51486732Y-19125151D01*
X51437704Y-19126354D01*
X51413190Y-19127558D01*
X51364284Y-19131166D01*
X51339858Y-19133572D01*
X51291214Y-19139571D01*
X51266937Y-19143172D01*
X51218626Y-19151556D01*
X51194565Y-19156342D01*
X51194556Y-19156343D01*
X51194551Y-19156345D01*
X51151162Y-19166087D01*
X51081440Y-19161568D01*
X51025228Y-19120071D01*
X51000375Y-19054771D01*
X50999997Y-19045100D01*
X50999997Y-18702816D01*
X51000497Y-18695186D01*
X51000497Y-18554815D01*
X50999997Y-18547185D01*
X50999997Y-17702817D01*
X51000497Y-17695187D01*
X51000497Y-17554816D01*
X50999997Y-17547186D01*
X50999997Y-17204900D01*
X51019682Y-17137861D01*
X51072486Y-17092106D01*
X51141644Y-17082162D01*
X51151145Y-17083909D01*
G37*
%TD.AperFunction*%
%TA.AperFunction,NonConductor*%
G36*
X51918553Y-17088431D02*
G01*
X51974765Y-17129927D01*
X51999620Y-17195226D01*
X51999998Y-17204900D01*
X51999998Y-17547186D01*
X51999498Y-17554816D01*
X51999498Y-17695187D01*
X51999998Y-17702817D01*
X51999998Y-18547185D01*
X51999498Y-18554815D01*
X51999498Y-18695186D01*
X51999998Y-18702816D01*
X51999998Y-19045100D01*
X51980313Y-19112139D01*
X51927509Y-19157894D01*
X51858351Y-19167838D01*
X51848835Y-19166088D01*
X51805444Y-19156345D01*
X51781374Y-19151557D01*
X51779381Y-19151211D01*
X51733057Y-19143172D01*
X51708780Y-19139571D01*
X51660135Y-19133572D01*
X51635709Y-19131166D01*
X51586804Y-19127558D01*
X51562290Y-19126354D01*
X51513262Y-19125151D01*
X51511460Y-19125128D01*
X51500986Y-19125000D01*
X51500951Y-19125000D01*
X51499998Y-19125000D01*
X51499999Y-17125001D01*
X51500951Y-17125001D01*
X51500986Y-17125001D01*
X51513256Y-17124850D01*
X51562287Y-17123647D01*
X51586799Y-17122443D01*
X51635700Y-17118835D01*
X51660123Y-17116430D01*
X51696315Y-17111966D01*
X51708780Y-17110429D01*
X51733057Y-17106828D01*
X51733063Y-17106827D01*
X51781374Y-17098444D01*
X51805444Y-17093656D01*
X51848831Y-17083913D01*
X51918553Y-17088431D01*
G37*
%TD.AperFunction*%
%TA.AperFunction,NonConductor*%
G36*
X16804813Y-29750500D02*
G01*
X16809108Y-29750500D01*
X16945187Y-29750500D01*
X16952816Y-29750000D01*
X17797183Y-29750000D01*
X17804812Y-29750500D01*
X17809107Y-29750500D01*
X17945186Y-29750500D01*
X17952815Y-29750000D01*
X18295099Y-29750000D01*
X18362138Y-29769685D01*
X18407893Y-29822489D01*
X18417837Y-29891647D01*
X18416087Y-29901166D01*
X18406341Y-29944568D01*
X18401555Y-29968629D01*
X18393171Y-30016940D01*
X18389570Y-30041217D01*
X18383571Y-30089862D01*
X18381165Y-30114288D01*
X18377557Y-30163193D01*
X18376353Y-30187707D01*
X18375150Y-30236735D01*
X18374999Y-30249046D01*
X18374999Y-30250953D01*
X18375150Y-30263264D01*
X18376353Y-30312292D01*
X18377557Y-30336806D01*
X18381165Y-30385711D01*
X18383571Y-30410137D01*
X18389570Y-30458782D01*
X18393171Y-30483059D01*
X18401555Y-30531370D01*
X18406341Y-30555431D01*
X18416087Y-30598834D01*
X18411567Y-30668557D01*
X18370070Y-30724769D01*
X18304770Y-30749622D01*
X18295099Y-30750000D01*
X17952815Y-30750000D01*
X17945186Y-30749500D01*
X17940891Y-30749500D01*
X17809107Y-30749500D01*
X17804812Y-30749500D01*
X17797183Y-30750000D01*
X16952816Y-30750000D01*
X16945187Y-30749500D01*
X16940892Y-30749500D01*
X16809108Y-30749500D01*
X16804813Y-30749500D01*
X16797184Y-30750000D01*
X16454900Y-30750000D01*
X16387861Y-30730315D01*
X16342106Y-30677511D01*
X16332162Y-30608353D01*
X16333912Y-30598834D01*
X16343655Y-30555446D01*
X16348443Y-30531376D01*
X16356826Y-30483065D01*
X16360427Y-30458789D01*
X16366429Y-30410125D01*
X16368834Y-30385702D01*
X16372442Y-30336801D01*
X16373646Y-30312289D01*
X16374849Y-30263258D01*
X16375000Y-30250988D01*
X16375000Y-30250000D01*
X17374998Y-30250000D01*
X16375000Y-30249999D01*
X16375000Y-30249012D01*
X16374849Y-30236742D01*
X16373646Y-30187711D01*
X16372442Y-30163199D01*
X16368834Y-30114298D01*
X16366429Y-30089875D01*
X16360427Y-30041211D01*
X16356826Y-30016935D01*
X16348443Y-29968624D01*
X16343655Y-29944554D01*
X16333912Y-29901165D01*
X16338432Y-29831443D01*
X16379929Y-29775231D01*
X16445229Y-29750378D01*
X16454900Y-29750000D01*
X16797184Y-29750000D01*
X16804813Y-29750500D01*
G37*
%TD.AperFunction*%
%TA.AperFunction,NonConductor*%
G36*
X28401146Y-41333908D02*
G01*
X28444552Y-41343655D01*
X28468622Y-41348443D01*
X28510542Y-41355717D01*
X28516938Y-41356827D01*
X28541215Y-41360428D01*
X28564929Y-41363352D01*
X28589874Y-41366429D01*
X28611401Y-41368548D01*
X28614286Y-41368833D01*
X28614289Y-41368833D01*
X28614297Y-41368834D01*
X28663197Y-41372442D01*
X28687709Y-41373646D01*
X28736740Y-41374849D01*
X28749010Y-41375000D01*
X28749998Y-41375000D01*
X28749997Y-43375000D01*
X28749045Y-43375000D01*
X28749010Y-43375000D01*
X28738785Y-43375125D01*
X28736733Y-43375151D01*
X28687705Y-43376354D01*
X28663191Y-43377558D01*
X28614285Y-43381166D01*
X28589859Y-43383572D01*
X28541215Y-43389571D01*
X28516938Y-43393172D01*
X28468627Y-43401556D01*
X28444566Y-43406342D01*
X28444557Y-43406343D01*
X28444552Y-43406345D01*
X28401163Y-43416087D01*
X28331441Y-43411568D01*
X28275229Y-43370071D01*
X28250376Y-43304771D01*
X28249998Y-43295100D01*
X28249998Y-42952816D01*
X28250498Y-42945186D01*
X28250498Y-42804815D01*
X28249998Y-42797185D01*
X28249998Y-41952816D01*
X28250498Y-41945186D01*
X28250498Y-41804815D01*
X28249998Y-41797185D01*
X28249998Y-41454899D01*
X28269683Y-41387860D01*
X28322487Y-41342105D01*
X28391645Y-41332161D01*
X28401146Y-41333908D01*
G37*
%TD.AperFunction*%
%TA.AperFunction,NonConductor*%
G36*
X29168554Y-41338430D02*
G01*
X29224766Y-41379926D01*
X29249621Y-41445225D01*
X29249999Y-41454899D01*
X29249999Y-41797185D01*
X29249499Y-41804815D01*
X29249499Y-41945186D01*
X29249999Y-41952816D01*
X29249999Y-42797185D01*
X29249499Y-42804815D01*
X29249499Y-42945186D01*
X29249999Y-42952816D01*
X29249999Y-43295100D01*
X29230314Y-43362139D01*
X29177510Y-43407894D01*
X29108352Y-43417838D01*
X29098836Y-43416088D01*
X29055445Y-43406345D01*
X29031375Y-43401557D01*
X29029382Y-43401211D01*
X28983058Y-43393172D01*
X28958781Y-43389571D01*
X28910136Y-43383572D01*
X28885710Y-43381166D01*
X28836805Y-43377558D01*
X28812291Y-43376354D01*
X28763263Y-43375151D01*
X28761461Y-43375128D01*
X28750987Y-43375000D01*
X28750952Y-43375000D01*
X28749999Y-43375000D01*
X28750000Y-41375000D01*
X28750952Y-41375000D01*
X28750987Y-41375000D01*
X28763257Y-41374849D01*
X28812288Y-41373646D01*
X28836800Y-41372442D01*
X28885701Y-41368834D01*
X28910124Y-41366429D01*
X28946316Y-41361965D01*
X28958781Y-41360428D01*
X28983058Y-41356827D01*
X28983064Y-41356826D01*
X29031375Y-41348443D01*
X29055445Y-41343655D01*
X29098832Y-41333912D01*
X29168554Y-41338430D01*
G37*
%TD.AperFunction*%
%TA.AperFunction,Conductor*%
%TO.N,Board_0-GND*%
G36*
X15669769Y-8018955D02*
G01*
X15750551Y-8072931D01*
X15804527Y-8153713D01*
X15823481Y-8249001D01*
X15804527Y-8344289D01*
X15793027Y-8368324D01*
X15732424Y-8479312D01*
X15639921Y-8727323D01*
X15583655Y-8985975D01*
X15564771Y-9250001D01*
X15583655Y-9514027D01*
X15639921Y-9772679D01*
X15705751Y-9949178D01*
X15732423Y-10020688D01*
X15732425Y-10020692D01*
X15834420Y-10207482D01*
X15859282Y-10253012D01*
X16017911Y-10464916D01*
X16205083Y-10652088D01*
X16416987Y-10810717D01*
X16649309Y-10937575D01*
X16897320Y-11030078D01*
X17155972Y-11086344D01*
X17419998Y-11105228D01*
X17684024Y-11086344D01*
X17942676Y-11030078D01*
X18190687Y-10937575D01*
X18423009Y-10810717D01*
X18634913Y-10652088D01*
X18634917Y-10652083D01*
X18638147Y-10649666D01*
X18725787Y-10607736D01*
X18787367Y-10600001D01*
X19709997Y-10600001D01*
X20209999Y-10600001D01*
X21586128Y-10600001D01*
X21599456Y-10600358D01*
X21602108Y-10600499D01*
X21602125Y-10600501D01*
X23397870Y-10600500D01*
X23457481Y-10594092D01*
X23592329Y-10543797D01*
X23707544Y-10457547D01*
X23793794Y-10342332D01*
X23844089Y-10207484D01*
X23850498Y-10147874D01*
X23850497Y-8352129D01*
X23844089Y-8292518D01*
X23844088Y-8292517D01*
X23842424Y-8277029D01*
X23846283Y-8276614D01*
X23843859Y-8209235D01*
X23877787Y-8118197D01*
X23943972Y-8047073D01*
X24032337Y-8006690D01*
X24089663Y-8000001D01*
X26750998Y-8000001D01*
X26846286Y-8018955D01*
X26927068Y-8072931D01*
X26981044Y-8153713D01*
X26999998Y-8249001D01*
X26999998Y-28251001D01*
X26981044Y-28346289D01*
X26927068Y-28427071D01*
X26846286Y-28481047D01*
X26750998Y-28500001D01*
X21805515Y-28500001D01*
X21710227Y-28481047D01*
X21629445Y-28427071D01*
X21575469Y-28346289D01*
X21556515Y-28251001D01*
X21575469Y-28155713D01*
X21586968Y-28131677D01*
X21647572Y-28020690D01*
X21740075Y-27772679D01*
X21796341Y-27514027D01*
X21815225Y-27250001D01*
X21796341Y-26985975D01*
X21740075Y-26727323D01*
X21647572Y-26479312D01*
X21520714Y-26246990D01*
X21362085Y-26035086D01*
X21174913Y-25847914D01*
X20963009Y-25689285D01*
X20730687Y-25562427D01*
X20730685Y-25562426D01*
X20659175Y-25535754D01*
X20482676Y-25469924D01*
X20280291Y-25425898D01*
X20224025Y-25413658D01*
X19959998Y-25394774D01*
X19695970Y-25413658D01*
X19583438Y-25438138D01*
X19437320Y-25469924D01*
X19365808Y-25496596D01*
X19189310Y-25562426D01*
X19189306Y-25562428D01*
X18956993Y-25689281D01*
X18956986Y-25689285D01*
X18745088Y-25847909D01*
X18745084Y-25847913D01*
X18716128Y-25876868D01*
X18635345Y-25930842D01*
X18540056Y-25949793D01*
X18453049Y-25934094D01*
X18377482Y-25905910D01*
X18377483Y-25905910D01*
X18317871Y-25899501D01*
X16522132Y-25899501D01*
X16522128Y-25899501D01*
X16522126Y-25899502D01*
X16509312Y-25900879D01*
X16462517Y-25905909D01*
X16462513Y-25905910D01*
X16327668Y-25956204D01*
X16212453Y-26042454D01*
X16212451Y-26042456D01*
X16126202Y-26157670D01*
X16075906Y-26292519D01*
X16069498Y-26352124D01*
X16069498Y-28147866D01*
X16069499Y-28147870D01*
X16077572Y-28222973D01*
X16073712Y-28223387D01*
X16076137Y-28290767D01*
X16042209Y-28381805D01*
X15976024Y-28452929D01*
X15887659Y-28493312D01*
X15830333Y-28500001D01*
X7748998Y-28500001D01*
X7653710Y-28481047D01*
X7572928Y-28427071D01*
X7518952Y-28346289D01*
X7499998Y-28251001D01*
X7499998Y-8249001D01*
X7518952Y-8153713D01*
X7572928Y-8072931D01*
X7653710Y-8018955D01*
X7748998Y-8000001D01*
X15574481Y-8000001D01*
X15669769Y-8018955D01*
G37*
%TD.AperFunction*%
%TA.AperFunction,Conductor*%
G36*
X20209998Y-10408001D02*
G01*
X19709998Y-10341334D01*
X19709998Y-9685502D01*
X19817683Y-9734681D01*
X19924235Y-9750001D01*
X19995761Y-9750001D01*
X20102313Y-9734681D01*
X20209998Y-9685502D01*
X20209998Y-10408001D01*
G37*
%TD.AperFunction*%
%TD*%
%TA.AperFunction,NonConductor*%
G36*
X39554811Y-29750500D02*
G01*
X39559106Y-29750500D01*
X39695185Y-29750500D01*
X39702814Y-29750000D01*
X40547182Y-29750000D01*
X40554811Y-29750500D01*
X40559106Y-29750500D01*
X40695185Y-29750500D01*
X40702814Y-29750000D01*
X41045098Y-29750000D01*
X41112137Y-29769685D01*
X41157892Y-29822489D01*
X41167836Y-29891647D01*
X41166086Y-29901166D01*
X41156340Y-29944568D01*
X41151554Y-29968629D01*
X41143170Y-30016940D01*
X41139569Y-30041217D01*
X41133570Y-30089862D01*
X41131164Y-30114288D01*
X41127556Y-30163193D01*
X41126352Y-30187707D01*
X41125149Y-30236735D01*
X41124998Y-30249046D01*
X41124998Y-30250953D01*
X41125149Y-30263264D01*
X41126352Y-30312292D01*
X41127556Y-30336806D01*
X41131164Y-30385711D01*
X41133570Y-30410137D01*
X41139569Y-30458782D01*
X41143170Y-30483059D01*
X41151554Y-30531370D01*
X41156340Y-30555431D01*
X41166086Y-30598834D01*
X41161566Y-30668557D01*
X41120069Y-30724769D01*
X41054769Y-30749622D01*
X41045098Y-30750000D01*
X40702814Y-30750000D01*
X40695185Y-30749500D01*
X40690890Y-30749500D01*
X40559106Y-30749500D01*
X40554811Y-30749500D01*
X40547182Y-30750000D01*
X39702814Y-30750000D01*
X39695185Y-30749500D01*
X39690890Y-30749500D01*
X39559106Y-30749500D01*
X39554811Y-30749500D01*
X39547182Y-30750000D01*
X39204898Y-30750000D01*
X39137859Y-30730315D01*
X39092104Y-30677511D01*
X39082160Y-30608353D01*
X39083910Y-30598834D01*
X39093653Y-30555446D01*
X39098441Y-30531376D01*
X39106824Y-30483065D01*
X39110425Y-30458789D01*
X39116427Y-30410125D01*
X39118832Y-30385702D01*
X39122440Y-30336801D01*
X39123644Y-30312289D01*
X39124847Y-30263258D01*
X39124998Y-30250988D01*
X39124998Y-30250000D01*
X40124997Y-30250000D01*
X39124998Y-30249999D01*
X39124998Y-30249012D01*
X39124847Y-30236742D01*
X39123644Y-30187711D01*
X39122440Y-30163199D01*
X39118832Y-30114298D01*
X39116427Y-30089875D01*
X39110425Y-30041211D01*
X39106824Y-30016935D01*
X39098441Y-29968624D01*
X39093653Y-29944554D01*
X39083910Y-29901165D01*
X39088430Y-29831443D01*
X39129927Y-29775231D01*
X39195227Y-29750378D01*
X39204898Y-29750000D01*
X39547182Y-29750000D01*
X39554811Y-29750500D01*
G37*
%TD.AperFunction*%
%TA.AperFunction,NonConductor*%
G36*
X85054809Y-29750500D02*
G01*
X85059104Y-29750500D01*
X85195183Y-29750500D01*
X85202812Y-29750000D01*
X86047180Y-29750000D01*
X86054809Y-29750500D01*
X86059104Y-29750500D01*
X86195183Y-29750500D01*
X86202812Y-29750000D01*
X86545096Y-29750000D01*
X86612135Y-29769685D01*
X86657890Y-29822489D01*
X86667834Y-29891647D01*
X86666084Y-29901166D01*
X86656338Y-29944568D01*
X86651552Y-29968629D01*
X86643168Y-30016940D01*
X86639567Y-30041217D01*
X86633568Y-30089862D01*
X86631162Y-30114288D01*
X86627554Y-30163193D01*
X86626350Y-30187707D01*
X86625147Y-30236735D01*
X86624996Y-30249046D01*
X86624996Y-30250953D01*
X86625147Y-30263264D01*
X86626350Y-30312292D01*
X86627554Y-30336806D01*
X86631162Y-30385711D01*
X86633568Y-30410137D01*
X86639567Y-30458782D01*
X86643168Y-30483059D01*
X86651552Y-30531370D01*
X86656338Y-30555431D01*
X86666084Y-30598834D01*
X86661564Y-30668557D01*
X86620067Y-30724769D01*
X86554767Y-30749622D01*
X86545096Y-30750000D01*
X86202812Y-30750000D01*
X86195183Y-30749500D01*
X86190888Y-30749500D01*
X86059104Y-30749500D01*
X86054809Y-30749500D01*
X86047180Y-30750000D01*
X85202812Y-30750000D01*
X85195183Y-30749500D01*
X85190888Y-30749500D01*
X85059104Y-30749500D01*
X85054809Y-30749500D01*
X85047180Y-30750000D01*
X84704896Y-30750000D01*
X84637857Y-30730315D01*
X84592102Y-30677511D01*
X84582158Y-30608353D01*
X84583908Y-30598834D01*
X84593651Y-30555446D01*
X84598439Y-30531376D01*
X84606822Y-30483065D01*
X84610423Y-30458789D01*
X84616425Y-30410125D01*
X84618830Y-30385702D01*
X84622438Y-30336801D01*
X84623642Y-30312289D01*
X84624845Y-30263258D01*
X84624996Y-30250988D01*
X84624996Y-30250000D01*
X85624995Y-30250000D01*
X84624996Y-30249999D01*
X84624996Y-30249012D01*
X84624845Y-30236742D01*
X84623642Y-30187711D01*
X84622438Y-30163199D01*
X84618830Y-30114298D01*
X84616425Y-30089875D01*
X84610423Y-30041211D01*
X84606822Y-30016935D01*
X84598439Y-29968624D01*
X84593651Y-29944554D01*
X84583908Y-29901165D01*
X84588428Y-29831443D01*
X84629925Y-29775231D01*
X84695225Y-29750378D01*
X84704896Y-29750000D01*
X85047180Y-29750000D01*
X85054809Y-29750500D01*
G37*
%TD.AperFunction*%
%TA.AperFunction,Conductor*%
%TO.N,Board_2-GND*%
G36*
X61169767Y-8018955D02*
G01*
X61250549Y-8072931D01*
X61304525Y-8153713D01*
X61323479Y-8249001D01*
X61304525Y-8344289D01*
X61293025Y-8368324D01*
X61232422Y-8479312D01*
X61139919Y-8727323D01*
X61083653Y-8985975D01*
X61064769Y-9250001D01*
X61083653Y-9514027D01*
X61139919Y-9772679D01*
X61205749Y-9949178D01*
X61232421Y-10020688D01*
X61232423Y-10020692D01*
X61334418Y-10207482D01*
X61359280Y-10253012D01*
X61517909Y-10464916D01*
X61705081Y-10652088D01*
X61916985Y-10810717D01*
X62149307Y-10937575D01*
X62397318Y-11030078D01*
X62655970Y-11086344D01*
X62919996Y-11105228D01*
X63184022Y-11086344D01*
X63442674Y-11030078D01*
X63690685Y-10937575D01*
X63923007Y-10810717D01*
X64134911Y-10652088D01*
X64134915Y-10652083D01*
X64138145Y-10649666D01*
X64225785Y-10607736D01*
X64287365Y-10600001D01*
X65209995Y-10600001D01*
X65709997Y-10600001D01*
X67086126Y-10600001D01*
X67099454Y-10600358D01*
X67102106Y-10600499D01*
X67102123Y-10600501D01*
X68897868Y-10600500D01*
X68957479Y-10594092D01*
X69092327Y-10543797D01*
X69207542Y-10457547D01*
X69293792Y-10342332D01*
X69344087Y-10207484D01*
X69350496Y-10147874D01*
X69350495Y-8352129D01*
X69344087Y-8292518D01*
X69344086Y-8292517D01*
X69342422Y-8277029D01*
X69346281Y-8276614D01*
X69343857Y-8209235D01*
X69377785Y-8118197D01*
X69443970Y-8047073D01*
X69532335Y-8006690D01*
X69589661Y-8000001D01*
X72250996Y-8000001D01*
X72346284Y-8018955D01*
X72427066Y-8072931D01*
X72481042Y-8153713D01*
X72499996Y-8249001D01*
X72499996Y-28251001D01*
X72481042Y-28346289D01*
X72427066Y-28427071D01*
X72346284Y-28481047D01*
X72250996Y-28500001D01*
X67305513Y-28500001D01*
X67210225Y-28481047D01*
X67129443Y-28427071D01*
X67075467Y-28346289D01*
X67056513Y-28251001D01*
X67075467Y-28155713D01*
X67086966Y-28131677D01*
X67147570Y-28020690D01*
X67240073Y-27772679D01*
X67296339Y-27514027D01*
X67315223Y-27250001D01*
X67296339Y-26985975D01*
X67240073Y-26727323D01*
X67147570Y-26479312D01*
X67020712Y-26246990D01*
X66862083Y-26035086D01*
X66674911Y-25847914D01*
X66463007Y-25689285D01*
X66230685Y-25562427D01*
X66230683Y-25562426D01*
X66159173Y-25535754D01*
X65982674Y-25469924D01*
X65780289Y-25425898D01*
X65724023Y-25413658D01*
X65459996Y-25394774D01*
X65195968Y-25413658D01*
X65083436Y-25438138D01*
X64937318Y-25469924D01*
X64865806Y-25496596D01*
X64689308Y-25562426D01*
X64689304Y-25562428D01*
X64456991Y-25689281D01*
X64456984Y-25689285D01*
X64245086Y-25847909D01*
X64245082Y-25847913D01*
X64216126Y-25876868D01*
X64135343Y-25930842D01*
X64040054Y-25949793D01*
X63953047Y-25934094D01*
X63877480Y-25905910D01*
X63877481Y-25905910D01*
X63817869Y-25899501D01*
X62022130Y-25899501D01*
X62022126Y-25899501D01*
X62022124Y-25899502D01*
X62009310Y-25900879D01*
X61962515Y-25905909D01*
X61962511Y-25905910D01*
X61827666Y-25956204D01*
X61712451Y-26042454D01*
X61712449Y-26042456D01*
X61626200Y-26157670D01*
X61575904Y-26292519D01*
X61569496Y-26352124D01*
X61569496Y-28147866D01*
X61569497Y-28147870D01*
X61577570Y-28222973D01*
X61573710Y-28223387D01*
X61576135Y-28290767D01*
X61542207Y-28381805D01*
X61476022Y-28452929D01*
X61387657Y-28493312D01*
X61330331Y-28500001D01*
X53248996Y-28500001D01*
X53153708Y-28481047D01*
X53072926Y-28427071D01*
X53018950Y-28346289D01*
X52999996Y-28251001D01*
X52999996Y-8249001D01*
X53018950Y-8153713D01*
X53072926Y-8072931D01*
X53153708Y-8018955D01*
X53248996Y-8000001D01*
X61074479Y-8000001D01*
X61169767Y-8018955D01*
G37*
%TD.AperFunction*%
%TA.AperFunction,Conductor*%
G36*
X65709996Y-10408001D02*
G01*
X65209996Y-10341334D01*
X65209996Y-9685502D01*
X65317681Y-9734681D01*
X65424233Y-9750001D01*
X65495759Y-9750001D01*
X65602311Y-9734681D01*
X65709996Y-9685502D01*
X65709996Y-10408001D01*
G37*
%TD.AperFunction*%
%TD*%
%TA.AperFunction,Conductor*%
%TO.N,Board_1-GND*%
G36*
X38419768Y-8018955D02*
G01*
X38500550Y-8072931D01*
X38554526Y-8153713D01*
X38573480Y-8249001D01*
X38554526Y-8344289D01*
X38543026Y-8368324D01*
X38482423Y-8479312D01*
X38389920Y-8727323D01*
X38333654Y-8985975D01*
X38314770Y-9250001D01*
X38333654Y-9514027D01*
X38389920Y-9772679D01*
X38455750Y-9949178D01*
X38482422Y-10020688D01*
X38482424Y-10020692D01*
X38584419Y-10207482D01*
X38609281Y-10253012D01*
X38767910Y-10464916D01*
X38955082Y-10652088D01*
X39166986Y-10810717D01*
X39399308Y-10937575D01*
X39647319Y-11030078D01*
X39905971Y-11086344D01*
X40169997Y-11105228D01*
X40434023Y-11086344D01*
X40692675Y-11030078D01*
X40940686Y-10937575D01*
X41173008Y-10810717D01*
X41384912Y-10652088D01*
X41384916Y-10652083D01*
X41388146Y-10649666D01*
X41475786Y-10607736D01*
X41537366Y-10600001D01*
X42459996Y-10600001D01*
X42959998Y-10600001D01*
X44336127Y-10600001D01*
X44349455Y-10600358D01*
X44352107Y-10600499D01*
X44352124Y-10600501D01*
X46147869Y-10600500D01*
X46207480Y-10594092D01*
X46342328Y-10543797D01*
X46457543Y-10457547D01*
X46543793Y-10342332D01*
X46594088Y-10207484D01*
X46600497Y-10147874D01*
X46600496Y-8352129D01*
X46594088Y-8292518D01*
X46594087Y-8292517D01*
X46592423Y-8277029D01*
X46596282Y-8276614D01*
X46593858Y-8209235D01*
X46627786Y-8118197D01*
X46693971Y-8047073D01*
X46782336Y-8006690D01*
X46839662Y-8000001D01*
X49500997Y-8000001D01*
X49596285Y-8018955D01*
X49677067Y-8072931D01*
X49731043Y-8153713D01*
X49749997Y-8249001D01*
X49749997Y-28251001D01*
X49731043Y-28346289D01*
X49677067Y-28427071D01*
X49596285Y-28481047D01*
X49500997Y-28500001D01*
X44555514Y-28500001D01*
X44460226Y-28481047D01*
X44379444Y-28427071D01*
X44325468Y-28346289D01*
X44306514Y-28251001D01*
X44325468Y-28155713D01*
X44336967Y-28131677D01*
X44397571Y-28020690D01*
X44490074Y-27772679D01*
X44546340Y-27514027D01*
X44565224Y-27250001D01*
X44546340Y-26985975D01*
X44490074Y-26727323D01*
X44397571Y-26479312D01*
X44270713Y-26246990D01*
X44112084Y-26035086D01*
X43924912Y-25847914D01*
X43713008Y-25689285D01*
X43480686Y-25562427D01*
X43480684Y-25562426D01*
X43409174Y-25535754D01*
X43232675Y-25469924D01*
X43030290Y-25425898D01*
X42974024Y-25413658D01*
X42709997Y-25394774D01*
X42445969Y-25413658D01*
X42333437Y-25438138D01*
X42187319Y-25469924D01*
X42115807Y-25496596D01*
X41939309Y-25562426D01*
X41939305Y-25562428D01*
X41706992Y-25689281D01*
X41706985Y-25689285D01*
X41495087Y-25847909D01*
X41495083Y-25847913D01*
X41466127Y-25876868D01*
X41385344Y-25930842D01*
X41290055Y-25949793D01*
X41203048Y-25934094D01*
X41127481Y-25905910D01*
X41127482Y-25905910D01*
X41067870Y-25899501D01*
X39272131Y-25899501D01*
X39272127Y-25899501D01*
X39272125Y-25899502D01*
X39259311Y-25900879D01*
X39212516Y-25905909D01*
X39212512Y-25905910D01*
X39077667Y-25956204D01*
X38962452Y-26042454D01*
X38962450Y-26042456D01*
X38876201Y-26157670D01*
X38825905Y-26292519D01*
X38819497Y-26352124D01*
X38819497Y-28147866D01*
X38819498Y-28147870D01*
X38827571Y-28222973D01*
X38823711Y-28223387D01*
X38826136Y-28290767D01*
X38792208Y-28381805D01*
X38726023Y-28452929D01*
X38637658Y-28493312D01*
X38580332Y-28500001D01*
X30498997Y-28500001D01*
X30403709Y-28481047D01*
X30322927Y-28427071D01*
X30268951Y-28346289D01*
X30249997Y-28251001D01*
X30249997Y-8249001D01*
X30268951Y-8153713D01*
X30322927Y-8072931D01*
X30403709Y-8018955D01*
X30498997Y-8000001D01*
X38324480Y-8000001D01*
X38419768Y-8018955D01*
G37*
%TD.AperFunction*%
%TA.AperFunction,Conductor*%
G36*
X42959997Y-10408001D02*
G01*
X42459997Y-10341334D01*
X42459997Y-9685502D01*
X42567682Y-9734681D01*
X42674234Y-9750001D01*
X42745760Y-9750001D01*
X42852312Y-9734681D01*
X42959997Y-9685502D01*
X42959997Y-10408001D01*
G37*
%TD.AperFunction*%
%TD*%
%TA.AperFunction,NonConductor*%
G36*
X102943033Y-19685D02*
G01*
X102988788Y-72489D01*
X102999994Y-124000D01*
X102999995Y-60376000D01*
X102980310Y-60443039D01*
X102927506Y-60488794D01*
X102875995Y-60500000D01*
X124000Y-60500000D01*
X56961Y-60480315D01*
X11206Y-60427511D01*
X0Y-60376000D01*
X0Y-58000001D01*
X3994659Y-58000001D01*
X4013975Y-58196130D01*
X4071188Y-58384734D01*
X4164086Y-58558533D01*
X4164090Y-58558540D01*
X4289116Y-58710884D01*
X4441460Y-58835910D01*
X4441467Y-58835914D01*
X4615266Y-58928812D01*
X4615269Y-58928812D01*
X4615273Y-58928815D01*
X4803868Y-58986025D01*
X5000000Y-59005342D01*
X5196132Y-58986025D01*
X5384727Y-58928815D01*
X5558538Y-58835911D01*
X5710883Y-58710884D01*
X5835910Y-58558539D01*
X5928814Y-58384728D01*
X5986024Y-58196133D01*
X6005341Y-58000001D01*
X5986024Y-57803869D01*
X5928814Y-57615274D01*
X5928811Y-57615270D01*
X5928811Y-57615267D01*
X5835913Y-57441468D01*
X5835909Y-57441461D01*
X5710883Y-57289117D01*
X5558539Y-57164091D01*
X5558532Y-57164087D01*
X5384733Y-57071189D01*
X5384727Y-57071187D01*
X5196132Y-57013977D01*
X5196129Y-57013976D01*
X5000000Y-56994660D01*
X4803870Y-57013976D01*
X4615266Y-57071189D01*
X4441467Y-57164087D01*
X4441460Y-57164091D01*
X4289116Y-57289117D01*
X4164090Y-57441461D01*
X4164086Y-57441468D01*
X4071188Y-57615267D01*
X4013975Y-57803871D01*
X3994659Y-58000001D01*
X0Y-58000001D01*
X0Y-5999012D01*
X5000000Y-5999012D01*
X5000000Y-15625988D01*
X5001203Y-15675019D01*
X5001203Y-15675032D01*
X5001204Y-15675033D01*
X5004811Y-15723932D01*
X5004811Y-15723935D01*
X5010809Y-15772565D01*
X5010816Y-15772613D01*
X5019192Y-15820878D01*
X5019195Y-15820895D01*
X5029939Y-15868737D01*
X5029942Y-15868749D01*
X5029944Y-15868756D01*
X5043009Y-15915972D01*
X5043013Y-15915984D01*
X5043016Y-15915994D01*
X5058397Y-15962553D01*
X5076044Y-16008301D01*
X5095914Y-16053127D01*
X5117960Y-16096925D01*
X5142129Y-16139588D01*
X5168362Y-16181014D01*
X5196595Y-16221103D01*
X5196600Y-16221110D01*
X5196603Y-16221114D01*
X5226743Y-16259735D01*
X5226762Y-16259759D01*
X5258790Y-16296887D01*
X5258795Y-16296892D01*
X5258800Y-16296898D01*
X5292566Y-16332365D01*
X5292593Y-16332392D01*
X5292600Y-16332399D01*
X5328112Y-16366210D01*
X5365241Y-16398237D01*
X5365246Y-16398241D01*
X5365252Y-16398246D01*
X5378418Y-16408520D01*
X5403896Y-16428404D01*
X5443985Y-16456638D01*
X5485411Y-16482871D01*
X5528074Y-16507039D01*
X5528086Y-16507045D01*
X5528104Y-16507055D01*
X5571857Y-16529078D01*
X5571866Y-16529082D01*
X5571872Y-16529085D01*
X5616699Y-16548955D01*
X5662447Y-16566602D01*
X5709005Y-16581983D01*
X5756262Y-16595061D01*
X5804104Y-16605804D01*
X5838719Y-16611810D01*
X5852386Y-16614182D01*
X5852398Y-16614184D01*
X5852400Y-16614184D01*
X5852416Y-16614187D01*
X5891183Y-16618968D01*
X5955306Y-16646710D01*
X5994253Y-16704717D01*
X6000001Y-16742034D01*
X6000001Y-19125000D01*
X6000001Y-19507964D01*
X5980316Y-19575003D01*
X5927512Y-19620758D01*
X5891182Y-19631031D01*
X5852425Y-19635811D01*
X5852386Y-19635817D01*
X5804107Y-19644195D01*
X5804078Y-19644201D01*
X5756284Y-19654933D01*
X5756256Y-19654940D01*
X5709013Y-19668014D01*
X5708984Y-19668023D01*
X5662450Y-19683396D01*
X5616698Y-19701045D01*
X5571857Y-19720921D01*
X5528104Y-19742944D01*
X5528077Y-19742959D01*
X5485423Y-19767121D01*
X5485399Y-19767136D01*
X5443978Y-19793366D01*
X5403906Y-19821588D01*
X5365252Y-19851753D01*
X5328121Y-19883782D01*
X5328118Y-19883784D01*
X5292593Y-19917607D01*
X5292566Y-19917634D01*
X5258800Y-19953101D01*
X5226759Y-19990244D01*
X5226743Y-19990264D01*
X5196603Y-20028885D01*
X5196600Y-20028889D01*
X5168365Y-20068982D01*
X5168350Y-20069004D01*
X5142138Y-20110396D01*
X5142129Y-20110412D01*
X5117960Y-20153075D01*
X5095914Y-20196873D01*
X5095910Y-20196881D01*
X5095905Y-20196892D01*
X5076052Y-20241679D01*
X5058398Y-20287444D01*
X5043013Y-20334015D01*
X5043009Y-20334027D01*
X5029944Y-20381243D01*
X5029942Y-20381250D01*
X5029939Y-20381261D01*
X5029939Y-20381263D01*
X5019195Y-20429105D01*
X5019192Y-20429116D01*
X5019192Y-20429121D01*
X5010816Y-20477386D01*
X5010809Y-20477434D01*
X5004811Y-20526064D01*
X5004811Y-20526067D01*
X5004810Y-20526081D01*
X5001203Y-20574981D01*
X5000000Y-20624012D01*
X5000000Y-39875988D01*
X5001203Y-39925019D01*
X5001203Y-39925032D01*
X5001204Y-39925033D01*
X5004811Y-39973932D01*
X5004811Y-39973935D01*
X5010809Y-40022565D01*
X5010816Y-40022613D01*
X5019192Y-40070878D01*
X5019195Y-40070895D01*
X5029939Y-40118737D01*
X5029942Y-40118749D01*
X5029944Y-40118756D01*
X5043009Y-40165972D01*
X5043013Y-40165984D01*
X5043016Y-40165994D01*
X5058397Y-40212553D01*
X5076044Y-40258301D01*
X5095914Y-40303127D01*
X5117960Y-40346925D01*
X5142129Y-40389588D01*
X5168362Y-40431014D01*
X5196595Y-40471103D01*
X5196600Y-40471110D01*
X5196603Y-40471114D01*
X5226743Y-40509735D01*
X5226762Y-40509759D01*
X5258790Y-40546887D01*
X5258795Y-40546892D01*
X5258800Y-40546898D01*
X5292566Y-40582365D01*
X5292593Y-40582392D01*
X5292600Y-40582399D01*
X5328112Y-40616210D01*
X5365241Y-40648237D01*
X5365246Y-40648241D01*
X5365252Y-40648246D01*
X5378418Y-40658520D01*
X5403896Y-40678404D01*
X5443985Y-40706638D01*
X5485411Y-40732871D01*
X5528074Y-40757039D01*
X5528086Y-40757045D01*
X5528104Y-40757055D01*
X5571857Y-40779078D01*
X5571866Y-40779082D01*
X5571872Y-40779085D01*
X5616699Y-40798955D01*
X5662447Y-40816602D01*
X5709005Y-40831983D01*
X5756262Y-40845061D01*
X5804104Y-40855804D01*
X5838719Y-40861810D01*
X5852386Y-40864182D01*
X5852398Y-40864184D01*
X5852400Y-40864184D01*
X5852416Y-40864187D01*
X5891183Y-40868968D01*
X5955306Y-40896710D01*
X5994253Y-40954717D01*
X6000001Y-40992034D01*
X6000001Y-43375000D01*
X6000001Y-43757964D01*
X5980316Y-43825003D01*
X5927512Y-43870758D01*
X5891182Y-43881031D01*
X5852425Y-43885811D01*
X5852386Y-43885817D01*
X5804107Y-43894195D01*
X5804078Y-43894201D01*
X5756284Y-43904933D01*
X5756256Y-43904940D01*
X5709013Y-43918014D01*
X5708984Y-43918023D01*
X5662450Y-43933396D01*
X5616698Y-43951045D01*
X5571857Y-43970921D01*
X5528104Y-43992944D01*
X5528077Y-43992959D01*
X5485423Y-44017121D01*
X5485399Y-44017136D01*
X5443978Y-44043366D01*
X5403906Y-44071588D01*
X5365252Y-44101753D01*
X5328121Y-44133782D01*
X5328118Y-44133784D01*
X5292593Y-44167607D01*
X5292566Y-44167634D01*
X5258800Y-44203101D01*
X5226759Y-44240244D01*
X5226743Y-44240264D01*
X5196603Y-44278885D01*
X5196600Y-44278889D01*
X5168365Y-44318982D01*
X5168350Y-44319004D01*
X5142138Y-44360396D01*
X5142129Y-44360412D01*
X5117960Y-44403075D01*
X5095914Y-44446873D01*
X5095910Y-44446881D01*
X5095905Y-44446892D01*
X5076052Y-44491679D01*
X5058398Y-44537444D01*
X5043013Y-44584015D01*
X5043009Y-44584027D01*
X5029944Y-44631243D01*
X5029942Y-44631250D01*
X5029939Y-44631261D01*
X5029939Y-44631263D01*
X5019195Y-44679105D01*
X5019192Y-44679116D01*
X5019192Y-44679121D01*
X5010816Y-44727386D01*
X5010809Y-44727434D01*
X5004811Y-44776064D01*
X5004811Y-44776067D01*
X5004810Y-44776081D01*
X5001203Y-44824981D01*
X5000000Y-44874012D01*
X5000000Y-54500988D01*
X5001203Y-54550019D01*
X5001203Y-54550032D01*
X5001204Y-54550033D01*
X5004811Y-54598932D01*
X5010810Y-54647569D01*
X5010816Y-54647613D01*
X5019192Y-54695882D01*
X5029942Y-54743750D01*
X5029944Y-54743757D01*
X5043014Y-54790991D01*
X5058395Y-54837549D01*
X5058397Y-54837553D01*
X5076044Y-54883301D01*
X5095914Y-54928128D01*
X5117960Y-54971926D01*
X5142129Y-55014589D01*
X5168362Y-55056015D01*
X5196595Y-55096104D01*
X5226762Y-55134759D01*
X5258790Y-55171888D01*
X5292600Y-55207400D01*
X5328112Y-55241210D01*
X5365241Y-55273238D01*
X5403896Y-55303405D01*
X5443985Y-55331638D01*
X5485411Y-55357871D01*
X5528074Y-55382040D01*
X5571872Y-55404086D01*
X5616699Y-55423956D01*
X5662442Y-55441601D01*
X5662450Y-55441604D01*
X5709008Y-55456985D01*
X5721632Y-55460478D01*
X5756262Y-55470061D01*
X5804104Y-55480805D01*
X5830877Y-55485450D01*
X5852386Y-55489183D01*
X5852391Y-55489183D01*
X5852416Y-55489188D01*
X5901080Y-55495190D01*
X5949981Y-55498797D01*
X5999012Y-55500001D01*
X14875970Y-55500001D01*
X14875987Y-55500001D01*
X14925018Y-55498797D01*
X14973918Y-55495190D01*
X15022583Y-55489188D01*
X15070894Y-55480805D01*
X15118736Y-55470061D01*
X15165993Y-55456984D01*
X15212552Y-55441603D01*
X15258300Y-55423956D01*
X15303126Y-55404086D01*
X15346924Y-55382040D01*
X15389587Y-55357871D01*
X15431013Y-55331638D01*
X15471102Y-55303405D01*
X15509758Y-55273238D01*
X15546886Y-55241210D01*
X15563061Y-55225809D01*
X15582364Y-55207433D01*
X15582377Y-55207419D01*
X15582398Y-55207400D01*
X15616209Y-55171888D01*
X15648236Y-55134759D01*
X15678403Y-55096104D01*
X15706637Y-55056015D01*
X15732870Y-55014589D01*
X15757038Y-54971926D01*
X15779084Y-54928128D01*
X15798954Y-54883301D01*
X15816601Y-54837553D01*
X15831982Y-54790995D01*
X15845060Y-54743738D01*
X15855803Y-54695896D01*
X15864186Y-54647584D01*
X15868967Y-54608819D01*
X15896709Y-54544696D01*
X15954717Y-54505749D01*
X15992034Y-54500000D01*
X16375000Y-54500000D01*
X18374999Y-54500000D01*
X18757964Y-54500000D01*
X18825003Y-54519685D01*
X18870758Y-54572489D01*
X18881030Y-54608817D01*
X18885810Y-54647569D01*
X18885814Y-54647600D01*
X18885816Y-54647613D01*
X18894194Y-54695892D01*
X18894200Y-54695921D01*
X18904932Y-54743715D01*
X18904939Y-54743743D01*
X18918013Y-54790986D01*
X18918022Y-54791015D01*
X18933395Y-54837549D01*
X18951044Y-54883301D01*
X18970920Y-54928142D01*
X18992943Y-54971895D01*
X18992958Y-54971922D01*
X19017120Y-55014576D01*
X19017126Y-55014586D01*
X19017128Y-55014589D01*
X19043361Y-55056015D01*
X19071595Y-55096104D01*
X19086045Y-55114620D01*
X19101752Y-55134747D01*
X19101758Y-55134754D01*
X19101762Y-55134759D01*
X19133789Y-55171888D01*
X19167599Y-55207399D01*
X19167606Y-55207406D01*
X19167633Y-55207433D01*
X19203100Y-55241199D01*
X19203112Y-55241210D01*
X19240240Y-55273238D01*
X19278896Y-55303405D01*
X19318985Y-55331638D01*
X19360411Y-55357871D01*
X19403074Y-55382040D01*
X19446872Y-55404086D01*
X19491698Y-55423956D01*
X19537446Y-55441603D01*
X19584005Y-55456984D01*
X19584022Y-55456988D01*
X19584026Y-55456990D01*
X19597651Y-55460760D01*
X19631262Y-55470061D01*
X19679104Y-55480805D01*
X19717277Y-55487428D01*
X19727385Y-55489183D01*
X19727392Y-55489184D01*
X19727415Y-55489188D01*
X19776080Y-55495190D01*
X19824980Y-55498797D01*
X19874011Y-55500001D01*
X37625969Y-55500001D01*
X37625986Y-55500001D01*
X37675017Y-55498797D01*
X37723917Y-55495190D01*
X37772582Y-55489188D01*
X37820893Y-55480805D01*
X37868735Y-55470061D01*
X37915992Y-55456984D01*
X37962551Y-55441603D01*
X38008299Y-55423956D01*
X38053125Y-55404086D01*
X38096923Y-55382040D01*
X38139586Y-55357871D01*
X38181012Y-55331638D01*
X38221101Y-55303405D01*
X38259757Y-55273238D01*
X38296885Y-55241210D01*
X38313060Y-55225809D01*
X38332363Y-55207433D01*
X38332376Y-55207419D01*
X38332397Y-55207400D01*
X38366208Y-55171888D01*
X38398235Y-55134759D01*
X38428402Y-55096104D01*
X38456636Y-55056015D01*
X38482869Y-55014589D01*
X38507037Y-54971926D01*
X38529083Y-54928128D01*
X38548953Y-54883301D01*
X38566600Y-54837553D01*
X38581981Y-54790995D01*
X38595059Y-54743738D01*
X38605802Y-54695896D01*
X38614185Y-54647584D01*
X38618966Y-54608819D01*
X38646708Y-54544696D01*
X38704716Y-54505749D01*
X38742033Y-54500000D01*
X39124998Y-54500000D01*
X41124998Y-54500000D01*
X41507963Y-54500000D01*
X41575002Y-54519685D01*
X41620757Y-54572489D01*
X41631029Y-54608817D01*
X41635809Y-54647569D01*
X41635813Y-54647600D01*
X41635815Y-54647613D01*
X41644193Y-54695892D01*
X41644199Y-54695921D01*
X41654931Y-54743715D01*
X41654938Y-54743743D01*
X41668012Y-54790986D01*
X41668021Y-54791015D01*
X41683394Y-54837549D01*
X41701043Y-54883301D01*
X41720919Y-54928142D01*
X41742942Y-54971895D01*
X41742957Y-54971922D01*
X41767119Y-55014576D01*
X41767125Y-55014586D01*
X41767127Y-55014589D01*
X41793360Y-55056015D01*
X41821594Y-55096104D01*
X41836044Y-55114620D01*
X41851751Y-55134747D01*
X41851757Y-55134754D01*
X41851761Y-55134759D01*
X41883788Y-55171888D01*
X41917598Y-55207399D01*
X41917605Y-55207406D01*
X41917632Y-55207433D01*
X41953099Y-55241199D01*
X41953111Y-55241210D01*
X41990239Y-55273238D01*
X42028895Y-55303405D01*
X42068984Y-55331638D01*
X42110410Y-55357871D01*
X42153073Y-55382040D01*
X42196871Y-55404086D01*
X42241697Y-55423956D01*
X42287445Y-55441603D01*
X42334004Y-55456984D01*
X42334021Y-55456988D01*
X42334025Y-55456990D01*
X42347650Y-55460760D01*
X42381261Y-55470061D01*
X42429103Y-55480805D01*
X42467276Y-55487428D01*
X42477384Y-55489183D01*
X42477391Y-55489184D01*
X42477414Y-55489188D01*
X42526079Y-55495190D01*
X42574979Y-55498797D01*
X42624010Y-55500001D01*
X60375968Y-55500001D01*
X60375985Y-55500001D01*
X60425016Y-55498797D01*
X60473916Y-55495190D01*
X60522581Y-55489188D01*
X60570892Y-55480805D01*
X60618734Y-55470061D01*
X60665991Y-55456984D01*
X60712550Y-55441603D01*
X60758298Y-55423956D01*
X60803124Y-55404086D01*
X60846922Y-55382040D01*
X60889585Y-55357871D01*
X60931011Y-55331638D01*
X60971100Y-55303405D01*
X61009756Y-55273238D01*
X61046884Y-55241210D01*
X61063059Y-55225809D01*
X61082362Y-55207433D01*
X61082375Y-55207419D01*
X61082396Y-55207400D01*
X61116207Y-55171888D01*
X61148234Y-55134759D01*
X61178401Y-55096104D01*
X61206635Y-55056015D01*
X61232868Y-55014589D01*
X61257036Y-54971926D01*
X61279082Y-54928128D01*
X61298952Y-54883301D01*
X61316599Y-54837553D01*
X61331980Y-54790995D01*
X61345058Y-54743738D01*
X61355801Y-54695896D01*
X61364184Y-54647584D01*
X61368965Y-54608819D01*
X61396707Y-54544696D01*
X61454715Y-54505749D01*
X61492032Y-54500000D01*
X61874997Y-54500000D01*
X63874997Y-54500000D01*
X64257962Y-54500000D01*
X64325001Y-54519685D01*
X64370756Y-54572489D01*
X64381028Y-54608817D01*
X64385808Y-54647569D01*
X64385812Y-54647600D01*
X64385814Y-54647613D01*
X64394192Y-54695892D01*
X64394198Y-54695921D01*
X64404930Y-54743715D01*
X64404937Y-54743743D01*
X64418011Y-54790986D01*
X64418020Y-54791015D01*
X64433393Y-54837549D01*
X64451042Y-54883301D01*
X64470918Y-54928142D01*
X64492941Y-54971895D01*
X64492956Y-54971922D01*
X64517118Y-55014576D01*
X64517124Y-55014586D01*
X64517126Y-55014589D01*
X64543359Y-55056015D01*
X64571593Y-55096104D01*
X64586043Y-55114620D01*
X64601750Y-55134747D01*
X64601756Y-55134754D01*
X64601760Y-55134759D01*
X64633787Y-55171888D01*
X64667597Y-55207399D01*
X64667604Y-55207406D01*
X64667631Y-55207433D01*
X64703098Y-55241199D01*
X64703110Y-55241210D01*
X64740238Y-55273238D01*
X64778894Y-55303405D01*
X64818983Y-55331638D01*
X64860409Y-55357871D01*
X64903072Y-55382040D01*
X64946870Y-55404086D01*
X64991696Y-55423956D01*
X65037444Y-55441603D01*
X65084003Y-55456984D01*
X65084020Y-55456988D01*
X65084024Y-55456990D01*
X65097649Y-55460760D01*
X65131260Y-55470061D01*
X65179102Y-55480805D01*
X65217275Y-55487428D01*
X65227383Y-55489183D01*
X65227390Y-55489184D01*
X65227413Y-55489188D01*
X65276078Y-55495190D01*
X65324978Y-55498797D01*
X65374009Y-55500001D01*
X83125967Y-55500001D01*
X83125984Y-55500001D01*
X83175015Y-55498797D01*
X83223915Y-55495190D01*
X83272580Y-55489188D01*
X83320891Y-55480805D01*
X83368733Y-55470061D01*
X83415990Y-55456984D01*
X83462549Y-55441603D01*
X83508297Y-55423956D01*
X83553123Y-55404086D01*
X83596921Y-55382040D01*
X83639584Y-55357871D01*
X83681010Y-55331638D01*
X83721099Y-55303405D01*
X83759755Y-55273238D01*
X83796883Y-55241210D01*
X83813058Y-55225809D01*
X83832361Y-55207433D01*
X83832374Y-55207419D01*
X83832395Y-55207400D01*
X83866206Y-55171888D01*
X83898233Y-55134759D01*
X83928400Y-55096104D01*
X83956634Y-55056015D01*
X83982867Y-55014589D01*
X84007035Y-54971926D01*
X84029081Y-54928128D01*
X84048951Y-54883301D01*
X84066598Y-54837553D01*
X84081979Y-54790995D01*
X84095057Y-54743738D01*
X84105800Y-54695896D01*
X84114183Y-54647584D01*
X84118964Y-54608819D01*
X84146706Y-54544696D01*
X84204714Y-54505749D01*
X84242031Y-54500000D01*
X84624996Y-54500000D01*
X86624996Y-54500000D01*
X87007961Y-54500000D01*
X87075000Y-54519685D01*
X87120755Y-54572489D01*
X87131027Y-54608817D01*
X87135807Y-54647569D01*
X87135811Y-54647600D01*
X87135813Y-54647613D01*
X87144191Y-54695892D01*
X87144197Y-54695921D01*
X87154929Y-54743715D01*
X87154936Y-54743743D01*
X87168010Y-54790986D01*
X87168019Y-54791015D01*
X87183392Y-54837549D01*
X87201041Y-54883301D01*
X87220917Y-54928142D01*
X87242940Y-54971895D01*
X87242955Y-54971922D01*
X87267117Y-55014576D01*
X87267123Y-55014586D01*
X87267125Y-55014589D01*
X87293358Y-55056015D01*
X87321592Y-55096104D01*
X87336042Y-55114620D01*
X87351749Y-55134747D01*
X87351755Y-55134754D01*
X87351759Y-55134759D01*
X87383786Y-55171888D01*
X87417596Y-55207399D01*
X87417603Y-55207406D01*
X87417630Y-55207433D01*
X87453097Y-55241199D01*
X87453109Y-55241210D01*
X87490237Y-55273238D01*
X87528893Y-55303405D01*
X87568982Y-55331638D01*
X87610408Y-55357871D01*
X87653071Y-55382040D01*
X87696869Y-55404086D01*
X87741695Y-55423956D01*
X87787443Y-55441603D01*
X87834002Y-55456984D01*
X87834019Y-55456988D01*
X87834023Y-55456990D01*
X87847648Y-55460760D01*
X87881259Y-55470061D01*
X87929101Y-55480805D01*
X87967274Y-55487428D01*
X87977382Y-55489183D01*
X87977389Y-55489184D01*
X87977412Y-55489188D01*
X88026077Y-55495190D01*
X88074977Y-55498797D01*
X88124008Y-55500001D01*
X97000965Y-55500001D01*
X97000982Y-55500001D01*
X97050013Y-55498797D01*
X97098914Y-55495190D01*
X97147578Y-55489188D01*
X97195890Y-55480805D01*
X97243732Y-55470061D01*
X97290989Y-55456984D01*
X97337547Y-55441603D01*
X97383295Y-55423956D01*
X97428122Y-55404086D01*
X97471920Y-55382040D01*
X97514583Y-55357871D01*
X97556009Y-55331638D01*
X97596098Y-55303405D01*
X97634753Y-55273238D01*
X97671882Y-55241210D01*
X97707394Y-55207400D01*
X97741204Y-55171888D01*
X97773232Y-55134759D01*
X97803399Y-55096104D01*
X97831632Y-55056015D01*
X97857865Y-55014589D01*
X97882034Y-54971926D01*
X97904080Y-54928128D01*
X97923950Y-54883301D01*
X97941597Y-54837553D01*
X97956978Y-54790995D01*
X97970055Y-54743738D01*
X97980799Y-54695896D01*
X97989182Y-54647584D01*
X97995184Y-54598920D01*
X97998791Y-54550019D01*
X97999995Y-54500988D01*
X97999995Y-44874012D01*
X97998791Y-44824981D01*
X97995184Y-44776081D01*
X97989182Y-44727416D01*
X97980799Y-44679105D01*
X97970055Y-44631263D01*
X97956978Y-44584006D01*
X97941597Y-44537447D01*
X97923950Y-44491699D01*
X97904080Y-44446873D01*
X97882034Y-44403075D01*
X97857865Y-44360412D01*
X97831632Y-44318986D01*
X97803399Y-44278897D01*
X97773232Y-44240241D01*
X97741204Y-44203113D01*
X97741193Y-44203101D01*
X97707427Y-44167634D01*
X97707400Y-44167607D01*
X97707394Y-44167601D01*
X97671882Y-44133790D01*
X97634753Y-44101763D01*
X97634748Y-44101759D01*
X97634741Y-44101753D01*
X97614614Y-44086046D01*
X97596098Y-44071596D01*
X97556009Y-44043362D01*
X97514583Y-44017129D01*
X97514580Y-44017127D01*
X97514570Y-44017121D01*
X97471916Y-43992959D01*
X97471889Y-43992944D01*
X97428136Y-43970921D01*
X97383295Y-43951045D01*
X97337543Y-43933396D01*
X97291009Y-43918023D01*
X97290980Y-43918014D01*
X97243737Y-43904940D01*
X97243709Y-43904933D01*
X97195915Y-43894201D01*
X97195886Y-43894195D01*
X97147607Y-43885817D01*
X97147568Y-43885811D01*
X97108813Y-43881031D01*
X97044688Y-43853287D01*
X97005742Y-43795279D01*
X96999994Y-43757964D01*
X96999994Y-43375000D01*
X96999995Y-41375000D01*
X96999995Y-40992035D01*
X97019680Y-40924996D01*
X97072484Y-40879241D01*
X97108816Y-40868968D01*
X97125812Y-40866871D01*
X97147578Y-40864187D01*
X97195890Y-40855804D01*
X97243732Y-40845061D01*
X97290989Y-40831983D01*
X97337547Y-40816602D01*
X97383295Y-40798955D01*
X97428122Y-40779085D01*
X97428136Y-40779078D01*
X97471889Y-40757055D01*
X97471896Y-40757050D01*
X97471920Y-40757039D01*
X97514583Y-40732871D01*
X97556009Y-40706638D01*
X97596098Y-40678404D01*
X97634753Y-40648237D01*
X97671882Y-40616210D01*
X97707394Y-40582399D01*
X97707413Y-40582378D01*
X97707427Y-40582365D01*
X97725803Y-40563062D01*
X97741204Y-40546887D01*
X97773232Y-40509759D01*
X97803399Y-40471103D01*
X97831632Y-40431014D01*
X97857865Y-40389588D01*
X97882034Y-40346925D01*
X97904080Y-40303127D01*
X97923950Y-40258301D01*
X97941597Y-40212553D01*
X97956978Y-40165994D01*
X97970055Y-40118737D01*
X97980799Y-40070895D01*
X97989182Y-40022584D01*
X97995184Y-39973919D01*
X97998791Y-39925019D01*
X97999995Y-39875988D01*
X97999995Y-20624012D01*
X97998791Y-20574981D01*
X97995184Y-20526081D01*
X97989182Y-20477416D01*
X97980799Y-20429105D01*
X97970055Y-20381263D01*
X97956978Y-20334006D01*
X97941597Y-20287447D01*
X97923950Y-20241699D01*
X97904080Y-20196873D01*
X97882034Y-20153075D01*
X97857865Y-20110412D01*
X97831632Y-20068986D01*
X97803399Y-20028897D01*
X97773232Y-19990241D01*
X97741204Y-19953113D01*
X97741193Y-19953101D01*
X97707427Y-19917634D01*
X97707400Y-19917607D01*
X97707394Y-19917601D01*
X97671882Y-19883790D01*
X97634753Y-19851763D01*
X97634748Y-19851759D01*
X97634741Y-19851753D01*
X97614614Y-19836046D01*
X97596098Y-19821596D01*
X97556009Y-19793362D01*
X97514583Y-19767129D01*
X97514580Y-19767127D01*
X97514570Y-19767121D01*
X97471916Y-19742959D01*
X97471889Y-19742944D01*
X97428136Y-19720921D01*
X97383295Y-19701045D01*
X97337543Y-19683396D01*
X97291009Y-19668023D01*
X97290980Y-19668014D01*
X97243737Y-19654940D01*
X97243709Y-19654933D01*
X97195915Y-19644201D01*
X97195886Y-19644195D01*
X97147607Y-19635817D01*
X97147568Y-19635811D01*
X97108813Y-19631031D01*
X97044688Y-19603287D01*
X97005742Y-19545279D01*
X96999994Y-19507964D01*
X96999994Y-19125000D01*
X96999995Y-17125001D01*
X96999995Y-16742035D01*
X97019680Y-16674996D01*
X97072484Y-16629241D01*
X97108816Y-16618968D01*
X97125812Y-16616871D01*
X97147578Y-16614187D01*
X97195890Y-16605804D01*
X97243732Y-16595061D01*
X97290989Y-16581983D01*
X97337547Y-16566602D01*
X97383295Y-16548955D01*
X97428122Y-16529085D01*
X97428136Y-16529078D01*
X97471889Y-16507055D01*
X97471896Y-16507050D01*
X97471920Y-16507039D01*
X97514583Y-16482871D01*
X97556009Y-16456638D01*
X97596098Y-16428404D01*
X97634753Y-16398237D01*
X97671882Y-16366210D01*
X97707394Y-16332399D01*
X97707413Y-16332378D01*
X97707427Y-16332365D01*
X97725803Y-16313062D01*
X97741204Y-16296887D01*
X97773232Y-16259759D01*
X97803399Y-16221103D01*
X97831632Y-16181014D01*
X97857865Y-16139588D01*
X97882034Y-16096925D01*
X97904080Y-16053127D01*
X97923950Y-16008301D01*
X97941597Y-15962553D01*
X97956978Y-15915994D01*
X97970055Y-15868737D01*
X97980799Y-15820895D01*
X97989182Y-15772584D01*
X97995184Y-15723919D01*
X97998791Y-15675019D01*
X97999995Y-15625988D01*
X97999995Y-5999012D01*
X97998791Y-5949981D01*
X97995184Y-5901080D01*
X97989182Y-5852416D01*
X97980799Y-5804104D01*
X97970055Y-5756262D01*
X97956978Y-5709005D01*
X97941597Y-5662447D01*
X97923950Y-5616699D01*
X97904080Y-5571872D01*
X97882034Y-5528074D01*
X97857865Y-5485411D01*
X97831632Y-5443985D01*
X97803399Y-5403896D01*
X97773232Y-5365241D01*
X97741204Y-5328112D01*
X97707394Y-5292600D01*
X97671882Y-5258790D01*
X97634753Y-5226762D01*
X97596098Y-5196595D01*
X97556009Y-5168362D01*
X97553513Y-5166781D01*
X97514598Y-5142138D01*
X97514590Y-5142133D01*
X97514583Y-5142129D01*
X97471920Y-5117960D01*
X97428122Y-5095914D01*
X97383295Y-5076044D01*
X97337543Y-5058395D01*
X97290985Y-5043014D01*
X97243751Y-5029944D01*
X97243744Y-5029942D01*
X97243737Y-5029940D01*
X97243732Y-5029939D01*
X97195890Y-5019195D01*
X97195887Y-5019194D01*
X97195876Y-5019192D01*
X97147607Y-5010816D01*
X97147563Y-5010810D01*
X97098926Y-5004811D01*
X97098916Y-5004810D01*
X97098914Y-5004810D01*
X97050013Y-5001203D01*
X97000982Y-5000000D01*
X97000969Y-5000000D01*
X88124021Y-5000000D01*
X88124008Y-5000000D01*
X88074977Y-5001203D01*
X88074964Y-5001203D01*
X88074962Y-5001204D01*
X88026063Y-5004811D01*
X88026060Y-5004811D01*
X87977430Y-5010809D01*
X87977382Y-5010816D01*
X87929117Y-5019192D01*
X87929112Y-5019192D01*
X87929101Y-5019195D01*
X87881259Y-5029939D01*
X87881246Y-5029942D01*
X87881239Y-5029944D01*
X87834023Y-5043009D01*
X87834011Y-5043013D01*
X87834002Y-5043016D01*
X87787443Y-5058397D01*
X87741695Y-5076044D01*
X87741690Y-5076046D01*
X87741675Y-5076052D01*
X87696888Y-5095905D01*
X87696877Y-5095910D01*
X87696869Y-5095914D01*
X87653071Y-5117960D01*
X87614733Y-5139678D01*
X87610392Y-5142138D01*
X87569000Y-5168350D01*
X87568978Y-5168365D01*
X87528885Y-5196600D01*
X87528881Y-5196603D01*
X87490260Y-5226743D01*
X87490240Y-5226759D01*
X87453097Y-5258800D01*
X87417630Y-5292566D01*
X87417603Y-5292593D01*
X87383780Y-5328118D01*
X87383778Y-5328121D01*
X87351749Y-5365252D01*
X87321584Y-5403906D01*
X87293362Y-5443978D01*
X87267132Y-5485399D01*
X87267117Y-5485423D01*
X87242955Y-5528077D01*
X87242940Y-5528104D01*
X87220917Y-5571857D01*
X87201041Y-5616698D01*
X87183392Y-5662450D01*
X87168019Y-5708984D01*
X87168010Y-5709013D01*
X87154936Y-5756256D01*
X87154929Y-5756284D01*
X87144197Y-5804078D01*
X87144191Y-5804107D01*
X87135813Y-5852386D01*
X87135807Y-5852425D01*
X87131027Y-5891182D01*
X87103283Y-5955307D01*
X87045275Y-5994253D01*
X87007960Y-6000001D01*
X86624996Y-6000001D01*
X84624996Y-6000001D01*
X84242032Y-6000001D01*
X84174993Y-5980316D01*
X84129238Y-5927512D01*
X84118965Y-5891182D01*
X84114184Y-5852425D01*
X84114178Y-5852386D01*
X84105802Y-5804117D01*
X84105800Y-5804104D01*
X84095057Y-5756262D01*
X84081979Y-5709005D01*
X84066598Y-5662447D01*
X84048951Y-5616699D01*
X84029081Y-5571872D01*
X84029078Y-5571866D01*
X84029074Y-5571857D01*
X84007051Y-5528104D01*
X84007041Y-5528086D01*
X84007035Y-5528074D01*
X83982867Y-5485411D01*
X83956634Y-5443985D01*
X83928400Y-5403896D01*
X83898233Y-5365241D01*
X83866206Y-5328112D01*
X83832395Y-5292600D01*
X83832388Y-5292593D01*
X83832361Y-5292566D01*
X83796894Y-5258800D01*
X83796888Y-5258795D01*
X83796883Y-5258790D01*
X83759755Y-5226762D01*
X83759731Y-5226743D01*
X83721110Y-5196603D01*
X83721106Y-5196600D01*
X83721095Y-5196592D01*
X83681010Y-5168362D01*
X83678514Y-5166781D01*
X83639599Y-5142138D01*
X83639591Y-5142133D01*
X83639584Y-5142129D01*
X83596921Y-5117960D01*
X83553123Y-5095914D01*
X83553103Y-5095905D01*
X83508316Y-5076052D01*
X83508308Y-5076049D01*
X83508297Y-5076044D01*
X83462549Y-5058397D01*
X83415990Y-5043016D01*
X83415984Y-5043014D01*
X83415980Y-5043013D01*
X83415968Y-5043009D01*
X83368752Y-5029944D01*
X83368745Y-5029942D01*
X83368738Y-5029940D01*
X83368733Y-5029939D01*
X83320891Y-5019195D01*
X83320874Y-5019192D01*
X83272609Y-5010816D01*
X83272561Y-5010809D01*
X83223929Y-5004811D01*
X83175029Y-5001204D01*
X83175028Y-5001203D01*
X83175015Y-5001203D01*
X83125984Y-5000000D01*
X83125971Y-5000000D01*
X65374022Y-5000000D01*
X65374009Y-5000000D01*
X65324978Y-5001203D01*
X65324965Y-5001203D01*
X65324963Y-5001204D01*
X65276064Y-5004811D01*
X65276061Y-5004811D01*
X65227431Y-5010809D01*
X65227383Y-5010816D01*
X65179118Y-5019192D01*
X65179113Y-5019192D01*
X65179102Y-5019195D01*
X65131260Y-5029939D01*
X65131247Y-5029942D01*
X65131240Y-5029944D01*
X65084024Y-5043009D01*
X65084012Y-5043013D01*
X65084003Y-5043016D01*
X65037444Y-5058397D01*
X64991696Y-5076044D01*
X64991691Y-5076046D01*
X64991676Y-5076052D01*
X64946889Y-5095905D01*
X64946878Y-5095910D01*
X64946870Y-5095914D01*
X64903072Y-5117960D01*
X64864734Y-5139678D01*
X64860393Y-5142138D01*
X64819001Y-5168350D01*
X64818979Y-5168365D01*
X64778886Y-5196600D01*
X64778882Y-5196603D01*
X64740261Y-5226743D01*
X64740241Y-5226759D01*
X64703098Y-5258800D01*
X64667631Y-5292566D01*
X64667604Y-5292593D01*
X64633781Y-5328118D01*
X64633779Y-5328121D01*
X64601750Y-5365252D01*
X64571585Y-5403906D01*
X64543363Y-5443978D01*
X64517133Y-5485399D01*
X64517118Y-5485423D01*
X64492956Y-5528077D01*
X64492941Y-5528104D01*
X64470918Y-5571857D01*
X64451042Y-5616698D01*
X64433393Y-5662450D01*
X64418020Y-5708984D01*
X64418011Y-5709013D01*
X64404937Y-5756256D01*
X64404930Y-5756284D01*
X64394198Y-5804078D01*
X64394192Y-5804107D01*
X64385814Y-5852386D01*
X64385808Y-5852425D01*
X64381028Y-5891182D01*
X64353284Y-5955307D01*
X64295276Y-5994253D01*
X64257961Y-6000001D01*
X63874997Y-6000001D01*
X61874997Y-6000001D01*
X61492033Y-6000001D01*
X61424994Y-5980316D01*
X61379239Y-5927512D01*
X61368966Y-5891182D01*
X61364185Y-5852425D01*
X61364179Y-5852386D01*
X61355803Y-5804117D01*
X61355801Y-5804104D01*
X61345058Y-5756262D01*
X61331980Y-5709005D01*
X61316599Y-5662447D01*
X61298952Y-5616699D01*
X61279082Y-5571872D01*
X61279079Y-5571866D01*
X61279075Y-5571857D01*
X61257052Y-5528104D01*
X61257042Y-5528086D01*
X61257036Y-5528074D01*
X61232868Y-5485411D01*
X61206635Y-5443985D01*
X61178401Y-5403896D01*
X61148234Y-5365241D01*
X61116207Y-5328112D01*
X61082396Y-5292600D01*
X61082389Y-5292593D01*
X61082362Y-5292566D01*
X61046895Y-5258800D01*
X61046889Y-5258795D01*
X61046884Y-5258790D01*
X61009756Y-5226762D01*
X61009732Y-5226743D01*
X60971111Y-5196603D01*
X60971107Y-5196600D01*
X60971096Y-5196592D01*
X60931011Y-5168362D01*
X60928515Y-5166781D01*
X60889600Y-5142138D01*
X60889592Y-5142133D01*
X60889585Y-5142129D01*
X60846922Y-5117960D01*
X60803124Y-5095914D01*
X60803104Y-5095905D01*
X60758317Y-5076052D01*
X60758309Y-5076049D01*
X60758298Y-5076044D01*
X60712550Y-5058397D01*
X60665991Y-5043016D01*
X60665985Y-5043014D01*
X60665981Y-5043013D01*
X60665969Y-5043009D01*
X60618753Y-5029944D01*
X60618746Y-5029942D01*
X60618739Y-5029940D01*
X60618734Y-5029939D01*
X60570892Y-5019195D01*
X60570875Y-5019192D01*
X60522610Y-5010816D01*
X60522562Y-5010809D01*
X60473930Y-5004811D01*
X60425030Y-5001204D01*
X60425029Y-5001203D01*
X60425016Y-5001203D01*
X60375985Y-5000000D01*
X60375972Y-5000000D01*
X42624023Y-5000000D01*
X42624010Y-5000000D01*
X42574979Y-5001203D01*
X42574966Y-5001203D01*
X42574964Y-5001204D01*
X42526065Y-5004811D01*
X42526062Y-5004811D01*
X42477432Y-5010809D01*
X42477384Y-5010816D01*
X42429119Y-5019192D01*
X42429114Y-5019192D01*
X42429103Y-5019195D01*
X42381261Y-5029939D01*
X42381248Y-5029942D01*
X42381241Y-5029944D01*
X42334025Y-5043009D01*
X42334013Y-5043013D01*
X42334004Y-5043016D01*
X42287445Y-5058397D01*
X42241697Y-5076044D01*
X42241692Y-5076046D01*
X42241677Y-5076052D01*
X42196890Y-5095905D01*
X42196879Y-5095910D01*
X42196871Y-5095914D01*
X42153073Y-5117960D01*
X42114735Y-5139678D01*
X42110394Y-5142138D01*
X42069002Y-5168350D01*
X42068980Y-5168365D01*
X42028887Y-5196600D01*
X42028883Y-5196603D01*
X41990262Y-5226743D01*
X41990242Y-5226759D01*
X41953099Y-5258800D01*
X41917632Y-5292566D01*
X41917605Y-5292593D01*
X41883782Y-5328118D01*
X41883780Y-5328121D01*
X41851751Y-5365252D01*
X41821586Y-5403906D01*
X41793364Y-5443978D01*
X41767134Y-5485399D01*
X41767119Y-5485423D01*
X41742957Y-5528077D01*
X41742942Y-5528104D01*
X41720919Y-5571857D01*
X41701043Y-5616698D01*
X41683394Y-5662450D01*
X41668021Y-5708984D01*
X41668012Y-5709013D01*
X41654938Y-5756256D01*
X41654931Y-5756284D01*
X41644199Y-5804078D01*
X41644193Y-5804107D01*
X41635815Y-5852386D01*
X41635809Y-5852425D01*
X41631029Y-5891182D01*
X41603285Y-5955307D01*
X41545277Y-5994253D01*
X41507962Y-6000001D01*
X41124998Y-6000001D01*
X39124998Y-6000001D01*
X38742034Y-6000001D01*
X38674995Y-5980316D01*
X38629240Y-5927512D01*
X38618967Y-5891182D01*
X38614186Y-5852425D01*
X38614180Y-5852386D01*
X38605804Y-5804117D01*
X38605802Y-5804104D01*
X38595059Y-5756262D01*
X38581981Y-5709005D01*
X38566600Y-5662447D01*
X38548953Y-5616699D01*
X38529083Y-5571872D01*
X38529080Y-5571866D01*
X38529076Y-5571857D01*
X38507053Y-5528104D01*
X38507043Y-5528086D01*
X38507037Y-5528074D01*
X38482869Y-5485411D01*
X38456636Y-5443985D01*
X38428402Y-5403896D01*
X38398235Y-5365241D01*
X38366208Y-5328112D01*
X38332397Y-5292600D01*
X38332390Y-5292593D01*
X38332363Y-5292566D01*
X38296896Y-5258800D01*
X38296890Y-5258795D01*
X38296885Y-5258790D01*
X38259757Y-5226762D01*
X38259733Y-5226743D01*
X38221112Y-5196603D01*
X38221108Y-5196600D01*
X38221097Y-5196592D01*
X38181012Y-5168362D01*
X38178516Y-5166781D01*
X38139601Y-5142138D01*
X38139593Y-5142133D01*
X38139586Y-5142129D01*
X38096923Y-5117960D01*
X38053125Y-5095914D01*
X38053105Y-5095905D01*
X38008318Y-5076052D01*
X38008310Y-5076049D01*
X38008299Y-5076044D01*
X37962551Y-5058397D01*
X37915992Y-5043016D01*
X37915986Y-5043014D01*
X37915982Y-5043013D01*
X37915970Y-5043009D01*
X37868754Y-5029944D01*
X37868747Y-5029942D01*
X37868740Y-5029940D01*
X37868735Y-5029939D01*
X37820893Y-5019195D01*
X37820876Y-5019192D01*
X37772611Y-5010816D01*
X37772563Y-5010809D01*
X37723931Y-5004811D01*
X37675031Y-5001204D01*
X37675030Y-5001203D01*
X37675017Y-5001203D01*
X37625986Y-5000000D01*
X37625973Y-5000000D01*
X19874024Y-5000000D01*
X19874011Y-5000000D01*
X19824980Y-5001203D01*
X19824967Y-5001203D01*
X19824965Y-5001204D01*
X19776066Y-5004811D01*
X19776063Y-5004811D01*
X19727433Y-5010809D01*
X19727385Y-5010816D01*
X19679120Y-5019192D01*
X19679115Y-5019192D01*
X19679104Y-5019195D01*
X19631262Y-5029939D01*
X19631249Y-5029942D01*
X19631242Y-5029944D01*
X19584026Y-5043009D01*
X19584014Y-5043013D01*
X19584005Y-5043016D01*
X19537446Y-5058397D01*
X19491698Y-5076044D01*
X19491693Y-5076046D01*
X19491678Y-5076052D01*
X19446891Y-5095905D01*
X19446880Y-5095910D01*
X19446872Y-5095914D01*
X19403074Y-5117960D01*
X19364736Y-5139678D01*
X19360395Y-5142138D01*
X19319003Y-5168350D01*
X19318981Y-5168365D01*
X19278888Y-5196600D01*
X19278884Y-5196603D01*
X19240263Y-5226743D01*
X19240243Y-5226759D01*
X19203100Y-5258800D01*
X19167633Y-5292566D01*
X19167606Y-5292593D01*
X19133783Y-5328118D01*
X19133781Y-5328121D01*
X19101752Y-5365252D01*
X19071587Y-5403906D01*
X19043365Y-5443978D01*
X19017135Y-5485399D01*
X19017120Y-5485423D01*
X18992958Y-5528077D01*
X18992943Y-5528104D01*
X18970920Y-5571857D01*
X18951044Y-5616698D01*
X18933395Y-5662450D01*
X18918022Y-5708984D01*
X18918013Y-5709013D01*
X18904939Y-5756256D01*
X18904932Y-5756284D01*
X18894200Y-5804078D01*
X18894194Y-5804107D01*
X18885816Y-5852386D01*
X18885810Y-5852425D01*
X18881030Y-5891182D01*
X18853286Y-5955307D01*
X18795278Y-5994253D01*
X18757963Y-6000001D01*
X18374999Y-6000001D01*
X16375000Y-6000001D01*
X15992035Y-6000001D01*
X15924996Y-5980316D01*
X15879241Y-5927512D01*
X15868968Y-5891182D01*
X15864187Y-5852425D01*
X15864181Y-5852386D01*
X15855805Y-5804117D01*
X15855803Y-5804104D01*
X15845060Y-5756262D01*
X15831982Y-5709005D01*
X15816601Y-5662447D01*
X15798954Y-5616699D01*
X15779084Y-5571872D01*
X15779081Y-5571866D01*
X15779077Y-5571857D01*
X15757054Y-5528104D01*
X15757044Y-5528086D01*
X15757038Y-5528074D01*
X15732870Y-5485411D01*
X15706637Y-5443985D01*
X15678403Y-5403896D01*
X15648236Y-5365241D01*
X15616209Y-5328112D01*
X15582398Y-5292600D01*
X15582391Y-5292593D01*
X15582364Y-5292566D01*
X15546897Y-5258800D01*
X15546891Y-5258795D01*
X15546886Y-5258790D01*
X15509758Y-5226762D01*
X15509734Y-5226743D01*
X15471113Y-5196603D01*
X15471109Y-5196600D01*
X15471098Y-5196592D01*
X15431013Y-5168362D01*
X15428517Y-5166781D01*
X15389602Y-5142138D01*
X15389594Y-5142133D01*
X15389587Y-5142129D01*
X15346924Y-5117960D01*
X15303126Y-5095914D01*
X15303106Y-5095905D01*
X15258319Y-5076052D01*
X15258311Y-5076049D01*
X15258300Y-5076044D01*
X15212552Y-5058397D01*
X15165993Y-5043016D01*
X15165987Y-5043014D01*
X15165983Y-5043013D01*
X15165971Y-5043009D01*
X15118755Y-5029944D01*
X15118748Y-5029942D01*
X15118741Y-5029940D01*
X15118736Y-5029939D01*
X15070894Y-5019195D01*
X15070877Y-5019192D01*
X15022612Y-5010816D01*
X15022564Y-5010809D01*
X14973932Y-5004811D01*
X14925032Y-5001204D01*
X14925031Y-5001203D01*
X14925018Y-5001203D01*
X14875987Y-5000000D01*
X14875974Y-5000000D01*
X5999025Y-5000000D01*
X5999012Y-5000000D01*
X5949981Y-5001203D01*
X5949968Y-5001203D01*
X5949966Y-5001204D01*
X5914691Y-5003806D01*
X5901080Y-5004810D01*
X5901079Y-5004810D01*
X5901067Y-5004811D01*
X5852430Y-5010810D01*
X5852386Y-5010816D01*
X5804117Y-5019192D01*
X5756249Y-5029942D01*
X5756242Y-5029944D01*
X5709008Y-5043014D01*
X5662450Y-5058395D01*
X5616698Y-5076044D01*
X5571892Y-5095905D01*
X5571872Y-5095914D01*
X5528074Y-5117960D01*
X5489736Y-5139678D01*
X5485395Y-5142138D01*
X5444003Y-5168350D01*
X5443981Y-5168365D01*
X5403899Y-5196592D01*
X5365233Y-5226768D01*
X5328120Y-5258782D01*
X5292600Y-5292600D01*
X5258782Y-5328120D01*
X5226768Y-5365233D01*
X5196592Y-5403899D01*
X5168365Y-5443981D01*
X5168350Y-5444003D01*
X5142138Y-5485395D01*
X5142129Y-5485411D01*
X5117960Y-5528074D01*
X5117945Y-5528104D01*
X5095913Y-5571874D01*
X5076044Y-5616698D01*
X5058395Y-5662450D01*
X5043014Y-5709008D01*
X5029944Y-5756242D01*
X5029942Y-5756249D01*
X5019192Y-5804117D01*
X5010816Y-5852386D01*
X5010810Y-5852430D01*
X5004811Y-5901067D01*
X5004810Y-5901079D01*
X5004810Y-5901080D01*
X5001203Y-5949981D01*
X5000000Y-5999012D01*
X0Y-5999012D01*
X0Y-2500000D01*
X3994659Y-2500000D01*
X4013975Y-2696129D01*
X4071188Y-2884733D01*
X4164086Y-3058532D01*
X4164090Y-3058539D01*
X4289116Y-3210883D01*
X4441460Y-3335909D01*
X4441467Y-3335913D01*
X4615266Y-3428811D01*
X4615269Y-3428811D01*
X4615273Y-3428814D01*
X4803868Y-3486024D01*
X5000000Y-3505341D01*
X5196132Y-3486024D01*
X5384727Y-3428814D01*
X5558538Y-3335910D01*
X5710883Y-3210883D01*
X5835910Y-3058538D01*
X5928814Y-2884727D01*
X5986024Y-2696132D01*
X6005341Y-2500000D01*
X96994654Y-2500000D01*
X97013970Y-2696129D01*
X97071183Y-2884733D01*
X97164081Y-3058532D01*
X97164085Y-3058539D01*
X97289111Y-3210883D01*
X97441455Y-3335909D01*
X97441462Y-3335913D01*
X97615261Y-3428811D01*
X97615264Y-3428811D01*
X97615268Y-3428814D01*
X97803863Y-3486024D01*
X97999995Y-3505341D01*
X98196127Y-3486024D01*
X98384722Y-3428814D01*
X98558533Y-3335910D01*
X98710878Y-3210883D01*
X98835905Y-3058538D01*
X98928809Y-2884727D01*
X98986019Y-2696132D01*
X99005336Y-2500000D01*
X98986019Y-2303868D01*
X98928809Y-2115273D01*
X98928806Y-2115269D01*
X98928806Y-2115266D01*
X98835908Y-1941467D01*
X98835904Y-1941460D01*
X98710878Y-1789116D01*
X98558534Y-1664090D01*
X98558527Y-1664086D01*
X98384728Y-1571188D01*
X98384722Y-1571186D01*
X98196127Y-1513976D01*
X98196124Y-1513975D01*
X97999995Y-1494659D01*
X97803865Y-1513975D01*
X97615261Y-1571188D01*
X97441462Y-1664086D01*
X97441455Y-1664090D01*
X97289111Y-1789116D01*
X97164085Y-1941460D01*
X97164081Y-1941467D01*
X97071183Y-2115266D01*
X97013970Y-2303870D01*
X96994654Y-2500000D01*
X6005341Y-2500000D01*
X5986024Y-2303868D01*
X5928814Y-2115273D01*
X5928811Y-2115269D01*
X5928811Y-2115266D01*
X5835913Y-1941467D01*
X5835909Y-1941460D01*
X5710883Y-1789116D01*
X5558539Y-1664090D01*
X5558532Y-1664086D01*
X5384733Y-1571188D01*
X5384727Y-1571186D01*
X5196132Y-1513976D01*
X5196129Y-1513975D01*
X5000000Y-1494659D01*
X4803870Y-1513975D01*
X4615266Y-1571188D01*
X4441467Y-1664086D01*
X4441460Y-1664090D01*
X4289116Y-1789116D01*
X4164090Y-1941460D01*
X4164086Y-1941467D01*
X4071188Y-2115266D01*
X4013975Y-2303870D01*
X3994659Y-2500000D01*
X0Y-2500000D01*
X0Y-124000D01*
X19685Y-56961D01*
X72489Y-11206D01*
X124000Y0D01*
X102875994Y0D01*
X102943033Y-19685D01*
G37*
%TD.AperFunction*%
%TA.AperFunction,NonConductor*%
G36*
X73901144Y-17083909D02*
G01*
X73944550Y-17093656D01*
X73968620Y-17098444D01*
X74010540Y-17105718D01*
X74016936Y-17106828D01*
X74041213Y-17110429D01*
X74064927Y-17113353D01*
X74089872Y-17116430D01*
X74111399Y-17118549D01*
X74114284Y-17118834D01*
X74114287Y-17118834D01*
X74114295Y-17118835D01*
X74163195Y-17122443D01*
X74187707Y-17123647D01*
X74236738Y-17124850D01*
X74249008Y-17125001D01*
X74249996Y-17125001D01*
X74249995Y-19125000D01*
X74249043Y-19125000D01*
X74249008Y-19125000D01*
X74238783Y-19125125D01*
X74236731Y-19125151D01*
X74187703Y-19126354D01*
X74163189Y-19127558D01*
X74114283Y-19131166D01*
X74089857Y-19133572D01*
X74041213Y-19139571D01*
X74016936Y-19143172D01*
X73968625Y-19151556D01*
X73944564Y-19156342D01*
X73944555Y-19156343D01*
X73944550Y-19156345D01*
X73901161Y-19166087D01*
X73831439Y-19161568D01*
X73775227Y-19120071D01*
X73750374Y-19054771D01*
X73749996Y-19045100D01*
X73749996Y-18702816D01*
X73750496Y-18695186D01*
X73750496Y-18554815D01*
X73749996Y-18547185D01*
X73749996Y-17702817D01*
X73750496Y-17695187D01*
X73750496Y-17554816D01*
X73749996Y-17547186D01*
X73749996Y-17204900D01*
X73769681Y-17137861D01*
X73822485Y-17092106D01*
X73891643Y-17082162D01*
X73901144Y-17083909D01*
G37*
%TD.AperFunction*%
%TA.AperFunction,NonConductor*%
G36*
X74668552Y-17088431D02*
G01*
X74724764Y-17129927D01*
X74749619Y-17195226D01*
X74749997Y-17204900D01*
X74749997Y-17547186D01*
X74749497Y-17554816D01*
X74749497Y-17695187D01*
X74749997Y-17702817D01*
X74749997Y-18547185D01*
X74749497Y-18554815D01*
X74749497Y-18695186D01*
X74749997Y-18702816D01*
X74749997Y-19045100D01*
X74730312Y-19112139D01*
X74677508Y-19157894D01*
X74608350Y-19167838D01*
X74598834Y-19166088D01*
X74555443Y-19156345D01*
X74531373Y-19151557D01*
X74529380Y-19151211D01*
X74483056Y-19143172D01*
X74458779Y-19139571D01*
X74410134Y-19133572D01*
X74385708Y-19131166D01*
X74336803Y-19127558D01*
X74312289Y-19126354D01*
X74263261Y-19125151D01*
X74261459Y-19125128D01*
X74250985Y-19125000D01*
X74250950Y-19125000D01*
X74249997Y-19125000D01*
X74249998Y-17125001D01*
X74250950Y-17125001D01*
X74250985Y-17125001D01*
X74263255Y-17124850D01*
X74312286Y-17123647D01*
X74336798Y-17122443D01*
X74385699Y-17118835D01*
X74410122Y-17116430D01*
X74446314Y-17111966D01*
X74458779Y-17110429D01*
X74483056Y-17106828D01*
X74483062Y-17106827D01*
X74531373Y-17098444D01*
X74555443Y-17093656D01*
X74598830Y-17083913D01*
X74668552Y-17088431D01*
G37*
%TD.AperFunction*%
%TA.AperFunction,NonConductor*%
G36*
X28401146Y-17083909D02*
G01*
X28444552Y-17093656D01*
X28468622Y-17098444D01*
X28510542Y-17105718D01*
X28516938Y-17106828D01*
X28541215Y-17110429D01*
X28564929Y-17113353D01*
X28589874Y-17116430D01*
X28611401Y-17118549D01*
X28614286Y-17118834D01*
X28614289Y-17118834D01*
X28614297Y-17118835D01*
X28663197Y-17122443D01*
X28687709Y-17123647D01*
X28736740Y-17124850D01*
X28749010Y-17125001D01*
X28749998Y-17125001D01*
X28749997Y-19125000D01*
X28749045Y-19125000D01*
X28749010Y-19125000D01*
X28738785Y-19125125D01*
X28736733Y-19125151D01*
X28687705Y-19126354D01*
X28663191Y-19127558D01*
X28614285Y-19131166D01*
X28589859Y-19133572D01*
X28541215Y-19139571D01*
X28516938Y-19143172D01*
X28468627Y-19151556D01*
X28444566Y-19156342D01*
X28444557Y-19156343D01*
X28444552Y-19156345D01*
X28401163Y-19166087D01*
X28331441Y-19161568D01*
X28275229Y-19120071D01*
X28250376Y-19054771D01*
X28249998Y-19045100D01*
X28249998Y-18702816D01*
X28250498Y-18695186D01*
X28250498Y-18554815D01*
X28249998Y-18547185D01*
X28249998Y-17702817D01*
X28250498Y-17695187D01*
X28250498Y-17554816D01*
X28249998Y-17547186D01*
X28249998Y-17204900D01*
X28269683Y-17137861D01*
X28322487Y-17092106D01*
X28391645Y-17082162D01*
X28401146Y-17083909D01*
G37*
%TD.AperFunction*%
%TA.AperFunction,NonConductor*%
G36*
X29168554Y-17088431D02*
G01*
X29224766Y-17129927D01*
X29249621Y-17195226D01*
X29249999Y-17204900D01*
X29249999Y-17547186D01*
X29249499Y-17554816D01*
X29249499Y-17695187D01*
X29249999Y-17702817D01*
X29249999Y-18547185D01*
X29249499Y-18554815D01*
X29249499Y-18695186D01*
X29249999Y-18702816D01*
X29249999Y-19045100D01*
X29230314Y-19112139D01*
X29177510Y-19157894D01*
X29108352Y-19167838D01*
X29098836Y-19166088D01*
X29055445Y-19156345D01*
X29031375Y-19151557D01*
X29029382Y-19151211D01*
X28983058Y-19143172D01*
X28958781Y-19139571D01*
X28910136Y-19133572D01*
X28885710Y-19131166D01*
X28836805Y-19127558D01*
X28812291Y-19126354D01*
X28763263Y-19125151D01*
X28761461Y-19125128D01*
X28750987Y-19125000D01*
X28750952Y-19125000D01*
X28749999Y-19125000D01*
X28750000Y-17125001D01*
X28750952Y-17125001D01*
X28750987Y-17125001D01*
X28763257Y-17124850D01*
X28812288Y-17123647D01*
X28836800Y-17122443D01*
X28885701Y-17118835D01*
X28910124Y-17116430D01*
X28946316Y-17111966D01*
X28958781Y-17110429D01*
X28983058Y-17106828D01*
X28983064Y-17106827D01*
X29031375Y-17098444D01*
X29055445Y-17093656D01*
X29098832Y-17083913D01*
X29168554Y-17088431D01*
G37*
%TD.AperFunction*%
%TA.AperFunction,NonConductor*%
G36*
X73901144Y-41333908D02*
G01*
X73944550Y-41343655D01*
X73968620Y-41348443D01*
X74010540Y-41355717D01*
X74016936Y-41356827D01*
X74041213Y-41360428D01*
X74064927Y-41363352D01*
X74089872Y-41366429D01*
X74111399Y-41368548D01*
X74114284Y-41368833D01*
X74114287Y-41368833D01*
X74114295Y-41368834D01*
X74163195Y-41372442D01*
X74187707Y-41373646D01*
X74236738Y-41374849D01*
X74249008Y-41375000D01*
X74249996Y-41375000D01*
X74249995Y-43375000D01*
X74249043Y-43375000D01*
X74249008Y-43375000D01*
X74238783Y-43375125D01*
X74236731Y-43375151D01*
X74187703Y-43376354D01*
X74163189Y-43377558D01*
X74114283Y-43381166D01*
X74089857Y-43383572D01*
X74041213Y-43389571D01*
X74016936Y-43393172D01*
X73968625Y-43401556D01*
X73944564Y-43406342D01*
X73944555Y-43406343D01*
X73944550Y-43406345D01*
X73901161Y-43416087D01*
X73831439Y-43411568D01*
X73775227Y-43370071D01*
X73750374Y-43304771D01*
X73749996Y-43295100D01*
X73749996Y-42952816D01*
X73750496Y-42945186D01*
X73750496Y-42804815D01*
X73749996Y-42797185D01*
X73749996Y-41952816D01*
X73750496Y-41945186D01*
X73750496Y-41804815D01*
X73749996Y-41797185D01*
X73749996Y-41454899D01*
X73769681Y-41387860D01*
X73822485Y-41342105D01*
X73891643Y-41332161D01*
X73901144Y-41333908D01*
G37*
%TD.AperFunction*%
%TA.AperFunction,NonConductor*%
G36*
X74668552Y-41338430D02*
G01*
X74724764Y-41379926D01*
X74749619Y-41445225D01*
X74749997Y-41454899D01*
X74749997Y-41797185D01*
X74749497Y-41804815D01*
X74749497Y-41945186D01*
X74749997Y-41952816D01*
X74749997Y-42797185D01*
X74749497Y-42804815D01*
X74749497Y-42945186D01*
X74749997Y-42952816D01*
X74749997Y-43295100D01*
X74730312Y-43362139D01*
X74677508Y-43407894D01*
X74608350Y-43417838D01*
X74598834Y-43416088D01*
X74555443Y-43406345D01*
X74531373Y-43401557D01*
X74529380Y-43401211D01*
X74483056Y-43393172D01*
X74458779Y-43389571D01*
X74410134Y-43383572D01*
X74385708Y-43381166D01*
X74336803Y-43377558D01*
X74312289Y-43376354D01*
X74263261Y-43375151D01*
X74261459Y-43375128D01*
X74250985Y-43375000D01*
X74250950Y-43375000D01*
X74249997Y-43375000D01*
X74249998Y-41375000D01*
X74250950Y-41375000D01*
X74250985Y-41375000D01*
X74263255Y-41374849D01*
X74312286Y-41373646D01*
X74336798Y-41372442D01*
X74385699Y-41368834D01*
X74410122Y-41366429D01*
X74446314Y-41361965D01*
X74458779Y-41360428D01*
X74483056Y-41356827D01*
X74483062Y-41356826D01*
X74531373Y-41348443D01*
X74555443Y-41343655D01*
X74598830Y-41333912D01*
X74668552Y-41338430D01*
G37*
%TD.AperFunction*%
%TA.AperFunction,Conductor*%
%TO.N,Board_3-GND*%
G36*
X83919766Y-8018955D02*
G01*
X84000548Y-8072931D01*
X84054524Y-8153713D01*
X84073478Y-8249001D01*
X84054524Y-8344289D01*
X84043024Y-8368324D01*
X83982421Y-8479312D01*
X83889918Y-8727323D01*
X83833652Y-8985975D01*
X83814768Y-9250001D01*
X83833652Y-9514027D01*
X83889918Y-9772679D01*
X83955748Y-9949178D01*
X83982420Y-10020688D01*
X83982422Y-10020692D01*
X84084417Y-10207482D01*
X84109279Y-10253012D01*
X84267908Y-10464916D01*
X84455080Y-10652088D01*
X84666984Y-10810717D01*
X84899306Y-10937575D01*
X85147317Y-11030078D01*
X85405969Y-11086344D01*
X85669995Y-11105228D01*
X85934021Y-11086344D01*
X86192673Y-11030078D01*
X86440684Y-10937575D01*
X86673006Y-10810717D01*
X86884910Y-10652088D01*
X86884914Y-10652083D01*
X86888144Y-10649666D01*
X86975784Y-10607736D01*
X87037364Y-10600001D01*
X87959994Y-10600001D01*
X88459996Y-10600001D01*
X89836125Y-10600001D01*
X89849453Y-10600358D01*
X89852105Y-10600499D01*
X89852122Y-10600501D01*
X91647867Y-10600500D01*
X91707478Y-10594092D01*
X91842326Y-10543797D01*
X91957541Y-10457547D01*
X92043791Y-10342332D01*
X92094086Y-10207484D01*
X92100495Y-10147874D01*
X92100494Y-8352129D01*
X92094086Y-8292518D01*
X92094085Y-8292517D01*
X92092421Y-8277029D01*
X92096280Y-8276614D01*
X92093856Y-8209235D01*
X92127784Y-8118197D01*
X92193969Y-8047073D01*
X92282334Y-8006690D01*
X92339660Y-8000001D01*
X95000995Y-8000001D01*
X95096283Y-8018955D01*
X95177065Y-8072931D01*
X95231041Y-8153713D01*
X95249995Y-8249001D01*
X95249995Y-28251001D01*
X95231041Y-28346289D01*
X95177065Y-28427071D01*
X95096283Y-28481047D01*
X95000995Y-28500001D01*
X90055512Y-28500001D01*
X89960224Y-28481047D01*
X89879442Y-28427071D01*
X89825466Y-28346289D01*
X89806512Y-28251001D01*
X89825466Y-28155713D01*
X89836965Y-28131677D01*
X89897569Y-28020690D01*
X89990072Y-27772679D01*
X90046338Y-27514027D01*
X90065222Y-27250001D01*
X90046338Y-26985975D01*
X89990072Y-26727323D01*
X89897569Y-26479312D01*
X89770711Y-26246990D01*
X89612082Y-26035086D01*
X89424910Y-25847914D01*
X89213006Y-25689285D01*
X88980684Y-25562427D01*
X88980682Y-25562426D01*
X88909172Y-25535754D01*
X88732673Y-25469924D01*
X88530288Y-25425898D01*
X88474022Y-25413658D01*
X88209995Y-25394774D01*
X87945967Y-25413658D01*
X87833435Y-25438138D01*
X87687317Y-25469924D01*
X87615805Y-25496596D01*
X87439307Y-25562426D01*
X87439303Y-25562428D01*
X87206990Y-25689281D01*
X87206983Y-25689285D01*
X86995085Y-25847909D01*
X86995081Y-25847913D01*
X86966125Y-25876868D01*
X86885342Y-25930842D01*
X86790053Y-25949793D01*
X86703046Y-25934094D01*
X86627479Y-25905910D01*
X86627480Y-25905910D01*
X86567868Y-25899501D01*
X84772129Y-25899501D01*
X84772125Y-25899501D01*
X84772123Y-25899502D01*
X84759309Y-25900879D01*
X84712514Y-25905909D01*
X84712510Y-25905910D01*
X84577665Y-25956204D01*
X84462450Y-26042454D01*
X84462448Y-26042456D01*
X84376199Y-26157670D01*
X84325903Y-26292519D01*
X84319495Y-26352124D01*
X84319495Y-28147866D01*
X84319496Y-28147870D01*
X84327569Y-28222973D01*
X84323709Y-28223387D01*
X84326134Y-28290767D01*
X84292206Y-28381805D01*
X84226021Y-28452929D01*
X84137656Y-28493312D01*
X84080330Y-28500001D01*
X75998995Y-28500001D01*
X75903707Y-28481047D01*
X75822925Y-28427071D01*
X75768949Y-28346289D01*
X75749995Y-28251001D01*
X75749995Y-8249001D01*
X75768949Y-8153713D01*
X75822925Y-8072931D01*
X75903707Y-8018955D01*
X75998995Y-8000001D01*
X83824478Y-8000001D01*
X83919766Y-8018955D01*
G37*
%TD.AperFunction*%
%TA.AperFunction,Conductor*%
G36*
X88459995Y-10408001D02*
G01*
X87959995Y-10341334D01*
X87959995Y-9685502D01*
X88067680Y-9734681D01*
X88174232Y-9750001D01*
X88245758Y-9750001D01*
X88352310Y-9734681D01*
X88459995Y-9685502D01*
X88459995Y-10408001D01*
G37*
%TD.AperFunction*%
%TD*%
%TA.AperFunction,Conductor*%
%TO.N,Board_4-GND*%
G36*
X15669769Y-32268955D02*
G01*
X15750551Y-32322931D01*
X15804527Y-32403713D01*
X15823481Y-32499001D01*
X15804527Y-32594289D01*
X15793027Y-32618324D01*
X15732424Y-32729312D01*
X15639921Y-32977323D01*
X15583655Y-33235975D01*
X15564771Y-33500001D01*
X15583655Y-33764027D01*
X15639921Y-34022679D01*
X15705751Y-34199178D01*
X15732423Y-34270688D01*
X15732425Y-34270692D01*
X15834420Y-34457482D01*
X15859282Y-34503012D01*
X16017911Y-34714916D01*
X16205083Y-34902088D01*
X16416987Y-35060717D01*
X16649309Y-35187575D01*
X16897320Y-35280078D01*
X17155972Y-35336344D01*
X17419998Y-35355228D01*
X17684024Y-35336344D01*
X17942676Y-35280078D01*
X18190687Y-35187575D01*
X18423009Y-35060717D01*
X18634913Y-34902088D01*
X18634917Y-34902083D01*
X18638147Y-34899666D01*
X18725787Y-34857736D01*
X18787367Y-34850001D01*
X19709997Y-34850001D01*
X20209999Y-34850001D01*
X21586128Y-34850001D01*
X21599456Y-34850358D01*
X21602108Y-34850499D01*
X21602125Y-34850501D01*
X23397870Y-34850500D01*
X23457481Y-34844092D01*
X23592329Y-34793797D01*
X23707544Y-34707547D01*
X23793794Y-34592332D01*
X23844089Y-34457484D01*
X23850498Y-34397874D01*
X23850497Y-32602129D01*
X23844089Y-32542518D01*
X23844088Y-32542517D01*
X23842424Y-32527029D01*
X23846283Y-32526614D01*
X23843859Y-32459235D01*
X23877787Y-32368197D01*
X23943972Y-32297073D01*
X24032337Y-32256690D01*
X24089663Y-32250001D01*
X26750998Y-32250001D01*
X26846286Y-32268955D01*
X26927068Y-32322931D01*
X26981044Y-32403713D01*
X26999998Y-32499001D01*
X26999998Y-52501001D01*
X26981044Y-52596289D01*
X26927068Y-52677071D01*
X26846286Y-52731047D01*
X26750998Y-52750001D01*
X21805515Y-52750001D01*
X21710227Y-52731047D01*
X21629445Y-52677071D01*
X21575469Y-52596289D01*
X21556515Y-52501001D01*
X21575469Y-52405713D01*
X21586968Y-52381677D01*
X21647572Y-52270690D01*
X21740075Y-52022679D01*
X21796341Y-51764027D01*
X21815225Y-51500001D01*
X21796341Y-51235975D01*
X21740075Y-50977323D01*
X21647572Y-50729312D01*
X21520714Y-50496990D01*
X21362085Y-50285086D01*
X21174913Y-50097914D01*
X20963009Y-49939285D01*
X20730687Y-49812427D01*
X20730685Y-49812426D01*
X20659175Y-49785754D01*
X20482676Y-49719924D01*
X20280291Y-49675898D01*
X20224025Y-49663658D01*
X19959998Y-49644774D01*
X19695970Y-49663658D01*
X19583438Y-49688138D01*
X19437320Y-49719924D01*
X19365808Y-49746596D01*
X19189310Y-49812426D01*
X19189306Y-49812428D01*
X18956993Y-49939281D01*
X18956986Y-49939285D01*
X18745088Y-50097909D01*
X18745084Y-50097913D01*
X18716128Y-50126868D01*
X18635345Y-50180842D01*
X18540056Y-50199793D01*
X18453049Y-50184094D01*
X18377482Y-50155910D01*
X18377483Y-50155910D01*
X18317871Y-50149501D01*
X16522132Y-50149501D01*
X16522128Y-50149501D01*
X16522126Y-50149502D01*
X16509312Y-50150879D01*
X16462517Y-50155909D01*
X16462513Y-50155910D01*
X16327668Y-50206204D01*
X16212453Y-50292454D01*
X16212451Y-50292456D01*
X16126202Y-50407670D01*
X16075906Y-50542519D01*
X16069498Y-50602124D01*
X16069498Y-52397866D01*
X16069499Y-52397870D01*
X16077572Y-52472973D01*
X16073712Y-52473387D01*
X16076137Y-52540767D01*
X16042209Y-52631805D01*
X15976024Y-52702929D01*
X15887659Y-52743312D01*
X15830333Y-52750001D01*
X7748998Y-52750001D01*
X7653710Y-52731047D01*
X7572928Y-52677071D01*
X7518952Y-52596289D01*
X7499998Y-52501001D01*
X7499998Y-32499001D01*
X7518952Y-32403713D01*
X7572928Y-32322931D01*
X7653710Y-32268955D01*
X7748998Y-32250001D01*
X15574481Y-32250001D01*
X15669769Y-32268955D01*
G37*
%TD.AperFunction*%
%TA.AperFunction,Conductor*%
G36*
X20209998Y-34658001D02*
G01*
X19709998Y-34591334D01*
X19709998Y-33935502D01*
X19817683Y-33984681D01*
X19924235Y-34000001D01*
X19995761Y-34000001D01*
X20102313Y-33984681D01*
X20209998Y-33935502D01*
X20209998Y-34658001D01*
G37*
%TD.AperFunction*%
%TD*%
M02*
