%TF.GenerationSoftware,KiCad,Pcbnew,8.0.6*%
%TF.CreationDate,2024-11-11T11:34:17+07:00*%
%TF.ProjectId,HV-BOARD - pannel,48562d42-4f41-4524-9420-2d2070616e6e,rev?*%
%TF.SameCoordinates,Original*%
%TF.FileFunction,Legend,Bot*%
%TF.FilePolarity,Positive*%
%FSLAX46Y46*%
G04 Gerber Fmt 4.6, Leading zero omitted, Abs format (unit mm)*
G04 Created by KiCad (PCBNEW 8.0.6) date 2024-11-11 11:34:17*
%MOMM*%
%LPD*%
G01*
G04 APERTURE LIST*
%ADD10C,0.150000*%
%ADD11C,0.120000*%
%ADD12C,0.500000*%
%ADD13R,1.700000X1.700000*%
%ADD14O,1.700000X1.700000*%
%ADD15C,1.000000*%
G04 APERTURE END LIST*
D10*
X88516661Y-35312296D02*
X88516661Y-35883724D01*
X88516661Y-35883724D02*
X88554756Y-35998010D01*
X88554756Y-35998010D02*
X88630947Y-36074201D01*
X88630947Y-36074201D02*
X88745232Y-36112296D01*
X88745232Y-36112296D02*
X88821423Y-36112296D01*
X87754756Y-35312296D02*
X88135708Y-35312296D01*
X88135708Y-35312296D02*
X88173804Y-35693248D01*
X88173804Y-35693248D02*
X88135708Y-35655153D01*
X88135708Y-35655153D02*
X88059518Y-35617058D01*
X88059518Y-35617058D02*
X87869042Y-35617058D01*
X87869042Y-35617058D02*
X87792851Y-35655153D01*
X87792851Y-35655153D02*
X87754756Y-35693248D01*
X87754756Y-35693248D02*
X87716661Y-35769439D01*
X87716661Y-35769439D02*
X87716661Y-35959915D01*
X87716661Y-35959915D02*
X87754756Y-36036105D01*
X87754756Y-36036105D02*
X87792851Y-36074201D01*
X87792851Y-36074201D02*
X87869042Y-36112296D01*
X87869042Y-36112296D02*
X88059518Y-36112296D01*
X88059518Y-36112296D02*
X88135708Y-36074201D01*
X88135708Y-36074201D02*
X88173804Y-36036105D01*
X20266664Y-11062296D02*
X20266664Y-11633724D01*
X20266664Y-11633724D02*
X20304759Y-11748010D01*
X20304759Y-11748010D02*
X20380950Y-11824201D01*
X20380950Y-11824201D02*
X20495235Y-11862296D01*
X20495235Y-11862296D02*
X20571426Y-11862296D01*
X19504759Y-11062296D02*
X19885711Y-11062296D01*
X19885711Y-11062296D02*
X19923807Y-11443248D01*
X19923807Y-11443248D02*
X19885711Y-11405153D01*
X19885711Y-11405153D02*
X19809521Y-11367058D01*
X19809521Y-11367058D02*
X19619045Y-11367058D01*
X19619045Y-11367058D02*
X19542854Y-11405153D01*
X19542854Y-11405153D02*
X19504759Y-11443248D01*
X19504759Y-11443248D02*
X19466664Y-11519439D01*
X19466664Y-11519439D02*
X19466664Y-11709915D01*
X19466664Y-11709915D02*
X19504759Y-11786105D01*
X19504759Y-11786105D02*
X19542854Y-11824201D01*
X19542854Y-11824201D02*
X19619045Y-11862296D01*
X19619045Y-11862296D02*
X19809521Y-11862296D01*
X19809521Y-11862296D02*
X19885711Y-11824201D01*
X19885711Y-11824201D02*
X19923807Y-11786105D01*
X65766662Y-11062296D02*
X65766662Y-11633724D01*
X65766662Y-11633724D02*
X65804757Y-11748010D01*
X65804757Y-11748010D02*
X65880948Y-11824201D01*
X65880948Y-11824201D02*
X65995233Y-11862296D01*
X65995233Y-11862296D02*
X66071424Y-11862296D01*
X65004757Y-11062296D02*
X65385709Y-11062296D01*
X65385709Y-11062296D02*
X65423805Y-11443248D01*
X65423805Y-11443248D02*
X65385709Y-11405153D01*
X65385709Y-11405153D02*
X65309519Y-11367058D01*
X65309519Y-11367058D02*
X65119043Y-11367058D01*
X65119043Y-11367058D02*
X65042852Y-11405153D01*
X65042852Y-11405153D02*
X65004757Y-11443248D01*
X65004757Y-11443248D02*
X64966662Y-11519439D01*
X64966662Y-11519439D02*
X64966662Y-11709915D01*
X64966662Y-11709915D02*
X65004757Y-11786105D01*
X65004757Y-11786105D02*
X65042852Y-11824201D01*
X65042852Y-11824201D02*
X65119043Y-11862296D01*
X65119043Y-11862296D02*
X65309519Y-11862296D01*
X65309519Y-11862296D02*
X65385709Y-11824201D01*
X65385709Y-11824201D02*
X65423805Y-11786105D01*
X41766663Y-48812296D02*
X41766663Y-49383724D01*
X41766663Y-49383724D02*
X41804758Y-49498010D01*
X41804758Y-49498010D02*
X41880949Y-49574201D01*
X41880949Y-49574201D02*
X41995234Y-49612296D01*
X41995234Y-49612296D02*
X42071425Y-49612296D01*
X41461901Y-48812296D02*
X40928567Y-48812296D01*
X40928567Y-48812296D02*
X41271425Y-49612296D01*
X20266664Y-35312296D02*
X20266664Y-35883724D01*
X20266664Y-35883724D02*
X20304759Y-35998010D01*
X20304759Y-35998010D02*
X20380950Y-36074201D01*
X20380950Y-36074201D02*
X20495235Y-36112296D01*
X20495235Y-36112296D02*
X20571426Y-36112296D01*
X19504759Y-35312296D02*
X19885711Y-35312296D01*
X19885711Y-35312296D02*
X19923807Y-35693248D01*
X19923807Y-35693248D02*
X19885711Y-35655153D01*
X19885711Y-35655153D02*
X19809521Y-35617058D01*
X19809521Y-35617058D02*
X19619045Y-35617058D01*
X19619045Y-35617058D02*
X19542854Y-35655153D01*
X19542854Y-35655153D02*
X19504759Y-35693248D01*
X19504759Y-35693248D02*
X19466664Y-35769439D01*
X19466664Y-35769439D02*
X19466664Y-35959915D01*
X19466664Y-35959915D02*
X19504759Y-36036105D01*
X19504759Y-36036105D02*
X19542854Y-36074201D01*
X19542854Y-36074201D02*
X19619045Y-36112296D01*
X19619045Y-36112296D02*
X19809521Y-36112296D01*
X19809521Y-36112296D02*
X19885711Y-36074201D01*
X19885711Y-36074201D02*
X19923807Y-36036105D01*
X19016664Y-48812296D02*
X19016664Y-49383724D01*
X19016664Y-49383724D02*
X19054759Y-49498010D01*
X19054759Y-49498010D02*
X19130950Y-49574201D01*
X19130950Y-49574201D02*
X19245235Y-49612296D01*
X19245235Y-49612296D02*
X19321426Y-49612296D01*
X18711902Y-48812296D02*
X18178568Y-48812296D01*
X18178568Y-48812296D02*
X18521426Y-49612296D01*
X65766662Y-35312296D02*
X65766662Y-35883724D01*
X65766662Y-35883724D02*
X65804757Y-35998010D01*
X65804757Y-35998010D02*
X65880948Y-36074201D01*
X65880948Y-36074201D02*
X65995233Y-36112296D01*
X65995233Y-36112296D02*
X66071424Y-36112296D01*
X65004757Y-35312296D02*
X65385709Y-35312296D01*
X65385709Y-35312296D02*
X65423805Y-35693248D01*
X65423805Y-35693248D02*
X65385709Y-35655153D01*
X65385709Y-35655153D02*
X65309519Y-35617058D01*
X65309519Y-35617058D02*
X65119043Y-35617058D01*
X65119043Y-35617058D02*
X65042852Y-35655153D01*
X65042852Y-35655153D02*
X65004757Y-35693248D01*
X65004757Y-35693248D02*
X64966662Y-35769439D01*
X64966662Y-35769439D02*
X64966662Y-35959915D01*
X64966662Y-35959915D02*
X65004757Y-36036105D01*
X65004757Y-36036105D02*
X65042852Y-36074201D01*
X65042852Y-36074201D02*
X65119043Y-36112296D01*
X65119043Y-36112296D02*
X65309519Y-36112296D01*
X65309519Y-36112296D02*
X65385709Y-36074201D01*
X65385709Y-36074201D02*
X65423805Y-36036105D01*
X43016663Y-35312296D02*
X43016663Y-35883724D01*
X43016663Y-35883724D02*
X43054758Y-35998010D01*
X43054758Y-35998010D02*
X43130949Y-36074201D01*
X43130949Y-36074201D02*
X43245234Y-36112296D01*
X43245234Y-36112296D02*
X43321425Y-36112296D01*
X42254758Y-35312296D02*
X42635710Y-35312296D01*
X42635710Y-35312296D02*
X42673806Y-35693248D01*
X42673806Y-35693248D02*
X42635710Y-35655153D01*
X42635710Y-35655153D02*
X42559520Y-35617058D01*
X42559520Y-35617058D02*
X42369044Y-35617058D01*
X42369044Y-35617058D02*
X42292853Y-35655153D01*
X42292853Y-35655153D02*
X42254758Y-35693248D01*
X42254758Y-35693248D02*
X42216663Y-35769439D01*
X42216663Y-35769439D02*
X42216663Y-35959915D01*
X42216663Y-35959915D02*
X42254758Y-36036105D01*
X42254758Y-36036105D02*
X42292853Y-36074201D01*
X42292853Y-36074201D02*
X42369044Y-36112296D01*
X42369044Y-36112296D02*
X42559520Y-36112296D01*
X42559520Y-36112296D02*
X42635710Y-36074201D01*
X42635710Y-36074201D02*
X42673806Y-36036105D01*
X87266661Y-24562296D02*
X87266661Y-25133724D01*
X87266661Y-25133724D02*
X87304756Y-25248010D01*
X87304756Y-25248010D02*
X87380947Y-25324201D01*
X87380947Y-25324201D02*
X87495232Y-25362296D01*
X87495232Y-25362296D02*
X87571423Y-25362296D01*
X86961899Y-24562296D02*
X86428565Y-24562296D01*
X86428565Y-24562296D02*
X86771423Y-25362296D01*
X41766663Y-24562296D02*
X41766663Y-25133724D01*
X41766663Y-25133724D02*
X41804758Y-25248010D01*
X41804758Y-25248010D02*
X41880949Y-25324201D01*
X41880949Y-25324201D02*
X41995234Y-25362296D01*
X41995234Y-25362296D02*
X42071425Y-25362296D01*
X41461901Y-24562296D02*
X40928567Y-24562296D01*
X40928567Y-24562296D02*
X41271425Y-25362296D01*
X43016663Y-11062296D02*
X43016663Y-11633724D01*
X43016663Y-11633724D02*
X43054758Y-11748010D01*
X43054758Y-11748010D02*
X43130949Y-11824201D01*
X43130949Y-11824201D02*
X43245234Y-11862296D01*
X43245234Y-11862296D02*
X43321425Y-11862296D01*
X42254758Y-11062296D02*
X42635710Y-11062296D01*
X42635710Y-11062296D02*
X42673806Y-11443248D01*
X42673806Y-11443248D02*
X42635710Y-11405153D01*
X42635710Y-11405153D02*
X42559520Y-11367058D01*
X42559520Y-11367058D02*
X42369044Y-11367058D01*
X42369044Y-11367058D02*
X42292853Y-11405153D01*
X42292853Y-11405153D02*
X42254758Y-11443248D01*
X42254758Y-11443248D02*
X42216663Y-11519439D01*
X42216663Y-11519439D02*
X42216663Y-11709915D01*
X42216663Y-11709915D02*
X42254758Y-11786105D01*
X42254758Y-11786105D02*
X42292853Y-11824201D01*
X42292853Y-11824201D02*
X42369044Y-11862296D01*
X42369044Y-11862296D02*
X42559520Y-11862296D01*
X42559520Y-11862296D02*
X42635710Y-11824201D01*
X42635710Y-11824201D02*
X42673806Y-11786105D01*
X64516662Y-48812296D02*
X64516662Y-49383724D01*
X64516662Y-49383724D02*
X64554757Y-49498010D01*
X64554757Y-49498010D02*
X64630948Y-49574201D01*
X64630948Y-49574201D02*
X64745233Y-49612296D01*
X64745233Y-49612296D02*
X64821424Y-49612296D01*
X64211900Y-48812296D02*
X63678566Y-48812296D01*
X63678566Y-48812296D02*
X64021424Y-49612296D01*
X64516662Y-24562296D02*
X64516662Y-25133724D01*
X64516662Y-25133724D02*
X64554757Y-25248010D01*
X64554757Y-25248010D02*
X64630948Y-25324201D01*
X64630948Y-25324201D02*
X64745233Y-25362296D01*
X64745233Y-25362296D02*
X64821424Y-25362296D01*
X64211900Y-24562296D02*
X63678566Y-24562296D01*
X63678566Y-24562296D02*
X64021424Y-25362296D01*
X88516661Y-11062296D02*
X88516661Y-11633724D01*
X88516661Y-11633724D02*
X88554756Y-11748010D01*
X88554756Y-11748010D02*
X88630947Y-11824201D01*
X88630947Y-11824201D02*
X88745232Y-11862296D01*
X88745232Y-11862296D02*
X88821423Y-11862296D01*
X87754756Y-11062296D02*
X88135708Y-11062296D01*
X88135708Y-11062296D02*
X88173804Y-11443248D01*
X88173804Y-11443248D02*
X88135708Y-11405153D01*
X88135708Y-11405153D02*
X88059518Y-11367058D01*
X88059518Y-11367058D02*
X87869042Y-11367058D01*
X87869042Y-11367058D02*
X87792851Y-11405153D01*
X87792851Y-11405153D02*
X87754756Y-11443248D01*
X87754756Y-11443248D02*
X87716661Y-11519439D01*
X87716661Y-11519439D02*
X87716661Y-11709915D01*
X87716661Y-11709915D02*
X87754756Y-11786105D01*
X87754756Y-11786105D02*
X87792851Y-11824201D01*
X87792851Y-11824201D02*
X87869042Y-11862296D01*
X87869042Y-11862296D02*
X88059518Y-11862296D01*
X88059518Y-11862296D02*
X88135708Y-11824201D01*
X88135708Y-11824201D02*
X88173804Y-11786105D01*
X87266661Y-48812296D02*
X87266661Y-49383724D01*
X87266661Y-49383724D02*
X87304756Y-49498010D01*
X87304756Y-49498010D02*
X87380947Y-49574201D01*
X87380947Y-49574201D02*
X87495232Y-49612296D01*
X87495232Y-49612296D02*
X87571423Y-49612296D01*
X86961899Y-48812296D02*
X86428565Y-48812296D01*
X86428565Y-48812296D02*
X86771423Y-49612296D01*
X19016664Y-24562296D02*
X19016664Y-25133724D01*
X19016664Y-25133724D02*
X19054759Y-25248010D01*
X19054759Y-25248010D02*
X19130950Y-25324201D01*
X19130950Y-25324201D02*
X19245235Y-25362296D01*
X19245235Y-25362296D02*
X19321426Y-25362296D01*
X18711902Y-24562296D02*
X18178568Y-24562296D01*
X18178568Y-24562296D02*
X18521426Y-25362296D01*
D11*
%TO.C,J5*%
X84339995Y-34830001D02*
X84339995Y-32170001D01*
X89479995Y-32170001D02*
X84339995Y-32170001D01*
X89479995Y-34830001D02*
X84339995Y-34830001D01*
X89479995Y-34830001D02*
X89479995Y-32170001D01*
X92079995Y-32170001D02*
X90749995Y-32170001D01*
X92079995Y-33500001D02*
X92079995Y-32170001D01*
X16089998Y-10580001D02*
X16089998Y-7920001D01*
X21229998Y-7920001D02*
X16089998Y-7920001D01*
X21229998Y-10580001D02*
X16089998Y-10580001D01*
X21229998Y-10580001D02*
X21229998Y-7920001D01*
X23829998Y-7920001D02*
X22499998Y-7920001D01*
X23829998Y-9250001D02*
X23829998Y-7920001D01*
X61589996Y-10580001D02*
X61589996Y-7920001D01*
X66729996Y-7920001D02*
X61589996Y-7920001D01*
X66729996Y-10580001D02*
X61589996Y-10580001D01*
X66729996Y-10580001D02*
X66729996Y-7920001D01*
X69329996Y-7920001D02*
X67999996Y-7920001D01*
X69329996Y-9250001D02*
X69329996Y-7920001D01*
%TO.C,J7*%
X38839997Y-51500001D02*
X38839997Y-52830001D01*
X38839997Y-52830001D02*
X40169997Y-52830001D01*
X41439997Y-50170001D02*
X41439997Y-52830001D01*
X41439997Y-50170001D02*
X44039997Y-50170001D01*
X41439997Y-52830001D02*
X44039997Y-52830001D01*
X44039997Y-50170001D02*
X44039997Y-52830001D01*
%TO.C,J5*%
X16089998Y-34830001D02*
X16089998Y-32170001D01*
X21229998Y-32170001D02*
X16089998Y-32170001D01*
X21229998Y-34830001D02*
X16089998Y-34830001D01*
X21229998Y-34830001D02*
X21229998Y-32170001D01*
X23829998Y-32170001D02*
X22499998Y-32170001D01*
X23829998Y-33500001D02*
X23829998Y-32170001D01*
%TO.C,J7*%
X16089998Y-51500001D02*
X16089998Y-52830001D01*
X16089998Y-52830001D02*
X17419998Y-52830001D01*
X18689998Y-50170001D02*
X18689998Y-52830001D01*
X18689998Y-50170001D02*
X21289998Y-50170001D01*
X18689998Y-52830001D02*
X21289998Y-52830001D01*
X21289998Y-50170001D02*
X21289998Y-52830001D01*
%TO.C,J5*%
X61589996Y-34830001D02*
X61589996Y-32170001D01*
X66729996Y-32170001D02*
X61589996Y-32170001D01*
X66729996Y-34830001D02*
X61589996Y-34830001D01*
X66729996Y-34830001D02*
X66729996Y-32170001D01*
X69329996Y-32170001D02*
X67999996Y-32170001D01*
X69329996Y-33500001D02*
X69329996Y-32170001D01*
X38839997Y-34830001D02*
X38839997Y-32170001D01*
X43979997Y-32170001D02*
X38839997Y-32170001D01*
X43979997Y-34830001D02*
X38839997Y-34830001D01*
X43979997Y-34830001D02*
X43979997Y-32170001D01*
X46579997Y-32170001D02*
X45249997Y-32170001D01*
X46579997Y-33500001D02*
X46579997Y-32170001D01*
%TO.C,J7*%
X84339995Y-27250001D02*
X84339995Y-28580001D01*
X84339995Y-28580001D02*
X85669995Y-28580001D01*
X86939995Y-25920001D02*
X86939995Y-28580001D01*
X86939995Y-25920001D02*
X89539995Y-25920001D01*
X86939995Y-28580001D02*
X89539995Y-28580001D01*
X89539995Y-25920001D02*
X89539995Y-28580001D01*
X38839997Y-27250001D02*
X38839997Y-28580001D01*
X38839997Y-28580001D02*
X40169997Y-28580001D01*
X41439997Y-25920001D02*
X41439997Y-28580001D01*
X41439997Y-25920001D02*
X44039997Y-25920001D01*
X41439997Y-28580001D02*
X44039997Y-28580001D01*
X44039997Y-25920001D02*
X44039997Y-28580001D01*
%TO.C,J5*%
X38839997Y-10580001D02*
X38839997Y-7920001D01*
X43979997Y-7920001D02*
X38839997Y-7920001D01*
X43979997Y-10580001D02*
X38839997Y-10580001D01*
X43979997Y-10580001D02*
X43979997Y-7920001D01*
X46579997Y-7920001D02*
X45249997Y-7920001D01*
X46579997Y-9250001D02*
X46579997Y-7920001D01*
%TO.C,J7*%
X61589996Y-51500001D02*
X61589996Y-52830001D01*
X61589996Y-52830001D02*
X62919996Y-52830001D01*
X64189996Y-50170001D02*
X64189996Y-52830001D01*
X64189996Y-50170001D02*
X66789996Y-50170001D01*
X64189996Y-52830001D02*
X66789996Y-52830001D01*
X66789996Y-50170001D02*
X66789996Y-52830001D01*
X61589996Y-27250001D02*
X61589996Y-28580001D01*
X61589996Y-28580001D02*
X62919996Y-28580001D01*
X64189996Y-25920001D02*
X64189996Y-28580001D01*
X64189996Y-25920001D02*
X66789996Y-25920001D01*
X64189996Y-28580001D02*
X66789996Y-28580001D01*
X66789996Y-25920001D02*
X66789996Y-28580001D01*
%TO.C,J5*%
X84339995Y-10580001D02*
X84339995Y-7920001D01*
X89479995Y-7920001D02*
X84339995Y-7920001D01*
X89479995Y-10580001D02*
X84339995Y-10580001D01*
X89479995Y-10580001D02*
X89479995Y-7920001D01*
X92079995Y-7920001D02*
X90749995Y-7920001D01*
X92079995Y-9250001D02*
X92079995Y-7920001D01*
%TO.C,J7*%
X84339995Y-51500001D02*
X84339995Y-52830001D01*
X84339995Y-52830001D02*
X85669995Y-52830001D01*
X86939995Y-50170001D02*
X86939995Y-52830001D01*
X86939995Y-50170001D02*
X89539995Y-50170001D01*
X86939995Y-52830001D02*
X89539995Y-52830001D01*
X89539995Y-50170001D02*
X89539995Y-52830001D01*
X16089998Y-27250001D02*
X16089998Y-28580001D01*
X16089998Y-28580001D02*
X17419998Y-28580001D01*
X18689998Y-25920001D02*
X18689998Y-28580001D01*
X18689998Y-25920001D02*
X21289998Y-25920001D01*
X18689998Y-28580001D02*
X21289998Y-28580001D01*
X21289998Y-25920001D02*
X21289998Y-28580001D01*
%TD*%
%LPC*%
D12*
%TO.C,KiKit_MB_7_4*%
X41624998Y-7000001D03*
%TD*%
%TO.C,KiKit_MB_3_2*%
X16875000Y-7000001D03*
%TD*%
%TO.C,KiKit_MB_25_1*%
X52499998Y-43875000D03*
%TD*%
%TO.C,KiKit_MB_16_3*%
X85124996Y-29250000D03*
%TD*%
%TO.C,KiKit_MB_30_4*%
X95999995Y-43875000D03*
%TD*%
%TO.C,KiKit_MB_16_2*%
X86124996Y-29250000D03*
%TD*%
%TO.C,KiKit_MB_3_1*%
X15875000Y-7000001D03*
%TD*%
%TO.C,KiKit_MB_31_2*%
X85124996Y-31250000D03*
%TD*%
%TO.C,KiKit_MB_10_4*%
X73249996Y-19625000D03*
%TD*%
%TO.C,KiKit_MB_30_3*%
X95999995Y-42875000D03*
%TD*%
%TO.C,KiKit_MB_4_3*%
X16875000Y-29250000D03*
%TD*%
%TO.C,KiKit_MB_12_3*%
X62374997Y-29250000D03*
%TD*%
%TO.C,KiKit_MB_26_3*%
X73249996Y-42875000D03*
%TD*%
%TO.C,KiKit_MB_29_2*%
X75249997Y-42875000D03*
%TD*%
%TO.C,KiKit_MB_6_3*%
X50499997Y-18625000D03*
%TD*%
%TO.C,KiKit_MB_17_1*%
X7000001Y-43875000D03*
%TD*%
%TO.C,KiKit_MB_3_3*%
X17874999Y-7000001D03*
%TD*%
%TO.C,KiKit_MB_24_3*%
X39624998Y-53500000D03*
%TD*%
%TO.C,KiKit_MB_11_4*%
X64374997Y-7000001D03*
%TD*%
%TO.C,KiKit_MB_25_4*%
X52499998Y-40875000D03*
%TD*%
%TO.C,KiKit_MB_18_1*%
X27749998Y-40875000D03*
%TD*%
%TO.C,KiKit_MB_25_2*%
X52499998Y-42875000D03*
%TD*%
%TO.C,KiKit_MB_29_4*%
X75249997Y-40875000D03*
%TD*%
%TO.C,KiKit_MB_22_3*%
X50499997Y-42875000D03*
%TD*%
%TO.C,KiKit_MB_4_4*%
X15875000Y-29250000D03*
%TD*%
%TO.C,KiKit_MB_8_2*%
X40624998Y-29250000D03*
%TD*%
%TO.C,KiKit_MB_27_1*%
X61374997Y-31250000D03*
%TD*%
%TO.C,KiKit_MB_19_2*%
X16875000Y-31250000D03*
%TD*%
%TO.C,KiKit_MB_27_3*%
X63374997Y-31250000D03*
%TD*%
%TO.C,KiKit_MB_24_1*%
X41624998Y-53500000D03*
%TD*%
%TO.C,KiKit_MB_21_1*%
X29749999Y-43875000D03*
%TD*%
%TO.C,KiKit_MB_14_1*%
X95999995Y-16625001D03*
%TD*%
%TO.C,KiKit_MB_19_1*%
X15875000Y-31250000D03*
%TD*%
%TO.C,KiKit_MB_8_3*%
X39624998Y-29250000D03*
%TD*%
%TO.C,KiKit_MB_15_2*%
X85124996Y-7000001D03*
%TD*%
%TO.C,KiKit_MB_11_3*%
X63374997Y-7000001D03*
%TD*%
%TO.C,KiKit_MB_5_4*%
X29749999Y-16625001D03*
%TD*%
%TO.C,KiKit_MB_19_4*%
X18874999Y-31250000D03*
%TD*%
%TO.C,KiKit_MB_23_2*%
X39624998Y-31250000D03*
%TD*%
%TO.C,KiKit_MB_29_1*%
X75249997Y-43875000D03*
%TD*%
%TO.C,KiKit_MB_4_1*%
X18874999Y-29250000D03*
%TD*%
%TO.C,KiKit_MB_24_4*%
X38624998Y-53500000D03*
%TD*%
%TO.C,KiKit_MB_1_4*%
X7000001Y-16625001D03*
%TD*%
%TO.C,KiKit_MB_20_4*%
X15875000Y-53500000D03*
%TD*%
%TO.C,KiKit_MB_31_1*%
X84124996Y-31250000D03*
%TD*%
%TO.C,KiKit_MB_13_4*%
X75249997Y-16625001D03*
%TD*%
%TO.C,KiKit_MB_1_3*%
X7000001Y-17625001D03*
%TD*%
%TO.C,KiKit_MB_23_1*%
X38624998Y-31250000D03*
%TD*%
%TO.C,KiKit_MB_10_2*%
X73249996Y-17625001D03*
%TD*%
%TO.C,KiKit_MB_11_2*%
X62374997Y-7000001D03*
%TD*%
%TO.C,KiKit_MB_14_2*%
X95999995Y-17625001D03*
%TD*%
%TO.C,KiKit_MB_30_2*%
X95999995Y-41875000D03*
%TD*%
%TO.C,KiKit_MB_14_4*%
X95999995Y-19625000D03*
%TD*%
%TO.C,KiKit_MB_16_1*%
X87124996Y-29250000D03*
%TD*%
%TO.C,KiKit_MB_9_1*%
X52499998Y-19625000D03*
%TD*%
%TO.C,KiKit_MB_22_1*%
X50499997Y-40875000D03*
%TD*%
%TO.C,KiKit_MB_7_2*%
X39624998Y-7000001D03*
%TD*%
%TO.C,KiKit_MB_8_4*%
X38624998Y-29250000D03*
%TD*%
%TO.C,KiKit_MB_28_3*%
X62374997Y-53500000D03*
%TD*%
%TO.C,KiKit_MB_10_1*%
X73249996Y-16625001D03*
%TD*%
%TO.C,KiKit_MB_9_4*%
X52499998Y-16625001D03*
%TD*%
%TO.C,KiKit_MB_17_2*%
X7000001Y-42875000D03*
%TD*%
%TO.C,KiKit_MB_2_3*%
X27749998Y-18625000D03*
%TD*%
%TO.C,KiKit_MB_21_3*%
X29749999Y-41875000D03*
%TD*%
%TO.C,KiKit_MB_17_3*%
X7000001Y-41875000D03*
%TD*%
%TO.C,KiKit_MB_7_1*%
X38624998Y-7000001D03*
%TD*%
%TO.C,KiKit_MB_5_2*%
X29749999Y-18625000D03*
%TD*%
%TO.C,KiKit_MB_15_3*%
X86124996Y-7000001D03*
%TD*%
%TO.C,KiKit_MB_10_3*%
X73249996Y-18625000D03*
%TD*%
%TO.C,KiKit_MB_20_2*%
X17874999Y-53500000D03*
%TD*%
%TO.C,KiKit_MB_31_4*%
X87124996Y-31250000D03*
%TD*%
%TO.C,KiKit_MB_1_2*%
X7000001Y-18625000D03*
%TD*%
%TO.C,KiKit_MB_22_4*%
X50499997Y-43875000D03*
%TD*%
%TO.C,KiKit_MB_31_3*%
X86124996Y-31250000D03*
%TD*%
%TO.C,KiKit_MB_27_2*%
X62374997Y-31250000D03*
%TD*%
%TO.C,KiKit_MB_2_4*%
X27749998Y-19625000D03*
%TD*%
%TO.C,KiKit_MB_7_3*%
X40624998Y-7000001D03*
%TD*%
%TO.C,KiKit_MB_13_2*%
X75249997Y-18625000D03*
%TD*%
%TO.C,KiKit_MB_15_1*%
X84124996Y-7000001D03*
%TD*%
%TO.C,KiKit_MB_5_3*%
X29749999Y-17625001D03*
%TD*%
%TO.C,KiKit_MB_12_1*%
X64374997Y-29250000D03*
%TD*%
%TO.C,KiKit_MB_32_4*%
X84124996Y-53500000D03*
%TD*%
%TO.C,KiKit_MB_1_1*%
X7000001Y-19625000D03*
%TD*%
%TO.C,KiKit_MB_3_4*%
X18874999Y-7000001D03*
%TD*%
%TO.C,KiKit_MB_12_4*%
X61374997Y-29250000D03*
%TD*%
%TO.C,KiKit_MB_26_4*%
X73249996Y-43875000D03*
%TD*%
%TO.C,KiKit_MB_21_4*%
X29749999Y-40875000D03*
%TD*%
%TO.C,KiKit_MB_32_1*%
X87124996Y-53500000D03*
%TD*%
%TO.C,KiKit_MB_27_4*%
X64374997Y-31250000D03*
%TD*%
%TO.C,KiKit_MB_18_3*%
X27749998Y-42875000D03*
%TD*%
%TO.C,KiKit_MB_29_3*%
X75249997Y-41875000D03*
%TD*%
%TO.C,KiKit_MB_30_1*%
X95999995Y-40875000D03*
%TD*%
%TO.C,KiKit_MB_20_1*%
X18874999Y-53500000D03*
%TD*%
%TO.C,KiKit_MB_19_3*%
X17874999Y-31250000D03*
%TD*%
%TO.C,KiKit_MB_5_1*%
X29749999Y-19625000D03*
%TD*%
%TO.C,KiKit_MB_11_1*%
X61374997Y-7000001D03*
%TD*%
%TO.C,KiKit_MB_28_1*%
X64374997Y-53500000D03*
%TD*%
%TO.C,KiKit_MB_22_2*%
X50499997Y-41875000D03*
%TD*%
%TO.C,KiKit_MB_26_2*%
X73249996Y-41875000D03*
%TD*%
%TO.C,KiKit_MB_4_2*%
X17874999Y-29250000D03*
%TD*%
%TO.C,KiKit_MB_9_3*%
X52499998Y-17625001D03*
%TD*%
%TO.C,KiKit_MB_6_4*%
X50499997Y-19625000D03*
%TD*%
%TO.C,KiKit_MB_13_3*%
X75249997Y-17625001D03*
%TD*%
%TO.C,KiKit_MB_32_2*%
X86124996Y-53500000D03*
%TD*%
%TO.C,KiKit_MB_15_4*%
X87124996Y-7000001D03*
%TD*%
%TO.C,KiKit_MB_26_1*%
X73249996Y-40875000D03*
%TD*%
%TO.C,KiKit_MB_13_1*%
X75249997Y-19625000D03*
%TD*%
%TO.C,KiKit_MB_2_2*%
X27749998Y-17625001D03*
%TD*%
%TO.C,KiKit_MB_17_4*%
X7000001Y-40875000D03*
%TD*%
%TO.C,KiKit_MB_9_2*%
X52499998Y-18625000D03*
%TD*%
%TO.C,KiKit_MB_14_3*%
X95999995Y-18625000D03*
%TD*%
%TO.C,KiKit_MB_24_2*%
X40624998Y-53500000D03*
%TD*%
%TO.C,KiKit_MB_6_2*%
X50499997Y-17625001D03*
%TD*%
%TO.C,KiKit_MB_6_1*%
X50499997Y-16625001D03*
%TD*%
%TO.C,KiKit_MB_2_1*%
X27749998Y-16625001D03*
%TD*%
%TO.C,KiKit_MB_32_3*%
X85124996Y-53500000D03*
%TD*%
%TO.C,KiKit_MB_16_4*%
X84124996Y-29250000D03*
%TD*%
%TO.C,KiKit_MB_28_4*%
X61374997Y-53500000D03*
%TD*%
%TO.C,KiKit_MB_20_3*%
X16875000Y-53500000D03*
%TD*%
%TO.C,KiKit_MB_12_2*%
X63374997Y-29250000D03*
%TD*%
%TO.C,KiKit_MB_8_1*%
X41624998Y-29250000D03*
%TD*%
%TO.C,KiKit_MB_18_4*%
X27749998Y-43875000D03*
%TD*%
%TO.C,KiKit_MB_18_2*%
X27749998Y-41875000D03*
%TD*%
%TO.C,KiKit_MB_25_3*%
X52499998Y-41875000D03*
%TD*%
%TO.C,KiKit_MB_28_2*%
X63374997Y-53500000D03*
%TD*%
%TO.C,KiKit_MB_23_3*%
X40624998Y-31250000D03*
%TD*%
%TO.C,KiKit_MB_21_2*%
X29749999Y-42875000D03*
%TD*%
%TO.C,KiKit_MB_23_4*%
X41624998Y-31250000D03*
%TD*%
D13*
%TO.C,J5*%
X90749995Y-33500001D03*
D14*
X88209995Y-33500001D03*
X85669995Y-33500001D03*
%TD*%
D13*
%TO.C,J5*%
X22499998Y-9250001D03*
D14*
X19959998Y-9250001D03*
X17419998Y-9250001D03*
%TD*%
D13*
%TO.C,J5*%
X67999996Y-9250001D03*
D14*
X65459996Y-9250001D03*
X62919996Y-9250001D03*
%TD*%
D13*
%TO.C,J7*%
X40169997Y-51500001D03*
D14*
X42709997Y-51500001D03*
%TD*%
D13*
%TO.C,J5*%
X22499998Y-33500001D03*
D14*
X19959998Y-33500001D03*
X17419998Y-33500001D03*
%TD*%
D13*
%TO.C,J7*%
X17419998Y-51500001D03*
D14*
X19959998Y-51500001D03*
%TD*%
D15*
%TO.C,KiKit_FID_B_1*%
X5000000Y-2500000D03*
%TD*%
D13*
%TO.C,J5*%
X67999996Y-33500001D03*
D14*
X65459996Y-33500001D03*
X62919996Y-33500001D03*
%TD*%
D15*
%TO.C,KiKit_FID_B_2*%
X97999995Y-2500000D03*
%TD*%
D13*
%TO.C,J5*%
X45249997Y-33500001D03*
D14*
X42709997Y-33500001D03*
X40169997Y-33500001D03*
%TD*%
D13*
%TO.C,J7*%
X85669995Y-27250001D03*
D14*
X88209995Y-27250001D03*
%TD*%
D13*
%TO.C,J7*%
X40169997Y-27250001D03*
D14*
X42709997Y-27250001D03*
%TD*%
D15*
%TO.C,KiKit_FID_B_3*%
X5000000Y-58000001D03*
%TD*%
D13*
%TO.C,J5*%
X45249997Y-9250001D03*
D14*
X42709997Y-9250001D03*
X40169997Y-9250001D03*
%TD*%
D13*
%TO.C,J7*%
X62919996Y-51500001D03*
D14*
X65459996Y-51500001D03*
%TD*%
D13*
%TO.C,J7*%
X62919996Y-27250001D03*
D14*
X65459996Y-27250001D03*
%TD*%
D13*
%TO.C,J5*%
X90749995Y-9250001D03*
D14*
X88209995Y-9250001D03*
X85669995Y-9250001D03*
%TD*%
D13*
%TO.C,J7*%
X85669995Y-51500001D03*
D14*
X88209995Y-51500001D03*
%TD*%
D13*
%TO.C,J7*%
X17419998Y-27250001D03*
D14*
X19959998Y-27250001D03*
%TD*%
%LPD*%
M02*
