%TF.GenerationSoftware,KiCad,Pcbnew,8.0.6*%
%TF.CreationDate,2024-11-11T11:34:17+07:00*%
%TF.ProjectId,HV-BOARD - pannel,48562d42-4f41-4524-9420-2d2070616e6e,rev?*%
%TF.SameCoordinates,Original*%
%TF.FileFunction,Paste,Top*%
%TF.FilePolarity,Positive*%
%FSLAX46Y46*%
G04 Gerber Fmt 4.6, Leading zero omitted, Abs format (unit mm)*
G04 Created by KiCad (PCBNEW 8.0.6) date 2024-11-11 11:34:17*
%MOMM*%
%LPD*%
G01*
G04 APERTURE LIST*
G04 Aperture macros list*
%AMRoundRect*
0 Rectangle with rounded corners*
0 $1 Rounding radius*
0 $2 $3 $4 $5 $6 $7 $8 $9 X,Y pos of 4 corners*
0 Add a 4 corners polygon primitive as box body*
4,1,4,$2,$3,$4,$5,$6,$7,$8,$9,$2,$3,0*
0 Add four circle primitives for the rounded corners*
1,1,$1+$1,$2,$3*
1,1,$1+$1,$4,$5*
1,1,$1+$1,$6,$7*
1,1,$1+$1,$8,$9*
0 Add four rect primitives between the rounded corners*
20,1,$1+$1,$2,$3,$4,$5,0*
20,1,$1+$1,$4,$5,$6,$7,0*
20,1,$1+$1,$6,$7,$8,$9,0*
20,1,$1+$1,$8,$9,$2,$3,0*%
G04 Aperture macros list end*
%ADD10RoundRect,0.250000X0.250000X0.675000X-0.250000X0.675000X-0.250000X-0.675000X0.250000X-0.675000X0*%
%ADD11RoundRect,0.250000X-0.325000X-0.650000X0.325000X-0.650000X0.325000X0.650000X-0.325000X0.650000X0*%
%ADD12RoundRect,0.250000X0.325000X0.650000X-0.325000X0.650000X-0.325000X-0.650000X0.325000X-0.650000X0*%
%ADD13RoundRect,0.250000X-0.650000X0.325000X-0.650000X-0.325000X0.650000X-0.325000X0.650000X0.325000X0*%
%ADD14RoundRect,0.250000X0.700000X-0.275000X0.700000X0.275000X-0.700000X0.275000X-0.700000X-0.275000X0*%
G04 APERTURE END LIST*
D10*
%TO.C,B1*%
X70079996Y-37575001D03*
X67539996Y-37575001D03*
X62459996Y-37575001D03*
X59919996Y-37575001D03*
X62459996Y-47925001D03*
X70079996Y-47925001D03*
%TD*%
D11*
%TO.C,C10*%
X33774997Y-51500001D03*
X36724997Y-51500001D03*
%TD*%
%TO.C,C12*%
X33274997Y-9500001D03*
X36224997Y-9500001D03*
%TD*%
D12*
%TO.C,C13*%
X48974997Y-51500001D03*
X46024997Y-51500001D03*
%TD*%
D13*
%TO.C,C11*%
X9249998Y-38525001D03*
X9249998Y-41475001D03*
%TD*%
D14*
%TO.C,L1*%
X54749996Y-22825001D03*
X54749996Y-19675001D03*
%TD*%
D10*
%TO.C,B1*%
X92829995Y-13325001D03*
X90289995Y-13325001D03*
X85209995Y-13325001D03*
X82669995Y-13325001D03*
X85209995Y-23675001D03*
X92829995Y-23675001D03*
%TD*%
D11*
%TO.C,C12*%
X10524998Y-33750001D03*
X13474998Y-33750001D03*
%TD*%
D12*
%TO.C,C13*%
X71724996Y-27250001D03*
X68774996Y-27250001D03*
%TD*%
D11*
%TO.C,C10*%
X11024998Y-51500001D03*
X13974998Y-51500001D03*
%TD*%
D14*
%TO.C,L1*%
X9249998Y-22825001D03*
X9249998Y-19675001D03*
%TD*%
D10*
%TO.C,B1*%
X47329997Y-13325001D03*
X44789997Y-13325001D03*
X39709997Y-13325001D03*
X37169997Y-13325001D03*
X39709997Y-23675001D03*
X47329997Y-23675001D03*
%TD*%
D11*
%TO.C,C12*%
X33274997Y-33750001D03*
X36224997Y-33750001D03*
%TD*%
D13*
%TO.C,C11*%
X31999997Y-14275001D03*
X31999997Y-17225001D03*
%TD*%
D12*
%TO.C,C13*%
X94474995Y-27250001D03*
X91524995Y-27250001D03*
%TD*%
D11*
%TO.C,C12*%
X56024996Y-9500001D03*
X58974996Y-9500001D03*
%TD*%
%TO.C,C10*%
X56524996Y-51500001D03*
X59474996Y-51500001D03*
%TD*%
D10*
%TO.C,B1*%
X24579998Y-37575001D03*
X22039998Y-37575001D03*
X16959998Y-37575001D03*
X14419998Y-37575001D03*
X16959998Y-47925001D03*
X24579998Y-47925001D03*
%TD*%
D13*
%TO.C,C11*%
X77499995Y-14275001D03*
X77499995Y-17225001D03*
%TD*%
D11*
%TO.C,C10*%
X33774997Y-27250001D03*
X36724997Y-27250001D03*
%TD*%
D13*
%TO.C,C11*%
X77499995Y-38525001D03*
X77499995Y-41475001D03*
%TD*%
D11*
%TO.C,C12*%
X78774995Y-9500001D03*
X81724995Y-9500001D03*
%TD*%
D12*
%TO.C,C13*%
X71724996Y-51500001D03*
X68774996Y-51500001D03*
%TD*%
%TO.C,C13*%
X94474995Y-51500001D03*
X91524995Y-51500001D03*
%TD*%
D11*
%TO.C,C12*%
X78774995Y-33750001D03*
X81724995Y-33750001D03*
%TD*%
D12*
%TO.C,C13*%
X48974997Y-27250001D03*
X46024997Y-27250001D03*
%TD*%
D14*
%TO.C,L1*%
X31999997Y-22825001D03*
X31999997Y-19675001D03*
%TD*%
D11*
%TO.C,C10*%
X11024998Y-27250001D03*
X13974998Y-27250001D03*
%TD*%
D13*
%TO.C,C11*%
X54749996Y-14275001D03*
X54749996Y-17225001D03*
%TD*%
D11*
%TO.C,C12*%
X10524998Y-9500001D03*
X13474998Y-9500001D03*
%TD*%
D14*
%TO.C,L1*%
X31999997Y-47075001D03*
X31999997Y-43925001D03*
%TD*%
D11*
%TO.C,C10*%
X56524996Y-27250001D03*
X59474996Y-27250001D03*
%TD*%
%TO.C,C10*%
X79274995Y-51500001D03*
X82224995Y-51500001D03*
%TD*%
D10*
%TO.C,B1*%
X47329997Y-37575001D03*
X44789997Y-37575001D03*
X39709997Y-37575001D03*
X37169997Y-37575001D03*
X39709997Y-47925001D03*
X47329997Y-47925001D03*
%TD*%
D12*
%TO.C,C13*%
X26224998Y-27250001D03*
X23274998Y-27250001D03*
%TD*%
D14*
%TO.C,L1*%
X77499995Y-47075001D03*
X77499995Y-43925001D03*
%TD*%
%TO.C,L1*%
X9249998Y-47075001D03*
X9249998Y-43925001D03*
%TD*%
D10*
%TO.C,B1*%
X92829995Y-37575001D03*
X90289995Y-37575001D03*
X85209995Y-37575001D03*
X82669995Y-37575001D03*
X85209995Y-47925001D03*
X92829995Y-47925001D03*
%TD*%
D11*
%TO.C,C10*%
X79274995Y-27250001D03*
X82224995Y-27250001D03*
%TD*%
%TO.C,C12*%
X56024996Y-33750001D03*
X58974996Y-33750001D03*
%TD*%
D13*
%TO.C,C11*%
X31999997Y-38525001D03*
X31999997Y-41475001D03*
%TD*%
%TO.C,C11*%
X54749996Y-38525001D03*
X54749996Y-41475001D03*
%TD*%
D12*
%TO.C,C13*%
X26224998Y-51500001D03*
X23274998Y-51500001D03*
%TD*%
D10*
%TO.C,B1*%
X24579998Y-13325001D03*
X22039998Y-13325001D03*
X16959998Y-13325001D03*
X14419998Y-13325001D03*
X16959998Y-23675001D03*
X24579998Y-23675001D03*
%TD*%
D14*
%TO.C,L1*%
X77499995Y-22825001D03*
X77499995Y-19675001D03*
%TD*%
%TO.C,L1*%
X54749996Y-47075001D03*
X54749996Y-43925001D03*
%TD*%
D10*
%TO.C,B1*%
X70079996Y-13325001D03*
X67539996Y-13325001D03*
X62459996Y-13325001D03*
X59919996Y-13325001D03*
X62459996Y-23675001D03*
X70079996Y-23675001D03*
%TD*%
D13*
%TO.C,C11*%
X9249998Y-14275001D03*
X9249998Y-17225001D03*
%TD*%
M02*
