M48
; DRILL file {KiCad 8.0.6} date 2024-11-11T11:34:17+0700
; FORMAT={-:-/ absolute / inch / decimal}
; #@! TF.CreationDate,2024-11-11T11:34:17+07:00
; #@! TF.GenerationSoftware,Kicad,Pcbnew,8.0.6
; #@! TF.FileFunction,Plated,1,2,PTH
FMAT,2
INCH
; #@! TA.AperFunction,Plated,PTH,ViaDrill
T1C0.0157
; #@! TA.AperFunction,Plated,PTH,ComponentDrill
T2C0.0394
%
G90
G05
T1
X0.315Y-0.3346
X0.315Y-0.502
X0.315Y-0.9646
X0.315Y-1.1024
X0.315Y-1.2894
X0.315Y-1.4567
X0.315Y-1.9193
X0.315Y-2.0571
X0.3543Y-0.374
X0.3543Y-1.3287
X0.3642Y-0.502
X0.3642Y-1.4567
X0.4429Y-0.6201
X0.4429Y-1.5748
X0.4823Y-0.4626
X0.4823Y-1.4173
X0.4921Y-0.7382
X0.4921Y-0.8366
X0.4921Y-1.6929
X0.4921Y-1.7913
X0.5709Y-0.6201
X0.5709Y-1.5748
X0.6201Y-0.7382
X0.6201Y-1.6929
X0.7382Y-0.5217
X0.7382Y-1.4764
X0.748Y-0.6201
X0.748Y-1.5748
X0.7776Y-0.7382
X0.7776Y-0.8366
X0.7776Y-1.6929
X0.7776Y-1.7913
X0.9252Y-0.6004
X0.9252Y-0.7382
X0.9252Y-0.8563
X0.9252Y-1.5551
X0.9252Y-1.6929
X0.9252Y-1.811
X0.9547Y-0.3346
X0.9547Y-1.2894
X1.0433Y-0.3346
X1.0433Y-0.4921
X1.0433Y-0.6693
X1.0433Y-0.8366
X1.0433Y-0.9843
X1.0433Y-1.2894
X1.0433Y-1.4469
X1.0433Y-1.624
X1.0433Y-1.7913
X1.0433Y-1.939
X1.2106Y-0.3346
X1.2106Y-0.502
X1.2106Y-0.9646
X1.2106Y-1.1024
X1.2106Y-1.2894
X1.2106Y-1.4567
X1.2106Y-1.9193
X1.2106Y-2.0571
X1.25Y-0.374
X1.25Y-1.3287
X1.2598Y-0.502
X1.2598Y-1.4567
X1.3386Y-0.6201
X1.3386Y-1.5748
X1.378Y-0.4626
X1.378Y-1.4173
X1.3878Y-0.7382
X1.3878Y-0.8366
X1.3878Y-1.6929
X1.3878Y-1.7913
X1.4665Y-0.6201
X1.4665Y-1.5748
X1.5157Y-0.7382
X1.5157Y-1.6929
X1.6339Y-0.5217
X1.6339Y-1.4764
X1.6437Y-0.6201
X1.6437Y-1.5748
X1.6732Y-0.7382
X1.6732Y-0.8366
X1.6732Y-1.6929
X1.6732Y-1.7913
X1.8209Y-0.6004
X1.8209Y-0.7382
X1.8209Y-0.8563
X1.8209Y-1.5551
X1.8209Y-1.6929
X1.8209Y-1.811
X1.8504Y-0.3346
X1.8504Y-1.2894
X1.939Y-0.3346
X1.939Y-0.4921
X1.939Y-0.6693
X1.939Y-0.8366
X1.939Y-0.9843
X1.939Y-1.2894
X1.939Y-1.4469
X1.939Y-1.624
X1.939Y-1.7913
X1.939Y-1.939
X2.1063Y-0.3346
X2.1063Y-0.502
X2.1063Y-0.9646
X2.1063Y-1.1024
X2.1063Y-1.2894
X2.1063Y-1.4567
X2.1063Y-1.9193
X2.1063Y-2.0571
X2.1457Y-0.374
X2.1457Y-1.3287
X2.1555Y-0.502
X2.1555Y-1.4567
X2.2343Y-0.6201
X2.2343Y-1.5748
X2.2736Y-0.4626
X2.2736Y-1.4173
X2.2835Y-0.7382
X2.2835Y-0.8366
X2.2835Y-1.6929
X2.2835Y-1.7913
X2.3622Y-0.6201
X2.3622Y-1.5748
X2.4114Y-0.7382
X2.4114Y-1.6929
X2.5295Y-0.5217
X2.5295Y-1.4764
X2.5394Y-0.6201
X2.5394Y-1.5748
X2.5689Y-0.7382
X2.5689Y-0.8366
X2.5689Y-1.6929
X2.5689Y-1.7913
X2.7165Y-0.6004
X2.7165Y-0.7382
X2.7165Y-0.8563
X2.7165Y-1.5551
X2.7165Y-1.6929
X2.7165Y-1.811
X2.7461Y-0.3346
X2.7461Y-1.2894
X2.8346Y-0.3346
X2.8346Y-0.4921
X2.8346Y-0.6693
X2.8346Y-0.8366
X2.8346Y-0.9843
X2.8346Y-1.2894
X2.8346Y-1.4469
X2.8346Y-1.624
X2.8346Y-1.7913
X2.8346Y-1.939
X3.002Y-0.3346
X3.002Y-0.502
X3.002Y-0.9646
X3.002Y-1.1024
X3.002Y-1.2894
X3.002Y-1.4567
X3.002Y-1.9193
X3.002Y-2.0571
X3.0413Y-0.374
X3.0413Y-1.3287
X3.0512Y-0.502
X3.0512Y-1.4567
X3.1299Y-0.6201
X3.1299Y-1.5748
X3.1693Y-0.4626
X3.1693Y-1.4173
X3.1791Y-0.7382
X3.1791Y-0.8366
X3.1791Y-1.6929
X3.1791Y-1.7913
X3.2579Y-0.6201
X3.2579Y-1.5748
X3.3071Y-0.7382
X3.3071Y-1.6929
X3.4252Y-0.5217
X3.4252Y-1.4764
X3.435Y-0.6201
X3.435Y-1.5748
X3.4646Y-0.7382
X3.4646Y-0.8366
X3.4646Y-1.6929
X3.4646Y-1.7913
X3.6122Y-0.6004
X3.6122Y-0.7382
X3.6122Y-0.8563
X3.6122Y-1.5551
X3.6122Y-1.6929
X3.6122Y-1.811
X3.6417Y-0.3346
X3.6417Y-1.2894
X3.7303Y-0.3346
X3.7303Y-0.4921
X3.7303Y-0.6693
X3.7303Y-0.8366
X3.7303Y-0.9843
X3.7303Y-1.2894
X3.7303Y-1.4469
X3.7303Y-1.624
X3.7303Y-1.7913
X3.7303Y-1.939
T2
X0.6858Y-0.3642
X0.6858Y-1.0728
X0.6858Y-1.3189
X0.6858Y-2.0276
X0.7858Y-0.3642
X0.7858Y-1.0728
X0.7858Y-1.3189
X0.7858Y-2.0276
X0.8858Y-0.3642
X0.8858Y-1.3189
X1.5815Y-0.3642
X1.5815Y-1.0728
X1.5815Y-1.3189
X1.5815Y-2.0276
X1.6815Y-0.3642
X1.6815Y-1.0728
X1.6815Y-1.3189
X1.6815Y-2.0276
X1.7815Y-0.3642
X1.7815Y-1.3189
X2.4772Y-0.3642
X2.4772Y-1.0728
X2.4772Y-1.3189
X2.4772Y-2.0276
X2.5772Y-0.3642
X2.5772Y-1.0728
X2.5772Y-1.3189
X2.5772Y-2.0276
X2.6772Y-0.3642
X2.6772Y-1.3189
X3.3728Y-0.3642
X3.3728Y-1.0728
X3.3728Y-1.3189
X3.3728Y-2.0276
X3.4728Y-0.3642
X3.4728Y-1.0728
X3.4728Y-1.3189
X3.4728Y-2.0276
X3.5728Y-0.3642
X3.5728Y-1.3189
M30
