%TF.GenerationSoftware,KiCad,Pcbnew,8.0.6*%
%TF.CreationDate,2024-11-11T11:34:17+07:00*%
%TF.ProjectId,HV-BOARD - pannel,48562d42-4f41-4524-9420-2d2070616e6e,rev?*%
%TF.SameCoordinates,Original*%
%TF.FileFunction,Soldermask,Bot*%
%TF.FilePolarity,Negative*%
%FSLAX46Y46*%
G04 Gerber Fmt 4.6, Leading zero omitted, Abs format (unit mm)*
G04 Created by KiCad (PCBNEW 8.0.6) date 2024-11-11 11:34:17*
%MOMM*%
%LPD*%
G01*
G04 APERTURE LIST*
%ADD10C,0.500000*%
%ADD11R,1.700000X1.700000*%
%ADD12O,1.700000X1.700000*%
%ADD13C,1.000000*%
G04 APERTURE END LIST*
D10*
%TO.C,KiKit_MB_7_4*%
X41624998Y-7000001D03*
%TD*%
%TO.C,KiKit_MB_3_2*%
X16875000Y-7000001D03*
%TD*%
%TO.C,KiKit_MB_25_1*%
X52499998Y-43875000D03*
%TD*%
%TO.C,KiKit_MB_16_3*%
X85124996Y-29250000D03*
%TD*%
%TO.C,KiKit_MB_30_4*%
X95999995Y-43875000D03*
%TD*%
%TO.C,KiKit_MB_16_2*%
X86124996Y-29250000D03*
%TD*%
%TO.C,KiKit_MB_3_1*%
X15875000Y-7000001D03*
%TD*%
%TO.C,KiKit_MB_31_2*%
X85124996Y-31250000D03*
%TD*%
%TO.C,KiKit_MB_10_4*%
X73249996Y-19625000D03*
%TD*%
%TO.C,KiKit_MB_30_3*%
X95999995Y-42875000D03*
%TD*%
%TO.C,KiKit_MB_4_3*%
X16875000Y-29250000D03*
%TD*%
%TO.C,KiKit_MB_12_3*%
X62374997Y-29250000D03*
%TD*%
%TO.C,KiKit_MB_26_3*%
X73249996Y-42875000D03*
%TD*%
%TO.C,KiKit_MB_29_2*%
X75249997Y-42875000D03*
%TD*%
%TO.C,KiKit_MB_6_3*%
X50499997Y-18625000D03*
%TD*%
%TO.C,KiKit_MB_17_1*%
X7000001Y-43875000D03*
%TD*%
%TO.C,KiKit_MB_3_3*%
X17874999Y-7000001D03*
%TD*%
%TO.C,KiKit_MB_24_3*%
X39624998Y-53500000D03*
%TD*%
%TO.C,KiKit_MB_11_4*%
X64374997Y-7000001D03*
%TD*%
%TO.C,KiKit_MB_25_4*%
X52499998Y-40875000D03*
%TD*%
%TO.C,KiKit_MB_18_1*%
X27749998Y-40875000D03*
%TD*%
%TO.C,KiKit_MB_25_2*%
X52499998Y-42875000D03*
%TD*%
%TO.C,KiKit_MB_29_4*%
X75249997Y-40875000D03*
%TD*%
%TO.C,KiKit_MB_22_3*%
X50499997Y-42875000D03*
%TD*%
%TO.C,KiKit_MB_4_4*%
X15875000Y-29250000D03*
%TD*%
%TO.C,KiKit_MB_8_2*%
X40624998Y-29250000D03*
%TD*%
%TO.C,KiKit_MB_27_1*%
X61374997Y-31250000D03*
%TD*%
%TO.C,KiKit_MB_19_2*%
X16875000Y-31250000D03*
%TD*%
%TO.C,KiKit_MB_27_3*%
X63374997Y-31250000D03*
%TD*%
%TO.C,KiKit_MB_24_1*%
X41624998Y-53500000D03*
%TD*%
%TO.C,KiKit_MB_21_1*%
X29749999Y-43875000D03*
%TD*%
%TO.C,KiKit_MB_14_1*%
X95999995Y-16625001D03*
%TD*%
%TO.C,KiKit_MB_19_1*%
X15875000Y-31250000D03*
%TD*%
%TO.C,KiKit_MB_8_3*%
X39624998Y-29250000D03*
%TD*%
%TO.C,KiKit_MB_15_2*%
X85124996Y-7000001D03*
%TD*%
%TO.C,KiKit_MB_11_3*%
X63374997Y-7000001D03*
%TD*%
%TO.C,KiKit_MB_5_4*%
X29749999Y-16625001D03*
%TD*%
%TO.C,KiKit_MB_19_4*%
X18874999Y-31250000D03*
%TD*%
%TO.C,KiKit_MB_23_2*%
X39624998Y-31250000D03*
%TD*%
%TO.C,KiKit_MB_29_1*%
X75249997Y-43875000D03*
%TD*%
%TO.C,KiKit_MB_4_1*%
X18874999Y-29250000D03*
%TD*%
%TO.C,KiKit_MB_24_4*%
X38624998Y-53500000D03*
%TD*%
%TO.C,KiKit_MB_1_4*%
X7000001Y-16625001D03*
%TD*%
%TO.C,KiKit_MB_20_4*%
X15875000Y-53500000D03*
%TD*%
%TO.C,KiKit_MB_31_1*%
X84124996Y-31250000D03*
%TD*%
%TO.C,KiKit_MB_13_4*%
X75249997Y-16625001D03*
%TD*%
%TO.C,KiKit_MB_1_3*%
X7000001Y-17625001D03*
%TD*%
%TO.C,KiKit_MB_23_1*%
X38624998Y-31250000D03*
%TD*%
%TO.C,KiKit_MB_10_2*%
X73249996Y-17625001D03*
%TD*%
%TO.C,KiKit_MB_11_2*%
X62374997Y-7000001D03*
%TD*%
%TO.C,KiKit_MB_14_2*%
X95999995Y-17625001D03*
%TD*%
%TO.C,KiKit_MB_30_2*%
X95999995Y-41875000D03*
%TD*%
%TO.C,KiKit_MB_14_4*%
X95999995Y-19625000D03*
%TD*%
%TO.C,KiKit_MB_16_1*%
X87124996Y-29250000D03*
%TD*%
%TO.C,KiKit_MB_9_1*%
X52499998Y-19625000D03*
%TD*%
%TO.C,KiKit_MB_22_1*%
X50499997Y-40875000D03*
%TD*%
%TO.C,KiKit_MB_7_2*%
X39624998Y-7000001D03*
%TD*%
%TO.C,KiKit_MB_8_4*%
X38624998Y-29250000D03*
%TD*%
%TO.C,KiKit_MB_28_3*%
X62374997Y-53500000D03*
%TD*%
%TO.C,KiKit_MB_10_1*%
X73249996Y-16625001D03*
%TD*%
%TO.C,KiKit_MB_9_4*%
X52499998Y-16625001D03*
%TD*%
%TO.C,KiKit_MB_17_2*%
X7000001Y-42875000D03*
%TD*%
%TO.C,KiKit_MB_2_3*%
X27749998Y-18625000D03*
%TD*%
%TO.C,KiKit_MB_21_3*%
X29749999Y-41875000D03*
%TD*%
%TO.C,KiKit_MB_17_3*%
X7000001Y-41875000D03*
%TD*%
%TO.C,KiKit_MB_7_1*%
X38624998Y-7000001D03*
%TD*%
%TO.C,KiKit_MB_5_2*%
X29749999Y-18625000D03*
%TD*%
%TO.C,KiKit_MB_15_3*%
X86124996Y-7000001D03*
%TD*%
%TO.C,KiKit_MB_10_3*%
X73249996Y-18625000D03*
%TD*%
%TO.C,KiKit_MB_20_2*%
X17874999Y-53500000D03*
%TD*%
%TO.C,KiKit_MB_31_4*%
X87124996Y-31250000D03*
%TD*%
%TO.C,KiKit_MB_1_2*%
X7000001Y-18625000D03*
%TD*%
%TO.C,KiKit_MB_22_4*%
X50499997Y-43875000D03*
%TD*%
%TO.C,KiKit_MB_31_3*%
X86124996Y-31250000D03*
%TD*%
%TO.C,KiKit_MB_27_2*%
X62374997Y-31250000D03*
%TD*%
%TO.C,KiKit_MB_2_4*%
X27749998Y-19625000D03*
%TD*%
%TO.C,KiKit_MB_7_3*%
X40624998Y-7000001D03*
%TD*%
%TO.C,KiKit_MB_13_2*%
X75249997Y-18625000D03*
%TD*%
%TO.C,KiKit_MB_15_1*%
X84124996Y-7000001D03*
%TD*%
%TO.C,KiKit_MB_5_3*%
X29749999Y-17625001D03*
%TD*%
%TO.C,KiKit_MB_12_1*%
X64374997Y-29250000D03*
%TD*%
%TO.C,KiKit_MB_32_4*%
X84124996Y-53500000D03*
%TD*%
%TO.C,KiKit_MB_1_1*%
X7000001Y-19625000D03*
%TD*%
%TO.C,KiKit_MB_3_4*%
X18874999Y-7000001D03*
%TD*%
%TO.C,KiKit_MB_12_4*%
X61374997Y-29250000D03*
%TD*%
%TO.C,KiKit_MB_26_4*%
X73249996Y-43875000D03*
%TD*%
%TO.C,KiKit_MB_21_4*%
X29749999Y-40875000D03*
%TD*%
%TO.C,KiKit_MB_32_1*%
X87124996Y-53500000D03*
%TD*%
%TO.C,KiKit_MB_27_4*%
X64374997Y-31250000D03*
%TD*%
%TO.C,KiKit_MB_18_3*%
X27749998Y-42875000D03*
%TD*%
%TO.C,KiKit_MB_29_3*%
X75249997Y-41875000D03*
%TD*%
%TO.C,KiKit_MB_30_1*%
X95999995Y-40875000D03*
%TD*%
%TO.C,KiKit_MB_20_1*%
X18874999Y-53500000D03*
%TD*%
%TO.C,KiKit_MB_19_3*%
X17874999Y-31250000D03*
%TD*%
%TO.C,KiKit_MB_5_1*%
X29749999Y-19625000D03*
%TD*%
%TO.C,KiKit_MB_11_1*%
X61374997Y-7000001D03*
%TD*%
%TO.C,KiKit_MB_28_1*%
X64374997Y-53500000D03*
%TD*%
%TO.C,KiKit_MB_22_2*%
X50499997Y-41875000D03*
%TD*%
%TO.C,KiKit_MB_26_2*%
X73249996Y-41875000D03*
%TD*%
%TO.C,KiKit_MB_4_2*%
X17874999Y-29250000D03*
%TD*%
%TO.C,KiKit_MB_9_3*%
X52499998Y-17625001D03*
%TD*%
%TO.C,KiKit_MB_6_4*%
X50499997Y-19625000D03*
%TD*%
%TO.C,KiKit_MB_13_3*%
X75249997Y-17625001D03*
%TD*%
%TO.C,KiKit_MB_32_2*%
X86124996Y-53500000D03*
%TD*%
%TO.C,KiKit_MB_15_4*%
X87124996Y-7000001D03*
%TD*%
%TO.C,KiKit_MB_26_1*%
X73249996Y-40875000D03*
%TD*%
%TO.C,KiKit_MB_13_1*%
X75249997Y-19625000D03*
%TD*%
%TO.C,KiKit_MB_2_2*%
X27749998Y-17625001D03*
%TD*%
%TO.C,KiKit_MB_17_4*%
X7000001Y-40875000D03*
%TD*%
%TO.C,KiKit_MB_9_2*%
X52499998Y-18625000D03*
%TD*%
%TO.C,KiKit_MB_14_3*%
X95999995Y-18625000D03*
%TD*%
%TO.C,KiKit_MB_24_2*%
X40624998Y-53500000D03*
%TD*%
%TO.C,KiKit_MB_6_2*%
X50499997Y-17625001D03*
%TD*%
%TO.C,KiKit_MB_6_1*%
X50499997Y-16625001D03*
%TD*%
%TO.C,KiKit_MB_2_1*%
X27749998Y-16625001D03*
%TD*%
%TO.C,KiKit_MB_32_3*%
X85124996Y-53500000D03*
%TD*%
%TO.C,KiKit_MB_16_4*%
X84124996Y-29250000D03*
%TD*%
%TO.C,KiKit_MB_28_4*%
X61374997Y-53500000D03*
%TD*%
%TO.C,KiKit_MB_20_3*%
X16875000Y-53500000D03*
%TD*%
%TO.C,KiKit_MB_12_2*%
X63374997Y-29250000D03*
%TD*%
%TO.C,KiKit_MB_8_1*%
X41624998Y-29250000D03*
%TD*%
%TO.C,KiKit_MB_18_4*%
X27749998Y-43875000D03*
%TD*%
%TO.C,KiKit_MB_18_2*%
X27749998Y-41875000D03*
%TD*%
%TO.C,KiKit_MB_25_3*%
X52499998Y-41875000D03*
%TD*%
%TO.C,KiKit_MB_28_2*%
X63374997Y-53500000D03*
%TD*%
%TO.C,KiKit_MB_23_3*%
X40624998Y-31250000D03*
%TD*%
%TO.C,KiKit_MB_21_2*%
X29749999Y-42875000D03*
%TD*%
%TO.C,KiKit_MB_23_4*%
X41624998Y-31250000D03*
%TD*%
D11*
%TO.C,J5*%
X90749995Y-33500001D03*
D12*
X88209995Y-33500001D03*
X85669995Y-33500001D03*
%TD*%
D11*
%TO.C,J5*%
X22499998Y-9250001D03*
D12*
X19959998Y-9250001D03*
X17419998Y-9250001D03*
%TD*%
D11*
%TO.C,J5*%
X67999996Y-9250001D03*
D12*
X65459996Y-9250001D03*
X62919996Y-9250001D03*
%TD*%
D11*
%TO.C,J7*%
X40169997Y-51500001D03*
D12*
X42709997Y-51500001D03*
%TD*%
D11*
%TO.C,J5*%
X22499998Y-33500001D03*
D12*
X19959998Y-33500001D03*
X17419998Y-33500001D03*
%TD*%
D11*
%TO.C,J7*%
X17419998Y-51500001D03*
D12*
X19959998Y-51500001D03*
%TD*%
D13*
%TO.C,KiKit_FID_B_1*%
X5000000Y-2500000D03*
%TD*%
D11*
%TO.C,J5*%
X67999996Y-33500001D03*
D12*
X65459996Y-33500001D03*
X62919996Y-33500001D03*
%TD*%
D13*
%TO.C,KiKit_FID_B_2*%
X97999995Y-2500000D03*
%TD*%
D11*
%TO.C,J5*%
X45249997Y-33500001D03*
D12*
X42709997Y-33500001D03*
X40169997Y-33500001D03*
%TD*%
D11*
%TO.C,J7*%
X85669995Y-27250001D03*
D12*
X88209995Y-27250001D03*
%TD*%
D11*
%TO.C,J7*%
X40169997Y-27250001D03*
D12*
X42709997Y-27250001D03*
%TD*%
D13*
%TO.C,KiKit_FID_B_3*%
X5000000Y-58000001D03*
%TD*%
D11*
%TO.C,J5*%
X45249997Y-9250001D03*
D12*
X42709997Y-9250001D03*
X40169997Y-9250001D03*
%TD*%
D11*
%TO.C,J7*%
X62919996Y-51500001D03*
D12*
X65459996Y-51500001D03*
%TD*%
D11*
%TO.C,J7*%
X62919996Y-27250001D03*
D12*
X65459996Y-27250001D03*
%TD*%
D11*
%TO.C,J5*%
X90749995Y-9250001D03*
D12*
X88209995Y-9250001D03*
X85669995Y-9250001D03*
%TD*%
D11*
%TO.C,J7*%
X85669995Y-51500001D03*
D12*
X88209995Y-51500001D03*
%TD*%
D11*
%TO.C,J7*%
X17419998Y-27250001D03*
D12*
X19959998Y-27250001D03*
%TD*%
M02*
