%TF.GenerationSoftware,KiCad,Pcbnew,9.0.6*%
%TF.CreationDate,2025-12-16T17:11:06+07:00*%
%TF.ProjectId,PICO_ADC_Test,5049434f-5f41-4444-935f-546573742e6b,R0.1*%
%TF.SameCoordinates,PX72ade90PY75c75e0*%
%TF.FileFunction,Copper,L2,Inr*%
%TF.FilePolarity,Positive*%
%FSLAX46Y46*%
G04 Gerber Fmt 4.6, Leading zero omitted, Abs format (unit mm)*
G04 Created by KiCad (PCBNEW 9.0.6) date 2025-12-16 17:11:06*
%MOMM*%
%LPD*%
G01*
G04 APERTURE LIST*
%TA.AperFunction,ComponentPad*%
%ADD10C,2.000000*%
%TD*%
%TA.AperFunction,ComponentPad*%
%ADD11R,1.700000X1.700000*%
%TD*%
%TA.AperFunction,ComponentPad*%
%ADD12O,1.700000X1.700000*%
%TD*%
%TA.AperFunction,ComponentPad*%
%ADD13C,0.800000*%
%TD*%
%TA.AperFunction,ComponentPad*%
%ADD14C,6.400000*%
%TD*%
%TA.AperFunction,ViaPad*%
%ADD15C,0.800000*%
%TD*%
G04 APERTURE END LIST*
D10*
%TO.N,Net-(U1-A)*%
%TO.C,REF\u002A\u002A*%
X71000000Y52000000D03*
%TD*%
D11*
%TO.N,+5V*%
%TO.C,J4*%
X46700000Y51500000D03*
D12*
%TO.N,SWCLK*%
X49240000Y51500000D03*
%TO.N,SWDIO*%
X51780000Y51500000D03*
%TO.N,GND*%
X54320000Y51500000D03*
%TD*%
D11*
%TO.N,GND*%
%TO.C,J2*%
X10210000Y27250000D03*
D12*
%TO.N,+5V*%
X12750000Y27250000D03*
%TD*%
D13*
%TO.N,N/C*%
%TO.C,REF\u002A\u002A*%
X79100000Y3500000D03*
X79802944Y5197056D03*
X79802944Y1802944D03*
X81500000Y5900000D03*
D14*
X81500000Y3500000D03*
D13*
X81500000Y1100000D03*
X83197056Y5197056D03*
X83197056Y1802944D03*
X83900000Y3500000D03*
%TD*%
D11*
%TO.N,+3.3V*%
%TO.C,J3*%
X10210000Y45030000D03*
D12*
%TO.N,GND*%
X10210000Y42490000D03*
%TO.N,GPIO17*%
X10210000Y39950000D03*
%TO.N,GPIO16*%
X10210000Y37410000D03*
%TO.N,GPIO12*%
X10210000Y34870000D03*
%TO.N,GPIO11*%
X10210000Y32330000D03*
%TD*%
D13*
%TO.N,N/C*%
%TO.C,REF\u002A\u002A*%
X1100000Y3500000D03*
X1802944Y5197056D03*
X1802944Y1802944D03*
X3500000Y5900000D03*
D14*
X3500000Y3500000D03*
D13*
X3500000Y1100000D03*
X5197056Y5197056D03*
X5197056Y1802944D03*
X5900000Y3500000D03*
%TD*%
%TO.N,N/C*%
%TO.C,REF\u002A\u002A*%
X1100000Y50500000D03*
X1802944Y52197056D03*
X1802944Y48802944D03*
X3500000Y52900000D03*
D14*
X3500000Y50500000D03*
D13*
X3500000Y48100000D03*
X5197056Y52197056D03*
X5197056Y48802944D03*
X5900000Y50500000D03*
%TD*%
D11*
%TO.N,GND*%
%TO.C,J5*%
X10210000Y50120000D03*
D12*
%TO.N,+5V*%
X12750000Y50120000D03*
%TD*%
D11*
%TO.N,GND*%
%TO.C,J7*%
X10210000Y4390000D03*
D12*
%TO.N,+5V*%
X12750000Y4390000D03*
%TD*%
D13*
%TO.N,N/C*%
%TO.C,REF\u002A\u002A*%
X79100000Y50500000D03*
X79802944Y52197056D03*
X79802944Y48802944D03*
X81500000Y52900000D03*
D14*
X81500000Y50500000D03*
D13*
X81500000Y48100000D03*
X83197056Y52197056D03*
X83197056Y48802944D03*
X83900000Y50500000D03*
%TD*%
D11*
%TO.N,+3.3V*%
%TO.C,J6*%
X12750000Y22170000D03*
D12*
X10210000Y22170000D03*
%TO.N,GND*%
X12750000Y19630000D03*
X10210000Y19630000D03*
%TO.N,GPIO21*%
X12750000Y17090000D03*
%TO.N,GPIO28*%
X10210000Y17090000D03*
%TO.N,GPIO20*%
X12750000Y14550000D03*
%TO.N,GPIO27*%
X10210000Y14550000D03*
%TO.N,GPIO19*%
X12750000Y12010000D03*
%TO.N,GPIO26*%
X10210000Y12010000D03*
%TO.N,GPIO18*%
X12750000Y9470000D03*
%TO.N,GPIO22*%
X10210000Y9470000D03*
%TD*%
D15*
%TO.N,GND*%
X59500000Y13000000D03*
X3000000Y10690000D03*
X83500000Y38630000D03*
X63500000Y42250000D03*
X56500000Y32500000D03*
X73200000Y44650000D03*
X57250000Y16000000D03*
X83500000Y28470000D03*
X83500000Y41170000D03*
X21750000Y50000000D03*
X74500000Y26750000D03*
X52750000Y27500000D03*
X70040000Y1500000D03*
X59250000Y16000000D03*
X26000000Y28500000D03*
X3000000Y38630000D03*
X66000000Y7000000D03*
X30750000Y10500000D03*
X60250000Y52500000D03*
X78250000Y47950000D03*
X49500000Y17250000D03*
X73750000Y39750000D03*
X72580000Y1500000D03*
X30750000Y33500000D03*
X61250000Y17750000D03*
X45250000Y32250000D03*
X42750000Y34750000D03*
X63400000Y52500000D03*
X55750000Y3000000D03*
X66750000Y29750000D03*
X83500000Y31010000D03*
X3000000Y33550000D03*
X3000000Y23390000D03*
X63400000Y50750000D03*
X83500000Y43710000D03*
X21750000Y1500000D03*
X51250000Y9500000D03*
X76250000Y40250000D03*
X35250000Y46250000D03*
X83500000Y17500000D03*
X49500000Y1500000D03*
X73000000Y16750000D03*
X26250000Y20750000D03*
X52750000Y5750000D03*
X58150000Y6000000D03*
X69500000Y11750000D03*
X76500000Y46250000D03*
X21750000Y20750000D03*
X35000000Y1500000D03*
X43000000Y37250000D03*
X66000000Y9250000D03*
X3000000Y46250000D03*
X83500000Y33550000D03*
X30750000Y46250000D03*
X51250000Y15512500D03*
X78250000Y18750000D03*
X77250000Y1500000D03*
X67700000Y43700000D03*
X78000000Y7750000D03*
X56750000Y52500000D03*
X72250000Y45000000D03*
X30750000Y37500000D03*
X3000000Y31010000D03*
X63750000Y29750000D03*
X57250000Y7912500D03*
X54500000Y48500000D03*
X3000000Y13230000D03*
X58150000Y3750000D03*
X61500000Y11250000D03*
X81000000Y25250000D03*
X51000000Y3000000D03*
X3000000Y25930000D03*
X26000000Y23750000D03*
X50500000Y45250000D03*
X21750000Y38670000D03*
X3000000Y8150000D03*
X50250000Y5750000D03*
X71250000Y29750000D03*
X3000000Y20850000D03*
X75750000Y18750000D03*
X69400000Y44700000D03*
X75250000Y47150000D03*
X21750000Y47000000D03*
X68250000Y29750000D03*
X78400000Y46250000D03*
X75120000Y1500000D03*
X56500000Y34000000D03*
X21750000Y33590000D03*
X66000000Y2500000D03*
X55300000Y17700000D03*
X21750000Y23750000D03*
X83500000Y36090000D03*
X61500000Y13000000D03*
X57250000Y13000000D03*
X66250000Y42250000D03*
X77000000Y33500000D03*
X26250000Y10500000D03*
X48750000Y25250000D03*
X52750000Y30000000D03*
X30750000Y40750000D03*
X55500000Y5750000D03*
X69950000Y48100000D03*
X83500000Y46250000D03*
X30750000Y28500000D03*
X79700000Y42850000D03*
X35000000Y5510000D03*
X26000000Y40500000D03*
X76500000Y25000000D03*
X44950000Y37250000D03*
X51250000Y12512500D03*
X83500000Y14960000D03*
X3000000Y15770000D03*
X52750000Y1500000D03*
X63400000Y48750000D03*
X73500000Y47000000D03*
X3000000Y36090000D03*
X50500000Y25250000D03*
X79500000Y27250000D03*
X65500000Y11750000D03*
X35000000Y15670000D03*
X73000000Y18750000D03*
X21750000Y5510000D03*
X69750000Y29750000D03*
X60250000Y43250000D03*
X79700000Y44900000D03*
X47000000Y29850000D03*
X47000000Y18250000D03*
X35000000Y10590000D03*
X21750000Y10590000D03*
X54750000Y45250000D03*
X83500000Y7750000D03*
X83500000Y12420000D03*
X52750000Y8250000D03*
X80250000Y46500000D03*
X56500000Y42500000D03*
X30750000Y15750000D03*
X21750000Y43750000D03*
X83500000Y9880000D03*
X21750000Y15670000D03*
X59750000Y1500000D03*
X55750000Y1500000D03*
X80750000Y7750000D03*
X76250000Y41500000D03*
X35000000Y20750000D03*
X30750000Y20750000D03*
X71750000Y26750000D03*
X70500000Y46750000D03*
X47000000Y25250000D03*
X77750000Y42300000D03*
X56500000Y38500000D03*
X3000000Y28470000D03*
X72000000Y13750000D03*
X66000000Y4750000D03*
X63000000Y17750000D03*
X3000000Y18310000D03*
X52750000Y9500000D03*
X57250000Y17750000D03*
X77000000Y35500000D03*
X21750000Y28510000D03*
X3000000Y41170000D03*
X61250000Y16000000D03*
X67500000Y1500000D03*
X59250000Y17750000D03*
X72200000Y48100000D03*
X3000000Y43710000D03*
X26250000Y15750000D03*
X51250000Y8250000D03*
X65250000Y29750000D03*
X61500000Y28500000D03*
X28500000Y48550000D03*
X56500000Y35500000D03*
X35000000Y23750000D03*
X71250000Y45750000D03*
X26000000Y33500000D03*
X43750000Y39400000D03*
%TO.N,+3.3V*%
X54112500Y41937500D03*
X52250000Y25500000D03*
%TO.N,DAC_G*%
X63050000Y33225000D03*
%TO.N,5VVGA*%
X59000000Y19250000D03*
X61250000Y19250000D03*
X80500000Y19050000D03*
%TO.N,+5V*%
X83000000Y25250000D03*
X80500000Y29500000D03*
%TO.N,GPIO21*%
X16250000Y34500000D03*
%TO.N,GPIO18*%
X16250000Y42250000D03*
%TO.N,GPIO19*%
X16250000Y39750000D03*
%TO.N,GPIO11*%
X41000000Y38750000D03*
%TO.N,GPIO12*%
X41000000Y41000000D03*
%TO.N,GPIO20*%
X16250000Y37250000D03*
%TO.N,CS*%
X41050000Y43800000D03*
X51750000Y34700000D03*
%TO.N,SCLK*%
X52550000Y33800000D03*
X41000000Y46500000D03*
%TO.N,MOSI*%
X51750000Y32900000D03*
X40995000Y49000000D03*
%TD*%
%TA.AperFunction,Conductor*%
%TO.N,GND*%
G36*
X12284075Y19822993D02*
G01*
X12250000Y19695826D01*
X12250000Y19564174D01*
X12284075Y19437007D01*
X12316988Y19380000D01*
X10643012Y19380000D01*
X10675925Y19437007D01*
X10710000Y19564174D01*
X10710000Y19695826D01*
X10675925Y19822993D01*
X10643012Y19880000D01*
X12316988Y19880000D01*
X12284075Y19822993D01*
G37*
%TD.AperFunction*%
%TA.AperFunction,Conductor*%
G36*
X45196288Y52981046D02*
G01*
X45277070Y52927070D01*
X45331046Y52846288D01*
X45350000Y52751000D01*
X45350000Y52413867D01*
X45349643Y52400536D01*
X45349500Y52397869D01*
X45349500Y50602135D01*
X45349501Y50602131D01*
X45355908Y50542520D01*
X45355909Y50542516D01*
X45395547Y50436241D01*
X45406204Y50407669D01*
X45492454Y50292454D01*
X45607669Y50206204D01*
X45742517Y50155909D01*
X45802127Y50149500D01*
X47597872Y50149501D01*
X47597879Y50149502D01*
X47600513Y50149643D01*
X47613846Y50150000D01*
X49110969Y50150000D01*
X49149914Y50146936D01*
X49187532Y50140979D01*
X49219055Y50129351D01*
X49330083Y50146935D01*
X49369034Y50150000D01*
X51670556Y50150000D01*
X51673713Y50149500D01*
X51886287Y50149500D01*
X51889444Y50150000D01*
X54051901Y50150000D01*
X54070000Y50169656D01*
X54070000Y51066988D01*
X54127007Y51034075D01*
X54254174Y51000000D01*
X54385826Y51000000D01*
X54512993Y51034075D01*
X54570000Y51066988D01*
X54570000Y50172771D01*
X54636129Y50183244D01*
X54838212Y50248903D01*
X54838225Y50248909D01*
X55027553Y50345377D01*
X55199462Y50470276D01*
X55349724Y50620538D01*
X55474623Y50792447D01*
X55571091Y50981775D01*
X55571097Y50981788D01*
X55636756Y51183871D01*
X55647230Y51250000D01*
X55620779Y51250000D01*
X55579760Y51258160D01*
X55538358Y51264037D01*
X55532343Y51267591D01*
X55525491Y51268954D01*
X55520455Y51272319D01*
X55454827Y51251520D01*
X55427357Y51250000D01*
X54753012Y51250000D01*
X54785925Y51307007D01*
X54820000Y51434174D01*
X54820000Y51565826D01*
X54785925Y51692993D01*
X54753012Y51750000D01*
X55427135Y51750000D01*
X55522423Y51731046D01*
X55525453Y51729022D01*
X55525491Y51729046D01*
X55607010Y51747619D01*
X55643122Y51749619D01*
X55650000Y51749810D01*
X55650000Y52751000D01*
X55668954Y52846288D01*
X55722930Y52927070D01*
X55803712Y52981046D01*
X55899000Y53000000D01*
X69419144Y53000000D01*
X69514432Y52981046D01*
X69595214Y52927070D01*
X69649190Y52846288D01*
X69668144Y52751000D01*
X69649190Y52655712D01*
X69641004Y52637956D01*
X69609434Y52575997D01*
X69609430Y52575988D01*
X69536446Y52351365D01*
X69499501Y52118104D01*
X69499500Y52118088D01*
X69499500Y51881913D01*
X69499501Y51881897D01*
X69536446Y51648636D01*
X69605130Y51437246D01*
X69609432Y51424008D01*
X69709683Y51227253D01*
X69716659Y51213563D01*
X69855478Y51022496D01*
X69855480Y51022494D01*
X69855483Y51022490D01*
X70022490Y50855483D01*
X70022493Y50855481D01*
X70022495Y50855479D01*
X70213562Y50716660D01*
X70213564Y50716659D01*
X70213567Y50716657D01*
X70424008Y50609432D01*
X70648632Y50536447D01*
X70881908Y50499500D01*
X70881912Y50499500D01*
X71118088Y50499500D01*
X71118092Y50499500D01*
X71351368Y50536447D01*
X71575992Y50609432D01*
X71786433Y50716657D01*
X71977510Y50855483D01*
X72144517Y51022490D01*
X72283343Y51213567D01*
X72390568Y51424008D01*
X72463553Y51648632D01*
X72500500Y51881908D01*
X72500500Y52118092D01*
X72463553Y52351368D01*
X72390568Y52575992D01*
X72358996Y52637956D01*
X72332624Y52731463D01*
X72344043Y52827945D01*
X72391514Y52912712D01*
X72467812Y52972860D01*
X72561319Y52999232D01*
X72580856Y53000000D01*
X77551000Y53000000D01*
X77646288Y52981046D01*
X77727070Y52927070D01*
X77781046Y52846288D01*
X77800000Y52751000D01*
X77800000Y50698081D01*
X77799700Y50685860D01*
X77799500Y50681790D01*
X77799500Y50318206D01*
X77835137Y49956375D01*
X77835137Y49956371D01*
X77835138Y49956369D01*
X77863657Y49812993D01*
X77906071Y49599762D01*
X77906074Y49599749D01*
X78011609Y49251850D01*
X78011612Y49251841D01*
X78011614Y49251836D01*
X78023903Y49222168D01*
X78150751Y48915927D01*
X78150757Y48915916D01*
X78322142Y48595275D01*
X78322148Y48595265D01*
X78524137Y48292969D01*
X78524146Y48292956D01*
X78754803Y48011899D01*
X79011899Y47754803D01*
X79292956Y47524146D01*
X79292968Y47524138D01*
X79595264Y47322149D01*
X79595274Y47322143D01*
X79824786Y47199467D01*
X79915924Y47150753D01*
X80251836Y47011614D01*
X80251848Y47011611D01*
X80251849Y47011610D01*
X80599748Y46906075D01*
X80599758Y46906073D01*
X80599767Y46906070D01*
X80956369Y46835138D01*
X81318206Y46799500D01*
X81318209Y46799500D01*
X81681790Y46799500D01*
X81681794Y46799500D01*
X81681797Y46799501D01*
X81685860Y46799700D01*
X81698081Y46800000D01*
X83751000Y46800000D01*
X83846288Y46781046D01*
X83927070Y46727070D01*
X83981046Y46646288D01*
X84000000Y46551000D01*
X84000000Y26399000D01*
X83981046Y26303712D01*
X83927070Y26222930D01*
X83846288Y26168954D01*
X83751000Y26150000D01*
X83106000Y26150000D01*
X83095816Y26150500D01*
X83088691Y26150500D01*
X82911309Y26150500D01*
X82911304Y26150500D01*
X82737340Y26115896D01*
X82737336Y26115895D01*
X82737334Y26115894D01*
X82686773Y26094951D01*
X82573450Y26048012D01*
X82425968Y25949467D01*
X82300533Y25824032D01*
X82201988Y25676550D01*
X82134104Y25512660D01*
X82099500Y25338696D01*
X82099500Y25161305D01*
X82134104Y24987341D01*
X82134105Y24987339D01*
X82134106Y24987334D01*
X82159526Y24925965D01*
X82201988Y24823451D01*
X82300533Y24675969D01*
X82300536Y24675965D01*
X82425965Y24550536D01*
X82573453Y24451987D01*
X82737334Y24384106D01*
X82911309Y24349500D01*
X83095816Y24349500D01*
X83106000Y24350000D01*
X83751000Y24350000D01*
X83846288Y24331046D01*
X83927070Y24277070D01*
X83981046Y24196288D01*
X84000000Y24101000D01*
X84000000Y7449000D01*
X83981046Y7353712D01*
X83927070Y7272930D01*
X83846288Y7218954D01*
X83751000Y7200000D01*
X81698081Y7200000D01*
X81685860Y7200300D01*
X81681797Y7200500D01*
X81681794Y7200500D01*
X81318206Y7200500D01*
X81318205Y7200500D01*
X80956374Y7164863D01*
X80599761Y7093929D01*
X80599748Y7093926D01*
X80251849Y6988391D01*
X80251828Y6988383D01*
X79915926Y6849249D01*
X79915915Y6849243D01*
X79595274Y6677858D01*
X79595264Y6677852D01*
X79292968Y6475863D01*
X79292957Y6475855D01*
X79011902Y6245200D01*
X78754800Y5988098D01*
X78524145Y5707043D01*
X78524137Y5707032D01*
X78322148Y5404736D01*
X78322142Y5404726D01*
X78150757Y5084085D01*
X78150751Y5084074D01*
X78011617Y4748172D01*
X78011609Y4748151D01*
X77906074Y4400252D01*
X77906071Y4400239D01*
X77835137Y4043626D01*
X77799500Y3681795D01*
X77799500Y3318208D01*
X77799700Y3314137D01*
X77800000Y3301917D01*
X77800000Y1249000D01*
X77781046Y1153712D01*
X77727070Y1072930D01*
X77646288Y1018954D01*
X77551000Y1000000D01*
X32849000Y1000000D01*
X32753712Y1018954D01*
X32672930Y1072930D01*
X32618954Y1153712D01*
X32600000Y1249000D01*
X32600000Y2209184D01*
X32603066Y2248137D01*
X32625499Y2389770D01*
X32625500Y2389781D01*
X32625500Y2610218D01*
X32625500Y2610222D01*
X32591015Y2827951D01*
X32522895Y3037606D01*
X32522891Y3037614D01*
X32522890Y3037617D01*
X32422820Y3234014D01*
X32422816Y3234019D01*
X32422815Y3234022D01*
X32293242Y3412365D01*
X32222930Y3482677D01*
X32168954Y3563459D01*
X32150000Y3658747D01*
X32150000Y5250987D01*
X32153066Y5289940D01*
X32162162Y5347372D01*
X32175500Y5431583D01*
X32175500Y5628417D01*
X32144709Y5822826D01*
X32083884Y6010025D01*
X31994524Y6185405D01*
X31980133Y6205212D01*
X31916030Y6293442D01*
X31878828Y6344646D01*
X31739646Y6483828D01*
X31731333Y6489868D01*
X31580410Y6599521D01*
X31580407Y6599523D01*
X31580405Y6599524D01*
X31405025Y6688884D01*
X31405024Y6688885D01*
X31405023Y6688885D01*
X31405017Y6688887D01*
X31297928Y6723682D01*
X31217826Y6749709D01*
X31217824Y6749710D01*
X31217822Y6749710D01*
X31023428Y6780499D01*
X31023419Y6780500D01*
X31023417Y6780500D01*
X30826583Y6780500D01*
X30826580Y6780500D01*
X30826572Y6780499D01*
X30653369Y6753066D01*
X30614417Y6750000D01*
X26385583Y6750000D01*
X26346631Y6753066D01*
X26173427Y6780499D01*
X26173420Y6780500D01*
X26173417Y6780500D01*
X25976583Y6780500D01*
X25976580Y6780500D01*
X25976571Y6780499D01*
X25782177Y6749710D01*
X25594982Y6688887D01*
X25594976Y6688885D01*
X25523294Y6652361D01*
X25419595Y6599524D01*
X25419592Y6599523D01*
X25419590Y6599521D01*
X25419589Y6599521D01*
X25260357Y6483831D01*
X25121169Y6344643D01*
X25005479Y6185411D01*
X25005479Y6185410D01*
X25005477Y6185408D01*
X25005476Y6185405D01*
X24962602Y6101260D01*
X24916115Y6010024D01*
X24916113Y6010018D01*
X24855290Y5822823D01*
X24824501Y5628429D01*
X24824500Y5628413D01*
X24824500Y5431588D01*
X24824501Y5431575D01*
X24846934Y5289940D01*
X24850000Y5250987D01*
X24850000Y3658747D01*
X24831046Y3563459D01*
X24777070Y3482677D01*
X24706759Y3412367D01*
X24577184Y3234021D01*
X24577179Y3234014D01*
X24477109Y3037617D01*
X24477105Y3037608D01*
X24477105Y3037606D01*
X24408985Y2827951D01*
X24408984Y2827948D01*
X24408984Y2827946D01*
X24408982Y2827939D01*
X24374501Y2610233D01*
X24374500Y2610218D01*
X24374500Y2389770D01*
X24396934Y2248137D01*
X24400000Y2209184D01*
X24400000Y1249000D01*
X24381046Y1153712D01*
X24327070Y1072930D01*
X24246288Y1018954D01*
X24151000Y1000000D01*
X7449000Y1000000D01*
X7353712Y1018954D01*
X7272930Y1072930D01*
X7218954Y1153712D01*
X7200000Y1249000D01*
X7200000Y3301917D01*
X7200300Y3314137D01*
X7200500Y3318208D01*
X7200500Y3681791D01*
X7200500Y3681794D01*
X7164862Y4043631D01*
X7093930Y4400233D01*
X7093927Y4400243D01*
X7093925Y4400252D01*
X6988390Y4748151D01*
X6988389Y4748152D01*
X6988386Y4748164D01*
X6849247Y5084076D01*
X6799515Y5177119D01*
X6799514Y5177122D01*
X6740337Y5287833D01*
X8860000Y5287833D01*
X8860000Y4640001D01*
X8860001Y4640000D01*
X9776988Y4640000D01*
X9744075Y4582993D01*
X9710000Y4455826D01*
X9710000Y4324174D01*
X9744075Y4197007D01*
X9776988Y4140000D01*
X8860001Y4140000D01*
X8860000Y4139999D01*
X8860000Y3492168D01*
X8866401Y3432629D01*
X8866403Y3432622D01*
X8916646Y3297913D01*
X9002810Y3182813D01*
X9002812Y3182811D01*
X9117912Y3096647D01*
X9252621Y3046404D01*
X9252628Y3046402D01*
X9312167Y3040001D01*
X9312175Y3040000D01*
X9959999Y3040000D01*
X9960000Y3040001D01*
X9960000Y3956988D01*
X10017007Y3924075D01*
X10144174Y3890000D01*
X10275826Y3890000D01*
X10402993Y3924075D01*
X10460000Y3956988D01*
X10460000Y3040001D01*
X10460001Y3040000D01*
X11107825Y3040000D01*
X11107832Y3040001D01*
X11182862Y3048067D01*
X11183012Y3046667D01*
X11211621Y3050000D01*
X12557824Y3050000D01*
X12596774Y3046935D01*
X12643713Y3039500D01*
X12643716Y3039500D01*
X12856284Y3039500D01*
X12856287Y3039500D01*
X12856290Y3039501D01*
X12856296Y3039501D01*
X12955476Y3055211D01*
X13066243Y3072754D01*
X13268412Y3138443D01*
X13457816Y3234949D01*
X13629792Y3359896D01*
X13780104Y3510208D01*
X13905051Y3682184D01*
X14001557Y3871588D01*
X14067246Y4073757D01*
X14100500Y4283713D01*
X14100500Y4496287D01*
X14100499Y4496290D01*
X14100499Y4496297D01*
X14067246Y4706241D01*
X14067246Y4706243D01*
X14001557Y4908412D01*
X13905051Y5097816D01*
X13780104Y5269792D01*
X13629792Y5420104D01*
X13457816Y5545051D01*
X13268412Y5641557D01*
X13268409Y5641558D01*
X13268407Y5641559D01*
X13066240Y5707247D01*
X12950534Y5725573D01*
X12884322Y5750000D01*
X12750000Y5750000D01*
X11100000Y5750000D01*
X11070265Y5750000D01*
X11062952Y5746662D01*
X11005741Y5740000D01*
X10460001Y5740000D01*
X10460000Y5739999D01*
X10460000Y4823012D01*
X10402993Y4855925D01*
X10275826Y4890000D01*
X10144174Y4890000D01*
X10017007Y4855925D01*
X9960000Y4823012D01*
X9960000Y5739999D01*
X9959999Y5740000D01*
X9312167Y5740000D01*
X9252628Y5733599D01*
X9252621Y5733597D01*
X9117912Y5683354D01*
X9002812Y5597190D01*
X9002810Y5597188D01*
X8916646Y5482088D01*
X8866403Y5347379D01*
X8866401Y5347372D01*
X8860000Y5287833D01*
X6740337Y5287833D01*
X6677857Y5404725D01*
X6677851Y5404736D01*
X6475862Y5707032D01*
X6475854Y5707044D01*
X6245197Y5988101D01*
X5988101Y6245197D01*
X5707044Y6475854D01*
X5707031Y6475863D01*
X5404735Y6677852D01*
X5404725Y6677858D01*
X5084084Y6849243D01*
X5084073Y6849249D01*
X4748171Y6988383D01*
X4748164Y6988386D01*
X4748159Y6988388D01*
X4748150Y6988391D01*
X4400251Y7093926D01*
X4400238Y7093929D01*
X4400233Y7093930D01*
X4043631Y7164862D01*
X4043629Y7164863D01*
X4043625Y7164863D01*
X3681794Y7200500D01*
X3318206Y7200500D01*
X3318202Y7200500D01*
X3314140Y7200300D01*
X3301919Y7200000D01*
X2624679Y7200000D01*
X2529391Y7218954D01*
X2448609Y7272930D01*
X2394633Y7353712D01*
X2375679Y7449000D01*
X2392835Y7539825D01*
X2399671Y7557276D01*
X2410225Y7575555D01*
X2454682Y7697700D01*
X2455775Y7700489D01*
X2455934Y7700738D01*
X2457564Y7704929D01*
X2459256Y7709013D01*
X2459258Y7709027D01*
X2459557Y7710009D01*
X2463848Y7722884D01*
X2470101Y7740062D01*
X2500500Y7912468D01*
X2500500Y8000000D01*
X2500500Y8000500D01*
X2500500Y11969586D01*
X8836262Y11969586D01*
X8838804Y11964904D01*
X8850000Y11891077D01*
X8850000Y9397757D01*
X8855932Y9373054D01*
X8857969Y9373376D01*
X8892753Y9153760D01*
X8892754Y9153757D01*
X8958443Y8951588D01*
X9054949Y8762184D01*
X9179896Y8590208D01*
X9330208Y8439896D01*
X9502184Y8314949D01*
X9691588Y8218443D01*
X9893757Y8152754D01*
X9967601Y8141059D01*
X10103703Y8119501D01*
X10103710Y8119501D01*
X10103713Y8119500D01*
X10103716Y8119500D01*
X10316284Y8119500D01*
X10316287Y8119500D01*
X10316291Y8119501D01*
X10316295Y8119501D01*
X10489497Y8146934D01*
X10528450Y8150000D01*
X12431550Y8150000D01*
X12470503Y8146934D01*
X12643704Y8119501D01*
X12643709Y8119501D01*
X12643713Y8119500D01*
X12643716Y8119500D01*
X12856284Y8119500D01*
X12856287Y8119500D01*
X12856290Y8119501D01*
X12856296Y8119501D01*
X12955476Y8135211D01*
X13066243Y8152754D01*
X13268412Y8218443D01*
X13457816Y8314949D01*
X13629792Y8439896D01*
X13780104Y8590208D01*
X13905051Y8762184D01*
X14001557Y8951588D01*
X14067246Y9153757D01*
X14100500Y9363713D01*
X14100500Y9576287D01*
X14100500Y9579690D01*
X14100000Y9592424D01*
X14100000Y11900557D01*
X14100500Y11903713D01*
X14100500Y12116287D01*
X14100000Y12119444D01*
X14100000Y14427576D01*
X14100500Y14440300D01*
X14100500Y14659690D01*
X14100000Y14672424D01*
X14100000Y16980557D01*
X14100500Y16983713D01*
X14100500Y17196287D01*
X14100000Y17199444D01*
X14100000Y19312928D01*
X14100000Y19338696D01*
X58099500Y19338696D01*
X58099500Y19161305D01*
X58134104Y18987341D01*
X58134105Y18987339D01*
X58134106Y18987334D01*
X58201987Y18823453D01*
X58300536Y18675965D01*
X58425965Y18550536D01*
X58573453Y18451987D01*
X58737334Y18384106D01*
X58911309Y18349500D01*
X59088691Y18349500D01*
X59262666Y18384106D01*
X59426547Y18451987D01*
X59574035Y18550536D01*
X59699464Y18675965D01*
X59798013Y18823453D01*
X59865894Y18987334D01*
X59900500Y19161309D01*
X59900500Y19338691D01*
X60349500Y19338691D01*
X60349500Y19161309D01*
X60374000Y19038140D01*
X60374000Y19038139D01*
X60384104Y18987341D01*
X60384105Y18987339D01*
X60384106Y18987334D01*
X60451987Y18823453D01*
X60550536Y18675965D01*
X60675965Y18550536D01*
X60823453Y18451987D01*
X60987334Y18384106D01*
X61161309Y18349500D01*
X61338691Y18349500D01*
X61512666Y18384106D01*
X61676547Y18451987D01*
X61824035Y18550536D01*
X61949464Y18675965D01*
X62048013Y18823453D01*
X62115894Y18987334D01*
X62146002Y19138696D01*
X79599500Y19138696D01*
X79599500Y18961305D01*
X79634104Y18787341D01*
X79634105Y18787339D01*
X79634106Y18787334D01*
X79701987Y18623453D01*
X79800536Y18475965D01*
X79925965Y18350536D01*
X80073453Y18251987D01*
X80237334Y18184106D01*
X80411309Y18149500D01*
X80588691Y18149500D01*
X80762666Y18184106D01*
X80926547Y18251987D01*
X81074035Y18350536D01*
X81199464Y18475965D01*
X81298013Y18623453D01*
X81365894Y18787334D01*
X81400500Y18961309D01*
X81400500Y19138691D01*
X81365894Y19312666D01*
X81298013Y19476547D01*
X81199464Y19624035D01*
X81074035Y19749464D01*
X80962437Y19824032D01*
X80926549Y19848012D01*
X80926547Y19848013D01*
X80762666Y19915894D01*
X80762661Y19915895D01*
X80762659Y19915896D01*
X80588695Y19950500D01*
X80588691Y19950500D01*
X80411309Y19950500D01*
X80411304Y19950500D01*
X80237340Y19915896D01*
X80237336Y19915895D01*
X80237334Y19915894D01*
X80128080Y19870640D01*
X80073450Y19848012D01*
X79925968Y19749467D01*
X79800533Y19624032D01*
X79701988Y19476550D01*
X79701987Y19476547D01*
X79649571Y19350001D01*
X79634104Y19312660D01*
X79599500Y19138696D01*
X62146002Y19138696D01*
X62150500Y19161309D01*
X62150500Y19338691D01*
X62115894Y19512666D01*
X62048013Y19676547D01*
X61949464Y19824035D01*
X61824035Y19949464D01*
X61822485Y19950500D01*
X61676549Y20048012D01*
X61676547Y20048013D01*
X61512666Y20115894D01*
X61512661Y20115895D01*
X61512659Y20115896D01*
X61338695Y20150500D01*
X61338691Y20150500D01*
X61161309Y20150500D01*
X61161304Y20150500D01*
X60987340Y20115896D01*
X60987336Y20115895D01*
X60987334Y20115894D01*
X60878080Y20070640D01*
X60823450Y20048012D01*
X60675968Y19949467D01*
X60550533Y19824032D01*
X60451988Y19676550D01*
X60384104Y19512660D01*
X60374000Y19461863D01*
X60374000Y19461861D01*
X60349500Y19338691D01*
X59900500Y19338691D01*
X59876000Y19461861D01*
X59876000Y19461863D01*
X59865895Y19512660D01*
X59865894Y19512666D01*
X59798013Y19676547D01*
X59699464Y19824035D01*
X59574035Y19949464D01*
X59572485Y19950500D01*
X59426549Y20048012D01*
X59426547Y20048013D01*
X59262666Y20115894D01*
X59262661Y20115895D01*
X59262659Y20115896D01*
X59088695Y20150500D01*
X59088691Y20150500D01*
X58911309Y20150500D01*
X58911304Y20150500D01*
X58737340Y20115896D01*
X58737336Y20115895D01*
X58737334Y20115894D01*
X58628080Y20070640D01*
X58573450Y20048012D01*
X58425968Y19949467D01*
X58300533Y19824032D01*
X58201988Y19676550D01*
X58134104Y19512660D01*
X58099500Y19338696D01*
X14100000Y19338696D01*
X14100000Y19350000D01*
X14088416Y19350000D01*
X14080086Y19376657D01*
X14077231Y19380000D01*
X13183012Y19380000D01*
X13215925Y19437007D01*
X13250000Y19564174D01*
X13250000Y19695826D01*
X13215925Y19822993D01*
X13183012Y19880000D01*
X14080345Y19880000D01*
X14100000Y19898100D01*
X14100000Y21256131D01*
X14100357Y21269460D01*
X14100497Y21272108D01*
X14100500Y21272127D01*
X14100499Y23067872D01*
X14094091Y23127483D01*
X14043796Y23262331D01*
X13957546Y23377546D01*
X13842331Y23463796D01*
X13737043Y23503066D01*
X13707481Y23514092D01*
X13647873Y23520500D01*
X11852134Y23520500D01*
X11852130Y23520500D01*
X11852128Y23520499D01*
X11828283Y23517936D01*
X11792514Y23514091D01*
X11777363Y23510510D01*
X11776982Y23512119D01*
X11709815Y23500000D01*
X10465313Y23500000D01*
X10426361Y23503066D01*
X10408511Y23505894D01*
X10316293Y23520500D01*
X10316287Y23520500D01*
X10103713Y23520500D01*
X10103703Y23520500D01*
X9893759Y23487247D01*
X9691592Y23421559D01*
X9502182Y23325050D01*
X9330206Y23200103D01*
X9179897Y23049794D01*
X9054950Y22877818D01*
X8958441Y22688408D01*
X8892753Y22486241D01*
X8879951Y22405413D01*
X8850000Y22324228D01*
X8850000Y22200000D01*
X8850000Y19900000D01*
X8850001Y19900000D01*
X8870001Y19880000D01*
X9776988Y19880000D01*
X9744075Y19822993D01*
X9710000Y19695826D01*
X9710000Y19564174D01*
X9744075Y19437007D01*
X9776988Y19380000D01*
X8879999Y19380000D01*
X8850000Y19350001D01*
X8850000Y12075914D01*
X8846934Y12036961D01*
X8836262Y11969586D01*
X2500500Y11969586D01*
X2500500Y25588696D01*
X51349500Y25588696D01*
X51349500Y25411305D01*
X51384104Y25237341D01*
X51384105Y25237339D01*
X51384106Y25237334D01*
X51415598Y25161305D01*
X51451988Y25073451D01*
X51509530Y24987334D01*
X51550536Y24925965D01*
X51675965Y24800536D01*
X51823453Y24701987D01*
X51987334Y24634106D01*
X52161309Y24599500D01*
X52338691Y24599500D01*
X52512666Y24634106D01*
X52676547Y24701987D01*
X52824035Y24800536D01*
X52949464Y24925965D01*
X53048013Y25073453D01*
X53115894Y25237334D01*
X53150500Y25411309D01*
X53150500Y25588691D01*
X53115894Y25762666D01*
X53048013Y25926547D01*
X52949464Y26074035D01*
X52824035Y26199464D01*
X52788916Y26222930D01*
X52676549Y26298012D01*
X52662788Y26303712D01*
X52512666Y26365894D01*
X52512661Y26365895D01*
X52512659Y26365896D01*
X52338695Y26400500D01*
X52338691Y26400500D01*
X52161309Y26400500D01*
X52161304Y26400500D01*
X51987340Y26365896D01*
X51987336Y26365895D01*
X51987334Y26365894D01*
X51878080Y26320640D01*
X51823450Y26298012D01*
X51675968Y26199467D01*
X51550533Y26074032D01*
X51451988Y25926550D01*
X51443643Y25906402D01*
X51409525Y25824032D01*
X51384104Y25762660D01*
X51349500Y25588696D01*
X2500500Y25588696D01*
X2500500Y28147833D01*
X8860000Y28147833D01*
X8860000Y27500001D01*
X8860001Y27500000D01*
X9776988Y27500000D01*
X9744075Y27442993D01*
X9710000Y27315826D01*
X9710000Y27184174D01*
X9744075Y27057007D01*
X9776988Y27000000D01*
X8860001Y27000000D01*
X8860000Y26999999D01*
X8860000Y26352168D01*
X8866401Y26292629D01*
X8866403Y26292622D01*
X8916646Y26157913D01*
X9002810Y26042813D01*
X9002812Y26042811D01*
X9117912Y25956647D01*
X9252621Y25906404D01*
X9252628Y25906402D01*
X9312167Y25900001D01*
X9312175Y25900000D01*
X9959999Y25900000D01*
X9960000Y25900001D01*
X9960000Y26816988D01*
X10017007Y26784075D01*
X10144174Y26750000D01*
X10275826Y26750000D01*
X10402993Y26784075D01*
X10460000Y26816988D01*
X10460000Y25900001D01*
X10460001Y25900000D01*
X12627577Y25900000D01*
X12640296Y25899500D01*
X12643713Y25899500D01*
X12856284Y25899500D01*
X12856287Y25899500D01*
X12856290Y25899501D01*
X12856296Y25899501D01*
X12955476Y25915211D01*
X13066243Y25932754D01*
X13268412Y25998443D01*
X13457816Y26094949D01*
X13629792Y26219896D01*
X13780104Y26370208D01*
X13905051Y26542184D01*
X14001557Y26731588D01*
X14067246Y26933757D01*
X14100500Y27143713D01*
X14100500Y27356287D01*
X14100499Y27356290D01*
X14100499Y27356297D01*
X14067246Y27566241D01*
X14067246Y27566243D01*
X14001557Y27768412D01*
X13905051Y27957816D01*
X13780104Y28129792D01*
X13629792Y28280104D01*
X13457816Y28405051D01*
X13268412Y28501557D01*
X13268409Y28501558D01*
X13268407Y28501559D01*
X13066240Y28567247D01*
X12856296Y28600500D01*
X12856287Y28600500D01*
X12643713Y28600500D01*
X12640296Y28600500D01*
X12627577Y28600000D01*
X10460001Y28600000D01*
X10460000Y28599999D01*
X10460000Y27683012D01*
X10402993Y27715925D01*
X10275826Y27750000D01*
X10144174Y27750000D01*
X10017007Y27715925D01*
X9960000Y27683012D01*
X9960000Y28599999D01*
X9959999Y28600000D01*
X9312167Y28600000D01*
X9252628Y28593599D01*
X9252621Y28593597D01*
X9117912Y28543354D01*
X9002812Y28457190D01*
X9002810Y28457188D01*
X8916646Y28342088D01*
X8866403Y28207379D01*
X8866401Y28207372D01*
X8860000Y28147833D01*
X2500500Y28147833D01*
X2500500Y29588696D01*
X79599500Y29588696D01*
X79599500Y29411305D01*
X79634104Y29237341D01*
X79634105Y29237339D01*
X79634106Y29237334D01*
X79701987Y29073453D01*
X79800536Y28925965D01*
X79925965Y28800536D01*
X80073453Y28701987D01*
X80237334Y28634106D01*
X80411309Y28599500D01*
X80588691Y28599500D01*
X80762666Y28634106D01*
X80926547Y28701987D01*
X81074035Y28800536D01*
X81199464Y28925965D01*
X81298013Y29073453D01*
X81365894Y29237334D01*
X81400500Y29411309D01*
X81400500Y29588691D01*
X81365894Y29762666D01*
X81298013Y29926547D01*
X81199464Y30074035D01*
X81074035Y30199464D01*
X81074031Y30199467D01*
X80926549Y30298012D01*
X80926547Y30298013D01*
X80762666Y30365894D01*
X80762661Y30365895D01*
X80762659Y30365896D01*
X80588695Y30400500D01*
X80588691Y30400500D01*
X80411309Y30400500D01*
X80411304Y30400500D01*
X80237340Y30365896D01*
X80237336Y30365895D01*
X80237334Y30365894D01*
X80128080Y30320640D01*
X80073450Y30298012D01*
X79925968Y30199467D01*
X79800533Y30074032D01*
X79701988Y29926550D01*
X79634104Y29762660D01*
X79599500Y29588696D01*
X2500500Y29588696D01*
X2500500Y44543140D01*
X8850000Y44543140D01*
X8850000Y44350000D01*
X8850000Y42750000D01*
X8850001Y42750000D01*
X8860001Y42740000D01*
X9776988Y42740000D01*
X9744075Y42682993D01*
X9710000Y42555826D01*
X9710000Y42424174D01*
X9744075Y42297007D01*
X9776988Y42240000D01*
X8882768Y42240000D01*
X8850000Y42201635D01*
X8850000Y32243622D01*
X8864660Y32191130D01*
X8892753Y32013760D01*
X8892754Y32013757D01*
X8958443Y31811588D01*
X9054949Y31622184D01*
X9179896Y31450208D01*
X9330208Y31299896D01*
X9502184Y31174949D01*
X9691588Y31078443D01*
X9893757Y31012754D01*
X9967601Y31001059D01*
X10103703Y30979501D01*
X10103710Y30979501D01*
X10103713Y30979500D01*
X10103716Y30979500D01*
X10316284Y30979500D01*
X10316287Y30979500D01*
X10316290Y30979501D01*
X10316296Y30979501D01*
X10415476Y30995211D01*
X10526243Y31012754D01*
X10728412Y31078443D01*
X10917816Y31174949D01*
X11089792Y31299896D01*
X11240104Y31450208D01*
X11365051Y31622184D01*
X11461557Y31811588D01*
X11527246Y32013757D01*
X11544789Y32124524D01*
X11560499Y32223704D01*
X11560500Y32223716D01*
X11560500Y32436285D01*
X11560499Y32436294D01*
X11553066Y32483223D01*
X11550000Y32522177D01*
X11550000Y34588696D01*
X15349500Y34588696D01*
X15349500Y34411305D01*
X15384104Y34237341D01*
X15384105Y34237339D01*
X15384106Y34237334D01*
X15415234Y34162184D01*
X15451988Y34073451D01*
X15500709Y34000536D01*
X15550536Y33925965D01*
X15675965Y33800536D01*
X15823453Y33701987D01*
X15987334Y33634106D01*
X16161309Y33599500D01*
X16338691Y33599500D01*
X16512666Y33634106D01*
X16676547Y33701987D01*
X16824035Y33800536D01*
X16949464Y33925965D01*
X17048013Y34073453D01*
X17115894Y34237334D01*
X17150500Y34411309D01*
X17150500Y34588691D01*
X17115894Y34762666D01*
X17105114Y34788691D01*
X50849500Y34788691D01*
X50849500Y34611309D01*
X50849964Y34608976D01*
X50849999Y34594600D01*
X50849976Y34594484D01*
X50850000Y34593998D01*
X50850000Y33006001D01*
X50849500Y32995820D01*
X50849500Y32811305D01*
X50884104Y32637341D01*
X50884105Y32637339D01*
X50884106Y32637334D01*
X50930414Y32525536D01*
X50951988Y32473451D01*
X51028392Y32359105D01*
X51050536Y32325965D01*
X51175965Y32200536D01*
X51323453Y32101987D01*
X51487334Y32034106D01*
X51661309Y31999500D01*
X51838691Y31999500D01*
X52012666Y32034106D01*
X52176547Y32101987D01*
X52324035Y32200536D01*
X52449464Y32325965D01*
X52548013Y32473453D01*
X52615894Y32637334D01*
X52636965Y32743267D01*
X52674144Y32833023D01*
X52742843Y32901722D01*
X52801373Y32929405D01*
X52801365Y32929426D01*
X52801801Y32929607D01*
X52808904Y32932966D01*
X52812649Y32934103D01*
X52812666Y32934106D01*
X52976547Y33001987D01*
X53124035Y33100536D01*
X53249464Y33225965D01*
X53308084Y33313696D01*
X62149500Y33313696D01*
X62149500Y33136305D01*
X62184104Y32962341D01*
X62184105Y32962339D01*
X62184106Y32962334D01*
X62251987Y32798453D01*
X62350536Y32650965D01*
X62475965Y32525536D01*
X62623453Y32426987D01*
X62787334Y32359106D01*
X62961309Y32324500D01*
X63138691Y32324500D01*
X63312666Y32359106D01*
X63476547Y32426987D01*
X63624035Y32525536D01*
X63749464Y32650965D01*
X63848013Y32798453D01*
X63915894Y32962334D01*
X63950500Y33136309D01*
X63950500Y33313691D01*
X63915894Y33487666D01*
X63848013Y33651547D01*
X63749464Y33799035D01*
X63624035Y33924464D01*
X63510186Y34000536D01*
X63476549Y34023012D01*
X63476547Y34023013D01*
X63312666Y34090894D01*
X63312661Y34090895D01*
X63312659Y34090896D01*
X63138695Y34125500D01*
X63138691Y34125500D01*
X62961309Y34125500D01*
X62961304Y34125500D01*
X62787340Y34090896D01*
X62787336Y34090895D01*
X62787334Y34090894D01*
X62678080Y34045640D01*
X62623450Y34023012D01*
X62475968Y33924467D01*
X62350533Y33799032D01*
X62251988Y33651550D01*
X62184104Y33487660D01*
X62149500Y33313696D01*
X53308084Y33313696D01*
X53348013Y33373453D01*
X53415894Y33537334D01*
X53450500Y33711309D01*
X53450500Y33888691D01*
X53415894Y34062666D01*
X53348013Y34226547D01*
X53249464Y34374035D01*
X53124035Y34499464D01*
X53124031Y34499467D01*
X52976549Y34598012D01*
X52944447Y34611309D01*
X52812666Y34665894D01*
X52812664Y34665895D01*
X52812653Y34665899D01*
X52808890Y34667040D01*
X52805424Y34668893D01*
X52801365Y34670574D01*
X52801530Y34670974D01*
X52723209Y34712841D01*
X52661577Y34787945D01*
X52636965Y34856733D01*
X52615894Y34962666D01*
X52548013Y35126547D01*
X52449464Y35274035D01*
X52324035Y35399464D01*
X52322485Y35400500D01*
X52176549Y35498012D01*
X52176547Y35498013D01*
X52012666Y35565894D01*
X52012661Y35565895D01*
X52012659Y35565896D01*
X51838695Y35600500D01*
X51838691Y35600500D01*
X51661309Y35600500D01*
X51661304Y35600500D01*
X51487340Y35565896D01*
X51487336Y35565895D01*
X51487334Y35565894D01*
X51378080Y35520640D01*
X51323450Y35498012D01*
X51175968Y35399467D01*
X51050533Y35274032D01*
X50951988Y35126550D01*
X50951987Y35126547D01*
X50889748Y34976285D01*
X50884104Y34962660D01*
X50849529Y34788843D01*
X50849529Y34788837D01*
X50849500Y34788691D01*
X17105114Y34788691D01*
X17048013Y34926547D01*
X16949464Y35074035D01*
X16824035Y35199464D01*
X16712437Y35274032D01*
X16676549Y35298012D01*
X16676547Y35298013D01*
X16512666Y35365894D01*
X16512661Y35365895D01*
X16512659Y35365896D01*
X16338695Y35400500D01*
X16338691Y35400500D01*
X16161309Y35400500D01*
X16161304Y35400500D01*
X15987340Y35365896D01*
X15987336Y35365895D01*
X15987334Y35365894D01*
X15878080Y35320640D01*
X15823450Y35298012D01*
X15675968Y35199467D01*
X15550533Y35074032D01*
X15451988Y34926550D01*
X15451987Y34926547D01*
X15384539Y34763709D01*
X15384104Y34762660D01*
X15349500Y34588696D01*
X11550000Y34588696D01*
X11550000Y34677824D01*
X11553066Y34716779D01*
X11560500Y34763713D01*
X11560500Y34976287D01*
X11553065Y35023224D01*
X11550000Y35062177D01*
X11550000Y37217824D01*
X11550771Y37237406D01*
X11551538Y37247131D01*
X11560500Y37303713D01*
X11560500Y37338696D01*
X15349500Y37338696D01*
X15349500Y37161305D01*
X15384104Y36987341D01*
X15384105Y36987339D01*
X15384106Y36987334D01*
X15451987Y36823453D01*
X15550536Y36675965D01*
X15675965Y36550536D01*
X15823453Y36451987D01*
X15987334Y36384106D01*
X16161309Y36349500D01*
X16338691Y36349500D01*
X16512666Y36384106D01*
X16676547Y36451987D01*
X16824035Y36550536D01*
X16949464Y36675965D01*
X17048013Y36823453D01*
X17115894Y36987334D01*
X17150500Y37161309D01*
X17150500Y37338691D01*
X17115894Y37512666D01*
X17048013Y37676547D01*
X16949464Y37824035D01*
X16824035Y37949464D01*
X16824031Y37949467D01*
X16676549Y38048012D01*
X16676547Y38048013D01*
X16512666Y38115894D01*
X16512661Y38115895D01*
X16512659Y38115896D01*
X16338695Y38150500D01*
X16338691Y38150500D01*
X16161309Y38150500D01*
X16161304Y38150500D01*
X15987340Y38115896D01*
X15987336Y38115895D01*
X15987334Y38115894D01*
X15878080Y38070640D01*
X15823450Y38048012D01*
X15675968Y37949467D01*
X15550533Y37824032D01*
X15451988Y37676550D01*
X15384104Y37512660D01*
X15349500Y37338696D01*
X11560500Y37338696D01*
X11560500Y37516287D01*
X11553065Y37563224D01*
X11550000Y37602177D01*
X11550000Y38838696D01*
X40099500Y38838696D01*
X40099500Y38661305D01*
X40134104Y38487341D01*
X40134105Y38487339D01*
X40134106Y38487334D01*
X40201987Y38323453D01*
X40201988Y38323451D01*
X40300533Y38175969D01*
X40300536Y38175965D01*
X40425965Y38050536D01*
X40573453Y37951987D01*
X40737334Y37884106D01*
X40911309Y37849500D01*
X41088691Y37849500D01*
X41262666Y37884106D01*
X41426547Y37951987D01*
X41574035Y38050536D01*
X41699464Y38175965D01*
X41798013Y38323453D01*
X41865894Y38487334D01*
X41900500Y38661309D01*
X41900500Y38838691D01*
X41865894Y39012666D01*
X41798013Y39176547D01*
X41699464Y39324035D01*
X41574035Y39449464D01*
X41517359Y39487334D01*
X41426549Y39548012D01*
X41426547Y39548013D01*
X41262666Y39615894D01*
X41262661Y39615895D01*
X41262659Y39615896D01*
X41211862Y39626000D01*
X41211860Y39626000D01*
X41088691Y39650500D01*
X40911309Y39650500D01*
X40788140Y39626000D01*
X40788138Y39626000D01*
X40737340Y39615896D01*
X40737336Y39615895D01*
X40737334Y39615894D01*
X40628080Y39570640D01*
X40573450Y39548012D01*
X40425968Y39449467D01*
X40300533Y39324032D01*
X40201988Y39176550D01*
X40201746Y39175965D01*
X40149792Y39050534D01*
X40134104Y39012660D01*
X40099500Y38838696D01*
X11550000Y38838696D01*
X11550000Y39757824D01*
X11551569Y39785730D01*
X11552193Y39791271D01*
X11559705Y39838696D01*
X15349500Y39838696D01*
X15349500Y39661305D01*
X15384104Y39487341D01*
X15384105Y39487339D01*
X15384106Y39487334D01*
X15451746Y39324035D01*
X15451988Y39323451D01*
X15550145Y39176550D01*
X15550536Y39175965D01*
X15675965Y39050536D01*
X15823453Y38951987D01*
X15987334Y38884106D01*
X16161309Y38849500D01*
X16338691Y38849500D01*
X16512666Y38884106D01*
X16676547Y38951987D01*
X16824035Y39050536D01*
X16949464Y39175965D01*
X17048013Y39323453D01*
X17115894Y39487334D01*
X17150500Y39661309D01*
X17150500Y39838691D01*
X17115894Y40012666D01*
X17048013Y40176547D01*
X16949464Y40324035D01*
X16824035Y40449464D01*
X16795678Y40468412D01*
X16676549Y40548012D01*
X16676547Y40548013D01*
X16512666Y40615894D01*
X16512661Y40615895D01*
X16512659Y40615896D01*
X16338695Y40650500D01*
X16338691Y40650500D01*
X16161309Y40650500D01*
X16161304Y40650500D01*
X15987340Y40615896D01*
X15987336Y40615895D01*
X15987334Y40615894D01*
X15878080Y40570640D01*
X15823450Y40548012D01*
X15675968Y40449467D01*
X15550533Y40324032D01*
X15451988Y40176550D01*
X15434407Y40134105D01*
X15402174Y40056285D01*
X15384104Y40012660D01*
X15349500Y39838696D01*
X11559705Y39838696D01*
X11560500Y39843713D01*
X11560500Y40056287D01*
X11553065Y40103224D01*
X11550000Y40142177D01*
X11550000Y41088696D01*
X40099500Y41088696D01*
X40099500Y40911305D01*
X40134104Y40737341D01*
X40134105Y40737339D01*
X40134106Y40737334D01*
X40184407Y40615896D01*
X40201988Y40573451D01*
X40284832Y40449467D01*
X40300536Y40425965D01*
X40425965Y40300536D01*
X40573453Y40201987D01*
X40737334Y40134106D01*
X40754138Y40130764D01*
X40788138Y40124000D01*
X40788140Y40124000D01*
X40911309Y40099500D01*
X41088691Y40099500D01*
X41211860Y40124000D01*
X41211862Y40124000D01*
X41237234Y40129048D01*
X41262666Y40134106D01*
X41426547Y40201987D01*
X41574035Y40300536D01*
X41699464Y40425965D01*
X41798013Y40573453D01*
X41865894Y40737334D01*
X41900500Y40911309D01*
X41900500Y41088691D01*
X41865894Y41262666D01*
X41798013Y41426547D01*
X41699464Y41574035D01*
X41574035Y41699464D01*
X41574031Y41699467D01*
X41426549Y41798012D01*
X41426547Y41798013D01*
X41401521Y41808379D01*
X41401520Y41808380D01*
X41262666Y41865894D01*
X41262661Y41865896D01*
X41088695Y41900500D01*
X41088691Y41900500D01*
X40911309Y41900500D01*
X40911304Y41900500D01*
X40737340Y41865896D01*
X40737336Y41865895D01*
X40737334Y41865894D01*
X40628080Y41820640D01*
X40573450Y41798012D01*
X40425968Y41699467D01*
X40300533Y41574032D01*
X40201988Y41426550D01*
X40184407Y41384105D01*
X40136004Y41267246D01*
X40134104Y41262660D01*
X40099500Y41088696D01*
X11550000Y41088696D01*
X11550000Y42225051D01*
X11537232Y42240000D01*
X10643012Y42240000D01*
X10675925Y42297007D01*
X10687096Y42338696D01*
X15349500Y42338696D01*
X15349500Y42161305D01*
X15384104Y41987341D01*
X15384105Y41987339D01*
X15384106Y41987334D01*
X15441486Y41848805D01*
X15451988Y41823451D01*
X15468986Y41798012D01*
X15550536Y41675965D01*
X15675965Y41550536D01*
X15823453Y41451987D01*
X15987334Y41384106D01*
X16161309Y41349500D01*
X16338691Y41349500D01*
X16512666Y41384106D01*
X16676547Y41451987D01*
X16824035Y41550536D01*
X16949464Y41675965D01*
X17048013Y41823453D01*
X17115894Y41987334D01*
X17123624Y42026196D01*
X53212000Y42026196D01*
X53212000Y41848805D01*
X53246604Y41674841D01*
X53246605Y41674839D01*
X53246606Y41674834D01*
X53314487Y41510953D01*
X53314488Y41510951D01*
X53413033Y41363469D01*
X53413036Y41363465D01*
X53538465Y41238036D01*
X53685953Y41139487D01*
X53849834Y41071606D01*
X54023809Y41037000D01*
X54201191Y41037000D01*
X54375166Y41071606D01*
X54539047Y41139487D01*
X54686535Y41238036D01*
X54811964Y41363465D01*
X54910513Y41510953D01*
X54978394Y41674834D01*
X55013000Y41848809D01*
X55013000Y42026191D01*
X54978394Y42200166D01*
X54910513Y42364047D01*
X54811964Y42511535D01*
X54686535Y42636964D01*
X54686531Y42636967D01*
X54539049Y42735512D01*
X54528214Y42740000D01*
X54375166Y42803394D01*
X54375161Y42803395D01*
X54375159Y42803396D01*
X54201195Y42838000D01*
X54201191Y42838000D01*
X54023809Y42838000D01*
X54023804Y42838000D01*
X53849840Y42803396D01*
X53849836Y42803395D01*
X53849834Y42803394D01*
X53740580Y42758140D01*
X53685950Y42735512D01*
X53538468Y42636967D01*
X53413033Y42511532D01*
X53314488Y42364050D01*
X53314487Y42364047D01*
X53247215Y42201635D01*
X53246604Y42200160D01*
X53212000Y42026196D01*
X17123624Y42026196D01*
X17150500Y42161309D01*
X17150500Y42338691D01*
X17115894Y42512666D01*
X17048013Y42676547D01*
X16949464Y42824035D01*
X16824035Y42949464D01*
X16824031Y42949467D01*
X16676549Y43048012D01*
X16676547Y43048013D01*
X16512666Y43115894D01*
X16512661Y43115895D01*
X16512659Y43115896D01*
X16338695Y43150500D01*
X16338691Y43150500D01*
X16161309Y43150500D01*
X16161304Y43150500D01*
X15987340Y43115896D01*
X15987336Y43115895D01*
X15987334Y43115894D01*
X15878080Y43070640D01*
X15823450Y43048012D01*
X15675968Y42949467D01*
X15550533Y42824032D01*
X15451988Y42676550D01*
X15451987Y42676547D01*
X15401984Y42555826D01*
X15384104Y42512660D01*
X15349500Y42338696D01*
X10687096Y42338696D01*
X10710000Y42424174D01*
X10710000Y42555826D01*
X10675925Y42682993D01*
X10643012Y42740000D01*
X11537231Y42740000D01*
X11545772Y42750000D01*
X11550000Y42750000D01*
X11550000Y43888696D01*
X40149500Y43888696D01*
X40149500Y43711305D01*
X40184104Y43537341D01*
X40184105Y43537339D01*
X40184106Y43537334D01*
X40251987Y43373453D01*
X40350536Y43225965D01*
X40475965Y43100536D01*
X40623453Y43001987D01*
X40787334Y42934106D01*
X40961309Y42899500D01*
X41138691Y42899500D01*
X41312666Y42934106D01*
X41476547Y43001987D01*
X41624035Y43100536D01*
X41749464Y43225965D01*
X41848013Y43373453D01*
X41915894Y43537334D01*
X41950500Y43711309D01*
X41950500Y43888691D01*
X41915894Y44062666D01*
X41848013Y44226547D01*
X41749464Y44374035D01*
X41624035Y44499464D01*
X41551793Y44547735D01*
X41476549Y44598012D01*
X41476547Y44598013D01*
X41312666Y44665894D01*
X41312661Y44665895D01*
X41312659Y44665896D01*
X41138695Y44700500D01*
X41138691Y44700500D01*
X40961309Y44700500D01*
X40961304Y44700500D01*
X40787340Y44665896D01*
X40787336Y44665895D01*
X40787334Y44665894D01*
X40678080Y44620640D01*
X40623450Y44598012D01*
X40475968Y44499467D01*
X40350533Y44374032D01*
X40251988Y44226550D01*
X40251987Y44226547D01*
X40188187Y44072517D01*
X40184104Y44062660D01*
X40149500Y43888696D01*
X11550000Y43888696D01*
X11550000Y44026184D01*
X11553581Y44056905D01*
X11552426Y44057029D01*
X11554268Y44074168D01*
X11560500Y44132127D01*
X11560499Y45927872D01*
X11554091Y45987483D01*
X11503796Y46122331D01*
X11417546Y46237546D01*
X11302331Y46323796D01*
X11176548Y46370710D01*
X11167481Y46374092D01*
X11107873Y46380500D01*
X9312134Y46380500D01*
X9312130Y46380500D01*
X9312128Y46380499D01*
X9299314Y46379122D01*
X9252519Y46374092D01*
X9252515Y46374091D01*
X9117670Y46323797D01*
X9002455Y46237547D01*
X9002453Y46237545D01*
X8916204Y46122331D01*
X8865908Y45987482D01*
X8859500Y45927877D01*
X8859500Y44591645D01*
X8850765Y44547735D01*
X8850000Y44543140D01*
X2500500Y44543140D01*
X2500500Y46250207D01*
X2500500Y46337532D01*
X2500500Y46337534D01*
X2470485Y46507763D01*
X2472251Y46588696D01*
X40099500Y46588696D01*
X40099500Y46411305D01*
X40134104Y46237341D01*
X40134105Y46237339D01*
X40134106Y46237334D01*
X40181742Y46122330D01*
X40201988Y46073451D01*
X40300533Y45925969D01*
X40300536Y45925965D01*
X40425965Y45800536D01*
X40573453Y45701987D01*
X40737334Y45634106D01*
X40911309Y45599500D01*
X41088691Y45599500D01*
X41262666Y45634106D01*
X41426547Y45701987D01*
X41574035Y45800536D01*
X41699464Y45925965D01*
X41798013Y46073453D01*
X41865894Y46237334D01*
X41900500Y46411309D01*
X41900500Y46588691D01*
X41865894Y46762666D01*
X41798013Y46926547D01*
X41699464Y47074035D01*
X41574035Y47199464D01*
X41543150Y47220101D01*
X41426549Y47298012D01*
X41426547Y47298013D01*
X41262666Y47365894D01*
X41262661Y47365895D01*
X41262659Y47365896D01*
X41088695Y47400500D01*
X41088691Y47400500D01*
X40911309Y47400500D01*
X40911304Y47400500D01*
X40737340Y47365896D01*
X40737336Y47365895D01*
X40737334Y47365894D01*
X40631723Y47322149D01*
X40573450Y47298012D01*
X40425968Y47199467D01*
X40300533Y47074032D01*
X40201988Y46926550D01*
X40201987Y46926547D01*
X40141720Y46781046D01*
X40134104Y46762660D01*
X40099500Y46588696D01*
X2472251Y46588696D01*
X2472605Y46604895D01*
X2511734Y46693822D01*
X2581916Y46761005D01*
X2672465Y46796217D01*
X2715702Y46800000D01*
X3301919Y46800000D01*
X3314140Y46799700D01*
X3318202Y46799501D01*
X3318206Y46799500D01*
X3318210Y46799500D01*
X3681791Y46799500D01*
X3681794Y46799500D01*
X4043631Y46835138D01*
X4400233Y46906070D01*
X4400244Y46906074D01*
X4400251Y46906075D01*
X4626693Y46974767D01*
X4748164Y47011614D01*
X5084076Y47150753D01*
X5359579Y47298012D01*
X5404725Y47322143D01*
X5404735Y47322149D01*
X5562116Y47427308D01*
X5707044Y47524146D01*
X5988101Y47754803D01*
X6245197Y48011899D01*
X6475854Y48292956D01*
X6677853Y48595268D01*
X6849247Y48915924D01*
X6988386Y49251836D01*
X7041385Y49426550D01*
X7093925Y49599749D01*
X7093928Y49599762D01*
X7093930Y49599767D01*
X7164862Y49956369D01*
X7200500Y50318206D01*
X7200500Y50681794D01*
X7200499Y50681798D01*
X7200300Y50685860D01*
X7200000Y50698081D01*
X7200000Y51017833D01*
X8860000Y51017833D01*
X8860000Y50370001D01*
X8860001Y50370000D01*
X9776988Y50370000D01*
X9744075Y50312993D01*
X9710000Y50185826D01*
X9710000Y50054174D01*
X9744075Y49927007D01*
X9776988Y49870000D01*
X8860001Y49870000D01*
X8860000Y49869999D01*
X8860000Y49222168D01*
X8866401Y49162629D01*
X8866403Y49162622D01*
X8916646Y49027913D01*
X9002810Y48912813D01*
X9002812Y48912811D01*
X9117912Y48826647D01*
X9252621Y48776404D01*
X9252628Y48776402D01*
X9312167Y48770001D01*
X9312175Y48770000D01*
X9959999Y48770000D01*
X9960000Y48770001D01*
X9960000Y49686988D01*
X10017007Y49654075D01*
X10144174Y49620000D01*
X10275826Y49620000D01*
X10402993Y49654075D01*
X10460000Y49686988D01*
X10460000Y48770001D01*
X10460001Y48770000D01*
X11107825Y48770000D01*
X11107832Y48770001D01*
X11167371Y48776402D01*
X11167381Y48776404D01*
X11188555Y48784301D01*
X11275570Y48800000D01*
X12431550Y48800000D01*
X12470503Y48796934D01*
X12643704Y48769501D01*
X12643709Y48769501D01*
X12643713Y48769500D01*
X12643716Y48769500D01*
X12856284Y48769500D01*
X12856287Y48769500D01*
X12856290Y48769501D01*
X12856296Y48769501D01*
X12955476Y48785211D01*
X13066243Y48802754D01*
X13268412Y48868443D01*
X13457816Y48964949D01*
X13628140Y49088696D01*
X40094500Y49088696D01*
X40094500Y48911305D01*
X40129104Y48737341D01*
X40129105Y48737339D01*
X40129106Y48737334D01*
X40196987Y48573453D01*
X40295536Y48425965D01*
X40420965Y48300536D01*
X40568453Y48201987D01*
X40732334Y48134106D01*
X40906309Y48099500D01*
X41083691Y48099500D01*
X41257666Y48134106D01*
X41421547Y48201987D01*
X41569035Y48300536D01*
X41694464Y48425965D01*
X41793013Y48573453D01*
X41860894Y48737334D01*
X41895500Y48911309D01*
X41895500Y49088691D01*
X41860894Y49262666D01*
X41793013Y49426547D01*
X41694464Y49574035D01*
X41569035Y49699464D01*
X41569031Y49699467D01*
X41421549Y49798012D01*
X41421547Y49798013D01*
X41257666Y49865894D01*
X41257661Y49865895D01*
X41257659Y49865896D01*
X41083695Y49900500D01*
X41083691Y49900500D01*
X40906309Y49900500D01*
X40906304Y49900500D01*
X40732340Y49865896D01*
X40732336Y49865895D01*
X40732334Y49865894D01*
X40623080Y49820640D01*
X40568450Y49798012D01*
X40420968Y49699467D01*
X40295533Y49574032D01*
X40196988Y49426550D01*
X40129104Y49262660D01*
X40094500Y49088696D01*
X13628140Y49088696D01*
X13629792Y49089896D01*
X13780104Y49240208D01*
X13905051Y49412184D01*
X14001557Y49601588D01*
X14067246Y49803757D01*
X14091418Y49956369D01*
X14100499Y50013704D01*
X14100500Y50013716D01*
X14100500Y50226285D01*
X14100499Y50226297D01*
X14067246Y50436241D01*
X14067246Y50436243D01*
X14001557Y50638412D01*
X13905051Y50827816D01*
X13780104Y50999792D01*
X13629792Y51150104D01*
X13457816Y51275051D01*
X13268412Y51371557D01*
X13268409Y51371558D01*
X13268407Y51371559D01*
X13066240Y51437247D01*
X12856296Y51470500D01*
X12856287Y51470500D01*
X12643713Y51470500D01*
X12643706Y51470500D01*
X12549301Y51455547D01*
X12533638Y51453066D01*
X12494687Y51450000D01*
X11248758Y51450000D01*
X11182974Y51461869D01*
X11182537Y51460015D01*
X11167371Y51463599D01*
X11107832Y51470000D01*
X10460001Y51470000D01*
X10460000Y51469999D01*
X10460000Y50553012D01*
X10402993Y50585925D01*
X10275826Y50620000D01*
X10144174Y50620000D01*
X10017007Y50585925D01*
X9960000Y50553012D01*
X9960000Y51469999D01*
X9959999Y51470000D01*
X9312167Y51470000D01*
X9252628Y51463599D01*
X9252621Y51463597D01*
X9117912Y51413354D01*
X9002812Y51327190D01*
X9002810Y51327188D01*
X8916646Y51212088D01*
X8866403Y51077379D01*
X8866401Y51077372D01*
X8860000Y51017833D01*
X7200000Y51017833D01*
X7200000Y52751000D01*
X7218954Y52846288D01*
X7272930Y52927070D01*
X7353712Y52981046D01*
X7449000Y53000000D01*
X45101000Y53000000D01*
X45196288Y52981046D01*
G37*
%TD.AperFunction*%
%TD*%
M02*
