M48
; DRILL file {KiCad 9.0.6} date 2025-12-16T17:11:08+0700
; FORMAT={-:-/ absolute / inch / decimal}
; #@! TF.CreationDate,2025-12-16T17:11:08+07:00
; #@! TF.GenerationSoftware,Kicad,Pcbnew,9.0.6
; #@! TF.FileFunction,Plated,1,4,PTH
FMAT,2
INCH
; #@! TA.AperFunction,Plated,PTH,ViaDrill
T1C0.0157
; #@! TA.AperFunction,Plated,PTH,ComponentDrill
T2C0.0197
; #@! TA.AperFunction,Plated,PTH,ComponentDrill
T3C0.0394
; #@! TA.AperFunction,Plated,PTH,ComponentDrill
T4C0.1260
%
G90
G05
T1
X0.1181Y1.8209
X0.1181Y1.7209
X0.1181Y1.6209
X0.1181Y1.5209
X0.1181Y1.4209
X0.1181Y1.3209
X0.1181Y1.2209
X0.1181Y1.1209
X0.1181Y1.0209
X0.1181Y0.9209
X0.1181Y0.8209
X0.1181Y0.7209
X0.1181Y0.6209
X0.1181Y0.5209
X0.1181Y0.4209
X0.1181Y0.3209
X0.6398Y1.6634
X0.6398Y1.565
X0.6398Y1.4665
X0.6398Y1.3583
X0.8563Y1.9685
X0.8563Y1.8504
X0.8563Y1.7224
X0.8563Y1.5224
X0.8563Y1.3224
X0.8563Y1.1224
X0.8563Y0.935
X0.8563Y0.8169
X0.8563Y0.6169
X0.8563Y0.4169
X0.8563Y0.2169
X0.8563Y0.0591
X1.0236Y1.5945
X1.0236Y1.3189
X1.0236Y1.122
X1.0236Y0.935
X1.0335Y0.8169
X1.0335Y0.6201
X1.0335Y0.4134
X1.122Y1.9114
X1.2106Y1.8209
X1.2106Y1.6043
X1.2106Y1.4764
X1.2106Y1.3189
X1.2106Y1.122
X1.2106Y0.8169
X1.2106Y0.6201
X1.2106Y0.4134
X1.378Y0.935
X1.378Y0.8169
X1.378Y0.6169
X1.378Y0.4169
X1.378Y0.2169
X1.378Y0.0591
X1.3878Y1.8209
X1.614Y1.9291
X1.6142Y1.8307
X1.6142Y1.6142
X1.6142Y1.5256
X1.6161Y1.7244
X1.6831Y1.3681
X1.6929Y1.4665
X1.7224Y1.5512
X1.7697Y1.4665
X1.7815Y1.2697
X1.8504Y1.1752
X1.8504Y0.9941
X1.8504Y0.7185
X1.9193Y0.9941
X1.9488Y0.6791
X1.9488Y0.0591
X1.9783Y0.2264
X1.9882Y1.7815
X1.9882Y0.9941
X2.0079Y0.1181
X2.0177Y0.6107
X2.0177Y0.4926
X2.0177Y0.374
X2.0177Y0.3248
X2.0374Y1.3661
X2.0374Y1.2953
X2.0571Y1.0039
X2.0689Y1.3307
X2.0768Y1.1811
X2.0768Y1.0827
X2.0768Y0.374
X2.0768Y0.3248
X2.0768Y0.2264
X2.0768Y0.0591
X2.1304Y1.6511
X2.1457Y1.9094
X2.1555Y1.7815
X2.1772Y0.6969
X2.185Y0.2264
X2.1949Y0.1181
X2.1949Y0.0591
X2.2244Y1.6732
X2.2244Y1.5157
X2.2244Y1.3976
X2.2244Y1.3386
X2.2244Y1.2795
X2.2343Y2.0669
X2.2539Y0.6988
X2.2539Y0.6299
X2.2539Y0.5118
X2.2539Y0.3115
X2.2894Y0.2362
X2.2894Y0.1476
X2.3228Y0.7579
X2.3327Y0.6988
X2.3327Y0.6299
X2.3425Y0.5118
X2.3524Y0.0591
X2.372Y2.0669
X2.372Y1.7028
X2.4114Y0.7579
X2.4114Y0.6988
X2.4114Y0.6299
X2.4213Y1.122
X2.4213Y0.5118
X2.4213Y0.4429
X2.4803Y0.6988
X2.4823Y1.3081
X2.4961Y2.0669
X2.4961Y1.998
X2.4961Y1.9193
X2.5Y1.6634
X2.5098Y1.1713
X2.5689Y1.1713
X2.5787Y0.4626
X2.5984Y0.3642
X2.5984Y0.2756
X2.5984Y0.187
X2.5984Y0.0984
X2.6083Y1.6634
X2.628Y1.1713
X2.6575Y0.0591
X2.6654Y1.7205
X2.687Y1.1713
X2.7323Y1.7598
X2.7362Y0.4626
X2.7461Y1.1713
X2.7539Y1.8937
X2.7575Y0.0591
X2.7756Y1.8406
X2.8051Y1.8012
X2.8051Y1.1713
X2.8248Y1.0531
X2.8346Y0.5413
X2.8425Y1.8937
X2.8445Y1.7717
X2.8575Y0.0591
X2.874Y0.7382
X2.874Y0.6594
X2.8819Y1.7579
X2.8937Y1.8504
X2.9035Y1.565
X2.9331Y1.0531
X2.9575Y0.0591
X2.9626Y1.8563
X2.9823Y0.7382
X3.002Y1.6339
X3.002Y1.5846
X3.0118Y1.8209
X3.0118Y0.9843
X3.0315Y1.3976
X3.0315Y1.3189
X3.0413Y0.0591
X3.061Y1.6654
X3.0709Y0.3051
X3.0807Y1.8878
X3.0807Y0.7382
X3.0866Y1.8209
X3.1299Y1.0728
X3.1378Y1.7677
X3.1378Y1.687
X3.1594Y1.8307
X3.1693Y1.1614
X3.1693Y0.75
X3.1791Y0.3051
X3.189Y0.9941
X3.2677Y0.9941
X3.2874Y1.8209
X3.2874Y1.7209
X3.2874Y1.6209
X3.2874Y1.5209
X3.2874Y1.4209
X3.2874Y1.3209
X3.2874Y1.2209
X3.2874Y1.1209
X3.2874Y0.689
X3.2874Y0.589
X3.2874Y0.489
X3.2874Y0.389
X3.2874Y0.3051
T2
X0.0433Y1.9882
X0.0433Y0.1378
X0.071Y2.055
X0.071Y1.9214
X0.071Y0.2046
X0.071Y0.071
X0.1378Y2.0827
X0.1378Y1.8937
X0.1378Y0.2323
X0.1378Y0.0433
X0.2046Y2.055
X0.2046Y1.9214
X0.2046Y0.2046
X0.2046Y0.071
X0.2323Y1.9882
X0.2323Y0.1378
X3.1142Y1.9882
X3.1142Y0.1378
X3.1418Y2.055
X3.1418Y1.9214
X3.1418Y0.2046
X3.1418Y0.071
X3.2087Y2.0827
X3.2087Y1.8937
X3.2087Y0.2323
X3.2087Y0.0433
X3.2755Y2.055
X3.2755Y1.9214
X3.2755Y0.2046
X3.2755Y0.071
X3.3031Y1.9882
X3.3031Y0.1378
T3
X0.402Y1.9732
X0.402Y1.7728
X0.402Y1.6728
X0.402Y1.5728
X0.402Y1.4728
X0.402Y1.3728
X0.402Y1.2728
X0.402Y1.0728
X0.402Y0.8728
X0.402Y0.7728
X0.402Y0.6728
X0.402Y0.5728
X0.402Y0.4728
X0.402Y0.3728
X0.402Y0.1728
X0.502Y1.9732
X0.502Y1.0728
X0.502Y0.8728
X0.502Y0.7728
X0.502Y0.6728
X0.502Y0.5728
X0.502Y0.4728
X0.502Y0.3728
X0.502Y0.1728
X1.8386Y2.0276
X1.9386Y2.0276
X2.0386Y2.0276
X2.1386Y2.0276
X2.7953Y2.0472
T4
X0.1378Y1.9882
X0.1378Y0.1378
X3.2087Y1.9882
X3.2087Y0.1378
M30
