%TF.GenerationSoftware,KiCad,Pcbnew,9.0.6*%
%TF.CreationDate,2025-12-16T17:11:07+07:00*%
%TF.ProjectId,PICO_ADC_Test,5049434f-5f41-4444-935f-546573742e6b,R0.1*%
%TF.SameCoordinates,PX72ade90PY75c75e0*%
%TF.FileFunction,Copper,L4,Bot*%
%TF.FilePolarity,Positive*%
%FSLAX46Y46*%
G04 Gerber Fmt 4.6, Leading zero omitted, Abs format (unit mm)*
G04 Created by KiCad (PCBNEW 9.0.6) date 2025-12-16 17:11:07*
%MOMM*%
%LPD*%
G01*
G04 APERTURE LIST*
%TA.AperFunction,ComponentPad*%
%ADD10C,2.000000*%
%TD*%
%TA.AperFunction,ComponentPad*%
%ADD11R,1.700000X1.700000*%
%TD*%
%TA.AperFunction,ComponentPad*%
%ADD12O,1.700000X1.700000*%
%TD*%
%TA.AperFunction,ComponentPad*%
%ADD13C,0.800000*%
%TD*%
%TA.AperFunction,ComponentPad*%
%ADD14C,6.400000*%
%TD*%
%TA.AperFunction,SMDPad,CuDef*%
%ADD15R,4.800000X4.900000*%
%TD*%
%TA.AperFunction,SMDPad,CuDef*%
%ADD16C,1.000000*%
%TD*%
%TA.AperFunction,ViaPad*%
%ADD17C,0.800000*%
%TD*%
%TA.AperFunction,Conductor*%
%ADD18C,0.500000*%
%TD*%
%TA.AperFunction,Conductor*%
%ADD19C,0.300000*%
%TD*%
G04 APERTURE END LIST*
D10*
%TO.P,REF\u002A\u002A,1*%
%TO.N,Net-(U1-A)*%
X71000000Y52000000D03*
%TD*%
D11*
%TO.P,J4,1,1*%
%TO.N,+5V*%
X46700000Y51500000D03*
D12*
%TO.P,J4,2,2*%
%TO.N,SWCLK*%
X49240000Y51500000D03*
%TO.P,J4,3,3*%
%TO.N,SWDIO*%
X51780000Y51500000D03*
%TO.P,J4,4,4*%
%TO.N,GND*%
X54320000Y51500000D03*
%TD*%
D11*
%TO.P,J2,1,Pin_1*%
%TO.N,GND*%
X10210000Y27250000D03*
D12*
%TO.P,J2,2,Pin_2*%
%TO.N,+5V*%
X12750000Y27250000D03*
%TD*%
D13*
%TO.P,REF\u002A\u002A,1*%
%TO.N,N/C*%
X79100000Y3500000D03*
X79802944Y5197056D03*
X79802944Y1802944D03*
X81500000Y5900000D03*
D14*
X81500000Y3500000D03*
D13*
X81500000Y1100000D03*
X83197056Y5197056D03*
X83197056Y1802944D03*
X83900000Y3500000D03*
%TD*%
D11*
%TO.P,J3,1,Pin_1*%
%TO.N,+3.3V*%
X10210000Y45030000D03*
D12*
%TO.P,J3,2,Pin_2*%
%TO.N,GND*%
X10210000Y42490000D03*
%TO.P,J3,3,Pin_3*%
%TO.N,GPIO17*%
X10210000Y39950000D03*
%TO.P,J3,4,Pin_4*%
%TO.N,GPIO16*%
X10210000Y37410000D03*
%TO.P,J3,5,Pin_5*%
%TO.N,GPIO12*%
X10210000Y34870000D03*
%TO.P,J3,6,Pin_6*%
%TO.N,GPIO11*%
X10210000Y32330000D03*
%TD*%
D13*
%TO.P,REF\u002A\u002A,1*%
%TO.N,N/C*%
X1100000Y3500000D03*
X1802944Y5197056D03*
X1802944Y1802944D03*
X3500000Y5900000D03*
D14*
X3500000Y3500000D03*
D13*
X3500000Y1100000D03*
X5197056Y5197056D03*
X5197056Y1802944D03*
X5900000Y3500000D03*
%TD*%
D15*
%TO.P,J1,2,2*%
%TO.N,GND*%
X75250000Y51175000D03*
X66750000Y51175000D03*
%TD*%
D13*
%TO.P,REF\u002A\u002A,1*%
%TO.N,N/C*%
X1100000Y50500000D03*
X1802944Y52197056D03*
X1802944Y48802944D03*
X3500000Y52900000D03*
D14*
X3500000Y50500000D03*
D13*
X3500000Y48100000D03*
X5197056Y52197056D03*
X5197056Y48802944D03*
X5900000Y50500000D03*
%TD*%
D11*
%TO.P,J5,1,Pin_1*%
%TO.N,GND*%
X10210000Y50120000D03*
D12*
%TO.P,J5,2,Pin_2*%
%TO.N,+5V*%
X12750000Y50120000D03*
%TD*%
D11*
%TO.P,J7,1,Pin_1*%
%TO.N,GND*%
X10210000Y4390000D03*
D12*
%TO.P,J7,2,Pin_2*%
%TO.N,+5V*%
X12750000Y4390000D03*
%TD*%
D13*
%TO.P,REF\u002A\u002A,1*%
%TO.N,N/C*%
X79100000Y50500000D03*
X79802944Y52197056D03*
X79802944Y48802944D03*
X81500000Y52900000D03*
D14*
X81500000Y50500000D03*
D13*
X81500000Y48100000D03*
X83197056Y52197056D03*
X83197056Y48802944D03*
X83900000Y50500000D03*
%TD*%
D11*
%TO.P,J6,1,1*%
%TO.N,+3.3V*%
X12750000Y22170000D03*
D12*
%TO.P,J6,2,2*%
X10210000Y22170000D03*
%TO.P,J6,3,3*%
%TO.N,GND*%
X12750000Y19630000D03*
%TO.P,J6,4,4*%
X10210000Y19630000D03*
%TO.P,J6,5,5*%
%TO.N,GPIO21*%
X12750000Y17090000D03*
%TO.P,J6,6,6*%
%TO.N,GPIO28*%
X10210000Y17090000D03*
%TO.P,J6,7,7*%
%TO.N,GPIO20*%
X12750000Y14550000D03*
%TO.P,J6,8,8*%
%TO.N,GPIO27*%
X10210000Y14550000D03*
%TO.P,J6,9,9*%
%TO.N,GPIO19*%
X12750000Y12010000D03*
%TO.P,J6,10,10*%
%TO.N,GPIO26*%
X10210000Y12010000D03*
%TO.P,J6,11,11*%
%TO.N,GPIO18*%
X12750000Y9470000D03*
%TO.P,J6,12,12*%
%TO.N,GPIO22*%
X10210000Y9470000D03*
%TD*%
D16*
%TO.P,TP2,1,1*%
%TO.N,SCLK*%
X48693324Y34000000D03*
%TD*%
%TO.P,TP1,1,1*%
%TO.N,CS*%
X49550000Y35850000D03*
%TD*%
%TO.P,TP3,1,1*%
%TO.N,MOSI*%
X49700000Y31900000D03*
%TD*%
%TO.P,TP4,1,1*%
%TO.N,DAC_G*%
X64750000Y33200000D03*
%TD*%
D17*
%TO.N,GND*%
X59500000Y13000000D03*
X3000000Y10690000D03*
X83500000Y38630000D03*
X63500000Y42250000D03*
X56500000Y32500000D03*
X73200000Y44650000D03*
X57250000Y16000000D03*
X83500000Y28470000D03*
X83500000Y41170000D03*
X21750000Y50000000D03*
X74500000Y26750000D03*
X52750000Y27500000D03*
X70040000Y1500000D03*
X59250000Y16000000D03*
X26000000Y28500000D03*
X3000000Y38630000D03*
X66000000Y7000000D03*
X30750000Y10500000D03*
X60250000Y52500000D03*
X78250000Y47950000D03*
X49500000Y17250000D03*
X73750000Y39750000D03*
X72580000Y1500000D03*
X30750000Y33500000D03*
X61250000Y17750000D03*
X45250000Y32250000D03*
X42750000Y34750000D03*
X63400000Y52500000D03*
X55750000Y3000000D03*
X66750000Y29750000D03*
X83500000Y31010000D03*
X3000000Y33550000D03*
X3000000Y23390000D03*
X63400000Y50750000D03*
X83500000Y43710000D03*
X21750000Y1500000D03*
X51250000Y9500000D03*
X76250000Y40250000D03*
X35250000Y46250000D03*
X83500000Y17500000D03*
X49500000Y1500000D03*
X73000000Y16750000D03*
X26250000Y20750000D03*
X52750000Y5750000D03*
X58150000Y6000000D03*
X69500000Y11750000D03*
X76500000Y46250000D03*
X21750000Y20750000D03*
X35000000Y1500000D03*
X43000000Y37250000D03*
X66000000Y9250000D03*
X3000000Y46250000D03*
X83500000Y33550000D03*
X30750000Y46250000D03*
X51250000Y15512500D03*
X78250000Y18750000D03*
X77250000Y1500000D03*
X67700000Y43700000D03*
X78000000Y7750000D03*
X56750000Y52500000D03*
X72250000Y45000000D03*
X30750000Y37500000D03*
X3000000Y31010000D03*
X63750000Y29750000D03*
X57250000Y7912500D03*
X54500000Y48500000D03*
X3000000Y13230000D03*
X58150000Y3750000D03*
X61500000Y11250000D03*
X81000000Y25250000D03*
X51000000Y3000000D03*
X3000000Y25930000D03*
X26000000Y23750000D03*
X50500000Y45250000D03*
X21750000Y38670000D03*
X3000000Y8150000D03*
X50250000Y5750000D03*
X71250000Y29750000D03*
X3000000Y20850000D03*
X75750000Y18750000D03*
X69400000Y44700000D03*
X75250000Y47150000D03*
X21750000Y47000000D03*
X68250000Y29750000D03*
X78400000Y46250000D03*
X75120000Y1500000D03*
X56500000Y34000000D03*
X21750000Y33590000D03*
X66000000Y2500000D03*
X55300000Y17700000D03*
X21750000Y23750000D03*
X83500000Y36090000D03*
X61500000Y13000000D03*
X57250000Y13000000D03*
X66250000Y42250000D03*
X77000000Y33500000D03*
X26250000Y10500000D03*
X48750000Y25250000D03*
X52750000Y30000000D03*
X30750000Y40750000D03*
X55500000Y5750000D03*
X69950000Y48100000D03*
X83500000Y46250000D03*
X30750000Y28500000D03*
X79700000Y42850000D03*
X35000000Y5510000D03*
X26000000Y40500000D03*
X76500000Y25000000D03*
X44950000Y37250000D03*
X51250000Y12512500D03*
X83500000Y14960000D03*
X3000000Y15770000D03*
X52750000Y1500000D03*
X63400000Y48750000D03*
X73500000Y47000000D03*
X3000000Y36090000D03*
X50500000Y25250000D03*
X79500000Y27250000D03*
X65500000Y11750000D03*
X35000000Y15670000D03*
X73000000Y18750000D03*
X21750000Y5510000D03*
X69750000Y29750000D03*
X60250000Y43250000D03*
X79700000Y44900000D03*
X47000000Y29850000D03*
X47000000Y18250000D03*
X35000000Y10590000D03*
X21750000Y10590000D03*
X54750000Y45250000D03*
X83500000Y7750000D03*
X83500000Y12420000D03*
X52750000Y8250000D03*
X80250000Y46500000D03*
X56500000Y42500000D03*
X30750000Y15750000D03*
X21750000Y43750000D03*
X83500000Y9880000D03*
X21750000Y15670000D03*
X59750000Y1500000D03*
X55750000Y1500000D03*
X80750000Y7750000D03*
X76250000Y41500000D03*
X35000000Y20750000D03*
X30750000Y20750000D03*
X71750000Y26750000D03*
X70500000Y46750000D03*
X47000000Y25250000D03*
X77750000Y42300000D03*
X56500000Y38500000D03*
X3000000Y28470000D03*
X72000000Y13750000D03*
X66000000Y4750000D03*
X63000000Y17750000D03*
X3000000Y18310000D03*
X52750000Y9500000D03*
X57250000Y17750000D03*
X77000000Y35500000D03*
X21750000Y28510000D03*
X3000000Y41170000D03*
X61250000Y16000000D03*
X67500000Y1500000D03*
X59250000Y17750000D03*
X72200000Y48100000D03*
X3000000Y43710000D03*
X26250000Y15750000D03*
X51250000Y8250000D03*
X65250000Y29750000D03*
X61500000Y28500000D03*
X28500000Y48550000D03*
X56500000Y35500000D03*
X35000000Y23750000D03*
X71250000Y45750000D03*
X26000000Y33500000D03*
X43750000Y39400000D03*
%TO.N,+3.3V*%
X54112500Y41937500D03*
X52250000Y25500000D03*
%TO.N,DAC_G*%
X63050000Y33225000D03*
%TO.N,5VVGA*%
X59000000Y19250000D03*
X61250000Y19250000D03*
X80500000Y19050000D03*
%TO.N,+5V*%
X83000000Y25250000D03*
X80500000Y29500000D03*
%TO.N,GPIO21*%
X16250000Y34500000D03*
%TO.N,GPIO18*%
X16250000Y42250000D03*
%TO.N,GPIO19*%
X16250000Y39750000D03*
%TO.N,GPIO11*%
X41000000Y38750000D03*
%TO.N,GPIO12*%
X41000000Y41000000D03*
%TO.N,GPIO20*%
X16250000Y37250000D03*
%TO.N,CS*%
X41050000Y43800000D03*
X51750000Y34700000D03*
%TO.N,SCLK*%
X52550000Y33800000D03*
X41000000Y46500000D03*
%TO.N,MOSI*%
X51750000Y32900000D03*
X40995000Y49000000D03*
%TD*%
D18*
%TO.N,GND*%
X62712500Y51500000D02*
X66187500Y51500000D01*
X75250000Y50975000D02*
X75250000Y47150000D01*
X62712500Y52750000D02*
X66187500Y52750000D01*
X67562500Y50200000D02*
X71037500Y50200000D01*
X66750000Y51175000D02*
X66750000Y47700000D01*
X71412500Y50200000D02*
X74887500Y50200000D01*
X62562500Y50200000D02*
X66037500Y50200000D01*
D19*
%TO.N,DAC_G*%
X64750000Y33200000D02*
X63075000Y33200000D01*
X63075000Y33200000D02*
X63050000Y33225000D01*
%TO.N,GPIO21*%
X16200000Y20540000D02*
X12750000Y17090000D01*
X16200000Y34450000D02*
X16200000Y20540000D01*
X16250000Y34500000D02*
X16200000Y34450000D01*
%TO.N,GPIO18*%
X17100000Y38450610D02*
X17100000Y41400000D01*
X12750000Y9470000D02*
X12750000Y9500000D01*
X18300000Y37250610D02*
X17100000Y38450610D01*
X12750000Y9500000D02*
X18300000Y15050000D01*
X18300000Y15050000D02*
X18300000Y37250610D01*
X17100000Y41400000D02*
X16250000Y42250000D01*
%TO.N,GPIO19*%
X17700000Y16900000D02*
X12810000Y12010000D01*
X12810000Y12010000D02*
X12750000Y12010000D01*
X16250000Y38452082D02*
X17700000Y37002082D01*
X17700000Y37002082D02*
X17700000Y16900000D01*
X16250000Y39750000D02*
X16250000Y38452082D01*
%TO.N,GPIO11*%
X29450000Y38750000D02*
X23050000Y45150000D01*
X12550000Y42450000D02*
X12550000Y34670000D01*
X12550000Y34670000D02*
X10210000Y32330000D01*
X41000000Y38750000D02*
X29450000Y38750000D01*
X23050000Y45150000D02*
X15250000Y45150000D01*
X15250000Y45150000D02*
X12550000Y42450000D01*
%TO.N,GPIO12*%
X30100000Y39350000D02*
X39350000Y39350000D01*
X11950000Y42750000D02*
X14950000Y45750000D01*
X11950000Y36610000D02*
X11950000Y42750000D01*
X23700000Y45750000D02*
X30100000Y39350000D01*
X39350000Y39350000D02*
X41000000Y41000000D01*
X14950000Y45750000D02*
X23700000Y45750000D01*
X10210000Y34870000D02*
X11950000Y36610000D01*
%TO.N,GPIO20*%
X12800000Y14550000D02*
X17100000Y18850000D01*
X12750000Y14550000D02*
X12800000Y14550000D01*
X17100000Y36400000D02*
X16250000Y37250000D01*
X17100000Y18850000D02*
X17100000Y36400000D01*
%TO.N,CS*%
X51750000Y36800000D02*
X44750000Y43800000D01*
X44750000Y43800000D02*
X41050000Y43800000D01*
X51750000Y34700000D02*
X51750000Y36800000D01*
X51750000Y34700000D02*
X50700000Y34700000D01*
X50700000Y34700000D02*
X49550000Y35850000D01*
%TO.N,SCLK*%
X52600000Y33850000D02*
X52600000Y36800000D01*
X52550000Y33800000D02*
X48893324Y33800000D01*
X52600000Y36800000D02*
X42900000Y46500000D01*
X52550000Y33800000D02*
X52600000Y33850000D01*
X42900000Y46500000D02*
X41000000Y46500000D01*
X48893324Y33800000D02*
X48693324Y34000000D01*
%TO.N,MOSI*%
X53400000Y36850000D02*
X41250000Y49000000D01*
X51750000Y32900000D02*
X52852082Y32900000D01*
X50700000Y32900000D02*
X49700000Y31900000D01*
X41250000Y49000000D02*
X40995000Y49000000D01*
X51750000Y32900000D02*
X50700000Y32900000D01*
X52852082Y32900000D02*
X53400000Y33447918D01*
X53400000Y33447918D02*
X53400000Y36850000D01*
%TD*%
%TA.AperFunction,Conductor*%
%TO.N,GND*%
G36*
X9744075Y19822993D02*
G01*
X9710000Y19695826D01*
X9710000Y19564174D01*
X9744075Y19437007D01*
X9776988Y19380000D01*
X8935025Y19380000D01*
X8919950Y19880000D01*
X9776988Y19880000D01*
X9744075Y19822993D01*
G37*
%TD.AperFunction*%
%TA.AperFunction,Conductor*%
G36*
X12284075Y19822993D02*
G01*
X12250000Y19695826D01*
X12250000Y19564174D01*
X12284075Y19437007D01*
X12316988Y19380000D01*
X10643012Y19380000D01*
X10675925Y19437007D01*
X10710000Y19564174D01*
X10710000Y19695826D01*
X10675925Y19822993D01*
X10643012Y19880000D01*
X12316988Y19880000D01*
X12284075Y19822993D01*
G37*
%TD.AperFunction*%
%TA.AperFunction,Conductor*%
G36*
X9744075Y42682993D02*
G01*
X9710000Y42555826D01*
X9710000Y42424174D01*
X9744075Y42297007D01*
X9776988Y42240000D01*
X8921320Y42240000D01*
X8908629Y42740000D01*
X9776988Y42740000D01*
X9744075Y42682993D01*
G37*
%TD.AperFunction*%
%TA.AperFunction,Conductor*%
G36*
X45244459Y52993930D02*
G01*
X45275527Y52992264D01*
X45291674Y52984539D01*
X45309231Y52981046D01*
X45335101Y52963761D01*
X45363167Y52950332D01*
X45375127Y52937016D01*
X45390013Y52927070D01*
X45407299Y52901198D01*
X45428089Y52878053D01*
X45434043Y52861173D01*
X45443989Y52846288D01*
X45450058Y52815773D01*
X45460409Y52786432D01*
X45459450Y52768558D01*
X45462943Y52751000D01*
X45456872Y52720484D01*
X45455207Y52689416D01*
X45447481Y52673269D01*
X45443989Y52655712D01*
X45413275Y52601776D01*
X45406204Y52592332D01*
X45355908Y52457482D01*
X45349500Y52397877D01*
X45349500Y50602135D01*
X45349501Y50602131D01*
X45355908Y50542520D01*
X45355909Y50542516D01*
X45395547Y50436241D01*
X45406204Y50407669D01*
X45492454Y50292454D01*
X45607669Y50206204D01*
X45742517Y50155909D01*
X45802127Y50149500D01*
X47597872Y50149501D01*
X47602227Y50149970D01*
X47615272Y50149999D01*
X47615389Y50149976D01*
X47615840Y50150000D01*
X49117577Y50150000D01*
X49130296Y50149500D01*
X49133713Y50149500D01*
X49349704Y50149500D01*
X49362423Y50150000D01*
X51670556Y50150000D01*
X51673713Y50149500D01*
X51886287Y50149500D01*
X51889444Y50150000D01*
X54049999Y50150000D01*
X54050000Y50150000D01*
X54050000Y50150001D01*
X54070000Y50170001D01*
X54070000Y51066988D01*
X54127007Y51034075D01*
X54254174Y51000000D01*
X54385826Y51000000D01*
X54512993Y51034075D01*
X54570000Y51066988D01*
X54570000Y50172771D01*
X54636129Y50183244D01*
X54838212Y50248903D01*
X54838225Y50248909D01*
X55027553Y50345377D01*
X55199462Y50470276D01*
X55349724Y50620538D01*
X55474623Y50792447D01*
X55571091Y50981775D01*
X55571097Y50981788D01*
X55636756Y51183871D01*
X55647230Y51250000D01*
X54753012Y51250000D01*
X54785925Y51307007D01*
X54820000Y51434174D01*
X54820000Y51565826D01*
X54785925Y51692993D01*
X54753012Y51750000D01*
X55650000Y51750000D01*
X55650000Y52751000D01*
X55668954Y52846288D01*
X55722930Y52927070D01*
X55803712Y52981046D01*
X55899000Y53000000D01*
X63601000Y53000000D01*
X63696288Y52981046D01*
X63777070Y52927070D01*
X63831046Y52846288D01*
X63850000Y52751000D01*
X63850000Y48677178D01*
X63854719Y48633274D01*
X66397154Y51175707D01*
X66397192Y51175734D01*
X66397217Y51175769D01*
X66437398Y51202598D01*
X66477936Y51229683D01*
X66477978Y51229692D01*
X66478017Y51229717D01*
X66526181Y51239280D01*
X66573224Y51248637D01*
X66573267Y51248629D01*
X66573312Y51248637D01*
X66620702Y51239193D01*
X66668512Y51229683D01*
X66668549Y51229658D01*
X66668594Y51229649D01*
X66708227Y51203147D01*
X66749294Y51175707D01*
X66749356Y51175644D01*
X66749999Y51175001D01*
X66750643Y51175644D01*
X66831405Y51229649D01*
X66926687Y51248637D01*
X67021982Y51229717D01*
X67102782Y51175769D01*
X67102845Y51175707D01*
X69645280Y48633273D01*
X69649999Y48677171D01*
X69650000Y48677173D01*
X69650000Y50637423D01*
X69668954Y50732711D01*
X69722930Y50813493D01*
X69803712Y50867469D01*
X69899000Y50886423D01*
X69994288Y50867469D01*
X70045356Y50838870D01*
X70213567Y50716657D01*
X70424008Y50609432D01*
X70648632Y50536447D01*
X70881908Y50499500D01*
X70881912Y50499500D01*
X71118088Y50499500D01*
X71118092Y50499500D01*
X71351368Y50536447D01*
X71575992Y50609432D01*
X71786433Y50716657D01*
X71954642Y50838869D01*
X72042871Y50879543D01*
X72139951Y50883358D01*
X72231101Y50849731D01*
X72302445Y50783782D01*
X72343120Y50695552D01*
X72350000Y50637423D01*
X72350000Y48677178D01*
X72354719Y48633274D01*
X74897154Y51175707D01*
X74897192Y51175734D01*
X74897217Y51175769D01*
X74937398Y51202598D01*
X74977936Y51229683D01*
X74977978Y51229692D01*
X74978017Y51229717D01*
X75026181Y51239280D01*
X75073224Y51248637D01*
X75073267Y51248629D01*
X75073312Y51248637D01*
X75120702Y51239193D01*
X75168512Y51229683D01*
X75168549Y51229658D01*
X75168594Y51229649D01*
X75208227Y51203147D01*
X75249294Y51175707D01*
X75249356Y51175644D01*
X75249999Y51175001D01*
X75250643Y51175644D01*
X75331405Y51229649D01*
X75426687Y51248637D01*
X75521982Y51229717D01*
X75602782Y51175769D01*
X75602845Y51175707D01*
X78156213Y48622340D01*
X78181613Y48625992D01*
X78275750Y48601965D01*
X78353527Y48543742D01*
X78375322Y48515686D01*
X78524146Y48292956D01*
X78754803Y48011899D01*
X79011899Y47754803D01*
X79292956Y47524146D01*
X79292968Y47524138D01*
X79595264Y47322149D01*
X79595274Y47322143D01*
X79915915Y47150758D01*
X79915926Y47150752D01*
X79983106Y47122926D01*
X80251836Y47011614D01*
X80251848Y47011611D01*
X80251849Y47011610D01*
X80599748Y46906075D01*
X80599758Y46906073D01*
X80599767Y46906070D01*
X80956369Y46835138D01*
X81318206Y46799500D01*
X81318209Y46799500D01*
X81681790Y46799500D01*
X81681794Y46799500D01*
X81681797Y46799501D01*
X81685860Y46799700D01*
X81698081Y46800000D01*
X81880172Y46800000D01*
X81883922Y46799255D01*
X81891497Y46800000D01*
X83751000Y46800000D01*
X83846288Y46781046D01*
X83927070Y46727070D01*
X83981046Y46646288D01*
X84000000Y46551000D01*
X84000000Y26124638D01*
X83981046Y26029350D01*
X83927070Y25948568D01*
X83846288Y25894592D01*
X83751000Y25875638D01*
X83655712Y25894592D01*
X83584095Y25942444D01*
X83583489Y25941705D01*
X83575987Y25947862D01*
X83574933Y25948566D01*
X83574035Y25949464D01*
X83500735Y25998442D01*
X83426549Y26048012D01*
X83426547Y26048013D01*
X83262666Y26115894D01*
X83262661Y26115895D01*
X83262659Y26115896D01*
X83088695Y26150500D01*
X83088691Y26150500D01*
X82911309Y26150500D01*
X82911304Y26150500D01*
X82737340Y26115896D01*
X82737336Y26115895D01*
X82737334Y26115894D01*
X82686773Y26094951D01*
X82573450Y26048012D01*
X82425968Y25949467D01*
X82300533Y25824032D01*
X82201988Y25676550D01*
X82134104Y25512660D01*
X82099500Y25338696D01*
X82099500Y25161305D01*
X82134104Y24987341D01*
X82134105Y24987339D01*
X82134106Y24987334D01*
X82159526Y24925965D01*
X82201988Y24823451D01*
X82300533Y24675969D01*
X82300536Y24675965D01*
X82425965Y24550536D01*
X82573453Y24451987D01*
X82737334Y24384106D01*
X82911309Y24349500D01*
X83088691Y24349500D01*
X83262666Y24384106D01*
X83426547Y24451987D01*
X83574035Y24550536D01*
X83574933Y24551435D01*
X83575987Y24552139D01*
X83583489Y24558295D01*
X83584095Y24557557D01*
X83655712Y24605408D01*
X83751000Y24624362D01*
X83846288Y24605408D01*
X83927070Y24551432D01*
X83981046Y24470650D01*
X84000000Y24375362D01*
X84000000Y7449000D01*
X83981046Y7353712D01*
X83927070Y7272930D01*
X83846288Y7218954D01*
X83751000Y7200000D01*
X81698081Y7200000D01*
X81685860Y7200300D01*
X81681797Y7200500D01*
X81681794Y7200500D01*
X81318206Y7200500D01*
X81318205Y7200500D01*
X80956374Y7164863D01*
X80599761Y7093929D01*
X80599748Y7093926D01*
X80251849Y6988391D01*
X80251828Y6988383D01*
X79915926Y6849249D01*
X79915915Y6849243D01*
X79595274Y6677858D01*
X79595264Y6677852D01*
X79292968Y6475863D01*
X79292957Y6475855D01*
X79011902Y6245200D01*
X78754800Y5988098D01*
X78524145Y5707043D01*
X78524137Y5707032D01*
X78322148Y5404736D01*
X78322142Y5404726D01*
X78150757Y5084085D01*
X78150751Y5084074D01*
X78011617Y4748172D01*
X78011609Y4748151D01*
X77906074Y4400252D01*
X77906071Y4400239D01*
X77835137Y4043626D01*
X77799500Y3681795D01*
X77799500Y3318208D01*
X77799700Y3314137D01*
X77800000Y3301917D01*
X77800000Y1249000D01*
X77781046Y1153712D01*
X77727070Y1072930D01*
X77646288Y1018954D01*
X77551000Y1000000D01*
X32849000Y1000000D01*
X32753712Y1018954D01*
X32672930Y1072930D01*
X32618954Y1153712D01*
X32600000Y1249000D01*
X32600000Y2209184D01*
X32603066Y2248137D01*
X32625499Y2389770D01*
X32625500Y2389781D01*
X32625500Y2610218D01*
X32625500Y2610222D01*
X32591015Y2827951D01*
X32522895Y3037606D01*
X32522891Y3037614D01*
X32522890Y3037617D01*
X32422820Y3234014D01*
X32422816Y3234019D01*
X32422815Y3234022D01*
X32293242Y3412365D01*
X32222930Y3482677D01*
X32168954Y3563459D01*
X32150000Y3658747D01*
X32150000Y5250987D01*
X32153066Y5289940D01*
X32162162Y5347372D01*
X32175500Y5431583D01*
X32175500Y5628417D01*
X32144709Y5822826D01*
X32083884Y6010025D01*
X31994524Y6185405D01*
X31878828Y6344646D01*
X31739646Y6483828D01*
X31739642Y6483831D01*
X31580410Y6599521D01*
X31580407Y6599523D01*
X31580405Y6599524D01*
X31405025Y6688884D01*
X31405024Y6688885D01*
X31405023Y6688885D01*
X31405017Y6688887D01*
X31243312Y6741428D01*
X31217826Y6749709D01*
X31217824Y6749710D01*
X31217822Y6749710D01*
X31039262Y6777991D01*
X30979602Y6800000D01*
X30950000Y6800000D01*
X26100000Y6800000D01*
X25974926Y6800000D01*
X25945871Y6781441D01*
X25894297Y6767468D01*
X25782177Y6749710D01*
X25594982Y6688887D01*
X25594976Y6688885D01*
X25573325Y6677853D01*
X25419595Y6599524D01*
X25419592Y6599523D01*
X25419590Y6599521D01*
X25419589Y6599521D01*
X25260357Y6483831D01*
X25121169Y6344643D01*
X25005479Y6185411D01*
X25005479Y6185410D01*
X25005477Y6185408D01*
X25005476Y6185405D01*
X24962602Y6101260D01*
X24916115Y6010024D01*
X24916113Y6010018D01*
X24855290Y5822823D01*
X24824501Y5628429D01*
X24824500Y5628413D01*
X24824500Y5431588D01*
X24824501Y5431575D01*
X24846934Y5289940D01*
X24850000Y5250987D01*
X24850000Y3658747D01*
X24831046Y3563459D01*
X24777070Y3482677D01*
X24706759Y3412367D01*
X24577184Y3234021D01*
X24577179Y3234014D01*
X24477109Y3037617D01*
X24477105Y3037608D01*
X24477105Y3037606D01*
X24408985Y2827951D01*
X24408984Y2827948D01*
X24408984Y2827946D01*
X24408982Y2827939D01*
X24374501Y2610233D01*
X24374500Y2610218D01*
X24374500Y2389770D01*
X24396934Y2248137D01*
X24400000Y2209184D01*
X24400000Y1249000D01*
X24381046Y1153712D01*
X24327070Y1072930D01*
X24246288Y1018954D01*
X24151000Y1000000D01*
X7449000Y1000000D01*
X7353712Y1018954D01*
X7272930Y1072930D01*
X7218954Y1153712D01*
X7200000Y1249000D01*
X7200000Y3301917D01*
X7200300Y3314137D01*
X7200500Y3318208D01*
X7200500Y3681791D01*
X7200500Y3681794D01*
X7164862Y4043631D01*
X7093930Y4400233D01*
X7093927Y4400243D01*
X7093925Y4400252D01*
X6988390Y4748151D01*
X6988389Y4748152D01*
X6988386Y4748164D01*
X6849247Y5084076D01*
X6799515Y5177119D01*
X6799514Y5177122D01*
X6740337Y5287833D01*
X8860000Y5287833D01*
X8860000Y4640001D01*
X8860001Y4640000D01*
X9776988Y4640000D01*
X9744075Y4582993D01*
X9710000Y4455826D01*
X9710000Y4324174D01*
X9744075Y4197007D01*
X9776988Y4140000D01*
X8860001Y4140000D01*
X8860000Y4139999D01*
X8860000Y3492168D01*
X8866401Y3432629D01*
X8866403Y3432622D01*
X8916646Y3297913D01*
X9002810Y3182813D01*
X9002812Y3182811D01*
X9117912Y3096647D01*
X9252621Y3046404D01*
X9252628Y3046402D01*
X9312167Y3040001D01*
X9312175Y3040000D01*
X9959999Y3040000D01*
X9960000Y3040001D01*
X9960000Y3956988D01*
X10017007Y3924075D01*
X10144174Y3890000D01*
X10275826Y3890000D01*
X10402993Y3924075D01*
X10460000Y3956988D01*
X10460000Y3040001D01*
X10460001Y3040000D01*
X11107825Y3040000D01*
X11107832Y3040001D01*
X11167371Y3046402D01*
X11167378Y3046404D01*
X11302087Y3096647D01*
X11417187Y3182811D01*
X11417189Y3182813D01*
X11514026Y3312169D01*
X11517159Y3309824D01*
X11558346Y3359136D01*
X11644421Y3404194D01*
X11741187Y3412883D01*
X11833912Y3383880D01*
X11861659Y3364775D01*
X11862293Y3365647D01*
X11870206Y3359898D01*
X11870208Y3359896D01*
X12042184Y3234949D01*
X12231588Y3138443D01*
X12433757Y3072754D01*
X12507601Y3061059D01*
X12643703Y3039501D01*
X12643710Y3039501D01*
X12643713Y3039500D01*
X12643716Y3039500D01*
X12856284Y3039500D01*
X12856287Y3039500D01*
X12856290Y3039501D01*
X12856296Y3039501D01*
X12955476Y3055211D01*
X13066243Y3072754D01*
X13268412Y3138443D01*
X13457816Y3234949D01*
X13629792Y3359896D01*
X13780104Y3510208D01*
X13905051Y3682184D01*
X14001557Y3871588D01*
X14067246Y4073757D01*
X14100500Y4283713D01*
X14100500Y4496287D01*
X14100499Y4496290D01*
X14100499Y4496297D01*
X14067246Y4706241D01*
X14067246Y4706243D01*
X14001557Y4908412D01*
X13905051Y5097816D01*
X13780104Y5269792D01*
X13629792Y5420104D01*
X13457816Y5545051D01*
X13268412Y5641557D01*
X13268409Y5641558D01*
X13268407Y5641559D01*
X13066240Y5707247D01*
X12856296Y5740500D01*
X12856287Y5740500D01*
X12643713Y5740500D01*
X12643703Y5740500D01*
X12433759Y5707247D01*
X12231592Y5641559D01*
X12042182Y5545050D01*
X11955522Y5482088D01*
X11870208Y5420104D01*
X11870206Y5420103D01*
X11862293Y5414353D01*
X11860691Y5416557D01*
X11791403Y5377825D01*
X11694912Y5366482D01*
X11601426Y5392928D01*
X11525176Y5453136D01*
X11514708Y5468343D01*
X11514026Y5467831D01*
X11417189Y5597188D01*
X11417187Y5597190D01*
X11302087Y5683354D01*
X11167378Y5733597D01*
X11167371Y5733599D01*
X11107832Y5740000D01*
X10460001Y5740000D01*
X10460000Y5739999D01*
X10460000Y4823012D01*
X10402993Y4855925D01*
X10275826Y4890000D01*
X10144174Y4890000D01*
X10017007Y4855925D01*
X9960000Y4823012D01*
X9960000Y5739999D01*
X9959999Y5740000D01*
X9312167Y5740000D01*
X9252628Y5733599D01*
X9252621Y5733597D01*
X9117912Y5683354D01*
X9002812Y5597190D01*
X9002810Y5597188D01*
X8916646Y5482088D01*
X8866403Y5347379D01*
X8866401Y5347372D01*
X8860000Y5287833D01*
X6740337Y5287833D01*
X6677857Y5404725D01*
X6677851Y5404736D01*
X6475862Y5707032D01*
X6475854Y5707044D01*
X6245197Y5988101D01*
X5988101Y6245197D01*
X5707044Y6475854D01*
X5707031Y6475863D01*
X5404735Y6677852D01*
X5404725Y6677858D01*
X5084084Y6849243D01*
X5084073Y6849249D01*
X4748171Y6988383D01*
X4748164Y6988386D01*
X4748159Y6988388D01*
X4748150Y6988391D01*
X4400251Y7093926D01*
X4400238Y7093929D01*
X4400233Y7093930D01*
X4043631Y7164862D01*
X4043629Y7164863D01*
X4043625Y7164863D01*
X3681794Y7200500D01*
X3318206Y7200500D01*
X3318202Y7200500D01*
X3314140Y7200300D01*
X3301919Y7200000D01*
X2624679Y7200000D01*
X2529391Y7218954D01*
X2448609Y7272930D01*
X2394633Y7353712D01*
X2375679Y7449000D01*
X2392835Y7539825D01*
X2399671Y7557276D01*
X2410225Y7575555D01*
X2454682Y7697700D01*
X2455775Y7700489D01*
X2455934Y7700738D01*
X2457564Y7704929D01*
X2459256Y7709013D01*
X2459258Y7709027D01*
X2459557Y7710009D01*
X2463848Y7722884D01*
X2470101Y7740062D01*
X2500500Y7912468D01*
X2500500Y8000000D01*
X2500500Y8000500D01*
X2500500Y22325036D01*
X8850000Y22325036D01*
X8850000Y22200000D01*
X8850000Y19379999D01*
X8850000Y12188436D01*
X8860323Y12136538D01*
X8860319Y12135127D01*
X8860238Y12120951D01*
X8859500Y12116287D01*
X8859500Y11990626D01*
X8859496Y11989920D01*
X8850000Y11943557D01*
X8850000Y9397757D01*
X8855932Y9373054D01*
X8857969Y9373376D01*
X8892753Y9153760D01*
X8892754Y9153757D01*
X8958443Y8951588D01*
X9054949Y8762184D01*
X9179896Y8590208D01*
X9330208Y8439896D01*
X9502184Y8314949D01*
X9691588Y8218443D01*
X9893757Y8152754D01*
X9967601Y8141059D01*
X10103703Y8119501D01*
X10103710Y8119501D01*
X10103713Y8119500D01*
X10103716Y8119500D01*
X10316284Y8119500D01*
X10316287Y8119500D01*
X10316291Y8119501D01*
X10316295Y8119501D01*
X10489497Y8146934D01*
X10528450Y8150000D01*
X11950000Y8150000D01*
X11987530Y8180025D01*
X12073775Y8224750D01*
X12170573Y8233066D01*
X12221773Y8219899D01*
X12222283Y8221466D01*
X12301857Y8195612D01*
X12433757Y8152754D01*
X12507601Y8141059D01*
X12643703Y8119501D01*
X12643710Y8119501D01*
X12643713Y8119500D01*
X12643716Y8119500D01*
X12856284Y8119500D01*
X12856287Y8119500D01*
X12856290Y8119501D01*
X12856296Y8119501D01*
X12955476Y8135211D01*
X13066243Y8152754D01*
X13268412Y8218443D01*
X13457816Y8314949D01*
X13629792Y8439896D01*
X13780104Y8590208D01*
X13905051Y8762184D01*
X14001557Y8951588D01*
X14067246Y9153757D01*
X14100500Y9363713D01*
X14100500Y9576287D01*
X14097201Y9597113D01*
X14071909Y9756807D01*
X14075723Y9853887D01*
X14116398Y9942117D01*
X14141767Y9971823D01*
X18805276Y14635330D01*
X18876465Y14741873D01*
X18925501Y14860256D01*
X18926692Y14866243D01*
X18950500Y14985931D01*
X18950500Y19338696D01*
X58099500Y19338696D01*
X58099500Y19161305D01*
X58134104Y18987341D01*
X58134105Y18987339D01*
X58134106Y18987334D01*
X58201987Y18823453D01*
X58300536Y18675965D01*
X58425965Y18550536D01*
X58573453Y18451987D01*
X58737334Y18384106D01*
X58809369Y18369778D01*
X58909347Y18349890D01*
X58909348Y18349891D01*
X58911309Y18349500D01*
X59088691Y18349500D01*
X59091139Y18349987D01*
X59115593Y18350000D01*
X59115637Y18349992D01*
X59115726Y18350000D01*
X61144000Y18350000D01*
X61154184Y18349500D01*
X61161309Y18349500D01*
X61338691Y18349500D01*
X61512666Y18384106D01*
X61676547Y18451987D01*
X61824035Y18550536D01*
X61949464Y18675965D01*
X62048013Y18823453D01*
X62115894Y18987334D01*
X62146002Y19138696D01*
X79599500Y19138696D01*
X79599500Y18961305D01*
X79634104Y18787341D01*
X79634105Y18787339D01*
X79634106Y18787334D01*
X79701987Y18623453D01*
X79800536Y18475965D01*
X79925965Y18350536D01*
X80073453Y18251987D01*
X80237334Y18184106D01*
X80411309Y18149500D01*
X80588691Y18149500D01*
X80762666Y18184106D01*
X80926547Y18251987D01*
X81074035Y18350536D01*
X81199464Y18475965D01*
X81298013Y18623453D01*
X81365894Y18787334D01*
X81400500Y18961309D01*
X81400500Y19138691D01*
X81365894Y19312666D01*
X81298013Y19476547D01*
X81199464Y19624035D01*
X81074035Y19749464D01*
X81074031Y19749467D01*
X80926549Y19848012D01*
X80926547Y19848013D01*
X80762666Y19915894D01*
X80762661Y19915895D01*
X80762659Y19915896D01*
X80588695Y19950500D01*
X80588691Y19950500D01*
X80411309Y19950500D01*
X80411304Y19950500D01*
X80237340Y19915896D01*
X80237336Y19915895D01*
X80237334Y19915894D01*
X80128080Y19870640D01*
X80073450Y19848012D01*
X79925968Y19749467D01*
X79800533Y19624032D01*
X79701988Y19476550D01*
X79688707Y19444485D01*
X79661997Y19380000D01*
X79634104Y19312660D01*
X79599500Y19138696D01*
X62146002Y19138696D01*
X62150500Y19161309D01*
X62150500Y19338691D01*
X62115894Y19512666D01*
X62048013Y19676547D01*
X61949464Y19824035D01*
X61824035Y19949464D01*
X61822485Y19950500D01*
X61676549Y20048012D01*
X61676547Y20048013D01*
X61512666Y20115894D01*
X61512661Y20115895D01*
X61512659Y20115896D01*
X61338695Y20150500D01*
X61338691Y20150500D01*
X61161309Y20150500D01*
X61154184Y20150500D01*
X61144000Y20150000D01*
X59115732Y20150000D01*
X59115095Y20150001D01*
X59090888Y20150063D01*
X59088691Y20150500D01*
X58911309Y20150500D01*
X58911304Y20150500D01*
X58737340Y20115896D01*
X58737336Y20115895D01*
X58737334Y20115894D01*
X58628080Y20070640D01*
X58573450Y20048012D01*
X58425968Y19949467D01*
X58300533Y19824032D01*
X58201988Y19676550D01*
X58201987Y19676547D01*
X58136074Y19517415D01*
X58134104Y19512660D01*
X58099500Y19338696D01*
X18950500Y19338696D01*
X18950500Y25588696D01*
X51349500Y25588696D01*
X51349500Y25411305D01*
X51384104Y25237341D01*
X51384105Y25237339D01*
X51384106Y25237334D01*
X51415598Y25161305D01*
X51451988Y25073451D01*
X51509530Y24987334D01*
X51550536Y24925965D01*
X51675965Y24800536D01*
X51823453Y24701987D01*
X51987334Y24634106D01*
X52161309Y24599500D01*
X52338691Y24599500D01*
X52512666Y24634106D01*
X52676547Y24701987D01*
X52824035Y24800536D01*
X52949464Y24925965D01*
X53048013Y25073453D01*
X53115894Y25237334D01*
X53150500Y25411309D01*
X53150500Y25588691D01*
X53115894Y25762666D01*
X53048013Y25926547D01*
X52949464Y26074035D01*
X52824035Y26199464D01*
X52793454Y26219898D01*
X52676549Y26298012D01*
X52676547Y26298013D01*
X52512666Y26365894D01*
X52512661Y26365895D01*
X52512659Y26365896D01*
X52338695Y26400500D01*
X52338691Y26400500D01*
X52161309Y26400500D01*
X52161304Y26400500D01*
X51987340Y26365896D01*
X51987336Y26365895D01*
X51987334Y26365894D01*
X51878080Y26320640D01*
X51823450Y26298012D01*
X51675968Y26199467D01*
X51550533Y26074032D01*
X51451988Y25926550D01*
X51443643Y25906402D01*
X51409525Y25824032D01*
X51384104Y25762660D01*
X51349500Y25588696D01*
X18950500Y25588696D01*
X18950500Y29588696D01*
X79599500Y29588696D01*
X79599500Y29411305D01*
X79634104Y29237341D01*
X79634105Y29237339D01*
X79634106Y29237334D01*
X79701987Y29073453D01*
X79800536Y28925965D01*
X79925965Y28800536D01*
X80073453Y28701987D01*
X80237334Y28634106D01*
X80411309Y28599500D01*
X80588691Y28599500D01*
X80762666Y28634106D01*
X80926547Y28701987D01*
X81074035Y28800536D01*
X81199464Y28925965D01*
X81298013Y29073453D01*
X81365894Y29237334D01*
X81400500Y29411309D01*
X81400500Y29588691D01*
X81365894Y29762666D01*
X81298013Y29926547D01*
X81199464Y30074035D01*
X81074035Y30199464D01*
X81074031Y30199467D01*
X80926549Y30298012D01*
X80926547Y30298013D01*
X80762666Y30365894D01*
X80762661Y30365895D01*
X80762659Y30365896D01*
X80588695Y30400500D01*
X80588691Y30400500D01*
X80411309Y30400500D01*
X80411304Y30400500D01*
X80237340Y30365896D01*
X80237336Y30365895D01*
X80237334Y30365894D01*
X80128080Y30320640D01*
X80073450Y30298012D01*
X79925968Y30199467D01*
X79800533Y30074032D01*
X79701988Y29926550D01*
X79634104Y29762660D01*
X79599500Y29588696D01*
X18950500Y29588696D01*
X18950500Y37314679D01*
X18925501Y37440354D01*
X18876465Y37558737D01*
X18805276Y37665280D01*
X17823430Y38647126D01*
X17769454Y38727908D01*
X17750500Y38823196D01*
X17750500Y41464070D01*
X17750499Y41464072D01*
X17733970Y41547166D01*
X17725501Y41589744D01*
X17690775Y41673580D01*
X17676466Y41708126D01*
X17605277Y41814669D01*
X17221063Y42198883D01*
X17167087Y42279665D01*
X17155216Y42327157D01*
X17152887Y42326693D01*
X17120204Y42491000D01*
X17115894Y42512666D01*
X17048013Y42676547D01*
X16949464Y42824035D01*
X16824035Y42949464D01*
X16824031Y42949467D01*
X16676549Y43048012D01*
X16652129Y43058127D01*
X16512666Y43115894D01*
X16512661Y43115895D01*
X16512659Y43115896D01*
X16338695Y43150500D01*
X16338691Y43150500D01*
X16161309Y43150500D01*
X16161304Y43150500D01*
X15987340Y43115896D01*
X15987336Y43115895D01*
X15987334Y43115894D01*
X15889816Y43075501D01*
X15823450Y43048012D01*
X15675968Y42949467D01*
X15550533Y42824032D01*
X15451988Y42676550D01*
X15435593Y42636967D01*
X15401984Y42555826D01*
X15384104Y42512660D01*
X15349500Y42338696D01*
X15349500Y42154171D01*
X15350000Y42143998D01*
X15350000Y39841205D01*
X15349500Y39838691D01*
X15349500Y39661309D01*
X15350000Y39658796D01*
X15350000Y37356001D01*
X15349500Y37345820D01*
X15349500Y37154171D01*
X15350000Y37143998D01*
X15350000Y34606001D01*
X15349500Y34595820D01*
X15349500Y34411305D01*
X15384104Y34237341D01*
X15384105Y34237339D01*
X15384106Y34237334D01*
X15415234Y34162184D01*
X15451988Y34073450D01*
X15507535Y33990321D01*
X15544715Y33900562D01*
X15549500Y33851982D01*
X15549500Y23749000D01*
X15530546Y23653712D01*
X15476570Y23572930D01*
X15395788Y23518954D01*
X15300500Y23500000D01*
X13790187Y23500000D01*
X13723023Y23512118D01*
X13722643Y23510509D01*
X13707485Y23514091D01*
X13647873Y23520500D01*
X11852134Y23520500D01*
X11852130Y23520500D01*
X11852128Y23520499D01*
X11828283Y23517936D01*
X11792514Y23514091D01*
X11777363Y23510510D01*
X11776982Y23512119D01*
X11709815Y23500000D01*
X10465313Y23500000D01*
X10426361Y23503066D01*
X10408511Y23505894D01*
X10316293Y23520500D01*
X10316287Y23520500D01*
X10103713Y23520500D01*
X10103703Y23520500D01*
X9893759Y23487247D01*
X9691592Y23421559D01*
X9502182Y23325050D01*
X9330206Y23200103D01*
X9179897Y23049794D01*
X9054950Y22877818D01*
X8958441Y22688408D01*
X8892753Y22486243D01*
X8880174Y22406822D01*
X8870656Y22381024D01*
X8865699Y22353974D01*
X8854002Y22335883D01*
X8850000Y22325036D01*
X2500500Y22325036D01*
X2500500Y28147833D01*
X8860000Y28147833D01*
X8860000Y27500001D01*
X8860001Y27500000D01*
X9776988Y27500000D01*
X9744075Y27442993D01*
X9710000Y27315826D01*
X9710000Y27184174D01*
X9744075Y27057007D01*
X9776988Y27000000D01*
X8860001Y27000000D01*
X8860000Y26999999D01*
X8860000Y26352168D01*
X8866401Y26292629D01*
X8866403Y26292622D01*
X8916646Y26157913D01*
X9002810Y26042813D01*
X9002812Y26042811D01*
X9117912Y25956647D01*
X9252621Y25906404D01*
X9252628Y25906402D01*
X9312167Y25900001D01*
X9312175Y25900000D01*
X9959999Y25900000D01*
X9960000Y25900001D01*
X9960000Y26816988D01*
X10017007Y26784075D01*
X10144174Y26750000D01*
X10275826Y26750000D01*
X10402993Y26784075D01*
X10460000Y26816988D01*
X10460000Y25900001D01*
X10460001Y25900000D01*
X12627577Y25900000D01*
X12640296Y25899500D01*
X12643713Y25899500D01*
X12856284Y25899500D01*
X12856287Y25899500D01*
X12856290Y25899501D01*
X12856296Y25899501D01*
X12955476Y25915211D01*
X13066243Y25932754D01*
X13268412Y25998443D01*
X13457816Y26094949D01*
X13629792Y26219896D01*
X13780104Y26370208D01*
X13905051Y26542184D01*
X14001557Y26731588D01*
X14067246Y26933757D01*
X14100500Y27143713D01*
X14100500Y27356287D01*
X14100499Y27356290D01*
X14100499Y27356297D01*
X14067246Y27566241D01*
X14067246Y27566243D01*
X14001557Y27768412D01*
X13905051Y27957816D01*
X13780104Y28129792D01*
X13629792Y28280104D01*
X13457816Y28405051D01*
X13268412Y28501557D01*
X13268409Y28501558D01*
X13268407Y28501559D01*
X13066240Y28567247D01*
X12856296Y28600500D01*
X12856287Y28600500D01*
X12643713Y28600500D01*
X12640859Y28600048D01*
X12621559Y28600001D01*
X12621389Y28600035D01*
X12620953Y28600000D01*
X10460001Y28600000D01*
X10460000Y28599999D01*
X10460000Y27683012D01*
X10402993Y27715925D01*
X10275826Y27750000D01*
X10144174Y27750000D01*
X10017007Y27715925D01*
X9960000Y27683012D01*
X9960000Y28599999D01*
X9959999Y28600000D01*
X9312167Y28600000D01*
X9252628Y28593599D01*
X9252621Y28593597D01*
X9117912Y28543354D01*
X9002812Y28457190D01*
X9002810Y28457188D01*
X8916646Y28342088D01*
X8866403Y28207379D01*
X8866401Y28207372D01*
X8860000Y28147833D01*
X2500500Y28147833D01*
X2500500Y45248105D01*
X8850000Y45248105D01*
X8850000Y45050000D01*
X8850000Y35150000D01*
X8850000Y35086033D01*
X8862280Y35045625D01*
X8863492Y35021346D01*
X8863512Y35001619D01*
X8859500Y34976287D01*
X8859500Y34763713D01*
X8863783Y34736671D01*
X8863803Y34717198D01*
X8858079Y34688272D01*
X8856921Y34658808D01*
X8850000Y34643797D01*
X8850000Y32987000D01*
X8864580Y32976563D01*
X8915926Y32894085D01*
X8931802Y32798236D01*
X8919744Y32729310D01*
X8892753Y32646241D01*
X8859500Y32436297D01*
X8859500Y32223704D01*
X8892753Y32013760D01*
X8937054Y31877414D01*
X8958443Y31811588D01*
X9054949Y31622184D01*
X9179896Y31450208D01*
X9330208Y31299896D01*
X9502184Y31174949D01*
X9691588Y31078443D01*
X9893757Y31012754D01*
X9967601Y31001059D01*
X10103703Y30979501D01*
X10103710Y30979501D01*
X10103713Y30979500D01*
X10103716Y30979500D01*
X10316284Y30979500D01*
X10316287Y30979500D01*
X10316290Y30979501D01*
X10316296Y30979501D01*
X10415476Y30995211D01*
X10526243Y31012754D01*
X10728412Y31078443D01*
X10917816Y31174949D01*
X11089792Y31299896D01*
X11240104Y31450208D01*
X11365051Y31622184D01*
X11461557Y31811588D01*
X11527246Y32013757D01*
X11550151Y32158371D01*
X11560499Y32223704D01*
X11560500Y32223716D01*
X11560500Y32436285D01*
X11560499Y32436294D01*
X11547729Y32516920D01*
X11536010Y32590909D01*
X11539824Y32687986D01*
X11580498Y32776217D01*
X11605875Y32805930D01*
X12284997Y33485051D01*
X13055277Y34255331D01*
X13126465Y34361873D01*
X13138891Y34391873D01*
X13175501Y34480256D01*
X13200500Y34605931D01*
X13200500Y42077414D01*
X13219454Y42172702D01*
X13273430Y42253484D01*
X15446516Y44426570D01*
X15527298Y44480546D01*
X15622586Y44499500D01*
X22677414Y44499500D01*
X22772702Y44480546D01*
X22853484Y44426570D01*
X29035331Y38244723D01*
X29093456Y38205886D01*
X29141873Y38173535D01*
X29141875Y38173535D01*
X29141877Y38173533D01*
X29176549Y38159172D01*
X29260256Y38124499D01*
X29385929Y38099501D01*
X29385930Y38099500D01*
X29385931Y38099500D01*
X40277208Y38099500D01*
X40372496Y38080546D01*
X40414499Y38055395D01*
X40415794Y38057332D01*
X40425965Y38050536D01*
X40573453Y37951987D01*
X40737334Y37884106D01*
X40911309Y37849500D01*
X41088691Y37849500D01*
X41262666Y37884106D01*
X41426547Y37951987D01*
X41574035Y38050536D01*
X41699464Y38175965D01*
X41798013Y38323453D01*
X41865894Y38487334D01*
X41900500Y38661309D01*
X41900500Y38838691D01*
X41900500Y38845820D01*
X41900000Y38856001D01*
X41900000Y40893998D01*
X41900500Y40904171D01*
X41900500Y41088691D01*
X41900499Y41088696D01*
X41877666Y41203484D01*
X41865894Y41262666D01*
X41798013Y41426547D01*
X41699464Y41574035D01*
X41574035Y41699464D01*
X41574031Y41699467D01*
X41426549Y41798012D01*
X41386335Y41814669D01*
X41262666Y41865894D01*
X41262661Y41865895D01*
X41262659Y41865896D01*
X41088695Y41900500D01*
X41088691Y41900500D01*
X40911309Y41900500D01*
X40911304Y41900500D01*
X40737340Y41865896D01*
X40737336Y41865895D01*
X40737334Y41865894D01*
X40634871Y41823453D01*
X40573450Y41798012D01*
X40425968Y41699467D01*
X40300533Y41574032D01*
X40201988Y41426550D01*
X40184407Y41384105D01*
X40136004Y41267246D01*
X40134104Y41262660D01*
X40097113Y41076693D01*
X40093692Y41077374D01*
X40072215Y41007111D01*
X40028936Y40948884D01*
X39153484Y40073431D01*
X39072702Y40019454D01*
X38977414Y40000500D01*
X30472586Y40000500D01*
X30377298Y40019454D01*
X30296516Y40073430D01*
X24114669Y46255277D01*
X24008127Y46326466D01*
X23893148Y46374091D01*
X23889744Y46375501D01*
X23889742Y46375502D01*
X23889741Y46375502D01*
X23764071Y46400500D01*
X23764069Y46400500D01*
X14885931Y46400500D01*
X14885928Y46400500D01*
X14760257Y46375502D01*
X14744450Y46368954D01*
X14649162Y46350000D01*
X11276999Y46350000D01*
X11189984Y46365699D01*
X11167483Y46374092D01*
X11107873Y46380500D01*
X9312134Y46380500D01*
X9312130Y46380500D01*
X9312128Y46380499D01*
X9299314Y46379122D01*
X9252519Y46374092D01*
X9252515Y46374091D01*
X9117670Y46323797D01*
X9002455Y46237547D01*
X9002453Y46237545D01*
X8916204Y46122331D01*
X8865908Y45987482D01*
X8859500Y45927877D01*
X8859500Y45295982D01*
X8850329Y45249880D01*
X8850000Y45248105D01*
X2500500Y45248105D01*
X2500500Y46250207D01*
X2500500Y46337532D01*
X2494054Y46374092D01*
X2470485Y46507763D01*
X2472605Y46604895D01*
X2511734Y46693822D01*
X2581916Y46761005D01*
X2672465Y46796217D01*
X2715702Y46800000D01*
X3301919Y46800000D01*
X3314140Y46799700D01*
X3318202Y46799501D01*
X3318206Y46799500D01*
X3318210Y46799500D01*
X3681791Y46799500D01*
X3681794Y46799500D01*
X4043631Y46835138D01*
X4400233Y46906070D01*
X4400244Y46906074D01*
X4400251Y46906075D01*
X4626693Y46974767D01*
X4748164Y47011614D01*
X5084076Y47150753D01*
X5359579Y47298012D01*
X5404725Y47322143D01*
X5404735Y47322149D01*
X5444784Y47348909D01*
X5707044Y47524146D01*
X5988101Y47754803D01*
X6245197Y48011899D01*
X6475854Y48292956D01*
X6677853Y48595268D01*
X6849247Y48915924D01*
X6988386Y49251836D01*
X7041385Y49426550D01*
X7093925Y49599749D01*
X7093928Y49599762D01*
X7093930Y49599767D01*
X7164862Y49956369D01*
X7200500Y50318206D01*
X7200500Y50681794D01*
X7200499Y50681798D01*
X7200300Y50685860D01*
X7200000Y50698081D01*
X7200000Y51017833D01*
X8860000Y51017833D01*
X8860000Y50370001D01*
X8860001Y50370000D01*
X9776988Y50370000D01*
X9744075Y50312993D01*
X9710000Y50185826D01*
X9710000Y50054174D01*
X9744075Y49927007D01*
X9776988Y49870000D01*
X8860001Y49870000D01*
X8860000Y49869999D01*
X8860000Y49222168D01*
X8866401Y49162629D01*
X8866403Y49162622D01*
X8916646Y49027913D01*
X9002810Y48912813D01*
X9002812Y48912811D01*
X9117912Y48826647D01*
X9252621Y48776404D01*
X9252628Y48776402D01*
X9312167Y48770001D01*
X9312175Y48770000D01*
X9959999Y48770000D01*
X9960000Y48770001D01*
X9960000Y49686988D01*
X10017007Y49654075D01*
X10144174Y49620000D01*
X10275826Y49620000D01*
X10402993Y49654075D01*
X10460000Y49686988D01*
X10460000Y48770001D01*
X10460001Y48770000D01*
X11107825Y48770000D01*
X11107832Y48770001D01*
X11167371Y48776402D01*
X11167378Y48776404D01*
X11302087Y48826647D01*
X11417187Y48912811D01*
X11417189Y48912813D01*
X11514026Y49042169D01*
X11517159Y49039824D01*
X11558346Y49089136D01*
X11644421Y49134194D01*
X11741187Y49142883D01*
X11833912Y49113880D01*
X11861659Y49094775D01*
X11862293Y49095647D01*
X11870206Y49089898D01*
X11870208Y49089896D01*
X12042184Y48964949D01*
X12231588Y48868443D01*
X12433757Y48802754D01*
X12507601Y48791059D01*
X12643703Y48769501D01*
X12643710Y48769501D01*
X12643713Y48769500D01*
X12643716Y48769500D01*
X12856284Y48769500D01*
X12856287Y48769500D01*
X12856290Y48769501D01*
X12856296Y48769501D01*
X12955476Y48785211D01*
X13066243Y48802754D01*
X13268412Y48868443D01*
X13457816Y48964949D01*
X13628133Y49088691D01*
X40094500Y49088691D01*
X40094500Y48911309D01*
X40101175Y48877751D01*
X40101788Y48856928D01*
X40101530Y48855402D01*
X40101885Y48851974D01*
X40122102Y46729272D01*
X40117329Y46678325D01*
X40110957Y46646288D01*
X40099500Y46588691D01*
X40099500Y46411309D01*
X40111695Y46350000D01*
X40121868Y46298857D01*
X40126641Y46252651D01*
X40149489Y43853655D01*
X40149500Y43851284D01*
X40149500Y43711305D01*
X40184104Y43537341D01*
X40184105Y43537339D01*
X40184106Y43537334D01*
X40251987Y43373453D01*
X40350536Y43225965D01*
X40475965Y43100536D01*
X40623453Y43001987D01*
X40787334Y42934106D01*
X40961309Y42899500D01*
X41138691Y42899500D01*
X41312666Y42934106D01*
X41476547Y43001987D01*
X41624035Y43100536D01*
X41624034Y43100536D01*
X41634206Y43107332D01*
X41636161Y43104406D01*
X41700711Y43138839D01*
X41772792Y43149500D01*
X44377414Y43149500D01*
X44472702Y43130546D01*
X44553484Y43076570D01*
X48477070Y39152984D01*
X48531046Y39072202D01*
X48550000Y38976914D01*
X48550000Y35965851D01*
X48549500Y35955670D01*
X48549500Y35751455D01*
X48587947Y35558170D01*
X48587949Y35558165D01*
X48663365Y35376092D01*
X48663366Y35376090D01*
X48663368Y35376086D01*
X48669801Y35366459D01*
X48706982Y35276700D01*
X48706983Y35179545D01*
X48669805Y35089785D01*
X48601107Y35021085D01*
X48511348Y34983904D01*
X48511346Y34983904D01*
X48401491Y34962052D01*
X48401488Y34962051D01*
X48219415Y34886635D01*
X48219408Y34886631D01*
X48055545Y34777142D01*
X47916182Y34637779D01*
X47806693Y34473916D01*
X47806689Y34473909D01*
X47731273Y34291836D01*
X47731271Y34291831D01*
X47692824Y34098546D01*
X47692824Y33901455D01*
X47731271Y33708170D01*
X47731273Y33708165D01*
X47806689Y33526092D01*
X47806690Y33526089D01*
X47806692Y33526086D01*
X47834111Y33485051D01*
X47907977Y33374501D01*
X47916185Y33362218D01*
X48055542Y33222861D01*
X48219410Y33113368D01*
X48401489Y33037949D01*
X48401491Y33037949D01*
X48401493Y33037948D01*
X48589777Y33000496D01*
X48594783Y32999500D01*
X48783440Y32999500D01*
X48878728Y32980546D01*
X48959510Y32926570D01*
X49013486Y32845788D01*
X49032440Y32750500D01*
X49013486Y32655212D01*
X48959512Y32574434D01*
X48934579Y32549500D01*
X48922858Y32537779D01*
X48813369Y32373916D01*
X48813365Y32373909D01*
X48737949Y32191836D01*
X48737947Y32191831D01*
X48699500Y31998546D01*
X48699500Y31801455D01*
X48737947Y31608170D01*
X48737949Y31608165D01*
X48813365Y31426092D01*
X48813366Y31426089D01*
X48813368Y31426086D01*
X48922861Y31262218D01*
X49062218Y31122861D01*
X49226086Y31013368D01*
X49408165Y30937949D01*
X49408167Y30937949D01*
X49408169Y30937948D01*
X49596453Y30900496D01*
X49601459Y30899500D01*
X49798541Y30899500D01*
X49991835Y30937949D01*
X50173914Y31013368D01*
X50337782Y31122861D01*
X50477139Y31262218D01*
X50586632Y31426086D01*
X50662051Y31608165D01*
X50700500Y31801459D01*
X50700500Y31877414D01*
X50719454Y31972702D01*
X50773430Y32053483D01*
X50878317Y32158371D01*
X50959098Y32212348D01*
X51054386Y32231302D01*
X51149674Y32212348D01*
X51192719Y32189341D01*
X51323453Y32101987D01*
X51487334Y32034106D01*
X51661309Y31999500D01*
X51838691Y31999500D01*
X52012666Y32034106D01*
X52176547Y32101987D01*
X52324035Y32200536D01*
X52324034Y32200536D01*
X52334206Y32207332D01*
X52336161Y32204406D01*
X52400711Y32238839D01*
X52472792Y32249500D01*
X52916152Y32249500D01*
X52916152Y32249501D01*
X53041826Y32274499D01*
X53160209Y32323535D01*
X53208626Y32355886D01*
X53266751Y32394723D01*
X53905277Y33033249D01*
X53976465Y33139791D01*
X54025501Y33258174D01*
X54026674Y33264069D01*
X54036546Y33313696D01*
X62149500Y33313696D01*
X62149500Y33136305D01*
X62184104Y32962341D01*
X62184105Y32962339D01*
X62184106Y32962334D01*
X62248890Y32805930D01*
X62251988Y32798451D01*
X62284028Y32750500D01*
X62350536Y32650965D01*
X62475965Y32525536D01*
X62623453Y32426987D01*
X62787334Y32359106D01*
X62961309Y32324500D01*
X63138691Y32324500D01*
X63312666Y32359106D01*
X63476547Y32426987D01*
X63597095Y32507535D01*
X63619751Y32516920D01*
X63640145Y32530546D01*
X63664199Y32535331D01*
X63686855Y32544715D01*
X63735433Y32549500D01*
X63882440Y32549500D01*
X63977728Y32530546D01*
X64058506Y32476573D01*
X64112218Y32422861D01*
X64276086Y32313368D01*
X64458165Y32237949D01*
X64458167Y32237949D01*
X64458169Y32237948D01*
X64586868Y32212348D01*
X64651459Y32199500D01*
X64848541Y32199500D01*
X65041835Y32237949D01*
X65223914Y32313368D01*
X65387782Y32422861D01*
X65527139Y32562218D01*
X65636632Y32726086D01*
X65712051Y32908165D01*
X65750500Y33101459D01*
X65750500Y33298541D01*
X65737833Y33362222D01*
X65712052Y33491831D01*
X65712051Y33491833D01*
X65712051Y33491835D01*
X65636632Y33673914D01*
X65527139Y33837782D01*
X65387782Y33977139D01*
X65223914Y34086632D01*
X65223911Y34086634D01*
X65223908Y34086635D01*
X65041835Y34162051D01*
X65041830Y34162053D01*
X64848545Y34200500D01*
X64848541Y34200500D01*
X64651459Y34200500D01*
X64651454Y34200500D01*
X64458169Y34162053D01*
X64458164Y34162051D01*
X64276091Y34086635D01*
X64276084Y34086631D01*
X64112221Y33977142D01*
X64112218Y33977140D01*
X64112218Y33977139D01*
X64058506Y33923428D01*
X63977728Y33869454D01*
X63882440Y33850500D01*
X63801138Y33850500D01*
X63705850Y33869454D01*
X63634071Y33917415D01*
X63633489Y33916705D01*
X63626287Y33922615D01*
X63625071Y33923428D01*
X63624035Y33924464D01*
X63624031Y33924467D01*
X63476549Y34023012D01*
X63476547Y34023013D01*
X63312666Y34090894D01*
X63312661Y34090895D01*
X63312659Y34090896D01*
X63138695Y34125500D01*
X63138691Y34125500D01*
X62961309Y34125500D01*
X62961304Y34125500D01*
X62787340Y34090896D01*
X62787336Y34090895D01*
X62787334Y34090894D01*
X62678080Y34045640D01*
X62623450Y34023012D01*
X62475968Y33924467D01*
X62350533Y33799032D01*
X62251988Y33651550D01*
X62251987Y33651547D01*
X62185832Y33491831D01*
X62184104Y33487660D01*
X62149500Y33313696D01*
X54036546Y33313696D01*
X54050500Y33383849D01*
X54050500Y36914069D01*
X54025501Y37039744D01*
X53976465Y37158127D01*
X53957530Y37186466D01*
X53905277Y37264669D01*
X49143750Y42026196D01*
X53212000Y42026196D01*
X53212000Y41848805D01*
X53246604Y41674841D01*
X53246605Y41674839D01*
X53246606Y41674834D01*
X53314487Y41510953D01*
X53314488Y41510951D01*
X53413033Y41363469D01*
X53413036Y41363465D01*
X53538465Y41238036D01*
X53685953Y41139487D01*
X53849834Y41071606D01*
X54023809Y41037000D01*
X54201191Y41037000D01*
X54375166Y41071606D01*
X54539047Y41139487D01*
X54686535Y41238036D01*
X54811964Y41363465D01*
X54910513Y41510953D01*
X54978394Y41674834D01*
X55013000Y41848809D01*
X55013000Y42026191D01*
X54978394Y42200166D01*
X54910513Y42364047D01*
X54811964Y42511535D01*
X54686535Y42636964D01*
X54686531Y42636967D01*
X54539049Y42735512D01*
X54528214Y42740000D01*
X54375166Y42803394D01*
X54375161Y42803395D01*
X54375159Y42803396D01*
X54201195Y42838000D01*
X54201191Y42838000D01*
X54023809Y42838000D01*
X54023804Y42838000D01*
X53849840Y42803396D01*
X53849836Y42803395D01*
X53849834Y42803394D01*
X53740580Y42758140D01*
X53685950Y42735512D01*
X53538468Y42636967D01*
X53413033Y42511532D01*
X53314488Y42364050D01*
X53314487Y42364047D01*
X53275303Y42269446D01*
X53246604Y42200160D01*
X53212000Y42026196D01*
X49143750Y42026196D01*
X42916086Y48253860D01*
X64182411Y48253860D01*
X64242624Y48231402D01*
X64302167Y48225001D01*
X64302175Y48225000D01*
X69197825Y48225000D01*
X69197832Y48225001D01*
X69257371Y48231402D01*
X69257382Y48231405D01*
X69317587Y48253860D01*
X72682411Y48253860D01*
X72742624Y48231402D01*
X72802167Y48225001D01*
X72802175Y48225000D01*
X77697825Y48225000D01*
X77697832Y48225001D01*
X77757371Y48231402D01*
X77757382Y48231405D01*
X77817587Y48253860D01*
X75249999Y50821448D01*
X72682411Y48253860D01*
X69317587Y48253860D01*
X66749999Y50821448D01*
X64182411Y48253860D01*
X42916086Y48253860D01*
X41863115Y49306831D01*
X41809140Y49387611D01*
X41793013Y49426547D01*
X41694464Y49574035D01*
X41569035Y49699464D01*
X41569031Y49699467D01*
X41421549Y49798012D01*
X41421547Y49798013D01*
X41257666Y49865894D01*
X41257661Y49865895D01*
X41257659Y49865896D01*
X41083695Y49900500D01*
X41083691Y49900500D01*
X40906309Y49900500D01*
X40906304Y49900500D01*
X40732340Y49865896D01*
X40732336Y49865895D01*
X40732334Y49865894D01*
X40623080Y49820640D01*
X40568450Y49798012D01*
X40420968Y49699467D01*
X40295533Y49574032D01*
X40196988Y49426550D01*
X40129104Y49262660D01*
X40094907Y49090741D01*
X40094907Y49090738D01*
X40094500Y49088691D01*
X13628133Y49088691D01*
X13629792Y49089896D01*
X13780104Y49240208D01*
X13905051Y49412184D01*
X14001557Y49601588D01*
X14067246Y49803757D01*
X14091418Y49956369D01*
X14100499Y50013704D01*
X14100500Y50013716D01*
X14100500Y50226285D01*
X14100499Y50226297D01*
X14067246Y50436241D01*
X14067246Y50436243D01*
X14001557Y50638412D01*
X13905051Y50827816D01*
X13780104Y50999792D01*
X13629792Y51150104D01*
X13457816Y51275051D01*
X13268412Y51371557D01*
X13268409Y51371558D01*
X13268407Y51371559D01*
X13066240Y51437247D01*
X12856296Y51470500D01*
X12856287Y51470500D01*
X12643713Y51470500D01*
X12643703Y51470500D01*
X12433759Y51437247D01*
X12231592Y51371559D01*
X12042182Y51275050D01*
X11979752Y51229692D01*
X11870208Y51150104D01*
X11870206Y51150103D01*
X11862293Y51144353D01*
X11860691Y51146557D01*
X11791403Y51107825D01*
X11694912Y51096482D01*
X11601426Y51122928D01*
X11525176Y51183136D01*
X11514708Y51198343D01*
X11514026Y51197831D01*
X11417189Y51327188D01*
X11417187Y51327190D01*
X11302087Y51413354D01*
X11167378Y51463597D01*
X11167371Y51463599D01*
X11107832Y51470000D01*
X10460001Y51470000D01*
X10460000Y51469999D01*
X10460000Y50553012D01*
X10402993Y50585925D01*
X10275826Y50620000D01*
X10144174Y50620000D01*
X10017007Y50585925D01*
X9960000Y50553012D01*
X9960000Y51469999D01*
X9959999Y51470000D01*
X9312167Y51470000D01*
X9252628Y51463599D01*
X9252621Y51463597D01*
X9117912Y51413354D01*
X9002812Y51327190D01*
X9002810Y51327188D01*
X8916646Y51212088D01*
X8866403Y51077379D01*
X8866401Y51077372D01*
X8860000Y51017833D01*
X7200000Y51017833D01*
X7200000Y52751000D01*
X7218954Y52846288D01*
X7272930Y52927070D01*
X7353712Y52981046D01*
X7449000Y53000000D01*
X45213943Y53000000D01*
X45244459Y52993930D01*
G37*
%TD.AperFunction*%
%TD*%
M02*
