%TF.GenerationSoftware,KiCad,Pcbnew,7.0.10*%
%TF.CreationDate,2024-02-11T10:34:46+07:00*%
%TF.ProjectId,HV-BOARD,48562d42-4f41-4524-942e-6b696361645f,rev?*%
%TF.SameCoordinates,PX86b4dd0PY68e7780*%
%TF.FileFunction,Legend,Bot*%
%TF.FilePolarity,Positive*%
%FSLAX46Y46*%
G04 Gerber Fmt 4.6, Leading zero omitted, Abs format (unit mm)*
G04 Created by KiCad (PCBNEW 7.0.10) date 2024-02-11 10:34:46*
%MOMM*%
%LPD*%
G01*
G04 APERTURE LIST*
%ADD10C,0.150000*%
%ADD11C,0.120000*%
G04 APERTURE END LIST*
D10*
X13266666Y18187705D02*
X13266666Y17616277D01*
X13266666Y17616277D02*
X13304761Y17501991D01*
X13304761Y17501991D02*
X13380952Y17425800D01*
X13380952Y17425800D02*
X13495237Y17387705D01*
X13495237Y17387705D02*
X13571428Y17387705D01*
X12504761Y18187705D02*
X12885713Y18187705D01*
X12885713Y18187705D02*
X12923809Y17806753D01*
X12923809Y17806753D02*
X12885713Y17844848D01*
X12885713Y17844848D02*
X12809523Y17882943D01*
X12809523Y17882943D02*
X12619047Y17882943D01*
X12619047Y17882943D02*
X12542856Y17844848D01*
X12542856Y17844848D02*
X12504761Y17806753D01*
X12504761Y17806753D02*
X12466666Y17730562D01*
X12466666Y17730562D02*
X12466666Y17540086D01*
X12466666Y17540086D02*
X12504761Y17463896D01*
X12504761Y17463896D02*
X12542856Y17425800D01*
X12542856Y17425800D02*
X12619047Y17387705D01*
X12619047Y17387705D02*
X12809523Y17387705D01*
X12809523Y17387705D02*
X12885713Y17425800D01*
X12885713Y17425800D02*
X12923809Y17463896D01*
X12016666Y4687705D02*
X12016666Y4116277D01*
X12016666Y4116277D02*
X12054761Y4001991D01*
X12054761Y4001991D02*
X12130952Y3925800D01*
X12130952Y3925800D02*
X12245237Y3887705D01*
X12245237Y3887705D02*
X12321428Y3887705D01*
X11711904Y4687705D02*
X11178570Y4687705D01*
X11178570Y4687705D02*
X11521428Y3887705D01*
D11*
%TO.C,J5*%
X9090000Y18670000D02*
X9090000Y21330000D01*
X14230000Y18670000D02*
X9090000Y18670000D01*
X14230000Y18670000D02*
X14230000Y21330000D01*
X16830000Y20000000D02*
X16830000Y21330000D01*
X14230000Y21330000D02*
X9090000Y21330000D01*
X16830000Y21330000D02*
X15500000Y21330000D01*
%TO.C,J7*%
X9090000Y670000D02*
X10420000Y670000D01*
X11690000Y670000D02*
X14290000Y670000D01*
X9090000Y2000000D02*
X9090000Y670000D01*
X11690000Y3330000D02*
X11690000Y670000D01*
X11690000Y3330000D02*
X14290000Y3330000D01*
X14290000Y3330000D02*
X14290000Y670000D01*
%TD*%
M02*
