%TF.GenerationSoftware,KiCad,Pcbnew,7.0.10*%
%TF.CreationDate,2024-02-11T10:34:46+07:00*%
%TF.ProjectId,HV-BOARD,48562d42-4f41-4524-942e-6b696361645f,rev?*%
%TF.SameCoordinates,PX86b4dd0PY68e7780*%
%TF.FileFunction,Legend,Top*%
%TF.FilePolarity,Positive*%
%FSLAX46Y46*%
G04 Gerber Fmt 4.6, Leading zero omitted, Abs format (unit mm)*
G04 Created by KiCad (PCBNEW 7.0.10) date 2024-02-11 10:34:46*
%MOMM*%
%LPD*%
G01*
G04 APERTURE LIST*
%ADD10C,0.150000*%
%ADD11C,0.120000*%
%ADD12C,0.200000*%
%ADD13C,0.100000*%
G04 APERTURE END LIST*
D10*
G36*
X15594960Y3077324D02*
G01*
X8545187Y3077324D01*
X8545187Y3689158D01*
X8688044Y3689158D01*
X8696953Y3638634D01*
X8736253Y3605657D01*
X8761905Y3601134D01*
X9067857Y3601134D01*
X9067857Y3295181D01*
X9085404Y3246972D01*
X9129833Y3221320D01*
X9180357Y3230229D01*
X9213334Y3269529D01*
X9217857Y3295181D01*
X9217857Y3601134D01*
X9523810Y3601134D01*
X9572019Y3618681D01*
X9597671Y3663110D01*
X9588762Y3713634D01*
X9549462Y3746611D01*
X9523810Y3751134D01*
X9217857Y3751134D01*
X9217857Y3825527D01*
X9877667Y3825527D01*
X9884193Y3801168D01*
X9890416Y3776738D01*
X9890816Y3776451D01*
X9890944Y3775973D01*
X9911578Y3761525D01*
X9932072Y3746792D01*
X9932565Y3746830D01*
X9932970Y3746546D01*
X9958073Y3748743D01*
X9983232Y3750630D01*
X9983585Y3750976D01*
X9984077Y3751018D01*
X10005414Y3765958D01*
X10044427Y3804971D01*
X10112943Y3839229D01*
X10315628Y3839229D01*
X10384144Y3804971D01*
X10414551Y3774564D01*
X10448809Y3706048D01*
X10448809Y3503363D01*
X10414550Y3434847D01*
X10384143Y3404439D01*
X10315628Y3370181D01*
X10112943Y3370181D01*
X10044427Y3404439D01*
X10005415Y3443452D01*
X9958918Y3465134D01*
X9909363Y3451857D01*
X9879937Y3409832D01*
X9884407Y3358725D01*
X9899347Y3337388D01*
X9946966Y3289768D01*
X9948447Y3289078D01*
X9966459Y3275718D01*
X10061697Y3228099D01*
X10066150Y3227587D01*
X10069586Y3224704D01*
X10095238Y3220181D01*
X10333333Y3220181D01*
X10337546Y3221715D01*
X10341907Y3220673D01*
X10366874Y3228099D01*
X10462112Y3275718D01*
X10463236Y3276906D01*
X10481605Y3289768D01*
X10529223Y3337387D01*
X10529913Y3338869D01*
X10543272Y3356879D01*
X10590891Y3452117D01*
X10591403Y3456571D01*
X10594286Y3460006D01*
X10598809Y3485658D01*
X10598809Y3723753D01*
X10597275Y3727967D01*
X10598317Y3732328D01*
X10590891Y3757294D01*
X10543272Y3852532D01*
X10542082Y3853658D01*
X10529223Y3872024D01*
X10481604Y3919643D01*
X10480122Y3920334D01*
X10462112Y3933692D01*
X10366874Y3981311D01*
X10362420Y3981824D01*
X10358985Y3984706D01*
X10333333Y3989229D01*
X10095238Y3989229D01*
X10091024Y3987696D01*
X10086663Y3988737D01*
X10061697Y3981311D01*
X10043055Y3971991D01*
X10067874Y4220181D01*
X10476190Y4220181D01*
X10524399Y4237728D01*
X10550051Y4282157D01*
X10547393Y4297230D01*
X10734552Y4297230D01*
X10738373Y4271464D01*
X11071706Y3271464D01*
X11073048Y3269773D01*
X11073107Y3267614D01*
X11088856Y3249853D01*
X11103597Y3231278D01*
X11105710Y3230846D01*
X11107144Y3229229D01*
X11130614Y3225749D01*
X11153858Y3220992D01*
X11155757Y3222021D01*
X11157893Y3221704D01*
X11178106Y3234123D01*
X11198972Y3245421D01*
X11199765Y3247429D01*
X11201605Y3248559D01*
X11214008Y3271464D01*
X11353239Y3689158D01*
X12497568Y3689158D01*
X12506477Y3638634D01*
X12545777Y3605657D01*
X12571429Y3601134D01*
X12877381Y3601134D01*
X12877381Y3295181D01*
X12894928Y3246972D01*
X12939357Y3221320D01*
X12989881Y3230229D01*
X13022858Y3269529D01*
X13027381Y3295181D01*
X13734524Y3295181D01*
X13752071Y3246972D01*
X13796500Y3221320D01*
X13847024Y3230229D01*
X13880001Y3269529D01*
X13884524Y3295181D01*
X13884524Y3743991D01*
X14305952Y3743991D01*
X14305952Y3295181D01*
X14323499Y3246972D01*
X14367928Y3221320D01*
X14418452Y3230229D01*
X14451429Y3269529D01*
X14455952Y3295181D01*
X14455952Y4295181D01*
X14455206Y4297230D01*
X14639314Y4297230D01*
X14643135Y4271464D01*
X14976468Y3271464D01*
X14977810Y3269773D01*
X14977869Y3267614D01*
X14993618Y3249853D01*
X15008359Y3231278D01*
X15010472Y3230846D01*
X15011906Y3229229D01*
X15035376Y3225749D01*
X15058620Y3220992D01*
X15060519Y3222021D01*
X15062655Y3221704D01*
X15082868Y3234123D01*
X15103734Y3245421D01*
X15104527Y3247429D01*
X15106367Y3248559D01*
X15118770Y3271464D01*
X15452103Y4271464D01*
X15450702Y4322747D01*
X15416664Y4361133D01*
X15365916Y4368658D01*
X15322203Y4341803D01*
X15309801Y4318898D01*
X15047619Y3532352D01*
X14785437Y4318898D01*
X14753546Y4359084D01*
X14703285Y4369370D01*
X14658171Y4344941D01*
X14639314Y4297230D01*
X14455206Y4297230D01*
X14438405Y4343390D01*
X14393976Y4369042D01*
X14343452Y4360133D01*
X14310475Y4320833D01*
X14305952Y4295181D01*
X14305952Y3893991D01*
X13884524Y3893991D01*
X13884524Y4295181D01*
X13866977Y4343390D01*
X13822548Y4369042D01*
X13772024Y4360133D01*
X13739047Y4320833D01*
X13734524Y4295181D01*
X13734524Y3295181D01*
X13027381Y3295181D01*
X13027381Y3601134D01*
X13333334Y3601134D01*
X13381543Y3618681D01*
X13407195Y3663110D01*
X13398286Y3713634D01*
X13358986Y3746611D01*
X13333334Y3751134D01*
X13027381Y3751134D01*
X13027381Y4057086D01*
X13009834Y4105295D01*
X12965405Y4130947D01*
X12914881Y4122038D01*
X12881904Y4082738D01*
X12877381Y4057086D01*
X12877381Y3751134D01*
X12571429Y3751134D01*
X12523220Y3733587D01*
X12497568Y3689158D01*
X11353239Y3689158D01*
X11547341Y4271464D01*
X11545940Y4322747D01*
X11511902Y4361133D01*
X11461154Y4368658D01*
X11417441Y4341803D01*
X11405039Y4318898D01*
X11142857Y3532352D01*
X10880675Y4318898D01*
X10848784Y4359084D01*
X10798523Y4369370D01*
X10753409Y4344941D01*
X10734552Y4297230D01*
X10547393Y4297230D01*
X10541142Y4332681D01*
X10501842Y4365658D01*
X10476190Y4370181D01*
X10000000Y4370181D01*
X9985032Y4364734D01*
X9969149Y4363542D01*
X9961642Y4356220D01*
X9951791Y4352634D01*
X9943827Y4338841D01*
X9932425Y4327718D01*
X9927693Y4310898D01*
X9926139Y4308205D01*
X9926446Y4306463D01*
X9925372Y4302644D01*
X9877753Y3826454D01*
X9877875Y3825974D01*
X9877667Y3825527D01*
X9217857Y3825527D01*
X9217857Y4057086D01*
X9200310Y4105295D01*
X9155881Y4130947D01*
X9105357Y4122038D01*
X9072380Y4082738D01*
X9067857Y4057086D01*
X9067857Y3751134D01*
X8761905Y3751134D01*
X8713696Y3733587D01*
X8688044Y3689158D01*
X8545187Y3689158D01*
X8545187Y4513038D01*
X15594960Y4513038D01*
X15594960Y3077324D01*
G37*
G36*
X14197581Y18182010D02*
G01*
X14271694Y18107897D01*
X14310187Y18030910D01*
X14353571Y17857376D01*
X14353571Y17732987D01*
X14310187Y17559453D01*
X14271693Y17482466D01*
X14197581Y17408353D01*
X14083068Y17370181D01*
X13932143Y17370181D01*
X13932143Y18220181D01*
X14083068Y18220181D01*
X14197581Y18182010D01*
G37*
G36*
X16050811Y18185923D02*
G01*
X16122753Y18113981D01*
X16163095Y17952614D01*
X16163095Y17637749D01*
X16122753Y17476383D01*
X16050810Y17404439D01*
X15982295Y17370181D01*
X15827229Y17370181D01*
X15758713Y17404439D01*
X15686770Y17476383D01*
X15646429Y17637749D01*
X15646429Y17952614D01*
X15686770Y18113981D01*
X15758713Y18185923D01*
X15827229Y18220181D01*
X15982295Y18220181D01*
X16050811Y18185923D01*
G37*
G36*
X17359575Y17077324D02*
G01*
X7688044Y17077324D01*
X7688044Y17295181D01*
X9067857Y17295181D01*
X9085404Y17246972D01*
X9129833Y17221320D01*
X9180357Y17230229D01*
X9213334Y17269529D01*
X9217857Y17295181D01*
X9217857Y17743991D01*
X9639285Y17743991D01*
X9639285Y17295181D01*
X9656832Y17246972D01*
X9701261Y17221320D01*
X9751785Y17230229D01*
X9784762Y17269529D01*
X9789285Y17295181D01*
X9789285Y18295181D01*
X9788539Y18297230D01*
X9972647Y18297230D01*
X9976468Y18271464D01*
X10309801Y17271464D01*
X10311143Y17269773D01*
X10311202Y17267614D01*
X10326951Y17249853D01*
X10341692Y17231278D01*
X10343805Y17230846D01*
X10345239Y17229229D01*
X10368709Y17225749D01*
X10391953Y17220992D01*
X10393852Y17222021D01*
X10395988Y17221704D01*
X10416201Y17234123D01*
X10437067Y17245421D01*
X10437860Y17247429D01*
X10439700Y17248559D01*
X10452103Y17271464D01*
X10602866Y17723753D01*
X11686905Y17723753D01*
X11688090Y17720496D01*
X11689144Y17705563D01*
X11736763Y17515087D01*
X11738751Y17512143D01*
X11742442Y17499736D01*
X11790061Y17404498D01*
X11791247Y17403375D01*
X11804110Y17385006D01*
X11899348Y17289767D01*
X11903412Y17287872D01*
X11905759Y17284052D01*
X11928664Y17271649D01*
X12071520Y17224030D01*
X12073155Y17224075D01*
X12095238Y17220181D01*
X12190476Y17220181D01*
X12192014Y17220742D01*
X12214193Y17224030D01*
X12357050Y17271649D01*
X12360561Y17274437D01*
X12365030Y17274827D01*
X12386367Y17289768D01*
X12391780Y17295181D01*
X12734524Y17295181D01*
X12752071Y17246972D01*
X12796500Y17221320D01*
X12847024Y17230229D01*
X12880001Y17269529D01*
X12884524Y17295181D01*
X12884524Y18012765D01*
X13315834Y17257970D01*
X13321127Y17253489D01*
X13323499Y17246972D01*
X13340236Y17237309D01*
X13354987Y17224819D01*
X13361921Y17224789D01*
X13367928Y17221320D01*
X13386961Y17224677D01*
X13406289Y17224590D01*
X13411622Y17229025D01*
X13418452Y17230229D01*
X13430876Y17245036D01*
X13445736Y17257392D01*
X13446970Y17264216D01*
X13451429Y17269529D01*
X13455952Y17295181D01*
X13782143Y17295181D01*
X13788806Y17276873D01*
X13792191Y17257681D01*
X13797375Y17253331D01*
X13799690Y17246972D01*
X13816563Y17237230D01*
X13831491Y17224704D01*
X13841233Y17222987D01*
X13844119Y17221320D01*
X13847401Y17221899D01*
X13857143Y17220181D01*
X14095238Y17220181D01*
X14096776Y17220742D01*
X14118955Y17224030D01*
X14261812Y17271649D01*
X14265324Y17274437D01*
X14269791Y17274827D01*
X14291128Y17289767D01*
X14386367Y17385007D01*
X14387058Y17386490D01*
X14400415Y17404498D01*
X14448034Y17499736D01*
X14448440Y17503265D01*
X14453713Y17515087D01*
X14482070Y17628515D01*
X15496429Y17628515D01*
X15497614Y17625258D01*
X15498668Y17610325D01*
X15546287Y17419849D01*
X15550429Y17413717D01*
X15551074Y17406343D01*
X15566015Y17385006D01*
X15661253Y17289767D01*
X15662735Y17289076D01*
X15680745Y17275718D01*
X15775983Y17228099D01*
X15780436Y17227587D01*
X15783872Y17224704D01*
X15809524Y17220181D01*
X16000000Y17220181D01*
X16004213Y17221715D01*
X16008574Y17220673D01*
X16033541Y17228099D01*
X16128779Y17275718D01*
X16129904Y17276908D01*
X16148271Y17289767D01*
X16153685Y17295181D01*
X16591667Y17295181D01*
X16598330Y17276873D01*
X16601715Y17257681D01*
X16606899Y17253331D01*
X16609214Y17246972D01*
X16626087Y17237230D01*
X16641015Y17224704D01*
X16650757Y17222987D01*
X16653643Y17221320D01*
X16656925Y17221899D01*
X16666667Y17220181D01*
X17142857Y17220181D01*
X17191066Y17237728D01*
X17216718Y17282157D01*
X17207809Y17332681D01*
X17168509Y17365658D01*
X17142857Y17370181D01*
X16741667Y17370181D01*
X16741667Y17743991D01*
X17000000Y17743991D01*
X17048209Y17761538D01*
X17073861Y17805967D01*
X17064952Y17856491D01*
X17025652Y17889468D01*
X17000000Y17893991D01*
X16741667Y17893991D01*
X16741667Y18220181D01*
X17142857Y18220181D01*
X17191066Y18237728D01*
X17216718Y18282157D01*
X17207809Y18332681D01*
X17168509Y18365658D01*
X17142857Y18370181D01*
X16666667Y18370181D01*
X16648358Y18363518D01*
X16629167Y18360133D01*
X16624816Y18354949D01*
X16618458Y18352634D01*
X16608715Y18335761D01*
X16596190Y18320833D01*
X16594472Y18311091D01*
X16592806Y18308205D01*
X16593384Y18304923D01*
X16591667Y18295181D01*
X16591667Y17295181D01*
X16153685Y17295181D01*
X16243510Y17385007D01*
X16246637Y17391715D01*
X16252627Y17396060D01*
X16263237Y17419849D01*
X16310856Y17610325D01*
X16310495Y17613774D01*
X16313095Y17628515D01*
X16313095Y17961848D01*
X16311909Y17965106D01*
X16310856Y17980038D01*
X16263237Y18170514D01*
X16259095Y18176647D01*
X16258450Y18184020D01*
X16243509Y18205357D01*
X16148271Y18300595D01*
X16146789Y18301286D01*
X16128779Y18314644D01*
X16033541Y18362263D01*
X16029087Y18362776D01*
X16025652Y18365658D01*
X16000000Y18370181D01*
X15809524Y18370181D01*
X15805310Y18368648D01*
X15800949Y18369689D01*
X15775983Y18362263D01*
X15680745Y18314644D01*
X15679621Y18313458D01*
X15661253Y18300595D01*
X15566015Y18205357D01*
X15562887Y18198650D01*
X15556897Y18194303D01*
X15546287Y18170514D01*
X15498668Y17980038D01*
X15499028Y17976590D01*
X15496429Y17961848D01*
X15496429Y17628515D01*
X14482070Y17628515D01*
X14501332Y17705563D01*
X14500971Y17709012D01*
X14503571Y17723753D01*
X14503571Y17866610D01*
X14502385Y17869868D01*
X14501332Y17884800D01*
X14453713Y18075276D01*
X14451724Y18078221D01*
X14448034Y18090627D01*
X14400415Y18185865D01*
X14399228Y18186989D01*
X14386366Y18205357D01*
X14291128Y18300595D01*
X14287064Y18302490D01*
X14284717Y18306311D01*
X14261812Y18318713D01*
X14118955Y18366332D01*
X14117320Y18366288D01*
X14095238Y18370181D01*
X13857143Y18370181D01*
X13838834Y18363518D01*
X13819643Y18360133D01*
X13815292Y18354949D01*
X13808934Y18352634D01*
X13799191Y18335761D01*
X13786666Y18320833D01*
X13784948Y18311091D01*
X13783282Y18308205D01*
X13783860Y18304923D01*
X13782143Y18295181D01*
X13782143Y17295181D01*
X13455952Y17295181D01*
X13455952Y18295181D01*
X13438405Y18343390D01*
X13393976Y18369042D01*
X13343452Y18360133D01*
X13310475Y18320833D01*
X13305952Y18295181D01*
X13305952Y17577598D01*
X12874642Y18332391D01*
X12869349Y18336873D01*
X12866977Y18343390D01*
X12850237Y18353055D01*
X12835489Y18365543D01*
X12828554Y18365574D01*
X12822548Y18369042D01*
X12803514Y18365686D01*
X12784187Y18365772D01*
X12778853Y18361338D01*
X12772024Y18360133D01*
X12759599Y18345327D01*
X12744740Y18332970D01*
X12743505Y18326147D01*
X12739047Y18320833D01*
X12734524Y18295181D01*
X12734524Y17295181D01*
X12391780Y17295181D01*
X12433985Y17337387D01*
X12440903Y17352225D01*
X12451429Y17364768D01*
X12454272Y17380896D01*
X12455666Y17383884D01*
X12455143Y17385835D01*
X12455952Y17390420D01*
X12455952Y17723753D01*
X12449288Y17742062D01*
X12445904Y17761253D01*
X12440719Y17765604D01*
X12438405Y17771962D01*
X12421531Y17781705D01*
X12406604Y17794230D01*
X12396861Y17795948D01*
X12393976Y17797614D01*
X12390693Y17797036D01*
X12380952Y17798753D01*
X12190476Y17798753D01*
X12142267Y17781206D01*
X12116615Y17736777D01*
X12125524Y17686253D01*
X12164824Y17653276D01*
X12190476Y17648753D01*
X12305952Y17648753D01*
X12305952Y17421486D01*
X12292819Y17408353D01*
X12178306Y17370181D01*
X12107408Y17370181D01*
X11992895Y17408352D01*
X11918782Y17482466D01*
X11880288Y17559453D01*
X11836905Y17732987D01*
X11836905Y17857376D01*
X11880288Y18030910D01*
X11918782Y18107897D01*
X11992895Y18182010D01*
X12107408Y18220181D01*
X12220390Y18220181D01*
X12299792Y18180480D01*
X12350758Y18174615D01*
X12393571Y18202881D01*
X12408198Y18252056D01*
X12387795Y18299127D01*
X12366874Y18314644D01*
X12271636Y18362263D01*
X12267182Y18362776D01*
X12263747Y18365658D01*
X12238095Y18370181D01*
X12095238Y18370181D01*
X12093700Y18369622D01*
X12071520Y18366332D01*
X11928664Y18318713D01*
X11925153Y18315927D01*
X11920685Y18315536D01*
X11899348Y18300595D01*
X11804110Y18205357D01*
X11803419Y18203876D01*
X11790061Y18185865D01*
X11742442Y18090627D01*
X11742035Y18087099D01*
X11736763Y18075276D01*
X11689144Y17884800D01*
X11689504Y17881352D01*
X11686905Y17866610D01*
X11686905Y17723753D01*
X10602866Y17723753D01*
X10785436Y18271464D01*
X10784035Y18322747D01*
X10749997Y18361133D01*
X10699249Y18368658D01*
X10655536Y18341803D01*
X10643134Y18318898D01*
X10380952Y17532352D01*
X10118770Y18318898D01*
X10086879Y18359084D01*
X10036618Y18369370D01*
X9991504Y18344941D01*
X9972647Y18297230D01*
X9788539Y18297230D01*
X9771738Y18343390D01*
X9727309Y18369042D01*
X9676785Y18360133D01*
X9643808Y18320833D01*
X9639285Y18295181D01*
X9639285Y17893991D01*
X9217857Y17893991D01*
X9217857Y18295181D01*
X9200310Y18343390D01*
X9155881Y18369042D01*
X9105357Y18360133D01*
X9072380Y18320833D01*
X9067857Y18295181D01*
X9067857Y17295181D01*
X7688044Y17295181D01*
X7688044Y17689158D01*
X7830901Y17689158D01*
X7839810Y17638634D01*
X7879110Y17605657D01*
X7904762Y17601134D01*
X8666667Y17601134D01*
X8714876Y17618681D01*
X8740528Y17663110D01*
X8731619Y17713634D01*
X8692319Y17746611D01*
X8666667Y17751134D01*
X7904762Y17751134D01*
X7856553Y17733587D01*
X7830901Y17689158D01*
X7688044Y17689158D01*
X7688044Y18513038D01*
X17359575Y18513038D01*
X17359575Y17077324D01*
G37*
X2485714Y17463896D02*
X2447618Y17425800D01*
X2447618Y17425800D02*
X2333333Y17387705D01*
X2333333Y17387705D02*
X2257142Y17387705D01*
X2257142Y17387705D02*
X2142856Y17425800D01*
X2142856Y17425800D02*
X2066666Y17501991D01*
X2066666Y17501991D02*
X2028571Y17578181D01*
X2028571Y17578181D02*
X1990475Y17730562D01*
X1990475Y17730562D02*
X1990475Y17844848D01*
X1990475Y17844848D02*
X2028571Y17997229D01*
X2028571Y17997229D02*
X2066666Y18073420D01*
X2066666Y18073420D02*
X2142856Y18149610D01*
X2142856Y18149610D02*
X2257142Y18187705D01*
X2257142Y18187705D02*
X2333333Y18187705D01*
X2333333Y18187705D02*
X2447618Y18149610D01*
X2447618Y18149610D02*
X2485714Y18111515D01*
X3247618Y17387705D02*
X2790475Y17387705D01*
X3019047Y17387705D02*
X3019047Y18187705D01*
X3019047Y18187705D02*
X2942856Y18073420D01*
X2942856Y18073420D02*
X2866666Y17997229D01*
X2866666Y17997229D02*
X2790475Y17959134D01*
X3552380Y18111515D02*
X3590476Y18149610D01*
X3590476Y18149610D02*
X3666666Y18187705D01*
X3666666Y18187705D02*
X3857142Y18187705D01*
X3857142Y18187705D02*
X3933333Y18149610D01*
X3933333Y18149610D02*
X3971428Y18111515D01*
X3971428Y18111515D02*
X4009523Y18035324D01*
X4009523Y18035324D02*
X4009523Y17959134D01*
X4009523Y17959134D02*
X3971428Y17844848D01*
X3971428Y17844848D02*
X3514285Y17387705D01*
X3514285Y17387705D02*
X4009523Y17387705D01*
X1036104Y17735715D02*
X1074200Y17697619D01*
X1074200Y17697619D02*
X1112295Y17583334D01*
X1112295Y17583334D02*
X1112295Y17507143D01*
X1112295Y17507143D02*
X1074200Y17392857D01*
X1074200Y17392857D02*
X998009Y17316667D01*
X998009Y17316667D02*
X921819Y17278572D01*
X921819Y17278572D02*
X769438Y17240476D01*
X769438Y17240476D02*
X655152Y17240476D01*
X655152Y17240476D02*
X502771Y17278572D01*
X502771Y17278572D02*
X426580Y17316667D01*
X426580Y17316667D02*
X350390Y17392857D01*
X350390Y17392857D02*
X312295Y17507143D01*
X312295Y17507143D02*
X312295Y17583334D01*
X312295Y17583334D02*
X350390Y17697619D01*
X350390Y17697619D02*
X388485Y17735715D01*
X1112295Y18497619D02*
X1112295Y18040476D01*
X1112295Y18269048D02*
X312295Y18269048D01*
X312295Y18269048D02*
X426580Y18192857D01*
X426580Y18192857D02*
X502771Y18116667D01*
X502771Y18116667D02*
X540866Y18040476D01*
X1112295Y19259524D02*
X1112295Y18802381D01*
X1112295Y19030953D02*
X312295Y19030953D01*
X312295Y19030953D02*
X426580Y18954762D01*
X426580Y18954762D02*
X502771Y18878572D01*
X502771Y18878572D02*
X540866Y18802381D01*
X2612295Y4116667D02*
X2612295Y3735715D01*
X2612295Y3735715D02*
X1812295Y3735715D01*
X2612295Y4802381D02*
X2612295Y4345238D01*
X2612295Y4573810D02*
X1812295Y4573810D01*
X1812295Y4573810D02*
X1926580Y4497619D01*
X1926580Y4497619D02*
X2002771Y4421429D01*
X2002771Y4421429D02*
X2040866Y4345238D01*
X16985714Y3463896D02*
X16947618Y3425800D01*
X16947618Y3425800D02*
X16833333Y3387705D01*
X16833333Y3387705D02*
X16757142Y3387705D01*
X16757142Y3387705D02*
X16642856Y3425800D01*
X16642856Y3425800D02*
X16566666Y3501991D01*
X16566666Y3501991D02*
X16528571Y3578181D01*
X16528571Y3578181D02*
X16490475Y3730562D01*
X16490475Y3730562D02*
X16490475Y3844848D01*
X16490475Y3844848D02*
X16528571Y3997229D01*
X16528571Y3997229D02*
X16566666Y4073420D01*
X16566666Y4073420D02*
X16642856Y4149610D01*
X16642856Y4149610D02*
X16757142Y4187705D01*
X16757142Y4187705D02*
X16833333Y4187705D01*
X16833333Y4187705D02*
X16947618Y4149610D01*
X16947618Y4149610D02*
X16985714Y4111515D01*
X17747618Y3387705D02*
X17290475Y3387705D01*
X17519047Y3387705D02*
X17519047Y4187705D01*
X17519047Y4187705D02*
X17442856Y4073420D01*
X17442856Y4073420D02*
X17366666Y3997229D01*
X17366666Y3997229D02*
X17290475Y3959134D01*
X18014285Y4187705D02*
X18509523Y4187705D01*
X18509523Y4187705D02*
X18242857Y3882943D01*
X18242857Y3882943D02*
X18357142Y3882943D01*
X18357142Y3882943D02*
X18433333Y3844848D01*
X18433333Y3844848D02*
X18471428Y3806753D01*
X18471428Y3806753D02*
X18509523Y3730562D01*
X18509523Y3730562D02*
X18509523Y3540086D01*
X18509523Y3540086D02*
X18471428Y3463896D01*
X18471428Y3463896D02*
X18433333Y3425800D01*
X18433333Y3425800D02*
X18357142Y3387705D01*
X18357142Y3387705D02*
X18128571Y3387705D01*
X18128571Y3387705D02*
X18052380Y3425800D01*
X18052380Y3425800D02*
X18014285Y3463896D01*
X4985714Y3963896D02*
X4947618Y3925800D01*
X4947618Y3925800D02*
X4833333Y3887705D01*
X4833333Y3887705D02*
X4757142Y3887705D01*
X4757142Y3887705D02*
X4642856Y3925800D01*
X4642856Y3925800D02*
X4566666Y4001991D01*
X4566666Y4001991D02*
X4528571Y4078181D01*
X4528571Y4078181D02*
X4490475Y4230562D01*
X4490475Y4230562D02*
X4490475Y4344848D01*
X4490475Y4344848D02*
X4528571Y4497229D01*
X4528571Y4497229D02*
X4566666Y4573420D01*
X4566666Y4573420D02*
X4642856Y4649610D01*
X4642856Y4649610D02*
X4757142Y4687705D01*
X4757142Y4687705D02*
X4833333Y4687705D01*
X4833333Y4687705D02*
X4947618Y4649610D01*
X4947618Y4649610D02*
X4985714Y4611515D01*
X5747618Y3887705D02*
X5290475Y3887705D01*
X5519047Y3887705D02*
X5519047Y4687705D01*
X5519047Y4687705D02*
X5442856Y4573420D01*
X5442856Y4573420D02*
X5366666Y4497229D01*
X5366666Y4497229D02*
X5290475Y4459134D01*
X6242857Y4687705D02*
X6319047Y4687705D01*
X6319047Y4687705D02*
X6395238Y4649610D01*
X6395238Y4649610D02*
X6433333Y4611515D01*
X6433333Y4611515D02*
X6471428Y4535324D01*
X6471428Y4535324D02*
X6509523Y4382943D01*
X6509523Y4382943D02*
X6509523Y4192467D01*
X6509523Y4192467D02*
X6471428Y4040086D01*
X6471428Y4040086D02*
X6433333Y3963896D01*
X6433333Y3963896D02*
X6395238Y3925800D01*
X6395238Y3925800D02*
X6319047Y3887705D01*
X6319047Y3887705D02*
X6242857Y3887705D01*
X6242857Y3887705D02*
X6166666Y3925800D01*
X6166666Y3925800D02*
X6128571Y3963896D01*
X6128571Y3963896D02*
X6090476Y4040086D01*
X6090476Y4040086D02*
X6052380Y4192467D01*
X6052380Y4192467D02*
X6052380Y4382943D01*
X6052380Y4382943D02*
X6090476Y4535324D01*
X6090476Y4535324D02*
X6128571Y4611515D01*
X6128571Y4611515D02*
X6166666Y4649610D01*
X6166666Y4649610D02*
X6242857Y4687705D01*
X4676190Y15806753D02*
X4790476Y15768658D01*
X4790476Y15768658D02*
X4828571Y15730562D01*
X4828571Y15730562D02*
X4866667Y15654372D01*
X4866667Y15654372D02*
X4866667Y15540086D01*
X4866667Y15540086D02*
X4828571Y15463896D01*
X4828571Y15463896D02*
X4790476Y15425800D01*
X4790476Y15425800D02*
X4714286Y15387705D01*
X4714286Y15387705D02*
X4409524Y15387705D01*
X4409524Y15387705D02*
X4409524Y16187705D01*
X4409524Y16187705D02*
X4676190Y16187705D01*
X4676190Y16187705D02*
X4752381Y16149610D01*
X4752381Y16149610D02*
X4790476Y16111515D01*
X4790476Y16111515D02*
X4828571Y16035324D01*
X4828571Y16035324D02*
X4828571Y15959134D01*
X4828571Y15959134D02*
X4790476Y15882943D01*
X4790476Y15882943D02*
X4752381Y15844848D01*
X4752381Y15844848D02*
X4676190Y15806753D01*
X4676190Y15806753D02*
X4409524Y15806753D01*
X5628571Y15387705D02*
X5171428Y15387705D01*
X5400000Y15387705D02*
X5400000Y16187705D01*
X5400000Y16187705D02*
X5323809Y16073420D01*
X5323809Y16073420D02*
X5247619Y15997229D01*
X5247619Y15997229D02*
X5171428Y15959134D01*
D11*
%TO.C,C12*%
X4288748Y20660000D02*
X5711252Y20660000D01*
X4288748Y18840000D02*
X5711252Y18840000D01*
%TO.C,C11*%
X3160000Y14211252D02*
X3160000Y12788748D01*
X1340000Y14211252D02*
X1340000Y12788748D01*
%TO.C,L1*%
X1340000Y7164758D02*
X1340000Y8835242D01*
X3160000Y7164758D02*
X3160000Y8835242D01*
%TO.C,C13*%
X18461252Y1090000D02*
X17038748Y1090000D01*
X18461252Y2910000D02*
X17038748Y2910000D01*
%TO.C,C10*%
X4788748Y2910000D02*
X6211252Y2910000D01*
X4788748Y1090000D02*
X6211252Y1090000D01*
D12*
%TO.C,B1*%
X20120000Y6500000D02*
X20120000Y15000000D01*
X20120000Y15000000D02*
X18300000Y15000000D01*
X18300000Y6500000D02*
X20120000Y6500000D01*
D13*
X17580000Y17350000D02*
X17580000Y17350000D01*
X17580000Y17450000D02*
X17580000Y17450000D01*
D12*
X14300000Y15000000D02*
X10700000Y15000000D01*
X10700000Y6500000D02*
X16800000Y6500000D01*
X6700000Y15000000D02*
X4880000Y15000000D01*
X4880000Y6500000D02*
X9200000Y6500000D01*
X4880000Y15000000D02*
X4880000Y6500000D01*
D13*
X17580000Y17450000D02*
G75*
G03*
X17580000Y17350000I0J-50000D01*
G01*
X17580000Y17350000D02*
G75*
G03*
X17580000Y17450000I0J50000D01*
G01*
%TD*%
M02*
