G04 #@! TF.GenerationSoftware,KiCad,Pcbnew,10.0.4-10.0.4~ubuntu22.04.1*
G04 #@! TF.CreationDate,2026-09-12T00:20:43+02:00*
G04 #@! TF.ProjectId,panel,70616e65-6c2e-46b6-9963-61645f706362,rev?*
G04 #@! TF.SameCoordinates,PX6b0cc90PY5b8d800*
G04 #@! TF.FileFunction,Copper,L2,Bot*
G04 #@! TF.FilePolarity,Positive*
%FSLAX46Y46*%
G04 Gerber Fmt 4.6, Leading zero omitted, Abs format (unit mm)*
G04 Created by KiCad (PCBNEW 10.0.4-10.0.4~ubuntu22.04.1) date 2026-09-12 00:20:43*
%MOMM*%
%LPD*%
G01*
G04 APERTURE LIST*
G04 #@! TA.AperFunction,ComponentPad*
%ADD10R,1.700000X1.700000*%
G04 #@! TD*
G04 #@! TA.AperFunction,ComponentPad*
%ADD11O,1.700000X1.700000*%
G04 #@! TD*
G04 #@! TA.AperFunction,ComponentPad*
%ADD12C,2.000000*%
G04 #@! TD*
G04 #@! TA.AperFunction,SMDPad,CuDef*
%ADD13R,4.900000X4.800000*%
G04 #@! TD*
G04 #@! TA.AperFunction,ViaPad*
%ADD14C,0.800000*%
G04 #@! TD*
G04 #@! TA.AperFunction,ViaPad*
%ADD15C,1.000000*%
G04 #@! TD*
G04 #@! TA.AperFunction,Conductor*
%ADD16C,0.500000*%
G04 #@! TD*
G04 #@! TA.AperFunction,Conductor*
%ADD17C,1.500000*%
G04 #@! TD*
G04 #@! TA.AperFunction,Conductor*
%ADD18C,0.300000*%
G04 #@! TD*
G04 #@! TA.AperFunction,Conductor*
%ADD19C,0.200000*%
G04 #@! TD*
G04 #@! TA.AperFunction,Conductor*
%ADD20C,1.000000*%
G04 #@! TD*
G04 APERTURE END LIST*
D10*
X139999999Y-94200000D03*
D11*
X139999999Y-91660000D03*
X139999999Y-89120000D03*
X139999999Y-86580000D03*
X139999999Y-84040000D03*
X139999999Y-81500000D03*
D12*
X196999999Y-84750000D03*
D10*
X142539999Y-76420000D03*
D11*
X139999999Y-76420000D03*
D10*
X188919999Y-94000000D03*
D11*
X191459999Y-94000000D03*
D10*
X193999999Y-76000000D03*
D11*
X191459999Y-76000000D03*
X188919999Y-76000000D03*
D13*
X196525999Y-89000000D03*
X196525999Y-80500000D03*
D10*
X127750002Y-76000001D03*
D11*
X125210002Y-76000001D03*
X122670002Y-76000001D03*
D10*
X122670002Y-94000001D03*
D11*
X125210002Y-94000001D03*
D14*
X186999999Y-80750000D03*
X198199999Y-77150000D03*
X148999999Y-89750000D03*
X129500002Y-75250001D03*
X128750002Y-85500001D03*
X159499999Y-90000000D03*
X117750002Y-85500001D03*
X148749999Y-79250000D03*
X159499999Y-92000000D03*
X163499999Y-91000000D03*
X131750002Y-91750001D03*
X173999999Y-89500000D03*
X153999999Y-89250000D03*
X169499999Y-84750000D03*
X179499999Y-75750000D03*
X116500002Y-82500001D03*
X113250002Y-94750001D03*
X172999999Y-88400000D03*
X181249999Y-91500000D03*
X128750002Y-88500001D03*
X168749999Y-93000000D03*
X131750002Y-75250001D03*
X182499999Y-94000000D03*
X172999999Y-77500000D03*
X148949999Y-82100000D03*
X197499999Y-92300000D03*
X113250002Y-79500001D03*
X188499999Y-79250000D03*
X165749999Y-84750000D03*
X191499999Y-83750000D03*
X181249999Y-94000000D03*
X181249999Y-90250000D03*
X186999999Y-79250000D03*
X164749999Y-91000000D03*
X153249999Y-88500000D03*
X196249999Y-95250000D03*
X197499999Y-95250000D03*
X131750002Y-83750001D03*
X164749999Y-92250000D03*
X198749999Y-92300000D03*
X195999999Y-77150000D03*
X113250002Y-91250001D03*
X113250002Y-75250001D03*
X196249999Y-92300000D03*
X186999999Y-82250000D03*
X181249999Y-82250000D03*
X150399999Y-76450000D03*
X171249999Y-88500000D03*
X193149999Y-89300000D03*
X192999999Y-83500000D03*
X159499999Y-89000000D03*
X186999999Y-92250000D03*
X181249999Y-92750000D03*
X147749999Y-80250000D03*
X124250002Y-82500001D03*
X144499999Y-93000000D03*
X193149999Y-90450000D03*
X154749999Y-90000000D03*
X189999999Y-83000000D03*
X194999999Y-92300000D03*
X124000002Y-80000001D03*
X193149999Y-87900000D03*
X183999999Y-87000000D03*
X180249999Y-89250000D03*
X187999999Y-83000000D03*
X148999999Y-87750000D03*
X144499999Y-90500000D03*
X187049999Y-94000000D03*
X140499999Y-79000000D03*
X117750002Y-88000001D03*
X181249999Y-83250000D03*
X180499999Y-76750000D03*
X169999999Y-93000000D03*
X141999999Y-95500000D03*
X154749999Y-88500000D03*
X114500002Y-79500001D03*
X148999999Y-86750000D03*
X172749999Y-93100000D03*
X173999999Y-87500000D03*
X163499999Y-80500000D03*
X193749999Y-92300000D03*
X163749999Y-84750000D03*
X192999999Y-79250000D03*
X192999999Y-82250000D03*
X131750002Y-88000001D03*
X181249999Y-84250000D03*
X143499999Y-74500000D03*
X143749999Y-95500000D03*
X164749999Y-81750000D03*
X160649999Y-81100000D03*
X193749999Y-95250000D03*
X172999999Y-86500000D03*
X173999999Y-93100000D03*
X131750002Y-79250001D03*
X170499999Y-84750000D03*
X192999999Y-80750000D03*
X159499999Y-91000000D03*
X185499999Y-94000000D03*
X164749999Y-80500000D03*
X192249999Y-84500000D03*
X163499999Y-92250000D03*
X163499999Y-81750000D03*
X121000002Y-85500001D03*
X175749999Y-89500000D03*
X183999999Y-94000000D03*
X148999999Y-88750000D03*
X166999999Y-84750000D03*
X114250002Y-76250001D03*
X161999999Y-84750000D03*
X191499999Y-79250000D03*
X185499999Y-87000000D03*
X179499999Y-88500000D03*
X189999999Y-79250000D03*
X117500002Y-78500001D03*
X119750002Y-82500001D03*
X125000002Y-85500001D03*
X141499999Y-74500000D03*
X142249999Y-90500000D03*
X198749999Y-94500000D03*
X150049999Y-81200000D03*
X125000002Y-88000001D03*
X194999999Y-95250000D03*
X128750002Y-82000001D03*
X145249999Y-94200000D03*
X159899999Y-76500000D03*
D15*
X167649999Y-81100000D03*
D14*
X171649999Y-86850000D03*
X171749999Y-76000000D03*
X167374999Y-91650000D03*
X149449999Y-93850000D03*
X146899999Y-84250000D03*
X152949999Y-91350000D03*
X160974999Y-90050000D03*
X151199999Y-84900000D03*
X155599999Y-77700000D03*
X147999999Y-77100000D03*
X155849999Y-91850000D03*
X157599999Y-91850000D03*
X160974999Y-79650000D03*
X150049999Y-82800000D03*
X157774999Y-84975000D03*
X156349999Y-84975000D03*
X147999999Y-78150000D03*
X155849999Y-74950000D03*
X152312499Y-85037500D03*
X160974999Y-82450000D03*
X155974999Y-82350000D03*
X163349999Y-77600000D03*
X147799999Y-85300000D03*
X162449999Y-88850000D03*
X155699999Y-80050000D03*
X160974999Y-92850000D03*
X179699999Y-78500000D03*
X178749999Y-78550000D03*
D16*
X197499999Y-80088000D02*
X197499999Y-77012000D01*
X198699999Y-93238000D02*
X198699999Y-90162000D01*
X197499999Y-93038000D02*
X197499999Y-89962000D01*
X196037999Y-78350000D02*
X192961999Y-78350000D01*
X193011999Y-87700000D02*
X196087999Y-87700000D01*
X193011999Y-90350000D02*
X196087999Y-90350000D01*
X193149999Y-89300000D02*
X196225999Y-89300000D01*
X196225999Y-89300000D02*
X196525999Y-89000000D01*
X196199999Y-92938000D02*
X196199999Y-89862000D01*
X195049999Y-84588000D02*
X195049999Y-81512000D01*
X195937999Y-79500000D02*
X192861999Y-79500000D01*
D17*
X125210002Y-76000001D02*
X125210002Y-77940001D01*
D16*
X125210002Y-77940001D02*
X125200002Y-77950001D01*
X195049999Y-88038000D02*
X195049999Y-84962000D01*
X196199999Y-79988000D02*
X196199999Y-76912000D01*
X195049999Y-92938000D02*
X195049999Y-89862000D01*
X195837999Y-82000000D02*
X192761999Y-82000000D01*
X193011999Y-80750000D02*
X196087999Y-80750000D01*
X198699999Y-80288000D02*
X198699999Y-77212000D01*
X187619999Y-95300000D02*
X188999999Y-93920000D01*
X171649999Y-86850000D02*
X168999999Y-86850000D01*
X171499999Y-94750000D02*
X171499999Y-94800000D01*
X169049999Y-91650000D02*
X170849999Y-91650000D01*
X168249999Y-76200000D02*
X168999999Y-75450000D01*
X146799999Y-93600000D02*
X146799999Y-93650000D01*
X168999999Y-86850000D02*
X168249999Y-86100000D01*
X146799999Y-93600000D02*
X146199999Y-94200000D01*
X168249999Y-75450000D02*
X168249999Y-76250000D01*
X170799999Y-95300000D02*
X170999999Y-95300000D01*
X168249999Y-76250000D02*
X168249999Y-76200000D01*
X146799999Y-92650000D02*
X145699999Y-91550000D01*
X168249999Y-80500000D02*
X168249999Y-80250000D01*
X146799999Y-94200000D02*
X147349999Y-94200000D01*
X167649999Y-81100000D02*
X167649999Y-81150000D01*
X146799999Y-94200000D02*
X146799999Y-93600000D01*
X168999999Y-86850000D02*
X168849999Y-86850000D01*
X145249999Y-94200000D02*
X146199999Y-94200000D01*
X168249999Y-91650000D02*
X169049999Y-91650000D01*
X168249999Y-90750000D02*
X168249999Y-91650000D01*
X171499999Y-94800000D02*
X171999999Y-95300000D01*
X171499999Y-94500000D02*
X171499999Y-94750000D01*
X147699999Y-94200000D02*
X148799999Y-95300000D01*
X171499999Y-92300000D02*
X171499999Y-94500000D01*
X168999999Y-75450000D02*
X167499999Y-75450000D01*
X168849999Y-86850000D02*
X168249999Y-87450000D01*
X171499999Y-94800000D02*
X170999999Y-95300000D01*
X167374999Y-91650000D02*
X167749999Y-91650000D01*
X146799999Y-93650000D02*
X147349999Y-94200000D01*
X147349999Y-94200000D02*
X147699999Y-94200000D01*
X168299999Y-86850000D02*
X168249999Y-86900000D01*
X145699999Y-91550000D02*
X145699999Y-83450000D01*
X167649999Y-81100000D02*
X168249999Y-80500000D01*
X171499999Y-94750000D02*
X171499999Y-95300000D01*
X146199999Y-94200000D02*
X146799999Y-94200000D01*
X168249999Y-90750000D02*
X168249999Y-90850000D01*
X170999999Y-95300000D02*
X171999999Y-95300000D01*
X168249999Y-90850000D02*
X169049999Y-91650000D01*
X168249999Y-87450000D02*
X168249999Y-90750000D01*
X168249999Y-81750000D02*
X168249999Y-86100000D01*
X168249999Y-80250000D02*
X168249999Y-81750000D01*
X170849999Y-91650000D02*
X171499999Y-92300000D01*
X168249999Y-76200000D02*
X167499999Y-75450000D01*
X171749999Y-76000000D02*
X171199999Y-75450000D01*
X168249999Y-90775000D02*
X167374999Y-91650000D01*
X167749999Y-91650000D02*
X168249999Y-91650000D01*
X171499999Y-95300000D02*
X171549999Y-95300000D01*
X168249999Y-90500000D02*
X168249999Y-90775000D01*
X160949999Y-75450000D02*
X159899999Y-76500000D01*
X168249999Y-86100000D02*
X168249999Y-86900000D01*
X171999999Y-95300000D02*
X187619999Y-95300000D01*
X171499999Y-94500000D02*
X171499999Y-94800000D01*
X167649999Y-81150000D02*
X168249999Y-81750000D01*
X168999999Y-86850000D02*
X168299999Y-86850000D01*
X168249999Y-76250000D02*
X168249999Y-80250000D01*
X145699999Y-83450000D02*
X143549999Y-81300000D01*
X171199999Y-75450000D02*
X168999999Y-75450000D01*
X148799999Y-95300000D02*
X170799999Y-95300000D01*
X168249999Y-86900000D02*
X168249999Y-87450000D01*
X143549999Y-81300000D02*
X143549999Y-77430000D01*
X146799999Y-93600000D02*
X146799999Y-92650000D01*
X167499999Y-75450000D02*
X160949999Y-75450000D01*
X171649999Y-76100000D02*
X171749999Y-76000000D01*
X143549999Y-77430000D02*
X142539999Y-76420000D01*
D18*
X146862499Y-84300000D02*
X146862499Y-91262500D01*
X146862499Y-91262500D02*
X149449999Y-93850000D01*
D19*
X161799999Y-93450000D02*
X161449999Y-93800000D01*
X161449999Y-93800000D02*
X156324999Y-93800000D01*
X161799999Y-90800000D02*
X161799999Y-93450000D01*
X156324999Y-93800000D02*
X153874999Y-91350000D01*
X160974999Y-90050000D02*
X161049999Y-90050000D01*
X153874999Y-91350000D02*
X152949999Y-91350000D01*
X161049999Y-90050000D02*
X161799999Y-90800000D01*
D18*
X146649999Y-74750000D02*
X145149999Y-76250000D01*
X149699999Y-84900000D02*
X151199999Y-84900000D01*
X145149999Y-80350000D02*
X149699999Y-84900000D01*
X145149999Y-76250000D02*
X145149999Y-80350000D01*
X155599999Y-76350000D02*
X153999999Y-74750000D01*
X153999999Y-74750000D02*
X146649999Y-74750000D01*
X155599999Y-77700000D02*
X155599999Y-76350000D01*
D19*
X152649999Y-82425000D02*
X152649999Y-80250000D01*
X158774999Y-84550000D02*
X158124999Y-83900000D01*
X158774999Y-85725000D02*
X158774999Y-84550000D01*
D18*
X140249999Y-81750000D02*
X139999999Y-81500000D01*
D19*
X158124999Y-83900000D02*
X154124999Y-83900000D01*
X149899999Y-77500000D02*
X148399999Y-77500000D01*
X152649999Y-80250000D02*
X149899999Y-77500000D01*
X148399999Y-77500000D02*
X147999999Y-77100000D01*
X155849999Y-88650000D02*
X158774999Y-85725000D01*
X154124999Y-83900000D02*
X152649999Y-82425000D01*
X155849999Y-91850000D02*
X155849999Y-88650000D01*
X161749999Y-82975000D02*
X161749999Y-80425000D01*
X157599999Y-91850000D02*
X157599999Y-88900000D01*
X157599999Y-88900000D02*
X160024999Y-86475000D01*
X161749999Y-80425000D02*
X160974999Y-79650000D01*
X160024999Y-84700000D02*
X161749999Y-82975000D01*
X160024999Y-86475000D02*
X160024999Y-84700000D01*
X157774999Y-84975000D02*
X157774999Y-85000000D01*
X157774999Y-85000000D02*
X156749999Y-86025000D01*
X150099999Y-82750000D02*
X150049999Y-82800000D01*
X156749999Y-86025000D02*
X154499999Y-86025000D01*
X151224999Y-82750000D02*
X150099999Y-82750000D01*
X154499999Y-86025000D02*
X151224999Y-82750000D01*
X152199999Y-80450000D02*
X149749999Y-78000000D01*
X156349999Y-84975000D02*
X155774999Y-84400000D01*
X155774999Y-84400000D02*
X153924999Y-84400000D01*
X153924999Y-84400000D02*
X152199999Y-82675000D01*
X148149999Y-78000000D02*
X147999999Y-78150000D01*
X149749999Y-78000000D02*
X148149999Y-78000000D01*
X152199999Y-82675000D02*
X152199999Y-80450000D01*
D18*
X144549999Y-80634375D02*
X144549999Y-75950000D01*
X146399999Y-74100000D02*
X154999999Y-74100000D01*
X152312499Y-85037500D02*
X151599999Y-85750000D01*
X151599999Y-85750000D02*
X149665624Y-85750000D01*
X144549999Y-75950000D02*
X146399999Y-74100000D01*
X154999999Y-74100000D02*
X155849999Y-74950000D01*
X149665624Y-85750000D02*
X144549999Y-80634375D01*
D19*
X155974999Y-82350000D02*
X160874999Y-82350000D01*
X160874999Y-82350000D02*
X160974999Y-82450000D01*
D18*
X187699999Y-78050000D02*
X191899999Y-78050000D01*
X158799999Y-76900000D02*
X158799999Y-76050000D01*
X147799999Y-85300000D02*
X147799999Y-90400000D01*
X159449999Y-77550000D02*
X158799999Y-76900000D01*
X160122791Y-77550000D02*
X159449999Y-77550000D01*
X161649999Y-94400000D02*
X162449999Y-93600000D01*
X162199999Y-76450000D02*
X161222791Y-76450000D01*
X151799999Y-94400000D02*
X161649999Y-94400000D01*
X163349999Y-77600000D02*
X162199999Y-76450000D01*
X160349999Y-74500000D02*
X184149999Y-74500000D01*
X158799999Y-76050000D02*
X160349999Y-74500000D01*
X191899999Y-78050000D02*
X193949999Y-76000000D01*
X162449999Y-93600000D02*
X162449999Y-88850000D01*
X184149999Y-74500000D02*
X187699999Y-78050000D01*
X193949999Y-76000000D02*
X193999999Y-76000000D01*
X161222791Y-76450000D02*
X160122791Y-77550000D01*
X147799999Y-90400000D02*
X151799999Y-94400000D01*
D19*
X157299999Y-93250000D02*
X159749999Y-93250000D01*
X156699999Y-92650000D02*
X157299999Y-93250000D01*
X159474999Y-86075000D02*
X156699999Y-88850000D01*
X155149999Y-82700000D02*
X155624999Y-83175000D01*
X160149999Y-92850000D02*
X160974999Y-92850000D01*
X156699999Y-88850000D02*
X156699999Y-92650000D01*
X159749999Y-93250000D02*
X160149999Y-92850000D01*
X158424999Y-83175000D02*
X159474999Y-84225000D01*
X155699999Y-80050000D02*
X155149999Y-80600000D01*
X155149999Y-80600000D02*
X155149999Y-82700000D01*
X159474999Y-84225000D02*
X159474999Y-86075000D01*
X155624999Y-83175000D02*
X158424999Y-83175000D01*
D20*
X178749999Y-78550000D02*
X179649999Y-78550000D01*
X178999999Y-78800000D02*
X178999999Y-85250000D01*
X178749999Y-78550000D02*
X178999999Y-78800000D01*
X183999999Y-90250000D02*
X190249999Y-90250000D01*
X178999999Y-85250000D02*
X183999999Y-90250000D01*
X191459999Y-91460000D02*
X191459999Y-94000000D01*
X190249999Y-90250000D02*
X191459999Y-91460000D01*
G04 #@! TA.AperFunction,Conductor*
G36*
X120919773Y-74768955D02*
G01*
X121000555Y-74822931D01*
X121054531Y-74903713D01*
X121073485Y-74999001D01*
X121054531Y-75094289D01*
X121043031Y-75118324D01*
X120982428Y-75229312D01*
X120889925Y-75477323D01*
X120833659Y-75735975D01*
X120814775Y-76000001D01*
X120833659Y-76264027D01*
X120889925Y-76522679D01*
X120955755Y-76699178D01*
X120982427Y-76770688D01*
X120982429Y-76770692D01*
X121084424Y-76957482D01*
X121109286Y-77003012D01*
X121267915Y-77214916D01*
X121455087Y-77402088D01*
X121666991Y-77560717D01*
X121899313Y-77687575D01*
X122147324Y-77780078D01*
X122405976Y-77836344D01*
X122670002Y-77855228D01*
X122934028Y-77836344D01*
X123192680Y-77780078D01*
X123440691Y-77687575D01*
X123673013Y-77560717D01*
X123884917Y-77402088D01*
X123884921Y-77402083D01*
X123888151Y-77399666D01*
X123975791Y-77357736D01*
X124037371Y-77350001D01*
X124960001Y-77350001D01*
X125460003Y-77350001D01*
X126836132Y-77350001D01*
X126849460Y-77350358D01*
X126852112Y-77350499D01*
X126852129Y-77350501D01*
X128647874Y-77350500D01*
X128707485Y-77344092D01*
X128842333Y-77293797D01*
X128957548Y-77207547D01*
X129043798Y-77092332D01*
X129094093Y-76957484D01*
X129100502Y-76897874D01*
X129100501Y-75102129D01*
X129094093Y-75042518D01*
X129094092Y-75042517D01*
X129092428Y-75027029D01*
X129096287Y-75026614D01*
X129093863Y-74959235D01*
X129127791Y-74868197D01*
X129193976Y-74797073D01*
X129282341Y-74756690D01*
X129339667Y-74750001D01*
X132001002Y-74750001D01*
X132096290Y-74768955D01*
X132177072Y-74822931D01*
X132231048Y-74903713D01*
X132250002Y-74999001D01*
X132250002Y-95001001D01*
X132231048Y-95096289D01*
X132177072Y-95177071D01*
X132096290Y-95231047D01*
X132001002Y-95250001D01*
X127055519Y-95250001D01*
X126960231Y-95231047D01*
X126879449Y-95177071D01*
X126825473Y-95096289D01*
X126806519Y-95001001D01*
X126825473Y-94905713D01*
X126836972Y-94881677D01*
X126897576Y-94770690D01*
X126990079Y-94522679D01*
X127046345Y-94264027D01*
X127065229Y-94000001D01*
X127046345Y-93735975D01*
X126990079Y-93477323D01*
X126897576Y-93229312D01*
X126770718Y-92996990D01*
X126612089Y-92785086D01*
X126424917Y-92597914D01*
X126213013Y-92439285D01*
X125980691Y-92312427D01*
X125980689Y-92312426D01*
X125909179Y-92285754D01*
X125732680Y-92219924D01*
X125530295Y-92175898D01*
X125474029Y-92163658D01*
X125210002Y-92144774D01*
X124945974Y-92163658D01*
X124833442Y-92188138D01*
X124687324Y-92219924D01*
X124615812Y-92246596D01*
X124439314Y-92312426D01*
X124439310Y-92312428D01*
X124206997Y-92439281D01*
X124206990Y-92439285D01*
X123995092Y-92597909D01*
X123995088Y-92597913D01*
X123966132Y-92626868D01*
X123885349Y-92680842D01*
X123790060Y-92699793D01*
X123703053Y-92684094D01*
X123627486Y-92655910D01*
X123627487Y-92655910D01*
X123567875Y-92649501D01*
X121772136Y-92649501D01*
X121772132Y-92649501D01*
X121772130Y-92649502D01*
X121759316Y-92650879D01*
X121712521Y-92655909D01*
X121712517Y-92655910D01*
X121577672Y-92706204D01*
X121462457Y-92792454D01*
X121462455Y-92792456D01*
X121376206Y-92907670D01*
X121325910Y-93042519D01*
X121319502Y-93102124D01*
X121319502Y-94897866D01*
X121319503Y-94897870D01*
X121327576Y-94972973D01*
X121323716Y-94973387D01*
X121326141Y-95040767D01*
X121292213Y-95131805D01*
X121226028Y-95202929D01*
X121137663Y-95243312D01*
X121080337Y-95250001D01*
X112999002Y-95250001D01*
X112903714Y-95231047D01*
X112822932Y-95177071D01*
X112768956Y-95096289D01*
X112750002Y-95001001D01*
X112750002Y-74999001D01*
X112768956Y-74903713D01*
X112822932Y-74822931D01*
X112903714Y-74768955D01*
X112999002Y-74750001D01*
X120824485Y-74750001D01*
X120919773Y-74768955D01*
G37*
G04 #@! TD.AperFunction*
G04 #@! TA.AperFunction,Conductor*
G36*
X125460002Y-77158001D02*
G01*
X124960002Y-77091334D01*
X124960002Y-76433013D01*
X125017009Y-76465926D01*
X125144176Y-76500001D01*
X125275828Y-76500001D01*
X125402995Y-76465926D01*
X125460002Y-76433013D01*
X125460002Y-77158001D01*
G37*
G04 #@! TD.AperFunction*
G04 #@! TA.AperFunction,Conductor*
G36*
X144296287Y-73768954D02*
G01*
X144377069Y-73822930D01*
X144431045Y-73903712D01*
X144449999Y-73999000D01*
X144449999Y-74851000D01*
X144431045Y-74946288D01*
X144377069Y-75027070D01*
X144296287Y-75081046D01*
X144200999Y-75100000D01*
X143606998Y-75100000D01*
X143519983Y-75084301D01*
X143497482Y-75075908D01*
X143437872Y-75069500D01*
X141642133Y-75069500D01*
X141642129Y-75069500D01*
X141642127Y-75069501D01*
X141629313Y-75070878D01*
X141582518Y-75075908D01*
X141582513Y-75075909D01*
X141560016Y-75084301D01*
X141473001Y-75100000D01*
X140322474Y-75100000D01*
X140258027Y-75091515D01*
X140249999Y-75089364D01*
X140249999Y-75986988D01*
X140192992Y-75954075D01*
X140065825Y-75920000D01*
X139934173Y-75920000D01*
X139807006Y-75954075D01*
X139749999Y-75986988D01*
X139749999Y-75089364D01*
X139749997Y-75089363D01*
X139536515Y-75146566D01*
X139536504Y-75146570D01*
X139322427Y-75246396D01*
X139322419Y-75246400D01*
X139128922Y-75381889D01*
X138961888Y-75548923D01*
X138826399Y-75742420D01*
X138826395Y-75742428D01*
X138726569Y-75956505D01*
X138726565Y-75956516D01*
X138669362Y-76169998D01*
X138669363Y-76170000D01*
X139566987Y-76170000D01*
X139534074Y-76227007D01*
X139499999Y-76354174D01*
X139499999Y-76485826D01*
X139534074Y-76612993D01*
X139566987Y-76670000D01*
X138669363Y-76670000D01*
X138669362Y-76670001D01*
X138726565Y-76883483D01*
X138726565Y-76883485D01*
X138826398Y-77097576D01*
X138961888Y-77291076D01*
X139128922Y-77458110D01*
X139322422Y-77593600D01*
X139536510Y-77693431D01*
X139749999Y-77750635D01*
X139749999Y-76853012D01*
X139807006Y-76885925D01*
X139934173Y-76920000D01*
X140065825Y-76920000D01*
X140192992Y-76885925D01*
X140249999Y-76853012D01*
X140249999Y-77754627D01*
X140285151Y-77750000D01*
X141499812Y-77750000D01*
X141566975Y-77762117D01*
X141567356Y-77760509D01*
X141582513Y-77764090D01*
X141582516Y-77764091D01*
X141642126Y-77770500D01*
X142550500Y-77770499D01*
X142645787Y-77789453D01*
X142726568Y-77843429D01*
X142780545Y-77924211D01*
X142799499Y-78019499D01*
X142799499Y-81373920D01*
X142828340Y-81518911D01*
X142828341Y-81518914D01*
X142884912Y-81655490D01*
X142884914Y-81655493D01*
X142884915Y-81655495D01*
X142908111Y-81690210D01*
X142967047Y-81778416D01*
X143958632Y-82770000D01*
X144876569Y-83687937D01*
X144930545Y-83768719D01*
X144949499Y-83864007D01*
X144949499Y-91631056D01*
X144949999Y-91641229D01*
X144949999Y-93186146D01*
X144931045Y-93281434D01*
X144877069Y-93362216D01*
X144808558Y-93409301D01*
X144808571Y-93409323D01*
X144808300Y-93409478D01*
X144802280Y-93413617D01*
X144797271Y-93415846D01*
X144644125Y-93527114D01*
X144517468Y-93667780D01*
X144422821Y-93831714D01*
X144364324Y-94011744D01*
X144344539Y-94199999D01*
X144348635Y-94238971D01*
X144349999Y-94264998D01*
X144349999Y-95751000D01*
X144331045Y-95846288D01*
X144277069Y-95927070D01*
X144196287Y-95981046D01*
X144100999Y-96000000D01*
X141598999Y-96000000D01*
X141503711Y-95981046D01*
X141422929Y-95927070D01*
X141368953Y-95846288D01*
X141349999Y-95751000D01*
X141349999Y-95113869D01*
X141350356Y-95100540D01*
X141350496Y-95097892D01*
X141350499Y-95097873D01*
X141350498Y-93302128D01*
X141350497Y-93302124D01*
X141350356Y-93299484D01*
X141349999Y-93286153D01*
X141349999Y-91935236D01*
X141330635Y-91910000D01*
X140433011Y-91910000D01*
X140465924Y-91852993D01*
X140499999Y-91725826D01*
X140499999Y-91594174D01*
X140465924Y-91467007D01*
X140433011Y-91410000D01*
X141330634Y-91410000D01*
X141349999Y-91384762D01*
X141349999Y-89195548D01*
X141350947Y-89173844D01*
X141355658Y-89120002D01*
X141355658Y-89119996D01*
X141350947Y-89066153D01*
X141349999Y-89044450D01*
X141349999Y-86655548D01*
X141350947Y-86633844D01*
X141352637Y-86614535D01*
X141355658Y-86580000D01*
X141350947Y-86526153D01*
X141349999Y-86504450D01*
X141349999Y-84115548D01*
X141350947Y-84093844D01*
X141355658Y-84040002D01*
X141355658Y-84039996D01*
X141350947Y-83986153D01*
X141349999Y-83964450D01*
X141349999Y-81575548D01*
X141350947Y-81553844D01*
X141352986Y-81530546D01*
X141354003Y-81518913D01*
X141355658Y-81500002D01*
X141355658Y-81499994D01*
X141335063Y-81264598D01*
X141335062Y-81264595D01*
X141335062Y-81264592D01*
X141273902Y-81036337D01*
X141210000Y-80899300D01*
X141174037Y-80822177D01*
X141174033Y-80822169D01*
X141104755Y-80723230D01*
X141038494Y-80628599D01*
X140871400Y-80461505D01*
X140832334Y-80434151D01*
X140677829Y-80325965D01*
X140619005Y-80298535D01*
X140463662Y-80226097D01*
X140463659Y-80226096D01*
X140235400Y-80164935D01*
X140000004Y-80144341D01*
X139999994Y-80144341D01*
X139764597Y-80164935D01*
X139536334Y-80226097D01*
X139536332Y-80226098D01*
X139322176Y-80325961D01*
X139322168Y-80325965D01*
X139128599Y-80461504D01*
X138961503Y-80628600D01*
X138825964Y-80822169D01*
X138825960Y-80822177D01*
X138726097Y-81036333D01*
X138726096Y-81036336D01*
X138677285Y-81218504D01*
X138649999Y-81273834D01*
X138649999Y-81411753D01*
X138640705Y-81458472D01*
X138642440Y-81478294D01*
X138642439Y-81521696D01*
X138636184Y-81593184D01*
X138649999Y-81668348D01*
X138649999Y-83964450D01*
X138649051Y-83986153D01*
X138644340Y-84039996D01*
X138644340Y-84040002D01*
X138649051Y-84093844D01*
X138649999Y-84115548D01*
X138649999Y-86504450D01*
X138649051Y-86526153D01*
X138644340Y-86580000D01*
X138647361Y-86614535D01*
X138649051Y-86633844D01*
X138649999Y-86655548D01*
X138649999Y-89044450D01*
X138649051Y-89066153D01*
X138644340Y-89119996D01*
X138644340Y-89120002D01*
X138649051Y-89173844D01*
X138649999Y-89195548D01*
X138649999Y-91232782D01*
X138663278Y-91254276D01*
X138678826Y-91350179D01*
X138670500Y-91405755D01*
X138669362Y-91409999D01*
X138669363Y-91410000D01*
X139566987Y-91410000D01*
X139534074Y-91467007D01*
X139499999Y-91594174D01*
X139499999Y-91725826D01*
X139534074Y-91852993D01*
X139566987Y-91910000D01*
X138647948Y-91910000D01*
X138640377Y-91916640D01*
X138548378Y-91947870D01*
X138515877Y-91950000D01*
X136249000Y-91950000D01*
X136153712Y-91931046D01*
X136072930Y-91877070D01*
X136018954Y-91796288D01*
X136000000Y-91701000D01*
X135999999Y-75752197D01*
X136000039Y-75747757D01*
X136002269Y-75622721D01*
X136004763Y-75591725D01*
X136010917Y-75548923D01*
X136040675Y-75341947D01*
X136048226Y-75307239D01*
X136066091Y-75246396D01*
X136118691Y-75067257D01*
X136131101Y-75033985D01*
X136235003Y-74806471D01*
X136252025Y-74775299D01*
X136252027Y-74775296D01*
X136387250Y-74564885D01*
X136408527Y-74536463D01*
X136572321Y-74347433D01*
X136597435Y-74322320D01*
X136786462Y-74158528D01*
X136814884Y-74137251D01*
X137025302Y-74002023D01*
X137056470Y-73985004D01*
X137283984Y-73881102D01*
X137317256Y-73868692D01*
X137557240Y-73798226D01*
X137591946Y-73790676D01*
X137841726Y-73754763D01*
X137872718Y-73752270D01*
X137997756Y-73750039D01*
X138002196Y-73750000D01*
X144200999Y-73750000D01*
X144296287Y-73768954D01*
G37*
G04 #@! TD.AperFunction*
G04 #@! TA.AperFunction,Conductor*
G36*
X183872701Y-75169454D02*
G01*
X183953483Y-75223430D01*
X187194723Y-78464669D01*
X187194722Y-78464669D01*
X187248338Y-78518284D01*
X187285330Y-78555276D01*
X187391872Y-78626465D01*
X187391874Y-78626465D01*
X187391876Y-78626467D01*
X187426548Y-78640828D01*
X187510255Y-78675501D01*
X187635928Y-78700499D01*
X187635929Y-78700500D01*
X187635930Y-78700500D01*
X191964069Y-78700500D01*
X191964069Y-78700499D01*
X192089743Y-78675501D01*
X192208126Y-78626465D01*
X192220901Y-78617929D01*
X192314668Y-78555277D01*
X192908204Y-77961741D01*
X193192436Y-77677509D01*
X193273218Y-77623532D01*
X193368506Y-77604578D01*
X193463794Y-77623532D01*
X193544575Y-77677508D01*
X193598552Y-77758290D01*
X193617506Y-77853578D01*
X193601807Y-77940593D01*
X193582402Y-77992618D01*
X193582400Y-77992628D01*
X193575999Y-78052167D01*
X193575999Y-82947832D01*
X193582400Y-83007370D01*
X193582402Y-83007380D01*
X193604857Y-83067585D01*
X196349928Y-80322516D01*
X196430710Y-80268540D01*
X196525998Y-80249586D01*
X196621286Y-80268540D01*
X196702068Y-80322516D01*
X196703482Y-80323930D01*
X196757458Y-80404712D01*
X196776412Y-80500000D01*
X196757458Y-80595288D01*
X196703482Y-80676070D01*
X193984271Y-83395280D01*
X194028169Y-83399999D01*
X194028171Y-83400000D01*
X195635611Y-83400000D01*
X195730899Y-83418954D01*
X195811681Y-83472930D01*
X195865657Y-83553712D01*
X195884611Y-83649000D01*
X195865657Y-83744288D01*
X195818804Y-83817645D01*
X195811835Y-83825214D01*
X195811829Y-83825221D01*
X195675827Y-84033391D01*
X195675824Y-84033396D01*
X195575935Y-84261121D01*
X195575934Y-84261125D01*
X195514893Y-84502168D01*
X195514891Y-84502176D01*
X195494356Y-84750000D01*
X195514891Y-84997823D01*
X195514893Y-84997831D01*
X195556785Y-85163256D01*
X195575936Y-85238881D01*
X195632150Y-85367037D01*
X195675824Y-85466603D01*
X195675827Y-85466608D01*
X195811829Y-85674778D01*
X195811835Y-85674785D01*
X195818804Y-85682355D01*
X195869397Y-85765297D01*
X195884398Y-85861287D01*
X195861524Y-85955710D01*
X195804256Y-86034193D01*
X195721314Y-86084786D01*
X195635611Y-86100000D01*
X194028176Y-86100000D01*
X193984272Y-86104719D01*
X196525999Y-88646447D01*
X196703482Y-88823930D01*
X196757458Y-88904712D01*
X196776412Y-89000000D01*
X196757458Y-89095288D01*
X196703482Y-89176070D01*
X193984271Y-91895280D01*
X194028169Y-91899999D01*
X194028171Y-91900000D01*
X199000998Y-91900000D01*
X199096286Y-91918954D01*
X199177068Y-91972930D01*
X199231044Y-92053712D01*
X199249998Y-92149000D01*
X199249998Y-93997804D01*
X199249958Y-94002244D01*
X199247728Y-94127286D01*
X199245233Y-94158282D01*
X199209321Y-94408051D01*
X199201772Y-94442757D01*
X199131308Y-94682736D01*
X199118892Y-94716024D01*
X199014994Y-94943526D01*
X198997968Y-94974706D01*
X198862751Y-95185109D01*
X198841465Y-95213544D01*
X198677679Y-95402562D01*
X198652559Y-95427682D01*
X198463542Y-95591467D01*
X198435100Y-95612758D01*
X198224702Y-95747972D01*
X198193521Y-95764998D01*
X197966023Y-95868893D01*
X197932736Y-95881309D01*
X197692761Y-95951772D01*
X197658045Y-95959324D01*
X197408272Y-95995235D01*
X197377279Y-95997729D01*
X197257686Y-95999862D01*
X197252239Y-95999960D01*
X197247802Y-96000000D01*
X193498999Y-96000000D01*
X193403711Y-95981046D01*
X193322929Y-95927070D01*
X193268953Y-95846288D01*
X193249999Y-95751000D01*
X193249999Y-94503834D01*
X193255689Y-94450906D01*
X193261089Y-94426082D01*
X193296342Y-94264026D01*
X193315226Y-94000000D01*
X193296342Y-93735974D01*
X193255689Y-93549093D01*
X193249999Y-93496165D01*
X193249999Y-93241707D01*
X193197178Y-93227243D01*
X193120427Y-93167675D01*
X193089994Y-93123864D01*
X193020715Y-92996989D01*
X193020711Y-92996983D01*
X193010163Y-92982892D01*
X192968233Y-92895251D01*
X192960499Y-92833674D01*
X192960499Y-91341912D01*
X192960497Y-91341896D01*
X192956678Y-91317784D01*
X192923552Y-91108632D01*
X192864972Y-90928341D01*
X192859384Y-90911143D01*
X192859382Y-90911139D01*
X192858407Y-90908139D01*
X192850567Y-90884007D01*
X192743342Y-90673566D01*
X192604516Y-90482490D01*
X191227509Y-89105483D01*
X191036433Y-88966657D01*
X190825991Y-88859432D01*
X190825988Y-88859431D01*
X190825983Y-88859429D01*
X190697483Y-88817677D01*
X190601367Y-88786447D01*
X190601365Y-88786446D01*
X190601363Y-88786446D01*
X190368102Y-88749501D01*
X190368093Y-88749500D01*
X190368091Y-88749500D01*
X190368087Y-88749500D01*
X184724667Y-88749500D01*
X184629379Y-88730546D01*
X184548597Y-88676570D01*
X182424194Y-86552167D01*
X193575999Y-86552167D01*
X193575999Y-91447832D01*
X193582400Y-91507370D01*
X193582402Y-91507380D01*
X193604857Y-91567585D01*
X196172445Y-88999999D01*
X193604857Y-86432411D01*
X193582402Y-86492617D01*
X193582401Y-86492623D01*
X193575999Y-86552167D01*
X182424194Y-86552167D01*
X180573429Y-84701402D01*
X180519453Y-84620620D01*
X180500499Y-84525332D01*
X180500499Y-79913666D01*
X180519453Y-79818378D01*
X180573429Y-79737596D01*
X180603134Y-79712225D01*
X180627509Y-79694517D01*
X180794516Y-79527510D01*
X180933342Y-79336433D01*
X181040567Y-79125992D01*
X181113552Y-78901368D01*
X181150499Y-78668092D01*
X181150499Y-78431908D01*
X181113552Y-78198632D01*
X181040567Y-77974008D01*
X180933342Y-77763567D01*
X180933340Y-77763564D01*
X180933339Y-77763562D01*
X180794520Y-77572495D01*
X180794517Y-77572492D01*
X180794516Y-77572490D01*
X180627509Y-77405483D01*
X180627505Y-77405480D01*
X180627503Y-77405478D01*
X180436436Y-77266659D01*
X180367856Y-77231716D01*
X180225991Y-77159432D01*
X180225988Y-77159431D01*
X180225986Y-77159430D01*
X180101078Y-77118845D01*
X180001367Y-77086447D01*
X180001365Y-77086446D01*
X180001363Y-77086446D01*
X179768102Y-77049501D01*
X179768093Y-77049500D01*
X179768091Y-77049500D01*
X178868091Y-77049500D01*
X178631907Y-77049500D01*
X178631904Y-77049500D01*
X178631895Y-77049501D01*
X178398634Y-77086446D01*
X178174014Y-77159429D01*
X178174009Y-77159431D01*
X177963565Y-77266657D01*
X177772491Y-77405481D01*
X177605480Y-77572492D01*
X177466656Y-77763566D01*
X177359430Y-77974010D01*
X177359428Y-77974015D01*
X177286445Y-78198635D01*
X177249500Y-78431896D01*
X177249499Y-78431912D01*
X177249499Y-78668087D01*
X177249500Y-78668103D01*
X177274016Y-78822888D01*
X177286446Y-78901368D01*
X177317676Y-78997484D01*
X177359428Y-79125984D01*
X177359430Y-79125990D01*
X177471098Y-79345152D01*
X177468773Y-79346336D01*
X177496430Y-79421281D01*
X177499499Y-79460254D01*
X177499499Y-85368087D01*
X177499500Y-85368103D01*
X177536445Y-85601364D01*
X177536446Y-85601368D01*
X177560301Y-85674785D01*
X177608020Y-85821651D01*
X177609431Y-85825992D01*
X177716656Y-86036434D01*
X177855482Y-86227510D01*
X183022489Y-91394518D01*
X183213566Y-91533343D01*
X183213568Y-91533344D01*
X183391329Y-91623918D01*
X183424007Y-91640568D01*
X183648631Y-91713553D01*
X183881907Y-91750500D01*
X184118091Y-91750500D01*
X187300999Y-91750500D01*
X187396287Y-91769454D01*
X187477069Y-91823430D01*
X187531045Y-91904212D01*
X187549999Y-91999500D01*
X187549999Y-94205492D01*
X187531045Y-94300780D01*
X187477071Y-94381559D01*
X187382059Y-94476571D01*
X187301281Y-94530546D01*
X187205993Y-94549500D01*
X172499499Y-94549500D01*
X172404211Y-94530546D01*
X172323429Y-94476570D01*
X172269453Y-94395788D01*
X172250499Y-94300500D01*
X172250499Y-92226081D01*
X172250498Y-92226079D01*
X172248947Y-92218284D01*
X172221657Y-92081087D01*
X172165083Y-91944505D01*
X172148010Y-91918954D01*
X172132192Y-91895280D01*
X172123463Y-91882216D01*
X172082951Y-91821584D01*
X171328415Y-91067048D01*
X171328411Y-91067045D01*
X171328409Y-91067043D01*
X171328410Y-91067043D01*
X171254731Y-91017815D01*
X171254728Y-91017812D01*
X171254728Y-91017813D01*
X171205494Y-90984916D01*
X171068912Y-90928342D01*
X171068910Y-90928341D01*
X170923919Y-90899500D01*
X170923917Y-90899500D01*
X169464007Y-90899500D01*
X169368719Y-90880546D01*
X169287937Y-90826570D01*
X169073429Y-90612062D01*
X169019453Y-90531280D01*
X169000499Y-90435992D01*
X169000499Y-87864007D01*
X169019453Y-87768719D01*
X169073429Y-87687937D01*
X169087936Y-87673430D01*
X169168718Y-87619454D01*
X169264006Y-87600500D01*
X171072264Y-87600500D01*
X171167552Y-87619454D01*
X171196761Y-87633858D01*
X171197271Y-87634152D01*
X171370188Y-87711141D01*
X171370191Y-87711142D01*
X171370196Y-87711144D01*
X171555353Y-87750500D01*
X171744644Y-87750500D01*
X171744645Y-87750500D01*
X171929802Y-87711144D01*
X172102729Y-87634151D01*
X172255870Y-87522888D01*
X172382532Y-87382216D01*
X172477178Y-87218284D01*
X172535673Y-87038256D01*
X172555459Y-86850000D01*
X172535673Y-86661744D01*
X172477178Y-86481716D01*
X172382532Y-86317784D01*
X172382530Y-86317781D01*
X172382529Y-86317780D01*
X172255872Y-86177114D01*
X172255871Y-86177113D01*
X172255870Y-86177112D01*
X172128794Y-86084786D01*
X172102727Y-86065847D01*
X171929809Y-85988858D01*
X171929795Y-85988854D01*
X171744645Y-85949500D01*
X171555353Y-85949500D01*
X171370202Y-85988854D01*
X171370188Y-85988858D01*
X171197271Y-86065847D01*
X171196761Y-86066142D01*
X171196123Y-86066358D01*
X171185348Y-86071156D01*
X171184907Y-86070165D01*
X171104762Y-86097370D01*
X171072264Y-86099500D01*
X169414005Y-86099500D01*
X169318717Y-86080546D01*
X169237938Y-86026572D01*
X169073429Y-85862062D01*
X169019453Y-85781280D01*
X169000499Y-85685993D01*
X169000499Y-76614007D01*
X169019453Y-76518719D01*
X169073429Y-76437937D01*
X169237936Y-76273430D01*
X169318718Y-76219454D01*
X169414006Y-76200500D01*
X170687395Y-76200500D01*
X170782683Y-76219454D01*
X170863465Y-76273430D01*
X170917441Y-76354212D01*
X170921729Y-76365834D01*
X170922816Y-76368276D01*
X170922819Y-76368281D01*
X170922820Y-76368284D01*
X171014627Y-76527298D01*
X171017468Y-76532219D01*
X171144125Y-76672885D01*
X171144128Y-76672888D01*
X171225098Y-76731716D01*
X171297270Y-76784152D01*
X171470188Y-76861141D01*
X171470191Y-76861142D01*
X171470196Y-76861144D01*
X171655353Y-76900500D01*
X171844644Y-76900500D01*
X171844645Y-76900500D01*
X172029802Y-76861144D01*
X172121990Y-76820099D01*
X172202727Y-76784152D01*
X172202727Y-76784151D01*
X172202729Y-76784151D01*
X172355870Y-76672888D01*
X172482532Y-76532216D01*
X172577178Y-76368284D01*
X172635673Y-76188256D01*
X172655459Y-76000000D01*
X172635673Y-75811744D01*
X172577178Y-75631716D01*
X172514988Y-75523999D01*
X172483759Y-75432000D01*
X172490114Y-75335053D01*
X172533084Y-75247918D01*
X172606130Y-75183859D01*
X172698129Y-75152630D01*
X172730629Y-75150500D01*
X183777413Y-75150500D01*
X183872701Y-75169454D01*
G37*
G04 #@! TD.AperFunction*
G04 #@! TA.AperFunction,Conductor*
G36*
X153722701Y-75419454D02*
G01*
X153803483Y-75473430D01*
X154876569Y-76546516D01*
X154930545Y-76627298D01*
X154949499Y-76722586D01*
X154949499Y-76981094D01*
X154930545Y-77076382D01*
X154885544Y-77147705D01*
X154867468Y-77167780D01*
X154772821Y-77331714D01*
X154714324Y-77511744D01*
X154694539Y-77700000D01*
X154714324Y-77888255D01*
X154738203Y-77961744D01*
X154772820Y-78068284D01*
X154849155Y-78200500D01*
X154867468Y-78232219D01*
X154904087Y-78272888D01*
X154994128Y-78372888D01*
X155075368Y-78431912D01*
X155147270Y-78484152D01*
X155320188Y-78561141D01*
X155320191Y-78561142D01*
X155320196Y-78561144D01*
X155505353Y-78600500D01*
X155694644Y-78600500D01*
X155694645Y-78600500D01*
X155879802Y-78561144D01*
X155892980Y-78555277D01*
X156052727Y-78484152D01*
X156052727Y-78484151D01*
X156052729Y-78484151D01*
X156205870Y-78372888D01*
X156332532Y-78232216D01*
X156427178Y-78068284D01*
X156485673Y-77888256D01*
X156485673Y-77888255D01*
X156489706Y-77875844D01*
X156492555Y-77876769D01*
X156522125Y-77807955D01*
X156591720Y-77740164D01*
X156681961Y-77704167D01*
X156727325Y-77700000D01*
X158576913Y-77700000D01*
X158672201Y-77718954D01*
X158752982Y-77772930D01*
X159035330Y-78055277D01*
X159035334Y-78055281D01*
X159105911Y-78102436D01*
X159123314Y-78114065D01*
X159123316Y-78114066D01*
X159123319Y-78114069D01*
X159123320Y-78114069D01*
X159141872Y-78126465D01*
X159141874Y-78126465D01*
X159141876Y-78126467D01*
X159155756Y-78132216D01*
X159260255Y-78175501D01*
X159385928Y-78200499D01*
X159385929Y-78200500D01*
X159385930Y-78200500D01*
X160186861Y-78200500D01*
X160186861Y-78200499D01*
X160312535Y-78175501D01*
X160430918Y-78126465D01*
X160449470Y-78114069D01*
X160537460Y-78055277D01*
X161193237Y-77399500D01*
X161419308Y-77173430D01*
X161500089Y-77119454D01*
X161595377Y-77100500D01*
X161827413Y-77100500D01*
X161922701Y-77119454D01*
X162003483Y-77173430D01*
X162383890Y-77553837D01*
X162437866Y-77634619D01*
X162455456Y-77703878D01*
X162464324Y-77788255D01*
X162492784Y-77875844D01*
X162522820Y-77968284D01*
X162606987Y-78114065D01*
X162617468Y-78132219D01*
X162707509Y-78232219D01*
X162744128Y-78272888D01*
X162834100Y-78338256D01*
X162897270Y-78384152D01*
X163070188Y-78461141D01*
X163070191Y-78461142D01*
X163070196Y-78461144D01*
X163255353Y-78500500D01*
X163444644Y-78500500D01*
X163444645Y-78500500D01*
X163629802Y-78461144D01*
X163695458Y-78431912D01*
X163802727Y-78384152D01*
X163802727Y-78384151D01*
X163802729Y-78384151D01*
X163955870Y-78272888D01*
X164082532Y-78132216D01*
X164177178Y-77968284D01*
X164235673Y-77788256D01*
X164255459Y-77600000D01*
X164255459Y-77599998D01*
X164251363Y-77561026D01*
X164249999Y-77535000D01*
X164249999Y-77418501D01*
X164250182Y-77417579D01*
X164249999Y-77416423D01*
X164249999Y-76449500D01*
X164268953Y-76354212D01*
X164322929Y-76273430D01*
X164403711Y-76219454D01*
X164498999Y-76200500D01*
X167085992Y-76200500D01*
X167181280Y-76219454D01*
X167262061Y-76273430D01*
X167426568Y-76437936D01*
X167480545Y-76518717D01*
X167499499Y-76614005D01*
X167499499Y-79915462D01*
X167480545Y-80010750D01*
X167426569Y-80091532D01*
X167345787Y-80145508D01*
X167322784Y-80153739D01*
X167265272Y-80171185D01*
X167265265Y-80171188D01*
X167091462Y-80264088D01*
X166939119Y-80389114D01*
X166939113Y-80389120D01*
X166814087Y-80541463D01*
X166721187Y-80715266D01*
X166721184Y-80715274D01*
X166663974Y-80903868D01*
X166644658Y-81100000D01*
X166663974Y-81296131D01*
X166721184Y-81484725D01*
X166721187Y-81484733D01*
X166814087Y-81658536D01*
X166840084Y-81690213D01*
X166939116Y-81810883D01*
X167047096Y-81899500D01*
X167091462Y-81935911D01*
X167265265Y-82028811D01*
X167265270Y-82028813D01*
X167265272Y-82028814D01*
X167322781Y-82046259D01*
X167408461Y-82092055D01*
X167470096Y-82167156D01*
X167498300Y-82260127D01*
X167499499Y-82284536D01*
X167499499Y-90360992D01*
X167480545Y-90456280D01*
X167426569Y-90537062D01*
X167426568Y-90537062D01*
X167248408Y-90715221D01*
X167167627Y-90769197D01*
X167124115Y-90782708D01*
X167095206Y-90788853D01*
X167095198Y-90788855D01*
X167095196Y-90788856D01*
X167095193Y-90788857D01*
X167095185Y-90788860D01*
X166922270Y-90865847D01*
X166769125Y-90977114D01*
X166642468Y-91117780D01*
X166547821Y-91281714D01*
X166489324Y-91461744D01*
X166469539Y-91650000D01*
X166489324Y-91838255D01*
X166518572Y-91928270D01*
X166547820Y-92018284D01*
X166629640Y-92160000D01*
X166642468Y-92182219D01*
X166739896Y-92290423D01*
X166769128Y-92322888D01*
X166872332Y-92397870D01*
X166922270Y-92434152D01*
X167095188Y-92511141D01*
X167095191Y-92511142D01*
X167095196Y-92511144D01*
X167280353Y-92550500D01*
X167469644Y-92550500D01*
X167469645Y-92550500D01*
X167654802Y-92511144D01*
X167827729Y-92434151D01*
X167827733Y-92434147D01*
X167828237Y-92433858D01*
X167828874Y-92433641D01*
X167839650Y-92428844D01*
X167840090Y-92429834D01*
X167920236Y-92402630D01*
X167952734Y-92400500D01*
X168176081Y-92400500D01*
X168976081Y-92400500D01*
X168976082Y-92400500D01*
X169123917Y-92400500D01*
X170435991Y-92400500D01*
X170531279Y-92419454D01*
X170612061Y-92473430D01*
X170676569Y-92537938D01*
X170730545Y-92618720D01*
X170749499Y-92714008D01*
X170749499Y-94300500D01*
X170730545Y-94395788D01*
X170676569Y-94476570D01*
X170595787Y-94530546D01*
X170500499Y-94549500D01*
X163348999Y-94549500D01*
X163253711Y-94530546D01*
X163172929Y-94476570D01*
X163118953Y-94395788D01*
X163099999Y-94300500D01*
X163099999Y-93681380D01*
X163100499Y-93671207D01*
X163100499Y-89568903D01*
X163119453Y-89473615D01*
X163164454Y-89402292D01*
X163182532Y-89382216D01*
X163277178Y-89218284D01*
X163335673Y-89038256D01*
X163355459Y-88850000D01*
X163335673Y-88661744D01*
X163277178Y-88481716D01*
X163182532Y-88317784D01*
X163182530Y-88317781D01*
X163182529Y-88317780D01*
X163055872Y-88177114D01*
X163055871Y-88177113D01*
X163055870Y-88177112D01*
X162924278Y-88081505D01*
X162902727Y-88065847D01*
X162729809Y-87988858D01*
X162729795Y-87988854D01*
X162544645Y-87949500D01*
X162355353Y-87949500D01*
X162170202Y-87988854D01*
X162170188Y-87988858D01*
X161997270Y-88065847D01*
X161844125Y-88177114D01*
X161717468Y-88317780D01*
X161622821Y-88481714D01*
X161564324Y-88661744D01*
X161547279Y-88823930D01*
X161544539Y-88850000D01*
X161547163Y-88874973D01*
X161538274Y-88971719D01*
X161493038Y-89057700D01*
X161418342Y-89119825D01*
X161325557Y-89148636D01*
X161299528Y-89150000D01*
X161087452Y-89150000D01*
X161077916Y-89149500D01*
X161069645Y-89149500D01*
X160880353Y-89149500D01*
X160695202Y-89188854D01*
X160695188Y-89188858D01*
X160522270Y-89265847D01*
X160369125Y-89377114D01*
X160242468Y-89517780D01*
X160147821Y-89681714D01*
X160089324Y-89861744D01*
X160069539Y-90050000D01*
X160089324Y-90238253D01*
X160092038Y-90251018D01*
X160090617Y-90251319D01*
X160099999Y-90310544D01*
X160099999Y-92050649D01*
X160081045Y-92145937D01*
X160027069Y-92226719D01*
X159946287Y-92280695D01*
X159920862Y-92289326D01*
X159918211Y-92290424D01*
X159786200Y-92366641D01*
X159694201Y-92397870D01*
X159661701Y-92400000D01*
X158710855Y-92400000D01*
X158615567Y-92381046D01*
X158534785Y-92327070D01*
X158480809Y-92246288D01*
X158461855Y-92151000D01*
X158474042Y-92074055D01*
X158485671Y-92038262D01*
X158485670Y-92038262D01*
X158485673Y-92038256D01*
X158505459Y-91850000D01*
X158485673Y-91661744D01*
X158427178Y-91481716D01*
X158332532Y-91317784D01*
X158332530Y-91317781D01*
X158332529Y-91317780D01*
X158264456Y-91242177D01*
X158214781Y-91158682D01*
X158200499Y-91075564D01*
X158200499Y-89251874D01*
X158219453Y-89156586D01*
X158273427Y-89075806D01*
X160393712Y-86955521D01*
X160393715Y-86955520D01*
X160505519Y-86843716D01*
X160580668Y-86713553D01*
X160584576Y-86706785D01*
X160625500Y-86554057D01*
X160625500Y-86395943D01*
X160625500Y-86380683D01*
X160625499Y-86380665D01*
X160625499Y-85051874D01*
X160644453Y-84956586D01*
X160698427Y-84875806D01*
X162118712Y-83455521D01*
X162118715Y-83455520D01*
X162230519Y-83343716D01*
X162309576Y-83206784D01*
X162350499Y-83054057D01*
X162350499Y-80524136D01*
X162350500Y-80524123D01*
X162350500Y-80345943D01*
X162345146Y-80325961D01*
X162309576Y-80193216D01*
X162290548Y-80160259D01*
X162261232Y-80109481D01*
X162230519Y-80056284D01*
X161949411Y-79775177D01*
X161895435Y-79694397D01*
X161877845Y-79625137D01*
X161860673Y-79461744D01*
X161802178Y-79281716D01*
X161707532Y-79117784D01*
X161707530Y-79117781D01*
X161707529Y-79117780D01*
X161580872Y-78977114D01*
X161580871Y-78977113D01*
X161580870Y-78977112D01*
X161476617Y-78901368D01*
X161427727Y-78865847D01*
X161254809Y-78788858D01*
X161254795Y-78788854D01*
X161069645Y-78749500D01*
X160880353Y-78749500D01*
X160695202Y-78788854D01*
X160695188Y-78788858D01*
X160522270Y-78865847D01*
X160369125Y-78977114D01*
X160242468Y-79117780D01*
X160147821Y-79281714D01*
X160089324Y-79461744D01*
X160069539Y-79650000D01*
X160089324Y-79838255D01*
X160103306Y-79881286D01*
X160147820Y-80018284D01*
X160236098Y-80171186D01*
X160242468Y-80182219D01*
X160327873Y-80277070D01*
X160369128Y-80322888D01*
X160400861Y-80345943D01*
X160522270Y-80434152D01*
X160695188Y-80511141D01*
X160695191Y-80511142D01*
X160695196Y-80511144D01*
X160880353Y-80550500D01*
X160900499Y-80550500D01*
X160995787Y-80569454D01*
X161076569Y-80623430D01*
X161130545Y-80704212D01*
X161149499Y-80799500D01*
X161149499Y-81300500D01*
X161130545Y-81395788D01*
X161076569Y-81476570D01*
X160995787Y-81530546D01*
X160900499Y-81549500D01*
X160880353Y-81549500D01*
X160695202Y-81588854D01*
X160695188Y-81588858D01*
X160522270Y-81665847D01*
X160472587Y-81701945D01*
X160384356Y-81742620D01*
X160326228Y-81749500D01*
X156848999Y-81749500D01*
X156753711Y-81730546D01*
X156672929Y-81676570D01*
X156618953Y-81595788D01*
X156599999Y-81500500D01*
X156599999Y-80114998D01*
X156601363Y-80088970D01*
X156605459Y-80050000D01*
X156585673Y-79861744D01*
X156527178Y-79681716D01*
X156432532Y-79517784D01*
X156432530Y-79517781D01*
X156432529Y-79517780D01*
X156305872Y-79377114D01*
X156305871Y-79377113D01*
X156305870Y-79377112D01*
X156229299Y-79321480D01*
X156152727Y-79265847D01*
X155979809Y-79188858D01*
X155979795Y-79188854D01*
X155794645Y-79149500D01*
X155605353Y-79149500D01*
X155420202Y-79188854D01*
X155420188Y-79188858D01*
X155247270Y-79265847D01*
X155094125Y-79377114D01*
X154967468Y-79517780D01*
X154891131Y-79650000D01*
X154872820Y-79681716D01*
X154844304Y-79769478D01*
X154814325Y-79861743D01*
X154797152Y-80025135D01*
X154768341Y-80117920D01*
X154725587Y-80175175D01*
X154669478Y-80231284D01*
X154659540Y-80244236D01*
X154657653Y-80242788D01*
X154608772Y-80298535D01*
X154521640Y-80341511D01*
X154457178Y-80350000D01*
X153489542Y-80350000D01*
X153394254Y-80331046D01*
X153313472Y-80277070D01*
X153259496Y-80196288D01*
X153249026Y-80165444D01*
X153247637Y-80160260D01*
X153247637Y-80160259D01*
X153209576Y-80018215D01*
X153209576Y-80018214D01*
X153180638Y-79968094D01*
X153180635Y-79968089D01*
X153130520Y-79881286D01*
X153130519Y-79881284D01*
X153018715Y-79769480D01*
X153018712Y-79769478D01*
X150380520Y-77131286D01*
X150380519Y-77131284D01*
X150268715Y-77019480D01*
X150179425Y-76967929D01*
X150172741Y-76964070D01*
X150131784Y-76940423D01*
X150131786Y-76940423D01*
X150024754Y-76911744D01*
X149979056Y-76899499D01*
X149820942Y-76899499D01*
X149805681Y-76899499D01*
X149805665Y-76899500D01*
X149062603Y-76899500D01*
X148967315Y-76880546D01*
X148886533Y-76826570D01*
X148832557Y-76745788D01*
X148828268Y-76734165D01*
X148827181Y-76731723D01*
X148827179Y-76731720D01*
X148827178Y-76731716D01*
X148732532Y-76567784D01*
X148732530Y-76567781D01*
X148732529Y-76567780D01*
X148605872Y-76427114D01*
X148605871Y-76427113D01*
X148605870Y-76427112D01*
X148521528Y-76365834D01*
X148452727Y-76315847D01*
X148279809Y-76238858D01*
X148279795Y-76238854D01*
X148094645Y-76199500D01*
X147905353Y-76199500D01*
X147720202Y-76238854D01*
X147720188Y-76238858D01*
X147547270Y-76315847D01*
X147394125Y-76427114D01*
X147267468Y-76567780D01*
X147208451Y-76670001D01*
X147172820Y-76731716D01*
X147170500Y-76738856D01*
X147114324Y-76911744D01*
X147094539Y-77100000D01*
X147114325Y-77288256D01*
X147114325Y-77288258D01*
X147172818Y-77468280D01*
X147191422Y-77500504D01*
X147222649Y-77592504D01*
X147216293Y-77689451D01*
X147191422Y-77749496D01*
X147172818Y-77781719D01*
X147114325Y-77961741D01*
X147114325Y-77961743D01*
X147094539Y-78150000D01*
X147114324Y-78338255D01*
X147143572Y-78428270D01*
X147172820Y-78518284D01*
X147263589Y-78675501D01*
X147267468Y-78682219D01*
X147363485Y-78788856D01*
X147394128Y-78822888D01*
X147502141Y-78901364D01*
X147547270Y-78934152D01*
X147720188Y-79011141D01*
X147720191Y-79011142D01*
X147720196Y-79011144D01*
X147905353Y-79050500D01*
X148094644Y-79050500D01*
X148094645Y-79050500D01*
X148279802Y-79011144D01*
X148452729Y-78934151D01*
X148605870Y-78822888D01*
X148671949Y-78749500D01*
X148731930Y-78682886D01*
X148809776Y-78624756D01*
X148903942Y-78600841D01*
X148916972Y-78600500D01*
X149398124Y-78600500D01*
X149493412Y-78619454D01*
X149574194Y-78673430D01*
X151526569Y-80625805D01*
X151580545Y-80706587D01*
X151599499Y-80801875D01*
X151599499Y-81651000D01*
X151580545Y-81746288D01*
X151526569Y-81827070D01*
X151445787Y-81881046D01*
X151350499Y-81900000D01*
X150162452Y-81900000D01*
X150152916Y-81899500D01*
X150144645Y-81899500D01*
X149955353Y-81899500D01*
X149770202Y-81938854D01*
X149770188Y-81938858D01*
X149597270Y-82015847D01*
X149444125Y-82127114D01*
X149317468Y-82267780D01*
X149222820Y-82431715D01*
X149175307Y-82577946D01*
X149127834Y-82662713D01*
X149051537Y-82722861D01*
X148958029Y-82749232D01*
X148938494Y-82750000D01*
X148573085Y-82750000D01*
X148477797Y-82731046D01*
X148397015Y-82677070D01*
X145873429Y-80153484D01*
X145819453Y-80072702D01*
X145800499Y-79977414D01*
X145800499Y-76622586D01*
X145819453Y-76527298D01*
X145873429Y-76446516D01*
X146846515Y-75473430D01*
X146927297Y-75419454D01*
X147022585Y-75400500D01*
X153627413Y-75400500D01*
X153722701Y-75419454D01*
G37*
G04 #@! TD.AperFunction*
G04 #@! TA.AperFunction,Conductor*
G36*
X149262813Y-86268954D02*
G01*
X149305863Y-86291965D01*
X149328038Y-86306782D01*
X149357498Y-86326466D01*
X149401259Y-86344592D01*
X149475880Y-86375501D01*
X149601553Y-86400499D01*
X149601554Y-86400500D01*
X149601555Y-86400500D01*
X151664069Y-86400500D01*
X151664069Y-86400499D01*
X151789743Y-86375501D01*
X151908126Y-86326465D01*
X151909570Y-86325500D01*
X151909571Y-86325499D01*
X151909571Y-86325500D01*
X151909576Y-86325495D01*
X151959767Y-86291959D01*
X152049528Y-86254783D01*
X152098098Y-86250000D01*
X153772624Y-86250000D01*
X153867912Y-86268954D01*
X153948694Y-86322930D01*
X154019477Y-86393713D01*
X154019479Y-86393716D01*
X154131283Y-86505520D01*
X154268215Y-86584577D01*
X154380018Y-86614534D01*
X154420941Y-86625500D01*
X154420942Y-86625500D01*
X155000999Y-86625500D01*
X155096287Y-86644454D01*
X155177069Y-86698430D01*
X155231045Y-86779212D01*
X155249999Y-86874500D01*
X155249999Y-88550818D01*
X155249498Y-88558463D01*
X155249498Y-88749122D01*
X155249499Y-88749135D01*
X155249499Y-90251000D01*
X155230545Y-90346288D01*
X155176569Y-90427070D01*
X155095787Y-90481046D01*
X155000499Y-90500000D01*
X153303538Y-90500000D01*
X153242819Y-90490382D01*
X153242567Y-90491569D01*
X153044645Y-90449500D01*
X152855353Y-90449500D01*
X152657431Y-90491569D01*
X152657178Y-90490382D01*
X152596460Y-90500000D01*
X148923085Y-90500000D01*
X148827797Y-90481046D01*
X148747015Y-90427070D01*
X148523429Y-90203484D01*
X148469453Y-90122702D01*
X148450499Y-90027414D01*
X148450499Y-86499000D01*
X148469453Y-86403712D01*
X148523429Y-86322930D01*
X148604211Y-86268954D01*
X148699499Y-86250000D01*
X149167525Y-86250000D01*
X149262813Y-86268954D01*
G37*
G04 #@! TD.AperFunction*
G04 #@! TA.AperFunction,Conductor*
G36*
X197252238Y-73750040D02*
G01*
X197257043Y-73750125D01*
X197377290Y-73752272D01*
X197408255Y-73754763D01*
X197658050Y-73790678D01*
X197692758Y-73798229D01*
X197932736Y-73868693D01*
X197966009Y-73881102D01*
X198193538Y-73985012D01*
X198224688Y-74002021D01*
X198435101Y-74137245D01*
X198463541Y-74158535D01*
X198652558Y-74322320D01*
X198677678Y-74347440D01*
X198841463Y-74536457D01*
X198862751Y-74564894D01*
X198997974Y-74775305D01*
X199014988Y-74806465D01*
X199118892Y-75033982D01*
X199131305Y-75067262D01*
X199201769Y-75307240D01*
X199209321Y-75341955D01*
X199245232Y-75591726D01*
X199247726Y-75622720D01*
X199249957Y-75747755D01*
X199249997Y-75752197D01*
X199249997Y-77351000D01*
X199231043Y-77446288D01*
X199177067Y-77527070D01*
X199096285Y-77581046D01*
X199000997Y-77600000D01*
X195411196Y-77600000D01*
X195315908Y-77581046D01*
X195235126Y-77527070D01*
X195181150Y-77446288D01*
X195162196Y-77351000D01*
X195181150Y-77255712D01*
X195211859Y-77201783D01*
X195293795Y-77092331D01*
X195344090Y-76957483D01*
X195350499Y-76897873D01*
X195350498Y-75102128D01*
X195344090Y-75042517D01*
X195293795Y-74907669D01*
X195207545Y-74792454D01*
X195092330Y-74706204D01*
X195012116Y-74676286D01*
X194957480Y-74655908D01*
X194897875Y-74649500D01*
X193302946Y-74649500D01*
X193232481Y-74635483D01*
X193110744Y-74648573D01*
X193084125Y-74650000D01*
X191735233Y-74650000D01*
X191709999Y-74669362D01*
X191709999Y-75566988D01*
X191652992Y-75534075D01*
X191525825Y-75500000D01*
X191394173Y-75500000D01*
X191267006Y-75534075D01*
X191209999Y-75566988D01*
X191209999Y-74594578D01*
X191202130Y-74571398D01*
X191199999Y-74538893D01*
X191199999Y-73999000D01*
X191218953Y-73903712D01*
X191272929Y-73822930D01*
X191353711Y-73768954D01*
X191448999Y-73750000D01*
X197247796Y-73750000D01*
X197252238Y-73750040D01*
G37*
G04 #@! TD.AperFunction*
M02*
