M48
; DRILL file KiCad 10.0.4-10.0.4~ubuntu22.04.1 date 2026-09-12T00:20:43
; FORMAT={-:-/ absolute / metric / decimal}
; #@! TF.CreationDate,2026-09-12T00:20:43+02:00
; #@! TF.GenerationSoftware,Kicad,Pcbnew,10.0.4-10.0.4~ubuntu22.04.1
; #@! TF.FileFunction,Plated,1,2,PTH
FMAT,2
METRIC
; #@! TA.AperFunction,Plated,PTH,ViaDrill
T1C0.400
; #@! TA.AperFunction,Plated,PTH,ViaDrill
T2C0.500
; #@! TA.AperFunction,Plated,PTH,ComponentDrill
T3C1.000
%
G90
G05
T1
X113.25Y-75.25
X113.25Y-79.5
X113.25Y-91.25
X113.25Y-94.75
X114.25Y-76.25
X114.5Y-79.5
X116.5Y-82.5
X117.5Y-78.5
X117.75Y-85.5
X117.75Y-88.0
X119.75Y-82.5
X121.0Y-85.5
X124.0Y-80.0
X124.25Y-82.5
X125.0Y-85.5
X125.0Y-88.0
X128.75Y-82.0
X128.75Y-85.5
X128.75Y-88.5
X129.5Y-75.25
X131.75Y-75.25
X131.75Y-79.25
X131.75Y-83.75
X131.75Y-88.0
X131.75Y-91.75
X140.5Y-79.0
X141.5Y-74.5
X142.0Y-95.5
X142.25Y-90.5
X143.5Y-74.5
X143.75Y-95.5
X144.5Y-90.5
X144.5Y-93.0
X145.25Y-94.2
X146.9Y-84.25
X147.75Y-80.25
X147.8Y-85.3
X148.0Y-77.1
X148.0Y-78.15
X148.75Y-79.25
X148.95Y-82.1
X149.0Y-86.75
X149.0Y-87.75
X149.0Y-88.75
X149.0Y-89.75
X149.45Y-93.85
X150.05Y-81.2
X150.05Y-82.8
X150.4Y-76.45
X151.2Y-84.9
X152.312Y-85.037
X152.95Y-91.35
X153.25Y-88.5
X154.0Y-89.25
X154.75Y-88.5
X154.75Y-90.0
X155.6Y-77.7
X155.7Y-80.05
X155.85Y-74.95
X155.85Y-91.85
X155.975Y-82.35
X156.35Y-84.975
X157.6Y-91.85
X157.775Y-84.975
X159.5Y-89.0
X159.5Y-90.0
X159.5Y-91.0
X159.5Y-92.0
X159.9Y-76.5
X160.65Y-81.1
X160.975Y-79.65
X160.975Y-82.45
X160.975Y-90.05
X160.975Y-92.85
X162.0Y-84.75
X162.45Y-88.85
X163.35Y-77.6
X163.5Y-80.5
X163.5Y-81.75
X163.5Y-91.0
X163.5Y-92.25
X163.75Y-84.75
X164.75Y-80.5
X164.75Y-81.75
X164.75Y-91.0
X164.75Y-92.25
X165.75Y-84.75
X167.0Y-84.75
X167.375Y-91.65
X168.75Y-93.0
X169.5Y-84.75
X170.0Y-93.0
X170.5Y-84.75
X171.25Y-88.5
X171.65Y-86.85
X171.75Y-76.0
X172.75Y-93.1
X173.0Y-77.5
X173.0Y-86.5
X173.0Y-88.4
X174.0Y-87.5
X174.0Y-89.5
X174.0Y-93.1
X175.75Y-89.5
X178.75Y-78.55
X179.5Y-75.75
X179.5Y-88.5
X179.7Y-78.5
X180.25Y-89.25
X180.5Y-76.75
X181.25Y-82.25
X181.25Y-83.25
X181.25Y-84.25
X181.25Y-90.25
X181.25Y-91.5
X181.25Y-92.75
X181.25Y-94.0
X182.5Y-94.0
X184.0Y-87.0
X184.0Y-94.0
X185.5Y-87.0
X185.5Y-94.0
X187.0Y-79.25
X187.0Y-80.75
X187.0Y-82.25
X187.0Y-92.25
X187.05Y-94.0
X188.0Y-83.0
X188.5Y-79.25
X190.0Y-79.25
X190.0Y-83.0
X191.5Y-79.25
X191.5Y-83.75
X192.25Y-84.5
X193.0Y-79.25
X193.0Y-80.75
X193.0Y-82.25
X193.0Y-83.5
X193.15Y-87.9
X193.15Y-89.3
X193.15Y-90.45
X193.75Y-92.3
X193.75Y-95.25
X195.0Y-92.3
X195.0Y-95.25
X196.0Y-77.15
X196.25Y-92.3
X196.25Y-95.25
X197.5Y-92.3
X197.5Y-95.25
X198.2Y-77.15
X198.75Y-92.3
X198.75Y-94.5
T2
X167.65Y-81.1
T3
X122.67Y-76.0
X122.67Y-94.0
X125.21Y-76.0
X125.21Y-94.0
X127.75Y-76.0
X140.0Y-76.42
X140.0Y-81.5
X140.0Y-84.04
X140.0Y-86.58
X140.0Y-89.12
X140.0Y-91.66
X140.0Y-94.2
X142.54Y-76.42
X188.92Y-76.0
X188.92Y-94.0
X191.46Y-76.0
X191.46Y-94.0
X194.0Y-76.0
X197.0Y-84.75
M30
