G04 #@! TF.GenerationSoftware,KiCad,Pcbnew,10.0.4-10.0.4~ubuntu22.04.1*
G04 #@! TF.CreationDate,2026-09-12T00:20:43+02:00*
G04 #@! TF.ProjectId,panel,70616e65-6c2e-46b6-9963-61645f706362,rev?*
G04 #@! TF.SameCoordinates,PX6b0cc90PY5b8d800*
G04 #@! TF.FileFunction,Legend,Top*
G04 #@! TF.FilePolarity,Positive*
%FSLAX46Y46*%
G04 Gerber Fmt 4.6, Leading zero omitted, Abs format (unit mm)*
G04 Created by KiCad (PCBNEW 10.0.4-10.0.4~ubuntu22.04.1) date 2026-09-12 00:20:43*
%MOMM*%
%LPD*%
G01*
G04 APERTURE LIST*
%ADD10C,0.150000*%
%ADD11C,0.037500*%
%ADD12C,0.120000*%
%ADD13C,0.200000*%
%ADD14C,0.400000*%
%ADD15C,0.100000*%
%ADD16R,1.700000X1.700000*%
%ADD17O,1.700000X1.700000*%
%ADD18C,2.000000*%
%ADD19R,2.250000X2.250000*%
%ADD20R,1.200000X1.800000*%
%ADD21C,0.500000*%
%ADD22R,2.350000X0.700000*%
%ADD23R,4.900000X4.800000*%
G04 APERTURE END LIST*
D10*
G36*
X190445633Y-78890930D02*
G01*
X189454364Y-78890930D01*
X189454364Y-78133390D01*
X189565475Y-78133390D01*
X189565475Y-78276247D01*
X189565726Y-78278800D01*
X189565564Y-78279893D01*
X189566373Y-78285366D01*
X189566916Y-78290879D01*
X189567338Y-78291900D01*
X189567714Y-78294437D01*
X189615333Y-78484913D01*
X189615718Y-78485992D01*
X189615757Y-78486532D01*
X189618084Y-78492613D01*
X189620280Y-78498759D01*
X189620602Y-78499194D01*
X189621012Y-78500264D01*
X189668631Y-78595502D01*
X189672594Y-78601798D01*
X189673352Y-78603628D01*
X189675041Y-78605686D01*
X189676463Y-78607945D01*
X189677961Y-78609244D01*
X189682680Y-78614994D01*
X189777918Y-78710233D01*
X189789283Y-78719561D01*
X189791773Y-78720592D01*
X189793808Y-78722357D01*
X189807234Y-78728351D01*
X189950090Y-78775970D01*
X189957345Y-78777619D01*
X189959176Y-78778378D01*
X189961829Y-78778639D01*
X189964427Y-78779230D01*
X189966401Y-78779089D01*
X189973808Y-78779819D01*
X190069046Y-78779819D01*
X190076451Y-78779089D01*
X190078426Y-78779230D01*
X190081023Y-78778639D01*
X190083678Y-78778378D01*
X190085509Y-78777619D01*
X190092763Y-78775970D01*
X190235620Y-78728351D01*
X190249045Y-78722357D01*
X190251080Y-78720591D01*
X190253571Y-78719560D01*
X190264937Y-78710232D01*
X190312555Y-78662613D01*
X190321883Y-78651247D01*
X190329164Y-78633668D01*
X190333081Y-78624212D01*
X190334522Y-78609580D01*
X190334522Y-78276247D01*
X190333081Y-78261615D01*
X190321882Y-78234579D01*
X190301190Y-78213887D01*
X190274154Y-78202688D01*
X190259522Y-78201247D01*
X190069046Y-78201247D01*
X190054414Y-78202688D01*
X190027378Y-78213887D01*
X190006686Y-78234579D01*
X189995487Y-78261615D01*
X189995487Y-78290879D01*
X190006686Y-78317915D01*
X190027378Y-78338607D01*
X190054414Y-78349806D01*
X190069046Y-78351247D01*
X190184522Y-78351247D01*
X190184522Y-78578514D01*
X190171389Y-78591647D01*
X190056876Y-78629819D01*
X189985978Y-78629819D01*
X189871465Y-78591648D01*
X189797352Y-78517534D01*
X189758858Y-78440547D01*
X189715475Y-78267013D01*
X189715475Y-78142624D01*
X189758858Y-77969090D01*
X189797352Y-77892103D01*
X189871465Y-77817990D01*
X189985978Y-77779819D01*
X190098960Y-77779819D01*
X190178362Y-77819520D01*
X190192093Y-77824775D01*
X190221283Y-77826849D01*
X190249045Y-77817595D01*
X190271152Y-77798422D01*
X190284240Y-77772247D01*
X190286314Y-77743057D01*
X190277060Y-77715296D01*
X190257887Y-77693188D01*
X190245444Y-77685356D01*
X190150206Y-77637737D01*
X190136474Y-77632482D01*
X190133786Y-77632291D01*
X190131297Y-77631260D01*
X190116665Y-77629819D01*
X189973808Y-77629819D01*
X189966401Y-77630548D01*
X189964427Y-77630408D01*
X189961829Y-77630998D01*
X189959176Y-77631260D01*
X189957345Y-77632018D01*
X189950090Y-77633668D01*
X189807234Y-77681287D01*
X189793808Y-77687281D01*
X189791773Y-77689045D01*
X189789283Y-77690077D01*
X189777918Y-77699405D01*
X189682680Y-77794643D01*
X189677961Y-77800392D01*
X189676463Y-77801692D01*
X189675041Y-77803951D01*
X189673353Y-77806008D01*
X189672595Y-77807835D01*
X189668631Y-77814135D01*
X189621012Y-77909373D01*
X189620602Y-77910442D01*
X189620280Y-77910878D01*
X189618084Y-77917023D01*
X189615757Y-77923105D01*
X189615718Y-77923644D01*
X189615333Y-77924724D01*
X189567714Y-78115200D01*
X189567338Y-78117736D01*
X189566916Y-78118758D01*
X189566373Y-78124270D01*
X189565564Y-78129744D01*
X189565726Y-78130836D01*
X189565475Y-78133390D01*
X189454364Y-78133390D01*
X189454364Y-77518708D01*
X190445633Y-77518708D01*
X190445633Y-78890930D01*
G37*
G36*
X189111711Y-78890341D02*
G01*
X185931996Y-78890341D01*
X185931996Y-78309234D01*
X186043107Y-78309234D01*
X186043107Y-78338498D01*
X186054306Y-78365534D01*
X186074998Y-78386226D01*
X186102034Y-78397425D01*
X186116666Y-78398866D01*
X186878571Y-78398866D01*
X186893203Y-78397425D01*
X186920239Y-78386226D01*
X186940931Y-78365534D01*
X186952130Y-78338498D01*
X186952130Y-78309234D01*
X186940931Y-78282198D01*
X186920239Y-78261506D01*
X186893203Y-78250307D01*
X186878571Y-78248866D01*
X186116666Y-78248866D01*
X186102034Y-78250307D01*
X186074998Y-78261506D01*
X186054306Y-78282198D01*
X186043107Y-78309234D01*
X185931996Y-78309234D01*
X185931996Y-77704819D01*
X187279761Y-77704819D01*
X187279761Y-78704819D01*
X187281202Y-78719451D01*
X187292401Y-78746487D01*
X187313093Y-78767179D01*
X187340129Y-78778378D01*
X187369393Y-78778378D01*
X187396429Y-78767179D01*
X187417121Y-78746487D01*
X187428320Y-78719451D01*
X187429761Y-78704819D01*
X187429761Y-78256009D01*
X187851189Y-78256009D01*
X187851189Y-78704819D01*
X187852630Y-78719451D01*
X187863829Y-78746487D01*
X187884521Y-78767179D01*
X187911557Y-78778378D01*
X187940821Y-78778378D01*
X187967857Y-78767179D01*
X187988549Y-78746487D01*
X187999748Y-78719451D01*
X188001189Y-78704819D01*
X188001189Y-77714199D01*
X188185112Y-77714199D01*
X188188372Y-77728536D01*
X188521705Y-78728536D01*
X188527699Y-78741961D01*
X188531209Y-78746008D01*
X188533606Y-78750802D01*
X188540714Y-78756967D01*
X188546873Y-78764068D01*
X188551662Y-78766462D01*
X188555713Y-78769976D01*
X188564638Y-78772950D01*
X188573046Y-78777155D01*
X188578390Y-78777534D01*
X188583476Y-78779230D01*
X188592856Y-78778563D01*
X188602236Y-78779230D01*
X188607321Y-78777534D01*
X188612666Y-78777155D01*
X188621076Y-78772949D01*
X188629998Y-78769976D01*
X188634045Y-78766465D01*
X188638839Y-78764069D01*
X188645002Y-78756963D01*
X188652106Y-78750802D01*
X188654501Y-78746010D01*
X188658013Y-78741962D01*
X188664007Y-78728536D01*
X188997340Y-77728536D01*
X189000600Y-77714200D01*
X188998525Y-77685010D01*
X188985439Y-77658836D01*
X188963331Y-77639662D01*
X188935569Y-77630408D01*
X188906379Y-77632483D01*
X188880206Y-77645570D01*
X188861032Y-77667677D01*
X188855038Y-77681102D01*
X188592856Y-78467648D01*
X188330674Y-77681102D01*
X188324680Y-77667676D01*
X188305506Y-77645569D01*
X188279333Y-77632483D01*
X188250143Y-77630408D01*
X188222380Y-77639662D01*
X188200273Y-77658836D01*
X188187187Y-77685009D01*
X188185112Y-77714199D01*
X188001189Y-77714199D01*
X188001189Y-77704819D01*
X187999748Y-77690187D01*
X187988549Y-77663151D01*
X187967857Y-77642459D01*
X187940821Y-77631260D01*
X187911557Y-77631260D01*
X187884521Y-77642459D01*
X187863829Y-77663151D01*
X187852630Y-77690187D01*
X187851189Y-77704819D01*
X187851189Y-78106009D01*
X187429761Y-78106009D01*
X187429761Y-77704819D01*
X187428320Y-77690187D01*
X187417121Y-77663151D01*
X187396429Y-77642459D01*
X187369393Y-77631260D01*
X187340129Y-77631260D01*
X187313093Y-77642459D01*
X187292401Y-77663151D01*
X187281202Y-77690187D01*
X187279761Y-77704819D01*
X185931996Y-77704819D01*
X185931996Y-77519297D01*
X189111711Y-77519297D01*
X189111711Y-78890341D01*
G37*
G36*
X127816476Y-92890931D02*
G01*
X120827237Y-92890931D01*
X120827237Y-92309235D01*
X120938348Y-92309235D01*
X120938348Y-92338499D01*
X120949547Y-92365535D01*
X120970239Y-92386227D01*
X120997275Y-92397426D01*
X121011907Y-92398867D01*
X121317859Y-92398867D01*
X121317859Y-92704820D01*
X121319300Y-92719452D01*
X121330499Y-92746488D01*
X121351191Y-92767180D01*
X121378227Y-92778379D01*
X121407491Y-92778379D01*
X121434527Y-92767180D01*
X121455219Y-92746488D01*
X121466418Y-92719452D01*
X121467859Y-92704820D01*
X121467859Y-92398867D01*
X121773812Y-92398867D01*
X121788444Y-92397426D01*
X121815480Y-92386227D01*
X121836172Y-92365535D01*
X121847371Y-92338499D01*
X121847371Y-92309235D01*
X121836172Y-92282199D01*
X121815480Y-92261507D01*
X121788444Y-92250308D01*
X121773812Y-92248867D01*
X121467859Y-92248867D01*
X121467859Y-92188250D01*
X122127733Y-92188250D01*
X122128824Y-92191865D01*
X122128824Y-92195641D01*
X122133018Y-92205766D01*
X122136186Y-92216266D01*
X122138577Y-92219189D01*
X122140023Y-92222678D01*
X122147776Y-92230431D01*
X122154717Y-92238914D01*
X122158043Y-92240698D01*
X122160715Y-92243370D01*
X122170842Y-92247565D01*
X122180504Y-92252748D01*
X122184263Y-92253123D01*
X122187752Y-92254569D01*
X122198713Y-92254569D01*
X122209623Y-92255660D01*
X122213239Y-92254569D01*
X122217014Y-92254569D01*
X122227139Y-92250374D01*
X122237639Y-92247207D01*
X122240562Y-92244815D01*
X122244051Y-92243370D01*
X122255416Y-92234043D01*
X122294429Y-92195030D01*
X122362945Y-92160772D01*
X122565630Y-92160772D01*
X122634146Y-92195030D01*
X122664553Y-92225437D01*
X122698811Y-92293953D01*
X122698811Y-92496638D01*
X122664552Y-92565154D01*
X122634145Y-92595562D01*
X122565630Y-92629820D01*
X122362945Y-92629820D01*
X122294429Y-92595562D01*
X122255417Y-92556549D01*
X122244051Y-92547221D01*
X122217015Y-92536022D01*
X122187752Y-92536022D01*
X122160716Y-92547220D01*
X122140023Y-92567913D01*
X122128824Y-92594949D01*
X122128824Y-92624212D01*
X122140022Y-92651248D01*
X122149349Y-92662613D01*
X122196968Y-92710233D01*
X122202717Y-92714951D01*
X122204018Y-92716451D01*
X122206277Y-92717873D01*
X122208334Y-92719561D01*
X122210161Y-92720318D01*
X122216461Y-92724283D01*
X122311699Y-92771902D01*
X122325430Y-92777157D01*
X122328119Y-92777348D01*
X122330608Y-92778379D01*
X122345240Y-92779820D01*
X122583335Y-92779820D01*
X122597967Y-92778379D01*
X122600456Y-92777347D01*
X122603144Y-92777157D01*
X122616876Y-92771902D01*
X122712114Y-92724283D01*
X122718413Y-92720318D01*
X122720241Y-92719561D01*
X122722297Y-92717873D01*
X122724557Y-92716451D01*
X122725857Y-92714951D01*
X122731607Y-92710233D01*
X122779225Y-92662614D01*
X122783943Y-92656864D01*
X122785442Y-92655565D01*
X122786863Y-92653306D01*
X122788553Y-92651248D01*
X122789310Y-92649418D01*
X122793274Y-92643122D01*
X122840893Y-92547884D01*
X122846148Y-92534153D01*
X122846339Y-92531463D01*
X122847370Y-92528975D01*
X122848811Y-92514343D01*
X122848811Y-92276248D01*
X122847370Y-92261616D01*
X122846339Y-92259127D01*
X122846148Y-92256438D01*
X122840893Y-92242707D01*
X122793274Y-92147469D01*
X122789309Y-92141169D01*
X122788552Y-92139342D01*
X122786863Y-92137285D01*
X122785442Y-92135026D01*
X122783943Y-92133726D01*
X122779225Y-92127977D01*
X122731606Y-92080358D01*
X122725856Y-92075639D01*
X122724557Y-92074141D01*
X122722297Y-92072719D01*
X122720241Y-92071031D01*
X122718413Y-92070273D01*
X122712114Y-92066309D01*
X122616876Y-92018690D01*
X122603144Y-92013435D01*
X122600456Y-92013244D01*
X122597967Y-92012213D01*
X122583335Y-92010772D01*
X122345240Y-92010772D01*
X122330608Y-92012213D01*
X122328119Y-92013243D01*
X122325430Y-92013435D01*
X122311699Y-92018690D01*
X122293057Y-92028010D01*
X122317876Y-91779820D01*
X122726192Y-91779820D01*
X122740824Y-91778379D01*
X122767860Y-91767180D01*
X122788552Y-91746488D01*
X122799751Y-91719452D01*
X122799751Y-91714200D01*
X122985115Y-91714200D01*
X122988375Y-91728537D01*
X123321708Y-92728537D01*
X123327702Y-92741962D01*
X123331212Y-92746009D01*
X123333609Y-92750803D01*
X123340717Y-92756968D01*
X123346876Y-92764069D01*
X123351665Y-92766463D01*
X123355716Y-92769977D01*
X123364641Y-92772951D01*
X123373049Y-92777156D01*
X123378393Y-92777535D01*
X123383479Y-92779231D01*
X123392859Y-92778564D01*
X123402239Y-92779231D01*
X123407324Y-92777535D01*
X123412669Y-92777156D01*
X123421079Y-92772950D01*
X123430001Y-92769977D01*
X123434048Y-92766466D01*
X123438842Y-92764070D01*
X123445005Y-92756964D01*
X123452109Y-92750803D01*
X123454504Y-92746011D01*
X123458016Y-92741963D01*
X123464010Y-92728537D01*
X123603777Y-92309235D01*
X124747872Y-92309235D01*
X124747872Y-92338499D01*
X124759071Y-92365535D01*
X124779763Y-92386227D01*
X124806799Y-92397426D01*
X124821431Y-92398867D01*
X125127383Y-92398867D01*
X125127383Y-92704820D01*
X125128824Y-92719452D01*
X125140023Y-92746488D01*
X125160715Y-92767180D01*
X125187751Y-92778379D01*
X125217015Y-92778379D01*
X125244051Y-92767180D01*
X125264743Y-92746488D01*
X125275942Y-92719452D01*
X125277383Y-92704820D01*
X125277383Y-92398867D01*
X125583336Y-92398867D01*
X125597968Y-92397426D01*
X125625004Y-92386227D01*
X125645696Y-92365535D01*
X125656895Y-92338499D01*
X125656895Y-92309235D01*
X125645696Y-92282199D01*
X125625004Y-92261507D01*
X125597968Y-92250308D01*
X125583336Y-92248867D01*
X125277383Y-92248867D01*
X125277383Y-91942915D01*
X125275942Y-91928283D01*
X125264743Y-91901247D01*
X125244051Y-91880555D01*
X125217015Y-91869356D01*
X125187751Y-91869356D01*
X125160715Y-91880555D01*
X125140023Y-91901247D01*
X125128824Y-91928283D01*
X125127383Y-91942915D01*
X125127383Y-92248867D01*
X124821431Y-92248867D01*
X124806799Y-92250308D01*
X124779763Y-92261507D01*
X124759071Y-92282199D01*
X124747872Y-92309235D01*
X123603777Y-92309235D01*
X123797343Y-91728537D01*
X123800603Y-91714201D01*
X123799936Y-91704820D01*
X125984526Y-91704820D01*
X125984526Y-92704820D01*
X125985967Y-92719452D01*
X125997166Y-92746488D01*
X126017858Y-92767180D01*
X126044894Y-92778379D01*
X126074158Y-92778379D01*
X126101194Y-92767180D01*
X126121886Y-92746488D01*
X126133085Y-92719452D01*
X126134526Y-92704820D01*
X126134526Y-92256010D01*
X126555954Y-92256010D01*
X126555954Y-92704820D01*
X126557395Y-92719452D01*
X126568594Y-92746488D01*
X126589286Y-92767180D01*
X126616322Y-92778379D01*
X126645586Y-92778379D01*
X126672622Y-92767180D01*
X126693314Y-92746488D01*
X126704513Y-92719452D01*
X126705954Y-92704820D01*
X126705954Y-91714200D01*
X126889877Y-91714200D01*
X126893137Y-91728537D01*
X127226470Y-92728537D01*
X127232464Y-92741962D01*
X127235974Y-92746009D01*
X127238371Y-92750803D01*
X127245479Y-92756968D01*
X127251638Y-92764069D01*
X127256427Y-92766463D01*
X127260478Y-92769977D01*
X127269403Y-92772951D01*
X127277811Y-92777156D01*
X127283155Y-92777535D01*
X127288241Y-92779231D01*
X127297621Y-92778564D01*
X127307001Y-92779231D01*
X127312086Y-92777535D01*
X127317431Y-92777156D01*
X127325841Y-92772950D01*
X127334763Y-92769977D01*
X127338810Y-92766466D01*
X127343604Y-92764070D01*
X127349767Y-92756964D01*
X127356871Y-92750803D01*
X127359266Y-92746011D01*
X127362778Y-92741963D01*
X127368772Y-92728537D01*
X127702105Y-91728537D01*
X127705365Y-91714201D01*
X127703290Y-91685011D01*
X127690204Y-91658837D01*
X127668096Y-91639663D01*
X127640334Y-91630409D01*
X127611144Y-91632484D01*
X127584971Y-91645571D01*
X127565797Y-91667678D01*
X127559803Y-91681103D01*
X127297621Y-92467649D01*
X127035439Y-91681103D01*
X127029445Y-91667677D01*
X127010271Y-91645570D01*
X126984098Y-91632484D01*
X126954908Y-91630409D01*
X126927145Y-91639663D01*
X126905038Y-91658837D01*
X126891952Y-91685010D01*
X126889877Y-91714200D01*
X126705954Y-91714200D01*
X126705954Y-91704820D01*
X126704513Y-91690188D01*
X126693314Y-91663152D01*
X126672622Y-91642460D01*
X126645586Y-91631261D01*
X126616322Y-91631261D01*
X126589286Y-91642460D01*
X126568594Y-91663152D01*
X126557395Y-91690188D01*
X126555954Y-91704820D01*
X126555954Y-92106010D01*
X126134526Y-92106010D01*
X126134526Y-91704820D01*
X126133085Y-91690188D01*
X126121886Y-91663152D01*
X126101194Y-91642460D01*
X126074158Y-91631261D01*
X126044894Y-91631261D01*
X126017858Y-91642460D01*
X125997166Y-91663152D01*
X125985967Y-91690188D01*
X125984526Y-91704820D01*
X123799936Y-91704820D01*
X123798528Y-91685011D01*
X123785442Y-91658837D01*
X123763334Y-91639663D01*
X123735572Y-91630409D01*
X123706382Y-91632484D01*
X123680209Y-91645571D01*
X123661035Y-91667678D01*
X123655041Y-91681103D01*
X123392859Y-92467649D01*
X123130677Y-91681103D01*
X123124683Y-91667677D01*
X123105509Y-91645570D01*
X123079336Y-91632484D01*
X123050146Y-91630409D01*
X123022383Y-91639663D01*
X123000276Y-91658837D01*
X122987190Y-91685010D01*
X122985115Y-91714200D01*
X122799751Y-91714200D01*
X122799751Y-91690188D01*
X122788552Y-91663152D01*
X122767860Y-91642460D01*
X122740824Y-91631261D01*
X122726192Y-91629820D01*
X122250002Y-91629820D01*
X122244590Y-91630352D01*
X122242762Y-91630170D01*
X122240975Y-91630708D01*
X122235370Y-91631261D01*
X122225243Y-91635455D01*
X122214746Y-91638623D01*
X122211822Y-91641014D01*
X122208334Y-91642460D01*
X122200580Y-91650213D01*
X122192098Y-91657154D01*
X122190313Y-91660480D01*
X122187642Y-91663152D01*
X122183446Y-91673281D01*
X122178264Y-91682941D01*
X122177156Y-91688465D01*
X122176443Y-91690188D01*
X122176443Y-91692024D01*
X122175374Y-91697357D01*
X122127755Y-92173547D01*
X122127733Y-92188250D01*
X121467859Y-92188250D01*
X121467859Y-91942915D01*
X121466418Y-91928283D01*
X121455219Y-91901247D01*
X121434527Y-91880555D01*
X121407491Y-91869356D01*
X121378227Y-91869356D01*
X121351191Y-91880555D01*
X121330499Y-91901247D01*
X121319300Y-91928283D01*
X121317859Y-91942915D01*
X121317859Y-92248867D01*
X121011907Y-92248867D01*
X120997275Y-92250308D01*
X120970239Y-92261507D01*
X120949547Y-92282199D01*
X120938348Y-92309235D01*
X120827237Y-92309235D01*
X120827237Y-91518709D01*
X127816476Y-91518709D01*
X127816476Y-92890931D01*
G37*
G36*
X126447583Y-77817991D02*
G01*
X126521696Y-77892104D01*
X126560189Y-77969091D01*
X126603573Y-78142625D01*
X126603573Y-78267014D01*
X126560189Y-78440548D01*
X126521695Y-78517535D01*
X126447583Y-78591648D01*
X126333070Y-78629820D01*
X126182145Y-78629820D01*
X126182145Y-77779820D01*
X126333070Y-77779820D01*
X126447583Y-77817991D01*
G37*
G36*
X128300813Y-77814078D02*
G01*
X128372755Y-77886020D01*
X128413097Y-78047387D01*
X128413097Y-78362252D01*
X128372755Y-78523618D01*
X128300812Y-78595562D01*
X128232297Y-78629820D01*
X128077231Y-78629820D01*
X128008715Y-78595562D01*
X127936772Y-78523618D01*
X127896431Y-78362252D01*
X127896431Y-78047387D01*
X127936772Y-77886020D01*
X128008715Y-77814078D01*
X128077231Y-77779820D01*
X128232297Y-77779820D01*
X128300813Y-77814078D01*
G37*
G36*
X129577529Y-78890931D02*
G01*
X119970094Y-78890931D01*
X119970094Y-78309235D01*
X120081205Y-78309235D01*
X120081205Y-78338499D01*
X120092404Y-78365535D01*
X120113096Y-78386227D01*
X120140132Y-78397426D01*
X120154764Y-78398867D01*
X120916669Y-78398867D01*
X120931301Y-78397426D01*
X120958337Y-78386227D01*
X120979029Y-78365535D01*
X120990228Y-78338499D01*
X120990228Y-78309235D01*
X120979029Y-78282199D01*
X120958337Y-78261507D01*
X120931301Y-78250308D01*
X120916669Y-78248867D01*
X120154764Y-78248867D01*
X120140132Y-78250308D01*
X120113096Y-78261507D01*
X120092404Y-78282199D01*
X120081205Y-78309235D01*
X119970094Y-78309235D01*
X119970094Y-77704820D01*
X121317859Y-77704820D01*
X121317859Y-78704820D01*
X121319300Y-78719452D01*
X121330499Y-78746488D01*
X121351191Y-78767180D01*
X121378227Y-78778379D01*
X121407491Y-78778379D01*
X121434527Y-78767180D01*
X121455219Y-78746488D01*
X121466418Y-78719452D01*
X121467859Y-78704820D01*
X121467859Y-78256010D01*
X121889287Y-78256010D01*
X121889287Y-78704820D01*
X121890728Y-78719452D01*
X121901927Y-78746488D01*
X121922619Y-78767180D01*
X121949655Y-78778379D01*
X121978919Y-78778379D01*
X122005955Y-78767180D01*
X122026647Y-78746488D01*
X122037846Y-78719452D01*
X122039287Y-78704820D01*
X122039287Y-77714200D01*
X122223210Y-77714200D01*
X122226470Y-77728537D01*
X122559803Y-78728537D01*
X122565797Y-78741962D01*
X122569307Y-78746009D01*
X122571704Y-78750803D01*
X122578812Y-78756968D01*
X122584971Y-78764069D01*
X122589760Y-78766463D01*
X122593811Y-78769977D01*
X122602736Y-78772951D01*
X122611144Y-78777156D01*
X122616488Y-78777535D01*
X122621574Y-78779231D01*
X122630954Y-78778564D01*
X122640334Y-78779231D01*
X122645419Y-78777535D01*
X122650764Y-78777156D01*
X122659174Y-78772950D01*
X122668096Y-78769977D01*
X122672143Y-78766466D01*
X122676937Y-78764070D01*
X122683100Y-78756964D01*
X122690204Y-78750803D01*
X122692599Y-78746011D01*
X122696111Y-78741963D01*
X122702105Y-78728537D01*
X122900487Y-78133391D01*
X123936907Y-78133391D01*
X123936907Y-78276248D01*
X123937158Y-78278801D01*
X123936996Y-78279894D01*
X123937805Y-78285367D01*
X123938348Y-78290880D01*
X123938770Y-78291901D01*
X123939146Y-78294438D01*
X123986765Y-78484914D01*
X123987150Y-78485993D01*
X123987189Y-78486533D01*
X123989516Y-78492614D01*
X123991712Y-78498760D01*
X123992034Y-78499195D01*
X123992444Y-78500265D01*
X124040063Y-78595503D01*
X124044026Y-78601799D01*
X124044784Y-78603629D01*
X124046473Y-78605687D01*
X124047895Y-78607946D01*
X124049393Y-78609245D01*
X124054112Y-78614995D01*
X124149350Y-78710234D01*
X124160715Y-78719562D01*
X124163205Y-78720593D01*
X124165240Y-78722358D01*
X124178666Y-78728352D01*
X124321522Y-78775971D01*
X124328777Y-78777620D01*
X124330608Y-78778379D01*
X124333261Y-78778640D01*
X124335859Y-78779231D01*
X124337833Y-78779090D01*
X124345240Y-78779820D01*
X124440478Y-78779820D01*
X124447883Y-78779090D01*
X124449858Y-78779231D01*
X124452455Y-78778640D01*
X124455110Y-78778379D01*
X124456941Y-78777620D01*
X124464195Y-78775971D01*
X124607052Y-78728352D01*
X124620477Y-78722358D01*
X124622512Y-78720592D01*
X124625003Y-78719561D01*
X124636369Y-78710233D01*
X124683987Y-78662614D01*
X124693315Y-78651248D01*
X124701053Y-78632566D01*
X124704513Y-78624213D01*
X124705954Y-78609581D01*
X124705954Y-78276248D01*
X124704513Y-78261616D01*
X124693314Y-78234580D01*
X124672622Y-78213888D01*
X124645586Y-78202689D01*
X124630954Y-78201248D01*
X124440478Y-78201248D01*
X124425846Y-78202689D01*
X124398810Y-78213888D01*
X124378118Y-78234580D01*
X124366919Y-78261616D01*
X124366919Y-78290880D01*
X124378118Y-78317916D01*
X124398810Y-78338608D01*
X124425846Y-78349807D01*
X124440478Y-78351248D01*
X124555954Y-78351248D01*
X124555954Y-78578515D01*
X124542821Y-78591648D01*
X124428308Y-78629820D01*
X124357410Y-78629820D01*
X124242897Y-78591649D01*
X124168784Y-78517535D01*
X124130290Y-78440548D01*
X124086907Y-78267014D01*
X124086907Y-78142625D01*
X124130290Y-77969091D01*
X124168784Y-77892104D01*
X124242897Y-77817991D01*
X124357410Y-77779820D01*
X124470392Y-77779820D01*
X124549794Y-77819521D01*
X124563525Y-77824776D01*
X124592715Y-77826850D01*
X124620477Y-77817596D01*
X124642584Y-77798423D01*
X124655672Y-77772248D01*
X124657746Y-77743058D01*
X124648492Y-77715297D01*
X124639406Y-77704820D01*
X124984526Y-77704820D01*
X124984526Y-78704820D01*
X124985967Y-78719452D01*
X124997166Y-78746488D01*
X125017858Y-78767180D01*
X125044894Y-78778379D01*
X125074158Y-78778379D01*
X125101194Y-78767180D01*
X125121886Y-78746488D01*
X125133085Y-78719452D01*
X125134526Y-78704820D01*
X125134526Y-77987236D01*
X125565836Y-78742031D01*
X125568025Y-78745115D01*
X125568594Y-78746488D01*
X125569991Y-78747885D01*
X125574346Y-78754020D01*
X125582234Y-78760128D01*
X125589286Y-78767180D01*
X125593704Y-78769010D01*
X125597484Y-78771937D01*
X125607105Y-78774561D01*
X125616322Y-78778379D01*
X125621103Y-78778379D01*
X125625715Y-78779637D01*
X125635612Y-78778379D01*
X125645586Y-78778379D01*
X125650001Y-78776549D01*
X125654745Y-78775947D01*
X125663409Y-78770996D01*
X125672622Y-78767180D01*
X125676000Y-78763801D01*
X125680154Y-78761428D01*
X125686263Y-78753538D01*
X125693314Y-78746488D01*
X125695143Y-78742071D01*
X125698071Y-78738291D01*
X125700695Y-78728667D01*
X125704513Y-78719452D01*
X125705249Y-78711969D01*
X125705771Y-78710059D01*
X125705583Y-78708583D01*
X125705954Y-78704820D01*
X125705954Y-77704820D01*
X126032145Y-77704820D01*
X126032145Y-78704820D01*
X126033586Y-78719452D01*
X126044785Y-78746488D01*
X126065477Y-78767180D01*
X126092513Y-78778379D01*
X126107145Y-78779820D01*
X126345240Y-78779820D01*
X126352645Y-78779090D01*
X126354620Y-78779231D01*
X126357217Y-78778640D01*
X126359872Y-78778379D01*
X126361703Y-78777620D01*
X126368957Y-78775971D01*
X126511814Y-78728352D01*
X126525239Y-78722358D01*
X126527274Y-78720592D01*
X126529765Y-78719561D01*
X126541130Y-78710234D01*
X126636369Y-78614994D01*
X126641086Y-78609245D01*
X126642585Y-78607946D01*
X126644006Y-78605687D01*
X126645696Y-78603629D01*
X126646453Y-78601799D01*
X126650417Y-78595503D01*
X126698036Y-78500265D01*
X126698445Y-78499195D01*
X126698768Y-78498760D01*
X126700960Y-78492623D01*
X126703291Y-78486534D01*
X126703329Y-78485993D01*
X126703715Y-78484914D01*
X126751334Y-78294438D01*
X126751709Y-78291901D01*
X126752132Y-78290880D01*
X126752674Y-78285367D01*
X126753484Y-78279894D01*
X126753321Y-78278801D01*
X126753573Y-78276248D01*
X126753573Y-78133391D01*
X126753321Y-78130837D01*
X126753484Y-78129745D01*
X126752674Y-78124271D01*
X126752132Y-78118759D01*
X126751709Y-78117737D01*
X126751334Y-78115201D01*
X126732072Y-78038153D01*
X127746431Y-78038153D01*
X127746431Y-78371486D01*
X127746682Y-78374039D01*
X127746520Y-78375132D01*
X127747329Y-78380605D01*
X127747872Y-78386118D01*
X127748294Y-78387139D01*
X127748670Y-78389676D01*
X127796289Y-78580152D01*
X127801236Y-78593998D01*
X127804555Y-78598477D01*
X127806689Y-78603629D01*
X127816017Y-78614995D01*
X127911255Y-78710234D01*
X127917005Y-78714954D01*
X127918304Y-78716451D01*
X127920558Y-78717870D01*
X127922620Y-78719562D01*
X127924452Y-78720320D01*
X127930747Y-78724283D01*
X128025985Y-78771902D01*
X128039716Y-78777157D01*
X128042405Y-78777348D01*
X128044894Y-78778379D01*
X128059526Y-78779820D01*
X128250002Y-78779820D01*
X128264634Y-78778379D01*
X128267123Y-78777347D01*
X128269811Y-78777157D01*
X128283543Y-78771902D01*
X128378781Y-78724283D01*
X128385080Y-78720318D01*
X128386908Y-78719561D01*
X128388964Y-78717872D01*
X128391224Y-78716451D01*
X128392523Y-78714952D01*
X128398273Y-78710234D01*
X128493512Y-78614994D01*
X128502839Y-78603629D01*
X128504972Y-78598477D01*
X128508292Y-78593998D01*
X128513239Y-78580152D01*
X128560858Y-78389676D01*
X128561233Y-78387139D01*
X128561656Y-78386118D01*
X128562198Y-78380605D01*
X128563008Y-78375132D01*
X128562845Y-78374039D01*
X128563097Y-78371486D01*
X128563097Y-78038153D01*
X128562845Y-78035599D01*
X128563008Y-78034507D01*
X128562198Y-78029033D01*
X128561656Y-78023521D01*
X128561233Y-78022499D01*
X128560858Y-78019963D01*
X128513239Y-77829487D01*
X128508292Y-77815641D01*
X128504973Y-77811162D01*
X128502839Y-77806009D01*
X128493511Y-77794644D01*
X128403687Y-77704820D01*
X128841669Y-77704820D01*
X128841669Y-78704820D01*
X128843110Y-78719452D01*
X128854309Y-78746488D01*
X128875001Y-78767180D01*
X128902037Y-78778379D01*
X128916669Y-78779820D01*
X129392859Y-78779820D01*
X129407491Y-78778379D01*
X129434527Y-78767180D01*
X129455219Y-78746488D01*
X129466418Y-78719452D01*
X129466418Y-78690188D01*
X129455219Y-78663152D01*
X129434527Y-78642460D01*
X129407491Y-78631261D01*
X129392859Y-78629820D01*
X128991669Y-78629820D01*
X128991669Y-78256010D01*
X129250002Y-78256010D01*
X129264634Y-78254569D01*
X129291670Y-78243370D01*
X129312362Y-78222678D01*
X129323561Y-78195642D01*
X129323561Y-78166378D01*
X129312362Y-78139342D01*
X129291670Y-78118650D01*
X129264634Y-78107451D01*
X129250002Y-78106010D01*
X128991669Y-78106010D01*
X128991669Y-77779820D01*
X129392859Y-77779820D01*
X129407491Y-77778379D01*
X129434527Y-77767180D01*
X129455219Y-77746488D01*
X129466418Y-77719452D01*
X129466418Y-77690188D01*
X129455219Y-77663152D01*
X129434527Y-77642460D01*
X129407491Y-77631261D01*
X129392859Y-77629820D01*
X128916669Y-77629820D01*
X128902037Y-77631261D01*
X128875001Y-77642460D01*
X128854309Y-77663152D01*
X128843110Y-77690188D01*
X128841669Y-77704820D01*
X128403687Y-77704820D01*
X128398273Y-77699406D01*
X128392523Y-77694687D01*
X128391224Y-77693189D01*
X128388964Y-77691767D01*
X128386908Y-77690079D01*
X128385080Y-77689321D01*
X128378781Y-77685357D01*
X128283543Y-77637738D01*
X128269811Y-77632483D01*
X128267123Y-77632292D01*
X128264634Y-77631261D01*
X128250002Y-77629820D01*
X128059526Y-77629820D01*
X128044894Y-77631261D01*
X128042405Y-77632291D01*
X128039716Y-77632483D01*
X128025985Y-77637738D01*
X127930747Y-77685357D01*
X127924452Y-77689319D01*
X127922620Y-77690078D01*
X127920558Y-77691769D01*
X127918304Y-77693189D01*
X127917005Y-77694685D01*
X127911255Y-77699406D01*
X127816017Y-77794644D01*
X127806690Y-77806009D01*
X127804556Y-77811159D01*
X127801236Y-77815641D01*
X127796289Y-77829487D01*
X127748670Y-78019963D01*
X127748294Y-78022499D01*
X127747872Y-78023521D01*
X127747329Y-78029033D01*
X127746520Y-78034507D01*
X127746682Y-78035599D01*
X127746431Y-78038153D01*
X126732072Y-78038153D01*
X126703715Y-77924725D01*
X126703329Y-77923645D01*
X126703291Y-77923105D01*
X126700960Y-77917015D01*
X126698768Y-77910879D01*
X126698445Y-77910443D01*
X126698036Y-77909374D01*
X126650417Y-77814136D01*
X126646454Y-77807841D01*
X126645696Y-77806009D01*
X126644004Y-77803947D01*
X126642585Y-77801693D01*
X126641088Y-77800394D01*
X126636368Y-77794644D01*
X126541130Y-77699406D01*
X126529765Y-77690079D01*
X126527274Y-77689047D01*
X126525239Y-77687282D01*
X126511814Y-77681288D01*
X126368957Y-77633669D01*
X126361703Y-77632019D01*
X126359872Y-77631261D01*
X126357217Y-77630999D01*
X126354620Y-77630409D01*
X126352645Y-77630549D01*
X126345240Y-77629820D01*
X126107145Y-77629820D01*
X126092513Y-77631261D01*
X126065477Y-77642460D01*
X126044785Y-77663152D01*
X126033586Y-77690188D01*
X126032145Y-77704820D01*
X125705954Y-77704820D01*
X125704513Y-77690188D01*
X125693314Y-77663152D01*
X125672622Y-77642460D01*
X125645586Y-77631261D01*
X125616322Y-77631261D01*
X125589286Y-77642460D01*
X125568594Y-77663152D01*
X125557395Y-77690188D01*
X125555954Y-77704820D01*
X125555954Y-78422403D01*
X125124644Y-77667610D01*
X125122455Y-77664526D01*
X125121886Y-77663152D01*
X125120486Y-77661752D01*
X125116134Y-77655620D01*
X125108244Y-77649510D01*
X125101194Y-77642460D01*
X125096777Y-77640630D01*
X125092997Y-77637703D01*
X125083373Y-77635078D01*
X125074158Y-77631261D01*
X125069377Y-77631261D01*
X125064765Y-77630003D01*
X125054868Y-77631261D01*
X125044894Y-77631261D01*
X125040478Y-77633090D01*
X125035735Y-77633693D01*
X125027070Y-77638643D01*
X125017858Y-77642460D01*
X125014479Y-77645838D01*
X125010326Y-77648212D01*
X125004216Y-77656101D01*
X124997166Y-77663152D01*
X124995336Y-77667568D01*
X124992409Y-77671349D01*
X124989784Y-77680972D01*
X124985967Y-77690188D01*
X124985230Y-77697670D01*
X124984709Y-77699581D01*
X124984896Y-77701056D01*
X124984526Y-77704820D01*
X124639406Y-77704820D01*
X124629319Y-77693189D01*
X124616876Y-77685357D01*
X124521638Y-77637738D01*
X124507906Y-77632483D01*
X124505218Y-77632292D01*
X124502729Y-77631261D01*
X124488097Y-77629820D01*
X124345240Y-77629820D01*
X124337833Y-77630549D01*
X124335859Y-77630409D01*
X124333261Y-77630999D01*
X124330608Y-77631261D01*
X124328777Y-77632019D01*
X124321522Y-77633669D01*
X124178666Y-77681288D01*
X124165240Y-77687282D01*
X124163205Y-77689046D01*
X124160715Y-77690078D01*
X124149350Y-77699406D01*
X124054112Y-77794644D01*
X124049393Y-77800393D01*
X124047895Y-77801693D01*
X124046473Y-77803952D01*
X124044785Y-77806009D01*
X124044027Y-77807836D01*
X124040063Y-77814136D01*
X123992444Y-77909374D01*
X123992034Y-77910443D01*
X123991712Y-77910879D01*
X123989516Y-77917024D01*
X123987189Y-77923106D01*
X123987150Y-77923645D01*
X123986765Y-77924725D01*
X123939146Y-78115201D01*
X123938770Y-78117737D01*
X123938348Y-78118759D01*
X123937805Y-78124271D01*
X123936996Y-78129745D01*
X123937158Y-78130837D01*
X123936907Y-78133391D01*
X122900487Y-78133391D01*
X123035438Y-77728537D01*
X123038698Y-77714201D01*
X123036623Y-77685011D01*
X123023537Y-77658837D01*
X123001429Y-77639663D01*
X122973667Y-77630409D01*
X122944477Y-77632484D01*
X122918304Y-77645571D01*
X122899130Y-77667678D01*
X122893136Y-77681103D01*
X122630954Y-78467649D01*
X122368772Y-77681103D01*
X122362778Y-77667677D01*
X122343604Y-77645570D01*
X122317431Y-77632484D01*
X122288241Y-77630409D01*
X122260478Y-77639663D01*
X122238371Y-77658837D01*
X122225285Y-77685010D01*
X122223210Y-77714200D01*
X122039287Y-77714200D01*
X122039287Y-77704820D01*
X122037846Y-77690188D01*
X122026647Y-77663152D01*
X122005955Y-77642460D01*
X121978919Y-77631261D01*
X121949655Y-77631261D01*
X121922619Y-77642460D01*
X121901927Y-77663152D01*
X121890728Y-77690188D01*
X121889287Y-77704820D01*
X121889287Y-78106010D01*
X121467859Y-78106010D01*
X121467859Y-77704820D01*
X121466418Y-77690188D01*
X121455219Y-77663152D01*
X121434527Y-77642460D01*
X121407491Y-77631261D01*
X121378227Y-77631261D01*
X121351191Y-77642460D01*
X121330499Y-77663152D01*
X121319300Y-77690188D01*
X121317859Y-77704820D01*
X119970094Y-77704820D01*
X119970094Y-77518709D01*
X129577529Y-77518709D01*
X129577529Y-78890931D01*
G37*
G36*
X189864092Y-92340930D02*
G01*
X186779615Y-92340930D01*
X186779615Y-91759234D01*
X186890726Y-91759234D01*
X186890726Y-91788498D01*
X186901925Y-91815534D01*
X186922617Y-91836226D01*
X186949653Y-91847425D01*
X186964285Y-91848866D01*
X187270237Y-91848866D01*
X187270237Y-92154819D01*
X187271678Y-92169451D01*
X187282877Y-92196487D01*
X187303569Y-92217179D01*
X187330605Y-92228378D01*
X187359869Y-92228378D01*
X187386905Y-92217179D01*
X187407597Y-92196487D01*
X187418796Y-92169451D01*
X187420237Y-92154819D01*
X187420237Y-91848866D01*
X187726190Y-91848866D01*
X187740822Y-91847425D01*
X187767858Y-91836226D01*
X187788550Y-91815534D01*
X187799749Y-91788498D01*
X187799749Y-91759234D01*
X187788550Y-91732198D01*
X187767858Y-91711506D01*
X187740822Y-91700307D01*
X187726190Y-91698866D01*
X187420237Y-91698866D01*
X187420237Y-91638249D01*
X188080111Y-91638249D01*
X188081202Y-91641864D01*
X188081202Y-91645640D01*
X188085396Y-91655765D01*
X188088564Y-91666265D01*
X188090955Y-91669188D01*
X188092401Y-91672677D01*
X188100154Y-91680430D01*
X188107095Y-91688913D01*
X188110421Y-91690697D01*
X188113093Y-91693369D01*
X188123220Y-91697564D01*
X188132882Y-91702747D01*
X188136641Y-91703122D01*
X188140130Y-91704568D01*
X188151091Y-91704568D01*
X188162001Y-91705659D01*
X188165617Y-91704568D01*
X188169392Y-91704568D01*
X188179517Y-91700373D01*
X188190017Y-91697206D01*
X188192940Y-91694814D01*
X188196429Y-91693369D01*
X188207794Y-91684042D01*
X188246807Y-91645029D01*
X188315323Y-91610771D01*
X188518008Y-91610771D01*
X188586524Y-91645029D01*
X188616931Y-91675436D01*
X188651189Y-91743952D01*
X188651189Y-91946637D01*
X188616930Y-92015153D01*
X188586523Y-92045561D01*
X188518008Y-92079819D01*
X188315323Y-92079819D01*
X188246807Y-92045561D01*
X188207795Y-92006548D01*
X188196429Y-91997220D01*
X188169393Y-91986021D01*
X188140130Y-91986021D01*
X188113094Y-91997219D01*
X188092401Y-92017912D01*
X188081202Y-92044948D01*
X188081202Y-92074211D01*
X188092400Y-92101247D01*
X188101727Y-92112612D01*
X188149346Y-92160232D01*
X188155095Y-92164950D01*
X188156396Y-92166450D01*
X188158655Y-92167872D01*
X188160712Y-92169560D01*
X188162539Y-92170317D01*
X188168839Y-92174282D01*
X188264077Y-92221901D01*
X188277808Y-92227156D01*
X188280497Y-92227347D01*
X188282986Y-92228378D01*
X188297618Y-92229819D01*
X188535713Y-92229819D01*
X188550345Y-92228378D01*
X188552834Y-92227346D01*
X188555522Y-92227156D01*
X188569254Y-92221901D01*
X188664492Y-92174282D01*
X188670791Y-92170317D01*
X188672619Y-92169560D01*
X188674675Y-92167872D01*
X188676935Y-92166450D01*
X188678235Y-92164950D01*
X188683985Y-92160232D01*
X188731603Y-92112613D01*
X188736321Y-92106863D01*
X188737820Y-92105564D01*
X188739241Y-92103305D01*
X188740931Y-92101247D01*
X188741688Y-92099417D01*
X188745652Y-92093121D01*
X188793271Y-91997883D01*
X188798526Y-91984152D01*
X188798717Y-91981462D01*
X188799748Y-91978974D01*
X188801189Y-91964342D01*
X188801189Y-91726247D01*
X188799748Y-91711615D01*
X188798717Y-91709126D01*
X188798526Y-91706437D01*
X188793271Y-91692706D01*
X188745652Y-91597468D01*
X188741687Y-91591168D01*
X188740930Y-91589341D01*
X188739241Y-91587284D01*
X188737820Y-91585025D01*
X188736321Y-91583725D01*
X188731603Y-91577976D01*
X188683984Y-91530357D01*
X188678234Y-91525638D01*
X188676935Y-91524140D01*
X188674675Y-91522718D01*
X188672619Y-91521030D01*
X188670791Y-91520272D01*
X188664492Y-91516308D01*
X188569254Y-91468689D01*
X188555522Y-91463434D01*
X188552834Y-91463243D01*
X188550345Y-91462212D01*
X188535713Y-91460771D01*
X188297618Y-91460771D01*
X188282986Y-91462212D01*
X188280497Y-91463242D01*
X188277808Y-91463434D01*
X188264077Y-91468689D01*
X188245435Y-91478009D01*
X188270254Y-91229819D01*
X188678570Y-91229819D01*
X188693202Y-91228378D01*
X188720238Y-91217179D01*
X188740930Y-91196487D01*
X188752129Y-91169451D01*
X188752129Y-91164199D01*
X188937493Y-91164199D01*
X188940753Y-91178536D01*
X189274086Y-92178536D01*
X189280080Y-92191961D01*
X189283590Y-92196008D01*
X189285987Y-92200802D01*
X189293095Y-92206967D01*
X189299254Y-92214068D01*
X189304043Y-92216462D01*
X189308094Y-92219976D01*
X189317019Y-92222950D01*
X189325427Y-92227155D01*
X189330771Y-92227534D01*
X189335857Y-92229230D01*
X189345237Y-92228563D01*
X189354617Y-92229230D01*
X189359702Y-92227534D01*
X189365047Y-92227155D01*
X189373457Y-92222949D01*
X189382379Y-92219976D01*
X189386426Y-92216465D01*
X189391220Y-92214069D01*
X189397383Y-92206963D01*
X189404487Y-92200802D01*
X189406882Y-92196010D01*
X189410394Y-92191962D01*
X189416388Y-92178536D01*
X189749721Y-91178536D01*
X189752981Y-91164200D01*
X189750906Y-91135010D01*
X189737820Y-91108836D01*
X189715712Y-91089662D01*
X189687950Y-91080408D01*
X189658760Y-91082483D01*
X189632587Y-91095570D01*
X189613413Y-91117677D01*
X189607419Y-91131102D01*
X189345237Y-91917648D01*
X189083055Y-91131102D01*
X189077061Y-91117676D01*
X189057887Y-91095569D01*
X189031714Y-91082483D01*
X189002524Y-91080408D01*
X188974761Y-91089662D01*
X188952654Y-91108836D01*
X188939568Y-91135009D01*
X188937493Y-91164199D01*
X188752129Y-91164199D01*
X188752129Y-91140187D01*
X188740930Y-91113151D01*
X188720238Y-91092459D01*
X188693202Y-91081260D01*
X188678570Y-91079819D01*
X188202380Y-91079819D01*
X188196968Y-91080351D01*
X188195140Y-91080169D01*
X188193353Y-91080707D01*
X188187748Y-91081260D01*
X188177621Y-91085454D01*
X188167124Y-91088622D01*
X188164200Y-91091013D01*
X188160712Y-91092459D01*
X188152958Y-91100212D01*
X188144476Y-91107153D01*
X188142691Y-91110479D01*
X188140020Y-91113151D01*
X188135824Y-91123280D01*
X188130642Y-91132940D01*
X188129534Y-91138464D01*
X188128821Y-91140187D01*
X188128821Y-91142023D01*
X188127752Y-91147356D01*
X188080133Y-91623546D01*
X188080111Y-91638249D01*
X187420237Y-91638249D01*
X187420237Y-91392914D01*
X187418796Y-91378282D01*
X187407597Y-91351246D01*
X187386905Y-91330554D01*
X187359869Y-91319355D01*
X187330605Y-91319355D01*
X187303569Y-91330554D01*
X187282877Y-91351246D01*
X187271678Y-91378282D01*
X187270237Y-91392914D01*
X187270237Y-91698866D01*
X186964285Y-91698866D01*
X186949653Y-91700307D01*
X186922617Y-91711506D01*
X186901925Y-91732198D01*
X186890726Y-91759234D01*
X186779615Y-91759234D01*
X186779615Y-90968708D01*
X189864092Y-90968708D01*
X189864092Y-92340930D01*
G37*
G36*
X191543667Y-77814077D02*
G01*
X191615609Y-77886019D01*
X191655951Y-78047386D01*
X191655951Y-78362251D01*
X191615609Y-78523617D01*
X191543666Y-78595561D01*
X191475151Y-78629819D01*
X191320085Y-78629819D01*
X191251569Y-78595561D01*
X191179626Y-78523617D01*
X191139285Y-78362251D01*
X191139285Y-78047386D01*
X191179626Y-77886019D01*
X191251569Y-77814077D01*
X191320085Y-77779819D01*
X191475151Y-77779819D01*
X191543667Y-77814077D01*
G37*
G36*
X192820383Y-78890930D02*
G01*
X190878174Y-78890930D01*
X190878174Y-78038152D01*
X190989285Y-78038152D01*
X190989285Y-78371485D01*
X190989536Y-78374038D01*
X190989374Y-78375131D01*
X190990183Y-78380604D01*
X190990726Y-78386117D01*
X190991148Y-78387138D01*
X190991524Y-78389675D01*
X191039143Y-78580151D01*
X191044090Y-78593997D01*
X191047409Y-78598476D01*
X191049543Y-78603628D01*
X191058871Y-78614994D01*
X191154109Y-78710233D01*
X191159859Y-78714953D01*
X191161158Y-78716450D01*
X191163412Y-78717869D01*
X191165474Y-78719561D01*
X191167306Y-78720319D01*
X191173601Y-78724282D01*
X191268839Y-78771901D01*
X191282570Y-78777156D01*
X191285259Y-78777347D01*
X191287748Y-78778378D01*
X191302380Y-78779819D01*
X191492856Y-78779819D01*
X191507488Y-78778378D01*
X191509977Y-78777346D01*
X191512665Y-78777156D01*
X191526397Y-78771901D01*
X191621635Y-78724282D01*
X191627934Y-78720317D01*
X191629762Y-78719560D01*
X191631818Y-78717871D01*
X191634078Y-78716450D01*
X191635377Y-78714951D01*
X191641127Y-78710233D01*
X191736366Y-78614993D01*
X191745693Y-78603628D01*
X191747826Y-78598476D01*
X191751146Y-78593997D01*
X191756093Y-78580151D01*
X191803712Y-78389675D01*
X191804087Y-78387138D01*
X191804510Y-78386117D01*
X191805052Y-78380604D01*
X191805862Y-78375131D01*
X191805699Y-78374038D01*
X191805951Y-78371485D01*
X191805951Y-78038152D01*
X191805699Y-78035598D01*
X191805862Y-78034506D01*
X191805052Y-78029032D01*
X191804510Y-78023520D01*
X191804087Y-78022498D01*
X191803712Y-78019962D01*
X191756093Y-77829486D01*
X191751146Y-77815640D01*
X191747827Y-77811161D01*
X191745693Y-77806008D01*
X191736365Y-77794643D01*
X191646541Y-77704819D01*
X192084523Y-77704819D01*
X192084523Y-78704819D01*
X192085964Y-78719451D01*
X192097163Y-78746487D01*
X192117855Y-78767179D01*
X192144891Y-78778378D01*
X192159523Y-78779819D01*
X192635713Y-78779819D01*
X192650345Y-78778378D01*
X192677381Y-78767179D01*
X192698073Y-78746487D01*
X192709272Y-78719451D01*
X192709272Y-78690187D01*
X192698073Y-78663151D01*
X192677381Y-78642459D01*
X192650345Y-78631260D01*
X192635713Y-78629819D01*
X192234523Y-78629819D01*
X192234523Y-78256009D01*
X192492856Y-78256009D01*
X192507488Y-78254568D01*
X192534524Y-78243369D01*
X192555216Y-78222677D01*
X192566415Y-78195641D01*
X192566415Y-78166377D01*
X192555216Y-78139341D01*
X192534524Y-78118649D01*
X192507488Y-78107450D01*
X192492856Y-78106009D01*
X192234523Y-78106009D01*
X192234523Y-77779819D01*
X192635713Y-77779819D01*
X192650345Y-77778378D01*
X192677381Y-77767179D01*
X192698073Y-77746487D01*
X192709272Y-77719451D01*
X192709272Y-77690187D01*
X192698073Y-77663151D01*
X192677381Y-77642459D01*
X192650345Y-77631260D01*
X192635713Y-77629819D01*
X192159523Y-77629819D01*
X192144891Y-77631260D01*
X192117855Y-77642459D01*
X192097163Y-77663151D01*
X192085964Y-77690187D01*
X192084523Y-77704819D01*
X191646541Y-77704819D01*
X191641127Y-77699405D01*
X191635377Y-77694686D01*
X191634078Y-77693188D01*
X191631818Y-77691766D01*
X191629762Y-77690078D01*
X191627934Y-77689320D01*
X191621635Y-77685356D01*
X191526397Y-77637737D01*
X191512665Y-77632482D01*
X191509977Y-77632291D01*
X191507488Y-77631260D01*
X191492856Y-77629819D01*
X191302380Y-77629819D01*
X191287748Y-77631260D01*
X191285259Y-77632290D01*
X191282570Y-77632482D01*
X191268839Y-77637737D01*
X191173601Y-77685356D01*
X191167306Y-77689318D01*
X191165474Y-77690077D01*
X191163412Y-77691768D01*
X191161158Y-77693188D01*
X191159859Y-77694684D01*
X191154109Y-77699405D01*
X191058871Y-77794643D01*
X191049544Y-77806008D01*
X191047410Y-77811158D01*
X191044090Y-77815640D01*
X191039143Y-77829486D01*
X190991524Y-78019962D01*
X190991148Y-78022498D01*
X190990726Y-78023520D01*
X190990183Y-78029032D01*
X190989374Y-78034506D01*
X190989536Y-78035598D01*
X190989285Y-78038152D01*
X190878174Y-78038152D01*
X190878174Y-77518708D01*
X192820383Y-77518708D01*
X192820383Y-78890930D01*
G37*
G36*
X193511711Y-92340341D02*
G01*
X190331996Y-92340341D01*
X190331996Y-91759234D01*
X190443107Y-91759234D01*
X190443107Y-91788498D01*
X190454306Y-91815534D01*
X190474998Y-91836226D01*
X190502034Y-91847425D01*
X190516666Y-91848866D01*
X190822618Y-91848866D01*
X190822618Y-92154819D01*
X190824059Y-92169451D01*
X190835258Y-92196487D01*
X190855950Y-92217179D01*
X190882986Y-92228378D01*
X190912250Y-92228378D01*
X190939286Y-92217179D01*
X190959978Y-92196487D01*
X190971177Y-92169451D01*
X190972618Y-92154819D01*
X190972618Y-91848866D01*
X191278571Y-91848866D01*
X191293203Y-91847425D01*
X191320239Y-91836226D01*
X191340931Y-91815534D01*
X191352130Y-91788498D01*
X191352130Y-91759234D01*
X191340931Y-91732198D01*
X191320239Y-91711506D01*
X191293203Y-91700307D01*
X191278571Y-91698866D01*
X190972618Y-91698866D01*
X190972618Y-91392914D01*
X190971177Y-91378282D01*
X190959978Y-91351246D01*
X190939286Y-91330554D01*
X190912250Y-91319355D01*
X190882986Y-91319355D01*
X190855950Y-91330554D01*
X190835258Y-91351246D01*
X190824059Y-91378282D01*
X190822618Y-91392914D01*
X190822618Y-91698866D01*
X190516666Y-91698866D01*
X190502034Y-91700307D01*
X190474998Y-91711506D01*
X190454306Y-91732198D01*
X190443107Y-91759234D01*
X190331996Y-91759234D01*
X190331996Y-91154819D01*
X191679761Y-91154819D01*
X191679761Y-92154819D01*
X191681202Y-92169451D01*
X191692401Y-92196487D01*
X191713093Y-92217179D01*
X191740129Y-92228378D01*
X191769393Y-92228378D01*
X191796429Y-92217179D01*
X191817121Y-92196487D01*
X191828320Y-92169451D01*
X191829761Y-92154819D01*
X191829761Y-91706009D01*
X192251189Y-91706009D01*
X192251189Y-92154819D01*
X192252630Y-92169451D01*
X192263829Y-92196487D01*
X192284521Y-92217179D01*
X192311557Y-92228378D01*
X192340821Y-92228378D01*
X192367857Y-92217179D01*
X192388549Y-92196487D01*
X192399748Y-92169451D01*
X192401189Y-92154819D01*
X192401189Y-91164199D01*
X192585112Y-91164199D01*
X192588372Y-91178536D01*
X192921705Y-92178536D01*
X192927699Y-92191961D01*
X192931209Y-92196008D01*
X192933606Y-92200802D01*
X192940714Y-92206967D01*
X192946873Y-92214068D01*
X192951662Y-92216462D01*
X192955713Y-92219976D01*
X192964638Y-92222950D01*
X192973046Y-92227155D01*
X192978390Y-92227534D01*
X192983476Y-92229230D01*
X192992856Y-92228563D01*
X193002236Y-92229230D01*
X193007321Y-92227534D01*
X193012666Y-92227155D01*
X193021076Y-92222949D01*
X193029998Y-92219976D01*
X193034045Y-92216465D01*
X193038839Y-92214069D01*
X193045002Y-92206963D01*
X193052106Y-92200802D01*
X193054501Y-92196010D01*
X193058013Y-92191962D01*
X193064007Y-92178536D01*
X193397340Y-91178536D01*
X193400600Y-91164200D01*
X193398525Y-91135010D01*
X193385439Y-91108836D01*
X193363331Y-91089662D01*
X193335569Y-91080408D01*
X193306379Y-91082483D01*
X193280206Y-91095570D01*
X193261032Y-91117677D01*
X193255038Y-91131102D01*
X192992856Y-91917648D01*
X192730674Y-91131102D01*
X192724680Y-91117676D01*
X192705506Y-91095569D01*
X192679333Y-91082483D01*
X192650143Y-91080408D01*
X192622380Y-91089662D01*
X192600273Y-91108836D01*
X192587187Y-91135009D01*
X192585112Y-91164199D01*
X192401189Y-91164199D01*
X192401189Y-91154819D01*
X192399748Y-91140187D01*
X192388549Y-91113151D01*
X192367857Y-91092459D01*
X192340821Y-91081260D01*
X192311557Y-91081260D01*
X192284521Y-91092459D01*
X192263829Y-91113151D01*
X192252630Y-91140187D01*
X192251189Y-91154819D01*
X192251189Y-91556009D01*
X191829761Y-91556009D01*
X191829761Y-91154819D01*
X191828320Y-91140187D01*
X191817121Y-91113151D01*
X191796429Y-91092459D01*
X191769393Y-91081260D01*
X191740129Y-91081260D01*
X191713093Y-91092459D01*
X191692401Y-91113151D01*
X191681202Y-91140187D01*
X191679761Y-91154819D01*
X190331996Y-91154819D01*
X190331996Y-90969297D01*
X193511711Y-90969297D01*
X193511711Y-92340341D01*
G37*
X159786103Y-81514285D02*
X159824199Y-81552381D01*
X159824199Y-81552381D02*
X159862294Y-81666666D01*
X159862294Y-81666666D02*
X159862294Y-81742857D01*
X159862294Y-81742857D02*
X159824199Y-81857143D01*
X159824199Y-81857143D02*
X159748008Y-81933333D01*
X159748008Y-81933333D02*
X159671818Y-81971428D01*
X159671818Y-81971428D02*
X159519437Y-82009524D01*
X159519437Y-82009524D02*
X159405151Y-82009524D01*
X159405151Y-82009524D02*
X159252770Y-81971428D01*
X159252770Y-81971428D02*
X159176579Y-81933333D01*
X159176579Y-81933333D02*
X159100389Y-81857143D01*
X159100389Y-81857143D02*
X159062294Y-81742857D01*
X159062294Y-81742857D02*
X159062294Y-81666666D01*
X159062294Y-81666666D02*
X159100389Y-81552381D01*
X159100389Y-81552381D02*
X159138484Y-81514285D01*
X159862294Y-80752381D02*
X159862294Y-81209524D01*
X159862294Y-80980952D02*
X159062294Y-80980952D01*
X159062294Y-80980952D02*
X159176579Y-81057143D01*
X159176579Y-81057143D02*
X159252770Y-81133333D01*
X159252770Y-81133333D02*
X159290865Y-81209524D01*
X159062294Y-80066666D02*
X159062294Y-80219047D01*
X159062294Y-80219047D02*
X159100389Y-80295238D01*
X159100389Y-80295238D02*
X159138484Y-80333333D01*
X159138484Y-80333333D02*
X159252770Y-80409523D01*
X159252770Y-80409523D02*
X159405151Y-80447619D01*
X159405151Y-80447619D02*
X159709913Y-80447619D01*
X159709913Y-80447619D02*
X159786103Y-80409523D01*
X159786103Y-80409523D02*
X159824199Y-80371428D01*
X159824199Y-80371428D02*
X159862294Y-80295238D01*
X159862294Y-80295238D02*
X159862294Y-80142857D01*
X159862294Y-80142857D02*
X159824199Y-80066666D01*
X159824199Y-80066666D02*
X159786103Y-80028571D01*
X159786103Y-80028571D02*
X159709913Y-79990476D01*
X159709913Y-79990476D02*
X159519437Y-79990476D01*
X159519437Y-79990476D02*
X159443246Y-80028571D01*
X159443246Y-80028571D02*
X159405151Y-80066666D01*
X159405151Y-80066666D02*
X159367056Y-80142857D01*
X159367056Y-80142857D02*
X159367056Y-80295238D01*
X159367056Y-80295238D02*
X159405151Y-80371428D01*
X159405151Y-80371428D02*
X159443246Y-80409523D01*
X159443246Y-80409523D02*
X159519437Y-80447619D01*
X159140475Y-94112295D02*
X159140475Y-93312295D01*
X159140475Y-93693247D02*
X159597618Y-93693247D01*
X159597618Y-94112295D02*
X159597618Y-93312295D01*
X160397617Y-94112295D02*
X159940474Y-94112295D01*
X160169046Y-94112295D02*
X160169046Y-93312295D01*
X160169046Y-93312295D02*
X160092855Y-93426580D01*
X160092855Y-93426580D02*
X160016665Y-93502771D01*
X160016665Y-93502771D02*
X159940474Y-93540866D01*
X142483332Y-93562295D02*
X142483332Y-94133723D01*
X142483332Y-94133723D02*
X142445237Y-94248009D01*
X142445237Y-94248009D02*
X142369046Y-94324200D01*
X142369046Y-94324200D02*
X142254761Y-94362295D01*
X142254761Y-94362295D02*
X142178570Y-94362295D01*
X142788094Y-93562295D02*
X143283332Y-93562295D01*
X143283332Y-93562295D02*
X143016666Y-93867057D01*
X143016666Y-93867057D02*
X143130951Y-93867057D01*
X143130951Y-93867057D02*
X143207142Y-93905152D01*
X143207142Y-93905152D02*
X143245237Y-93943247D01*
X143245237Y-93943247D02*
X143283332Y-94019438D01*
X143283332Y-94019438D02*
X143283332Y-94209914D01*
X143283332Y-94209914D02*
X143245237Y-94286104D01*
X143245237Y-94286104D02*
X143207142Y-94324200D01*
X143207142Y-94324200D02*
X143130951Y-94362295D01*
X143130951Y-94362295D02*
X142902380Y-94362295D01*
X142902380Y-94362295D02*
X142826189Y-94324200D01*
X142826189Y-94324200D02*
X142788094Y-94286104D01*
X165719047Y-84362295D02*
X165719047Y-83562295D01*
X166557142Y-84286104D02*
X166519046Y-84324200D01*
X166519046Y-84324200D02*
X166404761Y-84362295D01*
X166404761Y-84362295D02*
X166328570Y-84362295D01*
X166328570Y-84362295D02*
X166214284Y-84324200D01*
X166214284Y-84324200D02*
X166138094Y-84248009D01*
X166138094Y-84248009D02*
X166099999Y-84171819D01*
X166099999Y-84171819D02*
X166061903Y-84019438D01*
X166061903Y-84019438D02*
X166061903Y-83905152D01*
X166061903Y-83905152D02*
X166099999Y-83752771D01*
X166099999Y-83752771D02*
X166138094Y-83676580D01*
X166138094Y-83676580D02*
X166214284Y-83600390D01*
X166214284Y-83600390D02*
X166328570Y-83562295D01*
X166328570Y-83562295D02*
X166404761Y-83562295D01*
X166404761Y-83562295D02*
X166519046Y-83600390D01*
X166519046Y-83600390D02*
X166557142Y-83638485D01*
X166861903Y-83638485D02*
X166899999Y-83600390D01*
X166899999Y-83600390D02*
X166976189Y-83562295D01*
X166976189Y-83562295D02*
X167166665Y-83562295D01*
X167166665Y-83562295D02*
X167242856Y-83600390D01*
X167242856Y-83600390D02*
X167280951Y-83638485D01*
X167280951Y-83638485D02*
X167319046Y-83714676D01*
X167319046Y-83714676D02*
X167319046Y-83790866D01*
X167319046Y-83790866D02*
X167280951Y-83905152D01*
X167280951Y-83905152D02*
X166823808Y-84362295D01*
X166823808Y-84362295D02*
X167319046Y-84362295D01*
X170366666Y-77786104D02*
X170328570Y-77824200D01*
X170328570Y-77824200D02*
X170214285Y-77862295D01*
X170214285Y-77862295D02*
X170138094Y-77862295D01*
X170138094Y-77862295D02*
X170023808Y-77824200D01*
X170023808Y-77824200D02*
X169947618Y-77748009D01*
X169947618Y-77748009D02*
X169909523Y-77671819D01*
X169909523Y-77671819D02*
X169871427Y-77519438D01*
X169871427Y-77519438D02*
X169871427Y-77405152D01*
X169871427Y-77405152D02*
X169909523Y-77252771D01*
X169909523Y-77252771D02*
X169947618Y-77176580D01*
X169947618Y-77176580D02*
X170023808Y-77100390D01*
X170023808Y-77100390D02*
X170138094Y-77062295D01*
X170138094Y-77062295D02*
X170214285Y-77062295D01*
X170214285Y-77062295D02*
X170328570Y-77100390D01*
X170328570Y-77100390D02*
X170366666Y-77138485D01*
X171052380Y-77328961D02*
X171052380Y-77862295D01*
X170861904Y-77024200D02*
X170671427Y-77595628D01*
X170671427Y-77595628D02*
X171166666Y-77595628D01*
X174366666Y-80536104D02*
X174328570Y-80574200D01*
X174328570Y-80574200D02*
X174214285Y-80612295D01*
X174214285Y-80612295D02*
X174138094Y-80612295D01*
X174138094Y-80612295D02*
X174023808Y-80574200D01*
X174023808Y-80574200D02*
X173947618Y-80498009D01*
X173947618Y-80498009D02*
X173909523Y-80421819D01*
X173909523Y-80421819D02*
X173871427Y-80269438D01*
X173871427Y-80269438D02*
X173871427Y-80155152D01*
X173871427Y-80155152D02*
X173909523Y-80002771D01*
X173909523Y-80002771D02*
X173947618Y-79926580D01*
X173947618Y-79926580D02*
X174023808Y-79850390D01*
X174023808Y-79850390D02*
X174138094Y-79812295D01*
X174138094Y-79812295D02*
X174214285Y-79812295D01*
X174214285Y-79812295D02*
X174328570Y-79850390D01*
X174328570Y-79850390D02*
X174366666Y-79888485D01*
X174633332Y-79812295D02*
X175128570Y-79812295D01*
X175128570Y-79812295D02*
X174861904Y-80117057D01*
X174861904Y-80117057D02*
X174976189Y-80117057D01*
X174976189Y-80117057D02*
X175052380Y-80155152D01*
X175052380Y-80155152D02*
X175090475Y-80193247D01*
X175090475Y-80193247D02*
X175128570Y-80269438D01*
X175128570Y-80269438D02*
X175128570Y-80459914D01*
X175128570Y-80459914D02*
X175090475Y-80536104D01*
X175090475Y-80536104D02*
X175052380Y-80574200D01*
X175052380Y-80574200D02*
X174976189Y-80612295D01*
X174976189Y-80612295D02*
X174747618Y-80612295D01*
X174747618Y-80612295D02*
X174671427Y-80574200D01*
X174671427Y-80574200D02*
X174633332Y-80536104D01*
X167833332Y-77443247D02*
X167566666Y-77443247D01*
X167566666Y-77862295D02*
X167566666Y-77062295D01*
X167566666Y-77062295D02*
X167947618Y-77062295D01*
X168519046Y-77443247D02*
X168633332Y-77481342D01*
X168633332Y-77481342D02*
X168671427Y-77519438D01*
X168671427Y-77519438D02*
X168709523Y-77595628D01*
X168709523Y-77595628D02*
X168709523Y-77709914D01*
X168709523Y-77709914D02*
X168671427Y-77786104D01*
X168671427Y-77786104D02*
X168633332Y-77824200D01*
X168633332Y-77824200D02*
X168557142Y-77862295D01*
X168557142Y-77862295D02*
X168252380Y-77862295D01*
X168252380Y-77862295D02*
X168252380Y-77062295D01*
X168252380Y-77062295D02*
X168519046Y-77062295D01*
X168519046Y-77062295D02*
X168595237Y-77100390D01*
X168595237Y-77100390D02*
X168633332Y-77138485D01*
X168633332Y-77138485D02*
X168671427Y-77214676D01*
X168671427Y-77214676D02*
X168671427Y-77290866D01*
X168671427Y-77290866D02*
X168633332Y-77367057D01*
X168633332Y-77367057D02*
X168595237Y-77405152D01*
X168595237Y-77405152D02*
X168519046Y-77443247D01*
X168519046Y-77443247D02*
X168252380Y-77443247D01*
X169471427Y-77862295D02*
X169014284Y-77862295D01*
X169242856Y-77862295D02*
X169242856Y-77062295D01*
X169242856Y-77062295D02*
X169166665Y-77176580D01*
X169166665Y-77176580D02*
X169090475Y-77252771D01*
X169090475Y-77252771D02*
X169014284Y-77290866D01*
X114862297Y-91883334D02*
X114862297Y-92264286D01*
X114862297Y-92264286D02*
X114062297Y-92264286D01*
X114862297Y-91197620D02*
X114862297Y-91654763D01*
X114862297Y-91426191D02*
X114062297Y-91426191D01*
X114062297Y-91426191D02*
X114176582Y-91502382D01*
X114176582Y-91502382D02*
X114252773Y-91578572D01*
X114252773Y-91578572D02*
X114290868Y-91654763D01*
X114735716Y-78536105D02*
X114697620Y-78574201D01*
X114697620Y-78574201D02*
X114583335Y-78612296D01*
X114583335Y-78612296D02*
X114507144Y-78612296D01*
X114507144Y-78612296D02*
X114392858Y-78574201D01*
X114392858Y-78574201D02*
X114316668Y-78498010D01*
X114316668Y-78498010D02*
X114278573Y-78421820D01*
X114278573Y-78421820D02*
X114240477Y-78269439D01*
X114240477Y-78269439D02*
X114240477Y-78155153D01*
X114240477Y-78155153D02*
X114278573Y-78002772D01*
X114278573Y-78002772D02*
X114316668Y-77926581D01*
X114316668Y-77926581D02*
X114392858Y-77850391D01*
X114392858Y-77850391D02*
X114507144Y-77812296D01*
X114507144Y-77812296D02*
X114583335Y-77812296D01*
X114583335Y-77812296D02*
X114697620Y-77850391D01*
X114697620Y-77850391D02*
X114735716Y-77888486D01*
X115497620Y-78612296D02*
X115040477Y-78612296D01*
X115269049Y-78612296D02*
X115269049Y-77812296D01*
X115269049Y-77812296D02*
X115192858Y-77926581D01*
X115192858Y-77926581D02*
X115116668Y-78002772D01*
X115116668Y-78002772D02*
X115040477Y-78040867D01*
X115802382Y-77888486D02*
X115840478Y-77850391D01*
X115840478Y-77850391D02*
X115916668Y-77812296D01*
X115916668Y-77812296D02*
X116107144Y-77812296D01*
X116107144Y-77812296D02*
X116183335Y-77850391D01*
X116183335Y-77850391D02*
X116221430Y-77888486D01*
X116221430Y-77888486D02*
X116259525Y-77964677D01*
X116259525Y-77964677D02*
X116259525Y-78040867D01*
X116259525Y-78040867D02*
X116221430Y-78155153D01*
X116221430Y-78155153D02*
X115764287Y-78612296D01*
X115764287Y-78612296D02*
X116259525Y-78612296D01*
X159786103Y-78764285D02*
X159824199Y-78802381D01*
X159824199Y-78802381D02*
X159862294Y-78916666D01*
X159862294Y-78916666D02*
X159862294Y-78992857D01*
X159862294Y-78992857D02*
X159824199Y-79107143D01*
X159824199Y-79107143D02*
X159748008Y-79183333D01*
X159748008Y-79183333D02*
X159671818Y-79221428D01*
X159671818Y-79221428D02*
X159519437Y-79259524D01*
X159519437Y-79259524D02*
X159405151Y-79259524D01*
X159405151Y-79259524D02*
X159252770Y-79221428D01*
X159252770Y-79221428D02*
X159176579Y-79183333D01*
X159176579Y-79183333D02*
X159100389Y-79107143D01*
X159100389Y-79107143D02*
X159062294Y-78992857D01*
X159062294Y-78992857D02*
X159062294Y-78916666D01*
X159062294Y-78916666D02*
X159100389Y-78802381D01*
X159100389Y-78802381D02*
X159138484Y-78764285D01*
X159862294Y-78002381D02*
X159862294Y-78459524D01*
X159862294Y-78230952D02*
X159062294Y-78230952D01*
X159062294Y-78230952D02*
X159176579Y-78307143D01*
X159176579Y-78307143D02*
X159252770Y-78383333D01*
X159252770Y-78383333D02*
X159290865Y-78459524D01*
X159062294Y-77278571D02*
X159062294Y-77659523D01*
X159062294Y-77659523D02*
X159443246Y-77697619D01*
X159443246Y-77697619D02*
X159405151Y-77659523D01*
X159405151Y-77659523D02*
X159367056Y-77583333D01*
X159367056Y-77583333D02*
X159367056Y-77392857D01*
X159367056Y-77392857D02*
X159405151Y-77316666D01*
X159405151Y-77316666D02*
X159443246Y-77278571D01*
X159443246Y-77278571D02*
X159519437Y-77240476D01*
X159519437Y-77240476D02*
X159709913Y-77240476D01*
X159709913Y-77240476D02*
X159786103Y-77278571D01*
X159786103Y-77278571D02*
X159824199Y-77316666D01*
X159824199Y-77316666D02*
X159862294Y-77392857D01*
X159862294Y-77392857D02*
X159862294Y-77583333D01*
X159862294Y-77583333D02*
X159824199Y-77659523D01*
X159824199Y-77659523D02*
X159786103Y-77697619D01*
X131704821Y-78464286D02*
X130704821Y-78464286D01*
X130704821Y-78464286D02*
X130704821Y-78083334D01*
X130704821Y-78083334D02*
X130752440Y-77988096D01*
X130752440Y-77988096D02*
X130800059Y-77940477D01*
X130800059Y-77940477D02*
X130895297Y-77892858D01*
X130895297Y-77892858D02*
X131038154Y-77892858D01*
X131038154Y-77892858D02*
X131133392Y-77940477D01*
X131133392Y-77940477D02*
X131181011Y-77988096D01*
X131181011Y-77988096D02*
X131228630Y-78083334D01*
X131228630Y-78083334D02*
X131228630Y-78464286D01*
X131657202Y-77511905D02*
X131704821Y-77369048D01*
X131704821Y-77369048D02*
X131704821Y-77130953D01*
X131704821Y-77130953D02*
X131657202Y-77035715D01*
X131657202Y-77035715D02*
X131609582Y-76988096D01*
X131609582Y-76988096D02*
X131514344Y-76940477D01*
X131514344Y-76940477D02*
X131419106Y-76940477D01*
X131419106Y-76940477D02*
X131323868Y-76988096D01*
X131323868Y-76988096D02*
X131276249Y-77035715D01*
X131276249Y-77035715D02*
X131228630Y-77130953D01*
X131228630Y-77130953D02*
X131181011Y-77321429D01*
X131181011Y-77321429D02*
X131133392Y-77416667D01*
X131133392Y-77416667D02*
X131085773Y-77464286D01*
X131085773Y-77464286D02*
X130990535Y-77511905D01*
X130990535Y-77511905D02*
X130895297Y-77511905D01*
X130895297Y-77511905D02*
X130800059Y-77464286D01*
X130800059Y-77464286D02*
X130752440Y-77416667D01*
X130752440Y-77416667D02*
X130704821Y-77321429D01*
X130704821Y-77321429D02*
X130704821Y-77083334D01*
X130704821Y-77083334D02*
X130752440Y-76940477D01*
X131704821Y-75988096D02*
X131704821Y-76559524D01*
X131704821Y-76273810D02*
X130704821Y-76273810D01*
X130704821Y-76273810D02*
X130847678Y-76369048D01*
X130847678Y-76369048D02*
X130942916Y-76464286D01*
X130942916Y-76464286D02*
X130990535Y-76559524D01*
X139483332Y-74062295D02*
X139483332Y-74633723D01*
X139483332Y-74633723D02*
X139445237Y-74748009D01*
X139445237Y-74748009D02*
X139369046Y-74824200D01*
X139369046Y-74824200D02*
X139254761Y-74862295D01*
X139254761Y-74862295D02*
X139178570Y-74862295D01*
X139826189Y-74138485D02*
X139864285Y-74100390D01*
X139864285Y-74100390D02*
X139940475Y-74062295D01*
X139940475Y-74062295D02*
X140130951Y-74062295D01*
X140130951Y-74062295D02*
X140207142Y-74100390D01*
X140207142Y-74100390D02*
X140245237Y-74138485D01*
X140245237Y-74138485D02*
X140283332Y-74214676D01*
X140283332Y-74214676D02*
X140283332Y-74290866D01*
X140283332Y-74290866D02*
X140245237Y-74405152D01*
X140245237Y-74405152D02*
X139788094Y-74862295D01*
X139788094Y-74862295D02*
X140283332Y-74862295D01*
X193453332Y-93562295D02*
X193453332Y-94133723D01*
X193453332Y-94133723D02*
X193415237Y-94248009D01*
X193415237Y-94248009D02*
X193339046Y-94324200D01*
X193339046Y-94324200D02*
X193224761Y-94362295D01*
X193224761Y-94362295D02*
X193148570Y-94362295D01*
X194177142Y-93562295D02*
X194024761Y-93562295D01*
X194024761Y-93562295D02*
X193948570Y-93600390D01*
X193948570Y-93600390D02*
X193910475Y-93638485D01*
X193910475Y-93638485D02*
X193834285Y-93752771D01*
X193834285Y-93752771D02*
X193796189Y-93905152D01*
X193796189Y-93905152D02*
X193796189Y-94209914D01*
X193796189Y-94209914D02*
X193834285Y-94286104D01*
X193834285Y-94286104D02*
X193872380Y-94324200D01*
X193872380Y-94324200D02*
X193948570Y-94362295D01*
X193948570Y-94362295D02*
X194100951Y-94362295D01*
X194100951Y-94362295D02*
X194177142Y-94324200D01*
X194177142Y-94324200D02*
X194215237Y-94286104D01*
X194215237Y-94286104D02*
X194253332Y-94209914D01*
X194253332Y-94209914D02*
X194253332Y-94019438D01*
X194253332Y-94019438D02*
X194215237Y-93943247D01*
X194215237Y-93943247D02*
X194177142Y-93905152D01*
X194177142Y-93905152D02*
X194100951Y-93867057D01*
X194100951Y-93867057D02*
X193948570Y-93867057D01*
X193948570Y-93867057D02*
X193872380Y-93905152D01*
X193872380Y-93905152D02*
X193834285Y-93943247D01*
X193834285Y-93943247D02*
X193796189Y-94019438D01*
X129235716Y-92536105D02*
X129197620Y-92574201D01*
X129197620Y-92574201D02*
X129083335Y-92612296D01*
X129083335Y-92612296D02*
X129007144Y-92612296D01*
X129007144Y-92612296D02*
X128892858Y-92574201D01*
X128892858Y-92574201D02*
X128816668Y-92498010D01*
X128816668Y-92498010D02*
X128778573Y-92421820D01*
X128778573Y-92421820D02*
X128740477Y-92269439D01*
X128740477Y-92269439D02*
X128740477Y-92155153D01*
X128740477Y-92155153D02*
X128778573Y-92002772D01*
X128778573Y-92002772D02*
X128816668Y-91926581D01*
X128816668Y-91926581D02*
X128892858Y-91850391D01*
X128892858Y-91850391D02*
X129007144Y-91812296D01*
X129007144Y-91812296D02*
X129083335Y-91812296D01*
X129083335Y-91812296D02*
X129197620Y-91850391D01*
X129197620Y-91850391D02*
X129235716Y-91888486D01*
X129997620Y-92612296D02*
X129540477Y-92612296D01*
X129769049Y-92612296D02*
X129769049Y-91812296D01*
X129769049Y-91812296D02*
X129692858Y-91926581D01*
X129692858Y-91926581D02*
X129616668Y-92002772D01*
X129616668Y-92002772D02*
X129540477Y-92040867D01*
X130264287Y-91812296D02*
X130759525Y-91812296D01*
X130759525Y-91812296D02*
X130492859Y-92117058D01*
X130492859Y-92117058D02*
X130607144Y-92117058D01*
X130607144Y-92117058D02*
X130683335Y-92155153D01*
X130683335Y-92155153D02*
X130721430Y-92193248D01*
X130721430Y-92193248D02*
X130759525Y-92269439D01*
X130759525Y-92269439D02*
X130759525Y-92459915D01*
X130759525Y-92459915D02*
X130721430Y-92536105D01*
X130721430Y-92536105D02*
X130683335Y-92574201D01*
X130683335Y-92574201D02*
X130607144Y-92612296D01*
X130607144Y-92612296D02*
X130378573Y-92612296D01*
X130378573Y-92612296D02*
X130302382Y-92574201D01*
X130302382Y-92574201D02*
X130264287Y-92536105D01*
X191409523Y-85862295D02*
X191409523Y-85062295D01*
X191409523Y-85062295D02*
X191599999Y-85062295D01*
X191599999Y-85062295D02*
X191714285Y-85100390D01*
X191714285Y-85100390D02*
X191790475Y-85176580D01*
X191790475Y-85176580D02*
X191828570Y-85252771D01*
X191828570Y-85252771D02*
X191866666Y-85405152D01*
X191866666Y-85405152D02*
X191866666Y-85519438D01*
X191866666Y-85519438D02*
X191828570Y-85671819D01*
X191828570Y-85671819D02*
X191790475Y-85748009D01*
X191790475Y-85748009D02*
X191714285Y-85824200D01*
X191714285Y-85824200D02*
X191599999Y-85862295D01*
X191599999Y-85862295D02*
X191409523Y-85862295D01*
X192628570Y-85862295D02*
X192171427Y-85862295D01*
X192399999Y-85862295D02*
X192399999Y-85062295D01*
X192399999Y-85062295D02*
X192323808Y-85176580D01*
X192323808Y-85176580D02*
X192247618Y-85252771D01*
X192247618Y-85252771D02*
X192171427Y-85290866D01*
X174116666Y-90786104D02*
X174078570Y-90824200D01*
X174078570Y-90824200D02*
X173964285Y-90862295D01*
X173964285Y-90862295D02*
X173888094Y-90862295D01*
X173888094Y-90862295D02*
X173773808Y-90824200D01*
X173773808Y-90824200D02*
X173697618Y-90748009D01*
X173697618Y-90748009D02*
X173659523Y-90671819D01*
X173659523Y-90671819D02*
X173621427Y-90519438D01*
X173621427Y-90519438D02*
X173621427Y-90405152D01*
X173621427Y-90405152D02*
X173659523Y-90252771D01*
X173659523Y-90252771D02*
X173697618Y-90176580D01*
X173697618Y-90176580D02*
X173773808Y-90100390D01*
X173773808Y-90100390D02*
X173888094Y-90062295D01*
X173888094Y-90062295D02*
X173964285Y-90062295D01*
X173964285Y-90062295D02*
X174078570Y-90100390D01*
X174078570Y-90100390D02*
X174116666Y-90138485D01*
X174497618Y-90862295D02*
X174649999Y-90862295D01*
X174649999Y-90862295D02*
X174726189Y-90824200D01*
X174726189Y-90824200D02*
X174764285Y-90786104D01*
X174764285Y-90786104D02*
X174840475Y-90671819D01*
X174840475Y-90671819D02*
X174878570Y-90519438D01*
X174878570Y-90519438D02*
X174878570Y-90214676D01*
X174878570Y-90214676D02*
X174840475Y-90138485D01*
X174840475Y-90138485D02*
X174802380Y-90100390D01*
X174802380Y-90100390D02*
X174726189Y-90062295D01*
X174726189Y-90062295D02*
X174573808Y-90062295D01*
X174573808Y-90062295D02*
X174497618Y-90100390D01*
X174497618Y-90100390D02*
X174459523Y-90138485D01*
X174459523Y-90138485D02*
X174421427Y-90214676D01*
X174421427Y-90214676D02*
X174421427Y-90405152D01*
X174421427Y-90405152D02*
X174459523Y-90481342D01*
X174459523Y-90481342D02*
X174497618Y-90519438D01*
X174497618Y-90519438D02*
X174573808Y-90557533D01*
X174573808Y-90557533D02*
X174726189Y-90557533D01*
X174726189Y-90557533D02*
X174802380Y-90519438D01*
X174802380Y-90519438D02*
X174840475Y-90481342D01*
X174840475Y-90481342D02*
X174878570Y-90405152D01*
X147159523Y-89112295D02*
X147159523Y-88312295D01*
X147159523Y-88312295D02*
X147349999Y-88312295D01*
X147349999Y-88312295D02*
X147464285Y-88350390D01*
X147464285Y-88350390D02*
X147540475Y-88426580D01*
X147540475Y-88426580D02*
X147578570Y-88502771D01*
X147578570Y-88502771D02*
X147616666Y-88655152D01*
X147616666Y-88655152D02*
X147616666Y-88769438D01*
X147616666Y-88769438D02*
X147578570Y-88921819D01*
X147578570Y-88921819D02*
X147540475Y-88998009D01*
X147540475Y-88998009D02*
X147464285Y-89074200D01*
X147464285Y-89074200D02*
X147349999Y-89112295D01*
X147349999Y-89112295D02*
X147159523Y-89112295D01*
X147883332Y-88312295D02*
X148378570Y-88312295D01*
X148378570Y-88312295D02*
X148111904Y-88617057D01*
X148111904Y-88617057D02*
X148226189Y-88617057D01*
X148226189Y-88617057D02*
X148302380Y-88655152D01*
X148302380Y-88655152D02*
X148340475Y-88693247D01*
X148340475Y-88693247D02*
X148378570Y-88769438D01*
X148378570Y-88769438D02*
X148378570Y-88959914D01*
X148378570Y-88959914D02*
X148340475Y-89036104D01*
X148340475Y-89036104D02*
X148302380Y-89074200D01*
X148302380Y-89074200D02*
X148226189Y-89112295D01*
X148226189Y-89112295D02*
X147997618Y-89112295D01*
X147997618Y-89112295D02*
X147921427Y-89074200D01*
X147921427Y-89074200D02*
X147883332Y-89036104D01*
X160366666Y-87036104D02*
X160328570Y-87074200D01*
X160328570Y-87074200D02*
X160214285Y-87112295D01*
X160214285Y-87112295D02*
X160138094Y-87112295D01*
X160138094Y-87112295D02*
X160023808Y-87074200D01*
X160023808Y-87074200D02*
X159947618Y-86998009D01*
X159947618Y-86998009D02*
X159909523Y-86921819D01*
X159909523Y-86921819D02*
X159871427Y-86769438D01*
X159871427Y-86769438D02*
X159871427Y-86655152D01*
X159871427Y-86655152D02*
X159909523Y-86502771D01*
X159909523Y-86502771D02*
X159947618Y-86426580D01*
X159947618Y-86426580D02*
X160023808Y-86350390D01*
X160023808Y-86350390D02*
X160138094Y-86312295D01*
X160138094Y-86312295D02*
X160214285Y-86312295D01*
X160214285Y-86312295D02*
X160328570Y-86350390D01*
X160328570Y-86350390D02*
X160366666Y-86388485D01*
X160823808Y-86655152D02*
X160747618Y-86617057D01*
X160747618Y-86617057D02*
X160709523Y-86578961D01*
X160709523Y-86578961D02*
X160671427Y-86502771D01*
X160671427Y-86502771D02*
X160671427Y-86464676D01*
X160671427Y-86464676D02*
X160709523Y-86388485D01*
X160709523Y-86388485D02*
X160747618Y-86350390D01*
X160747618Y-86350390D02*
X160823808Y-86312295D01*
X160823808Y-86312295D02*
X160976189Y-86312295D01*
X160976189Y-86312295D02*
X161052380Y-86350390D01*
X161052380Y-86350390D02*
X161090475Y-86388485D01*
X161090475Y-86388485D02*
X161128570Y-86464676D01*
X161128570Y-86464676D02*
X161128570Y-86502771D01*
X161128570Y-86502771D02*
X161090475Y-86578961D01*
X161090475Y-86578961D02*
X161052380Y-86617057D01*
X161052380Y-86617057D02*
X160976189Y-86655152D01*
X160976189Y-86655152D02*
X160823808Y-86655152D01*
X160823808Y-86655152D02*
X160747618Y-86693247D01*
X160747618Y-86693247D02*
X160709523Y-86731342D01*
X160709523Y-86731342D02*
X160671427Y-86807533D01*
X160671427Y-86807533D02*
X160671427Y-86959914D01*
X160671427Y-86959914D02*
X160709523Y-87036104D01*
X160709523Y-87036104D02*
X160747618Y-87074200D01*
X160747618Y-87074200D02*
X160823808Y-87112295D01*
X160823808Y-87112295D02*
X160976189Y-87112295D01*
X160976189Y-87112295D02*
X161052380Y-87074200D01*
X161052380Y-87074200D02*
X161090475Y-87036104D01*
X161090475Y-87036104D02*
X161128570Y-86959914D01*
X161128570Y-86959914D02*
X161128570Y-86807533D01*
X161128570Y-86807533D02*
X161090475Y-86731342D01*
X161090475Y-86731342D02*
X161052380Y-86693247D01*
X161052380Y-86693247D02*
X160976189Y-86655152D01*
X145686103Y-92514285D02*
X145724199Y-92552381D01*
X145724199Y-92552381D02*
X145762294Y-92666666D01*
X145762294Y-92666666D02*
X145762294Y-92742857D01*
X145762294Y-92742857D02*
X145724199Y-92857143D01*
X145724199Y-92857143D02*
X145648008Y-92933333D01*
X145648008Y-92933333D02*
X145571818Y-92971428D01*
X145571818Y-92971428D02*
X145419437Y-93009524D01*
X145419437Y-93009524D02*
X145305151Y-93009524D01*
X145305151Y-93009524D02*
X145152770Y-92971428D01*
X145152770Y-92971428D02*
X145076579Y-92933333D01*
X145076579Y-92933333D02*
X145000389Y-92857143D01*
X145000389Y-92857143D02*
X144962294Y-92742857D01*
X144962294Y-92742857D02*
X144962294Y-92666666D01*
X144962294Y-92666666D02*
X145000389Y-92552381D01*
X145000389Y-92552381D02*
X145038484Y-92514285D01*
X145762294Y-91752381D02*
X145762294Y-92209524D01*
X145762294Y-91980952D02*
X144962294Y-91980952D01*
X144962294Y-91980952D02*
X145076579Y-92057143D01*
X145076579Y-92057143D02*
X145152770Y-92133333D01*
X145152770Y-92133333D02*
X145190865Y-92209524D01*
X145228960Y-91066666D02*
X145762294Y-91066666D01*
X144924199Y-91257142D02*
X145495627Y-91447619D01*
X145495627Y-91447619D02*
X145495627Y-90952380D01*
X117235716Y-92036105D02*
X117197620Y-92074201D01*
X117197620Y-92074201D02*
X117083335Y-92112296D01*
X117083335Y-92112296D02*
X117007144Y-92112296D01*
X117007144Y-92112296D02*
X116892858Y-92074201D01*
X116892858Y-92074201D02*
X116816668Y-91998010D01*
X116816668Y-91998010D02*
X116778573Y-91921820D01*
X116778573Y-91921820D02*
X116740477Y-91769439D01*
X116740477Y-91769439D02*
X116740477Y-91655153D01*
X116740477Y-91655153D02*
X116778573Y-91502772D01*
X116778573Y-91502772D02*
X116816668Y-91426581D01*
X116816668Y-91426581D02*
X116892858Y-91350391D01*
X116892858Y-91350391D02*
X117007144Y-91312296D01*
X117007144Y-91312296D02*
X117083335Y-91312296D01*
X117083335Y-91312296D02*
X117197620Y-91350391D01*
X117197620Y-91350391D02*
X117235716Y-91388486D01*
X117997620Y-92112296D02*
X117540477Y-92112296D01*
X117769049Y-92112296D02*
X117769049Y-91312296D01*
X117769049Y-91312296D02*
X117692858Y-91426581D01*
X117692858Y-91426581D02*
X117616668Y-91502772D01*
X117616668Y-91502772D02*
X117540477Y-91540867D01*
X118492859Y-91312296D02*
X118569049Y-91312296D01*
X118569049Y-91312296D02*
X118645240Y-91350391D01*
X118645240Y-91350391D02*
X118683335Y-91388486D01*
X118683335Y-91388486D02*
X118721430Y-91464677D01*
X118721430Y-91464677D02*
X118759525Y-91617058D01*
X118759525Y-91617058D02*
X118759525Y-91807534D01*
X118759525Y-91807534D02*
X118721430Y-91959915D01*
X118721430Y-91959915D02*
X118683335Y-92036105D01*
X118683335Y-92036105D02*
X118645240Y-92074201D01*
X118645240Y-92074201D02*
X118569049Y-92112296D01*
X118569049Y-92112296D02*
X118492859Y-92112296D01*
X118492859Y-92112296D02*
X118416668Y-92074201D01*
X118416668Y-92074201D02*
X118378573Y-92036105D01*
X118378573Y-92036105D02*
X118340478Y-91959915D01*
X118340478Y-91959915D02*
X118302382Y-91807534D01*
X118302382Y-91807534D02*
X118302382Y-91617058D01*
X118302382Y-91617058D02*
X118340478Y-91464677D01*
X118340478Y-91464677D02*
X118378573Y-91388486D01*
X118378573Y-91388486D02*
X118416668Y-91350391D01*
X118416668Y-91350391D02*
X118492859Y-91312296D01*
X151969047Y-79362295D02*
X151969047Y-78562295D01*
X152807142Y-79286104D02*
X152769046Y-79324200D01*
X152769046Y-79324200D02*
X152654761Y-79362295D01*
X152654761Y-79362295D02*
X152578570Y-79362295D01*
X152578570Y-79362295D02*
X152464284Y-79324200D01*
X152464284Y-79324200D02*
X152388094Y-79248009D01*
X152388094Y-79248009D02*
X152349999Y-79171819D01*
X152349999Y-79171819D02*
X152311903Y-79019438D01*
X152311903Y-79019438D02*
X152311903Y-78905152D01*
X152311903Y-78905152D02*
X152349999Y-78752771D01*
X152349999Y-78752771D02*
X152388094Y-78676580D01*
X152388094Y-78676580D02*
X152464284Y-78600390D01*
X152464284Y-78600390D02*
X152578570Y-78562295D01*
X152578570Y-78562295D02*
X152654761Y-78562295D01*
X152654761Y-78562295D02*
X152769046Y-78600390D01*
X152769046Y-78600390D02*
X152807142Y-78638485D01*
X153569046Y-79362295D02*
X153111903Y-79362295D01*
X153340475Y-79362295D02*
X153340475Y-78562295D01*
X153340475Y-78562295D02*
X153264284Y-78676580D01*
X153264284Y-78676580D02*
X153188094Y-78752771D01*
X153188094Y-78752771D02*
X153111903Y-78790866D01*
X185116666Y-81536104D02*
X185078570Y-81574200D01*
X185078570Y-81574200D02*
X184964285Y-81612295D01*
X184964285Y-81612295D02*
X184888094Y-81612295D01*
X184888094Y-81612295D02*
X184773808Y-81574200D01*
X184773808Y-81574200D02*
X184697618Y-81498009D01*
X184697618Y-81498009D02*
X184659523Y-81421819D01*
X184659523Y-81421819D02*
X184621427Y-81269438D01*
X184621427Y-81269438D02*
X184621427Y-81155152D01*
X184621427Y-81155152D02*
X184659523Y-81002771D01*
X184659523Y-81002771D02*
X184697618Y-80926580D01*
X184697618Y-80926580D02*
X184773808Y-80850390D01*
X184773808Y-80850390D02*
X184888094Y-80812295D01*
X184888094Y-80812295D02*
X184964285Y-80812295D01*
X184964285Y-80812295D02*
X185078570Y-80850390D01*
X185078570Y-80850390D02*
X185116666Y-80888485D01*
X185802380Y-80812295D02*
X185649999Y-80812295D01*
X185649999Y-80812295D02*
X185573808Y-80850390D01*
X185573808Y-80850390D02*
X185535713Y-80888485D01*
X185535713Y-80888485D02*
X185459523Y-81002771D01*
X185459523Y-81002771D02*
X185421427Y-81155152D01*
X185421427Y-81155152D02*
X185421427Y-81459914D01*
X185421427Y-81459914D02*
X185459523Y-81536104D01*
X185459523Y-81536104D02*
X185497618Y-81574200D01*
X185497618Y-81574200D02*
X185573808Y-81612295D01*
X185573808Y-81612295D02*
X185726189Y-81612295D01*
X185726189Y-81612295D02*
X185802380Y-81574200D01*
X185802380Y-81574200D02*
X185840475Y-81536104D01*
X185840475Y-81536104D02*
X185878570Y-81459914D01*
X185878570Y-81459914D02*
X185878570Y-81269438D01*
X185878570Y-81269438D02*
X185840475Y-81193247D01*
X185840475Y-81193247D02*
X185802380Y-81155152D01*
X185802380Y-81155152D02*
X185726189Y-81117057D01*
X185726189Y-81117057D02*
X185573808Y-81117057D01*
X185573808Y-81117057D02*
X185497618Y-81155152D01*
X185497618Y-81155152D02*
X185459523Y-81193247D01*
X185459523Y-81193247D02*
X185421427Y-81269438D01*
X196483332Y-75562295D02*
X196483332Y-76133723D01*
X196483332Y-76133723D02*
X196445237Y-76248009D01*
X196445237Y-76248009D02*
X196369046Y-76324200D01*
X196369046Y-76324200D02*
X196254761Y-76362295D01*
X196254761Y-76362295D02*
X196178570Y-76362295D01*
X197207142Y-75828961D02*
X197207142Y-76362295D01*
X197016666Y-75524200D02*
X196826189Y-76095628D01*
X196826189Y-76095628D02*
X197321428Y-76095628D01*
X147866666Y-86612295D02*
X147599999Y-86231342D01*
X147409523Y-86612295D02*
X147409523Y-85812295D01*
X147409523Y-85812295D02*
X147714285Y-85812295D01*
X147714285Y-85812295D02*
X147790475Y-85850390D01*
X147790475Y-85850390D02*
X147828570Y-85888485D01*
X147828570Y-85888485D02*
X147866666Y-85964676D01*
X147866666Y-85964676D02*
X147866666Y-86078961D01*
X147866666Y-86078961D02*
X147828570Y-86155152D01*
X147828570Y-86155152D02*
X147790475Y-86193247D01*
X147790475Y-86193247D02*
X147714285Y-86231342D01*
X147714285Y-86231342D02*
X147409523Y-86231342D01*
X148628570Y-86612295D02*
X148171427Y-86612295D01*
X148399999Y-86612295D02*
X148399999Y-85812295D01*
X148399999Y-85812295D02*
X148323808Y-85926580D01*
X148323808Y-85926580D02*
X148247618Y-86002771D01*
X148247618Y-86002771D02*
X148171427Y-86040866D01*
D11*
X193954241Y-79154692D02*
X193954241Y-79261835D01*
X193954241Y-79261835D02*
X193947098Y-79283264D01*
X193947098Y-79283264D02*
X193932812Y-79297550D01*
X193932812Y-79297550D02*
X193911384Y-79304692D01*
X193911384Y-79304692D02*
X193897098Y-79304692D01*
X194104241Y-79304692D02*
X194018527Y-79304692D01*
X194061384Y-79304692D02*
X194061384Y-79154692D01*
X194061384Y-79154692D02*
X194047098Y-79176121D01*
X194047098Y-79176121D02*
X194032813Y-79190407D01*
X194032813Y-79190407D02*
X194018527Y-79197550D01*
D10*
X170366666Y-81286104D02*
X170328570Y-81324200D01*
X170328570Y-81324200D02*
X170214285Y-81362295D01*
X170214285Y-81362295D02*
X170138094Y-81362295D01*
X170138094Y-81362295D02*
X170023808Y-81324200D01*
X170023808Y-81324200D02*
X169947618Y-81248009D01*
X169947618Y-81248009D02*
X169909523Y-81171819D01*
X169909523Y-81171819D02*
X169871427Y-81019438D01*
X169871427Y-81019438D02*
X169871427Y-80905152D01*
X169871427Y-80905152D02*
X169909523Y-80752771D01*
X169909523Y-80752771D02*
X169947618Y-80676580D01*
X169947618Y-80676580D02*
X170023808Y-80600390D01*
X170023808Y-80600390D02*
X170138094Y-80562295D01*
X170138094Y-80562295D02*
X170214285Y-80562295D01*
X170214285Y-80562295D02*
X170328570Y-80600390D01*
X170328570Y-80600390D02*
X170366666Y-80638485D01*
X171090475Y-80562295D02*
X170709523Y-80562295D01*
X170709523Y-80562295D02*
X170671427Y-80943247D01*
X170671427Y-80943247D02*
X170709523Y-80905152D01*
X170709523Y-80905152D02*
X170785713Y-80867057D01*
X170785713Y-80867057D02*
X170976189Y-80867057D01*
X170976189Y-80867057D02*
X171052380Y-80905152D01*
X171052380Y-80905152D02*
X171090475Y-80943247D01*
X171090475Y-80943247D02*
X171128570Y-81019438D01*
X171128570Y-81019438D02*
X171128570Y-81209914D01*
X171128570Y-81209914D02*
X171090475Y-81286104D01*
X171090475Y-81286104D02*
X171052380Y-81324200D01*
X171052380Y-81324200D02*
X170976189Y-81362295D01*
X170976189Y-81362295D02*
X170785713Y-81362295D01*
X170785713Y-81362295D02*
X170709523Y-81324200D01*
X170709523Y-81324200D02*
X170671427Y-81286104D01*
X178719047Y-87362295D02*
X178719047Y-86562295D01*
X179557142Y-87286104D02*
X179519046Y-87324200D01*
X179519046Y-87324200D02*
X179404761Y-87362295D01*
X179404761Y-87362295D02*
X179328570Y-87362295D01*
X179328570Y-87362295D02*
X179214284Y-87324200D01*
X179214284Y-87324200D02*
X179138094Y-87248009D01*
X179138094Y-87248009D02*
X179099999Y-87171819D01*
X179099999Y-87171819D02*
X179061903Y-87019438D01*
X179061903Y-87019438D02*
X179061903Y-86905152D01*
X179061903Y-86905152D02*
X179099999Y-86752771D01*
X179099999Y-86752771D02*
X179138094Y-86676580D01*
X179138094Y-86676580D02*
X179214284Y-86600390D01*
X179214284Y-86600390D02*
X179328570Y-86562295D01*
X179328570Y-86562295D02*
X179404761Y-86562295D01*
X179404761Y-86562295D02*
X179519046Y-86600390D01*
X179519046Y-86600390D02*
X179557142Y-86638485D01*
X179823808Y-86562295D02*
X180319046Y-86562295D01*
X180319046Y-86562295D02*
X180052380Y-86867057D01*
X180052380Y-86867057D02*
X180166665Y-86867057D01*
X180166665Y-86867057D02*
X180242856Y-86905152D01*
X180242856Y-86905152D02*
X180280951Y-86943247D01*
X180280951Y-86943247D02*
X180319046Y-87019438D01*
X180319046Y-87019438D02*
X180319046Y-87209914D01*
X180319046Y-87209914D02*
X180280951Y-87286104D01*
X180280951Y-87286104D02*
X180242856Y-87324200D01*
X180242856Y-87324200D02*
X180166665Y-87362295D01*
X180166665Y-87362295D02*
X179938094Y-87362295D01*
X179938094Y-87362295D02*
X179861903Y-87324200D01*
X179861903Y-87324200D02*
X179823808Y-87286104D01*
X191409523Y-89112295D02*
X191409523Y-88312295D01*
X191409523Y-88312295D02*
X191599999Y-88312295D01*
X191599999Y-88312295D02*
X191714285Y-88350390D01*
X191714285Y-88350390D02*
X191790475Y-88426580D01*
X191790475Y-88426580D02*
X191828570Y-88502771D01*
X191828570Y-88502771D02*
X191866666Y-88655152D01*
X191866666Y-88655152D02*
X191866666Y-88769438D01*
X191866666Y-88769438D02*
X191828570Y-88921819D01*
X191828570Y-88921819D02*
X191790475Y-88998009D01*
X191790475Y-88998009D02*
X191714285Y-89074200D01*
X191714285Y-89074200D02*
X191599999Y-89112295D01*
X191599999Y-89112295D02*
X191409523Y-89112295D01*
X192171427Y-88388485D02*
X192209523Y-88350390D01*
X192209523Y-88350390D02*
X192285713Y-88312295D01*
X192285713Y-88312295D02*
X192476189Y-88312295D01*
X192476189Y-88312295D02*
X192552380Y-88350390D01*
X192552380Y-88350390D02*
X192590475Y-88388485D01*
X192590475Y-88388485D02*
X192628570Y-88464676D01*
X192628570Y-88464676D02*
X192628570Y-88540866D01*
X192628570Y-88540866D02*
X192590475Y-88655152D01*
X192590475Y-88655152D02*
X192133332Y-89112295D01*
X192133332Y-89112295D02*
X192628570Y-89112295D01*
X167833332Y-88693247D02*
X167566666Y-88693247D01*
X167566666Y-89112295D02*
X167566666Y-88312295D01*
X167566666Y-88312295D02*
X167947618Y-88312295D01*
X168519046Y-88693247D02*
X168633332Y-88731342D01*
X168633332Y-88731342D02*
X168671427Y-88769438D01*
X168671427Y-88769438D02*
X168709523Y-88845628D01*
X168709523Y-88845628D02*
X168709523Y-88959914D01*
X168709523Y-88959914D02*
X168671427Y-89036104D01*
X168671427Y-89036104D02*
X168633332Y-89074200D01*
X168633332Y-89074200D02*
X168557142Y-89112295D01*
X168557142Y-89112295D02*
X168252380Y-89112295D01*
X168252380Y-89112295D02*
X168252380Y-88312295D01*
X168252380Y-88312295D02*
X168519046Y-88312295D01*
X168519046Y-88312295D02*
X168595237Y-88350390D01*
X168595237Y-88350390D02*
X168633332Y-88388485D01*
X168633332Y-88388485D02*
X168671427Y-88464676D01*
X168671427Y-88464676D02*
X168671427Y-88540866D01*
X168671427Y-88540866D02*
X168633332Y-88617057D01*
X168633332Y-88617057D02*
X168595237Y-88655152D01*
X168595237Y-88655152D02*
X168519046Y-88693247D01*
X168519046Y-88693247D02*
X168252380Y-88693247D01*
X169014284Y-88388485D02*
X169052380Y-88350390D01*
X169052380Y-88350390D02*
X169128570Y-88312295D01*
X169128570Y-88312295D02*
X169319046Y-88312295D01*
X169319046Y-88312295D02*
X169395237Y-88350390D01*
X169395237Y-88350390D02*
X169433332Y-88388485D01*
X169433332Y-88388485D02*
X169471427Y-88464676D01*
X169471427Y-88464676D02*
X169471427Y-88540866D01*
X169471427Y-88540866D02*
X169433332Y-88655152D01*
X169433332Y-88655152D02*
X168976189Y-89112295D01*
X168976189Y-89112295D02*
X169471427Y-89112295D01*
X185116666Y-80036104D02*
X185078570Y-80074200D01*
X185078570Y-80074200D02*
X184964285Y-80112295D01*
X184964285Y-80112295D02*
X184888094Y-80112295D01*
X184888094Y-80112295D02*
X184773808Y-80074200D01*
X184773808Y-80074200D02*
X184697618Y-79998009D01*
X184697618Y-79998009D02*
X184659523Y-79921819D01*
X184659523Y-79921819D02*
X184621427Y-79769438D01*
X184621427Y-79769438D02*
X184621427Y-79655152D01*
X184621427Y-79655152D02*
X184659523Y-79502771D01*
X184659523Y-79502771D02*
X184697618Y-79426580D01*
X184697618Y-79426580D02*
X184773808Y-79350390D01*
X184773808Y-79350390D02*
X184888094Y-79312295D01*
X184888094Y-79312295D02*
X184964285Y-79312295D01*
X184964285Y-79312295D02*
X185078570Y-79350390D01*
X185078570Y-79350390D02*
X185116666Y-79388485D01*
X185383332Y-79312295D02*
X185916666Y-79312295D01*
X185916666Y-79312295D02*
X185573808Y-80112295D01*
X174366666Y-81786104D02*
X174328570Y-81824200D01*
X174328570Y-81824200D02*
X174214285Y-81862295D01*
X174214285Y-81862295D02*
X174138094Y-81862295D01*
X174138094Y-81862295D02*
X174023808Y-81824200D01*
X174023808Y-81824200D02*
X173947618Y-81748009D01*
X173947618Y-81748009D02*
X173909523Y-81671819D01*
X173909523Y-81671819D02*
X173871427Y-81519438D01*
X173871427Y-81519438D02*
X173871427Y-81405152D01*
X173871427Y-81405152D02*
X173909523Y-81252771D01*
X173909523Y-81252771D02*
X173947618Y-81176580D01*
X173947618Y-81176580D02*
X174023808Y-81100390D01*
X174023808Y-81100390D02*
X174138094Y-81062295D01*
X174138094Y-81062295D02*
X174214285Y-81062295D01*
X174214285Y-81062295D02*
X174328570Y-81100390D01*
X174328570Y-81100390D02*
X174366666Y-81138485D01*
X174671427Y-81138485D02*
X174709523Y-81100390D01*
X174709523Y-81100390D02*
X174785713Y-81062295D01*
X174785713Y-81062295D02*
X174976189Y-81062295D01*
X174976189Y-81062295D02*
X175052380Y-81100390D01*
X175052380Y-81100390D02*
X175090475Y-81138485D01*
X175090475Y-81138485D02*
X175128570Y-81214676D01*
X175128570Y-81214676D02*
X175128570Y-81290866D01*
X175128570Y-81290866D02*
X175090475Y-81405152D01*
X175090475Y-81405152D02*
X174633332Y-81862295D01*
X174633332Y-81862295D02*
X175128570Y-81862295D01*
X164866666Y-77786104D02*
X164828570Y-77824200D01*
X164828570Y-77824200D02*
X164714285Y-77862295D01*
X164714285Y-77862295D02*
X164638094Y-77862295D01*
X164638094Y-77862295D02*
X164523808Y-77824200D01*
X164523808Y-77824200D02*
X164447618Y-77748009D01*
X164447618Y-77748009D02*
X164409523Y-77671819D01*
X164409523Y-77671819D02*
X164371427Y-77519438D01*
X164371427Y-77519438D02*
X164371427Y-77405152D01*
X164371427Y-77405152D02*
X164409523Y-77252771D01*
X164409523Y-77252771D02*
X164447618Y-77176580D01*
X164447618Y-77176580D02*
X164523808Y-77100390D01*
X164523808Y-77100390D02*
X164638094Y-77062295D01*
X164638094Y-77062295D02*
X164714285Y-77062295D01*
X164714285Y-77062295D02*
X164828570Y-77100390D01*
X164828570Y-77100390D02*
X164866666Y-77138485D01*
X165628570Y-77862295D02*
X165171427Y-77862295D01*
X165399999Y-77862295D02*
X165399999Y-77062295D01*
X165399999Y-77062295D02*
X165323808Y-77176580D01*
X165323808Y-77176580D02*
X165247618Y-77252771D01*
X165247618Y-77252771D02*
X165171427Y-77290866D01*
X147866666Y-83862295D02*
X147599999Y-83481342D01*
X147409523Y-83862295D02*
X147409523Y-83062295D01*
X147409523Y-83062295D02*
X147714285Y-83062295D01*
X147714285Y-83062295D02*
X147790475Y-83100390D01*
X147790475Y-83100390D02*
X147828570Y-83138485D01*
X147828570Y-83138485D02*
X147866666Y-83214676D01*
X147866666Y-83214676D02*
X147866666Y-83328961D01*
X147866666Y-83328961D02*
X147828570Y-83405152D01*
X147828570Y-83405152D02*
X147790475Y-83443247D01*
X147790475Y-83443247D02*
X147714285Y-83481342D01*
X147714285Y-83481342D02*
X147409523Y-83481342D01*
X148552380Y-83328961D02*
X148552380Y-83862295D01*
X148361904Y-83024200D02*
X148171427Y-83595628D01*
X148171427Y-83595628D02*
X148666666Y-83595628D01*
X113286106Y-78264286D02*
X113324202Y-78302382D01*
X113324202Y-78302382D02*
X113362297Y-78416667D01*
X113362297Y-78416667D02*
X113362297Y-78492858D01*
X113362297Y-78492858D02*
X113324202Y-78607144D01*
X113324202Y-78607144D02*
X113248011Y-78683334D01*
X113248011Y-78683334D02*
X113171821Y-78721429D01*
X113171821Y-78721429D02*
X113019440Y-78759525D01*
X113019440Y-78759525D02*
X112905154Y-78759525D01*
X112905154Y-78759525D02*
X112752773Y-78721429D01*
X112752773Y-78721429D02*
X112676582Y-78683334D01*
X112676582Y-78683334D02*
X112600392Y-78607144D01*
X112600392Y-78607144D02*
X112562297Y-78492858D01*
X112562297Y-78492858D02*
X112562297Y-78416667D01*
X112562297Y-78416667D02*
X112600392Y-78302382D01*
X112600392Y-78302382D02*
X112638487Y-78264286D01*
X113362297Y-77502382D02*
X113362297Y-77959525D01*
X113362297Y-77730953D02*
X112562297Y-77730953D01*
X112562297Y-77730953D02*
X112676582Y-77807144D01*
X112676582Y-77807144D02*
X112752773Y-77883334D01*
X112752773Y-77883334D02*
X112790868Y-77959525D01*
X113362297Y-76740477D02*
X113362297Y-77197620D01*
X113362297Y-76969048D02*
X112562297Y-76969048D01*
X112562297Y-76969048D02*
X112676582Y-77045239D01*
X112676582Y-77045239D02*
X112752773Y-77121429D01*
X112752773Y-77121429D02*
X112790868Y-77197620D01*
X165719047Y-94862295D02*
X165719047Y-94062295D01*
X166557142Y-94786104D02*
X166519046Y-94824200D01*
X166519046Y-94824200D02*
X166404761Y-94862295D01*
X166404761Y-94862295D02*
X166328570Y-94862295D01*
X166328570Y-94862295D02*
X166214284Y-94824200D01*
X166214284Y-94824200D02*
X166138094Y-94748009D01*
X166138094Y-94748009D02*
X166099999Y-94671819D01*
X166099999Y-94671819D02*
X166061903Y-94519438D01*
X166061903Y-94519438D02*
X166061903Y-94405152D01*
X166061903Y-94405152D02*
X166099999Y-94252771D01*
X166099999Y-94252771D02*
X166138094Y-94176580D01*
X166138094Y-94176580D02*
X166214284Y-94100390D01*
X166214284Y-94100390D02*
X166328570Y-94062295D01*
X166328570Y-94062295D02*
X166404761Y-94062295D01*
X166404761Y-94062295D02*
X166519046Y-94100390D01*
X166519046Y-94100390D02*
X166557142Y-94138485D01*
X167280951Y-94062295D02*
X166899999Y-94062295D01*
X166899999Y-94062295D02*
X166861903Y-94443247D01*
X166861903Y-94443247D02*
X166899999Y-94405152D01*
X166899999Y-94405152D02*
X166976189Y-94367057D01*
X166976189Y-94367057D02*
X167166665Y-94367057D01*
X167166665Y-94367057D02*
X167242856Y-94405152D01*
X167242856Y-94405152D02*
X167280951Y-94443247D01*
X167280951Y-94443247D02*
X167319046Y-94519438D01*
X167319046Y-94519438D02*
X167319046Y-94709914D01*
X167319046Y-94709914D02*
X167280951Y-94786104D01*
X167280951Y-94786104D02*
X167242856Y-94824200D01*
X167242856Y-94824200D02*
X167166665Y-94862295D01*
X167166665Y-94862295D02*
X166976189Y-94862295D01*
X166976189Y-94862295D02*
X166899999Y-94824200D01*
X166899999Y-94824200D02*
X166861903Y-94786104D01*
X178719047Y-94362295D02*
X178719047Y-93562295D01*
X179557142Y-94286104D02*
X179519046Y-94324200D01*
X179519046Y-94324200D02*
X179404761Y-94362295D01*
X179404761Y-94362295D02*
X179328570Y-94362295D01*
X179328570Y-94362295D02*
X179214284Y-94324200D01*
X179214284Y-94324200D02*
X179138094Y-94248009D01*
X179138094Y-94248009D02*
X179099999Y-94171819D01*
X179099999Y-94171819D02*
X179061903Y-94019438D01*
X179061903Y-94019438D02*
X179061903Y-93905152D01*
X179061903Y-93905152D02*
X179099999Y-93752771D01*
X179099999Y-93752771D02*
X179138094Y-93676580D01*
X179138094Y-93676580D02*
X179214284Y-93600390D01*
X179214284Y-93600390D02*
X179328570Y-93562295D01*
X179328570Y-93562295D02*
X179404761Y-93562295D01*
X179404761Y-93562295D02*
X179519046Y-93600390D01*
X179519046Y-93600390D02*
X179557142Y-93638485D01*
X180242856Y-93562295D02*
X180090475Y-93562295D01*
X180090475Y-93562295D02*
X180014284Y-93600390D01*
X180014284Y-93600390D02*
X179976189Y-93638485D01*
X179976189Y-93638485D02*
X179899999Y-93752771D01*
X179899999Y-93752771D02*
X179861903Y-93905152D01*
X179861903Y-93905152D02*
X179861903Y-94209914D01*
X179861903Y-94209914D02*
X179899999Y-94286104D01*
X179899999Y-94286104D02*
X179938094Y-94324200D01*
X179938094Y-94324200D02*
X180014284Y-94362295D01*
X180014284Y-94362295D02*
X180166665Y-94362295D01*
X180166665Y-94362295D02*
X180242856Y-94324200D01*
X180242856Y-94324200D02*
X180280951Y-94286104D01*
X180280951Y-94286104D02*
X180319046Y-94209914D01*
X180319046Y-94209914D02*
X180319046Y-94019438D01*
X180319046Y-94019438D02*
X180280951Y-93943247D01*
X180280951Y-93943247D02*
X180242856Y-93905152D01*
X180242856Y-93905152D02*
X180166665Y-93867057D01*
X180166665Y-93867057D02*
X180014284Y-93867057D01*
X180014284Y-93867057D02*
X179938094Y-93905152D01*
X179938094Y-93905152D02*
X179899999Y-93943247D01*
X179899999Y-93943247D02*
X179861903Y-94019438D01*
X151969047Y-84112295D02*
X151969047Y-83312295D01*
X152807142Y-84036104D02*
X152769046Y-84074200D01*
X152769046Y-84074200D02*
X152654761Y-84112295D01*
X152654761Y-84112295D02*
X152578570Y-84112295D01*
X152578570Y-84112295D02*
X152464284Y-84074200D01*
X152464284Y-84074200D02*
X152388094Y-83998009D01*
X152388094Y-83998009D02*
X152349999Y-83921819D01*
X152349999Y-83921819D02*
X152311903Y-83769438D01*
X152311903Y-83769438D02*
X152311903Y-83655152D01*
X152311903Y-83655152D02*
X152349999Y-83502771D01*
X152349999Y-83502771D02*
X152388094Y-83426580D01*
X152388094Y-83426580D02*
X152464284Y-83350390D01*
X152464284Y-83350390D02*
X152578570Y-83312295D01*
X152578570Y-83312295D02*
X152654761Y-83312295D01*
X152654761Y-83312295D02*
X152769046Y-83350390D01*
X152769046Y-83350390D02*
X152807142Y-83388485D01*
X153492856Y-83578961D02*
X153492856Y-84112295D01*
X153302380Y-83274200D02*
X153111903Y-83845628D01*
X153111903Y-83845628D02*
X153607142Y-83845628D01*
X149766666Y-75512295D02*
X149499999Y-75131342D01*
X149309523Y-75512295D02*
X149309523Y-74712295D01*
X149309523Y-74712295D02*
X149614285Y-74712295D01*
X149614285Y-74712295D02*
X149690475Y-74750390D01*
X149690475Y-74750390D02*
X149728570Y-74788485D01*
X149728570Y-74788485D02*
X149766666Y-74864676D01*
X149766666Y-74864676D02*
X149766666Y-74978961D01*
X149766666Y-74978961D02*
X149728570Y-75055152D01*
X149728570Y-75055152D02*
X149690475Y-75093247D01*
X149690475Y-75093247D02*
X149614285Y-75131342D01*
X149614285Y-75131342D02*
X149309523Y-75131342D01*
X150071427Y-74788485D02*
X150109523Y-74750390D01*
X150109523Y-74750390D02*
X150185713Y-74712295D01*
X150185713Y-74712295D02*
X150376189Y-74712295D01*
X150376189Y-74712295D02*
X150452380Y-74750390D01*
X150452380Y-74750390D02*
X150490475Y-74788485D01*
X150490475Y-74788485D02*
X150528570Y-74864676D01*
X150528570Y-74864676D02*
X150528570Y-74940866D01*
X150528570Y-74940866D02*
X150490475Y-75055152D01*
X150490475Y-75055152D02*
X150033332Y-75512295D01*
X150033332Y-75512295D02*
X150528570Y-75512295D01*
X147866666Y-82612295D02*
X147599999Y-82231342D01*
X147409523Y-82612295D02*
X147409523Y-81812295D01*
X147409523Y-81812295D02*
X147714285Y-81812295D01*
X147714285Y-81812295D02*
X147790475Y-81850390D01*
X147790475Y-81850390D02*
X147828570Y-81888485D01*
X147828570Y-81888485D02*
X147866666Y-81964676D01*
X147866666Y-81964676D02*
X147866666Y-82078961D01*
X147866666Y-82078961D02*
X147828570Y-82155152D01*
X147828570Y-82155152D02*
X147790475Y-82193247D01*
X147790475Y-82193247D02*
X147714285Y-82231342D01*
X147714285Y-82231342D02*
X147409523Y-82231342D01*
X148133332Y-81812295D02*
X148628570Y-81812295D01*
X148628570Y-81812295D02*
X148361904Y-82117057D01*
X148361904Y-82117057D02*
X148476189Y-82117057D01*
X148476189Y-82117057D02*
X148552380Y-82155152D01*
X148552380Y-82155152D02*
X148590475Y-82193247D01*
X148590475Y-82193247D02*
X148628570Y-82269438D01*
X148628570Y-82269438D02*
X148628570Y-82459914D01*
X148628570Y-82459914D02*
X148590475Y-82536104D01*
X148590475Y-82536104D02*
X148552380Y-82574200D01*
X148552380Y-82574200D02*
X148476189Y-82612295D01*
X148476189Y-82612295D02*
X148247618Y-82612295D01*
X148247618Y-82612295D02*
X148171427Y-82574200D01*
X148171427Y-82574200D02*
X148133332Y-82536104D01*
D12*
X156739999Y-81088748D02*
X156739999Y-82511252D01*
X158559999Y-81088748D02*
X158559999Y-82511252D01*
D13*
X148849999Y-87888000D02*
X159649999Y-87888000D01*
X148849999Y-92488000D02*
X148849999Y-87888000D01*
X149739999Y-94613000D02*
X149739999Y-92838000D01*
X159649999Y-87888000D02*
X159649999Y-92488000D01*
X159649999Y-92488000D02*
X148849999Y-92488000D01*
D12*
X135899999Y-80170000D02*
X135899999Y-95530000D01*
X135899999Y-95530000D02*
X138559999Y-95530000D01*
X138559999Y-80170000D02*
X135899999Y-80170000D01*
X138559999Y-82770000D02*
X135899999Y-82770000D01*
X138559999Y-85310000D02*
X135899999Y-85310000D01*
X138559999Y-87850000D02*
X135899999Y-87850000D01*
X138559999Y-90390000D02*
X135899999Y-90390000D01*
X138559999Y-92930000D02*
X135899999Y-92930000D01*
X138559999Y-95530000D02*
X138559999Y-80170000D01*
X138889999Y-93820000D02*
X138559999Y-93820000D01*
X138889999Y-94580000D02*
X138559999Y-94580000D01*
X138957070Y-81120000D02*
X138559999Y-81120000D01*
X138957070Y-81880000D02*
X138559999Y-81880000D01*
X138957070Y-83660000D02*
X138559999Y-83660000D01*
X138957070Y-84420000D02*
X138559999Y-84420000D01*
X138957070Y-86200000D02*
X138559999Y-86200000D01*
X138957070Y-86960000D02*
X138559999Y-86960000D01*
X138957070Y-88740000D02*
X138559999Y-88740000D01*
X138957070Y-89500000D02*
X138559999Y-89500000D01*
X138957070Y-91280000D02*
X138559999Y-91280000D01*
X138957070Y-92040000D02*
X138559999Y-92040000D01*
X141269999Y-94200000D02*
X141269999Y-95470000D01*
X141269999Y-95470000D02*
X139999999Y-95470000D01*
X198499999Y-84750000D02*
G75*
G02*
X195499999Y-84750000I-1500000J0D01*
G01*
X195499999Y-84750000D02*
G75*
G02*
X198499999Y-84750000I1500000J0D01*
G01*
D14*
X161949999Y-79100000D02*
G75*
G02*
X161549999Y-79100000I-200000J0D01*
G01*
X161549999Y-79100000D02*
G75*
G02*
X161949999Y-79100000I200000J0D01*
G01*
D12*
X169788747Y-78340000D02*
X171211251Y-78340000D01*
X169788747Y-80160000D02*
X171211251Y-80160000D01*
X175288747Y-74940000D02*
X176711251Y-74940000D01*
X175288747Y-76760000D02*
X176711251Y-76760000D01*
X169235241Y-74940000D02*
X167564757Y-74940000D01*
X169235241Y-76760000D02*
X167564757Y-76760000D01*
X113590002Y-88835243D02*
X113590002Y-87164759D01*
X115410002Y-88835243D02*
X115410002Y-87164759D01*
X116538750Y-75340001D02*
X117961254Y-75340001D01*
X116538750Y-77160001D02*
X117961254Y-77160001D01*
X156739999Y-77361252D02*
X156739999Y-75938748D01*
X158559999Y-77361252D02*
X158559999Y-75938748D01*
D15*
X117130002Y-79825001D02*
X118750002Y-79825001D01*
X117130002Y-90525001D02*
X117130002Y-79825001D01*
X121350002Y-90525001D02*
X117130002Y-90525001D01*
X128950002Y-90525001D02*
X123150002Y-90525001D01*
X129750002Y-78675001D02*
X129750002Y-78675001D01*
X129750002Y-78775001D02*
X129750002Y-78775001D01*
X130750002Y-90525001D02*
X132370002Y-90525001D01*
X132370002Y-79825001D02*
X130750002Y-79825001D01*
X132370002Y-90525001D02*
X132370002Y-79825001D01*
X129750002Y-78675001D02*
G75*
G02*
X129750002Y-78775001I0J-50000D01*
G01*
X129750002Y-78775001D02*
G75*
G02*
X129750002Y-78675001I0J50000D01*
G01*
D12*
X135899999Y-75090000D02*
X135899999Y-77750000D01*
X135899999Y-77750000D02*
X138559999Y-77750000D01*
X138559999Y-75090000D02*
X135899999Y-75090000D01*
X138559999Y-77750000D02*
X138559999Y-75090000D01*
X138957070Y-76040000D02*
X138559999Y-76040000D01*
X138957070Y-76800000D02*
X138559999Y-76800000D01*
X141429999Y-76040000D02*
X141042928Y-76040000D01*
X141429999Y-76800000D02*
X141042928Y-76800000D01*
X143809999Y-76420000D02*
X143809999Y-77690000D01*
X143809999Y-77690000D02*
X142539999Y-77690000D01*
X187589999Y-95330000D02*
X187589999Y-94000000D01*
X188919999Y-95330000D02*
X187589999Y-95330000D01*
X190189999Y-92670000D02*
X192789999Y-92670000D01*
X190189999Y-95330000D02*
X190189999Y-92670000D01*
X190189999Y-95330000D02*
X192789999Y-95330000D01*
X192789999Y-95330000D02*
X192789999Y-92670000D01*
X130711254Y-93090001D02*
X129288750Y-93090001D01*
X130711254Y-94910001D02*
X129288750Y-94910001D01*
X188937499Y-83940000D02*
X188287499Y-83940000D01*
X188937499Y-83940000D02*
X189587499Y-83940000D01*
X188937499Y-87060000D02*
X188287499Y-87060000D01*
X188937499Y-87060000D02*
X190612499Y-87060000D01*
X170038747Y-89590000D02*
X171461251Y-89590000D01*
X170038747Y-91410000D02*
X171461251Y-91410000D01*
X143064999Y-87790000D02*
X143064999Y-89710000D01*
X143064999Y-89710000D02*
X145749999Y-89710000D01*
X145749999Y-87790000D02*
X143064999Y-87790000D01*
X162988747Y-85940000D02*
X164411251Y-85940000D01*
X162988747Y-87760000D02*
X164411251Y-87760000D01*
X146339999Y-93211252D02*
X146339999Y-91788748D01*
X148159999Y-93211252D02*
X148159999Y-91788748D01*
X117038750Y-93090001D02*
X118461254Y-93090001D01*
X117038750Y-94910001D02*
X118461254Y-94910001D01*
D13*
X150999999Y-74850000D02*
X152199999Y-74850000D01*
X152549999Y-75000000D02*
X153149999Y-75000000D01*
X152549999Y-77900000D02*
X152549999Y-75000000D01*
X153149999Y-75000000D02*
X153149999Y-77900000D01*
X153149999Y-77900000D02*
X152549999Y-77900000D01*
D12*
X182788747Y-77090000D02*
X184211251Y-77090000D01*
X182788747Y-78910000D02*
X184211251Y-78910000D01*
X187589999Y-74670000D02*
X187589999Y-77330000D01*
X192729999Y-74670000D02*
X187589999Y-74670000D01*
X192729999Y-74670000D02*
X192729999Y-77330000D01*
X192729999Y-77330000D02*
X187589999Y-77330000D01*
X193999999Y-74670000D02*
X195329999Y-74670000D01*
X195329999Y-74670000D02*
X195329999Y-76000000D01*
X144022935Y-85590000D02*
X145477063Y-85590000D01*
X144022935Y-87410000D02*
X145477063Y-87410000D01*
D13*
X199375999Y-79990000D02*
X201025999Y-79990000D01*
X199375999Y-83612700D02*
X199375999Y-79990000D01*
X199375999Y-89510000D02*
X199375999Y-85887300D01*
X199375999Y-89510000D02*
X201025999Y-89510000D01*
X201025999Y-82296730D02*
X203895999Y-82296730D01*
X201025999Y-87197390D02*
X203895999Y-87197390D01*
X201025999Y-89510000D02*
X201025999Y-79990000D01*
X203895999Y-82296730D02*
X204270999Y-82085000D01*
X203895999Y-87197390D02*
X203895999Y-82296720D01*
X203895999Y-87197390D02*
X204270999Y-87415000D01*
X204270999Y-82035000D02*
X204481999Y-81656000D01*
X204270999Y-87415000D02*
X204481999Y-81656000D01*
X204270999Y-87462690D02*
X204270999Y-82035000D01*
X204270999Y-87462690D02*
X204481999Y-87844000D01*
X204270999Y-87462690D02*
X204619999Y-81656000D01*
X204270999Y-87462690D02*
X204830999Y-82035000D01*
X204481999Y-81656000D02*
X204619999Y-81656000D01*
X204481999Y-87844000D02*
X204619999Y-87844000D01*
X204481999Y-87844000D02*
X205041999Y-81656000D01*
X204619999Y-81656000D02*
X204830999Y-82035000D01*
X204619999Y-87844000D02*
X204830999Y-87465000D01*
X204619999Y-87844000D02*
X205179999Y-81656000D01*
X204830999Y-82035000D02*
X205041999Y-81656000D01*
X204830999Y-87465000D02*
X205041999Y-87844000D01*
X204830999Y-87465000D02*
X205390999Y-82035000D01*
X205041999Y-81656000D02*
X205179999Y-81656000D01*
X205041999Y-87844000D02*
X205179999Y-87844000D01*
X205041999Y-87844000D02*
X205601999Y-81656000D01*
X205179999Y-81656000D02*
X205390999Y-82035000D01*
X205179999Y-87844000D02*
X205390999Y-87465000D01*
X205179999Y-87844000D02*
X205739999Y-81656000D01*
X205390999Y-82035000D02*
X205601999Y-81656000D01*
X205390999Y-87465000D02*
X205601999Y-87844000D01*
X205390999Y-87465000D02*
X205950999Y-82035000D01*
X205601999Y-81656000D02*
X205739999Y-81656000D01*
X205601999Y-87844000D02*
X205739999Y-87844000D01*
X205601999Y-87844000D02*
X206161999Y-81656000D01*
X205739999Y-81656000D02*
X205950999Y-82035000D01*
X205739999Y-87844000D02*
X205950999Y-87465000D01*
X205739999Y-87844000D02*
X206299999Y-81656000D01*
X205950999Y-82035000D02*
X206161999Y-81656000D01*
X205950999Y-87465000D02*
X206161999Y-87844000D01*
X205950999Y-87465000D02*
X206510999Y-82035000D01*
X206161999Y-81656000D02*
X206299999Y-81656000D01*
X206161999Y-87844000D02*
X206299999Y-87844000D01*
X206161999Y-87844000D02*
X206721999Y-81656000D01*
X206299999Y-81656000D02*
X206510999Y-82035000D01*
X206299999Y-87844000D02*
X206510999Y-87465000D01*
X206299999Y-87844000D02*
X206859999Y-81656000D01*
X206510999Y-82035000D02*
X206721999Y-81656000D01*
X206510999Y-87465000D02*
X206721999Y-87844000D01*
X206510999Y-87465000D02*
X207070999Y-82035000D01*
X206721999Y-81656000D02*
X206859999Y-81656000D01*
X206721999Y-87844000D02*
X206859999Y-87844000D01*
X206721999Y-87844000D02*
X207281999Y-81656000D01*
X206859999Y-81656000D02*
X207070999Y-82035000D01*
X206859999Y-87844000D02*
X207070999Y-87465000D01*
X206859999Y-87844000D02*
X207420009Y-81656000D01*
X207070999Y-82035000D02*
X207281999Y-81656000D01*
X207070999Y-87465000D02*
X207281999Y-87844000D01*
X207070999Y-87465000D02*
X207631009Y-82035000D01*
X207281999Y-81656000D02*
X207420009Y-81656000D01*
X207281999Y-87844000D02*
X207420009Y-87844000D01*
X207281999Y-87844000D02*
X207841999Y-81656000D01*
X207420009Y-81656000D02*
X207631009Y-82035000D01*
X207420009Y-87844000D02*
X207631009Y-87465000D01*
X207420009Y-87844000D02*
X207979999Y-81656000D01*
X207631009Y-82035000D02*
X207841999Y-81656000D01*
X207631009Y-87465000D02*
X207841999Y-87844000D01*
X207631009Y-87465000D02*
X208190999Y-82085000D01*
X207841999Y-81656000D02*
X207979999Y-81656000D01*
X207841999Y-87844000D02*
X207979999Y-87844000D01*
X207841999Y-87844000D02*
X208190999Y-82085000D01*
X207979999Y-81656000D02*
X208190999Y-82085000D01*
X207979999Y-87844000D02*
X208190999Y-82085000D01*
X207979999Y-87844000D02*
X208190999Y-87465000D01*
X208190999Y-82085000D02*
X208905999Y-82085000D01*
X208190999Y-87415000D02*
X208905999Y-87415000D01*
X208190999Y-87465000D02*
X208190999Y-82085000D01*
X208905999Y-87415000D02*
X208905999Y-82085000D01*
D12*
X169788747Y-81840000D02*
X171211251Y-81840000D01*
X169788747Y-83660000D02*
X171211251Y-83660000D01*
D13*
X177024999Y-81170000D02*
X178549999Y-81170000D01*
X178899999Y-81300000D02*
X182099999Y-81300000D01*
X178899999Y-86200000D02*
X178899999Y-81300000D01*
X182099999Y-81300000D02*
X182099999Y-86200000D01*
X182099999Y-86200000D02*
X178899999Y-86200000D01*
D12*
X188937499Y-87340000D02*
X188287499Y-87340000D01*
X188937499Y-87340000D02*
X189587499Y-87340000D01*
X188937499Y-90460000D02*
X188287499Y-90460000D01*
X188937499Y-90460000D02*
X190612499Y-90460000D01*
X169285241Y-85940000D02*
X167614757Y-85940000D01*
X169285241Y-87760000D02*
X167614757Y-87760000D01*
X182788747Y-74840000D02*
X184211251Y-74840000D01*
X182788747Y-76660000D02*
X184211251Y-76660000D01*
X175288747Y-77340000D02*
X176711251Y-77340000D01*
X175288747Y-79160000D02*
X176711251Y-79160000D01*
X162938747Y-74940000D02*
X164361251Y-74940000D01*
X162938747Y-76760000D02*
X164361251Y-76760000D01*
X144022935Y-81590000D02*
X145477063Y-81590000D01*
X144022935Y-83410000D02*
X145477063Y-83410000D01*
X113590002Y-81788749D02*
X113590002Y-83211253D01*
X115410002Y-81788749D02*
X115410002Y-83211253D01*
D14*
X161949999Y-89600000D02*
G75*
G02*
X161549999Y-89600000I-200000J0D01*
G01*
X161549999Y-89600000D02*
G75*
G02*
X161949999Y-89600000I200000J0D01*
G01*
D13*
X177024999Y-87920000D02*
X178549999Y-87920000D01*
X178899999Y-88050000D02*
X182099999Y-88050000D01*
X178899999Y-92950000D02*
X178899999Y-88050000D01*
X182099999Y-88050000D02*
X182099999Y-92950000D01*
X182099999Y-92950000D02*
X178899999Y-92950000D01*
X150999999Y-79600000D02*
X152199999Y-79600000D01*
X152549999Y-79750000D02*
X153149999Y-79750000D01*
X152549999Y-82650000D02*
X152549999Y-79750000D01*
X153149999Y-79750000D02*
X153149999Y-82650000D01*
X153149999Y-82650000D02*
X152549999Y-82650000D01*
D12*
X145922935Y-74240000D02*
X147377063Y-74240000D01*
X145922935Y-76060000D02*
X147377063Y-76060000D01*
X144022935Y-79340000D02*
X145477063Y-79340000D01*
X144022935Y-81160000D02*
X145477063Y-81160000D01*
%LPC*%
G36*
G01*
X156999999Y-79750000D02*
X158299999Y-79750000D01*
G75*
G02*
X158549999Y-80000000I0J-250000D01*
G01*
X158549999Y-80650000D01*
G75*
G02*
X158299999Y-80900000I-250000J0D01*
G01*
X156999999Y-80900000D01*
G75*
G02*
X156749999Y-80650000I0J250000D01*
G01*
X156749999Y-80000000D01*
G75*
G02*
X156999999Y-79750000I250000J0D01*
G01*
G37*
G36*
G01*
X156999999Y-82700000D02*
X158299999Y-82700000D01*
G75*
G02*
X158549999Y-82950000I0J-250000D01*
G01*
X158549999Y-83600000D01*
G75*
G02*
X158299999Y-83850000I-250000J0D01*
G01*
X156999999Y-83850000D01*
G75*
G02*
X156749999Y-83600000I0J250000D01*
G01*
X156749999Y-82950000D01*
G75*
G02*
X156999999Y-82700000I250000J0D01*
G01*
G37*
G36*
G01*
X150789999Y-93013500D02*
X150789999Y-94438500D01*
G75*
G02*
X150614999Y-94613500I-175000J0D01*
G01*
X150264999Y-94613500D01*
G75*
G02*
X150089999Y-94438500I0J175000D01*
G01*
X150089999Y-93013500D01*
G75*
G02*
X150264999Y-92838500I175000J0D01*
G01*
X150614999Y-92838500D01*
G75*
G02*
X150789999Y-93013500I0J-175000D01*
G01*
G37*
G36*
G01*
X152059999Y-93013500D02*
X152059999Y-94438500D01*
G75*
G02*
X151884999Y-94613500I-175000J0D01*
G01*
X151534999Y-94613500D01*
G75*
G02*
X151359999Y-94438500I0J175000D01*
G01*
X151359999Y-93013500D01*
G75*
G02*
X151534999Y-92838500I175000J0D01*
G01*
X151884999Y-92838500D01*
G75*
G02*
X152059999Y-93013500I0J-175000D01*
G01*
G37*
G36*
G01*
X153329999Y-93013500D02*
X153329999Y-94438500D01*
G75*
G02*
X153154999Y-94613500I-175000J0D01*
G01*
X152804999Y-94613500D01*
G75*
G02*
X152629999Y-94438500I0J175000D01*
G01*
X152629999Y-93013500D01*
G75*
G02*
X152804999Y-92838500I175000J0D01*
G01*
X153154999Y-92838500D01*
G75*
G02*
X153329999Y-93013500I0J-175000D01*
G01*
G37*
G36*
G01*
X154599999Y-93013500D02*
X154599999Y-94438500D01*
G75*
G02*
X154424999Y-94613500I-175000J0D01*
G01*
X154074999Y-94613500D01*
G75*
G02*
X153899999Y-94438500I0J175000D01*
G01*
X153899999Y-93013500D01*
G75*
G02*
X154074999Y-92838500I175000J0D01*
G01*
X154424999Y-92838500D01*
G75*
G02*
X154599999Y-93013500I0J-175000D01*
G01*
G37*
G36*
G01*
X155869999Y-93013500D02*
X155869999Y-94438500D01*
G75*
G02*
X155694999Y-94613500I-175000J0D01*
G01*
X155344999Y-94613500D01*
G75*
G02*
X155169999Y-94438500I0J175000D01*
G01*
X155169999Y-93013500D01*
G75*
G02*
X155344999Y-92838500I175000J0D01*
G01*
X155694999Y-92838500D01*
G75*
G02*
X155869999Y-93013500I0J-175000D01*
G01*
G37*
G36*
G01*
X157139999Y-93013500D02*
X157139999Y-94438500D01*
G75*
G02*
X156964999Y-94613500I-175000J0D01*
G01*
X156614999Y-94613500D01*
G75*
G02*
X156439999Y-94438500I0J175000D01*
G01*
X156439999Y-93013500D01*
G75*
G02*
X156614999Y-92838500I175000J0D01*
G01*
X156964999Y-92838500D01*
G75*
G02*
X157139999Y-93013500I0J-175000D01*
G01*
G37*
G36*
G01*
X158409999Y-93013500D02*
X158409999Y-94438500D01*
G75*
G02*
X158234999Y-94613500I-175000J0D01*
G01*
X157884999Y-94613500D01*
G75*
G02*
X157709999Y-94438500I0J175000D01*
G01*
X157709999Y-93013500D01*
G75*
G02*
X157884999Y-92838500I175000J0D01*
G01*
X158234999Y-92838500D01*
G75*
G02*
X158409999Y-93013500I0J-175000D01*
G01*
G37*
G36*
G01*
X158409999Y-85937500D02*
X158409999Y-87362500D01*
G75*
G02*
X158234999Y-87537500I-175000J0D01*
G01*
X157884999Y-87537500D01*
G75*
G02*
X157709999Y-87362500I0J175000D01*
G01*
X157709999Y-85937500D01*
G75*
G02*
X157884999Y-85762500I175000J0D01*
G01*
X158234999Y-85762500D01*
G75*
G02*
X158409999Y-85937500I0J-175000D01*
G01*
G37*
G36*
G01*
X157139999Y-85937500D02*
X157139999Y-87362500D01*
G75*
G02*
X156964999Y-87537500I-175000J0D01*
G01*
X156614999Y-87537500D01*
G75*
G02*
X156439999Y-87362500I0J175000D01*
G01*
X156439999Y-85937500D01*
G75*
G02*
X156614999Y-85762500I175000J0D01*
G01*
X156964999Y-85762500D01*
G75*
G02*
X157139999Y-85937500I0J-175000D01*
G01*
G37*
G36*
G01*
X155869999Y-85937500D02*
X155869999Y-87362500D01*
G75*
G02*
X155694999Y-87537500I-175000J0D01*
G01*
X155344999Y-87537500D01*
G75*
G02*
X155169999Y-87362500I0J175000D01*
G01*
X155169999Y-85937500D01*
G75*
G02*
X155344999Y-85762500I175000J0D01*
G01*
X155694999Y-85762500D01*
G75*
G02*
X155869999Y-85937500I0J-175000D01*
G01*
G37*
G36*
G01*
X154599999Y-85937500D02*
X154599999Y-87362500D01*
G75*
G02*
X154424999Y-87537500I-175000J0D01*
G01*
X154074999Y-87537500D01*
G75*
G02*
X153899999Y-87362500I0J175000D01*
G01*
X153899999Y-85937500D01*
G75*
G02*
X154074999Y-85762500I175000J0D01*
G01*
X154424999Y-85762500D01*
G75*
G02*
X154599999Y-85937500I0J-175000D01*
G01*
G37*
G36*
G01*
X153329999Y-85937500D02*
X153329999Y-87362500D01*
G75*
G02*
X153154999Y-87537500I-175000J0D01*
G01*
X152804999Y-87537500D01*
G75*
G02*
X152629999Y-87362500I0J175000D01*
G01*
X152629999Y-85937500D01*
G75*
G02*
X152804999Y-85762500I175000J0D01*
G01*
X153154999Y-85762500D01*
G75*
G02*
X153329999Y-85937500I0J-175000D01*
G01*
G37*
G36*
G01*
X152059999Y-85937500D02*
X152059999Y-87362500D01*
G75*
G02*
X151884999Y-87537500I-175000J0D01*
G01*
X151534999Y-87537500D01*
G75*
G02*
X151359999Y-87362500I0J175000D01*
G01*
X151359999Y-85937500D01*
G75*
G02*
X151534999Y-85762500I175000J0D01*
G01*
X151884999Y-85762500D01*
G75*
G02*
X152059999Y-85937500I0J-175000D01*
G01*
G37*
G36*
G01*
X150789999Y-85937500D02*
X150789999Y-87362500D01*
G75*
G02*
X150614999Y-87537500I-175000J0D01*
G01*
X150264999Y-87537500D01*
G75*
G02*
X150089999Y-87362500I0J175000D01*
G01*
X150089999Y-85937500D01*
G75*
G02*
X150264999Y-85762500I175000J0D01*
G01*
X150614999Y-85762500D01*
G75*
G02*
X150789999Y-85937500I0J-175000D01*
G01*
G37*
D16*
X139999999Y-94200000D03*
D17*
X139999999Y-91660000D03*
X139999999Y-89120000D03*
X139999999Y-86580000D03*
X139999999Y-84040000D03*
X139999999Y-81500000D03*
D18*
X196999999Y-84750000D03*
G36*
G01*
X162762499Y-80475000D02*
X161837499Y-80475000D01*
G75*
G02*
X161749999Y-80387500I0J87500D01*
G01*
X161749999Y-80212500D01*
G75*
G02*
X161837499Y-80125000I87500J0D01*
G01*
X162762499Y-80125000D01*
G75*
G02*
X162849999Y-80212500I0J-87500D01*
G01*
X162849999Y-80387500D01*
G75*
G02*
X162762499Y-80475000I-87500J0D01*
G01*
G37*
G36*
G01*
X162762499Y-81275000D02*
X161837499Y-81275000D01*
G75*
G02*
X161749999Y-81187500I0J87500D01*
G01*
X161749999Y-81012500D01*
G75*
G02*
X161837499Y-80925000I87500J0D01*
G01*
X162762499Y-80925000D01*
G75*
G02*
X162849999Y-81012500I0J-87500D01*
G01*
X162849999Y-81187500D01*
G75*
G02*
X162762499Y-81275000I-87500J0D01*
G01*
G37*
G36*
G01*
X162762499Y-82075000D02*
X161837499Y-82075000D01*
G75*
G02*
X161749999Y-81987500I0J87500D01*
G01*
X161749999Y-81812500D01*
G75*
G02*
X161837499Y-81725000I87500J0D01*
G01*
X162762499Y-81725000D01*
G75*
G02*
X162849999Y-81812500I0J-87500D01*
G01*
X162849999Y-81987500D01*
G75*
G02*
X162762499Y-82075000I-87500J0D01*
G01*
G37*
G36*
G01*
X163174999Y-83412500D02*
X163174999Y-82487500D01*
G75*
G02*
X163262499Y-82400000I87500J0D01*
G01*
X163437499Y-82400000D01*
G75*
G02*
X163524999Y-82487500I0J-87500D01*
G01*
X163524999Y-83412500D01*
G75*
G02*
X163437499Y-83500000I-87500J0D01*
G01*
X163262499Y-83500000D01*
G75*
G02*
X163174999Y-83412500I0J87500D01*
G01*
G37*
G36*
G01*
X163974999Y-83412500D02*
X163974999Y-82487500D01*
G75*
G02*
X164062499Y-82400000I87500J0D01*
G01*
X164237499Y-82400000D01*
G75*
G02*
X164324999Y-82487500I0J-87500D01*
G01*
X164324999Y-83412500D01*
G75*
G02*
X164237499Y-83500000I-87500J0D01*
G01*
X164062499Y-83500000D01*
G75*
G02*
X163974999Y-83412500I0J87500D01*
G01*
G37*
G36*
G01*
X164774999Y-83412500D02*
X164774999Y-82487500D01*
G75*
G02*
X164862499Y-82400000I87500J0D01*
G01*
X165037499Y-82400000D01*
G75*
G02*
X165124999Y-82487500I0J-87500D01*
G01*
X165124999Y-83412500D01*
G75*
G02*
X165037499Y-83500000I-87500J0D01*
G01*
X164862499Y-83500000D01*
G75*
G02*
X164774999Y-83412500I0J87500D01*
G01*
G37*
G36*
G01*
X166462499Y-82075000D02*
X165537499Y-82075000D01*
G75*
G02*
X165449999Y-81987500I0J87500D01*
G01*
X165449999Y-81812500D01*
G75*
G02*
X165537499Y-81725000I87500J0D01*
G01*
X166462499Y-81725000D01*
G75*
G02*
X166549999Y-81812500I0J-87500D01*
G01*
X166549999Y-81987500D01*
G75*
G02*
X166462499Y-82075000I-87500J0D01*
G01*
G37*
G36*
G01*
X166462499Y-81275000D02*
X165537499Y-81275000D01*
G75*
G02*
X165449999Y-81187500I0J87500D01*
G01*
X165449999Y-81012500D01*
G75*
G02*
X165537499Y-80925000I87500J0D01*
G01*
X166462499Y-80925000D01*
G75*
G02*
X166549999Y-81012500I0J-87500D01*
G01*
X166549999Y-81187500D01*
G75*
G02*
X166462499Y-81275000I-87500J0D01*
G01*
G37*
G36*
G01*
X166462499Y-80475000D02*
X165537499Y-80475000D01*
G75*
G02*
X165449999Y-80387500I0J87500D01*
G01*
X165449999Y-80212500D01*
G75*
G02*
X165537499Y-80125000I87500J0D01*
G01*
X166462499Y-80125000D01*
G75*
G02*
X166549999Y-80212500I0J-87500D01*
G01*
X166549999Y-80387500D01*
G75*
G02*
X166462499Y-80475000I-87500J0D01*
G01*
G37*
G36*
G01*
X164774999Y-79712500D02*
X164774999Y-78787500D01*
G75*
G02*
X164862499Y-78700000I87500J0D01*
G01*
X165037499Y-78700000D01*
G75*
G02*
X165124999Y-78787500I0J-87500D01*
G01*
X165124999Y-79712500D01*
G75*
G02*
X165037499Y-79800000I-87500J0D01*
G01*
X164862499Y-79800000D01*
G75*
G02*
X164774999Y-79712500I0J87500D01*
G01*
G37*
G36*
G01*
X163974999Y-79712500D02*
X163974999Y-78787500D01*
G75*
G02*
X164062499Y-78700000I87500J0D01*
G01*
X164237499Y-78700000D01*
G75*
G02*
X164324999Y-78787500I0J-87500D01*
G01*
X164324999Y-79712500D01*
G75*
G02*
X164237499Y-79800000I-87500J0D01*
G01*
X164062499Y-79800000D01*
G75*
G02*
X163974999Y-79712500I0J87500D01*
G01*
G37*
G36*
G01*
X163174999Y-79712500D02*
X163174999Y-78787500D01*
G75*
G02*
X163262499Y-78700000I87500J0D01*
G01*
X163437499Y-78700000D01*
G75*
G02*
X163524999Y-78787500I0J-87500D01*
G01*
X163524999Y-79712500D01*
G75*
G02*
X163437499Y-79800000I-87500J0D01*
G01*
X163262499Y-79800000D01*
G75*
G02*
X163174999Y-79712500I0J87500D01*
G01*
G37*
D19*
X164149999Y-81100000D03*
G36*
G01*
X168449999Y-79900000D02*
X168449999Y-78600000D01*
G75*
G02*
X168699999Y-78350000I250000J0D01*
G01*
X169349999Y-78350000D01*
G75*
G02*
X169599999Y-78600000I0J-250000D01*
G01*
X169599999Y-79900000D01*
G75*
G02*
X169349999Y-80150000I-250000J0D01*
G01*
X168699999Y-80150000D01*
G75*
G02*
X168449999Y-79900000I0J250000D01*
G01*
G37*
G36*
G01*
X171399999Y-79900000D02*
X171399999Y-78600000D01*
G75*
G02*
X171649999Y-78350000I250000J0D01*
G01*
X172299999Y-78350000D01*
G75*
G02*
X172549999Y-78600000I0J-250000D01*
G01*
X172549999Y-79900000D01*
G75*
G02*
X172299999Y-80150000I-250000J0D01*
G01*
X171649999Y-80150000D01*
G75*
G02*
X171399999Y-79900000I0J250000D01*
G01*
G37*
G36*
G01*
X173949999Y-76500000D02*
X173949999Y-75200000D01*
G75*
G02*
X174199999Y-74950000I250000J0D01*
G01*
X174849999Y-74950000D01*
G75*
G02*
X175099999Y-75200000I0J-250000D01*
G01*
X175099999Y-76500000D01*
G75*
G02*
X174849999Y-76750000I-250000J0D01*
G01*
X174199999Y-76750000D01*
G75*
G02*
X173949999Y-76500000I0J250000D01*
G01*
G37*
G36*
G01*
X176899999Y-76500000D02*
X176899999Y-75200000D01*
G75*
G02*
X177149999Y-74950000I250000J0D01*
G01*
X177799999Y-74950000D01*
G75*
G02*
X178049999Y-75200000I0J-250000D01*
G01*
X178049999Y-76500000D01*
G75*
G02*
X177799999Y-76750000I-250000J0D01*
G01*
X177149999Y-76750000D01*
G75*
G02*
X176899999Y-76500000I0J250000D01*
G01*
G37*
G36*
G01*
X170499999Y-75150000D02*
X170499999Y-76550000D01*
G75*
G02*
X170249999Y-76800000I-250000J0D01*
G01*
X169699999Y-76800000D01*
G75*
G02*
X169449999Y-76550000I0J250000D01*
G01*
X169449999Y-75150000D01*
G75*
G02*
X169699999Y-74900000I250000J0D01*
G01*
X170249999Y-74900000D01*
G75*
G02*
X170499999Y-75150000I0J-250000D01*
G01*
G37*
G36*
G01*
X167349999Y-75150000D02*
X167349999Y-76550000D01*
G75*
G02*
X167099999Y-76800000I-250000J0D01*
G01*
X166549999Y-76800000D01*
G75*
G02*
X166299999Y-76550000I0J250000D01*
G01*
X166299999Y-75150000D01*
G75*
G02*
X166549999Y-74900000I250000J0D01*
G01*
X167099999Y-74900000D01*
G75*
G02*
X167349999Y-75150000I0J-250000D01*
G01*
G37*
G36*
G01*
X115200002Y-90100001D02*
X113800002Y-90100001D01*
G75*
G02*
X113550002Y-89850001I0J250000D01*
G01*
X113550002Y-89300001D01*
G75*
G02*
X113800002Y-89050001I250000J0D01*
G01*
X115200002Y-89050001D01*
G75*
G02*
X115450002Y-89300001I0J-250000D01*
G01*
X115450002Y-89850001D01*
G75*
G02*
X115200002Y-90100001I-250000J0D01*
G01*
G37*
G36*
G01*
X115200002Y-86950001D02*
X113800002Y-86950001D01*
G75*
G02*
X113550002Y-86700001I0J250000D01*
G01*
X113550002Y-86150001D01*
G75*
G02*
X113800002Y-85900001I250000J0D01*
G01*
X115200002Y-85900001D01*
G75*
G02*
X115450002Y-86150001I0J-250000D01*
G01*
X115450002Y-86700001D01*
G75*
G02*
X115200002Y-86950001I-250000J0D01*
G01*
G37*
G36*
G01*
X115200002Y-76900001D02*
X115200002Y-75600001D01*
G75*
G02*
X115450002Y-75350001I250000J0D01*
G01*
X116100002Y-75350001D01*
G75*
G02*
X116350002Y-75600001I0J-250000D01*
G01*
X116350002Y-76900001D01*
G75*
G02*
X116100002Y-77150001I-250000J0D01*
G01*
X115450002Y-77150001D01*
G75*
G02*
X115200002Y-76900001I0J250000D01*
G01*
G37*
G36*
G01*
X118150002Y-76900001D02*
X118150002Y-75600001D01*
G75*
G02*
X118400002Y-75350001I250000J0D01*
G01*
X119050002Y-75350001D01*
G75*
G02*
X119300002Y-75600001I0J-250000D01*
G01*
X119300002Y-76900001D01*
G75*
G02*
X119050002Y-77150001I-250000J0D01*
G01*
X118400002Y-77150001D01*
G75*
G02*
X118150002Y-76900001I0J250000D01*
G01*
G37*
G36*
G01*
X158299999Y-78700000D02*
X156999999Y-78700000D01*
G75*
G02*
X156749999Y-78450000I0J250000D01*
G01*
X156749999Y-77800000D01*
G75*
G02*
X156999999Y-77550000I250000J0D01*
G01*
X158299999Y-77550000D01*
G75*
G02*
X158549999Y-77800000I0J-250000D01*
G01*
X158549999Y-78450000D01*
G75*
G02*
X158299999Y-78700000I-250000J0D01*
G01*
G37*
G36*
G01*
X158299999Y-75750000D02*
X156999999Y-75750000D01*
G75*
G02*
X156749999Y-75500000I0J250000D01*
G01*
X156749999Y-74850000D01*
G75*
G02*
X156999999Y-74600000I250000J0D01*
G01*
X158299999Y-74600000D01*
G75*
G02*
X158549999Y-74850000I0J-250000D01*
G01*
X158549999Y-75500000D01*
G75*
G02*
X158299999Y-75750000I-250000J0D01*
G01*
G37*
D20*
X129830002Y-80075001D03*
X127290002Y-80075001D03*
X122210002Y-80075001D03*
X119670002Y-80075001D03*
X122210002Y-90275001D03*
X129830002Y-90275001D03*
D21*
X133000000Y-86262000D03*
X136000000Y-86262000D03*
X136000000Y-85512000D03*
X133000000Y-85500000D03*
X133000000Y-84750000D03*
X136000000Y-84750000D03*
X133000000Y-84000000D03*
X136000000Y-84000000D03*
X133000000Y-83226000D03*
X136000000Y-83226000D03*
D16*
X142539999Y-76420000D03*
D17*
X139999999Y-76420000D03*
D16*
X188919999Y-94000000D03*
D17*
X191459999Y-94000000D03*
G36*
G01*
X132050002Y-93350001D02*
X132050002Y-94650001D01*
G75*
G02*
X131800002Y-94900001I-250000J0D01*
G01*
X131150002Y-94900001D01*
G75*
G02*
X130900002Y-94650001I0J250000D01*
G01*
X130900002Y-93350001D01*
G75*
G02*
X131150002Y-93100001I250000J0D01*
G01*
X131800002Y-93100001D01*
G75*
G02*
X132050002Y-93350001I0J-250000D01*
G01*
G37*
G36*
G01*
X129100002Y-93350001D02*
X129100002Y-94650001D01*
G75*
G02*
X128850002Y-94900001I-250000J0D01*
G01*
X128200002Y-94900001D01*
G75*
G02*
X127950002Y-94650001I0J250000D01*
G01*
X127950002Y-93350001D01*
G75*
G02*
X128200002Y-93100001I250000J0D01*
G01*
X128850002Y-93100001D01*
G75*
G02*
X129100002Y-93350001I0J-250000D01*
G01*
G37*
G36*
G01*
X190612499Y-86300000D02*
X190612499Y-86600000D01*
G75*
G02*
X190462499Y-86750000I-150000J0D01*
G01*
X189287499Y-86750000D01*
G75*
G02*
X189137499Y-86600000I0J150000D01*
G01*
X189137499Y-86300000D01*
G75*
G02*
X189287499Y-86150000I150000J0D01*
G01*
X190462499Y-86150000D01*
G75*
G02*
X190612499Y-86300000I0J-150000D01*
G01*
G37*
G36*
G01*
X190612499Y-84400000D02*
X190612499Y-84700000D01*
G75*
G02*
X190462499Y-84850000I-150000J0D01*
G01*
X189287499Y-84850000D01*
G75*
G02*
X189137499Y-84700000I0J150000D01*
G01*
X189137499Y-84400000D01*
G75*
G02*
X189287499Y-84250000I150000J0D01*
G01*
X190462499Y-84250000D01*
G75*
G02*
X190612499Y-84400000I0J-150000D01*
G01*
G37*
G36*
G01*
X188737499Y-85350000D02*
X188737499Y-85650000D01*
G75*
G02*
X188587499Y-85800000I-150000J0D01*
G01*
X187412499Y-85800000D01*
G75*
G02*
X187262499Y-85650000I0J150000D01*
G01*
X187262499Y-85350000D01*
G75*
G02*
X187412499Y-85200000I150000J0D01*
G01*
X188587499Y-85200000D01*
G75*
G02*
X188737499Y-85350000I0J-150000D01*
G01*
G37*
G36*
G01*
X168699999Y-91150000D02*
X168699999Y-89850000D01*
G75*
G02*
X168949999Y-89600000I250000J0D01*
G01*
X169599999Y-89600000D01*
G75*
G02*
X169849999Y-89850000I0J-250000D01*
G01*
X169849999Y-91150000D01*
G75*
G02*
X169599999Y-91400000I-250000J0D01*
G01*
X168949999Y-91400000D01*
G75*
G02*
X168699999Y-91150000I0J250000D01*
G01*
G37*
G36*
G01*
X171649999Y-91150000D02*
X171649999Y-89850000D01*
G75*
G02*
X171899999Y-89600000I250000J0D01*
G01*
X172549999Y-89600000D01*
G75*
G02*
X172799999Y-89850000I0J-250000D01*
G01*
X172799999Y-91150000D01*
G75*
G02*
X172549999Y-91400000I-250000J0D01*
G01*
X171899999Y-91400000D01*
G75*
G02*
X171649999Y-91150000I0J250000D01*
G01*
G37*
G36*
G01*
X143324999Y-89206250D02*
X143324999Y-88293750D01*
G75*
G02*
X143568749Y-88050000I243750J0D01*
G01*
X144056249Y-88050000D01*
G75*
G02*
X144299999Y-88293750I0J-243750D01*
G01*
X144299999Y-89206250D01*
G75*
G02*
X144056249Y-89450000I-243750J0D01*
G01*
X143568749Y-89450000D01*
G75*
G02*
X143324999Y-89206250I0J243750D01*
G01*
G37*
G36*
G01*
X145199999Y-89206250D02*
X145199999Y-88293750D01*
G75*
G02*
X145443749Y-88050000I243750J0D01*
G01*
X145931249Y-88050000D01*
G75*
G02*
X146174999Y-88293750I0J-243750D01*
G01*
X146174999Y-89206250D01*
G75*
G02*
X145931249Y-89450000I-243750J0D01*
G01*
X145443749Y-89450000D01*
G75*
G02*
X145199999Y-89206250I0J243750D01*
G01*
G37*
G36*
G01*
X161649999Y-87500000D02*
X161649999Y-86200000D01*
G75*
G02*
X161899999Y-85950000I250000J0D01*
G01*
X162549999Y-85950000D01*
G75*
G02*
X162799999Y-86200000I0J-250000D01*
G01*
X162799999Y-87500000D01*
G75*
G02*
X162549999Y-87750000I-250000J0D01*
G01*
X161899999Y-87750000D01*
G75*
G02*
X161649999Y-87500000I0J250000D01*
G01*
G37*
G36*
G01*
X164599999Y-87500000D02*
X164599999Y-86200000D01*
G75*
G02*
X164849999Y-85950000I250000J0D01*
G01*
X165499999Y-85950000D01*
G75*
G02*
X165749999Y-86200000I0J-250000D01*
G01*
X165749999Y-87500000D01*
G75*
G02*
X165499999Y-87750000I-250000J0D01*
G01*
X164849999Y-87750000D01*
G75*
G02*
X164599999Y-87500000I0J250000D01*
G01*
G37*
G36*
G01*
X147899999Y-94550000D02*
X146599999Y-94550000D01*
G75*
G02*
X146349999Y-94300000I0J250000D01*
G01*
X146349999Y-93650000D01*
G75*
G02*
X146599999Y-93400000I250000J0D01*
G01*
X147899999Y-93400000D01*
G75*
G02*
X148149999Y-93650000I0J-250000D01*
G01*
X148149999Y-94300000D01*
G75*
G02*
X147899999Y-94550000I-250000J0D01*
G01*
G37*
G36*
G01*
X147899999Y-91600000D02*
X146599999Y-91600000D01*
G75*
G02*
X146349999Y-91350000I0J250000D01*
G01*
X146349999Y-90700000D01*
G75*
G02*
X146599999Y-90450000I250000J0D01*
G01*
X147899999Y-90450000D01*
G75*
G02*
X148149999Y-90700000I0J-250000D01*
G01*
X148149999Y-91350000D01*
G75*
G02*
X147899999Y-91600000I-250000J0D01*
G01*
G37*
G36*
G01*
X115700002Y-94650001D02*
X115700002Y-93350001D01*
G75*
G02*
X115950002Y-93100001I250000J0D01*
G01*
X116600002Y-93100001D01*
G75*
G02*
X116850002Y-93350001I0J-250000D01*
G01*
X116850002Y-94650001D01*
G75*
G02*
X116600002Y-94900001I-250000J0D01*
G01*
X115950002Y-94900001D01*
G75*
G02*
X115700002Y-94650001I0J250000D01*
G01*
G37*
G36*
G01*
X118650002Y-94650001D02*
X118650002Y-93350001D01*
G75*
G02*
X118900002Y-93100001I250000J0D01*
G01*
X119550002Y-93100001D01*
G75*
G02*
X119800002Y-93350001I0J-250000D01*
G01*
X119800002Y-94650001D01*
G75*
G02*
X119550002Y-94900001I-250000J0D01*
G01*
X118900002Y-94900001D01*
G75*
G02*
X118650002Y-94650001I0J250000D01*
G01*
G37*
G36*
G01*
X152049999Y-75800000D02*
X151149999Y-75800000D01*
G75*
G02*
X150999999Y-75650000I0J150000D01*
G01*
X150999999Y-75350000D01*
G75*
G02*
X151149999Y-75200000I150000J0D01*
G01*
X152049999Y-75200000D01*
G75*
G02*
X152199999Y-75350000I0J-150000D01*
G01*
X152199999Y-75650000D01*
G75*
G02*
X152049999Y-75800000I-150000J0D01*
G01*
G37*
G36*
G01*
X152049999Y-76750000D02*
X151149999Y-76750000D01*
G75*
G02*
X150999999Y-76600000I0J150000D01*
G01*
X150999999Y-76300000D01*
G75*
G02*
X151149999Y-76150000I150000J0D01*
G01*
X152049999Y-76150000D01*
G75*
G02*
X152199999Y-76300000I0J-150000D01*
G01*
X152199999Y-76600000D01*
G75*
G02*
X152049999Y-76750000I-150000J0D01*
G01*
G37*
G36*
G01*
X152049999Y-77700000D02*
X151149999Y-77700000D01*
G75*
G02*
X150999999Y-77550000I0J150000D01*
G01*
X150999999Y-77250000D01*
G75*
G02*
X151149999Y-77100000I150000J0D01*
G01*
X152049999Y-77100000D01*
G75*
G02*
X152199999Y-77250000I0J-150000D01*
G01*
X152199999Y-77550000D01*
G75*
G02*
X152049999Y-77700000I-150000J0D01*
G01*
G37*
G36*
G01*
X154549999Y-77700000D02*
X153649999Y-77700000D01*
G75*
G02*
X153499999Y-77550000I0J150000D01*
G01*
X153499999Y-77250000D01*
G75*
G02*
X153649999Y-77100000I150000J0D01*
G01*
X154549999Y-77100000D01*
G75*
G02*
X154699999Y-77250000I0J-150000D01*
G01*
X154699999Y-77550000D01*
G75*
G02*
X154549999Y-77700000I-150000J0D01*
G01*
G37*
G36*
G01*
X154549999Y-76750000D02*
X153649999Y-76750000D01*
G75*
G02*
X153499999Y-76600000I0J150000D01*
G01*
X153499999Y-76300000D01*
G75*
G02*
X153649999Y-76150000I150000J0D01*
G01*
X154549999Y-76150000D01*
G75*
G02*
X154699999Y-76300000I0J-150000D01*
G01*
X154699999Y-76600000D01*
G75*
G02*
X154549999Y-76750000I-150000J0D01*
G01*
G37*
G36*
G01*
X154549999Y-75800000D02*
X153649999Y-75800000D01*
G75*
G02*
X153499999Y-75650000I0J150000D01*
G01*
X153499999Y-75350000D01*
G75*
G02*
X153649999Y-75200000I150000J0D01*
G01*
X154549999Y-75200000D01*
G75*
G02*
X154699999Y-75350000I0J-150000D01*
G01*
X154699999Y-75650000D01*
G75*
G02*
X154549999Y-75800000I-150000J0D01*
G01*
G37*
G36*
G01*
X181449999Y-78650000D02*
X181449999Y-77350000D01*
G75*
G02*
X181699999Y-77100000I250000J0D01*
G01*
X182349999Y-77100000D01*
G75*
G02*
X182599999Y-77350000I0J-250000D01*
G01*
X182599999Y-78650000D01*
G75*
G02*
X182349999Y-78900000I-250000J0D01*
G01*
X181699999Y-78900000D01*
G75*
G02*
X181449999Y-78650000I0J250000D01*
G01*
G37*
G36*
G01*
X184399999Y-78650000D02*
X184399999Y-77350000D01*
G75*
G02*
X184649999Y-77100000I250000J0D01*
G01*
X185299999Y-77100000D01*
G75*
G02*
X185549999Y-77350000I0J-250000D01*
G01*
X185549999Y-78650000D01*
G75*
G02*
X185299999Y-78900000I-250000J0D01*
G01*
X184649999Y-78900000D01*
G75*
G02*
X184399999Y-78650000I0J250000D01*
G01*
G37*
D16*
X193999999Y-76000000D03*
D17*
X191459999Y-76000000D03*
X188919999Y-76000000D03*
G36*
G01*
X142724999Y-87125000D02*
X142724999Y-85875000D01*
G75*
G02*
X142974999Y-85625000I250000J0D01*
G01*
X143599999Y-85625000D01*
G75*
G02*
X143849999Y-85875000I0J-250000D01*
G01*
X143849999Y-87125000D01*
G75*
G02*
X143599999Y-87375000I-250000J0D01*
G01*
X142974999Y-87375000D01*
G75*
G02*
X142724999Y-87125000I0J250000D01*
G01*
G37*
G36*
G01*
X145649999Y-87125000D02*
X145649999Y-85875000D01*
G75*
G02*
X145899999Y-85625000I250000J0D01*
G01*
X146524999Y-85625000D01*
G75*
G02*
X146774999Y-85875000I0J-250000D01*
G01*
X146774999Y-87125000D01*
G75*
G02*
X146524999Y-87375000I-250000J0D01*
G01*
X145899999Y-87375000D01*
G75*
G02*
X145649999Y-87125000I0J250000D01*
G01*
G37*
D22*
X198100999Y-84750000D03*
D23*
X196525999Y-89000000D03*
X196525999Y-80500000D03*
G36*
G01*
X168449999Y-83400000D02*
X168449999Y-82100000D01*
G75*
G02*
X168699999Y-81850000I250000J0D01*
G01*
X169349999Y-81850000D01*
G75*
G02*
X169599999Y-82100000I0J-250000D01*
G01*
X169599999Y-83400000D01*
G75*
G02*
X169349999Y-83650000I-250000J0D01*
G01*
X168699999Y-83650000D01*
G75*
G02*
X168449999Y-83400000I0J250000D01*
G01*
G37*
G36*
G01*
X171399999Y-83400000D02*
X171399999Y-82100000D01*
G75*
G02*
X171649999Y-81850000I250000J0D01*
G01*
X172299999Y-81850000D01*
G75*
G02*
X172549999Y-82100000I0J-250000D01*
G01*
X172549999Y-83400000D01*
G75*
G02*
X172299999Y-83650000I-250000J0D01*
G01*
X171649999Y-83650000D01*
G75*
G02*
X171399999Y-83400000I0J250000D01*
G01*
G37*
G36*
G01*
X178387999Y-82170000D02*
X177187999Y-82170000D01*
G75*
G02*
X177025499Y-82007500I0J162500D01*
G01*
X177025499Y-81682500D01*
G75*
G02*
X177187999Y-81520000I162500J0D01*
G01*
X178387999Y-81520000D01*
G75*
G02*
X178550499Y-81682500I0J-162500D01*
G01*
X178550499Y-82007500D01*
G75*
G02*
X178387999Y-82170000I-162500J0D01*
G01*
G37*
G36*
G01*
X178387999Y-83440000D02*
X177187999Y-83440000D01*
G75*
G02*
X177025499Y-83277500I0J162500D01*
G01*
X177025499Y-82952500D01*
G75*
G02*
X177187999Y-82790000I162500J0D01*
G01*
X178387999Y-82790000D01*
G75*
G02*
X178550499Y-82952500I0J-162500D01*
G01*
X178550499Y-83277500D01*
G75*
G02*
X178387999Y-83440000I-162500J0D01*
G01*
G37*
G36*
G01*
X178387999Y-84710000D02*
X177187999Y-84710000D01*
G75*
G02*
X177025499Y-84547500I0J162500D01*
G01*
X177025499Y-84222500D01*
G75*
G02*
X177187999Y-84060000I162500J0D01*
G01*
X178387999Y-84060000D01*
G75*
G02*
X178550499Y-84222500I0J-162500D01*
G01*
X178550499Y-84547500D01*
G75*
G02*
X178387999Y-84710000I-162500J0D01*
G01*
G37*
G36*
G01*
X178387999Y-85980000D02*
X177187999Y-85980000D01*
G75*
G02*
X177025499Y-85817500I0J162500D01*
G01*
X177025499Y-85492500D01*
G75*
G02*
X177187999Y-85330000I162500J0D01*
G01*
X178387999Y-85330000D01*
G75*
G02*
X178550499Y-85492500I0J-162500D01*
G01*
X178550499Y-85817500D01*
G75*
G02*
X178387999Y-85980000I-162500J0D01*
G01*
G37*
G36*
G01*
X183811999Y-85980000D02*
X182611999Y-85980000D01*
G75*
G02*
X182449499Y-85817500I0J162500D01*
G01*
X182449499Y-85492500D01*
G75*
G02*
X182611999Y-85330000I162500J0D01*
G01*
X183811999Y-85330000D01*
G75*
G02*
X183974499Y-85492500I0J-162500D01*
G01*
X183974499Y-85817500D01*
G75*
G02*
X183811999Y-85980000I-162500J0D01*
G01*
G37*
G36*
G01*
X183811999Y-84710000D02*
X182611999Y-84710000D01*
G75*
G02*
X182449499Y-84547500I0J162500D01*
G01*
X182449499Y-84222500D01*
G75*
G02*
X182611999Y-84060000I162500J0D01*
G01*
X183811999Y-84060000D01*
G75*
G02*
X183974499Y-84222500I0J-162500D01*
G01*
X183974499Y-84547500D01*
G75*
G02*
X183811999Y-84710000I-162500J0D01*
G01*
G37*
G36*
G01*
X183811999Y-83440000D02*
X182611999Y-83440000D01*
G75*
G02*
X182449499Y-83277500I0J162500D01*
G01*
X182449499Y-82952500D01*
G75*
G02*
X182611999Y-82790000I162500J0D01*
G01*
X183811999Y-82790000D01*
G75*
G02*
X183974499Y-82952500I0J-162500D01*
G01*
X183974499Y-83277500D01*
G75*
G02*
X183811999Y-83440000I-162500J0D01*
G01*
G37*
G36*
G01*
X183811999Y-82170000D02*
X182611999Y-82170000D01*
G75*
G02*
X182449499Y-82007500I0J162500D01*
G01*
X182449499Y-81682500D01*
G75*
G02*
X182611999Y-81520000I162500J0D01*
G01*
X183811999Y-81520000D01*
G75*
G02*
X183974499Y-81682500I0J-162500D01*
G01*
X183974499Y-82007500D01*
G75*
G02*
X183811999Y-82170000I-162500J0D01*
G01*
G37*
G36*
G01*
X190612499Y-89700000D02*
X190612499Y-90000000D01*
G75*
G02*
X190462499Y-90150000I-150000J0D01*
G01*
X189287499Y-90150000D01*
G75*
G02*
X189137499Y-90000000I0J150000D01*
G01*
X189137499Y-89700000D01*
G75*
G02*
X189287499Y-89550000I150000J0D01*
G01*
X190462499Y-89550000D01*
G75*
G02*
X190612499Y-89700000I0J-150000D01*
G01*
G37*
G36*
G01*
X190612499Y-87800000D02*
X190612499Y-88100000D01*
G75*
G02*
X190462499Y-88250000I-150000J0D01*
G01*
X189287499Y-88250000D01*
G75*
G02*
X189137499Y-88100000I0J150000D01*
G01*
X189137499Y-87800000D01*
G75*
G02*
X189287499Y-87650000I150000J0D01*
G01*
X190462499Y-87650000D01*
G75*
G02*
X190612499Y-87800000I0J-150000D01*
G01*
G37*
G36*
G01*
X188737499Y-88750000D02*
X188737499Y-89050000D01*
G75*
G02*
X188587499Y-89200000I-150000J0D01*
G01*
X187412499Y-89200000D01*
G75*
G02*
X187262499Y-89050000I0J150000D01*
G01*
X187262499Y-88750000D01*
G75*
G02*
X187412499Y-88600000I150000J0D01*
G01*
X188587499Y-88600000D01*
G75*
G02*
X188737499Y-88750000I0J-150000D01*
G01*
G37*
G36*
G01*
X170549999Y-86150000D02*
X170549999Y-87550000D01*
G75*
G02*
X170299999Y-87800000I-250000J0D01*
G01*
X169749999Y-87800000D01*
G75*
G02*
X169499999Y-87550000I0J250000D01*
G01*
X169499999Y-86150000D01*
G75*
G02*
X169749999Y-85900000I250000J0D01*
G01*
X170299999Y-85900000D01*
G75*
G02*
X170549999Y-86150000I0J-250000D01*
G01*
G37*
G36*
G01*
X167399999Y-86150000D02*
X167399999Y-87550000D01*
G75*
G02*
X167149999Y-87800000I-250000J0D01*
G01*
X166599999Y-87800000D01*
G75*
G02*
X166349999Y-87550000I0J250000D01*
G01*
X166349999Y-86150000D01*
G75*
G02*
X166599999Y-85900000I250000J0D01*
G01*
X167149999Y-85900000D01*
G75*
G02*
X167399999Y-86150000I0J-250000D01*
G01*
G37*
G36*
G01*
X181449999Y-76400000D02*
X181449999Y-75100000D01*
G75*
G02*
X181699999Y-74850000I250000J0D01*
G01*
X182349999Y-74850000D01*
G75*
G02*
X182599999Y-75100000I0J-250000D01*
G01*
X182599999Y-76400000D01*
G75*
G02*
X182349999Y-76650000I-250000J0D01*
G01*
X181699999Y-76650000D01*
G75*
G02*
X181449999Y-76400000I0J250000D01*
G01*
G37*
G36*
G01*
X184399999Y-76400000D02*
X184399999Y-75100000D01*
G75*
G02*
X184649999Y-74850000I250000J0D01*
G01*
X185299999Y-74850000D01*
G75*
G02*
X185549999Y-75100000I0J-250000D01*
G01*
X185549999Y-76400000D01*
G75*
G02*
X185299999Y-76650000I-250000J0D01*
G01*
X184649999Y-76650000D01*
G75*
G02*
X184399999Y-76400000I0J250000D01*
G01*
G37*
G36*
G01*
X173949999Y-78900000D02*
X173949999Y-77600000D01*
G75*
G02*
X174199999Y-77350000I250000J0D01*
G01*
X174849999Y-77350000D01*
G75*
G02*
X175099999Y-77600000I0J-250000D01*
G01*
X175099999Y-78900000D01*
G75*
G02*
X174849999Y-79150000I-250000J0D01*
G01*
X174199999Y-79150000D01*
G75*
G02*
X173949999Y-78900000I0J250000D01*
G01*
G37*
G36*
G01*
X176899999Y-78900000D02*
X176899999Y-77600000D01*
G75*
G02*
X177149999Y-77350000I250000J0D01*
G01*
X177799999Y-77350000D01*
G75*
G02*
X178049999Y-77600000I0J-250000D01*
G01*
X178049999Y-78900000D01*
G75*
G02*
X177799999Y-79150000I-250000J0D01*
G01*
X177149999Y-79150000D01*
G75*
G02*
X176899999Y-78900000I0J250000D01*
G01*
G37*
G36*
G01*
X161599999Y-76500000D02*
X161599999Y-75200000D01*
G75*
G02*
X161849999Y-74950000I250000J0D01*
G01*
X162499999Y-74950000D01*
G75*
G02*
X162749999Y-75200000I0J-250000D01*
G01*
X162749999Y-76500000D01*
G75*
G02*
X162499999Y-76750000I-250000J0D01*
G01*
X161849999Y-76750000D01*
G75*
G02*
X161599999Y-76500000I0J250000D01*
G01*
G37*
G36*
G01*
X164549999Y-76500000D02*
X164549999Y-75200000D01*
G75*
G02*
X164799999Y-74950000I250000J0D01*
G01*
X165449999Y-74950000D01*
G75*
G02*
X165699999Y-75200000I0J-250000D01*
G01*
X165699999Y-76500000D01*
G75*
G02*
X165449999Y-76750000I-250000J0D01*
G01*
X164799999Y-76750000D01*
G75*
G02*
X164549999Y-76500000I0J250000D01*
G01*
G37*
G36*
G01*
X142724999Y-83125000D02*
X142724999Y-81875000D01*
G75*
G02*
X142974999Y-81625000I250000J0D01*
G01*
X143599999Y-81625000D01*
G75*
G02*
X143849999Y-81875000I0J-250000D01*
G01*
X143849999Y-83125000D01*
G75*
G02*
X143599999Y-83375000I-250000J0D01*
G01*
X142974999Y-83375000D01*
G75*
G02*
X142724999Y-83125000I0J250000D01*
G01*
G37*
G36*
G01*
X145649999Y-83125000D02*
X145649999Y-81875000D01*
G75*
G02*
X145899999Y-81625000I250000J0D01*
G01*
X146524999Y-81625000D01*
G75*
G02*
X146774999Y-81875000I0J-250000D01*
G01*
X146774999Y-83125000D01*
G75*
G02*
X146524999Y-83375000I-250000J0D01*
G01*
X145899999Y-83375000D01*
G75*
G02*
X145649999Y-83125000I0J250000D01*
G01*
G37*
G36*
G01*
X113850002Y-80450001D02*
X115150002Y-80450001D01*
G75*
G02*
X115400002Y-80700001I0J-250000D01*
G01*
X115400002Y-81350001D01*
G75*
G02*
X115150002Y-81600001I-250000J0D01*
G01*
X113850002Y-81600001D01*
G75*
G02*
X113600002Y-81350001I0J250000D01*
G01*
X113600002Y-80700001D01*
G75*
G02*
X113850002Y-80450001I250000J0D01*
G01*
G37*
G36*
G01*
X113850002Y-83400001D02*
X115150002Y-83400001D01*
G75*
G02*
X115400002Y-83650001I0J-250000D01*
G01*
X115400002Y-84300001D01*
G75*
G02*
X115150002Y-84550001I-250000J0D01*
G01*
X113850002Y-84550001D01*
G75*
G02*
X113600002Y-84300001I0J250000D01*
G01*
X113600002Y-83650001D01*
G75*
G02*
X113850002Y-83400001I250000J0D01*
G01*
G37*
G36*
G01*
X162762499Y-90975000D02*
X161837499Y-90975000D01*
G75*
G02*
X161749999Y-90887500I0J87500D01*
G01*
X161749999Y-90712500D01*
G75*
G02*
X161837499Y-90625000I87500J0D01*
G01*
X162762499Y-90625000D01*
G75*
G02*
X162849999Y-90712500I0J-87500D01*
G01*
X162849999Y-90887500D01*
G75*
G02*
X162762499Y-90975000I-87500J0D01*
G01*
G37*
G36*
G01*
X162762499Y-91775000D02*
X161837499Y-91775000D01*
G75*
G02*
X161749999Y-91687500I0J87500D01*
G01*
X161749999Y-91512500D01*
G75*
G02*
X161837499Y-91425000I87500J0D01*
G01*
X162762499Y-91425000D01*
G75*
G02*
X162849999Y-91512500I0J-87500D01*
G01*
X162849999Y-91687500D01*
G75*
G02*
X162762499Y-91775000I-87500J0D01*
G01*
G37*
G36*
G01*
X162762499Y-92575000D02*
X161837499Y-92575000D01*
G75*
G02*
X161749999Y-92487500I0J87500D01*
G01*
X161749999Y-92312500D01*
G75*
G02*
X161837499Y-92225000I87500J0D01*
G01*
X162762499Y-92225000D01*
G75*
G02*
X162849999Y-92312500I0J-87500D01*
G01*
X162849999Y-92487500D01*
G75*
G02*
X162762499Y-92575000I-87500J0D01*
G01*
G37*
G36*
G01*
X163174999Y-93912500D02*
X163174999Y-92987500D01*
G75*
G02*
X163262499Y-92900000I87500J0D01*
G01*
X163437499Y-92900000D01*
G75*
G02*
X163524999Y-92987500I0J-87500D01*
G01*
X163524999Y-93912500D01*
G75*
G02*
X163437499Y-94000000I-87500J0D01*
G01*
X163262499Y-94000000D01*
G75*
G02*
X163174999Y-93912500I0J87500D01*
G01*
G37*
G36*
G01*
X163974999Y-93912500D02*
X163974999Y-92987500D01*
G75*
G02*
X164062499Y-92900000I87500J0D01*
G01*
X164237499Y-92900000D01*
G75*
G02*
X164324999Y-92987500I0J-87500D01*
G01*
X164324999Y-93912500D01*
G75*
G02*
X164237499Y-94000000I-87500J0D01*
G01*
X164062499Y-94000000D01*
G75*
G02*
X163974999Y-93912500I0J87500D01*
G01*
G37*
G36*
G01*
X164774999Y-93912500D02*
X164774999Y-92987500D01*
G75*
G02*
X164862499Y-92900000I87500J0D01*
G01*
X165037499Y-92900000D01*
G75*
G02*
X165124999Y-92987500I0J-87500D01*
G01*
X165124999Y-93912500D01*
G75*
G02*
X165037499Y-94000000I-87500J0D01*
G01*
X164862499Y-94000000D01*
G75*
G02*
X164774999Y-93912500I0J87500D01*
G01*
G37*
G36*
G01*
X166462499Y-92575000D02*
X165537499Y-92575000D01*
G75*
G02*
X165449999Y-92487500I0J87500D01*
G01*
X165449999Y-92312500D01*
G75*
G02*
X165537499Y-92225000I87500J0D01*
G01*
X166462499Y-92225000D01*
G75*
G02*
X166549999Y-92312500I0J-87500D01*
G01*
X166549999Y-92487500D01*
G75*
G02*
X166462499Y-92575000I-87500J0D01*
G01*
G37*
G36*
G01*
X166462499Y-91775000D02*
X165537499Y-91775000D01*
G75*
G02*
X165449999Y-91687500I0J87500D01*
G01*
X165449999Y-91512500D01*
G75*
G02*
X165537499Y-91425000I87500J0D01*
G01*
X166462499Y-91425000D01*
G75*
G02*
X166549999Y-91512500I0J-87500D01*
G01*
X166549999Y-91687500D01*
G75*
G02*
X166462499Y-91775000I-87500J0D01*
G01*
G37*
G36*
G01*
X166462499Y-90975000D02*
X165537499Y-90975000D01*
G75*
G02*
X165449999Y-90887500I0J87500D01*
G01*
X165449999Y-90712500D01*
G75*
G02*
X165537499Y-90625000I87500J0D01*
G01*
X166462499Y-90625000D01*
G75*
G02*
X166549999Y-90712500I0J-87500D01*
G01*
X166549999Y-90887500D01*
G75*
G02*
X166462499Y-90975000I-87500J0D01*
G01*
G37*
G36*
G01*
X164774999Y-90212500D02*
X164774999Y-89287500D01*
G75*
G02*
X164862499Y-89200000I87500J0D01*
G01*
X165037499Y-89200000D01*
G75*
G02*
X165124999Y-89287500I0J-87500D01*
G01*
X165124999Y-90212500D01*
G75*
G02*
X165037499Y-90300000I-87500J0D01*
G01*
X164862499Y-90300000D01*
G75*
G02*
X164774999Y-90212500I0J87500D01*
G01*
G37*
G36*
G01*
X163974999Y-90212500D02*
X163974999Y-89287500D01*
G75*
G02*
X164062499Y-89200000I87500J0D01*
G01*
X164237499Y-89200000D01*
G75*
G02*
X164324999Y-89287500I0J-87500D01*
G01*
X164324999Y-90212500D01*
G75*
G02*
X164237499Y-90300000I-87500J0D01*
G01*
X164062499Y-90300000D01*
G75*
G02*
X163974999Y-90212500I0J87500D01*
G01*
G37*
G36*
G01*
X163174999Y-90212500D02*
X163174999Y-89287500D01*
G75*
G02*
X163262499Y-89200000I87500J0D01*
G01*
X163437499Y-89200000D01*
G75*
G02*
X163524999Y-89287500I0J-87500D01*
G01*
X163524999Y-90212500D01*
G75*
G02*
X163437499Y-90300000I-87500J0D01*
G01*
X163262499Y-90300000D01*
G75*
G02*
X163174999Y-90212500I0J87500D01*
G01*
G37*
D19*
X164149999Y-91600000D03*
G36*
G01*
X178387999Y-88920000D02*
X177187999Y-88920000D01*
G75*
G02*
X177025499Y-88757500I0J162500D01*
G01*
X177025499Y-88432500D01*
G75*
G02*
X177187999Y-88270000I162500J0D01*
G01*
X178387999Y-88270000D01*
G75*
G02*
X178550499Y-88432500I0J-162500D01*
G01*
X178550499Y-88757500D01*
G75*
G02*
X178387999Y-88920000I-162500J0D01*
G01*
G37*
G36*
G01*
X178387999Y-90190000D02*
X177187999Y-90190000D01*
G75*
G02*
X177025499Y-90027500I0J162500D01*
G01*
X177025499Y-89702500D01*
G75*
G02*
X177187999Y-89540000I162500J0D01*
G01*
X178387999Y-89540000D01*
G75*
G02*
X178550499Y-89702500I0J-162500D01*
G01*
X178550499Y-90027500D01*
G75*
G02*
X178387999Y-90190000I-162500J0D01*
G01*
G37*
G36*
G01*
X178387999Y-91460000D02*
X177187999Y-91460000D01*
G75*
G02*
X177025499Y-91297500I0J162500D01*
G01*
X177025499Y-90972500D01*
G75*
G02*
X177187999Y-90810000I162500J0D01*
G01*
X178387999Y-90810000D01*
G75*
G02*
X178550499Y-90972500I0J-162500D01*
G01*
X178550499Y-91297500D01*
G75*
G02*
X178387999Y-91460000I-162500J0D01*
G01*
G37*
G36*
G01*
X178387999Y-92730000D02*
X177187999Y-92730000D01*
G75*
G02*
X177025499Y-92567500I0J162500D01*
G01*
X177025499Y-92242500D01*
G75*
G02*
X177187999Y-92080000I162500J0D01*
G01*
X178387999Y-92080000D01*
G75*
G02*
X178550499Y-92242500I0J-162500D01*
G01*
X178550499Y-92567500D01*
G75*
G02*
X178387999Y-92730000I-162500J0D01*
G01*
G37*
G36*
G01*
X183811999Y-92730000D02*
X182611999Y-92730000D01*
G75*
G02*
X182449499Y-92567500I0J162500D01*
G01*
X182449499Y-92242500D01*
G75*
G02*
X182611999Y-92080000I162500J0D01*
G01*
X183811999Y-92080000D01*
G75*
G02*
X183974499Y-92242500I0J-162500D01*
G01*
X183974499Y-92567500D01*
G75*
G02*
X183811999Y-92730000I-162500J0D01*
G01*
G37*
G36*
G01*
X183811999Y-91460000D02*
X182611999Y-91460000D01*
G75*
G02*
X182449499Y-91297500I0J162500D01*
G01*
X182449499Y-90972500D01*
G75*
G02*
X182611999Y-90810000I162500J0D01*
G01*
X183811999Y-90810000D01*
G75*
G02*
X183974499Y-90972500I0J-162500D01*
G01*
X183974499Y-91297500D01*
G75*
G02*
X183811999Y-91460000I-162500J0D01*
G01*
G37*
G36*
G01*
X183811999Y-90190000D02*
X182611999Y-90190000D01*
G75*
G02*
X182449499Y-90027500I0J162500D01*
G01*
X182449499Y-89702500D01*
G75*
G02*
X182611999Y-89540000I162500J0D01*
G01*
X183811999Y-89540000D01*
G75*
G02*
X183974499Y-89702500I0J-162500D01*
G01*
X183974499Y-90027500D01*
G75*
G02*
X183811999Y-90190000I-162500J0D01*
G01*
G37*
G36*
G01*
X183811999Y-88920000D02*
X182611999Y-88920000D01*
G75*
G02*
X182449499Y-88757500I0J162500D01*
G01*
X182449499Y-88432500D01*
G75*
G02*
X182611999Y-88270000I162500J0D01*
G01*
X183811999Y-88270000D01*
G75*
G02*
X183974499Y-88432500I0J-162500D01*
G01*
X183974499Y-88757500D01*
G75*
G02*
X183811999Y-88920000I-162500J0D01*
G01*
G37*
G36*
G01*
X152049999Y-80550000D02*
X151149999Y-80550000D01*
G75*
G02*
X150999999Y-80400000I0J150000D01*
G01*
X150999999Y-80100000D01*
G75*
G02*
X151149999Y-79950000I150000J0D01*
G01*
X152049999Y-79950000D01*
G75*
G02*
X152199999Y-80100000I0J-150000D01*
G01*
X152199999Y-80400000D01*
G75*
G02*
X152049999Y-80550000I-150000J0D01*
G01*
G37*
G36*
G01*
X152049999Y-81500000D02*
X151149999Y-81500000D01*
G75*
G02*
X150999999Y-81350000I0J150000D01*
G01*
X150999999Y-81050000D01*
G75*
G02*
X151149999Y-80900000I150000J0D01*
G01*
X152049999Y-80900000D01*
G75*
G02*
X152199999Y-81050000I0J-150000D01*
G01*
X152199999Y-81350000D01*
G75*
G02*
X152049999Y-81500000I-150000J0D01*
G01*
G37*
G36*
G01*
X152049999Y-82450000D02*
X151149999Y-82450000D01*
G75*
G02*
X150999999Y-82300000I0J150000D01*
G01*
X150999999Y-82000000D01*
G75*
G02*
X151149999Y-81850000I150000J0D01*
G01*
X152049999Y-81850000D01*
G75*
G02*
X152199999Y-82000000I0J-150000D01*
G01*
X152199999Y-82300000D01*
G75*
G02*
X152049999Y-82450000I-150000J0D01*
G01*
G37*
G36*
G01*
X154549999Y-82450000D02*
X153649999Y-82450000D01*
G75*
G02*
X153499999Y-82300000I0J150000D01*
G01*
X153499999Y-82000000D01*
G75*
G02*
X153649999Y-81850000I150000J0D01*
G01*
X154549999Y-81850000D01*
G75*
G02*
X154699999Y-82000000I0J-150000D01*
G01*
X154699999Y-82300000D01*
G75*
G02*
X154549999Y-82450000I-150000J0D01*
G01*
G37*
G36*
G01*
X154549999Y-81500000D02*
X153649999Y-81500000D01*
G75*
G02*
X153499999Y-81350000I0J150000D01*
G01*
X153499999Y-81050000D01*
G75*
G02*
X153649999Y-80900000I150000J0D01*
G01*
X154549999Y-80900000D01*
G75*
G02*
X154699999Y-81050000I0J-150000D01*
G01*
X154699999Y-81350000D01*
G75*
G02*
X154549999Y-81500000I-150000J0D01*
G01*
G37*
G36*
G01*
X154549999Y-80550000D02*
X153649999Y-80550000D01*
G75*
G02*
X153499999Y-80400000I0J150000D01*
G01*
X153499999Y-80100000D01*
G75*
G02*
X153649999Y-79950000I150000J0D01*
G01*
X154549999Y-79950000D01*
G75*
G02*
X154699999Y-80100000I0J-150000D01*
G01*
X154699999Y-80400000D01*
G75*
G02*
X154549999Y-80550000I-150000J0D01*
G01*
G37*
G36*
G01*
X144624999Y-75775000D02*
X144624999Y-74525000D01*
G75*
G02*
X144874999Y-74275000I250000J0D01*
G01*
X145499999Y-74275000D01*
G75*
G02*
X145749999Y-74525000I0J-250000D01*
G01*
X145749999Y-75775000D01*
G75*
G02*
X145499999Y-76025000I-250000J0D01*
G01*
X144874999Y-76025000D01*
G75*
G02*
X144624999Y-75775000I0J250000D01*
G01*
G37*
G36*
G01*
X147549999Y-75775000D02*
X147549999Y-74525000D01*
G75*
G02*
X147799999Y-74275000I250000J0D01*
G01*
X148424999Y-74275000D01*
G75*
G02*
X148674999Y-74525000I0J-250000D01*
G01*
X148674999Y-75775000D01*
G75*
G02*
X148424999Y-76025000I-250000J0D01*
G01*
X147799999Y-76025000D01*
G75*
G02*
X147549999Y-75775000I0J250000D01*
G01*
G37*
G36*
G01*
X142724999Y-80875000D02*
X142724999Y-79625000D01*
G75*
G02*
X142974999Y-79375000I250000J0D01*
G01*
X143599999Y-79375000D01*
G75*
G02*
X143849999Y-79625000I0J-250000D01*
G01*
X143849999Y-80875000D01*
G75*
G02*
X143599999Y-81125000I-250000J0D01*
G01*
X142974999Y-81125000D01*
G75*
G02*
X142724999Y-80875000I0J250000D01*
G01*
G37*
G36*
G01*
X145649999Y-80875000D02*
X145649999Y-79625000D01*
G75*
G02*
X145899999Y-79375000I250000J0D01*
G01*
X146524999Y-79375000D01*
G75*
G02*
X146774999Y-79625000I0J-250000D01*
G01*
X146774999Y-80875000D01*
G75*
G02*
X146524999Y-81125000I-250000J0D01*
G01*
X145899999Y-81125000D01*
G75*
G02*
X145649999Y-80875000I0J250000D01*
G01*
G37*
D16*
X127750002Y-76000001D03*
D17*
X125210002Y-76000001D03*
X122670002Y-76000001D03*
D16*
X122670002Y-94000001D03*
D17*
X125210002Y-94000001D03*
%LPD*%
M02*
