G04 #@! TF.GenerationSoftware,KiCad,Pcbnew,10.0.4-10.0.4~ubuntu22.04.1*
G04 #@! TF.CreationDate,2026-09-12T00:20:43+02:00*
G04 #@! TF.ProjectId,panel,70616e65-6c2e-46b6-9963-61645f706362,rev?*
G04 #@! TF.SameCoordinates,PX6b0cc90PY5b8d800*
G04 #@! TF.FileFunction,Copper,L1,Top*
G04 #@! TF.FilePolarity,Positive*
%FSLAX46Y46*%
G04 Gerber Fmt 4.6, Leading zero omitted, Abs format (unit mm)*
G04 Created by KiCad (PCBNEW 10.0.4-10.0.4~ubuntu22.04.1) date 2026-09-12 00:20:43*
%MOMM*%
%LPD*%
G01*
G04 APERTURE LIST*
G04 #@! TA.AperFunction,ComponentPad*
%ADD10R,1.700000X1.700000*%
G04 #@! TD*
G04 #@! TA.AperFunction,ComponentPad*
%ADD11O,1.700000X1.700000*%
G04 #@! TD*
G04 #@! TA.AperFunction,ComponentPad*
%ADD12C,2.000000*%
G04 #@! TD*
G04 #@! TA.AperFunction,SMDPad,CuDef*
%ADD13R,2.250000X2.250000*%
G04 #@! TD*
G04 #@! TA.AperFunction,SMDPad,CuDef*
%ADD14R,1.200000X1.800000*%
G04 #@! TD*
G04 #@! TA.AperFunction,SMDPad,CuDef*
%ADD15R,2.350000X0.700000*%
G04 #@! TD*
G04 #@! TA.AperFunction,SMDPad,CuDef*
%ADD16R,4.900000X4.800000*%
G04 #@! TD*
G04 #@! TA.AperFunction,ViaPad*
%ADD17C,0.800000*%
G04 #@! TD*
G04 #@! TA.AperFunction,ViaPad*
%ADD18C,1.000000*%
G04 #@! TD*
G04 #@! TA.AperFunction,Conductor*
%ADD19C,1.500000*%
G04 #@! TD*
G04 #@! TA.AperFunction,Conductor*
%ADD20C,0.500000*%
G04 #@! TD*
G04 #@! TA.AperFunction,Conductor*
%ADD21C,0.350000*%
G04 #@! TD*
G04 #@! TA.AperFunction,Conductor*
%ADD22C,0.300000*%
G04 #@! TD*
G04 #@! TA.AperFunction,Conductor*
%ADD23C,1.000000*%
G04 #@! TD*
G04 #@! TA.AperFunction,Conductor*
%ADD24C,0.200000*%
G04 #@! TD*
G04 #@! TA.AperFunction,Conductor*
%ADD25C,0.650000*%
G04 #@! TD*
G04 #@! TA.AperFunction,Conductor*
%ADD26C,0.700000*%
G04 #@! TD*
G04 APERTURE END LIST*
G04 #@! TA.AperFunction,SMDPad,CuDef*
G36*
G01*
X156999999Y-79750000D02*
X158299999Y-79750000D01*
G75*
G02*
X158549999Y-80000000I0J-250000D01*
G01*
X158549999Y-80650000D01*
G75*
G02*
X158299999Y-80900000I-250000J0D01*
G01*
X156999999Y-80900000D01*
G75*
G02*
X156749999Y-80650000I0J250000D01*
G01*
X156749999Y-80000000D01*
G75*
G02*
X156999999Y-79750000I250000J0D01*
G01*
G37*
G04 #@! TD.AperFunction*
G04 #@! TA.AperFunction,SMDPad,CuDef*
G36*
G01*
X156999999Y-82700000D02*
X158299999Y-82700000D01*
G75*
G02*
X158549999Y-82950000I0J-250000D01*
G01*
X158549999Y-83600000D01*
G75*
G02*
X158299999Y-83850000I-250000J0D01*
G01*
X156999999Y-83850000D01*
G75*
G02*
X156749999Y-83600000I0J250000D01*
G01*
X156749999Y-82950000D01*
G75*
G02*
X156999999Y-82700000I250000J0D01*
G01*
G37*
G04 #@! TD.AperFunction*
G04 #@! TA.AperFunction,SMDPad,CuDef*
G36*
G01*
X150789999Y-93013500D02*
X150789999Y-94438500D01*
G75*
G02*
X150614999Y-94613500I-175000J0D01*
G01*
X150264999Y-94613500D01*
G75*
G02*
X150089999Y-94438500I0J175000D01*
G01*
X150089999Y-93013500D01*
G75*
G02*
X150264999Y-92838500I175000J0D01*
G01*
X150614999Y-92838500D01*
G75*
G02*
X150789999Y-93013500I0J-175000D01*
G01*
G37*
G04 #@! TD.AperFunction*
G04 #@! TA.AperFunction,SMDPad,CuDef*
G36*
G01*
X152059999Y-93013500D02*
X152059999Y-94438500D01*
G75*
G02*
X151884999Y-94613500I-175000J0D01*
G01*
X151534999Y-94613500D01*
G75*
G02*
X151359999Y-94438500I0J175000D01*
G01*
X151359999Y-93013500D01*
G75*
G02*
X151534999Y-92838500I175000J0D01*
G01*
X151884999Y-92838500D01*
G75*
G02*
X152059999Y-93013500I0J-175000D01*
G01*
G37*
G04 #@! TD.AperFunction*
G04 #@! TA.AperFunction,SMDPad,CuDef*
G36*
G01*
X153329999Y-93013500D02*
X153329999Y-94438500D01*
G75*
G02*
X153154999Y-94613500I-175000J0D01*
G01*
X152804999Y-94613500D01*
G75*
G02*
X152629999Y-94438500I0J175000D01*
G01*
X152629999Y-93013500D01*
G75*
G02*
X152804999Y-92838500I175000J0D01*
G01*
X153154999Y-92838500D01*
G75*
G02*
X153329999Y-93013500I0J-175000D01*
G01*
G37*
G04 #@! TD.AperFunction*
G04 #@! TA.AperFunction,SMDPad,CuDef*
G36*
G01*
X154599999Y-93013500D02*
X154599999Y-94438500D01*
G75*
G02*
X154424999Y-94613500I-175000J0D01*
G01*
X154074999Y-94613500D01*
G75*
G02*
X153899999Y-94438500I0J175000D01*
G01*
X153899999Y-93013500D01*
G75*
G02*
X154074999Y-92838500I175000J0D01*
G01*
X154424999Y-92838500D01*
G75*
G02*
X154599999Y-93013500I0J-175000D01*
G01*
G37*
G04 #@! TD.AperFunction*
G04 #@! TA.AperFunction,SMDPad,CuDef*
G36*
G01*
X155869999Y-93013500D02*
X155869999Y-94438500D01*
G75*
G02*
X155694999Y-94613500I-175000J0D01*
G01*
X155344999Y-94613500D01*
G75*
G02*
X155169999Y-94438500I0J175000D01*
G01*
X155169999Y-93013500D01*
G75*
G02*
X155344999Y-92838500I175000J0D01*
G01*
X155694999Y-92838500D01*
G75*
G02*
X155869999Y-93013500I0J-175000D01*
G01*
G37*
G04 #@! TD.AperFunction*
G04 #@! TA.AperFunction,SMDPad,CuDef*
G36*
G01*
X157139999Y-93013500D02*
X157139999Y-94438500D01*
G75*
G02*
X156964999Y-94613500I-175000J0D01*
G01*
X156614999Y-94613500D01*
G75*
G02*
X156439999Y-94438500I0J175000D01*
G01*
X156439999Y-93013500D01*
G75*
G02*
X156614999Y-92838500I175000J0D01*
G01*
X156964999Y-92838500D01*
G75*
G02*
X157139999Y-93013500I0J-175000D01*
G01*
G37*
G04 #@! TD.AperFunction*
G04 #@! TA.AperFunction,SMDPad,CuDef*
G36*
G01*
X158409999Y-93013500D02*
X158409999Y-94438500D01*
G75*
G02*
X158234999Y-94613500I-175000J0D01*
G01*
X157884999Y-94613500D01*
G75*
G02*
X157709999Y-94438500I0J175000D01*
G01*
X157709999Y-93013500D01*
G75*
G02*
X157884999Y-92838500I175000J0D01*
G01*
X158234999Y-92838500D01*
G75*
G02*
X158409999Y-93013500I0J-175000D01*
G01*
G37*
G04 #@! TD.AperFunction*
G04 #@! TA.AperFunction,SMDPad,CuDef*
G36*
G01*
X158409999Y-85937500D02*
X158409999Y-87362500D01*
G75*
G02*
X158234999Y-87537500I-175000J0D01*
G01*
X157884999Y-87537500D01*
G75*
G02*
X157709999Y-87362500I0J175000D01*
G01*
X157709999Y-85937500D01*
G75*
G02*
X157884999Y-85762500I175000J0D01*
G01*
X158234999Y-85762500D01*
G75*
G02*
X158409999Y-85937500I0J-175000D01*
G01*
G37*
G04 #@! TD.AperFunction*
G04 #@! TA.AperFunction,SMDPad,CuDef*
G36*
G01*
X157139999Y-85937500D02*
X157139999Y-87362500D01*
G75*
G02*
X156964999Y-87537500I-175000J0D01*
G01*
X156614999Y-87537500D01*
G75*
G02*
X156439999Y-87362500I0J175000D01*
G01*
X156439999Y-85937500D01*
G75*
G02*
X156614999Y-85762500I175000J0D01*
G01*
X156964999Y-85762500D01*
G75*
G02*
X157139999Y-85937500I0J-175000D01*
G01*
G37*
G04 #@! TD.AperFunction*
G04 #@! TA.AperFunction,SMDPad,CuDef*
G36*
G01*
X155869999Y-85937500D02*
X155869999Y-87362500D01*
G75*
G02*
X155694999Y-87537500I-175000J0D01*
G01*
X155344999Y-87537500D01*
G75*
G02*
X155169999Y-87362500I0J175000D01*
G01*
X155169999Y-85937500D01*
G75*
G02*
X155344999Y-85762500I175000J0D01*
G01*
X155694999Y-85762500D01*
G75*
G02*
X155869999Y-85937500I0J-175000D01*
G01*
G37*
G04 #@! TD.AperFunction*
G04 #@! TA.AperFunction,SMDPad,CuDef*
G36*
G01*
X154599999Y-85937500D02*
X154599999Y-87362500D01*
G75*
G02*
X154424999Y-87537500I-175000J0D01*
G01*
X154074999Y-87537500D01*
G75*
G02*
X153899999Y-87362500I0J175000D01*
G01*
X153899999Y-85937500D01*
G75*
G02*
X154074999Y-85762500I175000J0D01*
G01*
X154424999Y-85762500D01*
G75*
G02*
X154599999Y-85937500I0J-175000D01*
G01*
G37*
G04 #@! TD.AperFunction*
G04 #@! TA.AperFunction,SMDPad,CuDef*
G36*
G01*
X153329999Y-85937500D02*
X153329999Y-87362500D01*
G75*
G02*
X153154999Y-87537500I-175000J0D01*
G01*
X152804999Y-87537500D01*
G75*
G02*
X152629999Y-87362500I0J175000D01*
G01*
X152629999Y-85937500D01*
G75*
G02*
X152804999Y-85762500I175000J0D01*
G01*
X153154999Y-85762500D01*
G75*
G02*
X153329999Y-85937500I0J-175000D01*
G01*
G37*
G04 #@! TD.AperFunction*
G04 #@! TA.AperFunction,SMDPad,CuDef*
G36*
G01*
X152059999Y-85937500D02*
X152059999Y-87362500D01*
G75*
G02*
X151884999Y-87537500I-175000J0D01*
G01*
X151534999Y-87537500D01*
G75*
G02*
X151359999Y-87362500I0J175000D01*
G01*
X151359999Y-85937500D01*
G75*
G02*
X151534999Y-85762500I175000J0D01*
G01*
X151884999Y-85762500D01*
G75*
G02*
X152059999Y-85937500I0J-175000D01*
G01*
G37*
G04 #@! TD.AperFunction*
G04 #@! TA.AperFunction,SMDPad,CuDef*
G36*
G01*
X150789999Y-85937500D02*
X150789999Y-87362500D01*
G75*
G02*
X150614999Y-87537500I-175000J0D01*
G01*
X150264999Y-87537500D01*
G75*
G02*
X150089999Y-87362500I0J175000D01*
G01*
X150089999Y-85937500D01*
G75*
G02*
X150264999Y-85762500I175000J0D01*
G01*
X150614999Y-85762500D01*
G75*
G02*
X150789999Y-85937500I0J-175000D01*
G01*
G37*
G04 #@! TD.AperFunction*
D10*
X139999999Y-94200000D03*
D11*
X139999999Y-91660000D03*
X139999999Y-89120000D03*
X139999999Y-86580000D03*
X139999999Y-84040000D03*
X139999999Y-81500000D03*
D12*
X196999999Y-84750000D03*
G04 #@! TA.AperFunction,SMDPad,CuDef*
G36*
G01*
X162762499Y-80475000D02*
X161837499Y-80475000D01*
G75*
G02*
X161749999Y-80387500I0J87500D01*
G01*
X161749999Y-80212500D01*
G75*
G02*
X161837499Y-80125000I87500J0D01*
G01*
X162762499Y-80125000D01*
G75*
G02*
X162849999Y-80212500I0J-87500D01*
G01*
X162849999Y-80387500D01*
G75*
G02*
X162762499Y-80475000I-87500J0D01*
G01*
G37*
G04 #@! TD.AperFunction*
G04 #@! TA.AperFunction,SMDPad,CuDef*
G36*
G01*
X162762499Y-81275000D02*
X161837499Y-81275000D01*
G75*
G02*
X161749999Y-81187500I0J87500D01*
G01*
X161749999Y-81012500D01*
G75*
G02*
X161837499Y-80925000I87500J0D01*
G01*
X162762499Y-80925000D01*
G75*
G02*
X162849999Y-81012500I0J-87500D01*
G01*
X162849999Y-81187500D01*
G75*
G02*
X162762499Y-81275000I-87500J0D01*
G01*
G37*
G04 #@! TD.AperFunction*
G04 #@! TA.AperFunction,SMDPad,CuDef*
G36*
G01*
X162762499Y-82075000D02*
X161837499Y-82075000D01*
G75*
G02*
X161749999Y-81987500I0J87500D01*
G01*
X161749999Y-81812500D01*
G75*
G02*
X161837499Y-81725000I87500J0D01*
G01*
X162762499Y-81725000D01*
G75*
G02*
X162849999Y-81812500I0J-87500D01*
G01*
X162849999Y-81987500D01*
G75*
G02*
X162762499Y-82075000I-87500J0D01*
G01*
G37*
G04 #@! TD.AperFunction*
G04 #@! TA.AperFunction,SMDPad,CuDef*
G36*
G01*
X163174999Y-83412500D02*
X163174999Y-82487500D01*
G75*
G02*
X163262499Y-82400000I87500J0D01*
G01*
X163437499Y-82400000D01*
G75*
G02*
X163524999Y-82487500I0J-87500D01*
G01*
X163524999Y-83412500D01*
G75*
G02*
X163437499Y-83500000I-87500J0D01*
G01*
X163262499Y-83500000D01*
G75*
G02*
X163174999Y-83412500I0J87500D01*
G01*
G37*
G04 #@! TD.AperFunction*
G04 #@! TA.AperFunction,SMDPad,CuDef*
G36*
G01*
X163974999Y-83412500D02*
X163974999Y-82487500D01*
G75*
G02*
X164062499Y-82400000I87500J0D01*
G01*
X164237499Y-82400000D01*
G75*
G02*
X164324999Y-82487500I0J-87500D01*
G01*
X164324999Y-83412500D01*
G75*
G02*
X164237499Y-83500000I-87500J0D01*
G01*
X164062499Y-83500000D01*
G75*
G02*
X163974999Y-83412500I0J87500D01*
G01*
G37*
G04 #@! TD.AperFunction*
G04 #@! TA.AperFunction,SMDPad,CuDef*
G36*
G01*
X164774999Y-83412500D02*
X164774999Y-82487500D01*
G75*
G02*
X164862499Y-82400000I87500J0D01*
G01*
X165037499Y-82400000D01*
G75*
G02*
X165124999Y-82487500I0J-87500D01*
G01*
X165124999Y-83412500D01*
G75*
G02*
X165037499Y-83500000I-87500J0D01*
G01*
X164862499Y-83500000D01*
G75*
G02*
X164774999Y-83412500I0J87500D01*
G01*
G37*
G04 #@! TD.AperFunction*
G04 #@! TA.AperFunction,SMDPad,CuDef*
G36*
G01*
X166462499Y-82075000D02*
X165537499Y-82075000D01*
G75*
G02*
X165449999Y-81987500I0J87500D01*
G01*
X165449999Y-81812500D01*
G75*
G02*
X165537499Y-81725000I87500J0D01*
G01*
X166462499Y-81725000D01*
G75*
G02*
X166549999Y-81812500I0J-87500D01*
G01*
X166549999Y-81987500D01*
G75*
G02*
X166462499Y-82075000I-87500J0D01*
G01*
G37*
G04 #@! TD.AperFunction*
G04 #@! TA.AperFunction,SMDPad,CuDef*
G36*
G01*
X166462499Y-81275000D02*
X165537499Y-81275000D01*
G75*
G02*
X165449999Y-81187500I0J87500D01*
G01*
X165449999Y-81012500D01*
G75*
G02*
X165537499Y-80925000I87500J0D01*
G01*
X166462499Y-80925000D01*
G75*
G02*
X166549999Y-81012500I0J-87500D01*
G01*
X166549999Y-81187500D01*
G75*
G02*
X166462499Y-81275000I-87500J0D01*
G01*
G37*
G04 #@! TD.AperFunction*
G04 #@! TA.AperFunction,SMDPad,CuDef*
G36*
G01*
X166462499Y-80475000D02*
X165537499Y-80475000D01*
G75*
G02*
X165449999Y-80387500I0J87500D01*
G01*
X165449999Y-80212500D01*
G75*
G02*
X165537499Y-80125000I87500J0D01*
G01*
X166462499Y-80125000D01*
G75*
G02*
X166549999Y-80212500I0J-87500D01*
G01*
X166549999Y-80387500D01*
G75*
G02*
X166462499Y-80475000I-87500J0D01*
G01*
G37*
G04 #@! TD.AperFunction*
G04 #@! TA.AperFunction,SMDPad,CuDef*
G36*
G01*
X164774999Y-79712500D02*
X164774999Y-78787500D01*
G75*
G02*
X164862499Y-78700000I87500J0D01*
G01*
X165037499Y-78700000D01*
G75*
G02*
X165124999Y-78787500I0J-87500D01*
G01*
X165124999Y-79712500D01*
G75*
G02*
X165037499Y-79800000I-87500J0D01*
G01*
X164862499Y-79800000D01*
G75*
G02*
X164774999Y-79712500I0J87500D01*
G01*
G37*
G04 #@! TD.AperFunction*
G04 #@! TA.AperFunction,SMDPad,CuDef*
G36*
G01*
X163974999Y-79712500D02*
X163974999Y-78787500D01*
G75*
G02*
X164062499Y-78700000I87500J0D01*
G01*
X164237499Y-78700000D01*
G75*
G02*
X164324999Y-78787500I0J-87500D01*
G01*
X164324999Y-79712500D01*
G75*
G02*
X164237499Y-79800000I-87500J0D01*
G01*
X164062499Y-79800000D01*
G75*
G02*
X163974999Y-79712500I0J87500D01*
G01*
G37*
G04 #@! TD.AperFunction*
G04 #@! TA.AperFunction,SMDPad,CuDef*
G36*
G01*
X163174999Y-79712500D02*
X163174999Y-78787500D01*
G75*
G02*
X163262499Y-78700000I87500J0D01*
G01*
X163437499Y-78700000D01*
G75*
G02*
X163524999Y-78787500I0J-87500D01*
G01*
X163524999Y-79712500D01*
G75*
G02*
X163437499Y-79800000I-87500J0D01*
G01*
X163262499Y-79800000D01*
G75*
G02*
X163174999Y-79712500I0J87500D01*
G01*
G37*
G04 #@! TD.AperFunction*
D13*
X164149999Y-81100000D03*
G04 #@! TA.AperFunction,SMDPad,CuDef*
G36*
G01*
X168449999Y-79900000D02*
X168449999Y-78600000D01*
G75*
G02*
X168699999Y-78350000I250000J0D01*
G01*
X169349999Y-78350000D01*
G75*
G02*
X169599999Y-78600000I0J-250000D01*
G01*
X169599999Y-79900000D01*
G75*
G02*
X169349999Y-80150000I-250000J0D01*
G01*
X168699999Y-80150000D01*
G75*
G02*
X168449999Y-79900000I0J250000D01*
G01*
G37*
G04 #@! TD.AperFunction*
G04 #@! TA.AperFunction,SMDPad,CuDef*
G36*
G01*
X171399999Y-79900000D02*
X171399999Y-78600000D01*
G75*
G02*
X171649999Y-78350000I250000J0D01*
G01*
X172299999Y-78350000D01*
G75*
G02*
X172549999Y-78600000I0J-250000D01*
G01*
X172549999Y-79900000D01*
G75*
G02*
X172299999Y-80150000I-250000J0D01*
G01*
X171649999Y-80150000D01*
G75*
G02*
X171399999Y-79900000I0J250000D01*
G01*
G37*
G04 #@! TD.AperFunction*
G04 #@! TA.AperFunction,SMDPad,CuDef*
G36*
G01*
X173949999Y-76500000D02*
X173949999Y-75200000D01*
G75*
G02*
X174199999Y-74950000I250000J0D01*
G01*
X174849999Y-74950000D01*
G75*
G02*
X175099999Y-75200000I0J-250000D01*
G01*
X175099999Y-76500000D01*
G75*
G02*
X174849999Y-76750000I-250000J0D01*
G01*
X174199999Y-76750000D01*
G75*
G02*
X173949999Y-76500000I0J250000D01*
G01*
G37*
G04 #@! TD.AperFunction*
G04 #@! TA.AperFunction,SMDPad,CuDef*
G36*
G01*
X176899999Y-76500000D02*
X176899999Y-75200000D01*
G75*
G02*
X177149999Y-74950000I250000J0D01*
G01*
X177799999Y-74950000D01*
G75*
G02*
X178049999Y-75200000I0J-250000D01*
G01*
X178049999Y-76500000D01*
G75*
G02*
X177799999Y-76750000I-250000J0D01*
G01*
X177149999Y-76750000D01*
G75*
G02*
X176899999Y-76500000I0J250000D01*
G01*
G37*
G04 #@! TD.AperFunction*
G04 #@! TA.AperFunction,SMDPad,CuDef*
G36*
G01*
X170499999Y-75150000D02*
X170499999Y-76550000D01*
G75*
G02*
X170249999Y-76800000I-250000J0D01*
G01*
X169699999Y-76800000D01*
G75*
G02*
X169449999Y-76550000I0J250000D01*
G01*
X169449999Y-75150000D01*
G75*
G02*
X169699999Y-74900000I250000J0D01*
G01*
X170249999Y-74900000D01*
G75*
G02*
X170499999Y-75150000I0J-250000D01*
G01*
G37*
G04 #@! TD.AperFunction*
G04 #@! TA.AperFunction,SMDPad,CuDef*
G36*
G01*
X167349999Y-75150000D02*
X167349999Y-76550000D01*
G75*
G02*
X167099999Y-76800000I-250000J0D01*
G01*
X166549999Y-76800000D01*
G75*
G02*
X166299999Y-76550000I0J250000D01*
G01*
X166299999Y-75150000D01*
G75*
G02*
X166549999Y-74900000I250000J0D01*
G01*
X167099999Y-74900000D01*
G75*
G02*
X167349999Y-75150000I0J-250000D01*
G01*
G37*
G04 #@! TD.AperFunction*
G04 #@! TA.AperFunction,SMDPad,CuDef*
G36*
G01*
X115200002Y-90100001D02*
X113800002Y-90100001D01*
G75*
G02*
X113550002Y-89850001I0J250000D01*
G01*
X113550002Y-89300001D01*
G75*
G02*
X113800002Y-89050001I250000J0D01*
G01*
X115200002Y-89050001D01*
G75*
G02*
X115450002Y-89300001I0J-250000D01*
G01*
X115450002Y-89850001D01*
G75*
G02*
X115200002Y-90100001I-250000J0D01*
G01*
G37*
G04 #@! TD.AperFunction*
G04 #@! TA.AperFunction,SMDPad,CuDef*
G36*
G01*
X115200002Y-86950001D02*
X113800002Y-86950001D01*
G75*
G02*
X113550002Y-86700001I0J250000D01*
G01*
X113550002Y-86150001D01*
G75*
G02*
X113800002Y-85900001I250000J0D01*
G01*
X115200002Y-85900001D01*
G75*
G02*
X115450002Y-86150001I0J-250000D01*
G01*
X115450002Y-86700001D01*
G75*
G02*
X115200002Y-86950001I-250000J0D01*
G01*
G37*
G04 #@! TD.AperFunction*
G04 #@! TA.AperFunction,SMDPad,CuDef*
G36*
G01*
X115200002Y-76900001D02*
X115200002Y-75600001D01*
G75*
G02*
X115450002Y-75350001I250000J0D01*
G01*
X116100002Y-75350001D01*
G75*
G02*
X116350002Y-75600001I0J-250000D01*
G01*
X116350002Y-76900001D01*
G75*
G02*
X116100002Y-77150001I-250000J0D01*
G01*
X115450002Y-77150001D01*
G75*
G02*
X115200002Y-76900001I0J250000D01*
G01*
G37*
G04 #@! TD.AperFunction*
G04 #@! TA.AperFunction,SMDPad,CuDef*
G36*
G01*
X118150002Y-76900001D02*
X118150002Y-75600001D01*
G75*
G02*
X118400002Y-75350001I250000J0D01*
G01*
X119050002Y-75350001D01*
G75*
G02*
X119300002Y-75600001I0J-250000D01*
G01*
X119300002Y-76900001D01*
G75*
G02*
X119050002Y-77150001I-250000J0D01*
G01*
X118400002Y-77150001D01*
G75*
G02*
X118150002Y-76900001I0J250000D01*
G01*
G37*
G04 #@! TD.AperFunction*
G04 #@! TA.AperFunction,SMDPad,CuDef*
G36*
G01*
X158299999Y-78700000D02*
X156999999Y-78700000D01*
G75*
G02*
X156749999Y-78450000I0J250000D01*
G01*
X156749999Y-77800000D01*
G75*
G02*
X156999999Y-77550000I250000J0D01*
G01*
X158299999Y-77550000D01*
G75*
G02*
X158549999Y-77800000I0J-250000D01*
G01*
X158549999Y-78450000D01*
G75*
G02*
X158299999Y-78700000I-250000J0D01*
G01*
G37*
G04 #@! TD.AperFunction*
G04 #@! TA.AperFunction,SMDPad,CuDef*
G36*
G01*
X158299999Y-75750000D02*
X156999999Y-75750000D01*
G75*
G02*
X156749999Y-75500000I0J250000D01*
G01*
X156749999Y-74850000D01*
G75*
G02*
X156999999Y-74600000I250000J0D01*
G01*
X158299999Y-74600000D01*
G75*
G02*
X158549999Y-74850000I0J-250000D01*
G01*
X158549999Y-75500000D01*
G75*
G02*
X158299999Y-75750000I-250000J0D01*
G01*
G37*
G04 #@! TD.AperFunction*
D14*
X129830002Y-80075001D03*
X127290002Y-80075001D03*
X122210002Y-80075001D03*
X119670002Y-80075001D03*
X122210002Y-90275001D03*
X129830002Y-90275001D03*
D10*
X142539999Y-76420000D03*
D11*
X139999999Y-76420000D03*
D10*
X188919999Y-94000000D03*
D11*
X191459999Y-94000000D03*
G04 #@! TA.AperFunction,SMDPad,CuDef*
G36*
G01*
X132050002Y-93350001D02*
X132050002Y-94650001D01*
G75*
G02*
X131800002Y-94900001I-250000J0D01*
G01*
X131150002Y-94900001D01*
G75*
G02*
X130900002Y-94650001I0J250000D01*
G01*
X130900002Y-93350001D01*
G75*
G02*
X131150002Y-93100001I250000J0D01*
G01*
X131800002Y-93100001D01*
G75*
G02*
X132050002Y-93350001I0J-250000D01*
G01*
G37*
G04 #@! TD.AperFunction*
G04 #@! TA.AperFunction,SMDPad,CuDef*
G36*
G01*
X129100002Y-93350001D02*
X129100002Y-94650001D01*
G75*
G02*
X128850002Y-94900001I-250000J0D01*
G01*
X128200002Y-94900001D01*
G75*
G02*
X127950002Y-94650001I0J250000D01*
G01*
X127950002Y-93350001D01*
G75*
G02*
X128200002Y-93100001I250000J0D01*
G01*
X128850002Y-93100001D01*
G75*
G02*
X129100002Y-93350001I0J-250000D01*
G01*
G37*
G04 #@! TD.AperFunction*
G04 #@! TA.AperFunction,SMDPad,CuDef*
G36*
G01*
X190612499Y-86300000D02*
X190612499Y-86600000D01*
G75*
G02*
X190462499Y-86750000I-150000J0D01*
G01*
X189287499Y-86750000D01*
G75*
G02*
X189137499Y-86600000I0J150000D01*
G01*
X189137499Y-86300000D01*
G75*
G02*
X189287499Y-86150000I150000J0D01*
G01*
X190462499Y-86150000D01*
G75*
G02*
X190612499Y-86300000I0J-150000D01*
G01*
G37*
G04 #@! TD.AperFunction*
G04 #@! TA.AperFunction,SMDPad,CuDef*
G36*
G01*
X190612499Y-84400000D02*
X190612499Y-84700000D01*
G75*
G02*
X190462499Y-84850000I-150000J0D01*
G01*
X189287499Y-84850000D01*
G75*
G02*
X189137499Y-84700000I0J150000D01*
G01*
X189137499Y-84400000D01*
G75*
G02*
X189287499Y-84250000I150000J0D01*
G01*
X190462499Y-84250000D01*
G75*
G02*
X190612499Y-84400000I0J-150000D01*
G01*
G37*
G04 #@! TD.AperFunction*
G04 #@! TA.AperFunction,SMDPad,CuDef*
G36*
G01*
X188737499Y-85350000D02*
X188737499Y-85650000D01*
G75*
G02*
X188587499Y-85800000I-150000J0D01*
G01*
X187412499Y-85800000D01*
G75*
G02*
X187262499Y-85650000I0J150000D01*
G01*
X187262499Y-85350000D01*
G75*
G02*
X187412499Y-85200000I150000J0D01*
G01*
X188587499Y-85200000D01*
G75*
G02*
X188737499Y-85350000I0J-150000D01*
G01*
G37*
G04 #@! TD.AperFunction*
G04 #@! TA.AperFunction,SMDPad,CuDef*
G36*
G01*
X168699999Y-91150000D02*
X168699999Y-89850000D01*
G75*
G02*
X168949999Y-89600000I250000J0D01*
G01*
X169599999Y-89600000D01*
G75*
G02*
X169849999Y-89850000I0J-250000D01*
G01*
X169849999Y-91150000D01*
G75*
G02*
X169599999Y-91400000I-250000J0D01*
G01*
X168949999Y-91400000D01*
G75*
G02*
X168699999Y-91150000I0J250000D01*
G01*
G37*
G04 #@! TD.AperFunction*
G04 #@! TA.AperFunction,SMDPad,CuDef*
G36*
G01*
X171649999Y-91150000D02*
X171649999Y-89850000D01*
G75*
G02*
X171899999Y-89600000I250000J0D01*
G01*
X172549999Y-89600000D01*
G75*
G02*
X172799999Y-89850000I0J-250000D01*
G01*
X172799999Y-91150000D01*
G75*
G02*
X172549999Y-91400000I-250000J0D01*
G01*
X171899999Y-91400000D01*
G75*
G02*
X171649999Y-91150000I0J250000D01*
G01*
G37*
G04 #@! TD.AperFunction*
G04 #@! TA.AperFunction,SMDPad,CuDef*
G36*
G01*
X143324999Y-89206250D02*
X143324999Y-88293750D01*
G75*
G02*
X143568749Y-88050000I243750J0D01*
G01*
X144056249Y-88050000D01*
G75*
G02*
X144299999Y-88293750I0J-243750D01*
G01*
X144299999Y-89206250D01*
G75*
G02*
X144056249Y-89450000I-243750J0D01*
G01*
X143568749Y-89450000D01*
G75*
G02*
X143324999Y-89206250I0J243750D01*
G01*
G37*
G04 #@! TD.AperFunction*
G04 #@! TA.AperFunction,SMDPad,CuDef*
G36*
G01*
X145199999Y-89206250D02*
X145199999Y-88293750D01*
G75*
G02*
X145443749Y-88050000I243750J0D01*
G01*
X145931249Y-88050000D01*
G75*
G02*
X146174999Y-88293750I0J-243750D01*
G01*
X146174999Y-89206250D01*
G75*
G02*
X145931249Y-89450000I-243750J0D01*
G01*
X145443749Y-89450000D01*
G75*
G02*
X145199999Y-89206250I0J243750D01*
G01*
G37*
G04 #@! TD.AperFunction*
G04 #@! TA.AperFunction,SMDPad,CuDef*
G36*
G01*
X161649999Y-87500000D02*
X161649999Y-86200000D01*
G75*
G02*
X161899999Y-85950000I250000J0D01*
G01*
X162549999Y-85950000D01*
G75*
G02*
X162799999Y-86200000I0J-250000D01*
G01*
X162799999Y-87500000D01*
G75*
G02*
X162549999Y-87750000I-250000J0D01*
G01*
X161899999Y-87750000D01*
G75*
G02*
X161649999Y-87500000I0J250000D01*
G01*
G37*
G04 #@! TD.AperFunction*
G04 #@! TA.AperFunction,SMDPad,CuDef*
G36*
G01*
X164599999Y-87500000D02*
X164599999Y-86200000D01*
G75*
G02*
X164849999Y-85950000I250000J0D01*
G01*
X165499999Y-85950000D01*
G75*
G02*
X165749999Y-86200000I0J-250000D01*
G01*
X165749999Y-87500000D01*
G75*
G02*
X165499999Y-87750000I-250000J0D01*
G01*
X164849999Y-87750000D01*
G75*
G02*
X164599999Y-87500000I0J250000D01*
G01*
G37*
G04 #@! TD.AperFunction*
G04 #@! TA.AperFunction,SMDPad,CuDef*
G36*
G01*
X147899999Y-94550000D02*
X146599999Y-94550000D01*
G75*
G02*
X146349999Y-94300000I0J250000D01*
G01*
X146349999Y-93650000D01*
G75*
G02*
X146599999Y-93400000I250000J0D01*
G01*
X147899999Y-93400000D01*
G75*
G02*
X148149999Y-93650000I0J-250000D01*
G01*
X148149999Y-94300000D01*
G75*
G02*
X147899999Y-94550000I-250000J0D01*
G01*
G37*
G04 #@! TD.AperFunction*
G04 #@! TA.AperFunction,SMDPad,CuDef*
G36*
G01*
X147899999Y-91600000D02*
X146599999Y-91600000D01*
G75*
G02*
X146349999Y-91350000I0J250000D01*
G01*
X146349999Y-90700000D01*
G75*
G02*
X146599999Y-90450000I250000J0D01*
G01*
X147899999Y-90450000D01*
G75*
G02*
X148149999Y-90700000I0J-250000D01*
G01*
X148149999Y-91350000D01*
G75*
G02*
X147899999Y-91600000I-250000J0D01*
G01*
G37*
G04 #@! TD.AperFunction*
G04 #@! TA.AperFunction,SMDPad,CuDef*
G36*
G01*
X115700002Y-94650001D02*
X115700002Y-93350001D01*
G75*
G02*
X115950002Y-93100001I250000J0D01*
G01*
X116600002Y-93100001D01*
G75*
G02*
X116850002Y-93350001I0J-250000D01*
G01*
X116850002Y-94650001D01*
G75*
G02*
X116600002Y-94900001I-250000J0D01*
G01*
X115950002Y-94900001D01*
G75*
G02*
X115700002Y-94650001I0J250000D01*
G01*
G37*
G04 #@! TD.AperFunction*
G04 #@! TA.AperFunction,SMDPad,CuDef*
G36*
G01*
X118650002Y-94650001D02*
X118650002Y-93350001D01*
G75*
G02*
X118900002Y-93100001I250000J0D01*
G01*
X119550002Y-93100001D01*
G75*
G02*
X119800002Y-93350001I0J-250000D01*
G01*
X119800002Y-94650001D01*
G75*
G02*
X119550002Y-94900001I-250000J0D01*
G01*
X118900002Y-94900001D01*
G75*
G02*
X118650002Y-94650001I0J250000D01*
G01*
G37*
G04 #@! TD.AperFunction*
G04 #@! TA.AperFunction,SMDPad,CuDef*
G36*
G01*
X152049999Y-75800000D02*
X151149999Y-75800000D01*
G75*
G02*
X150999999Y-75650000I0J150000D01*
G01*
X150999999Y-75350000D01*
G75*
G02*
X151149999Y-75200000I150000J0D01*
G01*
X152049999Y-75200000D01*
G75*
G02*
X152199999Y-75350000I0J-150000D01*
G01*
X152199999Y-75650000D01*
G75*
G02*
X152049999Y-75800000I-150000J0D01*
G01*
G37*
G04 #@! TD.AperFunction*
G04 #@! TA.AperFunction,SMDPad,CuDef*
G36*
G01*
X152049999Y-76750000D02*
X151149999Y-76750000D01*
G75*
G02*
X150999999Y-76600000I0J150000D01*
G01*
X150999999Y-76300000D01*
G75*
G02*
X151149999Y-76150000I150000J0D01*
G01*
X152049999Y-76150000D01*
G75*
G02*
X152199999Y-76300000I0J-150000D01*
G01*
X152199999Y-76600000D01*
G75*
G02*
X152049999Y-76750000I-150000J0D01*
G01*
G37*
G04 #@! TD.AperFunction*
G04 #@! TA.AperFunction,SMDPad,CuDef*
G36*
G01*
X152049999Y-77700000D02*
X151149999Y-77700000D01*
G75*
G02*
X150999999Y-77550000I0J150000D01*
G01*
X150999999Y-77250000D01*
G75*
G02*
X151149999Y-77100000I150000J0D01*
G01*
X152049999Y-77100000D01*
G75*
G02*
X152199999Y-77250000I0J-150000D01*
G01*
X152199999Y-77550000D01*
G75*
G02*
X152049999Y-77700000I-150000J0D01*
G01*
G37*
G04 #@! TD.AperFunction*
G04 #@! TA.AperFunction,SMDPad,CuDef*
G36*
G01*
X154549999Y-77700000D02*
X153649999Y-77700000D01*
G75*
G02*
X153499999Y-77550000I0J150000D01*
G01*
X153499999Y-77250000D01*
G75*
G02*
X153649999Y-77100000I150000J0D01*
G01*
X154549999Y-77100000D01*
G75*
G02*
X154699999Y-77250000I0J-150000D01*
G01*
X154699999Y-77550000D01*
G75*
G02*
X154549999Y-77700000I-150000J0D01*
G01*
G37*
G04 #@! TD.AperFunction*
G04 #@! TA.AperFunction,SMDPad,CuDef*
G36*
G01*
X154549999Y-76750000D02*
X153649999Y-76750000D01*
G75*
G02*
X153499999Y-76600000I0J150000D01*
G01*
X153499999Y-76300000D01*
G75*
G02*
X153649999Y-76150000I150000J0D01*
G01*
X154549999Y-76150000D01*
G75*
G02*
X154699999Y-76300000I0J-150000D01*
G01*
X154699999Y-76600000D01*
G75*
G02*
X154549999Y-76750000I-150000J0D01*
G01*
G37*
G04 #@! TD.AperFunction*
G04 #@! TA.AperFunction,SMDPad,CuDef*
G36*
G01*
X154549999Y-75800000D02*
X153649999Y-75800000D01*
G75*
G02*
X153499999Y-75650000I0J150000D01*
G01*
X153499999Y-75350000D01*
G75*
G02*
X153649999Y-75200000I150000J0D01*
G01*
X154549999Y-75200000D01*
G75*
G02*
X154699999Y-75350000I0J-150000D01*
G01*
X154699999Y-75650000D01*
G75*
G02*
X154549999Y-75800000I-150000J0D01*
G01*
G37*
G04 #@! TD.AperFunction*
G04 #@! TA.AperFunction,SMDPad,CuDef*
G36*
G01*
X181449999Y-78650000D02*
X181449999Y-77350000D01*
G75*
G02*
X181699999Y-77100000I250000J0D01*
G01*
X182349999Y-77100000D01*
G75*
G02*
X182599999Y-77350000I0J-250000D01*
G01*
X182599999Y-78650000D01*
G75*
G02*
X182349999Y-78900000I-250000J0D01*
G01*
X181699999Y-78900000D01*
G75*
G02*
X181449999Y-78650000I0J250000D01*
G01*
G37*
G04 #@! TD.AperFunction*
G04 #@! TA.AperFunction,SMDPad,CuDef*
G36*
G01*
X184399999Y-78650000D02*
X184399999Y-77350000D01*
G75*
G02*
X184649999Y-77100000I250000J0D01*
G01*
X185299999Y-77100000D01*
G75*
G02*
X185549999Y-77350000I0J-250000D01*
G01*
X185549999Y-78650000D01*
G75*
G02*
X185299999Y-78900000I-250000J0D01*
G01*
X184649999Y-78900000D01*
G75*
G02*
X184399999Y-78650000I0J250000D01*
G01*
G37*
G04 #@! TD.AperFunction*
D10*
X193999999Y-76000000D03*
D11*
X191459999Y-76000000D03*
X188919999Y-76000000D03*
G04 #@! TA.AperFunction,SMDPad,CuDef*
G36*
G01*
X142724999Y-87125000D02*
X142724999Y-85875000D01*
G75*
G02*
X142974999Y-85625000I250000J0D01*
G01*
X143599999Y-85625000D01*
G75*
G02*
X143849999Y-85875000I0J-250000D01*
G01*
X143849999Y-87125000D01*
G75*
G02*
X143599999Y-87375000I-250000J0D01*
G01*
X142974999Y-87375000D01*
G75*
G02*
X142724999Y-87125000I0J250000D01*
G01*
G37*
G04 #@! TD.AperFunction*
G04 #@! TA.AperFunction,SMDPad,CuDef*
G36*
G01*
X145649999Y-87125000D02*
X145649999Y-85875000D01*
G75*
G02*
X145899999Y-85625000I250000J0D01*
G01*
X146524999Y-85625000D01*
G75*
G02*
X146774999Y-85875000I0J-250000D01*
G01*
X146774999Y-87125000D01*
G75*
G02*
X146524999Y-87375000I-250000J0D01*
G01*
X145899999Y-87375000D01*
G75*
G02*
X145649999Y-87125000I0J250000D01*
G01*
G37*
G04 #@! TD.AperFunction*
D15*
X198100999Y-84750000D03*
D16*
X196525999Y-89000000D03*
X196525999Y-80500000D03*
G04 #@! TA.AperFunction,SMDPad,CuDef*
G36*
G01*
X168449999Y-83400000D02*
X168449999Y-82100000D01*
G75*
G02*
X168699999Y-81850000I250000J0D01*
G01*
X169349999Y-81850000D01*
G75*
G02*
X169599999Y-82100000I0J-250000D01*
G01*
X169599999Y-83400000D01*
G75*
G02*
X169349999Y-83650000I-250000J0D01*
G01*
X168699999Y-83650000D01*
G75*
G02*
X168449999Y-83400000I0J250000D01*
G01*
G37*
G04 #@! TD.AperFunction*
G04 #@! TA.AperFunction,SMDPad,CuDef*
G36*
G01*
X171399999Y-83400000D02*
X171399999Y-82100000D01*
G75*
G02*
X171649999Y-81850000I250000J0D01*
G01*
X172299999Y-81850000D01*
G75*
G02*
X172549999Y-82100000I0J-250000D01*
G01*
X172549999Y-83400000D01*
G75*
G02*
X172299999Y-83650000I-250000J0D01*
G01*
X171649999Y-83650000D01*
G75*
G02*
X171399999Y-83400000I0J250000D01*
G01*
G37*
G04 #@! TD.AperFunction*
G04 #@! TA.AperFunction,SMDPad,CuDef*
G36*
G01*
X178387999Y-82170000D02*
X177187999Y-82170000D01*
G75*
G02*
X177025499Y-82007500I0J162500D01*
G01*
X177025499Y-81682500D01*
G75*
G02*
X177187999Y-81520000I162500J0D01*
G01*
X178387999Y-81520000D01*
G75*
G02*
X178550499Y-81682500I0J-162500D01*
G01*
X178550499Y-82007500D01*
G75*
G02*
X178387999Y-82170000I-162500J0D01*
G01*
G37*
G04 #@! TD.AperFunction*
G04 #@! TA.AperFunction,SMDPad,CuDef*
G36*
G01*
X178387999Y-83440000D02*
X177187999Y-83440000D01*
G75*
G02*
X177025499Y-83277500I0J162500D01*
G01*
X177025499Y-82952500D01*
G75*
G02*
X177187999Y-82790000I162500J0D01*
G01*
X178387999Y-82790000D01*
G75*
G02*
X178550499Y-82952500I0J-162500D01*
G01*
X178550499Y-83277500D01*
G75*
G02*
X178387999Y-83440000I-162500J0D01*
G01*
G37*
G04 #@! TD.AperFunction*
G04 #@! TA.AperFunction,SMDPad,CuDef*
G36*
G01*
X178387999Y-84710000D02*
X177187999Y-84710000D01*
G75*
G02*
X177025499Y-84547500I0J162500D01*
G01*
X177025499Y-84222500D01*
G75*
G02*
X177187999Y-84060000I162500J0D01*
G01*
X178387999Y-84060000D01*
G75*
G02*
X178550499Y-84222500I0J-162500D01*
G01*
X178550499Y-84547500D01*
G75*
G02*
X178387999Y-84710000I-162500J0D01*
G01*
G37*
G04 #@! TD.AperFunction*
G04 #@! TA.AperFunction,SMDPad,CuDef*
G36*
G01*
X178387999Y-85980000D02*
X177187999Y-85980000D01*
G75*
G02*
X177025499Y-85817500I0J162500D01*
G01*
X177025499Y-85492500D01*
G75*
G02*
X177187999Y-85330000I162500J0D01*
G01*
X178387999Y-85330000D01*
G75*
G02*
X178550499Y-85492500I0J-162500D01*
G01*
X178550499Y-85817500D01*
G75*
G02*
X178387999Y-85980000I-162500J0D01*
G01*
G37*
G04 #@! TD.AperFunction*
G04 #@! TA.AperFunction,SMDPad,CuDef*
G36*
G01*
X183811999Y-85980000D02*
X182611999Y-85980000D01*
G75*
G02*
X182449499Y-85817500I0J162500D01*
G01*
X182449499Y-85492500D01*
G75*
G02*
X182611999Y-85330000I162500J0D01*
G01*
X183811999Y-85330000D01*
G75*
G02*
X183974499Y-85492500I0J-162500D01*
G01*
X183974499Y-85817500D01*
G75*
G02*
X183811999Y-85980000I-162500J0D01*
G01*
G37*
G04 #@! TD.AperFunction*
G04 #@! TA.AperFunction,SMDPad,CuDef*
G36*
G01*
X183811999Y-84710000D02*
X182611999Y-84710000D01*
G75*
G02*
X182449499Y-84547500I0J162500D01*
G01*
X182449499Y-84222500D01*
G75*
G02*
X182611999Y-84060000I162500J0D01*
G01*
X183811999Y-84060000D01*
G75*
G02*
X183974499Y-84222500I0J-162500D01*
G01*
X183974499Y-84547500D01*
G75*
G02*
X183811999Y-84710000I-162500J0D01*
G01*
G37*
G04 #@! TD.AperFunction*
G04 #@! TA.AperFunction,SMDPad,CuDef*
G36*
G01*
X183811999Y-83440000D02*
X182611999Y-83440000D01*
G75*
G02*
X182449499Y-83277500I0J162500D01*
G01*
X182449499Y-82952500D01*
G75*
G02*
X182611999Y-82790000I162500J0D01*
G01*
X183811999Y-82790000D01*
G75*
G02*
X183974499Y-82952500I0J-162500D01*
G01*
X183974499Y-83277500D01*
G75*
G02*
X183811999Y-83440000I-162500J0D01*
G01*
G37*
G04 #@! TD.AperFunction*
G04 #@! TA.AperFunction,SMDPad,CuDef*
G36*
G01*
X183811999Y-82170000D02*
X182611999Y-82170000D01*
G75*
G02*
X182449499Y-82007500I0J162500D01*
G01*
X182449499Y-81682500D01*
G75*
G02*
X182611999Y-81520000I162500J0D01*
G01*
X183811999Y-81520000D01*
G75*
G02*
X183974499Y-81682500I0J-162500D01*
G01*
X183974499Y-82007500D01*
G75*
G02*
X183811999Y-82170000I-162500J0D01*
G01*
G37*
G04 #@! TD.AperFunction*
G04 #@! TA.AperFunction,SMDPad,CuDef*
G36*
G01*
X190612499Y-89700000D02*
X190612499Y-90000000D01*
G75*
G02*
X190462499Y-90150000I-150000J0D01*
G01*
X189287499Y-90150000D01*
G75*
G02*
X189137499Y-90000000I0J150000D01*
G01*
X189137499Y-89700000D01*
G75*
G02*
X189287499Y-89550000I150000J0D01*
G01*
X190462499Y-89550000D01*
G75*
G02*
X190612499Y-89700000I0J-150000D01*
G01*
G37*
G04 #@! TD.AperFunction*
G04 #@! TA.AperFunction,SMDPad,CuDef*
G36*
G01*
X190612499Y-87800000D02*
X190612499Y-88100000D01*
G75*
G02*
X190462499Y-88250000I-150000J0D01*
G01*
X189287499Y-88250000D01*
G75*
G02*
X189137499Y-88100000I0J150000D01*
G01*
X189137499Y-87800000D01*
G75*
G02*
X189287499Y-87650000I150000J0D01*
G01*
X190462499Y-87650000D01*
G75*
G02*
X190612499Y-87800000I0J-150000D01*
G01*
G37*
G04 #@! TD.AperFunction*
G04 #@! TA.AperFunction,SMDPad,CuDef*
G36*
G01*
X188737499Y-88750000D02*
X188737499Y-89050000D01*
G75*
G02*
X188587499Y-89200000I-150000J0D01*
G01*
X187412499Y-89200000D01*
G75*
G02*
X187262499Y-89050000I0J150000D01*
G01*
X187262499Y-88750000D01*
G75*
G02*
X187412499Y-88600000I150000J0D01*
G01*
X188587499Y-88600000D01*
G75*
G02*
X188737499Y-88750000I0J-150000D01*
G01*
G37*
G04 #@! TD.AperFunction*
G04 #@! TA.AperFunction,SMDPad,CuDef*
G36*
G01*
X170549999Y-86150000D02*
X170549999Y-87550000D01*
G75*
G02*
X170299999Y-87800000I-250000J0D01*
G01*
X169749999Y-87800000D01*
G75*
G02*
X169499999Y-87550000I0J250000D01*
G01*
X169499999Y-86150000D01*
G75*
G02*
X169749999Y-85900000I250000J0D01*
G01*
X170299999Y-85900000D01*
G75*
G02*
X170549999Y-86150000I0J-250000D01*
G01*
G37*
G04 #@! TD.AperFunction*
G04 #@! TA.AperFunction,SMDPad,CuDef*
G36*
G01*
X167399999Y-86150000D02*
X167399999Y-87550000D01*
G75*
G02*
X167149999Y-87800000I-250000J0D01*
G01*
X166599999Y-87800000D01*
G75*
G02*
X166349999Y-87550000I0J250000D01*
G01*
X166349999Y-86150000D01*
G75*
G02*
X166599999Y-85900000I250000J0D01*
G01*
X167149999Y-85900000D01*
G75*
G02*
X167399999Y-86150000I0J-250000D01*
G01*
G37*
G04 #@! TD.AperFunction*
G04 #@! TA.AperFunction,SMDPad,CuDef*
G36*
G01*
X181449999Y-76400000D02*
X181449999Y-75100000D01*
G75*
G02*
X181699999Y-74850000I250000J0D01*
G01*
X182349999Y-74850000D01*
G75*
G02*
X182599999Y-75100000I0J-250000D01*
G01*
X182599999Y-76400000D01*
G75*
G02*
X182349999Y-76650000I-250000J0D01*
G01*
X181699999Y-76650000D01*
G75*
G02*
X181449999Y-76400000I0J250000D01*
G01*
G37*
G04 #@! TD.AperFunction*
G04 #@! TA.AperFunction,SMDPad,CuDef*
G36*
G01*
X184399999Y-76400000D02*
X184399999Y-75100000D01*
G75*
G02*
X184649999Y-74850000I250000J0D01*
G01*
X185299999Y-74850000D01*
G75*
G02*
X185549999Y-75100000I0J-250000D01*
G01*
X185549999Y-76400000D01*
G75*
G02*
X185299999Y-76650000I-250000J0D01*
G01*
X184649999Y-76650000D01*
G75*
G02*
X184399999Y-76400000I0J250000D01*
G01*
G37*
G04 #@! TD.AperFunction*
G04 #@! TA.AperFunction,SMDPad,CuDef*
G36*
G01*
X173949999Y-78900000D02*
X173949999Y-77600000D01*
G75*
G02*
X174199999Y-77350000I250000J0D01*
G01*
X174849999Y-77350000D01*
G75*
G02*
X175099999Y-77600000I0J-250000D01*
G01*
X175099999Y-78900000D01*
G75*
G02*
X174849999Y-79150000I-250000J0D01*
G01*
X174199999Y-79150000D01*
G75*
G02*
X173949999Y-78900000I0J250000D01*
G01*
G37*
G04 #@! TD.AperFunction*
G04 #@! TA.AperFunction,SMDPad,CuDef*
G36*
G01*
X176899999Y-78900000D02*
X176899999Y-77600000D01*
G75*
G02*
X177149999Y-77350000I250000J0D01*
G01*
X177799999Y-77350000D01*
G75*
G02*
X178049999Y-77600000I0J-250000D01*
G01*
X178049999Y-78900000D01*
G75*
G02*
X177799999Y-79150000I-250000J0D01*
G01*
X177149999Y-79150000D01*
G75*
G02*
X176899999Y-78900000I0J250000D01*
G01*
G37*
G04 #@! TD.AperFunction*
G04 #@! TA.AperFunction,SMDPad,CuDef*
G36*
G01*
X161599999Y-76500000D02*
X161599999Y-75200000D01*
G75*
G02*
X161849999Y-74950000I250000J0D01*
G01*
X162499999Y-74950000D01*
G75*
G02*
X162749999Y-75200000I0J-250000D01*
G01*
X162749999Y-76500000D01*
G75*
G02*
X162499999Y-76750000I-250000J0D01*
G01*
X161849999Y-76750000D01*
G75*
G02*
X161599999Y-76500000I0J250000D01*
G01*
G37*
G04 #@! TD.AperFunction*
G04 #@! TA.AperFunction,SMDPad,CuDef*
G36*
G01*
X164549999Y-76500000D02*
X164549999Y-75200000D01*
G75*
G02*
X164799999Y-74950000I250000J0D01*
G01*
X165449999Y-74950000D01*
G75*
G02*
X165699999Y-75200000I0J-250000D01*
G01*
X165699999Y-76500000D01*
G75*
G02*
X165449999Y-76750000I-250000J0D01*
G01*
X164799999Y-76750000D01*
G75*
G02*
X164549999Y-76500000I0J250000D01*
G01*
G37*
G04 #@! TD.AperFunction*
G04 #@! TA.AperFunction,SMDPad,CuDef*
G36*
G01*
X142724999Y-83125000D02*
X142724999Y-81875000D01*
G75*
G02*
X142974999Y-81625000I250000J0D01*
G01*
X143599999Y-81625000D01*
G75*
G02*
X143849999Y-81875000I0J-250000D01*
G01*
X143849999Y-83125000D01*
G75*
G02*
X143599999Y-83375000I-250000J0D01*
G01*
X142974999Y-83375000D01*
G75*
G02*
X142724999Y-83125000I0J250000D01*
G01*
G37*
G04 #@! TD.AperFunction*
G04 #@! TA.AperFunction,SMDPad,CuDef*
G36*
G01*
X145649999Y-83125000D02*
X145649999Y-81875000D01*
G75*
G02*
X145899999Y-81625000I250000J0D01*
G01*
X146524999Y-81625000D01*
G75*
G02*
X146774999Y-81875000I0J-250000D01*
G01*
X146774999Y-83125000D01*
G75*
G02*
X146524999Y-83375000I-250000J0D01*
G01*
X145899999Y-83375000D01*
G75*
G02*
X145649999Y-83125000I0J250000D01*
G01*
G37*
G04 #@! TD.AperFunction*
G04 #@! TA.AperFunction,SMDPad,CuDef*
G36*
G01*
X113850002Y-80450001D02*
X115150002Y-80450001D01*
G75*
G02*
X115400002Y-80700001I0J-250000D01*
G01*
X115400002Y-81350001D01*
G75*
G02*
X115150002Y-81600001I-250000J0D01*
G01*
X113850002Y-81600001D01*
G75*
G02*
X113600002Y-81350001I0J250000D01*
G01*
X113600002Y-80700001D01*
G75*
G02*
X113850002Y-80450001I250000J0D01*
G01*
G37*
G04 #@! TD.AperFunction*
G04 #@! TA.AperFunction,SMDPad,CuDef*
G36*
G01*
X113850002Y-83400001D02*
X115150002Y-83400001D01*
G75*
G02*
X115400002Y-83650001I0J-250000D01*
G01*
X115400002Y-84300001D01*
G75*
G02*
X115150002Y-84550001I-250000J0D01*
G01*
X113850002Y-84550001D01*
G75*
G02*
X113600002Y-84300001I0J250000D01*
G01*
X113600002Y-83650001D01*
G75*
G02*
X113850002Y-83400001I250000J0D01*
G01*
G37*
G04 #@! TD.AperFunction*
G04 #@! TA.AperFunction,SMDPad,CuDef*
G36*
G01*
X162762499Y-90975000D02*
X161837499Y-90975000D01*
G75*
G02*
X161749999Y-90887500I0J87500D01*
G01*
X161749999Y-90712500D01*
G75*
G02*
X161837499Y-90625000I87500J0D01*
G01*
X162762499Y-90625000D01*
G75*
G02*
X162849999Y-90712500I0J-87500D01*
G01*
X162849999Y-90887500D01*
G75*
G02*
X162762499Y-90975000I-87500J0D01*
G01*
G37*
G04 #@! TD.AperFunction*
G04 #@! TA.AperFunction,SMDPad,CuDef*
G36*
G01*
X162762499Y-91775000D02*
X161837499Y-91775000D01*
G75*
G02*
X161749999Y-91687500I0J87500D01*
G01*
X161749999Y-91512500D01*
G75*
G02*
X161837499Y-91425000I87500J0D01*
G01*
X162762499Y-91425000D01*
G75*
G02*
X162849999Y-91512500I0J-87500D01*
G01*
X162849999Y-91687500D01*
G75*
G02*
X162762499Y-91775000I-87500J0D01*
G01*
G37*
G04 #@! TD.AperFunction*
G04 #@! TA.AperFunction,SMDPad,CuDef*
G36*
G01*
X162762499Y-92575000D02*
X161837499Y-92575000D01*
G75*
G02*
X161749999Y-92487500I0J87500D01*
G01*
X161749999Y-92312500D01*
G75*
G02*
X161837499Y-92225000I87500J0D01*
G01*
X162762499Y-92225000D01*
G75*
G02*
X162849999Y-92312500I0J-87500D01*
G01*
X162849999Y-92487500D01*
G75*
G02*
X162762499Y-92575000I-87500J0D01*
G01*
G37*
G04 #@! TD.AperFunction*
G04 #@! TA.AperFunction,SMDPad,CuDef*
G36*
G01*
X163174999Y-93912500D02*
X163174999Y-92987500D01*
G75*
G02*
X163262499Y-92900000I87500J0D01*
G01*
X163437499Y-92900000D01*
G75*
G02*
X163524999Y-92987500I0J-87500D01*
G01*
X163524999Y-93912500D01*
G75*
G02*
X163437499Y-94000000I-87500J0D01*
G01*
X163262499Y-94000000D01*
G75*
G02*
X163174999Y-93912500I0J87500D01*
G01*
G37*
G04 #@! TD.AperFunction*
G04 #@! TA.AperFunction,SMDPad,CuDef*
G36*
G01*
X163974999Y-93912500D02*
X163974999Y-92987500D01*
G75*
G02*
X164062499Y-92900000I87500J0D01*
G01*
X164237499Y-92900000D01*
G75*
G02*
X164324999Y-92987500I0J-87500D01*
G01*
X164324999Y-93912500D01*
G75*
G02*
X164237499Y-94000000I-87500J0D01*
G01*
X164062499Y-94000000D01*
G75*
G02*
X163974999Y-93912500I0J87500D01*
G01*
G37*
G04 #@! TD.AperFunction*
G04 #@! TA.AperFunction,SMDPad,CuDef*
G36*
G01*
X164774999Y-93912500D02*
X164774999Y-92987500D01*
G75*
G02*
X164862499Y-92900000I87500J0D01*
G01*
X165037499Y-92900000D01*
G75*
G02*
X165124999Y-92987500I0J-87500D01*
G01*
X165124999Y-93912500D01*
G75*
G02*
X165037499Y-94000000I-87500J0D01*
G01*
X164862499Y-94000000D01*
G75*
G02*
X164774999Y-93912500I0J87500D01*
G01*
G37*
G04 #@! TD.AperFunction*
G04 #@! TA.AperFunction,SMDPad,CuDef*
G36*
G01*
X166462499Y-92575000D02*
X165537499Y-92575000D01*
G75*
G02*
X165449999Y-92487500I0J87500D01*
G01*
X165449999Y-92312500D01*
G75*
G02*
X165537499Y-92225000I87500J0D01*
G01*
X166462499Y-92225000D01*
G75*
G02*
X166549999Y-92312500I0J-87500D01*
G01*
X166549999Y-92487500D01*
G75*
G02*
X166462499Y-92575000I-87500J0D01*
G01*
G37*
G04 #@! TD.AperFunction*
G04 #@! TA.AperFunction,SMDPad,CuDef*
G36*
G01*
X166462499Y-91775000D02*
X165537499Y-91775000D01*
G75*
G02*
X165449999Y-91687500I0J87500D01*
G01*
X165449999Y-91512500D01*
G75*
G02*
X165537499Y-91425000I87500J0D01*
G01*
X166462499Y-91425000D01*
G75*
G02*
X166549999Y-91512500I0J-87500D01*
G01*
X166549999Y-91687500D01*
G75*
G02*
X166462499Y-91775000I-87500J0D01*
G01*
G37*
G04 #@! TD.AperFunction*
G04 #@! TA.AperFunction,SMDPad,CuDef*
G36*
G01*
X166462499Y-90975000D02*
X165537499Y-90975000D01*
G75*
G02*
X165449999Y-90887500I0J87500D01*
G01*
X165449999Y-90712500D01*
G75*
G02*
X165537499Y-90625000I87500J0D01*
G01*
X166462499Y-90625000D01*
G75*
G02*
X166549999Y-90712500I0J-87500D01*
G01*
X166549999Y-90887500D01*
G75*
G02*
X166462499Y-90975000I-87500J0D01*
G01*
G37*
G04 #@! TD.AperFunction*
G04 #@! TA.AperFunction,SMDPad,CuDef*
G36*
G01*
X164774999Y-90212500D02*
X164774999Y-89287500D01*
G75*
G02*
X164862499Y-89200000I87500J0D01*
G01*
X165037499Y-89200000D01*
G75*
G02*
X165124999Y-89287500I0J-87500D01*
G01*
X165124999Y-90212500D01*
G75*
G02*
X165037499Y-90300000I-87500J0D01*
G01*
X164862499Y-90300000D01*
G75*
G02*
X164774999Y-90212500I0J87500D01*
G01*
G37*
G04 #@! TD.AperFunction*
G04 #@! TA.AperFunction,SMDPad,CuDef*
G36*
G01*
X163974999Y-90212500D02*
X163974999Y-89287500D01*
G75*
G02*
X164062499Y-89200000I87500J0D01*
G01*
X164237499Y-89200000D01*
G75*
G02*
X164324999Y-89287500I0J-87500D01*
G01*
X164324999Y-90212500D01*
G75*
G02*
X164237499Y-90300000I-87500J0D01*
G01*
X164062499Y-90300000D01*
G75*
G02*
X163974999Y-90212500I0J87500D01*
G01*
G37*
G04 #@! TD.AperFunction*
G04 #@! TA.AperFunction,SMDPad,CuDef*
G36*
G01*
X163174999Y-90212500D02*
X163174999Y-89287500D01*
G75*
G02*
X163262499Y-89200000I87500J0D01*
G01*
X163437499Y-89200000D01*
G75*
G02*
X163524999Y-89287500I0J-87500D01*
G01*
X163524999Y-90212500D01*
G75*
G02*
X163437499Y-90300000I-87500J0D01*
G01*
X163262499Y-90300000D01*
G75*
G02*
X163174999Y-90212500I0J87500D01*
G01*
G37*
G04 #@! TD.AperFunction*
D13*
X164149999Y-91600000D03*
G04 #@! TA.AperFunction,SMDPad,CuDef*
G36*
G01*
X178387999Y-88920000D02*
X177187999Y-88920000D01*
G75*
G02*
X177025499Y-88757500I0J162500D01*
G01*
X177025499Y-88432500D01*
G75*
G02*
X177187999Y-88270000I162500J0D01*
G01*
X178387999Y-88270000D01*
G75*
G02*
X178550499Y-88432500I0J-162500D01*
G01*
X178550499Y-88757500D01*
G75*
G02*
X178387999Y-88920000I-162500J0D01*
G01*
G37*
G04 #@! TD.AperFunction*
G04 #@! TA.AperFunction,SMDPad,CuDef*
G36*
G01*
X178387999Y-90190000D02*
X177187999Y-90190000D01*
G75*
G02*
X177025499Y-90027500I0J162500D01*
G01*
X177025499Y-89702500D01*
G75*
G02*
X177187999Y-89540000I162500J0D01*
G01*
X178387999Y-89540000D01*
G75*
G02*
X178550499Y-89702500I0J-162500D01*
G01*
X178550499Y-90027500D01*
G75*
G02*
X178387999Y-90190000I-162500J0D01*
G01*
G37*
G04 #@! TD.AperFunction*
G04 #@! TA.AperFunction,SMDPad,CuDef*
G36*
G01*
X178387999Y-91460000D02*
X177187999Y-91460000D01*
G75*
G02*
X177025499Y-91297500I0J162500D01*
G01*
X177025499Y-90972500D01*
G75*
G02*
X177187999Y-90810000I162500J0D01*
G01*
X178387999Y-90810000D01*
G75*
G02*
X178550499Y-90972500I0J-162500D01*
G01*
X178550499Y-91297500D01*
G75*
G02*
X178387999Y-91460000I-162500J0D01*
G01*
G37*
G04 #@! TD.AperFunction*
G04 #@! TA.AperFunction,SMDPad,CuDef*
G36*
G01*
X178387999Y-92730000D02*
X177187999Y-92730000D01*
G75*
G02*
X177025499Y-92567500I0J162500D01*
G01*
X177025499Y-92242500D01*
G75*
G02*
X177187999Y-92080000I162500J0D01*
G01*
X178387999Y-92080000D01*
G75*
G02*
X178550499Y-92242500I0J-162500D01*
G01*
X178550499Y-92567500D01*
G75*
G02*
X178387999Y-92730000I-162500J0D01*
G01*
G37*
G04 #@! TD.AperFunction*
G04 #@! TA.AperFunction,SMDPad,CuDef*
G36*
G01*
X183811999Y-92730000D02*
X182611999Y-92730000D01*
G75*
G02*
X182449499Y-92567500I0J162500D01*
G01*
X182449499Y-92242500D01*
G75*
G02*
X182611999Y-92080000I162500J0D01*
G01*
X183811999Y-92080000D01*
G75*
G02*
X183974499Y-92242500I0J-162500D01*
G01*
X183974499Y-92567500D01*
G75*
G02*
X183811999Y-92730000I-162500J0D01*
G01*
G37*
G04 #@! TD.AperFunction*
G04 #@! TA.AperFunction,SMDPad,CuDef*
G36*
G01*
X183811999Y-91460000D02*
X182611999Y-91460000D01*
G75*
G02*
X182449499Y-91297500I0J162500D01*
G01*
X182449499Y-90972500D01*
G75*
G02*
X182611999Y-90810000I162500J0D01*
G01*
X183811999Y-90810000D01*
G75*
G02*
X183974499Y-90972500I0J-162500D01*
G01*
X183974499Y-91297500D01*
G75*
G02*
X183811999Y-91460000I-162500J0D01*
G01*
G37*
G04 #@! TD.AperFunction*
G04 #@! TA.AperFunction,SMDPad,CuDef*
G36*
G01*
X183811999Y-90190000D02*
X182611999Y-90190000D01*
G75*
G02*
X182449499Y-90027500I0J162500D01*
G01*
X182449499Y-89702500D01*
G75*
G02*
X182611999Y-89540000I162500J0D01*
G01*
X183811999Y-89540000D01*
G75*
G02*
X183974499Y-89702500I0J-162500D01*
G01*
X183974499Y-90027500D01*
G75*
G02*
X183811999Y-90190000I-162500J0D01*
G01*
G37*
G04 #@! TD.AperFunction*
G04 #@! TA.AperFunction,SMDPad,CuDef*
G36*
G01*
X183811999Y-88920000D02*
X182611999Y-88920000D01*
G75*
G02*
X182449499Y-88757500I0J162500D01*
G01*
X182449499Y-88432500D01*
G75*
G02*
X182611999Y-88270000I162500J0D01*
G01*
X183811999Y-88270000D01*
G75*
G02*
X183974499Y-88432500I0J-162500D01*
G01*
X183974499Y-88757500D01*
G75*
G02*
X183811999Y-88920000I-162500J0D01*
G01*
G37*
G04 #@! TD.AperFunction*
G04 #@! TA.AperFunction,SMDPad,CuDef*
G36*
G01*
X152049999Y-80550000D02*
X151149999Y-80550000D01*
G75*
G02*
X150999999Y-80400000I0J150000D01*
G01*
X150999999Y-80100000D01*
G75*
G02*
X151149999Y-79950000I150000J0D01*
G01*
X152049999Y-79950000D01*
G75*
G02*
X152199999Y-80100000I0J-150000D01*
G01*
X152199999Y-80400000D01*
G75*
G02*
X152049999Y-80550000I-150000J0D01*
G01*
G37*
G04 #@! TD.AperFunction*
G04 #@! TA.AperFunction,SMDPad,CuDef*
G36*
G01*
X152049999Y-81500000D02*
X151149999Y-81500000D01*
G75*
G02*
X150999999Y-81350000I0J150000D01*
G01*
X150999999Y-81050000D01*
G75*
G02*
X151149999Y-80900000I150000J0D01*
G01*
X152049999Y-80900000D01*
G75*
G02*
X152199999Y-81050000I0J-150000D01*
G01*
X152199999Y-81350000D01*
G75*
G02*
X152049999Y-81500000I-150000J0D01*
G01*
G37*
G04 #@! TD.AperFunction*
G04 #@! TA.AperFunction,SMDPad,CuDef*
G36*
G01*
X152049999Y-82450000D02*
X151149999Y-82450000D01*
G75*
G02*
X150999999Y-82300000I0J150000D01*
G01*
X150999999Y-82000000D01*
G75*
G02*
X151149999Y-81850000I150000J0D01*
G01*
X152049999Y-81850000D01*
G75*
G02*
X152199999Y-82000000I0J-150000D01*
G01*
X152199999Y-82300000D01*
G75*
G02*
X152049999Y-82450000I-150000J0D01*
G01*
G37*
G04 #@! TD.AperFunction*
G04 #@! TA.AperFunction,SMDPad,CuDef*
G36*
G01*
X154549999Y-82450000D02*
X153649999Y-82450000D01*
G75*
G02*
X153499999Y-82300000I0J150000D01*
G01*
X153499999Y-82000000D01*
G75*
G02*
X153649999Y-81850000I150000J0D01*
G01*
X154549999Y-81850000D01*
G75*
G02*
X154699999Y-82000000I0J-150000D01*
G01*
X154699999Y-82300000D01*
G75*
G02*
X154549999Y-82450000I-150000J0D01*
G01*
G37*
G04 #@! TD.AperFunction*
G04 #@! TA.AperFunction,SMDPad,CuDef*
G36*
G01*
X154549999Y-81500000D02*
X153649999Y-81500000D01*
G75*
G02*
X153499999Y-81350000I0J150000D01*
G01*
X153499999Y-81050000D01*
G75*
G02*
X153649999Y-80900000I150000J0D01*
G01*
X154549999Y-80900000D01*
G75*
G02*
X154699999Y-81050000I0J-150000D01*
G01*
X154699999Y-81350000D01*
G75*
G02*
X154549999Y-81500000I-150000J0D01*
G01*
G37*
G04 #@! TD.AperFunction*
G04 #@! TA.AperFunction,SMDPad,CuDef*
G36*
G01*
X154549999Y-80550000D02*
X153649999Y-80550000D01*
G75*
G02*
X153499999Y-80400000I0J150000D01*
G01*
X153499999Y-80100000D01*
G75*
G02*
X153649999Y-79950000I150000J0D01*
G01*
X154549999Y-79950000D01*
G75*
G02*
X154699999Y-80100000I0J-150000D01*
G01*
X154699999Y-80400000D01*
G75*
G02*
X154549999Y-80550000I-150000J0D01*
G01*
G37*
G04 #@! TD.AperFunction*
G04 #@! TA.AperFunction,SMDPad,CuDef*
G36*
G01*
X144624999Y-75775000D02*
X144624999Y-74525000D01*
G75*
G02*
X144874999Y-74275000I250000J0D01*
G01*
X145499999Y-74275000D01*
G75*
G02*
X145749999Y-74525000I0J-250000D01*
G01*
X145749999Y-75775000D01*
G75*
G02*
X145499999Y-76025000I-250000J0D01*
G01*
X144874999Y-76025000D01*
G75*
G02*
X144624999Y-75775000I0J250000D01*
G01*
G37*
G04 #@! TD.AperFunction*
G04 #@! TA.AperFunction,SMDPad,CuDef*
G36*
G01*
X147549999Y-75775000D02*
X147549999Y-74525000D01*
G75*
G02*
X147799999Y-74275000I250000J0D01*
G01*
X148424999Y-74275000D01*
G75*
G02*
X148674999Y-74525000I0J-250000D01*
G01*
X148674999Y-75775000D01*
G75*
G02*
X148424999Y-76025000I-250000J0D01*
G01*
X147799999Y-76025000D01*
G75*
G02*
X147549999Y-75775000I0J250000D01*
G01*
G37*
G04 #@! TD.AperFunction*
G04 #@! TA.AperFunction,SMDPad,CuDef*
G36*
G01*
X142724999Y-80875000D02*
X142724999Y-79625000D01*
G75*
G02*
X142974999Y-79375000I250000J0D01*
G01*
X143599999Y-79375000D01*
G75*
G02*
X143849999Y-79625000I0J-250000D01*
G01*
X143849999Y-80875000D01*
G75*
G02*
X143599999Y-81125000I-250000J0D01*
G01*
X142974999Y-81125000D01*
G75*
G02*
X142724999Y-80875000I0J250000D01*
G01*
G37*
G04 #@! TD.AperFunction*
G04 #@! TA.AperFunction,SMDPad,CuDef*
G36*
G01*
X145649999Y-80875000D02*
X145649999Y-79625000D01*
G75*
G02*
X145899999Y-79375000I250000J0D01*
G01*
X146524999Y-79375000D01*
G75*
G02*
X146774999Y-79625000I0J-250000D01*
G01*
X146774999Y-80875000D01*
G75*
G02*
X146524999Y-81125000I-250000J0D01*
G01*
X145899999Y-81125000D01*
G75*
G02*
X145649999Y-80875000I0J250000D01*
G01*
G37*
G04 #@! TD.AperFunction*
D10*
X127750002Y-76000001D03*
D11*
X125210002Y-76000001D03*
X122670002Y-76000001D03*
D10*
X122670002Y-94000001D03*
D11*
X125210002Y-94000001D03*
D17*
X186999999Y-80750000D03*
X198199999Y-77150000D03*
X148999999Y-89750000D03*
X129500002Y-75250001D03*
X128750002Y-85500001D03*
X159499999Y-90000000D03*
X117750002Y-85500001D03*
X148749999Y-79250000D03*
X159499999Y-92000000D03*
X163499999Y-91000000D03*
X131750002Y-91750001D03*
X173999999Y-89500000D03*
X153999999Y-89250000D03*
X169499999Y-84750000D03*
X179499999Y-75750000D03*
X116500002Y-82500001D03*
X113250002Y-94750001D03*
X172999999Y-88400000D03*
X181249999Y-91500000D03*
X128750002Y-88500001D03*
X168749999Y-93000000D03*
X131750002Y-75250001D03*
X182499999Y-94000000D03*
X172999999Y-77500000D03*
X148949999Y-82100000D03*
X197499999Y-92300000D03*
X113250002Y-79500001D03*
X188499999Y-79250000D03*
X165749999Y-84750000D03*
X191499999Y-83750000D03*
X181249999Y-94000000D03*
X181249999Y-90250000D03*
X186999999Y-79250000D03*
X164749999Y-91000000D03*
X153249999Y-88500000D03*
X196249999Y-95250000D03*
X197499999Y-95250000D03*
X131750002Y-83750001D03*
X164749999Y-92250000D03*
X198749999Y-92300000D03*
X195999999Y-77150000D03*
X113250002Y-91250001D03*
X113250002Y-75250001D03*
X196249999Y-92300000D03*
X186999999Y-82250000D03*
X181249999Y-82250000D03*
X150399999Y-76450000D03*
X171249999Y-88500000D03*
X193149999Y-89300000D03*
X192999999Y-83500000D03*
X159499999Y-89000000D03*
X186999999Y-92250000D03*
X181249999Y-92750000D03*
X147749999Y-80250000D03*
X124250002Y-82500001D03*
X144499999Y-93000000D03*
X193149999Y-90450000D03*
X154749999Y-90000000D03*
X189999999Y-83000000D03*
X194999999Y-92300000D03*
X124000002Y-80000001D03*
X193149999Y-87900000D03*
X183999999Y-87000000D03*
X180249999Y-89250000D03*
X187999999Y-83000000D03*
X148999999Y-87750000D03*
X144499999Y-90500000D03*
X187049999Y-94000000D03*
X140499999Y-79000000D03*
X117750002Y-88000001D03*
X181249999Y-83250000D03*
X180499999Y-76750000D03*
X169999999Y-93000000D03*
X141999999Y-95500000D03*
X154749999Y-88500000D03*
X114500002Y-79500001D03*
X148999999Y-86750000D03*
X172749999Y-93100000D03*
X173999999Y-87500000D03*
X163499999Y-80500000D03*
X193749999Y-92300000D03*
X163749999Y-84750000D03*
X192999999Y-79250000D03*
X192999999Y-82250000D03*
X131750002Y-88000001D03*
X181249999Y-84250000D03*
X143499999Y-74500000D03*
X143749999Y-95500000D03*
X164749999Y-81750000D03*
X160649999Y-81100000D03*
X193749999Y-95250000D03*
X172999999Y-86500000D03*
X173999999Y-93100000D03*
X131750002Y-79250001D03*
X170499999Y-84750000D03*
X192999999Y-80750000D03*
X159499999Y-91000000D03*
X185499999Y-94000000D03*
X164749999Y-80500000D03*
X192249999Y-84500000D03*
X163499999Y-92250000D03*
X163499999Y-81750000D03*
X121000002Y-85500001D03*
X175749999Y-89500000D03*
X183999999Y-94000000D03*
X148999999Y-88750000D03*
X166999999Y-84750000D03*
X114250002Y-76250001D03*
X161999999Y-84750000D03*
X191499999Y-79250000D03*
X185499999Y-87000000D03*
X179499999Y-88500000D03*
X189999999Y-79250000D03*
X117500002Y-78500001D03*
X119750002Y-82500001D03*
X125000002Y-85500001D03*
X141499999Y-74500000D03*
X142249999Y-90500000D03*
X198749999Y-94500000D03*
X150049999Y-81200000D03*
X125000002Y-88000001D03*
X194999999Y-95250000D03*
X128750002Y-82000001D03*
X145249999Y-94200000D03*
X159899999Y-76500000D03*
D18*
X167649999Y-81100000D03*
D17*
X171649999Y-86850000D03*
X171749999Y-76000000D03*
X167374999Y-91650000D03*
X149449999Y-93850000D03*
X146899999Y-84250000D03*
X152949999Y-91350000D03*
X160974999Y-90050000D03*
X151199999Y-84900000D03*
X155599999Y-77700000D03*
X147999999Y-77100000D03*
X155849999Y-91850000D03*
X157599999Y-91850000D03*
X160974999Y-79650000D03*
X150049999Y-82800000D03*
X157774999Y-84975000D03*
X156349999Y-84975000D03*
X147999999Y-78150000D03*
X155849999Y-74950000D03*
X152312499Y-85037500D03*
X160974999Y-82450000D03*
X155974999Y-82350000D03*
X163349999Y-77600000D03*
X147799999Y-85300000D03*
X162449999Y-88850000D03*
X155699999Y-80050000D03*
X160974999Y-92850000D03*
X179699999Y-78500000D03*
X178749999Y-78550000D03*
D19*
X125210002Y-76000001D02*
X125210002Y-77960001D01*
D20*
X164124999Y-91625000D02*
X164149999Y-91600000D01*
X163349999Y-92400000D02*
X164124999Y-91625000D01*
D21*
X162299999Y-81100000D02*
X160649999Y-81100000D01*
X163349999Y-82950000D02*
X163349999Y-81900000D01*
D20*
X197499999Y-77000000D02*
X197499999Y-79300000D01*
D21*
X162299999Y-91600000D02*
X160624999Y-91600000D01*
D20*
X157699999Y-74000000D02*
X156299999Y-74000000D01*
D22*
X160624999Y-91600000D02*
X160574999Y-91650000D01*
D21*
X163549999Y-91600000D02*
X162499999Y-91600000D01*
D20*
X114500002Y-81025001D02*
X114500002Y-79500001D01*
X151599999Y-76450000D02*
X150399999Y-76450000D01*
D22*
X172999999Y-77250000D02*
X173124999Y-77250000D01*
D20*
X146212499Y-80250000D02*
X146212499Y-82500000D01*
D21*
X163349999Y-93450000D02*
X163349999Y-95000000D01*
D20*
X157724999Y-83275000D02*
X159399999Y-84950000D01*
D21*
X163349999Y-82950000D02*
X163349999Y-84500000D01*
D20*
X154799999Y-74000000D02*
X154699999Y-74100000D01*
X122210002Y-80075001D02*
X123925002Y-80075001D01*
X151599999Y-81200000D02*
X150049999Y-81200000D01*
D21*
X164949999Y-93450000D02*
X164949999Y-92400000D01*
D20*
X192849999Y-81600000D02*
X195149999Y-81600000D01*
X125210002Y-77960001D02*
X125250002Y-78000001D01*
X198599999Y-77050000D02*
X198599999Y-79350000D01*
X180249999Y-75750000D02*
X182024999Y-75750000D01*
X195399999Y-88800000D02*
X193099999Y-88800000D01*
D21*
X164149999Y-82950000D02*
X164149999Y-84500000D01*
D20*
X195599999Y-87450000D02*
X193299999Y-87450000D01*
X198699999Y-90750000D02*
X198699999Y-93050000D01*
D21*
X164949999Y-93450000D02*
X164949999Y-95000000D01*
D20*
X157649999Y-75175000D02*
X157649999Y-74050000D01*
X123925002Y-80075001D02*
X124000002Y-80000001D01*
D21*
X164949999Y-82950000D02*
X164949999Y-81900000D01*
D20*
X159899999Y-74000000D02*
X160049999Y-74150000D01*
D21*
X164149999Y-93450000D02*
X164149999Y-92400000D01*
D20*
X156299999Y-74000000D02*
X159899999Y-74000000D01*
D21*
X163349999Y-93450000D02*
X163349999Y-92400000D01*
D20*
X115775002Y-76250001D02*
X114250002Y-76250001D01*
D21*
X164149999Y-93450000D02*
X164149999Y-95000000D01*
X162299999Y-81100000D02*
X163349999Y-81100000D01*
D20*
X195049999Y-90650000D02*
X195049999Y-92950000D01*
X192899999Y-79200000D02*
X195199999Y-79200000D01*
X157649999Y-74050000D02*
X157699999Y-74000000D01*
X157337499Y-83450000D02*
X154962499Y-83450000D01*
D21*
X164149999Y-82950000D02*
X164149999Y-81900000D01*
D20*
X195349999Y-91150000D02*
X193049999Y-91150000D01*
X192925999Y-80500000D02*
X195225999Y-80500000D01*
D22*
X177787999Y-91135000D02*
X177384999Y-91135000D01*
D20*
X196999999Y-90750000D02*
X196999999Y-93050000D01*
X156299999Y-74000000D02*
X154799999Y-74000000D01*
X195399999Y-90000000D02*
X193099999Y-90000000D01*
D21*
X164949999Y-82950000D02*
X164949999Y-84500000D01*
D20*
X157649999Y-83275000D02*
X157724999Y-83275000D01*
X196349999Y-77050000D02*
X196349999Y-79350000D01*
D22*
X165124999Y-75850000D02*
X166824999Y-75850000D01*
D21*
X164149999Y-78150000D02*
X165124999Y-77175000D01*
X165124999Y-77175000D02*
X165124999Y-75850000D01*
X164149999Y-79250000D02*
X164149999Y-78150000D01*
D20*
X170024999Y-86850000D02*
X171649999Y-86850000D01*
X165999999Y-81100000D02*
X167649999Y-81100000D01*
X150439999Y-90810000D02*
X150439999Y-86650000D01*
X170024999Y-87225000D02*
X168399999Y-88850000D01*
X147249999Y-93975000D02*
X147274999Y-93975000D01*
D23*
X119225002Y-91475001D02*
X117325002Y-89575001D01*
X117325002Y-89575001D02*
X114500002Y-89575001D01*
D20*
X158974999Y-78125000D02*
X157649999Y-78125000D01*
X169974999Y-76525000D02*
X168849999Y-77650000D01*
X165574999Y-88850000D02*
X165074999Y-89350000D01*
X147274999Y-93975000D02*
X150439999Y-90810000D01*
X156099999Y-76450000D02*
X154099999Y-76450000D01*
X170024999Y-86850000D02*
X170024999Y-87225000D01*
X159899999Y-76500000D02*
X159899999Y-77200000D01*
X169974999Y-75850000D02*
X169974999Y-76525000D01*
X145249999Y-94200000D02*
X147024999Y-94200000D01*
X154099999Y-81200000D02*
X156774999Y-81200000D01*
X156774999Y-81200000D02*
X157649999Y-80325000D01*
X171749999Y-76000000D02*
X171599999Y-75850000D01*
X167324999Y-91600000D02*
X167374999Y-91650000D01*
X159899999Y-77200000D02*
X158974999Y-78125000D01*
X165074999Y-89350000D02*
X165074999Y-89750000D01*
D23*
X119225002Y-94000001D02*
X122670002Y-94000001D01*
D20*
X166249999Y-77650000D02*
X164949999Y-78950000D01*
X157649999Y-78125000D02*
X157649999Y-78000000D01*
X168399999Y-88850000D02*
X165574999Y-88850000D01*
X168849999Y-77650000D02*
X166249999Y-77650000D01*
X157649999Y-78125000D02*
X157649999Y-80325000D01*
X157649999Y-78000000D02*
X156099999Y-76450000D01*
X165999999Y-91600000D02*
X167324999Y-91600000D01*
X171599999Y-75850000D02*
X169974999Y-75850000D01*
X147024999Y-94200000D02*
X147249999Y-93975000D01*
X164949999Y-78950000D02*
X164949999Y-79225000D01*
D23*
X119225002Y-94000001D02*
X119225002Y-91475001D01*
D22*
X167649999Y-79250000D02*
X169024999Y-79250000D01*
X165999999Y-80300000D02*
X166599999Y-80300000D01*
X166599999Y-80300000D02*
X167649999Y-79250000D01*
X171974999Y-79475000D02*
X171974999Y-79250000D01*
X175749999Y-86750000D02*
X173249999Y-84250000D01*
X173249999Y-84250000D02*
X173249999Y-80750000D01*
X178404999Y-85655000D02*
X178749999Y-86000000D01*
X178749999Y-86000000D02*
X178749999Y-86375000D01*
X173249999Y-80750000D02*
X171974999Y-79475000D01*
X177787999Y-85655000D02*
X178404999Y-85655000D01*
X178749999Y-86375000D02*
X178374999Y-86750000D01*
X178374999Y-86750000D02*
X175749999Y-86750000D01*
X165999999Y-81900000D02*
X166499999Y-81900000D01*
X166499999Y-81900000D02*
X167349999Y-82750000D01*
X167349999Y-82750000D02*
X169024999Y-82750000D01*
X177787999Y-83115000D02*
X178739999Y-83115000D01*
X178499999Y-87500000D02*
X175499999Y-87500000D01*
X178739999Y-83115000D02*
X179499999Y-83875000D01*
X175499999Y-87500000D02*
X172499999Y-84500000D01*
X179499999Y-86500000D02*
X178499999Y-87500000D01*
X172499999Y-84500000D02*
X172499999Y-83275000D01*
X172499999Y-83275000D02*
X171974999Y-82750000D01*
X179499999Y-83875000D02*
X179499999Y-86500000D01*
D20*
X165174999Y-86850000D02*
X166874999Y-86850000D01*
D22*
X165174999Y-87950000D02*
X165174999Y-86850000D01*
X164149999Y-88975000D02*
X165174999Y-87950000D01*
X164149999Y-89750000D02*
X164149999Y-88975000D01*
X169224999Y-90450000D02*
X169274999Y-90500000D01*
X165999999Y-90800000D02*
X166699999Y-90800000D01*
X166699999Y-90800000D02*
X167049999Y-90450000D01*
X167049999Y-90450000D02*
X169224999Y-90450000D01*
X178749999Y-93500000D02*
X176099999Y-93500000D01*
X178654999Y-92405000D02*
X178999999Y-92750000D01*
X177787999Y-92405000D02*
X178654999Y-92405000D01*
X176099999Y-93500000D02*
X173099999Y-90500000D01*
X173099999Y-90500000D02*
X172224999Y-90500000D01*
X178999999Y-93250000D02*
X178749999Y-93500000D01*
X178999999Y-92750000D02*
X178999999Y-93250000D01*
X183211999Y-84385000D02*
X184634999Y-84385000D01*
X184999999Y-84750000D02*
X184999999Y-85250000D01*
X186054999Y-85655000D02*
X185249999Y-85655000D01*
X184999999Y-85655000D02*
X184749999Y-85655000D01*
X184634999Y-84385000D02*
X184999999Y-84750000D01*
X184749999Y-85655000D02*
X183211999Y-85655000D01*
X185249999Y-85655000D02*
X184999999Y-85655000D01*
X184999999Y-85405000D02*
X184749999Y-85655000D01*
X186849999Y-86450000D02*
X186054999Y-85655000D01*
X189874999Y-86450000D02*
X186849999Y-86450000D01*
X184999999Y-85405000D02*
X185249999Y-85655000D01*
X184999999Y-85250000D02*
X184999999Y-85655000D01*
X184999999Y-85250000D02*
X184999999Y-85405000D01*
X184999999Y-82865000D02*
X185249999Y-83115000D01*
X185864999Y-83115000D02*
X185249999Y-83115000D01*
X189874999Y-84550000D02*
X187299999Y-84550000D01*
X187299999Y-84550000D02*
X185864999Y-83115000D01*
X184999999Y-82750000D02*
X184999999Y-82865000D01*
X184749999Y-83115000D02*
X183211999Y-83115000D01*
X185249999Y-83115000D02*
X184999999Y-83115000D01*
X184999999Y-82865000D02*
X184749999Y-83115000D01*
X183211999Y-81845000D02*
X184594999Y-81845000D01*
X184999999Y-83115000D02*
X184749999Y-83115000D01*
X184594999Y-81845000D02*
X184999999Y-82250000D01*
X184999999Y-82750000D02*
X184999999Y-83115000D01*
X184999999Y-82250000D02*
X184999999Y-82750000D01*
X190899999Y-88900000D02*
X191249999Y-88550000D01*
X191649999Y-87150000D02*
X192299999Y-87150000D01*
X191249999Y-88550000D02*
X191249999Y-87550000D01*
X190899999Y-85500000D02*
X187999999Y-85500000D01*
X191649999Y-87150000D02*
X191249999Y-87550000D01*
X191249999Y-87150000D02*
X191649999Y-87150000D01*
X191249999Y-86800000D02*
X191249999Y-85850000D01*
X187999999Y-88900000D02*
X190899999Y-88900000D01*
X191249999Y-87550000D02*
X191249999Y-87150000D01*
X191249999Y-85850000D02*
X190899999Y-85500000D01*
X194699999Y-84750000D02*
X198099999Y-84750000D01*
X191649999Y-87150000D02*
X191599999Y-87150000D01*
X191249999Y-87150000D02*
X191249999Y-86800000D01*
X192299999Y-87150000D02*
X194699999Y-84750000D01*
X191599999Y-87150000D02*
X191249999Y-86800000D01*
X185299999Y-91150000D02*
X184999999Y-91450000D01*
X184594999Y-92405000D02*
X184999999Y-92000000D01*
X185299999Y-91135000D02*
X185299999Y-91150000D01*
X185299999Y-91135000D02*
X185614999Y-91135000D01*
X184699999Y-91135000D02*
X184699999Y-91150000D01*
X184999999Y-92000000D02*
X184999999Y-91450000D01*
X184999999Y-91450000D02*
X184999999Y-91135000D01*
X183211999Y-92405000D02*
X184594999Y-92405000D01*
X184999999Y-91135000D02*
X185299999Y-91135000D01*
X184699999Y-91135000D02*
X184999999Y-91135000D01*
X186899999Y-89850000D02*
X189874999Y-89850000D01*
X183211999Y-91135000D02*
X184699999Y-91135000D01*
X185614999Y-91135000D02*
X186899999Y-89850000D01*
X184699999Y-91150000D02*
X184999999Y-91450000D01*
X189874999Y-87950000D02*
X186749999Y-87950000D01*
X184999999Y-88595000D02*
X184749999Y-88595000D01*
X184999999Y-89000000D02*
X184999999Y-88845000D01*
X184999999Y-88845000D02*
X184749999Y-88595000D01*
X184749999Y-88595000D02*
X183211999Y-88595000D01*
X184634999Y-89865000D02*
X184999999Y-89500000D01*
X186104999Y-88595000D02*
X185249999Y-88595000D01*
X184999999Y-89500000D02*
X184999999Y-89000000D01*
X185249999Y-88595000D02*
X184999999Y-88595000D01*
X184999999Y-89000000D02*
X184999999Y-88595000D01*
X184999999Y-88845000D02*
X185249999Y-88595000D01*
X183211999Y-89865000D02*
X184634999Y-89865000D01*
X186749999Y-87950000D02*
X186104999Y-88595000D01*
X145687499Y-88750000D02*
X146212499Y-88225000D01*
X146212499Y-88225000D02*
X146212499Y-86500000D01*
X151599999Y-77400000D02*
X150549999Y-77400000D01*
X150549999Y-77400000D02*
X150299999Y-77650000D01*
X147699999Y-83450000D02*
X146899999Y-84250000D01*
X150299999Y-79300000D02*
X150299999Y-79400000D01*
X146899999Y-84250000D02*
X143699999Y-84250000D01*
X149449999Y-93850000D02*
X150315999Y-93850000D01*
X150315999Y-93850000D02*
X150439999Y-93726000D01*
X151585999Y-93850000D02*
X151709999Y-93726000D01*
X147699999Y-81800000D02*
X147699999Y-83450000D01*
X150299999Y-79300000D02*
X150299999Y-79750000D01*
X149949999Y-79750000D02*
X149749999Y-79750000D01*
X150649999Y-79750000D02*
X150299999Y-79750000D01*
X149949999Y-79750000D02*
X150299999Y-79750000D01*
X151299999Y-80250000D02*
X150799999Y-79750000D01*
X151599999Y-80250000D02*
X151299999Y-80250000D01*
X150299999Y-79400000D02*
X150649999Y-79750000D01*
X150299999Y-79400000D02*
X149949999Y-79750000D01*
X149449999Y-93850000D02*
X151585999Y-93850000D01*
X142018749Y-83768750D02*
X143287499Y-82500000D01*
X143287499Y-83837500D02*
X143287499Y-82500000D01*
X143699999Y-84250000D02*
X143287499Y-83837500D01*
X142018749Y-84531250D02*
X142018749Y-83768750D01*
X149749999Y-79750000D02*
X147699999Y-81800000D01*
X139999999Y-86580000D02*
X139999999Y-86550000D01*
X150799999Y-79750000D02*
X150649999Y-79750000D01*
X139999999Y-86550000D02*
X142018749Y-84531250D01*
X150299999Y-77650000D02*
X150299999Y-79300000D01*
X152949999Y-93696000D02*
X152979999Y-93726000D01*
X152997999Y-93708000D02*
X152979999Y-93726000D01*
X161724999Y-90800000D02*
X162299999Y-90800000D01*
X160974999Y-90050000D02*
X161724999Y-90800000D01*
X152949999Y-91350000D02*
X152949999Y-93696000D01*
X151709999Y-85660000D02*
X151709999Y-86650000D01*
X151199999Y-84900000D02*
X151199999Y-85150000D01*
X154249999Y-93726000D02*
X154249999Y-91250000D01*
X155599999Y-77700000D02*
X155299999Y-77400000D01*
X154249999Y-91250000D02*
X151709999Y-88710000D01*
X151709999Y-88710000D02*
X151709999Y-86650000D01*
X151199999Y-85150000D02*
X151709999Y-85660000D01*
X155299999Y-77400000D02*
X154099999Y-77400000D01*
D24*
X145187499Y-77337499D02*
X145249999Y-77399999D01*
X147999999Y-77100000D02*
X148649999Y-77100000D01*
X144531800Y-77399999D02*
X144999999Y-77399999D01*
X139999999Y-81500000D02*
X141044998Y-82544999D01*
X141044998Y-82544999D02*
X141136800Y-82544999D01*
X155519999Y-93726000D02*
X155519999Y-92180000D01*
X145187499Y-75150000D02*
X145149999Y-75187500D01*
X150249999Y-75500000D02*
X151599999Y-75500000D01*
X145499999Y-77399999D02*
X147700000Y-77399999D01*
X144850000Y-77399999D02*
X144799999Y-77399999D01*
X147700000Y-77399999D02*
X147999999Y-77100000D01*
X145187499Y-77000000D02*
X145187499Y-77062500D01*
X145187499Y-77062500D02*
X144850000Y-77399999D01*
X145187499Y-77000000D02*
X145187499Y-77337499D01*
X142406799Y-78275000D02*
X143656799Y-78275000D01*
X148649999Y-77100000D02*
X150249999Y-75500000D01*
X155519999Y-92180000D02*
X155849999Y-91850000D01*
X141774999Y-81906800D02*
X141774999Y-78906800D01*
X141136800Y-82544999D02*
X141774999Y-81906800D01*
X145249999Y-77399999D02*
X145499999Y-77399999D01*
X145187499Y-75150000D02*
X145187499Y-77000000D01*
X144999999Y-77399999D02*
X145249999Y-77399999D01*
X145187499Y-77000000D02*
X145187499Y-77087499D01*
X141774999Y-78906800D02*
X142406799Y-78275000D01*
X143656799Y-78275000D02*
X144531800Y-77399999D01*
X145187499Y-77087499D02*
X145499999Y-77399999D01*
X160974999Y-79650000D02*
X161624999Y-80300000D01*
X161624999Y-80300000D02*
X162299999Y-80300000D01*
X156789999Y-92660000D02*
X156789999Y-93726000D01*
X157599999Y-91850000D02*
X156789999Y-92660000D01*
D22*
X158059999Y-85440000D02*
X158059999Y-86650000D01*
X157774999Y-85155000D02*
X158059999Y-85440000D01*
X150699999Y-82150000D02*
X150049999Y-82800000D01*
D24*
X157919999Y-86650000D02*
X157959999Y-86610000D01*
D22*
X157774999Y-84975000D02*
X157774999Y-85155000D01*
X151599999Y-82150000D02*
X150699999Y-82150000D01*
D24*
X143249999Y-78725000D02*
X143599999Y-78725000D01*
X143287499Y-80250000D02*
X143287499Y-79000000D01*
X142224999Y-79093200D02*
X142593199Y-78725000D01*
X156349999Y-84975000D02*
X156789999Y-85415000D01*
X156789999Y-85415000D02*
X156789999Y-86650000D01*
X147700000Y-77850001D02*
X147999999Y-78150000D01*
X143287499Y-79000000D02*
X143287499Y-78962500D01*
X143599999Y-78725000D02*
X143843199Y-78725000D01*
X143287499Y-78762500D02*
X143249999Y-78725000D01*
X143287499Y-79000000D02*
X143287499Y-78762500D01*
X143049999Y-78725000D02*
X143249999Y-78725000D01*
X142593199Y-78725000D02*
X143049999Y-78725000D01*
X141323198Y-82995001D02*
X142224999Y-82093200D01*
X143287499Y-78962500D02*
X143049999Y-78725000D01*
X142224999Y-82093200D02*
X142224999Y-79093200D01*
X141044998Y-82995001D02*
X141323198Y-82995001D01*
X144718198Y-77850001D02*
X147700000Y-77850001D01*
X143843199Y-78725000D02*
X144718198Y-77850001D01*
X143287499Y-79000000D02*
X143324999Y-79000000D01*
X139999999Y-84040000D02*
X141044998Y-82995001D01*
X143324999Y-79000000D02*
X143599999Y-78725000D01*
D22*
X155519999Y-86650000D02*
X155439999Y-86570000D01*
X154599999Y-85250000D02*
X154249999Y-85600000D01*
X154249999Y-85600000D02*
X154249999Y-86650000D01*
X155439999Y-86570000D02*
X155439999Y-85590000D01*
X155439999Y-85590000D02*
X155099999Y-85250000D01*
X155099999Y-85250000D02*
X154599999Y-85250000D01*
D24*
X152979999Y-85705000D02*
X152979999Y-86650000D01*
X155299999Y-75500000D02*
X154099999Y-75500000D01*
X155849999Y-74950000D02*
X155299999Y-75500000D01*
X152312499Y-85037500D02*
X152979999Y-85705000D01*
X161524999Y-81900000D02*
X162299999Y-81900000D01*
X160974999Y-82450000D02*
X161524999Y-81900000D01*
X155974999Y-82350000D02*
X155824999Y-82200000D01*
X154149999Y-82200000D02*
X154099999Y-82150000D01*
X155824999Y-82200000D02*
X154149999Y-82200000D01*
D22*
X139999999Y-89120000D02*
X141329999Y-89120000D01*
X163349999Y-77600000D02*
X163299999Y-77650000D01*
X159199999Y-82000000D02*
X160899999Y-83700000D01*
X142499999Y-86500000D02*
X143287499Y-86500000D01*
X161599999Y-88850000D02*
X162449999Y-88850000D01*
X159199999Y-79300000D02*
X159199999Y-82000000D01*
X160899999Y-88150000D02*
X161599999Y-88850000D01*
X163299999Y-77650000D02*
X160849999Y-77650000D01*
X141799999Y-87200000D02*
X142499999Y-86500000D01*
X144637499Y-85150000D02*
X143287499Y-86500000D01*
X141329999Y-89120000D02*
X141799999Y-88650000D01*
X163149999Y-88850000D02*
X163349999Y-89050000D01*
X160899999Y-83700000D02*
X160899999Y-88150000D01*
X160849999Y-77650000D02*
X159199999Y-79300000D01*
X141799999Y-88650000D02*
X141799999Y-87200000D01*
X163349999Y-77600000D02*
X163349999Y-79250000D01*
X147649999Y-85150000D02*
X144637499Y-85150000D01*
X147799999Y-85300000D02*
X147649999Y-85150000D01*
X163349999Y-89050000D02*
X163349999Y-89750000D01*
X162449999Y-88850000D02*
X163149999Y-88850000D01*
D24*
X155699999Y-80050000D02*
X154299999Y-80050000D01*
D22*
X160974999Y-92850000D02*
X161424999Y-92400000D01*
D24*
X154299999Y-80050000D02*
X154099999Y-80250000D01*
D22*
X161424999Y-92400000D02*
X162299999Y-92400000D01*
X179749999Y-93500000D02*
X178999999Y-94250000D01*
X166599999Y-92400000D02*
X165999999Y-92400000D01*
X178999999Y-94250000D02*
X168449999Y-94250000D01*
X179749999Y-90750000D02*
X179749999Y-93500000D01*
X168449999Y-94250000D02*
X166599999Y-92400000D01*
X177787999Y-89865000D02*
X178864999Y-89865000D01*
X178864999Y-89865000D02*
X179749999Y-90750000D01*
D23*
X118725002Y-76250001D02*
X122420002Y-76250001D01*
X119670002Y-80075001D02*
X119670002Y-76250001D01*
D20*
X178904999Y-81845000D02*
X177787999Y-81845000D01*
D23*
X122420002Y-76250001D02*
X122670002Y-76000001D01*
X184974999Y-78000000D02*
X184974999Y-79525000D01*
X184974999Y-75750000D02*
X184974999Y-78000000D01*
X184399999Y-80100000D02*
X180899999Y-80100000D01*
X185224999Y-76000000D02*
X184974999Y-75750000D01*
D25*
X179154999Y-81845000D02*
X177787999Y-81845000D01*
D23*
X188919999Y-76000000D02*
X185224999Y-76000000D01*
X184974999Y-79525000D02*
X184399999Y-80100000D01*
D26*
X180899999Y-80100000D02*
X179154999Y-81845000D01*
D23*
X119670002Y-76250001D02*
X118725002Y-76250001D01*
X125210002Y-94000001D02*
X125210002Y-91710001D01*
X177474999Y-78250000D02*
X177474999Y-75850000D01*
D25*
X175884999Y-84385000D02*
X177787999Y-84385000D01*
D23*
X123925002Y-90425001D02*
X122210002Y-90425001D01*
X125210002Y-91710001D02*
X123925002Y-90425001D01*
X174999999Y-83500000D02*
X175884999Y-84385000D01*
X179699999Y-78500000D02*
X177724999Y-78500000D01*
X125210002Y-94000001D02*
X128525002Y-94000001D01*
X174999999Y-83500000D02*
X174999999Y-81250000D01*
X174999999Y-81250000D02*
X177474999Y-78775000D01*
X178449999Y-78500000D02*
X177724999Y-78500000D01*
D20*
X177474999Y-78775000D02*
X177474999Y-75850000D01*
X177724999Y-78500000D02*
X177474999Y-78250000D01*
D23*
X127290002Y-80075001D02*
X127290002Y-81460001D01*
X124775002Y-83975001D02*
X114500002Y-83975001D01*
X127290002Y-81460001D02*
X124775002Y-83975001D01*
X114500002Y-83975001D02*
X114500002Y-86425001D01*
G04 #@! TA.AperFunction,Conductor*
G36*
X116396290Y-90594455D02*
G01*
X116477072Y-90648431D01*
X116531048Y-90729213D01*
X116550002Y-90824501D01*
X116550002Y-92471862D01*
X116531048Y-92567150D01*
X116525002Y-92576198D01*
X116525002Y-93750000D01*
X116525003Y-93750001D01*
X116550002Y-93750001D01*
X116550002Y-94250001D01*
X115200004Y-94250001D01*
X115200003Y-94250002D01*
X115200003Y-94699985D01*
X115210496Y-94802700D01*
X115210497Y-94802703D01*
X115250253Y-94922679D01*
X115262234Y-95019093D01*
X115236407Y-95112752D01*
X115176703Y-95189398D01*
X115092214Y-95237362D01*
X115013892Y-95250001D01*
X112999002Y-95250001D01*
X112903714Y-95231047D01*
X112822932Y-95177071D01*
X112768956Y-95096289D01*
X112750002Y-95001001D01*
X112750002Y-93300019D01*
X115200002Y-93300019D01*
X115200002Y-93750000D01*
X115200003Y-93750001D01*
X116025001Y-93750001D01*
X116025002Y-93750000D01*
X116025002Y-92600000D01*
X115900026Y-92600001D01*
X115797302Y-92610495D01*
X115797299Y-92610496D01*
X115630882Y-92665641D01*
X115630880Y-92665642D01*
X115481660Y-92757682D01*
X115481656Y-92757685D01*
X115357686Y-92881655D01*
X115357683Y-92881659D01*
X115265643Y-93030879D01*
X115265642Y-93030880D01*
X115210497Y-93197299D01*
X115210496Y-93197306D01*
X115200002Y-93300019D01*
X112750002Y-93300019D01*
X112750002Y-90849001D01*
X112768956Y-90753713D01*
X112822932Y-90672931D01*
X112903714Y-90618955D01*
X112999002Y-90600001D01*
X113733838Y-90600001D01*
X113746505Y-90600323D01*
X113749967Y-90600498D01*
X113749993Y-90600501D01*
X115250010Y-90600500D01*
X115352799Y-90590000D01*
X115352910Y-90589963D01*
X115358413Y-90588140D01*
X115436736Y-90575501D01*
X116301002Y-90575501D01*
X116396290Y-90594455D01*
G37*
G04 #@! TD.AperFunction*
G04 #@! TA.AperFunction,Conductor*
G36*
X114546290Y-74768955D02*
G01*
X114627072Y-74822931D01*
X114681048Y-74903713D01*
X114700002Y-74999001D01*
X114700002Y-76000000D01*
X114700003Y-76000001D01*
X115776002Y-76000001D01*
X115871290Y-76018955D01*
X115952072Y-76072931D01*
X116006048Y-76153713D01*
X116025002Y-76249001D01*
X116025002Y-77649999D01*
X116025004Y-77650001D01*
X117278390Y-77650001D01*
X117373678Y-77668955D01*
X117454456Y-77722928D01*
X117595348Y-77863820D01*
X117595351Y-77863822D01*
X117595352Y-77863823D01*
X117720975Y-77950855D01*
X117780376Y-77992008D01*
X117985319Y-78085097D01*
X117985320Y-78085097D01*
X117985322Y-78085098D01*
X117995867Y-78088788D01*
X117995206Y-78090677D01*
X118069102Y-78125750D01*
X118134250Y-78197825D01*
X118166856Y-78289345D01*
X118169502Y-78325547D01*
X118169502Y-78676878D01*
X118150548Y-78772166D01*
X118141206Y-78792163D01*
X118136095Y-78801946D01*
X118136093Y-78801952D01*
X118080117Y-78997579D01*
X118080116Y-78997583D01*
X118069502Y-79116964D01*
X118069502Y-81033032D01*
X118069503Y-81033044D01*
X118080115Y-81152415D01*
X118080115Y-81152418D01*
X118080116Y-81152419D01*
X118115192Y-81275002D01*
X118136092Y-81348046D01*
X118136095Y-81348054D01*
X118202769Y-81475696D01*
X118230304Y-81528408D01*
X118358893Y-81686110D01*
X118516595Y-81814699D01*
X118696953Y-81908910D01*
X118892584Y-81964887D01*
X119011965Y-81975501D01*
X120328038Y-81975500D01*
X120447420Y-81964887D01*
X120643051Y-81908910D01*
X120823409Y-81814699D01*
X120981111Y-81686110D01*
X121058136Y-81591645D01*
X121133042Y-81529775D01*
X121225923Y-81501279D01*
X121251114Y-81500001D01*
X121942328Y-81500001D01*
X121960002Y-81475696D01*
X121960002Y-80325002D01*
X122460002Y-80325002D01*
X122460002Y-81475000D01*
X122460003Y-81475001D01*
X122857827Y-81475001D01*
X122857834Y-81475000D01*
X122917373Y-81468599D01*
X122917380Y-81468597D01*
X123052089Y-81418354D01*
X123167189Y-81332190D01*
X123167191Y-81332188D01*
X123253355Y-81217088D01*
X123303598Y-81082379D01*
X123303600Y-81082372D01*
X123310001Y-81022833D01*
X123310002Y-81022826D01*
X123310002Y-80325002D01*
X123310001Y-80325001D01*
X122460003Y-80325001D01*
X122460002Y-80325002D01*
X121960002Y-80325002D01*
X121960002Y-78675002D01*
X122460002Y-78675002D01*
X122460002Y-79825000D01*
X122460003Y-79825001D01*
X123310001Y-79825001D01*
X123310002Y-79825000D01*
X123310002Y-79127176D01*
X123310001Y-79127168D01*
X123303600Y-79067629D01*
X123303598Y-79067622D01*
X123253355Y-78932913D01*
X123167191Y-78817813D01*
X123167189Y-78817811D01*
X123052089Y-78731647D01*
X122917380Y-78681404D01*
X122917373Y-78681402D01*
X122857834Y-78675001D01*
X122460003Y-78675001D01*
X122460002Y-78675002D01*
X121960002Y-78675002D01*
X121960002Y-78612135D01*
X121950002Y-78561862D01*
X121950002Y-78046143D01*
X121968956Y-77950855D01*
X122022932Y-77870073D01*
X122103714Y-77816097D01*
X122199002Y-77797143D01*
X122251924Y-77802832D01*
X122405976Y-77836344D01*
X122670002Y-77855228D01*
X122934028Y-77836344D01*
X123192680Y-77780078D01*
X123440691Y-77687575D01*
X123673013Y-77560717D01*
X123884917Y-77402088D01*
X123884921Y-77402083D01*
X123888151Y-77399666D01*
X123975791Y-77357736D01*
X124037371Y-77350001D01*
X124960001Y-77350001D01*
X125460003Y-77350001D01*
X126836132Y-77350001D01*
X126849460Y-77350358D01*
X126852112Y-77350499D01*
X126852129Y-77350501D01*
X128647874Y-77350500D01*
X128707485Y-77344092D01*
X128842333Y-77293797D01*
X128957548Y-77207547D01*
X129043798Y-77092332D01*
X129094093Y-76957484D01*
X129100502Y-76897874D01*
X129100501Y-75102129D01*
X129094093Y-75042518D01*
X129094092Y-75042517D01*
X129092428Y-75027029D01*
X129096287Y-75026614D01*
X129093863Y-74959235D01*
X129127791Y-74868197D01*
X129193976Y-74797073D01*
X129282341Y-74756690D01*
X129339667Y-74750001D01*
X132001002Y-74750001D01*
X132096290Y-74768955D01*
X132177072Y-74822931D01*
X132231048Y-74903713D01*
X132250002Y-74999001D01*
X132250002Y-92366194D01*
X132231048Y-92461482D01*
X132177072Y-92542264D01*
X132096290Y-92596240D01*
X132001002Y-92615194D01*
X131966258Y-92611516D01*
X131966222Y-92611877D01*
X131849983Y-92600001D01*
X131725003Y-92600001D01*
X131725002Y-92600002D01*
X131725002Y-94001001D01*
X131706048Y-94096289D01*
X131652072Y-94177071D01*
X131571290Y-94231047D01*
X131476002Y-94250001D01*
X131474002Y-94250001D01*
X131378714Y-94231047D01*
X131297932Y-94177071D01*
X131243956Y-94096289D01*
X131225002Y-94001001D01*
X131225002Y-92600000D01*
X131100026Y-92600001D01*
X131024307Y-92607737D01*
X130927586Y-92598565D01*
X130841737Y-92553077D01*
X130779831Y-92478199D01*
X130751291Y-92385331D01*
X130750002Y-92360026D01*
X130750002Y-91665577D01*
X130768956Y-91570289D01*
X130799669Y-91516355D01*
X130848651Y-91450924D01*
X130873798Y-91417332D01*
X130924093Y-91282484D01*
X130930502Y-91222874D01*
X130930501Y-89327129D01*
X130924093Y-89267518D01*
X130873798Y-89132670D01*
X130787548Y-89017455D01*
X130672333Y-88931205D01*
X130592119Y-88901287D01*
X130537483Y-88880909D01*
X130477875Y-88874501D01*
X129182136Y-88874501D01*
X129182132Y-88874501D01*
X129182130Y-88874502D01*
X129169316Y-88875879D01*
X129122521Y-88880909D01*
X129122517Y-88880910D01*
X128987670Y-88931205D01*
X128987669Y-88931205D01*
X128962118Y-88950334D01*
X128874478Y-88992266D01*
X128812895Y-89000001D01*
X124434461Y-89000001D01*
X124357516Y-88987814D01*
X124305894Y-88971041D01*
X124276370Y-88961448D01*
X124276368Y-88961447D01*
X124276366Y-88961447D01*
X124043105Y-88924502D01*
X124043096Y-88924501D01*
X124043094Y-88924501D01*
X124043090Y-88924501D01*
X123851630Y-88924501D01*
X123756342Y-88905547D01*
X123675560Y-88851571D01*
X123658533Y-88830684D01*
X123657680Y-88831381D01*
X123593071Y-88752144D01*
X123521111Y-88663892D01*
X123363409Y-88535303D01*
X123363404Y-88535300D01*
X123183055Y-88441094D01*
X123183054Y-88441093D01*
X123183051Y-88441092D01*
X122987420Y-88385115D01*
X122868039Y-88374501D01*
X122868037Y-88374501D01*
X121551970Y-88374501D01*
X121551958Y-88374502D01*
X121432587Y-88385114D01*
X121334768Y-88413103D01*
X121236957Y-88441091D01*
X121236950Y-88441093D01*
X121178347Y-88471705D01*
X121085112Y-88499023D01*
X121063061Y-88500001D01*
X117499002Y-88500001D01*
X117403714Y-88481047D01*
X117322932Y-88427071D01*
X117268956Y-88346289D01*
X117250002Y-88251001D01*
X117250002Y-85224501D01*
X117268956Y-85129213D01*
X117322932Y-85048431D01*
X117403714Y-84994455D01*
X117499002Y-84975501D01*
X124873541Y-84975501D01*
X124873542Y-84975501D01*
X124873543Y-84975501D01*
X124970190Y-84956276D01*
X125066838Y-84937052D01*
X125120167Y-84914962D01*
X125248916Y-84861633D01*
X125412784Y-84752140D01*
X125552141Y-84612783D01*
X125552143Y-84612779D01*
X127927780Y-82237142D01*
X127927784Y-82237140D01*
X128067141Y-82097783D01*
X128176634Y-81933915D01*
X128252053Y-81751836D01*
X128262280Y-81700421D01*
X128299459Y-81610664D01*
X128368158Y-81541965D01*
X128457917Y-81504785D01*
X128506495Y-81500001D01*
X129555001Y-81500001D01*
X129580002Y-81475000D01*
X129580002Y-80325002D01*
X130080002Y-80325002D01*
X130080002Y-81475000D01*
X130080003Y-81475001D01*
X130477827Y-81475001D01*
X130477834Y-81475000D01*
X130537373Y-81468599D01*
X130537380Y-81468597D01*
X130672089Y-81418354D01*
X130787189Y-81332190D01*
X130787191Y-81332188D01*
X130873355Y-81217088D01*
X130923598Y-81082379D01*
X130923600Y-81082372D01*
X130930001Y-81022833D01*
X130930002Y-81022826D01*
X130930002Y-80325002D01*
X130930001Y-80325001D01*
X130080003Y-80325001D01*
X130080002Y-80325002D01*
X129580002Y-80325002D01*
X129580002Y-78675002D01*
X130080002Y-78675002D01*
X130080002Y-79825000D01*
X130080003Y-79825001D01*
X130930001Y-79825001D01*
X130930002Y-79825000D01*
X130930002Y-79127176D01*
X130930001Y-79127168D01*
X130923600Y-79067629D01*
X130923598Y-79067622D01*
X130873355Y-78932913D01*
X130787191Y-78817813D01*
X130787189Y-78817811D01*
X130672089Y-78731647D01*
X130537380Y-78681404D01*
X130537373Y-78681402D01*
X130477834Y-78675001D01*
X130080003Y-78675001D01*
X130080002Y-78675002D01*
X129580002Y-78675002D01*
X129555001Y-78650001D01*
X129550002Y-78650001D01*
X127300002Y-78650001D01*
X127164894Y-78650001D01*
X127145189Y-78661355D01*
X127065355Y-78674501D01*
X126642136Y-78674501D01*
X126642132Y-78674501D01*
X126642130Y-78674502D01*
X126629316Y-78675879D01*
X126582521Y-78680909D01*
X126582517Y-78680910D01*
X126447672Y-78731204D01*
X126332457Y-78817454D01*
X126332455Y-78817456D01*
X126246206Y-78932670D01*
X126195910Y-79067519D01*
X126189502Y-79127124D01*
X126189502Y-81022877D01*
X126189802Y-81028457D01*
X126175975Y-81124623D01*
X126126398Y-81208177D01*
X126117229Y-81217851D01*
X124433512Y-82901570D01*
X124352730Y-82955547D01*
X124257442Y-82974501D01*
X116149002Y-82974501D01*
X116053714Y-82955547D01*
X115972932Y-82901571D01*
X115918956Y-82820789D01*
X115900002Y-82725501D01*
X115900002Y-81275002D01*
X115900001Y-81275001D01*
X114499002Y-81275001D01*
X114403714Y-81256047D01*
X114322932Y-81202071D01*
X114268956Y-81121289D01*
X114250002Y-81026001D01*
X114250002Y-79950002D01*
X114750002Y-79950002D01*
X114750002Y-80775000D01*
X114750003Y-80775001D01*
X115900000Y-80775001D01*
X115900001Y-80775000D01*
X115900001Y-80650033D01*
X115900000Y-80650016D01*
X115889507Y-80547301D01*
X115889506Y-80547298D01*
X115834361Y-80380881D01*
X115834360Y-80380879D01*
X115742320Y-80231659D01*
X115742317Y-80231655D01*
X115618347Y-80107685D01*
X115618343Y-80107682D01*
X115469123Y-80015642D01*
X115469122Y-80015641D01*
X115302703Y-79960496D01*
X115302696Y-79960495D01*
X115199983Y-79950001D01*
X114750003Y-79950001D01*
X114750002Y-79950002D01*
X114250002Y-79950002D01*
X114250001Y-79950001D01*
X113800026Y-79950001D01*
X113697305Y-79960495D01*
X113697304Y-79960495D01*
X113616227Y-79987362D01*
X113537905Y-80000001D01*
X112999002Y-80000001D01*
X112903714Y-79981047D01*
X112822932Y-79927071D01*
X112768956Y-79846289D01*
X112750002Y-79751001D01*
X112750002Y-76500002D01*
X114700003Y-76500002D01*
X114700003Y-76949985D01*
X114710496Y-77052700D01*
X114710497Y-77052703D01*
X114765642Y-77219120D01*
X114765643Y-77219122D01*
X114857683Y-77368342D01*
X114857686Y-77368346D01*
X114981656Y-77492316D01*
X114981660Y-77492319D01*
X115130880Y-77584359D01*
X115130881Y-77584360D01*
X115297300Y-77639505D01*
X115297307Y-77639506D01*
X115400025Y-77650000D01*
X115525002Y-77649999D01*
X115525002Y-76500002D01*
X115525001Y-76500001D01*
X114700004Y-76500001D01*
X114700003Y-76500002D01*
X112750002Y-76500002D01*
X112750002Y-74999001D01*
X112768956Y-74903713D01*
X112822932Y-74822931D01*
X112903714Y-74768955D01*
X112999002Y-74750001D01*
X114451002Y-74750001D01*
X114546290Y-74768955D01*
G37*
G04 #@! TD.AperFunction*
G04 #@! TA.AperFunction,Conductor*
G36*
X125460002Y-77265501D02*
G01*
X124960002Y-77240501D01*
X124960002Y-76433013D01*
X125017009Y-76465926D01*
X125144176Y-76500001D01*
X125275828Y-76500001D01*
X125402995Y-76465926D01*
X125460002Y-76433013D01*
X125460002Y-77265501D01*
G37*
G04 #@! TD.AperFunction*
G04 #@! TA.AperFunction,Conductor*
G36*
X143746287Y-73768954D02*
G01*
X143827069Y-73822930D01*
X143881045Y-73903712D01*
X143899999Y-73999000D01*
X143899999Y-74867411D01*
X143881045Y-74962699D01*
X143827069Y-75043481D01*
X143746287Y-75097457D01*
X143650999Y-75116411D01*
X143563985Y-75100712D01*
X143497483Y-75075909D01*
X143497484Y-75075909D01*
X143437872Y-75069500D01*
X141642133Y-75069500D01*
X141642129Y-75069500D01*
X141642127Y-75069501D01*
X141629313Y-75070878D01*
X141582518Y-75075908D01*
X141582513Y-75075909D01*
X141560016Y-75084301D01*
X141473001Y-75100000D01*
X140322474Y-75100000D01*
X140258027Y-75091515D01*
X140249999Y-75089364D01*
X140249999Y-75100000D01*
X140049999Y-75100000D01*
X140249999Y-75108888D01*
X140249999Y-75986988D01*
X140192992Y-75954075D01*
X140065825Y-75920000D01*
X139934173Y-75920000D01*
X139807006Y-75954075D01*
X139749999Y-75986988D01*
X139749999Y-75089364D01*
X139749997Y-75089363D01*
X139536515Y-75146566D01*
X139536504Y-75146570D01*
X139322427Y-75246396D01*
X139322419Y-75246400D01*
X139128922Y-75381889D01*
X138961888Y-75548923D01*
X138826399Y-75742420D01*
X138826395Y-75742428D01*
X138726569Y-75956505D01*
X138726565Y-75956516D01*
X138669362Y-76169998D01*
X138669363Y-76170000D01*
X139566987Y-76170000D01*
X139534074Y-76227007D01*
X139499999Y-76354174D01*
X139499999Y-76485826D01*
X139534074Y-76612993D01*
X139566987Y-76670000D01*
X138669363Y-76670000D01*
X138669362Y-76670001D01*
X138726565Y-76883483D01*
X138726565Y-76883485D01*
X138826398Y-77097576D01*
X138961888Y-77291076D01*
X139128922Y-77458110D01*
X139322422Y-77593600D01*
X139536510Y-77693431D01*
X139749999Y-77750635D01*
X139749999Y-76853012D01*
X139807006Y-76885925D01*
X139934173Y-76920000D01*
X140065825Y-76920000D01*
X140192992Y-76885925D01*
X140249999Y-76853012D01*
X140249999Y-77750635D01*
X140463487Y-77693431D01*
X140545767Y-77655064D01*
X140640138Y-77631972D01*
X140736162Y-77646751D01*
X140819221Y-77697153D01*
X140876670Y-77775503D01*
X140899762Y-77869874D01*
X140899999Y-77880735D01*
X140899999Y-80038712D01*
X140881045Y-80134000D01*
X140827069Y-80214782D01*
X140746287Y-80268758D01*
X140650999Y-80287712D01*
X140555711Y-80268758D01*
X140545769Y-80264383D01*
X140463666Y-80226098D01*
X140463663Y-80226097D01*
X140235400Y-80164935D01*
X140000004Y-80144341D01*
X139999994Y-80144341D01*
X139764597Y-80164935D01*
X139536334Y-80226097D01*
X139536332Y-80226098D01*
X139322176Y-80325961D01*
X139322168Y-80325965D01*
X139128599Y-80461504D01*
X138961503Y-80628600D01*
X138825964Y-80822169D01*
X138825960Y-80822177D01*
X138726097Y-81036333D01*
X138726096Y-81036335D01*
X138722301Y-81050500D01*
X138664936Y-81264592D01*
X138664935Y-81264595D01*
X138664935Y-81264598D01*
X138657397Y-81350755D01*
X138637310Y-81419668D01*
X138649051Y-81553858D01*
X138649999Y-81575561D01*
X138649999Y-83964450D01*
X138649051Y-83986153D01*
X138644340Y-84039996D01*
X138644340Y-84040002D01*
X138649051Y-84093844D01*
X138649999Y-84115548D01*
X138649999Y-86504450D01*
X138649051Y-86526153D01*
X138644340Y-86579996D01*
X138644340Y-86580002D01*
X138649051Y-86633844D01*
X138649999Y-86655548D01*
X138649999Y-89044450D01*
X138649051Y-89066153D01*
X138644717Y-89115694D01*
X138644340Y-89120000D01*
X138647189Y-89152569D01*
X138649051Y-89173844D01*
X138649999Y-89195548D01*
X138649999Y-91400000D01*
X138650000Y-91400000D01*
X138660000Y-91410000D01*
X139566987Y-91410000D01*
X139534074Y-91467007D01*
X139499999Y-91594174D01*
X139499999Y-91725826D01*
X139534074Y-91852993D01*
X139566987Y-91910000D01*
X138669362Y-91910000D01*
X138649999Y-91935234D01*
X138649999Y-93286133D01*
X138649642Y-93299464D01*
X138649499Y-93302131D01*
X138649499Y-95097870D01*
X138649642Y-95100519D01*
X138649999Y-95113849D01*
X138649999Y-95751000D01*
X138631045Y-95846288D01*
X138577069Y-95927070D01*
X138496287Y-95981046D01*
X138400999Y-96000000D01*
X138002203Y-96000000D01*
X137997834Y-95999962D01*
X137873100Y-95997773D01*
X137842132Y-95995291D01*
X137802886Y-95989664D01*
X137593081Y-95959585D01*
X137558461Y-95952075D01*
X137319106Y-95882004D01*
X137285900Y-95869657D01*
X137058915Y-95766328D01*
X137027798Y-95749394D01*
X136817774Y-95614899D01*
X136789375Y-95593721D01*
X136654094Y-95476977D01*
X136600548Y-95430768D01*
X136575457Y-95405788D01*
X136411669Y-95217688D01*
X136390370Y-95189391D01*
X136254937Y-94979957D01*
X136237865Y-94948915D01*
X136215565Y-94900500D01*
X136133530Y-94722391D01*
X136121036Y-94689241D01*
X136115558Y-94670833D01*
X136049902Y-94450197D01*
X136042241Y-94415617D01*
X136005426Y-94166701D01*
X136002808Y-94135794D01*
X136000058Y-94011546D01*
X135999999Y-94006219D01*
X135999999Y-75752196D01*
X136000039Y-75747757D01*
X136000608Y-75715847D01*
X136002269Y-75622719D01*
X136004763Y-75591725D01*
X136040675Y-75341947D01*
X136048226Y-75307239D01*
X136094386Y-75150032D01*
X136118691Y-75067257D01*
X136131101Y-75033985D01*
X136235003Y-74806471D01*
X136252025Y-74775299D01*
X136252027Y-74775296D01*
X136387250Y-74564885D01*
X136408527Y-74536463D01*
X136572321Y-74347433D01*
X136597435Y-74322320D01*
X136786462Y-74158528D01*
X136814884Y-74137251D01*
X137025302Y-74002023D01*
X137056470Y-73985004D01*
X137283984Y-73881102D01*
X137317256Y-73868692D01*
X137557240Y-73798226D01*
X137591946Y-73790676D01*
X137841726Y-73754763D01*
X137872718Y-73752270D01*
X137997756Y-73750039D01*
X138002196Y-73750000D01*
X143650999Y-73750000D01*
X143746287Y-73768954D01*
G37*
G04 #@! TD.AperFunction*
G04 #@! TA.AperFunction,Conductor*
G36*
X150346287Y-80419454D02*
G01*
X150427069Y-80473430D01*
X150481045Y-80554212D01*
X150499999Y-80649500D01*
X150499999Y-81450000D01*
X150470022Y-81479977D01*
X150427069Y-81544263D01*
X150389335Y-81575230D01*
X150285326Y-81644725D01*
X150101733Y-81828318D01*
X150020952Y-81882294D01*
X149967900Y-81895770D01*
X149968117Y-81896787D01*
X149770202Y-81938854D01*
X149770188Y-81938858D01*
X149597270Y-82015847D01*
X149444125Y-82127114D01*
X149317468Y-82267780D01*
X149222821Y-82431714D01*
X149164324Y-82611744D01*
X149144539Y-82800000D01*
X149164324Y-82988255D01*
X149190101Y-83067585D01*
X149222820Y-83168284D01*
X149317466Y-83332216D01*
X149317468Y-83332219D01*
X149437790Y-83465849D01*
X149444128Y-83472888D01*
X149522281Y-83529669D01*
X149597270Y-83584152D01*
X149770188Y-83661141D01*
X149770191Y-83661142D01*
X149770196Y-83661144D01*
X149955353Y-83700500D01*
X150144644Y-83700500D01*
X150144645Y-83700500D01*
X150329802Y-83661144D01*
X150354886Y-83649976D01*
X150502727Y-83584152D01*
X150502727Y-83584151D01*
X150502729Y-83584151D01*
X150655870Y-83472888D01*
X150782532Y-83332216D01*
X150877178Y-83168284D01*
X150890684Y-83126716D01*
X150938152Y-83041954D01*
X151014448Y-82981805D01*
X151107955Y-82955432D01*
X151147022Y-82955431D01*
X151245555Y-82963182D01*
X151312818Y-82950500D01*
X152115692Y-82950500D01*
X152115693Y-82950500D01*
X152115693Y-82950499D01*
X152120578Y-82950308D01*
X152120583Y-82950442D01*
X152131828Y-82950000D01*
X153568170Y-82950000D01*
X153579414Y-82950442D01*
X153579420Y-82950308D01*
X153584304Y-82950499D01*
X153584305Y-82950500D01*
X153584306Y-82950500D01*
X154615692Y-82950500D01*
X154615693Y-82950500D01*
X154615693Y-82950499D01*
X154620578Y-82950308D01*
X154620583Y-82950442D01*
X154631828Y-82950000D01*
X155192637Y-82950000D01*
X155287925Y-82968954D01*
X155357975Y-83015759D01*
X155359424Y-83014151D01*
X155369125Y-83022885D01*
X155369128Y-83022888D01*
X155438848Y-83073542D01*
X155522270Y-83134152D01*
X155695188Y-83211141D01*
X155695191Y-83211142D01*
X155695196Y-83211144D01*
X155880353Y-83250500D01*
X156001000Y-83250500D01*
X156096288Y-83269454D01*
X156177070Y-83323430D01*
X156231046Y-83404212D01*
X156250000Y-83499500D01*
X156250000Y-83649976D01*
X156260493Y-83752699D01*
X156260494Y-83752702D01*
X156272276Y-83788257D01*
X156284257Y-83884670D01*
X156258430Y-83978330D01*
X156198727Y-84054976D01*
X156114237Y-84102940D01*
X156087689Y-84110137D01*
X156070204Y-84113853D01*
X156070188Y-84113858D01*
X155897270Y-84190847D01*
X155744125Y-84302114D01*
X155617468Y-84442780D01*
X155598577Y-84475501D01*
X155534518Y-84548545D01*
X155447382Y-84591516D01*
X155382937Y-84600000D01*
X155181377Y-84600000D01*
X155171193Y-84599500D01*
X155164068Y-84599500D01*
X154535930Y-84599500D01*
X154528805Y-84599500D01*
X154518621Y-84600000D01*
X153240719Y-84600000D01*
X153145431Y-84581046D01*
X153064649Y-84527070D01*
X153054081Y-84514696D01*
X153053765Y-84514982D01*
X152918372Y-84364614D01*
X152918371Y-84364613D01*
X152918370Y-84364612D01*
X152825903Y-84297431D01*
X152765227Y-84253347D01*
X152592309Y-84176358D01*
X152592295Y-84176354D01*
X152407145Y-84137000D01*
X152217853Y-84137000D01*
X152032702Y-84176354D01*
X152032692Y-84176357D01*
X151980068Y-84199787D01*
X151885309Y-84221228D01*
X151789557Y-84204774D01*
X151732434Y-84173758D01*
X151726489Y-84169439D01*
X151702011Y-84151654D01*
X151652727Y-84115847D01*
X151479809Y-84038858D01*
X151479795Y-84038854D01*
X151294645Y-83999500D01*
X151105353Y-83999500D01*
X150920202Y-84038854D01*
X150920188Y-84038858D01*
X150747270Y-84115847D01*
X150594125Y-84227114D01*
X150467468Y-84367780D01*
X150372821Y-84531714D01*
X150314324Y-84711744D01*
X150294539Y-84900000D01*
X150294539Y-84900001D01*
X150305844Y-85007567D01*
X150296954Y-85104314D01*
X150251716Y-85190295D01*
X150177019Y-85252419D01*
X150132288Y-85271318D01*
X149985728Y-85316988D01*
X149985727Y-85316989D01*
X149845347Y-85401851D01*
X149729350Y-85517848D01*
X149644488Y-85658228D01*
X149644486Y-85658232D01*
X149595683Y-85814842D01*
X149595683Y-85814845D01*
X149589500Y-85882889D01*
X149589499Y-85882913D01*
X149589499Y-87417086D01*
X149589500Y-87417110D01*
X149595683Y-87485154D01*
X149595683Y-87485157D01*
X149642113Y-87634151D01*
X149644487Y-87641770D01*
X149653589Y-87656827D01*
X149686664Y-87748175D01*
X149689499Y-87785642D01*
X149689499Y-90395991D01*
X149670545Y-90491279D01*
X149616569Y-90572061D01*
X148957884Y-91230746D01*
X148877102Y-91284722D01*
X148781814Y-91303676D01*
X148686526Y-91284722D01*
X148671976Y-91275000D01*
X147500000Y-91275000D01*
X147499999Y-91275001D01*
X147499999Y-92585491D01*
X147481045Y-92680779D01*
X147427069Y-92761561D01*
X147427067Y-92761562D01*
X147362057Y-92826571D01*
X147281275Y-92880547D01*
X147185989Y-92899500D01*
X146549992Y-92899500D01*
X146447198Y-92910001D01*
X146280666Y-92965185D01*
X146131345Y-93057286D01*
X146007286Y-93181345D01*
X145942490Y-93286396D01*
X145876334Y-93357546D01*
X145787985Y-93397964D01*
X145690894Y-93401496D01*
X145629284Y-93383149D01*
X145529802Y-93338856D01*
X145529797Y-93338855D01*
X145529795Y-93338854D01*
X145344645Y-93299500D01*
X145155353Y-93299500D01*
X144970202Y-93338854D01*
X144970188Y-93338858D01*
X144797270Y-93415847D01*
X144644125Y-93527114D01*
X144517471Y-93667777D01*
X144517468Y-93667780D01*
X144422821Y-93831714D01*
X144364324Y-94011744D01*
X144344539Y-94200000D01*
X144364324Y-94388255D01*
X144384451Y-94450197D01*
X144422820Y-94568284D01*
X144505300Y-94711144D01*
X144517468Y-94732219D01*
X144644125Y-94872885D01*
X144644128Y-94872888D01*
X144727968Y-94933801D01*
X144797270Y-94984152D01*
X144970188Y-95061141D01*
X144970191Y-95061142D01*
X144970196Y-95061144D01*
X145155353Y-95100500D01*
X145344642Y-95100500D01*
X145344645Y-95100500D01*
X145451544Y-95077777D01*
X145548686Y-95076506D01*
X145607573Y-95100000D01*
X150079366Y-95100000D01*
X150128963Y-95107549D01*
X150129422Y-95105245D01*
X150142338Y-95107813D01*
X150142342Y-95107815D01*
X150210405Y-95114000D01*
X150210413Y-95114000D01*
X150669585Y-95114000D01*
X150669593Y-95114000D01*
X150737656Y-95107815D01*
X150737661Y-95107813D01*
X150750576Y-95105245D01*
X150751034Y-95107549D01*
X150800632Y-95100000D01*
X151349366Y-95100000D01*
X151398963Y-95107549D01*
X151399422Y-95105245D01*
X151412338Y-95107813D01*
X151412342Y-95107815D01*
X151480405Y-95114000D01*
X151480413Y-95114000D01*
X151939585Y-95114000D01*
X151939593Y-95114000D01*
X152007656Y-95107815D01*
X152007661Y-95107813D01*
X152020576Y-95105245D01*
X152021034Y-95107549D01*
X152070632Y-95100000D01*
X152619366Y-95100000D01*
X152668963Y-95107549D01*
X152669422Y-95105245D01*
X152682338Y-95107813D01*
X152682342Y-95107815D01*
X152750405Y-95114000D01*
X152750413Y-95114000D01*
X153209585Y-95114000D01*
X153209593Y-95114000D01*
X153277656Y-95107815D01*
X153277661Y-95107813D01*
X153290576Y-95105245D01*
X153291034Y-95107549D01*
X153340632Y-95100000D01*
X153889366Y-95100000D01*
X153938963Y-95107549D01*
X153939422Y-95105245D01*
X153952338Y-95107813D01*
X153952342Y-95107815D01*
X154020405Y-95114000D01*
X154020413Y-95114000D01*
X154479585Y-95114000D01*
X154479593Y-95114000D01*
X154547656Y-95107815D01*
X154547661Y-95107813D01*
X154560576Y-95105245D01*
X154561034Y-95107549D01*
X154610632Y-95100000D01*
X155159366Y-95100000D01*
X155208963Y-95107549D01*
X155209422Y-95105245D01*
X155222338Y-95107813D01*
X155222342Y-95107815D01*
X155290405Y-95114000D01*
X155290413Y-95114000D01*
X155749585Y-95114000D01*
X155749593Y-95114000D01*
X155817656Y-95107815D01*
X155817661Y-95107813D01*
X155830576Y-95105245D01*
X155831034Y-95107549D01*
X155880632Y-95100000D01*
X156429366Y-95100000D01*
X156478963Y-95107549D01*
X156479422Y-95105245D01*
X156492338Y-95107813D01*
X156492342Y-95107815D01*
X156560405Y-95114000D01*
X156560413Y-95114000D01*
X157019585Y-95114000D01*
X157019593Y-95114000D01*
X157087656Y-95107815D01*
X157087661Y-95107813D01*
X157100576Y-95105245D01*
X157101034Y-95107549D01*
X157150632Y-95100000D01*
X157701111Y-95100000D01*
X157749691Y-95104785D01*
X157762438Y-95107320D01*
X157809998Y-95111642D01*
X157809999Y-95111641D01*
X157809999Y-93976001D01*
X158309999Y-93976001D01*
X158309999Y-95111640D01*
X158357562Y-95107320D01*
X158514062Y-95058553D01*
X158654340Y-94973752D01*
X158770251Y-94857841D01*
X158855053Y-94717562D01*
X158903819Y-94561063D01*
X158903819Y-94561062D01*
X158909998Y-94493072D01*
X158909999Y-94493051D01*
X158909999Y-93976001D01*
X158909998Y-93976000D01*
X158310000Y-93976000D01*
X158309999Y-93976001D01*
X157809999Y-93976001D01*
X157809999Y-93725000D01*
X157828953Y-93629712D01*
X157882929Y-93548930D01*
X157963711Y-93494954D01*
X158058999Y-93476000D01*
X158909997Y-93476000D01*
X158909998Y-93475999D01*
X158909998Y-92958947D01*
X158903817Y-92890930D01*
X158855052Y-92734436D01*
X158770251Y-92594158D01*
X158654339Y-92478246D01*
X158620179Y-92457595D01*
X158548440Y-92392077D01*
X158507234Y-92304093D01*
X158499999Y-92244507D01*
X158499999Y-91914998D01*
X158501363Y-91888970D01*
X158502073Y-91882212D01*
X158505459Y-91850000D01*
X158485673Y-91661744D01*
X158427178Y-91481716D01*
X158332532Y-91317784D01*
X158332530Y-91317781D01*
X158332529Y-91317780D01*
X158205872Y-91177114D01*
X158205871Y-91177113D01*
X158205870Y-91177112D01*
X158100422Y-91100500D01*
X158052727Y-91065847D01*
X157879809Y-90988858D01*
X157879795Y-90988854D01*
X157694645Y-90949500D01*
X157505353Y-90949500D01*
X157497082Y-90949500D01*
X157487546Y-90950000D01*
X155962452Y-90950000D01*
X155952916Y-90949500D01*
X155944645Y-90949500D01*
X155755353Y-90949500D01*
X155747082Y-90949500D01*
X155737546Y-90950000D01*
X154964988Y-90950000D01*
X154869700Y-90931046D01*
X154788918Y-90877070D01*
X154757954Y-90839339D01*
X154755278Y-90835334D01*
X154755277Y-90835333D01*
X154755275Y-90835330D01*
X152922929Y-89002984D01*
X152868953Y-88922202D01*
X152849999Y-88826914D01*
X152849999Y-88299000D01*
X152868953Y-88203712D01*
X152922929Y-88122930D01*
X153003711Y-88068954D01*
X153098999Y-88050000D01*
X158321391Y-88050000D01*
X158337696Y-88039105D01*
X158358898Y-88031427D01*
X158514269Y-87983012D01*
X158654652Y-87898148D01*
X158770647Y-87782153D01*
X158855511Y-87641770D01*
X158904314Y-87485157D01*
X158910499Y-87417094D01*
X158910499Y-85882906D01*
X158904314Y-85814843D01*
X158855511Y-85658230D01*
X158770647Y-85517847D01*
X158770644Y-85517844D01*
X158762530Y-85507488D01*
X158718682Y-85420791D01*
X158710732Y-85378309D01*
X158710499Y-85375946D01*
X158710499Y-85375931D01*
X158685500Y-85250256D01*
X158682604Y-85243266D01*
X158663650Y-85147979D01*
X158665014Y-85121950D01*
X158666087Y-85111744D01*
X158680459Y-84975000D01*
X158660673Y-84786744D01*
X158602178Y-84606716D01*
X158590316Y-84586170D01*
X158559087Y-84494175D01*
X158565441Y-84397228D01*
X158608411Y-84310092D01*
X158675240Y-84249743D01*
X158768339Y-84192319D01*
X158768344Y-84192315D01*
X158892314Y-84068345D01*
X158892317Y-84068341D01*
X158984357Y-83919121D01*
X158984358Y-83919120D01*
X159039503Y-83752701D01*
X159039504Y-83752694D01*
X159049998Y-83649981D01*
X159049999Y-83649971D01*
X159049999Y-83525001D01*
X159049998Y-83525000D01*
X157648999Y-83525000D01*
X157553711Y-83506046D01*
X157472929Y-83452070D01*
X157418953Y-83371288D01*
X157399999Y-83276000D01*
X157399999Y-82693181D01*
X157899999Y-82897727D01*
X157899999Y-83024999D01*
X157900000Y-83025000D01*
X159074104Y-83025000D01*
X159082237Y-83019566D01*
X159177525Y-83000612D01*
X159272813Y-83019566D01*
X159353595Y-83073542D01*
X160176569Y-83896516D01*
X160230545Y-83977298D01*
X160249499Y-84072586D01*
X160249499Y-88076709D01*
X160235838Y-88145386D01*
X160245215Y-88192527D01*
X160249999Y-88241104D01*
X160249999Y-89438016D01*
X160231045Y-89533304D01*
X160216640Y-89562515D01*
X160154005Y-89671003D01*
X160147820Y-89681716D01*
X160138115Y-89711585D01*
X160089324Y-89861744D01*
X160069539Y-90050000D01*
X160089324Y-90238255D01*
X160096519Y-90260398D01*
X160147820Y-90418284D01*
X160242466Y-90582216D01*
X160242468Y-90582219D01*
X160347267Y-90698609D01*
X160369128Y-90722888D01*
X160455121Y-90785365D01*
X160522270Y-90834152D01*
X160695188Y-90911141D01*
X160695191Y-90911142D01*
X160695196Y-90911144D01*
X160880353Y-90950500D01*
X160893117Y-90953213D01*
X160892717Y-90955091D01*
X160969472Y-90978922D01*
X161026735Y-91021681D01*
X161189817Y-91184763D01*
X161243793Y-91265545D01*
X161262747Y-91360833D01*
X161260617Y-91393333D01*
X161249999Y-91473987D01*
X161249999Y-91603131D01*
X161231045Y-91698419D01*
X161177069Y-91779201D01*
X161126848Y-91816448D01*
X161127043Y-91816739D01*
X161121135Y-91820686D01*
X161118388Y-91822724D01*
X161116875Y-91823532D01*
X161000159Y-91901519D01*
X160999456Y-91900468D01*
X160924867Y-91940329D01*
X160893109Y-91946753D01*
X160893117Y-91946787D01*
X160695202Y-91988854D01*
X160695188Y-91988858D01*
X160522270Y-92065847D01*
X160369125Y-92177114D01*
X160242468Y-92317780D01*
X160172320Y-92439280D01*
X160147820Y-92481716D01*
X160141002Y-92502699D01*
X160089324Y-92661744D01*
X160069539Y-92850000D01*
X160089324Y-93038255D01*
X160101426Y-93075500D01*
X160147820Y-93218284D01*
X160224155Y-93350500D01*
X160242468Y-93382219D01*
X160328098Y-93477320D01*
X160369128Y-93522888D01*
X160448488Y-93580546D01*
X160522270Y-93634152D01*
X160695188Y-93711141D01*
X160695191Y-93711142D01*
X160695196Y-93711144D01*
X160880353Y-93750500D01*
X160967991Y-93750500D01*
X161020501Y-93760944D01*
X161046396Y-93755441D01*
X161098164Y-93750000D01*
X162430169Y-93750000D01*
X162525457Y-93768954D01*
X162606239Y-93822930D01*
X162660215Y-93903712D01*
X162677039Y-93966501D01*
X162690119Y-94065866D01*
X162749319Y-94208786D01*
X162843487Y-94331507D01*
X162843491Y-94331511D01*
X162966212Y-94425679D01*
X163109131Y-94484879D01*
X163170141Y-94492911D01*
X163191025Y-94500000D01*
X167676913Y-94500000D01*
X167772201Y-94518954D01*
X167852983Y-94572930D01*
X168035330Y-94755277D01*
X168058396Y-94770689D01*
X168141871Y-94826465D01*
X168181333Y-94842810D01*
X168260255Y-94875501D01*
X168385928Y-94900499D01*
X168385929Y-94900500D01*
X168385930Y-94900500D01*
X179064069Y-94900500D01*
X179064069Y-94900499D01*
X179189743Y-94875501D01*
X179308126Y-94826465D01*
X179414668Y-94755277D01*
X180255275Y-93914669D01*
X180326464Y-93808127D01*
X180375500Y-93689744D01*
X180379868Y-93667784D01*
X180400499Y-93564069D01*
X180400499Y-90685931D01*
X180375500Y-90560256D01*
X180334877Y-90462186D01*
X180326465Y-90441875D01*
X180326462Y-90441870D01*
X180316169Y-90426465D01*
X180255277Y-90335332D01*
X179279668Y-89359723D01*
X179173126Y-89288535D01*
X179155872Y-89281388D01*
X179075091Y-89227411D01*
X179021116Y-89146629D01*
X179002163Y-89051340D01*
X179013437Y-88977266D01*
X179044433Y-88877792D01*
X179044433Y-88877790D01*
X179047413Y-88845000D01*
X176528585Y-88845000D01*
X176531564Y-88877790D01*
X176531565Y-88877795D01*
X176579425Y-89031390D01*
X176579428Y-89031395D01*
X176621323Y-89100698D01*
X176654399Y-89192050D01*
X176649999Y-89289105D01*
X176621324Y-89358332D01*
X176578968Y-89428396D01*
X176578966Y-89428401D01*
X176531069Y-89582112D01*
X176531068Y-89582119D01*
X176524999Y-89648895D01*
X176524999Y-90081094D01*
X176531068Y-90147885D01*
X176578967Y-90301600D01*
X176578969Y-90301605D01*
X176621323Y-90371666D01*
X176654399Y-90463017D01*
X176649999Y-90560072D01*
X176621324Y-90629299D01*
X176579428Y-90698602D01*
X176579425Y-90698609D01*
X176531565Y-90852204D01*
X176531564Y-90852209D01*
X176528584Y-90884999D01*
X176528585Y-90885000D01*
X177788999Y-90885000D01*
X177884287Y-90903954D01*
X177965069Y-90957930D01*
X178019045Y-91038712D01*
X178037999Y-91134000D01*
X178037999Y-91136000D01*
X178019045Y-91231288D01*
X177965069Y-91312070D01*
X177884287Y-91366046D01*
X177788999Y-91385000D01*
X176476175Y-91385000D01*
X176416350Y-91399745D01*
X176405074Y-91400000D01*
X175023085Y-91400000D01*
X174927797Y-91381046D01*
X174847015Y-91327070D01*
X173514666Y-89994721D01*
X173403622Y-89920525D01*
X173334922Y-89851826D01*
X173297742Y-89762067D01*
X173294246Y-89738792D01*
X173289998Y-89697203D01*
X173289753Y-89696465D01*
X173251861Y-89582113D01*
X173234813Y-89530666D01*
X173142711Y-89381344D01*
X173018655Y-89257288D01*
X173016320Y-89255848D01*
X172942462Y-89210292D01*
X172869333Y-89165186D01*
X172869331Y-89165185D01*
X172869329Y-89165184D01*
X172869331Y-89165184D01*
X172702801Y-89110002D01*
X172702797Y-89110001D01*
X172702796Y-89110001D01*
X172600008Y-89099500D01*
X172600004Y-89099500D01*
X171849983Y-89099500D01*
X171846529Y-89099677D01*
X171833859Y-89100000D01*
X170848999Y-89100000D01*
X170753711Y-89081046D01*
X170672929Y-89027070D01*
X170618953Y-88946288D01*
X170599999Y-88851000D01*
X170599999Y-88385711D01*
X170618953Y-88290423D01*
X170672929Y-88209641D01*
X170718275Y-88173786D01*
X170768655Y-88142712D01*
X170892711Y-88018656D01*
X170984813Y-87869334D01*
X170993561Y-87842933D01*
X171041525Y-87758444D01*
X171118171Y-87698740D01*
X171211830Y-87672912D01*
X171308243Y-87684892D01*
X171331186Y-87693775D01*
X171370196Y-87711144D01*
X171555353Y-87750500D01*
X171744644Y-87750500D01*
X171744645Y-87750500D01*
X171929802Y-87711144D01*
X171941410Y-87705976D01*
X172102727Y-87634152D01*
X172102727Y-87634151D01*
X172102729Y-87634151D01*
X172255870Y-87522888D01*
X172382532Y-87382216D01*
X172477178Y-87218284D01*
X172535673Y-87038256D01*
X172555459Y-86850000D01*
X172535673Y-86661744D01*
X172477178Y-86481716D01*
X172382532Y-86317784D01*
X172382530Y-86317781D01*
X172382529Y-86317780D01*
X172255872Y-86177114D01*
X172255871Y-86177113D01*
X172255870Y-86177112D01*
X172149734Y-86100000D01*
X172102727Y-86065847D01*
X171929809Y-85988858D01*
X171929795Y-85988854D01*
X171744645Y-85949500D01*
X171555353Y-85949500D01*
X171547082Y-85949500D01*
X171537546Y-85950000D01*
X171197391Y-85950000D01*
X171102103Y-85931046D01*
X171021321Y-85877070D01*
X170985462Y-85831718D01*
X170909522Y-85708599D01*
X170892711Y-85681344D01*
X170768655Y-85557288D01*
X170766025Y-85555666D01*
X170704712Y-85517848D01*
X170619333Y-85465186D01*
X170619331Y-85465185D01*
X170619329Y-85465184D01*
X170619331Y-85465184D01*
X170452801Y-85410002D01*
X170452797Y-85410001D01*
X170452796Y-85410001D01*
X170350008Y-85399500D01*
X170350004Y-85399500D01*
X169699983Y-85399500D01*
X169696529Y-85399677D01*
X169683859Y-85400000D01*
X167216163Y-85400000D01*
X167203496Y-85399678D01*
X167200014Y-85399500D01*
X167200008Y-85399500D01*
X167200001Y-85399500D01*
X166549992Y-85399500D01*
X166447198Y-85410001D01*
X166364635Y-85437361D01*
X166286312Y-85450000D01*
X165566163Y-85450000D01*
X165553496Y-85449678D01*
X165550014Y-85449500D01*
X165550008Y-85449500D01*
X165550001Y-85449500D01*
X164799992Y-85449500D01*
X164697198Y-85460001D01*
X164530666Y-85515185D01*
X164381345Y-85607286D01*
X164257285Y-85731346D01*
X164165183Y-85880668D01*
X164110001Y-86047197D01*
X164110000Y-86047202D01*
X164110000Y-86047203D01*
X164099499Y-86149991D01*
X164099499Y-86815408D01*
X164099500Y-86851000D01*
X164080546Y-86946288D01*
X164026570Y-87027069D01*
X163945788Y-87081046D01*
X163850500Y-87100000D01*
X162223999Y-87100000D01*
X162128711Y-87081046D01*
X162047929Y-87027070D01*
X161993953Y-86946288D01*
X161974999Y-86851000D01*
X161974999Y-85450001D01*
X162474999Y-85450001D01*
X162474999Y-86599999D01*
X162475000Y-86600000D01*
X163299997Y-86600000D01*
X163299998Y-86599999D01*
X163299998Y-86150032D01*
X163299997Y-86150015D01*
X163289504Y-86047300D01*
X163289503Y-86047297D01*
X163234358Y-85880880D01*
X163234357Y-85880878D01*
X163142317Y-85731658D01*
X163142314Y-85731654D01*
X163018344Y-85607684D01*
X163018340Y-85607681D01*
X162869120Y-85515641D01*
X162869119Y-85515640D01*
X162702700Y-85460495D01*
X162702693Y-85460494D01*
X162599980Y-85450000D01*
X162475000Y-85450000D01*
X162474999Y-85450001D01*
X161974999Y-85450001D01*
X161974999Y-85449999D01*
X161850020Y-85450000D01*
X161824802Y-85452577D01*
X161728081Y-85443404D01*
X161642233Y-85397916D01*
X161580327Y-85323038D01*
X161551788Y-85230169D01*
X161550499Y-85204866D01*
X161550499Y-84249000D01*
X161569453Y-84153712D01*
X161623429Y-84072930D01*
X161704211Y-84018954D01*
X161799499Y-84000000D01*
X168172543Y-84000000D01*
X168267831Y-84018954D01*
X168303259Y-84037070D01*
X168380665Y-84084814D01*
X168380668Y-84084815D01*
X168380666Y-84084815D01*
X168511142Y-84128050D01*
X168547202Y-84139999D01*
X168649990Y-84150500D01*
X169400007Y-84150499D01*
X169502796Y-84139999D01*
X169669333Y-84084814D01*
X169818655Y-83992712D01*
X169838439Y-83972927D01*
X169919218Y-83918954D01*
X170014506Y-83900000D01*
X170985492Y-83900000D01*
X171080780Y-83918954D01*
X171161558Y-83972927D01*
X171181343Y-83992712D01*
X171330665Y-84084814D01*
X171330668Y-84084815D01*
X171330666Y-84084815D01*
X171461142Y-84128050D01*
X171497202Y-84139999D01*
X171599990Y-84150500D01*
X171600468Y-84150499D01*
X171600629Y-84150532D01*
X171606320Y-84150822D01*
X171606277Y-84151654D01*
X171695754Y-84169439D01*
X171776543Y-84223404D01*
X171830531Y-84304177D01*
X171849499Y-84399463D01*
X171849499Y-84564071D01*
X171869510Y-84664669D01*
X171869511Y-84664672D01*
X171874497Y-84689743D01*
X171923534Y-84808128D01*
X171968551Y-84875501D01*
X171994722Y-84914669D01*
X175085330Y-88005277D01*
X175175984Y-88065849D01*
X175191872Y-88076465D01*
X175191874Y-88076465D01*
X175191876Y-88076467D01*
X175226548Y-88090828D01*
X175310255Y-88125501D01*
X175435928Y-88150499D01*
X175435929Y-88150500D01*
X176273607Y-88150500D01*
X176368895Y-88169454D01*
X176449677Y-88223430D01*
X176503653Y-88304212D01*
X176507082Y-88321455D01*
X176528585Y-88345000D01*
X179047413Y-88345000D01*
X179047413Y-88344999D01*
X179044433Y-88312209D01*
X179044432Y-88312204D01*
X178996572Y-88158609D01*
X178994101Y-88153119D01*
X178972276Y-88058447D01*
X178988341Y-87962630D01*
X179039851Y-87880254D01*
X179045060Y-87874884D01*
X180005276Y-86914669D01*
X180076465Y-86808126D01*
X180115424Y-86714069D01*
X180125500Y-86689744D01*
X180150499Y-86564069D01*
X180150499Y-83810931D01*
X180150499Y-83803802D01*
X180149999Y-83793621D01*
X180149999Y-82863035D01*
X180168953Y-82767747D01*
X180222929Y-82686965D01*
X180986964Y-81922930D01*
X181067746Y-81868954D01*
X181163034Y-81850000D01*
X181700999Y-81850000D01*
X181796287Y-81868954D01*
X181877069Y-81922930D01*
X181931045Y-82003712D01*
X181949999Y-82099000D01*
X181949999Y-82876615D01*
X181949243Y-82893270D01*
X181949255Y-82893271D01*
X181948999Y-82898917D01*
X181948999Y-83331101D01*
X181949255Y-83336726D01*
X181949244Y-83336726D01*
X181949999Y-83353375D01*
X181949999Y-84146615D01*
X181949243Y-84163270D01*
X181949255Y-84163271D01*
X181948999Y-84168917D01*
X181948999Y-84601101D01*
X181949255Y-84606726D01*
X181949244Y-84606726D01*
X181949999Y-84623375D01*
X181949999Y-85416615D01*
X181949243Y-85433270D01*
X181949255Y-85433271D01*
X181948999Y-85438917D01*
X181948999Y-85871094D01*
X181955068Y-85937885D01*
X182000647Y-86084152D01*
X182002968Y-86091602D01*
X182086263Y-86229388D01*
X182200111Y-86343236D01*
X182337897Y-86426531D01*
X182491612Y-86474430D01*
X182558408Y-86480500D01*
X183865589Y-86480499D01*
X183932386Y-86474430D01*
X184086101Y-86426531D01*
X184223887Y-86343236D01*
X184223888Y-86343234D01*
X184226905Y-86341411D01*
X184318256Y-86308335D01*
X184355723Y-86305500D01*
X184685930Y-86305500D01*
X184935930Y-86305500D01*
X185064068Y-86305500D01*
X185185930Y-86305500D01*
X185650999Y-86305500D01*
X185746287Y-86324454D01*
X185827069Y-86378430D01*
X185881045Y-86459212D01*
X185899999Y-86554500D01*
X185899999Y-87695500D01*
X185881045Y-87790788D01*
X185827069Y-87871570D01*
X185746287Y-87925546D01*
X185650999Y-87944500D01*
X184355723Y-87944500D01*
X184260435Y-87925546D01*
X184226905Y-87908589D01*
X184223888Y-87906765D01*
X184223887Y-87906764D01*
X184142893Y-87857801D01*
X184086100Y-87823468D01*
X184086097Y-87823467D01*
X183932386Y-87775570D01*
X183932379Y-87775569D01*
X183865593Y-87769500D01*
X182558419Y-87769500D01*
X182558389Y-87769502D01*
X182491613Y-87775569D01*
X182337898Y-87823468D01*
X182337897Y-87823469D01*
X182200112Y-87906763D01*
X182086262Y-88020613D01*
X182002968Y-88158398D01*
X182002966Y-88158401D01*
X181955069Y-88312112D01*
X181955068Y-88312119D01*
X181948999Y-88378895D01*
X181948999Y-88811101D01*
X181949255Y-88816726D01*
X181949244Y-88816726D01*
X181949999Y-88833375D01*
X181949999Y-89626615D01*
X181949243Y-89643270D01*
X181949255Y-89643271D01*
X181948999Y-89648917D01*
X181948999Y-90081101D01*
X181949255Y-90086726D01*
X181949244Y-90086726D01*
X181949999Y-90103375D01*
X181949999Y-90896615D01*
X181949243Y-90913270D01*
X181949255Y-90913271D01*
X181948999Y-90918917D01*
X181948999Y-91351101D01*
X181949255Y-91356726D01*
X181949244Y-91356726D01*
X181949999Y-91373375D01*
X181949999Y-92166615D01*
X181949243Y-92183270D01*
X181949255Y-92183271D01*
X181948999Y-92188917D01*
X181948999Y-92621094D01*
X181955068Y-92687885D01*
X181998667Y-92827798D01*
X182002968Y-92841602D01*
X182086263Y-92979388D01*
X182200111Y-93093236D01*
X182337897Y-93176531D01*
X182491612Y-93224430D01*
X182558408Y-93230500D01*
X183865589Y-93230499D01*
X183932386Y-93224430D01*
X184086101Y-93176531D01*
X184223887Y-93093236D01*
X184223888Y-93093234D01*
X184226905Y-93091411D01*
X184318256Y-93058335D01*
X184355723Y-93055500D01*
X184659069Y-93055500D01*
X184659069Y-93055499D01*
X184784743Y-93030501D01*
X184903126Y-92981465D01*
X184910609Y-92976465D01*
X185009668Y-92910277D01*
X185505275Y-92414670D01*
X185576464Y-92308127D01*
X185625500Y-92189744D01*
X185633505Y-92149500D01*
X185650499Y-92064069D01*
X185650499Y-91990767D01*
X185669453Y-91895479D01*
X185723429Y-91814697D01*
X185804211Y-91760721D01*
X185804212Y-91760721D01*
X185831302Y-91749500D01*
X185923126Y-91711465D01*
X185973315Y-91677930D01*
X186029668Y-91640277D01*
X187096515Y-90573430D01*
X187177297Y-90519454D01*
X187272585Y-90500500D01*
X188787788Y-90500500D01*
X188883076Y-90519454D01*
X188914535Y-90535173D01*
X189027101Y-90601744D01*
X189184930Y-90647598D01*
X189221805Y-90650500D01*
X189221807Y-90650500D01*
X190528191Y-90650500D01*
X190528193Y-90650500D01*
X190565068Y-90647598D01*
X190722897Y-90601744D01*
X190864364Y-90518081D01*
X190980580Y-90401865D01*
X191064243Y-90260398D01*
X191110097Y-90102569D01*
X191112999Y-90065694D01*
X191112999Y-89673119D01*
X191131953Y-89577831D01*
X191185929Y-89497049D01*
X191223662Y-89466083D01*
X191280060Y-89428401D01*
X191314663Y-89405281D01*
X191314664Y-89405279D01*
X191314668Y-89405277D01*
X191755276Y-88964669D01*
X191826464Y-88858127D01*
X191830037Y-88849501D01*
X191875500Y-88739744D01*
X191900499Y-88614069D01*
X191900499Y-88049500D01*
X191919453Y-87954212D01*
X191973429Y-87873430D01*
X192054211Y-87819454D01*
X192149499Y-87800500D01*
X192364069Y-87800500D01*
X192364069Y-87800499D01*
X192489743Y-87775501D01*
X192608126Y-87726465D01*
X192638793Y-87705974D01*
X192714668Y-87655277D01*
X193150932Y-87219012D01*
X193231711Y-87165039D01*
X193326999Y-87146085D01*
X193422287Y-87165039D01*
X193503069Y-87219015D01*
X193557045Y-87299797D01*
X193575999Y-87395085D01*
X193575999Y-91447832D01*
X193582400Y-91507370D01*
X193582402Y-91507380D01*
X193604857Y-91567585D01*
X196349928Y-88822516D01*
X196430710Y-88768540D01*
X196525998Y-88749586D01*
X196621286Y-88768540D01*
X196702068Y-88822516D01*
X196703482Y-88823930D01*
X196757458Y-88904712D01*
X196776412Y-89000000D01*
X196757458Y-89095288D01*
X196703482Y-89176070D01*
X193984271Y-91895280D01*
X194028169Y-91899999D01*
X194028171Y-91900000D01*
X199000998Y-91900000D01*
X199096286Y-91918954D01*
X199177068Y-91972930D01*
X199231044Y-92053712D01*
X199249998Y-92149000D01*
X199249998Y-93997804D01*
X199249958Y-94002244D01*
X199247728Y-94127286D01*
X199245233Y-94158282D01*
X199209321Y-94408051D01*
X199201772Y-94442757D01*
X199131308Y-94682736D01*
X199118892Y-94716024D01*
X199014994Y-94943526D01*
X198997968Y-94974706D01*
X198862751Y-95185109D01*
X198841465Y-95213544D01*
X198677679Y-95402562D01*
X198652559Y-95427682D01*
X198463542Y-95591467D01*
X198435100Y-95612758D01*
X198224702Y-95747972D01*
X198193521Y-95764998D01*
X197966023Y-95868893D01*
X197932736Y-95881309D01*
X197692761Y-95951772D01*
X197658045Y-95959324D01*
X197408272Y-95995235D01*
X197377279Y-95997729D01*
X197257686Y-95999862D01*
X197252239Y-95999960D01*
X197247802Y-96000000D01*
X193548999Y-96000000D01*
X193453711Y-95981046D01*
X193372929Y-95927070D01*
X193318953Y-95846288D01*
X193299999Y-95751000D01*
X193299999Y-94221794D01*
X193300633Y-94204031D01*
X193303905Y-94158282D01*
X193315226Y-94000000D01*
X193296342Y-93735974D01*
X193240076Y-93477322D01*
X193147573Y-93229311D01*
X193020715Y-92996989D01*
X192862086Y-92785085D01*
X192674914Y-92597913D01*
X192463010Y-92439284D01*
X192378229Y-92392990D01*
X192230690Y-92312427D01*
X192230686Y-92312425D01*
X192103721Y-92265070D01*
X191982677Y-92219923D01*
X191780292Y-92175897D01*
X191724026Y-92163657D01*
X191459999Y-92144773D01*
X191195971Y-92163657D01*
X191110658Y-92182216D01*
X190937321Y-92219923D01*
X190871409Y-92244507D01*
X190689311Y-92312425D01*
X190689307Y-92312427D01*
X190456994Y-92439280D01*
X190456987Y-92439284D01*
X190245089Y-92597908D01*
X190245085Y-92597912D01*
X190216129Y-92626867D01*
X190135346Y-92680841D01*
X190040057Y-92699792D01*
X189953050Y-92684093D01*
X189877483Y-92655909D01*
X189877484Y-92655909D01*
X189817872Y-92649500D01*
X188022133Y-92649500D01*
X188022129Y-92649500D01*
X188022127Y-92649501D01*
X188009313Y-92650878D01*
X187962518Y-92655908D01*
X187962514Y-92655909D01*
X187827669Y-92706203D01*
X187712454Y-92792453D01*
X187712452Y-92792455D01*
X187626203Y-92907669D01*
X187575907Y-93042518D01*
X187569499Y-93102123D01*
X187569499Y-94897865D01*
X187569499Y-94897868D01*
X187569500Y-94897872D01*
X187569783Y-94900500D01*
X187575907Y-94957480D01*
X187575908Y-94957485D01*
X187584300Y-94979983D01*
X187599999Y-95066998D01*
X187599999Y-95751000D01*
X187581045Y-95846288D01*
X187527069Y-95927070D01*
X187446287Y-95981046D01*
X187350999Y-96000000D01*
X141598999Y-96000000D01*
X141503711Y-95981046D01*
X141422929Y-95927070D01*
X141368953Y-95846288D01*
X141349999Y-95751000D01*
X141349999Y-95113869D01*
X141350356Y-95100540D01*
X141350496Y-95097892D01*
X141350499Y-95097873D01*
X141350498Y-93302128D01*
X141350497Y-93302124D01*
X141350356Y-93299484D01*
X141349999Y-93286153D01*
X141349999Y-91935236D01*
X141330635Y-91910000D01*
X140433011Y-91910000D01*
X140465924Y-91852993D01*
X140499999Y-91725826D01*
X140499999Y-91594174D01*
X140465924Y-91467007D01*
X140433011Y-91410000D01*
X141339998Y-91410000D01*
X141349998Y-91400000D01*
X141349999Y-91400000D01*
X141349999Y-91275001D01*
X145850000Y-91275001D01*
X145850000Y-91399984D01*
X145860493Y-91502699D01*
X145860494Y-91502702D01*
X145915639Y-91669119D01*
X145915640Y-91669121D01*
X146007680Y-91818341D01*
X146007683Y-91818345D01*
X146131653Y-91942315D01*
X146131657Y-91942318D01*
X146280877Y-92034358D01*
X146280878Y-92034359D01*
X146447297Y-92089504D01*
X146447304Y-92089505D01*
X146550022Y-92099999D01*
X146999999Y-92099999D01*
X146999999Y-91275001D01*
X146999998Y-91275000D01*
X145850001Y-91275000D01*
X145850000Y-91275001D01*
X141349999Y-91275001D01*
X141349999Y-90199000D01*
X141368953Y-90103712D01*
X141422929Y-90022930D01*
X141503711Y-89968954D01*
X141598999Y-89950000D01*
X143562498Y-89950000D01*
X143562499Y-89949999D01*
X143562499Y-88749000D01*
X143581453Y-88653712D01*
X143635429Y-88572930D01*
X143716211Y-88518954D01*
X143811499Y-88500000D01*
X143813499Y-88500000D01*
X143908787Y-88518954D01*
X143989569Y-88572930D01*
X144043545Y-88653712D01*
X144062499Y-88749000D01*
X144062499Y-89949999D01*
X144062500Y-89950000D01*
X145377996Y-89950000D01*
X145390663Y-89950322D01*
X145394145Y-89950499D01*
X145394151Y-89950500D01*
X145394157Y-89950500D01*
X145734960Y-89950500D01*
X145830248Y-89969454D01*
X145911030Y-90023430D01*
X145965006Y-90104212D01*
X145983960Y-90199500D01*
X145965006Y-90294788D01*
X145946888Y-90330220D01*
X145915639Y-90380881D01*
X145860494Y-90547298D01*
X145860493Y-90547305D01*
X145849999Y-90650018D01*
X145849999Y-90774999D01*
X145850000Y-90775000D01*
X146999998Y-90775000D01*
X146999999Y-90774999D01*
X146999999Y-89950001D01*
X147499999Y-89950001D01*
X147499999Y-90774999D01*
X147500000Y-90775000D01*
X148649997Y-90775000D01*
X148649998Y-90774999D01*
X148649998Y-90650032D01*
X148649997Y-90650015D01*
X148639504Y-90547300D01*
X148639503Y-90547297D01*
X148584358Y-90380880D01*
X148584357Y-90380878D01*
X148492317Y-90231658D01*
X148492314Y-90231654D01*
X148368344Y-90107684D01*
X148368340Y-90107681D01*
X148219120Y-90015641D01*
X148219119Y-90015640D01*
X148052700Y-89960495D01*
X148052693Y-89960494D01*
X147949980Y-89950000D01*
X147500000Y-89950000D01*
X147499999Y-89950001D01*
X146999999Y-89950001D01*
X146999999Y-87814507D01*
X147018953Y-87719219D01*
X147072926Y-87638440D01*
X147117711Y-87593656D01*
X147209813Y-87444334D01*
X147264998Y-87277797D01*
X147275499Y-87175009D01*
X147275498Y-86416619D01*
X147294452Y-86321333D01*
X147348428Y-86240552D01*
X147429210Y-86186575D01*
X147524498Y-86167621D01*
X147576264Y-86173061D01*
X147705353Y-86200500D01*
X147705354Y-86200500D01*
X147894644Y-86200500D01*
X147894645Y-86200500D01*
X148079802Y-86161144D01*
X148104859Y-86149988D01*
X148252727Y-86084152D01*
X148252727Y-86084151D01*
X148252729Y-86084151D01*
X148405870Y-85972888D01*
X148532532Y-85832216D01*
X148627178Y-85668284D01*
X148685673Y-85488256D01*
X148705459Y-85300000D01*
X148685673Y-85111744D01*
X148627178Y-84931716D01*
X148532532Y-84767784D01*
X148532530Y-84767781D01*
X148532529Y-84767780D01*
X148405872Y-84627114D01*
X148405871Y-84627113D01*
X148405870Y-84627112D01*
X148274568Y-84531716D01*
X148252640Y-84515784D01*
X148186691Y-84444441D01*
X148153065Y-84353291D01*
X148149999Y-84314339D01*
X148149999Y-84021117D01*
X148168953Y-83925829D01*
X148199218Y-83875332D01*
X148198480Y-83874839D01*
X148205273Y-83864671D01*
X148205276Y-83864669D01*
X148276464Y-83758127D01*
X148325500Y-83639744D01*
X148326257Y-83635936D01*
X148326259Y-83635936D01*
X148326261Y-83635914D01*
X148350499Y-83514069D01*
X148350499Y-82172586D01*
X148369453Y-82077298D01*
X148423429Y-81996516D01*
X149946515Y-80473430D01*
X150027297Y-80419454D01*
X150122585Y-80400500D01*
X150235930Y-80400500D01*
X150250999Y-80400500D01*
X150346287Y-80419454D01*
G37*
G04 #@! TD.AperFunction*
G04 #@! TA.AperFunction,Conductor*
G36*
X168896502Y-91900322D02*
G01*
X168899964Y-91900497D01*
X168899990Y-91900500D01*
X169650007Y-91900499D01*
X169650014Y-91900499D01*
X169653469Y-91900323D01*
X169666139Y-91900000D01*
X171833835Y-91900000D01*
X171846502Y-91900322D01*
X171849964Y-91900497D01*
X171849990Y-91900500D01*
X172600007Y-91900499D01*
X172600014Y-91900499D01*
X172603469Y-91900323D01*
X172616139Y-91900000D01*
X173476913Y-91900000D01*
X173572201Y-91918954D01*
X173652983Y-91972930D01*
X174427069Y-92747016D01*
X174481045Y-92827798D01*
X174499999Y-92923086D01*
X174499999Y-93350500D01*
X174481045Y-93445788D01*
X174427069Y-93526570D01*
X174346287Y-93580546D01*
X174250999Y-93599500D01*
X168822585Y-93599500D01*
X168727297Y-93580546D01*
X168646515Y-93526570D01*
X168422929Y-93302984D01*
X168368953Y-93222202D01*
X168349999Y-93126914D01*
X168349999Y-92149000D01*
X168368953Y-92053712D01*
X168422929Y-91972930D01*
X168503711Y-91918954D01*
X168598999Y-91900000D01*
X168883835Y-91900000D01*
X168896502Y-91900322D01*
G37*
G04 #@! TD.AperFunction*
G04 #@! TA.AperFunction,Conductor*
G36*
X191709999Y-77330634D02*
G01*
X191735236Y-77350000D01*
X193086129Y-77350000D01*
X193099457Y-77350357D01*
X193102109Y-77350498D01*
X193102126Y-77350500D01*
X193722074Y-77350499D01*
X193817359Y-77369453D01*
X193898140Y-77423429D01*
X193952117Y-77504210D01*
X193969089Y-77589536D01*
X196525999Y-80146447D01*
X196703482Y-80323930D01*
X196757458Y-80404712D01*
X196776412Y-80500000D01*
X196757458Y-80595288D01*
X196703482Y-80676070D01*
X194032302Y-83347249D01*
X193999193Y-83369371D01*
X193983445Y-83392939D01*
X194035816Y-83541390D01*
X194049999Y-83624228D01*
X194049999Y-84376914D01*
X194031045Y-84472202D01*
X193977069Y-84552984D01*
X192325569Y-86204484D01*
X192244787Y-86258460D01*
X192149499Y-86277414D01*
X192054211Y-86258460D01*
X191973429Y-86204484D01*
X191919453Y-86123702D01*
X191900499Y-86028414D01*
X191900499Y-85785930D01*
X191900498Y-85785928D01*
X191898437Y-85775568D01*
X191875500Y-85660256D01*
X191826464Y-85541873D01*
X191826218Y-85541505D01*
X191810963Y-85518673D01*
X191810958Y-85518668D01*
X191755276Y-85435331D01*
X191538343Y-85218398D01*
X191314671Y-84994725D01*
X191223663Y-84933916D01*
X191154964Y-84865217D01*
X191117784Y-84775458D01*
X191112999Y-84726879D01*
X191112999Y-84334308D01*
X191112998Y-84334295D01*
X191110097Y-84297431D01*
X191064243Y-84139602D01*
X190980580Y-83998135D01*
X190864364Y-83881919D01*
X190722897Y-83798256D01*
X190565068Y-83752402D01*
X190565065Y-83752401D01*
X190565062Y-83752401D01*
X190528203Y-83749500D01*
X190528193Y-83749500D01*
X189221805Y-83749500D01*
X189221794Y-83749500D01*
X189184935Y-83752401D01*
X189184926Y-83752403D01*
X189027100Y-83798256D01*
X188973656Y-83829863D01*
X188914537Y-83864825D01*
X188822872Y-83897016D01*
X188787788Y-83899500D01*
X187672585Y-83899500D01*
X187577297Y-83880546D01*
X187496515Y-83826570D01*
X186572929Y-82902984D01*
X186518953Y-82822202D01*
X186499999Y-82726914D01*
X186499999Y-79036425D01*
X186507546Y-78975584D01*
X186517986Y-78934151D01*
X186540095Y-78846412D01*
X186541565Y-78827743D01*
X186550498Y-78714228D01*
X186550499Y-78714217D01*
X186550498Y-78052167D01*
X193575999Y-78052167D01*
X193575999Y-82947832D01*
X193582400Y-83007370D01*
X193582402Y-83007380D01*
X193604857Y-83067585D01*
X193624929Y-83047515D01*
X193651396Y-83029830D01*
X193658461Y-83016175D01*
X193676977Y-82995466D01*
X196172444Y-80499999D01*
X193604857Y-77932411D01*
X193582402Y-77992617D01*
X193582401Y-77992623D01*
X193575999Y-78052167D01*
X186550498Y-78052167D01*
X186550498Y-77749498D01*
X186569452Y-77654212D01*
X186623428Y-77573431D01*
X186704210Y-77519454D01*
X186799498Y-77500500D01*
X187753674Y-77500500D01*
X187848962Y-77519454D01*
X187902894Y-77550165D01*
X187916988Y-77560716D01*
X188149310Y-77687574D01*
X188397321Y-77780077D01*
X188655973Y-77836343D01*
X188919999Y-77855227D01*
X189184025Y-77836343D01*
X189442677Y-77780077D01*
X189690688Y-77687574D01*
X189923010Y-77560716D01*
X190134914Y-77402087D01*
X190134918Y-77402082D01*
X190138148Y-77399665D01*
X190225788Y-77357735D01*
X190287368Y-77350000D01*
X191184762Y-77350000D01*
X191209999Y-77330634D01*
X191209999Y-76433012D01*
X191267006Y-76465925D01*
X191394173Y-76500000D01*
X191525825Y-76500000D01*
X191652992Y-76465925D01*
X191709999Y-76433012D01*
X191709999Y-77330634D01*
G37*
G04 #@! TD.AperFunction*
G04 #@! TA.AperFunction,Conductor*
G36*
X148996287Y-78768954D02*
G01*
X149077069Y-78822930D01*
X149131045Y-78903712D01*
X149149999Y-78999000D01*
X149149999Y-79326914D01*
X149131045Y-79422202D01*
X149077069Y-79502984D01*
X148002983Y-80577070D01*
X147922201Y-80631046D01*
X147826913Y-80650000D01*
X147523999Y-80650000D01*
X147428711Y-80631046D01*
X147347929Y-80577070D01*
X147339594Y-80564596D01*
X147274998Y-80500000D01*
X146462500Y-80500000D01*
X146462499Y-80500001D01*
X146462499Y-82501000D01*
X146443545Y-82596288D01*
X146389569Y-82677070D01*
X146308787Y-82731046D01*
X146213499Y-82750000D01*
X146211499Y-82750000D01*
X146116211Y-82731046D01*
X146035429Y-82677070D01*
X145981453Y-82596288D01*
X145962499Y-82501000D01*
X145962499Y-80249000D01*
X145981453Y-80153712D01*
X146035429Y-80072930D01*
X146116211Y-80018954D01*
X146211499Y-80000000D01*
X147274997Y-80000000D01*
X147274998Y-79999999D01*
X147274998Y-79575032D01*
X147274997Y-79575015D01*
X147264504Y-79472300D01*
X147264503Y-79472297D01*
X147233032Y-79377322D01*
X147221051Y-79280908D01*
X147246878Y-79187249D01*
X147306581Y-79110603D01*
X147391071Y-79062639D01*
X147469393Y-79050000D01*
X147887546Y-79050000D01*
X147897082Y-79050500D01*
X147905353Y-79050500D01*
X148094644Y-79050500D01*
X148094645Y-79050500D01*
X148279802Y-79011144D01*
X148397936Y-78958547D01*
X148452727Y-78934152D01*
X148452727Y-78934151D01*
X148452729Y-78934151D01*
X148605870Y-78822888D01*
X148605875Y-78822881D01*
X148615574Y-78814151D01*
X148618055Y-78816907D01*
X148675114Y-78774280D01*
X148769274Y-78750344D01*
X148782361Y-78750000D01*
X148900999Y-78750000D01*
X148996287Y-78768954D01*
G37*
G04 #@! TD.AperFunction*
G04 #@! TA.AperFunction,Conductor*
G36*
X174646287Y-73768954D02*
G01*
X174727069Y-73822930D01*
X174781045Y-73903712D01*
X174799999Y-73999000D01*
X174799999Y-74321861D01*
X174781045Y-74417149D01*
X174774999Y-74426197D01*
X174774999Y-78251000D01*
X174756045Y-78346288D01*
X174702069Y-78427070D01*
X174621287Y-78481046D01*
X174525999Y-78500000D01*
X173237298Y-78500000D01*
X173142010Y-78481046D01*
X173061228Y-78427070D01*
X173007252Y-78346288D01*
X173000937Y-78329324D01*
X172984813Y-78280666D01*
X172946030Y-78217789D01*
X172892711Y-78131344D01*
X172768655Y-78007288D01*
X172768652Y-78007286D01*
X172619332Y-77915185D01*
X172570675Y-77899062D01*
X172486186Y-77851097D01*
X172426484Y-77774450D01*
X172400657Y-77680791D01*
X172399999Y-77662701D01*
X172399999Y-76719460D01*
X172418953Y-76624172D01*
X172463955Y-76552846D01*
X172482532Y-76532216D01*
X172577178Y-76368284D01*
X172635673Y-76188256D01*
X172644949Y-76100001D01*
X173449999Y-76100001D01*
X173449999Y-77999999D01*
X173450000Y-78000000D01*
X174274998Y-78000000D01*
X174274999Y-77999999D01*
X174274999Y-76100001D01*
X174274998Y-76100000D01*
X173450000Y-76100000D01*
X173449999Y-76100001D01*
X172644949Y-76100001D01*
X172655459Y-76000000D01*
X172635673Y-75811744D01*
X172577178Y-75631716D01*
X172482532Y-75467784D01*
X172482530Y-75467781D01*
X172482529Y-75467780D01*
X172355872Y-75327114D01*
X172355871Y-75327113D01*
X172355870Y-75327112D01*
X172221258Y-75229311D01*
X172202727Y-75215847D01*
X172054874Y-75150018D01*
X173449999Y-75150018D01*
X173449999Y-75599999D01*
X173450000Y-75600000D01*
X174274998Y-75600000D01*
X174274999Y-75599999D01*
X174274999Y-74449999D01*
X174150023Y-74450000D01*
X174047299Y-74460494D01*
X174047296Y-74460495D01*
X173880879Y-74515640D01*
X173880877Y-74515641D01*
X173731657Y-74607681D01*
X173731653Y-74607684D01*
X173607683Y-74731654D01*
X173607680Y-74731658D01*
X173515640Y-74880878D01*
X173515639Y-74880879D01*
X173460494Y-75047298D01*
X173460493Y-75047305D01*
X173449999Y-75150018D01*
X172054874Y-75150018D01*
X172029809Y-75138858D01*
X172029795Y-75138854D01*
X171844645Y-75099500D01*
X171673917Y-75099500D01*
X171203700Y-75099500D01*
X171108412Y-75080546D01*
X171027630Y-75026570D01*
X170973654Y-74945788D01*
X170967339Y-74928822D01*
X170934814Y-74830668D01*
X170925871Y-74816168D01*
X170842711Y-74681344D01*
X170718655Y-74557288D01*
X170569333Y-74465186D01*
X170569331Y-74465185D01*
X170569329Y-74465184D01*
X170569331Y-74465184D01*
X170402801Y-74410002D01*
X170402797Y-74410001D01*
X170402796Y-74410001D01*
X170300008Y-74399500D01*
X170300004Y-74399500D01*
X169649983Y-74399500D01*
X169646529Y-74399677D01*
X169633859Y-74400000D01*
X167166163Y-74400000D01*
X167153496Y-74399678D01*
X167150014Y-74399500D01*
X167150008Y-74399500D01*
X167150001Y-74399500D01*
X166499992Y-74399500D01*
X166397198Y-74410001D01*
X166314635Y-74437361D01*
X166236312Y-74450000D01*
X165516163Y-74450000D01*
X165503496Y-74449678D01*
X165500014Y-74449500D01*
X165500008Y-74449500D01*
X165500001Y-74449500D01*
X164749992Y-74449500D01*
X164647198Y-74460001D01*
X164480666Y-74515185D01*
X164331345Y-74607286D01*
X164207285Y-74731346D01*
X164115183Y-74880668D01*
X164060001Y-75047197D01*
X164060000Y-75047202D01*
X164060000Y-75047203D01*
X164059335Y-75053712D01*
X164050637Y-75138856D01*
X164049499Y-75149991D01*
X164049499Y-75827114D01*
X164049500Y-75851000D01*
X164030546Y-75946288D01*
X163976570Y-76027069D01*
X163895788Y-76081046D01*
X163800500Y-76100000D01*
X160852627Y-76100000D01*
X160757339Y-76081046D01*
X160676557Y-76027070D01*
X160636991Y-75975508D01*
X160632532Y-75967784D01*
X160632526Y-75967778D01*
X160632523Y-75967773D01*
X160505872Y-75827114D01*
X160505871Y-75827113D01*
X160505870Y-75827112D01*
X160429299Y-75771480D01*
X160352727Y-75715847D01*
X160179809Y-75638858D01*
X160179795Y-75638854D01*
X159994645Y-75599500D01*
X159805353Y-75599500D01*
X159797082Y-75599500D01*
X159787546Y-75600000D01*
X159298999Y-75600000D01*
X159203711Y-75581046D01*
X159122929Y-75527070D01*
X159068953Y-75446288D01*
X159068373Y-75443375D01*
X159049998Y-75425000D01*
X157900000Y-75425000D01*
X157899999Y-75425001D01*
X157899999Y-75600000D01*
X157399999Y-75635714D01*
X157399999Y-75174000D01*
X157404769Y-75150018D01*
X161099999Y-75150018D01*
X161099999Y-75599999D01*
X161100000Y-75600000D01*
X161924998Y-75600000D01*
X161924999Y-75599999D01*
X161924999Y-74450001D01*
X162424999Y-74450001D01*
X162424999Y-75599999D01*
X162425000Y-75600000D01*
X163249997Y-75600000D01*
X163249998Y-75599999D01*
X163249998Y-75150032D01*
X163249997Y-75150015D01*
X163239504Y-75047300D01*
X163239503Y-75047297D01*
X163184358Y-74880880D01*
X163184357Y-74880878D01*
X163092317Y-74731658D01*
X163092314Y-74731654D01*
X162968344Y-74607684D01*
X162968340Y-74607681D01*
X162819120Y-74515641D01*
X162819119Y-74515640D01*
X162652700Y-74460495D01*
X162652693Y-74460494D01*
X162549980Y-74450000D01*
X162425000Y-74450000D01*
X162424999Y-74450001D01*
X161924999Y-74450001D01*
X161924999Y-74449999D01*
X161800023Y-74450000D01*
X161697299Y-74460494D01*
X161697296Y-74460495D01*
X161530879Y-74515640D01*
X161530877Y-74515641D01*
X161381657Y-74607681D01*
X161381653Y-74607684D01*
X161257683Y-74731654D01*
X161257680Y-74731658D01*
X161165640Y-74880878D01*
X161165639Y-74880879D01*
X161110494Y-75047298D01*
X161110493Y-75047305D01*
X161099999Y-75150018D01*
X157404769Y-75150018D01*
X157418953Y-75078712D01*
X157472929Y-74997930D01*
X157553711Y-74943954D01*
X157648999Y-74925000D01*
X159049997Y-74925000D01*
X159049998Y-74924999D01*
X159049998Y-74800032D01*
X159049997Y-74800015D01*
X159039504Y-74697300D01*
X159039503Y-74697297D01*
X158984358Y-74530880D01*
X158984357Y-74530878D01*
X158892317Y-74381658D01*
X158892314Y-74381654D01*
X158768344Y-74257684D01*
X158768342Y-74257683D01*
X158692542Y-74210929D01*
X158621391Y-74144773D01*
X158580972Y-74056425D01*
X158577440Y-73959334D01*
X158611331Y-73868282D01*
X158677487Y-73797131D01*
X158765835Y-73756712D01*
X158823260Y-73750000D01*
X174550999Y-73750000D01*
X174646287Y-73768954D01*
G37*
G04 #@! TD.AperFunction*
G04 #@! TA.AperFunction,Conductor*
G36*
X182146287Y-73768954D02*
G01*
X182227069Y-73822930D01*
X182281045Y-73903712D01*
X182299999Y-73999000D01*
X182299999Y-74221861D01*
X182281045Y-74317149D01*
X182274999Y-74326197D01*
X182274999Y-78001000D01*
X182256045Y-78096288D01*
X182202069Y-78177070D01*
X182121287Y-78231046D01*
X182025999Y-78250000D01*
X182023999Y-78250000D01*
X181928711Y-78231046D01*
X181847929Y-78177070D01*
X181793953Y-78096288D01*
X181774999Y-78001000D01*
X181774999Y-76000001D01*
X181774998Y-76000000D01*
X180950000Y-76000000D01*
X180949999Y-76000001D01*
X180949999Y-76901000D01*
X180931045Y-76996288D01*
X180877069Y-77077070D01*
X180796287Y-77131046D01*
X180700999Y-77150000D01*
X180415390Y-77150000D01*
X180320102Y-77131046D01*
X180302347Y-77122861D01*
X180275991Y-77109432D01*
X180275986Y-77109430D01*
X180147812Y-77067784D01*
X180051367Y-77036447D01*
X180051365Y-77036446D01*
X180051363Y-77036446D01*
X179818102Y-76999501D01*
X179818093Y-76999500D01*
X179818091Y-76999500D01*
X179818087Y-76999500D01*
X179298999Y-76999500D01*
X179203711Y-76980546D01*
X179122929Y-76926570D01*
X179068953Y-76845788D01*
X179049999Y-76750500D01*
X179049999Y-76580352D01*
X179050441Y-76569107D01*
X179050307Y-76569102D01*
X179050496Y-76564243D01*
X179050499Y-76564217D01*
X179050498Y-75135784D01*
X179050497Y-75135778D01*
X179050306Y-75130906D01*
X179050440Y-75130900D01*
X179049999Y-75119663D01*
X179049999Y-75050018D01*
X180949999Y-75050018D01*
X180949999Y-75499999D01*
X180950000Y-75500000D01*
X181774998Y-75500000D01*
X181774999Y-75499999D01*
X181774999Y-74349999D01*
X181650023Y-74350000D01*
X181547299Y-74360494D01*
X181547296Y-74360495D01*
X181380879Y-74415640D01*
X181380877Y-74415641D01*
X181231657Y-74507681D01*
X181231653Y-74507684D01*
X181107683Y-74631654D01*
X181107680Y-74631658D01*
X181015640Y-74780878D01*
X181015639Y-74780879D01*
X180960494Y-74947298D01*
X180960493Y-74947305D01*
X180949999Y-75050018D01*
X179049999Y-75050018D01*
X179049999Y-73999000D01*
X179068953Y-73903712D01*
X179122929Y-73822930D01*
X179203711Y-73768954D01*
X179298999Y-73750000D01*
X182050999Y-73750000D01*
X182146287Y-73768954D01*
G37*
G04 #@! TD.AperFunction*
G04 #@! TA.AperFunction,Conductor*
G36*
X197252238Y-73750040D02*
G01*
X197257043Y-73750125D01*
X197377290Y-73752272D01*
X197408255Y-73754763D01*
X197658050Y-73790678D01*
X197692758Y-73798229D01*
X197932736Y-73868693D01*
X197966009Y-73881102D01*
X198193538Y-73985012D01*
X198224688Y-74002021D01*
X198435101Y-74137245D01*
X198463541Y-74158535D01*
X198652558Y-74322320D01*
X198677678Y-74347440D01*
X198841463Y-74536457D01*
X198862751Y-74564894D01*
X198997974Y-74775305D01*
X199014988Y-74806465D01*
X199118892Y-75033982D01*
X199131305Y-75067262D01*
X199201769Y-75307240D01*
X199209321Y-75341955D01*
X199245232Y-75591726D01*
X199247726Y-75622720D01*
X199249957Y-75747755D01*
X199249997Y-75752197D01*
X199249997Y-77351000D01*
X199231043Y-77446288D01*
X199177067Y-77527070D01*
X199096285Y-77581046D01*
X199000997Y-77600000D01*
X195411196Y-77600000D01*
X195315908Y-77581046D01*
X195235126Y-77527070D01*
X195181150Y-77446288D01*
X195162196Y-77351000D01*
X195181150Y-77255712D01*
X195211859Y-77201783D01*
X195293795Y-77092331D01*
X195344090Y-76957483D01*
X195350499Y-76897873D01*
X195350498Y-75102128D01*
X195344090Y-75042517D01*
X195293795Y-74907669D01*
X195207545Y-74792454D01*
X195092330Y-74706204D01*
X194980218Y-74664389D01*
X194957480Y-74655908D01*
X194897872Y-74649500D01*
X193102134Y-74649500D01*
X193099486Y-74649643D01*
X193086153Y-74650000D01*
X191709999Y-74650000D01*
X191709999Y-75566988D01*
X191652992Y-75534075D01*
X191525825Y-75500000D01*
X191394173Y-75500000D01*
X191267006Y-75534075D01*
X191209999Y-75566988D01*
X191209999Y-74594578D01*
X191202130Y-74571398D01*
X191199999Y-74538893D01*
X191199999Y-73999000D01*
X191218953Y-73903712D01*
X191272929Y-73822930D01*
X191353711Y-73768954D01*
X191448999Y-73750000D01*
X197247796Y-73750000D01*
X197252238Y-73750040D01*
G37*
G04 #@! TD.AperFunction*
G04 #@! TA.AperFunction,Conductor*
G36*
X155298581Y-73768954D02*
G01*
X155379363Y-73822930D01*
X155433339Y-73903712D01*
X155452293Y-73999000D01*
X155433339Y-74094288D01*
X155379363Y-74175070D01*
X155349651Y-74200445D01*
X155244129Y-74277111D01*
X155244126Y-74277113D01*
X155117468Y-74417780D01*
X155117463Y-74417787D01*
X155026408Y-74575500D01*
X154962350Y-74648545D01*
X154875214Y-74691516D01*
X154810768Y-74700000D01*
X154631828Y-74700000D01*
X154620583Y-74699557D01*
X154620578Y-74699692D01*
X154615693Y-74699500D01*
X153584305Y-74699500D01*
X153584304Y-74699500D01*
X153579420Y-74699692D01*
X153579414Y-74699557D01*
X153568170Y-74700000D01*
X152131828Y-74700000D01*
X152120583Y-74699557D01*
X152120578Y-74699692D01*
X152115693Y-74699500D01*
X151084305Y-74699500D01*
X151084304Y-74699500D01*
X151079420Y-74699692D01*
X151079414Y-74699557D01*
X151068170Y-74700000D01*
X150549999Y-74700000D01*
X150478796Y-74794938D01*
X150475075Y-74799899D01*
X150402739Y-74864757D01*
X150311089Y-74896996D01*
X150275875Y-74899499D01*
X150170942Y-74899499D01*
X150018216Y-74940422D01*
X150018211Y-74940424D01*
X149881284Y-75019479D01*
X149881282Y-75019480D01*
X149513949Y-75386812D01*
X149433168Y-75440788D01*
X149337879Y-75459742D01*
X149242591Y-75440788D01*
X149181547Y-75400000D01*
X148111499Y-75400000D01*
X148016211Y-75381046D01*
X147935429Y-75327070D01*
X147881453Y-75246288D01*
X147862499Y-75151000D01*
X147862499Y-75149000D01*
X147881453Y-75053712D01*
X147935429Y-74972930D01*
X148016211Y-74918954D01*
X148111499Y-74900000D01*
X149174997Y-74900000D01*
X149174998Y-74899999D01*
X149174998Y-74475032D01*
X149174997Y-74475015D01*
X149164504Y-74372300D01*
X149164503Y-74372297D01*
X149109358Y-74205880D01*
X149062381Y-74129718D01*
X149028490Y-74038666D01*
X149032022Y-73941576D01*
X149072440Y-73853227D01*
X149143592Y-73787071D01*
X149234644Y-73753180D01*
X149274310Y-73750000D01*
X155203293Y-73750000D01*
X155298581Y-73768954D01*
G37*
G04 #@! TD.AperFunction*
M02*
