%TF.GenerationSoftware,KiCad,Pcbnew,8.0.6*%
%TF.CreationDate,2024-10-28T10:45:57+07:00*%
%TF.ProjectId,PMOD-Pulser_update,504d4f44-2d50-4756-9c73-65725f757064,rev?*%
%TF.SameCoordinates,PX5e2ce30PY52bb330*%
%TF.FileFunction,Copper,L2,Bot*%
%TF.FilePolarity,Positive*%
%FSLAX46Y46*%
G04 Gerber Fmt 4.6, Leading zero omitted, Abs format (unit mm)*
G04 Created by KiCad (PCBNEW 8.0.6) date 2024-10-28 10:45:57*
%MOMM*%
%LPD*%
G01*
G04 APERTURE LIST*
%TA.AperFunction,ComponentPad*%
%ADD10C,2.000000*%
%TD*%
%TA.AperFunction,ComponentPad*%
%ADD11R,1.700000X1.700000*%
%TD*%
%TA.AperFunction,ComponentPad*%
%ADD12O,1.700000X1.700000*%
%TD*%
%TA.AperFunction,SMDPad,CuDef*%
%ADD13R,4.900000X4.800000*%
%TD*%
%TA.AperFunction,ViaPad*%
%ADD14C,0.800000*%
%TD*%
%TA.AperFunction,ViaPad*%
%ADD15C,1.000000*%
%TD*%
%TA.AperFunction,Conductor*%
%ADD16C,0.500000*%
%TD*%
%TA.AperFunction,Conductor*%
%ADD17C,0.300000*%
%TD*%
%TA.AperFunction,Conductor*%
%ADD18C,0.200000*%
%TD*%
%TA.AperFunction,Conductor*%
%ADD19C,1.000000*%
%TD*%
G04 APERTURE END LIST*
D10*
%TO.P,REF\u002A\u002A,1*%
%TO.N,Net-(D1-K-Pad3)*%
X61000000Y11250000D03*
%TD*%
D11*
%TO.P,J4,1,Pin_1*%
%TO.N,OE*%
X58000000Y20000000D03*
D12*
%TO.P,J4,2,Pin_2*%
%TO.N,GND*%
X55460000Y20000000D03*
%TO.P,J4,3,Pin_3*%
%TO.N,-HV*%
X52920000Y20000000D03*
%TD*%
D11*
%TO.P,J6,1,Pin_1*%
%TO.N,+5V*%
X52920000Y2000000D03*
D12*
%TO.P,J6,2,Pin_2*%
%TO.N,+HV*%
X55460000Y2000000D03*
%TD*%
D13*
%TO.P,J1,2,2*%
%TO.N,GND*%
X60526000Y7000000D03*
X60526000Y15500000D03*
%TD*%
D11*
%TO.P,J2,1,Pin_1*%
%TO.N,+5V*%
X6540000Y19580000D03*
D12*
%TO.P,J2,2,Pin_2*%
%TO.N,GND*%
X4000000Y19580000D03*
%TD*%
D11*
%TO.P,J3,1,1*%
%TO.N,+3.3V*%
X4000000Y1800000D03*
D12*
%TO.P,J3,2,2*%
%TO.N,GND*%
X4000000Y4340000D03*
%TO.P,J3,3,3*%
%TO.N,OE*%
X4000000Y6880000D03*
%TO.P,J3,4,4*%
%TO.N,Pdamp*%
X4000000Y9420000D03*
%TO.P,J3,5,5*%
%TO.N,P-*%
X4000000Y11960000D03*
%TO.P,J3,6,6*%
%TO.N,P+*%
X4000000Y14500000D03*
%TD*%
D14*
%TO.N,GND*%
X51050000Y2000000D03*
X49500000Y9000000D03*
X8500000Y3000000D03*
X62200000Y18850000D03*
X51000000Y16750000D03*
X5500000Y21500000D03*
X27750000Y11250000D03*
X43500000Y20250000D03*
X6250000Y5500000D03*
X17250000Y7500000D03*
X8500000Y5500000D03*
X57000000Y16750000D03*
X13000000Y8250000D03*
X45250000Y3250000D03*
X60250000Y750000D03*
X28750000Y5000000D03*
X28750000Y14250000D03*
X18750000Y6000000D03*
X31000000Y11250000D03*
X44500000Y19250000D03*
X45250000Y13750000D03*
X35250000Y7500000D03*
X29750000Y11250000D03*
X13000000Y6250000D03*
X11750000Y15750000D03*
X60000000Y18850000D03*
X23500000Y4000000D03*
X57150000Y5550000D03*
X45250000Y12750000D03*
X62750000Y3700000D03*
X52000000Y13000000D03*
X38000000Y2900000D03*
X34000000Y3000000D03*
X37000000Y9500000D03*
X12950000Y13900000D03*
X13000000Y7250000D03*
X54000000Y16750000D03*
X61500000Y750000D03*
X45250000Y11750000D03*
X48000000Y2000000D03*
X38000000Y6500000D03*
X43500000Y7500000D03*
X61500000Y3700000D03*
X34500000Y11250000D03*
X4500000Y17000000D03*
X54000000Y13000000D03*
X57750000Y3700000D03*
X33500000Y11250000D03*
X55500000Y16750000D03*
X57000000Y12500000D03*
X18000000Y6750000D03*
X6000000Y500000D03*
X32750000Y3000000D03*
X37000000Y7600000D03*
X28750000Y15500000D03*
X7500000Y21500000D03*
X46500000Y2000000D03*
X52500000Y16750000D03*
X44250000Y6750000D03*
X12750000Y16750000D03*
X57150000Y6700000D03*
X55500000Y12250000D03*
X60250000Y3700000D03*
X23500000Y7000000D03*
X57000000Y13750000D03*
X59000000Y3700000D03*
X14400000Y19550000D03*
X51000000Y13750000D03*
X51000000Y15250000D03*
X38000000Y8500000D03*
X48000000Y9000000D03*
X23500000Y6000000D03*
X51000000Y3750000D03*
X23500000Y5000000D03*
X57000000Y15250000D03*
X39750000Y6500000D03*
X7750000Y500000D03*
X27500000Y3750000D03*
X27500000Y5000000D03*
X45250000Y2000000D03*
X28750000Y3750000D03*
X59000000Y750000D03*
X26000000Y11250000D03*
X45250000Y4500000D03*
X57150000Y8100000D03*
X36750000Y2900000D03*
X27500000Y14250000D03*
X57750000Y750000D03*
X14050000Y14800000D03*
X37000000Y18500000D03*
X62750000Y1500000D03*
X13000000Y9250000D03*
X24650000Y14900000D03*
X56250000Y11500000D03*
X18750000Y7500000D03*
X27500000Y15500000D03*
X49500000Y2000000D03*
X45250000Y5750000D03*
%TO.N,+5V*%
X31375000Y4350000D03*
X35750000Y20000000D03*
X23900000Y19500000D03*
X9250000Y1800000D03*
D15*
X31650000Y14900000D03*
D14*
X35650000Y9150000D03*
%TO.N,Pdamp*%
X13450000Y2150000D03*
X10900000Y11750000D03*
%TO.N,DAMP*%
X24975000Y5950000D03*
X16950000Y4650000D03*
%TO.N,Net-(H1-2A)*%
X19600000Y18300000D03*
X15200000Y11100000D03*
%TO.N,P+*%
X19850000Y4150000D03*
X12000000Y18900000D03*
%TO.N,PULSE+*%
X21600000Y4150000D03*
X24975000Y16350000D03*
%TO.N,_PULSE-*%
X14050000Y13200000D03*
X21775000Y11025000D03*
%TO.N,P-*%
X12000000Y17850000D03*
X20350000Y11025000D03*
%TO.N,Net-(H1-4A)*%
X16312500Y10962500D03*
X19850000Y21050000D03*
%TO.N,PULSE-*%
X19975000Y13650000D03*
X24975000Y13550000D03*
%TO.N,OE*%
X26450000Y7150000D03*
X11800000Y10700000D03*
X27350000Y18400000D03*
%TO.N,~{DAMP}*%
X19700000Y15950000D03*
X24975000Y3150000D03*
%TO.N,+HV*%
X43700000Y17500000D03*
X42750000Y17450000D03*
%TD*%
D16*
%TO.N,GND*%
X60200000Y3062000D02*
X60200000Y6138000D01*
X57012000Y8300000D02*
X60088000Y8300000D01*
X59050000Y7962000D02*
X59050000Y11038000D01*
X59050000Y3062000D02*
X59050000Y6138000D01*
X60200000Y16012000D02*
X60200000Y19088000D01*
X60038000Y17650000D02*
X56962000Y17650000D01*
X62700000Y15712000D02*
X62700000Y18788000D01*
X59050000Y11412000D02*
X59050000Y14488000D01*
X57012000Y5650000D02*
X60088000Y5650000D01*
X62700000Y2762000D02*
X62700000Y5838000D01*
X61500000Y2962000D02*
X61500000Y6038000D01*
X57012000Y15250000D02*
X60088000Y15250000D01*
X59838000Y14000000D02*
X56762000Y14000000D01*
X60226000Y6700000D02*
X60526000Y7000000D01*
X59938000Y16500000D02*
X56862000Y16500000D01*
X57150000Y6700000D02*
X60226000Y6700000D01*
X61500000Y15912000D02*
X61500000Y18988000D01*
%TO.N,+5V*%
X32250000Y19800000D02*
X33000000Y20550000D01*
X34850000Y4350000D02*
X35500000Y3700000D01*
X10800000Y2400000D02*
X10800000Y2350000D01*
X7550000Y14700000D02*
X7550000Y18570000D01*
X35200000Y20550000D02*
X33000000Y20550000D01*
X35650000Y19900000D02*
X35750000Y20000000D01*
X32250000Y15750000D02*
X32250000Y14250000D01*
X12800000Y700000D02*
X34800000Y700000D01*
X51620000Y700000D02*
X53000000Y2080000D01*
X35500000Y700000D02*
X35550000Y700000D01*
X32250000Y5500000D02*
X32250000Y5225000D01*
X32250000Y5250000D02*
X32250000Y4350000D01*
X33050000Y4350000D02*
X34850000Y4350000D01*
X32250000Y5150000D02*
X33050000Y4350000D01*
X33000000Y9150000D02*
X32300000Y9150000D01*
X35500000Y1250000D02*
X35500000Y700000D01*
X10200000Y1800000D02*
X10800000Y1800000D01*
X35500000Y1500000D02*
X35500000Y1250000D01*
X32850000Y9150000D02*
X32250000Y8550000D01*
X32250000Y9900000D02*
X32250000Y9100000D01*
X9250000Y1800000D02*
X10200000Y1800000D01*
X32250000Y5250000D02*
X32250000Y5150000D01*
X33000000Y9150000D02*
X32250000Y9900000D01*
X35500000Y1200000D02*
X36000000Y700000D01*
X35500000Y1200000D02*
X35000000Y700000D01*
X10800000Y2400000D02*
X10200000Y1800000D01*
X10800000Y2400000D02*
X10800000Y3350000D01*
X31750000Y4350000D02*
X32250000Y4350000D01*
X10800000Y3350000D02*
X9700000Y4450000D01*
X9700000Y12550000D02*
X7550000Y14700000D01*
X32250000Y20550000D02*
X32250000Y19750000D01*
X32250000Y19750000D02*
X32250000Y15750000D01*
X32300000Y9150000D02*
X32250000Y9100000D01*
X31650000Y14850000D02*
X32250000Y14250000D01*
X35500000Y1250000D02*
X35500000Y1200000D01*
X32250000Y5225000D02*
X31375000Y4350000D01*
X10800000Y1800000D02*
X10800000Y2400000D01*
X31650000Y14900000D02*
X31650000Y14850000D01*
X32250000Y8550000D02*
X32250000Y5250000D01*
X11350000Y1800000D02*
X11700000Y1800000D01*
X31500000Y20550000D02*
X24950000Y20550000D01*
X35650000Y9150000D02*
X33000000Y9150000D01*
X10800000Y1800000D02*
X11350000Y1800000D01*
X35750000Y20000000D02*
X35200000Y20550000D01*
X31375000Y4350000D02*
X31750000Y4350000D01*
X35500000Y3700000D02*
X35500000Y1500000D01*
X33000000Y20550000D02*
X31500000Y20550000D01*
X32250000Y15500000D02*
X32250000Y15750000D01*
X11700000Y1800000D02*
X12800000Y700000D01*
X32250000Y19800000D02*
X31500000Y20550000D01*
X24950000Y20550000D02*
X23900000Y19500000D01*
X10800000Y2350000D02*
X11350000Y1800000D01*
X36000000Y700000D02*
X51620000Y700000D01*
X32250000Y14250000D02*
X32250000Y9900000D01*
X32250000Y19750000D02*
X32250000Y19800000D01*
X31650000Y14900000D02*
X32250000Y15500000D01*
X35000000Y700000D02*
X36000000Y700000D01*
X35500000Y1500000D02*
X35500000Y1200000D01*
X34800000Y700000D02*
X35000000Y700000D01*
X32250000Y9100000D02*
X32250000Y8550000D01*
X32250000Y4350000D02*
X33050000Y4350000D01*
X9700000Y4450000D02*
X9700000Y12550000D01*
X33000000Y9150000D02*
X32850000Y9150000D01*
X7550000Y18570000D02*
X6540000Y19580000D01*
D17*
%TO.N,Pdamp*%
X10862500Y4737500D02*
X13450000Y2150000D01*
X10862500Y11700000D02*
X10862500Y4737500D01*
D18*
%TO.N,DAMP*%
X25800000Y2550000D02*
X25450000Y2200000D01*
X20325000Y2200000D02*
X17875000Y4650000D01*
X25050000Y5950000D02*
X25800000Y5200000D01*
X24975000Y5950000D02*
X25050000Y5950000D01*
X25450000Y2200000D02*
X20325000Y2200000D01*
X17875000Y4650000D02*
X16950000Y4650000D01*
X25800000Y5200000D02*
X25800000Y2550000D01*
D17*
%TO.N,Net-(H1-2A)*%
X19600000Y19650000D02*
X18000000Y21250000D01*
X13700000Y11100000D02*
X15200000Y11100000D01*
X9150000Y19750000D02*
X9150000Y15650000D01*
X9150000Y15650000D02*
X13700000Y11100000D01*
X18000000Y21250000D02*
X10650000Y21250000D01*
X19600000Y18300000D02*
X19600000Y19650000D01*
X10650000Y21250000D02*
X9150000Y19750000D01*
D18*
%TO.N,P+*%
X22775000Y10275000D02*
X22775000Y11450000D01*
X12400000Y18500000D02*
X12000000Y18900000D01*
X18125000Y12100000D02*
X16650000Y13575000D01*
X16650000Y15750000D02*
X13900000Y18500000D01*
D17*
X4250000Y14250000D02*
X4000000Y14500000D01*
D18*
X16650000Y13575000D02*
X16650000Y15750000D01*
X13900000Y18500000D02*
X12400000Y18500000D01*
X22775000Y11450000D02*
X22125000Y12100000D01*
X19850000Y4150000D02*
X19850000Y7350000D01*
X22125000Y12100000D02*
X18125000Y12100000D01*
X19850000Y7350000D02*
X22775000Y10275000D01*
%TO.N,PULSE+*%
X25750000Y13025000D02*
X25750000Y15575000D01*
X24025000Y9525000D02*
X24025000Y11300000D01*
X21600000Y7100000D02*
X24025000Y9525000D01*
X25750000Y15575000D02*
X24975000Y16350000D01*
X21600000Y4150000D02*
X21600000Y7100000D01*
X24025000Y11300000D02*
X25750000Y13025000D01*
%TO.N,_PULSE-*%
X21775000Y11025000D02*
X21775000Y11000000D01*
X20750000Y9975000D02*
X18500000Y9975000D01*
X15225000Y13250000D02*
X14100000Y13250000D01*
X14100000Y13250000D02*
X14050000Y13200000D01*
X21775000Y11000000D02*
X20750000Y9975000D01*
X18500000Y9975000D02*
X15225000Y13250000D01*
%TO.N,P-*%
X20350000Y11025000D02*
X19775000Y11600000D01*
X16200000Y15550000D02*
X13750000Y18000000D01*
X19775000Y11600000D02*
X17925000Y11600000D01*
X17925000Y11600000D02*
X16200000Y13325000D01*
X16200000Y13325000D02*
X16200000Y15550000D01*
X13750000Y18000000D02*
X12150000Y18000000D01*
X12150000Y18000000D02*
X12000000Y17850000D01*
D17*
%TO.N,Net-(H1-4A)*%
X15600000Y10250000D02*
X13665625Y10250000D01*
X19000000Y21900000D02*
X19850000Y21050000D01*
X10400000Y21900000D02*
X19000000Y21900000D01*
X13665625Y10250000D02*
X8550000Y15365625D01*
X8550000Y15365625D02*
X8550000Y20050000D01*
X16312500Y10962500D02*
X15600000Y10250000D01*
X8550000Y20050000D02*
X10400000Y21900000D01*
D18*
%TO.N,PULSE-*%
X19975000Y13650000D02*
X24875000Y13650000D01*
X24875000Y13650000D02*
X24975000Y13550000D01*
D17*
%TO.N,OE*%
X11800000Y5600000D02*
X15800000Y1600000D01*
X26450000Y2400000D02*
X26450000Y7150000D01*
X22800000Y19950000D02*
X24350000Y21500000D01*
X51700000Y17950000D02*
X55900000Y17950000D01*
X22800000Y19100000D02*
X22800000Y19950000D01*
X57950000Y20000000D02*
X58000000Y20000000D01*
X24122792Y18450000D02*
X23450000Y18450000D01*
X24350000Y21500000D02*
X48150000Y21500000D01*
X25222792Y19550000D02*
X24122792Y18450000D01*
X25650000Y1600000D02*
X26450000Y2400000D01*
X55900000Y17950000D02*
X57950000Y20000000D01*
X26200000Y19550000D02*
X25222792Y19550000D01*
X15800000Y1600000D02*
X25650000Y1600000D01*
X27350000Y18400000D02*
X26200000Y19550000D01*
X23450000Y18450000D02*
X22800000Y19100000D01*
X11800000Y10700000D02*
X11800000Y5600000D01*
X48150000Y21500000D02*
X51700000Y17950000D01*
D18*
%TO.N,~{DAMP}*%
X19150000Y13300000D02*
X19625000Y12825000D01*
X19150000Y15400000D02*
X19150000Y13300000D01*
X21300000Y2750000D02*
X23750000Y2750000D01*
X24150000Y3150000D02*
X24975000Y3150000D01*
X23475000Y11775000D02*
X23475000Y9925000D01*
X22425000Y12825000D02*
X23475000Y11775000D01*
X19700000Y15950000D02*
X19150000Y15400000D01*
X20700000Y7150000D02*
X20700000Y3350000D01*
X20700000Y3350000D02*
X21300000Y2750000D01*
X23475000Y9925000D02*
X20700000Y7150000D01*
X19625000Y12825000D02*
X22425000Y12825000D01*
X23750000Y2750000D02*
X24150000Y3150000D01*
D19*
%TO.N,+HV*%
X54250000Y5750000D02*
X55460000Y4540000D01*
X43000000Y17200000D02*
X43000000Y10750000D01*
X42750000Y17450000D02*
X43000000Y17200000D01*
X42750000Y17450000D02*
X43650000Y17450000D01*
X48000000Y5750000D02*
X54250000Y5750000D01*
X55460000Y4540000D02*
X55460000Y2000000D01*
X43000000Y10750000D02*
X48000000Y5750000D01*
%TD*%
%TA.AperFunction,Conductor*%
%TO.N,GND*%
G36*
X8296288Y22231046D02*
G01*
X8377070Y22177070D01*
X8431046Y22096288D01*
X8450000Y22001000D01*
X8450000Y21149000D01*
X8431046Y21053712D01*
X8377070Y20972930D01*
X8296288Y20918954D01*
X8201000Y20900000D01*
X7606999Y20900000D01*
X7519984Y20915699D01*
X7497483Y20924092D01*
X7437873Y20930500D01*
X5642134Y20930500D01*
X5642130Y20930500D01*
X5642128Y20930499D01*
X5629314Y20929122D01*
X5582519Y20924092D01*
X5582514Y20924091D01*
X5560017Y20915699D01*
X5473002Y20900000D01*
X4322475Y20900000D01*
X4258028Y20908485D01*
X4250000Y20910636D01*
X4250000Y20013012D01*
X4192993Y20045925D01*
X4065826Y20080000D01*
X3934174Y20080000D01*
X3807007Y20045925D01*
X3750000Y20013012D01*
X3750000Y20910636D01*
X3749998Y20910637D01*
X3536516Y20853434D01*
X3536505Y20853430D01*
X3322428Y20753604D01*
X3322420Y20753600D01*
X3128923Y20618111D01*
X2961889Y20451077D01*
X2826400Y20257580D01*
X2826396Y20257572D01*
X2726570Y20043495D01*
X2726566Y20043484D01*
X2669363Y19830002D01*
X2669364Y19830000D01*
X3566988Y19830000D01*
X3534075Y19772993D01*
X3500000Y19645826D01*
X3500000Y19514174D01*
X3534075Y19387007D01*
X3566988Y19330000D01*
X2669364Y19330000D01*
X2669363Y19329999D01*
X2726566Y19116517D01*
X2726566Y19116515D01*
X2826399Y18902424D01*
X2961889Y18708924D01*
X3128923Y18541890D01*
X3322423Y18406400D01*
X3536511Y18306569D01*
X3750000Y18249365D01*
X3750000Y19146988D01*
X3807007Y19114075D01*
X3934174Y19080000D01*
X4065826Y19080000D01*
X4192993Y19114075D01*
X4250000Y19146988D01*
X4250000Y18245373D01*
X4285152Y18250000D01*
X5499813Y18250000D01*
X5566976Y18237883D01*
X5567357Y18239491D01*
X5582514Y18235910D01*
X5582517Y18235909D01*
X5642127Y18229500D01*
X6550501Y18229501D01*
X6645788Y18210547D01*
X6726569Y18156571D01*
X6780546Y18075789D01*
X6799500Y17980501D01*
X6799500Y14626080D01*
X6828341Y14481089D01*
X6828342Y14481086D01*
X6884913Y14344510D01*
X6884915Y14344507D01*
X6884916Y14344505D01*
X6908112Y14309790D01*
X6967048Y14221584D01*
X7958633Y13230000D01*
X8876570Y12312063D01*
X8930546Y12231281D01*
X8949500Y12135993D01*
X8949500Y4368944D01*
X8950000Y4358771D01*
X8950000Y2813854D01*
X8931046Y2718566D01*
X8877070Y2637784D01*
X8808559Y2590699D01*
X8808572Y2590677D01*
X8808301Y2590522D01*
X8802281Y2586383D01*
X8797272Y2584154D01*
X8644126Y2472886D01*
X8517469Y2332220D01*
X8422822Y2168286D01*
X8364325Y1988256D01*
X8344540Y1800001D01*
X8348636Y1761029D01*
X8350000Y1735002D01*
X8350000Y249000D01*
X8331046Y153712D01*
X8277070Y72930D01*
X8196288Y18954D01*
X8101000Y0D01*
X5599000Y0D01*
X5503712Y18954D01*
X5422930Y72930D01*
X5368954Y153712D01*
X5350000Y249000D01*
X5350000Y886131D01*
X5350357Y899460D01*
X5350497Y902108D01*
X5350500Y902127D01*
X5350499Y2697872D01*
X5350498Y2697876D01*
X5350357Y2700516D01*
X5350000Y2713847D01*
X5350000Y4064764D01*
X5330636Y4090000D01*
X4433012Y4090000D01*
X4465925Y4147007D01*
X4500000Y4274174D01*
X4500000Y4405826D01*
X4465925Y4532993D01*
X4433012Y4590000D01*
X5330635Y4590000D01*
X5350000Y4615238D01*
X5350000Y6804452D01*
X5350948Y6826156D01*
X5355659Y6879998D01*
X5355659Y6880004D01*
X5350948Y6933847D01*
X5350000Y6955550D01*
X5350000Y9344452D01*
X5350948Y9366156D01*
X5352638Y9385465D01*
X5355659Y9420000D01*
X5350948Y9473847D01*
X5350000Y9495550D01*
X5350000Y11884452D01*
X5350948Y11906156D01*
X5355659Y11959998D01*
X5355659Y11960004D01*
X5350948Y12013847D01*
X5350000Y12035550D01*
X5350000Y14424452D01*
X5350948Y14446156D01*
X5352987Y14469454D01*
X5354004Y14481087D01*
X5355659Y14499998D01*
X5355659Y14500006D01*
X5335064Y14735402D01*
X5335063Y14735405D01*
X5335063Y14735408D01*
X5273903Y14963663D01*
X5210001Y15100700D01*
X5174038Y15177823D01*
X5174034Y15177831D01*
X5104756Y15276770D01*
X5038495Y15371401D01*
X4871401Y15538495D01*
X4832335Y15565849D01*
X4677830Y15674035D01*
X4619006Y15701465D01*
X4463663Y15773903D01*
X4463660Y15773904D01*
X4235401Y15835065D01*
X4000005Y15855659D01*
X3999995Y15855659D01*
X3764598Y15835065D01*
X3536335Y15773903D01*
X3536333Y15773902D01*
X3322177Y15674039D01*
X3322169Y15674035D01*
X3128600Y15538496D01*
X2961504Y15371400D01*
X2825965Y15177831D01*
X2825961Y15177823D01*
X2726098Y14963667D01*
X2726097Y14963664D01*
X2677286Y14781496D01*
X2650000Y14726166D01*
X2650000Y14588247D01*
X2640706Y14541528D01*
X2642441Y14521706D01*
X2642440Y14478304D01*
X2636185Y14406816D01*
X2650000Y14331652D01*
X2650000Y12035550D01*
X2649052Y12013847D01*
X2644341Y11960004D01*
X2644341Y11959998D01*
X2649052Y11906156D01*
X2650000Y11884452D01*
X2650000Y9495550D01*
X2649052Y9473847D01*
X2644341Y9420000D01*
X2647362Y9385465D01*
X2649052Y9366156D01*
X2650000Y9344452D01*
X2650000Y6955550D01*
X2649052Y6933847D01*
X2644341Y6880004D01*
X2644341Y6879998D01*
X2649052Y6826156D01*
X2650000Y6804452D01*
X2650000Y4767218D01*
X2663279Y4745724D01*
X2678827Y4649821D01*
X2670501Y4594245D01*
X2669363Y4590001D01*
X2669364Y4590000D01*
X3566988Y4590000D01*
X3534075Y4532993D01*
X3500000Y4405826D01*
X3500000Y4274174D01*
X3534075Y4147007D01*
X3566988Y4090000D01*
X2647949Y4090000D01*
X2640378Y4083360D01*
X2548379Y4052130D01*
X2515878Y4050000D01*
X249001Y4050000D01*
X153713Y4068954D01*
X72931Y4122930D01*
X18955Y4203712D01*
X1Y4299000D01*
X0Y20247803D01*
X40Y20252243D01*
X2270Y20377279D01*
X4764Y20408275D01*
X10918Y20451077D01*
X40676Y20658053D01*
X48227Y20692761D01*
X66092Y20753604D01*
X118692Y20932743D01*
X131102Y20966015D01*
X235004Y21193529D01*
X252026Y21224701D01*
X252028Y21224704D01*
X387251Y21435115D01*
X408528Y21463537D01*
X572322Y21652567D01*
X597436Y21677680D01*
X786463Y21841472D01*
X814885Y21862749D01*
X1025303Y21997977D01*
X1056471Y22014996D01*
X1283985Y22118898D01*
X1317257Y22131308D01*
X1557241Y22201774D01*
X1591947Y22209324D01*
X1841727Y22245237D01*
X1872719Y22247730D01*
X1997757Y22249961D01*
X2002197Y22250000D01*
X8201000Y22250000D01*
X8296288Y22231046D01*
G37*
%TD.AperFunction*%
%TA.AperFunction,Conductor*%
G36*
X47872702Y20830546D02*
G01*
X47953484Y20776570D01*
X51194724Y17535331D01*
X51194723Y17535331D01*
X51248339Y17481716D01*
X51285331Y17444724D01*
X51391873Y17373535D01*
X51391875Y17373535D01*
X51391877Y17373533D01*
X51426549Y17359172D01*
X51510256Y17324499D01*
X51635929Y17299501D01*
X51635930Y17299500D01*
X51635931Y17299500D01*
X55964070Y17299500D01*
X55964070Y17299501D01*
X56089744Y17324499D01*
X56208127Y17373535D01*
X56220902Y17382071D01*
X56314669Y17444723D01*
X56908205Y18038259D01*
X57192437Y18322491D01*
X57273219Y18376468D01*
X57368507Y18395422D01*
X57463795Y18376468D01*
X57544576Y18322492D01*
X57598553Y18241710D01*
X57617507Y18146422D01*
X57601808Y18059407D01*
X57582403Y18007382D01*
X57582401Y18007372D01*
X57576000Y17947833D01*
X57576000Y13052168D01*
X57582401Y12992630D01*
X57582403Y12992620D01*
X57604858Y12932415D01*
X60349929Y15677484D01*
X60430711Y15731460D01*
X60525999Y15750414D01*
X60621287Y15731460D01*
X60702069Y15677484D01*
X60703483Y15676070D01*
X60757459Y15595288D01*
X60776413Y15500000D01*
X60757459Y15404712D01*
X60703483Y15323930D01*
X57984272Y12604720D01*
X58028170Y12600001D01*
X58028172Y12600000D01*
X59635612Y12600000D01*
X59730900Y12581046D01*
X59811682Y12527070D01*
X59865658Y12446288D01*
X59884612Y12351000D01*
X59865658Y12255712D01*
X59818805Y12182355D01*
X59811836Y12174786D01*
X59811830Y12174779D01*
X59675828Y11966609D01*
X59675825Y11966604D01*
X59575936Y11738879D01*
X59575935Y11738875D01*
X59514894Y11497832D01*
X59514892Y11497824D01*
X59494357Y11250000D01*
X59514892Y11002177D01*
X59514894Y11002169D01*
X59556786Y10836744D01*
X59575937Y10761119D01*
X59632151Y10632963D01*
X59675825Y10533397D01*
X59675828Y10533392D01*
X59811830Y10325222D01*
X59811836Y10325215D01*
X59818805Y10317645D01*
X59869398Y10234703D01*
X59884399Y10138713D01*
X59861525Y10044290D01*
X59804257Y9965807D01*
X59721315Y9915214D01*
X59635612Y9900000D01*
X58028177Y9900000D01*
X57984273Y9895281D01*
X60526000Y7353553D01*
X60703483Y7176070D01*
X60757459Y7095288D01*
X60776413Y7000000D01*
X60757459Y6904712D01*
X60703483Y6823930D01*
X57984272Y4104720D01*
X58028170Y4100001D01*
X58028172Y4100000D01*
X63000999Y4100000D01*
X63096287Y4081046D01*
X63177069Y4027070D01*
X63231045Y3946288D01*
X63249999Y3851000D01*
X63249999Y2002196D01*
X63249959Y1997756D01*
X63247729Y1872714D01*
X63245234Y1841718D01*
X63209322Y1591949D01*
X63201773Y1557243D01*
X63131309Y1317264D01*
X63118893Y1283976D01*
X63014995Y1056474D01*
X62997969Y1025294D01*
X62862752Y814891D01*
X62841466Y786456D01*
X62677680Y597438D01*
X62652560Y572318D01*
X62463543Y408533D01*
X62435101Y387242D01*
X62224703Y252028D01*
X62193522Y235002D01*
X61966024Y131107D01*
X61932737Y118691D01*
X61692762Y48228D01*
X61658046Y40676D01*
X61408273Y4765D01*
X61377280Y2271D01*
X61257687Y138D01*
X61252240Y40D01*
X61247803Y0D01*
X57499000Y0D01*
X57403712Y18954D01*
X57322930Y72930D01*
X57268954Y153712D01*
X57250000Y249000D01*
X57250000Y1496166D01*
X57255690Y1549094D01*
X57261090Y1573918D01*
X57296343Y1735974D01*
X57315227Y2000000D01*
X57296343Y2264026D01*
X57255690Y2450907D01*
X57250000Y2503835D01*
X57250000Y2758293D01*
X57197179Y2772757D01*
X57120428Y2832325D01*
X57089995Y2876136D01*
X57020716Y3003011D01*
X57020712Y3003017D01*
X57010164Y3017108D01*
X56968234Y3104749D01*
X56960500Y3166326D01*
X56960500Y4658088D01*
X56960498Y4658104D01*
X56956679Y4682216D01*
X56923553Y4891368D01*
X56864973Y5071659D01*
X56859385Y5088857D01*
X56859383Y5088861D01*
X56858408Y5091861D01*
X56850568Y5115993D01*
X56743343Y5326434D01*
X56604517Y5517510D01*
X55227510Y6894517D01*
X55036434Y7033343D01*
X54825992Y7140568D01*
X54825989Y7140569D01*
X54825984Y7140571D01*
X54697484Y7182323D01*
X54601368Y7213553D01*
X54601366Y7213554D01*
X54601364Y7213554D01*
X54368103Y7250499D01*
X54368094Y7250500D01*
X54368092Y7250500D01*
X54368088Y7250500D01*
X48724668Y7250500D01*
X48629380Y7269454D01*
X48548598Y7323430D01*
X46424195Y9447833D01*
X57576000Y9447833D01*
X57576000Y4552168D01*
X57582401Y4492630D01*
X57582403Y4492620D01*
X57604858Y4432415D01*
X60172446Y7000001D01*
X57604858Y9567589D01*
X57582403Y9507383D01*
X57582402Y9507377D01*
X57576000Y9447833D01*
X46424195Y9447833D01*
X44573430Y11298598D01*
X44519454Y11379380D01*
X44500500Y11474668D01*
X44500500Y16086334D01*
X44519454Y16181622D01*
X44573430Y16262404D01*
X44603135Y16287775D01*
X44627510Y16305483D01*
X44794517Y16472490D01*
X44933343Y16663567D01*
X45040568Y16874008D01*
X45113553Y17098632D01*
X45150500Y17331908D01*
X45150500Y17568092D01*
X45113553Y17801368D01*
X45040568Y18025992D01*
X44933343Y18236433D01*
X44933341Y18236436D01*
X44933340Y18236438D01*
X44794521Y18427505D01*
X44794518Y18427508D01*
X44794517Y18427510D01*
X44627510Y18594517D01*
X44627506Y18594520D01*
X44627504Y18594522D01*
X44436437Y18733341D01*
X44367857Y18768284D01*
X44225992Y18840568D01*
X44225989Y18840569D01*
X44225987Y18840570D01*
X44101079Y18881155D01*
X44001368Y18913553D01*
X44001366Y18913554D01*
X44001364Y18913554D01*
X43768103Y18950499D01*
X43768094Y18950500D01*
X43768092Y18950500D01*
X42868092Y18950500D01*
X42631908Y18950500D01*
X42631905Y18950500D01*
X42631896Y18950499D01*
X42398635Y18913554D01*
X42174015Y18840571D01*
X42174010Y18840569D01*
X41963566Y18733343D01*
X41772492Y18594519D01*
X41605481Y18427508D01*
X41466657Y18236434D01*
X41359431Y18025990D01*
X41359429Y18025985D01*
X41286446Y17801365D01*
X41249501Y17568104D01*
X41249500Y17568088D01*
X41249500Y17331913D01*
X41249501Y17331897D01*
X41274017Y17177112D01*
X41286447Y17098632D01*
X41317677Y17002516D01*
X41359429Y16874016D01*
X41359431Y16874010D01*
X41471099Y16654848D01*
X41468774Y16653664D01*
X41496431Y16578719D01*
X41499500Y16539746D01*
X41499500Y10631913D01*
X41499501Y10631897D01*
X41536446Y10398636D01*
X41536447Y10398632D01*
X41560302Y10325215D01*
X41608021Y10178349D01*
X41609432Y10174008D01*
X41716657Y9963566D01*
X41855483Y9772490D01*
X47022490Y4605482D01*
X47213567Y4466657D01*
X47213569Y4466656D01*
X47391330Y4376082D01*
X47424008Y4359432D01*
X47648632Y4286447D01*
X47881908Y4249500D01*
X48118092Y4249500D01*
X51301000Y4249500D01*
X51396288Y4230546D01*
X51477070Y4176570D01*
X51531046Y4095788D01*
X51550000Y4000500D01*
X51550000Y1794508D01*
X51531046Y1699220D01*
X51477072Y1618441D01*
X51382060Y1523429D01*
X51301282Y1469454D01*
X51205994Y1450500D01*
X36499500Y1450500D01*
X36404212Y1469454D01*
X36323430Y1523430D01*
X36269454Y1604212D01*
X36250500Y1699500D01*
X36250500Y3773919D01*
X36250499Y3773921D01*
X36248948Y3781716D01*
X36221658Y3918913D01*
X36165084Y4055495D01*
X36148011Y4081046D01*
X36132193Y4104720D01*
X36123464Y4117784D01*
X36082952Y4178416D01*
X35328416Y4932952D01*
X35328412Y4932955D01*
X35328410Y4932957D01*
X35328411Y4932957D01*
X35254732Y4982185D01*
X35254729Y4982188D01*
X35254729Y4982187D01*
X35205495Y5015084D01*
X35068913Y5071658D01*
X35068911Y5071659D01*
X34923920Y5100500D01*
X34923918Y5100500D01*
X33464008Y5100500D01*
X33368720Y5119454D01*
X33287938Y5173430D01*
X33073430Y5387938D01*
X33019454Y5468720D01*
X33000500Y5564008D01*
X33000500Y8135993D01*
X33019454Y8231281D01*
X33073430Y8312063D01*
X33087937Y8326570D01*
X33168719Y8380546D01*
X33264007Y8399500D01*
X35072265Y8399500D01*
X35167553Y8380546D01*
X35196762Y8366142D01*
X35197272Y8365848D01*
X35370189Y8288859D01*
X35370192Y8288858D01*
X35370197Y8288856D01*
X35555354Y8249500D01*
X35744645Y8249500D01*
X35744646Y8249500D01*
X35929803Y8288856D01*
X36102730Y8365849D01*
X36255871Y8477112D01*
X36382533Y8617784D01*
X36477179Y8781716D01*
X36535674Y8961744D01*
X36555460Y9150000D01*
X36535674Y9338256D01*
X36477179Y9518284D01*
X36382533Y9682216D01*
X36382531Y9682219D01*
X36382530Y9682220D01*
X36255873Y9822886D01*
X36255872Y9822887D01*
X36255871Y9822888D01*
X36128795Y9915214D01*
X36102728Y9934153D01*
X35929810Y10011142D01*
X35929796Y10011146D01*
X35744646Y10050500D01*
X35555354Y10050500D01*
X35370203Y10011146D01*
X35370189Y10011142D01*
X35197272Y9934153D01*
X35196762Y9933858D01*
X35196124Y9933642D01*
X35185349Y9928844D01*
X35184908Y9929835D01*
X35104763Y9902630D01*
X35072265Y9900500D01*
X33414006Y9900500D01*
X33318718Y9919454D01*
X33237939Y9973428D01*
X33073430Y10137938D01*
X33019454Y10218720D01*
X33000500Y10314007D01*
X33000500Y19385993D01*
X33019454Y19481281D01*
X33073430Y19562063D01*
X33237937Y19726570D01*
X33318719Y19780546D01*
X33414007Y19799500D01*
X34687396Y19799500D01*
X34782684Y19780546D01*
X34863466Y19726570D01*
X34917442Y19645788D01*
X34921730Y19634166D01*
X34922817Y19631724D01*
X34922820Y19631719D01*
X34922821Y19631716D01*
X35014628Y19472702D01*
X35017469Y19467781D01*
X35144126Y19327115D01*
X35144129Y19327112D01*
X35225099Y19268284D01*
X35297271Y19215848D01*
X35470189Y19138859D01*
X35470192Y19138858D01*
X35470197Y19138856D01*
X35655354Y19099500D01*
X35844645Y19099500D01*
X35844646Y19099500D01*
X36029803Y19138856D01*
X36121991Y19179901D01*
X36202728Y19215848D01*
X36202728Y19215849D01*
X36202730Y19215849D01*
X36355871Y19327112D01*
X36482533Y19467784D01*
X36577179Y19631716D01*
X36635674Y19811744D01*
X36655460Y20000000D01*
X36635674Y20188256D01*
X36577179Y20368284D01*
X36514989Y20476001D01*
X36483760Y20568000D01*
X36490115Y20664947D01*
X36533085Y20752082D01*
X36606131Y20816141D01*
X36698130Y20847370D01*
X36730630Y20849500D01*
X47777414Y20849500D01*
X47872702Y20830546D01*
G37*
%TD.AperFunction*%
%TA.AperFunction,Conductor*%
G36*
X17722702Y20580546D02*
G01*
X17803484Y20526570D01*
X18876570Y19453484D01*
X18930546Y19372702D01*
X18949500Y19277414D01*
X18949500Y19018906D01*
X18930546Y18923618D01*
X18885545Y18852295D01*
X18867469Y18832220D01*
X18772822Y18668286D01*
X18714325Y18488256D01*
X18694540Y18300000D01*
X18714325Y18111745D01*
X18738204Y18038256D01*
X18772821Y17931716D01*
X18849156Y17799500D01*
X18867469Y17767781D01*
X18904088Y17727112D01*
X18994129Y17627112D01*
X19075369Y17568088D01*
X19147271Y17515848D01*
X19320189Y17438859D01*
X19320192Y17438858D01*
X19320197Y17438856D01*
X19505354Y17399500D01*
X19694645Y17399500D01*
X19694646Y17399500D01*
X19879803Y17438856D01*
X19892981Y17444723D01*
X20052728Y17515848D01*
X20052728Y17515849D01*
X20052730Y17515849D01*
X20205871Y17627112D01*
X20332533Y17767784D01*
X20427179Y17931716D01*
X20485674Y18111744D01*
X20485674Y18111745D01*
X20489707Y18124156D01*
X20492556Y18123231D01*
X20522126Y18192045D01*
X20591721Y18259836D01*
X20681962Y18295833D01*
X20727326Y18300000D01*
X22576914Y18300000D01*
X22672202Y18281046D01*
X22752983Y18227070D01*
X23035331Y17944723D01*
X23035335Y17944719D01*
X23105912Y17897564D01*
X23123315Y17885935D01*
X23123317Y17885934D01*
X23123320Y17885931D01*
X23123321Y17885931D01*
X23141873Y17873535D01*
X23141875Y17873535D01*
X23141877Y17873533D01*
X23155757Y17867784D01*
X23260256Y17824499D01*
X23385929Y17799501D01*
X23385930Y17799500D01*
X23385931Y17799500D01*
X24186862Y17799500D01*
X24186862Y17799501D01*
X24312536Y17824499D01*
X24430919Y17873535D01*
X24449471Y17885931D01*
X24537461Y17944723D01*
X25193238Y18600500D01*
X25419309Y18826570D01*
X25500090Y18880546D01*
X25595378Y18899500D01*
X25827414Y18899500D01*
X25922702Y18880546D01*
X26003484Y18826570D01*
X26383891Y18446163D01*
X26437867Y18365381D01*
X26455457Y18296122D01*
X26464325Y18211745D01*
X26492785Y18124156D01*
X26522821Y18031716D01*
X26606988Y17885935D01*
X26617469Y17867781D01*
X26707510Y17767781D01*
X26744129Y17727112D01*
X26834101Y17661744D01*
X26897271Y17615848D01*
X27070189Y17538859D01*
X27070192Y17538858D01*
X27070197Y17538856D01*
X27255354Y17499500D01*
X27444645Y17499500D01*
X27444646Y17499500D01*
X27629803Y17538856D01*
X27695459Y17568088D01*
X27802728Y17615848D01*
X27802728Y17615849D01*
X27802730Y17615849D01*
X27955871Y17727112D01*
X28082533Y17867784D01*
X28177179Y18031716D01*
X28235674Y18211744D01*
X28255460Y18400000D01*
X28255460Y18400002D01*
X28251364Y18438974D01*
X28250000Y18465000D01*
X28250000Y18581499D01*
X28250183Y18582421D01*
X28250000Y18583577D01*
X28250000Y19550500D01*
X28268954Y19645788D01*
X28322930Y19726570D01*
X28403712Y19780546D01*
X28499000Y19799500D01*
X31085993Y19799500D01*
X31181281Y19780546D01*
X31262062Y19726570D01*
X31426569Y19562064D01*
X31480546Y19481283D01*
X31499500Y19385995D01*
X31499500Y16084538D01*
X31480546Y15989250D01*
X31426570Y15908468D01*
X31345788Y15854492D01*
X31322785Y15846261D01*
X31265273Y15828815D01*
X31265266Y15828812D01*
X31091463Y15735912D01*
X30939120Y15610886D01*
X30939114Y15610880D01*
X30814088Y15458537D01*
X30721188Y15284734D01*
X30721185Y15284726D01*
X30663975Y15096132D01*
X30644659Y14900000D01*
X30663975Y14703869D01*
X30721185Y14515275D01*
X30721188Y14515267D01*
X30814088Y14341464D01*
X30840085Y14309787D01*
X30939117Y14189117D01*
X31047097Y14100500D01*
X31091463Y14064089D01*
X31265266Y13971189D01*
X31265271Y13971187D01*
X31265273Y13971186D01*
X31322782Y13953741D01*
X31408462Y13907945D01*
X31470097Y13832844D01*
X31498301Y13739873D01*
X31499500Y13715464D01*
X31499500Y5639008D01*
X31480546Y5543720D01*
X31426570Y5462938D01*
X31426569Y5462938D01*
X31248409Y5284779D01*
X31167628Y5230803D01*
X31124116Y5217292D01*
X31095207Y5211147D01*
X31095199Y5211145D01*
X31095197Y5211144D01*
X31095194Y5211143D01*
X31095186Y5211140D01*
X30922271Y5134153D01*
X30769126Y5022886D01*
X30642469Y4882220D01*
X30547822Y4718286D01*
X30489325Y4538256D01*
X30469540Y4350000D01*
X30489325Y4161745D01*
X30518573Y4071730D01*
X30547821Y3981716D01*
X30629641Y3840000D01*
X30642469Y3817781D01*
X30739897Y3709577D01*
X30769129Y3677112D01*
X30872333Y3602130D01*
X30922271Y3565848D01*
X31095189Y3488859D01*
X31095192Y3488858D01*
X31095197Y3488856D01*
X31280354Y3449500D01*
X31469645Y3449500D01*
X31469646Y3449500D01*
X31654803Y3488856D01*
X31827730Y3565849D01*
X31827734Y3565853D01*
X31828238Y3566142D01*
X31828875Y3566359D01*
X31839651Y3571156D01*
X31840091Y3570166D01*
X31920237Y3597370D01*
X31952735Y3599500D01*
X32176082Y3599500D01*
X32976082Y3599500D01*
X32976083Y3599500D01*
X33123918Y3599500D01*
X34435992Y3599500D01*
X34531280Y3580546D01*
X34612062Y3526570D01*
X34676570Y3462062D01*
X34730546Y3381280D01*
X34749500Y3285992D01*
X34749500Y1699500D01*
X34730546Y1604212D01*
X34676570Y1523430D01*
X34595788Y1469454D01*
X34500500Y1450500D01*
X27349000Y1450500D01*
X27253712Y1469454D01*
X27172930Y1523430D01*
X27118954Y1604212D01*
X27100000Y1699500D01*
X27100000Y2318620D01*
X27100500Y2328793D01*
X27100500Y6431097D01*
X27119454Y6526385D01*
X27164455Y6597708D01*
X27182533Y6617784D01*
X27277179Y6781716D01*
X27335674Y6961744D01*
X27355460Y7150000D01*
X27335674Y7338256D01*
X27277179Y7518284D01*
X27182533Y7682216D01*
X27182531Y7682219D01*
X27182530Y7682220D01*
X27055873Y7822886D01*
X27055872Y7822887D01*
X27055871Y7822888D01*
X26924279Y7918495D01*
X26902728Y7934153D01*
X26729810Y8011142D01*
X26729796Y8011146D01*
X26544646Y8050500D01*
X26355354Y8050500D01*
X26170203Y8011146D01*
X26170189Y8011142D01*
X25997271Y7934153D01*
X25844126Y7822886D01*
X25717469Y7682220D01*
X25622822Y7518286D01*
X25564325Y7338256D01*
X25547280Y7176070D01*
X25544540Y7150000D01*
X25547164Y7125027D01*
X25538275Y7028281D01*
X25493039Y6942300D01*
X25418343Y6880175D01*
X25325558Y6851364D01*
X25299529Y6850000D01*
X25087453Y6850000D01*
X25077917Y6850500D01*
X25069646Y6850500D01*
X24880354Y6850500D01*
X24695203Y6811146D01*
X24695189Y6811142D01*
X24522271Y6734153D01*
X24369126Y6622886D01*
X24242469Y6482220D01*
X24147822Y6318286D01*
X24089325Y6138256D01*
X24069540Y5950000D01*
X24089325Y5761747D01*
X24092039Y5748982D01*
X24090618Y5748681D01*
X24100000Y5689456D01*
X24100000Y3949351D01*
X24081046Y3854063D01*
X24027070Y3773281D01*
X23946288Y3719305D01*
X23920863Y3710674D01*
X23918212Y3709576D01*
X23786201Y3633359D01*
X23694202Y3602130D01*
X23661702Y3600000D01*
X22710856Y3600000D01*
X22615568Y3618954D01*
X22534786Y3672930D01*
X22480810Y3753712D01*
X22461856Y3849000D01*
X22474043Y3925945D01*
X22485672Y3961738D01*
X22485671Y3961738D01*
X22485674Y3961744D01*
X22505460Y4150000D01*
X22485674Y4338256D01*
X22427179Y4518284D01*
X22332533Y4682216D01*
X22332531Y4682219D01*
X22332530Y4682220D01*
X22264457Y4757823D01*
X22214782Y4841318D01*
X22200500Y4924436D01*
X22200500Y6748126D01*
X22219454Y6843414D01*
X22273428Y6924194D01*
X24393713Y9044479D01*
X24393716Y9044480D01*
X24505520Y9156284D01*
X24580669Y9286447D01*
X24584577Y9293215D01*
X24625501Y9445943D01*
X24625501Y9604057D01*
X24625501Y9619317D01*
X24625500Y9619335D01*
X24625500Y10948126D01*
X24644454Y11043414D01*
X24698428Y11124194D01*
X26118713Y12544479D01*
X26118716Y12544480D01*
X26230520Y12656284D01*
X26309577Y12793216D01*
X26350500Y12945943D01*
X26350500Y15475864D01*
X26350501Y15475877D01*
X26350501Y15654057D01*
X26345147Y15674039D01*
X26309577Y15806784D01*
X26290549Y15839741D01*
X26261233Y15890519D01*
X26230520Y15943716D01*
X25949412Y16224823D01*
X25895436Y16305603D01*
X25877846Y16374863D01*
X25860674Y16538256D01*
X25802179Y16718284D01*
X25707533Y16882216D01*
X25707531Y16882219D01*
X25707530Y16882220D01*
X25580873Y17022886D01*
X25580872Y17022887D01*
X25580871Y17022888D01*
X25476618Y17098632D01*
X25427728Y17134153D01*
X25254810Y17211142D01*
X25254796Y17211146D01*
X25069646Y17250500D01*
X24880354Y17250500D01*
X24695203Y17211146D01*
X24695189Y17211142D01*
X24522271Y17134153D01*
X24369126Y17022886D01*
X24242469Y16882220D01*
X24147822Y16718286D01*
X24089325Y16538256D01*
X24069540Y16350000D01*
X24089325Y16161745D01*
X24103307Y16118714D01*
X24147821Y15981716D01*
X24236099Y15828814D01*
X24242469Y15817781D01*
X24327874Y15722930D01*
X24369129Y15677112D01*
X24400862Y15654057D01*
X24522271Y15565848D01*
X24695189Y15488859D01*
X24695192Y15488858D01*
X24695197Y15488856D01*
X24880354Y15449500D01*
X24900500Y15449500D01*
X24995788Y15430546D01*
X25076570Y15376570D01*
X25130546Y15295788D01*
X25149500Y15200500D01*
X25149500Y14699500D01*
X25130546Y14604212D01*
X25076570Y14523430D01*
X24995788Y14469454D01*
X24900500Y14450500D01*
X24880354Y14450500D01*
X24695203Y14411146D01*
X24695189Y14411142D01*
X24522271Y14334153D01*
X24472588Y14298055D01*
X24384357Y14257380D01*
X24326229Y14250500D01*
X20849000Y14250500D01*
X20753712Y14269454D01*
X20672930Y14323430D01*
X20618954Y14404212D01*
X20600000Y14499500D01*
X20600000Y15885002D01*
X20601364Y15911030D01*
X20605460Y15950000D01*
X20585674Y16138256D01*
X20527179Y16318284D01*
X20432533Y16482216D01*
X20432531Y16482219D01*
X20432530Y16482220D01*
X20305873Y16622886D01*
X20305872Y16622887D01*
X20305871Y16622888D01*
X20229300Y16678520D01*
X20152728Y16734153D01*
X19979810Y16811142D01*
X19979796Y16811146D01*
X19794646Y16850500D01*
X19605354Y16850500D01*
X19420203Y16811146D01*
X19420189Y16811142D01*
X19247271Y16734153D01*
X19094126Y16622886D01*
X18967469Y16482220D01*
X18891132Y16350000D01*
X18872821Y16318284D01*
X18844305Y16230522D01*
X18814326Y16138257D01*
X18797153Y15974865D01*
X18768342Y15882080D01*
X18725588Y15824825D01*
X18669479Y15768716D01*
X18659541Y15755764D01*
X18657654Y15757212D01*
X18608773Y15701465D01*
X18521641Y15658489D01*
X18457179Y15650000D01*
X17489543Y15650000D01*
X17394255Y15668954D01*
X17313473Y15722930D01*
X17259497Y15803712D01*
X17249027Y15834556D01*
X17247638Y15839740D01*
X17247638Y15839741D01*
X17209577Y15981785D01*
X17209577Y15981786D01*
X17180639Y16031906D01*
X17180636Y16031911D01*
X17130521Y16118714D01*
X17130520Y16118716D01*
X17018716Y16230520D01*
X17018713Y16230522D01*
X14380521Y18868714D01*
X14380520Y18868716D01*
X14268716Y18980520D01*
X14179426Y19032071D01*
X14172742Y19035930D01*
X14131785Y19059577D01*
X14131787Y19059577D01*
X14024755Y19088256D01*
X13979057Y19100501D01*
X13820943Y19100501D01*
X13805682Y19100501D01*
X13805666Y19100500D01*
X13062604Y19100500D01*
X12967316Y19119454D01*
X12886534Y19173430D01*
X12832558Y19254212D01*
X12828269Y19265835D01*
X12827182Y19268277D01*
X12827180Y19268280D01*
X12827179Y19268284D01*
X12732533Y19432216D01*
X12732531Y19432219D01*
X12732530Y19432220D01*
X12605873Y19572886D01*
X12605872Y19572887D01*
X12605871Y19572888D01*
X12521529Y19634166D01*
X12452728Y19684153D01*
X12279810Y19761142D01*
X12279796Y19761146D01*
X12094646Y19800500D01*
X11905354Y19800500D01*
X11720203Y19761146D01*
X11720189Y19761142D01*
X11547271Y19684153D01*
X11394126Y19572886D01*
X11267469Y19432220D01*
X11208452Y19329999D01*
X11172821Y19268284D01*
X11170501Y19261144D01*
X11114325Y19088256D01*
X11094540Y18900000D01*
X11114326Y18711744D01*
X11114326Y18711742D01*
X11172819Y18531720D01*
X11191423Y18499496D01*
X11222650Y18407496D01*
X11216294Y18310549D01*
X11191423Y18250504D01*
X11172819Y18218281D01*
X11114326Y18038259D01*
X11114326Y18038257D01*
X11094540Y17850000D01*
X11114325Y17661745D01*
X11143573Y17571730D01*
X11172821Y17481716D01*
X11263590Y17324499D01*
X11267469Y17317781D01*
X11363486Y17211144D01*
X11394129Y17177112D01*
X11502142Y17098636D01*
X11547271Y17065848D01*
X11720189Y16988859D01*
X11720192Y16988858D01*
X11720197Y16988856D01*
X11905354Y16949500D01*
X12094645Y16949500D01*
X12094646Y16949500D01*
X12279803Y16988856D01*
X12452730Y17065849D01*
X12605871Y17177112D01*
X12671950Y17250500D01*
X12731931Y17317114D01*
X12809777Y17375244D01*
X12903943Y17399159D01*
X12916973Y17399500D01*
X13398125Y17399500D01*
X13493413Y17380546D01*
X13574195Y17326570D01*
X15526570Y15374195D01*
X15580546Y15293413D01*
X15599500Y15198125D01*
X15599500Y14349000D01*
X15580546Y14253712D01*
X15526570Y14172930D01*
X15445788Y14118954D01*
X15350500Y14100000D01*
X14162453Y14100000D01*
X14152917Y14100500D01*
X14144646Y14100500D01*
X13955354Y14100500D01*
X13770203Y14061146D01*
X13770189Y14061142D01*
X13597271Y13984153D01*
X13444126Y13872886D01*
X13317469Y13732220D01*
X13222821Y13568285D01*
X13175308Y13422054D01*
X13127835Y13337287D01*
X13051538Y13277139D01*
X12958030Y13250768D01*
X12938495Y13250000D01*
X12573086Y13250000D01*
X12477798Y13268954D01*
X12397016Y13322930D01*
X9873430Y15846516D01*
X9819454Y15927298D01*
X9800500Y16022586D01*
X9800500Y19377414D01*
X9819454Y19472702D01*
X9873430Y19553484D01*
X10846516Y20526570D01*
X10927298Y20580546D01*
X11022586Y20599500D01*
X17627414Y20599500D01*
X17722702Y20580546D01*
G37*
%TD.AperFunction*%
%TA.AperFunction,Conductor*%
G36*
X13262814Y9731046D02*
G01*
X13305864Y9708035D01*
X13328039Y9693218D01*
X13357499Y9673534D01*
X13401260Y9655408D01*
X13475881Y9624499D01*
X13601554Y9599501D01*
X13601555Y9599500D01*
X13601556Y9599500D01*
X15664070Y9599500D01*
X15664070Y9599501D01*
X15789744Y9624499D01*
X15908127Y9673535D01*
X15909571Y9674500D01*
X15909572Y9674501D01*
X15909572Y9674500D01*
X15909577Y9674505D01*
X15959768Y9708041D01*
X16049529Y9745217D01*
X16098099Y9750000D01*
X17772625Y9750000D01*
X17867913Y9731046D01*
X17948695Y9677070D01*
X18019478Y9606287D01*
X18019480Y9606284D01*
X18131284Y9494480D01*
X18268216Y9415423D01*
X18380019Y9385466D01*
X18420942Y9374500D01*
X18420943Y9374500D01*
X19001000Y9374500D01*
X19096288Y9355546D01*
X19177070Y9301570D01*
X19231046Y9220788D01*
X19250000Y9125500D01*
X19250000Y7449182D01*
X19249499Y7441537D01*
X19249499Y7250878D01*
X19249500Y7250865D01*
X19249500Y5749000D01*
X19230546Y5653712D01*
X19176570Y5572930D01*
X19095788Y5518954D01*
X19000500Y5500000D01*
X17303539Y5500000D01*
X17242820Y5509618D01*
X17242568Y5508431D01*
X17044646Y5550500D01*
X16855354Y5550500D01*
X16657432Y5508431D01*
X16657179Y5509618D01*
X16596461Y5500000D01*
X12923086Y5500000D01*
X12827798Y5518954D01*
X12747016Y5572930D01*
X12523430Y5796516D01*
X12469454Y5877298D01*
X12450500Y5972586D01*
X12450500Y9501000D01*
X12469454Y9596288D01*
X12523430Y9677070D01*
X12604212Y9731046D01*
X12699500Y9750000D01*
X13167526Y9750000D01*
X13262814Y9731046D01*
G37*
%TD.AperFunction*%
%TA.AperFunction,Conductor*%
G36*
X61252239Y22249960D02*
G01*
X61257044Y22249875D01*
X61377291Y22247728D01*
X61408256Y22245237D01*
X61658051Y22209322D01*
X61692759Y22201771D01*
X61932737Y22131307D01*
X61966010Y22118898D01*
X62193539Y22014988D01*
X62224689Y21997979D01*
X62435102Y21862755D01*
X62463542Y21841465D01*
X62652559Y21677680D01*
X62677679Y21652560D01*
X62841464Y21463543D01*
X62862752Y21435106D01*
X62997975Y21224695D01*
X63014989Y21193535D01*
X63118893Y20966018D01*
X63131306Y20932738D01*
X63201770Y20692760D01*
X63209322Y20658045D01*
X63245233Y20408274D01*
X63247727Y20377280D01*
X63249958Y20252245D01*
X63249998Y20247803D01*
X63249998Y18649000D01*
X63231044Y18553712D01*
X63177068Y18472930D01*
X63096286Y18418954D01*
X63000998Y18400000D01*
X59411197Y18400000D01*
X59315909Y18418954D01*
X59235127Y18472930D01*
X59181151Y18553712D01*
X59162197Y18649000D01*
X59181151Y18744288D01*
X59211860Y18798217D01*
X59293796Y18907669D01*
X59344091Y19042517D01*
X59350500Y19102127D01*
X59350499Y20897872D01*
X59344091Y20957483D01*
X59293796Y21092331D01*
X59207546Y21207546D01*
X59092331Y21293796D01*
X59012117Y21323714D01*
X58957481Y21344092D01*
X58897876Y21350500D01*
X57302947Y21350500D01*
X57232482Y21364517D01*
X57110745Y21351427D01*
X57084126Y21350000D01*
X55735234Y21350000D01*
X55710000Y21330638D01*
X55710000Y20433012D01*
X55652993Y20465925D01*
X55525826Y20500000D01*
X55394174Y20500000D01*
X55267007Y20465925D01*
X55210000Y20433012D01*
X55210000Y21405422D01*
X55202131Y21428602D01*
X55200000Y21461107D01*
X55200000Y22001000D01*
X55218954Y22096288D01*
X55272930Y22177070D01*
X55353712Y22231046D01*
X55449000Y22250000D01*
X61247797Y22250000D01*
X61252239Y22249960D01*
G37*
%TD.AperFunction*%
%TD*%
M02*
