%TF.GenerationSoftware,KiCad,Pcbnew,8.0.6*%
%TF.CreationDate,2024-10-28T10:45:57+07:00*%
%TF.ProjectId,PMOD-Pulser_update,504d4f44-2d50-4756-9c73-65725f757064,rev?*%
%TF.SameCoordinates,PX5e2ce30PY52bb330*%
%TF.FileFunction,Copper,L1,Top*%
%TF.FilePolarity,Positive*%
%FSLAX46Y46*%
G04 Gerber Fmt 4.6, Leading zero omitted, Abs format (unit mm)*
G04 Created by KiCad (PCBNEW 8.0.6) date 2024-10-28 10:45:57*
%MOMM*%
%LPD*%
G01*
G04 APERTURE LIST*
G04 Aperture macros list*
%AMRoundRect*
0 Rectangle with rounded corners*
0 $1 Rounding radius*
0 $2 $3 $4 $5 $6 $7 $8 $9 X,Y pos of 4 corners*
0 Add a 4 corners polygon primitive as box body*
4,1,4,$2,$3,$4,$5,$6,$7,$8,$9,$2,$3,0*
0 Add four circle primitives for the rounded corners*
1,1,$1+$1,$2,$3*
1,1,$1+$1,$4,$5*
1,1,$1+$1,$6,$7*
1,1,$1+$1,$8,$9*
0 Add four rect primitives between the rounded corners*
20,1,$1+$1,$2,$3,$4,$5,0*
20,1,$1+$1,$4,$5,$6,$7,0*
20,1,$1+$1,$6,$7,$8,$9,0*
20,1,$1+$1,$8,$9,$2,$3,0*%
G04 Aperture macros list end*
%TA.AperFunction,ComponentPad*%
%ADD10C,2.000000*%
%TD*%
%TA.AperFunction,ComponentPad*%
%ADD11R,1.700000X1.700000*%
%TD*%
%TA.AperFunction,ComponentPad*%
%ADD12O,1.700000X1.700000*%
%TD*%
%TA.AperFunction,SMDPad,CuDef*%
%ADD13RoundRect,0.150000X0.450000X-0.150000X0.450000X0.150000X-0.450000X0.150000X-0.450000X-0.150000X0*%
%TD*%
%TA.AperFunction,SMDPad,CuDef*%
%ADD14RoundRect,0.250000X-0.325000X-0.650000X0.325000X-0.650000X0.325000X0.650000X-0.325000X0.650000X0*%
%TD*%
%TA.AperFunction,SMDPad,CuDef*%
%ADD15RoundRect,0.250000X-0.312500X-0.625000X0.312500X-0.625000X0.312500X0.625000X-0.312500X0.625000X0*%
%TD*%
%TA.AperFunction,SMDPad,CuDef*%
%ADD16RoundRect,0.150000X0.587500X0.150000X-0.587500X0.150000X-0.587500X-0.150000X0.587500X-0.150000X0*%
%TD*%
%TA.AperFunction,SMDPad,CuDef*%
%ADD17RoundRect,0.087500X0.462500X-0.087500X0.462500X0.087500X-0.462500X0.087500X-0.462500X-0.087500X0*%
%TD*%
%TA.AperFunction,SMDPad,CuDef*%
%ADD18RoundRect,0.087500X-0.087500X-0.462500X0.087500X-0.462500X0.087500X0.462500X-0.087500X0.462500X0*%
%TD*%
%TA.AperFunction,SMDPad,CuDef*%
%ADD19R,2.250000X2.250000*%
%TD*%
%TA.AperFunction,SMDPad,CuDef*%
%ADD20RoundRect,0.250000X0.650000X-0.325000X0.650000X0.325000X-0.650000X0.325000X-0.650000X-0.325000X0*%
%TD*%
%TA.AperFunction,SMDPad,CuDef*%
%ADD21RoundRect,0.250000X0.275000X0.700000X-0.275000X0.700000X-0.275000X-0.700000X0.275000X-0.700000X0*%
%TD*%
%TA.AperFunction,SMDPad,CuDef*%
%ADD22R,2.350000X0.700000*%
%TD*%
%TA.AperFunction,SMDPad,CuDef*%
%ADD23R,4.900000X4.800000*%
%TD*%
%TA.AperFunction,SMDPad,CuDef*%
%ADD24RoundRect,0.250000X-0.650000X0.325000X-0.650000X-0.325000X0.650000X-0.325000X0.650000X0.325000X0*%
%TD*%
%TA.AperFunction,SMDPad,CuDef*%
%ADD25RoundRect,0.162500X0.600000X-0.162500X0.600000X0.162500X-0.600000X0.162500X-0.600000X-0.162500X0*%
%TD*%
%TA.AperFunction,SMDPad,CuDef*%
%ADD26RoundRect,0.175000X0.175000X0.712500X-0.175000X0.712500X-0.175000X-0.712500X0.175000X-0.712500X0*%
%TD*%
%TA.AperFunction,SMDPad,CuDef*%
%ADD27RoundRect,0.243750X-0.243750X-0.456250X0.243750X-0.456250X0.243750X0.456250X-0.243750X0.456250X0*%
%TD*%
%TA.AperFunction,ViaPad*%
%ADD28C,0.800000*%
%TD*%
%TA.AperFunction,ViaPad*%
%ADD29C,1.000000*%
%TD*%
%TA.AperFunction,Conductor*%
%ADD30C,0.300000*%
%TD*%
%TA.AperFunction,Conductor*%
%ADD31C,0.500000*%
%TD*%
%TA.AperFunction,Conductor*%
%ADD32C,0.350000*%
%TD*%
%TA.AperFunction,Conductor*%
%ADD33C,0.200000*%
%TD*%
%TA.AperFunction,Conductor*%
%ADD34C,1.000000*%
%TD*%
%TA.AperFunction,Conductor*%
%ADD35C,0.700000*%
%TD*%
%TA.AperFunction,Conductor*%
%ADD36C,0.650000*%
%TD*%
G04 APERTURE END LIST*
D10*
%TO.P,REF\u002A\u002A,1*%
%TO.N,Net-(D1-K-Pad3)*%
X61000000Y11250000D03*
%TD*%
D11*
%TO.P,J4,1,Pin_1*%
%TO.N,OE*%
X58000000Y20000000D03*
D12*
%TO.P,J4,2,Pin_2*%
%TO.N,GND*%
X55460000Y20000000D03*
%TO.P,J4,3,Pin_3*%
%TO.N,-HV*%
X52920000Y20000000D03*
%TD*%
D13*
%TO.P,IC1,1,1A*%
%TO.N,P+*%
X15600000Y20500000D03*
%TO.P,IC1,2,GND*%
%TO.N,GND*%
X15600000Y19550000D03*
%TO.P,IC1,3,2A*%
%TO.N,Pdamp*%
X15600000Y18600000D03*
%TO.P,IC1,4,2Y*%
%TO.N,Net-(H1-2A)*%
X18100000Y18600000D03*
%TO.P,IC1,5,VCC*%
%TO.N,+5V*%
X18100000Y19550000D03*
%TO.P,IC1,6,1Y*%
%TO.N,Net-(H1-4A)*%
X18100000Y20500000D03*
%TD*%
D14*
%TO.P,C5,1*%
%TO.N,Net-(IC2-OUTB)*%
X33025000Y13250000D03*
%TO.P,C5,2*%
%TO.N,Net-(IC3-GN)*%
X35975000Y13250000D03*
%TD*%
D15*
%TO.P,R3,1*%
%TO.N,P-*%
X7287500Y15750000D03*
%TO.P,R3,2*%
%TO.N,GND*%
X10212500Y15750000D03*
%TD*%
D14*
%TO.P,C6,1*%
%TO.N,GND*%
X46025000Y18000000D03*
%TO.P,C6,2*%
%TO.N,-HV*%
X48975000Y18000000D03*
%TD*%
D16*
%TO.P,D2,1,K*%
%TO.N,Net-(IC6-DP_1)*%
X53875000Y6150000D03*
%TO.P,D2,2,A*%
%TO.N,Net-(D2-A)*%
X53875000Y8050000D03*
%TO.P,D2,3,K*%
%TO.N,Net-(D1-K-Pad3)*%
X52000000Y7100000D03*
%TD*%
D14*
%TO.P,C7,1*%
%TO.N,GND*%
X46025000Y20250000D03*
%TO.P,C7,2*%
%TO.N,-HV*%
X48975000Y20250000D03*
%TD*%
D17*
%TO.P,IC2,1,INA*%
%TO.N,PULSE+*%
X26300000Y15700000D03*
%TO.P,IC2,2,VL*%
%TO.N,GND*%
X26300000Y14900000D03*
%TO.P,IC2,3,INB*%
%TO.N,PULSE-*%
X26300000Y14100000D03*
D18*
%TO.P,IC2,4,GND_1*%
%TO.N,GND*%
X27350000Y13050000D03*
%TO.P,IC2,5,VSS1*%
X28150000Y13050000D03*
%TO.P,IC2,6,VSS2*%
X28950000Y13050000D03*
D17*
%TO.P,IC2,7,OUTB*%
%TO.N,Net-(IC2-OUTB)*%
X30000000Y14100000D03*
%TO.P,IC2,8,VH*%
%TO.N,+5V*%
X30000000Y14900000D03*
%TO.P,IC2,9,OUTA*%
%TO.N,Net-(IC2-OUTA)*%
X30000000Y15700000D03*
D18*
%TO.P,IC2,10,VDD2*%
%TO.N,+5V*%
X28950000Y16750000D03*
%TO.P,IC2,11,VDD1*%
%TO.N,Net-(IC2-VDD1)*%
X28150000Y16750000D03*
%TO.P,IC2,12,OE*%
%TO.N,OE*%
X27350000Y16750000D03*
D19*
%TO.P,IC2,13,GND_2*%
%TO.N,GND*%
X28150000Y14900000D03*
%TD*%
D16*
%TO.P,D1,1,K*%
%TO.N,Net-(IC3-DP_1)*%
X53875000Y9550000D03*
%TO.P,D1,2,A*%
%TO.N,Net-(D1-A)*%
X53875000Y11450000D03*
%TO.P,D1,3,K*%
%TO.N,Net-(D1-K-Pad3)*%
X52000000Y10500000D03*
%TD*%
D20*
%TO.P,C15,1*%
%TO.N,+5V*%
X21650000Y17875000D03*
%TO.P,C15,2*%
%TO.N,GND*%
X21650000Y20825000D03*
%TD*%
D14*
%TO.P,C4,1*%
%TO.N,Net-(IC2-OUTA)*%
X33025000Y16750000D03*
%TO.P,C4,2*%
%TO.N,Net-(IC3-GP)*%
X35975000Y16750000D03*
%TD*%
D21*
%TO.P,FB2,1*%
%TO.N,+5V*%
X34025000Y9150000D03*
%TO.P,FB2,2*%
%TO.N,Net-(IC5-VDD1)*%
X30875000Y9150000D03*
%TD*%
%TO.P,FB1,1*%
%TO.N,+5V*%
X33975000Y20150000D03*
%TO.P,FB1,2*%
%TO.N,Net-(IC2-VDD1)*%
X30825000Y20150000D03*
%TD*%
D20*
%TO.P,C14,1*%
%TO.N,+5V*%
X11250000Y2025000D03*
%TO.P,C14,2*%
%TO.N,GND*%
X11250000Y4975000D03*
%TD*%
D11*
%TO.P,J6,1,Pin_1*%
%TO.N,+5V*%
X52920000Y2000000D03*
D12*
%TO.P,J6,2,Pin_2*%
%TO.N,+HV*%
X55460000Y2000000D03*
%TD*%
D22*
%TO.P,J1,1,1*%
%TO.N,Net-(D1-K-Pad3)*%
X62101000Y11250000D03*
D23*
%TO.P,J1,2,2*%
%TO.N,GND*%
X60526000Y7000000D03*
X60526000Y15500000D03*
%TD*%
D15*
%TO.P,R2,1*%
%TO.N,P+*%
X9187500Y20850000D03*
%TO.P,R2,2*%
%TO.N,GND*%
X12112500Y20850000D03*
%TD*%
%TO.P,R4,1*%
%TO.N,Pdamp*%
X7287500Y13500000D03*
%TO.P,R4,2*%
%TO.N,GND*%
X10212500Y13500000D03*
%TD*%
D14*
%TO.P,C9,1*%
%TO.N,Net-(IC5-OUTA)*%
X33275000Y5500000D03*
%TO.P,C9,2*%
%TO.N,Net-(IC6-GP)*%
X36225000Y5500000D03*
%TD*%
D11*
%TO.P,J2,1,Pin_1*%
%TO.N,+5V*%
X6540000Y19580000D03*
D12*
%TO.P,J2,2,Pin_2*%
%TO.N,GND*%
X4000000Y19580000D03*
%TD*%
D14*
%TO.P,C2,1*%
%TO.N,GND*%
X38525000Y17750000D03*
%TO.P,C2,2*%
%TO.N,+HV*%
X41475000Y17750000D03*
%TD*%
D24*
%TO.P,C16,1*%
%TO.N,+5V*%
X21650000Y15675000D03*
%TO.P,C16,2*%
%TO.N,GND*%
X21650000Y12725000D03*
%TD*%
D25*
%TO.P,IC6,1,SN*%
%TO.N,GND*%
X41788000Y7405000D03*
%TO.P,IC6,2,GN*%
%TO.N,Net-(IC5-OUTB)*%
X41788000Y6135000D03*
%TO.P,IC6,3,SP*%
%TO.N,GND*%
X41788000Y4865000D03*
%TO.P,IC6,4,GP*%
%TO.N,Net-(IC6-GP)*%
X41788000Y3595000D03*
%TO.P,IC6,5,DP_1*%
%TO.N,Net-(IC6-DP_1)*%
X47212000Y3595000D03*
%TO.P,IC6,6,DP_2*%
X47212000Y4865000D03*
%TO.P,IC6,7,DN_1*%
%TO.N,Net-(D2-A)*%
X47212000Y6135000D03*
%TO.P,IC6,8,DN_2*%
X47212000Y7405000D03*
%TD*%
%TO.P,IC3,1,SN*%
%TO.N,-HV*%
X41788000Y14155000D03*
%TO.P,IC3,2,GN*%
%TO.N,Net-(IC3-GN)*%
X41788000Y12885000D03*
%TO.P,IC3,3,SP*%
%TO.N,+HV*%
X41788000Y11615000D03*
%TO.P,IC3,4,GP*%
%TO.N,Net-(IC3-GP)*%
X41788000Y10345000D03*
%TO.P,IC3,5,DP_1*%
%TO.N,Net-(IC3-DP_1)*%
X47212000Y10345000D03*
%TO.P,IC3,6,DP_2*%
X47212000Y11615000D03*
%TO.P,IC3,7,DN_1*%
%TO.N,Net-(D1-A)*%
X47212000Y12885000D03*
%TO.P,IC3,8,DN_2*%
X47212000Y14155000D03*
%TD*%
D14*
%TO.P,C8,1*%
%TO.N,GND*%
X26225000Y9150000D03*
%TO.P,C8,2*%
%TO.N,Net-(IC5-VDD1)*%
X29175000Y9150000D03*
%TD*%
D26*
%TO.P,H1,1,1A*%
%TO.N,Pdamp*%
X14440000Y2274000D03*
%TO.P,H1,2,1B*%
X15710000Y2274000D03*
%TO.P,H1,3,1Y*%
%TO.N,DAMP*%
X16980000Y2274000D03*
%TO.P,H1,4,2A*%
%TO.N,Net-(H1-2A)*%
X18250000Y2274000D03*
%TO.P,H1,5,2B*%
%TO.N,P+*%
X19520000Y2274000D03*
%TO.P,H1,6,2Y*%
%TO.N,PULSE+*%
X20790000Y2274000D03*
%TO.P,H1,7,GND*%
%TO.N,GND*%
X22060000Y2274000D03*
%TO.P,H1,8,3Y*%
%TO.N,_PULSE-*%
X22060000Y9350000D03*
%TO.P,H1,9,3A*%
%TO.N,P-*%
X20790000Y9350000D03*
%TO.P,H1,10,3B*%
%TO.N,Net-(H1-3B)*%
X19520000Y9350000D03*
%TO.P,H1,11,4Y*%
X18250000Y9350000D03*
%TO.P,H1,12,4A*%
%TO.N,Net-(H1-4A)*%
X16980000Y9350000D03*
%TO.P,H1,13,4B*%
%TO.N,Net-(H1-2A)*%
X15710000Y9350000D03*
%TO.P,H1,14,VCC*%
%TO.N,+5V*%
X14440000Y9350000D03*
%TD*%
D14*
%TO.P,C3,1*%
%TO.N,GND*%
X38525000Y20150000D03*
%TO.P,C3,2*%
%TO.N,+HV*%
X41475000Y20150000D03*
%TD*%
D15*
%TO.P,R1,1*%
%TO.N,OE*%
X7287500Y9500000D03*
%TO.P,R1,2*%
%TO.N,Net-(D3-Pad2)*%
X10212500Y9500000D03*
%TD*%
D27*
%TO.P,D3,1*%
%TO.N,GND*%
X7812500Y7250000D03*
%TO.P,D3,2*%
%TO.N,Net-(D3-Pad2)*%
X9687500Y7250000D03*
%TD*%
D11*
%TO.P,J3,1,1*%
%TO.N,+3.3V*%
X4000000Y1800000D03*
D12*
%TO.P,J3,2,2*%
%TO.N,GND*%
X4000000Y4340000D03*
%TO.P,J3,3,3*%
%TO.N,OE*%
X4000000Y6880000D03*
%TO.P,J3,4,4*%
%TO.N,Pdamp*%
X4000000Y9420000D03*
%TO.P,J3,5,5*%
%TO.N,P-*%
X4000000Y11960000D03*
%TO.P,J3,6,6*%
%TO.N,P+*%
X4000000Y14500000D03*
%TD*%
D14*
%TO.P,C1,1*%
%TO.N,GND*%
X26175000Y20150000D03*
%TO.P,C1,2*%
%TO.N,Net-(IC2-VDD1)*%
X29125000Y20150000D03*
%TD*%
D13*
%TO.P,IC4,1,1A*%
%TO.N,Pdamp*%
X15600000Y15750000D03*
%TO.P,IC4,2,GND*%
%TO.N,GND*%
X15600000Y14800000D03*
%TO.P,IC4,3,2A*%
%TO.N,_PULSE-*%
X15600000Y13850000D03*
%TO.P,IC4,4,2Y*%
%TO.N,PULSE-*%
X18100000Y13850000D03*
%TO.P,IC4,5,VCC*%
%TO.N,+5V*%
X18100000Y14800000D03*
%TO.P,IC4,6,1Y*%
%TO.N,~{DAMP}*%
X18100000Y15750000D03*
%TD*%
D17*
%TO.P,IC5,1,INA*%
%TO.N,DAMP*%
X26300000Y5200000D03*
%TO.P,IC5,2,VL*%
%TO.N,GND*%
X26300000Y4400000D03*
%TO.P,IC5,3,INB*%
%TO.N,~{DAMP}*%
X26300000Y3600000D03*
D18*
%TO.P,IC5,4,GND_1*%
%TO.N,GND*%
X27350000Y2550000D03*
%TO.P,IC5,5,VSS1*%
X28150000Y2550000D03*
%TO.P,IC5,6,VSS2*%
X28950000Y2550000D03*
D17*
%TO.P,IC5,7,OUTB*%
%TO.N,Net-(IC5-OUTB)*%
X30000000Y3600000D03*
%TO.P,IC5,8,VH*%
%TO.N,+5V*%
X30000000Y4400000D03*
%TO.P,IC5,9,OUTA*%
%TO.N,Net-(IC5-OUTA)*%
X30000000Y5200000D03*
D18*
%TO.P,IC5,10,VDD2*%
%TO.N,+5V*%
X28950000Y6250000D03*
%TO.P,IC5,11,VDD1*%
%TO.N,Net-(IC5-VDD1)*%
X28150000Y6250000D03*
%TO.P,IC5,12,OE*%
%TO.N,OE*%
X27350000Y6250000D03*
D19*
%TO.P,IC5,13,GND_2*%
%TO.N,GND*%
X28150000Y4400000D03*
%TD*%
D28*
%TO.N,GND*%
X51050000Y2000000D03*
X49500000Y9000000D03*
X8500000Y3000000D03*
X62200000Y18850000D03*
X51000000Y16750000D03*
X5500000Y21500000D03*
X27750000Y11250000D03*
X43500000Y20250000D03*
X6250000Y5500000D03*
X17250000Y7500000D03*
X8500000Y5500000D03*
X57000000Y16750000D03*
X13000000Y8250000D03*
X45250000Y3250000D03*
X60250000Y750000D03*
X28750000Y5000000D03*
X28750000Y14250000D03*
X18750000Y6000000D03*
X31000000Y11250000D03*
X44500000Y19250000D03*
X45250000Y13750000D03*
X35250000Y7500000D03*
X29750000Y11250000D03*
X13000000Y6250000D03*
X11750000Y15750000D03*
X60000000Y18850000D03*
X23500000Y4000000D03*
X57150000Y5550000D03*
X45250000Y12750000D03*
X62750000Y3700000D03*
X52000000Y13000000D03*
X38000000Y2900000D03*
X34000000Y3000000D03*
X37000000Y9500000D03*
X12950000Y13900000D03*
X13000000Y7250000D03*
X54000000Y16750000D03*
X61500000Y750000D03*
X45250000Y11750000D03*
X48000000Y2000000D03*
X38000000Y6500000D03*
X43500000Y7500000D03*
X61500000Y3700000D03*
X34500000Y11250000D03*
X4500000Y17000000D03*
X54000000Y13000000D03*
X57750000Y3700000D03*
X33500000Y11250000D03*
X55500000Y16750000D03*
X57000000Y12500000D03*
X18000000Y6750000D03*
X6000000Y500000D03*
X32750000Y3000000D03*
X37000000Y7600000D03*
X28750000Y15500000D03*
X7500000Y21500000D03*
X46500000Y2000000D03*
X52500000Y16750000D03*
X44250000Y6750000D03*
X12750000Y16750000D03*
X57150000Y6700000D03*
X55500000Y12250000D03*
X60250000Y3700000D03*
X23500000Y7000000D03*
X57000000Y13750000D03*
X59000000Y3700000D03*
X14400000Y19550000D03*
X51000000Y13750000D03*
X51000000Y15250000D03*
X38000000Y8500000D03*
X48000000Y9000000D03*
X23500000Y6000000D03*
X51000000Y3750000D03*
X23500000Y5000000D03*
X57000000Y15250000D03*
X39750000Y6500000D03*
X7750000Y500000D03*
X27500000Y3750000D03*
X27500000Y5000000D03*
X45250000Y2000000D03*
X28750000Y3750000D03*
X59000000Y750000D03*
X26000000Y11250000D03*
X45250000Y4500000D03*
X57150000Y8100000D03*
X36750000Y2900000D03*
X27500000Y14250000D03*
X57750000Y750000D03*
X14050000Y14800000D03*
X37000000Y18500000D03*
X62750000Y1500000D03*
X13000000Y9250000D03*
X24650000Y14900000D03*
X56250000Y11500000D03*
X18750000Y7500000D03*
X27500000Y15500000D03*
X49500000Y2000000D03*
X45250000Y5750000D03*
%TO.N,+5V*%
X31375000Y4350000D03*
X35750000Y20000000D03*
X23900000Y19500000D03*
X9250000Y1800000D03*
D29*
X31650000Y14900000D03*
D28*
X35650000Y9150000D03*
%TO.N,Pdamp*%
X13450000Y2150000D03*
X10900000Y11750000D03*
%TO.N,DAMP*%
X24975000Y5950000D03*
X16950000Y4650000D03*
%TO.N,Net-(H1-2A)*%
X19600000Y18300000D03*
X15200000Y11100000D03*
%TO.N,P+*%
X19850000Y4150000D03*
X12000000Y18900000D03*
%TO.N,PULSE+*%
X21600000Y4150000D03*
X24975000Y16350000D03*
%TO.N,_PULSE-*%
X14050000Y13200000D03*
X21775000Y11025000D03*
%TO.N,P-*%
X12000000Y17850000D03*
X20350000Y11025000D03*
%TO.N,Net-(H1-4A)*%
X16312500Y10962500D03*
X19850000Y21050000D03*
%TO.N,PULSE-*%
X19975000Y13650000D03*
X24975000Y13550000D03*
%TO.N,OE*%
X26450000Y7150000D03*
X11800000Y10700000D03*
X27350000Y18400000D03*
%TO.N,~{DAMP}*%
X19700000Y15950000D03*
X24975000Y3150000D03*
%TO.N,+HV*%
X43700000Y17500000D03*
X42750000Y17450000D03*
%TD*%
D30*
%TO.N,Net-(D1-K-Pad3)*%
X58700000Y11250000D02*
X62100000Y11250000D01*
X55650000Y8850000D02*
X56300000Y8850000D01*
X56300000Y8850000D02*
X58700000Y11250000D01*
D31*
%TO.N,GND*%
X27350000Y3600000D02*
X28125000Y4375000D01*
D32*
X28950000Y2550000D02*
X28950000Y1000000D01*
X27350000Y13050000D02*
X27350000Y11500000D01*
X26300000Y4400000D02*
X24625000Y4400000D01*
X28950000Y2550000D02*
X28950000Y3600000D01*
D31*
X20300000Y22000000D02*
X18800000Y22000000D01*
X21650000Y21950000D02*
X21700000Y22000000D01*
D32*
X28950000Y13050000D02*
X28950000Y14100000D01*
D31*
X61000000Y5250000D02*
X61000000Y2950000D01*
X21725000Y12725000D02*
X23400000Y11050000D01*
X23900000Y22000000D02*
X24050000Y21850000D01*
X62600000Y18950000D02*
X62600000Y16650000D01*
D32*
X28150000Y2550000D02*
X28150000Y1000000D01*
D30*
X37000000Y18750000D02*
X37125000Y18750000D01*
D31*
X10212500Y15750000D02*
X10212500Y13500000D01*
X59350000Y4850000D02*
X57050000Y4850000D01*
X56850000Y14400000D02*
X59150000Y14400000D01*
D32*
X27350000Y2550000D02*
X27350000Y3600000D01*
D31*
X44250000Y20250000D02*
X46025000Y20250000D01*
X21650000Y12725000D02*
X21725000Y12725000D01*
X59400000Y7200000D02*
X57100000Y7200000D01*
X20300000Y22000000D02*
X23900000Y22000000D01*
X21650000Y20825000D02*
X21650000Y21950000D01*
X15600000Y19550000D02*
X14400000Y19550000D01*
D30*
X24625000Y4400000D02*
X24575000Y4350000D01*
D32*
X28150000Y13050000D02*
X28150000Y14100000D01*
X27350000Y2550000D02*
X27350000Y1000000D01*
X27350000Y13050000D02*
X27350000Y14100000D01*
D31*
X59400000Y6000000D02*
X57100000Y6000000D01*
D32*
X28150000Y13050000D02*
X28150000Y11500000D01*
D31*
X59050000Y5350000D02*
X59050000Y3050000D01*
X59600000Y8550000D02*
X57300000Y8550000D01*
X62700000Y5250000D02*
X62700000Y2950000D01*
X21337500Y12550000D02*
X18962500Y12550000D01*
X21700000Y22000000D02*
X20300000Y22000000D01*
X18800000Y22000000D02*
X18700000Y21900000D01*
D32*
X27550000Y4400000D02*
X26500000Y4400000D01*
X26300000Y14900000D02*
X27350000Y14900000D01*
X28150000Y2550000D02*
X28150000Y3600000D01*
D31*
X15600000Y14800000D02*
X14050000Y14800000D01*
D32*
X26300000Y14900000D02*
X24650000Y14900000D01*
D31*
X61500000Y19000000D02*
X61500000Y16700000D01*
X56926000Y15500000D02*
X59226000Y15500000D01*
D32*
X28950000Y13050000D02*
X28950000Y11500000D01*
D31*
X60350000Y18950000D02*
X60350000Y16650000D01*
X56900000Y16800000D02*
X59200000Y16800000D01*
D30*
X41788000Y4865000D02*
X41385000Y4865000D01*
D31*
X28125000Y4375000D02*
X28150000Y4400000D01*
D32*
%TO.N,Net-(IC2-VDD1)*%
X28150000Y16750000D02*
X28150000Y17850000D01*
X28150000Y17850000D02*
X29125000Y18825000D01*
X29125000Y18825000D02*
X29125000Y20150000D01*
D30*
X29125000Y20150000D02*
X30825000Y20150000D01*
D31*
%TO.N,+5V*%
X33975000Y19475000D02*
X32850000Y18350000D01*
X18100000Y14800000D02*
X20775000Y14800000D01*
X11025000Y1800000D02*
X11250000Y2025000D01*
X21650000Y17875000D02*
X21650000Y15675000D01*
X29575000Y7150000D02*
X29075000Y6650000D01*
X32400000Y7150000D02*
X29575000Y7150000D01*
X20775000Y14800000D02*
X21650000Y15675000D01*
X20100000Y19550000D02*
X18100000Y19550000D01*
X28950000Y17050000D02*
X28950000Y16775000D01*
X35600000Y20150000D02*
X33975000Y20150000D01*
X21650000Y17875000D02*
X21650000Y18000000D01*
X11275000Y2025000D02*
X14440000Y5190000D01*
X34025000Y8775000D02*
X32400000Y7150000D01*
X14440000Y5190000D02*
X14440000Y9350000D01*
X23900000Y18800000D02*
X22975000Y17875000D01*
X34025000Y9150000D02*
X34025000Y8775000D01*
X33975000Y20150000D02*
X33975000Y19475000D01*
X30000000Y4400000D02*
X31325000Y4400000D01*
X23900000Y19500000D02*
X23900000Y18800000D01*
X30000000Y14900000D02*
X31650000Y14900000D01*
X9250000Y1800000D02*
X11025000Y1800000D01*
X30250000Y18350000D02*
X28950000Y17050000D01*
X11250000Y2025000D02*
X11275000Y2025000D01*
X35750000Y20000000D02*
X35600000Y20150000D01*
X29075000Y6650000D02*
X29075000Y6250000D01*
X32850000Y18350000D02*
X30250000Y18350000D01*
X34025000Y9150000D02*
X35650000Y9150000D01*
X21650000Y18000000D02*
X20100000Y19550000D01*
X31325000Y4400000D02*
X31375000Y4350000D01*
X22975000Y17875000D02*
X21650000Y17875000D01*
D30*
%TO.N,Net-(IC2-OUTA)*%
X30000000Y15700000D02*
X30600000Y15700000D01*
X30600000Y15700000D02*
X31650000Y16750000D01*
X31650000Y16750000D02*
X33025000Y16750000D01*
%TO.N,Net-(IC3-GP)*%
X42750000Y10000000D02*
X42750000Y9625000D01*
X42405000Y10345000D02*
X42750000Y10000000D01*
X42375000Y9250000D02*
X39750000Y9250000D01*
X39750000Y9250000D02*
X37250000Y11750000D01*
X41788000Y10345000D02*
X42405000Y10345000D01*
X35975000Y16525000D02*
X35975000Y16750000D01*
X42750000Y9625000D02*
X42375000Y9250000D01*
X37250000Y15250000D02*
X35975000Y16525000D01*
X37250000Y11750000D02*
X37250000Y15250000D01*
%TO.N,Net-(IC2-OUTB)*%
X31350000Y13250000D02*
X33025000Y13250000D01*
X30500000Y14100000D02*
X31350000Y13250000D01*
X30000000Y14100000D02*
X30500000Y14100000D01*
%TO.N,Net-(IC3-GN)*%
X36500000Y11500000D02*
X36500000Y12725000D01*
X43500000Y12125000D02*
X43500000Y9500000D01*
X43500000Y9500000D02*
X42500000Y8500000D01*
X42500000Y8500000D02*
X39500000Y8500000D01*
X39500000Y8500000D02*
X36500000Y11500000D01*
X36500000Y12725000D02*
X35975000Y13250000D01*
X41788000Y12885000D02*
X42740000Y12885000D01*
X42740000Y12885000D02*
X43500000Y12125000D01*
%TO.N,Net-(IC5-VDD1)*%
X28150000Y7025000D02*
X29175000Y8050000D01*
D31*
X29175000Y9150000D02*
X30875000Y9150000D01*
D30*
X29175000Y8050000D02*
X29175000Y9150000D01*
X28150000Y6250000D02*
X28150000Y7025000D01*
%TO.N,Net-(IC5-OUTA)*%
X31050000Y5550000D02*
X33225000Y5550000D01*
X30000000Y5200000D02*
X30700000Y5200000D01*
X30700000Y5200000D02*
X31050000Y5550000D01*
X33225000Y5550000D02*
X33275000Y5500000D01*
%TO.N,Net-(IC6-GP)*%
X42655000Y3595000D02*
X43000000Y3250000D01*
X43000000Y3250000D02*
X43000000Y2750000D01*
X43000000Y2750000D02*
X42750000Y2500000D01*
X37100000Y5500000D02*
X36225000Y5500000D01*
X41788000Y3595000D02*
X42655000Y3595000D01*
X40100000Y2500000D02*
X37100000Y5500000D01*
X42750000Y2500000D02*
X40100000Y2500000D01*
%TO.N,Net-(IC3-DP_1)*%
X53875000Y9550000D02*
X50850000Y9550000D01*
X50055000Y10345000D02*
X49250000Y10345000D01*
X49000000Y10595000D02*
X48750000Y10345000D01*
X49250000Y10345000D02*
X49000000Y10345000D01*
X49000000Y10595000D02*
X49250000Y10345000D01*
X48750000Y10345000D02*
X47212000Y10345000D01*
X48635000Y11615000D02*
X49000000Y11250000D01*
X49000000Y10750000D02*
X49000000Y10595000D01*
X49000000Y10345000D02*
X48750000Y10345000D01*
X49000000Y10750000D02*
X49000000Y10345000D01*
X50850000Y9550000D02*
X50055000Y10345000D01*
X47212000Y11615000D02*
X48635000Y11615000D01*
X49000000Y11250000D02*
X49000000Y10750000D01*
%TO.N,Net-(D1-A)*%
X49250000Y12885000D02*
X49000000Y12885000D01*
X49000000Y13135000D02*
X48750000Y12885000D01*
X48750000Y12885000D02*
X47212000Y12885000D01*
X49000000Y13250000D02*
X49000000Y12885000D01*
X49000000Y13750000D02*
X49000000Y13250000D01*
X53875000Y11450000D02*
X51300000Y11450000D01*
X47212000Y14155000D02*
X48595000Y14155000D01*
X49865000Y12885000D02*
X49250000Y12885000D01*
X49000000Y12885000D02*
X48750000Y12885000D01*
X51300000Y11450000D02*
X49865000Y12885000D01*
X48595000Y14155000D02*
X49000000Y13750000D01*
X49000000Y13135000D02*
X49250000Y12885000D01*
X49000000Y13250000D02*
X49000000Y13135000D01*
%TO.N,Net-(D1-K-Pad3)*%
X55250000Y10150000D02*
X54900000Y10500000D01*
X54900000Y7100000D02*
X55250000Y7450000D01*
X55250000Y8850000D02*
X55650000Y8850000D01*
X55250000Y8850000D02*
X55250000Y9200000D01*
X55250000Y7450000D02*
X55250000Y8450000D01*
X55250000Y9200000D02*
X55250000Y10150000D01*
X55600000Y8850000D02*
X55250000Y9200000D01*
X55650000Y8850000D02*
X55250000Y8450000D01*
X55250000Y8450000D02*
X55250000Y8850000D01*
X52000000Y7100000D02*
X54900000Y7100000D01*
X55650000Y8850000D02*
X55600000Y8850000D01*
X54900000Y10500000D02*
X52000000Y10500000D01*
%TO.N,Net-(IC6-DP_1)*%
X49300000Y4850000D02*
X49000000Y4550000D01*
X49000000Y4865000D02*
X49300000Y4865000D01*
X49300000Y4865000D02*
X49615000Y4865000D01*
X49300000Y4865000D02*
X49300000Y4850000D01*
X49615000Y4865000D02*
X50900000Y6150000D01*
X47212000Y4865000D02*
X48700000Y4865000D01*
X49000000Y4550000D02*
X49000000Y4865000D01*
X48700000Y4850000D02*
X49000000Y4550000D01*
X48700000Y4865000D02*
X49000000Y4865000D01*
X48700000Y4865000D02*
X48700000Y4850000D01*
X48595000Y3595000D02*
X49000000Y4000000D01*
X47212000Y3595000D02*
X48595000Y3595000D01*
X49000000Y4000000D02*
X49000000Y4550000D01*
X50900000Y6150000D02*
X53875000Y6150000D01*
%TO.N,Net-(D2-A)*%
X49000000Y7000000D02*
X49000000Y7155000D01*
X49250000Y7405000D02*
X49000000Y7405000D01*
X49000000Y7405000D02*
X48750000Y7405000D01*
X49000000Y6500000D02*
X49000000Y7000000D01*
X48750000Y7405000D02*
X47212000Y7405000D01*
X50105000Y7405000D02*
X49250000Y7405000D01*
X53875000Y8050000D02*
X50750000Y8050000D01*
X47212000Y6135000D02*
X48635000Y6135000D01*
X49000000Y7000000D02*
X49000000Y7405000D01*
X49000000Y7155000D02*
X48750000Y7405000D01*
X48635000Y6135000D02*
X49000000Y6500000D01*
X49000000Y7155000D02*
X49250000Y7405000D01*
X50750000Y8050000D02*
X50105000Y7405000D01*
%TO.N,Net-(D3-Pad2)*%
X10212500Y7775000D02*
X10212500Y9500000D01*
X9687500Y7250000D02*
X10212500Y7775000D01*
%TO.N,Pdamp*%
X14300000Y16700000D02*
X14300000Y16600000D01*
X14650000Y16250000D02*
X14300000Y16250000D01*
X4000000Y9450000D02*
X6018750Y11468750D01*
X13450000Y2150000D02*
X14316000Y2150000D01*
X11700000Y14200000D02*
X11700000Y12550000D01*
X7287500Y12162500D02*
X7287500Y13500000D01*
X13750000Y16250000D02*
X11700000Y14200000D01*
X15600000Y18600000D02*
X14550000Y18600000D01*
X14550000Y18600000D02*
X14300000Y18350000D01*
X10900000Y11750000D02*
X7700000Y11750000D01*
X14316000Y2150000D02*
X14440000Y2274000D01*
X7700000Y11750000D02*
X7287500Y12162500D01*
X14300000Y16700000D02*
X14300000Y16250000D01*
X6018750Y11468750D02*
X6018750Y12231250D01*
X13450000Y2150000D02*
X15586000Y2150000D01*
X14300000Y18350000D02*
X14300000Y16700000D01*
X15586000Y2150000D02*
X15710000Y2274000D01*
X15300000Y15750000D02*
X14800000Y16250000D01*
X15600000Y15750000D02*
X15300000Y15750000D01*
X6018750Y12231250D02*
X7287500Y13500000D01*
X14300000Y16600000D02*
X14650000Y16250000D01*
X14800000Y16250000D02*
X14650000Y16250000D01*
X4000000Y9420000D02*
X4000000Y9450000D01*
X14300000Y16600000D02*
X13950000Y16250000D01*
X11700000Y12550000D02*
X10900000Y11750000D01*
X13950000Y16250000D02*
X13750000Y16250000D01*
X13950000Y16250000D02*
X14300000Y16250000D01*
%TO.N,DAMP*%
X25725000Y5200000D02*
X26300000Y5200000D01*
X16998000Y2292000D02*
X16980000Y2274000D01*
X16950000Y4650000D02*
X16950000Y2304000D01*
X16950000Y2304000D02*
X16980000Y2274000D01*
X24975000Y5950000D02*
X25725000Y5200000D01*
%TO.N,Net-(H1-2A)*%
X15200000Y11100000D02*
X15200000Y10850000D01*
X19600000Y18300000D02*
X19300000Y18600000D01*
X18250000Y4750000D02*
X15710000Y7290000D01*
X18250000Y2274000D02*
X18250000Y4750000D01*
X15710000Y7290000D02*
X15710000Y9350000D01*
X15200000Y10850000D02*
X15710000Y10340000D01*
X19300000Y18600000D02*
X18100000Y18600000D01*
X15710000Y10340000D02*
X15710000Y9350000D01*
D33*
%TO.N,P+*%
X5775000Y17093200D02*
X6406800Y17725000D01*
X9000000Y18600001D02*
X9250000Y18600001D01*
X19520000Y2274000D02*
X19520000Y3820000D01*
X14250000Y20500000D02*
X15600000Y20500000D01*
X7656800Y17725000D02*
X8531801Y18600001D01*
X19520000Y3820000D02*
X19850000Y4150000D01*
X4000000Y14500000D02*
X5044999Y13455001D01*
X9500000Y18600001D02*
X11700001Y18600001D01*
X8850001Y18600001D02*
X8800000Y18600001D01*
X6406800Y17725000D02*
X7656800Y17725000D01*
X5136801Y13455001D02*
X5775000Y14093200D01*
X9187500Y18912501D02*
X9500000Y18600001D01*
X5775000Y14093200D02*
X5775000Y17093200D01*
X9187500Y18662501D02*
X9250000Y18600001D01*
X9250000Y18600001D02*
X9500000Y18600001D01*
X9187500Y18937500D02*
X8850001Y18600001D01*
X5044999Y13455001D02*
X5136801Y13455001D01*
X9187500Y20850000D02*
X9150000Y20812500D01*
X12000000Y18900000D02*
X12650000Y18900000D01*
X12650000Y18900000D02*
X14250000Y20500000D01*
X9187500Y19000000D02*
X9187500Y18912501D01*
X9187500Y19000000D02*
X9187500Y18662501D01*
X9187500Y20850000D02*
X9187500Y19000000D01*
X11700001Y18600001D02*
X12000000Y18900000D01*
X8531801Y18600001D02*
X9000000Y18600001D01*
X9187500Y19000000D02*
X9187500Y18937500D01*
%TO.N,PULSE+*%
X25625000Y15700000D02*
X26300000Y15700000D01*
X24975000Y16350000D02*
X25625000Y15700000D01*
X21600000Y4150000D02*
X20790000Y3340000D01*
X20790000Y3340000D02*
X20790000Y2274000D01*
D30*
%TO.N,_PULSE-*%
X22060000Y10560000D02*
X22060000Y9350000D01*
X21775000Y10845000D02*
X22060000Y10560000D01*
X14700000Y13850000D02*
X14050000Y13200000D01*
X15600000Y13850000D02*
X14700000Y13850000D01*
X21775000Y11025000D02*
X21775000Y10845000D01*
D33*
X21920000Y9350000D02*
X21960000Y9390000D01*
%TO.N,P-*%
X5323199Y13004999D02*
X6225000Y13906800D01*
X7287500Y17037500D02*
X7050000Y17275000D01*
X6225000Y16906800D02*
X6593200Y17275000D01*
X11700001Y18149999D02*
X12000000Y17850000D01*
X8718199Y18149999D02*
X11700001Y18149999D01*
X6225000Y13906800D02*
X6225000Y16906800D01*
X7287500Y17000000D02*
X7287500Y17237500D01*
X7287500Y17237500D02*
X7250000Y17275000D01*
X7325000Y17000000D02*
X7600000Y17275000D01*
X6593200Y17275000D02*
X7050000Y17275000D01*
X4000000Y11960000D02*
X5044999Y13004999D01*
X5044999Y13004999D02*
X5323199Y13004999D01*
X7600000Y17275000D02*
X7843200Y17275000D01*
X7843200Y17275000D02*
X8718199Y18149999D01*
X20350000Y11025000D02*
X20790000Y10585000D01*
X7287500Y17000000D02*
X7325000Y17000000D01*
X20790000Y10585000D02*
X20790000Y9350000D01*
X7250000Y17275000D02*
X7600000Y17275000D01*
X7287500Y17000000D02*
X7287500Y17037500D01*
X7287500Y15750000D02*
X7287500Y17000000D01*
X7050000Y17275000D02*
X7250000Y17275000D01*
D30*
%TO.N,Net-(H1-3B)*%
X19440000Y9430000D02*
X19440000Y10410000D01*
X19100000Y10750000D02*
X18600000Y10750000D01*
X18250000Y10400000D02*
X18250000Y9350000D01*
X19520000Y9350000D02*
X19440000Y9430000D01*
X19440000Y10410000D02*
X19100000Y10750000D01*
X18600000Y10750000D02*
X18250000Y10400000D01*
D33*
%TO.N,Net-(H1-4A)*%
X19850000Y21050000D02*
X19300000Y20500000D01*
X19300000Y20500000D02*
X18100000Y20500000D01*
X16980000Y10295000D02*
X16980000Y9350000D01*
X16312500Y10962500D02*
X16980000Y10295000D01*
%TO.N,PULSE-*%
X25525000Y14100000D02*
X26300000Y14100000D01*
X18150000Y13800000D02*
X18100000Y13850000D01*
X24975000Y13550000D02*
X25525000Y14100000D01*
X19975000Y13650000D02*
X19825000Y13800000D01*
X19825000Y13800000D02*
X18150000Y13800000D01*
D30*
%TO.N,OE*%
X8637500Y10850000D02*
X7287500Y9500000D01*
X24900000Y7850000D02*
X25600000Y7150000D01*
X23200000Y14000000D02*
X24900000Y12300000D01*
X27350000Y6950000D02*
X27350000Y6250000D01*
X26450000Y7150000D02*
X27150000Y7150000D01*
X5330000Y6880000D02*
X5800000Y7350000D01*
X11800000Y10700000D02*
X11650000Y10850000D01*
X23200000Y16700000D02*
X23200000Y14000000D01*
X27350000Y18400000D02*
X27350000Y16750000D01*
X5800000Y7350000D02*
X5800000Y8800000D01*
X27300000Y18350000D02*
X24850000Y18350000D01*
X27350000Y18400000D02*
X27300000Y18350000D01*
X24900000Y12300000D02*
X24900000Y7850000D01*
X5800000Y8800000D02*
X6500000Y9500000D01*
X6500000Y9500000D02*
X7287500Y9500000D01*
X25600000Y7150000D02*
X26450000Y7150000D01*
X27150000Y7150000D02*
X27350000Y6950000D01*
X24850000Y18350000D02*
X23200000Y16700000D01*
X4000000Y6880000D02*
X5330000Y6880000D01*
X11650000Y10850000D02*
X8637500Y10850000D01*
D33*
%TO.N,~{DAMP}*%
X19700000Y15950000D02*
X18300000Y15950000D01*
D30*
X25425000Y3600000D02*
X26300000Y3600000D01*
D33*
X18300000Y15950000D02*
X18100000Y15750000D01*
D30*
X24975000Y3150000D02*
X25425000Y3600000D01*
%TO.N,Net-(IC5-OUTB)*%
X42865000Y6135000D02*
X43750000Y5250000D01*
X43750000Y5250000D02*
X43750000Y2500000D01*
X30600000Y3600000D02*
X30000000Y3600000D01*
X41788000Y6135000D02*
X42865000Y6135000D01*
X43000000Y1750000D02*
X32450000Y1750000D01*
X32450000Y1750000D02*
X30600000Y3600000D01*
X43750000Y2500000D02*
X43000000Y1750000D01*
D34*
%TO.N,-HV*%
X48975000Y18000000D02*
X48975000Y16475000D01*
X48975000Y16475000D02*
X48400000Y15900000D01*
D35*
X44900000Y15900000D02*
X43155000Y14155000D01*
D34*
X48975000Y20250000D02*
X48975000Y18000000D01*
D31*
X42905000Y14155000D02*
X41788000Y14155000D01*
D36*
X43155000Y14155000D02*
X41788000Y14155000D01*
D34*
X48400000Y15900000D02*
X44900000Y15900000D01*
X49225000Y20000000D02*
X48975000Y20250000D01*
X52920000Y20000000D02*
X49225000Y20000000D01*
D36*
%TO.N,+HV*%
X39885000Y11615000D02*
X41788000Y11615000D01*
D34*
X43700000Y17500000D02*
X41725000Y17500000D01*
X41475000Y17750000D02*
X41475000Y20150000D01*
X39000000Y14750000D02*
X41475000Y17225000D01*
D31*
X41725000Y17500000D02*
X41475000Y17750000D01*
X41475000Y17225000D02*
X41475000Y20150000D01*
D34*
X42450000Y17500000D02*
X41725000Y17500000D01*
X39000000Y12500000D02*
X39000000Y14750000D01*
X39000000Y12500000D02*
X39885000Y11615000D01*
%TD*%
%TA.AperFunction,Conductor*%
%TO.N,GND*%
G36*
X7746288Y22231046D02*
G01*
X7827070Y22177070D01*
X7881046Y22096288D01*
X7900000Y22001000D01*
X7900000Y21132589D01*
X7881046Y21037301D01*
X7827070Y20956519D01*
X7746288Y20902543D01*
X7651000Y20883589D01*
X7563986Y20899288D01*
X7497484Y20924091D01*
X7497485Y20924091D01*
X7437873Y20930500D01*
X5642134Y20930500D01*
X5642130Y20930500D01*
X5642128Y20930499D01*
X5629314Y20929122D01*
X5582519Y20924092D01*
X5582514Y20924091D01*
X5560017Y20915699D01*
X5473002Y20900000D01*
X4322475Y20900000D01*
X4258028Y20908485D01*
X4250000Y20910636D01*
X4250000Y20900000D01*
X4050000Y20900000D01*
X4250000Y20891112D01*
X4250000Y20013012D01*
X4192993Y20045925D01*
X4065826Y20080000D01*
X3934174Y20080000D01*
X3807007Y20045925D01*
X3750000Y20013012D01*
X3750000Y20910636D01*
X3749998Y20910637D01*
X3536516Y20853434D01*
X3536505Y20853430D01*
X3322428Y20753604D01*
X3322420Y20753600D01*
X3128923Y20618111D01*
X2961889Y20451077D01*
X2826400Y20257580D01*
X2826396Y20257572D01*
X2726570Y20043495D01*
X2726566Y20043484D01*
X2669363Y19830002D01*
X2669364Y19830000D01*
X3566988Y19830000D01*
X3534075Y19772993D01*
X3500000Y19645826D01*
X3500000Y19514174D01*
X3534075Y19387007D01*
X3566988Y19330000D01*
X2669364Y19330000D01*
X2669363Y19329999D01*
X2726566Y19116517D01*
X2726566Y19116515D01*
X2826399Y18902424D01*
X2961889Y18708924D01*
X3128923Y18541890D01*
X3322423Y18406400D01*
X3536511Y18306569D01*
X3750000Y18249365D01*
X3750000Y19146988D01*
X3807007Y19114075D01*
X3934174Y19080000D01*
X4065826Y19080000D01*
X4192993Y19114075D01*
X4250000Y19146988D01*
X4250000Y18249365D01*
X4463488Y18306569D01*
X4545768Y18344936D01*
X4640139Y18368028D01*
X4736163Y18353249D01*
X4819222Y18302847D01*
X4876671Y18224497D01*
X4899763Y18130126D01*
X4900000Y18119265D01*
X4900000Y15961288D01*
X4881046Y15866000D01*
X4827070Y15785218D01*
X4746288Y15731242D01*
X4651000Y15712288D01*
X4555712Y15731242D01*
X4545770Y15735617D01*
X4463667Y15773902D01*
X4463664Y15773903D01*
X4235401Y15835065D01*
X4000005Y15855659D01*
X3999995Y15855659D01*
X3764598Y15835065D01*
X3536335Y15773903D01*
X3536333Y15773902D01*
X3322177Y15674039D01*
X3322169Y15674035D01*
X3128600Y15538496D01*
X2961504Y15371400D01*
X2825965Y15177831D01*
X2825961Y15177823D01*
X2726098Y14963667D01*
X2726097Y14963665D01*
X2722302Y14949500D01*
X2664937Y14735408D01*
X2664936Y14735405D01*
X2664936Y14735402D01*
X2657398Y14649245D01*
X2637311Y14580332D01*
X2649052Y14446142D01*
X2650000Y14424439D01*
X2650000Y12035550D01*
X2649052Y12013847D01*
X2644341Y11960004D01*
X2644341Y11959998D01*
X2649052Y11906156D01*
X2650000Y11884452D01*
X2650000Y9495550D01*
X2649052Y9473847D01*
X2644341Y9420004D01*
X2644341Y9419998D01*
X2649052Y9366156D01*
X2650000Y9344452D01*
X2650000Y6955550D01*
X2649052Y6933847D01*
X2644718Y6884306D01*
X2644341Y6880000D01*
X2647190Y6847431D01*
X2649052Y6826156D01*
X2650000Y6804452D01*
X2650000Y4600000D01*
X2650001Y4600000D01*
X2660001Y4590000D01*
X3566988Y4590000D01*
X3534075Y4532993D01*
X3500000Y4405826D01*
X3500000Y4274174D01*
X3534075Y4147007D01*
X3566988Y4090000D01*
X2669363Y4090000D01*
X2650000Y4064766D01*
X2650000Y2713867D01*
X2649643Y2700536D01*
X2649500Y2697869D01*
X2649500Y902130D01*
X2649643Y899481D01*
X2650000Y886151D01*
X2650000Y249000D01*
X2631046Y153712D01*
X2577070Y72930D01*
X2496288Y18954D01*
X2401000Y0D01*
X2002204Y0D01*
X1997835Y38D01*
X1873101Y2227D01*
X1842133Y4709D01*
X1802887Y10336D01*
X1593082Y40415D01*
X1558462Y47925D01*
X1319107Y117996D01*
X1285901Y130343D01*
X1058916Y233672D01*
X1027799Y250606D01*
X817775Y385101D01*
X789376Y406279D01*
X654095Y523023D01*
X600549Y569232D01*
X575458Y594212D01*
X411670Y782312D01*
X390371Y810609D01*
X254938Y1020043D01*
X237866Y1051085D01*
X215566Y1099500D01*
X133531Y1277609D01*
X121037Y1310759D01*
X115559Y1329167D01*
X49903Y1549803D01*
X42242Y1584383D01*
X5427Y1833299D01*
X2809Y1864206D01*
X59Y1988454D01*
X0Y1993781D01*
X0Y20247804D01*
X40Y20252243D01*
X609Y20284153D01*
X2270Y20377281D01*
X4764Y20408275D01*
X40676Y20658053D01*
X48227Y20692761D01*
X94387Y20849968D01*
X118692Y20932743D01*
X131102Y20966015D01*
X235004Y21193529D01*
X252026Y21224701D01*
X252028Y21224704D01*
X387251Y21435115D01*
X408528Y21463537D01*
X572322Y21652567D01*
X597436Y21677680D01*
X786463Y21841472D01*
X814885Y21862749D01*
X1025303Y21997977D01*
X1056471Y22014996D01*
X1283985Y22118898D01*
X1317257Y22131308D01*
X1557241Y22201774D01*
X1591947Y22209324D01*
X1841727Y22245237D01*
X1872719Y22247730D01*
X1997757Y22249961D01*
X2002197Y22250000D01*
X7651000Y22250000D01*
X7746288Y22231046D01*
G37*
%TD.AperFunction*%
%TA.AperFunction,Conductor*%
G36*
X14346288Y15580546D02*
G01*
X14427070Y15526570D01*
X14481046Y15445788D01*
X14500000Y15350500D01*
X14500000Y14550000D01*
X14470023Y14520023D01*
X14427070Y14455737D01*
X14389336Y14424770D01*
X14285327Y14355275D01*
X14101734Y14171682D01*
X14020953Y14117706D01*
X13967901Y14104230D01*
X13968118Y14103213D01*
X13770203Y14061146D01*
X13770189Y14061142D01*
X13597271Y13984153D01*
X13444126Y13872886D01*
X13317469Y13732220D01*
X13222822Y13568286D01*
X13164325Y13388256D01*
X13144540Y13200000D01*
X13164325Y13011745D01*
X13190102Y12932415D01*
X13222821Y12831716D01*
X13317467Y12667784D01*
X13317469Y12667781D01*
X13437791Y12534151D01*
X13444129Y12527112D01*
X13522282Y12470331D01*
X13597271Y12415848D01*
X13770189Y12338859D01*
X13770192Y12338858D01*
X13770197Y12338856D01*
X13955354Y12299500D01*
X14144645Y12299500D01*
X14144646Y12299500D01*
X14329803Y12338856D01*
X14354887Y12350024D01*
X14502728Y12415848D01*
X14502728Y12415849D01*
X14502730Y12415849D01*
X14655871Y12527112D01*
X14782533Y12667784D01*
X14877179Y12831716D01*
X14890685Y12873284D01*
X14938153Y12958046D01*
X15014449Y13018195D01*
X15107956Y13044568D01*
X15147023Y13044569D01*
X15245556Y13036818D01*
X15312819Y13049500D01*
X16115693Y13049500D01*
X16115694Y13049500D01*
X16115694Y13049501D01*
X16120579Y13049692D01*
X16120584Y13049558D01*
X16131829Y13050000D01*
X17568171Y13050000D01*
X17579415Y13049558D01*
X17579421Y13049692D01*
X17584305Y13049501D01*
X17584306Y13049500D01*
X17584307Y13049500D01*
X18615693Y13049500D01*
X18615694Y13049500D01*
X18615694Y13049501D01*
X18620579Y13049692D01*
X18620584Y13049558D01*
X18631829Y13050000D01*
X19192638Y13050000D01*
X19287926Y13031046D01*
X19357976Y12984241D01*
X19359425Y12985849D01*
X19369126Y12977115D01*
X19369129Y12977112D01*
X19438849Y12926458D01*
X19522271Y12865848D01*
X19695189Y12788859D01*
X19695192Y12788858D01*
X19695197Y12788856D01*
X19880354Y12749500D01*
X20001001Y12749500D01*
X20096289Y12730546D01*
X20177071Y12676570D01*
X20231047Y12595788D01*
X20250001Y12500500D01*
X20250001Y12350024D01*
X20260494Y12247301D01*
X20260495Y12247298D01*
X20272277Y12211743D01*
X20284258Y12115330D01*
X20258431Y12021670D01*
X20198728Y11945024D01*
X20114238Y11897060D01*
X20087690Y11889863D01*
X20070205Y11886147D01*
X20070189Y11886142D01*
X19897271Y11809153D01*
X19744126Y11697886D01*
X19617469Y11557220D01*
X19598578Y11524499D01*
X19534519Y11451455D01*
X19447383Y11408484D01*
X19382938Y11400000D01*
X19181378Y11400000D01*
X19171194Y11400500D01*
X19164069Y11400500D01*
X18535931Y11400500D01*
X18528806Y11400500D01*
X18518622Y11400000D01*
X17240720Y11400000D01*
X17145432Y11418954D01*
X17064650Y11472930D01*
X17054082Y11485304D01*
X17053766Y11485018D01*
X16918373Y11635386D01*
X16918372Y11635387D01*
X16918371Y11635388D01*
X16825904Y11702569D01*
X16765228Y11746653D01*
X16592310Y11823642D01*
X16592296Y11823646D01*
X16407146Y11863000D01*
X16217854Y11863000D01*
X16032703Y11823646D01*
X16032693Y11823643D01*
X15980069Y11800213D01*
X15885310Y11778772D01*
X15789558Y11795226D01*
X15732435Y11826242D01*
X15726490Y11830561D01*
X15702012Y11848346D01*
X15652728Y11884153D01*
X15479810Y11961142D01*
X15479796Y11961146D01*
X15294646Y12000500D01*
X15105354Y12000500D01*
X14920203Y11961146D01*
X14920189Y11961142D01*
X14747271Y11884153D01*
X14594126Y11772886D01*
X14467469Y11632220D01*
X14372822Y11468286D01*
X14314325Y11288256D01*
X14294540Y11100000D01*
X14294540Y11099999D01*
X14305845Y10992433D01*
X14296955Y10895686D01*
X14251717Y10809705D01*
X14177020Y10747581D01*
X14132289Y10728682D01*
X13985729Y10683012D01*
X13985728Y10683011D01*
X13845348Y10598149D01*
X13729351Y10482152D01*
X13644489Y10341772D01*
X13644487Y10341768D01*
X13595684Y10185158D01*
X13595684Y10185155D01*
X13589501Y10117111D01*
X13589500Y10117087D01*
X13589500Y8582914D01*
X13589501Y8582890D01*
X13595684Y8514846D01*
X13595684Y8514843D01*
X13642114Y8365849D01*
X13644488Y8358230D01*
X13653590Y8343173D01*
X13686665Y8251825D01*
X13689500Y8214358D01*
X13689500Y5604009D01*
X13670546Y5508721D01*
X13616570Y5427939D01*
X12957885Y4769254D01*
X12877103Y4715278D01*
X12781815Y4696324D01*
X12686527Y4715278D01*
X12671977Y4725000D01*
X11500001Y4725000D01*
X11500000Y4724999D01*
X11500000Y3414509D01*
X11481046Y3319221D01*
X11427070Y3238439D01*
X11427068Y3238438D01*
X11362058Y3173429D01*
X11281276Y3119453D01*
X11185990Y3100500D01*
X10549993Y3100500D01*
X10447199Y3089999D01*
X10280667Y3034815D01*
X10131346Y2942714D01*
X10007287Y2818655D01*
X9942491Y2713604D01*
X9876335Y2642454D01*
X9787986Y2602036D01*
X9690895Y2598504D01*
X9629285Y2616851D01*
X9529803Y2661144D01*
X9529798Y2661145D01*
X9529796Y2661146D01*
X9344646Y2700500D01*
X9155354Y2700500D01*
X8970203Y2661146D01*
X8970189Y2661142D01*
X8797271Y2584153D01*
X8644126Y2472886D01*
X8517472Y2332223D01*
X8517469Y2332220D01*
X8422822Y2168286D01*
X8364325Y1988256D01*
X8344540Y1800000D01*
X8364325Y1611745D01*
X8384452Y1549803D01*
X8422821Y1431716D01*
X8505301Y1288856D01*
X8517469Y1267781D01*
X8644126Y1127115D01*
X8644129Y1127112D01*
X8727969Y1066199D01*
X8797271Y1015848D01*
X8970189Y938859D01*
X8970192Y938858D01*
X8970197Y938856D01*
X9155354Y899500D01*
X9344643Y899500D01*
X9344646Y899500D01*
X9451545Y922223D01*
X9548687Y923494D01*
X9607574Y900000D01*
X14079367Y900000D01*
X14128964Y892451D01*
X14129423Y894755D01*
X14142339Y892187D01*
X14142343Y892185D01*
X14210406Y886000D01*
X14210414Y886000D01*
X14669586Y886000D01*
X14669594Y886000D01*
X14737657Y892185D01*
X14737662Y892187D01*
X14750577Y894755D01*
X14751035Y892451D01*
X14800633Y900000D01*
X15349367Y900000D01*
X15398964Y892451D01*
X15399423Y894755D01*
X15412339Y892187D01*
X15412343Y892185D01*
X15480406Y886000D01*
X15480414Y886000D01*
X15939586Y886000D01*
X15939594Y886000D01*
X16007657Y892185D01*
X16007662Y892187D01*
X16020577Y894755D01*
X16021035Y892451D01*
X16070633Y900000D01*
X16619367Y900000D01*
X16668964Y892451D01*
X16669423Y894755D01*
X16682339Y892187D01*
X16682343Y892185D01*
X16750406Y886000D01*
X16750414Y886000D01*
X17209586Y886000D01*
X17209594Y886000D01*
X17277657Y892185D01*
X17277662Y892187D01*
X17290577Y894755D01*
X17291035Y892451D01*
X17340633Y900000D01*
X17889367Y900000D01*
X17938964Y892451D01*
X17939423Y894755D01*
X17952339Y892187D01*
X17952343Y892185D01*
X18020406Y886000D01*
X18020414Y886000D01*
X18479586Y886000D01*
X18479594Y886000D01*
X18547657Y892185D01*
X18547662Y892187D01*
X18560577Y894755D01*
X18561035Y892451D01*
X18610633Y900000D01*
X19159367Y900000D01*
X19208964Y892451D01*
X19209423Y894755D01*
X19222339Y892187D01*
X19222343Y892185D01*
X19290406Y886000D01*
X19290414Y886000D01*
X19749586Y886000D01*
X19749594Y886000D01*
X19817657Y892185D01*
X19817662Y892187D01*
X19830577Y894755D01*
X19831035Y892451D01*
X19880633Y900000D01*
X20429367Y900000D01*
X20478964Y892451D01*
X20479423Y894755D01*
X20492339Y892187D01*
X20492343Y892185D01*
X20560406Y886000D01*
X20560414Y886000D01*
X21019586Y886000D01*
X21019594Y886000D01*
X21087657Y892185D01*
X21087662Y892187D01*
X21100577Y894755D01*
X21101035Y892451D01*
X21150633Y900000D01*
X21701112Y900000D01*
X21749692Y895215D01*
X21762439Y892680D01*
X21809999Y888358D01*
X21810000Y888359D01*
X21810000Y2023999D01*
X22310000Y2023999D01*
X22310000Y888360D01*
X22357563Y892680D01*
X22514063Y941447D01*
X22654341Y1026248D01*
X22770252Y1142159D01*
X22855054Y1282438D01*
X22903820Y1438937D01*
X22903820Y1438938D01*
X22909999Y1506928D01*
X22910000Y1506949D01*
X22910000Y2023999D01*
X22909999Y2024000D01*
X22310001Y2024000D01*
X22310000Y2023999D01*
X21810000Y2023999D01*
X21810000Y2275000D01*
X21828954Y2370288D01*
X21882930Y2451070D01*
X21963712Y2505046D01*
X22059000Y2524000D01*
X22909998Y2524000D01*
X22909999Y2524001D01*
X22909999Y3041053D01*
X22903818Y3109070D01*
X22855053Y3265564D01*
X22770252Y3405842D01*
X22654340Y3521754D01*
X22620180Y3542405D01*
X22548441Y3607923D01*
X22507235Y3695907D01*
X22500000Y3755493D01*
X22500000Y4085002D01*
X22501364Y4111030D01*
X22502074Y4117788D01*
X22505460Y4150000D01*
X22485674Y4338256D01*
X22427179Y4518284D01*
X22332533Y4682216D01*
X22332531Y4682219D01*
X22332530Y4682220D01*
X22205873Y4822886D01*
X22205872Y4822887D01*
X22205871Y4822888D01*
X22100423Y4899500D01*
X22052728Y4934153D01*
X21879810Y5011142D01*
X21879796Y5011146D01*
X21694646Y5050500D01*
X21505354Y5050500D01*
X21497083Y5050500D01*
X21487547Y5050000D01*
X19962453Y5050000D01*
X19952917Y5050500D01*
X19944646Y5050500D01*
X19755354Y5050500D01*
X19747083Y5050500D01*
X19737547Y5050000D01*
X18964989Y5050000D01*
X18869701Y5068954D01*
X18788919Y5122930D01*
X18757955Y5160661D01*
X18755279Y5164666D01*
X18755278Y5164667D01*
X18755276Y5164670D01*
X16922930Y6997016D01*
X16868954Y7077798D01*
X16850000Y7173086D01*
X16850000Y7701000D01*
X16868954Y7796288D01*
X16922930Y7877070D01*
X17003712Y7931046D01*
X17099000Y7950000D01*
X22321392Y7950000D01*
X22337697Y7960895D01*
X22358899Y7968573D01*
X22514270Y8016988D01*
X22654653Y8101852D01*
X22770648Y8217847D01*
X22855512Y8358230D01*
X22904315Y8514843D01*
X22910500Y8582906D01*
X22910500Y10117094D01*
X22904315Y10185157D01*
X22855512Y10341770D01*
X22770648Y10482153D01*
X22770645Y10482156D01*
X22762531Y10492512D01*
X22718683Y10579209D01*
X22710733Y10621691D01*
X22710500Y10624054D01*
X22710500Y10624069D01*
X22685501Y10749744D01*
X22682605Y10756734D01*
X22663651Y10852021D01*
X22665015Y10878050D01*
X22666088Y10888256D01*
X22680460Y11025000D01*
X22660674Y11213256D01*
X22602179Y11393284D01*
X22590317Y11413830D01*
X22559088Y11505825D01*
X22565442Y11602772D01*
X22608412Y11689908D01*
X22675241Y11750257D01*
X22768340Y11807681D01*
X22768345Y11807685D01*
X22892315Y11931655D01*
X22892318Y11931659D01*
X22984358Y12080879D01*
X22984359Y12080880D01*
X23039504Y12247299D01*
X23039505Y12247306D01*
X23049999Y12350019D01*
X23050000Y12350029D01*
X23050000Y12474999D01*
X23049999Y12475000D01*
X21649000Y12475000D01*
X21553712Y12493954D01*
X21472930Y12547930D01*
X21418954Y12628712D01*
X21400000Y12724000D01*
X21400000Y13306819D01*
X21900000Y13102273D01*
X21900000Y12975001D01*
X21900001Y12975000D01*
X23074105Y12975000D01*
X23082238Y12980434D01*
X23177526Y12999388D01*
X23272814Y12980434D01*
X23353596Y12926458D01*
X24176570Y12103484D01*
X24230546Y12022702D01*
X24249500Y11927414D01*
X24249500Y7923291D01*
X24235839Y7854614D01*
X24245216Y7807473D01*
X24250000Y7758896D01*
X24250000Y6561984D01*
X24231046Y6466696D01*
X24216641Y6437485D01*
X24154006Y6328997D01*
X24147821Y6318284D01*
X24138116Y6288415D01*
X24089325Y6138256D01*
X24069540Y5950000D01*
X24089325Y5761745D01*
X24096520Y5739602D01*
X24147821Y5581716D01*
X24242467Y5417784D01*
X24242469Y5417781D01*
X24347268Y5301391D01*
X24369129Y5277112D01*
X24455122Y5214635D01*
X24522271Y5165848D01*
X24695189Y5088859D01*
X24695192Y5088858D01*
X24695197Y5088856D01*
X24880354Y5049500D01*
X24893118Y5046787D01*
X24892718Y5044909D01*
X24969473Y5021078D01*
X25026736Y4978319D01*
X25189818Y4815237D01*
X25243794Y4734455D01*
X25262748Y4639167D01*
X25260618Y4606667D01*
X25250000Y4526013D01*
X25250000Y4396869D01*
X25231046Y4301581D01*
X25177070Y4220799D01*
X25126849Y4183552D01*
X25127044Y4183261D01*
X25121136Y4179314D01*
X25118389Y4177276D01*
X25116876Y4176468D01*
X25000160Y4098481D01*
X24999457Y4099532D01*
X24924868Y4059671D01*
X24893110Y4053247D01*
X24893118Y4053213D01*
X24695203Y4011146D01*
X24695189Y4011142D01*
X24522271Y3934153D01*
X24369126Y3822886D01*
X24242469Y3682220D01*
X24172321Y3560720D01*
X24147821Y3518284D01*
X24141003Y3497301D01*
X24089325Y3338256D01*
X24069540Y3150000D01*
X24089325Y2961745D01*
X24101427Y2924500D01*
X24147821Y2781716D01*
X24224156Y2649500D01*
X24242469Y2617781D01*
X24328099Y2522680D01*
X24369129Y2477112D01*
X24448489Y2419454D01*
X24522271Y2365848D01*
X24695189Y2288859D01*
X24695192Y2288858D01*
X24695197Y2288856D01*
X24880354Y2249500D01*
X24967992Y2249500D01*
X25020502Y2239056D01*
X25046397Y2244559D01*
X25098165Y2250000D01*
X26430170Y2250000D01*
X26525458Y2231046D01*
X26606240Y2177070D01*
X26660216Y2096288D01*
X26677040Y2033499D01*
X26690120Y1934134D01*
X26749320Y1791214D01*
X26843488Y1668493D01*
X26843492Y1668489D01*
X26966213Y1574321D01*
X27109132Y1515121D01*
X27170142Y1507089D01*
X27191026Y1500000D01*
X31676914Y1500000D01*
X31772202Y1481046D01*
X31852984Y1427070D01*
X32035331Y1244723D01*
X32058397Y1229311D01*
X32141872Y1173535D01*
X32181334Y1157190D01*
X32260256Y1124499D01*
X32385929Y1099501D01*
X32385930Y1099500D01*
X32385931Y1099500D01*
X43064070Y1099500D01*
X43064070Y1099501D01*
X43189744Y1124499D01*
X43308127Y1173535D01*
X43414669Y1244723D01*
X44255276Y2085331D01*
X44326465Y2191873D01*
X44375501Y2310256D01*
X44379869Y2332216D01*
X44400500Y2435931D01*
X44400500Y5314069D01*
X44375501Y5439744D01*
X44334878Y5537814D01*
X44326466Y5558125D01*
X44326463Y5558130D01*
X44316170Y5573535D01*
X44255278Y5664668D01*
X43279669Y6640277D01*
X43173127Y6711465D01*
X43155873Y6718612D01*
X43075092Y6772589D01*
X43021117Y6853371D01*
X43002164Y6948660D01*
X43013438Y7022734D01*
X43044434Y7122208D01*
X43044434Y7122210D01*
X43047414Y7155000D01*
X40528586Y7155000D01*
X40531565Y7122210D01*
X40531566Y7122205D01*
X40579426Y6968610D01*
X40579429Y6968605D01*
X40621324Y6899302D01*
X40654400Y6807950D01*
X40650000Y6710895D01*
X40621325Y6641668D01*
X40578969Y6571604D01*
X40578967Y6571599D01*
X40531070Y6417888D01*
X40531069Y6417881D01*
X40525000Y6351105D01*
X40525000Y5918906D01*
X40531069Y5852115D01*
X40578968Y5698400D01*
X40578970Y5698395D01*
X40621324Y5628334D01*
X40654400Y5536983D01*
X40650000Y5439928D01*
X40621325Y5370701D01*
X40579429Y5301398D01*
X40579426Y5301391D01*
X40531566Y5147796D01*
X40531565Y5147791D01*
X40528585Y5115001D01*
X40528586Y5115000D01*
X41789000Y5115000D01*
X41884288Y5096046D01*
X41965070Y5042070D01*
X42019046Y4961288D01*
X42038000Y4866000D01*
X42038000Y4864000D01*
X42019046Y4768712D01*
X41965070Y4687930D01*
X41884288Y4633954D01*
X41789000Y4615000D01*
X40476176Y4615000D01*
X40416351Y4600255D01*
X40405075Y4600000D01*
X39023086Y4600000D01*
X38927798Y4618954D01*
X38847016Y4672930D01*
X37514667Y6005279D01*
X37403623Y6079475D01*
X37334923Y6148174D01*
X37297743Y6237933D01*
X37294247Y6261208D01*
X37289999Y6302797D01*
X37289754Y6303535D01*
X37251862Y6417887D01*
X37234814Y6469334D01*
X37142712Y6618656D01*
X37018656Y6742712D01*
X37016321Y6744152D01*
X36942463Y6789708D01*
X36869334Y6834814D01*
X36869332Y6834815D01*
X36869330Y6834816D01*
X36869332Y6834816D01*
X36702802Y6889998D01*
X36702798Y6889999D01*
X36702797Y6889999D01*
X36600009Y6900500D01*
X36600005Y6900500D01*
X35849984Y6900500D01*
X35846530Y6900323D01*
X35833860Y6900000D01*
X34849000Y6900000D01*
X34753712Y6918954D01*
X34672930Y6972930D01*
X34618954Y7053712D01*
X34600000Y7149000D01*
X34600000Y7614289D01*
X34618954Y7709577D01*
X34672930Y7790359D01*
X34718276Y7826214D01*
X34768656Y7857288D01*
X34892712Y7981344D01*
X34984814Y8130666D01*
X34993562Y8157067D01*
X35041526Y8241556D01*
X35118172Y8301260D01*
X35211831Y8327088D01*
X35308244Y8315108D01*
X35331187Y8306225D01*
X35370197Y8288856D01*
X35555354Y8249500D01*
X35744645Y8249500D01*
X35744646Y8249500D01*
X35929803Y8288856D01*
X35941411Y8294024D01*
X36102728Y8365848D01*
X36102728Y8365849D01*
X36102730Y8365849D01*
X36255871Y8477112D01*
X36382533Y8617784D01*
X36477179Y8781716D01*
X36535674Y8961744D01*
X36555460Y9150000D01*
X36535674Y9338256D01*
X36477179Y9518284D01*
X36382533Y9682216D01*
X36382531Y9682219D01*
X36382530Y9682220D01*
X36255873Y9822886D01*
X36255872Y9822887D01*
X36255871Y9822888D01*
X36149735Y9900000D01*
X36102728Y9934153D01*
X35929810Y10011142D01*
X35929796Y10011146D01*
X35744646Y10050500D01*
X35555354Y10050500D01*
X35547083Y10050500D01*
X35537547Y10050000D01*
X35197392Y10050000D01*
X35102104Y10068954D01*
X35021322Y10122930D01*
X34985463Y10168282D01*
X34909523Y10291401D01*
X34892712Y10318656D01*
X34768656Y10442712D01*
X34766026Y10444334D01*
X34704713Y10482152D01*
X34619334Y10534814D01*
X34619332Y10534815D01*
X34619330Y10534816D01*
X34619332Y10534816D01*
X34452802Y10589998D01*
X34452798Y10589999D01*
X34452797Y10589999D01*
X34350009Y10600500D01*
X34350005Y10600500D01*
X33699984Y10600500D01*
X33696530Y10600323D01*
X33683860Y10600000D01*
X31216164Y10600000D01*
X31203497Y10600322D01*
X31200015Y10600500D01*
X31200009Y10600500D01*
X31200002Y10600500D01*
X30549993Y10600500D01*
X30447199Y10589999D01*
X30364636Y10562639D01*
X30286313Y10550000D01*
X29566164Y10550000D01*
X29553497Y10550322D01*
X29550015Y10550500D01*
X29550009Y10550500D01*
X29550002Y10550500D01*
X28799993Y10550500D01*
X28697199Y10539999D01*
X28530667Y10484815D01*
X28381346Y10392714D01*
X28257286Y10268654D01*
X28165184Y10119332D01*
X28110002Y9952803D01*
X28110001Y9952798D01*
X28110001Y9952797D01*
X28099500Y9850009D01*
X28099500Y9184592D01*
X28099501Y9149000D01*
X28080547Y9053712D01*
X28026571Y8972931D01*
X27945789Y8918954D01*
X27850501Y8900000D01*
X26224000Y8900000D01*
X26128712Y8918954D01*
X26047930Y8972930D01*
X25993954Y9053712D01*
X25975000Y9149000D01*
X25975000Y10549999D01*
X26475000Y10549999D01*
X26475000Y9400001D01*
X26475001Y9400000D01*
X27299998Y9400000D01*
X27299999Y9400001D01*
X27299999Y9849968D01*
X27299998Y9849985D01*
X27289505Y9952700D01*
X27289504Y9952703D01*
X27234359Y10119120D01*
X27234358Y10119122D01*
X27142318Y10268342D01*
X27142315Y10268346D01*
X27018345Y10392316D01*
X27018341Y10392319D01*
X26869121Y10484359D01*
X26869120Y10484360D01*
X26702701Y10539505D01*
X26702694Y10539506D01*
X26599981Y10550000D01*
X26475001Y10550000D01*
X26475000Y10549999D01*
X25975000Y10549999D01*
X25975000Y10550001D01*
X25850021Y10550000D01*
X25824803Y10547423D01*
X25728082Y10556596D01*
X25642234Y10602084D01*
X25580328Y10676962D01*
X25551789Y10769831D01*
X25550500Y10795134D01*
X25550500Y11751000D01*
X25569454Y11846288D01*
X25623430Y11927070D01*
X25704212Y11981046D01*
X25799500Y12000000D01*
X32172544Y12000000D01*
X32267832Y11981046D01*
X32303260Y11962930D01*
X32380666Y11915186D01*
X32380669Y11915185D01*
X32380667Y11915185D01*
X32511143Y11871950D01*
X32547203Y11860001D01*
X32649991Y11849500D01*
X33400008Y11849501D01*
X33502797Y11860001D01*
X33669334Y11915186D01*
X33818656Y12007288D01*
X33838440Y12027073D01*
X33919219Y12081046D01*
X34014507Y12100000D01*
X34985493Y12100000D01*
X35080781Y12081046D01*
X35161559Y12027073D01*
X35181344Y12007288D01*
X35330666Y11915186D01*
X35330669Y11915185D01*
X35330667Y11915185D01*
X35461143Y11871950D01*
X35497203Y11860001D01*
X35599991Y11849500D01*
X35600469Y11849501D01*
X35600630Y11849468D01*
X35606321Y11849178D01*
X35606278Y11848346D01*
X35695755Y11830561D01*
X35776544Y11776596D01*
X35830532Y11695823D01*
X35849500Y11600537D01*
X35849500Y11435929D01*
X35869511Y11335331D01*
X35869512Y11335328D01*
X35874498Y11310257D01*
X35923535Y11191872D01*
X35968552Y11124499D01*
X35994723Y11085331D01*
X39085331Y7994723D01*
X39175985Y7934151D01*
X39191873Y7923535D01*
X39191875Y7923535D01*
X39191877Y7923533D01*
X39226549Y7909172D01*
X39310256Y7874499D01*
X39435929Y7849501D01*
X39435930Y7849500D01*
X40273608Y7849500D01*
X40368896Y7830546D01*
X40449678Y7776570D01*
X40503654Y7695788D01*
X40507083Y7678545D01*
X40528586Y7655000D01*
X43047414Y7655000D01*
X43047414Y7655001D01*
X43044434Y7687791D01*
X43044433Y7687796D01*
X42996573Y7841391D01*
X42994102Y7846881D01*
X42972277Y7941553D01*
X42988342Y8037370D01*
X43039852Y8119746D01*
X43045061Y8125116D01*
X44005277Y9085331D01*
X44076466Y9191874D01*
X44115425Y9285931D01*
X44125501Y9310256D01*
X44150500Y9435931D01*
X44150500Y12189069D01*
X44150500Y12196198D01*
X44150000Y12206379D01*
X44150000Y13136965D01*
X44168954Y13232253D01*
X44222930Y13313035D01*
X44986965Y14077070D01*
X45067747Y14131046D01*
X45163035Y14150000D01*
X45701000Y14150000D01*
X45796288Y14131046D01*
X45877070Y14077070D01*
X45931046Y13996288D01*
X45950000Y13901000D01*
X45950000Y13123385D01*
X45949244Y13106730D01*
X45949256Y13106729D01*
X45949000Y13101083D01*
X45949000Y12668899D01*
X45949256Y12663274D01*
X45949245Y12663274D01*
X45950000Y12646625D01*
X45950000Y11853385D01*
X45949244Y11836730D01*
X45949256Y11836729D01*
X45949000Y11831083D01*
X45949000Y11398899D01*
X45949256Y11393274D01*
X45949245Y11393274D01*
X45950000Y11376625D01*
X45950000Y10583385D01*
X45949244Y10566730D01*
X45949256Y10566729D01*
X45949000Y10561083D01*
X45949000Y10128906D01*
X45955069Y10062115D01*
X46000648Y9915848D01*
X46002969Y9908398D01*
X46086264Y9770612D01*
X46200112Y9656764D01*
X46337898Y9573469D01*
X46491613Y9525570D01*
X46558409Y9519500D01*
X47865590Y9519501D01*
X47932387Y9525570D01*
X48086102Y9573469D01*
X48223888Y9656764D01*
X48223889Y9656766D01*
X48226906Y9658589D01*
X48318257Y9691665D01*
X48355724Y9694500D01*
X48685931Y9694500D01*
X48935931Y9694500D01*
X49064069Y9694500D01*
X49185931Y9694500D01*
X49651000Y9694500D01*
X49746288Y9675546D01*
X49827070Y9621570D01*
X49881046Y9540788D01*
X49900000Y9445500D01*
X49900000Y8304500D01*
X49881046Y8209212D01*
X49827070Y8128430D01*
X49746288Y8074454D01*
X49651000Y8055500D01*
X48355724Y8055500D01*
X48260436Y8074454D01*
X48226906Y8091411D01*
X48223889Y8093235D01*
X48223888Y8093236D01*
X48142894Y8142199D01*
X48086101Y8176532D01*
X48086098Y8176533D01*
X47932387Y8224430D01*
X47932380Y8224431D01*
X47865594Y8230500D01*
X46558420Y8230500D01*
X46558390Y8230498D01*
X46491614Y8224431D01*
X46337899Y8176532D01*
X46337898Y8176531D01*
X46200113Y8093237D01*
X46086263Y7979387D01*
X46002969Y7841602D01*
X46002967Y7841599D01*
X45955070Y7687888D01*
X45955069Y7687881D01*
X45949000Y7621105D01*
X45949000Y7188899D01*
X45949256Y7183274D01*
X45949245Y7183274D01*
X45950000Y7166625D01*
X45950000Y6373385D01*
X45949244Y6356730D01*
X45949256Y6356729D01*
X45949000Y6351083D01*
X45949000Y5918899D01*
X45949256Y5913274D01*
X45949245Y5913274D01*
X45950000Y5896625D01*
X45950000Y5103385D01*
X45949244Y5086730D01*
X45949256Y5086729D01*
X45949000Y5081083D01*
X45949000Y4648899D01*
X45949256Y4643274D01*
X45949245Y4643274D01*
X45950000Y4626625D01*
X45950000Y3833385D01*
X45949244Y3816730D01*
X45949256Y3816729D01*
X45949000Y3811083D01*
X45949000Y3378906D01*
X45955069Y3312115D01*
X45998668Y3172202D01*
X46002969Y3158398D01*
X46086264Y3020612D01*
X46200112Y2906764D01*
X46337898Y2823469D01*
X46491613Y2775570D01*
X46558409Y2769500D01*
X47865590Y2769501D01*
X47932387Y2775570D01*
X48086102Y2823469D01*
X48223888Y2906764D01*
X48223889Y2906766D01*
X48226906Y2908589D01*
X48318257Y2941665D01*
X48355724Y2944500D01*
X48659070Y2944500D01*
X48659070Y2944501D01*
X48784744Y2969499D01*
X48903127Y3018535D01*
X48910610Y3023535D01*
X49009669Y3089723D01*
X49505276Y3585330D01*
X49576465Y3691873D01*
X49625501Y3810256D01*
X49633506Y3850500D01*
X49650500Y3935931D01*
X49650500Y4009233D01*
X49669454Y4104521D01*
X49723430Y4185303D01*
X49804212Y4239279D01*
X49804213Y4239279D01*
X49831303Y4250500D01*
X49923127Y4288535D01*
X49973316Y4322070D01*
X50029669Y4359723D01*
X51096516Y5426570D01*
X51177298Y5480546D01*
X51272586Y5499500D01*
X52787789Y5499500D01*
X52883077Y5480546D01*
X52914536Y5464827D01*
X53027102Y5398256D01*
X53184931Y5352402D01*
X53221806Y5349500D01*
X53221808Y5349500D01*
X54528192Y5349500D01*
X54528194Y5349500D01*
X54565069Y5352402D01*
X54722898Y5398256D01*
X54864365Y5481919D01*
X54980581Y5598135D01*
X55064244Y5739602D01*
X55110098Y5897431D01*
X55113000Y5934306D01*
X55113000Y6326881D01*
X55131954Y6422169D01*
X55185930Y6502951D01*
X55223663Y6533917D01*
X55280061Y6571599D01*
X55314664Y6594719D01*
X55314665Y6594721D01*
X55314669Y6594723D01*
X55755277Y7035331D01*
X55826465Y7141873D01*
X55830038Y7150499D01*
X55875501Y7260256D01*
X55900500Y7385931D01*
X55900500Y7950500D01*
X55919454Y8045788D01*
X55973430Y8126570D01*
X56054212Y8180546D01*
X56149500Y8199500D01*
X56364070Y8199500D01*
X56364070Y8199501D01*
X56489744Y8224499D01*
X56608127Y8273535D01*
X56638794Y8294026D01*
X56714669Y8344723D01*
X57150933Y8780988D01*
X57231712Y8834961D01*
X57327000Y8853915D01*
X57422288Y8834961D01*
X57503070Y8780985D01*
X57557046Y8700203D01*
X57576000Y8604915D01*
X57576000Y4552168D01*
X57582401Y4492630D01*
X57582403Y4492620D01*
X57604858Y4432415D01*
X60349929Y7177484D01*
X60430711Y7231460D01*
X60525999Y7250414D01*
X60621287Y7231460D01*
X60702069Y7177484D01*
X60703483Y7176070D01*
X60757459Y7095288D01*
X60776413Y7000000D01*
X60757459Y6904712D01*
X60703483Y6823930D01*
X57984272Y4104720D01*
X58028170Y4100001D01*
X58028172Y4100000D01*
X63000999Y4100000D01*
X63096287Y4081046D01*
X63177069Y4027070D01*
X63231045Y3946288D01*
X63249999Y3851000D01*
X63249999Y2002196D01*
X63249959Y1997756D01*
X63247729Y1872714D01*
X63245234Y1841718D01*
X63209322Y1591949D01*
X63201773Y1557243D01*
X63131309Y1317264D01*
X63118893Y1283976D01*
X63014995Y1056474D01*
X62997969Y1025294D01*
X62862752Y814891D01*
X62841466Y786456D01*
X62677680Y597438D01*
X62652560Y572318D01*
X62463543Y408533D01*
X62435101Y387242D01*
X62224703Y252028D01*
X62193522Y235002D01*
X61966024Y131107D01*
X61932737Y118691D01*
X61692762Y48228D01*
X61658046Y40676D01*
X61408273Y4765D01*
X61377280Y2271D01*
X61257687Y138D01*
X61252240Y40D01*
X61247803Y0D01*
X57549000Y0D01*
X57453712Y18954D01*
X57372930Y72930D01*
X57318954Y153712D01*
X57300000Y249000D01*
X57300000Y1778206D01*
X57300634Y1795969D01*
X57303906Y1841718D01*
X57315227Y2000000D01*
X57296343Y2264026D01*
X57240077Y2522678D01*
X57147574Y2770689D01*
X57020716Y3003011D01*
X56862087Y3214915D01*
X56674915Y3402087D01*
X56463011Y3560716D01*
X56378230Y3607010D01*
X56230691Y3687573D01*
X56230687Y3687575D01*
X56103722Y3734930D01*
X55982678Y3780077D01*
X55780293Y3824103D01*
X55724027Y3836343D01*
X55460000Y3855227D01*
X55195972Y3836343D01*
X55110659Y3817784D01*
X54937322Y3780077D01*
X54871410Y3755493D01*
X54689312Y3687575D01*
X54689308Y3687573D01*
X54456995Y3560720D01*
X54456988Y3560716D01*
X54245090Y3402092D01*
X54245086Y3402088D01*
X54216130Y3373133D01*
X54135347Y3319159D01*
X54040058Y3300208D01*
X53953051Y3315907D01*
X53877484Y3344091D01*
X53877485Y3344091D01*
X53817873Y3350500D01*
X52022134Y3350500D01*
X52022130Y3350500D01*
X52022128Y3350499D01*
X52009314Y3349122D01*
X51962519Y3344092D01*
X51962515Y3344091D01*
X51827670Y3293797D01*
X51712455Y3207547D01*
X51712453Y3207545D01*
X51626204Y3092331D01*
X51575908Y2957482D01*
X51569500Y2897877D01*
X51569500Y1102135D01*
X51569500Y1102132D01*
X51569501Y1102128D01*
X51569784Y1099500D01*
X51575908Y1042520D01*
X51575909Y1042515D01*
X51584301Y1020017D01*
X51600000Y933002D01*
X51600000Y249000D01*
X51581046Y153712D01*
X51527070Y72930D01*
X51446288Y18954D01*
X51351000Y0D01*
X5599000Y0D01*
X5503712Y18954D01*
X5422930Y72930D01*
X5368954Y153712D01*
X5350000Y249000D01*
X5350000Y886131D01*
X5350357Y899460D01*
X5350497Y902108D01*
X5350500Y902127D01*
X5350499Y2697872D01*
X5350498Y2697876D01*
X5350357Y2700516D01*
X5350000Y2713847D01*
X5350000Y4064764D01*
X5330636Y4090000D01*
X4433012Y4090000D01*
X4465925Y4147007D01*
X4500000Y4274174D01*
X4500000Y4405826D01*
X4465925Y4532993D01*
X4433012Y4590000D01*
X5339999Y4590000D01*
X5349999Y4600000D01*
X5350000Y4600000D01*
X5350000Y4724999D01*
X9850001Y4724999D01*
X9850001Y4600016D01*
X9860494Y4497301D01*
X9860495Y4497298D01*
X9915640Y4330881D01*
X9915641Y4330879D01*
X10007681Y4181659D01*
X10007684Y4181655D01*
X10131654Y4057685D01*
X10131658Y4057682D01*
X10280878Y3965642D01*
X10280879Y3965641D01*
X10447298Y3910496D01*
X10447305Y3910495D01*
X10550023Y3900001D01*
X11000000Y3900001D01*
X11000000Y4724999D01*
X10999999Y4725000D01*
X9850002Y4725000D01*
X9850001Y4724999D01*
X5350000Y4724999D01*
X5350000Y5801000D01*
X5368954Y5896288D01*
X5422930Y5977070D01*
X5503712Y6031046D01*
X5599000Y6050000D01*
X7562499Y6050000D01*
X7562500Y6050001D01*
X7562500Y7251000D01*
X7581454Y7346288D01*
X7635430Y7427070D01*
X7716212Y7481046D01*
X7811500Y7500000D01*
X7813500Y7500000D01*
X7908788Y7481046D01*
X7989570Y7427070D01*
X8043546Y7346288D01*
X8062500Y7251000D01*
X8062500Y6050001D01*
X8062501Y6050000D01*
X9377997Y6050000D01*
X9390664Y6049678D01*
X9394146Y6049501D01*
X9394152Y6049500D01*
X9394158Y6049500D01*
X9734961Y6049500D01*
X9830249Y6030546D01*
X9911031Y5976570D01*
X9965007Y5895788D01*
X9983961Y5800500D01*
X9965007Y5705212D01*
X9946889Y5669780D01*
X9915640Y5619119D01*
X9860495Y5452702D01*
X9860494Y5452695D01*
X9850000Y5349982D01*
X9850000Y5225001D01*
X9850001Y5225000D01*
X10999999Y5225000D01*
X11000000Y5225001D01*
X11000000Y6049999D01*
X11500000Y6049999D01*
X11500000Y5225001D01*
X11500001Y5225000D01*
X12649998Y5225000D01*
X12649999Y5225001D01*
X12649999Y5349968D01*
X12649998Y5349985D01*
X12639505Y5452700D01*
X12639504Y5452703D01*
X12584359Y5619120D01*
X12584358Y5619122D01*
X12492318Y5768342D01*
X12492315Y5768346D01*
X12368345Y5892316D01*
X12368341Y5892319D01*
X12219121Y5984359D01*
X12219120Y5984360D01*
X12052701Y6039505D01*
X12052694Y6039506D01*
X11949981Y6050000D01*
X11500001Y6050000D01*
X11500000Y6049999D01*
X11000000Y6049999D01*
X11000000Y8185493D01*
X11018954Y8280781D01*
X11072927Y8361560D01*
X11117712Y8406344D01*
X11209814Y8555666D01*
X11264999Y8722203D01*
X11275500Y8824991D01*
X11275499Y9583381D01*
X11294453Y9678667D01*
X11348429Y9759448D01*
X11429211Y9813425D01*
X11524499Y9832379D01*
X11576265Y9826939D01*
X11705354Y9799500D01*
X11705355Y9799500D01*
X11894645Y9799500D01*
X11894646Y9799500D01*
X12079803Y9838856D01*
X12104860Y9850012D01*
X12252728Y9915848D01*
X12252728Y9915849D01*
X12252730Y9915849D01*
X12405871Y10027112D01*
X12532533Y10167784D01*
X12627179Y10331716D01*
X12685674Y10511744D01*
X12705460Y10700000D01*
X12685674Y10888256D01*
X12627179Y11068284D01*
X12532533Y11232216D01*
X12532531Y11232219D01*
X12532530Y11232220D01*
X12405873Y11372886D01*
X12405872Y11372887D01*
X12405871Y11372888D01*
X12274569Y11468284D01*
X12252641Y11484216D01*
X12186692Y11555559D01*
X12153066Y11646709D01*
X12150000Y11685661D01*
X12150000Y11978883D01*
X12168954Y12074171D01*
X12199219Y12124668D01*
X12198481Y12125161D01*
X12205274Y12135329D01*
X12205277Y12135331D01*
X12276465Y12241873D01*
X12325501Y12360256D01*
X12326258Y12364064D01*
X12326260Y12364064D01*
X12326262Y12364086D01*
X12350500Y12485931D01*
X12350500Y13827414D01*
X12369454Y13922702D01*
X12423430Y14003484D01*
X13946516Y15526570D01*
X14027298Y15580546D01*
X14122586Y15599500D01*
X14235931Y15599500D01*
X14251000Y15599500D01*
X14346288Y15580546D01*
G37*
%TD.AperFunction*%
%TA.AperFunction,Conductor*%
G36*
X32896503Y4099678D02*
G01*
X32899965Y4099503D01*
X32899991Y4099500D01*
X33650008Y4099501D01*
X33650015Y4099501D01*
X33653470Y4099677D01*
X33666140Y4100000D01*
X35833836Y4100000D01*
X35846503Y4099678D01*
X35849965Y4099503D01*
X35849991Y4099500D01*
X36600008Y4099501D01*
X36600015Y4099501D01*
X36603470Y4099677D01*
X36616140Y4100000D01*
X37476914Y4100000D01*
X37572202Y4081046D01*
X37652984Y4027070D01*
X38427070Y3252984D01*
X38481046Y3172202D01*
X38500000Y3076914D01*
X38500000Y2649500D01*
X38481046Y2554212D01*
X38427070Y2473430D01*
X38346288Y2419454D01*
X38251000Y2400500D01*
X32822586Y2400500D01*
X32727298Y2419454D01*
X32646516Y2473430D01*
X32422930Y2697016D01*
X32368954Y2777798D01*
X32350000Y2873086D01*
X32350000Y3851000D01*
X32368954Y3946288D01*
X32422930Y4027070D01*
X32503712Y4081046D01*
X32599000Y4100000D01*
X32883836Y4100000D01*
X32896503Y4099678D01*
G37*
%TD.AperFunction*%
%TA.AperFunction,Conductor*%
G36*
X55710000Y18669366D02*
G01*
X55735237Y18650000D01*
X57086130Y18650000D01*
X57099458Y18649643D01*
X57102110Y18649502D01*
X57102127Y18649500D01*
X57722075Y18649501D01*
X57817360Y18630547D01*
X57898141Y18576571D01*
X57952118Y18495790D01*
X57969090Y18410464D01*
X60526000Y15853553D01*
X60703483Y15676070D01*
X60757459Y15595288D01*
X60776413Y15500000D01*
X60757459Y15404712D01*
X60703483Y15323930D01*
X58032303Y12652751D01*
X57999194Y12630629D01*
X57983446Y12607061D01*
X58035817Y12458610D01*
X58050000Y12375772D01*
X58050000Y11623086D01*
X58031046Y11527798D01*
X57977070Y11447016D01*
X56325570Y9795516D01*
X56244788Y9741540D01*
X56149500Y9722586D01*
X56054212Y9741540D01*
X55973430Y9795516D01*
X55919454Y9876298D01*
X55900500Y9971586D01*
X55900500Y10214070D01*
X55900499Y10214072D01*
X55898438Y10224432D01*
X55875501Y10339744D01*
X55826465Y10458127D01*
X55826219Y10458495D01*
X55810964Y10481327D01*
X55810959Y10481332D01*
X55755277Y10564669D01*
X55538344Y10781602D01*
X55314672Y11005275D01*
X55223664Y11066084D01*
X55154965Y11134783D01*
X55117785Y11224542D01*
X55113000Y11273121D01*
X55113000Y11665692D01*
X55112999Y11665705D01*
X55110098Y11702569D01*
X55064244Y11860398D01*
X54980581Y12001865D01*
X54864365Y12118081D01*
X54722898Y12201744D01*
X54565069Y12247598D01*
X54565066Y12247599D01*
X54565063Y12247599D01*
X54528204Y12250500D01*
X54528194Y12250500D01*
X53221806Y12250500D01*
X53221795Y12250500D01*
X53184936Y12247599D01*
X53184927Y12247597D01*
X53027101Y12201744D01*
X52973657Y12170137D01*
X52914538Y12135175D01*
X52822873Y12102984D01*
X52787789Y12100500D01*
X51672586Y12100500D01*
X51577298Y12119454D01*
X51496516Y12173430D01*
X50572930Y13097016D01*
X50518954Y13177798D01*
X50500000Y13273086D01*
X50500000Y16963575D01*
X50507547Y17024416D01*
X50517987Y17065849D01*
X50540096Y17153588D01*
X50541566Y17172257D01*
X50550499Y17285772D01*
X50550500Y17285783D01*
X50550499Y17947833D01*
X57576000Y17947833D01*
X57576000Y13052168D01*
X57582401Y12992630D01*
X57582403Y12992620D01*
X57604858Y12932415D01*
X57624930Y12952485D01*
X57651397Y12970170D01*
X57658462Y12983825D01*
X57676978Y13004534D01*
X60172445Y15500001D01*
X57604858Y18067589D01*
X57582403Y18007383D01*
X57582402Y18007377D01*
X57576000Y17947833D01*
X50550499Y17947833D01*
X50550499Y18250502D01*
X50569453Y18345788D01*
X50623429Y18426569D01*
X50704211Y18480546D01*
X50799499Y18499500D01*
X51753675Y18499500D01*
X51848963Y18480546D01*
X51902895Y18449835D01*
X51916989Y18439284D01*
X52149311Y18312426D01*
X52397322Y18219923D01*
X52655974Y18163657D01*
X52920000Y18144773D01*
X53184026Y18163657D01*
X53442678Y18219923D01*
X53690689Y18312426D01*
X53923011Y18439284D01*
X54134915Y18597913D01*
X54134919Y18597918D01*
X54138149Y18600335D01*
X54225789Y18642265D01*
X54287369Y18650000D01*
X55184763Y18650000D01*
X55210000Y18669366D01*
X55210000Y19566988D01*
X55267007Y19534075D01*
X55394174Y19500000D01*
X55525826Y19500000D01*
X55652993Y19534075D01*
X55710000Y19566988D01*
X55710000Y18669366D01*
G37*
%TD.AperFunction*%
%TA.AperFunction,Conductor*%
G36*
X12996288Y17231046D02*
G01*
X13077070Y17177070D01*
X13131046Y17096288D01*
X13150000Y17001000D01*
X13150000Y16673086D01*
X13131046Y16577798D01*
X13077070Y16497016D01*
X12002984Y15422930D01*
X11922202Y15368954D01*
X11826914Y15350000D01*
X11524000Y15350000D01*
X11428712Y15368954D01*
X11347930Y15422930D01*
X11339595Y15435404D01*
X11274999Y15500000D01*
X10462501Y15500000D01*
X10462500Y15499999D01*
X10462500Y13499000D01*
X10443546Y13403712D01*
X10389570Y13322930D01*
X10308788Y13268954D01*
X10213500Y13250000D01*
X10211500Y13250000D01*
X10116212Y13268954D01*
X10035430Y13322930D01*
X9981454Y13403712D01*
X9962500Y13499000D01*
X9962500Y15751000D01*
X9981454Y15846288D01*
X10035430Y15927070D01*
X10116212Y15981046D01*
X10211500Y16000000D01*
X11274998Y16000000D01*
X11274999Y16000001D01*
X11274999Y16424968D01*
X11274998Y16424985D01*
X11264505Y16527700D01*
X11264504Y16527703D01*
X11233033Y16622678D01*
X11221052Y16719092D01*
X11246879Y16812751D01*
X11306582Y16889397D01*
X11391072Y16937361D01*
X11469394Y16950000D01*
X11887547Y16950000D01*
X11897083Y16949500D01*
X11905354Y16949500D01*
X12094645Y16949500D01*
X12094646Y16949500D01*
X12279803Y16988856D01*
X12397937Y17041453D01*
X12452728Y17065848D01*
X12452728Y17065849D01*
X12452730Y17065849D01*
X12605871Y17177112D01*
X12605876Y17177119D01*
X12615575Y17185849D01*
X12618056Y17183093D01*
X12675115Y17225720D01*
X12769275Y17249656D01*
X12782362Y17250000D01*
X12901000Y17250000D01*
X12996288Y17231046D01*
G37*
%TD.AperFunction*%
%TA.AperFunction,Conductor*%
G36*
X38646288Y22231046D02*
G01*
X38727070Y22177070D01*
X38781046Y22096288D01*
X38800000Y22001000D01*
X38800000Y21678139D01*
X38781046Y21582851D01*
X38775000Y21573803D01*
X38775000Y17749000D01*
X38756046Y17653712D01*
X38702070Y17572930D01*
X38621288Y17518954D01*
X38526000Y17500000D01*
X37237299Y17500000D01*
X37142011Y17518954D01*
X37061229Y17572930D01*
X37007253Y17653712D01*
X37000938Y17670676D01*
X36984814Y17719334D01*
X36946031Y17782211D01*
X36892712Y17868656D01*
X36768656Y17992712D01*
X36768653Y17992714D01*
X36619333Y18084815D01*
X36570676Y18100938D01*
X36486187Y18148903D01*
X36426485Y18225550D01*
X36400658Y18319209D01*
X36400000Y18337299D01*
X36400000Y19280540D01*
X36418954Y19375828D01*
X36463956Y19447154D01*
X36482533Y19467784D01*
X36577179Y19631716D01*
X36635674Y19811744D01*
X36644950Y19899999D01*
X37450000Y19899999D01*
X37450000Y18000001D01*
X37450001Y18000000D01*
X38274999Y18000000D01*
X38275000Y18000001D01*
X38275000Y19899999D01*
X38274999Y19900000D01*
X37450001Y19900000D01*
X37450000Y19899999D01*
X36644950Y19899999D01*
X36655460Y20000000D01*
X36635674Y20188256D01*
X36577179Y20368284D01*
X36482533Y20532216D01*
X36482531Y20532219D01*
X36482530Y20532220D01*
X36355873Y20672886D01*
X36355872Y20672887D01*
X36355871Y20672888D01*
X36221259Y20770689D01*
X36202728Y20784153D01*
X36054875Y20849982D01*
X37450000Y20849982D01*
X37450000Y20400001D01*
X37450001Y20400000D01*
X38274999Y20400000D01*
X38275000Y20400001D01*
X38275000Y21550001D01*
X38150024Y21550000D01*
X38047300Y21539506D01*
X38047297Y21539505D01*
X37880880Y21484360D01*
X37880878Y21484359D01*
X37731658Y21392319D01*
X37731654Y21392316D01*
X37607684Y21268346D01*
X37607681Y21268342D01*
X37515641Y21119122D01*
X37515640Y21119121D01*
X37460495Y20952702D01*
X37460494Y20952695D01*
X37450000Y20849982D01*
X36054875Y20849982D01*
X36029810Y20861142D01*
X36029796Y20861146D01*
X35844646Y20900500D01*
X35673918Y20900500D01*
X35203701Y20900500D01*
X35108413Y20919454D01*
X35027631Y20973430D01*
X34973655Y21054212D01*
X34967340Y21071178D01*
X34934815Y21169332D01*
X34925872Y21183832D01*
X34842712Y21318656D01*
X34718656Y21442712D01*
X34569334Y21534814D01*
X34569332Y21534815D01*
X34569330Y21534816D01*
X34569332Y21534816D01*
X34402802Y21589998D01*
X34402798Y21589999D01*
X34402797Y21589999D01*
X34300009Y21600500D01*
X34300005Y21600500D01*
X33649984Y21600500D01*
X33646530Y21600323D01*
X33633860Y21600000D01*
X31166164Y21600000D01*
X31153497Y21600322D01*
X31150015Y21600500D01*
X31150009Y21600500D01*
X31150002Y21600500D01*
X30499993Y21600500D01*
X30397199Y21589999D01*
X30314636Y21562639D01*
X30236313Y21550000D01*
X29516164Y21550000D01*
X29503497Y21550322D01*
X29500015Y21550500D01*
X29500009Y21550500D01*
X29500002Y21550500D01*
X28749993Y21550500D01*
X28647199Y21539999D01*
X28480667Y21484815D01*
X28331346Y21392714D01*
X28207286Y21268654D01*
X28115184Y21119332D01*
X28060002Y20952803D01*
X28060001Y20952798D01*
X28060001Y20952797D01*
X28059336Y20946288D01*
X28050638Y20861144D01*
X28049500Y20850009D01*
X28049500Y20172886D01*
X28049501Y20149000D01*
X28030547Y20053712D01*
X27976571Y19972931D01*
X27895789Y19918954D01*
X27800501Y19900000D01*
X24852628Y19900000D01*
X24757340Y19918954D01*
X24676558Y19972930D01*
X24636992Y20024492D01*
X24632533Y20032216D01*
X24632527Y20032222D01*
X24632524Y20032227D01*
X24505873Y20172886D01*
X24505872Y20172887D01*
X24505871Y20172888D01*
X24429300Y20228520D01*
X24352728Y20284153D01*
X24179810Y20361142D01*
X24179796Y20361146D01*
X23994646Y20400500D01*
X23805354Y20400500D01*
X23797083Y20400500D01*
X23787547Y20400000D01*
X23299000Y20400000D01*
X23203712Y20418954D01*
X23122930Y20472930D01*
X23068954Y20553712D01*
X23068374Y20556625D01*
X23049999Y20575000D01*
X21900001Y20575000D01*
X21900000Y20574999D01*
X21900000Y20400000D01*
X21400000Y20364286D01*
X21400000Y20826000D01*
X21404770Y20849982D01*
X25100000Y20849982D01*
X25100000Y20400001D01*
X25100001Y20400000D01*
X25924999Y20400000D01*
X25925000Y20400001D01*
X25925000Y21549999D01*
X26425000Y21549999D01*
X26425000Y20400001D01*
X26425001Y20400000D01*
X27249998Y20400000D01*
X27249999Y20400001D01*
X27249999Y20849968D01*
X27249998Y20849985D01*
X27239505Y20952700D01*
X27239504Y20952703D01*
X27184359Y21119120D01*
X27184358Y21119122D01*
X27092318Y21268342D01*
X27092315Y21268346D01*
X26968345Y21392316D01*
X26968341Y21392319D01*
X26819121Y21484359D01*
X26819120Y21484360D01*
X26652701Y21539505D01*
X26652694Y21539506D01*
X26549981Y21550000D01*
X26425001Y21550000D01*
X26425000Y21549999D01*
X25925000Y21549999D01*
X25925000Y21550001D01*
X25800024Y21550000D01*
X25697300Y21539506D01*
X25697297Y21539505D01*
X25530880Y21484360D01*
X25530878Y21484359D01*
X25381658Y21392319D01*
X25381654Y21392316D01*
X25257684Y21268346D01*
X25257681Y21268342D01*
X25165641Y21119122D01*
X25165640Y21119121D01*
X25110495Y20952702D01*
X25110494Y20952695D01*
X25100000Y20849982D01*
X21404770Y20849982D01*
X21418954Y20921288D01*
X21472930Y21002070D01*
X21553712Y21056046D01*
X21649000Y21075000D01*
X23049998Y21075000D01*
X23049999Y21075001D01*
X23049999Y21199968D01*
X23049998Y21199985D01*
X23039505Y21302700D01*
X23039504Y21302703D01*
X22984359Y21469120D01*
X22984358Y21469122D01*
X22892318Y21618342D01*
X22892315Y21618346D01*
X22768345Y21742316D01*
X22768343Y21742317D01*
X22692543Y21789071D01*
X22621392Y21855227D01*
X22580973Y21943575D01*
X22577441Y22040666D01*
X22611332Y22131718D01*
X22677488Y22202869D01*
X22765836Y22243288D01*
X22823261Y22250000D01*
X38551000Y22250000D01*
X38646288Y22231046D01*
G37*
%TD.AperFunction*%
%TA.AperFunction,Conductor*%
G36*
X46146288Y22231046D02*
G01*
X46227070Y22177070D01*
X46281046Y22096288D01*
X46300000Y22001000D01*
X46300000Y21778139D01*
X46281046Y21682851D01*
X46275000Y21673803D01*
X46275000Y17999000D01*
X46256046Y17903712D01*
X46202070Y17822930D01*
X46121288Y17768954D01*
X46026000Y17750000D01*
X46024000Y17750000D01*
X45928712Y17768954D01*
X45847930Y17822930D01*
X45793954Y17903712D01*
X45775000Y17999000D01*
X45775000Y19999999D01*
X45774999Y20000000D01*
X44950001Y20000000D01*
X44950000Y19999999D01*
X44950000Y19099000D01*
X44931046Y19003712D01*
X44877070Y18922930D01*
X44796288Y18868954D01*
X44701000Y18850000D01*
X44415391Y18850000D01*
X44320103Y18868954D01*
X44302348Y18877139D01*
X44275992Y18890568D01*
X44275987Y18890570D01*
X44147813Y18932216D01*
X44051368Y18963553D01*
X44051366Y18963554D01*
X44051364Y18963554D01*
X43818103Y19000499D01*
X43818094Y19000500D01*
X43818092Y19000500D01*
X43818088Y19000500D01*
X43299000Y19000500D01*
X43203712Y19019454D01*
X43122930Y19073430D01*
X43068954Y19154212D01*
X43050000Y19249500D01*
X43050000Y19419648D01*
X43050442Y19430893D01*
X43050308Y19430898D01*
X43050497Y19435757D01*
X43050500Y19435783D01*
X43050499Y20864216D01*
X43050498Y20864222D01*
X43050307Y20869094D01*
X43050441Y20869100D01*
X43050000Y20880337D01*
X43050000Y20949982D01*
X44950000Y20949982D01*
X44950000Y20500001D01*
X44950001Y20500000D01*
X45774999Y20500000D01*
X45775000Y20500001D01*
X45775000Y21650001D01*
X45650024Y21650000D01*
X45547300Y21639506D01*
X45547297Y21639505D01*
X45380880Y21584360D01*
X45380878Y21584359D01*
X45231658Y21492319D01*
X45231654Y21492316D01*
X45107684Y21368346D01*
X45107681Y21368342D01*
X45015641Y21219122D01*
X45015640Y21219121D01*
X44960495Y21052702D01*
X44960494Y21052695D01*
X44950000Y20949982D01*
X43050000Y20949982D01*
X43050000Y22001000D01*
X43068954Y22096288D01*
X43122930Y22177070D01*
X43203712Y22231046D01*
X43299000Y22250000D01*
X46051000Y22250000D01*
X46146288Y22231046D01*
G37*
%TD.AperFunction*%
%TA.AperFunction,Conductor*%
G36*
X61252239Y22249960D02*
G01*
X61257044Y22249875D01*
X61377291Y22247728D01*
X61408256Y22245237D01*
X61658051Y22209322D01*
X61692759Y22201771D01*
X61932737Y22131307D01*
X61966010Y22118898D01*
X62193539Y22014988D01*
X62224689Y21997979D01*
X62435102Y21862755D01*
X62463542Y21841465D01*
X62652559Y21677680D01*
X62677679Y21652560D01*
X62841464Y21463543D01*
X62862752Y21435106D01*
X62997975Y21224695D01*
X63014989Y21193535D01*
X63118893Y20966018D01*
X63131306Y20932738D01*
X63201770Y20692760D01*
X63209322Y20658045D01*
X63245233Y20408274D01*
X63247727Y20377280D01*
X63249958Y20252245D01*
X63249998Y20247803D01*
X63249998Y18649000D01*
X63231044Y18553712D01*
X63177068Y18472930D01*
X63096286Y18418954D01*
X63000998Y18400000D01*
X59411197Y18400000D01*
X59315909Y18418954D01*
X59235127Y18472930D01*
X59181151Y18553712D01*
X59162197Y18649000D01*
X59181151Y18744288D01*
X59211860Y18798217D01*
X59293796Y18907669D01*
X59344091Y19042517D01*
X59350500Y19102127D01*
X59350499Y20897872D01*
X59344091Y20957483D01*
X59293796Y21092331D01*
X59207546Y21207546D01*
X59092331Y21293796D01*
X58980219Y21335611D01*
X58957481Y21344092D01*
X58897873Y21350500D01*
X57102135Y21350500D01*
X57099487Y21350357D01*
X57086154Y21350000D01*
X55710000Y21350000D01*
X55710000Y20433012D01*
X55652993Y20465925D01*
X55525826Y20500000D01*
X55394174Y20500000D01*
X55267007Y20465925D01*
X55210000Y20433012D01*
X55210000Y21405422D01*
X55202131Y21428602D01*
X55200000Y21461107D01*
X55200000Y22001000D01*
X55218954Y22096288D01*
X55272930Y22177070D01*
X55353712Y22231046D01*
X55449000Y22250000D01*
X61247797Y22250000D01*
X61252239Y22249960D01*
G37*
%TD.AperFunction*%
%TA.AperFunction,Conductor*%
G36*
X19298582Y22231046D02*
G01*
X19379364Y22177070D01*
X19433340Y22096288D01*
X19452294Y22001000D01*
X19433340Y21905712D01*
X19379364Y21824930D01*
X19349652Y21799555D01*
X19244130Y21722889D01*
X19244127Y21722887D01*
X19117469Y21582220D01*
X19117464Y21582213D01*
X19026409Y21424500D01*
X18962351Y21351455D01*
X18875215Y21308484D01*
X18810769Y21300000D01*
X18631829Y21300000D01*
X18620584Y21300443D01*
X18620579Y21300308D01*
X18615694Y21300500D01*
X17584306Y21300500D01*
X17584305Y21300500D01*
X17579421Y21300308D01*
X17579415Y21300443D01*
X17568171Y21300000D01*
X16131829Y21300000D01*
X16120584Y21300443D01*
X16120579Y21300308D01*
X16115694Y21300500D01*
X15084306Y21300500D01*
X15084305Y21300500D01*
X15079421Y21300308D01*
X15079415Y21300443D01*
X15068171Y21300000D01*
X14550000Y21300000D01*
X14478797Y21205062D01*
X14475076Y21200101D01*
X14402740Y21135243D01*
X14311090Y21103004D01*
X14275876Y21100501D01*
X14170943Y21100501D01*
X14018217Y21059578D01*
X14018212Y21059576D01*
X13881285Y20980521D01*
X13881283Y20980520D01*
X13513950Y20613188D01*
X13433169Y20559212D01*
X13337880Y20540258D01*
X13242592Y20559212D01*
X13181548Y20600000D01*
X12111500Y20600000D01*
X12016212Y20618954D01*
X11935430Y20672930D01*
X11881454Y20753712D01*
X11862500Y20849000D01*
X11862500Y20851000D01*
X11881454Y20946288D01*
X11935430Y21027070D01*
X12016212Y21081046D01*
X12111500Y21100000D01*
X13174998Y21100000D01*
X13174999Y21100001D01*
X13174999Y21524968D01*
X13174998Y21524985D01*
X13164505Y21627700D01*
X13164504Y21627703D01*
X13109359Y21794120D01*
X13062382Y21870282D01*
X13028491Y21961334D01*
X13032023Y22058424D01*
X13072441Y22146773D01*
X13143593Y22212929D01*
X13234645Y22246820D01*
X13274311Y22250000D01*
X19203294Y22250000D01*
X19298582Y22231046D01*
G37*
%TD.AperFunction*%
%TD*%
M02*
