M48
; DRILL file {KiCad 7.0.10} date Fri Feb  2 00:24:19 2024
; FORMAT={-:-/ absolute / metric / decimal}
; #@! TF.CreationDate,2024-02-02T00:24:19+07:00
; #@! TF.GenerationSoftware,Kicad,Pcbnew,7.0.10
; #@! TF.FileFunction,Plated,1,4,PTH
FMAT,2
METRIC
; #@! TA.AperFunction,Plated,PTH,ViaDrill
T1C0.400
; #@! TA.AperFunction,Plated,PTH,ComponentDrill
T2C0.500
; #@! TA.AperFunction,Plated,PTH,ComponentDrill
T3C1.000
; #@! TA.AperFunction,Plated,PTH,ComponentDrill
T4C3.200
%
G90
G05
T1
X1.5Y46.25
X1.5Y43.71
X1.5Y41.17
X1.5Y38.63
X1.5Y36.09
X1.5Y33.55
X1.5Y31.01
X1.5Y28.47
X1.5Y25.93
X1.5Y23.39
X1.5Y20.85
X1.5Y18.31
X1.5Y15.77
X1.5Y13.23
X1.5Y10.69
X1.5Y8.15
X16.25Y42.25
X16.25Y39.75
X16.25Y37.25
X16.25Y34.5
X21.75Y50.0
X21.75Y47.0
X21.75Y43.75
X21.75Y38.67
X21.75Y33.59
X21.75Y28.51
X21.75Y23.75
X21.75Y20.75
X21.75Y15.67
X21.75Y10.59
X21.75Y5.51
X21.75Y1.5
X26.0Y40.5
X26.0Y33.5
X26.0Y28.5
X26.0Y23.75
X26.25Y20.75
X26.25Y15.75
X26.25Y10.5
X28.5Y48.55
X30.75Y46.25
X30.75Y40.75
X30.75Y37.5
X30.75Y33.5
X30.75Y28.5
X30.75Y20.75
X30.75Y15.75
X30.75Y10.5
X35.0Y23.75
X35.0Y20.75
X35.0Y15.67
X35.0Y10.59
X35.0Y5.51
X35.0Y1.5
X35.25Y46.25
X40.995Y49.0
X41.0Y46.5
X41.0Y41.0
X41.0Y38.75
X41.05Y43.8
X42.75Y34.75
X43.0Y37.25
X43.75Y39.4
X44.95Y37.25
X45.25Y32.25
X47.0Y29.85
X47.0Y25.25
X47.0Y18.25
X48.75Y25.25
X49.5Y17.25
X49.5Y1.5
X50.25Y5.75
X50.5Y45.25
X50.5Y25.25
X51.0Y3.0
X51.25Y15.512
X51.25Y12.512
X51.25Y9.5
X51.25Y8.25
X51.75Y34.7
X51.75Y32.9
X52.25Y25.5
X52.55Y33.8
X52.75Y30.0
X52.75Y27.5
X52.75Y9.5
X52.75Y8.25
X52.75Y5.75
X52.75Y1.5
X54.112Y41.938
X54.5Y48.5
X54.75Y45.25
X55.3Y17.7
X55.5Y5.75
X55.75Y3.0
X55.75Y1.5
X56.5Y42.5
X56.5Y38.5
X56.5Y35.5
X56.5Y34.0
X56.5Y32.5
X56.75Y52.5
X57.25Y17.75
X57.25Y16.0
X57.25Y13.0
X57.25Y7.912
X58.15Y6.0
X58.15Y3.75
X59.0Y19.25
X59.25Y17.75
X59.25Y16.0
X59.5Y13.0
X59.75Y1.5
X60.25Y52.5
X60.25Y43.25
X61.25Y19.25
X61.25Y17.75
X61.25Y16.0
X61.5Y28.5
X61.5Y13.0
X61.5Y11.25
X63.0Y17.75
X63.5Y42.25
X63.75Y46.25
X63.75Y44.25
X63.75Y29.75
X64.0Y52.5
X64.0Y50.75
X64.0Y48.75
X65.25Y29.75
X65.5Y11.75
X66.0Y9.25
X66.0Y7.0
X66.0Y4.75
X66.0Y2.5
X66.25Y42.25
X66.75Y29.75
X67.5Y1.5
X68.25Y29.75
X69.5Y11.75
X69.75Y29.75
X70.04Y1.5
X71.25Y29.75
X71.5Y45.75
X71.5Y42.0
X71.75Y26.75
X72.0Y13.75
X72.58Y1.5
X73.0Y18.75
X73.0Y16.75
X73.25Y46.5
X74.25Y40.5
X74.25Y37.5
X74.5Y26.75
X75.12Y1.5
X75.75Y18.75
X76.5Y25.0
X76.75Y46.5
X77.0Y35.5
X77.0Y33.5
X77.25Y52.5
X77.25Y1.5
X77.75Y48.25
X78.0Y7.75
X78.25Y18.75
X79.5Y27.25
X80.25Y46.5
X80.5Y29.5
X80.5Y19.05
X80.75Y7.75
X81.0Y25.25
X83.0Y25.25
X83.5Y46.25
X83.5Y43.71
X83.5Y41.17
X83.5Y38.63
X83.5Y36.09
X83.5Y33.55
X83.5Y31.01
X83.5Y28.47
X83.5Y17.5
X83.5Y14.96
X83.5Y12.42
X83.5Y9.88
X83.5Y7.75
T2
X1.1Y50.5
X1.1Y3.5
X1.803Y52.197
X1.803Y48.803
X1.803Y5.197
X1.803Y1.803
X3.5Y52.9
X3.5Y48.1
X3.5Y5.9
X3.5Y1.1
X5.197Y52.197
X5.197Y48.803
X5.197Y5.197
X5.197Y1.803
X5.9Y50.5
X5.9Y3.5
X79.1Y50.5
X79.1Y3.5
X79.803Y52.197
X79.803Y48.803
X79.803Y5.197
X79.803Y1.803
X81.5Y52.9
X81.5Y48.1
X81.5Y5.9
X81.5Y1.1
X83.197Y52.197
X83.197Y48.803
X83.197Y5.197
X83.197Y1.803
X83.9Y50.5
X83.9Y3.5
T3
X10.21Y50.12
X10.21Y45.03
X10.21Y42.49
X10.21Y39.95
X10.21Y37.41
X10.21Y34.87
X10.21Y32.33
X10.21Y27.25
X10.21Y22.17
X10.21Y19.63
X10.21Y17.09
X10.21Y14.55
X10.21Y12.01
X10.21Y9.47
X10.21Y4.39
X12.75Y50.12
X12.75Y27.25
X12.75Y22.17
X12.75Y19.63
X12.75Y17.09
X12.75Y14.55
X12.75Y12.01
X12.75Y9.47
X12.75Y4.39
X46.7Y51.5
X49.24Y51.5
X51.78Y51.5
X54.32Y51.5
T4
X3.5Y50.5
X3.5Y3.5
X81.5Y50.5
X81.5Y3.5
M30
