%TF.GenerationSoftware,KiCad,Pcbnew,7.0.10*%
%TF.CreationDate,2024-02-02T00:24:17+07:00*%
%TF.ProjectId,PICO_ADC_Test,5049434f-5f41-4444-935f-546573742e6b,R0.1*%
%TF.SameCoordinates,PX72ade90PY75c75e0*%
%TF.FileFunction,Copper,L1,Top*%
%TF.FilePolarity,Positive*%
%FSLAX46Y46*%
G04 Gerber Fmt 4.6, Leading zero omitted, Abs format (unit mm)*
G04 Created by KiCad (PCBNEW 7.0.10) date 2024-02-02 00:24:17*
%MOMM*%
%LPD*%
G01*
G04 APERTURE LIST*
G04 Aperture macros list*
%AMRoundRect*
0 Rectangle with rounded corners*
0 $1 Rounding radius*
0 $2 $3 $4 $5 $6 $7 $8 $9 X,Y pos of 4 corners*
0 Add a 4 corners polygon primitive as box body*
4,1,4,$2,$3,$4,$5,$6,$7,$8,$9,$2,$3,0*
0 Add four circle primitives for the rounded corners*
1,1,$1+$1,$2,$3*
1,1,$1+$1,$4,$5*
1,1,$1+$1,$6,$7*
1,1,$1+$1,$8,$9*
0 Add four rect primitives between the rounded corners*
20,1,$1+$1,$2,$3,$4,$5,0*
20,1,$1+$1,$4,$5,$6,$7,0*
20,1,$1+$1,$6,$7,$8,$9,0*
20,1,$1+$1,$8,$9,$2,$3,0*%
%AMFreePoly0*
4,1,9,3.862500,-0.866500,0.737500,-0.866500,0.737500,-0.450000,-0.737500,-0.450000,-0.737500,0.450000,0.737500,0.450000,0.737500,0.866500,3.862500,0.866500,3.862500,-0.866500,3.862500,-0.866500,$1*%
G04 Aperture macros list end*
%TA.AperFunction,SMDPad,CuDef*%
%ADD10RoundRect,0.250000X-0.325000X-0.650000X0.325000X-0.650000X0.325000X0.650000X-0.325000X0.650000X0*%
%TD*%
%TA.AperFunction,SMDPad,CuDef*%
%ADD11RoundRect,0.250000X-0.650000X0.325000X-0.650000X-0.325000X0.650000X-0.325000X0.650000X0.325000X0*%
%TD*%
%TA.AperFunction,SMDPad,CuDef*%
%ADD12RoundRect,0.250000X0.650000X-0.325000X0.650000X0.325000X-0.650000X0.325000X-0.650000X-0.325000X0*%
%TD*%
%TA.AperFunction,SMDPad,CuDef*%
%ADD13RoundRect,0.250000X0.325000X0.650000X-0.325000X0.650000X-0.325000X-0.650000X0.325000X-0.650000X0*%
%TD*%
%TA.AperFunction,SMDPad,CuDef*%
%ADD14RoundRect,0.110000X-0.110000X-0.650000X0.110000X-0.650000X0.110000X0.650000X-0.110000X0.650000X0*%
%TD*%
%TA.AperFunction,SMDPad,CuDef*%
%ADD15RoundRect,0.250000X-0.625000X0.312500X-0.625000X-0.312500X0.625000X-0.312500X0.625000X0.312500X0*%
%TD*%
%TA.AperFunction,SMDPad,CuDef*%
%ADD16RoundRect,0.250000X0.625000X-0.312500X0.625000X0.312500X-0.625000X0.312500X-0.625000X-0.312500X0*%
%TD*%
%TA.AperFunction,SMDPad,CuDef*%
%ADD17RoundRect,0.250000X0.700000X-0.275000X0.700000X0.275000X-0.700000X0.275000X-0.700000X-0.275000X0*%
%TD*%
%TA.AperFunction,SMDPad,CuDef*%
%ADD18R,0.850000X0.600000*%
%TD*%
%TA.AperFunction,ComponentPad*%
%ADD19R,1.700000X1.700000*%
%TD*%
%TA.AperFunction,ComponentPad*%
%ADD20O,1.700000X1.700000*%
%TD*%
%TA.AperFunction,SMDPad,CuDef*%
%ADD21RoundRect,0.250000X0.312500X0.625000X-0.312500X0.625000X-0.312500X-0.625000X0.312500X-0.625000X0*%
%TD*%
%TA.AperFunction,SMDPad,CuDef*%
%ADD22RoundRect,0.250000X-0.700000X0.275000X-0.700000X-0.275000X0.700000X-0.275000X0.700000X0.275000X0*%
%TD*%
%TA.AperFunction,ComponentPad*%
%ADD23C,0.800000*%
%TD*%
%TA.AperFunction,ComponentPad*%
%ADD24C,6.400000*%
%TD*%
%TA.AperFunction,SMDPad,CuDef*%
%ADD25RoundRect,0.112500X0.587500X-0.112500X0.587500X0.112500X-0.587500X0.112500X-0.587500X-0.112500X0*%
%TD*%
%TA.AperFunction,SMDPad,CuDef*%
%ADD26RoundRect,0.112500X-0.625000X0.112500X-0.625000X-0.112500X0.625000X-0.112500X0.625000X0.112500X0*%
%TD*%
%TA.AperFunction,SMDPad,CuDef*%
%ADD27R,0.700000X2.350000*%
%TD*%
%TA.AperFunction,SMDPad,CuDef*%
%ADD28R,1.600000X4.900000*%
%TD*%
%TA.AperFunction,SMDPad,CuDef*%
%ADD29R,1.300000X0.900000*%
%TD*%
%TA.AperFunction,SMDPad,CuDef*%
%ADD30FreePoly0,0.000000*%
%TD*%
%TA.AperFunction,SMDPad,CuDef*%
%ADD31RoundRect,0.250000X-0.312500X-0.625000X0.312500X-0.625000X0.312500X0.625000X-0.312500X0.625000X0*%
%TD*%
%TA.AperFunction,SMDPad,CuDef*%
%ADD32RoundRect,0.425000X1.325000X0.425000X-1.325000X0.425000X-1.325000X-0.425000X1.325000X-0.425000X0*%
%TD*%
%TA.AperFunction,SMDPad,CuDef*%
%ADD33RoundRect,0.425000X-0.425000X1.325000X-0.425000X-1.325000X0.425000X-1.325000X0.425000X1.325000X0*%
%TD*%
%TA.AperFunction,ViaPad*%
%ADD34C,0.800000*%
%TD*%
%TA.AperFunction,Conductor*%
%ADD35C,0.500000*%
%TD*%
%TA.AperFunction,Conductor*%
%ADD36C,0.450000*%
%TD*%
%TA.AperFunction,Conductor*%
%ADD37C,0.400000*%
%TD*%
%TA.AperFunction,Conductor*%
%ADD38C,0.300000*%
%TD*%
%TA.AperFunction,Conductor*%
%ADD39C,1.000000*%
%TD*%
G04 APERTURE END LIST*
D10*
%TO.P,C13,1*%
%TO.N,Net-(IC1-VCOM)*%
X61525000Y2500000D03*
%TO.P,C13,2*%
%TO.N,GND*%
X64475000Y2500000D03*
%TD*%
D11*
%TO.P,C9,1*%
%TO.N,Net-(C9-Pad1)*%
X71000000Y18725000D03*
%TO.P,C9,2*%
%TO.N,TO_ADC_L*%
X71000000Y15775000D03*
%TD*%
D12*
%TO.P,C21,1*%
%TO.N,5VVGA*%
X78000000Y20525000D03*
%TO.P,C21,2*%
%TO.N,GND*%
X78000000Y23475000D03*
%TD*%
D13*
%TO.P,C26,1*%
%TO.N,+3.3V*%
X54112500Y40012500D03*
%TO.P,C26,2*%
%TO.N,GND*%
X51162500Y40012500D03*
%TD*%
%TO.P,C25,1*%
%TO.N,+3.3V*%
X54087500Y37662500D03*
%TO.P,C25,2*%
%TO.N,GND*%
X51137500Y37662500D03*
%TD*%
D14*
%TO.P,IC2,1,LMD*%
%TO.N,Net-(IC2-LMD)*%
X70130000Y32965000D03*
%TO.P,IC2,2,INH*%
%TO.N,Net-(IC2-INH)*%
X69490000Y32965000D03*
%TO.P,IC2,3,VPSL*%
%TO.N,5VLNA*%
X68850000Y32965000D03*
%TO.P,IC2,4,LON*%
%TO.N,Net-(IC2-LON)*%
X68210000Y32965000D03*
%TO.P,IC2,5,LOP*%
%TO.N,Net-(IC2-LOP)*%
X67570000Y32965000D03*
%TO.P,IC2,6,COML*%
%TO.N,GND*%
X66930000Y32965000D03*
%TO.P,IC2,7,VIP*%
%TO.N,Net-(IC2-VIP)*%
X66290000Y32965000D03*
%TO.P,IC2,8,VIN*%
%TO.N,Net-(IC2-VIN)*%
X65650000Y32965000D03*
%TO.P,IC2,9,MODE*%
%TO.N,GND*%
X65010000Y32965000D03*
%TO.P,IC2,10,GAIN*%
%TO.N,DAC_G*%
X64370000Y32965000D03*
%TO.P,IC2,11,VCM*%
%TO.N,Net-(IC2-VCM)*%
X64370000Y27535000D03*
%TO.P,IC2,12,RCLMP*%
%TO.N,Net-(IC2-RCLMP)*%
X65010000Y27535000D03*
%TO.P,IC2,13,HILO*%
%TO.N,Net-(IC2-HILO)*%
X65650000Y27535000D03*
%TO.P,IC2,14,VPOS*%
%TO.N,Net-(IC2-VPOS)*%
X66290000Y27535000D03*
%TO.P,IC2,15,VOH*%
%TO.N,VOH*%
X66930000Y27535000D03*
%TO.P,IC2,16,VOL*%
%TO.N,VOL*%
X67570000Y27535000D03*
%TO.P,IC2,17,COMM_1*%
%TO.N,GND*%
X68210000Y27535000D03*
%TO.P,IC2,18,ENBV*%
%TO.N,Net-(IC2-ENBV)*%
X68850000Y27535000D03*
%TO.P,IC2,19,ENBL*%
%TO.N,Net-(IC2-ENBL)*%
X69490000Y27535000D03*
%TO.P,IC2,20,COMM_2*%
%TO.N,GND*%
X70130000Y27535000D03*
%TD*%
D12*
%TO.P,C3,1*%
%TO.N,Net-(IC1-IRS)*%
X54500000Y20525000D03*
%TO.P,C3,2*%
%TO.N,GND*%
X54500000Y23475000D03*
%TD*%
D15*
%TO.P,R7,1*%
%TO.N,Net-(C6-Pad2)*%
X64750000Y40462500D03*
%TO.P,R7,2*%
%TO.N,Net-(IC2-LON)*%
X64750000Y37537500D03*
%TD*%
D12*
%TO.P,C7,1*%
%TO.N,+3.3V*%
X47500000Y20525000D03*
%TO.P,C7,2*%
%TO.N,GND*%
X47500000Y23475000D03*
%TD*%
D10*
%TO.P,C15,1*%
%TO.N,Net-(IC1-VREFT)*%
X61525000Y7000000D03*
%TO.P,C15,2*%
%TO.N,GND*%
X64475000Y7000000D03*
%TD*%
D15*
%TO.P,R1,1*%
%TO.N,+3.3V*%
X52250000Y23462500D03*
%TO.P,R1,2*%
%TO.N,Net-(IC1-IRS)*%
X52250000Y20537500D03*
%TD*%
D16*
%TO.P,R3,1*%
%TO.N,5VVGA*%
X73250000Y20537500D03*
%TO.P,R3,2*%
%TO.N,Net-(IC2-ENBV)*%
X73250000Y23462500D03*
%TD*%
D17*
%TO.P,FB4,1*%
%TO.N,5VVGA*%
X83000000Y20425000D03*
%TO.P,FB4,2*%
%TO.N,+5V*%
X83000000Y23575000D03*
%TD*%
D18*
%TO.P,D1,1*%
%TO.N,GND*%
X65300000Y46200000D03*
%TO.P,D1,2*%
X65300000Y44300000D03*
%TO.P,D1,3*%
%TO.N,Net-(U1-B)*%
X67700000Y45250000D03*
%TD*%
D12*
%TO.P,C20,1*%
%TO.N,Net-(IC1-VIN-)*%
X63750000Y13275000D03*
%TO.P,C20,2*%
%TO.N,Net-(IC1-VIN+)*%
X63750000Y16225000D03*
%TD*%
D19*
%TO.P,J4,1,Pin_1*%
%TO.N,+5V*%
X46700000Y51500000D03*
D20*
%TO.P,J4,2,Pin_2*%
%TO.N,SWCLK*%
X49240000Y51500000D03*
%TO.P,J4,3,Pin_3*%
%TO.N,SWDIO*%
X51780000Y51500000D03*
%TO.P,J4,4,Pin_4*%
%TO.N,GND*%
X54320000Y51500000D03*
%TD*%
D17*
%TO.P,FB5,1*%
%TO.N,+5V*%
X78000000Y28700000D03*
%TO.P,FB5,2*%
%TO.N,5VLNA*%
X78000000Y31850000D03*
%TD*%
D12*
%TO.P,C8,1*%
%TO.N,+3.3V*%
X49750000Y20525000D03*
%TO.P,C8,2*%
%TO.N,GND*%
X49750000Y23475000D03*
%TD*%
D19*
%TO.P,J2,1,Pin_1*%
%TO.N,GND*%
X10210000Y27250000D03*
D20*
%TO.P,J2,2,Pin_2*%
%TO.N,+5V*%
X12750000Y27250000D03*
%TD*%
D21*
%TO.P,R9,1*%
%TO.N,Net-(IC2-RCLMP)*%
X58712500Y25750000D03*
%TO.P,R9,2*%
%TO.N,GND*%
X55787500Y25750000D03*
%TD*%
D22*
%TO.P,FB3,1*%
%TO.N,VOL*%
X68500000Y23575000D03*
%TO.P,FB3,2*%
%TO.N,Net-(C9-Pad1)*%
X68500000Y20425000D03*
%TD*%
D12*
%TO.P,C4,1*%
%TO.N,Net-(IC1-IRS)*%
X56750000Y20525000D03*
%TO.P,C4,2*%
%TO.N,GND*%
X56750000Y23475000D03*
%TD*%
D22*
%TO.P,FB1,1*%
%TO.N,VOH*%
X66000000Y23575000D03*
%TO.P,FB1,2*%
%TO.N,Net-(C2-Pad1)*%
X66000000Y20425000D03*
%TD*%
D11*
%TO.P,C23,1*%
%TO.N,5VLNA*%
X75750000Y31725000D03*
%TO.P,C23,2*%
%TO.N,GND*%
X75750000Y28775000D03*
%TD*%
D23*
%TO.P,REF\u002A\u002A,1*%
%TO.N,N/C*%
X79100000Y3500000D03*
X79802944Y5197056D03*
X79802944Y1802944D03*
X81500000Y5900000D03*
D24*
X81500000Y3500000D03*
D23*
X81500000Y1100000D03*
X83197056Y5197056D03*
X83197056Y1802944D03*
X83900000Y3500000D03*
%TD*%
D19*
%TO.P,J3,1,Pin_1*%
%TO.N,+3.3V*%
X10210000Y45030000D03*
D20*
%TO.P,J3,2,Pin_2*%
%TO.N,GND*%
X10210000Y42490000D03*
%TO.P,J3,3,Pin_3*%
%TO.N,GPIO17*%
X10210000Y39950000D03*
%TO.P,J3,4,Pin_4*%
%TO.N,GPIO16*%
X10210000Y37410000D03*
%TO.P,J3,5,Pin_5*%
%TO.N,GPIO12*%
X10210000Y34870000D03*
%TO.P,J3,6,Pin_6*%
%TO.N,GPIO11*%
X10210000Y32330000D03*
%TD*%
D13*
%TO.P,C17,1*%
%TO.N,Net-(IC2-RCLMP)*%
X58725000Y28000000D03*
%TO.P,C17,2*%
%TO.N,GND*%
X55775000Y28000000D03*
%TD*%
D25*
%TO.P,IC3,1,VDD*%
%TO.N,+3.3V*%
X54250000Y35350000D03*
%TO.P,IC3,2,~{CS}*%
%TO.N,CS*%
X54250000Y34700000D03*
%TO.P,IC3,3,SCK*%
%TO.N,SCLK*%
X54250000Y34050000D03*
%TO.P,IC3,4,SDI*%
%TO.N,MOSI*%
X54250000Y33400000D03*
%TO.P,IC3,5,~{LDAC}*%
%TO.N,GND*%
X58650000Y33400000D03*
%TO.P,IC3,6,VOUTB*%
%TO.N,unconnected-(IC3-VOUTB-Pad6)*%
X58650000Y34050000D03*
%TO.P,IC3,7,VSS*%
%TO.N,GND*%
X58650000Y34700000D03*
%TO.P,IC3,8,VOUTA*%
%TO.N,DAC_G*%
X58650000Y35350000D03*
%TD*%
D11*
%TO.P,C10,1*%
%TO.N,Net-(IC2-LON)*%
X58800000Y40450000D03*
%TO.P,C10,2*%
%TO.N,Net-(IC2-VIN)*%
X58800000Y37500000D03*
%TD*%
D23*
%TO.P,REF\u002A\u002A,1*%
%TO.N,N/C*%
X1100000Y3500000D03*
X1802944Y5197056D03*
X1802944Y1802944D03*
X3500000Y5900000D03*
D24*
X3500000Y3500000D03*
D23*
X3500000Y1100000D03*
X5197056Y5197056D03*
X5197056Y1802944D03*
X5900000Y3500000D03*
%TD*%
D11*
%TO.P,C5,1*%
%TO.N,Net-(C5-Pad1)*%
X69500000Y40475000D03*
%TO.P,C5,2*%
%TO.N,Net-(IC2-INH)*%
X69500000Y37525000D03*
%TD*%
D26*
%TO.P,IC1,1,CLK*%
%TO.N,ADC_CLK*%
X55438000Y7062500D03*
%TO.P,IC1,2,VDDA_1*%
%TO.N,Net-(IC1-IRS)*%
X55438000Y7712500D03*
%TO.P,IC1,3,VSSA_1*%
%TO.N,GND*%
X55438000Y8362500D03*
%TO.P,IC1,4,VCOM*%
%TO.N,Net-(IC1-VCOM)*%
X55438000Y9012500D03*
%TO.P,IC1,5,IRS*%
%TO.N,Net-(IC1-IRS)*%
X55438000Y9662500D03*
%TO.P,IC1,6,VREF*%
%TO.N,Net-(IC1-VREF)*%
X55438000Y10312500D03*
%TO.P,IC1,7,VREFT*%
%TO.N,Net-(IC1-VREFT)*%
X55438000Y10962500D03*
%TO.P,IC1,8,VREFB*%
%TO.N,Net-(IC1-VREFB)*%
X55438000Y11612500D03*
%TO.P,IC1,9,VDDA_2*%
%TO.N,Net-(IC1-IRS)*%
X55438000Y12262500D03*
%TO.P,IC1,10,VDDA_3*%
X55438000Y12912500D03*
%TO.P,IC1,11,VSSA_2*%
%TO.N,GND*%
X55438000Y13562500D03*
%TO.P,IC1,12,VIN-*%
%TO.N,Net-(IC1-VIN-)*%
X55438000Y14212500D03*
%TO.P,IC1,13,VIN+*%
%TO.N,Net-(IC1-VIN+)*%
X55438000Y14862500D03*
%TO.P,IC1,14,VSSA_3*%
%TO.N,GND*%
X55438000Y15512500D03*
%TO.P,IC1,15,DF*%
X49562000Y15512500D03*
%TO.P,IC1,16,D9*%
%TO.N,D9*%
X49562000Y14862500D03*
%TO.P,IC1,17,D8*%
%TO.N,D8*%
X49562000Y14212500D03*
%TO.P,IC1,18,D7*%
%TO.N,D7*%
X49562000Y13562500D03*
%TO.P,IC1,19,D6*%
%TO.N,D6*%
X49562000Y12912500D03*
%TO.P,IC1,20,D5*%
%TO.N,D5*%
X49562000Y12262500D03*
%TO.P,IC1,21,VSSIO*%
%TO.N,GND*%
X49562000Y11612500D03*
%TO.P,IC1,22,VDDIO*%
%TO.N,+3.3V*%
X49562000Y10962500D03*
%TO.P,IC1,23,D4*%
%TO.N,D4*%
X49562000Y10312500D03*
%TO.P,IC1,24,D3*%
%TO.N,D3*%
X49562000Y9662500D03*
%TO.P,IC1,25,D2*%
%TO.N,D2*%
X49562000Y9012500D03*
%TO.P,IC1,26,D1*%
%TO.N,D1*%
X49562000Y8362500D03*
%TO.P,IC1,27,D0*%
%TO.N,D0*%
X49562000Y7712500D03*
%TO.P,IC1,28,STBY*%
%TO.N,GND*%
X49562000Y7062500D03*
%TD*%
D11*
%TO.P,C11,1*%
%TO.N,Net-(IC2-LOP)*%
X61200000Y40450000D03*
%TO.P,C11,2*%
%TO.N,Net-(IC2-VIP)*%
X61200000Y37500000D03*
%TD*%
D27*
%TO.P,J1,1,1*%
%TO.N,Net-(U1-A)*%
X71000000Y52750000D03*
D28*
%TO.P,J1,2,2*%
%TO.N,GND*%
X75250000Y51175000D03*
X66750000Y51175000D03*
%TD*%
D12*
%TO.P,C6,1*%
%TO.N,Net-(IC2-INH)*%
X67000000Y37525000D03*
%TO.P,C6,2*%
%TO.N,Net-(C6-Pad2)*%
X67000000Y40475000D03*
%TD*%
D23*
%TO.P,REF\u002A\u002A,1*%
%TO.N,N/C*%
X1100000Y50500000D03*
X1802944Y52197056D03*
X1802944Y48802944D03*
X3500000Y52900000D03*
D24*
X3500000Y50500000D03*
D23*
X3500000Y48100000D03*
X5197056Y52197056D03*
X5197056Y48802944D03*
X5900000Y50500000D03*
%TD*%
D29*
%TO.P,U1,1,A*%
%TO.N,Net-(U1-A)*%
X69412500Y50000000D03*
D30*
%TO.P,U1,2,COM*%
%TO.N,unconnected-(U1-COM-Pad2)*%
X69500000Y48500000D03*
D29*
%TO.P,U1,3,B*%
%TO.N,Net-(U1-B)*%
X69412500Y47000000D03*
%TD*%
D12*
%TO.P,C22,1*%
%TO.N,5VVGA*%
X80500000Y20525000D03*
%TO.P,C22,2*%
%TO.N,GND*%
X80500000Y23475000D03*
%TD*%
D11*
%TO.P,C24,1*%
%TO.N,5VLNA*%
X73500000Y31725000D03*
%TO.P,C24,2*%
%TO.N,GND*%
X73500000Y28775000D03*
%TD*%
D22*
%TO.P,FB2,1*%
%TO.N,Net-(U1-B)*%
X69500000Y45325000D03*
%TO.P,FB2,2*%
%TO.N,Net-(C5-Pad1)*%
X69500000Y42175000D03*
%TD*%
D12*
%TO.P,C12,1*%
%TO.N,Net-(IC2-INH)*%
X72000000Y37525000D03*
%TO.P,C12,2*%
%TO.N,GND*%
X72000000Y40475000D03*
%TD*%
D19*
%TO.P,J5,1,Pin_1*%
%TO.N,GND*%
X10210000Y50120000D03*
D20*
%TO.P,J5,2,Pin_2*%
%TO.N,+5V*%
X12750000Y50120000D03*
%TD*%
D16*
%TO.P,R5,1*%
%TO.N,5VVGA*%
X61250000Y20537500D03*
%TO.P,R5,2*%
%TO.N,Net-(IC2-VPOS)*%
X61250000Y23462500D03*
%TD*%
D31*
%TO.P,R10,1*%
%TO.N,Net-(IC1-VIN-)*%
X65787500Y13750000D03*
%TO.P,R10,2*%
%TO.N,TO_ADC_L*%
X68712500Y13750000D03*
%TD*%
D11*
%TO.P,C18,1*%
%TO.N,DAC_G*%
X61500000Y33225000D03*
%TO.P,C18,2*%
%TO.N,GND*%
X61500000Y30275000D03*
%TD*%
D10*
%TO.P,C16,1*%
%TO.N,Net-(IC1-VREFB)*%
X61525000Y9250000D03*
%TO.P,C16,2*%
%TO.N,GND*%
X64475000Y9250000D03*
%TD*%
D19*
%TO.P,J7,1,Pin_1*%
%TO.N,GND*%
X10210000Y4390000D03*
D20*
%TO.P,J7,2,Pin_2*%
%TO.N,+5V*%
X12750000Y4390000D03*
%TD*%
D16*
%TO.P,R6,1*%
%TO.N,5VVGA*%
X59000000Y20537500D03*
%TO.P,R6,2*%
%TO.N,Net-(IC2-HILO)*%
X59000000Y23462500D03*
%TD*%
D15*
%TO.P,R4,1*%
%TO.N,VOH*%
X63750000Y23462500D03*
%TO.P,R4,2*%
%TO.N,Net-(C2-Pad1)*%
X63750000Y20537500D03*
%TD*%
%TO.P,R8,1*%
%TO.N,VOL*%
X71000000Y23462500D03*
%TO.P,R8,2*%
%TO.N,Net-(C9-Pad1)*%
X71000000Y20537500D03*
%TD*%
D32*
%TO.P,U2,1,GPIO0*%
%TO.N,ADC_CLK*%
X38290000Y2370000D03*
%TO.P,U2,2,GPIO1*%
%TO.N,D0*%
X38290000Y4910000D03*
%TO.P,U2,3,GND*%
%TO.N,GND*%
X38290000Y7450000D03*
%TO.P,U2,4,GPIO2*%
%TO.N,D1*%
X38290000Y9990000D03*
%TO.P,U2,5,GPIO3*%
%TO.N,D2*%
X38290000Y12530000D03*
%TO.P,U2,6,GPIO4*%
%TO.N,D3*%
X38290000Y15070000D03*
%TO.P,U2,7,GPIO5*%
%TO.N,D4*%
X38290000Y17610000D03*
%TO.P,U2,8,GND*%
%TO.N,GND*%
X38290000Y20150000D03*
%TO.P,U2,9,GPIO6*%
%TO.N,D5*%
X38290000Y22690000D03*
%TO.P,U2,10,GPIO7*%
%TO.N,D6*%
X38290000Y25230000D03*
%TO.P,U2,11,GPIO8*%
%TO.N,D7*%
X38290000Y27770000D03*
%TO.P,U2,12,GPIO9*%
%TO.N,D8*%
X38290000Y30310000D03*
%TO.P,U2,13,GND*%
%TO.N,GND*%
X38290000Y32850000D03*
%TO.P,U2,14,GPIO10*%
%TO.N,D9*%
X38290000Y35390000D03*
%TO.P,U2,15,GPIO11*%
%TO.N,GPIO11*%
X38290000Y37930000D03*
%TO.P,U2,16,GPIO12*%
%TO.N,GPIO12*%
X38290000Y40470000D03*
%TO.P,U2,17,GPIO13*%
%TO.N,CS*%
X38290000Y43010000D03*
%TO.P,U2,18,GND*%
%TO.N,GND*%
X38290000Y45550000D03*
%TO.P,U2,19,GPIO14*%
%TO.N,SCLK*%
X38290000Y48090000D03*
%TO.P,U2,20,GPIO15*%
%TO.N,MOSI*%
X38290000Y50630000D03*
%TO.P,U2,21,GPIO16*%
%TO.N,GPIO16*%
X18710000Y50630000D03*
%TO.P,U2,22,GPIO17*%
%TO.N,GPIO17*%
X18710000Y48090000D03*
%TO.P,U2,23,GND*%
%TO.N,GND*%
X18710000Y45550000D03*
%TO.P,U2,24,GPIO18*%
%TO.N,GPIO18*%
X18710000Y43010000D03*
%TO.P,U2,25,GPIO19*%
%TO.N,GPIO19*%
X18710000Y40470000D03*
%TO.P,U2,26,GPIO20*%
%TO.N,GPIO20*%
X18710000Y37930000D03*
%TO.P,U2,27,GPIO21*%
%TO.N,GPIO21*%
X18710000Y35390000D03*
%TO.P,U2,28,GND*%
%TO.N,GND*%
X18710000Y32850000D03*
%TO.P,U2,29,GPIO22*%
%TO.N,GPIO22*%
X18710000Y30310000D03*
%TO.P,U2,30,RUN*%
%TO.N,unconnected-(U2-RUN-Pad30)*%
X18710000Y27770000D03*
%TO.P,U2,31,GPIO26_ADC0*%
%TO.N,GPIO26*%
X18710000Y25230000D03*
%TO.P,U2,32,GPIO27_ADC1*%
%TO.N,GPIO27*%
X18710000Y22690000D03*
%TO.P,U2,33,AGND*%
%TO.N,GND*%
X18710000Y20150000D03*
%TO.P,U2,34,GPIO28_ADC2*%
%TO.N,GPIO28*%
X18710000Y17610000D03*
%TO.P,U2,35,ADC_VREF*%
%TO.N,unconnected-(U2-ADC_VREF-Pad35)*%
X18710000Y15070000D03*
%TO.P,U2,36,3V3*%
%TO.N,unconnected-(U2-3V3-Pad36)*%
X18710000Y12530000D03*
%TO.P,U2,37,3V3_EN*%
%TO.N,unconnected-(U2-3V3_EN-Pad37)*%
X18710000Y9990000D03*
%TO.P,U2,38,GND*%
%TO.N,GND*%
X18710000Y7450000D03*
%TO.P,U2,39,VSYS*%
%TO.N,unconnected-(U2-VSYS-Pad39)*%
X18710000Y4910000D03*
%TO.P,U2,40,VBUS*%
%TO.N,+5V*%
X18710000Y2370000D03*
D33*
%TO.P,U2,41,SWCLK*%
%TO.N,SWCLK*%
X31040000Y51300000D03*
%TO.P,U2,42,GND*%
%TO.N,GND*%
X28500000Y51300000D03*
%TO.P,U2,43,SWDIO*%
%TO.N,SWDIO*%
X25960000Y51300000D03*
%TD*%
D23*
%TO.P,REF\u002A\u002A,1*%
%TO.N,N/C*%
X79100000Y50500000D03*
X79802944Y52197056D03*
X79802944Y48802944D03*
X81500000Y52900000D03*
D24*
X81500000Y50500000D03*
D23*
X81500000Y48100000D03*
X83197056Y52197056D03*
X83197056Y48802944D03*
X83900000Y50500000D03*
%TD*%
D13*
%TO.P,C19,1*%
%TO.N,Net-(IC2-VCM)*%
X58725000Y30500000D03*
%TO.P,C19,2*%
%TO.N,GND*%
X55775000Y30500000D03*
%TD*%
D10*
%TO.P,C14,1*%
%TO.N,Net-(IC1-VREF)*%
X61525000Y4750000D03*
%TO.P,C14,2*%
%TO.N,GND*%
X64475000Y4750000D03*
%TD*%
D31*
%TO.P,R11,1*%
%TO.N,Net-(IC1-VIN+)*%
X65787500Y16000000D03*
%TO.P,R11,2*%
%TO.N,TO_ADC_H*%
X68712500Y16000000D03*
%TD*%
D10*
%TO.P,C2,1*%
%TO.N,Net-(C2-Pad1)*%
X65775000Y18250000D03*
%TO.P,C2,2*%
%TO.N,TO_ADC_H*%
X68725000Y18250000D03*
%TD*%
D16*
%TO.P,R2,1*%
%TO.N,5VVGA*%
X75500000Y20537500D03*
%TO.P,R2,2*%
%TO.N,Net-(IC2-ENBL)*%
X75500000Y23462500D03*
%TD*%
D19*
%TO.P,J6,1,Pin_1*%
%TO.N,+3.3V*%
X12750000Y22170000D03*
D20*
%TO.P,J6,2,Pin_2*%
X10210000Y22170000D03*
%TO.P,J6,3,Pin_3*%
%TO.N,GND*%
X12750000Y19630000D03*
%TO.P,J6,4,Pin_4*%
X10210000Y19630000D03*
%TO.P,J6,5,Pin_5*%
%TO.N,GPIO21*%
X12750000Y17090000D03*
%TO.P,J6,6,Pin_6*%
%TO.N,GPIO28*%
X10210000Y17090000D03*
%TO.P,J6,7,Pin_7*%
%TO.N,GPIO20*%
X12750000Y14550000D03*
%TO.P,J6,8,Pin_8*%
%TO.N,GPIO27*%
X10210000Y14550000D03*
%TO.P,J6,9,Pin_9*%
%TO.N,GPIO19*%
X12750000Y12010000D03*
%TO.P,J6,10,Pin_10*%
%TO.N,GPIO26*%
X10210000Y12010000D03*
%TO.P,J6,11,Pin_11*%
%TO.N,GPIO18*%
X12750000Y9470000D03*
%TO.P,J6,12,Pin_12*%
%TO.N,GPIO22*%
X10210000Y9470000D03*
%TD*%
D13*
%TO.P,C1,1*%
%TO.N,GND*%
X74975000Y35500000D03*
%TO.P,C1,2*%
%TO.N,Net-(IC2-LMD)*%
X72025000Y35500000D03*
%TD*%
D34*
%TO.N,GND*%
X59500000Y13000000D03*
X1500000Y10690000D03*
X83500000Y38630000D03*
X63500000Y42250000D03*
X56500000Y32500000D03*
X57250000Y16000000D03*
X83500000Y28470000D03*
X83500000Y41170000D03*
X21750000Y50000000D03*
X74500000Y26750000D03*
X52750000Y27500000D03*
X70040000Y1500000D03*
X59250000Y16000000D03*
X26000000Y28500000D03*
X1500000Y38630000D03*
X66000000Y7000000D03*
X30750000Y10500000D03*
X60250000Y52500000D03*
X63750000Y44250000D03*
X77750000Y48250000D03*
X49500000Y17250000D03*
X72580000Y1500000D03*
X30750000Y33500000D03*
X61250000Y17750000D03*
X45250000Y32250000D03*
X42750000Y34750000D03*
X74250000Y37500000D03*
X64000000Y52500000D03*
X55750000Y3000000D03*
X66750000Y29750000D03*
X83500000Y31010000D03*
X1500000Y33550000D03*
X1500000Y23390000D03*
X64000000Y50750000D03*
X83500000Y43710000D03*
X21750000Y1500000D03*
X74250000Y40500000D03*
X51250000Y9500000D03*
X71500000Y45750000D03*
X35250000Y46250000D03*
X83500000Y17500000D03*
X49500000Y1500000D03*
X73000000Y16750000D03*
X26250000Y20750000D03*
X52750000Y5750000D03*
X58150000Y6000000D03*
X69500000Y11750000D03*
X21750000Y20750000D03*
X35000000Y1500000D03*
X43000000Y37250000D03*
X66000000Y9250000D03*
X1500000Y46250000D03*
X83500000Y33550000D03*
X30750000Y46250000D03*
X51250000Y15512500D03*
X78250000Y18750000D03*
X77250000Y1500000D03*
X78000000Y7750000D03*
X76750000Y46500000D03*
X56750000Y52500000D03*
X30750000Y37500000D03*
X1500000Y31010000D03*
X63750000Y29750000D03*
X57250000Y7912500D03*
X54500000Y48500000D03*
X1500000Y13230000D03*
X58150000Y3750000D03*
X61500000Y11250000D03*
X81000000Y25250000D03*
X51000000Y3000000D03*
X1500000Y25930000D03*
X26000000Y23750000D03*
X50500000Y45250000D03*
X21750000Y38670000D03*
X1500000Y8150000D03*
X50250000Y5750000D03*
X71250000Y29750000D03*
X1500000Y20850000D03*
X75750000Y18750000D03*
X21750000Y47000000D03*
X68250000Y29750000D03*
X75120000Y1500000D03*
X56500000Y34000000D03*
X21750000Y33590000D03*
X66000000Y2500000D03*
X55300000Y17700000D03*
X21750000Y23750000D03*
X83500000Y36090000D03*
X61500000Y13000000D03*
X63750000Y46250000D03*
X57250000Y13000000D03*
X66250000Y42250000D03*
X77000000Y33500000D03*
X26250000Y10500000D03*
X48750000Y25250000D03*
X52750000Y30000000D03*
X30750000Y40750000D03*
X55500000Y5750000D03*
X83500000Y46250000D03*
X30750000Y28500000D03*
X35000000Y5510000D03*
X26000000Y40500000D03*
X76500000Y25000000D03*
X44950000Y37250000D03*
X51250000Y12512500D03*
X83500000Y14960000D03*
X1500000Y15770000D03*
X52750000Y1500000D03*
X64000000Y48750000D03*
X1500000Y36090000D03*
X50500000Y25250000D03*
X79500000Y27250000D03*
X65500000Y11750000D03*
X35000000Y15670000D03*
X73000000Y18750000D03*
X21750000Y5510000D03*
X69750000Y29750000D03*
X71500000Y42000000D03*
X60250000Y43250000D03*
X47000000Y29850000D03*
X47000000Y18250000D03*
X35000000Y10590000D03*
X21750000Y10590000D03*
X54750000Y45250000D03*
X83500000Y7750000D03*
X83500000Y12420000D03*
X52750000Y8250000D03*
X80250000Y46500000D03*
X56500000Y42500000D03*
X30750000Y15750000D03*
X21750000Y43750000D03*
X83500000Y9880000D03*
X21750000Y15670000D03*
X59750000Y1500000D03*
X55750000Y1500000D03*
X80750000Y7750000D03*
X77250000Y52500000D03*
X35000000Y20750000D03*
X30750000Y20750000D03*
X71750000Y26750000D03*
X47000000Y25250000D03*
X56500000Y38500000D03*
X1500000Y28470000D03*
X72000000Y13750000D03*
X66000000Y4750000D03*
X63000000Y17750000D03*
X1500000Y18310000D03*
X52750000Y9500000D03*
X57250000Y17750000D03*
X77000000Y35500000D03*
X73250000Y46500000D03*
X21750000Y28510000D03*
X1500000Y41170000D03*
X61250000Y16000000D03*
X67500000Y1500000D03*
X59250000Y17750000D03*
X1500000Y43710000D03*
X26250000Y15750000D03*
X51250000Y8250000D03*
X65250000Y29750000D03*
X61500000Y28500000D03*
X28500000Y48550000D03*
X56500000Y35500000D03*
X35000000Y23750000D03*
X26000000Y33500000D03*
X43750000Y39400000D03*
%TO.N,+3.3V*%
X54112500Y41937500D03*
X52250000Y25500000D03*
%TO.N,5VVGA*%
X59000000Y19250000D03*
X61250000Y19250000D03*
X80500000Y19050000D03*
%TO.N,+5V*%
X83000000Y25250000D03*
X80500000Y29500000D03*
%TO.N,GPIO21*%
X16250000Y34500000D03*
%TO.N,GPIO18*%
X16250000Y42250000D03*
%TO.N,GPIO19*%
X16250000Y39750000D03*
%TO.N,GPIO11*%
X41000000Y38750000D03*
%TO.N,GPIO12*%
X41000000Y41000000D03*
%TO.N,GPIO20*%
X16250000Y37250000D03*
%TO.N,CS*%
X41050000Y43800000D03*
X51750000Y34700000D03*
%TO.N,SCLK*%
X52550000Y33800000D03*
X41000000Y46500000D03*
%TO.N,MOSI*%
X51750000Y32900000D03*
X40995000Y49000000D03*
%TD*%
D35*
%TO.N,GND*%
X57250000Y16000000D02*
X57250000Y16250000D01*
X57237500Y13000000D02*
X57000000Y12762500D01*
D36*
X50850000Y11612500D02*
X51250000Y12012500D01*
D37*
X65010000Y32965000D02*
X65010000Y31260000D01*
X68210000Y29710000D02*
X68210000Y27535000D01*
X66930000Y32965000D02*
X66930000Y31070000D01*
D36*
X49562000Y17188000D02*
X49500000Y17250000D01*
D35*
X51250000Y12012500D02*
X51250000Y12512500D01*
D36*
X56800000Y8362500D02*
X55438000Y8362500D01*
X58650000Y33400000D02*
X57200000Y33400000D01*
D37*
X68250000Y29750000D02*
X68210000Y29710000D01*
X70130000Y29370000D02*
X70130000Y27535000D01*
D36*
X49562000Y11612500D02*
X50850000Y11612500D01*
X49562000Y7062500D02*
X49562000Y6062000D01*
X49562000Y15512500D02*
X51250000Y15512500D01*
X55438000Y15512500D02*
X55438000Y16688000D01*
D35*
X55438000Y16688000D02*
X55500000Y16750000D01*
X55787500Y25750000D02*
X55787500Y25462500D01*
X55787500Y25462500D02*
X56750000Y24500000D01*
D36*
X58650000Y34700000D02*
X56750000Y34700000D01*
X56762500Y15512500D02*
X57250000Y16000000D01*
X56687500Y13562500D02*
X55438000Y13562500D01*
X55438000Y15512500D02*
X56762500Y15512500D01*
X57250000Y7912500D02*
X56800000Y8362500D01*
D35*
X56700000Y34650000D02*
X56750000Y34700000D01*
X56750000Y24500000D02*
X56750000Y23475000D01*
D36*
X57250000Y13000000D02*
X56687500Y13562500D01*
D35*
X57250000Y13000000D02*
X57237500Y13000000D01*
D36*
X49562000Y15512500D02*
X49562000Y17188000D01*
X49562000Y7062500D02*
X51312500Y7062500D01*
D35*
X51312500Y7062500D02*
X52000000Y7750000D01*
D37*
X69750000Y29750000D02*
X70130000Y29370000D01*
D38*
%TO.N,Net-(IC2-LMD)*%
X70130000Y32965000D02*
X70130000Y34880000D01*
X70130000Y34880000D02*
X70750000Y35500000D01*
X70750000Y35500000D02*
X72025000Y35500000D01*
%TO.N,Net-(C2-Pad1)*%
X65775000Y18250000D02*
X64500000Y18250000D01*
X63750000Y19000000D02*
X63750000Y20537500D01*
X63750000Y20537500D02*
X65887500Y20537500D01*
X64500000Y18250000D02*
X63750000Y19000000D01*
X65887500Y20537500D02*
X66000000Y20425000D01*
%TO.N,TO_ADC_H*%
X68712500Y18237500D02*
X68712500Y16000000D01*
X68725000Y18250000D02*
X68712500Y18237500D01*
D35*
%TO.N,Net-(IC1-IRS)*%
X54500000Y20775000D02*
X56750000Y20775000D01*
D36*
X53912500Y12912500D02*
X53900000Y12900000D01*
X54450000Y9662500D02*
X53962500Y9662500D01*
X54150000Y9662500D02*
X53900000Y9912500D01*
X54263000Y12912500D02*
X53975500Y13200000D01*
X54000000Y12600000D02*
X54075000Y12675000D01*
X53900000Y9600000D02*
X53900000Y9912500D01*
X55438000Y12262500D02*
X54400000Y12262500D01*
D35*
X54500000Y20775000D02*
X54487500Y20787500D01*
D36*
X54350000Y12912500D02*
X54312500Y12912500D01*
X54400000Y12262500D02*
X54312500Y12262500D01*
X53900000Y20175000D02*
X54500000Y20775000D01*
X54075000Y12675000D02*
X53900000Y12500000D01*
X54400000Y12262500D02*
X53937500Y12262500D01*
X53937500Y12262500D02*
X53900000Y12300000D01*
X54312500Y12262500D02*
X53900000Y11850000D01*
X54437500Y9662500D02*
X53900000Y10200000D01*
X53962500Y9662500D02*
X53900000Y9600000D01*
X54312500Y12912500D02*
X54075000Y12675000D01*
X54400000Y12262500D02*
X54337500Y12262500D01*
X54437500Y7712500D02*
X55438000Y7712500D01*
X55438000Y12912500D02*
X54350000Y12912500D01*
X53900000Y12500000D02*
X53900000Y20175000D01*
D35*
X54487500Y20787500D02*
X52250000Y20787500D01*
D36*
X53900000Y9200000D02*
X53900000Y8250000D01*
X53900000Y8250000D02*
X54437500Y7712500D01*
X55438000Y9662500D02*
X54450000Y9662500D01*
X54350000Y12912500D02*
X54263000Y12912500D01*
X53900000Y10200000D02*
X53900000Y11850000D01*
X54350000Y12912500D02*
X53912500Y12912500D01*
X54362500Y9662500D02*
X53900000Y9200000D01*
X53900000Y9912500D02*
X53900000Y10200000D01*
X54450000Y9662500D02*
X54362500Y9662500D01*
X54450000Y9662500D02*
X54150000Y9662500D01*
X53900000Y11850000D02*
X53900000Y12500000D01*
X54337500Y12262500D02*
X54000000Y12600000D01*
X54450000Y9662500D02*
X54437500Y9662500D01*
X53900000Y9912500D02*
X53900000Y9200000D01*
D38*
%TO.N,Net-(C5-Pad1)*%
X69500000Y42175000D02*
X69500000Y40475000D01*
%TO.N,Net-(IC2-INH)*%
X69500000Y37525000D02*
X72000000Y37525000D01*
X69490000Y32965000D02*
X69490000Y37515000D01*
X69490000Y37515000D02*
X69500000Y37525000D01*
X67000000Y37525000D02*
X69500000Y37525000D01*
%TO.N,Net-(C6-Pad2)*%
X64506250Y40462500D02*
X66743750Y40462500D01*
D35*
%TO.N,+3.3V*%
X52250000Y23250000D02*
X49775000Y20775000D01*
X54087500Y37662500D02*
X54412500Y37337500D01*
X51962500Y10962500D02*
X49562000Y10962500D01*
X52500000Y11500000D02*
X51962500Y10962500D01*
X54250000Y37500000D02*
X54250000Y35350000D01*
X47500000Y20775000D02*
X47750000Y20525000D01*
X52500000Y16500000D02*
X52500000Y11500000D01*
X54112500Y37687500D02*
X54087500Y37662500D01*
X54112500Y40012500D02*
X54112500Y37687500D01*
X47750000Y19500000D02*
X48500000Y18750000D01*
X48500000Y18750000D02*
X50250000Y18750000D01*
X54087500Y37662500D02*
X54250000Y37500000D01*
D39*
X52250000Y25500000D02*
X52250000Y23712500D01*
X54112500Y40012500D02*
X54112500Y41937500D01*
D35*
X52250000Y23712500D02*
X52250000Y23250000D01*
X47750000Y20525000D02*
X47750000Y19500000D01*
X50250000Y18750000D02*
X52500000Y16500000D01*
X49775000Y20775000D02*
X47500000Y20775000D01*
D38*
%TO.N,Net-(C9-Pad1)*%
X70887500Y20425000D02*
X71000000Y20537500D01*
X68500000Y20425000D02*
X70887500Y20425000D01*
X71000000Y20425000D02*
X71000000Y18725000D01*
X68500000Y20425000D02*
X71000000Y20425000D01*
%TO.N,TO_ADC_L*%
X71000000Y15775000D02*
X71000000Y14500000D01*
X70250000Y13750000D02*
X68712500Y13750000D01*
X71000000Y14500000D02*
X70250000Y13750000D01*
%TO.N,Net-(IC2-LON)*%
X60150000Y41800000D02*
X58800000Y40450000D01*
X63250000Y39250000D02*
X63250000Y40700000D01*
X64750000Y37750000D02*
X63250000Y39250000D01*
X68210000Y34290000D02*
X66025000Y36475000D01*
X64750000Y37537500D02*
X64750000Y37750000D01*
X65250000Y36475000D02*
X64750000Y36975000D01*
X63250000Y40700000D02*
X62150000Y41800000D01*
X66025000Y36475000D02*
X65250000Y36475000D01*
X68210000Y32965000D02*
X68210000Y34290000D01*
X64750000Y36975000D02*
X64750000Y37537500D01*
X62150000Y41800000D02*
X60150000Y41800000D01*
%TO.N,Net-(IC2-VIN)*%
X59000000Y37500000D02*
X58800000Y37500000D01*
X65650000Y32965000D02*
X65650000Y33950000D01*
X65650000Y33950000D02*
X64950000Y34650000D01*
X61850000Y34650000D02*
X59000000Y37500000D01*
X64950000Y34650000D02*
X61850000Y34650000D01*
%TO.N,Net-(IC2-LOP)*%
X64375000Y35850000D02*
X62600000Y37625000D01*
X62600000Y39050000D02*
X61200000Y40450000D01*
X62600000Y37625000D02*
X62600000Y39050000D01*
X65800000Y35850000D02*
X64375000Y35850000D01*
X67570000Y34080000D02*
X65800000Y35850000D01*
X67570000Y32965000D02*
X67570000Y34080000D01*
%TO.N,Net-(IC2-VIP)*%
X66290000Y34160000D02*
X65200000Y35250000D01*
X65200000Y35250000D02*
X63450000Y35250000D01*
X66290000Y32965000D02*
X66290000Y34160000D01*
X63450000Y35250000D02*
X61200000Y37500000D01*
%TO.N,Net-(IC1-VCOM)*%
X57937500Y9012500D02*
X59250000Y7700000D01*
X59250000Y4350000D02*
X61100000Y2500000D01*
X55438000Y9012500D02*
X57937500Y9012500D01*
X61100000Y2500000D02*
X61525000Y2500000D01*
X59250000Y7700000D02*
X59250000Y4350000D01*
%TO.N,Net-(IC1-VREF)*%
X55925000Y10337500D02*
X55438000Y10337500D01*
X59850000Y6150000D02*
X61250000Y4750000D01*
X61250000Y4750000D02*
X61525000Y4750000D01*
X57737500Y10312500D02*
X59850000Y8200000D01*
X59850000Y8200000D02*
X59850000Y6150000D01*
X55438000Y10312500D02*
X57737500Y10312500D01*
%TO.N,Net-(IC1-VREFT)*%
X60450000Y7800000D02*
X61250000Y7000000D01*
X58537500Y10962500D02*
X60450000Y9050000D01*
X61250000Y7000000D02*
X61525000Y7000000D01*
X60450000Y9050000D02*
X60450000Y7800000D01*
X55438000Y10962500D02*
X58537500Y10962500D01*
%TO.N,Net-(IC1-VREFB)*%
X58887500Y11612500D02*
X61250000Y9250000D01*
X61250000Y9250000D02*
X61525000Y9250000D01*
X55438000Y11612500D02*
X58887500Y11612500D01*
%TO.N,Net-(IC2-RCLMP)*%
X58712500Y27712500D02*
X58712500Y25750000D01*
X64400000Y25875000D02*
X58837500Y25875000D01*
X58750000Y27750000D02*
X58712500Y27712500D01*
X58725000Y28000000D02*
X58725000Y27775000D01*
X65010000Y27535000D02*
X65010000Y26485000D01*
X65010000Y26485000D02*
X64400000Y25875000D01*
X58837500Y25875000D02*
X58712500Y25750000D01*
X58725000Y27775000D02*
X58750000Y27750000D01*
%TO.N,DAC_G*%
X62625000Y33225000D02*
X63421426Y34021426D01*
X60150000Y35350000D02*
X61500000Y34000000D01*
X58650000Y35350000D02*
X60150000Y35350000D01*
X63421426Y34021426D02*
X63978574Y34021426D01*
X61500000Y33225000D02*
X62625000Y33225000D01*
X63978574Y34021426D02*
X64370000Y33630000D01*
X64370000Y33630000D02*
X64370000Y32965000D01*
X61500000Y34000000D02*
X61500000Y33225000D01*
%TO.N,Net-(IC2-VCM)*%
X58725000Y30500000D02*
X58725000Y30275000D01*
X64370000Y26845000D02*
X64370000Y27535000D01*
X60250000Y27750000D02*
X61525000Y26475000D01*
X58725000Y30275000D02*
X60250000Y28750000D01*
X61525000Y26475000D02*
X64000000Y26475000D01*
X64000000Y26475000D02*
X64370000Y26845000D01*
X60250000Y28750000D02*
X60250000Y27750000D01*
%TO.N,Net-(IC1-VIN-)*%
X55438000Y14212500D02*
X62287500Y14212500D01*
X63225000Y13275000D02*
X63750000Y13275000D01*
X65287500Y13250000D02*
X63775000Y13250000D01*
X62287500Y14212500D02*
X63225000Y13275000D01*
X65787500Y13750000D02*
X65287500Y13250000D01*
X63775000Y13250000D02*
X63750000Y13275000D01*
%TO.N,Net-(IC1-VIN+)*%
X63750000Y16225000D02*
X65562500Y16225000D01*
X65562500Y16225000D02*
X65787500Y16000000D01*
X63662500Y16225000D02*
X63750000Y16225000D01*
X62300000Y14862500D02*
X63662500Y16225000D01*
X55438000Y14862500D02*
X62300000Y14862500D01*
D35*
%TO.N,5VVGA*%
X77987500Y20537500D02*
X78000000Y20525000D01*
D39*
X75500000Y20537500D02*
X77987500Y20537500D01*
X73250000Y20537500D02*
X75500000Y20537500D01*
X78000000Y20525000D02*
X80500000Y20525000D01*
D35*
X61250000Y20787500D02*
X61250000Y19250000D01*
D39*
X80500000Y19050000D02*
X80500000Y20525000D01*
D35*
X80500000Y20525000D02*
X80600000Y20425000D01*
X59000000Y20800000D02*
X59000000Y19250000D01*
D39*
X82900000Y20525000D02*
X80500000Y20525000D01*
D35*
%TO.N,5VLNA*%
X73500000Y31725000D02*
X75750000Y31725000D01*
X75750000Y31725000D02*
X77875000Y31725000D01*
D36*
X68850000Y31650000D02*
X69250000Y31250000D01*
D35*
X69250000Y31250000D02*
X73025000Y31250000D01*
X77875000Y31725000D02*
X78000000Y31850000D01*
X73025000Y31250000D02*
X73500000Y31725000D01*
D36*
X68850000Y32965000D02*
X68850000Y31650000D01*
D38*
%TO.N,Net-(U1-B)*%
X67700000Y45250000D02*
X69100000Y45250000D01*
X69412500Y47000000D02*
X69412500Y45737500D01*
X69100000Y45250000D02*
X69500000Y45650000D01*
X69412500Y45737500D02*
X69500000Y45650000D01*
%TO.N,VOH*%
X63750000Y23462500D02*
X65887500Y23462500D01*
X65887500Y23462500D02*
X66000000Y23575000D01*
X66000000Y24750000D02*
X66930000Y25680000D01*
X66000000Y23575000D02*
X66000000Y24750000D01*
X66930000Y25680000D02*
X66930000Y27535000D01*
%TO.N,VOL*%
X68500000Y23575000D02*
X70887500Y23575000D01*
X68500000Y23575000D02*
X68500000Y24750000D01*
X70887500Y23575000D02*
X71000000Y23462500D01*
X67570000Y25680000D02*
X67570000Y27535000D01*
X68500000Y24750000D02*
X67570000Y25680000D01*
D39*
%TO.N,+5V*%
X19610000Y2370000D02*
X14880000Y2370000D01*
X83000000Y25250000D02*
X83000000Y23575000D01*
X80500000Y29500000D02*
X79700000Y28700000D01*
X14880000Y2370000D02*
X12750000Y4500000D01*
X79700000Y28700000D02*
X78000000Y28700000D01*
D38*
%TO.N,ADC_CLK*%
X52850000Y3864424D02*
X52850000Y4000000D01*
X47450000Y1200000D02*
X41900000Y1200000D01*
X54050000Y3864424D02*
X54050000Y4000000D01*
X37510000Y2250000D02*
X37390000Y2370000D01*
X55438000Y7062500D02*
X56537500Y7062500D01*
X50550000Y4300000D02*
X47450000Y1200000D01*
X56537500Y7062500D02*
X57050000Y6550000D01*
X54050000Y4000000D02*
X54050000Y4558978D01*
X40850000Y2250000D02*
X37510000Y2250000D01*
X37420000Y2400000D02*
X37390000Y2370000D01*
X56300000Y4300000D02*
X54950000Y4300000D01*
X53450000Y4558978D02*
X53450000Y4300000D01*
X52550000Y4300000D02*
X50550000Y4300000D01*
X53450000Y4300000D02*
X53450000Y3864424D01*
X57050000Y5050000D02*
X56300000Y4300000D01*
X57050000Y6550000D02*
X57050000Y5050000D01*
X54650000Y4000000D02*
X54650000Y3864424D01*
X53791022Y4817956D02*
X53708978Y4817956D01*
X41900000Y1200000D02*
X40850000Y2250000D01*
X54950000Y4300000D02*
G75*
G03*
X54650000Y4000000I0J-300000D01*
G01*
X54050024Y3864424D02*
G75*
G03*
X54350000Y3564424I299976J-24D01*
G01*
X53150000Y3564400D02*
G75*
G03*
X53450000Y3864424I0J300000D01*
G01*
X52850000Y4000000D02*
G75*
G03*
X52550000Y4300000I-300000J0D01*
G01*
X54350000Y3564400D02*
G75*
G03*
X54650000Y3864424I0J300000D01*
G01*
X54049956Y4558978D02*
G75*
G03*
X53791022Y4817956I-258956J22D01*
G01*
X52850024Y3864424D02*
G75*
G03*
X53150000Y3564424I299976J-24D01*
G01*
X53708978Y4818000D02*
G75*
G03*
X53450000Y4558978I22J-259000D01*
G01*
%TO.N,D9*%
X45750000Y17500000D02*
X45750000Y30100000D01*
X45750000Y30100000D02*
X40460000Y35390000D01*
X48387500Y14862500D02*
X45750000Y17500000D01*
X40460000Y35390000D02*
X37390000Y35390000D01*
X49562000Y14862500D02*
X48387500Y14862500D01*
%TO.N,D8*%
X42490183Y29460044D02*
X42577938Y29547798D01*
X42577938Y29972062D02*
X42577939Y29972061D01*
X43214335Y29335665D02*
X42914448Y29035779D01*
X45150000Y17250000D02*
X45150000Y27400000D01*
X45150000Y27400000D02*
X44275000Y28275000D01*
X42490184Y29035779D02*
X42490183Y29035780D01*
X43850734Y28275001D02*
X43798329Y28222595D01*
X43374065Y28222595D02*
X43374063Y28222597D01*
X43638602Y28911398D02*
X43938518Y29211315D01*
X43638599Y28911400D02*
X43638602Y28911398D01*
X43938518Y29635579D02*
X43938516Y29635581D01*
X49562000Y14212500D02*
X48187500Y14212500D01*
X42240000Y30310000D02*
X37390000Y30310000D01*
X42577939Y29972061D02*
X42240000Y30310000D01*
X43850735Y28275001D02*
X43850734Y28275001D01*
X43514252Y29635581D02*
X43214335Y29335665D01*
X48187500Y14212500D02*
X45150000Y17250000D01*
X43426467Y28699268D02*
X43638599Y28911400D01*
X43374063Y28646861D02*
X43426467Y28699268D01*
X42490185Y29035780D02*
G75*
G03*
X42914447Y29035780I212131J212131D01*
G01*
X42490196Y29460031D02*
G75*
G03*
X42490184Y29035781I212104J-212131D01*
G01*
X42577968Y29547768D02*
G75*
G03*
X42577938Y29972062I-212168J212132D01*
G01*
X43938515Y29635580D02*
G75*
G03*
X43514253Y29635580I-212131J-212131D01*
G01*
X43374093Y28646831D02*
G75*
G03*
X43374064Y28222598I212107J-212131D01*
G01*
X44275033Y28275033D02*
G75*
G03*
X43850735Y28275001I-212133J-212133D01*
G01*
X43374066Y28222596D02*
G75*
G03*
X43798328Y28222596I212131J212131D01*
G01*
X43938565Y29211268D02*
G75*
G03*
X43938518Y29635579I-212165J212132D01*
G01*
%TO.N,D7*%
X47962500Y13587500D02*
X49562000Y13587500D01*
X43473189Y25004820D02*
X43473188Y25004819D01*
X42518628Y25747311D02*
X43352718Y26581405D01*
X42928441Y27005648D02*
X42928442Y27005649D01*
X41330000Y27770000D02*
X41875000Y27225000D01*
X44550000Y17000000D02*
X47962500Y13587500D01*
X43776984Y26157139D02*
X43048924Y25429083D01*
X42299264Y27225000D02*
X42504178Y27429913D01*
X44550000Y24550000D02*
X44550000Y17000000D01*
X43996317Y25103683D02*
X44550000Y24550000D01*
X42518629Y25747312D02*
X42518628Y25747311D01*
X42299265Y27225001D02*
X42299264Y27225000D01*
X43776983Y26157138D02*
X43776984Y26157139D01*
X43996316Y25103684D02*
X43996317Y25103683D01*
X42928442Y27005649D02*
X42094364Y26171575D01*
X37390000Y27770000D02*
X41330000Y27770000D01*
X43473188Y25004819D02*
X43572052Y25103684D01*
X43048968Y25004863D02*
G75*
G03*
X43473189Y25004820I212132J212137D01*
G01*
X43776954Y26157167D02*
G75*
G03*
X43776984Y26581403I-212154J212133D01*
G01*
X42094407Y26171532D02*
G75*
G03*
X42094364Y25747311I212093J-212132D01*
G01*
X43048875Y25429131D02*
G75*
G03*
X43048925Y25004820I212225J-212131D01*
G01*
X42928441Y27429912D02*
G75*
G03*
X42504179Y27429912I-212131J-212131D01*
G01*
X42928422Y27005667D02*
G75*
G03*
X42928442Y27429913I-212122J212133D01*
G01*
X43776934Y26581353D02*
G75*
G03*
X43352718Y26581405I-212134J-212053D01*
G01*
X43996315Y25103683D02*
G75*
G03*
X43572053Y25103683I-212131J-212131D01*
G01*
X42094369Y25747316D02*
G75*
G03*
X42518628Y25747313I212131J212084D01*
G01*
X41874969Y27224969D02*
G75*
G03*
X42299264Y27225002I212131J212131D01*
G01*
%TO.N,D6*%
X42691684Y24021839D02*
X41798889Y23129048D01*
X41737082Y24764289D02*
X40879669Y23906880D01*
X41149265Y25025001D02*
X41149264Y25025000D01*
X41303934Y23482617D02*
X41303933Y23482616D01*
X41737081Y24764288D02*
X41737082Y24764289D01*
X43950000Y21800000D02*
X43950000Y16750000D01*
X41303933Y23482616D02*
X42267418Y24446105D01*
X42691683Y24021838D02*
X42691684Y24021839D01*
X40520000Y25230000D02*
X40725000Y25025000D01*
X43270579Y22479421D02*
X43270580Y22479420D01*
X43950000Y16750000D02*
X47787500Y12912500D01*
X47787500Y12912500D02*
X49562000Y12912500D01*
X42223154Y22704785D02*
X42223153Y22704784D01*
X42223153Y22704784D02*
X43115919Y23597554D01*
X43540184Y23173287D02*
X43540185Y23173288D01*
X41149264Y25025000D02*
X41312818Y25188553D01*
X42907286Y24251413D02*
X42907284Y24251415D01*
X43540185Y23173288D02*
X43270579Y22903685D01*
X37390000Y25230000D02*
X40520000Y25230000D01*
X43270580Y22479420D02*
X43950000Y21800000D01*
X43540234Y23597601D02*
G75*
G03*
X43115919Y23597554I-212134J-212201D01*
G01*
X40879717Y23906832D02*
G75*
G03*
X40879669Y23482616I212083J-212132D01*
G01*
X42691654Y24021867D02*
G75*
G03*
X42691684Y24446103I-212154J212133D01*
G01*
X40879669Y23482616D02*
G75*
G03*
X41303933Y23482618I212131J212084D01*
G01*
X41798906Y23129031D02*
G75*
G03*
X41798890Y22704785I212094J-212131D01*
G01*
X43270532Y22903732D02*
G75*
G03*
X43270579Y22479421I212168J-212132D01*
G01*
X40724969Y25024969D02*
G75*
G03*
X41149264Y25025002I212131J212131D01*
G01*
X42691634Y24446053D02*
G75*
G03*
X42267418Y24446105I-212134J-212053D01*
G01*
X41737102Y24764267D02*
G75*
G03*
X41737082Y25188553I-212202J212133D01*
G01*
X43540204Y23173267D02*
G75*
G03*
X43540185Y23597552I-212204J212133D01*
G01*
X41798868Y22704763D02*
G75*
G03*
X42223154Y22704785I212132J212137D01*
G01*
X41737081Y25188552D02*
G75*
G03*
X41312819Y25188552I-212131J-212131D01*
G01*
%TO.N,D5*%
X44624180Y14491093D02*
X44779412Y14646324D01*
X46052205Y13373530D02*
X45896944Y13218268D01*
X45203676Y14222059D02*
X45048445Y14066827D01*
X45472679Y13642534D02*
X45627941Y13797795D01*
X40910000Y22690000D02*
X37390000Y22690000D01*
X44779412Y15070588D02*
X44779413Y15070587D01*
X41095098Y21514952D02*
X41095098Y21514953D01*
X44624180Y14491092D02*
X44624180Y14491093D01*
X44779413Y15070587D02*
X43300000Y16550000D01*
X47587500Y12262500D02*
X47325000Y12525000D01*
X41802205Y21373530D02*
X41519363Y21090687D01*
X42600000Y19050000D02*
X43000000Y19050000D01*
X42650734Y20525001D02*
X42367892Y20242158D01*
X41802206Y21373530D02*
X41802205Y21373530D01*
X41095098Y21514953D02*
X41377941Y21797795D01*
X46476470Y13373530D02*
X46476471Y13373529D01*
X46321216Y12794012D02*
X46321216Y12794013D01*
X49562000Y12262500D02*
X47587500Y12262500D01*
X43300000Y20300000D02*
X43075000Y20525000D01*
X43300000Y19350000D02*
X43300000Y20000000D01*
X41377941Y22222059D02*
X41377942Y22222058D01*
X41943627Y20666423D02*
X41943627Y20666424D01*
X43000000Y18450000D02*
X42600000Y18450000D01*
X46321216Y12794013D02*
X46476470Y12949266D01*
X43000000Y17250000D02*
X42600000Y17250000D01*
X42226470Y21373530D02*
X42226471Y21373529D01*
X42600000Y17850000D02*
X43000000Y17850000D01*
X42650735Y20525001D02*
X42650734Y20525001D01*
X46900735Y12525001D02*
X46900734Y12525001D01*
X46900734Y12525001D02*
X46745481Y12369747D01*
X46052206Y13373530D02*
X46052205Y13373530D01*
X45627941Y14222059D02*
X45627942Y14222058D01*
X43300000Y20000000D02*
X43300000Y20300000D01*
X41943627Y20666424D02*
X42226470Y20949266D01*
X45472679Y13642533D02*
X45472679Y13642534D01*
X41377942Y22222058D02*
X40910000Y22690000D01*
X43300000Y16550000D02*
X43300000Y16950000D01*
X45203677Y14222059D02*
X45203676Y14222059D01*
X44624141Y14491131D02*
G75*
G03*
X44624182Y14066828I212159J-212131D01*
G01*
X42600000Y19050000D02*
G75*
G03*
X42300000Y18750000I0J-300000D01*
G01*
X41943629Y20242159D02*
G75*
G03*
X42367891Y20242159I212131J212131D01*
G01*
X46476468Y12949268D02*
G75*
G03*
X46476470Y13373530I-212168J212132D01*
G01*
X42300000Y18750000D02*
G75*
G03*
X42600000Y18450000I300000J0D01*
G01*
X41095100Y21090688D02*
G75*
G03*
X41519362Y21090688I212131J212131D01*
G01*
X41943618Y20666432D02*
G75*
G03*
X41943628Y20242158I212182J-212132D01*
G01*
X45627933Y14222049D02*
G75*
G03*
X45203677Y14222059I-212133J-212149D01*
G01*
X41377968Y21797768D02*
G75*
G03*
X41377941Y22222059I-212168J212132D01*
G01*
X42226433Y21373491D02*
G75*
G03*
X41802206Y21373530I-212133J-212091D01*
G01*
X43300000Y16950000D02*
G75*
G03*
X43000000Y17250000I-300000J0D01*
G01*
X44624182Y14066828D02*
G75*
G03*
X45048444Y14066828I212131J212131D01*
G01*
X43300000Y18150000D02*
G75*
G03*
X43000000Y18450000I-300000J0D01*
G01*
X43000000Y19050000D02*
G75*
G03*
X43300000Y19350000I0J300000D01*
G01*
X43000000Y17850000D02*
G75*
G03*
X43300000Y18150000I0J300000D01*
G01*
X44779368Y14646369D02*
G75*
G03*
X44779412Y15070588I-212068J212131D01*
G01*
X46321196Y12794032D02*
G75*
G03*
X46321217Y12369747I212104J-212132D01*
G01*
X43075033Y20525033D02*
G75*
G03*
X42650735Y20525001I-212133J-212133D01*
G01*
X42300000Y17550000D02*
G75*
G03*
X42600000Y17250000I300000J0D01*
G01*
X47325033Y12525033D02*
G75*
G03*
X46900735Y12525001I-212133J-212133D01*
G01*
X42226468Y20949268D02*
G75*
G03*
X42226470Y21373530I-212168J212132D01*
G01*
X46476433Y13373491D02*
G75*
G03*
X46052206Y13373530I-212133J-212091D01*
G01*
X45627968Y13797768D02*
G75*
G03*
X45627941Y14222059I-212168J212132D01*
G01*
X42600000Y17850000D02*
G75*
G03*
X42300000Y17550000I0J-300000D01*
G01*
X45472681Y13218269D02*
G75*
G03*
X45896943Y13218269I212131J212131D01*
G01*
X41095118Y21514932D02*
G75*
G03*
X41095099Y21090687I212082J-212132D01*
G01*
X45472680Y13642532D02*
G75*
G03*
X45472680Y13218268I212120J-212132D01*
G01*
X46321218Y12369748D02*
G75*
G03*
X46745480Y12369748I212131J212131D01*
G01*
%TO.N,D4*%
X41840068Y15959932D02*
X42097355Y16217218D01*
X42097355Y16641482D02*
X42097354Y16641483D01*
X42688599Y15111400D02*
X42688602Y15111398D01*
X45769361Y11040690D02*
X45769363Y11040689D01*
X44072303Y12737747D02*
X44072303Y12737748D01*
X42592287Y15863616D02*
X42264335Y15535665D01*
X44779410Y12596325D02*
X44496568Y12313482D01*
X47325000Y10899265D02*
X47572487Y11146753D01*
X44072303Y12737748D02*
X44355146Y13020590D01*
X47148222Y11571018D02*
X47148222Y11571017D01*
X43016553Y15863614D02*
X43016551Y15863616D01*
X45627939Y11747796D02*
X45345097Y11464953D01*
X41406036Y15525901D02*
X41840068Y15959932D01*
X47324999Y10899265D02*
X47325000Y10899265D01*
X47487500Y10312500D02*
X47325000Y10475000D01*
X43223774Y13586277D02*
X43506617Y13869119D01*
X42264335Y15535665D02*
X41830303Y15101634D01*
X42688602Y15111398D02*
X43016553Y15439350D01*
X43930882Y13444854D02*
X43930881Y13444854D01*
X42476467Y14899268D02*
X42688599Y15111400D01*
X47148222Y11571017D02*
X46193626Y10616425D01*
X43223774Y13586276D02*
X43223774Y13586277D01*
X49562000Y10312500D02*
X47487500Y10312500D01*
X46052204Y11747797D02*
X46052205Y11747795D01*
X44779411Y12596325D02*
X44779410Y12596325D01*
X41203672Y16596328D02*
X40190000Y17610000D01*
X42254547Y14677345D02*
X42476467Y14899268D01*
X42900735Y14475001D02*
X42900734Y14475001D01*
X44355146Y13444854D02*
X44355147Y13444853D01*
X45627940Y11747796D02*
X45627939Y11747796D01*
X41203671Y16596329D02*
X41203672Y16596328D01*
X45769363Y11040689D02*
X46052204Y11323533D01*
X40190000Y17610000D02*
X37390000Y17610000D01*
X42900734Y14475001D02*
X42678813Y14253079D01*
X44920832Y11889218D02*
X44920832Y11889219D01*
X41673090Y16641483D02*
X41627935Y16596329D01*
X45203675Y12596325D02*
X45203676Y12596324D01*
X43930881Y13444854D02*
X43648039Y13162011D01*
X41406039Y15101634D02*
X41406036Y15101637D01*
X43506617Y14293383D02*
X43325000Y14475000D01*
X42254549Y14253079D02*
X42254547Y14253081D01*
X44920832Y11889219D02*
X45203675Y12172061D01*
X43325033Y14475033D02*
G75*
G03*
X42900735Y14475001I-212133J-212133D01*
G01*
X46052233Y11747823D02*
G75*
G03*
X45627940Y11747796I-212133J-212123D01*
G01*
X42097405Y16217168D02*
G75*
G03*
X42097355Y16641482I-212205J212132D01*
G01*
X45769319Y11040732D02*
G75*
G03*
X45769362Y10616425I212181J-212132D01*
G01*
X42097353Y16641482D02*
G75*
G03*
X41673091Y16641482I-212131J-212131D01*
G01*
X43223776Y13162012D02*
G75*
G03*
X43648038Y13162012I212131J212131D01*
G01*
X43016535Y15439368D02*
G75*
G03*
X43016553Y15863614I-212135J212132D01*
G01*
X47572533Y11571063D02*
G75*
G03*
X47148222Y11571018I-212133J-212163D01*
G01*
X47325032Y10899231D02*
G75*
G03*
X47325000Y10475000I212068J-212131D01*
G01*
X43223818Y13586232D02*
G75*
G03*
X43223775Y13162011I212082J-212132D01*
G01*
X44355133Y13444839D02*
G75*
G03*
X43930882Y13444854I-212133J-212139D01*
G01*
X41203672Y16596330D02*
G75*
G03*
X41627934Y16596330I212131J212131D01*
G01*
X44920818Y11889232D02*
G75*
G03*
X44920833Y11464953I212182J-212132D01*
G01*
X45203633Y12596281D02*
G75*
G03*
X44779411Y12596325I-212133J-212081D01*
G01*
X46052169Y11323568D02*
G75*
G03*
X46052204Y11747797I-212069J212132D01*
G01*
X41406040Y15101635D02*
G75*
G03*
X41830302Y15101635I212131J212131D01*
G01*
X43506568Y13869169D02*
G75*
G03*
X43506617Y14293383I-212068J212131D01*
G01*
X42254560Y14677332D02*
G75*
G03*
X42254547Y14253081I212140J-212132D01*
G01*
X45769363Y10616426D02*
G75*
G03*
X46193625Y10616426I212131J212131D01*
G01*
X44920834Y11464954D02*
G75*
G03*
X45345096Y11464954I212131J212131D01*
G01*
X42254550Y14253080D02*
G75*
G03*
X42678812Y14253080I212131J212131D01*
G01*
X43016550Y15863615D02*
G75*
G03*
X42592288Y15863615I-212131J-212131D01*
G01*
X47572472Y11146768D02*
G75*
G03*
X47572487Y11571017I-212072J212132D01*
G01*
X45203668Y12172068D02*
G75*
G03*
X45203675Y12596325I-212168J212132D01*
G01*
X44072318Y12737732D02*
G75*
G03*
X44072304Y12313482I212082J-212132D01*
G01*
X44072305Y12313483D02*
G75*
G03*
X44496567Y12313483I212131J212131D01*
G01*
X41406005Y15525932D02*
G75*
G03*
X41406036Y15101637I212195J-212132D01*
G01*
X44355168Y13020568D02*
G75*
G03*
X44355146Y13444854I-212168J212132D01*
G01*
%TO.N,D3*%
X41397297Y12112755D02*
X42351888Y13067351D01*
X44331801Y10804596D02*
X43518626Y9991425D01*
X44331801Y10804597D02*
X44331801Y10804596D01*
X46875000Y9400175D02*
X46875000Y9804980D01*
X47275350Y9162849D02*
X47112325Y9162849D01*
X42634735Y12501661D02*
X41821560Y11688491D01*
X42245828Y11264223D02*
X42245830Y11264222D01*
X40380000Y15070000D02*
X37390000Y15070000D01*
X41927623Y13491615D02*
X41680135Y13244128D01*
X40750000Y14700000D02*
X40380000Y15070000D01*
X41255871Y13244128D02*
X40750000Y13750000D01*
X43483268Y11653128D02*
X42670093Y10839958D01*
X44649999Y10274265D02*
X44650000Y10274265D01*
X44650000Y10274265D02*
X44756066Y10380332D01*
X43483268Y11653129D02*
X43483268Y11653128D01*
X46275000Y9637500D02*
X46275000Y8988579D01*
X45375000Y9637500D02*
X44862500Y9637500D01*
X46875000Y9400174D02*
X46875000Y9400175D01*
X42634735Y12501662D02*
X42634735Y12501661D01*
X43094361Y10415690D02*
X43094363Y10415689D01*
X40750000Y13750000D02*
X40750000Y14700000D01*
X44862500Y9637500D02*
X44650000Y9850000D01*
X45675000Y8988579D02*
X45675000Y9337500D01*
X46707520Y9972460D02*
X46442480Y9972460D01*
X49562000Y9637500D02*
X47750000Y9637500D01*
X44756065Y10804597D02*
X44756066Y10804596D01*
X42245830Y11264222D02*
X43059000Y12077397D01*
X46275000Y9804980D02*
X46275000Y9637500D01*
X41927623Y13491616D02*
X41927623Y13491615D01*
X41397295Y12112756D02*
X41397297Y12112755D01*
X43094363Y10415689D02*
X43907533Y11228864D01*
X47512675Y9400175D02*
X47512675Y9400174D01*
X43907532Y11653127D02*
G75*
G03*
X43483269Y11653128I-212132J-212127D01*
G01*
X44756030Y10380368D02*
G75*
G03*
X44756065Y10804597I-212130J212132D01*
G01*
X44650032Y10274231D02*
G75*
G03*
X44650000Y9850000I212068J-212131D01*
G01*
X42351870Y13067369D02*
G75*
G03*
X42351887Y13491614I-212070J212131D01*
G01*
X47750000Y9637525D02*
G75*
G03*
X47512675Y9400175I0J-237325D01*
G01*
X42245819Y11264232D02*
G75*
G03*
X42245829Y10839958I212181J-212132D01*
G01*
X41255872Y13244129D02*
G75*
G03*
X41680134Y13244129I212131J212131D01*
G01*
X43094363Y9991426D02*
G75*
G03*
X43518625Y9991426I212131J212131D01*
G01*
X44756032Y10804562D02*
G75*
G03*
X44331802Y10804596I-212132J-212062D01*
G01*
X43094319Y10415732D02*
G75*
G03*
X43094362Y9991425I212181J-212132D01*
G01*
X42351933Y13491660D02*
G75*
G03*
X41927623Y13491616I-212133J-212160D01*
G01*
X45675000Y9337500D02*
G75*
G03*
X45375000Y9637500I-300000J0D01*
G01*
X43059033Y12501694D02*
G75*
G03*
X42634735Y12501662I-212133J-212194D01*
G01*
X46874949Y9400174D02*
G75*
G03*
X47112325Y9162849I237351J26D01*
G01*
X43907528Y11228869D02*
G75*
G03*
X43907532Y11653127I-212128J212131D01*
G01*
X46442480Y9972500D02*
G75*
G03*
X46275000Y9804980I20J-167500D01*
G01*
X47275350Y9162825D02*
G75*
G03*
X47512675Y9400174I-50J237375D01*
G01*
X46874960Y9804980D02*
G75*
G03*
X46707520Y9972460I-167460J20D01*
G01*
X41397297Y11688492D02*
G75*
G03*
X41821559Y11688492I212131J212131D01*
G01*
X43059028Y12077369D02*
G75*
G03*
X43058999Y12501660I-212128J212131D01*
G01*
X41397320Y12112731D02*
G75*
G03*
X41397297Y11688492I212080J-212131D01*
G01*
X45674979Y8988579D02*
G75*
G03*
X45975000Y8688579I300021J21D01*
G01*
X42245830Y10839959D02*
G75*
G03*
X42670092Y10839959I212131J212131D01*
G01*
X45975000Y8688600D02*
G75*
G03*
X46275000Y8988579I0J300000D01*
G01*
%TO.N,D2*%
X41944238Y9821445D02*
X41944239Y9821446D01*
X46827881Y7752881D02*
X48087500Y9012500D01*
X45767220Y6692217D02*
X45955288Y6504149D01*
X41449265Y10175001D02*
X41519975Y10245710D01*
X45310077Y7149363D02*
X45767220Y6692220D01*
X40700000Y12100000D02*
X40700000Y10500000D01*
X45767220Y6692220D02*
X45767220Y6692217D01*
X44499333Y6263047D02*
X44918691Y5843688D01*
X45805065Y7927167D02*
X45805066Y7927167D01*
X44282292Y5631559D02*
X44075068Y5838783D01*
X42959747Y6850000D02*
X42652882Y6850000D01*
X46379552Y6552277D02*
X46379552Y6552278D01*
X46331426Y6504150D02*
X46379552Y6552277D01*
X46379553Y6928415D02*
X45805065Y7502903D01*
X40270000Y12530000D02*
X40700000Y12100000D01*
X42652882Y7450000D02*
X42959747Y7450000D01*
X37390000Y12530000D02*
X40270000Y12530000D01*
X46403616Y7752881D02*
X46403615Y7752881D01*
X45955288Y6504149D02*
X45955289Y6504151D01*
X48087500Y9012500D02*
X49562000Y9012500D01*
X42352882Y8897118D02*
X42352882Y7750000D01*
X42352882Y5197118D02*
X42700000Y4850000D01*
X41944239Y9821446D02*
X41873527Y9750737D01*
X42352882Y6550000D02*
X42352882Y5197118D01*
X45449023Y6161889D02*
X44885813Y6725099D01*
X44075068Y6263047D02*
X44075069Y6263047D01*
X43925000Y4850000D02*
X44282291Y5207294D01*
X41783460Y9466540D02*
X42352882Y8897118D01*
X41783460Y9575172D02*
X41783460Y9466540D01*
X40700000Y10500000D02*
X41025000Y10175000D01*
X46229330Y7927167D02*
X46403616Y7752881D01*
X44918691Y5843688D02*
X45024757Y5737622D01*
X45236889Y5737622D02*
X45449022Y5949756D01*
X42700000Y4850000D02*
X43925000Y4850000D01*
X45955332Y6504194D02*
G75*
G03*
X46331425Y6504151I188068J188006D01*
G01*
X44282317Y5207268D02*
G75*
G03*
X44282291Y5631558I-212117J212132D01*
G01*
X41944238Y10245709D02*
G75*
G03*
X41519976Y10245709I-212131J-212131D01*
G01*
X41944216Y9821467D02*
G75*
G03*
X41944239Y10245710I-212116J212133D01*
G01*
X46229330Y7927167D02*
G75*
G03*
X45805065Y7927167I-212132J-212133D01*
G01*
X46379598Y6552232D02*
G75*
G03*
X46379552Y6928414I-188098J188068D01*
G01*
X46403615Y7752881D02*
G75*
G03*
X46827881Y7752881I212133J212134D01*
G01*
X44885844Y7149332D02*
G75*
G03*
X44885813Y6725099I212056J-212132D01*
G01*
X43259700Y7150000D02*
G75*
G03*
X42959747Y7450000I-300000J0D01*
G01*
X45024758Y5737623D02*
G75*
G03*
X45236888Y5737623I106065J106065D01*
G01*
X41873522Y9750742D02*
G75*
G03*
X41783461Y9575172I263678J-246142D01*
G01*
X45310076Y7149362D02*
G75*
G03*
X44885814Y7149362I-212131J-212131D01*
G01*
X42652882Y6850018D02*
G75*
G03*
X42352882Y6550000I18J-300018D01*
G01*
X44075083Y6263032D02*
G75*
G03*
X44075068Y5838783I212117J-212132D01*
G01*
X41024969Y10174969D02*
G75*
G03*
X41449264Y10175002I212131J212131D01*
G01*
X42352900Y7750000D02*
G75*
G03*
X42652882Y7450000I300000J0D01*
G01*
X45449044Y5949734D02*
G75*
G03*
X45449022Y6161888I-106044J106066D01*
G01*
X45805066Y7927167D02*
G75*
G03*
X45805065Y7927167I-1J-424266D01*
G01*
X45805100Y7927132D02*
G75*
G03*
X45805065Y7502903I212100J-212132D01*
G01*
X42959747Y6849953D02*
G75*
G03*
X43259747Y7150000I-47J300047D01*
G01*
X44499332Y6263046D02*
G75*
G03*
X44075070Y6263046I-212131J-212131D01*
G01*
%TO.N,D1*%
X40360000Y9990000D02*
X37390000Y9990000D01*
X43600000Y2851003D02*
X43600000Y3150000D01*
X40750000Y9600000D02*
X40360000Y9990000D01*
X46550000Y4550000D02*
X46550000Y3950000D01*
X41450000Y7100000D02*
X41050000Y7100000D01*
X41050000Y7700000D02*
X41450000Y7700000D01*
X48312500Y8362500D02*
X47600000Y7650000D01*
X49562000Y8362500D02*
X48312500Y8362500D01*
X40750000Y5350000D02*
X40750000Y6200000D01*
X40750000Y8600000D02*
X40750000Y9600000D01*
X46550000Y3950000D02*
X46050000Y3450000D01*
X46050000Y3450000D02*
X45100000Y3450000D01*
X44200000Y4048997D02*
X44200000Y3750000D01*
X46250000Y5450000D02*
X45924054Y5450000D01*
X47600000Y6800000D02*
X46550000Y5750000D01*
X45924054Y4850000D02*
X46250000Y4850000D01*
X47600000Y7650000D02*
X47600000Y6800000D01*
X41450000Y8300000D02*
X41050000Y8300000D01*
X44200000Y3750000D02*
X44200000Y2851003D01*
X41050000Y6500000D02*
X41450000Y6500000D01*
X42650000Y3450000D02*
X40750000Y5350000D01*
X44800000Y3750000D02*
X44800000Y4048997D01*
X43300000Y3450000D02*
X42650000Y3450000D01*
X43900000Y2551000D02*
G75*
G03*
X44200000Y2851003I0J300000D01*
G01*
X41050000Y6500000D02*
G75*
G03*
X40750000Y6200000I0J-300000D01*
G01*
X41450000Y6500000D02*
G75*
G03*
X41750000Y6800000I0J300000D01*
G01*
X40750000Y8600000D02*
G75*
G03*
X41050000Y8300000I300000J0D01*
G01*
X45624100Y5150000D02*
G75*
G03*
X45924054Y4850000I300000J0D01*
G01*
X44500000Y4349000D02*
G75*
G03*
X44200000Y4048997I0J-300000D01*
G01*
X43600000Y3150000D02*
G75*
G03*
X43300000Y3450000I-300000J0D01*
G01*
X40750000Y7400000D02*
G75*
G03*
X41050000Y7100000I300000J0D01*
G01*
X43600003Y2851003D02*
G75*
G03*
X43900000Y2551003I299997J-3D01*
G01*
X41450000Y7700000D02*
G75*
G03*
X41750000Y8000000I0J300000D01*
G01*
X41750000Y6800000D02*
G75*
G03*
X41450000Y7100000I-300000J0D01*
G01*
X45924054Y5450046D02*
G75*
G03*
X45624054Y5150000I46J-300046D01*
G01*
X44799997Y4048997D02*
G75*
G03*
X44500000Y4348997I-299997J3D01*
G01*
X41750000Y8000000D02*
G75*
G03*
X41450000Y8300000I-300000J0D01*
G01*
X41050000Y7700000D02*
G75*
G03*
X40750000Y7400000I0J-300000D01*
G01*
X46550000Y4550000D02*
G75*
G03*
X46250000Y4850000I-300000J0D01*
G01*
X44800000Y3750000D02*
G75*
G03*
X45100000Y3450000I300000J0D01*
G01*
X46250000Y5450000D02*
G75*
G03*
X46550000Y5750000I0J300000D01*
G01*
%TO.N,D0*%
X49562000Y7712500D02*
X48512500Y7712500D01*
X41200000Y4050000D02*
X40340000Y4910000D01*
X48512500Y7712500D02*
X48200000Y7400000D01*
X48200000Y2800000D02*
X47200000Y1800000D01*
X48200000Y3450000D02*
X48200000Y2800000D01*
X46600000Y2100000D02*
X46600000Y2459650D01*
X47500000Y3750000D02*
X47900000Y3750000D01*
X42650000Y1800000D02*
X42150000Y1800000D01*
X44800000Y2459656D02*
X44800000Y2100000D01*
X48200000Y4950000D02*
X48900000Y4950000D01*
X47200000Y1800000D02*
X46900000Y1800000D01*
X44500000Y1800000D02*
X42650000Y1800000D01*
X40340000Y4910000D02*
X37390000Y4910000D01*
X41200000Y2750000D02*
X41200000Y4050000D01*
X47500000Y4950000D02*
X48200000Y4950000D01*
X48650000Y5925000D02*
X48650000Y5775000D01*
X46000000Y2459650D02*
X46000000Y2100000D01*
X48200000Y5550000D02*
X47500000Y5550000D01*
X45400000Y2100000D02*
X45400000Y2459656D01*
X42150000Y1800000D02*
X41200000Y2750000D01*
X47900000Y4350000D02*
X47500000Y4350000D01*
X48900000Y4350000D02*
X47900000Y4350000D01*
X48425000Y5550000D02*
X48200000Y5550000D01*
X48200000Y7400000D02*
X48200000Y6375000D01*
X47200000Y4050000D02*
G75*
G03*
X47500000Y3750000I300000J0D01*
G01*
X45700000Y1800000D02*
G75*
G03*
X46000000Y2100000I0J300000D01*
G01*
X47200000Y5250000D02*
G75*
G03*
X47500000Y4950000I300000J0D01*
G01*
X46600050Y2459650D02*
G75*
G03*
X46300000Y2759650I-300050J-50D01*
G01*
X48650000Y5925000D02*
G75*
G03*
X48425000Y6150000I-225000J0D01*
G01*
X49200000Y4650000D02*
G75*
G03*
X48900000Y4950000I-300000J0D01*
G01*
X48200000Y3450000D02*
G75*
G03*
X47900000Y3750000I-300000J0D01*
G01*
X44500000Y1800000D02*
G75*
G03*
X44800000Y2100000I0J300000D01*
G01*
X45400000Y2100000D02*
G75*
G03*
X45700000Y1800000I300000J0D01*
G01*
X45100000Y2759700D02*
G75*
G03*
X44800000Y2459656I0J-300000D01*
G01*
X48200000Y6375000D02*
G75*
G03*
X48425000Y6150000I225000J0D01*
G01*
X46300000Y2759600D02*
G75*
G03*
X46000000Y2459650I0J-300000D01*
G01*
X47500000Y4350000D02*
G75*
G03*
X47200000Y4050000I0J-300000D01*
G01*
X47500000Y5550000D02*
G75*
G03*
X47200000Y5250000I0J-300000D01*
G01*
X45399956Y2459656D02*
G75*
G03*
X45100000Y2759656I-299956J44D01*
G01*
X48900000Y4350000D02*
G75*
G03*
X49200000Y4650000I0J300000D01*
G01*
X46600000Y2100000D02*
G75*
G03*
X46900000Y1800000I300000J0D01*
G01*
X48425000Y5550000D02*
G75*
G03*
X48650000Y5775000I0J225000D01*
G01*
%TO.N,Net-(IC2-HILO)*%
X65650000Y27535000D02*
X65650000Y26250000D01*
X65650000Y26250000D02*
X64650000Y25250000D01*
X60525000Y25250000D02*
X59000000Y23725000D01*
X64650000Y25250000D02*
X60525000Y25250000D01*
%TO.N,Net-(IC2-VPOS)*%
X64850000Y24600000D02*
X61600000Y24600000D01*
X66260000Y27535000D02*
X66260000Y26010000D01*
X61250000Y23712500D02*
X61250000Y24250000D01*
X66260000Y26010000D02*
X64850000Y24600000D01*
X61600000Y24600000D02*
X61250000Y24250000D01*
%TO.N,Net-(IC2-ENBV)*%
X72500000Y24650000D02*
X70150000Y24650000D01*
X73250000Y23462500D02*
X73250000Y23900000D01*
X70150000Y24650000D02*
X68850000Y25950000D01*
X68850000Y25950000D02*
X68850000Y27535000D01*
X73250000Y23900000D02*
X72500000Y24650000D01*
%TO.N,Net-(IC2-ENBL)*%
X73900000Y25600000D02*
X69950000Y25600000D01*
X69490000Y26060000D02*
X69490000Y27535000D01*
X75500000Y24000000D02*
X73900000Y25600000D01*
X75500000Y23462500D02*
X75500000Y24000000D01*
X69950000Y25600000D02*
X69490000Y26060000D01*
%TO.N,Net-(U1-A)*%
X71000000Y52750000D02*
X71000000Y50707107D01*
X70292893Y50000000D02*
X69412500Y50000000D01*
X70853553Y50353553D02*
X70646446Y50146446D01*
X70853556Y50353550D02*
G75*
G03*
X71000000Y50707107I-353556J353550D01*
G01*
X70292893Y50000005D02*
G75*
G03*
X70646446Y50146446I7J499995D01*
G01*
%TO.N,GPIO21*%
X17140000Y35390000D02*
X19610000Y35390000D01*
X16250000Y34500000D02*
X17140000Y35390000D01*
%TO.N,GPIO17*%
X9000000Y47000000D02*
X8200000Y46200000D01*
X8200000Y46200000D02*
X8200000Y41960000D01*
X15100000Y47000000D02*
X9000000Y47000000D01*
X16190000Y48090000D02*
X15100000Y47000000D01*
X19610000Y48090000D02*
X16190000Y48090000D01*
X8200000Y41960000D02*
X10210000Y39950000D01*
%TO.N,GPIO18*%
X17010000Y43010000D02*
X19610000Y43010000D01*
X16250000Y42250000D02*
X17010000Y43010000D01*
%TO.N,GPIO19*%
X16250000Y39750000D02*
X16970000Y40470000D01*
X16970000Y40470000D02*
X19610000Y40470000D01*
%TO.N,GPIO11*%
X41000000Y38750000D02*
X40180000Y37930000D01*
X40180000Y37930000D02*
X39365000Y37930000D01*
%TO.N,GPIO22*%
X15300000Y26600000D02*
X15300000Y29400000D01*
X8904416Y25550000D02*
X14250000Y25550000D01*
X15300000Y29400000D02*
X16210000Y30310000D01*
X10210000Y9470000D02*
X6910000Y12770000D01*
X6910000Y12770000D02*
X6910000Y23555584D01*
X14250000Y25550000D02*
X15300000Y26600000D01*
X16210000Y30310000D02*
X19610000Y30310000D01*
X6910000Y23555584D02*
X8904416Y25550000D01*
%TO.N,GPIO12*%
X37390000Y40470000D02*
X40470000Y40470000D01*
X40470000Y40470000D02*
X41000000Y41000000D01*
%TO.N,GPIO26*%
X19610000Y25230000D02*
X19330000Y24950000D01*
X9152944Y24950000D02*
X7510000Y23307056D01*
X7510000Y14710000D02*
X10210000Y12010000D01*
X19330000Y24950000D02*
X9152944Y24950000D01*
X7510000Y23307056D02*
X7510000Y14710000D01*
%TO.N,GPIO16*%
X8751472Y47600000D02*
X7600000Y46448528D01*
X14851472Y47600000D02*
X8751472Y47600000D01*
X7600000Y46448528D02*
X7600000Y40020000D01*
X7600000Y40020000D02*
X10210000Y37410000D01*
X19610000Y50630000D02*
X17881472Y50630000D01*
X17881472Y50630000D02*
X14851472Y47600000D01*
%TO.N,GPIO27*%
X8110000Y16650000D02*
X10210000Y14550000D01*
X15960000Y22690000D02*
X14300000Y24350000D01*
X8110000Y23058528D02*
X8110000Y16650000D01*
X19610000Y22690000D02*
X15960000Y22690000D01*
X14300000Y24350000D02*
X9401472Y24350000D01*
X9401472Y24350000D02*
X8110000Y23058528D01*
%TO.N,GPIO20*%
X16250000Y37250000D02*
X16930000Y37930000D01*
X16930000Y37930000D02*
X19610000Y37930000D01*
%TO.N,GPIO28*%
X8710000Y18590000D02*
X8710000Y22810000D01*
X10210000Y17090000D02*
X8710000Y18590000D01*
X16190000Y17610000D02*
X19610000Y17610000D01*
X9650000Y23750000D02*
X13950000Y23750000D01*
X15550000Y18250000D02*
X16190000Y17610000D01*
X15550000Y22150000D02*
X15550000Y18250000D01*
X13950000Y23750000D02*
X15550000Y22150000D01*
X8710000Y22810000D02*
X9650000Y23750000D01*
%TO.N,CS*%
X41050000Y43800000D02*
X40300000Y43050000D01*
X54250000Y34700000D02*
X51750000Y34700000D01*
X37430000Y43050000D02*
X37390000Y43010000D01*
X40300000Y43050000D02*
X37430000Y43050000D01*
%TO.N,SCLK*%
X52550000Y33800000D02*
X52800000Y34050000D01*
X41000000Y46500000D02*
X40955000Y46500000D01*
X40955000Y46500000D02*
X39365000Y48090000D01*
X52800000Y34050000D02*
X54250000Y34050000D01*
%TO.N,MOSI*%
X53400000Y33400000D02*
X54250000Y33400000D01*
X52900000Y32900000D02*
X53400000Y33400000D01*
X40995000Y49000000D02*
X39365000Y50630000D01*
X51750000Y32900000D02*
X52900000Y32900000D01*
%TO.N,SWCLK*%
X49240000Y51290000D02*
X49240000Y51500000D01*
X32550000Y50400000D02*
X34800000Y52650000D01*
X41850000Y52650000D02*
X45150000Y49350000D01*
X45150000Y49350000D02*
X47300000Y49350000D01*
X31350000Y50400000D02*
X31040000Y50400000D01*
X47300000Y49350000D02*
X49240000Y51290000D01*
X34800000Y52650000D02*
X41850000Y52650000D01*
X31040000Y50400000D02*
X32550000Y50400000D01*
%TO.N,SWDIO*%
X30500000Y47500000D02*
X27250000Y47500000D01*
X51780000Y51480000D02*
X49050000Y48750000D01*
X44700000Y48750000D02*
X41400000Y52050000D01*
X49050000Y48750000D02*
X44700000Y48750000D01*
X51780000Y51500000D02*
X51780000Y51480000D01*
X41400000Y52050000D02*
X35050000Y52050000D01*
X25960000Y48790000D02*
X25960000Y50400000D01*
X27250000Y47500000D02*
X25960000Y48790000D01*
X35050000Y52050000D02*
X30500000Y47500000D01*
%TD*%
%TA.AperFunction,Conductor*%
%TO.N,GND*%
G36*
X12290507Y19839844D02*
G01*
X12250000Y19701889D01*
X12250000Y19558111D01*
X12290507Y19420156D01*
X12316314Y19380000D01*
X10643686Y19380000D01*
X10669493Y19420156D01*
X10710000Y19558111D01*
X10710000Y19701889D01*
X10669493Y19839844D01*
X10643686Y19880000D01*
X12316314Y19880000D01*
X12290507Y19839844D01*
G37*
%TD.AperFunction*%
%TA.AperFunction,Conductor*%
G36*
X11513138Y42240000D02*
G01*
X10643686Y42240000D01*
X10669493Y42280156D01*
X10710000Y42418111D01*
X10710000Y42561889D01*
X10669493Y42699844D01*
X10643686Y42740000D01*
X11521117Y42740000D01*
X11513138Y42240000D01*
G37*
%TD.AperFunction*%
%TA.AperFunction,Conductor*%
G36*
X24459836Y52981046D02*
G01*
X24540618Y52927070D01*
X24594594Y52846288D01*
X24613548Y52751000D01*
X24612781Y52731470D01*
X24609500Y52689778D01*
X24609500Y49910222D01*
X24614109Y49851664D01*
X24615859Y49829423D01*
X24615860Y49829416D01*
X24666210Y49641510D01*
X24666211Y49641506D01*
X24754534Y49468161D01*
X24754537Y49468157D01*
X24853358Y49346124D01*
X24876968Y49316968D01*
X24876973Y49316964D01*
X25028156Y49194538D01*
X25028163Y49194533D01*
X25045305Y49185799D01*
X25173544Y49120459D01*
X25249840Y49060313D01*
X25297313Y48975546D01*
X25309500Y48898599D01*
X25309500Y48887357D01*
X25308395Y48863928D01*
X25307240Y48851708D01*
X25307240Y48851705D01*
X25307240Y48851704D01*
X25309358Y48784301D01*
X25309377Y48783711D01*
X25309500Y48775889D01*
X25309500Y48749070D01*
X25309775Y48744681D01*
X25311153Y48727172D01*
X25312402Y48687435D01*
X25312402Y48687432D01*
X25312403Y48687431D01*
X25315580Y48676492D01*
X25323500Y48638248D01*
X25324928Y48626944D01*
X25339565Y48589973D01*
X25347161Y48567788D01*
X25358255Y48529604D01*
X25358255Y48529603D01*
X25364048Y48519809D01*
X25381240Y48484716D01*
X25385430Y48474133D01*
X25385432Y48474129D01*
X25408802Y48441962D01*
X25421673Y48422368D01*
X25441919Y48388135D01*
X25449978Y48380076D01*
X25475344Y48350375D01*
X25482037Y48341163D01*
X25482038Y48341162D01*
X25512662Y48315828D01*
X25530014Y48300040D01*
X26721192Y47108862D01*
X26736981Y47091509D01*
X26744799Y47082058D01*
X26794372Y47035507D01*
X26799988Y47030065D01*
X26818958Y47011096D01*
X26818965Y47011089D01*
X26818972Y47011083D01*
X26822315Y47008136D01*
X26835607Y46996785D01*
X26864607Y46969552D01*
X26864609Y46969551D01*
X26874579Y46964070D01*
X26907238Y46942617D01*
X26916232Y46935640D01*
X26916235Y46935639D01*
X26916236Y46935638D01*
X26923245Y46932605D01*
X26952711Y46919854D01*
X26973784Y46909531D01*
X26994026Y46898403D01*
X27008632Y46890373D01*
X27019661Y46887542D01*
X27056639Y46874881D01*
X27067073Y46870365D01*
X27106333Y46864148D01*
X27129308Y46859389D01*
X27167817Y46849501D01*
X27167821Y46849501D01*
X27167823Y46849500D01*
X27179212Y46849500D01*
X27218165Y46846435D01*
X27229404Y46844654D01*
X27263573Y46847884D01*
X27268982Y46848395D01*
X27292413Y46849500D01*
X30402643Y46849500D01*
X30426072Y46848395D01*
X30438292Y46847241D01*
X30438296Y46847240D01*
X30506289Y46849378D01*
X30514111Y46849500D01*
X30540921Y46849500D01*
X30540925Y46849500D01*
X30540928Y46849501D01*
X30541048Y46849508D01*
X30556695Y46850000D01*
X35801000Y46850000D01*
X35896288Y46831046D01*
X35977070Y46777070D01*
X36031046Y46696288D01*
X36050000Y46601000D01*
X36050000Y46162943D01*
X36046403Y46120772D01*
X36046354Y46120492D01*
X36040000Y46039750D01*
X36040000Y45800001D01*
X36040001Y45800000D01*
X38291000Y45800000D01*
X38386288Y45781046D01*
X38467070Y45727070D01*
X38521046Y45646288D01*
X38540000Y45551000D01*
X38540000Y45549000D01*
X38521046Y45453712D01*
X38467070Y45372930D01*
X38386288Y45318954D01*
X38291000Y45300000D01*
X36040001Y45300000D01*
X36040000Y45299999D01*
X36040000Y45060249D01*
X36046354Y44979504D01*
X36046402Y44979230D01*
X36050000Y44937056D01*
X36050000Y43625917D01*
X36046404Y43583754D01*
X36045858Y43580579D01*
X36039500Y43499792D01*
X36039500Y43499778D01*
X36039500Y42520222D01*
X36044124Y42461459D01*
X36045859Y42439419D01*
X36046403Y42436256D01*
X36050000Y42394085D01*
X36050000Y41085917D01*
X36046404Y41043754D01*
X36045858Y41040579D01*
X36039500Y40959792D01*
X36039500Y40959778D01*
X36039500Y39980222D01*
X36041879Y39949996D01*
X36045859Y39899419D01*
X36046403Y39896256D01*
X36050000Y39854085D01*
X36050000Y38545917D01*
X36046404Y38503754D01*
X36045858Y38500579D01*
X36039500Y38419792D01*
X36039500Y38419778D01*
X36039500Y37440222D01*
X36041879Y37409996D01*
X36045859Y37359419D01*
X36046403Y37356256D01*
X36050000Y37314085D01*
X36050000Y36005917D01*
X36046404Y35963754D01*
X36045858Y35960579D01*
X36039500Y35879792D01*
X36039500Y35879778D01*
X36039500Y34900222D01*
X36042760Y34858802D01*
X36045859Y34819419D01*
X36046403Y34816256D01*
X36050000Y34774085D01*
X36050000Y33462943D01*
X36046403Y33420772D01*
X36046354Y33420492D01*
X36040000Y33339750D01*
X36040000Y33100001D01*
X36040001Y33100000D01*
X39000000Y33100000D01*
X39000000Y32600000D01*
X36040001Y32600000D01*
X36040000Y32599999D01*
X36040000Y32360249D01*
X36046354Y32279504D01*
X36046402Y32279230D01*
X36050000Y32237056D01*
X36050000Y30925917D01*
X36046404Y30883754D01*
X36045858Y30880579D01*
X36039500Y30799792D01*
X36039500Y30799778D01*
X36039500Y29820222D01*
X36043027Y29775407D01*
X36045859Y29739419D01*
X36046403Y29736256D01*
X36050000Y29694085D01*
X36050000Y28385917D01*
X36046404Y28343754D01*
X36045858Y28340579D01*
X36039500Y28259792D01*
X36039500Y28259778D01*
X36039500Y27280222D01*
X36041879Y27249995D01*
X36045859Y27199419D01*
X36046403Y27196256D01*
X36050000Y27154085D01*
X36050000Y25845917D01*
X36046404Y25803754D01*
X36045858Y25800579D01*
X36039500Y25719792D01*
X36039500Y25719778D01*
X36039500Y24740222D01*
X36043587Y24688296D01*
X36045859Y24659419D01*
X36046403Y24656256D01*
X36050000Y24614085D01*
X36050000Y23305917D01*
X36046404Y23263754D01*
X36045858Y23260579D01*
X36039500Y23179792D01*
X36039500Y23179778D01*
X36039500Y22200222D01*
X36040616Y22186045D01*
X36045859Y22119419D01*
X36046403Y22116256D01*
X36050000Y22074085D01*
X36050000Y20762943D01*
X36046403Y20720772D01*
X36046354Y20720492D01*
X36040000Y20639750D01*
X36040000Y20400001D01*
X36040001Y20400000D01*
X39500000Y20400000D01*
X39500000Y19900000D01*
X36040001Y19900000D01*
X36040000Y19899999D01*
X36040000Y19660249D01*
X36046354Y19579504D01*
X36046402Y19579230D01*
X36050000Y19537056D01*
X36050000Y18225917D01*
X36046404Y18183754D01*
X36045858Y18180579D01*
X36039500Y18099792D01*
X36039500Y18099778D01*
X36039500Y17120222D01*
X36041879Y17089998D01*
X36045859Y17039419D01*
X36046403Y17036256D01*
X36050000Y16994085D01*
X36050000Y15685917D01*
X36046404Y15643754D01*
X36045858Y15640579D01*
X36039500Y15559792D01*
X36039500Y15559778D01*
X36039500Y14580222D01*
X36041879Y14549998D01*
X36045859Y14499419D01*
X36046403Y14496256D01*
X36050000Y14454085D01*
X36050000Y13145917D01*
X36046404Y13103754D01*
X36045858Y13100579D01*
X36039500Y13019792D01*
X36039500Y13019778D01*
X36039500Y12040222D01*
X36044124Y11981459D01*
X36045859Y11959419D01*
X36046403Y11956256D01*
X36050000Y11914085D01*
X36050000Y10605917D01*
X36046404Y10563754D01*
X36045858Y10560579D01*
X36039500Y10479792D01*
X36039500Y10479778D01*
X36039500Y9500222D01*
X36042424Y9463066D01*
X36045859Y9419419D01*
X36046403Y9416256D01*
X36050000Y9374085D01*
X36050000Y8062943D01*
X36046403Y8020772D01*
X36046354Y8020492D01*
X36040000Y7939750D01*
X36040000Y7700001D01*
X36040001Y7700000D01*
X38291000Y7700000D01*
X38386288Y7681046D01*
X38467070Y7627070D01*
X38521046Y7546288D01*
X38540000Y7451000D01*
X38540000Y7449000D01*
X38521046Y7353712D01*
X38467070Y7272930D01*
X38386288Y7218954D01*
X38291000Y7200000D01*
X36040001Y7200000D01*
X36040000Y7199999D01*
X36040000Y6960249D01*
X36046354Y6879504D01*
X36046402Y6879230D01*
X36050000Y6837056D01*
X36050000Y5525917D01*
X36046404Y5483754D01*
X36045858Y5480579D01*
X36039500Y5399792D01*
X36039500Y5399778D01*
X36039500Y4420222D01*
X36042696Y4379618D01*
X36045859Y4339419D01*
X36046403Y4336256D01*
X36050000Y4294085D01*
X36050000Y2985917D01*
X36046404Y2943754D01*
X36045858Y2940579D01*
X36039500Y2859792D01*
X36039500Y2859778D01*
X36039500Y1880222D01*
X36040844Y1863144D01*
X36045859Y1799419D01*
X36046403Y1796256D01*
X36050000Y1754085D01*
X36050000Y1249000D01*
X36031046Y1153712D01*
X35977070Y1072930D01*
X35896288Y1018954D01*
X35801000Y1000000D01*
X32849000Y1000000D01*
X32753712Y1018954D01*
X32672930Y1072930D01*
X32618954Y1153712D01*
X32600000Y1249000D01*
X32600000Y2193690D01*
X32607621Y2254821D01*
X32611132Y2268688D01*
X32611134Y2268695D01*
X32617675Y2347645D01*
X32618834Y2358638D01*
X32629298Y2440346D01*
X32628624Y2456209D01*
X32629251Y2487346D01*
X32630300Y2500000D01*
X32623455Y2582599D01*
X32622831Y2592574D01*
X32620760Y2641328D01*
X32619180Y2678532D01*
X32616616Y2690429D01*
X32611878Y2722320D01*
X32611134Y2731305D01*
X32589868Y2815277D01*
X32587862Y2823842D01*
X32568954Y2911581D01*
X32568022Y2913901D01*
X32565799Y2919433D01*
X32555459Y2951159D01*
X32554821Y2953675D01*
X32554157Y2956300D01*
X32526459Y3019446D01*
X32517903Y3038952D01*
X32514887Y3046131D01*
X32480065Y3132787D01*
X32480064Y3132790D01*
X32477565Y3136848D01*
X32461570Y3167376D01*
X32460924Y3168849D01*
X32409550Y3247484D01*
X32405976Y3253119D01*
X32355073Y3335790D01*
X32355072Y3335792D01*
X32354369Y3336590D01*
X32340331Y3355049D01*
X32340304Y3355027D01*
X32333982Y3363150D01*
X32309767Y3389454D01*
X32267830Y3435010D01*
X32264149Y3439101D01*
X32212082Y3498261D01*
X32163356Y3582313D01*
X32150000Y3662768D01*
X32150000Y5237418D01*
X32158485Y5301866D01*
X32161207Y5312023D01*
X32161768Y5318437D01*
X32167064Y5352143D01*
X32167748Y5355144D01*
X32169191Y5361463D01*
X32172813Y5442132D01*
X32173510Y5452660D01*
X32180277Y5530000D01*
X32179388Y5540153D01*
X32178692Y5573020D01*
X32179290Y5586330D01*
X32168952Y5662652D01*
X32167645Y5674378D01*
X32166860Y5683354D01*
X32161207Y5747977D01*
X32157599Y5761439D01*
X32151366Y5792470D01*
X32149075Y5809387D01*
X32144674Y5822930D01*
X32136041Y5849500D01*
X32126429Y5879080D01*
X32122733Y5891560D01*
X32104576Y5959326D01*
X32104575Y5959330D01*
X32097090Y5975381D01*
X32085953Y6003654D01*
X32079517Y6023464D01*
X32046566Y6084697D01*
X32040170Y6097447D01*
X32012103Y6157636D01*
X32012099Y6157642D01*
X31999802Y6175204D01*
X31984498Y6200038D01*
X31975578Y6216614D01*
X31972852Y6221681D01*
X31931837Y6273112D01*
X31922544Y6285540D01*
X31886597Y6336879D01*
X31868768Y6354708D01*
X31850164Y6375526D01*
X31832508Y6397666D01*
X31817222Y6411021D01*
X31785786Y6438486D01*
X31773558Y6449918D01*
X31731880Y6491595D01*
X31731877Y6491598D01*
X31708148Y6508214D01*
X31687151Y6524661D01*
X31662996Y6545765D01*
X31662991Y6545768D01*
X31612952Y6575665D01*
X31597850Y6585445D01*
X31552639Y6617102D01*
X31552637Y6617103D01*
X31552635Y6617105D01*
X31522997Y6630925D01*
X31500523Y6642838D01*
X31469763Y6661216D01*
X31418690Y6680384D01*
X31400953Y6687835D01*
X31354332Y6709575D01*
X31319110Y6719013D01*
X31296073Y6726403D01*
X31259028Y6740306D01*
X31259019Y6740308D01*
X31209020Y6749383D01*
X31189054Y6753862D01*
X31142977Y6766207D01*
X31142976Y6766208D01*
X31142969Y6766209D01*
X31102928Y6769712D01*
X31080179Y6772764D01*
X31072984Y6774070D01*
X31037547Y6780500D01*
X31037544Y6780500D01*
X30990479Y6780500D01*
X30968780Y6781447D01*
X30941937Y6783796D01*
X30925000Y6785277D01*
X30924999Y6785277D01*
X30877284Y6781103D01*
X30870692Y6780667D01*
X30814936Y6775650D01*
X30814326Y6775596D01*
X30703864Y6765931D01*
X30700815Y6765378D01*
X30690544Y6762544D01*
X30677603Y6758972D01*
X30611365Y6750000D01*
X26386244Y6750000D01*
X26321801Y6758484D01*
X26296071Y6765378D01*
X26292977Y6766207D01*
X26292976Y6766208D01*
X26292973Y6766208D01*
X26252928Y6769712D01*
X26230179Y6772764D01*
X26222984Y6774070D01*
X26187547Y6780500D01*
X26187544Y6780500D01*
X26140479Y6780500D01*
X26118780Y6781447D01*
X26091937Y6783796D01*
X26075000Y6785277D01*
X26074999Y6785277D01*
X26027284Y6781103D01*
X26020692Y6780667D01*
X25964936Y6775650D01*
X25964326Y6775596D01*
X25853864Y6765931D01*
X25850815Y6765378D01*
X25747774Y6736941D01*
X25745980Y6736454D01*
X25645622Y6709564D01*
X25639250Y6707528D01*
X25633832Y6705495D01*
X25540888Y6660737D01*
X25538093Y6659413D01*
X25447355Y6617100D01*
X25440704Y6613260D01*
X25435593Y6610559D01*
X25431032Y6607833D01*
X25350606Y6549401D01*
X25347072Y6546880D01*
X25268123Y6491600D01*
X25259803Y6484617D01*
X25259432Y6485059D01*
X25257145Y6483105D01*
X25257343Y6482879D01*
X25248920Y6475520D01*
X25182782Y6406347D01*
X25178881Y6402358D01*
X25113402Y6336878D01*
X25106416Y6328552D01*
X25106229Y6328709D01*
X25099189Y6320126D01*
X25093369Y6312828D01*
X25071160Y6279182D01*
X25042724Y6236104D01*
X25038888Y6230463D01*
X24987900Y6157644D01*
X24985052Y6152710D01*
X24970504Y6126694D01*
X24969364Y6124968D01*
X24934687Y6043839D01*
X24931398Y6036477D01*
X24895423Y5959328D01*
X24895423Y5959326D01*
X24894725Y5956721D01*
X24883189Y5923354D01*
X24880897Y5917992D01*
X24862094Y5835615D01*
X24859855Y5826587D01*
X24838794Y5747981D01*
X24838791Y5747968D01*
X24838230Y5741550D01*
X24832940Y5707874D01*
X24830809Y5698536D01*
X24830807Y5698525D01*
X24827186Y5617885D01*
X24826490Y5607359D01*
X24819723Y5530000D01*
X24819723Y5529997D01*
X24820611Y5519838D01*
X24821307Y5487001D01*
X24820709Y5473681D01*
X24820710Y5473670D01*
X24831048Y5397344D01*
X24832353Y5385626D01*
X24838791Y5312030D01*
X24838793Y5312023D01*
X24841517Y5301855D01*
X24850000Y5237417D01*
X24850000Y3660169D01*
X24831046Y3564881D01*
X24784179Y3491508D01*
X24779567Y3486499D01*
X24768683Y3475395D01*
X24719883Y3428623D01*
X24701643Y3403962D01*
X24684653Y3383394D01*
X24666021Y3363154D01*
X24666017Y3363149D01*
X24628770Y3306138D01*
X24620515Y3294271D01*
X24578125Y3236954D01*
X24578115Y3236938D01*
X24565974Y3212859D01*
X24552102Y3188789D01*
X24539076Y3168850D01*
X24539075Y3168848D01*
X24510226Y3103082D01*
X24504541Y3091012D01*
X24470793Y3024078D01*
X24463976Y3001817D01*
X24453924Y2974724D01*
X24445843Y2956301D01*
X24427302Y2883091D01*
X24424010Y2871315D01*
X24400983Y2796123D01*
X24400983Y2796122D01*
X24398497Y2776710D01*
X24392898Y2747231D01*
X24388865Y2731307D01*
X24388865Y2731304D01*
X24382326Y2652391D01*
X24381160Y2641328D01*
X24370702Y2559662D01*
X24370702Y2559658D01*
X24371375Y2543781D01*
X24370750Y2512681D01*
X24369700Y2500001D01*
X24376541Y2417428D01*
X24377167Y2407440D01*
X24380819Y2321470D01*
X24383385Y2309565D01*
X24388120Y2277690D01*
X24388865Y2268695D01*
X24392380Y2254818D01*
X24400000Y2193689D01*
X24400000Y1249000D01*
X24381046Y1153712D01*
X24327070Y1072930D01*
X24246288Y1018954D01*
X24151000Y1000000D01*
X21199000Y1000000D01*
X21103712Y1018954D01*
X21022930Y1072930D01*
X20968954Y1153712D01*
X20950000Y1249000D01*
X20950000Y1754085D01*
X20953597Y1796256D01*
X20954140Y1799419D01*
X20954141Y1799422D01*
X20960500Y1880222D01*
X20960500Y2859778D01*
X20956240Y2913901D01*
X20954141Y2940579D01*
X20953596Y2943754D01*
X20950000Y2985917D01*
X20950000Y4294085D01*
X20953597Y4336256D01*
X20954140Y4339419D01*
X20954141Y4339422D01*
X20960500Y4420222D01*
X20960500Y5399778D01*
X20954141Y5480578D01*
X20954141Y5480579D01*
X20953596Y5483754D01*
X20950000Y5525917D01*
X20950000Y6837056D01*
X20953598Y6879230D01*
X20953645Y6879504D01*
X20959999Y6960249D01*
X20960000Y6960263D01*
X20960000Y7199999D01*
X20959999Y7200000D01*
X16457527Y7200000D01*
X16450000Y7194971D01*
X16450000Y5999000D01*
X16431046Y5903712D01*
X16377070Y5822930D01*
X16296288Y5768954D01*
X16201000Y5750000D01*
X10837134Y5750000D01*
X10786861Y5740000D01*
X10460001Y5740000D01*
X10460000Y5739999D01*
X10460000Y4825502D01*
X10352315Y4874680D01*
X10245763Y4890000D01*
X10174237Y4890000D01*
X10067685Y4874680D01*
X9960000Y4825502D01*
X9960000Y5739999D01*
X9959999Y5740000D01*
X9312167Y5740000D01*
X9252628Y5733599D01*
X9252621Y5733597D01*
X9117912Y5683354D01*
X9002812Y5597190D01*
X9002810Y5597188D01*
X8916646Y5482088D01*
X8866403Y5347379D01*
X8866401Y5347372D01*
X8860000Y5287833D01*
X8860000Y4640001D01*
X8860001Y4640000D01*
X9776314Y4640000D01*
X9750507Y4599844D01*
X9710000Y4461889D01*
X9710000Y4318111D01*
X9750507Y4180156D01*
X9776314Y4140000D01*
X8860001Y4140000D01*
X8860000Y4139999D01*
X8860000Y3492168D01*
X8866401Y3432629D01*
X8866403Y3432622D01*
X8916646Y3297913D01*
X9002810Y3182813D01*
X9002812Y3182811D01*
X9117912Y3096647D01*
X9252621Y3046404D01*
X9252628Y3046402D01*
X9312167Y3040001D01*
X9312175Y3040000D01*
X9959999Y3040000D01*
X9960000Y3040001D01*
X9960000Y3954499D01*
X10067685Y3905320D01*
X10174237Y3890000D01*
X10245763Y3890000D01*
X10352315Y3905320D01*
X10460000Y3954499D01*
X10460000Y3023648D01*
X10481046Y2992149D01*
X10500000Y2896861D01*
X10500000Y1249000D01*
X10481046Y1153712D01*
X10427070Y1072930D01*
X10346288Y1018954D01*
X10251000Y1000000D01*
X7449000Y1000000D01*
X7353712Y1018954D01*
X7272930Y1072930D01*
X7218954Y1153712D01*
X7200000Y1249000D01*
X7200000Y3387043D01*
X7200341Y3400074D01*
X7201837Y3428623D01*
X7205578Y3500000D01*
X7185278Y3887338D01*
X7124602Y4270433D01*
X7024214Y4645087D01*
X6885214Y5007194D01*
X6709125Y5352789D01*
X6550847Y5596516D01*
X6497875Y5678086D01*
X6253786Y5979510D01*
X6253785Y5979511D01*
X6253781Y5979516D01*
X5979516Y6253781D01*
X5979509Y6253787D01*
X5678085Y6497876D01*
X5352789Y6709125D01*
X5352784Y6709128D01*
X5007195Y6885214D01*
X4811685Y6960263D01*
X4645087Y7024214D01*
X4270433Y7124602D01*
X4270429Y7124603D01*
X4270428Y7124603D01*
X3939010Y7177094D01*
X3887344Y7185277D01*
X3887345Y7185277D01*
X3887343Y7185278D01*
X3887338Y7185278D01*
X3500000Y7205578D01*
X3499999Y7205578D01*
X3400074Y7200341D01*
X3387043Y7200000D01*
X1249000Y7200000D01*
X1153712Y7218954D01*
X1072930Y7272930D01*
X1018954Y7353712D01*
X1000000Y7449000D01*
X1000000Y23576179D01*
X6254653Y23576179D01*
X6257336Y23547794D01*
X6258395Y23536595D01*
X6259500Y23513162D01*
X6259500Y12867357D01*
X6258395Y12843928D01*
X6257240Y12831708D01*
X6257240Y12831705D01*
X6257240Y12831704D01*
X6258476Y12792384D01*
X6259377Y12763711D01*
X6259500Y12755889D01*
X6259500Y12729070D01*
X6259775Y12724681D01*
X6261153Y12707172D01*
X6262402Y12667435D01*
X6262402Y12667432D01*
X6262403Y12667431D01*
X6265580Y12656492D01*
X6273500Y12618248D01*
X6274928Y12606944D01*
X6289565Y12569973D01*
X6297161Y12547788D01*
X6308255Y12509604D01*
X6308255Y12509603D01*
X6314048Y12499809D01*
X6331240Y12464716D01*
X6335430Y12454133D01*
X6335432Y12454129D01*
X6358802Y12421962D01*
X6371673Y12402368D01*
X6391919Y12368135D01*
X6399978Y12360076D01*
X6425344Y12330375D01*
X6432037Y12321163D01*
X6432038Y12321162D01*
X6462662Y12295828D01*
X6480014Y12280040D01*
X8811260Y9948794D01*
X8865236Y9868012D01*
X8884190Y9772724D01*
X8876740Y9716131D01*
X8876825Y9716116D01*
X8876482Y9714172D01*
X8875707Y9708283D01*
X8874937Y9705412D01*
X8874935Y9705402D01*
X8854341Y9470006D01*
X8854341Y9469995D01*
X8874935Y9234599D01*
X8935687Y9007865D01*
X8936097Y9006337D01*
X9020514Y8825305D01*
X9035965Y8792170D01*
X9157900Y8618028D01*
X9171505Y8598599D01*
X9338599Y8431505D01*
X9532170Y8295965D01*
X9746337Y8196097D01*
X9974592Y8134937D01*
X9974595Y8134937D01*
X9974598Y8134936D01*
X10209995Y8114341D01*
X10210000Y8114341D01*
X10210005Y8114341D01*
X10445401Y8134936D01*
X10445402Y8134937D01*
X10445408Y8134937D01*
X10467449Y8140843D01*
X10469962Y8141516D01*
X10534405Y8150000D01*
X12000000Y8150000D01*
X12029061Y8165554D01*
X12041339Y8177859D01*
X12131056Y8215141D01*
X12228211Y8215253D01*
X12276050Y8199623D01*
X12276120Y8199815D01*
X12281893Y8197714D01*
X12285156Y8196648D01*
X12286337Y8196097D01*
X12514592Y8134937D01*
X12514595Y8134937D01*
X12514598Y8134936D01*
X12749995Y8114341D01*
X12750000Y8114341D01*
X12750005Y8114341D01*
X12985401Y8134936D01*
X12985403Y8134937D01*
X12985408Y8134937D01*
X13213663Y8196097D01*
X13427830Y8295965D01*
X13621401Y8431505D01*
X13788495Y8598599D01*
X13924035Y8792170D01*
X14023903Y9006337D01*
X14085063Y9234592D01*
X14093836Y9334873D01*
X14112022Y9397267D01*
X14100948Y9523852D01*
X14100000Y9545554D01*
X14100000Y11934452D01*
X14100948Y11956156D01*
X14105659Y12009998D01*
X14105659Y12010004D01*
X14100948Y12063847D01*
X14100000Y12085550D01*
X14100000Y14474452D01*
X14100948Y14496156D01*
X14105659Y14549998D01*
X14105659Y14550004D01*
X14100948Y14603847D01*
X14100000Y14625550D01*
X14100000Y17014452D01*
X14100948Y17036156D01*
X14105659Y17089998D01*
X14105659Y17090004D01*
X14100948Y17143847D01*
X14100000Y17165550D01*
X14100000Y19354764D01*
X14080636Y19380000D01*
X13183686Y19380000D01*
X13209493Y19420156D01*
X13250000Y19558111D01*
X13250000Y19701889D01*
X13209493Y19839844D01*
X13183686Y19880000D01*
X14133633Y19880000D01*
X14186279Y19897870D01*
X14218776Y19900000D01*
X14650500Y19900000D01*
X14745788Y19881046D01*
X14826570Y19827070D01*
X14880546Y19746288D01*
X14899500Y19651000D01*
X14899500Y18347357D01*
X14898395Y18323928D01*
X14897240Y18311708D01*
X14899377Y18243711D01*
X14899500Y18235889D01*
X14899500Y18209070D01*
X14899775Y18204681D01*
X14901153Y18187172D01*
X14902402Y18147435D01*
X14902402Y18147432D01*
X14902403Y18147431D01*
X14905580Y18136492D01*
X14913500Y18098248D01*
X14914928Y18086944D01*
X14929565Y18049973D01*
X14937161Y18027788D01*
X14948255Y17989604D01*
X14948255Y17989603D01*
X14954048Y17979809D01*
X14971240Y17944716D01*
X14975430Y17934133D01*
X14975432Y17934129D01*
X14998802Y17901962D01*
X15011673Y17882368D01*
X15031919Y17848135D01*
X15039978Y17840076D01*
X15065344Y17810375D01*
X15072037Y17801163D01*
X15072038Y17801162D01*
X15102662Y17775828D01*
X15120014Y17760040D01*
X15661192Y17218862D01*
X15676981Y17201509D01*
X15684799Y17192058D01*
X15734372Y17145507D01*
X15739988Y17140065D01*
X15758959Y17121095D01*
X15758966Y17121088D01*
X15758973Y17121082D01*
X15762314Y17118137D01*
X15775624Y17106769D01*
X15804607Y17079552D01*
X15814576Y17074072D01*
X15847244Y17052613D01*
X15856237Y17045637D01*
X15892733Y17029844D01*
X15913791Y17019528D01*
X15948632Y17000373D01*
X15956804Y16998276D01*
X15959651Y16997544D01*
X15996624Y16984887D01*
X16007074Y16980364D01*
X16046341Y16974146D01*
X16069316Y16969387D01*
X16107817Y16959501D01*
X16107821Y16959501D01*
X16107823Y16959500D01*
X16119207Y16959500D01*
X16158158Y16956435D01*
X16169405Y16954653D01*
X16177568Y16955425D01*
X16274215Y16945523D01*
X16359718Y16899389D01*
X16421057Y16824046D01*
X16448895Y16730964D01*
X16450000Y16707530D01*
X16450000Y7702037D01*
X16452907Y7700000D01*
X20950000Y7700000D01*
X20959999Y7700000D01*
X20960000Y7700001D01*
X20960000Y7939737D01*
X20959999Y7939750D01*
X20953645Y8020492D01*
X20953597Y8020772D01*
X20950000Y8062943D01*
X20950000Y9374085D01*
X20953597Y9416256D01*
X20954140Y9419419D01*
X20954141Y9419422D01*
X20960500Y9500222D01*
X20960500Y10479778D01*
X20954141Y10560578D01*
X20954141Y10560579D01*
X20953596Y10563754D01*
X20950000Y10605917D01*
X20950000Y11914085D01*
X20953597Y11956256D01*
X20954140Y11959419D01*
X20954141Y11959422D01*
X20960500Y12040222D01*
X20960500Y13019778D01*
X20956154Y13074994D01*
X20954141Y13100579D01*
X20953596Y13103754D01*
X20950000Y13145917D01*
X20950000Y14454085D01*
X20953597Y14496256D01*
X20954140Y14499419D01*
X20954141Y14499422D01*
X20960500Y14580222D01*
X20960500Y15559778D01*
X20954182Y15640051D01*
X20954141Y15640579D01*
X20953596Y15643754D01*
X20950000Y15685917D01*
X20950000Y16994085D01*
X20953597Y17036256D01*
X20954140Y17039419D01*
X20954141Y17039422D01*
X20960500Y17120222D01*
X20960500Y18099778D01*
X20954141Y18180578D01*
X20954141Y18180579D01*
X20953596Y18183754D01*
X20950000Y18225917D01*
X20950000Y19537056D01*
X20953598Y19579230D01*
X20953645Y19579504D01*
X20959999Y19660249D01*
X20960000Y19660263D01*
X20960000Y19899999D01*
X20959999Y19900000D01*
X18709000Y19900000D01*
X18613712Y19918954D01*
X18532930Y19972930D01*
X18478954Y20053712D01*
X18460000Y20149000D01*
X18460000Y20151000D01*
X18478954Y20246288D01*
X18532930Y20327070D01*
X18613712Y20381046D01*
X18709000Y20400000D01*
X20959999Y20400000D01*
X20960000Y20400001D01*
X20960000Y20639737D01*
X20959999Y20639750D01*
X20953645Y20720492D01*
X20953597Y20720772D01*
X20950000Y20762943D01*
X20950000Y22074085D01*
X20953597Y22116256D01*
X20954140Y22119419D01*
X20954141Y22119422D01*
X20960500Y22200222D01*
X20960500Y23179778D01*
X20954141Y23260578D01*
X20954141Y23260579D01*
X20953596Y23263754D01*
X20950000Y23305917D01*
X20950000Y24614085D01*
X20953597Y24656256D01*
X20954140Y24659419D01*
X20954141Y24659422D01*
X20960500Y24740222D01*
X20960500Y25719778D01*
X20954141Y25800578D01*
X20954141Y25800579D01*
X20953596Y25803754D01*
X20950000Y25845917D01*
X20950000Y27154085D01*
X20953597Y27196256D01*
X20954140Y27199419D01*
X20954141Y27199422D01*
X20960500Y27280222D01*
X20960500Y28259778D01*
X20958815Y28281182D01*
X20954141Y28340579D01*
X20953596Y28343754D01*
X20950000Y28385917D01*
X20950000Y29694085D01*
X20953597Y29736256D01*
X20954140Y29739419D01*
X20954141Y29739422D01*
X20960500Y29820222D01*
X20960500Y30799778D01*
X20955179Y30867383D01*
X20954141Y30880579D01*
X20953596Y30883754D01*
X20950000Y30925917D01*
X20950000Y32237056D01*
X20953598Y32279230D01*
X20953645Y32279504D01*
X20959999Y32360249D01*
X20960000Y32360263D01*
X20960000Y32599999D01*
X20959999Y32600000D01*
X16460001Y32600000D01*
X16450936Y32590936D01*
X16450000Y32586229D01*
X16450000Y31209661D01*
X16431046Y31114373D01*
X16377070Y31033591D01*
X16296288Y30979615D01*
X16208839Y30960785D01*
X16203693Y30960623D01*
X16195888Y30960500D01*
X16169074Y30960500D01*
X16164678Y30960224D01*
X16147171Y30958847D01*
X16107431Y30957598D01*
X16096494Y30954420D01*
X16058248Y30946500D01*
X16046948Y30945073D01*
X16046942Y30945071D01*
X16009970Y30930434D01*
X15987796Y30922842D01*
X15949603Y30911746D01*
X15949595Y30911742D01*
X15939784Y30905940D01*
X15904720Y30888762D01*
X15894128Y30884569D01*
X15861955Y30861194D01*
X15842359Y30848322D01*
X15808134Y30828081D01*
X15808130Y30828078D01*
X15800071Y30820019D01*
X15770380Y30794661D01*
X15761171Y30787970D01*
X15761156Y30787957D01*
X15735820Y30757331D01*
X15720037Y30739985D01*
X14908859Y29928807D01*
X14891519Y29913028D01*
X14882055Y29905199D01*
X14835485Y29855608D01*
X14830056Y29850005D01*
X14811097Y29831044D01*
X14808183Y29827740D01*
X14796784Y29814394D01*
X14783263Y29799994D01*
X14769547Y29785388D01*
X14764060Y29775407D01*
X14742623Y29742771D01*
X14735640Y29733769D01*
X14735638Y29733765D01*
X14719845Y29697272D01*
X14709531Y29676219D01*
X14690374Y29641372D01*
X14690369Y29641360D01*
X14687535Y29630322D01*
X14674890Y29593387D01*
X14670366Y29582931D01*
X14670364Y29582927D01*
X14664145Y29543661D01*
X14659390Y29520702D01*
X14649500Y29482179D01*
X14649500Y29470794D01*
X14646434Y29431841D01*
X14644653Y29420595D01*
X14647336Y29392210D01*
X14648395Y29381011D01*
X14649500Y29357578D01*
X14649500Y28849000D01*
X14630546Y28753712D01*
X14576570Y28672930D01*
X14495788Y28618954D01*
X14400500Y28600000D01*
X12825548Y28600000D01*
X12803847Y28600948D01*
X12784000Y28602685D01*
X12750003Y28605659D01*
X12749997Y28605659D01*
X12715999Y28602685D01*
X12696152Y28600948D01*
X12674452Y28600000D01*
X10460001Y28600000D01*
X10460000Y28599999D01*
X10460000Y27685502D01*
X10352315Y27734680D01*
X10245763Y27750000D01*
X10174237Y27750000D01*
X10067685Y27734680D01*
X9960000Y27685502D01*
X9960000Y28599999D01*
X9959999Y28600000D01*
X9312167Y28600000D01*
X9252628Y28593599D01*
X9252621Y28593597D01*
X9117912Y28543354D01*
X9002812Y28457190D01*
X9002810Y28457188D01*
X8916646Y28342088D01*
X8866403Y28207379D01*
X8866401Y28207372D01*
X8860000Y28147833D01*
X8860000Y27500001D01*
X8860001Y27500000D01*
X9776314Y27500000D01*
X9750507Y27459844D01*
X9710000Y27321889D01*
X9710000Y27178111D01*
X9750507Y27040156D01*
X9776314Y27000000D01*
X8860001Y27000000D01*
X8860000Y26999999D01*
X8860000Y26401448D01*
X8841046Y26306160D01*
X8787070Y26225378D01*
X8706288Y26171402D01*
X8680472Y26162336D01*
X8644019Y26151746D01*
X8644010Y26151742D01*
X8634200Y26145940D01*
X8599136Y26128762D01*
X8588544Y26124569D01*
X8556371Y26101194D01*
X8536775Y26088322D01*
X8502550Y26068081D01*
X8502546Y26068078D01*
X8494487Y26060019D01*
X8464796Y26034661D01*
X8455587Y26027970D01*
X8455572Y26027957D01*
X8430236Y25997331D01*
X8414453Y25979985D01*
X6518859Y24084391D01*
X6501519Y24068612D01*
X6492055Y24060783D01*
X6445485Y24011192D01*
X6440056Y24005589D01*
X6421097Y23986628D01*
X6418183Y23983324D01*
X6406784Y23969978D01*
X6397415Y23960000D01*
X6379547Y23940972D01*
X6374060Y23930991D01*
X6352623Y23898355D01*
X6345640Y23889353D01*
X6345638Y23889349D01*
X6329845Y23852856D01*
X6319531Y23831803D01*
X6300374Y23796956D01*
X6300369Y23796944D01*
X6297535Y23785906D01*
X6284890Y23748971D01*
X6280366Y23738515D01*
X6280364Y23738511D01*
X6274145Y23699245D01*
X6269390Y23676286D01*
X6259500Y23637763D01*
X6259500Y23626378D01*
X6256434Y23587425D01*
X6254653Y23576179D01*
X1000000Y23576179D01*
X1000000Y46469125D01*
X6944653Y46469125D01*
X6948395Y46429539D01*
X6949500Y46406106D01*
X6949500Y40117357D01*
X6948395Y40093928D01*
X6947240Y40081708D01*
X6949377Y40013711D01*
X6949500Y40005889D01*
X6949500Y39979070D01*
X6949775Y39974681D01*
X6951153Y39957172D01*
X6952402Y39917435D01*
X6952402Y39917432D01*
X6952403Y39917431D01*
X6955580Y39906492D01*
X6963500Y39868248D01*
X6964928Y39856944D01*
X6979565Y39819973D01*
X6987161Y39797788D01*
X6998255Y39759604D01*
X6998255Y39759603D01*
X6998256Y39759602D01*
X7003933Y39750002D01*
X7004048Y39749809D01*
X7021240Y39714716D01*
X7025430Y39704133D01*
X7025432Y39704129D01*
X7048802Y39671962D01*
X7061673Y39652368D01*
X7081919Y39618135D01*
X7089978Y39610076D01*
X7115344Y39580375D01*
X7118427Y39576132D01*
X7122038Y39571162D01*
X7152662Y39545828D01*
X7170014Y39530040D01*
X8777070Y37922984D01*
X8831046Y37842202D01*
X8850000Y37746914D01*
X8850000Y34935962D01*
X8856404Y34900899D01*
X8855488Y34883106D01*
X8854341Y34870000D01*
X8854976Y34862746D01*
X8850000Y34817316D01*
X8850000Y34600000D01*
X8850000Y33100000D01*
X8850001Y33100000D01*
X8882851Y33067150D01*
X8936827Y32986368D01*
X8955781Y32891080D01*
X8938527Y32804344D01*
X8939814Y32803875D01*
X8936097Y32793665D01*
X8874935Y32565402D01*
X8854341Y32330006D01*
X8854341Y32329995D01*
X8874935Y32094599D01*
X8921864Y31919454D01*
X8936097Y31866337D01*
X9014500Y31698201D01*
X9035965Y31652170D01*
X9155436Y31481547D01*
X9171505Y31458599D01*
X9338599Y31291505D01*
X9532170Y31155965D01*
X9746337Y31056097D01*
X9974592Y30994937D01*
X9974595Y30994937D01*
X9974598Y30994936D01*
X10209995Y30974341D01*
X10210000Y30974341D01*
X10210005Y30974341D01*
X10445401Y30994936D01*
X10445403Y30994937D01*
X10445408Y30994937D01*
X10673663Y31056097D01*
X10887830Y31155965D01*
X11081401Y31291505D01*
X11248495Y31458599D01*
X11384035Y31652170D01*
X11483903Y31866337D01*
X11545063Y32094592D01*
X11545869Y32103805D01*
X11565659Y32329995D01*
X11565659Y32330006D01*
X11545064Y32565402D01*
X11545063Y32565405D01*
X11545063Y32565408D01*
X11483903Y32793663D01*
X11429278Y32910805D01*
X11406186Y33005174D01*
X11420965Y33101198D01*
X11471366Y33184257D01*
X11501713Y33212300D01*
X11549999Y33250001D01*
X11550000Y33250000D01*
X11550000Y34600000D01*
X11550000Y34680149D01*
X11550948Y34701851D01*
X11565659Y34869995D01*
X11565659Y34870006D01*
X11550948Y35038150D01*
X11550000Y35059852D01*
X11550000Y37220155D01*
X11550948Y37241858D01*
X11551661Y37250001D01*
X11565659Y37410000D01*
X11565491Y37411919D01*
X11550948Y37578144D01*
X11550000Y37599847D01*
X11550000Y39760155D01*
X11550948Y39781858D01*
X11565659Y39949996D01*
X11565659Y39950005D01*
X11550948Y40118144D01*
X11550000Y40139847D01*
X11550000Y42239999D01*
X11550000Y42321625D01*
X15337011Y42321625D01*
X15348636Y42211025D01*
X15350000Y42184997D01*
X15350000Y39815000D01*
X15348636Y39788974D01*
X15345607Y39760155D01*
X15344540Y39750000D01*
X15348261Y39714592D01*
X15348636Y39711030D01*
X15350000Y39685002D01*
X15350000Y37315000D01*
X15348636Y37288974D01*
X15344540Y37250002D01*
X15344540Y37250001D01*
X15348636Y37211030D01*
X15350000Y37185002D01*
X15350000Y34565000D01*
X15348636Y34538974D01*
X15344540Y34500002D01*
X15344540Y34500001D01*
X15364325Y34311745D01*
X15373645Y34283063D01*
X15422821Y34131716D01*
X15499676Y33998599D01*
X15517469Y33967781D01*
X15644126Y33827115D01*
X15644129Y33827112D01*
X15681446Y33800000D01*
X15797271Y33715848D01*
X15970189Y33638859D01*
X15970192Y33638858D01*
X15970197Y33638856D01*
X16155354Y33599500D01*
X16211231Y33599500D01*
X16306519Y33580546D01*
X16387301Y33526570D01*
X16441277Y33445788D01*
X16460231Y33350500D01*
X16460039Y33340712D01*
X16460000Y33339721D01*
X16460000Y33100001D01*
X16460001Y33100000D01*
X20950000Y33100000D01*
X20959999Y33100000D01*
X20960000Y33100001D01*
X20960000Y33339737D01*
X20959999Y33339750D01*
X20953645Y33420492D01*
X20953597Y33420772D01*
X20950000Y33462943D01*
X20950000Y34774085D01*
X20953597Y34816256D01*
X20954140Y34819419D01*
X20954141Y34819422D01*
X20960500Y34900222D01*
X20960500Y35879778D01*
X20955179Y35947383D01*
X20954141Y35960579D01*
X20953596Y35963754D01*
X20950000Y36005917D01*
X20950000Y37314085D01*
X20953597Y37356256D01*
X20954140Y37359419D01*
X20954141Y37359422D01*
X20960500Y37440222D01*
X20960500Y38419778D01*
X20958725Y38442326D01*
X20954141Y38500579D01*
X20953596Y38503754D01*
X20950000Y38545917D01*
X20950000Y39854085D01*
X20953597Y39896256D01*
X20954140Y39899419D01*
X20954141Y39899422D01*
X20960500Y39980222D01*
X20960500Y40959778D01*
X20960401Y40961030D01*
X20954141Y41040579D01*
X20953596Y41043754D01*
X20950000Y41085917D01*
X20950000Y42394085D01*
X20953597Y42436256D01*
X20954140Y42439419D01*
X20954141Y42439422D01*
X20960500Y42520222D01*
X20960500Y43499778D01*
X20960482Y43500001D01*
X20954141Y43580579D01*
X20953596Y43583754D01*
X20950000Y43625917D01*
X20950000Y44937056D01*
X20953598Y44979230D01*
X20953645Y44979504D01*
X20959999Y45060249D01*
X20960000Y45060263D01*
X20960000Y45299999D01*
X20959999Y45300000D01*
X16460001Y45300000D01*
X16460000Y45299999D01*
X16460000Y45060249D01*
X16466354Y44979509D01*
X16466355Y44979502D01*
X16491515Y44885609D01*
X16500000Y44821161D01*
X16500000Y43740774D01*
X16491515Y43676328D01*
X16465860Y43580585D01*
X16465859Y43580579D01*
X16465859Y43580578D01*
X16459500Y43499778D01*
X16459500Y43499776D01*
X16459500Y43499771D01*
X16459500Y43482586D01*
X16440546Y43387298D01*
X16386570Y43306516D01*
X16386569Y43306515D01*
X16301734Y43221681D01*
X16220952Y43167705D01*
X16167901Y43154230D01*
X16168118Y43153213D01*
X15970203Y43111146D01*
X15970189Y43111142D01*
X15797271Y43034153D01*
X15644126Y42922886D01*
X15517469Y42782220D01*
X15448904Y42663461D01*
X15422821Y42618284D01*
X15412425Y42586288D01*
X15364325Y42438256D01*
X15359772Y42394927D01*
X15337011Y42321625D01*
X11550000Y42321625D01*
X11550000Y44026184D01*
X11553581Y44056905D01*
X11552426Y44057029D01*
X11554268Y44074168D01*
X11560500Y44132127D01*
X11560499Y45927872D01*
X11554091Y45987483D01*
X11554089Y45987489D01*
X11544393Y46013486D01*
X11528853Y46109390D01*
X11551197Y46203941D01*
X11608023Y46282744D01*
X11690680Y46333801D01*
X11777694Y46349500D01*
X15002643Y46349500D01*
X15026072Y46348395D01*
X15038292Y46347241D01*
X15038296Y46347240D01*
X15106289Y46349378D01*
X15114111Y46349500D01*
X15140921Y46349500D01*
X15140925Y46349500D01*
X15140928Y46349501D01*
X15141048Y46349508D01*
X15156695Y46350000D01*
X16215051Y46350000D01*
X16310339Y46331046D01*
X16391121Y46277070D01*
X16445097Y46196288D01*
X16464051Y46101000D01*
X16463284Y46081466D01*
X16460000Y46039734D01*
X16460000Y45800001D01*
X16460001Y45800000D01*
X20959999Y45800000D01*
X20960000Y45800001D01*
X20960000Y46039737D01*
X20959999Y46039750D01*
X20953645Y46120492D01*
X20953597Y46120772D01*
X20950000Y46162943D01*
X20950000Y47474085D01*
X20953597Y47516256D01*
X20954140Y47519419D01*
X20954141Y47519422D01*
X20960500Y47600222D01*
X20960500Y48579778D01*
X20956412Y48631716D01*
X20954141Y48660579D01*
X20953596Y48663754D01*
X20950000Y48705917D01*
X20950000Y50014085D01*
X20953597Y50056256D01*
X20954140Y50059419D01*
X20954141Y50059422D01*
X20960500Y50140222D01*
X20960500Y51119778D01*
X20954141Y51200578D01*
X20903788Y51388496D01*
X20815465Y51561840D01*
X20807327Y51571889D01*
X20693036Y51713027D01*
X20693032Y51713032D01*
X20665400Y51735408D01*
X20541843Y51835463D01*
X20541839Y51835466D01*
X20368494Y51923789D01*
X20368490Y51923790D01*
X20180584Y51974140D01*
X20180579Y51974141D01*
X20180578Y51974141D01*
X20099778Y51980500D01*
X17320222Y51980500D01*
X17239422Y51974141D01*
X17239415Y51974140D01*
X17051509Y51923790D01*
X17051505Y51923789D01*
X16878160Y51835466D01*
X16878156Y51835463D01*
X16726973Y51713037D01*
X16726963Y51713027D01*
X16604537Y51561844D01*
X16604534Y51561840D01*
X16516211Y51388495D01*
X16516210Y51388491D01*
X16465860Y51200585D01*
X16465859Y51200578D01*
X16459500Y51119778D01*
X16459500Y51119776D01*
X16459500Y51119771D01*
X16459500Y50231115D01*
X16440546Y50135827D01*
X16386570Y50055045D01*
X14654956Y48323430D01*
X14574174Y48269454D01*
X14478886Y48250500D01*
X8848828Y48250500D01*
X8825399Y48251605D01*
X8813178Y48252760D01*
X8813175Y48252760D01*
X8745182Y48250623D01*
X8737360Y48250500D01*
X8710546Y48250500D01*
X8706150Y48250224D01*
X8688643Y48248847D01*
X8648903Y48247598D01*
X8637966Y48244420D01*
X8599720Y48236500D01*
X8588420Y48235073D01*
X8588414Y48235071D01*
X8551442Y48220434D01*
X8529268Y48212842D01*
X8491075Y48201746D01*
X8491067Y48201742D01*
X8481256Y48195940D01*
X8446192Y48178762D01*
X8435600Y48174569D01*
X8403427Y48151194D01*
X8383831Y48138322D01*
X8349606Y48118081D01*
X8349602Y48118078D01*
X8341543Y48110019D01*
X8311852Y48084661D01*
X8302643Y48077970D01*
X8302628Y48077957D01*
X8277292Y48047331D01*
X8261509Y48029985D01*
X7208859Y46977335D01*
X7191519Y46961556D01*
X7182055Y46953727D01*
X7135485Y46904136D01*
X7130056Y46898533D01*
X7111097Y46879572D01*
X7108183Y46876268D01*
X7096784Y46862922D01*
X7082060Y46847241D01*
X7069547Y46833916D01*
X7064060Y46823935D01*
X7042623Y46791299D01*
X7035640Y46782297D01*
X7035638Y46782293D01*
X7019845Y46745800D01*
X7009531Y46724747D01*
X6990374Y46689900D01*
X6990369Y46689888D01*
X6987535Y46678850D01*
X6974890Y46641915D01*
X6970366Y46631459D01*
X6970364Y46631455D01*
X6964145Y46592189D01*
X6959390Y46569230D01*
X6949500Y46530707D01*
X6949500Y46519322D01*
X6946434Y46480369D01*
X6944653Y46469125D01*
X1000000Y46469125D01*
X1000000Y46551000D01*
X1018954Y46646288D01*
X1072930Y46727070D01*
X1153712Y46781046D01*
X1249000Y46800000D01*
X3387043Y46800000D01*
X3400074Y46799659D01*
X3500000Y46794422D01*
X3887338Y46814722D01*
X4270433Y46875398D01*
X4645087Y46975786D01*
X5007194Y47114786D01*
X5352789Y47290875D01*
X5678084Y47502124D01*
X5979516Y47746219D01*
X6253781Y48020484D01*
X6497876Y48321916D01*
X6709125Y48647211D01*
X6885214Y48992806D01*
X6973258Y49222168D01*
X8860000Y49222168D01*
X8866401Y49162629D01*
X8866403Y49162622D01*
X8916646Y49027913D01*
X9002810Y48912813D01*
X9002812Y48912811D01*
X9117912Y48826647D01*
X9252621Y48776404D01*
X9252628Y48776402D01*
X9312167Y48770001D01*
X9312175Y48770000D01*
X9959999Y48770000D01*
X9960000Y48770001D01*
X9960000Y49684499D01*
X10067685Y49635320D01*
X10174237Y49620000D01*
X10245763Y49620000D01*
X10352315Y49635320D01*
X10460000Y49684499D01*
X10460000Y48770001D01*
X10460001Y48770000D01*
X11107825Y48770000D01*
X11107832Y48770001D01*
X11167371Y48776402D01*
X11167381Y48776404D01*
X11188555Y48784301D01*
X11275570Y48800000D01*
X12425595Y48800000D01*
X12490038Y48791516D01*
X12493139Y48790686D01*
X12514592Y48784937D01*
X12514596Y48784937D01*
X12514598Y48784936D01*
X12749995Y48764341D01*
X12750000Y48764341D01*
X12750005Y48764341D01*
X12985401Y48784936D01*
X12985403Y48784937D01*
X12985408Y48784937D01*
X13213663Y48846097D01*
X13427830Y48945965D01*
X13621401Y49081505D01*
X13788495Y49248599D01*
X13924035Y49442170D01*
X14023903Y49656337D01*
X14085063Y49884592D01*
X14085064Y49884599D01*
X14105659Y50119995D01*
X14105659Y50120006D01*
X14085064Y50355402D01*
X14085063Y50355405D01*
X14085063Y50355408D01*
X14023903Y50583663D01*
X13973230Y50692331D01*
X13924038Y50797823D01*
X13924034Y50797831D01*
X13856838Y50893796D01*
X13788495Y50991401D01*
X13621401Y51158495D01*
X13598186Y51174750D01*
X13427830Y51294035D01*
X13213663Y51393903D01*
X13213660Y51393904D01*
X12985401Y51455065D01*
X12750005Y51475659D01*
X12749995Y51475659D01*
X12514598Y51455065D01*
X12507327Y51453782D01*
X12464092Y51450000D01*
X11248758Y51450000D01*
X11182974Y51461869D01*
X11182537Y51460015D01*
X11167371Y51463599D01*
X11107832Y51470000D01*
X10460001Y51470000D01*
X10460000Y51469999D01*
X10460000Y50555502D01*
X10352315Y50604680D01*
X10245763Y50620000D01*
X10174237Y50620000D01*
X10067685Y50604680D01*
X9960000Y50555502D01*
X9960000Y51469999D01*
X9959999Y51470000D01*
X9312167Y51470000D01*
X9252628Y51463599D01*
X9252621Y51463597D01*
X9117912Y51413354D01*
X9002812Y51327190D01*
X9002810Y51327188D01*
X8916646Y51212088D01*
X8866403Y51077379D01*
X8866401Y51077372D01*
X8860000Y51017833D01*
X8860000Y50370001D01*
X8860001Y50370000D01*
X9776314Y50370000D01*
X9750507Y50329844D01*
X9710000Y50191889D01*
X9710000Y50048111D01*
X9750507Y49910156D01*
X9776314Y49870000D01*
X8860001Y49870000D01*
X8860000Y49869999D01*
X8860000Y49222168D01*
X6973258Y49222168D01*
X7024214Y49354913D01*
X7124602Y49729567D01*
X7185278Y50112662D01*
X7205578Y50500000D01*
X7200341Y50599928D01*
X7200000Y50612959D01*
X7200000Y52751000D01*
X7218954Y52846288D01*
X7272930Y52927070D01*
X7353712Y52981046D01*
X7449000Y53000000D01*
X24364548Y53000000D01*
X24459836Y52981046D01*
G37*
%TD.AperFunction*%
%TA.AperFunction,Conductor*%
G36*
X57660202Y8343046D02*
G01*
X57740984Y8289070D01*
X58526570Y7503484D01*
X58580546Y7422702D01*
X58599500Y7327414D01*
X58599500Y4447357D01*
X58598395Y4423928D01*
X58597240Y4411708D01*
X58597240Y4411705D01*
X58597240Y4411704D01*
X58598355Y4376236D01*
X58599377Y4343711D01*
X58599500Y4335889D01*
X58599500Y4309070D01*
X58599775Y4304681D01*
X58601153Y4287172D01*
X58602402Y4247435D01*
X58602402Y4247432D01*
X58602403Y4247431D01*
X58605580Y4236492D01*
X58613500Y4198248D01*
X58614928Y4186944D01*
X58629565Y4149973D01*
X58637161Y4127788D01*
X58648255Y4089604D01*
X58648255Y4089603D01*
X58654048Y4079809D01*
X58671240Y4044716D01*
X58675430Y4034133D01*
X58675432Y4034129D01*
X58698802Y4001962D01*
X58711673Y3982368D01*
X58731919Y3948135D01*
X58739978Y3940076D01*
X58765344Y3910375D01*
X58769017Y3905320D01*
X58772038Y3901162D01*
X58802662Y3875828D01*
X58820014Y3860040D01*
X60077070Y2602984D01*
X60131046Y2522202D01*
X60150000Y2426914D01*
X60150000Y1249000D01*
X60131046Y1153712D01*
X60077070Y1072930D01*
X59996288Y1018954D01*
X59901000Y1000000D01*
X58422989Y1000000D01*
X57500000Y1000000D01*
X53500000Y1000000D01*
X52500000Y1000000D01*
X49349000Y1000000D01*
X49253712Y1018954D01*
X49172930Y1072930D01*
X49118954Y1153712D01*
X49100000Y1249000D01*
X49100000Y1826915D01*
X49118954Y1922203D01*
X49172930Y2002985D01*
X49393217Y2223271D01*
X50746516Y3576570D01*
X50827298Y3630546D01*
X50922586Y3649500D01*
X52042386Y3649500D01*
X52137674Y3630546D01*
X52218456Y3576570D01*
X52272432Y3495788D01*
X52276374Y3485650D01*
X52285259Y3461234D01*
X52285260Y3461231D01*
X52285261Y3461229D01*
X52285262Y3461227D01*
X52368415Y3317185D01*
X52368416Y3317183D01*
X52368419Y3317179D01*
X52475305Y3189784D01*
X52475311Y3189778D01*
X52475317Y3189771D01*
X52572513Y3108208D01*
X52602723Y3082857D01*
X52665862Y3046402D01*
X52746758Y2999694D01*
X52746761Y2999693D01*
X52746763Y2999692D01*
X52870073Y2954809D01*
X52903047Y2942807D01*
X53066840Y2913924D01*
X53066855Y2913924D01*
X53067122Y2913900D01*
X53150000Y2913900D01*
X53233159Y2913900D01*
X53233162Y2913900D01*
X53396960Y2942784D01*
X53553252Y2999673D01*
X53625519Y3041400D01*
X53717514Y3072630D01*
X53814461Y3066278D01*
X53874527Y3041398D01*
X53946751Y2999697D01*
X53946763Y2999692D01*
X54070073Y2954809D01*
X54103047Y2942807D01*
X54266840Y2913924D01*
X54266855Y2913924D01*
X54267122Y2913900D01*
X54350000Y2913900D01*
X54433159Y2913900D01*
X54433162Y2913900D01*
X54596960Y2942784D01*
X54753252Y2999673D01*
X54897291Y3082839D01*
X55024699Y3189754D01*
X55131605Y3317171D01*
X55214760Y3461217D01*
X55223651Y3485650D01*
X55274045Y3568709D01*
X55352391Y3626163D01*
X55446760Y3649262D01*
X55457639Y3649500D01*
X56202643Y3649500D01*
X56226072Y3648395D01*
X56238292Y3647241D01*
X56238296Y3647240D01*
X56306289Y3649378D01*
X56314111Y3649500D01*
X56340922Y3649500D01*
X56340925Y3649500D01*
X56340927Y3649501D01*
X56345458Y3649786D01*
X56362830Y3651155D01*
X56402569Y3652403D01*
X56413502Y3655580D01*
X56451756Y3663502D01*
X56463058Y3664929D01*
X56500038Y3679572D01*
X56522210Y3687163D01*
X56560398Y3698256D01*
X56570195Y3704051D01*
X56605289Y3721243D01*
X56615871Y3725432D01*
X56648046Y3748809D01*
X56667637Y3761678D01*
X56701865Y3781919D01*
X56709916Y3789971D01*
X56739629Y3815348D01*
X56748837Y3822037D01*
X56774176Y3852669D01*
X56789952Y3870008D01*
X57441144Y4521200D01*
X57458490Y4536981D01*
X57467931Y4544793D01*
X57467940Y4544798D01*
X57514527Y4594410D01*
X57519945Y4600000D01*
X57538908Y4618962D01*
X57541913Y4622372D01*
X57553238Y4635632D01*
X57580445Y4664604D01*
X57580444Y4664604D01*
X57580448Y4664607D01*
X57585929Y4674579D01*
X57607384Y4707242D01*
X57614362Y4716236D01*
X57630151Y4752726D01*
X57640472Y4773791D01*
X57659625Y4808629D01*
X57659627Y4808632D01*
X57662457Y4819657D01*
X57675120Y4856641D01*
X57676560Y4859968D01*
X57679635Y4867073D01*
X57685852Y4906334D01*
X57690607Y4929298D01*
X57700500Y4967823D01*
X57700500Y4979213D01*
X57703566Y5018167D01*
X57704320Y5022930D01*
X57705346Y5029405D01*
X57702157Y5063139D01*
X57701605Y5068983D01*
X57700500Y5092414D01*
X57700500Y6452651D01*
X57701605Y6476086D01*
X57702757Y6488286D01*
X57702760Y6488297D01*
X57700623Y6556293D01*
X57700500Y6564114D01*
X57700500Y6590918D01*
X57700216Y6595426D01*
X57698845Y6612846D01*
X57698277Y6630925D01*
X57697597Y6652570D01*
X57695415Y6660081D01*
X57694422Y6663500D01*
X57686498Y6701759D01*
X57685071Y6713058D01*
X57670433Y6750027D01*
X57662834Y6772225D01*
X57651744Y6810399D01*
X57645950Y6820196D01*
X57628757Y6855289D01*
X57624568Y6865871D01*
X57601188Y6898050D01*
X57588322Y6917639D01*
X57568081Y6951865D01*
X57568077Y6951869D01*
X57560025Y6959922D01*
X57534656Y6989625D01*
X57529467Y6996767D01*
X57527963Y6998837D01*
X57527961Y6998839D01*
X57527959Y6998841D01*
X57497330Y7024180D01*
X57479979Y7039967D01*
X57066310Y7453636D01*
X57050525Y7470984D01*
X57042701Y7480441D01*
X56993125Y7526996D01*
X56987511Y7532436D01*
X56968541Y7551406D01*
X56965197Y7554354D01*
X56951886Y7565722D01*
X56922893Y7592948D01*
X56922890Y7592950D01*
X56922888Y7592952D01*
X56912909Y7598438D01*
X56880263Y7619883D01*
X56871267Y7626861D01*
X56871268Y7626861D01*
X56834781Y7642650D01*
X56813720Y7652968D01*
X56805045Y7657737D01*
X56730674Y7720251D01*
X56685887Y7806468D01*
X56675999Y7875939D01*
X56675999Y7886895D01*
X56675999Y7886904D01*
X56673265Y7921656D01*
X56659530Y7968930D01*
X56651148Y8065722D01*
X56659532Y8107870D01*
X56672767Y8153423D01*
X56673555Y8157737D01*
X56675303Y8162155D01*
X56676317Y8165641D01*
X56676646Y8165546D01*
X56709321Y8248069D01*
X56776932Y8317838D01*
X56866097Y8356423D01*
X56918503Y8362000D01*
X57564914Y8362000D01*
X57660202Y8343046D01*
G37*
%TD.AperFunction*%
%TA.AperFunction,Conductor*%
G36*
X74603422Y19524361D02*
G01*
X74641145Y19511861D01*
X74722203Y19485001D01*
X74824991Y19474500D01*
X76175008Y19474501D01*
X76277797Y19485001D01*
X76396577Y19524362D01*
X76474900Y19537000D01*
X76928684Y19537000D01*
X77016808Y19519471D01*
X77016900Y19519748D01*
X77019129Y19519010D01*
X77023972Y19518046D01*
X77029876Y19515448D01*
X77030665Y19515187D01*
X77030666Y19515186D01*
X77197203Y19460001D01*
X77299991Y19449500D01*
X78700008Y19449501D01*
X78802797Y19460001D01*
X78959300Y19511862D01*
X79037622Y19524500D01*
X79250500Y19524500D01*
X79345788Y19505546D01*
X79426570Y19451570D01*
X79480546Y19370788D01*
X79499500Y19275500D01*
X79499500Y18999266D01*
X79499501Y18999240D01*
X79514925Y18847567D01*
X79514924Y18847567D01*
X79559820Y18704475D01*
X79571625Y18666848D01*
X79575843Y18653406D01*
X79674591Y18475496D01*
X79807130Y18321108D01*
X79807134Y18321105D01*
X79968042Y18196552D01*
X79968045Y18196551D01*
X79968046Y18196550D01*
X80150724Y18106942D01*
X80150725Y18106942D01*
X80150729Y18106940D01*
X80347715Y18055937D01*
X80436624Y18051429D01*
X80550927Y18045631D01*
X80550930Y18045632D01*
X80550936Y18045631D01*
X80555636Y18046352D01*
X80560716Y18047129D01*
X80598420Y18050000D01*
X83751000Y18050000D01*
X83846288Y18031046D01*
X83927070Y17977070D01*
X83981046Y17896288D01*
X84000000Y17801000D01*
X84000000Y7449000D01*
X83981046Y7353712D01*
X83927070Y7272930D01*
X83846288Y7218954D01*
X83751000Y7200000D01*
X81612957Y7200000D01*
X81599926Y7200341D01*
X81500000Y7205578D01*
X81112662Y7185278D01*
X81112656Y7185278D01*
X81112654Y7185277D01*
X80729571Y7124603D01*
X80729567Y7124603D01*
X80729567Y7124602D01*
X80413704Y7039967D01*
X80354913Y7024214D01*
X79992804Y6885214D01*
X79647215Y6709128D01*
X79647210Y6709125D01*
X79321914Y6497876D01*
X79020490Y6253787D01*
X78746213Y5979510D01*
X78502124Y5678086D01*
X78290875Y5352790D01*
X78290872Y5352785D01*
X78114786Y5007196D01*
X77980601Y4657630D01*
X77975786Y4645087D01*
X77876548Y4274723D01*
X77875397Y4270429D01*
X77814723Y3887346D01*
X77814722Y3887338D01*
X77798894Y3585329D01*
X77794422Y3500000D01*
X77799659Y3400074D01*
X77800000Y3387043D01*
X77800000Y1249000D01*
X77781046Y1153712D01*
X77727070Y1072930D01*
X77646288Y1018954D01*
X77551000Y1000000D01*
X65799000Y1000000D01*
X65703712Y1018954D01*
X65622930Y1072930D01*
X65568954Y1153712D01*
X65550000Y1249000D01*
X65550000Y2249999D01*
X65549999Y2250000D01*
X64474000Y2250000D01*
X64378712Y2268954D01*
X64297930Y2322930D01*
X64243954Y2403712D01*
X64225000Y2499000D01*
X64225000Y2750001D01*
X64725000Y2750001D01*
X64725001Y2750000D01*
X65549998Y2750000D01*
X65549999Y2750001D01*
X65549999Y3199968D01*
X65549998Y3199985D01*
X65539505Y3302700D01*
X65539504Y3302703D01*
X65484359Y3469120D01*
X65468841Y3494278D01*
X65434948Y3585329D01*
X65438478Y3682420D01*
X65468841Y3755722D01*
X65484359Y3780880D01*
X65539504Y3947299D01*
X65539505Y3947306D01*
X65549999Y4050019D01*
X65550000Y4050029D01*
X65550000Y4499999D01*
X65549999Y4500000D01*
X64725001Y4500000D01*
X64725000Y4499999D01*
X64725000Y2750001D01*
X64225000Y2750001D01*
X64225000Y5000001D01*
X64725000Y5000001D01*
X64725001Y5000000D01*
X65549998Y5000000D01*
X65549999Y5000001D01*
X65549999Y5449968D01*
X65549998Y5449985D01*
X65539505Y5552700D01*
X65539504Y5552703D01*
X65484359Y5719120D01*
X65468841Y5744278D01*
X65434948Y5835329D01*
X65438478Y5932420D01*
X65468841Y6005722D01*
X65484359Y6030880D01*
X65539504Y6197299D01*
X65539505Y6197306D01*
X65549999Y6300019D01*
X65550000Y6300029D01*
X65550000Y6749999D01*
X65549999Y6750000D01*
X64725001Y6750000D01*
X64725000Y6749999D01*
X64725000Y5000001D01*
X64225000Y5000001D01*
X64225000Y7250001D01*
X64725000Y7250001D01*
X64725001Y7250000D01*
X65549998Y7250000D01*
X65549999Y7250001D01*
X65549999Y7699968D01*
X65549997Y7700000D01*
X65539505Y7802700D01*
X65539504Y7802703D01*
X65484359Y7969120D01*
X65468841Y7994278D01*
X65434948Y8085329D01*
X65438478Y8182420D01*
X65468841Y8255722D01*
X65484359Y8280880D01*
X65539504Y8447299D01*
X65539505Y8447306D01*
X65549999Y8550019D01*
X65550000Y8550029D01*
X65550000Y8999999D01*
X65549999Y9000000D01*
X64725001Y9000000D01*
X64725000Y8999999D01*
X64725000Y7250001D01*
X64225000Y7250001D01*
X64225000Y9500001D01*
X64725000Y9500001D01*
X64725001Y9500000D01*
X65549998Y9500000D01*
X65549999Y9500001D01*
X65549999Y9949968D01*
X65549998Y9949985D01*
X65539505Y10052700D01*
X65539504Y10052703D01*
X65484359Y10219120D01*
X65484358Y10219122D01*
X65392318Y10368342D01*
X65392315Y10368346D01*
X65268345Y10492316D01*
X65268341Y10492319D01*
X65119121Y10584359D01*
X65119120Y10584360D01*
X64952701Y10639505D01*
X64952694Y10639506D01*
X64849981Y10650000D01*
X64725001Y10650000D01*
X64725000Y10649999D01*
X64725000Y9500001D01*
X64225000Y9500001D01*
X64225000Y10650001D01*
X64100024Y10650000D01*
X63997301Y10639506D01*
X63857471Y10593171D01*
X63761057Y10581191D01*
X63667398Y10607019D01*
X63612220Y10650000D01*
X63600000Y10650000D01*
X61916164Y10650000D01*
X61903497Y10650322D01*
X61900015Y10650500D01*
X61900009Y10650500D01*
X61900002Y10650500D01*
X61149993Y10650500D01*
X61047198Y10639999D01*
X61047196Y10639998D01*
X60992255Y10621792D01*
X60895841Y10609811D01*
X60802182Y10635639D01*
X60737863Y10682083D01*
X59416310Y12003636D01*
X59400525Y12020984D01*
X59392701Y12030441D01*
X59343125Y12076996D01*
X59337511Y12082436D01*
X59318541Y12101406D01*
X59315197Y12104354D01*
X59301886Y12115722D01*
X59272893Y12142948D01*
X59272890Y12142950D01*
X59272888Y12142952D01*
X59262909Y12148438D01*
X59230263Y12169883D01*
X59221267Y12176861D01*
X59221268Y12176861D01*
X59184781Y12192650D01*
X59163722Y12202967D01*
X59128870Y12222126D01*
X59128869Y12222127D01*
X59128868Y12222127D01*
X59117823Y12224964D01*
X59080873Y12237615D01*
X59070426Y12242136D01*
X59031160Y12248355D01*
X59008192Y12253111D01*
X58969677Y12263000D01*
X58969676Y12263000D01*
X58958294Y12263000D01*
X58919339Y12266066D01*
X58908095Y12267847D01*
X58868511Y12264105D01*
X58845078Y12263000D01*
X56919015Y12263000D01*
X56823727Y12281954D01*
X56742945Y12335930D01*
X56688969Y12416712D01*
X56674065Y12467273D01*
X56673264Y12471660D01*
X56668536Y12487934D01*
X56659791Y12518031D01*
X56651407Y12614820D01*
X56659789Y12656962D01*
X56673265Y12703344D01*
X56676000Y12738095D01*
X56675999Y13086904D01*
X56673265Y13121656D01*
X56659530Y13168930D01*
X56651148Y13265722D01*
X56659532Y13307870D01*
X56672767Y13353423D01*
X56673555Y13357737D01*
X56675303Y13362155D01*
X56676317Y13365641D01*
X56676646Y13365546D01*
X56709321Y13448069D01*
X56776932Y13517838D01*
X56866097Y13556423D01*
X56918503Y13562000D01*
X61914914Y13562000D01*
X62010202Y13543046D01*
X62090984Y13489070D01*
X62276570Y13303484D01*
X62330546Y13222702D01*
X62349500Y13127415D01*
X62349500Y12899995D01*
X62360001Y12797200D01*
X62415185Y12630668D01*
X62415186Y12630666D01*
X62507288Y12481344D01*
X62631344Y12357288D01*
X62780666Y12265186D01*
X62780669Y12265185D01*
X62780667Y12265185D01*
X62910609Y12222127D01*
X62947203Y12210001D01*
X63049991Y12199500D01*
X64450008Y12199501D01*
X64552797Y12210001D01*
X64719334Y12265186D01*
X64868656Y12357288D01*
X64893754Y12382387D01*
X64974532Y12436362D01*
X65069819Y12455317D01*
X65148145Y12442678D01*
X65167206Y12436362D01*
X65322203Y12385001D01*
X65424991Y12374500D01*
X66150008Y12374501D01*
X66252797Y12385001D01*
X66259916Y12387360D01*
X66338242Y12400000D01*
X68161759Y12400000D01*
X68240080Y12387362D01*
X68247203Y12385001D01*
X68349991Y12374500D01*
X69075008Y12374501D01*
X69177797Y12385001D01*
X69344334Y12440186D01*
X69493656Y12532288D01*
X69617712Y12656344D01*
X69709814Y12805666D01*
X69750624Y12928822D01*
X69798588Y13013311D01*
X69875234Y13073015D01*
X69968893Y13098842D01*
X69986985Y13099500D01*
X70152643Y13099500D01*
X70176072Y13098395D01*
X70188292Y13097241D01*
X70188296Y13097240D01*
X70256289Y13099378D01*
X70264111Y13099500D01*
X70290922Y13099500D01*
X70290925Y13099500D01*
X70290927Y13099501D01*
X70295458Y13099786D01*
X70312830Y13101155D01*
X70352569Y13102403D01*
X70363502Y13105580D01*
X70401756Y13113502D01*
X70413058Y13114929D01*
X70450038Y13129572D01*
X70472210Y13137163D01*
X70510398Y13148256D01*
X70520195Y13154051D01*
X70555289Y13171243D01*
X70565871Y13175432D01*
X70598046Y13198809D01*
X70617637Y13211678D01*
X70651865Y13231919D01*
X70659916Y13239971D01*
X70689629Y13265348D01*
X70698837Y13272037D01*
X70724176Y13302669D01*
X70739952Y13320008D01*
X71391144Y13971200D01*
X71408490Y13986981D01*
X71417931Y13994793D01*
X71417940Y13994798D01*
X71464527Y14044410D01*
X71469945Y14050000D01*
X71488908Y14068962D01*
X71491913Y14072372D01*
X71503238Y14085632D01*
X71530445Y14114604D01*
X71530444Y14114604D01*
X71530448Y14114607D01*
X71535929Y14124579D01*
X71557384Y14157242D01*
X71564362Y14166236D01*
X71580151Y14202726D01*
X71590472Y14223791D01*
X71609625Y14258629D01*
X71609627Y14258632D01*
X71612457Y14269657D01*
X71625120Y14306641D01*
X71629635Y14317073D01*
X71635852Y14356334D01*
X71640607Y14379298D01*
X71650500Y14417823D01*
X71650500Y14429213D01*
X71653566Y14468167D01*
X71655346Y14479405D01*
X71655345Y14479413D01*
X71655654Y14489214D01*
X71677589Y14583860D01*
X71734075Y14662908D01*
X71816511Y14714322D01*
X71826209Y14717759D01*
X71969331Y14765185D01*
X71969331Y14765186D01*
X71969334Y14765186D01*
X72118656Y14857288D01*
X72242712Y14981344D01*
X72334814Y15130666D01*
X72389999Y15297203D01*
X72400500Y15399991D01*
X72400499Y16150008D01*
X72400497Y16150018D01*
X72400322Y16153472D01*
X72400000Y16166141D01*
X72400000Y18333837D01*
X72400322Y18346505D01*
X72400497Y18349964D01*
X72400500Y18349991D01*
X72400499Y19100008D01*
X72390264Y19200200D01*
X72399436Y19296917D01*
X72444924Y19382766D01*
X72519801Y19444672D01*
X72612670Y19473212D01*
X72637956Y19474501D01*
X73925008Y19474501D01*
X74027797Y19485001D01*
X74146577Y19524362D01*
X74224900Y19537000D01*
X74525100Y19537000D01*
X74603422Y19524361D01*
G37*
%TD.AperFunction*%
%TA.AperFunction,Conductor*%
G36*
X53020788Y10231046D02*
G01*
X53101570Y10177070D01*
X53155546Y10096288D01*
X53174500Y10001000D01*
X53174500Y9983493D01*
X53171871Y9947405D01*
X53169870Y9933748D01*
X53169870Y9933746D01*
X53173553Y9891646D01*
X53174500Y9869948D01*
X53174500Y9699228D01*
X53173553Y9677535D01*
X53172340Y9663670D01*
X53174395Y9593040D01*
X53174500Y9585800D01*
X53174500Y9299228D01*
X53173553Y9277535D01*
X53172340Y9263670D01*
X53172340Y9263663D01*
X53172340Y9263662D01*
X53173186Y9234599D01*
X53174395Y9193040D01*
X53174500Y9185800D01*
X53174500Y8320993D01*
X53171871Y8284905D01*
X53169870Y8271248D01*
X53169870Y8271246D01*
X53173553Y8229146D01*
X53174449Y8208606D01*
X53174499Y8207741D01*
X53177761Y8179833D01*
X53178496Y8172634D01*
X53184650Y8102294D01*
X53186791Y8091922D01*
X53189250Y8081547D01*
X53213400Y8015195D01*
X53215775Y8008364D01*
X53228708Y7969334D01*
X53237997Y7941304D01*
X53242480Y7931688D01*
X53247256Y7922179D01*
X53286062Y7863176D01*
X53289951Y7857071D01*
X53327028Y7796961D01*
X53333629Y7788613D01*
X53340451Y7780483D01*
X53391802Y7732036D01*
X53396999Y7726989D01*
X53874296Y7249692D01*
X53897950Y7222321D01*
X53906198Y7211242D01*
X53906199Y7211241D01*
X53906200Y7211240D01*
X53938563Y7184084D01*
X53953727Y7170191D01*
X53954363Y7169625D01*
X53954374Y7169614D01*
X53976415Y7152187D01*
X53981973Y7147659D01*
X54036117Y7102227D01*
X54045013Y7096377D01*
X54054033Y7090813D01*
X54057385Y7089250D01*
X54061719Y7086072D01*
X54066379Y7083198D01*
X54066148Y7082825D01*
X54135737Y7031804D01*
X54186141Y6948746D01*
X54200393Y6883109D01*
X54202734Y6853347D01*
X54202736Y6853339D01*
X54245943Y6704617D01*
X54245943Y6704616D01*
X54308581Y6598702D01*
X54324785Y6571302D01*
X54434302Y6461785D01*
X54567613Y6382945D01*
X54567615Y6382945D01*
X54567616Y6382944D01*
X54716340Y6339736D01*
X54716343Y6339735D01*
X54719923Y6339454D01*
X54751095Y6337000D01*
X56124904Y6337001D01*
X56130965Y6337478D01*
X56227445Y6326059D01*
X56312213Y6278587D01*
X56372361Y6202290D01*
X56398732Y6108782D01*
X56399500Y6089246D01*
X56399500Y5422586D01*
X56380546Y5327298D01*
X56326570Y5246516D01*
X56103484Y5023430D01*
X56022702Y4969454D01*
X55927414Y4950500D01*
X55023294Y4950500D01*
X54950000Y4950500D01*
X54866842Y4950500D01*
X54866837Y4950500D01*
X54866835Y4950499D01*
X54808881Y4940281D01*
X54711750Y4942402D01*
X54622823Y4981532D01*
X54558600Y5047179D01*
X54544803Y5067831D01*
X54497469Y5138684D01*
X54467728Y5168430D01*
X54370807Y5265369D01*
X54370801Y5265374D01*
X54221859Y5364911D01*
X54221856Y5364913D01*
X54056349Y5433485D01*
X53880652Y5468448D01*
X53880570Y5468456D01*
X53873199Y5468456D01*
X53812100Y5468456D01*
X53811838Y5468508D01*
X53708923Y5468500D01*
X53620053Y5468494D01*
X53619343Y5468493D01*
X53619342Y5468493D01*
X53443636Y5433527D01*
X53278122Y5364953D01*
X53278121Y5364952D01*
X53129169Y5265409D01*
X53129166Y5265407D01*
X53002498Y5138717D01*
X53002494Y5138712D01*
X52941351Y5047187D01*
X52872658Y4978482D01*
X52782902Y4941295D01*
X52691067Y4940290D01*
X52633168Y4950499D01*
X52633161Y4950500D01*
X52633158Y4950500D01*
X52633153Y4950500D01*
X50647357Y4950500D01*
X50623928Y4951605D01*
X50611707Y4952760D01*
X50611704Y4952760D01*
X50543711Y4950623D01*
X50535889Y4950500D01*
X50509072Y4950500D01*
X50508929Y4950491D01*
X50493301Y4950000D01*
X49968098Y4950000D01*
X49872810Y4968954D01*
X49792028Y5022930D01*
X49752459Y5074498D01*
X49681578Y5197267D01*
X49681577Y5197269D01*
X49585284Y5312027D01*
X49574673Y5324673D01*
X49485149Y5399792D01*
X49447266Y5431579D01*
X49423464Y5445321D01*
X49350419Y5509380D01*
X49307449Y5596516D01*
X49300890Y5676538D01*
X49300500Y5676538D01*
X49300500Y5681294D01*
X49300165Y5685380D01*
X49300498Y5688763D01*
X49300500Y5688771D01*
X49300500Y5775000D01*
X49300500Y5848294D01*
X49300500Y5965925D01*
X49300500Y6011229D01*
X49294792Y6039926D01*
X49294793Y6137079D01*
X49331973Y6226839D01*
X49400672Y6295537D01*
X49490431Y6332717D01*
X49539008Y6337501D01*
X50248843Y6337501D01*
X50248856Y6337502D01*
X50283574Y6340233D01*
X50283577Y6340234D01*
X50432186Y6383409D01*
X50565387Y6462184D01*
X50674816Y6571613D01*
X50753591Y6704814D01*
X50753591Y6704815D01*
X50796765Y6853418D01*
X50796767Y6853427D01*
X50799499Y6888139D01*
X50799499Y7236845D01*
X50799498Y7236855D01*
X50796766Y7271580D01*
X50783532Y7317132D01*
X50775147Y7413925D01*
X50783529Y7456067D01*
X50797265Y7503344D01*
X50800000Y7538095D01*
X50799999Y7886904D01*
X50797265Y7921656D01*
X50783791Y7968031D01*
X50775407Y8064820D01*
X50783789Y8106962D01*
X50797265Y8153344D01*
X50800000Y8188095D01*
X50799999Y8536904D01*
X50797265Y8571656D01*
X50783791Y8618031D01*
X50775407Y8714820D01*
X50783789Y8756962D01*
X50797265Y8803344D01*
X50800000Y8838095D01*
X50799999Y9186904D01*
X50797265Y9221656D01*
X50783791Y9268031D01*
X50775407Y9364820D01*
X50783789Y9406962D01*
X50797265Y9453344D01*
X50800000Y9488095D01*
X50799999Y9836904D01*
X50797265Y9871656D01*
X50790908Y9893534D01*
X50782527Y9990325D01*
X50811823Y10082958D01*
X50874339Y10157328D01*
X50960556Y10202114D01*
X51030023Y10212000D01*
X51889688Y10212000D01*
X51925776Y10209372D01*
X51940523Y10207211D01*
X51979378Y10210611D01*
X51984441Y10211053D01*
X52006139Y10212000D01*
X52006211Y10212000D01*
X52024831Y10214177D01*
X52035172Y10215386D01*
X52042343Y10216120D01*
X52115297Y10222501D01*
X52115300Y10222503D01*
X52126037Y10224719D01*
X52136753Y10227259D01*
X52136755Y10227259D01*
X52157977Y10234984D01*
X52243141Y10250000D01*
X52925500Y10250000D01*
X53020788Y10231046D01*
G37*
%TD.AperFunction*%
%TA.AperFunction,Conductor*%
G36*
X47430781Y18731046D02*
G01*
X47511562Y18677070D01*
X47917828Y18270805D01*
X47941484Y18243432D01*
X47950388Y18231472D01*
X47950389Y18231471D01*
X47950390Y18231470D01*
X47977085Y18209070D01*
X47984155Y18203138D01*
X48000153Y18188480D01*
X48000223Y18188410D01*
X48023125Y18170302D01*
X48028674Y18165782D01*
X48050544Y18147431D01*
X48084787Y18118697D01*
X48093981Y18112651D01*
X48103319Y18106890D01*
X48146100Y18086942D01*
X48169657Y18075957D01*
X48176155Y18072812D01*
X48241567Y18039960D01*
X48241571Y18039959D01*
X48251908Y18036197D01*
X48262324Y18032746D01*
X48262327Y18032744D01*
X48333975Y18017951D01*
X48341040Y18016384D01*
X48387997Y18005255D01*
X48412279Y17999500D01*
X48412285Y17999500D01*
X48423191Y17998225D01*
X48434138Y17997268D01*
X48434139Y17997269D01*
X48434144Y17997267D01*
X48505311Y17999338D01*
X48507290Y17999395D01*
X48514529Y17999500D01*
X49835992Y17999500D01*
X49931280Y17980546D01*
X50012062Y17926570D01*
X51676570Y16262063D01*
X51730546Y16181281D01*
X51749500Y16085993D01*
X51749500Y11962000D01*
X51730546Y11866712D01*
X51676570Y11785930D01*
X51595788Y11731954D01*
X51500500Y11713000D01*
X51030022Y11713000D01*
X50934734Y11731954D01*
X50853952Y11785930D01*
X50799976Y11866712D01*
X50781022Y11962000D01*
X50790910Y12031471D01*
X50797265Y12053344D01*
X50800000Y12088095D01*
X50799999Y12436904D01*
X50797265Y12471656D01*
X50783791Y12518031D01*
X50775407Y12614820D01*
X50783789Y12656962D01*
X50797265Y12703344D01*
X50800000Y12738095D01*
X50799999Y13086904D01*
X50797265Y13121656D01*
X50783791Y13168031D01*
X50775407Y13264820D01*
X50783789Y13306962D01*
X50797265Y13353344D01*
X50800000Y13388095D01*
X50799999Y13736904D01*
X50797265Y13771656D01*
X50783791Y13818031D01*
X50775407Y13914820D01*
X50783789Y13956962D01*
X50797265Y14003344D01*
X50800000Y14038095D01*
X50799999Y14386904D01*
X50797265Y14421656D01*
X50783791Y14468031D01*
X50775407Y14564820D01*
X50783789Y14606962D01*
X50797265Y14653344D01*
X50800000Y14688095D01*
X50799999Y15036904D01*
X50797265Y15071656D01*
X50783530Y15118930D01*
X50775148Y15215722D01*
X50783532Y15257870D01*
X50796766Y15303421D01*
X50796767Y15303429D01*
X50799499Y15338139D01*
X50799499Y15686845D01*
X50799498Y15686855D01*
X50796767Y15721575D01*
X50796766Y15721578D01*
X50753591Y15870187D01*
X50674816Y16003388D01*
X50565387Y16112817D01*
X50432186Y16191592D01*
X50283582Y16234766D01*
X50283573Y16234768D01*
X50248856Y16237500D01*
X48875157Y16237500D01*
X48875143Y16237499D01*
X48840425Y16234768D01*
X48840422Y16234767D01*
X48691813Y16191592D01*
X48558612Y16112817D01*
X48483941Y16038145D01*
X48403159Y15984169D01*
X48307871Y15965215D01*
X48212583Y15984169D01*
X48131801Y16038145D01*
X46473430Y17696516D01*
X46419454Y17777298D01*
X46400500Y17872586D01*
X46400500Y18501000D01*
X46419454Y18596288D01*
X46473430Y18677070D01*
X46554212Y18731046D01*
X46649500Y18750000D01*
X47335493Y18750000D01*
X47430781Y18731046D01*
G37*
%TD.AperFunction*%
%TA.AperFunction,Conductor*%
G36*
X63246288Y18181046D02*
G01*
X63327070Y18127070D01*
X63381046Y18046288D01*
X63400000Y17951000D01*
X63400000Y17549500D01*
X63381046Y17454212D01*
X63327070Y17373430D01*
X63246288Y17319454D01*
X63151002Y17300500D01*
X63049994Y17300500D01*
X62947199Y17289999D01*
X62780667Y17234815D01*
X62631346Y17142714D01*
X62507286Y17018654D01*
X62415184Y16869332D01*
X62360002Y16702803D01*
X62360001Y16702796D01*
X62349500Y16600012D01*
X62349500Y15935087D01*
X62330546Y15839799D01*
X62276570Y15759018D01*
X62103482Y15585929D01*
X62022705Y15531955D01*
X61927416Y15513000D01*
X56918503Y15513000D01*
X56823215Y15531954D01*
X56742433Y15585930D01*
X56688457Y15666712D01*
X56673554Y15717269D01*
X56672767Y15721575D01*
X56629591Y15870187D01*
X56550816Y16003388D01*
X56441387Y16112817D01*
X56308186Y16191592D01*
X56159582Y16234766D01*
X56159573Y16234768D01*
X56124861Y16237500D01*
X54874500Y16237500D01*
X54779212Y16256454D01*
X54698430Y16310430D01*
X54644454Y16391212D01*
X54625500Y16486500D01*
X54625500Y17951000D01*
X54644454Y18046288D01*
X54698430Y18127070D01*
X54779212Y18181046D01*
X54874500Y18200000D01*
X63151000Y18200000D01*
X63246288Y18181046D01*
G37*
%TD.AperFunction*%
%TA.AperFunction,Conductor*%
G36*
X65307896Y52981046D02*
G01*
X65388678Y52927070D01*
X65442654Y52846288D01*
X65449999Y52828555D01*
X66750000Y51528554D01*
X67046533Y51825088D01*
X67167751Y51239200D01*
X66750000Y50821447D01*
X65450000Y49521447D01*
X65450000Y48677168D01*
X65456401Y48617629D01*
X65456403Y48617622D01*
X65506646Y48482913D01*
X65592810Y48367813D01*
X65592812Y48367811D01*
X65707912Y48281647D01*
X65842621Y48231404D01*
X65842628Y48231402D01*
X65902167Y48225001D01*
X65902175Y48225000D01*
X66551000Y48225000D01*
X66646288Y48206046D01*
X66727070Y48152070D01*
X66781046Y48071288D01*
X66800000Y47976000D01*
X66800000Y45753593D01*
X66784302Y45666581D01*
X66780909Y45657486D01*
X66780908Y45657481D01*
X66774500Y45597877D01*
X66774500Y44902135D01*
X66774500Y44902132D01*
X66774501Y44902128D01*
X66776201Y44886309D01*
X66780908Y44842518D01*
X66784301Y44833423D01*
X66800000Y44746408D01*
X66800000Y42099000D01*
X66781046Y42003712D01*
X66727070Y41922930D01*
X66646288Y41868954D01*
X66551000Y41850000D01*
X63123086Y41850000D01*
X63027798Y41868954D01*
X62947016Y41922930D01*
X62678810Y42191136D01*
X62663025Y42208484D01*
X62655201Y42217941D01*
X62605625Y42264496D01*
X62600011Y42269936D01*
X62581041Y42288906D01*
X62577697Y42291854D01*
X62564386Y42303222D01*
X62535393Y42330448D01*
X62535390Y42330450D01*
X62535388Y42330452D01*
X62525409Y42335938D01*
X62492763Y42357383D01*
X62483767Y42364361D01*
X62483768Y42364361D01*
X62447281Y42380150D01*
X62426222Y42390467D01*
X62391370Y42409626D01*
X62391369Y42409627D01*
X62391368Y42409627D01*
X62380323Y42412464D01*
X62343373Y42425115D01*
X62332926Y42429636D01*
X62293660Y42435855D01*
X62270692Y42440611D01*
X62243483Y42447597D01*
X62232177Y42450500D01*
X62232176Y42450500D01*
X62220794Y42450500D01*
X62181839Y42453566D01*
X62170595Y42455347D01*
X62131011Y42451605D01*
X62107578Y42450500D01*
X60247356Y42450500D01*
X60223927Y42451605D01*
X60211706Y42452760D01*
X60211703Y42452760D01*
X60143710Y42450623D01*
X60135888Y42450500D01*
X60109074Y42450500D01*
X60104678Y42450224D01*
X60087171Y42448847D01*
X60047431Y42447598D01*
X60036494Y42444420D01*
X59998248Y42436500D01*
X59986948Y42435073D01*
X59986942Y42435071D01*
X59949970Y42420434D01*
X59927796Y42412842D01*
X59889603Y42401746D01*
X59889595Y42401742D01*
X59879784Y42395940D01*
X59844720Y42378762D01*
X59834128Y42374569D01*
X59801955Y42351194D01*
X59782359Y42338322D01*
X59748134Y42318081D01*
X59748130Y42318078D01*
X59740071Y42310019D01*
X59710380Y42284661D01*
X59701171Y42277970D01*
X59701156Y42277957D01*
X59675820Y42247331D01*
X59660037Y42229985D01*
X59028482Y41598430D01*
X58947700Y41544454D01*
X58852412Y41525500D01*
X58099993Y41525500D01*
X57997199Y41514999D01*
X57830667Y41459815D01*
X57681346Y41367714D01*
X57557286Y41243654D01*
X57465184Y41094332D01*
X57410002Y40927803D01*
X57410001Y40927796D01*
X57399500Y40825012D01*
X57399500Y40075001D01*
X57399678Y40071526D01*
X57400000Y40058857D01*
X57400000Y37891161D01*
X57399677Y37878491D01*
X57399500Y37875018D01*
X57399500Y37125001D01*
X57399678Y37121526D01*
X57400000Y37108857D01*
X57400000Y32149000D01*
X57381046Y32053712D01*
X57327070Y31972930D01*
X57246288Y31918954D01*
X57151000Y31900000D01*
X56025000Y31900000D01*
X56025000Y30750001D01*
X56025001Y30750000D01*
X56200000Y30750000D01*
X56200000Y30250000D01*
X56025001Y30250000D01*
X56025000Y30249999D01*
X56025000Y27115203D01*
X56037500Y27052361D01*
X56037500Y25749000D01*
X56018546Y25653712D01*
X55964570Y25572930D01*
X55883788Y25518954D01*
X55788500Y25500000D01*
X54725002Y25500000D01*
X54725001Y25499999D01*
X54725001Y25075016D01*
X54735494Y24972301D01*
X54735495Y24972298D01*
X54795203Y24792112D01*
X54791797Y24790984D01*
X54808498Y24722738D01*
X54793719Y24626714D01*
X54750000Y24554666D01*
X54750000Y23725001D01*
X54750001Y23725000D01*
X56751000Y23725000D01*
X56846288Y23706046D01*
X56927070Y23652070D01*
X56981046Y23571288D01*
X57000000Y23476000D01*
X57000000Y23000000D01*
X56500000Y23000000D01*
X56500000Y23224999D01*
X56499999Y23225000D01*
X54750001Y23225000D01*
X54750000Y23224999D01*
X54750000Y23000000D01*
X54250000Y23000000D01*
X54250000Y24549999D01*
X54249999Y24550000D01*
X53800024Y24550000D01*
X53697301Y24539506D01*
X53577821Y24499914D01*
X53481408Y24487934D01*
X53387749Y24513762D01*
X53311103Y24573465D01*
X53263138Y24657955D01*
X53250500Y24736276D01*
X53250500Y25550735D01*
X53250500Y25550742D01*
X53235074Y25702434D01*
X53235075Y25702434D01*
X53230625Y25716618D01*
X53174159Y25896588D01*
X53174157Y25896592D01*
X53174156Y25896595D01*
X53075408Y26074505D01*
X52942869Y26228893D01*
X52857140Y26295252D01*
X52781958Y26353448D01*
X52781954Y26353450D01*
X52781953Y26353451D01*
X52599275Y26443059D01*
X52599271Y26443060D01*
X52402286Y26494063D01*
X52402277Y26494064D01*
X52199072Y26504370D01*
X52199052Y26504369D01*
X51997934Y26473558D01*
X51997929Y26473556D01*
X51807113Y26402886D01*
X51634427Y26295252D01*
X51486947Y26155061D01*
X51370704Y25988049D01*
X51290460Y25801058D01*
X51249500Y25601741D01*
X51249500Y24799000D01*
X51230546Y24703712D01*
X51176570Y24622930D01*
X51095788Y24568954D01*
X51000500Y24550000D01*
X50000001Y24550000D01*
X50000000Y24549999D01*
X50000000Y23474000D01*
X49981046Y23378712D01*
X49927070Y23297930D01*
X49846288Y23243954D01*
X49751000Y23225000D01*
X47499000Y23225000D01*
X47403712Y23243954D01*
X47322930Y23297930D01*
X47268954Y23378712D01*
X47250000Y23474000D01*
X47250000Y23725001D01*
X47750000Y23725001D01*
X47750001Y23725000D01*
X49499999Y23725000D01*
X49500000Y23725001D01*
X49500000Y24549999D01*
X49499999Y24550000D01*
X49150000Y24550000D01*
X48100000Y24550000D01*
X47750001Y24550000D01*
X47750000Y24549999D01*
X47750000Y23725001D01*
X47250000Y23725001D01*
X47250000Y24549999D01*
X47249999Y24550000D01*
X46800024Y24550000D01*
X46683780Y24538124D01*
X46683571Y24540168D01*
X46604471Y24539019D01*
X46514181Y24574893D01*
X46444493Y24642588D01*
X46406015Y24731799D01*
X46400500Y24783914D01*
X46400500Y27300016D01*
X54700001Y27300016D01*
X54710494Y27197301D01*
X54710495Y27197298D01*
X54765640Y27030881D01*
X54765641Y27030880D01*
X54801370Y26972954D01*
X54835262Y26881903D01*
X54831730Y26784812D01*
X54801372Y26711519D01*
X54790641Y26694122D01*
X54790640Y26694121D01*
X54735495Y26527702D01*
X54735494Y26527695D01*
X54725000Y26424982D01*
X54725000Y26000001D01*
X54725001Y26000000D01*
X55537499Y26000000D01*
X55537500Y26000001D01*
X55537500Y26609798D01*
X55525000Y26672639D01*
X55525000Y27749999D01*
X55524999Y27750000D01*
X54700002Y27750000D01*
X54700001Y27749999D01*
X54700001Y27300016D01*
X46400500Y27300016D01*
X46400500Y28250001D01*
X54700000Y28250001D01*
X54700001Y28250000D01*
X55524999Y28250000D01*
X55525000Y28250001D01*
X55525000Y30249999D01*
X55524999Y30250000D01*
X54700002Y30250000D01*
X54700001Y30249999D01*
X54700001Y29800016D01*
X54710494Y29697301D01*
X54710495Y29697298D01*
X54765640Y29530881D01*
X54858261Y29380718D01*
X54892152Y29289666D01*
X54888620Y29192575D01*
X54858261Y29119282D01*
X54765640Y28969120D01*
X54710495Y28802702D01*
X54710494Y28802695D01*
X54700000Y28699982D01*
X54700000Y28250001D01*
X46400500Y28250001D01*
X46400500Y30002649D01*
X46401605Y30026084D01*
X46402757Y30038286D01*
X46402760Y30038296D01*
X46400623Y30106304D01*
X46400500Y30114124D01*
X46400500Y30140924D01*
X46400213Y30145477D01*
X46398846Y30162831D01*
X46397598Y30202569D01*
X46394420Y30213507D01*
X46386496Y30251774D01*
X46385071Y30263058D01*
X46385070Y30263060D01*
X46385070Y30263062D01*
X46370440Y30300013D01*
X46362839Y30322211D01*
X46351744Y30360401D01*
X46345948Y30370201D01*
X46328756Y30405293D01*
X46327014Y30409693D01*
X46324568Y30415871D01*
X46301202Y30448031D01*
X46288323Y30467637D01*
X46280162Y30481437D01*
X46268081Y30501865D01*
X46268077Y30501869D01*
X46268074Y30501873D01*
X46260025Y30509922D01*
X46234656Y30539625D01*
X46232776Y30542212D01*
X46227963Y30548837D01*
X46227961Y30548839D01*
X46227959Y30548841D01*
X46197330Y30574180D01*
X46179979Y30589967D01*
X46019945Y30750001D01*
X54700000Y30750001D01*
X54700001Y30750000D01*
X55524999Y30750000D01*
X55525000Y30750001D01*
X55525000Y31900001D01*
X55400024Y31900000D01*
X55297300Y31889506D01*
X55297297Y31889505D01*
X55130880Y31834360D01*
X55130878Y31834359D01*
X54981658Y31742319D01*
X54981654Y31742316D01*
X54857684Y31618346D01*
X54857681Y31618342D01*
X54765641Y31469122D01*
X54765640Y31469121D01*
X54710495Y31302702D01*
X54710494Y31302695D01*
X54700000Y31199982D01*
X54700000Y30750001D01*
X46019945Y30750001D01*
X43869945Y32900001D01*
X50844540Y32900001D01*
X50864325Y32711745D01*
X50885084Y32647857D01*
X50922821Y32531716D01*
X51017467Y32367784D01*
X51017469Y32367781D01*
X51126925Y32246219D01*
X51144129Y32227112D01*
X51236500Y32160001D01*
X51297271Y32115848D01*
X51470189Y32038859D01*
X51470192Y32038858D01*
X51470197Y32038856D01*
X51655354Y31999500D01*
X51844645Y31999500D01*
X51844646Y31999500D01*
X52029803Y32038856D01*
X52202730Y32115849D01*
X52321233Y32201946D01*
X52409464Y32242620D01*
X52467591Y32249500D01*
X52802643Y32249500D01*
X52826072Y32248395D01*
X52838292Y32247241D01*
X52838296Y32247240D01*
X52906289Y32249378D01*
X52914111Y32249500D01*
X52940922Y32249500D01*
X52940925Y32249500D01*
X52940927Y32249501D01*
X52945458Y32249786D01*
X52962830Y32251155D01*
X53002569Y32252403D01*
X53013502Y32255580D01*
X53051756Y32263502D01*
X53063058Y32264929D01*
X53100038Y32279572D01*
X53122210Y32287163D01*
X53160398Y32298256D01*
X53170195Y32304051D01*
X53205289Y32321243D01*
X53215871Y32325432D01*
X53248046Y32348809D01*
X53267637Y32361678D01*
X53301865Y32381919D01*
X53309917Y32389972D01*
X53339627Y32415347D01*
X53348837Y32422037D01*
X53374186Y32452681D01*
X53389953Y32470009D01*
X53521518Y32601574D01*
X53602297Y32655547D01*
X53697580Y32674501D01*
X54899404Y32674501D01*
X54934156Y32677235D01*
X55082887Y32720445D01*
X55216198Y32799285D01*
X55325715Y32908802D01*
X55404555Y33042113D01*
X55447765Y33190844D01*
X55450500Y33225595D01*
X55450499Y33574404D01*
X55447765Y33609156D01*
X55434291Y33655531D01*
X55425907Y33752320D01*
X55434289Y33794462D01*
X55447765Y33840844D01*
X55450500Y33875595D01*
X55450499Y34224404D01*
X55447765Y34259156D01*
X55434291Y34305531D01*
X55425907Y34402320D01*
X55434289Y34444462D01*
X55447765Y34490844D01*
X55450500Y34525595D01*
X55450499Y34874404D01*
X55447765Y34909156D01*
X55434291Y34955531D01*
X55425907Y35052320D01*
X55434289Y35094462D01*
X55447765Y35140844D01*
X55450500Y35175595D01*
X55450499Y35524404D01*
X55447765Y35559156D01*
X55404555Y35707887D01*
X55325715Y35841198D01*
X55216198Y35950715D01*
X55216195Y35950717D01*
X55216194Y35950718D01*
X55122748Y36005982D01*
X55050378Y36070802D01*
X55008323Y36158383D01*
X55000500Y36220306D01*
X55000500Y36465589D01*
X55019454Y36560877D01*
X55037571Y36596307D01*
X55051165Y36618346D01*
X55097314Y36693166D01*
X55152499Y36859703D01*
X55163000Y36962491D01*
X55162999Y37264684D01*
X55165629Y37300781D01*
X55167789Y37315524D01*
X55167789Y37315526D01*
X55163947Y37359430D01*
X55162999Y37381137D01*
X55162999Y38362507D01*
X55161037Y38381716D01*
X55152499Y38465297D01*
X55147177Y38481357D01*
X55097314Y38631834D01*
X55087078Y38648430D01*
X55063585Y38686517D01*
X55029694Y38777568D01*
X55033226Y38874659D01*
X55063582Y38947947D01*
X55122314Y39043166D01*
X55177499Y39209703D01*
X55188000Y39312491D01*
X55187999Y40712508D01*
X55177499Y40815297D01*
X55175476Y40821401D01*
X55125639Y40971800D01*
X55113000Y41050123D01*
X55113000Y41988235D01*
X55113000Y41988242D01*
X55097574Y42139934D01*
X55097575Y42139934D01*
X55091530Y42159202D01*
X55036659Y42334088D01*
X55036657Y42334092D01*
X55036656Y42334095D01*
X54937908Y42512005D01*
X54805369Y42666393D01*
X54734763Y42721046D01*
X54644458Y42790948D01*
X54644454Y42790950D01*
X54644453Y42790951D01*
X54461775Y42880559D01*
X54461771Y42880560D01*
X54264786Y42931563D01*
X54264777Y42931564D01*
X54061572Y42941870D01*
X54061552Y42941869D01*
X53860434Y42911058D01*
X53860429Y42911056D01*
X53669613Y42840386D01*
X53496927Y42732752D01*
X53349447Y42592561D01*
X53233204Y42425549D01*
X53152960Y42238558D01*
X53112000Y42039241D01*
X53112000Y41649000D01*
X53093046Y41553712D01*
X53039070Y41472930D01*
X52958288Y41418954D01*
X52863000Y41400000D01*
X51672517Y41400000D01*
X51647209Y41401289D01*
X51537479Y41412500D01*
X51412501Y41412500D01*
X51412500Y41412499D01*
X51412500Y38697639D01*
X51393546Y38602351D01*
X51387500Y38593303D01*
X51387500Y36262502D01*
X51427070Y36222932D01*
X51481046Y36142150D01*
X51500000Y36046862D01*
X51500000Y35736115D01*
X51481046Y35640827D01*
X51427070Y35560045D01*
X51352278Y35508643D01*
X51297271Y35484153D01*
X51144126Y35372886D01*
X51017469Y35232220D01*
X50937942Y35094474D01*
X50922821Y35068284D01*
X50917634Y35052320D01*
X50864325Y34888256D01*
X50844540Y34700001D01*
X50844540Y34700000D01*
X50845395Y34691865D01*
X50848636Y34661029D01*
X50850000Y34635002D01*
X50850000Y32965000D01*
X50848636Y32938974D01*
X50844540Y32900002D01*
X50844540Y32900001D01*
X43869945Y32900001D01*
X41972930Y34797016D01*
X41918954Y34877798D01*
X41900000Y34973086D01*
X41900000Y36962516D01*
X50062501Y36962516D01*
X50072994Y36859801D01*
X50072995Y36859798D01*
X50128140Y36693381D01*
X50128141Y36693379D01*
X50220181Y36544159D01*
X50220184Y36544155D01*
X50344154Y36420185D01*
X50344158Y36420182D01*
X50493378Y36328142D01*
X50493379Y36328141D01*
X50659798Y36272996D01*
X50659805Y36272995D01*
X50762523Y36262501D01*
X50887500Y36262502D01*
X50887500Y37412499D01*
X50887499Y37412500D01*
X50062502Y37412500D01*
X50062501Y37412499D01*
X50062501Y36962516D01*
X41900000Y36962516D01*
X41900000Y37912501D01*
X50062500Y37912501D01*
X50062501Y37912500D01*
X50887499Y37912500D01*
X50887500Y37912501D01*
X50887500Y38977361D01*
X50906454Y39072649D01*
X50912500Y39081698D01*
X50912500Y39762499D01*
X50912499Y39762500D01*
X50087502Y39762500D01*
X50087501Y39762499D01*
X50087501Y39312516D01*
X50097994Y39209801D01*
X50097995Y39209798D01*
X50153140Y39043381D01*
X50187001Y38988484D01*
X50220892Y38897432D01*
X50217360Y38800342D01*
X50187001Y38727048D01*
X50128140Y38631620D01*
X50072995Y38465202D01*
X50072994Y38465195D01*
X50062500Y38362482D01*
X50062500Y37912501D01*
X41900000Y37912501D01*
X41900000Y38685002D01*
X41901364Y38711030D01*
X41905460Y38750001D01*
X41905460Y38750002D01*
X41901364Y38788974D01*
X41900000Y38815000D01*
X41900000Y40262501D01*
X50087500Y40262501D01*
X50087501Y40262500D01*
X50912499Y40262500D01*
X50912500Y40262501D01*
X50912500Y41412501D01*
X50787524Y41412500D01*
X50684800Y41402006D01*
X50684797Y41402005D01*
X50518380Y41346860D01*
X50518378Y41346859D01*
X50369158Y41254819D01*
X50369154Y41254816D01*
X50245184Y41130846D01*
X50245181Y41130842D01*
X50153141Y40981622D01*
X50153140Y40981621D01*
X50097995Y40815202D01*
X50097994Y40815195D01*
X50087500Y40712482D01*
X50087500Y40262501D01*
X41900000Y40262501D01*
X41900000Y40935002D01*
X41901364Y40961030D01*
X41905460Y41000001D01*
X41905460Y41000002D01*
X41901364Y41038974D01*
X41900000Y41065000D01*
X41900000Y43462514D01*
X41912187Y43539459D01*
X41925547Y43580578D01*
X41935674Y43611744D01*
X41955460Y43800000D01*
X41939467Y43952168D01*
X64375000Y43952168D01*
X64381401Y43892629D01*
X64381403Y43892622D01*
X64431646Y43757913D01*
X64517810Y43642813D01*
X64517812Y43642811D01*
X64632912Y43556647D01*
X64767621Y43506404D01*
X64767628Y43506402D01*
X64827167Y43500001D01*
X64827175Y43500000D01*
X65049999Y43500000D01*
X65050000Y43500001D01*
X65550000Y43500001D01*
X65550001Y43500000D01*
X65772825Y43500000D01*
X65772832Y43500001D01*
X65832371Y43506402D01*
X65832378Y43506404D01*
X65967087Y43556647D01*
X66082187Y43642811D01*
X66082189Y43642813D01*
X66168353Y43757913D01*
X66218596Y43892622D01*
X66218598Y43892629D01*
X66224999Y43952168D01*
X66225000Y43952175D01*
X66225000Y44049999D01*
X66224999Y44050000D01*
X65550001Y44050000D01*
X65550000Y44049999D01*
X65550000Y43500001D01*
X65050000Y43500001D01*
X65050000Y44049999D01*
X65049999Y44050000D01*
X64375001Y44050000D01*
X64375000Y44049999D01*
X64375000Y43952168D01*
X41939467Y43952168D01*
X41935674Y43988256D01*
X41912186Y44060542D01*
X41900000Y44137487D01*
X41900000Y44550001D01*
X64375000Y44550001D01*
X64375001Y44550000D01*
X66224999Y44550000D01*
X66225000Y44550001D01*
X66225000Y44647825D01*
X66224999Y44647833D01*
X66218598Y44707372D01*
X66218596Y44707379D01*
X66168353Y44842088D01*
X66082189Y44957188D01*
X66082184Y44957193D01*
X65957320Y45050666D01*
X65892397Y45122944D01*
X65860075Y45214565D01*
X65865276Y45311581D01*
X65907207Y45399221D01*
X65957320Y45449334D01*
X66082184Y45542808D01*
X66082189Y45542813D01*
X66168353Y45657913D01*
X66218596Y45792622D01*
X66218598Y45792629D01*
X66224999Y45852168D01*
X66225000Y45852175D01*
X66225000Y45949999D01*
X66224999Y45950000D01*
X64375001Y45950000D01*
X64375000Y45949999D01*
X64375000Y45852168D01*
X64381401Y45792629D01*
X64381403Y45792622D01*
X64431646Y45657913D01*
X64517810Y45542813D01*
X64517816Y45542807D01*
X64642680Y45449333D01*
X64707603Y45377055D01*
X64739924Y45285434D01*
X64734723Y45188418D01*
X64692791Y45100778D01*
X64642680Y45050667D01*
X64517816Y44957194D01*
X64517810Y44957188D01*
X64431646Y44842088D01*
X64381403Y44707379D01*
X64381401Y44707372D01*
X64375000Y44647833D01*
X64375000Y44550001D01*
X41900000Y44550001D01*
X41900000Y46435002D01*
X41900786Y46450001D01*
X64375000Y46450001D01*
X64375001Y46450000D01*
X65049999Y46450000D01*
X65050000Y46450001D01*
X65550000Y46450001D01*
X65550001Y46450000D01*
X66224999Y46450000D01*
X66225000Y46450001D01*
X66225000Y46547825D01*
X66224999Y46547833D01*
X66218598Y46607372D01*
X66218596Y46607379D01*
X66168353Y46742088D01*
X66082189Y46857188D01*
X66082187Y46857190D01*
X65967087Y46943354D01*
X65832378Y46993597D01*
X65832371Y46993599D01*
X65772832Y47000000D01*
X65550001Y47000000D01*
X65550000Y46999999D01*
X65550000Y46450001D01*
X65050000Y46450001D01*
X65050000Y46999999D01*
X65049999Y47000000D01*
X64827167Y47000000D01*
X64767628Y46993599D01*
X64767621Y46993597D01*
X64632912Y46943354D01*
X64517812Y46857190D01*
X64517810Y46857188D01*
X64431646Y46742088D01*
X64381403Y46607379D01*
X64381401Y46607372D01*
X64375000Y46547833D01*
X64375000Y46450001D01*
X41900786Y46450001D01*
X41901364Y46461030D01*
X41905460Y46500001D01*
X41905460Y46500002D01*
X41901364Y46538974D01*
X41900000Y46565000D01*
X41900000Y48001000D01*
X41918954Y48096288D01*
X41972930Y48177070D01*
X42053712Y48231046D01*
X42149000Y48250000D01*
X44195291Y48250000D01*
X44290579Y48231046D01*
X44315240Y48219204D01*
X44324576Y48214072D01*
X44357240Y48192616D01*
X44366237Y48185637D01*
X44402733Y48169844D01*
X44423799Y48159523D01*
X44458632Y48140373D01*
X44466621Y48138322D01*
X44469651Y48137544D01*
X44506624Y48124887D01*
X44517074Y48120364D01*
X44556341Y48114146D01*
X44579316Y48109387D01*
X44617817Y48099501D01*
X44617821Y48099501D01*
X44617823Y48099500D01*
X44629207Y48099500D01*
X44668158Y48096435D01*
X44679405Y48094653D01*
X44718989Y48098395D01*
X44742422Y48099500D01*
X48952643Y48099500D01*
X48976072Y48098395D01*
X48988292Y48097241D01*
X48988296Y48097240D01*
X49056289Y48099378D01*
X49064111Y48099500D01*
X49090922Y48099500D01*
X49090925Y48099500D01*
X49090927Y48099501D01*
X49095458Y48099786D01*
X49112830Y48101155D01*
X49152569Y48102403D01*
X49163502Y48105580D01*
X49201756Y48113502D01*
X49213058Y48114929D01*
X49250038Y48129572D01*
X49272210Y48137163D01*
X49310398Y48148256D01*
X49320195Y48154051D01*
X49355289Y48171243D01*
X49365871Y48175432D01*
X49398046Y48198809D01*
X49417637Y48211678D01*
X49451865Y48231919D01*
X49459916Y48239971D01*
X49489629Y48265348D01*
X49498837Y48272037D01*
X49524176Y48302669D01*
X49539952Y48320008D01*
X51317169Y50097225D01*
X51397948Y50151198D01*
X51493236Y50170152D01*
X51536487Y50166367D01*
X51544581Y50164940D01*
X51544592Y50164937D01*
X51544602Y50164937D01*
X51544603Y50164936D01*
X51779994Y50144341D01*
X51780000Y50144341D01*
X51780005Y50144341D01*
X52015401Y50164936D01*
X52015403Y50164937D01*
X52015408Y50164937D01*
X52243663Y50226097D01*
X52457830Y50325965D01*
X52651401Y50461505D01*
X52818495Y50628599D01*
X52846337Y50668363D01*
X52916515Y50735544D01*
X53007064Y50770758D01*
X53104196Y50768639D01*
X53193124Y50729511D01*
X53254273Y50668363D01*
X53281888Y50628925D01*
X53448923Y50461890D01*
X53642423Y50326400D01*
X53856511Y50226569D01*
X54070000Y50169365D01*
X54070000Y51064499D01*
X54177685Y51015320D01*
X54284237Y51000000D01*
X54355763Y51000000D01*
X54462315Y51015320D01*
X54570000Y51064499D01*
X54570000Y50169365D01*
X54783488Y50226569D01*
X54997576Y50326400D01*
X55191076Y50461890D01*
X55358110Y50628924D01*
X55493600Y50822424D01*
X55593433Y51036515D01*
X55593433Y51036517D01*
X55650636Y51249999D01*
X55650636Y51250000D01*
X54753686Y51250000D01*
X54779493Y51290156D01*
X54820000Y51428111D01*
X54820000Y51571889D01*
X54779493Y51709844D01*
X54753686Y51750000D01*
X55650636Y51750000D01*
X55650636Y51750002D01*
X55593433Y51963484D01*
X55593429Y51963495D01*
X55519775Y52121447D01*
X65450000Y52121447D01*
X65450000Y50228554D01*
X66396446Y51175000D01*
X65450000Y52121447D01*
X55519775Y52121447D01*
X55493603Y52177572D01*
X55493599Y52177580D01*
X55358110Y52371077D01*
X55191072Y52538115D01*
X55178336Y52547033D01*
X55111152Y52617214D01*
X55075940Y52707764D01*
X55078061Y52804896D01*
X55117191Y52893822D01*
X55187372Y52961006D01*
X55277922Y52996218D01*
X55321158Y53000000D01*
X65212608Y53000000D01*
X65307896Y52981046D01*
G37*
%TD.AperFunction*%
%TA.AperFunction,Conductor*%
G36*
X77646288Y52981046D02*
G01*
X77727070Y52927070D01*
X77781046Y52846288D01*
X77800000Y52751000D01*
X77800000Y50612959D01*
X77799659Y50599928D01*
X77794422Y50500000D01*
X77814722Y50112662D01*
X77814722Y50112657D01*
X77814723Y50112655D01*
X77859583Y49829416D01*
X77875398Y49729567D01*
X77975786Y49354913D01*
X77998606Y49295465D01*
X78114783Y48992813D01*
X78114785Y48992807D01*
X78290872Y48647216D01*
X78290875Y48647211D01*
X78502124Y48321915D01*
X78738525Y48029985D01*
X78746219Y48020484D01*
X79020484Y47746219D01*
X79020489Y47746215D01*
X79020490Y47746214D01*
X79321914Y47502125D01*
X79449217Y47419454D01*
X79647211Y47290875D01*
X79827000Y47199268D01*
X79967160Y47127853D01*
X79992806Y47114786D01*
X80354913Y46975786D01*
X80729567Y46875398D01*
X81112662Y46814722D01*
X81500000Y46794422D01*
X81599926Y46799659D01*
X81612957Y46800000D01*
X83751000Y46800000D01*
X83846288Y46781046D01*
X83927070Y46727070D01*
X83981046Y46646288D01*
X84000000Y46551000D01*
X84000000Y26248777D01*
X83981046Y26153489D01*
X83927070Y26072707D01*
X83846288Y26018731D01*
X83751000Y25999777D01*
X83655712Y26018731D01*
X83598587Y26051873D01*
X83531958Y26103448D01*
X83531954Y26103450D01*
X83531953Y26103451D01*
X83349275Y26193059D01*
X83349271Y26193060D01*
X83152286Y26244063D01*
X83152277Y26244064D01*
X82949072Y26254370D01*
X82949052Y26254369D01*
X82747934Y26223558D01*
X82747929Y26223556D01*
X82557113Y26152886D01*
X82384427Y26045252D01*
X82236947Y25905061D01*
X82120704Y25738049D01*
X82040460Y25551058D01*
X81999500Y25351741D01*
X81999500Y24685404D01*
X81980546Y24590116D01*
X81926570Y24509334D01*
X81881220Y24473477D01*
X81819002Y24435100D01*
X81817395Y24437704D01*
X81752419Y24404491D01*
X81655573Y24396743D01*
X81563135Y24426647D01*
X81553804Y24432126D01*
X81469118Y24484360D01*
X81469120Y24484360D01*
X81302701Y24539505D01*
X81302694Y24539506D01*
X81199981Y24550000D01*
X80750001Y24550000D01*
X80750000Y24549999D01*
X80750000Y23200000D01*
X80250000Y23200000D01*
X80250000Y23224999D01*
X80249999Y23225000D01*
X78250001Y23225000D01*
X78250000Y23224999D01*
X78250000Y23200000D01*
X77750000Y23200000D01*
X77750000Y23725001D01*
X78250000Y23725001D01*
X78250001Y23725000D01*
X80249999Y23725000D01*
X80250000Y23725001D01*
X80250000Y24549999D01*
X80249999Y24550000D01*
X79800024Y24550000D01*
X79697300Y24539506D01*
X79697297Y24539505D01*
X79530880Y24484360D01*
X79380718Y24391739D01*
X79289666Y24357848D01*
X79192575Y24361380D01*
X79119282Y24391739D01*
X78969118Y24484360D01*
X78969120Y24484360D01*
X78802701Y24539505D01*
X78802694Y24539506D01*
X78699981Y24550000D01*
X78250001Y24550000D01*
X78250000Y24549999D01*
X78250000Y23725001D01*
X77750000Y23725001D01*
X77750000Y24549999D01*
X77749999Y24550000D01*
X77300024Y24550000D01*
X77197300Y24539506D01*
X77197297Y24539505D01*
X77030880Y24484360D01*
X77030878Y24484359D01*
X76881654Y24392317D01*
X76874723Y24386836D01*
X76788220Y24342605D01*
X76691375Y24334845D01*
X76598933Y24364736D01*
X76589572Y24370231D01*
X76559449Y24388811D01*
X76444334Y24459814D01*
X76444332Y24459815D01*
X76444330Y24459816D01*
X76444332Y24459816D01*
X76277802Y24514998D01*
X76277798Y24514999D01*
X76277797Y24514999D01*
X76226403Y24520250D01*
X76175011Y24525500D01*
X76175009Y24525500D01*
X75997586Y24525500D01*
X75902298Y24544454D01*
X75821516Y24598430D01*
X74428810Y25991136D01*
X74413025Y26008484D01*
X74405201Y26017941D01*
X74355625Y26064496D01*
X74350011Y26069936D01*
X74331041Y26088906D01*
X74327697Y26091854D01*
X74314386Y26103222D01*
X74285393Y26130448D01*
X74285390Y26130450D01*
X74285388Y26130452D01*
X74275409Y26135938D01*
X74242763Y26157383D01*
X74233767Y26164361D01*
X74233768Y26164361D01*
X74197281Y26180150D01*
X74176222Y26190467D01*
X74141370Y26209626D01*
X74141369Y26209627D01*
X74141368Y26209627D01*
X74130323Y26212464D01*
X74093373Y26225115D01*
X74082926Y26229636D01*
X74043660Y26235855D01*
X74020692Y26240611D01*
X74016229Y26241757D01*
X73982177Y26250500D01*
X73982176Y26250500D01*
X73970794Y26250500D01*
X73931839Y26253566D01*
X73920595Y26255347D01*
X73881011Y26251605D01*
X73857578Y26250500D01*
X71009992Y26250500D01*
X70914704Y26269454D01*
X70833922Y26323430D01*
X70779946Y26404212D01*
X70760992Y26499500D01*
X70779946Y26594788D01*
X70795669Y26626255D01*
X70804280Y26640816D01*
X70847278Y26788819D01*
X70847278Y26788820D01*
X70849999Y26823396D01*
X70850000Y26823403D01*
X70850000Y28246597D01*
X70849999Y28246605D01*
X70847278Y28281181D01*
X70847278Y28281182D01*
X70812754Y28400016D01*
X72100001Y28400016D01*
X72110494Y28297301D01*
X72110495Y28297298D01*
X72165640Y28130881D01*
X72165641Y28130879D01*
X72257681Y27981659D01*
X72257684Y27981655D01*
X72381654Y27857685D01*
X72381658Y27857682D01*
X72530878Y27765642D01*
X72530879Y27765641D01*
X72697298Y27710496D01*
X72697305Y27710495D01*
X72800023Y27700001D01*
X73250000Y27700001D01*
X73250000Y27700002D01*
X73750000Y27700002D01*
X73750001Y27700001D01*
X74199968Y27700001D01*
X74199984Y27700002D01*
X74302699Y27710495D01*
X74302702Y27710496D01*
X74469119Y27765641D01*
X74494278Y27781159D01*
X74585329Y27815052D01*
X74682420Y27811522D01*
X74755722Y27781159D01*
X74780880Y27765641D01*
X74780879Y27765641D01*
X74947298Y27710496D01*
X74947305Y27710495D01*
X75050023Y27700001D01*
X75500000Y27700001D01*
X75500000Y28524999D01*
X75499999Y28525000D01*
X73750001Y28525000D01*
X73750000Y28524999D01*
X73750000Y27700002D01*
X73250000Y27700002D01*
X73250000Y28524999D01*
X73249999Y28525000D01*
X72100002Y28525000D01*
X72100001Y28524999D01*
X72100001Y28400016D01*
X70812754Y28400016D01*
X70804279Y28429189D01*
X70725827Y28561841D01*
X70725827Y28561842D01*
X70616841Y28670828D01*
X70484188Y28749280D01*
X70336180Y28792279D01*
X70301604Y28795000D01*
X69958395Y28795000D01*
X69923819Y28792279D01*
X69923817Y28792279D01*
X69880359Y28779653D01*
X69783566Y28771272D01*
X69741426Y28779655D01*
X69696262Y28792777D01*
X69696263Y28792777D01*
X69661659Y28795500D01*
X69661650Y28795500D01*
X69318350Y28795500D01*
X69318341Y28795500D01*
X69283739Y28792777D01*
X69239464Y28779914D01*
X69142671Y28771533D01*
X69100536Y28779914D01*
X69062633Y28790925D01*
X69056262Y28792776D01*
X69056261Y28792777D01*
X69021658Y28795500D01*
X69021650Y28795500D01*
X68678350Y28795500D01*
X68678340Y28795500D01*
X68643738Y28792777D01*
X68598570Y28779654D01*
X68501777Y28771272D01*
X68459636Y28779654D01*
X68416180Y28792279D01*
X68416184Y28792279D01*
X68381604Y28795000D01*
X68038395Y28795000D01*
X68003819Y28792279D01*
X68003817Y28792279D01*
X67960359Y28779653D01*
X67863566Y28771272D01*
X67821426Y28779655D01*
X67776262Y28792777D01*
X67776263Y28792777D01*
X67741659Y28795500D01*
X67741650Y28795500D01*
X67398350Y28795500D01*
X67398341Y28795500D01*
X67363739Y28792777D01*
X67319464Y28779914D01*
X67222671Y28771533D01*
X67180536Y28779914D01*
X67142633Y28790925D01*
X67136262Y28792776D01*
X67136261Y28792777D01*
X67101658Y28795500D01*
X67101650Y28795500D01*
X66758350Y28795500D01*
X66758341Y28795500D01*
X66723739Y28792777D01*
X66679464Y28779914D01*
X66582671Y28771533D01*
X66540536Y28779914D01*
X66502633Y28790925D01*
X66496262Y28792776D01*
X66496261Y28792777D01*
X66461658Y28795500D01*
X66461650Y28795500D01*
X66118350Y28795500D01*
X66118341Y28795500D01*
X66083739Y28792777D01*
X66039464Y28779914D01*
X65942671Y28771533D01*
X65900536Y28779914D01*
X65862633Y28790925D01*
X65856262Y28792776D01*
X65856261Y28792777D01*
X65821658Y28795500D01*
X65821650Y28795500D01*
X65478350Y28795500D01*
X65478341Y28795500D01*
X65443739Y28792777D01*
X65399464Y28779914D01*
X65302671Y28771533D01*
X65260536Y28779914D01*
X65222633Y28790925D01*
X65216262Y28792776D01*
X65216261Y28792777D01*
X65181658Y28795500D01*
X65181650Y28795500D01*
X64838350Y28795500D01*
X64838341Y28795500D01*
X64803739Y28792777D01*
X64759464Y28779914D01*
X64662671Y28771533D01*
X64620536Y28779914D01*
X64582633Y28790925D01*
X64576262Y28792776D01*
X64576261Y28792777D01*
X64541658Y28795500D01*
X64541650Y28795500D01*
X64198350Y28795500D01*
X64198340Y28795500D01*
X64163736Y28792777D01*
X64163734Y28792776D01*
X64015620Y28749745D01*
X64015616Y28749743D01*
X63882848Y28671225D01*
X63773775Y28562152D01*
X63695257Y28429384D01*
X63695255Y28429380D01*
X63652224Y28281266D01*
X63652223Y28281264D01*
X63649500Y28246660D01*
X63649500Y27374500D01*
X63630546Y27279212D01*
X63576570Y27198430D01*
X63495788Y27144454D01*
X63400500Y27125500D01*
X61897586Y27125500D01*
X61802298Y27144454D01*
X61721516Y27198430D01*
X60973430Y27946516D01*
X60919454Y28027298D01*
X60900500Y28122586D01*
X60900500Y28652649D01*
X60901605Y28676084D01*
X60902757Y28688286D01*
X60902760Y28688296D01*
X60900623Y28756304D01*
X60900500Y28764124D01*
X60900500Y28790924D01*
X60900212Y28795500D01*
X60898846Y28812831D01*
X60897598Y28852569D01*
X60894420Y28863507D01*
X60886496Y28901772D01*
X60885071Y28913058D01*
X60885070Y28913060D01*
X60884218Y28919811D01*
X60891087Y29016723D01*
X60934520Y29103629D01*
X61007904Y29167299D01*
X61100067Y29198040D01*
X61131257Y29200001D01*
X61250000Y29200001D01*
X61250000Y29200002D01*
X61750000Y29200002D01*
X61750001Y29200001D01*
X62199968Y29200001D01*
X62199984Y29200002D01*
X62302699Y29210495D01*
X62302702Y29210496D01*
X62469119Y29265641D01*
X62469121Y29265642D01*
X62618341Y29357682D01*
X62618345Y29357685D01*
X62742315Y29481655D01*
X62742318Y29481659D01*
X62834358Y29630879D01*
X62834359Y29630880D01*
X62889504Y29797299D01*
X62889505Y29797306D01*
X62899999Y29900019D01*
X62900000Y29900029D01*
X62900000Y30024999D01*
X62899999Y30025000D01*
X61750001Y30025000D01*
X61750000Y30024999D01*
X61750000Y29200002D01*
X61250000Y29200002D01*
X61250000Y30663637D01*
X61750000Y30686364D01*
X61750000Y30525001D01*
X61750001Y30525000D01*
X62899998Y30525000D01*
X62900000Y30525002D01*
X62900000Y31451000D01*
X62918954Y31546288D01*
X62972930Y31627070D01*
X63053712Y31681046D01*
X63149000Y31700000D01*
X64435016Y31700000D01*
X64457639Y31704500D01*
X64541649Y31704500D01*
X64541650Y31704500D01*
X64576262Y31707224D01*
X64621425Y31720346D01*
X64718217Y31728730D01*
X64760365Y31720346D01*
X64803812Y31707724D01*
X64803820Y31707722D01*
X64838395Y31705001D01*
X64838403Y31705000D01*
X65181597Y31705000D01*
X65181606Y31705001D01*
X65216172Y31707721D01*
X65216183Y31707723D01*
X65259630Y31720346D01*
X65356423Y31728731D01*
X65398566Y31720348D01*
X65443738Y31707224D01*
X65478350Y31704500D01*
X65478351Y31704500D01*
X65821649Y31704500D01*
X65821650Y31704500D01*
X65856262Y31707224D01*
X65900530Y31720086D01*
X65997320Y31728470D01*
X66039464Y31720087D01*
X66083738Y31707224D01*
X66083736Y31707224D01*
X66098441Y31706067D01*
X66118350Y31704500D01*
X66118351Y31704500D01*
X66461649Y31704500D01*
X66461650Y31704500D01*
X66496262Y31707224D01*
X66541425Y31720346D01*
X66638217Y31728730D01*
X66680365Y31720346D01*
X66723812Y31707724D01*
X66723820Y31707722D01*
X66758395Y31705001D01*
X66758403Y31705000D01*
X67101597Y31705000D01*
X67101606Y31705001D01*
X67136172Y31707721D01*
X67136183Y31707723D01*
X67179630Y31720346D01*
X67276423Y31728731D01*
X67318566Y31720348D01*
X67363738Y31707224D01*
X67398350Y31704500D01*
X67398351Y31704500D01*
X67741649Y31704500D01*
X67741650Y31704500D01*
X67768910Y31706646D01*
X67776263Y31707224D01*
X67776263Y31707225D01*
X67803210Y31715054D01*
X67817178Y31719111D01*
X67913970Y31727496D01*
X68006604Y31698201D01*
X68080975Y31635686D01*
X68125761Y31549470D01*
X68134027Y31505308D01*
X68136791Y31491922D01*
X68139250Y31481547D01*
X68163400Y31415195D01*
X68165775Y31408364D01*
X68185115Y31349999D01*
X68187997Y31341304D01*
X68192480Y31331688D01*
X68197256Y31322179D01*
X68236062Y31263176D01*
X68239951Y31257071D01*
X68277028Y31196961D01*
X68283629Y31188613D01*
X68290451Y31180483D01*
X68341802Y31132036D01*
X68346999Y31126989D01*
X68564825Y30909163D01*
X68588483Y30881786D01*
X68700389Y30731471D01*
X68700389Y30731470D01*
X68813161Y30636844D01*
X68834786Y30618698D01*
X68991567Y30539960D01*
X69059860Y30523774D01*
X69162274Y30499501D01*
X69162275Y30499501D01*
X69162279Y30499500D01*
X71851000Y30499500D01*
X71946288Y30480546D01*
X72027070Y30426570D01*
X72081046Y30345788D01*
X72100000Y30250500D01*
X72100000Y29025001D01*
X72100001Y29025000D01*
X73249999Y29025000D01*
X73250000Y29025001D01*
X73250000Y29138889D01*
X73300000Y29100000D01*
X73750000Y29100000D01*
X73750000Y29025001D01*
X73750001Y29025000D01*
X75499999Y29025000D01*
X75500000Y29025001D01*
X75500000Y29100000D01*
X76000000Y29100000D01*
X76000000Y27700002D01*
X76000001Y27700001D01*
X76449968Y27700001D01*
X76449984Y27700002D01*
X76552699Y27710495D01*
X76719121Y27765643D01*
X76722876Y27767393D01*
X76728723Y27768825D01*
X76732888Y27770204D01*
X76732998Y27769871D01*
X76817246Y27790488D01*
X76913271Y27775710D01*
X76958829Y27753655D01*
X76980666Y27740186D01*
X76980669Y27740185D01*
X76980667Y27740185D01*
X77103689Y27699420D01*
X77147203Y27685001D01*
X77249991Y27674500D01*
X78750008Y27674501D01*
X78852797Y27685001D01*
X78852908Y27685038D01*
X78858411Y27686861D01*
X78936734Y27699500D01*
X79684134Y27699500D01*
X79690441Y27699420D01*
X79776360Y27697243D01*
X79776360Y27697244D01*
X79776363Y27697243D01*
X79829751Y27706813D01*
X79848462Y27709438D01*
X79902438Y27714926D01*
X79923892Y27721658D01*
X79954511Y27729174D01*
X79976653Y27733142D01*
X80027047Y27753273D01*
X80044811Y27759597D01*
X80096588Y27775841D01*
X80116251Y27786756D01*
X80144732Y27800281D01*
X80147744Y27801485D01*
X80165617Y27808623D01*
X80210908Y27838473D01*
X80227073Y27848267D01*
X80274502Y27874591D01*
X80291575Y27889249D01*
X80316734Y27908219D01*
X80335519Y27920598D01*
X80373869Y27958949D01*
X80387749Y27971812D01*
X80399215Y27981655D01*
X80428895Y28007134D01*
X80442661Y28024920D01*
X80463486Y28048567D01*
X81243340Y28828420D01*
X81339698Y28946593D01*
X81433909Y29126951D01*
X81468525Y29247927D01*
X81489885Y29322574D01*
X81489886Y29322580D01*
X81489887Y29322582D01*
X81505337Y29525476D01*
X81479630Y29727328D01*
X81413816Y29919872D01*
X81310591Y30095227D01*
X81174179Y30246213D01*
X81174175Y30246216D01*
X81174173Y30246218D01*
X81010169Y30366648D01*
X81010162Y30366652D01*
X80859932Y30435679D01*
X80825269Y30451605D01*
X80825265Y30451606D01*
X80825260Y30451608D01*
X80696720Y30481437D01*
X80655635Y30500000D01*
X80550000Y30500000D01*
X80535600Y30500000D01*
X80529293Y30500080D01*
X80423639Y30502758D01*
X80411047Y30501798D01*
X80411015Y30502214D01*
X80386117Y30500000D01*
X79699000Y30500000D01*
X79603712Y30518954D01*
X79522930Y30572930D01*
X79468954Y30653712D01*
X79450000Y30749000D01*
X79450000Y31508837D01*
X79450322Y31521505D01*
X79450497Y31524964D01*
X79450500Y31524991D01*
X79450499Y32175008D01*
X79439999Y32277797D01*
X79439433Y32279504D01*
X79392888Y32419969D01*
X79384814Y32444334D01*
X79292712Y32593656D01*
X79168656Y32717712D01*
X79140927Y32734815D01*
X79120843Y32747203D01*
X79019334Y32809814D01*
X79019332Y32809815D01*
X79019330Y32809816D01*
X79019332Y32809816D01*
X78852802Y32864998D01*
X78852798Y32864999D01*
X78852797Y32864999D01*
X78750009Y32875500D01*
X78750005Y32875500D01*
X77249993Y32875500D01*
X77147199Y32864999D01*
X76980665Y32809815D01*
X76980664Y32809814D01*
X76909058Y32765647D01*
X76818006Y32731756D01*
X76720915Y32735288D01*
X76700019Y32741215D01*
X76552802Y32789998D01*
X76552798Y32789999D01*
X76552797Y32789999D01*
X76450009Y32800500D01*
X76450005Y32800500D01*
X75049991Y32800500D01*
X74974302Y32792768D01*
X74877581Y32801941D01*
X74791733Y32847430D01*
X74729827Y32922308D01*
X74701289Y33015177D01*
X74700000Y33040479D01*
X74700000Y33971862D01*
X74718954Y34067150D01*
X74725000Y34076199D01*
X74725000Y34100002D01*
X75225000Y34100002D01*
X75225001Y34100001D01*
X75349968Y34100001D01*
X75349984Y34100002D01*
X75452699Y34110495D01*
X75452702Y34110496D01*
X75619119Y34165641D01*
X75619121Y34165642D01*
X75768341Y34257682D01*
X75768345Y34257685D01*
X75892315Y34381655D01*
X75892318Y34381659D01*
X75984358Y34530879D01*
X75984359Y34530880D01*
X76039504Y34697299D01*
X76039505Y34697306D01*
X76049999Y34800019D01*
X76050000Y34800029D01*
X76050000Y35249999D01*
X76049999Y35250000D01*
X75225001Y35250000D01*
X75225000Y35249999D01*
X75225000Y34100002D01*
X74725000Y34100002D01*
X74725000Y35249999D01*
X74724999Y35250000D01*
X74484783Y35250000D01*
X74463043Y35750000D01*
X74724999Y35750000D01*
X74725000Y35750001D01*
X75225000Y35750001D01*
X75225001Y35750000D01*
X76049998Y35750000D01*
X76049999Y35750001D01*
X76049999Y36199968D01*
X76049998Y36199985D01*
X76039505Y36302700D01*
X76039504Y36302703D01*
X75984359Y36469120D01*
X75984358Y36469122D01*
X75892318Y36618342D01*
X75892315Y36618346D01*
X75768345Y36742316D01*
X75768341Y36742319D01*
X75619121Y36834359D01*
X75619120Y36834360D01*
X75452701Y36889505D01*
X75452694Y36889506D01*
X75349981Y36900000D01*
X75225001Y36900000D01*
X75225000Y36899999D01*
X75225000Y35750001D01*
X74725000Y35750001D01*
X74725000Y36900001D01*
X74711596Y36900000D01*
X73649500Y36900000D01*
X73554212Y36918954D01*
X73473430Y36972930D01*
X73419454Y37053712D01*
X73400500Y37149000D01*
X73400499Y37900007D01*
X73393773Y37965849D01*
X73389999Y38002797D01*
X73389258Y38005032D01*
X73334814Y38169333D01*
X73334814Y38169334D01*
X73242712Y38318656D01*
X73118656Y38442712D01*
X72969334Y38534814D01*
X72969332Y38534815D01*
X72969330Y38534816D01*
X72969332Y38534816D01*
X72802802Y38589998D01*
X72802798Y38589999D01*
X72802797Y38589999D01*
X72751403Y38595250D01*
X72700011Y38600500D01*
X71999000Y38600500D01*
X71903712Y38619454D01*
X71822930Y38673430D01*
X71768954Y38754212D01*
X71750000Y38849500D01*
X71750000Y39400002D01*
X72250000Y39400002D01*
X72250001Y39400001D01*
X72699968Y39400001D01*
X72699984Y39400002D01*
X72802699Y39410495D01*
X72802702Y39410496D01*
X72969119Y39465641D01*
X72969121Y39465642D01*
X73118341Y39557682D01*
X73118345Y39557685D01*
X73242315Y39681655D01*
X73242318Y39681659D01*
X73334358Y39830879D01*
X73334359Y39830880D01*
X73389504Y39997299D01*
X73389505Y39997306D01*
X73399999Y40100019D01*
X73400000Y40100029D01*
X73400000Y40224999D01*
X73399999Y40225000D01*
X72250001Y40225000D01*
X72250000Y40224999D01*
X72250000Y39400002D01*
X71750000Y39400002D01*
X71750000Y40725001D01*
X72250000Y40725001D01*
X72250001Y40725000D01*
X73399998Y40725000D01*
X73399999Y40725001D01*
X73399999Y40849968D01*
X73399998Y40849985D01*
X73389505Y40952700D01*
X73389504Y40952703D01*
X73334359Y41119120D01*
X73334358Y41119122D01*
X73242318Y41268342D01*
X73242315Y41268346D01*
X73118345Y41392316D01*
X73118341Y41392319D01*
X72969121Y41484359D01*
X72969120Y41484360D01*
X72802701Y41539505D01*
X72802694Y41539506D01*
X72699981Y41550000D01*
X72250001Y41550000D01*
X72250000Y41549999D01*
X72250000Y40725001D01*
X71750000Y40725001D01*
X71750000Y41549999D01*
X71749999Y41550000D01*
X71300021Y41550000D01*
X71219921Y41541817D01*
X71123200Y41550990D01*
X71037352Y41596478D01*
X70975446Y41671356D01*
X70946907Y41764225D01*
X70946907Y41814832D01*
X70950500Y41849991D01*
X70950499Y42500008D01*
X70950497Y42500018D01*
X70950322Y42503472D01*
X70950000Y42516141D01*
X70950000Y44983837D01*
X70950322Y44996505D01*
X70950497Y44999964D01*
X70950500Y44999991D01*
X70950499Y45650008D01*
X70950497Y45650018D01*
X70950322Y45653472D01*
X70950000Y45666141D01*
X70950000Y46878853D01*
X70968954Y46974141D01*
X71022930Y47054923D01*
X71103712Y47108899D01*
X71199000Y47127853D01*
X73362495Y47127853D01*
X73362500Y47127853D01*
X73434461Y47133000D01*
X73572553Y47173547D01*
X73693628Y47251357D01*
X73787877Y47360127D01*
X73847665Y47491043D01*
X73868147Y47633500D01*
X73868147Y48049745D01*
X73887101Y48145033D01*
X73941077Y48225815D01*
X74021859Y48279791D01*
X74117147Y48298745D01*
X74204164Y48283045D01*
X74342617Y48231404D01*
X74342628Y48231402D01*
X74402167Y48225001D01*
X74402175Y48225000D01*
X76097825Y48225000D01*
X76097832Y48225001D01*
X76157371Y48231402D01*
X76157378Y48231404D01*
X76292087Y48281647D01*
X76407187Y48367811D01*
X76407189Y48367813D01*
X76493353Y48482913D01*
X76543596Y48617622D01*
X76543598Y48617629D01*
X76549999Y48677168D01*
X76550000Y48677175D01*
X76550000Y49521446D01*
X75072516Y50998930D01*
X75018540Y51079712D01*
X74999586Y51175000D01*
X75603553Y51175000D01*
X76549999Y50228554D01*
X76550000Y50228554D01*
X76550000Y52121447D01*
X76549999Y52121447D01*
X75603553Y51175000D01*
X74999586Y51175000D01*
X75018540Y51270288D01*
X75072516Y51351070D01*
X75072517Y51351070D01*
X75250000Y51528553D01*
X76550000Y52828555D01*
X76557346Y52846288D01*
X76611322Y52927069D01*
X76692104Y52981046D01*
X76787392Y53000000D01*
X77551000Y53000000D01*
X77646288Y52981046D01*
G37*
%TD.AperFunction*%
%TA.AperFunction,Conductor*%
G36*
X28596288Y51531046D02*
G01*
X28677070Y51477070D01*
X28731046Y51396288D01*
X28750000Y51301000D01*
X28750000Y49050001D01*
X28750001Y49050000D01*
X28751000Y49050000D01*
X28846288Y49031046D01*
X28927070Y48977070D01*
X28981046Y48896288D01*
X29000000Y48801000D01*
X29000000Y48399500D01*
X28981046Y48304212D01*
X28927070Y48223430D01*
X28846288Y48169454D01*
X28751000Y48150500D01*
X28249000Y48150500D01*
X28153712Y48169454D01*
X28072930Y48223430D01*
X28018954Y48304212D01*
X28000000Y48399500D01*
X28000000Y48801000D01*
X28018954Y48896288D01*
X28072930Y48977070D01*
X28153712Y49031046D01*
X28249000Y49050000D01*
X28249999Y49050000D01*
X28250000Y49050001D01*
X28250000Y51301000D01*
X28268954Y51396288D01*
X28322930Y51477070D01*
X28403712Y51531046D01*
X28499000Y51550000D01*
X28501000Y51550000D01*
X28596288Y51531046D01*
G37*
%TD.AperFunction*%
%TD*%
M02*
