  0
SECTION
  2
HEADER
  9
$ANGBASE
  50
0.0
  9
$ANGDIR
  70
1
  9
$MEASUREMENT
  70
1
  0
ENDSEC
  0
SECTION
  2
TABLES
  0
TABLE
  2
LTYPE
  70
4
  0
LTYPE
  5
40F
  2
CONTINUOUS
  70
0
  3
Solid line
  72
65
  73
0
  40
0.0
  0
LTYPE
  5
410
  2
DASHDOT
 70
0
  3
Dash Dot ____ _ ____ _
 72
65
 73
4
 40
2.0
 49
1.25
 49
-0.25
 49
0.25
 49
-0.25
  0
LTYPE
  5
411
  2
DASHED
 70
0
  3
Dashed __ __ __ __ __
 72
65
 73
2
 40
0.75
 49
0.5
 49
-0.25
  0
LTYPE
  5
43B
  2
DOTTED
 70
0
  3
Dotted .  .  .  .
 72
65
 73
2
 40
0.2
 49
0.0
 49
-0.2
  0
ENDTAB
  0
TABLE
  2
STYLE
  70
4
  0
STYLE
  2
KICAD
  70
0
  40
0
  41
1
  42
1
  50
0
  71
0
  3
isocp.shx
  0
STYLE
  2
KICADB
  70
0
  40
0
  41
1
  42
1
  50
0
  71
0
  3
isocp.shx
  0
STYLE
  2
KICADI
  70
0
  40
0
  41
1
  42
1
  50
15
  71
0
  3
isocp.shx
  0
STYLE
  2
KICADBI
  70
0
  40
0
  41
1
  42
1
  50
15
  71
0
  3
isocp.shx
  0
ENDTAB
  0
TABLE
  2
LAYER
  70
1
  0
LAYER
  2
BLACK
  70
0
  62
7
  6
CONTINUOUS
  0
ENDTAB
  0
ENDSEC
  0
SECTION
  2
ENTITIES
0
LINE
8
BLACK
6
CONTINUOUS
10
81.847960999999998
20
54.032905999999997
11
82.1925710000000009
21
53.9817879999999946
0
LINE
8
BLACK
6
CONTINUOUS
10
82.1925710000000009
20
53.9817879999999946
11
82.53051099999999
21
53.8971379999999982
0
LINE
8
BLACK
6
CONTINUOUS
10
82.53051099999999
20
53.8971379999999982
11
82.8585259999999977
21
53.7797719999999941
0
LINE
8
BLACK
6
CONTINUOUS
10
82.8585259999999977
20
53.7797719999999941
11
83.1734579999999966
21
53.6308199999999999
0
LINE
8
BLACK
6
CONTINUOUS
10
83.1734579999999966
20
53.6308199999999999
11
83.4722739999999988
21
53.451716999999995
0
LINE
8
BLACK
6
CONTINUOUS
10
83.4722739999999988
20
53.451716999999995
11
83.7520959999999945
21
53.2441869999999966
0
LINE
8
BLACK
6
CONTINUOUS
10
83.7520959999999945
20
53.2441869999999966
11
84.0102289999999954
21
53.0102289999999954
0
LINE
8
BLACK
6
CONTINUOUS
10
84.0102289999999954
20
53.0102289999999954
11
84.2441869999999966
21
52.7520959999999945
0
LINE
8
BLACK
6
CONTINUOUS
10
84.2441869999999966
20
52.7520959999999945
11
84.4517170000000021
21
52.4722739999999988
0
LINE
8
BLACK
6
CONTINUOUS
10
84.4517170000000021
20
52.4722739999999988
11
84.6308199999999999
21
52.1734579999999966
0
LINE
8
BLACK
6
CONTINUOUS
10
84.6308199999999999
20
52.1734579999999966
11
84.7797719999999941
21
51.8585259999999977
0
LINE
8
BLACK
6
CONTINUOUS
10
84.7797719999999941
20
51.8585259999999977
11
84.8971379999999982
21
51.5305109999999971
0
LINE
8
BLACK
6
CONTINUOUS
10
84.8971379999999982
20
51.5305109999999971
11
84.9817879999999946
21
51.1925710000000009
0
LINE
8
BLACK
6
CONTINUOUS
10
84.9817879999999946
20
51.1925710000000009
11
85.032905999999997
21
50.847960999999998
0
LINE
8
BLACK
6
CONTINUOUS
10
85.032905999999997
20
50.847960999999998
11
85.0499999999999972
21
50.5
0
LINE
8
BLACK
6
CONTINUOUS
10
85.0499999999999972
20
50.5
11
85.0461959999999948
21
50.4882939999999962
0
LINE
8
BLACK
6
CONTINUOUS
10
85.0461959999999948
20
50.4882939999999962
11
85.0499999999999972
21
3.5
0
LINE
8
BLACK
6
CONTINUOUS
10
85.0499999999999972
20
3.5
11
85.032905999999997
21
3.1520389999999998
0
LINE
8
BLACK
6
CONTINUOUS
10
85.032905999999997
20
3.1520389999999998
11
84.9817879999999946
21
2.807429
0
LINE
8
BLACK
6
CONTINUOUS
10
84.9817879999999946
20
2.807429
11
84.8971379999999982
21
2.4694889999999998
0
LINE
8
BLACK
6
CONTINUOUS
10
84.8971379999999982
20
2.4694889999999998
11
84.7797719999999941
21
2.1414740000000001
0
LINE
8
BLACK
6
CONTINUOUS
10
84.7797719999999941
20
2.1414740000000001
11
84.6308199999999999
21
1.8265419999999999
0
LINE
8
BLACK
6
CONTINUOUS
10
84.6308199999999999
20
1.8265419999999999
11
84.4517170000000021
21
1.5277259999999999
0
LINE
8
BLACK
6
CONTINUOUS
10
84.4517170000000021
20
1.5277259999999999
11
84.2441869999999966
21
1.2479039999999999
0
LINE
8
BLACK
6
CONTINUOUS
10
84.2441869999999966
20
1.2479039999999999
11
84.0102289999999954
21
0.989771
0
LINE
8
BLACK
6
CONTINUOUS
10
84.0102289999999954
20
0.989771
11
83.7520959999999945
21
0.755813
0
LINE
8
BLACK
6
CONTINUOUS
10
83.7520959999999945
20
0.755813
11
83.4722739999999988
21
0.548283
0
LINE
8
BLACK
6
CONTINUOUS
10
83.4722739999999988
20
0.548283
11
83.1734579999999966
21
0.36918
0
LINE
8
BLACK
6
CONTINUOUS
10
83.1734579999999966
20
0.36918
11
82.8585259999999977
21
0.220228
0
LINE
8
BLACK
6
CONTINUOUS
10
82.8585259999999977
20
0.220228
11
82.53051099999999
21
0.102862
0
LINE
8
BLACK
6
CONTINUOUS
10
82.53051099999999
20
0.102862
11
82.1925710000000009
21
0.018212
0
LINE
8
BLACK
6
CONTINUOUS
10
82.1925710000000009
20
0.018212
11
81.847960999999998
21
-0.032906
0
LINE
8
BLACK
6
CONTINUOUS
10
81.847960999999998
20
-0.032906
11
81.5
21
-0.05
0
LINE
8
BLACK
6
CONTINUOUS
10
81.5
20
-0.05
11
81.4882899999999921
21
-0.046195
0
LINE
8
BLACK
6
CONTINUOUS
10
81.4882899999999921
20
-0.046195
11
3.5
21
-0.05
0
LINE
8
BLACK
6
CONTINUOUS
10
3.5
20
-0.05
11
3.1520389999999998
21
-0.032906
0
LINE
8
BLACK
6
CONTINUOUS
10
3.1520389999999998
20
-0.032906
11
2.807429
21
0.018212
0
LINE
8
BLACK
6
CONTINUOUS
10
2.807429
20
0.018212
11
2.4694889999999998
21
0.102862
0
LINE
8
BLACK
6
CONTINUOUS
10
2.4694889999999998
20
0.102862
11
2.1414740000000001
21
0.220228
0
LINE
8
BLACK
6
CONTINUOUS
10
2.1414740000000001
20
0.220228
11
1.8265419999999999
21
0.36918
0
LINE
8
BLACK
6
CONTINUOUS
10
1.8265419999999999
20
0.36918
11
1.5277259999999999
21
0.548283
0
LINE
8
BLACK
6
CONTINUOUS
10
1.5277259999999999
20
0.548283
11
1.2479039999999999
21
0.755813
0
LINE
8
BLACK
6
CONTINUOUS
10
1.2479039999999999
20
0.755813
11
0.989771
21
0.989771
0
LINE
8
BLACK
6
CONTINUOUS
10
0.989771
20
0.989771
11
0.755813
21
1.2479039999999999
0
LINE
8
BLACK
6
CONTINUOUS
10
0.755813
20
1.2479039999999999
11
0.548283
21
1.5277259999999999
0
LINE
8
BLACK
6
CONTINUOUS
10
0.548283
20
1.5277259999999999
11
0.36918
21
1.8265419999999999
0
LINE
8
BLACK
6
CONTINUOUS
10
0.36918
20
1.8265419999999999
11
0.220228
21
2.1414740000000001
0
LINE
8
BLACK
6
CONTINUOUS
10
0.220228
20
2.1414740000000001
11
0.102862
21
2.4694889999999998
0
LINE
8
BLACK
6
CONTINUOUS
10
0.102862
20
2.4694889999999998
11
0.018212
21
2.807429
0
LINE
8
BLACK
6
CONTINUOUS
10
0.018212
20
2.807429
11
-0.032906
21
3.1520389999999998
0
LINE
8
BLACK
6
CONTINUOUS
10
-0.032906
20
3.1520389999999998
11
-0.05
21
3.5
0
LINE
8
BLACK
6
CONTINUOUS
10
-0.05
20
3.5
11
-0.046197
21
3.5117069999999999
0
LINE
8
BLACK
6
CONTINUOUS
10
-0.046197
20
3.5117069999999999
11
-0.05
21
50.5
0
LINE
8
BLACK
6
CONTINUOUS
10
-0.05
20
50.5
11
-0.032906
21
50.847960999999998
0
LINE
8
BLACK
6
CONTINUOUS
10
-0.032906
20
50.847960999999998
11
0.018212
21
51.1925710000000009
0
LINE
8
BLACK
6
CONTINUOUS
10
0.018212
20
51.1925710000000009
11
0.102862
21
51.5305109999999971
0
LINE
8
BLACK
6
CONTINUOUS
10
0.102862
20
51.5305109999999971
11
0.220228
21
51.8585259999999977
0
LINE
8
BLACK
6
CONTINUOUS
10
0.220228
20
51.8585259999999977
11
0.36918
21
52.1734579999999966
0
LINE
8
BLACK
6
CONTINUOUS
10
0.36918
20
52.1734579999999966
11
0.548283
21
52.4722739999999988
0
LINE
8
BLACK
6
CONTINUOUS
10
0.548283
20
52.4722739999999988
11
0.755813
21
52.7520959999999945
0
LINE
8
BLACK
6
CONTINUOUS
10
0.755813
20
52.7520959999999945
11
0.989771
21
53.0102289999999954
0
LINE
8
BLACK
6
CONTINUOUS
10
0.989771
20
53.0102289999999954
11
1.2479039999999999
21
53.2441869999999966
0
LINE
8
BLACK
6
CONTINUOUS
10
1.2479039999999999
20
53.2441869999999966
11
1.5277259999999999
21
53.451716999999995
0
LINE
8
BLACK
6
CONTINUOUS
10
1.5277259999999999
20
53.451716999999995
11
1.8265419999999999
21
53.6308199999999999
0
LINE
8
BLACK
6
CONTINUOUS
10
1.8265419999999999
20
53.6308199999999999
11
2.1414740000000001
21
53.7797719999999941
0
LINE
8
BLACK
6
CONTINUOUS
10
2.1414740000000001
20
53.7797719999999941
11
2.4694889999999998
21
53.8971379999999982
0
LINE
8
BLACK
6
CONTINUOUS
10
2.4694889999999998
20
53.8971379999999982
11
2.807429
21
53.9817879999999946
0
LINE
8
BLACK
6
CONTINUOUS
10
2.807429
20
53.9817879999999946
11
3.1520389999999998
21
54.032905999999997
0
LINE
8
BLACK
6
CONTINUOUS
10
3.1520389999999998
20
54.032905999999997
11
3.5
21
54.0499999999999972
0
LINE
8
BLACK
6
CONTINUOUS
10
3.5
20
54.0499999999999972
11
3.5117089999999997
21
54.0461959999999948
0
LINE
8
BLACK
6
CONTINUOUS
10
3.5117089999999997
20
54.0461959999999948
11
81.5
21
54.0499999999999972
0
LINE
8
BLACK
6
CONTINUOUS
10
81.5
20
54.0499999999999972
11
81.847960999999998
21
54.032905999999997
0
LINE
8
BLACK
6
CONTINUOUS
10
3.5
20
53.9499999999999957
11
3.3305119999999997
21
53.9499999999999957
0
LINE
8
BLACK
6
CONTINUOUS
10
3.3305119999999997
20
53.9499999999999957
11
2.993169
21
53.9167749999999941
0
LINE
8
BLACK
6
CONTINUOUS
10
2.993169
20
53.9167749999999941
11
2.6607069999999999
21
53.8506439999999955
0
LINE
8
BLACK
6
CONTINUOUS
10
2.6607069999999999
20
53.8506439999999955
11
2.336328
21
53.7522449999999949
0
LINE
8
BLACK
6
CONTINUOUS
10
2.336328
20
53.7522449999999949
11
2.0231559999999997
21
53.622524999999996
0
LINE
8
BLACK
6
CONTINUOUS
10
2.0231559999999997
20
53.622524999999996
11
1.7242059999999999
21
53.4627330000000001
0
LINE
8
BLACK
6
CONTINUOUS
10
1.7242059999999999
20
53.4627330000000001
11
1.4423589999999999
21
53.2744080000000011
0
LINE
8
BLACK
6
CONTINUOUS
10
1.4423589999999999
20
53.2744080000000011
11
1.1803269999999999
21
53.0593639999999951
0
LINE
8
BLACK
6
CONTINUOUS
10
1.1803269999999999
20
53.0593639999999951
11
0.9406359999999999
21
52.8196729999999945
0
LINE
8
BLACK
6
CONTINUOUS
10
0.9406359999999999
20
52.8196729999999945
11
0.725592
21
52.5576409999999967
0
LINE
8
BLACK
6
CONTINUOUS
10
0.725592
20
52.5576409999999967
11
0.5372669999999999
21
52.2757939999999977
0
LINE
8
BLACK
6
CONTINUOUS
10
0.5372669999999999
20
52.2757939999999977
11
0.377475
21
51.9768439999999998
0
LINE
8
BLACK
6
CONTINUOUS
10
0.377475
20
51.9768439999999998
11
0.247755
21
51.6636719999999983
0
LINE
8
BLACK
6
CONTINUOUS
10
0.247755
20
51.6636719999999983
11
0.149356
21
51.3392929999999978
0
LINE
8
BLACK
6
CONTINUOUS
10
0.149356
20
51.3392929999999978
11
0.083225
21
51.0068309999999983
0
LINE
8
BLACK
6
CONTINUOUS
10
0.083225
20
51.0068309999999983
11
0.05
21
50.6694880000000012
0
LINE
8
BLACK
6
CONTINUOUS
10
0.05
20
50.6694880000000012
11
0.05
21
50.5
0
LINE
8
BLACK
6
CONTINUOUS
10
0.05
20
50.5
11
0.046196
21
50.4882939999999962
0
LINE
8
BLACK
6
CONTINUOUS
10
0.046196
20
50.4882939999999962
11
0.05
21
3.5
0
LINE
8
BLACK
6
CONTINUOUS
10
0.05
20
3.5
11
0.05
21
3.3305119999999997
0
LINE
8
BLACK
6
CONTINUOUS
10
0.05
20
3.3305119999999997
11
0.083225
21
2.993169
0
LINE
8
BLACK
6
CONTINUOUS
10
0.083225
20
2.993169
11
0.149356
21
2.6607069999999999
0
LINE
8
BLACK
6
CONTINUOUS
10
0.149356
20
2.6607069999999999
11
0.247755
21
2.336328
0
LINE
8
BLACK
6
CONTINUOUS
10
0.247755
20
2.336328
11
0.377475
21
2.0231559999999997
0
LINE
8
BLACK
6
CONTINUOUS
10
0.377475
20
2.0231559999999997
11
0.5372669999999999
21
1.7242059999999999
0
LINE
8
BLACK
6
CONTINUOUS
10
0.5372669999999999
20
1.7242059999999999
11
0.725592
21
1.4423589999999999
0
LINE
8
BLACK
6
CONTINUOUS
10
0.725592
20
1.4423589999999999
11
0.9406359999999999
21
1.1803269999999999
0
LINE
8
BLACK
6
CONTINUOUS
10
0.9406359999999999
20
1.1803269999999999
11
1.1803269999999999
21
0.9406359999999999
0
LINE
8
BLACK
6
CONTINUOUS
10
1.1803269999999999
20
0.9406359999999999
11
1.4423589999999999
21
0.725592
0
LINE
8
BLACK
6
CONTINUOUS
10
1.4423589999999999
20
0.725592
11
1.7242059999999999
21
0.5372669999999999
0
LINE
8
BLACK
6
CONTINUOUS
10
1.7242059999999999
20
0.5372669999999999
11
2.0231559999999997
21
0.377475
0
LINE
8
BLACK
6
CONTINUOUS
10
2.0231559999999997
20
0.377475
11
2.336328
21
0.247755
0
LINE
8
BLACK
6
CONTINUOUS
10
2.336328
20
0.247755
11
2.6607069999999999
21
0.149356
0
LINE
8
BLACK
6
CONTINUOUS
10
2.6607069999999999
20
0.149356
11
2.993169
21
0.083225
0
LINE
8
BLACK
6
CONTINUOUS
10
2.993169
20
0.083225
11
3.3305119999999997
21
0.05
0
LINE
8
BLACK
6
CONTINUOUS
10
3.3305119999999997
20
0.05
11
3.5
21
0.05
0
LINE
8
BLACK
6
CONTINUOUS
10
3.5
20
0.05
11
3.5117089999999997
21
0.046196
0
LINE
8
BLACK
6
CONTINUOUS
10
3.5117089999999997
20
0.046196
11
81.5
21
0.05
0
LINE
8
BLACK
6
CONTINUOUS
10
81.5
20
0.05
11
81.6694880000000012
21
0.05
0
LINE
8
BLACK
6
CONTINUOUS
10
81.6694880000000012
20
0.05
11
82.0068309999999911
21
0.083225
0
LINE
8
BLACK
6
CONTINUOUS
10
82.0068309999999911
20
0.083225
11
82.3392929999999978
21
0.149356
0
LINE
8
BLACK
6
CONTINUOUS
10
82.3392929999999978
20
0.149356
11
82.6636719999999912
21
0.247755
0
LINE
8
BLACK
6
CONTINUOUS
10
82.6636719999999912
20
0.247755
11
82.9768439999999998
21
0.377475
0
LINE
8
BLACK
6
CONTINUOUS
10
82.9768439999999998
20
0.377475
11
83.2757939999999905
21
0.5372669999999999
0
LINE
8
BLACK
6
CONTINUOUS
10
83.2757939999999905
20
0.5372669999999999
11
83.5576409999999896
21
0.725592
0
LINE
8
BLACK
6
CONTINUOUS
10
83.5576409999999896
20
0.725592
11
83.8196729999999945
21
0.9406359999999999
0
LINE
8
BLACK
6
CONTINUOUS
10
83.8196729999999945
20
0.9406359999999999
11
84.0593640000000022
21
1.1803269999999999
0
LINE
8
BLACK
6
CONTINUOUS
10
84.0593640000000022
20
1.1803269999999999
11
84.274407999999994
21
1.4423589999999999
0
LINE
8
BLACK
6
CONTINUOUS
10
84.274407999999994
20
1.4423589999999999
11
84.4627330000000001
21
1.7242059999999999
0
LINE
8
BLACK
6
CONTINUOUS
10
84.4627330000000001
20
1.7242059999999999
11
84.622524999999996
21
2.0231559999999997
0
LINE
8
BLACK
6
CONTINUOUS
10
84.622524999999996
20
2.0231559999999997
11
84.7522450000000021
21
2.336328
0
LINE
8
BLACK
6
CONTINUOUS
10
84.7522450000000021
20
2.336328
11
84.8506440000000026
21
2.6607069999999999
0
LINE
8
BLACK
6
CONTINUOUS
10
84.8506440000000026
20
2.6607069999999999
11
84.9167750000000012
21
2.993169
0
LINE
8
BLACK
6
CONTINUOUS
10
84.9167750000000012
20
2.993169
11
84.9500000000000028
21
3.3305119999999997
0
LINE
8
BLACK
6
CONTINUOUS
10
84.9500000000000028
20
3.3305119999999997
11
84.9500000000000028
21
3.5
0
LINE
8
BLACK
6
CONTINUOUS
10
84.9500000000000028
20
3.5
11
84.9538029999999935
21
3.5117069999999999
0
LINE
8
BLACK
6
CONTINUOUS
10
84.9538029999999935
20
3.5117069999999999
11
84.9500000000000028
21
50.5
0
LINE
8
BLACK
6
CONTINUOUS
10
84.9500000000000028
20
50.5
11
84.9500000000000028
21
50.6694880000000012
0
LINE
8
BLACK
6
CONTINUOUS
10
84.9500000000000028
20
50.6694880000000012
11
84.9167750000000012
21
51.0068309999999983
0
LINE
8
BLACK
6
CONTINUOUS
10
84.9167750000000012
20
51.0068309999999983
11
84.8506440000000026
21
51.3392929999999978
0
LINE
8
BLACK
6
CONTINUOUS
10
84.8506440000000026
20
51.3392929999999978
11
84.7522450000000021
21
51.6636719999999983
0
LINE
8
BLACK
6
CONTINUOUS
10
84.7522450000000021
20
51.6636719999999983
11
84.622524999999996
21
51.9768439999999998
0
LINE
8
BLACK
6
CONTINUOUS
10
84.622524999999996
20
51.9768439999999998
11
84.4627330000000001
21
52.2757939999999977
0
LINE
8
BLACK
6
CONTINUOUS
10
84.4627330000000001
20
52.2757939999999977
11
84.274407999999994
21
52.5576409999999967
0
LINE
8
BLACK
6
CONTINUOUS
10
84.274407999999994
20
52.5576409999999967
11
84.0593640000000022
21
52.8196729999999945
0
LINE
8
BLACK
6
CONTINUOUS
10
84.0593640000000022
20
52.8196729999999945
11
83.8196729999999945
21
53.0593639999999951
0
LINE
8
BLACK
6
CONTINUOUS
10
83.8196729999999945
20
53.0593639999999951
11
83.5576409999999896
21
53.2744080000000011
0
LINE
8
BLACK
6
CONTINUOUS
10
83.5576409999999896
20
53.2744080000000011
11
83.2757939999999905
21
53.4627330000000001
0
LINE
8
BLACK
6
CONTINUOUS
10
83.2757939999999905
20
53.4627330000000001
11
82.9768439999999998
21
53.622524999999996
0
LINE
8
BLACK
6
CONTINUOUS
10
82.9768439999999998
20
53.622524999999996
11
82.6636719999999912
21
53.7522449999999949
0
LINE
8
BLACK
6
CONTINUOUS
10
82.6636719999999912
20
53.7522449999999949
11
82.3392929999999978
21
53.8506439999999955
0
LINE
8
BLACK
6
CONTINUOUS
10
82.3392929999999978
20
53.8506439999999955
11
82.0068309999999911
21
53.9167749999999941
0
LINE
8
BLACK
6
CONTINUOUS
10
82.0068309999999911
20
53.9167749999999941
11
81.6694880000000012
21
53.9499999999999957
0
LINE
8
BLACK
6
CONTINUOUS
10
81.6694880000000012
20
53.9499999999999957
11
81.5
21
53.9499999999999957
0
LINE
8
BLACK
6
CONTINUOUS
10
81.5
20
53.9499999999999957
11
81.4882899999999921
21
53.9538049999999956
0
LINE
8
BLACK
6
CONTINUOUS
10
81.4882899999999921
20
53.9538049999999956
11
3.5
21
53.9499999999999957
  0
ENDSEC
  0
EOF
