%TF.GenerationSoftware,KiCad,Pcbnew,9.0.4*%
%TF.CreationDate,2025-10-07T14:59:10+07:00*%
%TF.ProjectId,pic0rick_Adapter,70696330-7269-4636-9b5f-416461707465,rev?*%
%TF.SameCoordinates,PX7641700PY7088980*%
%TF.FileFunction,Copper,L1,Top*%
%TF.FilePolarity,Positive*%
%FSLAX46Y46*%
G04 Gerber Fmt 4.6, Leading zero omitted, Abs format (unit mm)*
G04 Created by KiCad (PCBNEW 9.0.4) date 2025-10-07 14:59:10*
%MOMM*%
%LPD*%
G01*
G04 APERTURE LIST*
%TA.AperFunction,ComponentPad*%
%ADD10R,1.700000X1.700000*%
%TD*%
%TA.AperFunction,ComponentPad*%
%ADD11C,1.700000*%
%TD*%
%TA.AperFunction,ViaPad*%
%ADD12C,0.600000*%
%TD*%
%TA.AperFunction,Conductor*%
%ADD13C,0.300000*%
%TD*%
%TA.AperFunction,Conductor*%
%ADD14C,1.000000*%
%TD*%
G04 APERTURE END LIST*
D10*
%TO.P,J5,1,Pin_1*%
%TO.N,+5V*%
X33210000Y28120000D03*
D11*
%TO.P,J5,2,Pin_2*%
%TO.N,GND*%
X35750000Y28120000D03*
%TD*%
D10*
%TO.P,J11,1,Pin_1*%
%TO.N,unconnected-(J1-Pin_1-Pad1)*%
X8500000Y5250000D03*
D11*
%TO.P,J11,2,Pin_2*%
%TO.N,GPIO20*%
X11040000Y5250000D03*
%TO.P,J11,3,Pin_3*%
%TO.N,GPIO19*%
X13579999Y5250000D03*
%TO.P,J11,4,Pin_4*%
%TO.N,GPIO21*%
X16120000Y5250000D03*
%TO.P,J11,5,Pin_5*%
%TO.N,GPIO17*%
X18660000Y5250000D03*
%TO.P,J11,6,Pin_6*%
%TO.N,GPIO18*%
X21200000Y5250000D03*
%TO.P,J11,7,Pin_7*%
%TO.N,GPIO16*%
X23740000Y5250000D03*
%TO.P,J11,8,Pin_8*%
%TO.N,GND*%
X26280001Y5250000D03*
%TO.P,J11,9,Pin_9*%
%TO.N,+3.3V*%
X28820000Y5250000D03*
%TD*%
D10*
%TO.P,J1,1,Pin_1*%
%TO.N,unconnected-(J1-Pin_1-Pad1)*%
X8450000Y1625000D03*
D11*
%TO.P,J1,2,Pin_2*%
%TO.N,GPIO20*%
X10990000Y1625000D03*
%TO.P,J1,3,Pin_3*%
%TO.N,GPIO19*%
X13529999Y1625000D03*
%TO.P,J1,4,Pin_4*%
%TO.N,GPIO18*%
X16070000Y1625000D03*
%TO.P,J1,5,Pin_5*%
%TO.N,GPIO17*%
X18610000Y1625000D03*
%TO.P,J1,6,Pin_6*%
%TO.N,GPIO16*%
X21150000Y1625000D03*
%TO.P,J1,7,Pin_7*%
%TO.N,GPIO21*%
X23690000Y1625000D03*
%TO.P,J1,8,Pin_8*%
%TO.N,GND*%
X26230001Y1625000D03*
%TO.P,J1,9,Pin_9*%
%TO.N,+3.3V*%
X28770000Y1625000D03*
%TD*%
D10*
%TO.P,J10,1,Pin_1*%
%TO.N,+5V*%
X4000000Y5270000D03*
D11*
%TO.P,J10,2,Pin_2*%
%TO.N,GND*%
X1460000Y5270000D03*
%TD*%
D10*
%TO.P,J4,1,Pin_1*%
%TO.N,+3.3V*%
X1460000Y45910000D03*
D11*
%TO.P,J4,2,Pin_2*%
%TO.N,GND*%
X1460000Y43370000D03*
%TO.P,J4,3,Pin_3*%
%TO.N,+3.3V*%
X1460000Y40830001D03*
%TO.P,J4,4,Pin_4*%
%TO.N,GPIO12*%
X1460000Y38290000D03*
%TO.P,J4,5,Pin_5*%
%TO.N,unconnected-(J4-Pin_5-Pad5)*%
X1460000Y35750000D03*
%TO.P,J4,6,Pin_6*%
%TO.N,GPIO11*%
X1460000Y33210000D03*
%TD*%
D10*
%TO.P,J7,1,Pin_1*%
%TO.N,+5V*%
X33210000Y50980000D03*
D11*
%TO.P,J7,2,Pin_2*%
%TO.N,GND*%
X35750000Y50980000D03*
%TD*%
D10*
%TO.P,J3,1,Pin_1*%
%TO.N,+3.3V*%
X35750000Y45900000D03*
D11*
%TO.P,J3,2,Pin_2*%
%TO.N,GND*%
X35750000Y43360000D03*
%TO.P,J3,3,Pin_3*%
%TO.N,GPIO17*%
X35750000Y40820001D03*
%TO.P,J3,4,Pin_4*%
%TO.N,GPIO16*%
X35750000Y38280000D03*
%TO.P,J3,5,Pin_5*%
%TO.N,GPIO12*%
X35750000Y35740000D03*
%TO.P,J3,6,Pin_6*%
%TO.N,GPIO11*%
X35750000Y33200000D03*
%TD*%
D10*
%TO.P,J9,1,Pin_1*%
%TO.N,+5V*%
X4000000Y28130000D03*
D11*
%TO.P,J9,2,Pin_2*%
%TO.N,GND*%
X1460000Y28130000D03*
%TD*%
D10*
%TO.P,J12,1,Pin_1*%
%TO.N,+5V*%
X4000000Y51000000D03*
D11*
%TO.P,J12,2,Pin_2*%
%TO.N,GND*%
X1460000Y51000000D03*
%TD*%
D10*
%TO.P,J6,1,Pin_1*%
%TO.N,+3.3V*%
X33210000Y23039999D03*
D11*
%TO.P,J6,2,Pin_2*%
X35750000Y23039999D03*
%TO.P,J6,3,Pin_3*%
%TO.N,GND*%
X33210000Y20499999D03*
%TO.P,J6,4,Pin_4*%
X35750000Y20499999D03*
%TO.P,J6,5,Pin_5*%
%TO.N,GPIO21*%
X33210000Y17960000D03*
%TO.P,J6,6,Pin_6*%
%TO.N,GPIO28*%
X35750000Y17959999D03*
%TO.P,J6,7,Pin_7*%
%TO.N,GPIO20*%
X33210000Y15419999D03*
%TO.P,J6,8,Pin_8*%
%TO.N,GPIO27*%
X35750000Y15419999D03*
%TO.P,J6,9,Pin_9*%
%TO.N,GPIO19*%
X33210000Y12879999D03*
%TO.P,J6,10,Pin_10*%
%TO.N,GPIO26*%
X35750000Y12879999D03*
%TO.P,J6,11,Pin_11*%
%TO.N,GPIO18*%
X33210000Y10339999D03*
%TO.P,J6,12,Pin_12*%
%TO.N,GPIO22*%
X35750000Y10339999D03*
%TD*%
D10*
%TO.P,J2,1,Pin_1*%
%TO.N,+5V*%
X33210000Y5270000D03*
D11*
%TO.P,J2,2,Pin_2*%
%TO.N,GND*%
X35750000Y5270000D03*
%TD*%
D10*
%TO.P,J8,1,Pin_1*%
%TO.N,+3.3V*%
X4000000Y23050000D03*
D11*
%TO.P,J8,2,Pin_2*%
X1460000Y23050000D03*
%TO.P,J8,3,Pin_3*%
%TO.N,GND*%
X4000000Y20510000D03*
%TO.P,J8,4,Pin_4*%
X1460000Y20510000D03*
%TO.P,J8,5,Pin_5*%
%TO.N,unconnected-(J8-Pin_5-Pad5)*%
X4000000Y17970000D03*
%TO.P,J8,6,Pin_6*%
%TO.N,GPIO22*%
X1460000Y17970000D03*
%TO.P,J8,7,Pin_7*%
%TO.N,GPIO28*%
X4000000Y15430000D03*
%TO.P,J8,8,Pin_8*%
%TO.N,unconnected-(J8-Pin_8-Pad8)*%
X1460000Y15430000D03*
%TO.P,J8,9,Pin_9*%
%TO.N,GPIO27*%
X4000000Y12890000D03*
%TO.P,J8,10,Pin_10*%
%TO.N,unconnected-(J8-Pin_10-Pad10)*%
X1460000Y12890000D03*
%TO.P,J8,11,Pin_11*%
%TO.N,GPIO26*%
X4000000Y10350000D03*
%TO.P,J8,12,Pin_12*%
%TO.N,unconnected-(J8-Pin_12-Pad12)*%
X1460000Y10350000D03*
%TD*%
D12*
%TO.N,GPIO21*%
X21200000Y3400000D03*
%TO.N,GND*%
X22500000Y44250000D03*
X4000000Y1250000D03*
X27250000Y36750000D03*
X21250000Y42750000D03*
X7250000Y13750000D03*
X10000000Y42750000D03*
X5750000Y47750000D03*
X3500000Y39250000D03*
X19250000Y19500000D03*
X28250000Y47500000D03*
X33250000Y44250000D03*
X27500000Y49500000D03*
X12250000Y35000000D03*
X8250000Y43500000D03*
X9250000Y16250000D03*
X27500000Y14250000D03*
X25500000Y52750000D03*
X6500000Y21250000D03*
X6500000Y26000000D03*
X16000000Y43500000D03*
X25000000Y37500000D03*
X26750000Y26250000D03*
X33500000Y35500000D03*
X29500000Y42000000D03*
X30500000Y30000000D03*
X10250000Y37000000D03*
X29250000Y44250000D03*
X19000000Y52750000D03*
X29000000Y52500000D03*
X6250000Y35750000D03*
X14750000Y47750000D03*
X18250000Y22500000D03*
X25500000Y41250000D03*
X28250000Y12250000D03*
X31250000Y1250000D03*
X33750000Y1250000D03*
X12250000Y37000000D03*
X31250000Y35000000D03*
X12250000Y52750000D03*
X22750000Y40500000D03*
X16750000Y42750000D03*
X19250000Y26250000D03*
X9500000Y52750000D03*
X10750000Y14000000D03*
X28250000Y40500000D03*
X10250000Y32000000D03*
X5750000Y49250000D03*
X12000000Y32000000D03*
X6750000Y31750000D03*
X6750000Y52750000D03*
X27250000Y13250000D03*
X12000000Y44250000D03*
X21500000Y22500000D03*
X15750000Y44500000D03*
X18750000Y47500000D03*
X7750000Y15750000D03*
X31250000Y53000000D03*
X7750000Y44500000D03*
X22000000Y18000000D03*
X19500000Y15500000D03*
X23250000Y47500000D03*
X8750000Y13750000D03*
X16000000Y39000000D03*
X15750000Y22500000D03*
X15500000Y42500000D03*
X13250000Y49500000D03*
X32250000Y37000000D03*
X6750000Y30000000D03*
X8750000Y42500000D03*
X16000000Y49250000D03*
X29250000Y12500000D03*
X15750000Y19750000D03*
X30750000Y26250000D03*
X27250000Y39000000D03*
X19750000Y35000000D03*
X30500000Y49500000D03*
X5750000Y39250000D03*
X30750000Y31500000D03*
X10500000Y43500000D03*
X17750000Y44000000D03*
X27000000Y31000000D03*
X22750000Y20250000D03*
X36000000Y1250000D03*
X16250000Y36750000D03*
X6000000Y2750000D03*
X16000000Y30750000D03*
X9750000Y47250000D03*
X17250000Y14300000D03*
X23500000Y31000000D03*
X12250000Y39250000D03*
X34000000Y37000000D03*
X18500000Y30750000D03*
X19750000Y37500000D03*
X16000000Y35000000D03*
X18750000Y39250000D03*
X16000000Y17500000D03*
X16250000Y26250000D03*
X36000000Y52750000D03*
X9000000Y12250000D03*
X32000000Y47500000D03*
X8000000Y49250000D03*
X12250000Y42750000D03*
X15250000Y52750000D03*
X28250000Y13250000D03*
X27000000Y35000000D03*
X20000000Y49500000D03*
X22250000Y52750000D03*
X1250000Y1250000D03*
X12500000Y29750000D03*
X23500000Y26250000D03*
X23250000Y35000000D03*
X25500000Y44250000D03*
X10000000Y39250000D03*
X6750000Y16750000D03*
X22500000Y37750000D03*
X23750000Y49500000D03*
X20000000Y40750000D03*
%TO.N,+5V*%
X14000000Y28150000D03*
X14000000Y21250000D03*
%TO.N,GPIO16*%
X25900000Y15625000D03*
%TO.N,+3.3V*%
X26050000Y12750000D03*
%TO.N,GPIO17*%
X24625000Y15600000D03*
%TO.N,GPIO21*%
X27175000Y15650000D03*
%TD*%
D13*
%TO.N,GPIO21*%
X22475000Y10975000D02*
X22475000Y4675000D01*
X27150000Y15650000D02*
X22475000Y10975000D01*
X27175000Y15650000D02*
X27150000Y15650000D01*
X22475000Y4675000D02*
X21200000Y3400000D01*
%TO.N,GPIO18*%
X14850000Y2845000D02*
X16070000Y1625000D01*
X14850000Y7200000D02*
X14850000Y2845000D01*
X24050000Y16400000D02*
X14850000Y7200000D01*
X27750000Y16400000D02*
X24050000Y16400000D01*
X33210000Y10940000D02*
X27750000Y16400000D01*
X33210000Y10339999D02*
X33210000Y10940000D01*
%TO.N,GPIO16*%
X19925000Y2850000D02*
X21150000Y1625000D01*
X19925000Y9675000D02*
X19925000Y2850000D01*
X25875000Y15625000D02*
X19925000Y9675000D01*
X25900000Y15625000D02*
X25875000Y15625000D01*
%TO.N,GPIO17*%
X24625000Y15575000D02*
X18660000Y9610000D01*
X18660000Y9610000D02*
X18660000Y5250000D01*
X24625000Y15600000D02*
X24625000Y15575000D01*
D14*
%TO.N,+3.3V*%
X26050000Y9200000D02*
X28820000Y6430000D01*
X26050000Y12750000D02*
X26050000Y9200000D01*
X28820000Y6430000D02*
X28820000Y5250000D01*
D13*
%TO.N,GPIO16*%
X23740000Y4590000D02*
X23740000Y5250000D01*
X21150000Y2000000D02*
X23740000Y4590000D01*
X21150000Y1625000D02*
X21150000Y2000000D01*
%TO.N,GPIO17*%
X18660000Y1675000D02*
X18610000Y1625000D01*
X18660000Y5250000D02*
X18660000Y1675000D01*
%TO.N,unconnected-(J1-Pin_1-Pad1)*%
X8500000Y1675000D02*
X8450000Y1625000D01*
X8500000Y5250000D02*
X8500000Y1675000D01*
D14*
%TO.N,+5V*%
X33210000Y28120000D02*
X4010000Y28120000D01*
D13*
X33190000Y51000000D02*
X33210000Y50980000D01*
D14*
X4000000Y5270000D02*
X4420000Y5270000D01*
D13*
X4010000Y28120000D02*
X4000000Y28130000D01*
D14*
X8850000Y9700000D02*
X14000000Y14850000D01*
X4420000Y5270000D02*
X8850000Y9700000D01*
X4000000Y51000000D02*
X33190000Y51000000D01*
X14000000Y14850000D02*
X14000000Y21250000D01*
D13*
%TO.N,GPIO16*%
X21200000Y1675000D02*
X21150000Y1625000D01*
%TO.N,GPIO11*%
X35750000Y33200000D02*
X1470000Y33200000D01*
X1470000Y33200000D02*
X1460000Y33210000D01*
%TO.N,+3.3V*%
X28770000Y5200000D02*
X28820000Y5250000D01*
D14*
X21100000Y45910000D02*
X35740000Y45910000D01*
X19400000Y44410000D02*
X17900000Y45910000D01*
X1460000Y40830001D02*
X17580001Y40830001D01*
X33210000Y23039999D02*
X31999999Y24250000D01*
D13*
X1470001Y23039999D02*
X1460000Y23050000D01*
D14*
X1460000Y45910000D02*
X17900000Y45910000D01*
X19400000Y45860000D02*
X19450000Y45910000D01*
X19590000Y44400000D02*
X21100000Y45910000D01*
X31999999Y24250000D02*
X5200000Y24250000D01*
X35740000Y45910000D02*
X35750000Y45900000D01*
X19400000Y42650000D02*
X19400000Y44400000D01*
X19400000Y44400000D02*
X19400000Y45860000D01*
X19400000Y44400000D02*
X19400000Y44410000D01*
X28770000Y1625000D02*
X28770000Y5200000D01*
X17900000Y45910000D02*
X19450000Y45910000D01*
X17580001Y40830001D02*
X19400000Y42650000D01*
X19400000Y44400000D02*
X19590000Y44400000D01*
X35750000Y23039999D02*
X33210000Y23039999D01*
X5200000Y24250000D02*
X3989999Y23039999D01*
X3989999Y23039999D02*
X1470001Y23039999D01*
X19450000Y45910000D02*
X21100000Y45910000D01*
D13*
%TO.N,GPIO17*%
X18610000Y5200000D02*
X18660000Y5250000D01*
%TO.N,GPIO12*%
X5900000Y33850000D02*
X1460000Y38290000D01*
X33860000Y33850000D02*
X5900000Y33850000D01*
X35750000Y35740000D02*
X33860000Y33850000D01*
%TO.N,GPIO18*%
X16120000Y1675000D02*
X16070000Y1625000D01*
%TO.N,GPIO19*%
X33210000Y12879999D02*
X29039999Y17050000D01*
X13579999Y6929999D02*
X13579999Y5250000D01*
X13579999Y5250000D02*
X13579999Y1675000D01*
X23700000Y17050000D02*
X13579999Y6929999D01*
X29039999Y17050000D02*
X23700000Y17050000D01*
X13579999Y1675000D02*
X13529999Y1625000D01*
%TO.N,GPIO20*%
X33210000Y15419999D02*
X30979999Y17650000D01*
X23440000Y17650000D02*
X11040000Y5250000D01*
X30979999Y17650000D02*
X23440000Y17650000D01*
X11040000Y1675000D02*
X10990000Y1625000D01*
X11040000Y5250000D02*
X11040000Y1675000D01*
%TO.N,GPIO21*%
X23740000Y1675000D02*
X23690000Y1625000D01*
%TD*%
%TA.AperFunction,Conductor*%
%TO.N,GND*%
G36*
X28016391Y15213412D02*
G01*
X28021210Y15208844D01*
X32034210Y11195844D01*
X32067695Y11134521D01*
X32062711Y11064829D01*
X32057014Y11051868D01*
X31958444Y10858414D01*
X31892753Y10656239D01*
X31892429Y10654192D01*
X31859500Y10446286D01*
X31859500Y10233712D01*
X31892754Y10023756D01*
X31955193Y9831588D01*
X31958444Y9821585D01*
X32054951Y9632179D01*
X32179890Y9460213D01*
X32330213Y9309890D01*
X32502179Y9184951D01*
X32502181Y9184950D01*
X32502184Y9184948D01*
X32691588Y9088442D01*
X32893757Y9022753D01*
X33103713Y8989499D01*
X33103714Y8989499D01*
X33316286Y8989499D01*
X33316287Y8989499D01*
X33526243Y9022753D01*
X33728412Y9088442D01*
X33917816Y9184948D01*
X33986380Y9234762D01*
X34089786Y9309890D01*
X34089788Y9309893D01*
X34089792Y9309895D01*
X34240104Y9460207D01*
X34240106Y9460211D01*
X34240109Y9460213D01*
X34365048Y9632179D01*
X34365047Y9632179D01*
X34365051Y9632183D01*
X34369514Y9640945D01*
X34417488Y9691740D01*
X34485308Y9708536D01*
X34551444Y9686000D01*
X34590486Y9640943D01*
X34594951Y9632179D01*
X34719890Y9460213D01*
X34870213Y9309890D01*
X35042179Y9184951D01*
X35042181Y9184950D01*
X35042184Y9184948D01*
X35231588Y9088442D01*
X35433757Y9022753D01*
X35643713Y8989499D01*
X35643714Y8989499D01*
X35856286Y8989499D01*
X35856287Y8989499D01*
X36066243Y9022753D01*
X36268412Y9088442D01*
X36457816Y9184948D01*
X36552615Y9253823D01*
X36618421Y9277303D01*
X36686475Y9261478D01*
X36735170Y9211372D01*
X36749500Y9153505D01*
X36749500Y6455877D01*
X36729815Y6388838D01*
X36677011Y6343083D01*
X36607853Y6333139D01*
X36552615Y6355558D01*
X36457553Y6424624D01*
X36268217Y6521096D01*
X36066129Y6586758D01*
X35856246Y6620000D01*
X35643754Y6620000D01*
X35433872Y6586758D01*
X35433869Y6586758D01*
X35231782Y6521096D01*
X35042439Y6424620D01*
X34988282Y6385273D01*
X34988282Y6385272D01*
X35620591Y5752963D01*
X35557007Y5735925D01*
X35442993Y5670099D01*
X35349901Y5577007D01*
X35284075Y5462993D01*
X35267037Y5399409D01*
X34596818Y6069628D01*
X34563333Y6130951D01*
X34560499Y6157309D01*
X34560499Y6167871D01*
X34560498Y6167877D01*
X34560497Y6167884D01*
X34554091Y6227483D01*
X34534462Y6280110D01*
X34503797Y6362329D01*
X34503793Y6362336D01*
X34417547Y6477545D01*
X34417544Y6477548D01*
X34302335Y6563794D01*
X34302328Y6563798D01*
X34167482Y6614092D01*
X34167483Y6614092D01*
X34107883Y6620499D01*
X34107881Y6620500D01*
X34107873Y6620500D01*
X34107864Y6620500D01*
X32312129Y6620500D01*
X32312123Y6620499D01*
X32252516Y6614092D01*
X32117671Y6563798D01*
X32117664Y6563794D01*
X32002455Y6477548D01*
X32002452Y6477545D01*
X31916206Y6362336D01*
X31916202Y6362329D01*
X31865908Y6227483D01*
X31860797Y6179941D01*
X31859501Y6167877D01*
X31859500Y6167865D01*
X31859500Y4372130D01*
X31859501Y4372124D01*
X31865908Y4312517D01*
X31916202Y4177672D01*
X31916206Y4177665D01*
X32002452Y4062456D01*
X32002455Y4062453D01*
X32117664Y3976207D01*
X32117671Y3976203D01*
X32252517Y3925909D01*
X32252516Y3925909D01*
X32259444Y3925165D01*
X32312127Y3919500D01*
X34107872Y3919501D01*
X34167483Y3925909D01*
X34302331Y3976204D01*
X34417546Y4062454D01*
X34503796Y4177669D01*
X34554091Y4312517D01*
X34560500Y4372127D01*
X34560499Y4382688D01*
X34580179Y4449725D01*
X34596818Y4470374D01*
X35267037Y5140592D01*
X35284075Y5077007D01*
X35349901Y4962993D01*
X35442993Y4869901D01*
X35557007Y4804075D01*
X35620589Y4787038D01*
X34988282Y4154731D01*
X34988282Y4154730D01*
X35042449Y4115376D01*
X35231782Y4018905D01*
X35433870Y3953243D01*
X35643754Y3920000D01*
X35856246Y3920000D01*
X36066127Y3953243D01*
X36066130Y3953243D01*
X36268217Y4018905D01*
X36457557Y4115380D01*
X36552615Y4184442D01*
X36618421Y4207922D01*
X36686475Y4192096D01*
X36735170Y4141991D01*
X36749500Y4084124D01*
X36749500Y-1246753D01*
X36749330Y-1253243D01*
X36733407Y-1557046D01*
X36732050Y-1569953D01*
X36684971Y-1867205D01*
X36682273Y-1879902D01*
X36604374Y-2170623D01*
X36600363Y-2182966D01*
X36492510Y-2463935D01*
X36487231Y-2475793D01*
X36350591Y-2743963D01*
X36344101Y-2755203D01*
X36180187Y-3007608D01*
X36172558Y-3018109D01*
X35983149Y-3252010D01*
X35974464Y-3261655D01*
X35761655Y-3474464D01*
X35752010Y-3483149D01*
X35518109Y-3672558D01*
X35507608Y-3680187D01*
X35255203Y-3844101D01*
X35243963Y-3850591D01*
X34975793Y-3987231D01*
X34963935Y-3992510D01*
X34682966Y-4100363D01*
X34670623Y-4104374D01*
X34379902Y-4182273D01*
X34367205Y-4184971D01*
X34069953Y-4232050D01*
X34057046Y-4233407D01*
X33753244Y-4249330D01*
X33746754Y-4249500D01*
X3503246Y-4249500D01*
X3496756Y-4249330D01*
X3192953Y-4233407D01*
X3180046Y-4232050D01*
X2882794Y-4184971D01*
X2870097Y-4182273D01*
X2579376Y-4104374D01*
X2567033Y-4100363D01*
X2286064Y-3992510D01*
X2274206Y-3987231D01*
X2006036Y-3850591D01*
X1994796Y-3844101D01*
X1742391Y-3680187D01*
X1731890Y-3672558D01*
X1497989Y-3483149D01*
X1488344Y-3474464D01*
X1275535Y-3261655D01*
X1266850Y-3252010D01*
X1077441Y-3018109D01*
X1069812Y-3007608D01*
X1008517Y-2913222D01*
X905896Y-2755199D01*
X899408Y-2743963D01*
X762768Y-2475793D01*
X757489Y-2463935D01*
X686994Y-2280289D01*
X649635Y-2182965D01*
X645625Y-2170623D01*
X644626Y-2166895D01*
X567724Y-1879896D01*
X565028Y-1867205D01*
X561685Y-1846100D01*
X517949Y-1569953D01*
X516592Y-1557046D01*
X500670Y-1253243D01*
X500500Y-1246753D01*
X500500Y-1128711D01*
X1649500Y-1128711D01*
X1649500Y-1371288D01*
X1681161Y-1611785D01*
X1743947Y-1846104D01*
X1757947Y-1879902D01*
X1836776Y-2070212D01*
X1958064Y-2280289D01*
X1958066Y-2280292D01*
X1958067Y-2280293D01*
X2105733Y-2472736D01*
X2105739Y-2472743D01*
X2277256Y-2644260D01*
X2277262Y-2644265D01*
X2469711Y-2791936D01*
X2679788Y-2913224D01*
X2903900Y-3006054D01*
X3138211Y-3068838D01*
X3318586Y-3092584D01*
X3378711Y-3100500D01*
X3378712Y-3100500D01*
X3621289Y-3100500D01*
X3669388Y-3094167D01*
X3861789Y-3068838D01*
X4096100Y-3006054D01*
X4320212Y-2913224D01*
X4530289Y-2791936D01*
X4722738Y-2644265D01*
X4894265Y-2472738D01*
X5041936Y-2280289D01*
X5163224Y-2070212D01*
X5256054Y-1846100D01*
X5318838Y-1611789D01*
X5350500Y-1371288D01*
X5350500Y-1128712D01*
X5350500Y-1128711D01*
X31899500Y-1128711D01*
X31899500Y-1371288D01*
X31931161Y-1611785D01*
X31993947Y-1846104D01*
X32007947Y-1879902D01*
X32086776Y-2070212D01*
X32208064Y-2280289D01*
X32208066Y-2280292D01*
X32208067Y-2280293D01*
X32355733Y-2472736D01*
X32355739Y-2472743D01*
X32527256Y-2644260D01*
X32527262Y-2644265D01*
X32719711Y-2791936D01*
X32929788Y-2913224D01*
X33153900Y-3006054D01*
X33388211Y-3068838D01*
X33568586Y-3092584D01*
X33628711Y-3100500D01*
X33628712Y-3100500D01*
X33871289Y-3100500D01*
X33919388Y-3094167D01*
X34111789Y-3068838D01*
X34346100Y-3006054D01*
X34570212Y-2913224D01*
X34780289Y-2791936D01*
X34972738Y-2644265D01*
X35144265Y-2472738D01*
X35291936Y-2280289D01*
X35413224Y-2070212D01*
X35506054Y-1846100D01*
X35568838Y-1611789D01*
X35600500Y-1371288D01*
X35600500Y-1128712D01*
X35568838Y-888211D01*
X35506054Y-653900D01*
X35413224Y-429788D01*
X35291936Y-219711D01*
X35144265Y-27262D01*
X35144260Y-27256D01*
X34972743Y144261D01*
X34972736Y144267D01*
X34780293Y291933D01*
X34780292Y291934D01*
X34780289Y291936D01*
X34570212Y413224D01*
X34570205Y413227D01*
X34346104Y506053D01*
X34111785Y568839D01*
X33871289Y600500D01*
X33871288Y600500D01*
X33628712Y600500D01*
X33628711Y600500D01*
X33388214Y568839D01*
X33153895Y506053D01*
X32929794Y413227D01*
X32929785Y413223D01*
X32719706Y291933D01*
X32527263Y144267D01*
X32527256Y144261D01*
X32355739Y-27256D01*
X32355733Y-27263D01*
X32208067Y-219706D01*
X32086777Y-429785D01*
X32086773Y-429794D01*
X31993947Y-653895D01*
X31931161Y-888214D01*
X31899500Y-1128711D01*
X5350500Y-1128711D01*
X5318838Y-888211D01*
X5256054Y-653900D01*
X5163224Y-429788D01*
X5041936Y-219711D01*
X4894265Y-27262D01*
X4894260Y-27256D01*
X4722743Y144261D01*
X4722736Y144267D01*
X4530293Y291933D01*
X4530292Y291934D01*
X4530289Y291936D01*
X4320212Y413224D01*
X4320205Y413227D01*
X4096104Y506053D01*
X3861785Y568839D01*
X3621289Y600500D01*
X3621288Y600500D01*
X3378712Y600500D01*
X3378711Y600500D01*
X3138214Y568839D01*
X2903895Y506053D01*
X2679794Y413227D01*
X2679785Y413223D01*
X2469706Y291933D01*
X2277263Y144267D01*
X2277256Y144261D01*
X2105739Y-27256D01*
X2105733Y-27263D01*
X1958067Y-219706D01*
X1836777Y-429785D01*
X1836773Y-429794D01*
X1743947Y-653895D01*
X1681161Y-888214D01*
X1649500Y-1128711D01*
X500500Y-1128711D01*
X500500Y4055063D01*
X520185Y4122102D01*
X572989Y4167857D01*
X642147Y4177801D01*
X697386Y4155381D01*
X752445Y4115378D01*
X941782Y4018905D01*
X1143870Y3953243D01*
X1353754Y3920000D01*
X1566246Y3920000D01*
X1776127Y3953243D01*
X1776130Y3953243D01*
X1978217Y4018905D01*
X2167554Y4115378D01*
X2221716Y4154730D01*
X2221717Y4154730D01*
X1589409Y4787038D01*
X1652993Y4804075D01*
X1767007Y4869901D01*
X1860099Y4962993D01*
X1925925Y5077007D01*
X1942962Y5140591D01*
X2613181Y4470372D01*
X2646666Y4409049D01*
X2649500Y4382700D01*
X2649500Y4372135D01*
X2649501Y4372124D01*
X2655908Y4312517D01*
X2706202Y4177672D01*
X2706206Y4177665D01*
X2792452Y4062456D01*
X2792455Y4062453D01*
X2907664Y3976207D01*
X2907671Y3976203D01*
X3042517Y3925909D01*
X3042516Y3925909D01*
X3049444Y3925165D01*
X3102127Y3919500D01*
X4897872Y3919501D01*
X4957483Y3925909D01*
X5092331Y3976204D01*
X5207546Y4062454D01*
X5293796Y4177669D01*
X5344091Y4312517D01*
X5350500Y4372127D01*
X5350499Y4734220D01*
X5370183Y4801258D01*
X5386813Y4821895D01*
X6980972Y6416054D01*
X7042295Y6449538D01*
X7111987Y6444554D01*
X7167920Y6402682D01*
X7192337Y6337218D01*
X7184835Y6285039D01*
X7155908Y6207483D01*
X7149501Y6147884D01*
X7149500Y6147865D01*
X7149500Y4352130D01*
X7149501Y4352124D01*
X7155908Y4292517D01*
X7206202Y4157672D01*
X7206206Y4157665D01*
X7292452Y4042456D01*
X7292455Y4042453D01*
X7407664Y3956207D01*
X7407671Y3956203D01*
X7437802Y3944965D01*
X7542517Y3905909D01*
X7602127Y3899500D01*
X7725500Y3899501D01*
X7792539Y3879817D01*
X7838294Y3827013D01*
X7849500Y3775501D01*
X7849500Y3099500D01*
X7829815Y3032461D01*
X7777011Y2986706D01*
X7725501Y2975500D01*
X7552130Y2975500D01*
X7552123Y2975499D01*
X7492516Y2969092D01*
X7357671Y2918798D01*
X7357664Y2918794D01*
X7242455Y2832548D01*
X7242452Y2832545D01*
X7156206Y2717336D01*
X7156202Y2717329D01*
X7105908Y2582483D01*
X7099501Y2522884D01*
X7099500Y2522865D01*
X7099500Y727130D01*
X7099501Y727124D01*
X7105908Y667517D01*
X7156202Y532672D01*
X7156206Y532665D01*
X7242452Y417456D01*
X7242455Y417453D01*
X7357664Y331207D01*
X7357671Y331203D01*
X7492517Y280909D01*
X7492516Y280909D01*
X7499444Y280165D01*
X7552127Y274500D01*
X9347872Y274501D01*
X9407483Y280909D01*
X9542331Y331204D01*
X9657546Y417454D01*
X9743796Y532669D01*
X9792810Y664084D01*
X9834681Y720016D01*
X9900145Y744434D01*
X9968418Y729583D01*
X9996673Y708431D01*
X10110213Y594891D01*
X10282179Y469952D01*
X10282181Y469951D01*
X10282184Y469949D01*
X10471588Y373443D01*
X10673757Y307754D01*
X10883713Y274500D01*
X10883714Y274500D01*
X11096286Y274500D01*
X11096287Y274500D01*
X11306243Y307754D01*
X11508412Y373443D01*
X11697816Y469949D01*
X11784138Y532665D01*
X11869786Y594891D01*
X11869788Y594894D01*
X11869792Y594896D01*
X12020104Y745208D01*
X12020106Y745212D01*
X12020109Y745214D01*
X12145048Y917180D01*
X12145050Y917183D01*
X12145051Y917184D01*
X12149512Y925942D01*
X12197483Y976738D01*
X12265303Y993536D01*
X12331440Y971002D01*
X12370483Y925946D01*
X12374948Y917183D01*
X12499889Y745214D01*
X12650212Y594891D01*
X12822178Y469952D01*
X12822180Y469951D01*
X12822183Y469949D01*
X13011587Y373443D01*
X13213756Y307754D01*
X13423712Y274500D01*
X13423713Y274500D01*
X13636285Y274500D01*
X13636286Y274500D01*
X13846242Y307754D01*
X14048411Y373443D01*
X14237815Y469949D01*
X14324137Y532665D01*
X14409785Y594891D01*
X14409787Y594894D01*
X14409791Y594896D01*
X14560103Y745208D01*
X14560105Y745212D01*
X14560108Y745214D01*
X14685047Y917179D01*
X14685187Y917453D01*
X14689512Y925944D01*
X14737483Y976740D01*
X14805303Y993538D01*
X14871439Y971004D01*
X14910483Y925948D01*
X14914949Y917183D01*
X15039890Y745214D01*
X15190213Y594891D01*
X15362179Y469952D01*
X15362181Y469951D01*
X15362184Y469949D01*
X15551588Y373443D01*
X15753757Y307754D01*
X15963713Y274500D01*
X15963714Y274500D01*
X16176286Y274500D01*
X16176287Y274500D01*
X16386243Y307754D01*
X16588412Y373443D01*
X16777816Y469949D01*
X16864138Y532665D01*
X16949786Y594891D01*
X16949788Y594894D01*
X16949792Y594896D01*
X17100104Y745208D01*
X17100106Y745212D01*
X17100109Y745214D01*
X17225048Y917180D01*
X17225050Y917183D01*
X17225051Y917184D01*
X17229514Y925946D01*
X17277488Y976741D01*
X17345308Y993537D01*
X17411444Y971001D01*
X17450484Y925946D01*
X17453651Y919731D01*
X17454951Y917180D01*
X17579890Y745214D01*
X17730213Y594891D01*
X17902179Y469952D01*
X17902181Y469951D01*
X17902184Y469949D01*
X18091588Y373443D01*
X18293757Y307754D01*
X18503713Y274500D01*
X18503714Y274500D01*
X18716286Y274500D01*
X18716287Y274500D01*
X18926243Y307754D01*
X19128412Y373443D01*
X19317816Y469949D01*
X19404138Y532665D01*
X19489786Y594891D01*
X19489788Y594894D01*
X19489792Y594896D01*
X19640104Y745208D01*
X19640106Y745212D01*
X19640109Y745214D01*
X19765048Y917180D01*
X19765050Y917183D01*
X19765051Y917184D01*
X19769514Y925946D01*
X19817488Y976741D01*
X19885308Y993537D01*
X19951444Y971001D01*
X19990484Y925946D01*
X19993651Y919731D01*
X19994951Y917180D01*
X20119890Y745214D01*
X20270213Y594891D01*
X20442179Y469952D01*
X20442181Y469951D01*
X20442184Y469949D01*
X20631588Y373443D01*
X20833757Y307754D01*
X21043713Y274500D01*
X21043714Y274500D01*
X21256286Y274500D01*
X21256287Y274500D01*
X21466243Y307754D01*
X21668412Y373443D01*
X21857816Y469949D01*
X21944138Y532665D01*
X22029786Y594891D01*
X22029788Y594894D01*
X22029792Y594896D01*
X22180104Y745208D01*
X22180106Y745212D01*
X22180109Y745214D01*
X22305048Y917180D01*
X22305050Y917183D01*
X22305051Y917184D01*
X22309514Y925946D01*
X22357488Y976741D01*
X22425308Y993537D01*
X22491444Y971001D01*
X22530484Y925946D01*
X22533651Y919731D01*
X22534951Y917180D01*
X22659890Y745214D01*
X22810213Y594891D01*
X22982179Y469952D01*
X22982181Y469951D01*
X22982184Y469949D01*
X23171588Y373443D01*
X23373757Y307754D01*
X23583713Y274500D01*
X23583714Y274500D01*
X23796286Y274500D01*
X23796287Y274500D01*
X24006243Y307754D01*
X24208412Y373443D01*
X24397816Y469949D01*
X24484138Y532665D01*
X24569786Y594891D01*
X24569788Y594894D01*
X24569792Y594896D01*
X24720104Y745208D01*
X24720106Y745212D01*
X24720109Y745214D01*
X24845048Y917180D01*
X24845050Y917183D01*
X24845051Y917184D01*
X24849795Y926496D01*
X24897767Y977292D01*
X24965587Y994089D01*
X25031723Y971554D01*
X25070766Y926497D01*
X25075374Y917453D01*
X25114729Y863284D01*
X25400722Y1149278D01*
X25754276Y795724D01*
X25468283Y509731D01*
X25468283Y509730D01*
X25522450Y470376D01*
X25711783Y373905D01*
X25913871Y308243D01*
X26123755Y275000D01*
X26336247Y275000D01*
X26546128Y308243D01*
X26546131Y308243D01*
X26748218Y373905D01*
X26937558Y470380D01*
X27014552Y526318D01*
X27080358Y549798D01*
X27087437Y550000D01*
X27375000Y550000D01*
X27425000Y600000D01*
X27425000Y796993D01*
X27444685Y864032D01*
X27497489Y909787D01*
X27566647Y919731D01*
X27630203Y890706D01*
X27649316Y869881D01*
X27702272Y796993D01*
X27739896Y745208D01*
X27890213Y594891D01*
X28062179Y469952D01*
X28062181Y469951D01*
X28062184Y469949D01*
X28251588Y373443D01*
X28453757Y307754D01*
X28663713Y274500D01*
X28663714Y274500D01*
X28876286Y274500D01*
X28876287Y274500D01*
X29086243Y307754D01*
X29288412Y373443D01*
X29477816Y469949D01*
X29564138Y532665D01*
X29649786Y594891D01*
X29649788Y594894D01*
X29649792Y594896D01*
X29800104Y745208D01*
X29800106Y745212D01*
X29800109Y745214D01*
X29925048Y917180D01*
X29925050Y917183D01*
X29925051Y917184D01*
X30021557Y1106588D01*
X30087246Y1308757D01*
X30120500Y1518713D01*
X30120500Y1731287D01*
X30087246Y1941243D01*
X30021557Y2143412D01*
X29925051Y2332816D01*
X29925049Y2332819D01*
X29925048Y2332821D01*
X29797241Y2508734D01*
X29798108Y2509365D01*
X29771641Y2568419D01*
X29770500Y2585200D01*
X29770500Y4239242D01*
X29790185Y4306281D01*
X29806819Y4326923D01*
X29824912Y4345016D01*
X29850104Y4370208D01*
X29850106Y4370212D01*
X29850109Y4370214D01*
X29975048Y4542180D01*
X29975050Y4542183D01*
X29975051Y4542184D01*
X30071557Y4731588D01*
X30137246Y4933757D01*
X30170500Y5143713D01*
X30170500Y5356287D01*
X30137246Y5566243D01*
X30071557Y5768412D01*
X29975051Y5957816D01*
X29850104Y6129792D01*
X29848678Y6131218D01*
X29844741Y6136551D01*
X29834199Y6165399D01*
X29821641Y6193419D01*
X29821110Y6201216D01*
X29820760Y6202176D01*
X29820979Y6203153D01*
X29820500Y6210200D01*
X29820500Y6325325D01*
X29820501Y6325346D01*
X29820501Y6528543D01*
X29820500Y6528545D01*
X29815454Y6553912D01*
X29782052Y6721835D01*
X29706632Y6903914D01*
X29706631Y6903915D01*
X29706628Y6903921D01*
X29597140Y7067781D01*
X29597137Y7067785D01*
X27086819Y9578103D01*
X27053334Y9639426D01*
X27050500Y9665784D01*
X27050500Y12848544D01*
X27012052Y13041830D01*
X27012051Y13041831D01*
X27012051Y13041835D01*
X26943952Y13206243D01*
X26936635Y13223908D01*
X26936628Y13223921D01*
X26827139Y13387782D01*
X26827136Y13387786D01*
X26687785Y13527137D01*
X26687781Y13527140D01*
X26523920Y13636629D01*
X26523907Y13636636D01*
X26364909Y13702494D01*
X26310505Y13746335D01*
X26288440Y13812629D01*
X26305719Y13880328D01*
X26324676Y13904732D01*
X27246724Y14826780D01*
X27308045Y14860263D01*
X27310063Y14860684D01*
X27408497Y14880263D01*
X27554179Y14940606D01*
X27685289Y15028211D01*
X27796789Y15139711D01*
X27830427Y15190054D01*
X27884038Y15234859D01*
X27953363Y15243566D01*
X28016391Y15213412D01*
G37*
%TD.AperFunction*%
%TA.AperFunction,Conductor*%
G36*
X27395271Y4488283D02*
G01*
X27395271Y4488284D01*
X27434624Y4542447D01*
X27439231Y4551489D01*
X27441948Y4554367D01*
X27442918Y4558205D01*
X27465742Y4579564D01*
X27487202Y4602288D01*
X27491044Y4603240D01*
X27493934Y4605944D01*
X27524678Y4611572D01*
X27555022Y4619088D01*
X27558768Y4617812D01*
X27562662Y4618524D01*
X27591571Y4606635D01*
X27621158Y4596554D01*
X27624675Y4593021D01*
X27627281Y4591949D01*
X27634178Y4583475D01*
X27651396Y4566178D01*
X27656310Y4559138D01*
X27664949Y4542184D01*
X27746514Y4429918D01*
X27747177Y4428969D01*
X27757927Y4396938D01*
X27769298Y4365071D01*
X27769360Y4362876D01*
X27769409Y4362731D01*
X27769369Y4362574D01*
X27769500Y4357992D01*
X27769500Y2585200D01*
X27749815Y2518161D01*
X27740506Y2505635D01*
X27614950Y2332819D01*
X27610201Y2323499D01*
X27562223Y2272706D01*
X27494402Y2255914D01*
X27428268Y2278455D01*
X27389232Y2323509D01*
X27384625Y2332551D01*
X27345271Y2386718D01*
X27345270Y2386718D01*
X26712963Y1754410D01*
X26695926Y1817993D01*
X26630100Y1932007D01*
X26537008Y2025099D01*
X26422994Y2090925D01*
X26359410Y2107963D01*
X26991717Y2740272D01*
X26937551Y2779625D01*
X26748218Y2876096D01*
X26546130Y2941758D01*
X26336247Y2975000D01*
X26123755Y2975000D01*
X25913873Y2941758D01*
X25913870Y2941758D01*
X25711783Y2876096D01*
X25522440Y2779620D01*
X25468283Y2740273D01*
X25468283Y2740272D01*
X26100592Y2107963D01*
X26037008Y2090925D01*
X25922994Y2025099D01*
X25829902Y1932007D01*
X25764076Y1817993D01*
X25747038Y1754409D01*
X25114729Y2386718D01*
X25114728Y2386718D01*
X25074319Y2331098D01*
X25018989Y2288431D01*
X24949376Y2282452D01*
X24887581Y2315057D01*
X24853223Y2375895D01*
X24850000Y2403982D01*
X24850000Y4439887D01*
X24855181Y4457535D01*
X24855353Y4475927D01*
X24868116Y4501585D01*
X24869685Y4506926D01*
X24870313Y4507894D01*
X24871937Y4510371D01*
X24895051Y4542184D01*
X24902875Y4557541D01*
X24906594Y4563210D01*
X24928248Y4581624D01*
X24947767Y4602292D01*
X24954520Y4603965D01*
X24959821Y4608472D01*
X24987995Y4612256D01*
X25015587Y4619089D01*
X25022172Y4616845D01*
X25029069Y4617771D01*
X25054814Y4605723D01*
X25081723Y4596554D01*
X25086713Y4590795D01*
X25092352Y4588156D01*
X25101259Y4574009D01*
X25120766Y4551497D01*
X25125374Y4542453D01*
X25164729Y4488284D01*
X25797038Y5120592D01*
X25814076Y5057007D01*
X25879902Y4942993D01*
X25972994Y4849901D01*
X26087008Y4784075D01*
X26150591Y4767038D01*
X25518283Y4134731D01*
X25518283Y4134730D01*
X25572450Y4095376D01*
X25761783Y3998905D01*
X25963871Y3933243D01*
X26173755Y3900000D01*
X26386247Y3900000D01*
X26596128Y3933243D01*
X26596131Y3933243D01*
X26798218Y3998905D01*
X26987555Y4095378D01*
X27041717Y4134730D01*
X27041718Y4134730D01*
X26409409Y4767038D01*
X26472994Y4784075D01*
X26587008Y4849901D01*
X26680100Y4942993D01*
X26745926Y5057007D01*
X26762963Y5120592D01*
X27395271Y4488283D01*
G37*
%TD.AperFunction*%
%TA.AperFunction,Conductor*%
G36*
X24968834Y12446374D02*
G01*
X25024767Y12404502D01*
X25049184Y12339038D01*
X25049500Y12330192D01*
X25049500Y9101457D01*
X25059835Y9049502D01*
X25059835Y9049501D01*
X25064647Y9025310D01*
X25077737Y8959501D01*
X25087946Y8908172D01*
X25087949Y8908163D01*
X25163364Y8726093D01*
X25163371Y8726080D01*
X25272859Y8562220D01*
X25272860Y8562219D01*
X25272861Y8562218D01*
X25412218Y8422861D01*
X25412219Y8422861D01*
X25419286Y8415794D01*
X25419285Y8415794D01*
X25419289Y8415791D01*
X27388681Y6446399D01*
X27422166Y6385076D01*
X27425000Y6358718D01*
X27425000Y6046666D01*
X27415614Y6032061D01*
X26762963Y5379410D01*
X26745926Y5442993D01*
X26680100Y5557007D01*
X26587008Y5650099D01*
X26472994Y5715925D01*
X26409410Y5732963D01*
X27041717Y6365272D01*
X26987551Y6404625D01*
X26798218Y6501096D01*
X26596130Y6566758D01*
X26386247Y6600000D01*
X26173755Y6600000D01*
X25963873Y6566758D01*
X25963870Y6566758D01*
X25761783Y6501096D01*
X25572440Y6404620D01*
X25518283Y6365273D01*
X25518283Y6365272D01*
X26150592Y5732963D01*
X26087008Y5715925D01*
X25972994Y5650099D01*
X25879902Y5557007D01*
X25814076Y5442993D01*
X25797038Y5379409D01*
X25164729Y6011718D01*
X25164728Y6011718D01*
X25125381Y5957560D01*
X25120763Y5948497D01*
X25072785Y5897704D01*
X25004964Y5880912D01*
X24938830Y5903453D01*
X24899796Y5948504D01*
X24895050Y5957818D01*
X24770109Y6129787D01*
X24619786Y6280110D01*
X24447820Y6405049D01*
X24258414Y6501556D01*
X24258413Y6501557D01*
X24258412Y6501557D01*
X24056243Y6567246D01*
X24056241Y6567247D01*
X24056240Y6567247D01*
X23889422Y6593668D01*
X23846287Y6600500D01*
X23633713Y6600500D01*
X23594202Y6594243D01*
X23423759Y6567247D01*
X23287818Y6523077D01*
X23217976Y6521082D01*
X23158144Y6557163D01*
X23127316Y6619864D01*
X23125500Y6641008D01*
X23125500Y10654192D01*
X23145185Y10721231D01*
X23161819Y10741873D01*
X24837819Y12417873D01*
X24899142Y12451358D01*
X24968834Y12446374D01*
G37*
%TD.AperFunction*%
%TA.AperFunction,Conductor*%
G36*
X31601256Y23229815D02*
G01*
X31621898Y23213181D01*
X31823181Y23011898D01*
X31856666Y22950575D01*
X31859500Y22924217D01*
X31859500Y22142129D01*
X31859501Y22142123D01*
X31865908Y22082516D01*
X31916202Y21947671D01*
X31916206Y21947664D01*
X32002452Y21832455D01*
X32002455Y21832452D01*
X32117664Y21746206D01*
X32117671Y21746202D01*
X32153728Y21732754D01*
X32252517Y21695908D01*
X32312127Y21689499D01*
X32322685Y21689500D01*
X32389723Y21669820D01*
X32410372Y21653181D01*
X33080591Y20982962D01*
X33017007Y20965924D01*
X32902993Y20900098D01*
X32809901Y20807006D01*
X32744075Y20692992D01*
X32727037Y20629408D01*
X32094728Y21261717D01*
X32094727Y21261717D01*
X32055380Y21207560D01*
X31958904Y21018217D01*
X31893242Y20816130D01*
X31893242Y20816127D01*
X31860000Y20606246D01*
X31860000Y20393753D01*
X31893242Y20183872D01*
X31893242Y20183869D01*
X31958904Y19981782D01*
X32055375Y19792449D01*
X32094728Y19738283D01*
X32727037Y20370591D01*
X32744075Y20307006D01*
X32809901Y20192992D01*
X32902993Y20099900D01*
X33017007Y20034074D01*
X33080590Y20017037D01*
X32448282Y19384730D01*
X32448282Y19384729D01*
X32502449Y19345375D01*
X32511491Y19340768D01*
X32562289Y19292795D01*
X32579086Y19224974D01*
X32556551Y19158839D01*
X32511501Y19119799D01*
X32502181Y19115050D01*
X32330213Y18990110D01*
X32179890Y18839787D01*
X32054951Y18667821D01*
X31958444Y18478415D01*
X31892754Y18276243D01*
X31859500Y18066287D01*
X31859500Y17989808D01*
X31839815Y17922769D01*
X31787011Y17877014D01*
X31717853Y17867070D01*
X31654297Y17896095D01*
X31647819Y17902127D01*
X31394672Y18155274D01*
X31288130Y18226462D01*
X31288126Y18226465D01*
X31288122Y18226467D01*
X31169741Y18275502D01*
X31169738Y18275503D01*
X31166019Y18276242D01*
X31166013Y18276243D01*
X31044070Y18300500D01*
X31044068Y18300500D01*
X23375931Y18300500D01*
X23375929Y18300500D01*
X23253986Y18276243D01*
X23253980Y18276242D01*
X23250260Y18275503D01*
X23250257Y18275502D01*
X23131875Y18226467D01*
X23131866Y18226462D01*
X23025331Y18155277D01*
X23025327Y18155274D01*
X11470710Y6600658D01*
X11409387Y6567173D01*
X11361245Y6567685D01*
X11361055Y6566484D01*
X11189422Y6593668D01*
X11146287Y6600500D01*
X10933713Y6600500D01*
X10890578Y6593668D01*
X10723760Y6567247D01*
X10622672Y6534402D01*
X10581680Y6521082D01*
X10521585Y6501556D01*
X10332179Y6405049D01*
X10160215Y6280111D01*
X10046673Y6166569D01*
X9985350Y6133085D01*
X9915658Y6138069D01*
X9859725Y6179941D01*
X9842810Y6210918D01*
X9793797Y6342329D01*
X9793793Y6342336D01*
X9707547Y6457545D01*
X9707544Y6457548D01*
X9592335Y6543794D01*
X9592328Y6543798D01*
X9457482Y6594092D01*
X9457483Y6594092D01*
X9397883Y6600499D01*
X9397881Y6600500D01*
X9397873Y6600500D01*
X9397864Y6600500D01*
X7602129Y6600500D01*
X7602123Y6600499D01*
X7542517Y6594092D01*
X7464959Y6565165D01*
X7395268Y6560182D01*
X7333945Y6593668D01*
X7300461Y6654992D01*
X7305447Y6724684D01*
X7333944Y6769025D01*
X9627139Y9062219D01*
X14637778Y14072859D01*
X14637782Y14072861D01*
X14777139Y14212218D01*
X14886632Y14376086D01*
X14939961Y14504835D01*
X14962051Y14558164D01*
X15000500Y14751460D01*
X15000500Y14948540D01*
X15000500Y21348541D01*
X15000500Y21348544D01*
X14962052Y21541830D01*
X14962051Y21541831D01*
X14962051Y21541835D01*
X14927491Y21625272D01*
X14886635Y21723908D01*
X14886628Y21723921D01*
X14777139Y21887782D01*
X14777136Y21887786D01*
X14637785Y22027137D01*
X14637781Y22027140D01*
X14473920Y22136629D01*
X14473907Y22136636D01*
X14291839Y22212050D01*
X14291829Y22212053D01*
X14098543Y22250500D01*
X14098541Y22250500D01*
X13901459Y22250500D01*
X13901457Y22250500D01*
X13708170Y22212053D01*
X13708160Y22212050D01*
X13526092Y22136636D01*
X13526079Y22136629D01*
X13362218Y22027140D01*
X13362214Y22027137D01*
X13222863Y21887786D01*
X13222860Y21887782D01*
X13113371Y21723921D01*
X13113364Y21723908D01*
X13037950Y21541840D01*
X13037947Y21541830D01*
X12999500Y21348544D01*
X12999500Y15315782D01*
X12979815Y15248743D01*
X12963181Y15228101D01*
X8212219Y10477139D01*
X4391897Y6656819D01*
X4330574Y6623334D01*
X4304216Y6620500D01*
X3102129Y6620500D01*
X3102123Y6620499D01*
X3042516Y6614092D01*
X2907671Y6563798D01*
X2907664Y6563794D01*
X2792455Y6477548D01*
X2792452Y6477545D01*
X2706206Y6362336D01*
X2706202Y6362329D01*
X2655908Y6227483D01*
X2650797Y6179941D01*
X2649501Y6167877D01*
X2649500Y6167865D01*
X2649500Y6157310D01*
X2629815Y6090271D01*
X2613181Y6069629D01*
X1942962Y5399410D01*
X1925925Y5462993D01*
X1860099Y5577007D01*
X1767007Y5670099D01*
X1652993Y5735925D01*
X1589407Y5752964D01*
X2221716Y6385272D01*
X2167550Y6424625D01*
X1978217Y6521096D01*
X1776129Y6586758D01*
X1566246Y6620000D01*
X1353754Y6620000D01*
X1143872Y6586758D01*
X1143869Y6586758D01*
X941782Y6521096D01*
X752442Y6424621D01*
X697385Y6384620D01*
X631578Y6361140D01*
X563525Y6376966D01*
X514830Y6427072D01*
X500500Y6484938D01*
X500500Y9134444D01*
X520185Y9201483D01*
X572989Y9247238D01*
X642147Y9257182D01*
X697385Y9234762D01*
X743191Y9201483D01*
X752184Y9194949D01*
X941588Y9098443D01*
X1143757Y9032754D01*
X1353713Y8999500D01*
X1353714Y8999500D01*
X1566286Y8999500D01*
X1566287Y8999500D01*
X1776243Y9032754D01*
X1978412Y9098443D01*
X2167816Y9194949D01*
X2259386Y9261478D01*
X2339786Y9319891D01*
X2339788Y9319894D01*
X2339792Y9319896D01*
X2490104Y9470208D01*
X2490106Y9470212D01*
X2490109Y9470214D01*
X2615048Y9642180D01*
X2615047Y9642180D01*
X2615051Y9642184D01*
X2619514Y9650946D01*
X2667488Y9701741D01*
X2735308Y9718537D01*
X2801444Y9696001D01*
X2840486Y9650944D01*
X2844951Y9642180D01*
X2969890Y9470214D01*
X3120213Y9319891D01*
X3292179Y9194952D01*
X3292181Y9194951D01*
X3292184Y9194949D01*
X3481588Y9098443D01*
X3683757Y9032754D01*
X3893713Y8999500D01*
X3893714Y8999500D01*
X4106286Y8999500D01*
X4106287Y8999500D01*
X4316243Y9032754D01*
X4518412Y9098443D01*
X4707816Y9194949D01*
X4799386Y9261478D01*
X4879786Y9319891D01*
X4879788Y9319894D01*
X4879792Y9319896D01*
X5030104Y9470208D01*
X5030106Y9470212D01*
X5030109Y9470214D01*
X5155048Y9642180D01*
X5155047Y9642180D01*
X5155051Y9642184D01*
X5251557Y9831588D01*
X5317246Y10033757D01*
X5350500Y10243713D01*
X5350500Y10456287D01*
X5317246Y10666243D01*
X5251557Y10868412D01*
X5155051Y11057816D01*
X5155049Y11057819D01*
X5155048Y11057821D01*
X5030109Y11229787D01*
X4879786Y11380110D01*
X4707820Y11505049D01*
X4707115Y11505409D01*
X4699054Y11509515D01*
X4648259Y11557488D01*
X4631463Y11625308D01*
X4653999Y11691444D01*
X4699054Y11730485D01*
X4707816Y11734949D01*
X4729789Y11750914D01*
X4879786Y11859891D01*
X4879788Y11859894D01*
X4879792Y11859896D01*
X5030104Y12010208D01*
X5030106Y12010212D01*
X5030109Y12010214D01*
X5155048Y12182180D01*
X5155047Y12182180D01*
X5155051Y12182184D01*
X5251557Y12371588D01*
X5317246Y12573757D01*
X5350500Y12783713D01*
X5350500Y12996287D01*
X5317246Y13206243D01*
X5251557Y13408412D01*
X5155051Y13597816D01*
X5155049Y13597819D01*
X5155048Y13597821D01*
X5030109Y13769787D01*
X4879786Y13920110D01*
X4707820Y14045049D01*
X4707115Y14045409D01*
X4699054Y14049515D01*
X4648259Y14097488D01*
X4631463Y14165308D01*
X4653999Y14231444D01*
X4699054Y14270485D01*
X4707816Y14274949D01*
X4729789Y14290914D01*
X4879786Y14399891D01*
X4879788Y14399894D01*
X4879792Y14399896D01*
X5030104Y14550208D01*
X5030106Y14550212D01*
X5030109Y14550214D01*
X5155048Y14722180D01*
X5155047Y14722180D01*
X5155051Y14722184D01*
X5251557Y14911588D01*
X5317246Y15113757D01*
X5350500Y15323713D01*
X5350500Y15536287D01*
X5317246Y15746243D01*
X5251557Y15948412D01*
X5155051Y16137816D01*
X5155049Y16137819D01*
X5155048Y16137821D01*
X5030109Y16309787D01*
X4879786Y16460110D01*
X4707820Y16585049D01*
X4707115Y16585409D01*
X4699054Y16589515D01*
X4648259Y16637488D01*
X4631463Y16705308D01*
X4653999Y16771444D01*
X4699054Y16810485D01*
X4707816Y16814949D01*
X4754879Y16849142D01*
X4879786Y16939891D01*
X4879788Y16939894D01*
X4879792Y16939896D01*
X5030104Y17090208D01*
X5030106Y17090212D01*
X5030109Y17090214D01*
X5155048Y17262180D01*
X5155047Y17262180D01*
X5155051Y17262184D01*
X5251557Y17451588D01*
X5317246Y17653757D01*
X5350500Y17863713D01*
X5350500Y18076287D01*
X5317246Y18286243D01*
X5251557Y18488412D01*
X5155051Y18677816D01*
X5155049Y18677819D01*
X5155048Y18677821D01*
X5030109Y18849787D01*
X4879786Y19000110D01*
X4707817Y19125051D01*
X4698504Y19129796D01*
X4647707Y19177770D01*
X4630912Y19245591D01*
X4653449Y19311726D01*
X4698507Y19350768D01*
X4707555Y19355378D01*
X4761716Y19394730D01*
X4761717Y19394730D01*
X4129408Y20027038D01*
X4192993Y20044075D01*
X4307007Y20109901D01*
X4400099Y20202993D01*
X4465925Y20317007D01*
X4482962Y20380592D01*
X5115270Y19748283D01*
X5115270Y19748284D01*
X5154622Y19802446D01*
X5251095Y19991783D01*
X5316757Y20193870D01*
X5316757Y20193873D01*
X5350000Y20403754D01*
X5350000Y20616247D01*
X5316757Y20826128D01*
X5316757Y20826131D01*
X5251095Y21028218D01*
X5154624Y21217551D01*
X5115270Y21271718D01*
X5115269Y21271718D01*
X4482962Y20639410D01*
X4465925Y20702993D01*
X4400099Y20817007D01*
X4307007Y20910099D01*
X4192993Y20975925D01*
X4129409Y20992963D01*
X4799627Y21663182D01*
X4860950Y21696667D01*
X4887307Y21699501D01*
X4897872Y21699501D01*
X4957483Y21705909D01*
X5092331Y21756204D01*
X5207546Y21842454D01*
X5293796Y21957669D01*
X5344091Y22092517D01*
X5350500Y22152127D01*
X5350499Y22934219D01*
X5370183Y23001257D01*
X5386818Y23021899D01*
X5578101Y23213181D01*
X5639424Y23246666D01*
X5665782Y23249500D01*
X31534217Y23249500D01*
X31601256Y23229815D01*
G37*
%TD.AperFunction*%
%TA.AperFunction,Conductor*%
G36*
X35284075Y20307006D02*
G01*
X35349901Y20192992D01*
X35442993Y20099900D01*
X35557007Y20034074D01*
X35620589Y20017037D01*
X34988282Y19384730D01*
X34988282Y19384729D01*
X35042452Y19345373D01*
X35042451Y19345373D01*
X35051495Y19340765D01*
X35102292Y19292791D01*
X35119087Y19224970D01*
X35096550Y19158835D01*
X35051499Y19119797D01*
X35042182Y19115050D01*
X34870213Y18990109D01*
X34719890Y18839786D01*
X34594948Y18667816D01*
X34590482Y18659050D01*
X34542506Y18608257D01*
X34474684Y18591464D01*
X34408550Y18614004D01*
X34369516Y18659054D01*
X34365050Y18667818D01*
X34240109Y18839787D01*
X34089786Y18990110D01*
X33917817Y19115051D01*
X33908501Y19119798D01*
X33857707Y19167773D01*
X33840913Y19235595D01*
X33863452Y19301729D01*
X33908511Y19340769D01*
X33917553Y19345376D01*
X33971716Y19384729D01*
X33971717Y19384729D01*
X33339408Y20017037D01*
X33402993Y20034074D01*
X33517007Y20099900D01*
X33610099Y20192992D01*
X33675925Y20307006D01*
X33692962Y20370591D01*
X34325270Y19738282D01*
X34325270Y19738283D01*
X34364622Y19792445D01*
X34369514Y19802045D01*
X34417488Y19852842D01*
X34485308Y19869638D01*
X34551444Y19847102D01*
X34590486Y19802045D01*
X34595375Y19792449D01*
X34634728Y19738283D01*
X35267037Y20370591D01*
X35284075Y20307006D01*
G37*
%TD.AperFunction*%
%TA.AperFunction,Conductor*%
G36*
X3534075Y20317007D02*
G01*
X3599901Y20202993D01*
X3692993Y20109901D01*
X3807007Y20044075D01*
X3870590Y20027038D01*
X3238282Y19394731D01*
X3238282Y19394730D01*
X3292452Y19355374D01*
X3292451Y19355374D01*
X3301495Y19350766D01*
X3352292Y19302792D01*
X3369087Y19234971D01*
X3346550Y19168836D01*
X3301499Y19129798D01*
X3292182Y19125051D01*
X3120213Y19000110D01*
X2969890Y18849787D01*
X2844949Y18677818D01*
X2840484Y18669054D01*
X2792509Y18618258D01*
X2724688Y18601464D01*
X2658553Y18624002D01*
X2619516Y18669054D01*
X2615050Y18677818D01*
X2490109Y18849787D01*
X2339786Y19000110D01*
X2167817Y19125051D01*
X2158504Y19129796D01*
X2107707Y19177770D01*
X2090912Y19245591D01*
X2113449Y19311726D01*
X2158507Y19350768D01*
X2167555Y19355378D01*
X2221716Y19394730D01*
X2221717Y19394730D01*
X1589409Y20027038D01*
X1652993Y20044075D01*
X1767007Y20109901D01*
X1860099Y20202993D01*
X1925925Y20317007D01*
X1942962Y20380591D01*
X2575270Y19748283D01*
X2575270Y19748284D01*
X2614622Y19802446D01*
X2619514Y19812046D01*
X2667488Y19862843D01*
X2735308Y19879639D01*
X2801444Y19857103D01*
X2840486Y19812046D01*
X2845375Y19802450D01*
X2884728Y19748284D01*
X3517037Y20380592D01*
X3534075Y20317007D01*
G37*
%TD.AperFunction*%
%TA.AperFunction,Conductor*%
G36*
X34856839Y22019814D02*
G01*
X34869365Y22010506D01*
X35042179Y21884951D01*
X35042181Y21884950D01*
X35042184Y21884948D01*
X35051493Y21880205D01*
X35102290Y21832233D01*
X35119087Y21764412D01*
X35096552Y21698277D01*
X35051505Y21659239D01*
X35042446Y21654623D01*
X35042440Y21654619D01*
X34988282Y21615272D01*
X34988282Y21615271D01*
X35620591Y20982962D01*
X35557007Y20965924D01*
X35442993Y20900098D01*
X35349901Y20807006D01*
X35284075Y20692992D01*
X35267037Y20629408D01*
X34634728Y21261717D01*
X34634727Y21261717D01*
X34595380Y21207559D01*
X34590483Y21197948D01*
X34542506Y21147154D01*
X34474684Y21130361D01*
X34408550Y21152901D01*
X34369516Y21197951D01*
X34364626Y21207547D01*
X34325270Y21261717D01*
X34325269Y21261717D01*
X33692962Y20629409D01*
X33675925Y20692992D01*
X33610099Y20807006D01*
X33517007Y20900098D01*
X33402993Y20965924D01*
X33339409Y20982962D01*
X34009627Y21653181D01*
X34070950Y21686666D01*
X34097307Y21689500D01*
X34107872Y21689500D01*
X34167483Y21695908D01*
X34302331Y21746203D01*
X34417546Y21832453D01*
X34503796Y21947668D01*
X34507960Y21958834D01*
X34521228Y21976558D01*
X34530428Y21996702D01*
X34541758Y22003984D01*
X34549829Y22014765D01*
X34570577Y22022504D01*
X34589206Y22034476D01*
X34611121Y22037628D01*
X34615293Y22039183D01*
X34624141Y22039499D01*
X34789800Y22039499D01*
X34856839Y22019814D01*
G37*
%TD.AperFunction*%
%TA.AperFunction,Conductor*%
G36*
X2656628Y22019814D02*
G01*
X2702383Y21967010D01*
X2705761Y21958855D01*
X2706203Y21957672D01*
X2706206Y21957664D01*
X2792452Y21842456D01*
X2792455Y21842453D01*
X2907664Y21756207D01*
X2907671Y21756203D01*
X2934475Y21746206D01*
X3042517Y21705909D01*
X3102127Y21699500D01*
X3112685Y21699501D01*
X3179723Y21679821D01*
X3200372Y21663182D01*
X3870591Y20992963D01*
X3807007Y20975925D01*
X3692993Y20910099D01*
X3599901Y20817007D01*
X3534075Y20702993D01*
X3517037Y20639409D01*
X2884728Y21271718D01*
X2884727Y21271718D01*
X2845380Y21217560D01*
X2840483Y21207949D01*
X2792506Y21157155D01*
X2724684Y21140362D01*
X2658550Y21162902D01*
X2619516Y21207952D01*
X2614626Y21217548D01*
X2575270Y21271718D01*
X2575269Y21271718D01*
X1942962Y20639410D01*
X1925925Y20702993D01*
X1860099Y20817007D01*
X1767007Y20910099D01*
X1652993Y20975925D01*
X1589407Y20992964D01*
X2221716Y21625272D01*
X2167547Y21664627D01*
X2167547Y21664628D01*
X2158500Y21669237D01*
X2107706Y21717212D01*
X2090912Y21785034D01*
X2113451Y21851168D01*
X2143268Y21881009D01*
X2150549Y21886152D01*
X2167816Y21894949D01*
X2334825Y22016288D01*
X2335534Y22016788D01*
X2367856Y22027834D01*
X2399986Y22039297D01*
X2401533Y22039342D01*
X2401650Y22039381D01*
X2401782Y22039349D01*
X2407064Y22039499D01*
X2589589Y22039499D01*
X2656628Y22019814D01*
G37*
%TD.AperFunction*%
%TA.AperFunction,Conductor*%
G36*
X2613181Y27330372D02*
G01*
X2646666Y27269049D01*
X2649500Y27242700D01*
X2649500Y27232135D01*
X2649501Y27232124D01*
X2655908Y27172517D01*
X2706202Y27037672D01*
X2706206Y27037665D01*
X2792452Y26922456D01*
X2792455Y26922453D01*
X2907664Y26836207D01*
X2907671Y26836203D01*
X3042517Y26785909D01*
X3042516Y26785909D01*
X3049444Y26785165D01*
X3102127Y26779500D01*
X4897872Y26779501D01*
X4957483Y26785909D01*
X5092331Y26836204D01*
X5207546Y26922454D01*
X5293796Y27037669D01*
X5293796Y27037672D01*
X5293799Y27037675D01*
X5294233Y27038838D01*
X5294976Y27039832D01*
X5298047Y27045454D01*
X5298855Y27045013D01*
X5336106Y27094770D01*
X5401571Y27119184D01*
X5410413Y27119500D01*
X31795859Y27119500D01*
X31862898Y27099815D01*
X31908653Y27047011D01*
X31912030Y27038860D01*
X31916204Y27027669D01*
X31916205Y27027668D01*
X31916206Y27027665D01*
X32002452Y26912456D01*
X32002455Y26912453D01*
X32117664Y26826207D01*
X32117671Y26826203D01*
X32252517Y26775909D01*
X32252516Y26775909D01*
X32259444Y26775165D01*
X32312127Y26769500D01*
X34107872Y26769501D01*
X34167483Y26775909D01*
X34302331Y26826204D01*
X34417546Y26912454D01*
X34503796Y27027669D01*
X34554091Y27162517D01*
X34560500Y27222127D01*
X34560499Y27232688D01*
X34580179Y27299725D01*
X34596818Y27320374D01*
X35267037Y27990592D01*
X35284075Y27927007D01*
X35349901Y27812993D01*
X35442993Y27719901D01*
X35557007Y27654075D01*
X35620589Y27637038D01*
X34988282Y27004731D01*
X34988282Y27004730D01*
X35042449Y26965376D01*
X35231782Y26868905D01*
X35433870Y26803243D01*
X35643754Y26770000D01*
X35856246Y26770000D01*
X36066127Y26803243D01*
X36066130Y26803243D01*
X36268217Y26868905D01*
X36457557Y26965380D01*
X36552615Y27034442D01*
X36618421Y27057922D01*
X36686475Y27042096D01*
X36735170Y26991991D01*
X36749500Y26934124D01*
X36749500Y24226494D01*
X36729815Y24159455D01*
X36677011Y24113700D01*
X36607853Y24103756D01*
X36552615Y24126176D01*
X36457820Y24195048D01*
X36268414Y24291555D01*
X36268413Y24291556D01*
X36268412Y24291556D01*
X36066243Y24357245D01*
X36066241Y24357246D01*
X36066240Y24357246D01*
X35904957Y24382791D01*
X35856287Y24390499D01*
X35643713Y24390499D01*
X35595042Y24382791D01*
X35433760Y24357246D01*
X35231585Y24291555D01*
X35042179Y24195048D01*
X34866266Y24067240D01*
X34865635Y24068108D01*
X34846612Y24059582D01*
X34824735Y24045522D01*
X34810758Y24043513D01*
X34806581Y24041640D01*
X34789800Y24040499D01*
X34624141Y24040499D01*
X34557102Y24060184D01*
X34511347Y24112988D01*
X34507969Y24121140D01*
X34503796Y24132330D01*
X34503793Y24132334D01*
X34503793Y24132335D01*
X34417547Y24247544D01*
X34417544Y24247547D01*
X34302335Y24333793D01*
X34302328Y24333797D01*
X34167482Y24384091D01*
X34167483Y24384091D01*
X34107883Y24390498D01*
X34107881Y24390499D01*
X34107873Y24390499D01*
X34107865Y24390499D01*
X33325782Y24390499D01*
X33258743Y24410184D01*
X33238101Y24426818D01*
X32781478Y24883441D01*
X32781458Y24883463D01*
X32637784Y25027137D01*
X32637780Y25027140D01*
X32473919Y25136629D01*
X32473910Y25136634D01*
X32401314Y25166704D01*
X32345164Y25189962D01*
X32291835Y25212051D01*
X32291831Y25212052D01*
X32291827Y25212054D01*
X32195187Y25231276D01*
X32098543Y25250500D01*
X32098540Y25250500D01*
X5101459Y25250500D01*
X5101455Y25250500D01*
X5004812Y25231276D01*
X4908167Y25212053D01*
X4908161Y25212051D01*
X4854834Y25189963D01*
X4854834Y25189962D01*
X4809315Y25171108D01*
X4726089Y25136634D01*
X4726079Y25136629D01*
X4562219Y25027141D01*
X4492540Y24957462D01*
X4422861Y24887782D01*
X4422858Y24887779D01*
X3971897Y24436819D01*
X3910574Y24403334D01*
X3884216Y24400500D01*
X3102129Y24400500D01*
X3102123Y24400499D01*
X3042516Y24394092D01*
X2907671Y24343798D01*
X2907664Y24343794D01*
X2792455Y24257548D01*
X2792452Y24257545D01*
X2706206Y24142336D01*
X2706203Y24142331D01*
X2698311Y24121168D01*
X2685040Y24103441D01*
X2675841Y24083296D01*
X2664510Y24076015D01*
X2656440Y24065233D01*
X2635691Y24057495D01*
X2617063Y24045522D01*
X2595147Y24042371D01*
X2590976Y24040815D01*
X2582128Y24040499D01*
X2430759Y24040499D01*
X2363720Y24060184D01*
X2343078Y24076818D01*
X2339786Y24080110D01*
X2167820Y24205049D01*
X1978414Y24301556D01*
X1978413Y24301557D01*
X1978412Y24301557D01*
X1776243Y24367246D01*
X1776241Y24367247D01*
X1776240Y24367247D01*
X1614957Y24392792D01*
X1566287Y24400500D01*
X1353713Y24400500D01*
X1305042Y24392792D01*
X1143760Y24367247D01*
X941585Y24301556D01*
X752181Y24205050D01*
X697384Y24165238D01*
X631577Y24141759D01*
X563524Y24157585D01*
X514830Y24207692D01*
X500500Y24265557D01*
X500500Y26915063D01*
X520185Y26982102D01*
X572989Y27027857D01*
X642147Y27037801D01*
X697386Y27015381D01*
X752445Y26975378D01*
X941782Y26878905D01*
X1143870Y26813243D01*
X1353754Y26780000D01*
X1566246Y26780000D01*
X1776127Y26813243D01*
X1776130Y26813243D01*
X1978217Y26878905D01*
X2167554Y26975378D01*
X2221716Y27014730D01*
X2221717Y27014730D01*
X1589409Y27647038D01*
X1652993Y27664075D01*
X1767007Y27729901D01*
X1860099Y27822993D01*
X1925925Y27937007D01*
X1942962Y28000591D01*
X2613181Y27330372D01*
G37*
%TD.AperFunction*%
%TA.AperFunction,Conductor*%
G36*
X34500344Y32546575D02*
G01*
X34510651Y32547832D01*
X34533295Y32536899D01*
X34557421Y32529815D01*
X34565891Y32521162D01*
X34573571Y32517454D01*
X34591575Y32495755D01*
X34592085Y32496125D01*
X34719890Y32320214D01*
X34870213Y32169891D01*
X35042179Y32044952D01*
X35042181Y32044951D01*
X35042184Y32044949D01*
X35231588Y31948443D01*
X35433757Y31882754D01*
X35643713Y31849500D01*
X35643714Y31849500D01*
X35856286Y31849500D01*
X35856287Y31849500D01*
X36066243Y31882754D01*
X36268412Y31948443D01*
X36457816Y32044949D01*
X36552615Y32113824D01*
X36618421Y32137304D01*
X36686475Y32121479D01*
X36735170Y32071373D01*
X36749500Y32013506D01*
X36749500Y29305877D01*
X36729815Y29238838D01*
X36677011Y29193083D01*
X36607853Y29183139D01*
X36552615Y29205558D01*
X36457553Y29274624D01*
X36268217Y29371096D01*
X36066129Y29436758D01*
X35856246Y29470000D01*
X35643754Y29470000D01*
X35433872Y29436758D01*
X35433869Y29436758D01*
X35231782Y29371096D01*
X35042439Y29274620D01*
X34988282Y29235273D01*
X34988282Y29235272D01*
X35620591Y28602963D01*
X35557007Y28585925D01*
X35442993Y28520099D01*
X35349901Y28427007D01*
X35284075Y28312993D01*
X35267037Y28249409D01*
X34596818Y28919628D01*
X34563333Y28980951D01*
X34560499Y29007309D01*
X34560499Y29017871D01*
X34560498Y29017877D01*
X34559424Y29027865D01*
X34554091Y29077483D01*
X34550361Y29087483D01*
X34503797Y29212329D01*
X34503793Y29212336D01*
X34417547Y29327545D01*
X34417544Y29327548D01*
X34302335Y29413794D01*
X34302328Y29413798D01*
X34167482Y29464092D01*
X34167483Y29464092D01*
X34107883Y29470499D01*
X34107881Y29470500D01*
X34107873Y29470500D01*
X34107864Y29470500D01*
X32312129Y29470500D01*
X32312123Y29470499D01*
X32252516Y29464092D01*
X32117671Y29413798D01*
X32117664Y29413794D01*
X32002455Y29327548D01*
X32002452Y29327545D01*
X31916206Y29212336D01*
X31916204Y29212332D01*
X31916204Y29212331D01*
X31912039Y29201166D01*
X31870171Y29145234D01*
X31804707Y29120816D01*
X31795859Y29120500D01*
X5417872Y29120500D01*
X5350833Y29140185D01*
X5305078Y29192989D01*
X5301690Y29201167D01*
X5293797Y29222329D01*
X5293793Y29222336D01*
X5207547Y29337545D01*
X5207544Y29337548D01*
X5092335Y29423794D01*
X5092328Y29423798D01*
X4957482Y29474092D01*
X4957483Y29474092D01*
X4897883Y29480499D01*
X4897881Y29480500D01*
X4897873Y29480500D01*
X4897864Y29480500D01*
X3102129Y29480500D01*
X3102123Y29480499D01*
X3042516Y29474092D01*
X2907671Y29423798D01*
X2907664Y29423794D01*
X2792455Y29337548D01*
X2792452Y29337545D01*
X2706206Y29222336D01*
X2706202Y29222329D01*
X2655908Y29087483D01*
X2649501Y29027884D01*
X2649500Y29027865D01*
X2649500Y29017310D01*
X2629815Y28950271D01*
X2613181Y28929629D01*
X1942962Y28259410D01*
X1925925Y28322993D01*
X1860099Y28437007D01*
X1767007Y28530099D01*
X1652993Y28595925D01*
X1589407Y28612964D01*
X2221716Y29245272D01*
X2167550Y29284625D01*
X1978217Y29381096D01*
X1776129Y29446758D01*
X1566246Y29480000D01*
X1353754Y29480000D01*
X1143872Y29446758D01*
X1143869Y29446758D01*
X941782Y29381096D01*
X752442Y29284621D01*
X697385Y29244620D01*
X631578Y29221140D01*
X563525Y29236966D01*
X514830Y29287072D01*
X500500Y29344938D01*
X500500Y31994444D01*
X520185Y32061483D01*
X572989Y32107238D01*
X642147Y32117182D01*
X697385Y32094762D01*
X729578Y32071373D01*
X752184Y32054949D01*
X941588Y31958443D01*
X1143757Y31892754D01*
X1353713Y31859500D01*
X1353714Y31859500D01*
X1566286Y31859500D01*
X1566287Y31859500D01*
X1776243Y31892754D01*
X1978412Y31958443D01*
X2167816Y32054949D01*
X2253473Y32117182D01*
X2339786Y32179891D01*
X2339788Y32179894D01*
X2339792Y32179896D01*
X2490104Y32330208D01*
X2498830Y32342220D01*
X2612292Y32498385D01*
X2667622Y32541051D01*
X2712610Y32549500D01*
X34490382Y32549500D01*
X34500344Y32546575D01*
G37*
%TD.AperFunction*%
%TA.AperFunction,Conductor*%
G36*
X34353376Y44903261D02*
G01*
X34375462Y44901681D01*
X34386244Y44893610D01*
X34399167Y44889815D01*
X34413665Y44873083D01*
X34431396Y44859810D01*
X34442009Y44840373D01*
X34444922Y44837011D01*
X34448310Y44828833D01*
X34456202Y44807672D01*
X34456206Y44807665D01*
X34542452Y44692456D01*
X34542455Y44692453D01*
X34657664Y44606207D01*
X34657671Y44606203D01*
X34702618Y44589439D01*
X34792517Y44555909D01*
X34852127Y44549500D01*
X34862685Y44549501D01*
X34929723Y44529821D01*
X34950372Y44513182D01*
X35620591Y43842963D01*
X35557007Y43825925D01*
X35442993Y43760099D01*
X35349901Y43667007D01*
X35284075Y43552993D01*
X35267037Y43489409D01*
X34634728Y44121718D01*
X34634727Y44121718D01*
X34595380Y44067561D01*
X34498904Y43878218D01*
X34433242Y43676131D01*
X34433242Y43676128D01*
X34400000Y43466247D01*
X34400000Y43253754D01*
X34433242Y43043873D01*
X34433242Y43043870D01*
X34498904Y42841783D01*
X34595375Y42652450D01*
X34634728Y42598284D01*
X35267037Y43230592D01*
X35284075Y43167007D01*
X35349901Y43052993D01*
X35442993Y42959901D01*
X35557007Y42894075D01*
X35620589Y42877038D01*
X34988282Y42244731D01*
X34988282Y42244730D01*
X35042449Y42205376D01*
X35051491Y42200769D01*
X35102289Y42152796D01*
X35119086Y42084975D01*
X35096551Y42018840D01*
X35051501Y41979800D01*
X35042181Y41975051D01*
X34870213Y41850111D01*
X34719890Y41699788D01*
X34594951Y41527822D01*
X34498444Y41338416D01*
X34432753Y41136241D01*
X34399500Y40926288D01*
X34399500Y40713715D01*
X34432753Y40503762D01*
X34498444Y40301587D01*
X34594951Y40112181D01*
X34719890Y39940215D01*
X34870213Y39789892D01*
X35042179Y39664953D01*
X35042181Y39664952D01*
X35042184Y39664950D01*
X35050945Y39660487D01*
X35101741Y39612513D01*
X35118537Y39544693D01*
X35096001Y39478557D01*
X35050950Y39439519D01*
X35042187Y39435054D01*
X35042184Y39435052D01*
X34870213Y39310110D01*
X34719890Y39159787D01*
X34594951Y38987821D01*
X34498444Y38798415D01*
X34432753Y38596240D01*
X34399500Y38386287D01*
X34399500Y38173714D01*
X34432753Y37963761D01*
X34498444Y37761586D01*
X34594951Y37572180D01*
X34719890Y37400214D01*
X34870213Y37249891D01*
X35042182Y37124950D01*
X35050946Y37120484D01*
X35101742Y37072509D01*
X35118536Y37004688D01*
X35095998Y36938553D01*
X35050946Y36899516D01*
X35042182Y36895051D01*
X34870213Y36770110D01*
X34719890Y36619787D01*
X34594951Y36447821D01*
X34498444Y36258415D01*
X34432753Y36056240D01*
X34399500Y35846287D01*
X34399500Y35633714D01*
X34433516Y35418945D01*
X34431877Y35418686D01*
X34428738Y35356117D01*
X34399342Y35309290D01*
X33626873Y34536819D01*
X33565550Y34503334D01*
X33539192Y34500500D01*
X6220807Y34500500D01*
X6153768Y34520185D01*
X6133126Y34536819D01*
X2810657Y37859289D01*
X2777172Y37920612D01*
X2777689Y37968755D01*
X2776484Y37968945D01*
X2810500Y38183714D01*
X2810500Y38396287D01*
X2778830Y38596240D01*
X2777246Y38606243D01*
X2711557Y38808412D01*
X2615051Y38997816D01*
X2615049Y38997819D01*
X2615048Y38997821D01*
X2490109Y39169787D01*
X2339786Y39320110D01*
X2167817Y39445051D01*
X2159052Y39449517D01*
X2108257Y39497492D01*
X2091462Y39565313D01*
X2114000Y39631448D01*
X2159056Y39670487D01*
X2167816Y39674950D01*
X2167818Y39674952D01*
X2167821Y39674953D01*
X2343734Y39802760D01*
X2344364Y39801893D01*
X2403419Y39828360D01*
X2420200Y39829501D01*
X17678543Y39829501D01*
X17709567Y39835673D01*
X17775189Y39848726D01*
X17871837Y39867950D01*
X17925166Y39890040D01*
X18053915Y39943369D01*
X18217783Y40052862D01*
X18357140Y40192219D01*
X18357140Y40192221D01*
X18367348Y40202428D01*
X18367349Y40202431D01*
X20177139Y42012218D01*
X20286632Y42176086D01*
X20362051Y42358165D01*
X20400500Y42551459D01*
X20400500Y43744218D01*
X20420185Y43811257D01*
X20436819Y43831899D01*
X21478102Y44873181D01*
X21539425Y44906666D01*
X21565783Y44909500D01*
X34332128Y44909500D01*
X34353376Y44903261D01*
G37*
%TD.AperFunction*%
%TA.AperFunction,Conductor*%
G36*
X17501257Y44889815D02*
G01*
X17521899Y44873181D01*
X18363181Y44031899D01*
X18396666Y43970576D01*
X18399500Y43944218D01*
X18399500Y43115783D01*
X18379815Y43048744D01*
X18363181Y43028102D01*
X17201900Y41866820D01*
X17140577Y41833335D01*
X17114219Y41830501D01*
X2420200Y41830501D01*
X2353161Y41850186D01*
X2340634Y41859495D01*
X2167817Y41985052D01*
X2158501Y41989799D01*
X2107707Y42037774D01*
X2090913Y42105596D01*
X2113452Y42171730D01*
X2158511Y42210770D01*
X2167553Y42215377D01*
X2221716Y42254730D01*
X2221717Y42254730D01*
X1589409Y42887038D01*
X1652993Y42904075D01*
X1767007Y42969901D01*
X1860099Y43062993D01*
X1925925Y43177007D01*
X1942962Y43240591D01*
X2575270Y42608283D01*
X2575270Y42608284D01*
X2614622Y42662446D01*
X2711095Y42851783D01*
X2776757Y43053870D01*
X2776757Y43053873D01*
X2810000Y43263754D01*
X2810000Y43476247D01*
X2776757Y43686128D01*
X2776757Y43686131D01*
X2711095Y43888218D01*
X2614624Y44077551D01*
X2575270Y44131718D01*
X2575269Y44131718D01*
X1942962Y43499410D01*
X1925925Y43562993D01*
X1860099Y43677007D01*
X1767007Y43770099D01*
X1652993Y43835925D01*
X1589407Y43852964D01*
X2259627Y44523182D01*
X2320950Y44556667D01*
X2347307Y44559501D01*
X2357872Y44559501D01*
X2417483Y44565909D01*
X2552331Y44616204D01*
X2667546Y44702454D01*
X2753796Y44817669D01*
X2757960Y44828835D01*
X2799829Y44884766D01*
X2865293Y44909184D01*
X2874141Y44909500D01*
X17434218Y44909500D01*
X17501257Y44889815D01*
G37*
%TD.AperFunction*%
%TA.AperFunction,Conductor*%
G36*
X2613181Y50200372D02*
G01*
X2646666Y50139049D01*
X2649500Y50112700D01*
X2649500Y50102135D01*
X2649501Y50102124D01*
X2655908Y50042517D01*
X2706202Y49907672D01*
X2706206Y49907665D01*
X2792452Y49792456D01*
X2792455Y49792453D01*
X2907664Y49706207D01*
X2907671Y49706203D01*
X3042517Y49655909D01*
X3042516Y49655909D01*
X3049444Y49655165D01*
X3102127Y49649500D01*
X4897872Y49649501D01*
X4957483Y49655909D01*
X5092331Y49706204D01*
X5207546Y49792454D01*
X5293796Y49907669D01*
X5297960Y49918835D01*
X5339829Y49974766D01*
X5405293Y49999184D01*
X5414141Y49999500D01*
X31788398Y49999500D01*
X31855437Y49979815D01*
X31901192Y49927011D01*
X31904580Y49918833D01*
X31916202Y49887672D01*
X31916206Y49887665D01*
X32002452Y49772456D01*
X32002455Y49772453D01*
X32117664Y49686207D01*
X32117671Y49686203D01*
X32252517Y49635909D01*
X32252516Y49635909D01*
X32259444Y49635165D01*
X32312127Y49629500D01*
X34107872Y49629501D01*
X34167483Y49635909D01*
X34302331Y49686204D01*
X34417546Y49772454D01*
X34503796Y49887669D01*
X34554091Y50022517D01*
X34560500Y50082127D01*
X34560499Y50092688D01*
X34580179Y50159725D01*
X34596818Y50180374D01*
X35267037Y50850592D01*
X35284075Y50787007D01*
X35349901Y50672993D01*
X35442993Y50579901D01*
X35557007Y50514075D01*
X35620589Y50497038D01*
X34988282Y49864731D01*
X34988282Y49864730D01*
X35042449Y49825376D01*
X35231782Y49728905D01*
X35433870Y49663243D01*
X35643754Y49630000D01*
X35856246Y49630000D01*
X36066127Y49663243D01*
X36066130Y49663243D01*
X36268217Y49728905D01*
X36457557Y49825380D01*
X36552615Y49894442D01*
X36618421Y49917922D01*
X36686475Y49902096D01*
X36735170Y49851991D01*
X36749500Y49794124D01*
X36749500Y47374500D01*
X36729815Y47307461D01*
X36677011Y47261706D01*
X36625500Y47250500D01*
X34852129Y47250500D01*
X34852123Y47250499D01*
X34792516Y47244092D01*
X34657671Y47193798D01*
X34657664Y47193794D01*
X34542455Y47107548D01*
X34542452Y47107545D01*
X34456206Y46992336D01*
X34456200Y46992326D01*
X34455767Y46991162D01*
X34455023Y46990169D01*
X34451953Y46984546D01*
X34451144Y46984988D01*
X34413894Y46935230D01*
X34348429Y46910816D01*
X34339587Y46910500D01*
X2874141Y46910500D01*
X2807102Y46930185D01*
X2761347Y46982989D01*
X2757969Y46991141D01*
X2753796Y47002331D01*
X2753793Y47002335D01*
X2753793Y47002336D01*
X2667547Y47117545D01*
X2667544Y47117548D01*
X2552335Y47203794D01*
X2552328Y47203798D01*
X2417482Y47254092D01*
X2417483Y47254092D01*
X2357883Y47260499D01*
X2357881Y47260500D01*
X2357873Y47260500D01*
X2357865Y47260500D01*
X624500Y47260500D01*
X557461Y47280185D01*
X511706Y47332989D01*
X500500Y47384500D01*
X500500Y49785063D01*
X520185Y49852102D01*
X572989Y49897857D01*
X642147Y49907801D01*
X697386Y49885381D01*
X752445Y49845378D01*
X941782Y49748905D01*
X1143870Y49683243D01*
X1353754Y49650000D01*
X1566246Y49650000D01*
X1776127Y49683243D01*
X1776130Y49683243D01*
X1978217Y49748905D01*
X2167554Y49845378D01*
X2221716Y49884730D01*
X2221717Y49884730D01*
X1589409Y50517038D01*
X1652993Y50534075D01*
X1767007Y50599901D01*
X1860099Y50692993D01*
X1925925Y50807007D01*
X1942962Y50870592D01*
X2613181Y50200372D01*
G37*
%TD.AperFunction*%
%TA.AperFunction,Conductor*%
G36*
X33753244Y58999330D02*
G01*
X34057046Y58983408D01*
X34069953Y58982051D01*
X34201089Y58961282D01*
X34367209Y58934972D01*
X34379896Y58932276D01*
X34670625Y58854375D01*
X34682965Y58850365D01*
X34963938Y58742510D01*
X34975790Y58737233D01*
X35243968Y58600589D01*
X35255199Y58594104D01*
X35507608Y58430188D01*
X35518109Y58422559D01*
X35752010Y58233150D01*
X35761655Y58224465D01*
X35974464Y58011656D01*
X35983149Y58002011D01*
X36172558Y57768110D01*
X36180187Y57757609D01*
X36344101Y57505204D01*
X36350591Y57493964D01*
X36487231Y57225794D01*
X36492510Y57213936D01*
X36600363Y56932967D01*
X36604374Y56920624D01*
X36682273Y56629903D01*
X36684971Y56617206D01*
X36732050Y56319954D01*
X36733407Y56307047D01*
X36749330Y56003244D01*
X36749500Y55996754D01*
X36749500Y52165877D01*
X36729815Y52098838D01*
X36677011Y52053083D01*
X36607853Y52043139D01*
X36552615Y52065558D01*
X36457553Y52134624D01*
X36268217Y52231096D01*
X36066129Y52296758D01*
X35856246Y52330000D01*
X35643754Y52330000D01*
X35433872Y52296758D01*
X35433869Y52296758D01*
X35231782Y52231096D01*
X35042439Y52134620D01*
X34988282Y52095273D01*
X34988282Y52095272D01*
X35620591Y51462963D01*
X35557007Y51445925D01*
X35442993Y51380099D01*
X35349901Y51287007D01*
X35284075Y51172993D01*
X35267037Y51109409D01*
X34596818Y51779628D01*
X34563333Y51840951D01*
X34560499Y51867309D01*
X34560499Y51877871D01*
X34560498Y51877877D01*
X34554091Y51937484D01*
X34503797Y52072329D01*
X34503793Y52072336D01*
X34417547Y52187545D01*
X34417544Y52187548D01*
X34302335Y52273794D01*
X34302328Y52273798D01*
X34167482Y52324092D01*
X34167483Y52324092D01*
X34107883Y52330499D01*
X34107881Y52330500D01*
X34107873Y52330500D01*
X34107864Y52330500D01*
X32312129Y52330500D01*
X32312123Y52330499D01*
X32252516Y52324092D01*
X32117671Y52273798D01*
X32117664Y52273794D01*
X32002455Y52187548D01*
X32002452Y52187545D01*
X31916204Y52072333D01*
X31912239Y52065071D01*
X31862832Y52015666D01*
X31803408Y52000500D01*
X5414141Y52000500D01*
X5347102Y52020185D01*
X5301347Y52072989D01*
X5297969Y52081141D01*
X5293796Y52092331D01*
X5293793Y52092335D01*
X5293793Y52092336D01*
X5207547Y52207545D01*
X5207544Y52207548D01*
X5092335Y52293794D01*
X5092328Y52293798D01*
X4957482Y52344092D01*
X4957483Y52344092D01*
X4897883Y52350499D01*
X4897881Y52350500D01*
X4897873Y52350500D01*
X4897864Y52350500D01*
X3102129Y52350500D01*
X3102123Y52350499D01*
X3042516Y52344092D01*
X2907671Y52293798D01*
X2907664Y52293794D01*
X2792455Y52207548D01*
X2792452Y52207545D01*
X2706206Y52092336D01*
X2706202Y52092329D01*
X2655908Y51957483D01*
X2649501Y51897884D01*
X2649500Y51897865D01*
X2649500Y51887310D01*
X2629815Y51820271D01*
X2613181Y51799629D01*
X1942962Y51129410D01*
X1925925Y51192993D01*
X1860099Y51307007D01*
X1767007Y51400099D01*
X1652993Y51465925D01*
X1589407Y51482964D01*
X2221716Y52115272D01*
X2167550Y52154625D01*
X1978217Y52251096D01*
X1776129Y52316758D01*
X1566246Y52350000D01*
X1353754Y52350000D01*
X1143872Y52316758D01*
X1143869Y52316758D01*
X941782Y52251096D01*
X752442Y52154621D01*
X697385Y52114620D01*
X631578Y52091140D01*
X563525Y52106966D01*
X514830Y52157072D01*
X500500Y52214938D01*
X500500Y55996754D01*
X500670Y56003243D01*
X503953Y56065892D01*
X506856Y56121289D01*
X1649500Y56121289D01*
X1649500Y55878712D01*
X1681161Y55638215D01*
X1743947Y55403896D01*
X1836773Y55179795D01*
X1836776Y55179788D01*
X1958064Y54969711D01*
X1958066Y54969708D01*
X1958067Y54969707D01*
X2105733Y54777264D01*
X2105739Y54777257D01*
X2277256Y54605740D01*
X2277262Y54605735D01*
X2469711Y54458064D01*
X2679788Y54336776D01*
X2903900Y54243946D01*
X3138211Y54181162D01*
X3318586Y54157416D01*
X3378711Y54149500D01*
X3378712Y54149500D01*
X3621289Y54149500D01*
X3669388Y54155833D01*
X3861789Y54181162D01*
X4096100Y54243946D01*
X4320212Y54336776D01*
X4530289Y54458064D01*
X4722738Y54605735D01*
X4894265Y54777262D01*
X5041936Y54969711D01*
X5163224Y55179788D01*
X5256054Y55403900D01*
X5318838Y55638211D01*
X5350500Y55878712D01*
X5350500Y56121288D01*
X5350500Y56121289D01*
X31899500Y56121289D01*
X31899500Y55878712D01*
X31931161Y55638215D01*
X31993947Y55403896D01*
X32086773Y55179795D01*
X32086776Y55179788D01*
X32208064Y54969711D01*
X32208066Y54969708D01*
X32208067Y54969707D01*
X32355733Y54777264D01*
X32355739Y54777257D01*
X32527256Y54605740D01*
X32527262Y54605735D01*
X32719711Y54458064D01*
X32929788Y54336776D01*
X33153900Y54243946D01*
X33388211Y54181162D01*
X33568586Y54157416D01*
X33628711Y54149500D01*
X33628712Y54149500D01*
X33871289Y54149500D01*
X33919388Y54155833D01*
X34111789Y54181162D01*
X34346100Y54243946D01*
X34570212Y54336776D01*
X34780289Y54458064D01*
X34972738Y54605735D01*
X35144265Y54777262D01*
X35291936Y54969711D01*
X35413224Y55179788D01*
X35506054Y55403900D01*
X35568838Y55638211D01*
X35600500Y55878712D01*
X35600500Y56121288D01*
X35568838Y56361789D01*
X35506054Y56596100D01*
X35413224Y56820212D01*
X35291936Y57030289D01*
X35144265Y57222738D01*
X35144260Y57222744D01*
X34972743Y57394261D01*
X34972736Y57394267D01*
X34780293Y57541933D01*
X34780292Y57541934D01*
X34780289Y57541936D01*
X34570212Y57663224D01*
X34570205Y57663227D01*
X34346104Y57756053D01*
X34111785Y57818839D01*
X33871289Y57850500D01*
X33871288Y57850500D01*
X33628712Y57850500D01*
X33628711Y57850500D01*
X33388214Y57818839D01*
X33153895Y57756053D01*
X32929794Y57663227D01*
X32929785Y57663223D01*
X32719706Y57541933D01*
X32527263Y57394267D01*
X32527256Y57394261D01*
X32355739Y57222744D01*
X32355733Y57222737D01*
X32208067Y57030294D01*
X32086777Y56820215D01*
X32086773Y56820206D01*
X31993947Y56596105D01*
X31931161Y56361786D01*
X31899500Y56121289D01*
X5350500Y56121289D01*
X5318838Y56361789D01*
X5256054Y56596100D01*
X5163224Y56820212D01*
X5041936Y57030289D01*
X4894265Y57222738D01*
X4894260Y57222744D01*
X4722743Y57394261D01*
X4722736Y57394267D01*
X4530293Y57541933D01*
X4530292Y57541934D01*
X4530289Y57541936D01*
X4320212Y57663224D01*
X4320205Y57663227D01*
X4096104Y57756053D01*
X3861785Y57818839D01*
X3621289Y57850500D01*
X3621288Y57850500D01*
X3378712Y57850500D01*
X3378711Y57850500D01*
X3138214Y57818839D01*
X2903895Y57756053D01*
X2679794Y57663227D01*
X2679785Y57663223D01*
X2469706Y57541933D01*
X2277263Y57394267D01*
X2277256Y57394261D01*
X2105739Y57222744D01*
X2105733Y57222737D01*
X1958067Y57030294D01*
X1836777Y56820215D01*
X1836773Y56820206D01*
X1743947Y56596105D01*
X1681161Y56361786D01*
X1649500Y56121289D01*
X506856Y56121289D01*
X516592Y56307049D01*
X517949Y56319954D01*
X554904Y56553285D01*
X565029Y56617214D01*
X567723Y56629893D01*
X645627Y56920632D01*
X649636Y56932967D01*
X757493Y57213946D01*
X762763Y57225785D01*
X899415Y57493977D01*
X905891Y57505192D01*
X1069819Y57757620D01*
X1077434Y57768101D01*
X1266858Y58002021D01*
X1275525Y58011646D01*
X1488354Y58224475D01*
X1497979Y58233142D01*
X1731899Y58422566D01*
X1742380Y58430181D01*
X1994808Y58594109D01*
X2006023Y58600585D01*
X2274215Y58737237D01*
X2286054Y58742507D01*
X2567040Y58850367D01*
X2579368Y58854373D01*
X2870107Y58932277D01*
X2882786Y58934971D01*
X3180046Y58982051D01*
X3192951Y58983408D01*
X3496756Y58999331D01*
X3503246Y58999500D01*
X3565892Y58999500D01*
X33684108Y58999500D01*
X33746754Y58999500D01*
X33753244Y58999330D01*
G37*
%TD.AperFunction*%
%TD*%
M02*
