%TF.GenerationSoftware,KiCad,Pcbnew,7.0.10*%
%TF.CreationDate,2024-02-19T11:00:08+07:00*%
%TF.ProjectId,PMODP2PSRAM,504d4f44-5032-4505-9352-414d2e6b6963,rev?*%
%TF.SameCoordinates,PX8c6db50PY50d2eb0*%
%TF.FileFunction,Legend,Bot*%
%TF.FilePolarity,Positive*%
%FSLAX46Y46*%
G04 Gerber Fmt 4.6, Leading zero omitted, Abs format (unit mm)*
G04 Created by KiCad (PCBNEW 7.0.10) date 2024-02-19 11:00:08*
%MOMM*%
%LPD*%
G01*
G04 APERTURE LIST*
%ADD10C,0.150000*%
G04 APERTURE END LIST*
D10*
X11210839Y9177800D02*
X11067982Y9130181D01*
X11067982Y9130181D02*
X10829887Y9130181D01*
X10829887Y9130181D02*
X10734649Y9177800D01*
X10734649Y9177800D02*
X10687030Y9225420D01*
X10687030Y9225420D02*
X10639411Y9320658D01*
X10639411Y9320658D02*
X10639411Y9415896D01*
X10639411Y9415896D02*
X10687030Y9511134D01*
X10687030Y9511134D02*
X10734649Y9558753D01*
X10734649Y9558753D02*
X10829887Y9606372D01*
X10829887Y9606372D02*
X11020363Y9653991D01*
X11020363Y9653991D02*
X11115601Y9701610D01*
X11115601Y9701610D02*
X11163220Y9749229D01*
X11163220Y9749229D02*
X11210839Y9844467D01*
X11210839Y9844467D02*
X11210839Y9939705D01*
X11210839Y9939705D02*
X11163220Y10034943D01*
X11163220Y10034943D02*
X11115601Y10082562D01*
X11115601Y10082562D02*
X11020363Y10130181D01*
X11020363Y10130181D02*
X10782268Y10130181D01*
X10782268Y10130181D02*
X10639411Y10082562D01*
X9639411Y9225420D02*
X9687030Y9177800D01*
X9687030Y9177800D02*
X9829887Y9130181D01*
X9829887Y9130181D02*
X9925125Y9130181D01*
X9925125Y9130181D02*
X10067982Y9177800D01*
X10067982Y9177800D02*
X10163220Y9273039D01*
X10163220Y9273039D02*
X10210839Y9368277D01*
X10210839Y9368277D02*
X10258458Y9558753D01*
X10258458Y9558753D02*
X10258458Y9701610D01*
X10258458Y9701610D02*
X10210839Y9892086D01*
X10210839Y9892086D02*
X10163220Y9987324D01*
X10163220Y9987324D02*
X10067982Y10082562D01*
X10067982Y10082562D02*
X9925125Y10130181D01*
X9925125Y10130181D02*
X9829887Y10130181D01*
X9829887Y10130181D02*
X9687030Y10082562D01*
X9687030Y10082562D02*
X9639411Y10034943D01*
X8734649Y9130181D02*
X9210839Y9130181D01*
X9210839Y9130181D02*
X9210839Y10130181D01*
X8401315Y9130181D02*
X8401315Y10130181D01*
X7829887Y9130181D02*
X8258458Y9701610D01*
X7829887Y10130181D02*
X8401315Y9558753D01*
X2413220Y6380181D02*
X2413220Y7380181D01*
X1746554Y7380181D02*
X1556078Y7380181D01*
X1556078Y7380181D02*
X1460840Y7332562D01*
X1460840Y7332562D02*
X1365602Y7237324D01*
X1365602Y7237324D02*
X1317983Y7046848D01*
X1317983Y7046848D02*
X1317983Y6713515D01*
X1317983Y6713515D02*
X1365602Y6523039D01*
X1365602Y6523039D02*
X1460840Y6427800D01*
X1460840Y6427800D02*
X1556078Y6380181D01*
X1556078Y6380181D02*
X1746554Y6380181D01*
X1746554Y6380181D02*
X1841792Y6427800D01*
X1841792Y6427800D02*
X1937030Y6523039D01*
X1937030Y6523039D02*
X1984649Y6713515D01*
X1984649Y6713515D02*
X1984649Y7046848D01*
X1984649Y7046848D02*
X1937030Y7237324D01*
X1937030Y7237324D02*
X1841792Y7332562D01*
X1841792Y7332562D02*
X1746554Y7380181D01*
X984649Y7380181D02*
X365602Y7380181D01*
X365602Y7380181D02*
X698935Y6999229D01*
X698935Y6999229D02*
X556078Y6999229D01*
X556078Y6999229D02*
X460840Y6951610D01*
X460840Y6951610D02*
X413221Y6903991D01*
X413221Y6903991D02*
X365602Y6808753D01*
X365602Y6808753D02*
X365602Y6570658D01*
X365602Y6570658D02*
X413221Y6475420D01*
X413221Y6475420D02*
X460840Y6427800D01*
X460840Y6427800D02*
X556078Y6380181D01*
X556078Y6380181D02*
X841792Y6380181D01*
X841792Y6380181D02*
X937030Y6427800D01*
X937030Y6427800D02*
X984649Y6475420D01*
X2413220Y9130181D02*
X2413220Y10130181D01*
X1746554Y10130181D02*
X1556078Y10130181D01*
X1556078Y10130181D02*
X1460840Y10082562D01*
X1460840Y10082562D02*
X1365602Y9987324D01*
X1365602Y9987324D02*
X1317983Y9796848D01*
X1317983Y9796848D02*
X1317983Y9463515D01*
X1317983Y9463515D02*
X1365602Y9273039D01*
X1365602Y9273039D02*
X1460840Y9177800D01*
X1460840Y9177800D02*
X1556078Y9130181D01*
X1556078Y9130181D02*
X1746554Y9130181D01*
X1746554Y9130181D02*
X1841792Y9177800D01*
X1841792Y9177800D02*
X1937030Y9273039D01*
X1937030Y9273039D02*
X1984649Y9463515D01*
X1984649Y9463515D02*
X1984649Y9796848D01*
X1984649Y9796848D02*
X1937030Y9987324D01*
X1937030Y9987324D02*
X1841792Y10082562D01*
X1841792Y10082562D02*
X1746554Y10130181D01*
X698935Y10130181D02*
X603697Y10130181D01*
X603697Y10130181D02*
X508459Y10082562D01*
X508459Y10082562D02*
X460840Y10034943D01*
X460840Y10034943D02*
X413221Y9939705D01*
X413221Y9939705D02*
X365602Y9749229D01*
X365602Y9749229D02*
X365602Y9511134D01*
X365602Y9511134D02*
X413221Y9320658D01*
X413221Y9320658D02*
X460840Y9225420D01*
X460840Y9225420D02*
X508459Y9177800D01*
X508459Y9177800D02*
X603697Y9130181D01*
X603697Y9130181D02*
X698935Y9130181D01*
X698935Y9130181D02*
X794173Y9177800D01*
X794173Y9177800D02*
X841792Y9225420D01*
X841792Y9225420D02*
X889411Y9320658D01*
X889411Y9320658D02*
X937030Y9511134D01*
X937030Y9511134D02*
X937030Y9749229D01*
X937030Y9749229D02*
X889411Y9939705D01*
X889411Y9939705D02*
X841792Y10034943D01*
X841792Y10034943D02*
X794173Y10082562D01*
X794173Y10082562D02*
X698935Y10130181D01*
X10163220Y11530181D02*
X10163220Y12530181D01*
X9496554Y12530181D02*
X9306078Y12530181D01*
X9306078Y12530181D02*
X9210840Y12482562D01*
X9210840Y12482562D02*
X9115602Y12387324D01*
X9115602Y12387324D02*
X9067983Y12196848D01*
X9067983Y12196848D02*
X9067983Y11863515D01*
X9067983Y11863515D02*
X9115602Y11673039D01*
X9115602Y11673039D02*
X9210840Y11577800D01*
X9210840Y11577800D02*
X9306078Y11530181D01*
X9306078Y11530181D02*
X9496554Y11530181D01*
X9496554Y11530181D02*
X9591792Y11577800D01*
X9591792Y11577800D02*
X9687030Y11673039D01*
X9687030Y11673039D02*
X9734649Y11863515D01*
X9734649Y11863515D02*
X9734649Y12196848D01*
X9734649Y12196848D02*
X9687030Y12387324D01*
X9687030Y12387324D02*
X9591792Y12482562D01*
X9591792Y12482562D02*
X9496554Y12530181D01*
X8687030Y12434943D02*
X8639411Y12482562D01*
X8639411Y12482562D02*
X8544173Y12530181D01*
X8544173Y12530181D02*
X8306078Y12530181D01*
X8306078Y12530181D02*
X8210840Y12482562D01*
X8210840Y12482562D02*
X8163221Y12434943D01*
X8163221Y12434943D02*
X8115602Y12339705D01*
X8115602Y12339705D02*
X8115602Y12244467D01*
X8115602Y12244467D02*
X8163221Y12101610D01*
X8163221Y12101610D02*
X8734649Y11530181D01*
X8734649Y11530181D02*
X8115602Y11530181D01*
X2413220Y11630181D02*
X2413220Y12630181D01*
X1746554Y12630181D02*
X1556078Y12630181D01*
X1556078Y12630181D02*
X1460840Y12582562D01*
X1460840Y12582562D02*
X1365602Y12487324D01*
X1365602Y12487324D02*
X1317983Y12296848D01*
X1317983Y12296848D02*
X1317983Y11963515D01*
X1317983Y11963515D02*
X1365602Y11773039D01*
X1365602Y11773039D02*
X1460840Y11677800D01*
X1460840Y11677800D02*
X1556078Y11630181D01*
X1556078Y11630181D02*
X1746554Y11630181D01*
X1746554Y11630181D02*
X1841792Y11677800D01*
X1841792Y11677800D02*
X1937030Y11773039D01*
X1937030Y11773039D02*
X1984649Y11963515D01*
X1984649Y11963515D02*
X1984649Y12296848D01*
X1984649Y12296848D02*
X1937030Y12487324D01*
X1937030Y12487324D02*
X1841792Y12582562D01*
X1841792Y12582562D02*
X1746554Y12630181D01*
X698935Y12630181D02*
X603697Y12630181D01*
X603697Y12630181D02*
X508459Y12582562D01*
X508459Y12582562D02*
X460840Y12534943D01*
X460840Y12534943D02*
X413221Y12439705D01*
X413221Y12439705D02*
X365602Y12249229D01*
X365602Y12249229D02*
X365602Y12011134D01*
X365602Y12011134D02*
X413221Y11820658D01*
X413221Y11820658D02*
X460840Y11725420D01*
X460840Y11725420D02*
X508459Y11677800D01*
X508459Y11677800D02*
X603697Y11630181D01*
X603697Y11630181D02*
X698935Y11630181D01*
X698935Y11630181D02*
X794173Y11677800D01*
X794173Y11677800D02*
X841792Y11725420D01*
X841792Y11725420D02*
X889411Y11820658D01*
X889411Y11820658D02*
X937030Y12011134D01*
X937030Y12011134D02*
X937030Y12249229D01*
X937030Y12249229D02*
X889411Y12439705D01*
X889411Y12439705D02*
X841792Y12534943D01*
X841792Y12534943D02*
X794173Y12582562D01*
X794173Y12582562D02*
X698935Y12630181D01*
X9191792Y14225420D02*
X9239411Y14177800D01*
X9239411Y14177800D02*
X9382268Y14130181D01*
X9382268Y14130181D02*
X9477506Y14130181D01*
X9477506Y14130181D02*
X9620363Y14177800D01*
X9620363Y14177800D02*
X9715601Y14273039D01*
X9715601Y14273039D02*
X9763220Y14368277D01*
X9763220Y14368277D02*
X9810839Y14558753D01*
X9810839Y14558753D02*
X9810839Y14701610D01*
X9810839Y14701610D02*
X9763220Y14892086D01*
X9763220Y14892086D02*
X9715601Y14987324D01*
X9715601Y14987324D02*
X9620363Y15082562D01*
X9620363Y15082562D02*
X9477506Y15130181D01*
X9477506Y15130181D02*
X9382268Y15130181D01*
X9382268Y15130181D02*
X9239411Y15082562D01*
X9239411Y15082562D02*
X9191792Y15034943D01*
X8763220Y14653991D02*
X8429887Y14653991D01*
X8287030Y14130181D02*
X8763220Y14130181D01*
X8763220Y14130181D02*
X8763220Y15130181D01*
X8763220Y15130181D02*
X8287030Y15130181D01*
G36*
X14885839Y10181372D02*
G01*
X14597592Y10181372D01*
X14529076Y10215630D01*
X14498669Y10246037D01*
X14464411Y10314553D01*
X14464411Y10422000D01*
X14498669Y10490516D01*
X14529076Y10520923D01*
X14597592Y10555181D01*
X14885839Y10555181D01*
X14885839Y10181372D01*
G37*
G36*
X13904401Y9990896D02*
G01*
X13636325Y9990896D01*
X13770363Y10393011D01*
X13904401Y9990896D01*
G37*
G36*
X16838220Y10181372D02*
G01*
X16549973Y10181372D01*
X16481457Y10215630D01*
X16451050Y10246037D01*
X16416792Y10314553D01*
X16416792Y10422000D01*
X16451050Y10490516D01*
X16481457Y10520923D01*
X16549973Y10555181D01*
X16838220Y10555181D01*
X16838220Y10181372D01*
G37*
G36*
X17131077Y9412324D02*
G01*
X12219173Y9412324D01*
X12219173Y9630181D01*
X12362030Y9630181D01*
X12379577Y9581972D01*
X12424006Y9556320D01*
X12474530Y9565229D01*
X12507507Y9604529D01*
X12512030Y9630181D01*
X12512030Y10292114D01*
X12702399Y9884179D01*
X12716165Y9870421D01*
X12727326Y9854472D01*
X12733885Y9852713D01*
X12738687Y9847914D01*
X12758076Y9846223D01*
X12776878Y9841179D01*
X12783031Y9844047D01*
X12789796Y9843456D01*
X12805738Y9854628D01*
X12823380Y9862847D01*
X12829079Y9870982D01*
X12831812Y9872896D01*
X12832671Y9876109D01*
X12838327Y9884180D01*
X13028696Y10292114D01*
X13028696Y9630181D01*
X13046243Y9581972D01*
X13090672Y9556320D01*
X13141196Y9565229D01*
X13174173Y9604529D01*
X13178696Y9630181D01*
X13178696Y9653898D01*
X13365879Y9653898D01*
X13367280Y9602614D01*
X13401317Y9564229D01*
X13452066Y9556704D01*
X13495778Y9583559D01*
X13508181Y9606464D01*
X13586325Y9840896D01*
X13954401Y9840896D01*
X14032545Y9606464D01*
X14064436Y9566278D01*
X14114697Y9555992D01*
X14159811Y9580421D01*
X14178668Y9628133D01*
X14174847Y9653898D01*
X13960531Y10296848D01*
X14314411Y10296848D01*
X14315944Y10292635D01*
X14314903Y10288274D01*
X14322329Y10263307D01*
X14369948Y10168069D01*
X14371137Y10166944D01*
X14383997Y10148577D01*
X14431616Y10100958D01*
X14433097Y10100267D01*
X14451108Y10086909D01*
X14546346Y10039290D01*
X14550799Y10038778D01*
X14554235Y10035895D01*
X14578826Y10031560D01*
X14327969Y9673191D01*
X14314698Y9623634D01*
X14336385Y9577140D01*
X14382885Y9555465D01*
X14432438Y9568750D01*
X14450853Y9587171D01*
X14761793Y10031372D01*
X14885839Y10031372D01*
X14885839Y9630181D01*
X14903386Y9581972D01*
X14947815Y9556320D01*
X14998339Y9565229D01*
X15031316Y9604529D01*
X15035839Y9630181D01*
X15035839Y9820658D01*
X15314411Y9820658D01*
X15315944Y9816445D01*
X15314903Y9812084D01*
X15322329Y9787117D01*
X15369948Y9691879D01*
X15371136Y9690754D01*
X15383996Y9672388D01*
X15431615Y9624768D01*
X15433096Y9624078D01*
X15451108Y9610718D01*
X15546346Y9563099D01*
X15550799Y9562587D01*
X15554235Y9559704D01*
X15579887Y9555181D01*
X15817982Y9555181D01*
X15819520Y9555742D01*
X15841699Y9559030D01*
X15984556Y9606649D01*
X16024742Y9638540D01*
X16035028Y9688801D01*
X16010599Y9733915D01*
X15962887Y9752772D01*
X15937121Y9748951D01*
X15805812Y9705181D01*
X15597592Y9705181D01*
X15529076Y9739439D01*
X15498669Y9769847D01*
X15464411Y9838363D01*
X15464411Y9898191D01*
X15498669Y9966707D01*
X15529076Y9997114D01*
X15606063Y10035608D01*
X15788553Y10081230D01*
X15791497Y10083219D01*
X15803904Y10086909D01*
X15899142Y10134528D01*
X15900267Y10135718D01*
X15918634Y10148577D01*
X15966253Y10196196D01*
X15966944Y10197678D01*
X15980302Y10215688D01*
X16020882Y10296848D01*
X16266792Y10296848D01*
X16268325Y10292635D01*
X16267284Y10288274D01*
X16274710Y10263307D01*
X16322329Y10168069D01*
X16323518Y10166944D01*
X16336378Y10148577D01*
X16383997Y10100958D01*
X16385478Y10100267D01*
X16403489Y10086909D01*
X16498727Y10039290D01*
X16503180Y10038778D01*
X16506616Y10035895D01*
X16532268Y10031372D01*
X16838220Y10031372D01*
X16838220Y9630181D01*
X16855767Y9581972D01*
X16900196Y9556320D01*
X16950720Y9565229D01*
X16983697Y9604529D01*
X16988220Y9630181D01*
X16988220Y10630181D01*
X16981556Y10648490D01*
X16978172Y10667681D01*
X16972987Y10672032D01*
X16970673Y10678390D01*
X16953799Y10688133D01*
X16938872Y10700658D01*
X16929129Y10702376D01*
X16926244Y10704042D01*
X16922961Y10703464D01*
X16913220Y10705181D01*
X16532268Y10705181D01*
X16528054Y10703648D01*
X16523693Y10704689D01*
X16498727Y10697263D01*
X16403489Y10649644D01*
X16402363Y10648455D01*
X16383997Y10635595D01*
X16336378Y10587976D01*
X16335687Y10586495D01*
X16322329Y10568484D01*
X16274710Y10473246D01*
X16274197Y10468793D01*
X16271315Y10465357D01*
X16266792Y10439705D01*
X16266792Y10296848D01*
X16020882Y10296848D01*
X16027921Y10310926D01*
X16028433Y10315380D01*
X16031316Y10318815D01*
X16035839Y10344467D01*
X16035839Y10439705D01*
X16034305Y10443919D01*
X16035347Y10448280D01*
X16027921Y10473246D01*
X15980302Y10568484D01*
X15979112Y10569610D01*
X15966253Y10587976D01*
X15918634Y10635595D01*
X15917152Y10636286D01*
X15899142Y10649644D01*
X15803904Y10697263D01*
X15799450Y10697776D01*
X15796015Y10700658D01*
X15770363Y10705181D01*
X15532268Y10705181D01*
X15530730Y10704622D01*
X15508550Y10701332D01*
X15365694Y10653713D01*
X15325508Y10621822D01*
X15315222Y10571561D01*
X15339651Y10526447D01*
X15387362Y10507590D01*
X15413128Y10511411D01*
X15544438Y10555181D01*
X15752658Y10555181D01*
X15821174Y10520923D01*
X15851581Y10490516D01*
X15885839Y10422000D01*
X15885839Y10362172D01*
X15851581Y10293656D01*
X15821174Y10263249D01*
X15744187Y10224756D01*
X15561697Y10179133D01*
X15558752Y10177145D01*
X15546346Y10173454D01*
X15451108Y10125835D01*
X15449982Y10124646D01*
X15431616Y10111786D01*
X15383997Y10064167D01*
X15383306Y10062686D01*
X15369948Y10044675D01*
X15322329Y9949437D01*
X15321816Y9944984D01*
X15318934Y9941548D01*
X15314411Y9915896D01*
X15314411Y9820658D01*
X15035839Y9820658D01*
X15035839Y10630181D01*
X15029175Y10648490D01*
X15025791Y10667681D01*
X15020606Y10672032D01*
X15018292Y10678390D01*
X15001418Y10688133D01*
X14986491Y10700658D01*
X14976748Y10702376D01*
X14973863Y10704042D01*
X14970580Y10703464D01*
X14960839Y10705181D01*
X14579887Y10705181D01*
X14575673Y10703648D01*
X14571312Y10704689D01*
X14546346Y10697263D01*
X14451108Y10649644D01*
X14449982Y10648455D01*
X14431616Y10635595D01*
X14383997Y10587976D01*
X14383306Y10586495D01*
X14369948Y10568484D01*
X14322329Y10473246D01*
X14321816Y10468793D01*
X14318934Y10465357D01*
X14314411Y10439705D01*
X14314411Y10296848D01*
X13960531Y10296848D01*
X13841514Y10653898D01*
X13840171Y10655590D01*
X13840113Y10657747D01*
X13824371Y10675500D01*
X13809623Y10694084D01*
X13807508Y10694517D01*
X13806075Y10696133D01*
X13782606Y10699613D01*
X13759362Y10704370D01*
X13757462Y10703342D01*
X13755327Y10703658D01*
X13735109Y10691238D01*
X13714248Y10679941D01*
X13713454Y10677934D01*
X13711614Y10676803D01*
X13699212Y10653898D01*
X13365879Y9653898D01*
X13178696Y9653898D01*
X13178696Y10630181D01*
X13175270Y10639594D01*
X13176146Y10649571D01*
X13166752Y10662996D01*
X13161149Y10678390D01*
X13152476Y10683398D01*
X13146733Y10691605D01*
X13130907Y10695851D01*
X13116720Y10704042D01*
X13106856Y10702303D01*
X13097182Y10704898D01*
X13082330Y10697979D01*
X13066196Y10695133D01*
X13059757Y10687461D01*
X13050679Y10683230D01*
X13035732Y10661898D01*
X12770362Y10093250D01*
X12504994Y10661897D01*
X12497908Y10668978D01*
X12494483Y10678390D01*
X12480293Y10686583D01*
X12468706Y10698163D01*
X12458729Y10699034D01*
X12450054Y10704042D01*
X12433918Y10701197D01*
X12417597Y10702620D01*
X12409393Y10696873D01*
X12399530Y10695133D01*
X12388998Y10682583D01*
X12375581Y10673181D01*
X12372991Y10663507D01*
X12366553Y10655833D01*
X12362030Y10630181D01*
X12362030Y9630181D01*
X12219173Y9630181D01*
X12219173Y10848038D01*
X17131077Y10848038D01*
X17131077Y9412324D01*
G37*
G36*
X10040601Y3955181D02*
G01*
X9889676Y3955181D01*
X9775163Y3993352D01*
X9701050Y4067466D01*
X9662556Y4144453D01*
X9619173Y4317987D01*
X9619173Y4442376D01*
X9662556Y4615910D01*
X9701050Y4692897D01*
X9775163Y4767010D01*
X9889676Y4805181D01*
X10040601Y4805181D01*
X10040601Y3955181D01*
G37*
G36*
X12428696Y3662324D02*
G01*
X9326316Y3662324D01*
X9326316Y4308753D01*
X9469173Y4308753D01*
X9470358Y4305496D01*
X9471412Y4290563D01*
X9519031Y4100087D01*
X9521019Y4097143D01*
X9524710Y4084736D01*
X9572329Y3989498D01*
X9573515Y3988375D01*
X9586378Y3970006D01*
X9681616Y3874767D01*
X9685680Y3872872D01*
X9688027Y3869052D01*
X9710932Y3856649D01*
X9853788Y3809030D01*
X9855423Y3809075D01*
X9877506Y3805181D01*
X10115601Y3805181D01*
X10133909Y3811845D01*
X10153101Y3815229D01*
X10157451Y3820414D01*
X10163810Y3822728D01*
X10173552Y3839602D01*
X10186078Y3854529D01*
X10187795Y3864272D01*
X10189462Y3867157D01*
X10188883Y3870440D01*
X10190601Y3880181D01*
X10516792Y3880181D01*
X10519163Y3873665D01*
X10517990Y3866829D01*
X10527729Y3850132D01*
X10534339Y3831972D01*
X10540344Y3828505D01*
X10543839Y3822513D01*
X10562030Y3815984D01*
X10578768Y3806320D01*
X10585599Y3807525D01*
X10592126Y3805182D01*
X10610257Y3811873D01*
X10629292Y3815229D01*
X10633749Y3820542D01*
X10640256Y3822942D01*
X10656910Y3842971D01*
X11088220Y4597765D01*
X11088220Y3880181D01*
X11105767Y3831972D01*
X11150196Y3806320D01*
X11200720Y3815229D01*
X11233697Y3854529D01*
X11238220Y3880181D01*
X11238220Y3975420D01*
X11516792Y3975420D01*
X11522391Y3960037D01*
X11523818Y3943725D01*
X11533210Y3930311D01*
X11534339Y3927211D01*
X11536088Y3926202D01*
X11538758Y3922388D01*
X11586377Y3874768D01*
X11590441Y3872873D01*
X11592789Y3869052D01*
X11615694Y3856649D01*
X11758550Y3809030D01*
X11760185Y3809075D01*
X11782268Y3805181D01*
X11877506Y3805181D01*
X11879044Y3805742D01*
X11901223Y3809030D01*
X12044080Y3856649D01*
X12047592Y3859437D01*
X12052059Y3859827D01*
X12073396Y3874767D01*
X12168635Y3970007D01*
X12169326Y3971490D01*
X12182683Y3989498D01*
X12230302Y4084736D01*
X12230708Y4088265D01*
X12235981Y4100087D01*
X12283600Y4290563D01*
X12283239Y4294012D01*
X12285839Y4308753D01*
X12285839Y4451610D01*
X12284653Y4454868D01*
X12283600Y4469800D01*
X12235981Y4660276D01*
X12233992Y4663221D01*
X12230302Y4675627D01*
X12182683Y4770865D01*
X12181496Y4771989D01*
X12168634Y4790357D01*
X12073396Y4885595D01*
X12069332Y4887490D01*
X12066985Y4891311D01*
X12044080Y4903713D01*
X11901223Y4951332D01*
X11899588Y4951288D01*
X11877506Y4955181D01*
X11734649Y4955181D01*
X11730435Y4953648D01*
X11726074Y4954689D01*
X11701108Y4947263D01*
X11605870Y4899644D01*
X11570598Y4862390D01*
X11567523Y4811179D01*
X11598087Y4769974D01*
X11647985Y4758054D01*
X11672952Y4765480D01*
X11752354Y4805181D01*
X11865336Y4805181D01*
X11979849Y4767010D01*
X12053962Y4692897D01*
X12092455Y4615910D01*
X12135839Y4442376D01*
X12135839Y4317987D01*
X12092455Y4144453D01*
X12053961Y4067466D01*
X11979849Y3993353D01*
X11865336Y3955181D01*
X11794438Y3955181D01*
X11679925Y3993352D01*
X11666792Y4006486D01*
X11666792Y4233753D01*
X11782268Y4233753D01*
X11830477Y4251300D01*
X11856129Y4295729D01*
X11847220Y4346253D01*
X11807920Y4379230D01*
X11782268Y4383753D01*
X11591792Y4383753D01*
X11573483Y4377090D01*
X11554292Y4373705D01*
X11549941Y4368521D01*
X11543583Y4366206D01*
X11533840Y4349333D01*
X11521315Y4334405D01*
X11519597Y4324663D01*
X11517931Y4321777D01*
X11518509Y4318495D01*
X11516792Y4308753D01*
X11516792Y3975420D01*
X11238220Y3975420D01*
X11238220Y4880181D01*
X11235847Y4886699D01*
X11237022Y4893534D01*
X11227282Y4910232D01*
X11220673Y4928390D01*
X11214668Y4931858D01*
X11211173Y4937849D01*
X11192981Y4944379D01*
X11176244Y4954042D01*
X11169412Y4952838D01*
X11162886Y4955180D01*
X11144754Y4948490D01*
X11125720Y4945133D01*
X11121262Y4939821D01*
X11114756Y4937420D01*
X11098102Y4917392D01*
X10666792Y4162598D01*
X10666792Y4880181D01*
X10649245Y4928390D01*
X10604816Y4954042D01*
X10554292Y4945133D01*
X10521315Y4905833D01*
X10516792Y4880181D01*
X10516792Y3880181D01*
X10190601Y3880181D01*
X10190601Y4880181D01*
X10183937Y4898490D01*
X10180553Y4917681D01*
X10175368Y4922032D01*
X10173054Y4928390D01*
X10156180Y4938133D01*
X10141253Y4950658D01*
X10131510Y4952376D01*
X10128625Y4954042D01*
X10125342Y4953464D01*
X10115601Y4955181D01*
X9877506Y4955181D01*
X9875968Y4954622D01*
X9853788Y4951332D01*
X9710932Y4903713D01*
X9707421Y4900927D01*
X9702953Y4900536D01*
X9681616Y4885595D01*
X9586378Y4790357D01*
X9585687Y4788876D01*
X9572329Y4770865D01*
X9524710Y4675627D01*
X9524303Y4672099D01*
X9519031Y4660276D01*
X9471412Y4469800D01*
X9471772Y4466352D01*
X9469173Y4451610D01*
X9469173Y4308753D01*
X9326316Y4308753D01*
X9326316Y5098038D01*
X12428696Y5098038D01*
X12428696Y3662324D01*
G37*
G36*
X12379938Y1162324D02*
G01*
X7802535Y1162324D01*
X7802535Y2382230D01*
X7945392Y2382230D01*
X7949213Y2356464D01*
X8282546Y1356464D01*
X8283888Y1354773D01*
X8283947Y1352614D01*
X8299696Y1334853D01*
X8314437Y1316278D01*
X8316550Y1315846D01*
X8317984Y1314229D01*
X8341454Y1310749D01*
X8364698Y1305992D01*
X8366597Y1307021D01*
X8368733Y1306704D01*
X8388946Y1319123D01*
X8409812Y1330421D01*
X8410605Y1332429D01*
X8412445Y1333559D01*
X8424848Y1356464D01*
X8496246Y1570658D01*
X8897745Y1570658D01*
X8899278Y1566445D01*
X8898237Y1562084D01*
X8905663Y1537117D01*
X8953282Y1441879D01*
X8954470Y1440754D01*
X8967330Y1422388D01*
X9014949Y1374768D01*
X9016430Y1374078D01*
X9034442Y1360718D01*
X9129680Y1313099D01*
X9134133Y1312587D01*
X9137569Y1309704D01*
X9163221Y1305181D01*
X9448935Y1305181D01*
X9453148Y1306715D01*
X9457509Y1305673D01*
X9482476Y1313099D01*
X9577714Y1360718D01*
X9578838Y1361906D01*
X9597207Y1374768D01*
X9644825Y1422387D01*
X9650397Y1434336D01*
X9850411Y1434336D01*
X9855453Y1415516D01*
X9857152Y1396104D01*
X9862825Y1388002D01*
X9863688Y1384781D01*
X9866419Y1382869D01*
X9872092Y1374767D01*
X9919711Y1327148D01*
X9937369Y1318915D01*
X9953333Y1307736D01*
X9956749Y1308035D01*
X9959720Y1306320D01*
X9963099Y1306916D01*
X9966207Y1305467D01*
X9985026Y1310510D01*
X10004440Y1312208D01*
X10008253Y1314878D01*
X10010244Y1315229D01*
X10012365Y1317758D01*
X10012542Y1317882D01*
X10015762Y1318744D01*
X10017673Y1321474D01*
X10025777Y1327148D01*
X10073396Y1374767D01*
X10081630Y1392426D01*
X10092807Y1408388D01*
X10092217Y1415131D01*
X10095077Y1421263D01*
X10090034Y1440082D01*
X10088337Y1459495D01*
X10082662Y1467600D01*
X10081800Y1470818D01*
X10079070Y1472730D01*
X10073396Y1480833D01*
X10025778Y1528452D01*
X10008120Y1536686D01*
X9992155Y1547865D01*
X9988738Y1547567D01*
X9985768Y1549281D01*
X9982388Y1548686D01*
X9979281Y1550134D01*
X9960461Y1545092D01*
X9941047Y1543393D01*
X9937233Y1540723D01*
X9935244Y1540372D01*
X9933122Y1537845D01*
X9932944Y1537720D01*
X9929726Y1536857D01*
X9927814Y1534128D01*
X9919710Y1528452D01*
X9872091Y1480832D01*
X9863857Y1463175D01*
X9852680Y1447211D01*
X9853270Y1440468D01*
X9850411Y1434336D01*
X9650397Y1434336D01*
X9666506Y1468884D01*
X9653228Y1518439D01*
X9611203Y1547865D01*
X9560095Y1543393D01*
X9538758Y1528452D01*
X9499745Y1489439D01*
X9431230Y1455181D01*
X9180926Y1455181D01*
X9112410Y1489439D01*
X9082003Y1519847D01*
X9056597Y1570658D01*
X10326316Y1570658D01*
X10327849Y1566445D01*
X10326808Y1562084D01*
X10334234Y1537117D01*
X10381853Y1441879D01*
X10383041Y1440754D01*
X10395901Y1422388D01*
X10443520Y1374768D01*
X10445001Y1374078D01*
X10463013Y1360718D01*
X10558251Y1313099D01*
X10562704Y1312587D01*
X10566140Y1309704D01*
X10591792Y1305181D01*
X10877506Y1305181D01*
X10881719Y1306715D01*
X10886080Y1305673D01*
X10911047Y1313099D01*
X11006285Y1360718D01*
X11007409Y1361906D01*
X11025778Y1374768D01*
X11073396Y1422387D01*
X11095077Y1468884D01*
X11081799Y1518439D01*
X11039774Y1547865D01*
X10988666Y1543393D01*
X10967329Y1528452D01*
X10928316Y1489439D01*
X10859801Y1455181D01*
X10609497Y1455181D01*
X10540981Y1489439D01*
X10510574Y1519847D01*
X10476316Y1588363D01*
X10476316Y1774158D01*
X11327455Y1774158D01*
X11336364Y1723634D01*
X11375664Y1690657D01*
X11401316Y1686134D01*
X11707268Y1686134D01*
X11707268Y1380181D01*
X11724815Y1331972D01*
X11769244Y1306320D01*
X11819768Y1315229D01*
X11852745Y1354529D01*
X11857268Y1380181D01*
X11857268Y1686134D01*
X12163220Y1686134D01*
X12211429Y1703681D01*
X12237081Y1748110D01*
X12228172Y1798634D01*
X12188872Y1831611D01*
X12163220Y1836134D01*
X11857268Y1836134D01*
X11857268Y2142086D01*
X11839721Y2190295D01*
X11795292Y2215947D01*
X11744768Y2207038D01*
X11711791Y2167738D01*
X11707268Y2142086D01*
X11707268Y1836134D01*
X11401316Y1836134D01*
X11353107Y1818587D01*
X11327455Y1774158D01*
X10476316Y1774158D01*
X10476316Y1791048D01*
X10510574Y1859564D01*
X10540981Y1889971D01*
X10609497Y1924229D01*
X10734649Y1924229D01*
X10753648Y1931145D01*
X10773485Y1935067D01*
X10777235Y1939730D01*
X10782858Y1941776D01*
X10792967Y1959286D01*
X10805642Y1975041D01*
X10805518Y1981024D01*
X10808510Y1986205D01*
X10804998Y2006119D01*
X10804580Y2026333D01*
X10800140Y2033667D01*
X10799601Y2036729D01*
X10796931Y2038969D01*
X10791092Y2048617D01*
X10566598Y2305181D01*
X11020363Y2305181D01*
X11068572Y2322728D01*
X11094224Y2367157D01*
X11085315Y2417681D01*
X11046015Y2450658D01*
X11020363Y2455181D01*
X10401316Y2455181D01*
X10382316Y2448266D01*
X10362480Y2444343D01*
X10358729Y2439681D01*
X10353107Y2437634D01*
X10342996Y2420123D01*
X10330323Y2404368D01*
X10330446Y2398387D01*
X10327455Y2393205D01*
X10330966Y2373292D01*
X10331385Y2353077D01*
X10335824Y2345744D01*
X10336364Y2342681D01*
X10339033Y2340442D01*
X10344873Y2330793D01*
X10572568Y2070570D01*
X10558251Y2066311D01*
X10463013Y2018692D01*
X10461887Y2017503D01*
X10443521Y2004643D01*
X10395902Y1957024D01*
X10395211Y1955543D01*
X10381853Y1937532D01*
X10334234Y1842294D01*
X10333721Y1837841D01*
X10330839Y1834405D01*
X10326316Y1808753D01*
X10326316Y1570658D01*
X9056597Y1570658D01*
X9047745Y1588363D01*
X9047745Y1791048D01*
X9082003Y1859564D01*
X9112410Y1889971D01*
X9180926Y1924229D01*
X9306078Y1924229D01*
X9325077Y1931145D01*
X9344914Y1935067D01*
X9348664Y1939730D01*
X9354287Y1941776D01*
X9364396Y1959286D01*
X9377071Y1975041D01*
X9376947Y1981024D01*
X9379939Y1986205D01*
X9376427Y2006119D01*
X9376009Y2026333D01*
X9371569Y2033667D01*
X9371030Y2036729D01*
X9368360Y2038969D01*
X9362521Y2048617D01*
X9138027Y2305181D01*
X9591792Y2305181D01*
X9640001Y2322728D01*
X9665653Y2367157D01*
X9656744Y2417681D01*
X9617444Y2450658D01*
X9591792Y2455181D01*
X8972745Y2455181D01*
X8953745Y2448266D01*
X8933909Y2444343D01*
X8930158Y2439681D01*
X8924536Y2437634D01*
X8914425Y2420123D01*
X8901752Y2404368D01*
X8901875Y2398387D01*
X8898884Y2393205D01*
X8902395Y2373292D01*
X8902814Y2353077D01*
X8907253Y2345744D01*
X8907793Y2342681D01*
X8910462Y2340442D01*
X8916302Y2330793D01*
X9143997Y2070570D01*
X9129680Y2066311D01*
X9034442Y2018692D01*
X9033316Y2017503D01*
X9014950Y2004643D01*
X8967331Y1957024D01*
X8966640Y1955543D01*
X8953282Y1937532D01*
X8905663Y1842294D01*
X8905150Y1837841D01*
X8902268Y1834405D01*
X8897745Y1808753D01*
X8897745Y1570658D01*
X8496246Y1570658D01*
X8758181Y2356464D01*
X8756780Y2407747D01*
X8722742Y2446133D01*
X8671994Y2453658D01*
X8628281Y2426803D01*
X8615879Y2403898D01*
X8353697Y1617352D01*
X8091515Y2403898D01*
X8059624Y2444084D01*
X8009363Y2454370D01*
X7964249Y2429941D01*
X7945392Y2382230D01*
X7802535Y2382230D01*
X7802535Y2598038D01*
X12379938Y2598038D01*
X12379938Y1162324D01*
G37*
M02*
