%TF.GenerationSoftware,KiCad,Pcbnew,7.0.10*%
%TF.CreationDate,2024-02-19T11:00:08+07:00*%
%TF.ProjectId,PMODP2PSRAM,504d4f44-5032-4505-9352-414d2e6b6963,rev?*%
%TF.SameCoordinates,PX8c6db50PY50d2eb0*%
%TF.FileFunction,Copper,L2,Bot*%
%TF.FilePolarity,Positive*%
%FSLAX46Y46*%
G04 Gerber Fmt 4.6, Leading zero omitted, Abs format (unit mm)*
G04 Created by KiCad (PCBNEW 7.0.10) date 2024-02-19 11:00:08*
%MOMM*%
%LPD*%
G01*
G04 APERTURE LIST*
%TA.AperFunction,ComponentPad*%
%ADD10O,1.700000X1.700000*%
%TD*%
%TA.AperFunction,ComponentPad*%
%ADD11R,1.700000X1.700000*%
%TD*%
%TA.AperFunction,ViaPad*%
%ADD12C,1.000000*%
%TD*%
G04 APERTURE END LIST*
D10*
%TO.P,J1,12,Pin_12*%
%TO.N,unconnected-(J1-Pin_12-Pad12)*%
X4000000Y14540000D03*
%TO.P,J1,11,Pin_11*%
%TO.N,CE*%
X6540000Y14540000D03*
%TO.P,J1,10,Pin_10*%
%TO.N,IO1*%
X4000000Y12000000D03*
%TO.P,J1,9,Pin_9*%
%TO.N,IO2*%
X6540000Y12000000D03*
%TO.P,J1,8,Pin_8*%
%TO.N,IO0*%
X4000000Y9460000D03*
%TO.P,J1,7,Pin_7*%
%TO.N,SCLK*%
X6540000Y9460000D03*
%TO.P,J1,6,Pin_6*%
%TO.N,IO3*%
X4000000Y6920000D03*
%TO.P,J1,5,Pin_5*%
%TO.N,unconnected-(J1-Pin_5-Pad5)*%
X6540000Y6920000D03*
%TO.P,J1,4,Pin_4*%
%TO.N,GND*%
X4000000Y4380000D03*
%TO.P,J1,3,Pin_3*%
X6540000Y4380000D03*
%TO.P,J1,2,Pin_2*%
%TO.N,+3.3V*%
X4000000Y1840000D03*
D11*
%TO.P,J1,1,Pin_1*%
X6540000Y1840000D03*
%TD*%
D12*
%TO.N,GND*%
X15750000Y5000000D03*
X13500000Y8000000D03*
X12000000Y8000000D03*
X13500000Y12000000D03*
X12000000Y12000000D03*
X15750000Y6750000D03*
%TD*%
%TA.AperFunction,Conductor*%
%TO.N,GND*%
G36*
X17760819Y16248554D02*
G01*
X17794309Y16245624D01*
X17796579Y16245413D01*
X17911576Y16234086D01*
X17951589Y16226805D01*
X18004416Y16212651D01*
X18012189Y16210431D01*
X18093068Y16185897D01*
X18126015Y16173291D01*
X18180780Y16147754D01*
X18192899Y16141694D01*
X18262427Y16104529D01*
X18287864Y16088903D01*
X18338980Y16053112D01*
X18354125Y16041622D01*
X18404232Y16000500D01*
X18413698Y15992732D01*
X18431805Y15976322D01*
X18476320Y15931807D01*
X18492730Y15913700D01*
X18541620Y15854127D01*
X18553110Y15838982D01*
X18588901Y15787866D01*
X18604527Y15762429D01*
X18641692Y15692901D01*
X18647768Y15680749D01*
X18673289Y15626017D01*
X18685895Y15593070D01*
X18710417Y15512233D01*
X18712654Y15504398D01*
X18726801Y15451602D01*
X18734087Y15411560D01*
X18745389Y15296804D01*
X18745640Y15294108D01*
X18748552Y15260835D01*
X18749500Y15239126D01*
X18749500Y4349000D01*
X18730546Y4253712D01*
X18676570Y4172930D01*
X18595788Y4118954D01*
X18500500Y4100000D01*
X8016450Y4100000D01*
X7921162Y4118954D01*
X7904630Y4130000D01*
X6973686Y4130000D01*
X6999493Y4170156D01*
X7040000Y4308111D01*
X7040000Y4451889D01*
X6999493Y4589844D01*
X6973686Y4630000D01*
X7870636Y4630000D01*
X7870635Y4630001D01*
X7858485Y4675348D01*
X7850000Y4739795D01*
X7850000Y6558273D01*
X7858484Y6622717D01*
X7861633Y6634474D01*
X7875063Y6684592D01*
X7895659Y6920000D01*
X7895659Y6920006D01*
X7875064Y7155402D01*
X7875063Y7155404D01*
X7875063Y7155408D01*
X7858484Y7217284D01*
X7850000Y7281727D01*
X7850000Y9098273D01*
X7858484Y9162717D01*
X7861633Y9174474D01*
X7875063Y9224592D01*
X7895659Y9460000D01*
X7895659Y9460006D01*
X7875064Y9695402D01*
X7875063Y9695404D01*
X7875063Y9695408D01*
X7858484Y9757284D01*
X7850000Y9821727D01*
X7850000Y11638273D01*
X7858484Y11702717D01*
X7861633Y11714474D01*
X7875063Y11764592D01*
X7895659Y12000000D01*
X7895659Y12000006D01*
X7875064Y12235402D01*
X7875063Y12235404D01*
X7875063Y12235408D01*
X7858484Y12297284D01*
X7850000Y12361727D01*
X7850000Y14178273D01*
X7858484Y14242717D01*
X7861633Y14254474D01*
X7875063Y14304592D01*
X7895659Y14540000D01*
X7895659Y14540006D01*
X7875064Y14775402D01*
X7875063Y14775404D01*
X7875063Y14775408D01*
X7858484Y14837284D01*
X7850000Y14901727D01*
X7850000Y16000500D01*
X7868954Y16095788D01*
X7922930Y16176570D01*
X8003712Y16230546D01*
X8099000Y16249500D01*
X17739133Y16249500D01*
X17760819Y16248554D01*
G37*
%TD.AperFunction*%
%TA.AperFunction,Conductor*%
G36*
X6080507Y4589844D02*
G01*
X6040000Y4451889D01*
X6040000Y4308111D01*
X6080507Y4170156D01*
X6106314Y4130000D01*
X4433686Y4130000D01*
X4459493Y4170156D01*
X4500000Y4308111D01*
X4500000Y4451889D01*
X4459493Y4589844D01*
X4433686Y4630000D01*
X6106314Y4630000D01*
X6080507Y4589844D01*
G37*
%TD.AperFunction*%
%TD*%
M02*
