%TF.GenerationSoftware,KiCad,Pcbnew,7.0.10*%
%TF.CreationDate,2024-02-19T15:37:38+07:00*%
%TF.ProjectId,PMOD2VGA,504d4f44-3256-4474-912e-6b696361645f,rev?*%
%TF.SameCoordinates,PX8c6db50PY50d2eb0*%
%TF.FileFunction,Copper,L2,Bot*%
%TF.FilePolarity,Positive*%
%FSLAX46Y46*%
G04 Gerber Fmt 4.6, Leading zero omitted, Abs format (unit mm)*
G04 Created by KiCad (PCBNEW 7.0.10) date 2024-02-19 15:37:38*
%MOMM*%
%LPD*%
G01*
G04 APERTURE LIST*
%TA.AperFunction,ComponentPad*%
%ADD10C,4.000000*%
%TD*%
%TA.AperFunction,ComponentPad*%
%ADD11R,1.600000X1.600000*%
%TD*%
%TA.AperFunction,ComponentPad*%
%ADD12C,1.600000*%
%TD*%
%TA.AperFunction,ComponentPad*%
%ADD13R,1.700000X1.700000*%
%TD*%
%TA.AperFunction,ComponentPad*%
%ADD14O,1.700000X1.700000*%
%TD*%
%TA.AperFunction,ViaPad*%
%ADD15C,1.000000*%
%TD*%
%TA.AperFunction,Conductor*%
%ADD16C,0.300000*%
%TD*%
G04 APERTURE END LIST*
D10*
%TO.P,J2,0*%
%TO.N,GND*%
X43815000Y10840000D03*
X18815000Y10840000D03*
D11*
%TO.P,J2,1*%
%TO.N,Net-(J2-Pad1)*%
X27000000Y8790000D03*
D12*
%TO.P,J2,2*%
%TO.N,Net-(J2-Pad2)*%
X29290000Y8790000D03*
%TO.P,J2,3*%
%TO.N,Net-(J2-Pad3)*%
X31580000Y8790000D03*
%TO.P,J2,4*%
%TO.N,unconnected-(J2-Pad4)*%
X33870000Y8790000D03*
%TO.P,J2,5*%
%TO.N,GND*%
X36160000Y8790000D03*
%TO.P,J2,6*%
X25855000Y10770000D03*
%TO.P,J2,7*%
X28145000Y10770000D03*
%TO.P,J2,8*%
X30435000Y10770000D03*
%TO.P,J2,9*%
%TO.N,unconnected-(J2-Pad9)*%
X32725000Y10770000D03*
%TO.P,J2,10*%
%TO.N,GND*%
X35015000Y10770000D03*
%TO.P,J2,11*%
%TO.N,unconnected-(J2-Pad11)*%
X27000000Y12750000D03*
%TO.P,J2,12*%
%TO.N,unconnected-(J2-Pad12)*%
X29290000Y12750000D03*
%TO.P,J2,13*%
%TO.N,Hsync*%
X31580000Y12750000D03*
%TO.P,J2,14*%
%TO.N,Vsync*%
X33870000Y12750000D03*
%TO.P,J2,15*%
%TO.N,unconnected-(J2-Pad15)*%
X36160000Y12750000D03*
%TD*%
D13*
%TO.P,J1,1,Pin_1*%
%TO.N,+3.3V*%
X6540000Y1840000D03*
D14*
%TO.P,J1,2,Pin_2*%
X4000000Y1840000D03*
%TO.P,J1,3,Pin_3*%
%TO.N,GND*%
X6540000Y4380000D03*
%TO.P,J1,4,Pin_4*%
X4000000Y4380000D03*
%TO.P,J1,5,Pin_5*%
%TO.N,Hsync*%
X6540000Y6920000D03*
%TO.P,J1,6,Pin_6*%
%TO.N,Vsync*%
X4000000Y6920000D03*
%TO.P,J1,7,Pin_7*%
%TO.N,BLUE_1*%
X6540000Y9460000D03*
%TO.P,J1,8,Pin_8*%
%TO.N,BLUE_0*%
X4000000Y9460000D03*
%TO.P,J1,9,Pin_9*%
%TO.N,GREEN_1*%
X6540000Y12000000D03*
%TO.P,J1,10,Pin_10*%
%TO.N,GREEN_0*%
X4000000Y12000000D03*
%TO.P,J1,11,Pin_11*%
%TO.N,RED_1*%
X6540000Y14540000D03*
%TO.P,J1,12,Pin_12*%
%TO.N,RED_0*%
X4000000Y14540000D03*
%TD*%
D15*
%TO.N,GND*%
X15000000Y1250000D03*
X46000000Y3500000D03*
X29000000Y1250000D03*
X26250000Y1250000D03*
X34750000Y1250000D03*
X21750000Y5750000D03*
X43250000Y1250000D03*
X23250000Y1250000D03*
X23750000Y5750000D03*
X19750000Y5750000D03*
X46000000Y5750000D03*
X17750000Y5750000D03*
X40250000Y1250000D03*
X46000000Y1250000D03*
X20750000Y1250000D03*
X37500000Y1250000D03*
X31750000Y1250000D03*
X25750000Y5750000D03*
X18000000Y1250000D03*
%TD*%
D16*
%TO.N,Hsync*%
X11650000Y14000000D02*
X8750000Y11100000D01*
X8750000Y8550000D02*
X7120000Y6920000D01*
X31500000Y12750000D02*
X30250000Y14000000D01*
X30250000Y14000000D02*
X11650000Y14000000D01*
X7120000Y6920000D02*
X6540000Y6920000D01*
X8750000Y11100000D02*
X8750000Y8550000D01*
X31580000Y12750000D02*
X31500000Y12750000D01*
%TO.N,Vsync*%
X33850000Y12750000D02*
X32000000Y14600000D01*
X33870000Y12750000D02*
X33850000Y12750000D01*
X32000000Y14600000D02*
X11300000Y14600000D01*
X5280000Y8200000D02*
X4000000Y6920000D01*
X11300000Y14600000D02*
X8150000Y11450000D01*
X7500000Y8200000D02*
X5280000Y8200000D01*
X8150000Y8850000D02*
X7500000Y8200000D01*
X8150000Y11450000D02*
X8150000Y8850000D01*
%TD*%
%TA.AperFunction,Conductor*%
%TO.N,Vsync*%
G36*
X32844936Y13967978D02*
G01*
X32978845Y13846763D01*
X33038807Y13804792D01*
X33106254Y13757581D01*
X33106258Y13757579D01*
X33106261Y13757577D01*
X33223779Y13699746D01*
X33336235Y13665135D01*
X33336236Y13665134D01*
X33336237Y13665134D01*
X33336243Y13665132D01*
X33448495Y13645593D01*
X33565382Y13632989D01*
X33565383Y13632989D01*
X33691436Y13619213D01*
X33692050Y13619129D01*
X33831944Y13596102D01*
X33832921Y13595897D01*
X33991732Y13555518D01*
X33992814Y13555186D01*
X34164625Y13493257D01*
X34171246Y13487228D01*
X34171665Y13478283D01*
X34171473Y13477785D01*
X33872562Y12753788D01*
X33866237Y12747449D01*
X33866212Y12747438D01*
X33142173Y12448509D01*
X33133218Y12448520D01*
X33126893Y12454859D01*
X33126716Y12455316D01*
X33064674Y12625465D01*
X33064362Y12626456D01*
X33032067Y12747449D01*
X33022479Y12783370D01*
X33022280Y12784251D01*
X32996758Y12922055D01*
X32996670Y12922602D01*
X32979749Y13046412D01*
X32975629Y13075819D01*
X32963693Y13161028D01*
X32940762Y13271029D01*
X32903168Y13381346D01*
X32843125Y13496892D01*
X32752849Y13622578D01*
X32752845Y13622583D01*
X32752841Y13622588D01*
X32752840Y13622589D01*
X32632079Y13755060D01*
X32629037Y13763482D01*
X32632451Y13771214D01*
X32828814Y13967577D01*
X32837086Y13971003D01*
X32844936Y13967978D01*
G37*
%TD.AperFunction*%
%TD*%
%TA.AperFunction,Conductor*%
%TO.N,Hsync*%
G36*
X30530899Y13932099D02*
G01*
X30666287Y13810921D01*
X30795727Y13724067D01*
X30795728Y13724067D01*
X30795729Y13724066D01*
X30915682Y13670241D01*
X30915683Y13670241D01*
X30915687Y13670239D01*
X31030884Y13640759D01*
X31146034Y13626945D01*
X31265854Y13620119D01*
X31394703Y13611626D01*
X31395411Y13611556D01*
X31537795Y13592788D01*
X31538932Y13592580D01*
X31699859Y13554921D01*
X31701095Y13554559D01*
X31756946Y13534804D01*
X31874533Y13493212D01*
X31881188Y13487224D01*
X31881660Y13478281D01*
X31881445Y13477718D01*
X31582562Y12753788D01*
X31576237Y12747449D01*
X31576212Y12747438D01*
X30852114Y12448485D01*
X30843159Y12448496D01*
X30836834Y12454835D01*
X30836690Y12455202D01*
X30774880Y12622020D01*
X30774609Y12622849D01*
X30730935Y12776188D01*
X30730758Y12776892D01*
X30701980Y12911046D01*
X30701915Y12911380D01*
X30689415Y12982473D01*
X30680828Y13031315D01*
X30680806Y13031430D01*
X30660185Y13142047D01*
X30632794Y13248205D01*
X30591389Y13354830D01*
X30528713Y13466907D01*
X30437509Y13589419D01*
X30434476Y13592713D01*
X30318124Y13719089D01*
X30315041Y13727497D01*
X30318457Y13735286D01*
X30514825Y13931654D01*
X30523097Y13935080D01*
X30530899Y13932099D01*
G37*
%TD.AperFunction*%
%TD*%
%TA.AperFunction,Conductor*%
%TO.N,GND*%
G36*
X46596288Y15731046D02*
G01*
X46677070Y15677070D01*
X46731046Y15596288D01*
X46750000Y15501000D01*
X46750000Y12649000D01*
X46731046Y12553712D01*
X46677070Y12472930D01*
X46596288Y12418954D01*
X46501000Y12400000D01*
X45886218Y12400000D01*
X45790930Y12418954D01*
X45788820Y12420364D01*
X45750713Y12422161D01*
X45112733Y11784182D01*
X44949870Y11974870D01*
X44759178Y12137735D01*
X45400026Y12778582D01*
X45157222Y12954990D01*
X45157217Y12954993D01*
X44881550Y13106541D01*
X44589062Y13222345D01*
X44284384Y13300573D01*
X44284379Y13300574D01*
X43972282Y13340000D01*
X43657718Y13340000D01*
X43345620Y13300574D01*
X43345615Y13300573D01*
X43040937Y13222345D01*
X42748449Y13106541D01*
X42472789Y12954996D01*
X42229972Y12778582D01*
X42870820Y12137734D01*
X42680130Y11974870D01*
X42517266Y11784180D01*
X41879285Y12422161D01*
X41788460Y12312370D01*
X41619904Y12046770D01*
X41619902Y12046767D01*
X41485961Y11762128D01*
X41388755Y11462959D01*
X41329809Y11153956D01*
X41310057Y10840000D01*
X41329809Y10526045D01*
X41388755Y10217042D01*
X41485961Y9917873D01*
X41619902Y9633234D01*
X41619904Y9633231D01*
X41788457Y9367633D01*
X41879285Y9257842D01*
X42517264Y9895822D01*
X42680130Y9705130D01*
X42870818Y9542267D01*
X42229972Y8901420D01*
X42472783Y8725007D01*
X42748449Y8573460D01*
X43040937Y8457656D01*
X43345615Y8379428D01*
X43345620Y8379427D01*
X43657718Y8340000D01*
X43972282Y8340000D01*
X44284379Y8379427D01*
X44284384Y8379428D01*
X44589062Y8457656D01*
X44881550Y8573460D01*
X45157216Y8725007D01*
X45400026Y8901420D01*
X44759179Y9542267D01*
X44949870Y9705130D01*
X45112733Y9895821D01*
X45750713Y9257841D01*
X45771198Y9258807D01*
X45786249Y9271059D01*
X45879331Y9298895D01*
X45902760Y9300000D01*
X46501000Y9300000D01*
X46596288Y9281046D01*
X46677070Y9227070D01*
X46731046Y9146288D01*
X46750000Y9051000D01*
X46750000Y749000D01*
X46731046Y653712D01*
X46677070Y572930D01*
X46596288Y518954D01*
X46501000Y500000D01*
X8149000Y500000D01*
X8053712Y518954D01*
X7972930Y572930D01*
X7918954Y653712D01*
X7900000Y749000D01*
X7900000Y4099999D01*
X7900000Y4100000D01*
X7899999Y4100000D01*
X7884273Y4115726D01*
X7867357Y4135016D01*
X7854605Y4137553D01*
X7813739Y4130000D01*
X6973686Y4130000D01*
X6999493Y4170156D01*
X7040000Y4308111D01*
X7040000Y4451889D01*
X6999493Y4589844D01*
X6973686Y4630000D01*
X7811845Y4630000D01*
X7853949Y4621625D01*
X7883331Y4627264D01*
X7900000Y4641882D01*
X7900000Y6396797D01*
X7918954Y6492085D01*
X7928902Y6513236D01*
X7990200Y6629085D01*
X7996043Y6640474D01*
X7996302Y6640995D01*
X8001671Y6652134D01*
X8099925Y6862542D01*
X8105406Y6873556D01*
X8144705Y6947828D01*
X8155051Y6965568D01*
X8200997Y7037357D01*
X8214321Y7056189D01*
X8282974Y7144267D01*
X8296819Y7160536D01*
X8415161Y7288048D01*
X8444097Y7322133D01*
X8444098Y7322136D01*
X8448864Y7327749D01*
X8462606Y7342662D01*
X9141144Y8021200D01*
X9158490Y8036981D01*
X9167931Y8044793D01*
X9167940Y8044798D01*
X9214527Y8094410D01*
X9219945Y8100000D01*
X9238908Y8118962D01*
X9241913Y8122372D01*
X9253238Y8135632D01*
X9254773Y8137266D01*
X9280448Y8164607D01*
X9285929Y8174579D01*
X9307384Y8207242D01*
X9314362Y8216236D01*
X9330154Y8252732D01*
X9340471Y8273789D01*
X9347165Y8285965D01*
X9359627Y8308632D01*
X9362461Y8319671D01*
X9375114Y8356629D01*
X9379635Y8367074D01*
X9385853Y8406335D01*
X9390610Y8429305D01*
X9392444Y8436447D01*
X9400500Y8467823D01*
X9400500Y8479213D01*
X9403566Y8518167D01*
X9405346Y8529405D01*
X9401605Y8568983D01*
X9400500Y8592414D01*
X9400500Y10727414D01*
X9419454Y10822702D01*
X9473430Y10903484D01*
X11846516Y13276570D01*
X11927298Y13330546D01*
X12022586Y13349500D01*
X17001000Y13349500D01*
X17096288Y13330546D01*
X17177070Y13276570D01*
X17231046Y13195788D01*
X17250000Y13100500D01*
X17250000Y12920004D01*
X17235276Y12845984D01*
X17229971Y12778583D01*
X17870820Y12137734D01*
X17680130Y11974870D01*
X17517266Y11784180D01*
X16879285Y12422161D01*
X16788460Y12312370D01*
X16619904Y12046770D01*
X16619902Y12046767D01*
X16485961Y11762128D01*
X16388755Y11462959D01*
X16329809Y11153956D01*
X16310057Y10840000D01*
X16329809Y10526045D01*
X16388755Y10217042D01*
X16485961Y9917873D01*
X16619902Y9633234D01*
X16619904Y9633231D01*
X16788457Y9367633D01*
X16879285Y9257842D01*
X17517264Y9895822D01*
X17680130Y9705130D01*
X17870818Y9542267D01*
X17229972Y8901420D01*
X17472783Y8725007D01*
X17748449Y8573460D01*
X18040937Y8457656D01*
X18345615Y8379428D01*
X18345620Y8379427D01*
X18657718Y8340000D01*
X18972282Y8340000D01*
X19284379Y8379427D01*
X19284384Y8379428D01*
X19589062Y8457656D01*
X19881550Y8573460D01*
X20157216Y8725007D01*
X20400026Y8901420D01*
X19759179Y9542267D01*
X19949870Y9705130D01*
X20112733Y9895821D01*
X20750713Y9257841D01*
X20841542Y9367634D01*
X21010095Y9633231D01*
X21010097Y9633234D01*
X21144038Y9917873D01*
X21241244Y10217042D01*
X21300190Y10526045D01*
X21319942Y10840000D01*
X21300190Y11153956D01*
X21241244Y11462959D01*
X21144038Y11762128D01*
X21010097Y12046767D01*
X21010095Y12046770D01*
X20841542Y12312368D01*
X20750712Y12422161D01*
X20112732Y11784182D01*
X19949870Y11974870D01*
X19759179Y12137735D01*
X20400027Y12778582D01*
X20398419Y12799013D01*
X20386692Y12811699D01*
X20353065Y12902849D01*
X20350000Y12941799D01*
X20350000Y13100500D01*
X20368954Y13195788D01*
X20422930Y13276570D01*
X20503712Y13330546D01*
X20599000Y13349500D01*
X24901000Y13349500D01*
X24996288Y13330546D01*
X25077070Y13276570D01*
X25131046Y13195788D01*
X25150000Y13100500D01*
X25150000Y11992989D01*
X25135936Y11922290D01*
X25129525Y11849027D01*
X25722465Y11256087D01*
X25712685Y11254680D01*
X25581900Y11194952D01*
X25473239Y11100798D01*
X25395507Y10979844D01*
X25371922Y10899524D01*
X24775973Y11495473D01*
X24775972Y11495473D01*
X24724870Y11422490D01*
X24724867Y11422486D01*
X24628732Y11216324D01*
X24569859Y10996604D01*
X24569859Y10996603D01*
X24550034Y10770000D01*
X24569859Y10543398D01*
X24569859Y10543397D01*
X24628732Y10323677D01*
X24724867Y10117514D01*
X24724869Y10117512D01*
X24775972Y10044529D01*
X24775974Y10044529D01*
X25371922Y10640477D01*
X25395507Y10560156D01*
X25473239Y10439202D01*
X25581900Y10345048D01*
X25712685Y10285320D01*
X25722463Y10283914D01*
X25129527Y9690977D01*
X25129527Y9690975D01*
X25202515Y9639868D01*
X25408678Y9543732D01*
X25514944Y9515259D01*
X25602080Y9472289D01*
X25666139Y9399245D01*
X25697370Y9307246D01*
X25699500Y9274743D01*
X25699500Y7942135D01*
X25699501Y7942131D01*
X25705908Y7882520D01*
X25705909Y7882516D01*
X25756203Y7747671D01*
X25756204Y7747669D01*
X25842454Y7632454D01*
X25957669Y7546204D01*
X26092517Y7495909D01*
X26152127Y7489500D01*
X27847872Y7489501D01*
X27907483Y7495909D01*
X28042331Y7546204D01*
X28157546Y7632454D01*
X28191217Y7677434D01*
X28263493Y7742355D01*
X28355114Y7774677D01*
X28452129Y7769476D01*
X28533370Y7732180D01*
X28637266Y7659432D01*
X28637270Y7659430D01*
X28637272Y7659429D01*
X28695116Y7632456D01*
X28843504Y7563261D01*
X29063308Y7504365D01*
X29082984Y7502644D01*
X29289994Y7484532D01*
X29290000Y7484532D01*
X29290006Y7484532D01*
X29469668Y7500251D01*
X29516692Y7504365D01*
X29736496Y7563261D01*
X29942734Y7659432D01*
X30129139Y7789953D01*
X30258933Y7919748D01*
X30339712Y7973721D01*
X30435000Y7992675D01*
X30530288Y7973721D01*
X30611066Y7919748D01*
X30740861Y7789953D01*
X30740864Y7789951D01*
X30740865Y7789950D01*
X30927258Y7659437D01*
X30927262Y7659435D01*
X30927266Y7659432D01*
X30927270Y7659431D01*
X30927272Y7659429D01*
X30985116Y7632456D01*
X31133504Y7563261D01*
X31353308Y7504365D01*
X31372984Y7502644D01*
X31579994Y7484532D01*
X31580000Y7484532D01*
X31580006Y7484532D01*
X31759668Y7500251D01*
X31806692Y7504365D01*
X32026496Y7563261D01*
X32232734Y7659432D01*
X32419139Y7789953D01*
X32548933Y7919748D01*
X32629712Y7973721D01*
X32725000Y7992675D01*
X32820288Y7973721D01*
X32901066Y7919748D01*
X33030861Y7789953D01*
X33030864Y7789951D01*
X33030865Y7789950D01*
X33217258Y7659437D01*
X33217262Y7659435D01*
X33217266Y7659432D01*
X33217270Y7659431D01*
X33217272Y7659429D01*
X33275116Y7632456D01*
X33423504Y7563261D01*
X33643308Y7504365D01*
X33662984Y7502644D01*
X33869994Y7484532D01*
X33870000Y7484532D01*
X33870006Y7484532D01*
X34049668Y7500251D01*
X34096692Y7504365D01*
X34316496Y7563261D01*
X34522734Y7659432D01*
X34709139Y7789953D01*
X34870047Y7950861D01*
X34874757Y7957589D01*
X34944935Y8024774D01*
X35035483Y8059990D01*
X35078305Y8061860D01*
X35676922Y8660477D01*
X35700507Y8580156D01*
X35778239Y8459202D01*
X35886900Y8365048D01*
X36017685Y8305320D01*
X36027465Y8303914D01*
X35434527Y7710977D01*
X35434527Y7710975D01*
X35507515Y7659868D01*
X35713676Y7563733D01*
X35933396Y7504860D01*
X36160000Y7485035D01*
X36386602Y7504860D01*
X36386603Y7504860D01*
X36606326Y7563734D01*
X36812476Y7659863D01*
X36812483Y7659867D01*
X36885471Y7710975D01*
X36292532Y8303914D01*
X36302315Y8305320D01*
X36433100Y8365048D01*
X36541761Y8459202D01*
X36619493Y8580156D01*
X36643077Y8660477D01*
X37239025Y8064529D01*
X37290133Y8137517D01*
X37290137Y8137524D01*
X37386266Y8343674D01*
X37445140Y8563397D01*
X37445140Y8563398D01*
X37464965Y8790000D01*
X37445140Y9016603D01*
X37445140Y9016604D01*
X37386267Y9236324D01*
X37290132Y9442485D01*
X37239025Y9515473D01*
X37239023Y9515473D01*
X36643076Y8919526D01*
X36619493Y8999844D01*
X36541761Y9120798D01*
X36433100Y9214952D01*
X36302315Y9274680D01*
X36292533Y9276087D01*
X36885473Y9869028D01*
X36882117Y9907388D01*
X36853782Y9980253D01*
X36850000Y10023488D01*
X36850000Y11515904D01*
X36868954Y11611192D01*
X36922930Y11691974D01*
X36956181Y11719874D01*
X36999139Y11749953D01*
X37160047Y11910861D01*
X37290568Y12097266D01*
X37386739Y12303504D01*
X37445635Y12523308D01*
X37456632Y12649000D01*
X37465468Y12749995D01*
X37465468Y12750006D01*
X37450948Y12915965D01*
X37450000Y12937667D01*
X37450000Y15501000D01*
X37468954Y15596288D01*
X37522930Y15677070D01*
X37603712Y15731046D01*
X37699000Y15750000D01*
X46501000Y15750000D01*
X46596288Y15731046D01*
G37*
%TD.AperFunction*%
%TA.AperFunction,Conductor*%
G36*
X6080507Y4589844D02*
G01*
X6040000Y4451889D01*
X6040000Y4308111D01*
X6080507Y4170156D01*
X6106314Y4130000D01*
X4433686Y4130000D01*
X4459493Y4170156D01*
X4500000Y4308111D01*
X4500000Y4451889D01*
X4459493Y4589844D01*
X4433686Y4630000D01*
X6106314Y4630000D01*
X6080507Y4589844D01*
G37*
%TD.AperFunction*%
%TD*%
%TA.AperFunction,Conductor*%
%TO.N,Hsync*%
G36*
X7847912Y7844576D02*
G01*
X8044339Y7648149D01*
X8047766Y7639876D01*
X8044642Y7631917D01*
X7904229Y7480622D01*
X7794111Y7339347D01*
X7794105Y7339338D01*
X7712486Y7211813D01*
X7712480Y7211803D01*
X7649831Y7093401D01*
X7649828Y7093395D01*
X7596675Y6979569D01*
X7566925Y6915861D01*
X7543649Y6866018D01*
X7543390Y6865497D01*
X7481094Y6747760D01*
X7480606Y6746925D01*
X7399535Y6620257D01*
X7398909Y6619371D01*
X7289434Y6478921D01*
X7288782Y6478155D01*
X7149292Y6327851D01*
X7141152Y6324118D01*
X7132757Y6327234D01*
X7132453Y6327527D01*
X6542734Y6915861D01*
X6539297Y6924130D01*
X6539297Y6924154D01*
X6539759Y7480615D01*
X6539973Y7737811D01*
X6543407Y7746080D01*
X6551673Y7749500D01*
X6785859Y7749500D01*
X6787715Y7749352D01*
X6796742Y7747902D01*
X6880716Y7734411D01*
X6881555Y7734242D01*
X7020875Y7700768D01*
X7021184Y7700689D01*
X7146409Y7666320D01*
X7261634Y7638430D01*
X7371135Y7624357D01*
X7471786Y7630915D01*
X7479327Y7631406D01*
X7590618Y7666878D01*
X7590618Y7666879D01*
X7590621Y7666879D01*
X7709434Y7738080D01*
X7831942Y7845115D01*
X7840426Y7847977D01*
X7847912Y7844576D01*
G37*
%TD.AperFunction*%
%TD*%
%TA.AperFunction,Conductor*%
%TO.N,Vsync*%
G36*
X5103893Y8220269D02*
G01*
X5300268Y8023894D01*
X5303695Y8015621D01*
X5300663Y8007762D01*
X5233654Y7933856D01*
X5171222Y7864999D01*
X5171219Y7864996D01*
X5171219Y7864995D01*
X5171211Y7864986D01*
X5075985Y7729759D01*
X5075984Y7729757D01*
X5013855Y7605116D01*
X5013854Y7605112D01*
X4976254Y7485899D01*
X4976254Y7485898D01*
X4954600Y7366920D01*
X4940318Y7243031D01*
X4940318Y7243027D01*
X4924861Y7109338D01*
X4924774Y7108728D01*
X4899624Y6960246D01*
X4899419Y6959286D01*
X4856033Y6790595D01*
X4855705Y6789532D01*
X4789456Y6606227D01*
X4783422Y6599611D01*
X4774476Y6599201D01*
X4773987Y6599390D01*
X4003785Y6917438D01*
X3997447Y6923762D01*
X3679389Y7693989D01*
X3679398Y7702944D01*
X3685737Y7709269D01*
X3686181Y7709441D01*
X3869536Y7775710D01*
X3870584Y7776033D01*
X4039288Y7819424D01*
X4040238Y7819626D01*
X4188762Y7844782D01*
X4189299Y7844858D01*
X4323025Y7860320D01*
X4446919Y7874602D01*
X4565889Y7896255D01*
X4565895Y7896257D01*
X4565896Y7896257D01*
X4613234Y7911188D01*
X4685110Y7933856D01*
X4809754Y7995986D01*
X4944998Y8091223D01*
X5087762Y8220665D01*
X5096192Y8223682D01*
X5103893Y8220269D01*
G37*
%TD.AperFunction*%
%TD*%
M02*
