%TF.GenerationSoftware,KiCad,Pcbnew,7.0.10*%
%TF.CreationDate,2024-02-19T15:37:38+07:00*%
%TF.ProjectId,PMOD2VGA,504d4f44-3256-4474-912e-6b696361645f,rev?*%
%TF.SameCoordinates,PX8c6db50PY50d2eb0*%
%TF.FileFunction,Copper,L1,Top*%
%TF.FilePolarity,Positive*%
%FSLAX46Y46*%
G04 Gerber Fmt 4.6, Leading zero omitted, Abs format (unit mm)*
G04 Created by KiCad (PCBNEW 7.0.10) date 2024-02-19 15:37:38*
%MOMM*%
%LPD*%
G01*
G04 APERTURE LIST*
G04 Aperture macros list*
%AMRoundRect*
0 Rectangle with rounded corners*
0 $1 Rounding radius*
0 $2 $3 $4 $5 $6 $7 $8 $9 X,Y pos of 4 corners*
0 Add a 4 corners polygon primitive as box body*
4,1,4,$2,$3,$4,$5,$6,$7,$8,$9,$2,$3,0*
0 Add four circle primitives for the rounded corners*
1,1,$1+$1,$2,$3*
1,1,$1+$1,$4,$5*
1,1,$1+$1,$6,$7*
1,1,$1+$1,$8,$9*
0 Add four rect primitives between the rounded corners*
20,1,$1+$1,$2,$3,$4,$5,0*
20,1,$1+$1,$4,$5,$6,$7,0*
20,1,$1+$1,$6,$7,$8,$9,0*
20,1,$1+$1,$8,$9,$2,$3,0*%
G04 Aperture macros list end*
%TA.AperFunction,SMDPad,CuDef*%
%ADD10RoundRect,0.250000X-0.312500X-0.625000X0.312500X-0.625000X0.312500X0.625000X-0.312500X0.625000X0*%
%TD*%
%TA.AperFunction,ComponentPad*%
%ADD11C,4.000000*%
%TD*%
%TA.AperFunction,ComponentPad*%
%ADD12R,1.600000X1.600000*%
%TD*%
%TA.AperFunction,ComponentPad*%
%ADD13C,1.600000*%
%TD*%
%TA.AperFunction,ComponentPad*%
%ADD14R,1.700000X1.700000*%
%TD*%
%TA.AperFunction,ComponentPad*%
%ADD15O,1.700000X1.700000*%
%TD*%
%TA.AperFunction,ViaPad*%
%ADD16C,1.000000*%
%TD*%
%TA.AperFunction,Conductor*%
%ADD17C,1.000000*%
%TD*%
%TA.AperFunction,Conductor*%
%ADD18C,0.500000*%
%TD*%
%TA.AperFunction,Conductor*%
%ADD19C,0.300000*%
%TD*%
G04 APERTURE END LIST*
D10*
%TO.P,R5,1*%
%TO.N,BLUE_1*%
X10787500Y5420000D03*
%TO.P,R5,2*%
%TO.N,Net-(J2-Pad3)*%
X13712500Y5420000D03*
%TD*%
%TO.P,R3,1*%
%TO.N,GREEN_1*%
X10787500Y9920000D03*
%TO.P,R3,2*%
%TO.N,Net-(J2-Pad2)*%
X13712500Y9920000D03*
%TD*%
%TO.P,R2,1*%
%TO.N,RED_0*%
X10787500Y12170000D03*
%TO.P,R2,2*%
%TO.N,Net-(J2-Pad1)*%
X13712500Y12170000D03*
%TD*%
%TO.P,R4,1*%
%TO.N,GREEN_0*%
X10787500Y7670000D03*
%TO.P,R4,2*%
%TO.N,Net-(J2-Pad2)*%
X13712500Y7670000D03*
%TD*%
D11*
%TO.P,J2,0*%
%TO.N,GND*%
X43815000Y10840000D03*
X18815000Y10840000D03*
D12*
%TO.P,J2,1*%
%TO.N,Net-(J2-Pad1)*%
X27000000Y8790000D03*
D13*
%TO.P,J2,2*%
%TO.N,Net-(J2-Pad2)*%
X29290000Y8790000D03*
%TO.P,J2,3*%
%TO.N,Net-(J2-Pad3)*%
X31580000Y8790000D03*
%TO.P,J2,4*%
%TO.N,unconnected-(J2-Pad4)*%
X33870000Y8790000D03*
%TO.P,J2,5*%
%TO.N,GND*%
X36160000Y8790000D03*
%TO.P,J2,6*%
X25855000Y10770000D03*
%TO.P,J2,7*%
X28145000Y10770000D03*
%TO.P,J2,8*%
X30435000Y10770000D03*
%TO.P,J2,9*%
%TO.N,unconnected-(J2-Pad9)*%
X32725000Y10770000D03*
%TO.P,J2,10*%
%TO.N,GND*%
X35015000Y10770000D03*
%TO.P,J2,11*%
%TO.N,unconnected-(J2-Pad11)*%
X27000000Y12750000D03*
%TO.P,J2,12*%
%TO.N,unconnected-(J2-Pad12)*%
X29290000Y12750000D03*
%TO.P,J2,13*%
%TO.N,Hsync*%
X31580000Y12750000D03*
%TO.P,J2,14*%
%TO.N,Vsync*%
X33870000Y12750000D03*
%TO.P,J2,15*%
%TO.N,unconnected-(J2-Pad15)*%
X36160000Y12750000D03*
%TD*%
D10*
%TO.P,R1,1*%
%TO.N,RED_1*%
X10787500Y14500000D03*
%TO.P,R1,2*%
%TO.N,Net-(J2-Pad1)*%
X13712500Y14500000D03*
%TD*%
D14*
%TO.P,J1,1,Pin_1*%
%TO.N,+3.3V*%
X6540000Y1840000D03*
D15*
%TO.P,J1,2,Pin_2*%
X4000000Y1840000D03*
%TO.P,J1,3,Pin_3*%
%TO.N,GND*%
X6540000Y4380000D03*
%TO.P,J1,4,Pin_4*%
X4000000Y4380000D03*
%TO.P,J1,5,Pin_5*%
%TO.N,Hsync*%
X6540000Y6920000D03*
%TO.P,J1,6,Pin_6*%
%TO.N,Vsync*%
X4000000Y6920000D03*
%TO.P,J1,7,Pin_7*%
%TO.N,BLUE_1*%
X6540000Y9460000D03*
%TO.P,J1,8,Pin_8*%
%TO.N,BLUE_0*%
X4000000Y9460000D03*
%TO.P,J1,9,Pin_9*%
%TO.N,GREEN_1*%
X6540000Y12000000D03*
%TO.P,J1,10,Pin_10*%
%TO.N,GREEN_0*%
X4000000Y12000000D03*
%TO.P,J1,11,Pin_11*%
%TO.N,RED_1*%
X6540000Y14540000D03*
%TO.P,J1,12,Pin_12*%
%TO.N,RED_0*%
X4000000Y14540000D03*
%TD*%
D10*
%TO.P,R6,1*%
%TO.N,BLUE_0*%
X10787500Y3170000D03*
%TO.P,R6,2*%
%TO.N,Net-(J2-Pad3)*%
X13712500Y3170000D03*
%TD*%
D16*
%TO.N,GND*%
X15000000Y1250000D03*
X46000000Y3500000D03*
X29000000Y1250000D03*
X26250000Y1250000D03*
X34750000Y1250000D03*
X21750000Y5750000D03*
X43250000Y1250000D03*
X23250000Y1250000D03*
X23750000Y5750000D03*
X19750000Y5750000D03*
X46000000Y5750000D03*
X17750000Y5750000D03*
X40250000Y1250000D03*
X46000000Y1250000D03*
X20750000Y1250000D03*
X37500000Y1250000D03*
X31750000Y1250000D03*
X25750000Y5750000D03*
X18000000Y1250000D03*
%TD*%
D17*
%TO.N,+3.3V*%
X4000000Y1840000D02*
X6540000Y1840000D01*
D18*
%TO.N,GND*%
X30435000Y10770000D02*
X25855000Y10770000D01*
X35015000Y10770000D02*
X37250000Y10770000D01*
D17*
X4000000Y4380000D02*
X6540000Y4380000D01*
D19*
%TO.N,BLUE_1*%
X10330000Y5420000D02*
X9750000Y6000000D01*
X9750000Y7800000D02*
X8090000Y9460000D01*
X10787500Y5420000D02*
X10330000Y5420000D01*
X8090000Y9460000D02*
X6540000Y9460000D01*
X9750000Y6000000D02*
X9750000Y7800000D01*
%TO.N,BLUE_0*%
X9150000Y7500000D02*
X8450000Y8200000D01*
X9150000Y5100000D02*
X9150000Y7500000D01*
X10787500Y3462500D02*
X9150000Y5100000D01*
X10787500Y3170000D02*
X10787500Y3462500D01*
X8450000Y8200000D02*
X5260000Y8200000D01*
X5260000Y8200000D02*
X4000000Y9460000D01*
%TO.N,GREEN_1*%
X10787500Y9920000D02*
X8707500Y12000000D01*
X8707500Y12000000D02*
X6540000Y12000000D01*
%TO.N,GREEN_0*%
X5250000Y10750000D02*
X8000000Y10750000D01*
X4000000Y12000000D02*
X5250000Y10750000D01*
X10787500Y7962500D02*
X10787500Y7670000D01*
X8000000Y10750000D02*
X10787500Y7962500D01*
%TO.N,RED_1*%
X6540000Y14540000D02*
X10747500Y14540000D01*
X10747500Y14540000D02*
X10787500Y14500000D01*
%TO.N,RED_0*%
X5290000Y13250000D02*
X4000000Y14540000D01*
X9707500Y13250000D02*
X5290000Y13250000D01*
X10787500Y12170000D02*
X9707500Y13250000D01*
%TO.N,Net-(J2-Pad1)*%
X13712500Y12170000D02*
X15330000Y12170000D01*
X16000000Y11500000D02*
X16000000Y5250000D01*
X27000000Y5250000D02*
X27000000Y8790000D01*
X16000000Y5250000D02*
X16850000Y4400000D01*
X13712500Y14500000D02*
X13712500Y12170000D01*
X16850000Y4400000D02*
X26150000Y4400000D01*
X15330000Y12170000D02*
X16000000Y11500000D01*
X26150000Y4400000D02*
X27000000Y5250000D01*
%TO.N,Net-(J2-Pad2)*%
X14830000Y7670000D02*
X13712500Y7670000D01*
X13712500Y9920000D02*
X13712500Y7670000D01*
X29290000Y8790000D02*
X29290000Y6690000D01*
X16500000Y3800000D02*
X15250000Y5050000D01*
X15250000Y5050000D02*
X15250000Y7250000D01*
X26400000Y3800000D02*
X16500000Y3800000D01*
X15250000Y7250000D02*
X14830000Y7670000D01*
X29290000Y6690000D02*
X26400000Y3800000D01*
%TO.N,Net-(J2-Pad3)*%
X26620000Y3170000D02*
X31580000Y8130000D01*
X13712500Y3170000D02*
X26620000Y3170000D01*
X13712500Y5420000D02*
X13712500Y3170000D01*
X31580000Y8130000D02*
X31580000Y8790000D01*
%TD*%
%TA.AperFunction,Conductor*%
%TO.N,GREEN_1*%
G36*
X9941137Y10981664D02*
G01*
X10010772Y10940260D01*
X10010773Y10940260D01*
X10010786Y10940252D01*
X10088254Y10900174D01*
X10165721Y10866082D01*
X10165726Y10866080D01*
X10165734Y10866077D01*
X10212491Y10849112D01*
X10243189Y10837973D01*
X10281981Y10826895D01*
X10320648Y10815852D01*
X10320655Y10815851D01*
X10320657Y10815850D01*
X10398124Y10799711D01*
X10475592Y10789556D01*
X10553059Y10785386D01*
X10627209Y10787124D01*
X10630529Y10787201D01*
X10646729Y10788833D01*
X10696249Y10793818D01*
X10704823Y10791237D01*
X10709061Y10783349D01*
X10709071Y10783244D01*
X10787419Y9927886D01*
X10784761Y9919335D01*
X10780229Y9916003D01*
X10236232Y9691638D01*
X10227277Y9691651D01*
X10220955Y9697993D01*
X10220803Y9698380D01*
X10174618Y9823567D01*
X10174616Y9823572D01*
X10174598Y9823621D01*
X10143237Y9904773D01*
X10124237Y9953941D01*
X10073856Y10078127D01*
X10073848Y10078147D01*
X10023482Y10196108D01*
X9973087Y10307950D01*
X9922719Y10413547D01*
X9922712Y10413561D01*
X9872330Y10512997D01*
X9821949Y10606246D01*
X9771568Y10693308D01*
X9726099Y10766295D01*
X9724634Y10775128D01*
X9727756Y10780751D01*
X9926886Y10979881D01*
X9935158Y10983307D01*
X9941137Y10981664D01*
G37*
%TD.AperFunction*%
%TD*%
%TA.AperFunction,Conductor*%
%TO.N,Net-(J2-Pad2)*%
G36*
X14282871Y8221531D02*
G01*
X14283226Y8221158D01*
X14341636Y8156941D01*
X14408273Y8089750D01*
X14474910Y8028630D01*
X14522507Y7989309D01*
X14541549Y7973578D01*
X14608177Y7924606D01*
X14608184Y7924601D01*
X14674821Y7881693D01*
X14674829Y7881688D01*
X14741462Y7844852D01*
X14741473Y7844846D01*
X14808084Y7814091D01*
X14808095Y7814087D01*
X14874732Y7789389D01*
X14922094Y7776150D01*
X14929138Y7770624D01*
X14930211Y7761733D01*
X14927216Y7756610D01*
X14730510Y7559904D01*
X14727646Y7557802D01*
X14683815Y7534950D01*
X14638387Y7506450D01*
X14638386Y7506449D01*
X14592968Y7473145D01*
X14547532Y7435010D01*
X14502125Y7392088D01*
X14502118Y7392080D01*
X14456698Y7344333D01*
X14411260Y7291751D01*
X14365852Y7234392D01*
X14320416Y7172183D01*
X14282961Y7116932D01*
X14275483Y7112007D01*
X14266712Y7113813D01*
X14264987Y7115241D01*
X13720059Y7662407D01*
X13716649Y7670687D01*
X13720092Y7678952D01*
X14266326Y8221586D01*
X14274610Y8224985D01*
X14282871Y8221531D01*
G37*
%TD.AperFunction*%
%TD*%
%TA.AperFunction,Conductor*%
%TO.N,BLUE_0*%
G36*
X4782942Y9780602D02*
G01*
X4789267Y9774263D01*
X4789456Y9773774D01*
X4855705Y9590471D01*
X4856033Y9589408D01*
X4899419Y9420717D01*
X4899624Y9419757D01*
X4924774Y9271275D01*
X4924861Y9270665D01*
X4940318Y9136975D01*
X4940318Y9136971D01*
X4954600Y9013083D01*
X4976254Y8894105D01*
X4976254Y8894104D01*
X5013853Y8774891D01*
X5075986Y8650242D01*
X5171211Y8515016D01*
X5171216Y8515010D01*
X5171222Y8515002D01*
X5233653Y8446146D01*
X5300663Y8372239D01*
X5303681Y8363808D01*
X5300268Y8356107D01*
X5103893Y8159732D01*
X5095620Y8156305D01*
X5087761Y8159337D01*
X5070295Y8175173D01*
X4944998Y8288778D01*
X4944990Y8288784D01*
X4944984Y8288789D01*
X4809758Y8384014D01*
X4685109Y8446147D01*
X4565895Y8483746D01*
X4446917Y8505400D01*
X4323028Y8519682D01*
X4323026Y8519683D01*
X4323025Y8519682D01*
X4189335Y8535139D01*
X4188725Y8535226D01*
X4040243Y8560376D01*
X4039283Y8560581D01*
X3870592Y8603967D01*
X3869529Y8604295D01*
X3686226Y8670544D01*
X3679610Y8676578D01*
X3679200Y8685524D01*
X3679377Y8685984D01*
X3997438Y9456217D01*
X4003759Y9462552D01*
X4773988Y9780611D01*
X4782942Y9780602D01*
G37*
%TD.AperFunction*%
%TD*%
%TA.AperFunction,Conductor*%
%TO.N,BLUE_0*%
G36*
X10006740Y4456739D02*
G01*
X10081907Y4393913D01*
X10081921Y4393902D01*
X10081926Y4393898D01*
X10165322Y4330381D01*
X10248718Y4273052D01*
X10332113Y4221911D01*
X10415509Y4176957D01*
X10498905Y4138191D01*
X10582300Y4105612D01*
X10665696Y4079221D01*
X10749092Y4059017D01*
X10749103Y4059016D01*
X10749118Y4059012D01*
X10796653Y4051023D01*
X10822215Y4046727D01*
X10829806Y4041977D01*
X10831961Y4034598D01*
X10788610Y3177281D01*
X10784770Y3169192D01*
X10780618Y3166770D01*
X10236613Y2985828D01*
X10227681Y2986469D01*
X10221818Y2993237D01*
X10221670Y2993718D01*
X10181139Y3136760D01*
X10169180Y3177281D01*
X10137299Y3285300D01*
X10137279Y3285366D01*
X10093419Y3427785D01*
X10049559Y3564017D01*
X10005699Y3694061D01*
X9961839Y3817918D01*
X9917979Y3935587D01*
X9874119Y4047069D01*
X9836162Y4138191D01*
X9830265Y4152349D01*
X9819375Y4176955D01*
X9789644Y4244135D01*
X9789430Y4253086D01*
X9792069Y4257140D01*
X9990965Y4456036D01*
X9999237Y4459462D01*
X10006740Y4456739D01*
G37*
%TD.AperFunction*%
%TD*%
%TA.AperFunction,Conductor*%
%TO.N,RED_0*%
G36*
X9941137Y13231664D02*
G01*
X10010772Y13190260D01*
X10010773Y13190260D01*
X10010786Y13190252D01*
X10088254Y13150174D01*
X10165721Y13116082D01*
X10165726Y13116080D01*
X10165734Y13116077D01*
X10212491Y13099112D01*
X10243189Y13087973D01*
X10281981Y13076895D01*
X10320648Y13065852D01*
X10320655Y13065851D01*
X10320657Y13065850D01*
X10398124Y13049711D01*
X10475592Y13039556D01*
X10553059Y13035386D01*
X10627209Y13037124D01*
X10630529Y13037201D01*
X10646729Y13038833D01*
X10696249Y13043818D01*
X10704823Y13041237D01*
X10709061Y13033349D01*
X10709071Y13033244D01*
X10787419Y12177886D01*
X10784761Y12169335D01*
X10780229Y12166003D01*
X10236232Y11941638D01*
X10227277Y11941651D01*
X10220955Y11947993D01*
X10220803Y11948380D01*
X10174618Y12073567D01*
X10174616Y12073572D01*
X10174598Y12073621D01*
X10143237Y12154773D01*
X10124237Y12203941D01*
X10073856Y12328127D01*
X10073848Y12328147D01*
X10023482Y12446108D01*
X9973087Y12557950D01*
X9922719Y12663547D01*
X9922712Y12663561D01*
X9872330Y12762997D01*
X9821949Y12856246D01*
X9771568Y12943308D01*
X9726099Y13016295D01*
X9724634Y13025128D01*
X9727756Y13030751D01*
X9926886Y13229881D01*
X9935158Y13233307D01*
X9941137Y13231664D01*
G37*
%TD.AperFunction*%
%TD*%
%TA.AperFunction,Conductor*%
%TO.N,+3.3V*%
G36*
X4336073Y2620835D02*
G01*
X4502420Y2552029D01*
X4649909Y2492468D01*
X4775559Y2445202D01*
X4887185Y2408819D01*
X4992589Y2381911D01*
X4992587Y2381911D01*
X4992594Y2381910D01*
X4992601Y2381908D01*
X5099619Y2363056D01*
X5216055Y2350851D01*
X5349721Y2343882D01*
X5508431Y2340735D01*
X5688345Y2340045D01*
X5696605Y2336586D01*
X5700000Y2328345D01*
X5700000Y1351656D01*
X5696573Y1343383D01*
X5688345Y1339956D01*
X5508444Y1339267D01*
X5349707Y1336120D01*
X5216064Y1329151D01*
X5216045Y1329150D01*
X5099634Y1316948D01*
X5099627Y1316947D01*
X5099624Y1316947D01*
X5099619Y1316946D01*
X5036983Y1305913D01*
X4992588Y1298092D01*
X4887190Y1271184D01*
X4887185Y1271183D01*
X4775565Y1234803D01*
X4649914Y1187536D01*
X4502439Y1127980D01*
X4336075Y1059167D01*
X4327120Y1059172D01*
X4320799Y1065489D01*
X4000864Y1835512D01*
X4000856Y1844466D01*
X4000865Y1844489D01*
X4320799Y2614513D01*
X4327137Y2620836D01*
X4336073Y2620835D01*
G37*
%TD.AperFunction*%
%TD*%
%TA.AperFunction,Conductor*%
%TO.N,GREEN_1*%
G36*
X6875879Y12780314D02*
G01*
X6876352Y12780106D01*
X7052830Y12697327D01*
X7053799Y12696815D01*
X7203778Y12608201D01*
X7204586Y12607677D01*
X7327364Y12520465D01*
X7327857Y12520095D01*
X7433319Y12436493D01*
X7433318Y12436493D01*
X7433322Y12436491D01*
X7531005Y12359000D01*
X7531017Y12358992D01*
X7531025Y12358985D01*
X7630460Y12290171D01*
X7741350Y12232458D01*
X7873419Y12188253D01*
X8036394Y12159965D01*
X8228872Y12150545D01*
X8236968Y12146718D01*
X8240000Y12138859D01*
X8240000Y11861142D01*
X8236573Y11852869D01*
X8228872Y11849456D01*
X8051414Y11840772D01*
X8036394Y11840036D01*
X7873419Y11811748D01*
X7806975Y11789509D01*
X7741352Y11767544D01*
X7630458Y11709829D01*
X7531023Y11641015D01*
X7531005Y11641002D01*
X7433322Y11563512D01*
X7433319Y11563509D01*
X7327857Y11479907D01*
X7327364Y11479537D01*
X7204593Y11392330D01*
X7203770Y11391796D01*
X7053806Y11303191D01*
X7052823Y11302671D01*
X6876359Y11219899D01*
X6867413Y11219489D01*
X6860797Y11225523D01*
X6860594Y11225981D01*
X6540864Y11995512D01*
X6540856Y12004466D01*
X6540865Y12004489D01*
X6605463Y12159965D01*
X6860586Y12774000D01*
X6866924Y12780323D01*
X6875879Y12780314D01*
G37*
%TD.AperFunction*%
%TD*%
%TA.AperFunction,Conductor*%
%TO.N,Net-(J2-Pad1)*%
G36*
X13719538Y14490898D02*
G01*
X13721846Y14488590D01*
X14250195Y13786997D01*
X14252435Y13778327D01*
X14249578Y13772168D01*
X14216622Y13735245D01*
X14177271Y13685022D01*
X14177267Y13685016D01*
X14137945Y13628702D01*
X14137934Y13628686D01*
X14137928Y13628676D01*
X14098581Y13566192D01*
X14098576Y13566183D01*
X14059230Y13497568D01*
X14019886Y13422824D01*
X13980549Y13341963D01*
X13941191Y13254923D01*
X13901846Y13161779D01*
X13865428Y13069889D01*
X13859194Y13063461D01*
X13854551Y13062500D01*
X13570449Y13062500D01*
X13562176Y13065927D01*
X13559572Y13069889D01*
X13523153Y13161779D01*
X13514300Y13182737D01*
X13483805Y13254929D01*
X13444458Y13341944D01*
X13405111Y13422826D01*
X13365765Y13497575D01*
X13326418Y13566192D01*
X13287071Y13628676D01*
X13247724Y13685026D01*
X13208377Y13735244D01*
X13175420Y13772169D01*
X13172469Y13780622D01*
X13174803Y13786996D01*
X13703154Y14488591D01*
X13710868Y14493138D01*
X13719538Y14490898D01*
G37*
%TD.AperFunction*%
%TD*%
%TA.AperFunction,Conductor*%
%TO.N,BLUE_1*%
G36*
X7073686Y10162807D02*
G01*
X7143920Y10137289D01*
X7249595Y10098893D01*
X7399797Y10046921D01*
X7530889Y10000325D01*
X7531272Y10000180D01*
X7649862Y9952416D01*
X7650641Y9952068D01*
X7763632Y9896521D01*
X7764559Y9896011D01*
X7878980Y9825988D01*
X7879845Y9825404D01*
X8002667Y9734153D01*
X8003335Y9733617D01*
X8141408Y9614412D01*
X8141863Y9613998D01*
X8293525Y9468270D01*
X8297117Y9460067D01*
X8293856Y9451728D01*
X8293692Y9451561D01*
X8097412Y9255281D01*
X8089139Y9251854D01*
X8081820Y9254426D01*
X7956400Y9354978D01*
X7956396Y9354980D01*
X7839012Y9396679D01*
X7732685Y9383797D01*
X7632261Y9327157D01*
X7532601Y9237591D01*
X7532600Y9237590D01*
X7428539Y9125916D01*
X7368031Y9060435D01*
X7315164Y9003221D01*
X7314681Y9002728D01*
X7187095Y8880023D01*
X7186081Y8879154D01*
X7039218Y8767118D01*
X7037603Y8766083D01*
X6876642Y8680727D01*
X6867728Y8679879D01*
X6860824Y8685583D01*
X6860354Y8686582D01*
X6825417Y8770818D01*
X6541152Y9456223D01*
X6541149Y9465175D01*
X6860867Y10234676D01*
X6867205Y10240999D01*
X6875977Y10241064D01*
X7073686Y10162807D01*
G37*
%TD.AperFunction*%
%TD*%
%TA.AperFunction,Conductor*%
%TO.N,RED_0*%
G36*
X4782942Y14860602D02*
G01*
X4789267Y14854263D01*
X4789456Y14853774D01*
X4855705Y14670471D01*
X4856033Y14669408D01*
X4899419Y14500717D01*
X4899624Y14499757D01*
X4924774Y14351275D01*
X4924861Y14350665D01*
X4940318Y14216975D01*
X4940318Y14216971D01*
X4954600Y14093083D01*
X4976254Y13974105D01*
X4976254Y13974104D01*
X5013853Y13854891D01*
X5075986Y13730242D01*
X5171211Y13595016D01*
X5171216Y13595010D01*
X5171222Y13595002D01*
X5233653Y13526146D01*
X5300663Y13452239D01*
X5303681Y13443808D01*
X5300268Y13436107D01*
X5103893Y13239732D01*
X5095620Y13236305D01*
X5087761Y13239337D01*
X5070295Y13255173D01*
X4944998Y13368778D01*
X4944990Y13368784D01*
X4944984Y13368789D01*
X4809758Y13464014D01*
X4685109Y13526147D01*
X4565895Y13563746D01*
X4446917Y13585400D01*
X4323028Y13599682D01*
X4323026Y13599683D01*
X4323025Y13599682D01*
X4189335Y13615139D01*
X4188725Y13615226D01*
X4040243Y13640376D01*
X4039283Y13640581D01*
X3870592Y13683967D01*
X3869529Y13684295D01*
X3686226Y13750544D01*
X3679610Y13756578D01*
X3679200Y13765524D01*
X3679377Y13765984D01*
X3997438Y14536217D01*
X4003759Y14542552D01*
X4773988Y14860611D01*
X4782942Y14860602D01*
G37*
%TD.AperFunction*%
%TD*%
%TA.AperFunction,Conductor*%
%TO.N,Net-(J2-Pad1)*%
G36*
X14282668Y12723625D02*
G01*
X14283215Y12723037D01*
X14331250Y12667709D01*
X14331253Y12667706D01*
X14387488Y12608160D01*
X14387492Y12608156D01*
X14387500Y12608148D01*
X14443750Y12553820D01*
X14500000Y12504722D01*
X14556250Y12460856D01*
X14556255Y12460853D01*
X14556261Y12460848D01*
X14612486Y12422231D01*
X14612492Y12422228D01*
X14612500Y12422222D01*
X14668750Y12388820D01*
X14668754Y12388818D01*
X14668768Y12388810D01*
X14724988Y12360654D01*
X14725000Y12360648D01*
X14781250Y12337709D01*
X14829313Y12322578D01*
X14836176Y12316825D01*
X14837500Y12311418D01*
X14837500Y12028583D01*
X14834073Y12020310D01*
X14829313Y12017423D01*
X14781253Y12002294D01*
X14725008Y11979357D01*
X14724988Y11979348D01*
X14668768Y11951192D01*
X14668754Y11951184D01*
X14612486Y11917771D01*
X14556261Y11879153D01*
X14556248Y11879143D01*
X14500005Y11835284D01*
X14443752Y11786184D01*
X14387492Y11731846D01*
X14387488Y11731842D01*
X14331253Y11672296D01*
X14283223Y11616972D01*
X14275212Y11612971D01*
X14266718Y11615807D01*
X14266122Y11616362D01*
X13964169Y11917779D01*
X13719793Y12161722D01*
X13716360Y12169990D01*
X13719779Y12178265D01*
X14266124Y12723640D01*
X14274398Y12727059D01*
X14282668Y12723625D01*
G37*
%TD.AperFunction*%
%TD*%
%TA.AperFunction,Conductor*%
%TO.N,Net-(J2-Pad2)*%
G36*
X13862824Y9104073D02*
G01*
X13865428Y9100111D01*
X13901846Y9008223D01*
X13941191Y8915079D01*
X13980549Y8828039D01*
X14019886Y8747178D01*
X14059230Y8672433D01*
X14059235Y8672425D01*
X14098581Y8603809D01*
X14137928Y8541325D01*
X14137940Y8541307D01*
X14137945Y8541300D01*
X14177267Y8484986D01*
X14177271Y8484980D01*
X14216622Y8434757D01*
X14249578Y8397833D01*
X14252530Y8389379D01*
X14250195Y8383004D01*
X13721846Y7681411D01*
X13714132Y7676863D01*
X13705462Y7679103D01*
X13703154Y7681411D01*
X13174804Y8383004D01*
X13172564Y8391674D01*
X13175419Y8397831D01*
X13208377Y8434757D01*
X13247724Y8484975D01*
X13287071Y8541325D01*
X13326418Y8603809D01*
X13365765Y8672425D01*
X13405111Y8747175D01*
X13444458Y8828057D01*
X13483805Y8915072D01*
X13523152Y9008220D01*
X13559571Y9100112D01*
X13565805Y9106539D01*
X13570448Y9107500D01*
X13854551Y9107500D01*
X13862824Y9104073D01*
G37*
%TD.AperFunction*%
%TD*%
%TA.AperFunction,Conductor*%
%TO.N,Net-(J2-Pad3)*%
G36*
X31584122Y8787283D02*
G01*
X32137213Y8232808D01*
X32140630Y8224531D01*
X32137193Y8216263D01*
X32136984Y8216059D01*
X32003715Y8089594D01*
X32003189Y8089125D01*
X31880224Y7985770D01*
X31879625Y7985298D01*
X31770659Y7905214D01*
X31770094Y7904824D01*
X31670361Y7840182D01*
X31670005Y7839960D01*
X31574646Y7782896D01*
X31479105Y7725726D01*
X31378924Y7660793D01*
X31378912Y7660785D01*
X31378907Y7660781D01*
X31269367Y7580276D01*
X31269351Y7580263D01*
X31145847Y7476456D01*
X31145816Y7476428D01*
X31011875Y7349322D01*
X31003515Y7346113D01*
X30995548Y7349536D01*
X30799118Y7545966D01*
X30795691Y7554239D01*
X30798489Y7561830D01*
X30897381Y7677763D01*
X30958147Y7790710D01*
X30981779Y7896608D01*
X30977048Y7985298D01*
X30976285Y7999611D01*
X30976284Y7999614D01*
X30976284Y7999619D01*
X30949668Y8103902D01*
X30909938Y8213618D01*
X30902725Y8232809D01*
X30898133Y8245027D01*
X30865202Y8332650D01*
X30865012Y8333200D01*
X30823337Y8465418D01*
X30823037Y8466578D01*
X30792280Y8616196D01*
X30792070Y8617726D01*
X30780876Y8777495D01*
X30783716Y8785987D01*
X30791729Y8789983D01*
X30792510Y8790012D01*
X31575846Y8790703D01*
X31584122Y8787283D01*
G37*
%TD.AperFunction*%
%TD*%
%TA.AperFunction,Conductor*%
%TO.N,GREEN_0*%
G36*
X10006740Y8956739D02*
G01*
X10081907Y8893913D01*
X10081921Y8893902D01*
X10081926Y8893898D01*
X10165322Y8830381D01*
X10248718Y8773052D01*
X10332113Y8721911D01*
X10415509Y8676957D01*
X10498905Y8638191D01*
X10582300Y8605612D01*
X10665696Y8579221D01*
X10749092Y8559017D01*
X10749103Y8559016D01*
X10749118Y8559012D01*
X10796653Y8551023D01*
X10822215Y8546727D01*
X10829806Y8541977D01*
X10831961Y8534598D01*
X10788610Y7677281D01*
X10784770Y7669192D01*
X10780618Y7666770D01*
X10236613Y7485828D01*
X10227681Y7486469D01*
X10221818Y7493237D01*
X10221670Y7493718D01*
X10200943Y7566868D01*
X10200500Y7570058D01*
X10200500Y7774047D01*
X10200574Y7775357D01*
X10205270Y7817029D01*
X10205269Y7817032D01*
X10205270Y7817035D01*
X10194245Y7875299D01*
X10194176Y7875712D01*
X10185348Y7934285D01*
X10185348Y7934287D01*
X10182288Y7940642D01*
X10181335Y7943539D01*
X10180024Y7950471D01*
X10152303Y8002921D01*
X10152140Y8003245D01*
X10129851Y8049528D01*
X10126427Y8056639D01*
X10126425Y8056642D01*
X10121625Y8061816D01*
X10119862Y8064301D01*
X10116566Y8070537D01*
X10074678Y8112425D01*
X10074374Y8112740D01*
X10034054Y8156195D01*
X10034052Y8156196D01*
X10027945Y8159722D01*
X10025522Y8161581D01*
X10014077Y8173026D01*
X10011264Y8177560D01*
X10005706Y8194039D01*
X10005699Y8194061D01*
X9961839Y8317918D01*
X9917979Y8435587D01*
X9874119Y8547069D01*
X9836162Y8638191D01*
X9830265Y8652349D01*
X9819375Y8676955D01*
X9789644Y8744135D01*
X9789430Y8753086D01*
X9792069Y8757140D01*
X9990965Y8956036D01*
X9999237Y8959462D01*
X10006740Y8956739D01*
G37*
%TD.AperFunction*%
%TD*%
%TA.AperFunction,Conductor*%
%TO.N,GREEN_0*%
G36*
X4782942Y12320602D02*
G01*
X4789267Y12314263D01*
X4789456Y12313774D01*
X4855705Y12130471D01*
X4856033Y12129408D01*
X4899419Y11960717D01*
X4899624Y11959757D01*
X4924774Y11811275D01*
X4924861Y11810665D01*
X4940318Y11676975D01*
X4940318Y11676971D01*
X4954600Y11553083D01*
X4976254Y11434105D01*
X4976254Y11434104D01*
X5013853Y11314891D01*
X5075986Y11190242D01*
X5171211Y11055016D01*
X5171216Y11055010D01*
X5171222Y11055002D01*
X5233653Y10986146D01*
X5300663Y10912239D01*
X5303681Y10903808D01*
X5300268Y10896107D01*
X5103893Y10699732D01*
X5095620Y10696305D01*
X5087761Y10699337D01*
X5070295Y10715173D01*
X4944998Y10828778D01*
X4944990Y10828784D01*
X4944984Y10828789D01*
X4809758Y10924014D01*
X4685109Y10986147D01*
X4565895Y11023746D01*
X4446917Y11045400D01*
X4323028Y11059682D01*
X4323026Y11059683D01*
X4323025Y11059682D01*
X4189335Y11075139D01*
X4188725Y11075226D01*
X4040243Y11100376D01*
X4039283Y11100581D01*
X3870592Y11143967D01*
X3869529Y11144295D01*
X3686226Y11210544D01*
X3679610Y11216578D01*
X3679200Y11225524D01*
X3679377Y11225984D01*
X3997438Y11996217D01*
X4003759Y12002552D01*
X4773988Y12320611D01*
X4782942Y12320602D01*
G37*
%TD.AperFunction*%
%TD*%
%TA.AperFunction,Conductor*%
%TO.N,+3.3V*%
G36*
X5696891Y2683117D02*
G01*
X6532712Y1848278D01*
X6536144Y1840007D01*
X6532722Y1831732D01*
X6532712Y1831722D01*
X5696891Y996884D01*
X5688616Y993462D01*
X5681981Y995531D01*
X5605000Y1048626D01*
X5520000Y1102001D01*
X5519979Y1102014D01*
X5435033Y1150109D01*
X5434977Y1150139D01*
X5350025Y1192989D01*
X5349996Y1193003D01*
X5333697Y1200217D01*
X5265000Y1230625D01*
X5179999Y1263000D01*
X5179992Y1263002D01*
X5179987Y1263004D01*
X5095024Y1290117D01*
X5094999Y1290125D01*
X5075858Y1295051D01*
X5010011Y1311998D01*
X5009999Y1312000D01*
X4925013Y1328623D01*
X4925001Y1328625D01*
X4924999Y1328625D01*
X4850148Y1338642D01*
X4842403Y1343136D01*
X4840000Y1350239D01*
X4840000Y2329762D01*
X4843427Y2338035D01*
X4850145Y2341358D01*
X4924999Y2351376D01*
X5009999Y2368001D01*
X5094999Y2389876D01*
X5179999Y2417001D01*
X5265000Y2449375D01*
X5350000Y2487000D01*
X5392025Y2508199D01*
X5434977Y2529863D01*
X5434989Y2529870D01*
X5435000Y2529875D01*
X5435010Y2529881D01*
X5435033Y2529893D01*
X5519979Y2577988D01*
X5519981Y2577990D01*
X5520000Y2578000D01*
X5605000Y2631375D01*
X5681983Y2684471D01*
X5690736Y2686347D01*
X5696891Y2683117D01*
G37*
%TD.AperFunction*%
%TD*%
%TA.AperFunction,Conductor*%
%TO.N,Net-(J2-Pad2)*%
G36*
X29954625Y8514804D02*
G01*
X30017818Y8488543D01*
X30024143Y8482204D01*
X30024132Y8473249D01*
X30023926Y8472783D01*
X29946737Y8307728D01*
X29946234Y8306769D01*
X29863620Y8165762D01*
X29863105Y8164961D01*
X29782066Y8049360D01*
X29781715Y8048885D01*
X29704228Y7949439D01*
X29704229Y7949438D01*
X29632544Y7857221D01*
X29569019Y7763375D01*
X29515833Y7658827D01*
X29475152Y7534476D01*
X29475150Y7534468D01*
X29449150Y7381231D01*
X29440533Y7201141D01*
X29436714Y7193041D01*
X29428846Y7190000D01*
X29151154Y7190000D01*
X29142881Y7193427D01*
X29139467Y7201141D01*
X29138256Y7226440D01*
X29130849Y7381228D01*
X29104847Y7534474D01*
X29064165Y7658828D01*
X29010977Y7763379D01*
X28947455Y7857218D01*
X28875773Y7949433D01*
X28875769Y7949439D01*
X28798282Y8048885D01*
X28797931Y8049360D01*
X28716892Y8164961D01*
X28716377Y8165763D01*
X28633764Y8306770D01*
X28633261Y8307728D01*
X28556073Y8472783D01*
X28555672Y8481729D01*
X28561715Y8488337D01*
X28562168Y8488538D01*
X29285512Y8789136D01*
X29294461Y8789146D01*
X29954625Y8514804D01*
G37*
%TD.AperFunction*%
%TD*%
%TA.AperFunction,Conductor*%
%TO.N,BLUE_1*%
G36*
X10378051Y6260415D02*
G01*
X10380037Y6257532D01*
X10783525Y5428907D01*
X10784066Y5419969D01*
X10779052Y5413768D01*
X10235880Y5085909D01*
X10227026Y5084568D01*
X10219817Y5089880D01*
X10219358Y5090716D01*
X10174618Y5180919D01*
X10124237Y5276309D01*
X10124229Y5276325D01*
X10100123Y5319005D01*
X10073856Y5365512D01*
X10023474Y5448527D01*
X9973093Y5525355D01*
X9922712Y5595995D01*
X9922705Y5596004D01*
X9922700Y5596011D01*
X9872346Y5660429D01*
X9872333Y5660445D01*
X9821936Y5718728D01*
X9771582Y5770777D01*
X9771578Y5770781D01*
X9771568Y5770791D01*
X9730249Y5808427D01*
X9726441Y5816532D01*
X9729478Y5824956D01*
X9729832Y5825327D01*
X9930671Y6026166D01*
X9937013Y6029430D01*
X9977296Y6036155D01*
X10021273Y6047265D01*
X10065250Y6062143D01*
X10109227Y6080790D01*
X10153204Y6103204D01*
X10197181Y6129387D01*
X10241158Y6159339D01*
X10285135Y6193058D01*
X10329112Y6230546D01*
X10361515Y6260945D01*
X10369891Y6264104D01*
X10378051Y6260415D01*
G37*
%TD.AperFunction*%
%TD*%
%TA.AperFunction,Conductor*%
%TO.N,RED_1*%
G36*
X10233133Y15074421D02*
G01*
X10233705Y15073869D01*
X10589219Y14706132D01*
X10780353Y14508427D01*
X10783639Y14500097D01*
X10780073Y14491883D01*
X10780058Y14491869D01*
X10234038Y13965871D01*
X10225703Y13962599D01*
X10217495Y13966180D01*
X10216947Y13966790D01*
X10168748Y14024405D01*
X10112506Y14086312D01*
X10084456Y14114531D01*
X10056250Y14142908D01*
X10056238Y14142919D01*
X10056232Y14142925D01*
X10000023Y14194157D01*
X10000008Y14194169D01*
X10000000Y14194177D01*
X9943750Y14240122D01*
X9940948Y14242146D01*
X9887507Y14280740D01*
X9831259Y14316038D01*
X9831232Y14316053D01*
X9775018Y14346010D01*
X9775006Y14346016D01*
X9718745Y14370673D01*
X9670398Y14387287D01*
X9663687Y14393217D01*
X9662500Y14398352D01*
X9662500Y14681184D01*
X9665927Y14689457D01*
X9670973Y14692431D01*
X9718750Y14706132D01*
X9718760Y14706137D01*
X9718764Y14706137D01*
X9738669Y14713667D01*
X9775000Y14727408D01*
X9831250Y14753831D01*
X9887500Y14785400D01*
X9943750Y14822114D01*
X10000000Y14863974D01*
X10056250Y14910980D01*
X10112500Y14963132D01*
X10168750Y15020430D01*
X10216610Y15073560D01*
X10224692Y15077412D01*
X10233133Y15074421D01*
G37*
%TD.AperFunction*%
%TD*%
%TA.AperFunction,Conductor*%
%TO.N,Net-(J2-Pad3)*%
G36*
X13719538Y5410898D02*
G01*
X13721846Y5408590D01*
X14250195Y4706997D01*
X14252435Y4698327D01*
X14249578Y4692168D01*
X14216622Y4655245D01*
X14177271Y4605022D01*
X14177267Y4605016D01*
X14137945Y4548702D01*
X14137934Y4548686D01*
X14137928Y4548676D01*
X14098581Y4486192D01*
X14098576Y4486183D01*
X14059230Y4417568D01*
X14019886Y4342824D01*
X13980549Y4261963D01*
X13941191Y4174923D01*
X13901846Y4081779D01*
X13865428Y3989889D01*
X13859194Y3983461D01*
X13854551Y3982500D01*
X13570449Y3982500D01*
X13562176Y3985927D01*
X13559572Y3989889D01*
X13523153Y4081779D01*
X13514300Y4102737D01*
X13483805Y4174929D01*
X13444458Y4261944D01*
X13405111Y4342826D01*
X13365765Y4417575D01*
X13326418Y4486192D01*
X13287071Y4548676D01*
X13247724Y4605026D01*
X13208377Y4655244D01*
X13175420Y4692169D01*
X13172469Y4700622D01*
X13174803Y4706996D01*
X13703154Y5408591D01*
X13710868Y5413138D01*
X13719538Y5410898D01*
G37*
%TD.AperFunction*%
%TD*%
%TA.AperFunction,Conductor*%
%TO.N,Net-(J2-Pad3)*%
G36*
X13862824Y4604073D02*
G01*
X13865428Y4600111D01*
X13901846Y4508223D01*
X13941191Y4415079D01*
X13980549Y4328039D01*
X14019886Y4247178D01*
X14059230Y4172433D01*
X14059235Y4172425D01*
X14098581Y4103809D01*
X14137928Y4041325D01*
X14137940Y4041307D01*
X14137945Y4041300D01*
X14177267Y3984986D01*
X14177271Y3984980D01*
X14216622Y3934757D01*
X14249578Y3897833D01*
X14252530Y3889379D01*
X14250195Y3883004D01*
X13721846Y3181411D01*
X13714132Y3176863D01*
X13705462Y3179103D01*
X13703154Y3181411D01*
X13174804Y3883004D01*
X13172564Y3891674D01*
X13175419Y3897831D01*
X13208377Y3934757D01*
X13247724Y3984975D01*
X13287071Y4041325D01*
X13326418Y4103809D01*
X13365765Y4172425D01*
X13405111Y4247175D01*
X13444458Y4328057D01*
X13483805Y4415072D01*
X13523152Y4508220D01*
X13559571Y4600112D01*
X13565805Y4606539D01*
X13570448Y4607500D01*
X13854551Y4607500D01*
X13862824Y4604073D01*
G37*
%TD.AperFunction*%
%TD*%
%TA.AperFunction,Conductor*%
%TO.N,RED_1*%
G36*
X6875879Y15320314D02*
G01*
X6876352Y15320106D01*
X7052830Y15237327D01*
X7053799Y15236815D01*
X7203778Y15148201D01*
X7204586Y15147677D01*
X7327364Y15060465D01*
X7327857Y15060095D01*
X7433319Y14976493D01*
X7433318Y14976493D01*
X7433322Y14976491D01*
X7531005Y14899000D01*
X7531017Y14898992D01*
X7531025Y14898985D01*
X7630460Y14830171D01*
X7741350Y14772458D01*
X7873419Y14728253D01*
X8036394Y14699965D01*
X8228872Y14690545D01*
X8236968Y14686718D01*
X8240000Y14678859D01*
X8240000Y14401142D01*
X8236573Y14392869D01*
X8228872Y14389456D01*
X8051414Y14380772D01*
X8036394Y14380036D01*
X7873419Y14351748D01*
X7806975Y14329509D01*
X7741352Y14307544D01*
X7630458Y14249829D01*
X7531023Y14181015D01*
X7531005Y14181002D01*
X7433322Y14103512D01*
X7433319Y14103509D01*
X7327857Y14019907D01*
X7327364Y14019537D01*
X7204593Y13932330D01*
X7203770Y13931796D01*
X7053806Y13843191D01*
X7052823Y13842671D01*
X6876359Y13759899D01*
X6867413Y13759489D01*
X6860797Y13765523D01*
X6860594Y13765981D01*
X6540864Y14535512D01*
X6540856Y14544466D01*
X6540865Y14544489D01*
X6605463Y14699965D01*
X6860586Y15314000D01*
X6866924Y15320323D01*
X6875879Y15320314D01*
G37*
%TD.AperFunction*%
%TD*%
%TA.AperFunction,Conductor*%
%TO.N,Net-(J2-Pad1)*%
G36*
X13862824Y13604073D02*
G01*
X13865428Y13600111D01*
X13901846Y13508223D01*
X13941191Y13415079D01*
X13980549Y13328039D01*
X14019886Y13247178D01*
X14059230Y13172433D01*
X14059235Y13172425D01*
X14098581Y13103809D01*
X14137928Y13041325D01*
X14137940Y13041307D01*
X14137945Y13041300D01*
X14177267Y12984986D01*
X14177271Y12984980D01*
X14216622Y12934757D01*
X14249578Y12897833D01*
X14252530Y12889379D01*
X14250195Y12883004D01*
X13721846Y12181411D01*
X13714132Y12176863D01*
X13705462Y12179103D01*
X13703154Y12181411D01*
X13174804Y12883004D01*
X13172564Y12891674D01*
X13175419Y12897831D01*
X13208377Y12934757D01*
X13247724Y12984975D01*
X13287071Y13041325D01*
X13326418Y13103809D01*
X13365765Y13172425D01*
X13405111Y13247175D01*
X13444458Y13328057D01*
X13483805Y13415072D01*
X13523152Y13508220D01*
X13559571Y13600112D01*
X13565805Y13606539D01*
X13570448Y13607500D01*
X13854551Y13607500D01*
X13862824Y13604073D01*
G37*
%TD.AperFunction*%
%TD*%
%TA.AperFunction,Conductor*%
%TO.N,Net-(J2-Pad2)*%
G36*
X13719538Y9910898D02*
G01*
X13721846Y9908590D01*
X14250195Y9206997D01*
X14252435Y9198327D01*
X14249578Y9192168D01*
X14216622Y9155245D01*
X14177271Y9105022D01*
X14177267Y9105016D01*
X14137945Y9048702D01*
X14137934Y9048686D01*
X14137928Y9048676D01*
X14098581Y8986192D01*
X14098576Y8986183D01*
X14059230Y8917568D01*
X14019886Y8842824D01*
X13980549Y8761963D01*
X13941191Y8674923D01*
X13901846Y8581779D01*
X13865428Y8489889D01*
X13859194Y8483461D01*
X13854551Y8482500D01*
X13570449Y8482500D01*
X13562176Y8485927D01*
X13559572Y8489889D01*
X13523153Y8581779D01*
X13514300Y8602737D01*
X13483805Y8674929D01*
X13444458Y8761944D01*
X13405111Y8842826D01*
X13365765Y8917575D01*
X13326418Y8986192D01*
X13287071Y9048676D01*
X13247724Y9105026D01*
X13208377Y9155244D01*
X13175420Y9192169D01*
X13172469Y9200622D01*
X13174803Y9206996D01*
X13703154Y9908591D01*
X13710868Y9913138D01*
X13719538Y9910898D01*
G37*
%TD.AperFunction*%
%TD*%
%TA.AperFunction,Conductor*%
%TO.N,Net-(J2-Pad1)*%
G36*
X27008267Y8782723D02*
G01*
X27790121Y7999891D01*
X27793543Y7991617D01*
X27790111Y7983346D01*
X27788524Y7982019D01*
X27734996Y7944787D01*
X27669998Y7891847D01*
X27604983Y7831159D01*
X27604977Y7831154D01*
X27540015Y7762789D01*
X27475001Y7686638D01*
X27475000Y7686637D01*
X27410002Y7602774D01*
X27344998Y7511172D01*
X27279997Y7411842D01*
X27214999Y7304788D01*
X27153361Y7195935D01*
X27146303Y7190424D01*
X27143180Y7190000D01*
X26856820Y7190000D01*
X26848547Y7193427D01*
X26846639Y7195935D01*
X26784999Y7304789D01*
X26719999Y7411847D01*
X26654999Y7511174D01*
X26589999Y7602770D01*
X26525000Y7686636D01*
X26460000Y7762770D01*
X26459992Y7762779D01*
X26459983Y7762789D01*
X26395021Y7831154D01*
X26395015Y7831159D01*
X26395008Y7831166D01*
X26395000Y7831174D01*
X26330000Y7891847D01*
X26265000Y7944789D01*
X26211474Y7982019D01*
X26206640Y7989555D01*
X26208551Y7998304D01*
X26209874Y7999887D01*
X26991722Y8782713D01*
X26999993Y8786144D01*
X27008267Y8782723D01*
G37*
%TD.AperFunction*%
%TD*%
%TA.AperFunction,Conductor*%
%TO.N,GND*%
G36*
X46596288Y15731046D02*
G01*
X46677070Y15677070D01*
X46731046Y15596288D01*
X46750000Y15501000D01*
X46750000Y11430117D01*
X46731046Y11334829D01*
X46677070Y11254047D01*
X46596288Y11200071D01*
X46501000Y11181117D01*
X46405712Y11200071D01*
X46324930Y11254047D01*
X46270954Y11334829D01*
X46256411Y11383459D01*
X46241248Y11462945D01*
X46241244Y11462957D01*
X46144038Y11762128D01*
X46010097Y12046767D01*
X46010095Y12046770D01*
X45841542Y12312368D01*
X45750712Y12422161D01*
X45112732Y11784182D01*
X44949870Y11974870D01*
X44759178Y12137735D01*
X45400026Y12778582D01*
X45157222Y12954990D01*
X45157217Y12954993D01*
X44881550Y13106541D01*
X44589062Y13222345D01*
X44284384Y13300573D01*
X44284379Y13300574D01*
X43972282Y13340000D01*
X43657718Y13340000D01*
X43345620Y13300574D01*
X43345615Y13300573D01*
X43040937Y13222345D01*
X42748449Y13106541D01*
X42472789Y12954996D01*
X42229972Y12778582D01*
X42870820Y12137734D01*
X42680130Y11974870D01*
X42517266Y11784180D01*
X41879285Y12422161D01*
X41788460Y12312370D01*
X41619904Y12046770D01*
X41619902Y12046767D01*
X41485961Y11762128D01*
X41388755Y11462959D01*
X41329809Y11153956D01*
X41310057Y10840000D01*
X41329809Y10526045D01*
X41388755Y10217042D01*
X41485961Y9917873D01*
X41619902Y9633234D01*
X41619904Y9633231D01*
X41788457Y9367633D01*
X41879285Y9257842D01*
X42517264Y9895822D01*
X42680130Y9705130D01*
X42870818Y9542267D01*
X42229972Y8901420D01*
X42472783Y8725007D01*
X42748449Y8573460D01*
X43040937Y8457656D01*
X43345615Y8379428D01*
X43345620Y8379427D01*
X43657718Y8340000D01*
X43972282Y8340000D01*
X44284379Y8379427D01*
X44284384Y8379428D01*
X44589062Y8457656D01*
X44881550Y8573460D01*
X45157216Y8725007D01*
X45400026Y8901420D01*
X44759179Y9542267D01*
X44949870Y9705130D01*
X45112733Y9895821D01*
X45750713Y9257841D01*
X45841542Y9367634D01*
X46010095Y9633231D01*
X46010097Y9633234D01*
X46144038Y9917873D01*
X46241244Y10217042D01*
X46256410Y10296542D01*
X46292884Y10386591D01*
X46361041Y10455827D01*
X46450506Y10493710D01*
X46547658Y10494474D01*
X46637707Y10458000D01*
X46706943Y10389843D01*
X46744826Y10300378D01*
X46750000Y10249884D01*
X46750000Y749000D01*
X46731046Y653712D01*
X46677070Y572930D01*
X46596288Y518954D01*
X46501000Y500000D01*
X8149000Y500000D01*
X8053712Y518954D01*
X7972930Y572930D01*
X7918954Y653712D01*
X7900000Y749000D01*
X7900000Y4115520D01*
X7881335Y4125758D01*
X7877274Y4130000D01*
X7843147Y4130000D01*
X7824364Y4132891D01*
X7791358Y4130000D01*
X6973686Y4130000D01*
X6999493Y4170156D01*
X7040000Y4308111D01*
X7040000Y4451889D01*
X6999493Y4589844D01*
X6973686Y4630000D01*
X7792758Y4630000D01*
X7807962Y4626976D01*
X7815080Y4629051D01*
X7836802Y4630000D01*
X7923633Y4630000D01*
X7976279Y4647870D01*
X8008776Y4650000D01*
X8576914Y4650000D01*
X8672202Y4631046D01*
X8752984Y4577070D01*
X9322756Y4007298D01*
X9376542Y3926973D01*
X9404602Y3859609D01*
X9406458Y3855027D01*
X9445100Y3756810D01*
X9446707Y3752614D01*
X9485986Y3647234D01*
X9487385Y3643385D01*
X9527300Y3530669D01*
X9528524Y3527127D01*
X9568915Y3407368D01*
X9569992Y3404099D01*
X9610761Y3277466D01*
X9611713Y3274446D01*
X9652866Y3140817D01*
X9653711Y3138015D01*
X9695132Y2997673D01*
X9695884Y2995071D01*
X9715068Y2927368D01*
X9724500Y2859486D01*
X9724500Y2494994D01*
X9735001Y2392200D01*
X9764340Y2303663D01*
X9790186Y2225666D01*
X9882288Y2076344D01*
X10006344Y1952288D01*
X10155666Y1860186D01*
X10155669Y1860185D01*
X10155667Y1860185D01*
X10319310Y1805960D01*
X10322203Y1805001D01*
X10424991Y1794500D01*
X11150008Y1794501D01*
X11191221Y1798712D01*
X11216525Y1800000D01*
X13283466Y1800000D01*
X13308771Y1798711D01*
X13312740Y1798306D01*
X13349991Y1794500D01*
X14075008Y1794501D01*
X14177797Y1805001D01*
X14344334Y1860186D01*
X14493656Y1952288D01*
X14617712Y2076344D01*
X14709814Y2225666D01*
X14745150Y2332305D01*
X14793112Y2416790D01*
X14828390Y2450334D01*
X14849123Y2466502D01*
X14861418Y2475497D01*
X14861943Y2475857D01*
X14951249Y2514114D01*
X15002760Y2519500D01*
X26522643Y2519500D01*
X26546072Y2518395D01*
X26558292Y2517241D01*
X26558296Y2517240D01*
X26626289Y2519378D01*
X26634111Y2519500D01*
X26660922Y2519500D01*
X26660925Y2519500D01*
X26660927Y2519501D01*
X26665458Y2519786D01*
X26682830Y2521155D01*
X26722569Y2522403D01*
X26733502Y2525580D01*
X26771756Y2533502D01*
X26783058Y2534929D01*
X26820038Y2549572D01*
X26842210Y2557163D01*
X26880398Y2568256D01*
X26890195Y2574051D01*
X26925289Y2591243D01*
X26935871Y2595432D01*
X26968046Y2618809D01*
X26987637Y2631678D01*
X27021865Y2651919D01*
X27029916Y2659971D01*
X27059629Y2685348D01*
X27068837Y2692037D01*
X27094176Y2722669D01*
X27109952Y2740008D01*
X31320069Y6950125D01*
X31352189Y6977227D01*
X31359839Y6982646D01*
X31477294Y7094110D01*
X31488473Y7104094D01*
X31575793Y7177490D01*
X31588508Y7187490D01*
X31660438Y7240354D01*
X31672445Y7248645D01*
X31742724Y7294198D01*
X31750222Y7298870D01*
X31929571Y7406191D01*
X31937486Y7411026D01*
X31937842Y7411248D01*
X31945301Y7415991D01*
X32031665Y7471968D01*
X32045033Y7480632D01*
X32057226Y7488789D01*
X32057255Y7488809D01*
X32057820Y7489199D01*
X32070020Y7497890D01*
X32078831Y7504365D01*
X32120222Y7534786D01*
X32178986Y7577974D01*
X32192490Y7588251D01*
X32193089Y7588723D01*
X32205476Y7598806D01*
X32328441Y7702161D01*
X32339603Y7711825D01*
X32340129Y7712294D01*
X32351675Y7722914D01*
X32484944Y7849379D01*
X32490073Y7854316D01*
X32490282Y7854520D01*
X32530394Y7898579D01*
X32530394Y7898580D01*
X32538862Y7907880D01*
X32541016Y7905919D01*
X32597105Y7956841D01*
X32688553Y7989650D01*
X32785595Y7984965D01*
X32873457Y7943501D01*
X32901361Y7919453D01*
X33030861Y7789953D01*
X33030864Y7789951D01*
X33030865Y7789950D01*
X33217258Y7659437D01*
X33217262Y7659435D01*
X33217266Y7659432D01*
X33217270Y7659431D01*
X33217272Y7659429D01*
X33292776Y7624221D01*
X33423504Y7563261D01*
X33643308Y7504365D01*
X33662984Y7502644D01*
X33869994Y7484532D01*
X33870000Y7484532D01*
X33870006Y7484532D01*
X34049668Y7500251D01*
X34096692Y7504365D01*
X34316496Y7563261D01*
X34522734Y7659432D01*
X34709139Y7789953D01*
X34870047Y7950861D01*
X34874757Y7957589D01*
X34944935Y8024774D01*
X35035483Y8059990D01*
X35078305Y8061860D01*
X35676922Y8660477D01*
X35700507Y8580156D01*
X35778239Y8459202D01*
X35886900Y8365048D01*
X36017685Y8305320D01*
X36027465Y8303914D01*
X35434527Y7710977D01*
X35434527Y7710975D01*
X35507515Y7659868D01*
X35713676Y7563733D01*
X35933396Y7504860D01*
X36160000Y7485035D01*
X36386602Y7504860D01*
X36386603Y7504860D01*
X36606326Y7563734D01*
X36812476Y7659863D01*
X36812483Y7659867D01*
X36885471Y7710975D01*
X36292532Y8303914D01*
X36302315Y8305320D01*
X36433100Y8365048D01*
X36541761Y8459202D01*
X36619493Y8580156D01*
X36643077Y8660477D01*
X37239025Y8064529D01*
X37290133Y8137517D01*
X37290137Y8137524D01*
X37386266Y8343674D01*
X37445140Y8563397D01*
X37445140Y8563398D01*
X37464965Y8790000D01*
X37445140Y9016603D01*
X37445140Y9016604D01*
X37386267Y9236324D01*
X37290132Y9442485D01*
X37239025Y9515473D01*
X37239023Y9515473D01*
X36643076Y8919526D01*
X36619493Y8999844D01*
X36541761Y9120798D01*
X36433100Y9214952D01*
X36302315Y9274680D01*
X36292533Y9276087D01*
X36885471Y9869026D01*
X36885471Y9869028D01*
X36812488Y9920131D01*
X36812486Y9920133D01*
X36606323Y10016268D01*
X36429384Y10063678D01*
X36342248Y10106649D01*
X36278190Y10179694D01*
X36246960Y10271693D01*
X36253314Y10368640D01*
X36253315Y10368641D01*
X36300139Y10543389D01*
X36300140Y10543398D01*
X36319965Y10770000D01*
X36300140Y10996603D01*
X36300140Y10996604D01*
X36253444Y11170878D01*
X36247090Y11267825D01*
X36278320Y11359824D01*
X36342378Y11432869D01*
X36429509Y11475838D01*
X36606496Y11523261D01*
X36812734Y11619432D01*
X36999139Y11749953D01*
X37160047Y11910861D01*
X37290568Y12097266D01*
X37386739Y12303504D01*
X37445635Y12523308D01*
X37455363Y12634496D01*
X37465468Y12749995D01*
X37465468Y12750006D01*
X37445636Y12976680D01*
X37445635Y12976692D01*
X37386739Y13196496D01*
X37319822Y13340000D01*
X37290571Y13402728D01*
X37290563Y13402742D01*
X37160050Y13589135D01*
X37160049Y13589136D01*
X37160047Y13589139D01*
X36999139Y13750047D01*
X36999135Y13750050D01*
X36999134Y13750051D01*
X36812741Y13880564D01*
X36812727Y13880572D01*
X36606499Y13976738D01*
X36606496Y13976739D01*
X36386694Y14035635D01*
X36386679Y14035637D01*
X36160006Y14055468D01*
X36159994Y14055468D01*
X35933320Y14035637D01*
X35933305Y14035635D01*
X35713503Y13976739D01*
X35713500Y13976738D01*
X35507272Y13880572D01*
X35507258Y13880564D01*
X35320865Y13750051D01*
X35320861Y13750048D01*
X35320861Y13750047D01*
X35191066Y13620253D01*
X35110288Y13566279D01*
X35015000Y13547325D01*
X34919712Y13566279D01*
X34838933Y13620253D01*
X34709139Y13750047D01*
X34709135Y13750050D01*
X34709134Y13750051D01*
X34522741Y13880564D01*
X34522727Y13880572D01*
X34316499Y13976738D01*
X34316496Y13976739D01*
X34096694Y14035635D01*
X34096679Y14035637D01*
X33870006Y14055468D01*
X33869994Y14055468D01*
X33643320Y14035637D01*
X33643305Y14035635D01*
X33423503Y13976739D01*
X33423500Y13976738D01*
X33217272Y13880572D01*
X33217258Y13880564D01*
X33030865Y13750051D01*
X33030861Y13750048D01*
X33030861Y13750047D01*
X32901066Y13620253D01*
X32820288Y13566279D01*
X32725000Y13547325D01*
X32629712Y13566279D01*
X32548933Y13620253D01*
X32419139Y13750047D01*
X32419135Y13750050D01*
X32419134Y13750051D01*
X32232741Y13880564D01*
X32232727Y13880572D01*
X32026499Y13976738D01*
X32026496Y13976739D01*
X31806694Y14035635D01*
X31806679Y14035637D01*
X31580006Y14055468D01*
X31579994Y14055468D01*
X31353320Y14035637D01*
X31353305Y14035635D01*
X31133503Y13976739D01*
X31133500Y13976738D01*
X30927272Y13880572D01*
X30927258Y13880564D01*
X30740865Y13750051D01*
X30740861Y13750048D01*
X30740861Y13750047D01*
X30611066Y13620253D01*
X30530288Y13566279D01*
X30435000Y13547325D01*
X30339712Y13566279D01*
X30258933Y13620253D01*
X30129139Y13750047D01*
X30129135Y13750050D01*
X30129134Y13750051D01*
X29942741Y13880564D01*
X29942727Y13880572D01*
X29736499Y13976738D01*
X29736496Y13976739D01*
X29516694Y14035635D01*
X29516679Y14035637D01*
X29290006Y14055468D01*
X29289994Y14055468D01*
X29063320Y14035637D01*
X29063305Y14035635D01*
X28843503Y13976739D01*
X28843500Y13976738D01*
X28637272Y13880572D01*
X28637258Y13880564D01*
X28450865Y13750051D01*
X28450861Y13750048D01*
X28450861Y13750047D01*
X28321066Y13620253D01*
X28240288Y13566279D01*
X28145000Y13547325D01*
X28049712Y13566279D01*
X27968933Y13620253D01*
X27839139Y13750047D01*
X27839135Y13750050D01*
X27839134Y13750051D01*
X27652741Y13880564D01*
X27652727Y13880572D01*
X27446499Y13976738D01*
X27446496Y13976739D01*
X27226694Y14035635D01*
X27226679Y14035637D01*
X27000006Y14055468D01*
X26999994Y14055468D01*
X26773320Y14035637D01*
X26773305Y14035635D01*
X26553503Y13976739D01*
X26553500Y13976738D01*
X26347272Y13880572D01*
X26347258Y13880564D01*
X26160865Y13750051D01*
X25999949Y13589135D01*
X25869436Y13402742D01*
X25869428Y13402728D01*
X25773262Y13196500D01*
X25773261Y13196497D01*
X25714365Y12976695D01*
X25714363Y12976680D01*
X25694532Y12750006D01*
X25694532Y12749995D01*
X25714363Y12523321D01*
X25714365Y12523307D01*
X25761202Y12348510D01*
X25767556Y12251563D01*
X25736326Y12159565D01*
X25672267Y12086520D01*
X25585133Y12043550D01*
X25408680Y11996269D01*
X25202514Y11900133D01*
X25202510Y11900130D01*
X25129527Y11849028D01*
X25129527Y11849026D01*
X25722465Y11256087D01*
X25712685Y11254680D01*
X25581900Y11194952D01*
X25473239Y11100798D01*
X25395507Y10979844D01*
X25371922Y10899524D01*
X24775973Y11495473D01*
X24775972Y11495473D01*
X24724870Y11422490D01*
X24724867Y11422486D01*
X24628732Y11216324D01*
X24569859Y10996604D01*
X24569859Y10996603D01*
X24550034Y10770000D01*
X24569859Y10543398D01*
X24569859Y10543397D01*
X24628732Y10323677D01*
X24724867Y10117514D01*
X24724869Y10117512D01*
X24775972Y10044529D01*
X24775974Y10044529D01*
X25371922Y10640477D01*
X25395507Y10560156D01*
X25473239Y10439202D01*
X25581900Y10345048D01*
X25712685Y10285320D01*
X25722463Y10283914D01*
X25129527Y9690977D01*
X25129527Y9690975D01*
X25202515Y9639868D01*
X25408678Y9543732D01*
X25514944Y9515259D01*
X25602080Y9472289D01*
X25666139Y9399245D01*
X25697370Y9307246D01*
X25699500Y9274743D01*
X25699500Y7942135D01*
X25699501Y7942131D01*
X25705908Y7882520D01*
X25705909Y7882516D01*
X25756204Y7747668D01*
X25807141Y7679625D01*
X25809891Y7675880D01*
X25820092Y7661709D01*
X25825949Y7654502D01*
X25842454Y7632454D01*
X25842457Y7632452D01*
X25842458Y7632451D01*
X25883512Y7601718D01*
X25904116Y7584484D01*
X25922825Y7567036D01*
X25922827Y7567035D01*
X25922830Y7567032D01*
X25952892Y7546123D01*
X25967919Y7534802D01*
X25991045Y7515967D01*
X26003679Y7504946D01*
X26020566Y7489183D01*
X26033537Y7477076D01*
X26044114Y7466594D01*
X26079725Y7429117D01*
X26088572Y7419296D01*
X26128948Y7372005D01*
X26136390Y7362859D01*
X26180694Y7305694D01*
X26186948Y7297264D01*
X26234521Y7230226D01*
X26239808Y7222470D01*
X26290032Y7145723D01*
X26294521Y7138604D01*
X26313341Y7107607D01*
X26346593Y7016319D01*
X26349500Y6978379D01*
X26349500Y5622586D01*
X26330546Y5527298D01*
X26276570Y5446516D01*
X25953484Y5123430D01*
X25872702Y5069454D01*
X25777414Y5050500D01*
X17222586Y5050500D01*
X17127298Y5069454D01*
X17046516Y5123430D01*
X16723430Y5446516D01*
X16669454Y5527298D01*
X16650500Y5622586D01*
X16650500Y9007611D01*
X16669454Y9102899D01*
X16723430Y9183681D01*
X16804212Y9237657D01*
X16872731Y9251287D01*
X17517265Y9895822D01*
X17680130Y9705130D01*
X17870818Y9542267D01*
X17229972Y8901420D01*
X17472783Y8725007D01*
X17748449Y8573460D01*
X18040937Y8457656D01*
X18345615Y8379428D01*
X18345620Y8379427D01*
X18657718Y8340000D01*
X18972282Y8340000D01*
X19284379Y8379427D01*
X19284384Y8379428D01*
X19589062Y8457656D01*
X19881550Y8573460D01*
X20157216Y8725007D01*
X20400026Y8901420D01*
X19759179Y9542267D01*
X19949870Y9705130D01*
X20112733Y9895821D01*
X20750713Y9257841D01*
X20841542Y9367634D01*
X21010095Y9633231D01*
X21010097Y9633234D01*
X21144038Y9917873D01*
X21241244Y10217042D01*
X21300190Y10526045D01*
X21319942Y10840000D01*
X21300190Y11153956D01*
X21241244Y11462959D01*
X21144038Y11762128D01*
X21010097Y12046767D01*
X21010095Y12046770D01*
X20841542Y12312368D01*
X20750712Y12422161D01*
X20112732Y11784182D01*
X19949870Y11974870D01*
X19759178Y12137735D01*
X20400026Y12778582D01*
X20157222Y12954990D01*
X20157217Y12954993D01*
X19881550Y13106541D01*
X19589062Y13222345D01*
X19284384Y13300573D01*
X19284379Y13300574D01*
X18972282Y13340000D01*
X18657718Y13340000D01*
X18345620Y13300574D01*
X18345615Y13300573D01*
X18040937Y13222345D01*
X17748449Y13106541D01*
X17472789Y12954996D01*
X17229972Y12778582D01*
X17870820Y12137734D01*
X17680130Y11974870D01*
X17517266Y11784180D01*
X16879284Y12422162D01*
X16829814Y12419828D01*
X16767220Y12401106D01*
X16743779Y12400000D01*
X16123086Y12400000D01*
X16027798Y12418954D01*
X15947016Y12472930D01*
X15858810Y12561136D01*
X15843025Y12578484D01*
X15835201Y12587941D01*
X15785625Y12634496D01*
X15780011Y12639936D01*
X15761041Y12658906D01*
X15757697Y12661854D01*
X15744386Y12673222D01*
X15715393Y12700448D01*
X15715390Y12700450D01*
X15715388Y12700452D01*
X15705409Y12705938D01*
X15672763Y12727383D01*
X15663767Y12734361D01*
X15663768Y12734361D01*
X15627281Y12750150D01*
X15606222Y12760467D01*
X15571370Y12779626D01*
X15571369Y12779627D01*
X15571368Y12779627D01*
X15560323Y12782464D01*
X15523373Y12795115D01*
X15512926Y12799636D01*
X15473660Y12805855D01*
X15450692Y12810611D01*
X15412177Y12820500D01*
X15412176Y12820500D01*
X15400794Y12820500D01*
X15361839Y12823566D01*
X15350595Y12825347D01*
X15311011Y12821605D01*
X15287578Y12820500D01*
X15049000Y12820500D01*
X14953712Y12839454D01*
X14872930Y12893430D01*
X14818954Y12974212D01*
X14800000Y13069500D01*
X14800000Y15501000D01*
X14818954Y15596288D01*
X14872930Y15677070D01*
X14953712Y15731046D01*
X15049000Y15750000D01*
X46501000Y15750000D01*
X46596288Y15731046D01*
G37*
%TD.AperFunction*%
%TA.AperFunction,Conductor*%
G36*
X6080507Y4589844D02*
G01*
X6040000Y4451889D01*
X6040000Y4308111D01*
X6080507Y4170156D01*
X6106314Y4130000D01*
X4433686Y4130000D01*
X4459493Y4170156D01*
X4500000Y4308111D01*
X4500000Y4451889D01*
X4459493Y4589844D01*
X4433686Y4630000D01*
X6106314Y4630000D01*
X6080507Y4589844D01*
G37*
%TD.AperFunction*%
%TD*%
%TA.AperFunction,Conductor*%
%TO.N,Net-(J2-Pad3)*%
G36*
X14282668Y3723625D02*
G01*
X14283215Y3723037D01*
X14331250Y3667709D01*
X14331253Y3667706D01*
X14387488Y3608160D01*
X14387492Y3608156D01*
X14387500Y3608148D01*
X14443750Y3553820D01*
X14500000Y3504722D01*
X14556250Y3460856D01*
X14556255Y3460853D01*
X14556261Y3460848D01*
X14612486Y3422231D01*
X14612492Y3422228D01*
X14612500Y3422222D01*
X14668750Y3388820D01*
X14668754Y3388818D01*
X14668768Y3388810D01*
X14724988Y3360654D01*
X14725000Y3360648D01*
X14781250Y3337709D01*
X14829313Y3322578D01*
X14836176Y3316825D01*
X14837500Y3311418D01*
X14837500Y3028583D01*
X14834073Y3020310D01*
X14829313Y3017423D01*
X14781253Y3002294D01*
X14725008Y2979357D01*
X14724988Y2979348D01*
X14668768Y2951192D01*
X14668754Y2951184D01*
X14612486Y2917771D01*
X14556261Y2879153D01*
X14556248Y2879143D01*
X14500005Y2835284D01*
X14443752Y2786184D01*
X14387492Y2731846D01*
X14387488Y2731842D01*
X14331253Y2672296D01*
X14283223Y2616972D01*
X14275212Y2612971D01*
X14266718Y2615807D01*
X14266122Y2616362D01*
X13964169Y2917779D01*
X13719793Y3161722D01*
X13716360Y3169990D01*
X13719779Y3178265D01*
X14266124Y3723640D01*
X14274398Y3727059D01*
X14282668Y3723625D01*
G37*
%TD.AperFunction*%
%TD*%
M02*
