%TF.GenerationSoftware,KiCad,Pcbnew,10.0.4-10.0.4~ubuntu22.04.1*%
%TF.CreationDate,2026-09-12T00:22:05+02:00*%
%TF.ProjectId,PMOD2PSRAM,504d4f44-3250-4535-9241-4d2e6b696361,rev?*%
%TF.SameCoordinates,PX8c6db50PY50d2eb0*%
%TF.FileFunction,Drillmap*%
%TF.FilePolarity,Positive*%
%FSLAX45Y45*%
G04 Gerber Fmt 4.5, Leading zero omitted, Abs format (unit mm)*
G04 Created by KiCad (PCBNEW 10.0.4-10.0.4~ubuntu22.04.1) date 2026-09-12 00:22:05*
%MOMM*%
%LPD*%
G01*
G04 APERTURE LIST*
%ADD10C,0.100000*%
%ADD11C,0.200000*%
G04 APERTURE END LIST*
D10*
X16500000Y-6850000D02*
G75*
G02*
X16600000Y-6950000I0J-100000D01*
G01*
X16600000Y-8375000D02*
G75*
G02*
X16500000Y-8475000I-100000J0D01*
G01*
X14825000Y-8475000D02*
G75*
G02*
X14725000Y-8375000I0J100000D01*
G01*
X16600000Y-6950000D02*
X16600000Y-8375000D01*
X14725000Y-6950000D02*
G75*
G02*
X14825000Y-6850000I100000J0D01*
G01*
X14825000Y-6850000D02*
X16500000Y-6850000D01*
X14725000Y-8375000D02*
X14725000Y-6950000D01*
X16500000Y-8475000D02*
X14825000Y-8475000D01*
D11*
X14980777Y-8791484D02*
X14980777Y-8591484D01*
X14980777Y-8591484D02*
X15028396Y-8591484D01*
X15028396Y-8591484D02*
X15056967Y-8601008D01*
X15056967Y-8601008D02*
X15076015Y-8620055D01*
X15076015Y-8620055D02*
X15085539Y-8639103D01*
X15085539Y-8639103D02*
X15095062Y-8677198D01*
X15095062Y-8677198D02*
X15095062Y-8705770D01*
X15095062Y-8705770D02*
X15085539Y-8743865D01*
X15085539Y-8743865D02*
X15076015Y-8762912D01*
X15076015Y-8762912D02*
X15056967Y-8781960D01*
X15056967Y-8781960D02*
X15028396Y-8791484D01*
X15028396Y-8791484D02*
X14980777Y-8791484D01*
X15180777Y-8791484D02*
X15180777Y-8658150D01*
X15180777Y-8696246D02*
X15190301Y-8677198D01*
X15190301Y-8677198D02*
X15199824Y-8667674D01*
X15199824Y-8667674D02*
X15218872Y-8658150D01*
X15218872Y-8658150D02*
X15237920Y-8658150D01*
X15304586Y-8791484D02*
X15304586Y-8658150D01*
X15304586Y-8591484D02*
X15295062Y-8601008D01*
X15295062Y-8601008D02*
X15304586Y-8610531D01*
X15304586Y-8610531D02*
X15314110Y-8601008D01*
X15314110Y-8601008D02*
X15304586Y-8591484D01*
X15304586Y-8591484D02*
X15304586Y-8610531D01*
X15428396Y-8791484D02*
X15409348Y-8781960D01*
X15409348Y-8781960D02*
X15399824Y-8762912D01*
X15399824Y-8762912D02*
X15399824Y-8591484D01*
X15533158Y-8791484D02*
X15514110Y-8781960D01*
X15514110Y-8781960D02*
X15504586Y-8762912D01*
X15504586Y-8762912D02*
X15504586Y-8591484D01*
X15761729Y-8791484D02*
X15761729Y-8591484D01*
X15761729Y-8591484D02*
X15828396Y-8734341D01*
X15828396Y-8734341D02*
X15895062Y-8591484D01*
X15895062Y-8591484D02*
X15895062Y-8791484D01*
X16076015Y-8791484D02*
X16076015Y-8686722D01*
X16076015Y-8686722D02*
X16066491Y-8667674D01*
X16066491Y-8667674D02*
X16047443Y-8658150D01*
X16047443Y-8658150D02*
X16009348Y-8658150D01*
X16009348Y-8658150D02*
X15990301Y-8667674D01*
X16076015Y-8781960D02*
X16056967Y-8791484D01*
X16056967Y-8791484D02*
X16009348Y-8791484D01*
X16009348Y-8791484D02*
X15990301Y-8781960D01*
X15990301Y-8781960D02*
X15980777Y-8762912D01*
X15980777Y-8762912D02*
X15980777Y-8743865D01*
X15980777Y-8743865D02*
X15990301Y-8724817D01*
X15990301Y-8724817D02*
X16009348Y-8715293D01*
X16009348Y-8715293D02*
X16056967Y-8715293D01*
X16056967Y-8715293D02*
X16076015Y-8705770D01*
X16171253Y-8658150D02*
X16171253Y-8858150D01*
X16171253Y-8667674D02*
X16190301Y-8658150D01*
X16190301Y-8658150D02*
X16228396Y-8658150D01*
X16228396Y-8658150D02*
X16247443Y-8667674D01*
X16247443Y-8667674D02*
X16256967Y-8677198D01*
X16256967Y-8677198D02*
X16266491Y-8696246D01*
X16266491Y-8696246D02*
X16266491Y-8753389D01*
X16266491Y-8753389D02*
X16256967Y-8772436D01*
X16256967Y-8772436D02*
X16247443Y-8781960D01*
X16247443Y-8781960D02*
X16228396Y-8791484D01*
X16228396Y-8791484D02*
X16190301Y-8791484D01*
X16190301Y-8791484D02*
X16171253Y-8781960D01*
X16352205Y-8772436D02*
X16361729Y-8781960D01*
X16361729Y-8781960D02*
X16352205Y-8791484D01*
X16352205Y-8791484D02*
X16342682Y-8781960D01*
X16342682Y-8781960D02*
X16352205Y-8772436D01*
X16352205Y-8772436D02*
X16352205Y-8791484D01*
X16352205Y-8667674D02*
X16361729Y-8677198D01*
X16361729Y-8677198D02*
X16352205Y-8686722D01*
X16352205Y-8686722D02*
X16342682Y-8677198D01*
X16342682Y-8677198D02*
X16352205Y-8667674D01*
X16352205Y-8667674D02*
X16352205Y-8686722D01*
M02*
