G04 #@! TF.GenerationSoftware,KiCad,Pcbnew,10.0.4-10.0.4~ubuntu22.04.1*
G04 #@! TF.CreationDate,2026-09-12T00:22:05+02:00*
G04 #@! TF.ProjectId,PMOD2PSRAM,504d4f44-3250-4535-9241-4d2e6b696361,rev?*
G04 #@! TF.SameCoordinates,PX8c6db50PY50d2eb0*
G04 #@! TF.FileFunction,Legend,Bot*
G04 #@! TF.FilePolarity,Positive*
%FSLAX46Y46*%
G04 Gerber Fmt 4.6, Leading zero omitted, Abs format (unit mm)*
G04 Created by KiCad (PCBNEW 10.0.4-10.0.4~ubuntu22.04.1) date 2026-09-12 00:22:05*
%MOMM*%
%LPD*%
G01*
G04 APERTURE LIST*
%ADD10C,0.150000*%
%ADD11R,1.700000X1.700000*%
%ADD12O,1.700000X1.700000*%
G04 APERTURE END LIST*
D10*
G36*
X158646950Y-75805930D02*
G01*
X154893887Y-75805930D01*
X154893887Y-75615737D01*
X155004998Y-75615737D01*
X155009137Y-75644706D01*
X155024046Y-75669887D01*
X155047457Y-75687445D01*
X155075805Y-75694708D01*
X155104774Y-75690569D01*
X155129955Y-75675660D01*
X155139887Y-75664819D01*
X155516572Y-75162570D01*
X155576315Y-75222313D01*
X155576315Y-75619819D01*
X155577756Y-75634451D01*
X155588955Y-75661487D01*
X155609647Y-75682179D01*
X155636683Y-75693378D01*
X155665947Y-75693378D01*
X155692983Y-75682179D01*
X155713675Y-75661487D01*
X155724874Y-75634451D01*
X155726315Y-75619819D01*
X155726315Y-75605187D01*
X155911090Y-75605187D01*
X155911090Y-75634451D01*
X155922289Y-75661487D01*
X155942981Y-75682179D01*
X155970017Y-75693378D01*
X155984649Y-75694819D01*
X156460839Y-75694819D01*
X156475471Y-75693378D01*
X156502507Y-75682179D01*
X156523199Y-75661487D01*
X156534398Y-75634451D01*
X156535839Y-75619819D01*
X156535839Y-74700426D01*
X156815852Y-74700426D01*
X156815852Y-74729688D01*
X156827051Y-74756725D01*
X156847743Y-74777417D01*
X156874780Y-74788616D01*
X156904042Y-74788616D01*
X156931079Y-74777417D01*
X156942444Y-74768090D01*
X156977544Y-74732990D01*
X157092057Y-74694819D01*
X157162955Y-74694819D01*
X157277468Y-74732990D01*
X157351581Y-74807103D01*
X157390074Y-74884090D01*
X157433458Y-75057624D01*
X157433458Y-75182013D01*
X157390074Y-75355547D01*
X157351580Y-75432534D01*
X157277468Y-75506647D01*
X157162955Y-75544819D01*
X157092057Y-75544819D01*
X156977544Y-75506648D01*
X156942445Y-75471548D01*
X156931079Y-75462220D01*
X156904043Y-75451021D01*
X156874780Y-75451021D01*
X156847744Y-75462219D01*
X156827051Y-75482912D01*
X156815852Y-75509948D01*
X156815852Y-75539211D01*
X156827050Y-75566247D01*
X156836377Y-75577612D01*
X156883996Y-75625232D01*
X156895362Y-75634560D01*
X156897850Y-75635590D01*
X156899887Y-75637357D01*
X156913313Y-75643351D01*
X157056169Y-75690970D01*
X157063424Y-75692619D01*
X157065255Y-75693378D01*
X157067908Y-75693639D01*
X157070506Y-75694230D01*
X157072480Y-75694089D01*
X157079887Y-75694819D01*
X157175125Y-75694819D01*
X157182530Y-75694089D01*
X157184505Y-75694230D01*
X157187102Y-75693639D01*
X157189757Y-75693378D01*
X157191588Y-75692619D01*
X157198842Y-75690970D01*
X157341699Y-75643351D01*
X157355124Y-75637357D01*
X157357159Y-75635591D01*
X157359650Y-75634560D01*
X157371015Y-75625233D01*
X157466254Y-75529993D01*
X157470971Y-75524244D01*
X157472470Y-75522945D01*
X157473891Y-75520686D01*
X157475581Y-75518628D01*
X157476338Y-75516798D01*
X157480302Y-75510502D01*
X157527921Y-75415264D01*
X157528330Y-75414194D01*
X157528653Y-75413759D01*
X157530845Y-75407622D01*
X157533176Y-75401533D01*
X157533214Y-75400992D01*
X157533600Y-75399913D01*
X157550052Y-75334104D01*
X157814411Y-75334104D01*
X157814411Y-75429342D01*
X157815852Y-75443974D01*
X157816883Y-75446463D01*
X157817074Y-75449151D01*
X157822329Y-75462883D01*
X157869948Y-75558121D01*
X157873911Y-75564417D01*
X157874669Y-75566247D01*
X157876358Y-75568305D01*
X157877780Y-75570564D01*
X157879278Y-75571863D01*
X157883996Y-75577612D01*
X157931615Y-75625232D01*
X157937364Y-75629950D01*
X157938665Y-75631450D01*
X157940924Y-75632872D01*
X157942981Y-75634560D01*
X157944808Y-75635317D01*
X157951108Y-75639282D01*
X158046346Y-75686901D01*
X158060077Y-75692156D01*
X158062766Y-75692347D01*
X158065255Y-75693378D01*
X158079887Y-75694819D01*
X158317982Y-75694819D01*
X158325387Y-75694089D01*
X158327362Y-75694230D01*
X158329959Y-75693639D01*
X158332614Y-75693378D01*
X158334445Y-75692619D01*
X158341699Y-75690970D01*
X158484556Y-75643351D01*
X158497981Y-75637357D01*
X158520088Y-75618183D01*
X158533175Y-75592010D01*
X158535250Y-75562820D01*
X158525996Y-75535058D01*
X158506822Y-75512950D01*
X158480648Y-75499864D01*
X158451458Y-75497789D01*
X158437121Y-75501049D01*
X158305812Y-75544819D01*
X158097592Y-75544819D01*
X158029076Y-75510561D01*
X157998669Y-75480153D01*
X157964411Y-75411637D01*
X157964411Y-75351809D01*
X157998669Y-75283293D01*
X158029076Y-75252886D01*
X158106063Y-75214392D01*
X158288553Y-75168770D01*
X158289632Y-75168384D01*
X158290172Y-75168346D01*
X158296253Y-75166018D01*
X158302399Y-75163823D01*
X158302834Y-75163500D01*
X158303904Y-75163091D01*
X158399142Y-75115472D01*
X158405441Y-75111507D01*
X158407269Y-75110750D01*
X158409325Y-75109061D01*
X158411585Y-75107640D01*
X158412884Y-75106141D01*
X158418634Y-75101423D01*
X158466253Y-75053804D01*
X158470971Y-75048054D01*
X158472470Y-75046755D01*
X158473891Y-75044495D01*
X158475580Y-75042439D01*
X158476337Y-75040611D01*
X158480302Y-75034312D01*
X158527921Y-74939074D01*
X158533176Y-74925343D01*
X158533367Y-74922653D01*
X158534398Y-74920165D01*
X158535839Y-74905533D01*
X158535839Y-74810295D01*
X158534398Y-74795663D01*
X158533367Y-74793174D01*
X158533176Y-74790485D01*
X158527921Y-74776754D01*
X158480302Y-74681516D01*
X158476337Y-74675216D01*
X158475580Y-74673389D01*
X158473891Y-74671332D01*
X158472470Y-74669073D01*
X158470971Y-74667773D01*
X158466253Y-74662024D01*
X158418634Y-74614405D01*
X158412884Y-74609686D01*
X158411585Y-74608188D01*
X158409325Y-74606766D01*
X158407269Y-74605078D01*
X158405441Y-74604320D01*
X158399142Y-74600356D01*
X158303904Y-74552737D01*
X158290172Y-74547482D01*
X158287484Y-74547291D01*
X158284995Y-74546260D01*
X158270363Y-74544819D01*
X158032268Y-74544819D01*
X158024861Y-74545548D01*
X158022887Y-74545408D01*
X158020289Y-74545998D01*
X158017636Y-74546260D01*
X158015805Y-74547018D01*
X158008550Y-74548668D01*
X157865694Y-74596287D01*
X157852268Y-74602281D01*
X157830161Y-74621455D01*
X157817075Y-74647628D01*
X157815000Y-74676818D01*
X157824254Y-74704581D01*
X157843428Y-74726688D01*
X157869601Y-74739774D01*
X157898791Y-74741849D01*
X157913128Y-74738589D01*
X158044438Y-74694819D01*
X158252658Y-74694819D01*
X158321174Y-74729077D01*
X158351581Y-74759484D01*
X158385839Y-74828000D01*
X158385839Y-74887828D01*
X158351581Y-74956344D01*
X158321174Y-74986751D01*
X158244187Y-75025244D01*
X158061697Y-75070867D01*
X158060617Y-75071252D01*
X158060077Y-75071291D01*
X158053987Y-75073621D01*
X158047851Y-75075814D01*
X158047415Y-75076136D01*
X158046346Y-75076546D01*
X157951108Y-75124165D01*
X157944808Y-75128129D01*
X157942981Y-75128887D01*
X157940924Y-75130575D01*
X157938665Y-75131997D01*
X157937365Y-75133495D01*
X157931616Y-75138214D01*
X157883997Y-75185833D01*
X157879278Y-75191582D01*
X157877780Y-75192882D01*
X157876358Y-75195141D01*
X157874670Y-75197198D01*
X157873912Y-75199025D01*
X157869948Y-75205325D01*
X157822329Y-75300563D01*
X157817074Y-75314295D01*
X157816883Y-75316982D01*
X157815852Y-75319472D01*
X157814411Y-75334104D01*
X157550052Y-75334104D01*
X157581219Y-75209437D01*
X157581594Y-75206900D01*
X157582017Y-75205879D01*
X157582559Y-75200366D01*
X157583369Y-75194893D01*
X157583206Y-75193800D01*
X157583458Y-75191247D01*
X157583458Y-75048390D01*
X157583206Y-75045836D01*
X157583369Y-75044744D01*
X157582559Y-75039270D01*
X157582017Y-75033758D01*
X157581594Y-75032736D01*
X157581219Y-75030200D01*
X157533600Y-74839724D01*
X157533214Y-74838644D01*
X157533176Y-74838104D01*
X157530845Y-74832014D01*
X157528653Y-74825878D01*
X157528330Y-74825442D01*
X157527921Y-74824373D01*
X157480302Y-74729135D01*
X157476339Y-74722840D01*
X157475581Y-74721008D01*
X157473889Y-74718946D01*
X157472470Y-74716692D01*
X157470973Y-74715393D01*
X157466253Y-74709643D01*
X157371015Y-74614405D01*
X157359650Y-74605078D01*
X157357159Y-74604046D01*
X157355124Y-74602281D01*
X157341699Y-74596287D01*
X157198842Y-74548668D01*
X157191588Y-74547018D01*
X157189757Y-74546260D01*
X157187102Y-74545998D01*
X157184505Y-74545408D01*
X157182530Y-74545548D01*
X157175125Y-74544819D01*
X157079887Y-74544819D01*
X157072480Y-74545548D01*
X157070506Y-74545408D01*
X157067908Y-74545998D01*
X157065255Y-74546260D01*
X157063424Y-74547018D01*
X157056169Y-74548668D01*
X156913313Y-74596287D01*
X156899887Y-74602281D01*
X156897850Y-74604047D01*
X156895362Y-74605078D01*
X156883997Y-74614405D01*
X156836378Y-74662024D01*
X156827051Y-74673389D01*
X156815852Y-74700426D01*
X156535839Y-74700426D01*
X156535839Y-74619819D01*
X156534398Y-74605187D01*
X156523199Y-74578151D01*
X156502507Y-74557459D01*
X156475471Y-74546260D01*
X156446207Y-74546260D01*
X156419171Y-74557459D01*
X156398479Y-74578151D01*
X156387280Y-74605187D01*
X156385839Y-74619819D01*
X156385839Y-75544819D01*
X155984649Y-75544819D01*
X155970017Y-75546260D01*
X155942981Y-75557459D01*
X155922289Y-75578151D01*
X155911090Y-75605187D01*
X155726315Y-75605187D01*
X155726315Y-74619819D01*
X155724874Y-74605187D01*
X155713675Y-74578151D01*
X155692983Y-74557459D01*
X155665947Y-74546260D01*
X155636683Y-74546260D01*
X155609647Y-74557459D01*
X155588955Y-74578151D01*
X155577756Y-74605187D01*
X155576315Y-74619819D01*
X155576315Y-75010181D01*
X155132920Y-74566786D01*
X155121555Y-74557459D01*
X155094518Y-74546260D01*
X155065256Y-74546260D01*
X155038219Y-74557459D01*
X155017527Y-74578151D01*
X155006328Y-74605188D01*
X155006328Y-74634450D01*
X155017527Y-74661487D01*
X155026854Y-74672852D01*
X155409429Y-75055427D01*
X155019887Y-75574819D01*
X155012261Y-75587389D01*
X155004998Y-75615737D01*
X154893887Y-75615737D01*
X154893887Y-74433708D01*
X158646950Y-74433708D01*
X158646950Y-75805930D01*
G37*
G36*
X157246950Y-70805930D02*
G01*
X155352360Y-70805930D01*
X155352360Y-69605187D01*
X155463471Y-69605187D01*
X155463471Y-69634451D01*
X155474670Y-69661487D01*
X155495362Y-69682179D01*
X155522398Y-69693378D01*
X155537030Y-69694819D01*
X155938220Y-69694819D01*
X155938220Y-70021009D01*
X155679887Y-70021009D01*
X155665255Y-70022450D01*
X155638219Y-70033649D01*
X155617527Y-70054341D01*
X155606328Y-70081377D01*
X155606328Y-70110641D01*
X155617527Y-70137677D01*
X155638219Y-70158369D01*
X155665255Y-70169568D01*
X155679887Y-70171009D01*
X155938220Y-70171009D01*
X155938220Y-70544819D01*
X155537030Y-70544819D01*
X155522398Y-70546260D01*
X155495362Y-70557459D01*
X155474670Y-70578151D01*
X155463471Y-70605187D01*
X155463471Y-70634451D01*
X155474670Y-70661487D01*
X155495362Y-70682179D01*
X155522398Y-70693378D01*
X155537030Y-70694819D01*
X156013220Y-70694819D01*
X156027852Y-70693378D01*
X156054888Y-70682179D01*
X156075580Y-70661487D01*
X156086779Y-70634451D01*
X156088220Y-70619819D01*
X156088220Y-69700426D01*
X156368233Y-69700426D01*
X156368233Y-69729688D01*
X156379432Y-69756725D01*
X156400124Y-69777417D01*
X156427161Y-69788616D01*
X156456423Y-69788616D01*
X156483460Y-69777417D01*
X156494825Y-69768090D01*
X156529925Y-69732990D01*
X156644438Y-69694819D01*
X156715336Y-69694819D01*
X156829849Y-69732990D01*
X156903962Y-69807103D01*
X156942455Y-69884090D01*
X156985839Y-70057624D01*
X156985839Y-70182013D01*
X156942455Y-70355547D01*
X156903961Y-70432534D01*
X156829849Y-70506647D01*
X156715336Y-70544819D01*
X156644438Y-70544819D01*
X156529925Y-70506648D01*
X156494826Y-70471548D01*
X156483460Y-70462220D01*
X156456424Y-70451021D01*
X156427161Y-70451021D01*
X156400125Y-70462219D01*
X156379432Y-70482912D01*
X156368233Y-70509948D01*
X156368233Y-70539211D01*
X156379431Y-70566247D01*
X156388758Y-70577612D01*
X156436377Y-70625232D01*
X156447743Y-70634560D01*
X156450231Y-70635590D01*
X156452268Y-70637357D01*
X156465694Y-70643351D01*
X156608550Y-70690970D01*
X156615805Y-70692619D01*
X156617636Y-70693378D01*
X156620289Y-70693639D01*
X156622887Y-70694230D01*
X156624861Y-70694089D01*
X156632268Y-70694819D01*
X156727506Y-70694819D01*
X156734911Y-70694089D01*
X156736886Y-70694230D01*
X156739483Y-70693639D01*
X156742138Y-70693378D01*
X156743969Y-70692619D01*
X156751223Y-70690970D01*
X156894080Y-70643351D01*
X156907505Y-70637357D01*
X156909540Y-70635591D01*
X156912031Y-70634560D01*
X156923396Y-70625233D01*
X157018635Y-70529993D01*
X157023352Y-70524244D01*
X157024851Y-70522945D01*
X157026272Y-70520686D01*
X157027962Y-70518628D01*
X157028719Y-70516798D01*
X157032683Y-70510502D01*
X157080302Y-70415264D01*
X157080711Y-70414194D01*
X157081034Y-70413759D01*
X157083226Y-70407622D01*
X157085557Y-70401533D01*
X157085595Y-70400992D01*
X157085981Y-70399913D01*
X157133600Y-70209437D01*
X157133975Y-70206900D01*
X157134398Y-70205879D01*
X157134940Y-70200366D01*
X157135750Y-70194893D01*
X157135587Y-70193800D01*
X157135839Y-70191247D01*
X157135839Y-70048390D01*
X157135587Y-70045836D01*
X157135750Y-70044744D01*
X157134940Y-70039270D01*
X157134398Y-70033758D01*
X157133975Y-70032736D01*
X157133600Y-70030200D01*
X157085981Y-69839724D01*
X157085595Y-69838644D01*
X157085557Y-69838104D01*
X157083226Y-69832014D01*
X157081034Y-69825878D01*
X157080711Y-69825442D01*
X157080302Y-69824373D01*
X157032683Y-69729135D01*
X157028720Y-69722840D01*
X157027962Y-69721008D01*
X157026270Y-69718946D01*
X157024851Y-69716692D01*
X157023354Y-69715393D01*
X157018634Y-69709643D01*
X156923396Y-69614405D01*
X156912031Y-69605078D01*
X156909540Y-69604046D01*
X156907505Y-69602281D01*
X156894080Y-69596287D01*
X156751223Y-69548668D01*
X156743969Y-69547018D01*
X156742138Y-69546260D01*
X156739483Y-69545998D01*
X156736886Y-69545408D01*
X156734911Y-69545548D01*
X156727506Y-69544819D01*
X156632268Y-69544819D01*
X156624861Y-69545548D01*
X156622887Y-69545408D01*
X156620289Y-69545998D01*
X156617636Y-69546260D01*
X156615805Y-69547018D01*
X156608550Y-69548668D01*
X156465694Y-69596287D01*
X156452268Y-69602281D01*
X156450231Y-69604047D01*
X156447743Y-69605078D01*
X156436378Y-69614405D01*
X156388759Y-69662024D01*
X156379432Y-69673389D01*
X156368233Y-69700426D01*
X156088220Y-69700426D01*
X156088220Y-69619819D01*
X156086779Y-69605187D01*
X156075580Y-69578151D01*
X156054888Y-69557459D01*
X156027852Y-69546260D01*
X156013220Y-69544819D01*
X155537030Y-69544819D01*
X155522398Y-69546260D01*
X155495362Y-69557459D01*
X155474670Y-69578151D01*
X155463471Y-69605187D01*
X155352360Y-69605187D01*
X155352360Y-69433708D01*
X157246950Y-69433708D01*
X157246950Y-70805930D01*
G37*
G36*
X162135839Y-74568628D02*
G01*
X161847592Y-74568628D01*
X161779076Y-74534370D01*
X161748669Y-74503963D01*
X161714411Y-74435447D01*
X161714411Y-74328000D01*
X161748669Y-74259484D01*
X161779076Y-74229077D01*
X161847592Y-74194819D01*
X162135839Y-74194819D01*
X162135839Y-74568628D01*
G37*
G36*
X161154401Y-74759104D02*
G01*
X160886325Y-74759104D01*
X161020363Y-74356989D01*
X161154401Y-74759104D01*
G37*
G36*
X164088220Y-74568628D02*
G01*
X163799973Y-74568628D01*
X163731457Y-74534370D01*
X163701050Y-74503963D01*
X163666792Y-74435447D01*
X163666792Y-74328000D01*
X163701050Y-74259484D01*
X163731457Y-74229077D01*
X163799973Y-74194819D01*
X164088220Y-74194819D01*
X164088220Y-74568628D01*
G37*
G36*
X164349331Y-75305930D02*
G01*
X159500919Y-75305930D01*
X159500919Y-74119819D01*
X159612030Y-74119819D01*
X159612030Y-75119819D01*
X159613471Y-75134451D01*
X159624670Y-75161487D01*
X159645362Y-75182179D01*
X159672398Y-75193378D01*
X159701662Y-75193378D01*
X159728698Y-75182179D01*
X159749390Y-75161487D01*
X159760589Y-75134451D01*
X159762030Y-75119819D01*
X159762030Y-74457886D01*
X159952399Y-74865821D01*
X159955573Y-74871180D01*
X159956233Y-74872993D01*
X159957407Y-74874275D01*
X159959893Y-74878471D01*
X159968302Y-74886171D01*
X159975997Y-74894574D01*
X159979015Y-74895982D01*
X159981474Y-74898234D01*
X159992186Y-74902129D01*
X160002515Y-74906950D01*
X160005843Y-74907096D01*
X160008975Y-74908235D01*
X160020369Y-74907734D01*
X160031751Y-74908234D01*
X160034879Y-74907096D01*
X160038211Y-74906950D01*
X160048546Y-74902126D01*
X160059252Y-74898234D01*
X160061707Y-74895984D01*
X160064729Y-74894575D01*
X160072430Y-74886164D01*
X160080833Y-74878470D01*
X160083316Y-74874277D01*
X160084493Y-74872993D01*
X160085153Y-74871177D01*
X160088327Y-74865820D01*
X160278696Y-74457886D01*
X160278696Y-75119819D01*
X160280137Y-75134451D01*
X160291336Y-75161487D01*
X160312028Y-75182179D01*
X160339064Y-75193378D01*
X160368328Y-75193378D01*
X160395364Y-75182179D01*
X160416056Y-75161487D01*
X160427255Y-75134451D01*
X160428696Y-75119819D01*
X160428696Y-75110439D01*
X160612619Y-75110439D01*
X160614694Y-75139629D01*
X160627780Y-75165802D01*
X160649887Y-75184976D01*
X160677650Y-75194230D01*
X160706840Y-75192155D01*
X160733013Y-75179069D01*
X160752187Y-75156962D01*
X160758181Y-75143536D01*
X160836325Y-74909104D01*
X161204401Y-74909104D01*
X161282545Y-75143536D01*
X161288539Y-75156961D01*
X161307713Y-75179068D01*
X161333886Y-75192155D01*
X161363076Y-75194230D01*
X161390838Y-75184976D01*
X161412946Y-75165802D01*
X161426032Y-75139628D01*
X161428107Y-75110438D01*
X161424847Y-75096102D01*
X161162912Y-74310295D01*
X161564411Y-74310295D01*
X161564411Y-74453152D01*
X161565852Y-74467784D01*
X161566883Y-74470273D01*
X161567074Y-74472961D01*
X161572329Y-74486693D01*
X161619948Y-74581931D01*
X161623912Y-74588230D01*
X161624670Y-74590058D01*
X161626358Y-74592114D01*
X161627780Y-74594374D01*
X161629278Y-74595673D01*
X161633997Y-74601423D01*
X161681616Y-74649042D01*
X161687365Y-74653760D01*
X161688665Y-74655259D01*
X161690924Y-74656680D01*
X161692981Y-74658369D01*
X161694808Y-74659126D01*
X161701108Y-74663091D01*
X161796346Y-74710710D01*
X161810077Y-74715965D01*
X161812766Y-74716156D01*
X161815255Y-74717187D01*
X161828772Y-74718518D01*
X161577969Y-75076809D01*
X161570758Y-75089623D01*
X161564429Y-75118194D01*
X161569514Y-75147011D01*
X161585241Y-75171690D01*
X161609215Y-75188472D01*
X161637786Y-75194801D01*
X161666603Y-75189716D01*
X161691282Y-75173989D01*
X161700853Y-75162829D01*
X162011793Y-74718628D01*
X162135839Y-74718628D01*
X162135839Y-75119819D01*
X162137280Y-75134451D01*
X162148479Y-75161487D01*
X162169171Y-75182179D01*
X162196207Y-75193378D01*
X162225471Y-75193378D01*
X162252507Y-75182179D01*
X162273199Y-75161487D01*
X162284398Y-75134451D01*
X162285839Y-75119819D01*
X162285839Y-74834104D01*
X162564411Y-74834104D01*
X162564411Y-74929342D01*
X162565852Y-74943974D01*
X162566883Y-74946463D01*
X162567074Y-74949151D01*
X162572329Y-74962883D01*
X162619948Y-75058121D01*
X162623911Y-75064417D01*
X162624669Y-75066247D01*
X162626358Y-75068305D01*
X162627780Y-75070564D01*
X162629278Y-75071863D01*
X162633996Y-75077612D01*
X162681615Y-75125232D01*
X162687364Y-75129950D01*
X162688665Y-75131450D01*
X162690924Y-75132872D01*
X162692981Y-75134560D01*
X162694808Y-75135317D01*
X162701108Y-75139282D01*
X162796346Y-75186901D01*
X162810077Y-75192156D01*
X162812766Y-75192347D01*
X162815255Y-75193378D01*
X162829887Y-75194819D01*
X163067982Y-75194819D01*
X163075387Y-75194089D01*
X163077362Y-75194230D01*
X163079959Y-75193639D01*
X163082614Y-75193378D01*
X163084445Y-75192619D01*
X163091699Y-75190970D01*
X163234556Y-75143351D01*
X163247981Y-75137357D01*
X163270088Y-75118183D01*
X163283175Y-75092010D01*
X163285250Y-75062820D01*
X163275996Y-75035058D01*
X163256822Y-75012950D01*
X163230648Y-74999864D01*
X163201458Y-74997789D01*
X163187121Y-75001049D01*
X163055812Y-75044819D01*
X162847592Y-75044819D01*
X162779076Y-75010561D01*
X162748669Y-74980153D01*
X162714411Y-74911637D01*
X162714411Y-74851809D01*
X162748669Y-74783293D01*
X162779076Y-74752886D01*
X162856063Y-74714392D01*
X163038553Y-74668770D01*
X163039632Y-74668384D01*
X163040172Y-74668346D01*
X163046253Y-74666018D01*
X163052399Y-74663823D01*
X163052834Y-74663500D01*
X163053904Y-74663091D01*
X163149142Y-74615472D01*
X163155441Y-74611507D01*
X163157269Y-74610750D01*
X163159325Y-74609061D01*
X163161585Y-74607640D01*
X163162884Y-74606141D01*
X163168634Y-74601423D01*
X163216253Y-74553804D01*
X163220971Y-74548054D01*
X163222470Y-74546755D01*
X163223891Y-74544495D01*
X163225580Y-74542439D01*
X163226337Y-74540611D01*
X163230302Y-74534312D01*
X163277921Y-74439074D01*
X163283176Y-74425343D01*
X163283367Y-74422653D01*
X163284398Y-74420165D01*
X163285839Y-74405533D01*
X163285839Y-74310295D01*
X163516792Y-74310295D01*
X163516792Y-74453152D01*
X163518233Y-74467784D01*
X163519264Y-74470273D01*
X163519455Y-74472961D01*
X163524710Y-74486693D01*
X163572329Y-74581931D01*
X163576293Y-74588230D01*
X163577051Y-74590058D01*
X163578739Y-74592114D01*
X163580161Y-74594374D01*
X163581659Y-74595673D01*
X163586378Y-74601423D01*
X163633997Y-74649042D01*
X163639746Y-74653760D01*
X163641046Y-74655259D01*
X163643305Y-74656680D01*
X163645362Y-74658369D01*
X163647189Y-74659126D01*
X163653489Y-74663091D01*
X163748727Y-74710710D01*
X163762458Y-74715965D01*
X163765147Y-74716156D01*
X163767636Y-74717187D01*
X163782268Y-74718628D01*
X164088220Y-74718628D01*
X164088220Y-75119819D01*
X164089661Y-75134451D01*
X164100860Y-75161487D01*
X164121552Y-75182179D01*
X164148588Y-75193378D01*
X164177852Y-75193378D01*
X164204888Y-75182179D01*
X164225580Y-75161487D01*
X164236779Y-75134451D01*
X164238220Y-75119819D01*
X164238220Y-74119819D01*
X164236779Y-74105187D01*
X164225580Y-74078151D01*
X164204888Y-74057459D01*
X164177852Y-74046260D01*
X164163220Y-74044819D01*
X163782268Y-74044819D01*
X163767636Y-74046260D01*
X163765147Y-74047290D01*
X163762458Y-74047482D01*
X163748727Y-74052737D01*
X163653489Y-74100356D01*
X163647189Y-74104320D01*
X163645362Y-74105078D01*
X163643305Y-74106766D01*
X163641046Y-74108188D01*
X163639746Y-74109686D01*
X163633997Y-74114405D01*
X163586378Y-74162024D01*
X163581659Y-74167773D01*
X163580161Y-74169073D01*
X163578739Y-74171332D01*
X163577051Y-74173389D01*
X163576293Y-74175216D01*
X163572329Y-74181516D01*
X163524710Y-74276754D01*
X163519455Y-74290486D01*
X163519264Y-74293173D01*
X163518233Y-74295663D01*
X163516792Y-74310295D01*
X163285839Y-74310295D01*
X163284398Y-74295663D01*
X163283367Y-74293174D01*
X163283176Y-74290485D01*
X163277921Y-74276754D01*
X163230302Y-74181516D01*
X163226337Y-74175216D01*
X163225580Y-74173389D01*
X163223891Y-74171332D01*
X163222470Y-74169073D01*
X163220971Y-74167773D01*
X163216253Y-74162024D01*
X163168634Y-74114405D01*
X163162884Y-74109686D01*
X163161585Y-74108188D01*
X163159325Y-74106766D01*
X163157269Y-74105078D01*
X163155441Y-74104320D01*
X163149142Y-74100356D01*
X163053904Y-74052737D01*
X163040172Y-74047482D01*
X163037484Y-74047291D01*
X163034995Y-74046260D01*
X163020363Y-74044819D01*
X162782268Y-74044819D01*
X162774861Y-74045548D01*
X162772887Y-74045408D01*
X162770289Y-74045998D01*
X162767636Y-74046260D01*
X162765805Y-74047018D01*
X162758550Y-74048668D01*
X162615694Y-74096287D01*
X162602268Y-74102281D01*
X162580161Y-74121455D01*
X162567075Y-74147628D01*
X162565000Y-74176818D01*
X162574254Y-74204581D01*
X162593428Y-74226688D01*
X162619601Y-74239774D01*
X162648791Y-74241849D01*
X162663128Y-74238589D01*
X162794438Y-74194819D01*
X163002658Y-74194819D01*
X163071174Y-74229077D01*
X163101581Y-74259484D01*
X163135839Y-74328000D01*
X163135839Y-74387828D01*
X163101581Y-74456344D01*
X163071174Y-74486751D01*
X162994187Y-74525244D01*
X162811697Y-74570867D01*
X162810617Y-74571252D01*
X162810077Y-74571291D01*
X162803987Y-74573621D01*
X162797851Y-74575814D01*
X162797415Y-74576136D01*
X162796346Y-74576546D01*
X162701108Y-74624165D01*
X162694808Y-74628129D01*
X162692981Y-74628887D01*
X162690924Y-74630575D01*
X162688665Y-74631997D01*
X162687365Y-74633495D01*
X162681616Y-74638214D01*
X162633997Y-74685833D01*
X162629278Y-74691582D01*
X162627780Y-74692882D01*
X162626358Y-74695141D01*
X162624670Y-74697198D01*
X162623912Y-74699025D01*
X162619948Y-74705325D01*
X162572329Y-74800563D01*
X162567074Y-74814295D01*
X162566883Y-74816982D01*
X162565852Y-74819472D01*
X162564411Y-74834104D01*
X162285839Y-74834104D01*
X162285839Y-74119819D01*
X162284398Y-74105187D01*
X162273199Y-74078151D01*
X162252507Y-74057459D01*
X162225471Y-74046260D01*
X162210839Y-74044819D01*
X161829887Y-74044819D01*
X161815255Y-74046260D01*
X161812766Y-74047290D01*
X161810077Y-74047482D01*
X161796346Y-74052737D01*
X161701108Y-74100356D01*
X161694808Y-74104320D01*
X161692981Y-74105078D01*
X161690924Y-74106766D01*
X161688665Y-74108188D01*
X161687365Y-74109686D01*
X161681616Y-74114405D01*
X161633997Y-74162024D01*
X161629278Y-74167773D01*
X161627780Y-74169073D01*
X161626358Y-74171332D01*
X161624670Y-74173389D01*
X161623912Y-74175216D01*
X161619948Y-74181516D01*
X161572329Y-74276754D01*
X161567074Y-74290486D01*
X161566883Y-74293173D01*
X161565852Y-74295663D01*
X161564411Y-74310295D01*
X161162912Y-74310295D01*
X161091514Y-74096102D01*
X161085520Y-74082676D01*
X161082008Y-74078627D01*
X161079613Y-74073836D01*
X161072509Y-74067674D01*
X161066346Y-74060569D01*
X161061552Y-74058172D01*
X161057505Y-74054662D01*
X161048583Y-74051688D01*
X161040173Y-74047483D01*
X161034828Y-74047103D01*
X161029743Y-74045408D01*
X161020363Y-74046074D01*
X161010983Y-74045408D01*
X161005897Y-74047103D01*
X161000553Y-74047483D01*
X160992145Y-74051687D01*
X160983220Y-74054662D01*
X160979169Y-74058175D01*
X160974380Y-74060570D01*
X160968221Y-74067670D01*
X160961113Y-74073836D01*
X160958716Y-74078629D01*
X160955206Y-74082677D01*
X160949212Y-74096102D01*
X160615879Y-75096102D01*
X160612619Y-75110439D01*
X160428696Y-75110439D01*
X160428696Y-74119819D01*
X160427748Y-74110197D01*
X160427826Y-74108431D01*
X160427481Y-74107482D01*
X160427255Y-74105187D01*
X160422273Y-74093160D01*
X160417826Y-74080930D01*
X160416696Y-74079696D01*
X160416056Y-74078151D01*
X160406856Y-74068951D01*
X160398062Y-74059348D01*
X160396545Y-74058640D01*
X160395364Y-74057459D01*
X160383351Y-74052482D01*
X160371544Y-74046973D01*
X160369871Y-74046899D01*
X160368328Y-74046260D01*
X160355322Y-74046260D01*
X160342308Y-74045688D01*
X160340735Y-74046260D01*
X160339064Y-74046260D01*
X160327045Y-74051238D01*
X160314807Y-74055689D01*
X160313573Y-74056819D01*
X160312028Y-74057459D01*
X160302829Y-74066657D01*
X160293226Y-74075452D01*
X160292050Y-74077436D01*
X160291336Y-74078151D01*
X160290659Y-74079784D01*
X160285732Y-74088102D01*
X160020362Y-74656750D01*
X159754994Y-74088103D01*
X159750068Y-74079787D01*
X159749390Y-74078151D01*
X159748674Y-74077435D01*
X159747500Y-74075453D01*
X159737903Y-74066664D01*
X159728698Y-74057459D01*
X159727152Y-74056818D01*
X159725919Y-74055689D01*
X159713688Y-74051241D01*
X159701662Y-74046260D01*
X159699988Y-74046260D01*
X159698418Y-74045689D01*
X159685417Y-74046260D01*
X159672398Y-74046260D01*
X159670853Y-74046899D01*
X159669182Y-74046973D01*
X159657383Y-74052479D01*
X159645362Y-74057459D01*
X159644179Y-74058641D01*
X159642664Y-74059349D01*
X159633875Y-74068945D01*
X159624670Y-74078151D01*
X159624029Y-74079696D01*
X159622900Y-74080930D01*
X159618452Y-74093160D01*
X159613471Y-74105187D01*
X159613244Y-74107482D01*
X159612900Y-74108431D01*
X159612977Y-74110197D01*
X159612030Y-74119819D01*
X159500919Y-74119819D01*
X159500919Y-73933708D01*
X164349331Y-73933708D01*
X164349331Y-75305930D01*
G37*
G36*
X149047365Y-77479077D02*
G01*
X149119307Y-77551019D01*
X149159649Y-77712386D01*
X149159649Y-78027251D01*
X149119307Y-78188617D01*
X149047364Y-78260561D01*
X148978849Y-78294819D01*
X148823783Y-78294819D01*
X148755267Y-78260561D01*
X148683324Y-78188617D01*
X148642983Y-78027251D01*
X148642983Y-77712386D01*
X148683324Y-77551019D01*
X148755267Y-77479077D01*
X148823783Y-77444819D01*
X148978849Y-77444819D01*
X149047365Y-77479077D01*
G37*
G36*
X149849331Y-78555930D02*
G01*
X147429491Y-78555930D01*
X147429491Y-77941247D01*
X147540602Y-77941247D01*
X147540602Y-78179342D01*
X147542043Y-78193974D01*
X147543074Y-78196463D01*
X147543265Y-78199151D01*
X147548520Y-78212883D01*
X147596139Y-78308121D01*
X147600102Y-78314417D01*
X147600860Y-78316247D01*
X147602549Y-78318305D01*
X147603971Y-78320564D01*
X147605469Y-78321863D01*
X147610187Y-78327612D01*
X147657806Y-78375232D01*
X147663555Y-78379950D01*
X147664856Y-78381450D01*
X147667115Y-78382872D01*
X147669172Y-78384560D01*
X147670999Y-78385317D01*
X147677299Y-78389282D01*
X147772537Y-78436901D01*
X147786268Y-78442156D01*
X147788957Y-78442347D01*
X147791446Y-78443378D01*
X147806078Y-78444819D01*
X148091792Y-78444819D01*
X148106424Y-78443378D01*
X148108913Y-78442346D01*
X148111601Y-78442156D01*
X148125333Y-78436901D01*
X148220571Y-78389282D01*
X148226870Y-78385317D01*
X148228698Y-78384560D01*
X148230754Y-78382872D01*
X148233014Y-78381450D01*
X148234314Y-78379950D01*
X148240064Y-78375232D01*
X148287682Y-78327613D01*
X148297010Y-78316247D01*
X148308208Y-78289211D01*
X148308208Y-78259948D01*
X148297009Y-78232912D01*
X148276316Y-78212219D01*
X148249280Y-78201021D01*
X148220017Y-78201021D01*
X148192981Y-78212220D01*
X148181615Y-78221548D01*
X148142602Y-78260561D01*
X148074087Y-78294819D01*
X147823783Y-78294819D01*
X147755267Y-78260561D01*
X147724860Y-78230153D01*
X147690602Y-78161637D01*
X147690602Y-77958952D01*
X147724860Y-77890436D01*
X147755267Y-77860029D01*
X147823783Y-77825771D01*
X147948935Y-77825771D01*
X147956673Y-77825008D01*
X147958641Y-77825140D01*
X147959996Y-77824681D01*
X147963567Y-77824330D01*
X147974824Y-77819666D01*
X147986362Y-77815765D01*
X147988266Y-77814099D01*
X147990603Y-77813131D01*
X147999213Y-77804520D01*
X148008386Y-77796495D01*
X148009508Y-77794225D01*
X148011295Y-77792439D01*
X148015955Y-77781188D01*
X148021358Y-77770263D01*
X148021526Y-77767739D01*
X148022494Y-77765403D01*
X148022494Y-77753218D01*
X148023304Y-77741065D01*
X148022494Y-77738669D01*
X148022494Y-77736139D01*
X148017830Y-77724881D01*
X148013929Y-77713344D01*
X148011843Y-77710426D01*
X148011295Y-77709103D01*
X148009899Y-77707707D01*
X148006643Y-77703152D01*
X148492983Y-77703152D01*
X148492983Y-78036485D01*
X148493234Y-78039038D01*
X148493072Y-78040131D01*
X148493881Y-78045604D01*
X148494424Y-78051117D01*
X148494846Y-78052138D01*
X148495222Y-78054675D01*
X148542841Y-78245151D01*
X148547788Y-78258997D01*
X148551107Y-78263476D01*
X148553241Y-78268628D01*
X148562569Y-78279994D01*
X148657807Y-78375233D01*
X148663557Y-78379953D01*
X148664856Y-78381450D01*
X148667110Y-78382869D01*
X148669172Y-78384561D01*
X148671004Y-78385319D01*
X148677299Y-78389282D01*
X148772537Y-78436901D01*
X148786268Y-78442156D01*
X148788957Y-78442347D01*
X148791446Y-78443378D01*
X148806078Y-78444819D01*
X148996554Y-78444819D01*
X149011186Y-78443378D01*
X149013675Y-78442346D01*
X149016363Y-78442156D01*
X149030095Y-78436901D01*
X149125333Y-78389282D01*
X149131632Y-78385317D01*
X149133460Y-78384560D01*
X149135516Y-78382871D01*
X149137776Y-78381450D01*
X149139075Y-78379951D01*
X149144825Y-78375233D01*
X149240064Y-78279993D01*
X149249391Y-78268628D01*
X149251524Y-78263476D01*
X149254844Y-78258997D01*
X149259791Y-78245151D01*
X149307410Y-78054675D01*
X149307785Y-78052138D01*
X149308208Y-78051117D01*
X149308750Y-78045604D01*
X149309560Y-78040131D01*
X149309397Y-78039038D01*
X149309649Y-78036485D01*
X149309649Y-77703152D01*
X149309397Y-77700598D01*
X149309560Y-77699506D01*
X149308750Y-77694032D01*
X149308208Y-77688520D01*
X149307785Y-77687498D01*
X149307410Y-77684962D01*
X149259791Y-77494486D01*
X149254844Y-77480640D01*
X149251525Y-77476161D01*
X149249391Y-77471008D01*
X149240063Y-77459643D01*
X149150239Y-77369819D01*
X149588220Y-77369819D01*
X149588220Y-78369819D01*
X149589661Y-78384451D01*
X149600860Y-78411487D01*
X149621552Y-78432179D01*
X149648588Y-78443378D01*
X149677852Y-78443378D01*
X149704888Y-78432179D01*
X149725580Y-78411487D01*
X149736779Y-78384451D01*
X149738220Y-78369819D01*
X149738220Y-77369819D01*
X149736779Y-77355187D01*
X149725580Y-77328151D01*
X149704888Y-77307459D01*
X149677852Y-77296260D01*
X149648588Y-77296260D01*
X149621552Y-77307459D01*
X149600860Y-77328151D01*
X149589661Y-77355187D01*
X149588220Y-77369819D01*
X149150239Y-77369819D01*
X149144825Y-77364405D01*
X149139075Y-77359686D01*
X149137776Y-77358188D01*
X149135516Y-77356766D01*
X149133460Y-77355078D01*
X149131632Y-77354320D01*
X149125333Y-77350356D01*
X149030095Y-77302737D01*
X149016363Y-77297482D01*
X149013675Y-77297291D01*
X149011186Y-77296260D01*
X148996554Y-77294819D01*
X148806078Y-77294819D01*
X148791446Y-77296260D01*
X148788957Y-77297290D01*
X148786268Y-77297482D01*
X148772537Y-77302737D01*
X148677299Y-77350356D01*
X148671004Y-77354318D01*
X148669172Y-77355077D01*
X148667110Y-77356768D01*
X148664856Y-77358188D01*
X148663557Y-77359684D01*
X148657807Y-77364405D01*
X148562569Y-77459643D01*
X148553242Y-77471008D01*
X148551108Y-77476158D01*
X148547788Y-77480640D01*
X148542841Y-77494486D01*
X148495222Y-77684962D01*
X148494846Y-77687498D01*
X148494424Y-77688520D01*
X148493881Y-77694032D01*
X148493072Y-77699506D01*
X148493234Y-77700598D01*
X148492983Y-77703152D01*
X148006643Y-77703152D01*
X148005378Y-77701383D01*
X147780884Y-77444819D01*
X148234649Y-77444819D01*
X148249281Y-77443378D01*
X148276317Y-77432179D01*
X148297009Y-77411487D01*
X148308208Y-77384451D01*
X148308208Y-77355187D01*
X148297009Y-77328151D01*
X148276317Y-77307459D01*
X148249281Y-77296260D01*
X148234649Y-77294819D01*
X147615602Y-77294819D01*
X147607863Y-77295581D01*
X147605896Y-77295450D01*
X147604540Y-77295908D01*
X147600970Y-77296260D01*
X147589712Y-77300923D01*
X147578175Y-77304825D01*
X147576270Y-77306490D01*
X147573934Y-77307459D01*
X147565323Y-77316069D01*
X147556151Y-77324095D01*
X147555028Y-77326364D01*
X147553242Y-77328151D01*
X147548581Y-77339401D01*
X147543179Y-77350327D01*
X147543010Y-77352850D01*
X147542043Y-77355187D01*
X147542043Y-77367371D01*
X147541233Y-77379525D01*
X147542043Y-77381920D01*
X147542043Y-77384451D01*
X147546706Y-77395708D01*
X147550608Y-77407246D01*
X147552693Y-77410163D01*
X147553242Y-77411487D01*
X147554637Y-77412882D01*
X147559159Y-77419207D01*
X147786054Y-77678515D01*
X147772537Y-77683689D01*
X147677299Y-77731308D01*
X147670999Y-77735272D01*
X147669172Y-77736030D01*
X147667115Y-77737718D01*
X147664856Y-77739140D01*
X147663556Y-77740638D01*
X147657807Y-77745357D01*
X147610188Y-77792976D01*
X147605469Y-77798725D01*
X147603971Y-77800025D01*
X147602549Y-77802284D01*
X147600861Y-77804341D01*
X147600103Y-77806168D01*
X147596139Y-77812468D01*
X147548520Y-77907706D01*
X147543265Y-77921438D01*
X147543074Y-77924125D01*
X147542043Y-77926615D01*
X147540602Y-77941247D01*
X147429491Y-77941247D01*
X147429491Y-77183708D01*
X149849331Y-77183708D01*
X149849331Y-78555930D01*
G37*
G36*
X157290601Y-80794819D02*
G01*
X157139676Y-80794819D01*
X157025163Y-80756648D01*
X156951050Y-80682534D01*
X156912556Y-80605547D01*
X156869173Y-80432013D01*
X156869173Y-80307624D01*
X156912556Y-80134090D01*
X156951050Y-80057103D01*
X157025163Y-79982990D01*
X157139676Y-79944819D01*
X157290601Y-79944819D01*
X157290601Y-80794819D01*
G37*
G36*
X159646950Y-81055930D02*
G01*
X156608062Y-81055930D01*
X156608062Y-80298390D01*
X156719173Y-80298390D01*
X156719173Y-80441247D01*
X156719424Y-80443800D01*
X156719262Y-80444893D01*
X156720071Y-80450366D01*
X156720614Y-80455879D01*
X156721036Y-80456900D01*
X156721412Y-80459437D01*
X156769031Y-80649913D01*
X156769416Y-80650992D01*
X156769455Y-80651532D01*
X156771782Y-80657613D01*
X156773978Y-80663759D01*
X156774300Y-80664194D01*
X156774710Y-80665264D01*
X156822329Y-80760502D01*
X156826292Y-80766798D01*
X156827050Y-80768628D01*
X156828739Y-80770686D01*
X156830161Y-80772945D01*
X156831659Y-80774244D01*
X156836378Y-80779994D01*
X156931616Y-80875233D01*
X156942981Y-80884561D01*
X156945471Y-80885592D01*
X156947506Y-80887357D01*
X156960932Y-80893351D01*
X157103788Y-80940970D01*
X157111043Y-80942619D01*
X157112874Y-80943378D01*
X157115527Y-80943639D01*
X157118125Y-80944230D01*
X157120099Y-80944089D01*
X157127506Y-80944819D01*
X157365601Y-80944819D01*
X157380233Y-80943378D01*
X157407269Y-80932179D01*
X157427961Y-80911487D01*
X157439160Y-80884451D01*
X157440601Y-80869819D01*
X157440601Y-79869819D01*
X157766792Y-79869819D01*
X157766792Y-80869819D01*
X157767162Y-80873582D01*
X157766975Y-80875058D01*
X157767496Y-80876968D01*
X157768233Y-80884451D01*
X157772050Y-80893666D01*
X157774675Y-80903290D01*
X157777602Y-80907070D01*
X157779432Y-80911487D01*
X157786482Y-80918537D01*
X157792592Y-80926427D01*
X157796745Y-80928800D01*
X157800124Y-80932179D01*
X157809336Y-80935995D01*
X157818001Y-80940946D01*
X157822744Y-80941548D01*
X157827160Y-80943378D01*
X157837134Y-80943378D01*
X157847031Y-80944636D01*
X157851643Y-80943378D01*
X157856424Y-80943378D01*
X157865639Y-80939560D01*
X157875263Y-80936936D01*
X157879043Y-80934008D01*
X157883460Y-80932179D01*
X157890510Y-80925128D01*
X157898400Y-80919019D01*
X157902752Y-80912886D01*
X157904152Y-80911487D01*
X157904721Y-80910112D01*
X157906910Y-80907029D01*
X158338220Y-80152235D01*
X158338220Y-80869819D01*
X158339661Y-80884451D01*
X158350860Y-80911487D01*
X158371552Y-80932179D01*
X158398588Y-80943378D01*
X158427852Y-80943378D01*
X158454888Y-80932179D01*
X158475580Y-80911487D01*
X158486779Y-80884451D01*
X158488220Y-80869819D01*
X158488220Y-80441247D01*
X158766792Y-80441247D01*
X158766792Y-80774580D01*
X158768233Y-80789212D01*
X158772150Y-80798668D01*
X158779431Y-80816247D01*
X158788758Y-80827612D01*
X158836377Y-80875232D01*
X158847743Y-80884560D01*
X158850231Y-80885590D01*
X158852268Y-80887357D01*
X158865694Y-80893351D01*
X159008550Y-80940970D01*
X159015805Y-80942619D01*
X159017636Y-80943378D01*
X159020289Y-80943639D01*
X159022887Y-80944230D01*
X159024861Y-80944089D01*
X159032268Y-80944819D01*
X159127506Y-80944819D01*
X159134911Y-80944089D01*
X159136886Y-80944230D01*
X159139483Y-80943639D01*
X159142138Y-80943378D01*
X159143969Y-80942619D01*
X159151223Y-80940970D01*
X159294080Y-80893351D01*
X159307505Y-80887357D01*
X159309540Y-80885591D01*
X159312031Y-80884560D01*
X159323396Y-80875233D01*
X159418635Y-80779993D01*
X159423352Y-80774244D01*
X159424851Y-80772945D01*
X159426272Y-80770686D01*
X159427962Y-80768628D01*
X159428719Y-80766798D01*
X159432683Y-80760502D01*
X159480302Y-80665264D01*
X159480711Y-80664194D01*
X159481034Y-80663759D01*
X159483226Y-80657622D01*
X159485557Y-80651533D01*
X159485595Y-80650992D01*
X159485981Y-80649913D01*
X159533600Y-80459437D01*
X159533975Y-80456900D01*
X159534398Y-80455879D01*
X159534940Y-80450366D01*
X159535750Y-80444893D01*
X159535587Y-80443800D01*
X159535839Y-80441247D01*
X159535839Y-80298390D01*
X159535587Y-80295836D01*
X159535750Y-80294744D01*
X159534940Y-80289270D01*
X159534398Y-80283758D01*
X159533975Y-80282736D01*
X159533600Y-80280200D01*
X159485981Y-80089724D01*
X159485595Y-80088644D01*
X159485557Y-80088104D01*
X159483226Y-80082014D01*
X159481034Y-80075878D01*
X159480711Y-80075442D01*
X159480302Y-80074373D01*
X159432683Y-79979135D01*
X159428720Y-79972840D01*
X159427962Y-79971008D01*
X159426270Y-79968946D01*
X159424851Y-79966692D01*
X159423354Y-79965393D01*
X159418634Y-79959643D01*
X159323396Y-79864405D01*
X159312031Y-79855078D01*
X159309540Y-79854046D01*
X159307505Y-79852281D01*
X159294080Y-79846287D01*
X159151223Y-79798668D01*
X159143969Y-79797018D01*
X159142138Y-79796260D01*
X159139483Y-79795998D01*
X159136886Y-79795408D01*
X159134911Y-79795548D01*
X159127506Y-79794819D01*
X158984649Y-79794819D01*
X158970017Y-79796260D01*
X158967528Y-79797290D01*
X158964839Y-79797482D01*
X158951108Y-79802737D01*
X158855870Y-79850356D01*
X158843427Y-79858188D01*
X158824254Y-79880296D01*
X158815000Y-79908057D01*
X158817074Y-79937247D01*
X158830161Y-79963422D01*
X158852269Y-79982595D01*
X158880030Y-79991849D01*
X158909220Y-79989775D01*
X158922952Y-79984520D01*
X159002354Y-79944819D01*
X159115336Y-79944819D01*
X159229849Y-79982990D01*
X159303962Y-80057103D01*
X159342455Y-80134090D01*
X159385839Y-80307624D01*
X159385839Y-80432013D01*
X159342455Y-80605547D01*
X159303961Y-80682534D01*
X159229849Y-80756647D01*
X159115336Y-80794819D01*
X159044438Y-80794819D01*
X158929925Y-80756648D01*
X158916792Y-80743514D01*
X158916792Y-80516247D01*
X159032268Y-80516247D01*
X159046900Y-80514806D01*
X159073936Y-80503607D01*
X159094628Y-80482915D01*
X159105827Y-80455879D01*
X159105827Y-80426615D01*
X159094628Y-80399579D01*
X159073936Y-80378887D01*
X159046900Y-80367688D01*
X159032268Y-80366247D01*
X158841792Y-80366247D01*
X158827160Y-80367688D01*
X158800124Y-80378887D01*
X158779432Y-80399579D01*
X158768233Y-80426615D01*
X158766792Y-80441247D01*
X158488220Y-80441247D01*
X158488220Y-79869819D01*
X158487849Y-79866055D01*
X158488037Y-79864580D01*
X158487515Y-79862669D01*
X158486779Y-79855187D01*
X158482961Y-79845971D01*
X158480337Y-79836348D01*
X158477409Y-79832567D01*
X158475580Y-79828151D01*
X158468529Y-79821100D01*
X158462420Y-79813211D01*
X158458266Y-79810837D01*
X158454888Y-79807459D01*
X158445675Y-79803642D01*
X158437011Y-79798692D01*
X158432267Y-79798089D01*
X158427852Y-79796260D01*
X158417878Y-79796260D01*
X158407981Y-79795002D01*
X158403369Y-79796260D01*
X158398588Y-79796260D01*
X158389371Y-79800077D01*
X158379750Y-79802702D01*
X158375970Y-79805628D01*
X158371552Y-79807459D01*
X158364500Y-79814510D01*
X158356612Y-79820619D01*
X158352257Y-79826753D01*
X158350860Y-79828151D01*
X158350291Y-79829523D01*
X158348102Y-79832608D01*
X157916792Y-80587402D01*
X157916792Y-79869819D01*
X157915351Y-79855187D01*
X157904152Y-79828151D01*
X157883460Y-79807459D01*
X157856424Y-79796260D01*
X157827160Y-79796260D01*
X157800124Y-79807459D01*
X157779432Y-79828151D01*
X157768233Y-79855187D01*
X157766792Y-79869819D01*
X157440601Y-79869819D01*
X157439160Y-79855187D01*
X157427961Y-79828151D01*
X157407269Y-79807459D01*
X157380233Y-79796260D01*
X157365601Y-79794819D01*
X157127506Y-79794819D01*
X157120099Y-79795548D01*
X157118125Y-79795408D01*
X157115527Y-79795998D01*
X157112874Y-79796260D01*
X157111043Y-79797018D01*
X157103788Y-79798668D01*
X156960932Y-79846287D01*
X156947506Y-79852281D01*
X156945471Y-79854045D01*
X156942981Y-79855077D01*
X156931616Y-79864405D01*
X156836378Y-79959643D01*
X156831659Y-79965392D01*
X156830161Y-79966692D01*
X156828739Y-79968951D01*
X156827051Y-79971008D01*
X156826293Y-79972835D01*
X156822329Y-79979135D01*
X156774710Y-80074373D01*
X156774300Y-80075442D01*
X156773978Y-80075878D01*
X156771782Y-80082023D01*
X156769455Y-80088105D01*
X156769416Y-80088644D01*
X156769031Y-80089724D01*
X156721412Y-80280200D01*
X156721036Y-80282736D01*
X156720614Y-80283758D01*
X156720071Y-80289270D01*
X156719262Y-80294744D01*
X156719424Y-80295836D01*
X156719173Y-80298390D01*
X156608062Y-80298390D01*
X156608062Y-79683708D01*
X159646950Y-79683708D01*
X159646950Y-81055930D01*
G37*
G36*
X156797365Y-72329077D02*
G01*
X156869307Y-72401019D01*
X156909649Y-72562386D01*
X156909649Y-72877251D01*
X156869307Y-73038617D01*
X156797364Y-73110561D01*
X156728849Y-73144819D01*
X156573783Y-73144819D01*
X156505267Y-73110561D01*
X156433324Y-73038617D01*
X156392983Y-72877251D01*
X156392983Y-72562386D01*
X156433324Y-72401019D01*
X156505267Y-72329077D01*
X156573783Y-72294819D01*
X156728849Y-72294819D01*
X156797365Y-72329077D01*
G37*
G36*
X157599331Y-73405930D02*
G01*
X155179491Y-73405930D01*
X155179491Y-72410295D01*
X155290602Y-72410295D01*
X155290602Y-72505533D01*
X155291331Y-72512938D01*
X155291191Y-72514913D01*
X155291781Y-72517510D01*
X155292043Y-72520165D01*
X155292801Y-72521996D01*
X155294451Y-72529250D01*
X155342070Y-72672107D01*
X155348064Y-72685532D01*
X155349829Y-72687567D01*
X155350861Y-72690058D01*
X155360188Y-72701423D01*
X155803583Y-73144819D01*
X155365602Y-73144819D01*
X155350970Y-73146260D01*
X155323934Y-73157459D01*
X155303242Y-73178151D01*
X155292043Y-73205187D01*
X155292043Y-73234451D01*
X155303242Y-73261487D01*
X155323934Y-73282179D01*
X155350970Y-73293378D01*
X155365602Y-73294819D01*
X155984649Y-73294819D01*
X155999281Y-73293378D01*
X156007199Y-73290098D01*
X156026317Y-73282180D01*
X156047009Y-73261487D01*
X156058208Y-73234451D01*
X156058208Y-73205188D01*
X156047010Y-73178151D01*
X156037682Y-73166786D01*
X155478773Y-72607876D01*
X155460532Y-72553152D01*
X156242983Y-72553152D01*
X156242983Y-72886485D01*
X156243234Y-72889038D01*
X156243072Y-72890131D01*
X156243881Y-72895604D01*
X156244424Y-72901117D01*
X156244846Y-72902138D01*
X156245222Y-72904675D01*
X156292841Y-73095151D01*
X156297788Y-73108997D01*
X156301107Y-73113476D01*
X156303241Y-73118628D01*
X156312569Y-73129994D01*
X156407807Y-73225233D01*
X156413557Y-73229953D01*
X156414856Y-73231450D01*
X156417110Y-73232869D01*
X156419172Y-73234561D01*
X156421004Y-73235319D01*
X156427299Y-73239282D01*
X156522537Y-73286901D01*
X156536268Y-73292156D01*
X156538957Y-73292347D01*
X156541446Y-73293378D01*
X156556078Y-73294819D01*
X156746554Y-73294819D01*
X156761186Y-73293378D01*
X156763675Y-73292346D01*
X156766363Y-73292156D01*
X156780095Y-73286901D01*
X156875333Y-73239282D01*
X156881632Y-73235317D01*
X156883460Y-73234560D01*
X156885516Y-73232871D01*
X156887776Y-73231450D01*
X156889075Y-73229951D01*
X156894825Y-73225233D01*
X156990064Y-73129993D01*
X156999391Y-73118628D01*
X157001524Y-73113476D01*
X157004844Y-73108997D01*
X157009791Y-73095151D01*
X157057410Y-72904675D01*
X157057785Y-72902138D01*
X157058208Y-72901117D01*
X157058750Y-72895604D01*
X157059560Y-72890131D01*
X157059397Y-72889038D01*
X157059649Y-72886485D01*
X157059649Y-72553152D01*
X157059397Y-72550598D01*
X157059560Y-72549506D01*
X157058750Y-72544032D01*
X157058208Y-72538520D01*
X157057785Y-72537498D01*
X157057410Y-72534962D01*
X157009791Y-72344486D01*
X157004844Y-72330640D01*
X157001525Y-72326161D01*
X156999391Y-72321008D01*
X156990063Y-72309643D01*
X156900239Y-72219819D01*
X157338220Y-72219819D01*
X157338220Y-73219819D01*
X157339661Y-73234451D01*
X157350860Y-73261487D01*
X157371552Y-73282179D01*
X157398588Y-73293378D01*
X157427852Y-73293378D01*
X157454888Y-73282179D01*
X157475580Y-73261487D01*
X157486779Y-73234451D01*
X157488220Y-73219819D01*
X157488220Y-72219819D01*
X157486779Y-72205187D01*
X157475580Y-72178151D01*
X157454888Y-72157459D01*
X157427852Y-72146260D01*
X157398588Y-72146260D01*
X157371552Y-72157459D01*
X157350860Y-72178151D01*
X157339661Y-72205187D01*
X157338220Y-72219819D01*
X156900239Y-72219819D01*
X156894825Y-72214405D01*
X156889075Y-72209686D01*
X156887776Y-72208188D01*
X156885516Y-72206766D01*
X156883460Y-72205078D01*
X156881632Y-72204320D01*
X156875333Y-72200356D01*
X156780095Y-72152737D01*
X156766363Y-72147482D01*
X156763675Y-72147291D01*
X156761186Y-72146260D01*
X156746554Y-72144819D01*
X156556078Y-72144819D01*
X156541446Y-72146260D01*
X156538957Y-72147290D01*
X156536268Y-72147482D01*
X156522537Y-72152737D01*
X156427299Y-72200356D01*
X156421004Y-72204318D01*
X156419172Y-72205077D01*
X156417110Y-72206768D01*
X156414856Y-72208188D01*
X156413557Y-72209684D01*
X156407807Y-72214405D01*
X156312569Y-72309643D01*
X156303242Y-72321008D01*
X156301108Y-72326158D01*
X156297788Y-72330640D01*
X156292841Y-72344486D01*
X156245222Y-72534962D01*
X156244846Y-72537498D01*
X156244424Y-72538520D01*
X156243881Y-72544032D01*
X156243072Y-72549506D01*
X156243234Y-72550598D01*
X156242983Y-72553152D01*
X155460532Y-72553152D01*
X155440602Y-72493362D01*
X155440602Y-72428000D01*
X155474860Y-72359484D01*
X155505267Y-72329077D01*
X155573783Y-72294819D01*
X155776468Y-72294819D01*
X155844984Y-72329077D01*
X155883997Y-72368090D01*
X155895362Y-72377417D01*
X155922398Y-72388616D01*
X155951661Y-72388616D01*
X155978697Y-72377417D01*
X155999390Y-72356724D01*
X156010589Y-72329688D01*
X156010589Y-72300425D01*
X155999390Y-72273389D01*
X155990063Y-72262024D01*
X155942444Y-72214405D01*
X155936694Y-72209686D01*
X155935395Y-72208188D01*
X155933135Y-72206766D01*
X155931079Y-72205078D01*
X155929251Y-72204320D01*
X155922952Y-72200356D01*
X155827714Y-72152737D01*
X155813982Y-72147482D01*
X155811294Y-72147291D01*
X155808805Y-72146260D01*
X155794173Y-72144819D01*
X155556078Y-72144819D01*
X155541446Y-72146260D01*
X155538957Y-72147290D01*
X155536268Y-72147482D01*
X155522537Y-72152737D01*
X155427299Y-72200356D01*
X155420999Y-72204320D01*
X155419172Y-72205078D01*
X155417115Y-72206766D01*
X155414856Y-72208188D01*
X155413556Y-72209686D01*
X155407807Y-72214405D01*
X155360188Y-72262024D01*
X155355469Y-72267773D01*
X155353971Y-72269073D01*
X155352549Y-72271332D01*
X155350861Y-72273389D01*
X155350103Y-72275216D01*
X155346139Y-72281516D01*
X155298520Y-72376754D01*
X155293265Y-72390486D01*
X155293074Y-72393173D01*
X155292043Y-72395663D01*
X155290602Y-72410295D01*
X155179491Y-72410295D01*
X155179491Y-72033708D01*
X157599331Y-72033708D01*
X157599331Y-73405930D01*
G37*
G36*
X149047365Y-72229077D02*
G01*
X149119307Y-72301019D01*
X149159649Y-72462386D01*
X149159649Y-72777251D01*
X149119307Y-72938617D01*
X149047364Y-73010561D01*
X148978849Y-73044819D01*
X148823783Y-73044819D01*
X148755267Y-73010561D01*
X148683324Y-72938617D01*
X148642983Y-72777251D01*
X148642983Y-72462386D01*
X148683324Y-72301019D01*
X148755267Y-72229077D01*
X148823783Y-72194819D01*
X148978849Y-72194819D01*
X149047365Y-72229077D01*
G37*
G36*
X149849331Y-73305930D02*
G01*
X147430932Y-73305930D01*
X147430932Y-73105187D01*
X147542043Y-73105187D01*
X147542043Y-73134451D01*
X147553242Y-73161487D01*
X147573934Y-73182179D01*
X147600970Y-73193378D01*
X147615602Y-73194819D01*
X148187030Y-73194819D01*
X148201662Y-73193378D01*
X148228698Y-73182179D01*
X148249390Y-73161487D01*
X148260589Y-73134451D01*
X148260589Y-73105187D01*
X148249390Y-73078151D01*
X148228698Y-73057459D01*
X148201662Y-73046260D01*
X148187030Y-73044819D01*
X147976316Y-73044819D01*
X147976316Y-72348504D01*
X148038759Y-72410947D01*
X148044509Y-72415667D01*
X148045808Y-72417164D01*
X148048062Y-72418583D01*
X148050124Y-72420275D01*
X148051956Y-72421033D01*
X148058251Y-72424996D01*
X148153489Y-72472615D01*
X148167220Y-72477870D01*
X148196410Y-72479944D01*
X148224172Y-72470690D01*
X148244394Y-72453152D01*
X148492983Y-72453152D01*
X148492983Y-72786485D01*
X148493234Y-72789038D01*
X148493072Y-72790131D01*
X148493881Y-72795604D01*
X148494424Y-72801117D01*
X148494846Y-72802138D01*
X148495222Y-72804675D01*
X148542841Y-72995151D01*
X148547788Y-73008997D01*
X148551107Y-73013476D01*
X148553241Y-73018628D01*
X148562569Y-73029994D01*
X148657807Y-73125233D01*
X148663557Y-73129953D01*
X148664856Y-73131450D01*
X148667110Y-73132869D01*
X148669172Y-73134561D01*
X148671004Y-73135319D01*
X148677299Y-73139282D01*
X148772537Y-73186901D01*
X148786268Y-73192156D01*
X148788957Y-73192347D01*
X148791446Y-73193378D01*
X148806078Y-73194819D01*
X148996554Y-73194819D01*
X149011186Y-73193378D01*
X149013675Y-73192346D01*
X149016363Y-73192156D01*
X149030095Y-73186901D01*
X149125333Y-73139282D01*
X149131632Y-73135317D01*
X149133460Y-73134560D01*
X149135516Y-73132871D01*
X149137776Y-73131450D01*
X149139075Y-73129951D01*
X149144825Y-73125233D01*
X149240064Y-73029993D01*
X149249391Y-73018628D01*
X149251524Y-73013476D01*
X149254844Y-73008997D01*
X149259791Y-72995151D01*
X149307410Y-72804675D01*
X149307785Y-72802138D01*
X149308208Y-72801117D01*
X149308750Y-72795604D01*
X149309560Y-72790131D01*
X149309397Y-72789038D01*
X149309649Y-72786485D01*
X149309649Y-72453152D01*
X149309397Y-72450598D01*
X149309560Y-72449506D01*
X149308750Y-72444032D01*
X149308208Y-72438520D01*
X149307785Y-72437498D01*
X149307410Y-72434962D01*
X149259791Y-72244486D01*
X149254844Y-72230640D01*
X149251525Y-72226161D01*
X149249391Y-72221008D01*
X149240063Y-72209643D01*
X149150239Y-72119819D01*
X149588220Y-72119819D01*
X149588220Y-73119819D01*
X149589661Y-73134451D01*
X149600860Y-73161487D01*
X149621552Y-73182179D01*
X149648588Y-73193378D01*
X149677852Y-73193378D01*
X149704888Y-73182179D01*
X149725580Y-73161487D01*
X149736779Y-73134451D01*
X149738220Y-73119819D01*
X149738220Y-72119819D01*
X149736779Y-72105187D01*
X149725580Y-72078151D01*
X149704888Y-72057459D01*
X149677852Y-72046260D01*
X149648588Y-72046260D01*
X149621552Y-72057459D01*
X149600860Y-72078151D01*
X149589661Y-72105187D01*
X149588220Y-72119819D01*
X149150239Y-72119819D01*
X149144825Y-72114405D01*
X149139075Y-72109686D01*
X149137776Y-72108188D01*
X149135516Y-72106766D01*
X149133460Y-72105078D01*
X149131632Y-72104320D01*
X149125333Y-72100356D01*
X149030095Y-72052737D01*
X149016363Y-72047482D01*
X149013675Y-72047291D01*
X149011186Y-72046260D01*
X148996554Y-72044819D01*
X148806078Y-72044819D01*
X148791446Y-72046260D01*
X148788957Y-72047290D01*
X148786268Y-72047482D01*
X148772537Y-72052737D01*
X148677299Y-72100356D01*
X148671004Y-72104318D01*
X148669172Y-72105077D01*
X148667110Y-72106768D01*
X148664856Y-72108188D01*
X148663557Y-72109684D01*
X148657807Y-72114405D01*
X148562569Y-72209643D01*
X148553242Y-72221008D01*
X148551108Y-72226158D01*
X148547788Y-72230640D01*
X148542841Y-72244486D01*
X148495222Y-72434962D01*
X148494846Y-72437498D01*
X148494424Y-72438520D01*
X148493881Y-72444032D01*
X148493072Y-72449506D01*
X148493234Y-72450598D01*
X148492983Y-72453152D01*
X148244394Y-72453152D01*
X148246279Y-72451517D01*
X148259367Y-72425342D01*
X148261441Y-72396152D01*
X148252187Y-72368391D01*
X148233014Y-72346283D01*
X148220571Y-72338451D01*
X148136219Y-72296275D01*
X148054838Y-72214894D01*
X147963720Y-72078216D01*
X147963685Y-72078173D01*
X147963676Y-72078151D01*
X147963624Y-72078099D01*
X147954404Y-72066841D01*
X147948234Y-72062709D01*
X147942984Y-72057459D01*
X147936194Y-72054646D01*
X147930089Y-72050558D01*
X147922808Y-72049101D01*
X147915948Y-72046260D01*
X147908600Y-72046260D01*
X147901395Y-72044819D01*
X147894111Y-72046260D01*
X147886684Y-72046260D01*
X147879895Y-72049072D01*
X147872687Y-72050498D01*
X147866508Y-72054617D01*
X147859648Y-72057459D01*
X147854452Y-72062654D01*
X147848338Y-72066731D01*
X147844206Y-72072900D01*
X147838956Y-72078151D01*
X147836143Y-72084940D01*
X147832055Y-72091046D01*
X147830598Y-72098326D01*
X147827757Y-72105187D01*
X147826331Y-72119663D01*
X147826316Y-72119740D01*
X147826321Y-72119766D01*
X147826316Y-72119819D01*
X147826316Y-73044819D01*
X147615602Y-73044819D01*
X147600970Y-73046260D01*
X147573934Y-73057459D01*
X147553242Y-73078151D01*
X147542043Y-73105187D01*
X147430932Y-73105187D01*
X147430932Y-71933708D01*
X149849331Y-71933708D01*
X149849331Y-73305930D01*
G37*
G36*
X147999746Y-74729077D02*
G01*
X148030153Y-74759484D01*
X148068646Y-74836471D01*
X148112030Y-75010005D01*
X148112030Y-75229632D01*
X148068646Y-75403166D01*
X148030152Y-75480153D01*
X147999745Y-75510561D01*
X147931230Y-75544819D01*
X147871402Y-75544819D01*
X147802886Y-75510561D01*
X147772479Y-75480153D01*
X147733985Y-75403166D01*
X147690602Y-75229632D01*
X147690602Y-75010005D01*
X147733985Y-74836471D01*
X147772479Y-74759484D01*
X147802886Y-74729077D01*
X147871402Y-74694819D01*
X147931230Y-74694819D01*
X147999746Y-74729077D01*
G37*
G36*
X149047365Y-74729077D02*
G01*
X149119307Y-74801019D01*
X149159649Y-74962386D01*
X149159649Y-75277251D01*
X149119307Y-75438617D01*
X149047364Y-75510561D01*
X148978849Y-75544819D01*
X148823783Y-75544819D01*
X148755267Y-75510561D01*
X148683324Y-75438617D01*
X148642983Y-75277251D01*
X148642983Y-74962386D01*
X148683324Y-74801019D01*
X148755267Y-74729077D01*
X148823783Y-74694819D01*
X148978849Y-74694819D01*
X149047365Y-74729077D01*
G37*
G36*
X149849331Y-75805930D02*
G01*
X147429491Y-75805930D01*
X147429491Y-75000771D01*
X147540602Y-75000771D01*
X147540602Y-75238866D01*
X147540853Y-75241419D01*
X147540691Y-75242512D01*
X147541500Y-75247985D01*
X147542043Y-75253498D01*
X147542465Y-75254519D01*
X147542841Y-75257056D01*
X147590460Y-75447532D01*
X147590845Y-75448611D01*
X147590884Y-75449151D01*
X147593211Y-75455232D01*
X147595407Y-75461378D01*
X147595729Y-75461813D01*
X147596139Y-75462883D01*
X147643758Y-75558121D01*
X147647721Y-75564417D01*
X147648479Y-75566247D01*
X147650168Y-75568305D01*
X147651590Y-75570564D01*
X147653088Y-75571863D01*
X147657806Y-75577612D01*
X147705425Y-75625232D01*
X147711174Y-75629950D01*
X147712475Y-75631450D01*
X147714734Y-75632872D01*
X147716791Y-75634560D01*
X147718618Y-75635317D01*
X147724918Y-75639282D01*
X147820156Y-75686901D01*
X147833887Y-75692156D01*
X147836576Y-75692347D01*
X147839065Y-75693378D01*
X147853697Y-75694819D01*
X147948935Y-75694819D01*
X147963567Y-75693378D01*
X147966056Y-75692346D01*
X147968744Y-75692156D01*
X147982476Y-75686901D01*
X148077714Y-75639282D01*
X148084013Y-75635317D01*
X148085841Y-75634560D01*
X148087897Y-75632872D01*
X148090157Y-75631450D01*
X148091457Y-75629950D01*
X148097207Y-75625232D01*
X148144825Y-75577613D01*
X148149543Y-75571863D01*
X148151042Y-75570564D01*
X148152463Y-75568305D01*
X148154153Y-75566247D01*
X148154910Y-75564417D01*
X148158874Y-75558121D01*
X148206493Y-75462883D01*
X148206902Y-75461813D01*
X148207225Y-75461378D01*
X148209417Y-75455241D01*
X148211748Y-75449152D01*
X148211786Y-75448611D01*
X148212172Y-75447532D01*
X148259791Y-75257056D01*
X148260166Y-75254519D01*
X148260589Y-75253498D01*
X148261131Y-75247985D01*
X148261941Y-75242512D01*
X148261778Y-75241419D01*
X148262030Y-75238866D01*
X148262030Y-75000771D01*
X148261778Y-74998217D01*
X148261941Y-74997125D01*
X148261131Y-74991651D01*
X148260589Y-74986139D01*
X148260166Y-74985117D01*
X148259791Y-74982581D01*
X148252434Y-74953152D01*
X148492983Y-74953152D01*
X148492983Y-75286485D01*
X148493234Y-75289038D01*
X148493072Y-75290131D01*
X148493881Y-75295604D01*
X148494424Y-75301117D01*
X148494846Y-75302138D01*
X148495222Y-75304675D01*
X148542841Y-75495151D01*
X148547788Y-75508997D01*
X148551107Y-75513476D01*
X148553241Y-75518628D01*
X148562569Y-75529994D01*
X148657807Y-75625233D01*
X148663557Y-75629953D01*
X148664856Y-75631450D01*
X148667110Y-75632869D01*
X148669172Y-75634561D01*
X148671004Y-75635319D01*
X148677299Y-75639282D01*
X148772537Y-75686901D01*
X148786268Y-75692156D01*
X148788957Y-75692347D01*
X148791446Y-75693378D01*
X148806078Y-75694819D01*
X148996554Y-75694819D01*
X149011186Y-75693378D01*
X149013675Y-75692346D01*
X149016363Y-75692156D01*
X149030095Y-75686901D01*
X149125333Y-75639282D01*
X149131632Y-75635317D01*
X149133460Y-75634560D01*
X149135516Y-75632871D01*
X149137776Y-75631450D01*
X149139075Y-75629951D01*
X149144825Y-75625233D01*
X149240064Y-75529993D01*
X149249391Y-75518628D01*
X149251524Y-75513476D01*
X149254844Y-75508997D01*
X149259791Y-75495151D01*
X149307410Y-75304675D01*
X149307785Y-75302138D01*
X149308208Y-75301117D01*
X149308750Y-75295604D01*
X149309560Y-75290131D01*
X149309397Y-75289038D01*
X149309649Y-75286485D01*
X149309649Y-74953152D01*
X149309397Y-74950598D01*
X149309560Y-74949506D01*
X149308750Y-74944032D01*
X149308208Y-74938520D01*
X149307785Y-74937498D01*
X149307410Y-74934962D01*
X149259791Y-74744486D01*
X149254844Y-74730640D01*
X149251525Y-74726161D01*
X149249391Y-74721008D01*
X149240063Y-74709643D01*
X149150239Y-74619819D01*
X149588220Y-74619819D01*
X149588220Y-75619819D01*
X149589661Y-75634451D01*
X149600860Y-75661487D01*
X149621552Y-75682179D01*
X149648588Y-75693378D01*
X149677852Y-75693378D01*
X149704888Y-75682179D01*
X149725580Y-75661487D01*
X149736779Y-75634451D01*
X149738220Y-75619819D01*
X149738220Y-74619819D01*
X149736779Y-74605187D01*
X149725580Y-74578151D01*
X149704888Y-74557459D01*
X149677852Y-74546260D01*
X149648588Y-74546260D01*
X149621552Y-74557459D01*
X149600860Y-74578151D01*
X149589661Y-74605187D01*
X149588220Y-74619819D01*
X149150239Y-74619819D01*
X149144825Y-74614405D01*
X149139075Y-74609686D01*
X149137776Y-74608188D01*
X149135516Y-74606766D01*
X149133460Y-74605078D01*
X149131632Y-74604320D01*
X149125333Y-74600356D01*
X149030095Y-74552737D01*
X149016363Y-74547482D01*
X149013675Y-74547291D01*
X149011186Y-74546260D01*
X148996554Y-74544819D01*
X148806078Y-74544819D01*
X148791446Y-74546260D01*
X148788957Y-74547290D01*
X148786268Y-74547482D01*
X148772537Y-74552737D01*
X148677299Y-74600356D01*
X148671004Y-74604318D01*
X148669172Y-74605077D01*
X148667110Y-74606768D01*
X148664856Y-74608188D01*
X148663557Y-74609684D01*
X148657807Y-74614405D01*
X148562569Y-74709643D01*
X148553242Y-74721008D01*
X148551108Y-74726158D01*
X148547788Y-74730640D01*
X148542841Y-74744486D01*
X148495222Y-74934962D01*
X148494846Y-74937498D01*
X148494424Y-74938520D01*
X148493881Y-74944032D01*
X148493072Y-74949506D01*
X148493234Y-74950598D01*
X148492983Y-74953152D01*
X148252434Y-74953152D01*
X148212172Y-74792105D01*
X148211786Y-74791025D01*
X148211748Y-74790485D01*
X148209417Y-74784395D01*
X148207225Y-74778259D01*
X148206902Y-74777823D01*
X148206493Y-74776754D01*
X148158874Y-74681516D01*
X148154909Y-74675216D01*
X148154152Y-74673389D01*
X148152463Y-74671332D01*
X148151042Y-74669073D01*
X148149543Y-74667773D01*
X148144825Y-74662024D01*
X148097206Y-74614405D01*
X148091456Y-74609686D01*
X148090157Y-74608188D01*
X148087897Y-74606766D01*
X148085841Y-74605078D01*
X148084013Y-74604320D01*
X148077714Y-74600356D01*
X147982476Y-74552737D01*
X147968744Y-74547482D01*
X147966056Y-74547291D01*
X147963567Y-74546260D01*
X147948935Y-74544819D01*
X147853697Y-74544819D01*
X147839065Y-74546260D01*
X147836576Y-74547290D01*
X147833887Y-74547482D01*
X147820156Y-74552737D01*
X147724918Y-74600356D01*
X147718618Y-74604320D01*
X147716791Y-74605078D01*
X147714734Y-74606766D01*
X147712475Y-74608188D01*
X147711175Y-74609686D01*
X147705426Y-74614405D01*
X147657807Y-74662024D01*
X147653088Y-74667773D01*
X147651590Y-74669073D01*
X147650168Y-74671332D01*
X147648480Y-74673389D01*
X147647722Y-74675216D01*
X147643758Y-74681516D01*
X147596139Y-74776754D01*
X147595729Y-74777823D01*
X147595407Y-74778259D01*
X147593211Y-74784404D01*
X147590884Y-74790486D01*
X147590845Y-74791025D01*
X147590460Y-74792105D01*
X147542841Y-74982581D01*
X147542465Y-74985117D01*
X147542043Y-74986139D01*
X147541500Y-74991651D01*
X147540691Y-74997125D01*
X147540853Y-74998217D01*
X147540602Y-75000771D01*
X147429491Y-75000771D01*
X147429491Y-74433708D01*
X149849331Y-74433708D01*
X149849331Y-75805930D01*
G37*
G36*
X159597890Y-83555930D02*
G01*
X155084842Y-83555930D01*
X155084842Y-82379199D01*
X155195953Y-82379199D01*
X155199213Y-82393536D01*
X155532546Y-83393536D01*
X155538540Y-83406961D01*
X155542050Y-83411008D01*
X155544447Y-83415802D01*
X155551555Y-83421967D01*
X155557714Y-83429068D01*
X155562503Y-83431462D01*
X155566554Y-83434976D01*
X155575479Y-83437950D01*
X155583887Y-83442155D01*
X155589231Y-83442534D01*
X155594317Y-83444230D01*
X155603697Y-83443563D01*
X155613077Y-83444230D01*
X155618162Y-83442534D01*
X155623507Y-83442155D01*
X155631917Y-83437949D01*
X155640839Y-83434976D01*
X155644886Y-83431465D01*
X155649680Y-83429069D01*
X155655843Y-83421963D01*
X155662947Y-83415802D01*
X155665342Y-83411010D01*
X155668854Y-83406962D01*
X155674848Y-83393536D01*
X155825611Y-82941247D01*
X156147745Y-82941247D01*
X156147745Y-83179342D01*
X156149186Y-83193974D01*
X156150217Y-83196463D01*
X156150408Y-83199151D01*
X156155663Y-83212883D01*
X156203282Y-83308121D01*
X156207245Y-83314417D01*
X156208003Y-83316247D01*
X156209692Y-83318305D01*
X156211114Y-83320564D01*
X156212612Y-83321863D01*
X156217330Y-83327612D01*
X156264949Y-83375232D01*
X156270698Y-83379950D01*
X156271999Y-83381450D01*
X156274258Y-83382872D01*
X156276315Y-83384560D01*
X156278142Y-83385317D01*
X156284442Y-83389282D01*
X156379680Y-83436901D01*
X156393411Y-83442156D01*
X156396100Y-83442347D01*
X156398589Y-83443378D01*
X156413221Y-83444819D01*
X156698935Y-83444819D01*
X156713567Y-83443378D01*
X156716056Y-83442346D01*
X156718744Y-83442156D01*
X156732476Y-83436901D01*
X156827714Y-83389282D01*
X156834013Y-83385317D01*
X156835841Y-83384560D01*
X156837897Y-83382872D01*
X156840157Y-83381450D01*
X156841457Y-83379950D01*
X156847207Y-83375232D01*
X156894825Y-83327613D01*
X156904153Y-83316247D01*
X156907747Y-83307569D01*
X157101566Y-83307569D01*
X157101566Y-83336832D01*
X157106603Y-83348991D01*
X157112765Y-83363868D01*
X157122092Y-83375233D01*
X157169711Y-83422852D01*
X157181076Y-83432179D01*
X157208112Y-83443378D01*
X157208113Y-83443378D01*
X157237375Y-83443378D01*
X157237376Y-83443378D01*
X157264412Y-83432179D01*
X157275777Y-83422852D01*
X157323396Y-83375233D01*
X157332723Y-83363868D01*
X157343922Y-83336832D01*
X157343922Y-83307569D01*
X157343876Y-83307459D01*
X157332724Y-83280533D01*
X157323396Y-83269167D01*
X157275778Y-83221548D01*
X157264412Y-83212220D01*
X157264411Y-83212219D01*
X157248574Y-83205659D01*
X157237376Y-83201021D01*
X157237375Y-83201021D01*
X157208112Y-83201021D01*
X157196914Y-83205659D01*
X157181077Y-83212219D01*
X157181076Y-83212220D01*
X157169710Y-83221548D01*
X157122091Y-83269168D01*
X157112764Y-83280533D01*
X157101566Y-83307569D01*
X156907747Y-83307569D01*
X156915351Y-83289211D01*
X156915351Y-83259948D01*
X156904152Y-83232912D01*
X156883459Y-83212219D01*
X156856423Y-83201021D01*
X156827160Y-83201021D01*
X156800124Y-83212220D01*
X156788758Y-83221548D01*
X156749745Y-83260561D01*
X156681230Y-83294819D01*
X156430926Y-83294819D01*
X156362410Y-83260561D01*
X156332003Y-83230153D01*
X156297745Y-83161637D01*
X156297745Y-82958952D01*
X156306598Y-82941247D01*
X157576316Y-82941247D01*
X157576316Y-83179342D01*
X157577757Y-83193974D01*
X157578788Y-83196463D01*
X157578979Y-83199151D01*
X157584234Y-83212883D01*
X157631853Y-83308121D01*
X157635816Y-83314417D01*
X157636574Y-83316247D01*
X157638263Y-83318305D01*
X157639685Y-83320564D01*
X157641183Y-83321863D01*
X157645901Y-83327612D01*
X157693520Y-83375232D01*
X157699269Y-83379950D01*
X157700570Y-83381450D01*
X157702829Y-83382872D01*
X157704886Y-83384560D01*
X157706713Y-83385317D01*
X157713013Y-83389282D01*
X157808251Y-83436901D01*
X157821982Y-83442156D01*
X157824671Y-83442347D01*
X157827160Y-83443378D01*
X157841792Y-83444819D01*
X158127506Y-83444819D01*
X158142138Y-83443378D01*
X158144627Y-83442346D01*
X158147315Y-83442156D01*
X158161047Y-83436901D01*
X158256285Y-83389282D01*
X158262584Y-83385317D01*
X158264412Y-83384560D01*
X158266468Y-83382872D01*
X158268728Y-83381450D01*
X158270028Y-83379950D01*
X158275778Y-83375232D01*
X158323396Y-83327613D01*
X158332724Y-83316247D01*
X158343922Y-83289211D01*
X158343922Y-83259948D01*
X158332723Y-83232912D01*
X158312030Y-83212219D01*
X158284994Y-83201021D01*
X158255731Y-83201021D01*
X158228695Y-83212220D01*
X158217329Y-83221548D01*
X158178316Y-83260561D01*
X158109801Y-83294819D01*
X157859497Y-83294819D01*
X157790981Y-83260561D01*
X157760574Y-83230153D01*
X157726316Y-83161637D01*
X157726316Y-82974234D01*
X158577757Y-82974234D01*
X158577757Y-83003498D01*
X158588956Y-83030534D01*
X158609648Y-83051226D01*
X158636684Y-83062425D01*
X158651316Y-83063866D01*
X158957268Y-83063866D01*
X158957268Y-83369819D01*
X158958709Y-83384451D01*
X158969908Y-83411487D01*
X158990600Y-83432179D01*
X159017636Y-83443378D01*
X159046900Y-83443378D01*
X159073936Y-83432179D01*
X159094628Y-83411487D01*
X159105827Y-83384451D01*
X159107268Y-83369819D01*
X159107268Y-83063866D01*
X159413220Y-83063866D01*
X159427852Y-83062425D01*
X159454888Y-83051226D01*
X159475580Y-83030534D01*
X159486779Y-83003498D01*
X159486779Y-82974234D01*
X159475580Y-82947198D01*
X159454888Y-82926506D01*
X159427852Y-82915307D01*
X159413220Y-82913866D01*
X159107268Y-82913866D01*
X159107268Y-82607914D01*
X159105827Y-82593282D01*
X159094628Y-82566246D01*
X159073936Y-82545554D01*
X159046900Y-82534355D01*
X159017636Y-82534355D01*
X158990600Y-82545554D01*
X158969908Y-82566246D01*
X158958709Y-82593282D01*
X158957268Y-82607914D01*
X158957268Y-82913866D01*
X158651316Y-82913866D01*
X158636684Y-82915307D01*
X158609648Y-82926506D01*
X158588956Y-82947198D01*
X158577757Y-82974234D01*
X157726316Y-82974234D01*
X157726316Y-82958952D01*
X157760574Y-82890436D01*
X157790981Y-82860029D01*
X157859497Y-82825771D01*
X157984649Y-82825771D01*
X157992387Y-82825008D01*
X157994355Y-82825140D01*
X157995710Y-82824681D01*
X157999281Y-82824330D01*
X158010538Y-82819666D01*
X158022076Y-82815765D01*
X158023980Y-82814099D01*
X158026317Y-82813131D01*
X158034927Y-82804520D01*
X158044100Y-82796495D01*
X158045222Y-82794225D01*
X158047009Y-82792439D01*
X158051669Y-82781188D01*
X158057072Y-82770263D01*
X158057240Y-82767739D01*
X158058208Y-82765403D01*
X158058208Y-82753218D01*
X158059018Y-82741065D01*
X158058208Y-82738669D01*
X158058208Y-82736139D01*
X158053544Y-82724881D01*
X158049643Y-82713344D01*
X158047557Y-82710426D01*
X158047009Y-82709103D01*
X158045613Y-82707707D01*
X158041092Y-82701383D01*
X157816598Y-82444819D01*
X158270363Y-82444819D01*
X158284995Y-82443378D01*
X158312031Y-82432179D01*
X158332723Y-82411487D01*
X158343922Y-82384451D01*
X158343922Y-82355187D01*
X158332723Y-82328151D01*
X158312031Y-82307459D01*
X158284995Y-82296260D01*
X158270363Y-82294819D01*
X157651316Y-82294819D01*
X157643577Y-82295581D01*
X157641610Y-82295450D01*
X157640254Y-82295908D01*
X157636684Y-82296260D01*
X157625426Y-82300923D01*
X157613889Y-82304825D01*
X157611984Y-82306490D01*
X157609648Y-82307459D01*
X157601037Y-82316069D01*
X157591865Y-82324095D01*
X157590742Y-82326364D01*
X157588956Y-82328151D01*
X157584295Y-82339401D01*
X157578893Y-82350327D01*
X157578724Y-82352850D01*
X157577757Y-82355187D01*
X157577757Y-82367371D01*
X157576947Y-82379525D01*
X157577757Y-82381920D01*
X157577757Y-82384451D01*
X157582420Y-82395708D01*
X157586322Y-82407246D01*
X157588407Y-82410163D01*
X157588956Y-82411487D01*
X157590351Y-82412882D01*
X157594873Y-82419207D01*
X157821768Y-82678515D01*
X157808251Y-82683689D01*
X157713013Y-82731308D01*
X157706713Y-82735272D01*
X157704886Y-82736030D01*
X157702829Y-82737718D01*
X157700570Y-82739140D01*
X157699270Y-82740638D01*
X157693521Y-82745357D01*
X157645902Y-82792976D01*
X157641183Y-82798725D01*
X157639685Y-82800025D01*
X157638263Y-82802284D01*
X157636575Y-82804341D01*
X157635817Y-82806168D01*
X157631853Y-82812468D01*
X157584234Y-82907706D01*
X157578979Y-82921438D01*
X157578788Y-82924125D01*
X157577757Y-82926615D01*
X157576316Y-82941247D01*
X156306598Y-82941247D01*
X156332003Y-82890436D01*
X156362410Y-82860029D01*
X156430926Y-82825771D01*
X156556078Y-82825771D01*
X156563816Y-82825008D01*
X156565784Y-82825140D01*
X156567139Y-82824681D01*
X156570710Y-82824330D01*
X156581967Y-82819666D01*
X156593505Y-82815765D01*
X156595409Y-82814099D01*
X156597746Y-82813131D01*
X156606356Y-82804520D01*
X156615529Y-82796495D01*
X156616651Y-82794225D01*
X156618438Y-82792439D01*
X156623098Y-82781188D01*
X156628501Y-82770263D01*
X156628669Y-82767739D01*
X156629637Y-82765403D01*
X156629637Y-82753218D01*
X156630447Y-82741065D01*
X156629637Y-82738669D01*
X156629637Y-82736139D01*
X156624973Y-82724881D01*
X156621072Y-82713344D01*
X156618986Y-82710426D01*
X156618438Y-82709103D01*
X156617042Y-82707707D01*
X156612521Y-82701383D01*
X156388027Y-82444819D01*
X156841792Y-82444819D01*
X156856424Y-82443378D01*
X156883460Y-82432179D01*
X156904152Y-82411487D01*
X156915351Y-82384451D01*
X156915351Y-82355187D01*
X156904152Y-82328151D01*
X156883460Y-82307459D01*
X156856424Y-82296260D01*
X156841792Y-82294819D01*
X156222745Y-82294819D01*
X156215006Y-82295581D01*
X156213039Y-82295450D01*
X156211683Y-82295908D01*
X156208113Y-82296260D01*
X156196855Y-82300923D01*
X156185318Y-82304825D01*
X156183413Y-82306490D01*
X156181077Y-82307459D01*
X156172466Y-82316069D01*
X156163294Y-82324095D01*
X156162171Y-82326364D01*
X156160385Y-82328151D01*
X156155724Y-82339401D01*
X156150322Y-82350327D01*
X156150153Y-82352850D01*
X156149186Y-82355187D01*
X156149186Y-82367371D01*
X156148376Y-82379525D01*
X156149186Y-82381920D01*
X156149186Y-82384451D01*
X156153849Y-82395708D01*
X156157751Y-82407246D01*
X156159836Y-82410163D01*
X156160385Y-82411487D01*
X156161780Y-82412882D01*
X156166302Y-82419207D01*
X156393197Y-82678515D01*
X156379680Y-82683689D01*
X156284442Y-82731308D01*
X156278142Y-82735272D01*
X156276315Y-82736030D01*
X156274258Y-82737718D01*
X156271999Y-82739140D01*
X156270699Y-82740638D01*
X156264950Y-82745357D01*
X156217331Y-82792976D01*
X156212612Y-82798725D01*
X156211114Y-82800025D01*
X156209692Y-82802284D01*
X156208004Y-82804341D01*
X156207246Y-82806168D01*
X156203282Y-82812468D01*
X156155663Y-82907706D01*
X156150408Y-82921438D01*
X156150217Y-82924125D01*
X156149186Y-82926615D01*
X156147745Y-82941247D01*
X155825611Y-82941247D01*
X156008181Y-82393536D01*
X156011441Y-82379200D01*
X156009366Y-82350010D01*
X155996280Y-82323836D01*
X155974172Y-82304662D01*
X155946410Y-82295408D01*
X155917220Y-82297483D01*
X155891047Y-82310570D01*
X155871873Y-82332677D01*
X155865879Y-82346102D01*
X155603697Y-83132648D01*
X155341515Y-82346102D01*
X155335521Y-82332676D01*
X155316347Y-82310569D01*
X155290174Y-82297483D01*
X155260984Y-82295408D01*
X155233221Y-82304662D01*
X155211114Y-82323836D01*
X155198028Y-82350009D01*
X155195953Y-82379199D01*
X155084842Y-82379199D01*
X155084842Y-82183708D01*
X159597890Y-82183708D01*
X159597890Y-83555930D01*
G37*
%LPC*%
D11*
X153790000Y-82910000D03*
D12*
X151250000Y-82910000D03*
X153790000Y-80370000D03*
X151250000Y-80370000D03*
X153790000Y-77830000D03*
X151250000Y-77830000D03*
X153790000Y-75290000D03*
X151250000Y-75290000D03*
X153790000Y-72750000D03*
X151250000Y-72750000D03*
X153790000Y-70210000D03*
X151250000Y-70210000D03*
%LPD*%
M02*
