G04 #@! TF.GenerationSoftware,KiCad,Pcbnew,10.0.4-10.0.4~ubuntu22.04.1*
G04 #@! TF.CreationDate,2026-09-12T00:22:05+02:00*
G04 #@! TF.ProjectId,PMOD2PSRAM,504d4f44-3250-4535-9241-4d2e6b696361,rev?*
G04 #@! TF.SameCoordinates,PX8c6db50PY50d2eb0*
G04 #@! TF.FileFunction,Copper,L1,Top*
G04 #@! TF.FilePolarity,Positive*
%FSLAX46Y46*%
G04 Gerber Fmt 4.6, Leading zero omitted, Abs format (unit mm)*
G04 Created by KiCad (PCBNEW 10.0.4-10.0.4~ubuntu22.04.1) date 2026-09-12 00:22:05*
%MOMM*%
%LPD*%
G01*
G04 APERTURE LIST*
G04 #@! TA.AperFunction,ComponentPad*
%ADD10R,1.700000X1.700000*%
G04 #@! TD*
G04 #@! TA.AperFunction,ComponentPad*
%ADD11O,1.700000X1.700000*%
G04 #@! TD*
G04 #@! TA.AperFunction,SMDPad,CuDef*
%ADD12R,1.500000X0.650000*%
G04 #@! TD*
G04 #@! TA.AperFunction,ViaPad*
%ADD13C,1.000000*%
G04 #@! TD*
G04 #@! TA.AperFunction,Conductor*
%ADD14C,0.500000*%
G04 #@! TD*
G04 #@! TA.AperFunction,Conductor*
%ADD15C,0.300000*%
G04 #@! TD*
G04 APERTURE END LIST*
G04 #@! TA.AperFunction,SMDPad,CuDef*
G36*
G01*
X157950000Y-79400000D02*
X157950000Y-78100000D01*
G75*
G02*
X158200000Y-77850000I250000J0D01*
G01*
X158850000Y-77850000D01*
G75*
G02*
X159100000Y-78100000I0J-250000D01*
G01*
X159100000Y-79400000D01*
G75*
G02*
X158850000Y-79650000I-250000J0D01*
G01*
X158200000Y-79650000D01*
G75*
G02*
X157950000Y-79400000I0J250000D01*
G01*
G37*
G04 #@! TD.AperFunction*
G04 #@! TA.AperFunction,SMDPad,CuDef*
G36*
G01*
X160900000Y-79400000D02*
X160900000Y-78100000D01*
G75*
G02*
X161150000Y-77850000I250000J0D01*
G01*
X161800000Y-77850000D01*
G75*
G02*
X162050000Y-78100000I0J-250000D01*
G01*
X162050000Y-79400000D01*
G75*
G02*
X161800000Y-79650000I-250000J0D01*
G01*
X161150000Y-79650000D01*
G75*
G02*
X160900000Y-79400000I0J250000D01*
G01*
G37*
G04 #@! TD.AperFunction*
G04 #@! TA.AperFunction,SMDPad,CuDef*
G36*
G01*
X157975000Y-81875000D02*
X157975000Y-80625000D01*
G75*
G02*
X158225000Y-80375000I250000J0D01*
G01*
X158850000Y-80375000D01*
G75*
G02*
X159100000Y-80625000I0J-250000D01*
G01*
X159100000Y-81875000D01*
G75*
G02*
X158850000Y-82125000I-250000J0D01*
G01*
X158225000Y-82125000D01*
G75*
G02*
X157975000Y-81875000I0J250000D01*
G01*
G37*
G04 #@! TD.AperFunction*
G04 #@! TA.AperFunction,SMDPad,CuDef*
G36*
G01*
X160900000Y-81875000D02*
X160900000Y-80625000D01*
G75*
G02*
X161150000Y-80375000I250000J0D01*
G01*
X161775000Y-80375000D01*
G75*
G02*
X162025000Y-80625000I0J-250000D01*
G01*
X162025000Y-81875000D01*
G75*
G02*
X161775000Y-82125000I-250000J0D01*
G01*
X161150000Y-82125000D01*
G75*
G02*
X160900000Y-81875000I0J250000D01*
G01*
G37*
G04 #@! TD.AperFunction*
D10*
X153790000Y-82910000D03*
D11*
X151250000Y-82910000D03*
X153790000Y-80370000D03*
X151250000Y-80370000D03*
X153790000Y-77830000D03*
X151250000Y-77830000D03*
X153790000Y-75290000D03*
X151250000Y-75290000D03*
X153790000Y-72750000D03*
X151250000Y-72750000D03*
X153790000Y-70210000D03*
X151250000Y-70210000D03*
D12*
X162700000Y-76655000D03*
X162700000Y-75385000D03*
X162700000Y-74115000D03*
X162700000Y-72845000D03*
X157300000Y-72845000D03*
X157300000Y-74115000D03*
X157300000Y-75385000D03*
X157300000Y-76655000D03*
D13*
X160750000Y-76750000D03*
X159250000Y-76750000D03*
X160750000Y-72750000D03*
X163000000Y-78000000D03*
X159250000Y-72750000D03*
X163000000Y-79750000D03*
D14*
X157840000Y-82910000D02*
X158537500Y-82212500D01*
X151250000Y-82910000D02*
X153790000Y-82910000D01*
X158525000Y-78750000D02*
X158537500Y-78762500D01*
X157300000Y-76655000D02*
X157300000Y-77525000D01*
X158537500Y-78762500D02*
X158537500Y-81250000D01*
X158537500Y-82212500D02*
X158537500Y-81250000D01*
X157300000Y-77525000D02*
X158525000Y-78750000D01*
X153790000Y-82910000D02*
X157840000Y-82910000D01*
X161475000Y-78750000D02*
X163000000Y-78750000D01*
X160750000Y-76750000D02*
X161475000Y-77475000D01*
X161475000Y-77475000D02*
X161475000Y-78750000D01*
D15*
X164250000Y-76500000D02*
X163950000Y-76500000D01*
X161462500Y-81250000D02*
X163500000Y-81250000D01*
X164250000Y-80500000D02*
X164250000Y-76500000D01*
X165150000Y-74750000D02*
X164250000Y-75650000D01*
X165150000Y-71575000D02*
X165150000Y-74750000D01*
X163950000Y-76500000D02*
X162855000Y-76500000D01*
X164250000Y-75650000D02*
X164250000Y-76500000D01*
X163500000Y-81250000D02*
X164250000Y-80500000D01*
X163825000Y-70250000D02*
X165150000Y-71575000D01*
X162855000Y-76500000D02*
X162700000Y-76655000D01*
X153790000Y-70210000D02*
X153830000Y-70250000D01*
X153830000Y-70250000D02*
X163825000Y-70250000D01*
X154750000Y-71500000D02*
X155400000Y-70850000D01*
X164550000Y-71850000D02*
X164550000Y-74450000D01*
X163550000Y-70850000D02*
X164550000Y-71850000D01*
X151250000Y-72750000D02*
X152500000Y-71500000D01*
X164550000Y-74450000D02*
X163615000Y-75385000D01*
X152500000Y-71500000D02*
X154750000Y-71500000D01*
X155400000Y-70850000D02*
X163550000Y-70850000D01*
X163615000Y-75385000D02*
X162700000Y-75385000D01*
X155125000Y-72750000D02*
X156375000Y-71500000D01*
X163350000Y-71500000D02*
X163950000Y-72100000D01*
X163685000Y-74115000D02*
X162700000Y-74115000D01*
X163950000Y-72100000D02*
X163950000Y-73850000D01*
X163950000Y-73850000D02*
X163685000Y-74115000D01*
X153790000Y-72750000D02*
X155125000Y-72750000D01*
X156375000Y-71500000D02*
X163350000Y-71500000D01*
X151250000Y-75290000D02*
X151250000Y-75000000D01*
X152250000Y-74000000D02*
X155150000Y-74000000D01*
X155150000Y-74000000D02*
X156305000Y-72845000D01*
X156305000Y-72845000D02*
X157300000Y-72845000D01*
X151250000Y-75000000D02*
X152250000Y-74000000D01*
X155060000Y-75290000D02*
X156235000Y-74115000D01*
X153790000Y-75290000D02*
X155060000Y-75290000D01*
X156235000Y-74115000D02*
X157300000Y-74115000D01*
X152700000Y-76550000D02*
X155150000Y-76550000D01*
X151420000Y-77830000D02*
X152700000Y-76550000D01*
X155150000Y-76550000D02*
X156315000Y-75385000D01*
X151250000Y-77830000D02*
X151420000Y-77830000D01*
X156315000Y-75385000D02*
X157300000Y-75385000D01*
G04 #@! TA.AperFunction,Conductor*
G36*
X163455628Y-75065690D02*
G01*
X163467207Y-75077397D01*
X163484414Y-75093279D01*
X163501621Y-75107646D01*
X163518828Y-75120498D01*
X163536035Y-75131835D01*
X163553242Y-75141657D01*
X163570449Y-75149964D01*
X163587656Y-75156757D01*
X163604863Y-75162034D01*
X163618722Y-75165064D01*
X163624495Y-75168221D01*
X163821006Y-75364732D01*
X163824433Y-75373005D01*
X163821006Y-75381278D01*
X163816575Y-75384056D01*
X163795799Y-75391278D01*
X163795775Y-75391287D01*
X163757366Y-75407265D01*
X163718937Y-75425876D01*
X163718907Y-75425892D01*
X163680535Y-75447097D01*
X163680510Y-75447112D01*
X163642104Y-75470960D01*
X163642073Y-75470981D01*
X163603684Y-75497441D01*
X163565265Y-75526545D01*
X163526826Y-75558293D01*
X163488438Y-75592623D01*
X163455055Y-75624756D01*
X163446718Y-75628024D01*
X163443326Y-75627453D01*
X162728698Y-75395261D01*
X162721888Y-75389446D01*
X162721186Y-75380519D01*
X162727001Y-75373709D01*
X162727649Y-75373403D01*
X163442656Y-75063185D01*
X163451608Y-75063037D01*
X163455628Y-75065690D01*
G37*
G04 #@! TD.AperFunction*
G04 #@! TA.AperFunction,Conductor*
G36*
X154647795Y-82068750D02*
G01*
X154648241Y-82069222D01*
X154725004Y-82155120D01*
X154809979Y-82242405D01*
X154809984Y-82242410D01*
X154809999Y-82242425D01*
X154894999Y-82321934D01*
X154979999Y-82393638D01*
X155065000Y-82457540D01*
X155150000Y-82513638D01*
X155235000Y-82561934D01*
X155320000Y-82602425D01*
X155405000Y-82635114D01*
X155481588Y-82657537D01*
X155488564Y-82663150D01*
X155490000Y-82668765D01*
X155490000Y-83151234D01*
X155486573Y-83159507D01*
X155481587Y-83162463D01*
X155404997Y-83184885D01*
X155404990Y-83184888D01*
X155320008Y-83217570D01*
X155320000Y-83217574D01*
X155235000Y-83258065D01*
X155150000Y-83306361D01*
X155149997Y-83306363D01*
X155149994Y-83306365D01*
X155064995Y-83362462D01*
X154979987Y-83426370D01*
X154895010Y-83498055D01*
X154895007Y-83498058D01*
X154894999Y-83498065D01*
X154809999Y-83577574D01*
X154809979Y-83577593D01*
X154725004Y-83664878D01*
X154648241Y-83750777D01*
X154640173Y-83754663D01*
X154631721Y-83751705D01*
X154631249Y-83751259D01*
X154137474Y-83258065D01*
X153797286Y-82918276D01*
X153793855Y-82910007D01*
X153797276Y-82901733D01*
X154631250Y-82068739D01*
X154639524Y-82065318D01*
X154647795Y-82068750D01*
G37*
G04 #@! TD.AperFunction*
G04 #@! TA.AperFunction,Conductor*
G36*
X154125854Y-69429746D02*
G01*
X154126390Y-69429985D01*
X154303527Y-69514222D01*
X154304624Y-69514817D01*
X154454198Y-69606655D01*
X154455121Y-69607285D01*
X154576710Y-69698987D01*
X154577278Y-69699444D01*
X154681015Y-69788366D01*
X154681055Y-69788445D01*
X154681078Y-69788420D01*
X154776903Y-69871737D01*
X154874469Y-69946304D01*
X154983771Y-70009266D01*
X155114803Y-70057772D01*
X155277563Y-70088967D01*
X155470975Y-70099402D01*
X155479051Y-70103270D01*
X155482044Y-70111085D01*
X155482044Y-70387800D01*
X155478617Y-70396073D01*
X155470344Y-70399500D01*
X155425954Y-70399500D01*
X155424644Y-70399426D01*
X155382971Y-70394729D01*
X155382963Y-70394730D01*
X155324716Y-70405750D01*
X155324284Y-70405823D01*
X155313384Y-70407465D01*
X155312163Y-70407584D01*
X155281248Y-70408964D01*
X155281244Y-70408965D01*
X155119781Y-70434527D01*
X155119777Y-70434527D01*
X154988269Y-70474668D01*
X154988259Y-70474672D01*
X154877279Y-70527386D01*
X154877260Y-70527396D01*
X154777382Y-70590681D01*
X154679178Y-70662544D01*
X154573531Y-70740759D01*
X154573110Y-70741057D01*
X154450662Y-70823612D01*
X154449926Y-70824069D01*
X154301203Y-70909064D01*
X154300319Y-70909521D01*
X154126333Y-70990174D01*
X154117386Y-70990544D01*
X154110797Y-70984480D01*
X154110607Y-70984048D01*
X153870332Y-70405750D01*
X153790864Y-70214488D01*
X153790856Y-70205534D01*
X153790865Y-70205511D01*
X153833345Y-70103270D01*
X154110561Y-69436060D01*
X154116899Y-69429737D01*
X154125854Y-69429746D01*
G37*
G04 #@! TD.AperFunction*
G04 #@! TA.AperFunction,Conductor*
G36*
X151585938Y-82129544D02*
G01*
X151586264Y-82129686D01*
X151720541Y-82190623D01*
X151759091Y-82208118D01*
X151759797Y-82208467D01*
X151908836Y-82288611D01*
X151909404Y-82288937D01*
X152033218Y-82364736D01*
X152033497Y-82364913D01*
X152062821Y-82384024D01*
X152141144Y-82435071D01*
X152241584Y-82498205D01*
X152343709Y-82552871D01*
X152456565Y-82597726D01*
X152589201Y-82631427D01*
X152750663Y-82652633D01*
X152938733Y-82659583D01*
X152946873Y-82663313D01*
X152950000Y-82671275D01*
X152950000Y-83148724D01*
X152946573Y-83156997D01*
X152938732Y-83160416D01*
X152750670Y-83167365D01*
X152750651Y-83167367D01*
X152589202Y-83188571D01*
X152508196Y-83209154D01*
X152456565Y-83222273D01*
X152456561Y-83222274D01*
X152456559Y-83222275D01*
X152343706Y-83267129D01*
X152241593Y-83321788D01*
X152241573Y-83321800D01*
X152141130Y-83384937D01*
X152033497Y-83455085D01*
X152033218Y-83455262D01*
X151909404Y-83531061D01*
X151908836Y-83531387D01*
X151759797Y-83611531D01*
X151759091Y-83611880D01*
X151586284Y-83690304D01*
X151577334Y-83690603D01*
X151570795Y-83684485D01*
X151570656Y-83684166D01*
X151250864Y-82914488D01*
X151250856Y-82905534D01*
X151250865Y-82905511D01*
X151351495Y-82663313D01*
X151570645Y-82135858D01*
X151576983Y-82129535D01*
X151585938Y-82129544D01*
G37*
G04 #@! TD.AperFunction*
G04 #@! TA.AperFunction,Conductor*
G36*
X163455591Y-73796933D02*
G01*
X163469257Y-73813878D01*
X163488521Y-73835910D01*
X163507762Y-73856059D01*
X163507772Y-73856069D01*
X163527029Y-73874382D01*
X163546287Y-73890839D01*
X163565544Y-73905441D01*
X163584801Y-73918187D01*
X163604059Y-73929079D01*
X163623316Y-73938114D01*
X163640191Y-73944406D01*
X163644374Y-73947095D01*
X163840793Y-74143514D01*
X163844220Y-74151787D01*
X163840793Y-74160060D01*
X163835840Y-74163006D01*
X163814256Y-74169392D01*
X163814221Y-74169403D01*
X163778072Y-74182442D01*
X163773763Y-74183997D01*
X163733293Y-74201220D01*
X163733284Y-74201224D01*
X163692820Y-74221069D01*
X163652338Y-74243550D01*
X163611897Y-74268630D01*
X163611852Y-74268659D01*
X163571407Y-74296365D01*
X163530956Y-74326699D01*
X163490458Y-74359694D01*
X163455252Y-74390662D01*
X163446777Y-74393553D01*
X163443442Y-74392841D01*
X162726511Y-74125843D01*
X162719954Y-74119745D01*
X162719630Y-74110796D01*
X162725728Y-74104239D01*
X162725842Y-74104187D01*
X163441829Y-73793544D01*
X163450781Y-73793396D01*
X163455591Y-73796933D01*
G37*
G04 #@! TD.AperFunction*
G04 #@! TA.AperFunction,Conductor*
G36*
X154125756Y-74509983D02*
G01*
X154126512Y-74510328D01*
X154270170Y-74582292D01*
X154271385Y-74582997D01*
X154406257Y-74672654D01*
X154407023Y-74673210D01*
X154526588Y-74767468D01*
X154526874Y-74767700D01*
X154576922Y-74809771D01*
X154635061Y-74858645D01*
X154671425Y-74887388D01*
X154735518Y-74938049D01*
X154735527Y-74938055D01*
X154832059Y-74997788D01*
X154832063Y-74997790D01*
X154832065Y-74997791D01*
X154928644Y-75029860D01*
X154928648Y-75029859D01*
X154928650Y-75029860D01*
X154988975Y-75027687D01*
X155029196Y-75026239D01*
X155137663Y-74978917D01*
X155249790Y-74886626D01*
X155258355Y-74884016D01*
X155265498Y-74887388D01*
X155461592Y-75083482D01*
X155465019Y-75091755D01*
X155461592Y-75100028D01*
X155461337Y-75100276D01*
X155337657Y-75216648D01*
X155337040Y-75217188D01*
X155221524Y-75311544D01*
X155220818Y-75312078D01*
X155117741Y-75383998D01*
X155117074Y-75384431D01*
X155022127Y-75441506D01*
X155021708Y-75441746D01*
X154930580Y-75491525D01*
X154839240Y-75541419D01*
X154743752Y-75598820D01*
X154743728Y-75598836D01*
X154640005Y-75671206D01*
X154639972Y-75671230D01*
X154523818Y-75766106D01*
X154523801Y-75766122D01*
X154523794Y-75766128D01*
X154489064Y-75798806D01*
X154399296Y-75883272D01*
X154390922Y-75886446D01*
X154383015Y-75883034D01*
X154040598Y-75541422D01*
X153794836Y-75296237D01*
X153791400Y-75287969D01*
X153792293Y-75283473D01*
X153819784Y-75217188D01*
X154110467Y-74516307D01*
X154116801Y-74509979D01*
X154125756Y-74509983D01*
G37*
G04 #@! TD.AperFunction*
G04 #@! TA.AperFunction,Conductor*
G36*
X153330507Y-80160156D02*
G01*
X153290000Y-80298111D01*
X153290000Y-80441889D01*
X153330507Y-80579844D01*
X153356314Y-80620000D01*
X151683686Y-80620000D01*
X151709493Y-80579844D01*
X151750000Y-80441889D01*
X151750000Y-80298111D01*
X151709493Y-80160156D01*
X151683686Y-80120000D01*
X153356314Y-80120000D01*
X153330507Y-80160156D01*
G37*
G04 #@! TD.AperFunction*
G04 #@! TA.AperFunction,Conductor*
G36*
X163445788Y-77499453D02*
G01*
X163526570Y-77553429D01*
X163580546Y-77634211D01*
X163599500Y-77729499D01*
X163599500Y-80127414D01*
X163580546Y-80222702D01*
X163526570Y-80303484D01*
X163303484Y-80526570D01*
X163222702Y-80580546D01*
X163127414Y-80599500D01*
X162752763Y-80599500D01*
X162657475Y-80580546D01*
X162611812Y-80555765D01*
X162611279Y-80555399D01*
X162599107Y-80546487D01*
X162578384Y-80530325D01*
X162514901Y-80456784D01*
X162495149Y-80412302D01*
X162459814Y-80305666D01*
X162370229Y-80160425D01*
X162336339Y-80069375D01*
X162339871Y-79972285D01*
X162380290Y-79883936D01*
X162386844Y-79875265D01*
X162392318Y-79868341D01*
X162484358Y-79719121D01*
X162484359Y-79719120D01*
X162539504Y-79552701D01*
X162539505Y-79552694D01*
X162549999Y-79449981D01*
X162550000Y-79449971D01*
X162550000Y-79000001D01*
X162549999Y-79000000D01*
X161187500Y-79000000D01*
X161062500Y-78500000D01*
X162549998Y-78500000D01*
X162549999Y-78499999D01*
X162549999Y-78050032D01*
X162549998Y-78050015D01*
X162539505Y-77947300D01*
X162539504Y-77947297D01*
X162493287Y-77807821D01*
X162481306Y-77711407D01*
X162507133Y-77617748D01*
X162566837Y-77541102D01*
X162651326Y-77493138D01*
X162729645Y-77480499D01*
X163350500Y-77480499D01*
X163445788Y-77499453D01*
G37*
G04 #@! TD.AperFunction*
G04 #@! TA.AperFunction,Conductor*
G36*
X161302666Y-72169454D02*
G01*
X161383448Y-72223430D01*
X161437424Y-72304212D01*
X161456378Y-72399500D01*
X161454951Y-72426115D01*
X161450000Y-72472162D01*
X161450000Y-72594999D01*
X161450001Y-72595000D01*
X162701000Y-72595000D01*
X162796288Y-72613954D01*
X162877070Y-72667930D01*
X162931046Y-72748712D01*
X162950000Y-72844000D01*
X162950000Y-72846000D01*
X162931046Y-72941288D01*
X162877070Y-73022070D01*
X162796288Y-73076046D01*
X162701000Y-73095000D01*
X161450001Y-73095000D01*
X161450000Y-73095001D01*
X161450000Y-73217832D01*
X161456401Y-73277371D01*
X161456403Y-73277381D01*
X161499254Y-73392270D01*
X161514794Y-73488174D01*
X161499254Y-73566299D01*
X161455909Y-73682514D01*
X161449500Y-73742123D01*
X161449500Y-74487865D01*
X161449500Y-74487868D01*
X161449501Y-74487872D01*
X161451567Y-74507093D01*
X161455908Y-74547480D01*
X161455909Y-74547484D01*
X161498988Y-74662984D01*
X161514528Y-74758888D01*
X161498988Y-74837014D01*
X161455908Y-74952516D01*
X161449500Y-75012123D01*
X161449500Y-75757865D01*
X161449500Y-75757868D01*
X161449501Y-75757872D01*
X161449948Y-75762032D01*
X161455908Y-75817480D01*
X161455909Y-75817484D01*
X161498988Y-75932984D01*
X161514528Y-76028888D01*
X161498988Y-76107014D01*
X161455908Y-76222516D01*
X161449500Y-76282123D01*
X161449500Y-77027865D01*
X161449501Y-77027874D01*
X161454501Y-77074390D01*
X161445839Y-77171158D01*
X161400804Y-77257245D01*
X161326254Y-77319546D01*
X161233537Y-77348574D01*
X161206929Y-77350000D01*
X161100024Y-77350000D01*
X160997300Y-77360494D01*
X160997297Y-77360495D01*
X160830880Y-77415640D01*
X160830878Y-77415641D01*
X160754215Y-77462928D01*
X160663163Y-77496820D01*
X160623496Y-77500000D01*
X159377456Y-77500000D01*
X159282168Y-77481046D01*
X159246738Y-77462929D01*
X159169334Y-77415186D01*
X159169332Y-77415185D01*
X159169330Y-77415184D01*
X159169332Y-77415184D01*
X159002802Y-77360002D01*
X159002798Y-77360001D01*
X159002797Y-77360001D01*
X158951403Y-77354750D01*
X158900011Y-77349500D01*
X158900009Y-77349500D01*
X158793126Y-77349500D01*
X158697838Y-77330546D01*
X158617056Y-77276570D01*
X158563080Y-77195788D01*
X158544126Y-77100500D01*
X158545552Y-77073889D01*
X158550500Y-77027873D01*
X158550499Y-76282128D01*
X158544091Y-76222517D01*
X158501010Y-76107011D01*
X158485471Y-76011112D01*
X158501012Y-75932983D01*
X158507746Y-75914929D01*
X158544091Y-75817483D01*
X158550500Y-75757873D01*
X158550499Y-75012128D01*
X158544091Y-74952517D01*
X158501010Y-74837011D01*
X158485471Y-74741112D01*
X158501012Y-74662983D01*
X158544091Y-74547483D01*
X158550500Y-74487873D01*
X158550499Y-73742128D01*
X158544091Y-73682517D01*
X158501010Y-73567011D01*
X158485471Y-73471112D01*
X158501012Y-73392983D01*
X158517230Y-73349500D01*
X158544091Y-73277483D01*
X158550500Y-73217873D01*
X158550499Y-72472128D01*
X158545552Y-72426110D01*
X158554213Y-72329345D01*
X158599247Y-72243257D01*
X158673796Y-72180956D01*
X158766513Y-72151926D01*
X158793126Y-72150500D01*
X161207378Y-72150500D01*
X161302666Y-72169454D01*
G37*
G04 #@! TD.AperFunction*
G04 #@! TA.AperFunction,Conductor*
G36*
X158531988Y-78759206D02*
G01*
X158534381Y-78761599D01*
X158891558Y-79241290D01*
X159076380Y-79489507D01*
X159078573Y-79498190D01*
X159077137Y-79502331D01*
X159051629Y-79546657D01*
X159051620Y-79546672D01*
X159022277Y-79602533D01*
X159002056Y-79644389D01*
X158992929Y-79663282D01*
X158976195Y-79700698D01*
X158963569Y-79728930D01*
X158934242Y-79799379D01*
X158904881Y-79874781D01*
X158875536Y-79955021D01*
X158846204Y-80040100D01*
X158846198Y-80040119D01*
X158846193Y-80040134D01*
X158816846Y-80130129D01*
X158790049Y-80216759D01*
X158784332Y-80223648D01*
X158778873Y-80225000D01*
X158295914Y-80225000D01*
X158287641Y-80221573D01*
X158284822Y-80217023D01*
X158284733Y-80216757D01*
X158255652Y-80130129D01*
X158223805Y-80040134D01*
X158191958Y-79955013D01*
X158160111Y-79874768D01*
X158147558Y-79845059D01*
X158128265Y-79799396D01*
X158096422Y-79728910D01*
X158064571Y-79663281D01*
X158032729Y-79602545D01*
X158000880Y-79546672D01*
X158000877Y-79546666D01*
X157992870Y-79533845D01*
X157973262Y-79502446D01*
X157971787Y-79493614D01*
X157973800Y-79489264D01*
X158515617Y-78761601D01*
X158523305Y-78757013D01*
X158531988Y-78759206D01*
G37*
G04 #@! TD.AperFunction*
G04 #@! TA.AperFunction,Conductor*
G36*
X157308260Y-76662285D02*
G01*
X157308286Y-76662311D01*
X157620211Y-76975197D01*
X157623625Y-76983475D01*
X157623211Y-76986541D01*
X157617500Y-77007437D01*
X157610013Y-77035945D01*
X157610000Y-77035999D01*
X157602500Y-77065687D01*
X157602488Y-77065737D01*
X157594989Y-77096545D01*
X157587490Y-77128480D01*
X157579991Y-77161540D01*
X157572507Y-77195647D01*
X157572508Y-77195648D01*
X157564993Y-77231035D01*
X157557506Y-77267402D01*
X157557507Y-77267403D01*
X157551879Y-77295591D01*
X157546898Y-77303033D01*
X157540405Y-77305000D01*
X157059595Y-77305000D01*
X157051322Y-77301573D01*
X157048121Y-77295591D01*
X157042493Y-77267403D01*
X157042493Y-77267402D01*
X157035007Y-77231035D01*
X157027492Y-77195648D01*
X157027492Y-77195647D01*
X157020009Y-77161540D01*
X157012510Y-77128480D01*
X157005011Y-77096545D01*
X156997512Y-77065737D01*
X156997500Y-77065687D01*
X156990000Y-77035999D01*
X156982500Y-77007437D01*
X156976788Y-76986541D01*
X156977912Y-76977658D01*
X156979788Y-76975197D01*
X157291714Y-76662311D01*
X157299982Y-76658871D01*
X157308260Y-76662285D01*
G37*
G04 #@! TD.AperFunction*
G04 #@! TA.AperFunction,Conductor*
G36*
X152286073Y-73853631D02*
G01*
X152289922Y-73861716D01*
X152289938Y-73862320D01*
X152289938Y-74139537D01*
X152286511Y-74147810D01*
X152279540Y-74151164D01*
X152144201Y-74166316D01*
X152144200Y-74166316D01*
X152048287Y-74213084D01*
X151994075Y-74287027D01*
X151973445Y-74384855D01*
X151973444Y-74384862D01*
X151978271Y-74503298D01*
X151978272Y-74503303D01*
X152000435Y-74639085D01*
X152031811Y-74788925D01*
X152031827Y-74789005D01*
X152064223Y-74949265D01*
X152064323Y-74949833D01*
X152089636Y-75117134D01*
X152089747Y-75118187D01*
X152099260Y-75277603D01*
X152096332Y-75286066D01*
X152088278Y-75289979D01*
X152087581Y-75290000D01*
X151256827Y-75290000D01*
X151248554Y-75286573D01*
X151246013Y-75282766D01*
X150928967Y-74514989D01*
X150928976Y-74506034D01*
X150934780Y-74499946D01*
X151112463Y-74415971D01*
X151262601Y-74325365D01*
X151384967Y-74235525D01*
X151489395Y-74149093D01*
X151585437Y-74068944D01*
X151585996Y-74068506D01*
X151683179Y-73997450D01*
X151684412Y-73996665D01*
X151792551Y-73937118D01*
X151794283Y-73936341D01*
X151923517Y-73890587D01*
X151925304Y-73890109D01*
X152085901Y-73860643D01*
X152087386Y-73860470D01*
X152277634Y-73850636D01*
X152286073Y-73853631D01*
G37*
G04 #@! TD.AperFunction*
G04 #@! TA.AperFunction,Conductor*
G36*
X152353893Y-71449731D02*
G01*
X152550268Y-71646106D01*
X152553695Y-71654379D01*
X152550663Y-71662238D01*
X152483654Y-71736144D01*
X152421222Y-71805001D01*
X152421219Y-71805004D01*
X152421219Y-71805005D01*
X152421211Y-71805014D01*
X152325985Y-71940241D01*
X152325984Y-71940243D01*
X152263855Y-72064884D01*
X152263854Y-72064888D01*
X152226254Y-72184101D01*
X152226254Y-72184102D01*
X152204600Y-72303080D01*
X152190318Y-72426969D01*
X152190318Y-72426973D01*
X152174861Y-72560662D01*
X152174774Y-72561272D01*
X152149624Y-72709754D01*
X152149419Y-72710714D01*
X152106033Y-72879405D01*
X152105705Y-72880468D01*
X152039456Y-73063773D01*
X152033422Y-73070389D01*
X152024476Y-73070799D01*
X152023987Y-73070610D01*
X151253785Y-72752562D01*
X151247447Y-72746238D01*
X150929389Y-71976011D01*
X150929398Y-71967056D01*
X150935737Y-71960731D01*
X150936181Y-71960559D01*
X151119536Y-71894290D01*
X151120584Y-71893967D01*
X151289288Y-71850576D01*
X151290238Y-71850374D01*
X151438762Y-71825218D01*
X151439299Y-71825142D01*
X151573025Y-71809680D01*
X151696919Y-71795398D01*
X151815889Y-71773745D01*
X151815895Y-71773743D01*
X151815896Y-71773743D01*
X151863234Y-71758812D01*
X151935110Y-71736144D01*
X152059754Y-71674014D01*
X152194998Y-71578777D01*
X152337762Y-71449335D01*
X152346192Y-71446318D01*
X152353893Y-71449731D01*
G37*
G04 #@! TD.AperFunction*
G04 #@! TA.AperFunction,Conductor*
G36*
X163464381Y-76335747D02*
G01*
X163482490Y-76342986D01*
X163482497Y-76342988D01*
X163482499Y-76342989D01*
X163514999Y-76353536D01*
X163547499Y-76361641D01*
X163579999Y-76367304D01*
X163580006Y-76367304D01*
X163580008Y-76367305D01*
X163586725Y-76367970D01*
X163612500Y-76370525D01*
X163645000Y-76371304D01*
X163677500Y-76369641D01*
X163710000Y-76365536D01*
X163742500Y-76358989D01*
X163760182Y-76354098D01*
X163769068Y-76355196D01*
X163774577Y-76362256D01*
X163775000Y-76365375D01*
X163775000Y-76641535D01*
X163771573Y-76649808D01*
X163766960Y-76652648D01*
X163742495Y-76660705D01*
X163715847Y-76671635D01*
X163710000Y-76674034D01*
X163709988Y-76674040D01*
X163677493Y-76689991D01*
X163645003Y-76708565D01*
X163644999Y-76708568D01*
X163612512Y-76729764D01*
X163612500Y-76729773D01*
X163579999Y-76753602D01*
X163579997Y-76753604D01*
X163547494Y-76780060D01*
X163515007Y-76809127D01*
X163482510Y-76840829D01*
X163454920Y-76869974D01*
X163446743Y-76873626D01*
X163443131Y-76873157D01*
X162730065Y-76664107D01*
X162723091Y-76658492D01*
X162722130Y-76649588D01*
X162727745Y-76642614D01*
X162728695Y-76642149D01*
X163445533Y-76331932D01*
X163454486Y-76331793D01*
X163464381Y-76335747D01*
G37*
G04 #@! TD.AperFunction*
G04 #@! TA.AperFunction,Conductor*
G36*
X152948278Y-82068294D02*
G01*
X152948750Y-82068740D01*
X153782712Y-82901722D01*
X153786144Y-82909993D01*
X153782722Y-82918268D01*
X153782712Y-82918278D01*
X152948750Y-83751259D01*
X152940475Y-83754681D01*
X152932204Y-83751249D01*
X152931758Y-83750777D01*
X152854994Y-83664878D01*
X152770019Y-83577593D01*
X152770013Y-83577587D01*
X152770000Y-83577574D01*
X152685000Y-83498065D01*
X152600000Y-83426361D01*
X152515000Y-83362459D01*
X152429999Y-83306361D01*
X152344999Y-83258065D01*
X152259999Y-83217574D01*
X152259995Y-83217572D01*
X152259990Y-83217570D01*
X152175008Y-83184888D01*
X152175001Y-83184885D01*
X152098413Y-83162463D01*
X152091436Y-83156849D01*
X152090000Y-83151234D01*
X152090000Y-82668766D01*
X152093427Y-82660493D01*
X152098412Y-82657537D01*
X152174999Y-82635114D01*
X152259999Y-82602425D01*
X152344999Y-82561934D01*
X152429999Y-82513638D01*
X152515000Y-82457540D01*
X152600000Y-82393638D01*
X152685000Y-82321934D01*
X152770000Y-82242425D01*
X152855000Y-82155114D01*
X152855005Y-82155109D01*
X152890239Y-82115681D01*
X152931759Y-82069221D01*
X152939826Y-82065336D01*
X152948278Y-82068294D01*
G37*
G04 #@! TD.AperFunction*
G04 #@! TA.AperFunction,Conductor*
G36*
X152421869Y-76631523D02*
G01*
X152618254Y-76827908D01*
X152621681Y-76836181D01*
X152618543Y-76844155D01*
X152492947Y-76979018D01*
X152395066Y-77105266D01*
X152325472Y-77220063D01*
X152325467Y-77220074D01*
X152277089Y-77328785D01*
X152242826Y-77436832D01*
X152215611Y-77549533D01*
X152188357Y-77672250D01*
X152188289Y-77672539D01*
X152153982Y-77810394D01*
X152153817Y-77810988D01*
X152105372Y-77969496D01*
X152105130Y-77970206D01*
X152039557Y-78143991D01*
X152033430Y-78150522D01*
X152024480Y-78150808D01*
X152024144Y-78150675D01*
X151253785Y-77832562D01*
X151247447Y-77826238D01*
X150929463Y-77056190D01*
X150929472Y-77047237D01*
X150935811Y-77040912D01*
X150936465Y-77040664D01*
X151124683Y-76975965D01*
X151126114Y-76975576D01*
X151300958Y-76939871D01*
X151302300Y-76939678D01*
X151457844Y-76926637D01*
X151458756Y-76926597D01*
X151600179Y-76926190D01*
X151600352Y-76926191D01*
X151690857Y-76927691D01*
X151732313Y-76928378D01*
X151732314Y-76928377D01*
X151732320Y-76928378D01*
X151859357Y-76923034D01*
X151986208Y-76900029D01*
X152117719Y-76849235D01*
X152258737Y-76760521D01*
X152405867Y-76631013D01*
X152414340Y-76628120D01*
X152421869Y-76631523D01*
G37*
G04 #@! TD.AperFunction*
G04 #@! TA.AperFunction,Conductor*
G36*
X162032668Y-80696375D02*
G01*
X162033215Y-80696963D01*
X162081250Y-80752291D01*
X162081253Y-80752294D01*
X162137488Y-80811840D01*
X162137492Y-80811844D01*
X162137500Y-80811852D01*
X162193750Y-80866180D01*
X162250000Y-80915278D01*
X162306250Y-80959144D01*
X162306255Y-80959147D01*
X162306261Y-80959152D01*
X162362486Y-80997769D01*
X162362492Y-80997772D01*
X162362500Y-80997778D01*
X162418750Y-81031180D01*
X162418754Y-81031182D01*
X162418768Y-81031190D01*
X162474988Y-81059346D01*
X162475000Y-81059352D01*
X162531250Y-81082291D01*
X162579313Y-81097422D01*
X162586176Y-81103175D01*
X162587500Y-81108582D01*
X162587500Y-81391417D01*
X162584073Y-81399690D01*
X162579313Y-81402577D01*
X162531253Y-81417706D01*
X162475008Y-81440643D01*
X162474988Y-81440652D01*
X162418768Y-81468808D01*
X162418754Y-81468816D01*
X162362486Y-81502229D01*
X162306261Y-81540847D01*
X162306248Y-81540857D01*
X162250005Y-81584716D01*
X162193752Y-81633816D01*
X162137492Y-81688154D01*
X162137488Y-81688158D01*
X162081253Y-81747704D01*
X162033223Y-81803028D01*
X162025212Y-81807029D01*
X162016718Y-81804193D01*
X162016122Y-81803638D01*
X161714169Y-81502221D01*
X161469793Y-81258278D01*
X161466360Y-81250010D01*
X161469779Y-81241735D01*
X162016124Y-80696360D01*
X162024398Y-80692941D01*
X162032668Y-80696375D01*
G37*
G04 #@! TD.AperFunction*
G04 #@! TA.AperFunction,Conductor*
G36*
X154125728Y-71970051D02*
G01*
X154126538Y-71970424D01*
X154274031Y-72045393D01*
X154275367Y-72046188D01*
X154412926Y-72140939D01*
X154413761Y-72141571D01*
X154535205Y-72242368D01*
X154535549Y-72242665D01*
X154644984Y-72340910D01*
X154746377Y-72427772D01*
X154746384Y-72427777D01*
X154832304Y-72486597D01*
X154843752Y-72494434D01*
X154941305Y-72532233D01*
X155043237Y-72532508D01*
X155153745Y-72486598D01*
X155268835Y-72392536D01*
X155277406Y-72389955D01*
X155284509Y-72393323D01*
X155480566Y-72589380D01*
X155483993Y-72597653D01*
X155480566Y-72605926D01*
X155480247Y-72606233D01*
X155357103Y-72720393D01*
X155356325Y-72721054D01*
X155239805Y-72811536D01*
X155238905Y-72812169D01*
X155133747Y-72879004D01*
X155132898Y-72879495D01*
X155035105Y-72930698D01*
X155034576Y-72930959D01*
X154940100Y-72974506D01*
X154845357Y-73018173D01*
X154746859Y-73069748D01*
X154640827Y-73137138D01*
X154640824Y-73137140D01*
X154523471Y-73228270D01*
X154523464Y-73228276D01*
X154399292Y-73343391D01*
X154390895Y-73346503D01*
X154383075Y-73343094D01*
X153969969Y-72930959D01*
X153794836Y-72756237D01*
X153791400Y-72747969D01*
X153792293Y-72743473D01*
X153849212Y-72606233D01*
X154110439Y-71976375D01*
X154116773Y-71970047D01*
X154125728Y-71970051D01*
G37*
G04 #@! TD.AperFunction*
G04 #@! TA.AperFunction,Conductor*
G36*
X158542287Y-81262247D02*
G01*
X158545281Y-81266493D01*
X158891296Y-82107848D01*
X158891273Y-82116803D01*
X158887619Y-82121563D01*
X158843080Y-82155905D01*
X158843054Y-82155926D01*
X158791434Y-82200418D01*
X158791412Y-82200437D01*
X158739814Y-82249594D01*
X158739805Y-82249603D01*
X158688175Y-82303476D01*
X158636563Y-82362016D01*
X158616412Y-82386701D01*
X158584918Y-82425284D01*
X158584911Y-82425293D01*
X158584903Y-82425303D01*
X158533294Y-82493210D01*
X158481664Y-82565834D01*
X158430026Y-82643159D01*
X158386210Y-82712748D01*
X158378902Y-82717923D01*
X158370075Y-82716415D01*
X158368036Y-82714787D01*
X158027917Y-82374668D01*
X158024523Y-82367269D01*
X158024129Y-82362016D01*
X158019863Y-82305094D01*
X158019139Y-82295986D01*
X158014876Y-82242303D01*
X158014876Y-82242302D01*
X158009896Y-82183348D01*
X158009896Y-82183349D01*
X158004911Y-82128078D01*
X158004908Y-82128041D01*
X157999924Y-82076510D01*
X157997613Y-82054361D01*
X157994945Y-82028772D01*
X157989961Y-81984736D01*
X157984967Y-81944361D01*
X157979978Y-81907774D01*
X157975831Y-81880471D01*
X157977976Y-81871777D01*
X157978702Y-81870887D01*
X158525765Y-81263115D01*
X158533846Y-81259259D01*
X158542287Y-81262247D01*
G37*
G04 #@! TD.AperFunction*
G04 #@! TA.AperFunction,Conductor*
G36*
X156556538Y-72562151D02*
G01*
X157273777Y-72834083D01*
X157280298Y-72840220D01*
X157280569Y-72849171D01*
X157274432Y-72855692D01*
X157274286Y-72855756D01*
X156558268Y-73166412D01*
X156549314Y-73166561D01*
X156544422Y-73162921D01*
X156530449Y-73145186D01*
X156510899Y-73122279D01*
X156491349Y-73101277D01*
X156471798Y-73082182D01*
X156462321Y-73073849D01*
X156452268Y-73065009D01*
X156452259Y-73065002D01*
X156452248Y-73064992D01*
X156445861Y-73059998D01*
X156432709Y-73049716D01*
X156432710Y-73049716D01*
X156413156Y-73036337D01*
X156413154Y-73036336D01*
X156413147Y-73036331D01*
X156402388Y-73030017D01*
X156393598Y-73024859D01*
X156393585Y-73024853D01*
X156374062Y-73015300D01*
X156374055Y-73015296D01*
X156374047Y-73015293D01*
X156374037Y-73015289D01*
X156356772Y-73008525D01*
X156352767Y-73005904D01*
X156156381Y-72809518D01*
X156152954Y-72801245D01*
X156156381Y-72792972D01*
X156161406Y-72790004D01*
X156183129Y-72783732D01*
X156209653Y-72774364D01*
X156223879Y-72769341D01*
X156223885Y-72769338D01*
X156223892Y-72769336D01*
X156264656Y-72752316D01*
X156305419Y-72732670D01*
X156346183Y-72710400D01*
X156386946Y-72685504D01*
X156427709Y-72657983D01*
X156468473Y-72627838D01*
X156509236Y-72595067D01*
X156544719Y-72564256D01*
X156553213Y-72561420D01*
X156556538Y-72562151D01*
G37*
G04 #@! TD.AperFunction*
G04 #@! TA.AperFunction,Conductor*
G36*
X156556397Y-73797451D02*
G01*
X157015184Y-73992750D01*
X157275658Y-74103630D01*
X157281928Y-74110023D01*
X157281840Y-74118978D01*
X157275732Y-74125128D01*
X156558836Y-74436166D01*
X156549882Y-74436315D01*
X156544540Y-74432064D01*
X156528405Y-74408610D01*
X156506802Y-74379479D01*
X156506798Y-74379473D01*
X156485198Y-74352614D01*
X156463597Y-74328024D01*
X156441997Y-74305703D01*
X156420396Y-74285651D01*
X156408528Y-74275881D01*
X156398792Y-74267866D01*
X156398790Y-74267864D01*
X156377192Y-74252354D01*
X156355600Y-74239114D01*
X156335650Y-74228978D01*
X156332677Y-74226820D01*
X156136621Y-74030764D01*
X156133194Y-74022491D01*
X156136621Y-74014218D01*
X156142153Y-74011117D01*
X156164676Y-74005690D01*
X156207490Y-73992750D01*
X156250304Y-73977185D01*
X156293117Y-73958994D01*
X156335931Y-73938179D01*
X156378745Y-73914739D01*
X156421558Y-73888673D01*
X156464372Y-73859983D01*
X156507186Y-73828668D01*
X156544549Y-73799048D01*
X156553161Y-73796594D01*
X156556397Y-73797451D01*
G37*
G04 #@! TD.AperFunction*
G04 #@! TA.AperFunction,Conductor*
G36*
X157728168Y-77596945D02*
G01*
X157741360Y-77605723D01*
X157791989Y-77639410D01*
X157863787Y-77682309D01*
X157935585Y-77720333D01*
X157935602Y-77720341D01*
X157935608Y-77720344D01*
X158007377Y-77753480D01*
X158079178Y-77781755D01*
X158079184Y-77781757D01*
X158150969Y-77805151D01*
X158150972Y-77805151D01*
X158150979Y-77805154D01*
X158222777Y-77823678D01*
X158222785Y-77823679D01*
X158222796Y-77823682D01*
X158286452Y-77835782D01*
X158294575Y-77837327D01*
X158366373Y-77846101D01*
X158428134Y-77849454D01*
X158436209Y-77853325D01*
X158439144Y-77860005D01*
X158524867Y-78742068D01*
X158522257Y-78750634D01*
X158517683Y-78754016D01*
X157960374Y-78983892D01*
X157951420Y-78983879D01*
X157945292Y-78977984D01*
X157936761Y-78959524D01*
X157891663Y-78861936D01*
X157833327Y-78740575D01*
X157833325Y-78740572D01*
X157833313Y-78740546D01*
X157775005Y-78624118D01*
X157774991Y-78624090D01*
X157716654Y-78512479D01*
X157658318Y-78405744D01*
X157599982Y-78303883D01*
X157541645Y-78206897D01*
X157541633Y-78206877D01*
X157483324Y-78114810D01*
X157483309Y-78114787D01*
X157424973Y-78027551D01*
X157372341Y-77953245D01*
X157370357Y-77944514D01*
X157373615Y-77938212D01*
X157713415Y-77598412D01*
X157721687Y-77594986D01*
X157728168Y-77596945D01*
G37*
G04 #@! TD.AperFunction*
G04 #@! TA.AperFunction,Conductor*
G36*
X156556552Y-75107156D02*
G01*
X157226036Y-75356484D01*
X157273488Y-75374156D01*
X157280045Y-75380254D01*
X157280369Y-75389203D01*
X157274271Y-75395760D01*
X157274062Y-75395853D01*
X156558172Y-75706454D01*
X156549218Y-75706603D01*
X156544408Y-75703066D01*
X156530741Y-75686120D01*
X156511477Y-75664088D01*
X156492236Y-75643939D01*
X156492227Y-75643930D01*
X156472971Y-75625618D01*
X156472970Y-75625617D01*
X156453713Y-75609160D01*
X156434455Y-75594558D01*
X156415198Y-75581812D01*
X156395940Y-75570920D01*
X156395938Y-75570919D01*
X156395920Y-75570910D01*
X156376689Y-75561888D01*
X156376690Y-75561888D01*
X156376683Y-75561885D01*
X156359809Y-75555593D01*
X156355625Y-75552904D01*
X156159205Y-75356484D01*
X156155778Y-75348211D01*
X156159205Y-75339938D01*
X156164156Y-75336993D01*
X156185765Y-75330600D01*
X156226236Y-75316002D01*
X156266706Y-75298779D01*
X156307177Y-75278930D01*
X156347647Y-75256457D01*
X156388117Y-75231359D01*
X156428588Y-75203635D01*
X156469058Y-75173287D01*
X156509529Y-75140314D01*
X156544749Y-75109334D01*
X156553221Y-75106445D01*
X156556552Y-75107156D01*
G37*
G04 #@! TD.AperFunction*
G04 #@! TA.AperFunction,Conductor*
G36*
X158787203Y-79815927D02*
G01*
X158790085Y-79820671D01*
X158816848Y-79905282D01*
X158846186Y-79993346D01*
X158875541Y-80076771D01*
X158904894Y-80155500D01*
X158934225Y-80229485D01*
X158963581Y-80298846D01*
X158992931Y-80363506D01*
X159014539Y-80407654D01*
X159022276Y-80423463D01*
X159022277Y-80423464D01*
X159051625Y-80478744D01*
X159077076Y-80522617D01*
X159078264Y-80531493D01*
X159076302Y-80535526D01*
X158546846Y-81238589D01*
X158539132Y-81243137D01*
X158530462Y-81240897D01*
X158528154Y-81238589D01*
X158311538Y-80950947D01*
X157998696Y-80535525D01*
X157996457Y-80526857D01*
X157997923Y-80522618D01*
X158023373Y-80478744D01*
X158023376Y-80478739D01*
X158052723Y-80423463D01*
X158082070Y-80363499D01*
X158111417Y-80298847D01*
X158140765Y-80229508D01*
X158170112Y-80155481D01*
X158199459Y-80076767D01*
X158228806Y-79993365D01*
X158258153Y-79905276D01*
X158284915Y-79820670D01*
X158290677Y-79813817D01*
X158296070Y-79812500D01*
X158778930Y-79812500D01*
X158787203Y-79815927D01*
G37*
G04 #@! TD.AperFunction*
M02*
