G04 #@! TF.GenerationSoftware,KiCad,Pcbnew,10.0.4-10.0.4~ubuntu22.04.1*
G04 #@! TF.CreationDate,2026-09-12T00:22:05+02:00*
G04 #@! TF.ProjectId,PMOD2PSRAM,504d4f44-3250-4535-9241-4d2e6b696361,rev?*
G04 #@! TF.SameCoordinates,PX8c6db50PY50d2eb0*
G04 #@! TF.FileFunction,Legend,Top*
G04 #@! TF.FilePolarity,Positive*
%FSLAX46Y46*%
G04 Gerber Fmt 4.6, Leading zero omitted, Abs format (unit mm)*
G04 Created by KiCad (PCBNEW 10.0.4-10.0.4~ubuntu22.04.1) date 2026-09-12 00:22:05*
%MOMM*%
%LPD*%
G01*
G04 APERTURE LIST*
%ADD10C,0.150000*%
%ADD11C,0.120000*%
%ADD12C,0.200000*%
%ADD13R,1.700000X1.700000*%
%ADD14O,1.700000X1.700000*%
%ADD15R,1.500000X0.650000*%
G04 APERTURE END LIST*
D10*
X156433333Y-79259580D02*
X156385714Y-79307200D01*
X156385714Y-79307200D02*
X156242857Y-79354819D01*
X156242857Y-79354819D02*
X156147619Y-79354819D01*
X156147619Y-79354819D02*
X156004762Y-79307200D01*
X156004762Y-79307200D02*
X155909524Y-79211961D01*
X155909524Y-79211961D02*
X155861905Y-79116723D01*
X155861905Y-79116723D02*
X155814286Y-78926247D01*
X155814286Y-78926247D02*
X155814286Y-78783390D01*
X155814286Y-78783390D02*
X155861905Y-78592914D01*
X155861905Y-78592914D02*
X155909524Y-78497676D01*
X155909524Y-78497676D02*
X156004762Y-78402438D01*
X156004762Y-78402438D02*
X156147619Y-78354819D01*
X156147619Y-78354819D02*
X156242857Y-78354819D01*
X156242857Y-78354819D02*
X156385714Y-78402438D01*
X156385714Y-78402438D02*
X156433333Y-78450057D01*
X157385714Y-79354819D02*
X156814286Y-79354819D01*
X157100000Y-79354819D02*
X157100000Y-78354819D01*
X157100000Y-78354819D02*
X157004762Y-78497676D01*
X157004762Y-78497676D02*
X156909524Y-78592914D01*
X156909524Y-78592914D02*
X156814286Y-78640533D01*
X156583333Y-81704819D02*
X156250000Y-81228628D01*
X156011905Y-81704819D02*
X156011905Y-80704819D01*
X156011905Y-80704819D02*
X156392857Y-80704819D01*
X156392857Y-80704819D02*
X156488095Y-80752438D01*
X156488095Y-80752438D02*
X156535714Y-80800057D01*
X156535714Y-80800057D02*
X156583333Y-80895295D01*
X156583333Y-80895295D02*
X156583333Y-81038152D01*
X156583333Y-81038152D02*
X156535714Y-81133390D01*
X156535714Y-81133390D02*
X156488095Y-81181009D01*
X156488095Y-81181009D02*
X156392857Y-81228628D01*
X156392857Y-81228628D02*
X156011905Y-81228628D01*
X157535714Y-81704819D02*
X156964286Y-81704819D01*
X157250000Y-81704819D02*
X157250000Y-80704819D01*
X157250000Y-80704819D02*
X157154762Y-80847676D01*
X157154762Y-80847676D02*
X157059524Y-80942914D01*
X157059524Y-80942914D02*
X156964286Y-80990533D01*
X156466666Y-83054819D02*
X156466666Y-83769104D01*
X156466666Y-83769104D02*
X156419047Y-83911961D01*
X156419047Y-83911961D02*
X156323809Y-84007200D01*
X156323809Y-84007200D02*
X156180952Y-84054819D01*
X156180952Y-84054819D02*
X156085714Y-84054819D01*
X157466666Y-84054819D02*
X156895238Y-84054819D01*
X157180952Y-84054819D02*
X157180952Y-83054819D01*
X157180952Y-83054819D02*
X157085714Y-83197676D01*
X157085714Y-83197676D02*
X156990476Y-83292914D01*
X156990476Y-83292914D02*
X156895238Y-83340533D01*
X159023810Y-71654819D02*
X159023810Y-70654819D01*
X160071428Y-71559580D02*
X160023809Y-71607200D01*
X160023809Y-71607200D02*
X159880952Y-71654819D01*
X159880952Y-71654819D02*
X159785714Y-71654819D01*
X159785714Y-71654819D02*
X159642857Y-71607200D01*
X159642857Y-71607200D02*
X159547619Y-71511961D01*
X159547619Y-71511961D02*
X159500000Y-71416723D01*
X159500000Y-71416723D02*
X159452381Y-71226247D01*
X159452381Y-71226247D02*
X159452381Y-71083390D01*
X159452381Y-71083390D02*
X159500000Y-70892914D01*
X159500000Y-70892914D02*
X159547619Y-70797676D01*
X159547619Y-70797676D02*
X159642857Y-70702438D01*
X159642857Y-70702438D02*
X159785714Y-70654819D01*
X159785714Y-70654819D02*
X159880952Y-70654819D01*
X159880952Y-70654819D02*
X160023809Y-70702438D01*
X160023809Y-70702438D02*
X160071428Y-70750057D01*
X161023809Y-71654819D02*
X160452381Y-71654819D01*
X160738095Y-71654819D02*
X160738095Y-70654819D01*
X160738095Y-70654819D02*
X160642857Y-70797676D01*
X160642857Y-70797676D02*
X160547619Y-70892914D01*
X160547619Y-70892914D02*
X160452381Y-70940533D01*
D11*
X159288748Y-77840000D02*
X160711252Y-77840000D01*
X159288748Y-79660000D02*
X160711252Y-79660000D01*
X159272936Y-80340000D02*
X160727064Y-80340000D01*
X159272936Y-82160000D02*
X160727064Y-82160000D01*
X155060000Y-84180000D02*
X153790000Y-84180000D01*
X155060000Y-82910000D02*
X155060000Y-84180000D01*
X152747071Y-80750000D02*
X152292929Y-80750000D01*
X152747071Y-79990000D02*
X152292929Y-79990000D01*
X152747071Y-78210000D02*
X152292929Y-78210000D01*
X152747071Y-77450000D02*
X152292929Y-77450000D01*
X152747071Y-75670000D02*
X152292929Y-75670000D01*
X152747071Y-74910000D02*
X152292929Y-74910000D01*
X152747071Y-73130000D02*
X152292929Y-73130000D01*
X152747071Y-72370000D02*
X152292929Y-72370000D01*
X152747071Y-70590000D02*
X152292929Y-70590000D01*
X152747071Y-69830000D02*
X152292929Y-69830000D01*
X152680000Y-83290000D02*
X152292929Y-83290000D01*
X152680000Y-82530000D02*
X152292929Y-82530000D01*
X150207071Y-83290000D02*
X149810000Y-83290000D01*
X150207071Y-82530000D02*
X149810000Y-82530000D01*
X150207071Y-80750000D02*
X149810000Y-80750000D01*
X150207071Y-79990000D02*
X149810000Y-79990000D01*
X150207071Y-78210000D02*
X149810000Y-78210000D01*
X150207071Y-77450000D02*
X149810000Y-77450000D01*
X150207071Y-75670000D02*
X149810000Y-75670000D01*
X150207071Y-74910000D02*
X149810000Y-74910000D01*
X150207071Y-73130000D02*
X149810000Y-73130000D01*
X150207071Y-72370000D02*
X149810000Y-72370000D01*
X150207071Y-70590000D02*
X149810000Y-70590000D01*
X150207071Y-69830000D02*
X149810000Y-69830000D01*
X149810000Y-84240000D02*
X149810000Y-68880000D01*
X149810000Y-81640000D02*
X147150000Y-81640000D01*
X149810000Y-79100000D02*
X147150000Y-79100000D01*
X149810000Y-76560000D02*
X147150000Y-76560000D01*
X149810000Y-74020000D02*
X147150000Y-74020000D01*
X149810000Y-71480000D02*
X147150000Y-71480000D01*
X149810000Y-68880000D02*
X147150000Y-68880000D01*
X147150000Y-84240000D02*
X149810000Y-84240000D01*
X147150000Y-83290000D02*
X141150000Y-83290000D01*
X147150000Y-83230000D02*
X141150000Y-83230000D01*
X147150000Y-83110000D02*
X141150000Y-83110000D01*
X147150000Y-82990000D02*
X141150000Y-82990000D01*
X147150000Y-82870000D02*
X141150000Y-82870000D01*
X147150000Y-82750000D02*
X141150000Y-82750000D01*
X147150000Y-82630000D02*
X141150000Y-82630000D01*
X147150000Y-80750000D02*
X141150000Y-80750000D01*
X147150000Y-78210000D02*
X141150000Y-78210000D01*
X147150000Y-75670000D02*
X141150000Y-75670000D01*
X147150000Y-73130000D02*
X141150000Y-73130000D01*
X147150000Y-70590000D02*
X141150000Y-70590000D01*
X147150000Y-68880000D02*
X147150000Y-84240000D01*
X141150000Y-83290000D02*
X141150000Y-82530000D01*
X141150000Y-82530000D02*
X147150000Y-82530000D01*
X141150000Y-80750000D02*
X141150000Y-79990000D01*
X141150000Y-79990000D02*
X147150000Y-79990000D01*
X141150000Y-78210000D02*
X141150000Y-77450000D01*
X141150000Y-77450000D02*
X147150000Y-77450000D01*
X141150000Y-75670000D02*
X141150000Y-74910000D01*
X141150000Y-74910000D02*
X147150000Y-74910000D01*
X141150000Y-73130000D02*
X141150000Y-72370000D01*
X141150000Y-72370000D02*
X147150000Y-72370000D01*
X141150000Y-70590000D02*
X141150000Y-69830000D01*
X141150000Y-69830000D02*
X147150000Y-69830000D01*
D12*
X163450000Y-77330000D02*
X161950000Y-77330000D01*
X161600000Y-77200000D02*
X158400000Y-77200000D01*
X161600000Y-72300000D02*
X161600000Y-77200000D01*
X158400000Y-77200000D02*
X158400000Y-72300000D01*
X158400000Y-72300000D02*
X161600000Y-72300000D01*
%LPC*%
G36*
G01*
X157950000Y-79400000D02*
X157950000Y-78100000D01*
G75*
G02*
X158200000Y-77850000I250000J0D01*
G01*
X158850000Y-77850000D01*
G75*
G02*
X159100000Y-78100000I0J-250000D01*
G01*
X159100000Y-79400000D01*
G75*
G02*
X158850000Y-79650000I-250000J0D01*
G01*
X158200000Y-79650000D01*
G75*
G02*
X157950000Y-79400000I0J250000D01*
G01*
G37*
G36*
G01*
X160900000Y-79400000D02*
X160900000Y-78100000D01*
G75*
G02*
X161150000Y-77850000I250000J0D01*
G01*
X161800000Y-77850000D01*
G75*
G02*
X162050000Y-78100000I0J-250000D01*
G01*
X162050000Y-79400000D01*
G75*
G02*
X161800000Y-79650000I-250000J0D01*
G01*
X161150000Y-79650000D01*
G75*
G02*
X160900000Y-79400000I0J250000D01*
G01*
G37*
G36*
G01*
X157975000Y-81875000D02*
X157975000Y-80625000D01*
G75*
G02*
X158225000Y-80375000I250000J0D01*
G01*
X158850000Y-80375000D01*
G75*
G02*
X159100000Y-80625000I0J-250000D01*
G01*
X159100000Y-81875000D01*
G75*
G02*
X158850000Y-82125000I-250000J0D01*
G01*
X158225000Y-82125000D01*
G75*
G02*
X157975000Y-81875000I0J250000D01*
G01*
G37*
G36*
G01*
X160900000Y-81875000D02*
X160900000Y-80625000D01*
G75*
G02*
X161150000Y-80375000I250000J0D01*
G01*
X161775000Y-80375000D01*
G75*
G02*
X162025000Y-80625000I0J-250000D01*
G01*
X162025000Y-81875000D01*
G75*
G02*
X161775000Y-82125000I-250000J0D01*
G01*
X161150000Y-82125000D01*
G75*
G02*
X160900000Y-81875000I0J250000D01*
G01*
G37*
D13*
X153790000Y-82910000D03*
D14*
X151250000Y-82910000D03*
X153790000Y-80370000D03*
X151250000Y-80370000D03*
X153790000Y-77830000D03*
X151250000Y-77830000D03*
X153790000Y-75290000D03*
X151250000Y-75290000D03*
X153790000Y-72750000D03*
X151250000Y-72750000D03*
X153790000Y-70210000D03*
X151250000Y-70210000D03*
D15*
X162700000Y-76655000D03*
X162700000Y-75385000D03*
X162700000Y-74115000D03*
X162700000Y-72845000D03*
X157300000Y-72845000D03*
X157300000Y-74115000D03*
X157300000Y-75385000D03*
X157300000Y-76655000D03*
%LPD*%
M02*
