%TF.GenerationSoftware,KiCad,Pcbnew,7.0.10*%
%TF.CreationDate,2024-02-11T10:45:53+07:00*%
%TF.ProjectId,PMOD-Pulser_update,504d4f44-2d50-4756-9c73-65725f757064,rev?*%
%TF.SameCoordinates,PX5e2ce30PY52bb330*%
%TF.FileFunction,Legend,Top*%
%TF.FilePolarity,Positive*%
%FSLAX46Y46*%
G04 Gerber Fmt 4.6, Leading zero omitted, Abs format (unit mm)*
G04 Created by KiCad (PCBNEW 7.0.10) date 2024-02-11 10:45:53*
%MOMM*%
%LPD*%
G01*
G04 APERTURE LIST*
%ADD10C,0.150000*%
%ADD11C,0.120000*%
%ADD12C,0.200000*%
%ADD13C,0.400000*%
G04 APERTURE END LIST*
D10*
G36*
X57197581Y18182010D02*
G01*
X57271694Y18107897D01*
X57310187Y18030910D01*
X57353571Y17857376D01*
X57353571Y17732987D01*
X57310187Y17559453D01*
X57271693Y17482466D01*
X57197581Y17408353D01*
X57083068Y17370181D01*
X56932143Y17370181D01*
X56932143Y18220181D01*
X57083068Y18220181D01*
X57197581Y18182010D01*
G37*
G36*
X59050811Y18185923D02*
G01*
X59122753Y18113981D01*
X59163095Y17952614D01*
X59163095Y17637749D01*
X59122753Y17476383D01*
X59050810Y17404439D01*
X58982295Y17370181D01*
X58827229Y17370181D01*
X58758713Y17404439D01*
X58686770Y17476383D01*
X58646429Y17637749D01*
X58646429Y17952614D01*
X58686770Y18113981D01*
X58758713Y18185923D01*
X58827229Y18220181D01*
X58982295Y18220181D01*
X59050811Y18185923D01*
G37*
G36*
X60359575Y17077324D02*
G01*
X50688044Y17077324D01*
X50688044Y17295181D01*
X52067857Y17295181D01*
X52085404Y17246972D01*
X52129833Y17221320D01*
X52180357Y17230229D01*
X52213334Y17269529D01*
X52217857Y17295181D01*
X52217857Y17743991D01*
X52639285Y17743991D01*
X52639285Y17295181D01*
X52656832Y17246972D01*
X52701261Y17221320D01*
X52751785Y17230229D01*
X52784762Y17269529D01*
X52789285Y17295181D01*
X52789285Y18295181D01*
X52788539Y18297230D01*
X52972647Y18297230D01*
X52976468Y18271464D01*
X53309801Y17271464D01*
X53311143Y17269773D01*
X53311202Y17267614D01*
X53326951Y17249853D01*
X53341692Y17231278D01*
X53343805Y17230846D01*
X53345239Y17229229D01*
X53368709Y17225749D01*
X53391953Y17220992D01*
X53393852Y17222021D01*
X53395988Y17221704D01*
X53416201Y17234123D01*
X53437067Y17245421D01*
X53437860Y17247429D01*
X53439700Y17248559D01*
X53452103Y17271464D01*
X53602866Y17723753D01*
X54686905Y17723753D01*
X54688090Y17720496D01*
X54689144Y17705563D01*
X54736763Y17515087D01*
X54738751Y17512143D01*
X54742442Y17499736D01*
X54790061Y17404498D01*
X54791247Y17403375D01*
X54804110Y17385006D01*
X54899348Y17289767D01*
X54903412Y17287872D01*
X54905759Y17284052D01*
X54928664Y17271649D01*
X55071520Y17224030D01*
X55073155Y17224075D01*
X55095238Y17220181D01*
X55190476Y17220181D01*
X55192014Y17220742D01*
X55214193Y17224030D01*
X55357050Y17271649D01*
X55360561Y17274437D01*
X55365030Y17274827D01*
X55386367Y17289768D01*
X55391780Y17295181D01*
X55734524Y17295181D01*
X55752071Y17246972D01*
X55796500Y17221320D01*
X55847024Y17230229D01*
X55880001Y17269529D01*
X55884524Y17295181D01*
X55884524Y18012765D01*
X56315834Y17257970D01*
X56321127Y17253489D01*
X56323499Y17246972D01*
X56340236Y17237309D01*
X56354987Y17224819D01*
X56361921Y17224789D01*
X56367928Y17221320D01*
X56386961Y17224677D01*
X56406289Y17224590D01*
X56411622Y17229025D01*
X56418452Y17230229D01*
X56430876Y17245036D01*
X56445736Y17257392D01*
X56446970Y17264216D01*
X56451429Y17269529D01*
X56455952Y17295181D01*
X56782143Y17295181D01*
X56788806Y17276873D01*
X56792191Y17257681D01*
X56797375Y17253331D01*
X56799690Y17246972D01*
X56816563Y17237230D01*
X56831491Y17224704D01*
X56841233Y17222987D01*
X56844119Y17221320D01*
X56847401Y17221899D01*
X56857143Y17220181D01*
X57095238Y17220181D01*
X57096776Y17220742D01*
X57118955Y17224030D01*
X57261812Y17271649D01*
X57265324Y17274437D01*
X57269791Y17274827D01*
X57291128Y17289767D01*
X57386367Y17385007D01*
X57387058Y17386490D01*
X57400415Y17404498D01*
X57448034Y17499736D01*
X57448440Y17503265D01*
X57453713Y17515087D01*
X57482070Y17628515D01*
X58496429Y17628515D01*
X58497614Y17625258D01*
X58498668Y17610325D01*
X58546287Y17419849D01*
X58550429Y17413717D01*
X58551074Y17406343D01*
X58566015Y17385006D01*
X58661253Y17289767D01*
X58662735Y17289076D01*
X58680745Y17275718D01*
X58775983Y17228099D01*
X58780436Y17227587D01*
X58783872Y17224704D01*
X58809524Y17220181D01*
X59000000Y17220181D01*
X59004213Y17221715D01*
X59008574Y17220673D01*
X59033541Y17228099D01*
X59128779Y17275718D01*
X59129904Y17276908D01*
X59148271Y17289767D01*
X59153685Y17295181D01*
X59591667Y17295181D01*
X59598330Y17276873D01*
X59601715Y17257681D01*
X59606899Y17253331D01*
X59609214Y17246972D01*
X59626087Y17237230D01*
X59641015Y17224704D01*
X59650757Y17222987D01*
X59653643Y17221320D01*
X59656925Y17221899D01*
X59666667Y17220181D01*
X60142857Y17220181D01*
X60191066Y17237728D01*
X60216718Y17282157D01*
X60207809Y17332681D01*
X60168509Y17365658D01*
X60142857Y17370181D01*
X59741667Y17370181D01*
X59741667Y17743991D01*
X60000000Y17743991D01*
X60048209Y17761538D01*
X60073861Y17805967D01*
X60064952Y17856491D01*
X60025652Y17889468D01*
X60000000Y17893991D01*
X59741667Y17893991D01*
X59741667Y18220181D01*
X60142857Y18220181D01*
X60191066Y18237728D01*
X60216718Y18282157D01*
X60207809Y18332681D01*
X60168509Y18365658D01*
X60142857Y18370181D01*
X59666667Y18370181D01*
X59648358Y18363518D01*
X59629167Y18360133D01*
X59624816Y18354949D01*
X59618458Y18352634D01*
X59608715Y18335761D01*
X59596190Y18320833D01*
X59594472Y18311091D01*
X59592806Y18308205D01*
X59593384Y18304923D01*
X59591667Y18295181D01*
X59591667Y17295181D01*
X59153685Y17295181D01*
X59243510Y17385007D01*
X59246637Y17391715D01*
X59252627Y17396060D01*
X59263237Y17419849D01*
X59310856Y17610325D01*
X59310495Y17613774D01*
X59313095Y17628515D01*
X59313095Y17961848D01*
X59311909Y17965106D01*
X59310856Y17980038D01*
X59263237Y18170514D01*
X59259095Y18176647D01*
X59258450Y18184020D01*
X59243509Y18205357D01*
X59148271Y18300595D01*
X59146789Y18301286D01*
X59128779Y18314644D01*
X59033541Y18362263D01*
X59029087Y18362776D01*
X59025652Y18365658D01*
X59000000Y18370181D01*
X58809524Y18370181D01*
X58805310Y18368648D01*
X58800949Y18369689D01*
X58775983Y18362263D01*
X58680745Y18314644D01*
X58679621Y18313458D01*
X58661253Y18300595D01*
X58566015Y18205357D01*
X58562887Y18198650D01*
X58556897Y18194303D01*
X58546287Y18170514D01*
X58498668Y17980038D01*
X58499028Y17976590D01*
X58496429Y17961848D01*
X58496429Y17628515D01*
X57482070Y17628515D01*
X57501332Y17705563D01*
X57500971Y17709012D01*
X57503571Y17723753D01*
X57503571Y17866610D01*
X57502385Y17869868D01*
X57501332Y17884800D01*
X57453713Y18075276D01*
X57451724Y18078221D01*
X57448034Y18090627D01*
X57400415Y18185865D01*
X57399228Y18186989D01*
X57386366Y18205357D01*
X57291128Y18300595D01*
X57287064Y18302490D01*
X57284717Y18306311D01*
X57261812Y18318713D01*
X57118955Y18366332D01*
X57117320Y18366288D01*
X57095238Y18370181D01*
X56857143Y18370181D01*
X56838834Y18363518D01*
X56819643Y18360133D01*
X56815292Y18354949D01*
X56808934Y18352634D01*
X56799191Y18335761D01*
X56786666Y18320833D01*
X56784948Y18311091D01*
X56783282Y18308205D01*
X56783860Y18304923D01*
X56782143Y18295181D01*
X56782143Y17295181D01*
X56455952Y17295181D01*
X56455952Y18295181D01*
X56438405Y18343390D01*
X56393976Y18369042D01*
X56343452Y18360133D01*
X56310475Y18320833D01*
X56305952Y18295181D01*
X56305952Y17577598D01*
X55874642Y18332391D01*
X55869349Y18336873D01*
X55866977Y18343390D01*
X55850237Y18353055D01*
X55835489Y18365543D01*
X55828554Y18365574D01*
X55822548Y18369042D01*
X55803514Y18365686D01*
X55784187Y18365772D01*
X55778853Y18361338D01*
X55772024Y18360133D01*
X55759599Y18345327D01*
X55744740Y18332970D01*
X55743505Y18326147D01*
X55739047Y18320833D01*
X55734524Y18295181D01*
X55734524Y17295181D01*
X55391780Y17295181D01*
X55433985Y17337387D01*
X55440903Y17352225D01*
X55451429Y17364768D01*
X55454272Y17380896D01*
X55455666Y17383884D01*
X55455143Y17385835D01*
X55455952Y17390420D01*
X55455952Y17723753D01*
X55449288Y17742062D01*
X55445904Y17761253D01*
X55440719Y17765604D01*
X55438405Y17771962D01*
X55421531Y17781705D01*
X55406604Y17794230D01*
X55396861Y17795948D01*
X55393976Y17797614D01*
X55390693Y17797036D01*
X55380952Y17798753D01*
X55190476Y17798753D01*
X55142267Y17781206D01*
X55116615Y17736777D01*
X55125524Y17686253D01*
X55164824Y17653276D01*
X55190476Y17648753D01*
X55305952Y17648753D01*
X55305952Y17421486D01*
X55292819Y17408353D01*
X55178306Y17370181D01*
X55107408Y17370181D01*
X54992895Y17408352D01*
X54918782Y17482466D01*
X54880288Y17559453D01*
X54836905Y17732987D01*
X54836905Y17857376D01*
X54880288Y18030910D01*
X54918782Y18107897D01*
X54992895Y18182010D01*
X55107408Y18220181D01*
X55220390Y18220181D01*
X55299792Y18180480D01*
X55350758Y18174615D01*
X55393571Y18202881D01*
X55408198Y18252056D01*
X55387795Y18299127D01*
X55366874Y18314644D01*
X55271636Y18362263D01*
X55267182Y18362776D01*
X55263747Y18365658D01*
X55238095Y18370181D01*
X55095238Y18370181D01*
X55093700Y18369622D01*
X55071520Y18366332D01*
X54928664Y18318713D01*
X54925153Y18315927D01*
X54920685Y18315536D01*
X54899348Y18300595D01*
X54804110Y18205357D01*
X54803419Y18203876D01*
X54790061Y18185865D01*
X54742442Y18090627D01*
X54742035Y18087099D01*
X54736763Y18075276D01*
X54689144Y17884800D01*
X54689504Y17881352D01*
X54686905Y17866610D01*
X54686905Y17723753D01*
X53602866Y17723753D01*
X53785436Y18271464D01*
X53784035Y18322747D01*
X53749997Y18361133D01*
X53699249Y18368658D01*
X53655536Y18341803D01*
X53643134Y18318898D01*
X53380952Y17532352D01*
X53118770Y18318898D01*
X53086879Y18359084D01*
X53036618Y18369370D01*
X52991504Y18344941D01*
X52972647Y18297230D01*
X52788539Y18297230D01*
X52771738Y18343390D01*
X52727309Y18369042D01*
X52676785Y18360133D01*
X52643808Y18320833D01*
X52639285Y18295181D01*
X52639285Y17893991D01*
X52217857Y17893991D01*
X52217857Y18295181D01*
X52200310Y18343390D01*
X52155881Y18369042D01*
X52105357Y18360133D01*
X52072380Y18320833D01*
X52067857Y18295181D01*
X52067857Y17295181D01*
X50688044Y17295181D01*
X50688044Y17689158D01*
X50830901Y17689158D01*
X50839810Y17638634D01*
X50879110Y17605657D01*
X50904762Y17601134D01*
X51666667Y17601134D01*
X51714876Y17618681D01*
X51740528Y17663110D01*
X51731619Y17713634D01*
X51692319Y17746611D01*
X51666667Y17751134D01*
X50904762Y17751134D01*
X50856553Y17733587D01*
X50830901Y17689158D01*
X50688044Y17689158D01*
X50688044Y18513038D01*
X60359575Y18513038D01*
X60359575Y17077324D01*
G37*
G36*
X57844960Y77324D02*
G01*
X50795187Y77324D01*
X50795187Y689158D01*
X50938044Y689158D01*
X50946953Y638634D01*
X50986253Y605657D01*
X51011905Y601134D01*
X51317857Y601134D01*
X51317857Y295181D01*
X51335404Y246972D01*
X51379833Y221320D01*
X51430357Y230229D01*
X51463334Y269529D01*
X51467857Y295181D01*
X51467857Y601134D01*
X51773810Y601134D01*
X51822019Y618681D01*
X51847671Y663110D01*
X51838762Y713634D01*
X51799462Y746611D01*
X51773810Y751134D01*
X51467857Y751134D01*
X51467857Y825527D01*
X52127667Y825527D01*
X52134193Y801168D01*
X52140416Y776738D01*
X52140816Y776451D01*
X52140944Y775973D01*
X52161578Y761525D01*
X52182072Y746792D01*
X52182565Y746830D01*
X52182970Y746546D01*
X52208073Y748743D01*
X52233232Y750630D01*
X52233585Y750976D01*
X52234077Y751018D01*
X52255414Y765958D01*
X52294427Y804971D01*
X52362943Y839229D01*
X52565628Y839229D01*
X52634144Y804971D01*
X52664551Y774564D01*
X52698809Y706048D01*
X52698809Y503363D01*
X52664550Y434847D01*
X52634143Y404439D01*
X52565628Y370181D01*
X52362943Y370181D01*
X52294427Y404439D01*
X52255415Y443452D01*
X52208918Y465134D01*
X52159363Y451857D01*
X52129937Y409832D01*
X52134407Y358725D01*
X52149347Y337388D01*
X52196966Y289768D01*
X52198447Y289078D01*
X52216459Y275718D01*
X52311697Y228099D01*
X52316150Y227587D01*
X52319586Y224704D01*
X52345238Y220181D01*
X52583333Y220181D01*
X52587546Y221715D01*
X52591907Y220673D01*
X52616874Y228099D01*
X52712112Y275718D01*
X52713236Y276906D01*
X52731605Y289768D01*
X52779223Y337387D01*
X52779913Y338869D01*
X52793272Y356879D01*
X52840891Y452117D01*
X52841403Y456571D01*
X52844286Y460006D01*
X52848809Y485658D01*
X52848809Y723753D01*
X52847275Y727967D01*
X52848317Y732328D01*
X52840891Y757294D01*
X52793272Y852532D01*
X52792082Y853658D01*
X52779223Y872024D01*
X52731604Y919643D01*
X52730122Y920334D01*
X52712112Y933692D01*
X52616874Y981311D01*
X52612420Y981824D01*
X52608985Y984706D01*
X52583333Y989229D01*
X52345238Y989229D01*
X52341024Y987696D01*
X52336663Y988737D01*
X52311697Y981311D01*
X52293055Y971991D01*
X52317874Y1220181D01*
X52726190Y1220181D01*
X52774399Y1237728D01*
X52800051Y1282157D01*
X52797393Y1297230D01*
X52984552Y1297230D01*
X52988373Y1271464D01*
X53321706Y271464D01*
X53323048Y269773D01*
X53323107Y267614D01*
X53338856Y249853D01*
X53353597Y231278D01*
X53355710Y230846D01*
X53357144Y229229D01*
X53380614Y225749D01*
X53403858Y220992D01*
X53405757Y222021D01*
X53407893Y221704D01*
X53428106Y234123D01*
X53448972Y245421D01*
X53449765Y247429D01*
X53451605Y248559D01*
X53464008Y271464D01*
X53603239Y689158D01*
X54747568Y689158D01*
X54756477Y638634D01*
X54795777Y605657D01*
X54821429Y601134D01*
X55127381Y601134D01*
X55127381Y295181D01*
X55144928Y246972D01*
X55189357Y221320D01*
X55239881Y230229D01*
X55272858Y269529D01*
X55277381Y295181D01*
X55984524Y295181D01*
X56002071Y246972D01*
X56046500Y221320D01*
X56097024Y230229D01*
X56130001Y269529D01*
X56134524Y295181D01*
X56134524Y743991D01*
X56555952Y743991D01*
X56555952Y295181D01*
X56573499Y246972D01*
X56617928Y221320D01*
X56668452Y230229D01*
X56701429Y269529D01*
X56705952Y295181D01*
X56705952Y1295181D01*
X56705206Y1297230D01*
X56889314Y1297230D01*
X56893135Y1271464D01*
X57226468Y271464D01*
X57227810Y269773D01*
X57227869Y267614D01*
X57243618Y249853D01*
X57258359Y231278D01*
X57260472Y230846D01*
X57261906Y229229D01*
X57285376Y225749D01*
X57308620Y220992D01*
X57310519Y222021D01*
X57312655Y221704D01*
X57332868Y234123D01*
X57353734Y245421D01*
X57354527Y247429D01*
X57356367Y248559D01*
X57368770Y271464D01*
X57702103Y1271464D01*
X57700702Y1322747D01*
X57666664Y1361133D01*
X57615916Y1368658D01*
X57572203Y1341803D01*
X57559801Y1318898D01*
X57297619Y532352D01*
X57035437Y1318898D01*
X57003546Y1359084D01*
X56953285Y1369370D01*
X56908171Y1344941D01*
X56889314Y1297230D01*
X56705206Y1297230D01*
X56688405Y1343390D01*
X56643976Y1369042D01*
X56593452Y1360133D01*
X56560475Y1320833D01*
X56555952Y1295181D01*
X56555952Y893991D01*
X56134524Y893991D01*
X56134524Y1295181D01*
X56116977Y1343390D01*
X56072548Y1369042D01*
X56022024Y1360133D01*
X55989047Y1320833D01*
X55984524Y1295181D01*
X55984524Y295181D01*
X55277381Y295181D01*
X55277381Y601134D01*
X55583334Y601134D01*
X55631543Y618681D01*
X55657195Y663110D01*
X55648286Y713634D01*
X55608986Y746611D01*
X55583334Y751134D01*
X55277381Y751134D01*
X55277381Y1057086D01*
X55259834Y1105295D01*
X55215405Y1130947D01*
X55164881Y1122038D01*
X55131904Y1082738D01*
X55127381Y1057086D01*
X55127381Y751134D01*
X54821429Y751134D01*
X54773220Y733587D01*
X54747568Y689158D01*
X53603239Y689158D01*
X53797341Y1271464D01*
X53795940Y1322747D01*
X53761902Y1361133D01*
X53711154Y1368658D01*
X53667441Y1341803D01*
X53655039Y1318898D01*
X53392857Y532352D01*
X53130675Y1318898D01*
X53098784Y1359084D01*
X53048523Y1369370D01*
X53003409Y1344941D01*
X52984552Y1297230D01*
X52797393Y1297230D01*
X52791142Y1332681D01*
X52751842Y1365658D01*
X52726190Y1370181D01*
X52250000Y1370181D01*
X52235032Y1364734D01*
X52219149Y1363542D01*
X52211642Y1356220D01*
X52201791Y1352634D01*
X52193827Y1338841D01*
X52182425Y1327718D01*
X52177693Y1310898D01*
X52176139Y1308205D01*
X52176446Y1306463D01*
X52175372Y1302644D01*
X52127753Y826454D01*
X52127875Y825974D01*
X52127667Y825527D01*
X51467857Y825527D01*
X51467857Y1057086D01*
X51450310Y1105295D01*
X51405881Y1130947D01*
X51355357Y1122038D01*
X51322380Y1082738D01*
X51317857Y1057086D01*
X51317857Y751134D01*
X51011905Y751134D01*
X50963696Y733587D01*
X50938044Y689158D01*
X50795187Y689158D01*
X50795187Y1513038D01*
X57844960Y1513038D01*
X57844960Y77324D01*
G37*
X60483333Y20437705D02*
X60483333Y19866277D01*
X60483333Y19866277D02*
X60445238Y19751991D01*
X60445238Y19751991D02*
X60369047Y19675800D01*
X60369047Y19675800D02*
X60254762Y19637705D01*
X60254762Y19637705D02*
X60178571Y19637705D01*
X61207143Y20171039D02*
X61207143Y19637705D01*
X61016667Y20475800D02*
X60826190Y19904372D01*
X60826190Y19904372D02*
X61321429Y19904372D01*
X15969048Y16637705D02*
X15969048Y17437705D01*
X16807143Y16713896D02*
X16769047Y16675800D01*
X16769047Y16675800D02*
X16654762Y16637705D01*
X16654762Y16637705D02*
X16578571Y16637705D01*
X16578571Y16637705D02*
X16464285Y16675800D01*
X16464285Y16675800D02*
X16388095Y16751991D01*
X16388095Y16751991D02*
X16350000Y16828181D01*
X16350000Y16828181D02*
X16311904Y16980562D01*
X16311904Y16980562D02*
X16311904Y17094848D01*
X16311904Y17094848D02*
X16350000Y17247229D01*
X16350000Y17247229D02*
X16388095Y17323420D01*
X16388095Y17323420D02*
X16464285Y17399610D01*
X16464285Y17399610D02*
X16578571Y17437705D01*
X16578571Y17437705D02*
X16654762Y17437705D01*
X16654762Y17437705D02*
X16769047Y17399610D01*
X16769047Y17399610D02*
X16807143Y17361515D01*
X17569047Y16637705D02*
X17111904Y16637705D01*
X17340476Y16637705D02*
X17340476Y17437705D01*
X17340476Y17437705D02*
X17264285Y17323420D01*
X17264285Y17323420D02*
X17188095Y17247229D01*
X17188095Y17247229D02*
X17111904Y17209134D01*
X34366667Y14713896D02*
X34328571Y14675800D01*
X34328571Y14675800D02*
X34214286Y14637705D01*
X34214286Y14637705D02*
X34138095Y14637705D01*
X34138095Y14637705D02*
X34023809Y14675800D01*
X34023809Y14675800D02*
X33947619Y14751991D01*
X33947619Y14751991D02*
X33909524Y14828181D01*
X33909524Y14828181D02*
X33871428Y14980562D01*
X33871428Y14980562D02*
X33871428Y15094848D01*
X33871428Y15094848D02*
X33909524Y15247229D01*
X33909524Y15247229D02*
X33947619Y15323420D01*
X33947619Y15323420D02*
X34023809Y15399610D01*
X34023809Y15399610D02*
X34138095Y15437705D01*
X34138095Y15437705D02*
X34214286Y15437705D01*
X34214286Y15437705D02*
X34328571Y15399610D01*
X34328571Y15399610D02*
X34366667Y15361515D01*
X35090476Y15437705D02*
X34709524Y15437705D01*
X34709524Y15437705D02*
X34671428Y15056753D01*
X34671428Y15056753D02*
X34709524Y15094848D01*
X34709524Y15094848D02*
X34785714Y15132943D01*
X34785714Y15132943D02*
X34976190Y15132943D01*
X34976190Y15132943D02*
X35052381Y15094848D01*
X35052381Y15094848D02*
X35090476Y15056753D01*
X35090476Y15056753D02*
X35128571Y14980562D01*
X35128571Y14980562D02*
X35128571Y14790086D01*
X35128571Y14790086D02*
X35090476Y14713896D01*
X35090476Y14713896D02*
X35052381Y14675800D01*
X35052381Y14675800D02*
X34976190Y14637705D01*
X34976190Y14637705D02*
X34785714Y14637705D01*
X34785714Y14637705D02*
X34709524Y14675800D01*
X34709524Y14675800D02*
X34671428Y14713896D01*
X11866667Y14137705D02*
X11600000Y14518658D01*
X11409524Y14137705D02*
X11409524Y14937705D01*
X11409524Y14937705D02*
X11714286Y14937705D01*
X11714286Y14937705D02*
X11790476Y14899610D01*
X11790476Y14899610D02*
X11828571Y14861515D01*
X11828571Y14861515D02*
X11866667Y14785324D01*
X11866667Y14785324D02*
X11866667Y14671039D01*
X11866667Y14671039D02*
X11828571Y14594848D01*
X11828571Y14594848D02*
X11790476Y14556753D01*
X11790476Y14556753D02*
X11714286Y14518658D01*
X11714286Y14518658D02*
X11409524Y14518658D01*
X12133333Y14937705D02*
X12628571Y14937705D01*
X12628571Y14937705D02*
X12361905Y14632943D01*
X12361905Y14632943D02*
X12476190Y14632943D01*
X12476190Y14632943D02*
X12552381Y14594848D01*
X12552381Y14594848D02*
X12590476Y14556753D01*
X12590476Y14556753D02*
X12628571Y14480562D01*
X12628571Y14480562D02*
X12628571Y14290086D01*
X12628571Y14290086D02*
X12590476Y14213896D01*
X12590476Y14213896D02*
X12552381Y14175800D01*
X12552381Y14175800D02*
X12476190Y14137705D01*
X12476190Y14137705D02*
X12247619Y14137705D01*
X12247619Y14137705D02*
X12171428Y14175800D01*
X12171428Y14175800D02*
X12133333Y14213896D01*
X49116667Y14463896D02*
X49078571Y14425800D01*
X49078571Y14425800D02*
X48964286Y14387705D01*
X48964286Y14387705D02*
X48888095Y14387705D01*
X48888095Y14387705D02*
X48773809Y14425800D01*
X48773809Y14425800D02*
X48697619Y14501991D01*
X48697619Y14501991D02*
X48659524Y14578181D01*
X48659524Y14578181D02*
X48621428Y14730562D01*
X48621428Y14730562D02*
X48621428Y14844848D01*
X48621428Y14844848D02*
X48659524Y14997229D01*
X48659524Y14997229D02*
X48697619Y15073420D01*
X48697619Y15073420D02*
X48773809Y15149610D01*
X48773809Y15149610D02*
X48888095Y15187705D01*
X48888095Y15187705D02*
X48964286Y15187705D01*
X48964286Y15187705D02*
X49078571Y15149610D01*
X49078571Y15149610D02*
X49116667Y15111515D01*
X49802381Y15187705D02*
X49650000Y15187705D01*
X49650000Y15187705D02*
X49573809Y15149610D01*
X49573809Y15149610D02*
X49535714Y15111515D01*
X49535714Y15111515D02*
X49459524Y14997229D01*
X49459524Y14997229D02*
X49421428Y14844848D01*
X49421428Y14844848D02*
X49421428Y14540086D01*
X49421428Y14540086D02*
X49459524Y14463896D01*
X49459524Y14463896D02*
X49497619Y14425800D01*
X49497619Y14425800D02*
X49573809Y14387705D01*
X49573809Y14387705D02*
X49726190Y14387705D01*
X49726190Y14387705D02*
X49802381Y14425800D01*
X49802381Y14425800D02*
X49840476Y14463896D01*
X49840476Y14463896D02*
X49878571Y14540086D01*
X49878571Y14540086D02*
X49878571Y14730562D01*
X49878571Y14730562D02*
X49840476Y14806753D01*
X49840476Y14806753D02*
X49802381Y14844848D01*
X49802381Y14844848D02*
X49726190Y14882943D01*
X49726190Y14882943D02*
X49573809Y14882943D01*
X49573809Y14882943D02*
X49497619Y14844848D01*
X49497619Y14844848D02*
X49459524Y14806753D01*
X49459524Y14806753D02*
X49421428Y14730562D01*
X55409524Y6887705D02*
X55409524Y7687705D01*
X55409524Y7687705D02*
X55600000Y7687705D01*
X55600000Y7687705D02*
X55714286Y7649610D01*
X55714286Y7649610D02*
X55790476Y7573420D01*
X55790476Y7573420D02*
X55828571Y7497229D01*
X55828571Y7497229D02*
X55866667Y7344848D01*
X55866667Y7344848D02*
X55866667Y7230562D01*
X55866667Y7230562D02*
X55828571Y7078181D01*
X55828571Y7078181D02*
X55790476Y7001991D01*
X55790476Y7001991D02*
X55714286Y6925800D01*
X55714286Y6925800D02*
X55600000Y6887705D01*
X55600000Y6887705D02*
X55409524Y6887705D01*
X56171428Y7611515D02*
X56209524Y7649610D01*
X56209524Y7649610D02*
X56285714Y7687705D01*
X56285714Y7687705D02*
X56476190Y7687705D01*
X56476190Y7687705D02*
X56552381Y7649610D01*
X56552381Y7649610D02*
X56590476Y7611515D01*
X56590476Y7611515D02*
X56628571Y7535324D01*
X56628571Y7535324D02*
X56628571Y7459134D01*
X56628571Y7459134D02*
X56590476Y7344848D01*
X56590476Y7344848D02*
X56133333Y6887705D01*
X56133333Y6887705D02*
X56628571Y6887705D01*
X49116667Y15963896D02*
X49078571Y15925800D01*
X49078571Y15925800D02*
X48964286Y15887705D01*
X48964286Y15887705D02*
X48888095Y15887705D01*
X48888095Y15887705D02*
X48773809Y15925800D01*
X48773809Y15925800D02*
X48697619Y16001991D01*
X48697619Y16001991D02*
X48659524Y16078181D01*
X48659524Y16078181D02*
X48621428Y16230562D01*
X48621428Y16230562D02*
X48621428Y16344848D01*
X48621428Y16344848D02*
X48659524Y16497229D01*
X48659524Y16497229D02*
X48697619Y16573420D01*
X48697619Y16573420D02*
X48773809Y16649610D01*
X48773809Y16649610D02*
X48888095Y16687705D01*
X48888095Y16687705D02*
X48964286Y16687705D01*
X48964286Y16687705D02*
X49078571Y16649610D01*
X49078571Y16649610D02*
X49116667Y16611515D01*
X49383333Y16687705D02*
X49916667Y16687705D01*
X49916667Y16687705D02*
X49573809Y15887705D01*
X29719048Y11637705D02*
X29719048Y12437705D01*
X30557143Y11713896D02*
X30519047Y11675800D01*
X30519047Y11675800D02*
X30404762Y11637705D01*
X30404762Y11637705D02*
X30328571Y11637705D01*
X30328571Y11637705D02*
X30214285Y11675800D01*
X30214285Y11675800D02*
X30138095Y11751991D01*
X30138095Y11751991D02*
X30100000Y11828181D01*
X30100000Y11828181D02*
X30061904Y11980562D01*
X30061904Y11980562D02*
X30061904Y12094848D01*
X30061904Y12094848D02*
X30100000Y12247229D01*
X30100000Y12247229D02*
X30138095Y12323420D01*
X30138095Y12323420D02*
X30214285Y12399610D01*
X30214285Y12399610D02*
X30328571Y12437705D01*
X30328571Y12437705D02*
X30404762Y12437705D01*
X30404762Y12437705D02*
X30519047Y12399610D01*
X30519047Y12399610D02*
X30557143Y12361515D01*
X30861904Y12361515D02*
X30900000Y12399610D01*
X30900000Y12399610D02*
X30976190Y12437705D01*
X30976190Y12437705D02*
X31166666Y12437705D01*
X31166666Y12437705D02*
X31242857Y12399610D01*
X31242857Y12399610D02*
X31280952Y12361515D01*
X31280952Y12361515D02*
X31319047Y12285324D01*
X31319047Y12285324D02*
X31319047Y12209134D01*
X31319047Y12209134D02*
X31280952Y12094848D01*
X31280952Y12094848D02*
X30823809Y11637705D01*
X30823809Y11637705D02*
X31319047Y11637705D01*
X55409524Y10137705D02*
X55409524Y10937705D01*
X55409524Y10937705D02*
X55600000Y10937705D01*
X55600000Y10937705D02*
X55714286Y10899610D01*
X55714286Y10899610D02*
X55790476Y10823420D01*
X55790476Y10823420D02*
X55828571Y10747229D01*
X55828571Y10747229D02*
X55866667Y10594848D01*
X55866667Y10594848D02*
X55866667Y10480562D01*
X55866667Y10480562D02*
X55828571Y10328181D01*
X55828571Y10328181D02*
X55790476Y10251991D01*
X55790476Y10251991D02*
X55714286Y10175800D01*
X55714286Y10175800D02*
X55600000Y10137705D01*
X55600000Y10137705D02*
X55409524Y10137705D01*
X56628571Y10137705D02*
X56171428Y10137705D01*
X56400000Y10137705D02*
X56400000Y10937705D01*
X56400000Y10937705D02*
X56323809Y10823420D01*
X56323809Y10823420D02*
X56247619Y10747229D01*
X56247619Y10747229D02*
X56171428Y10709134D01*
X23786104Y17235715D02*
X23824200Y17197619D01*
X23824200Y17197619D02*
X23862295Y17083334D01*
X23862295Y17083334D02*
X23862295Y17007143D01*
X23862295Y17007143D02*
X23824200Y16892857D01*
X23824200Y16892857D02*
X23748009Y16816667D01*
X23748009Y16816667D02*
X23671819Y16778572D01*
X23671819Y16778572D02*
X23519438Y16740476D01*
X23519438Y16740476D02*
X23405152Y16740476D01*
X23405152Y16740476D02*
X23252771Y16778572D01*
X23252771Y16778572D02*
X23176580Y16816667D01*
X23176580Y16816667D02*
X23100390Y16892857D01*
X23100390Y16892857D02*
X23062295Y17007143D01*
X23062295Y17007143D02*
X23062295Y17083334D01*
X23062295Y17083334D02*
X23100390Y17197619D01*
X23100390Y17197619D02*
X23138485Y17235715D01*
X23862295Y17997619D02*
X23862295Y17540476D01*
X23862295Y17769048D02*
X23062295Y17769048D01*
X23062295Y17769048D02*
X23176580Y17692857D01*
X23176580Y17692857D02*
X23252771Y17616667D01*
X23252771Y17616667D02*
X23290866Y17540476D01*
X23062295Y18721429D02*
X23062295Y18340477D01*
X23062295Y18340477D02*
X23443247Y18302381D01*
X23443247Y18302381D02*
X23405152Y18340477D01*
X23405152Y18340477D02*
X23367057Y18416667D01*
X23367057Y18416667D02*
X23367057Y18607143D01*
X23367057Y18607143D02*
X23405152Y18683334D01*
X23405152Y18683334D02*
X23443247Y18721429D01*
X23443247Y18721429D02*
X23519438Y18759524D01*
X23519438Y18759524D02*
X23709914Y18759524D01*
X23709914Y18759524D02*
X23786104Y18721429D01*
X23786104Y18721429D02*
X23824200Y18683334D01*
X23824200Y18683334D02*
X23862295Y18607143D01*
X23862295Y18607143D02*
X23862295Y18416667D01*
X23862295Y18416667D02*
X23824200Y18340477D01*
X23824200Y18340477D02*
X23786104Y18302381D01*
X56267731Y15655705D02*
X56267731Y15084277D01*
X56267731Y15084277D02*
X56229636Y14969991D01*
X56229636Y14969991D02*
X56153445Y14893800D01*
X56153445Y14893800D02*
X56039160Y14855705D01*
X56039160Y14855705D02*
X55962969Y14855705D01*
X57067731Y14855705D02*
X56610588Y14855705D01*
X56839160Y14855705D02*
X56839160Y15655705D01*
X56839160Y15655705D02*
X56762969Y15541420D01*
X56762969Y15541420D02*
X56686779Y15465229D01*
X56686779Y15465229D02*
X56610588Y15427134D01*
X34366667Y18213896D02*
X34328571Y18175800D01*
X34328571Y18175800D02*
X34214286Y18137705D01*
X34214286Y18137705D02*
X34138095Y18137705D01*
X34138095Y18137705D02*
X34023809Y18175800D01*
X34023809Y18175800D02*
X33947619Y18251991D01*
X33947619Y18251991D02*
X33909524Y18328181D01*
X33909524Y18328181D02*
X33871428Y18480562D01*
X33871428Y18480562D02*
X33871428Y18594848D01*
X33871428Y18594848D02*
X33909524Y18747229D01*
X33909524Y18747229D02*
X33947619Y18823420D01*
X33947619Y18823420D02*
X34023809Y18899610D01*
X34023809Y18899610D02*
X34138095Y18937705D01*
X34138095Y18937705D02*
X34214286Y18937705D01*
X34214286Y18937705D02*
X34328571Y18899610D01*
X34328571Y18899610D02*
X34366667Y18861515D01*
X35052381Y18671039D02*
X35052381Y18137705D01*
X34861905Y18975800D02*
X34671428Y18404372D01*
X34671428Y18404372D02*
X35166667Y18404372D01*
X31833333Y7306753D02*
X31566667Y7306753D01*
X31566667Y6887705D02*
X31566667Y7687705D01*
X31566667Y7687705D02*
X31947619Y7687705D01*
X32519047Y7306753D02*
X32633333Y7268658D01*
X32633333Y7268658D02*
X32671428Y7230562D01*
X32671428Y7230562D02*
X32709524Y7154372D01*
X32709524Y7154372D02*
X32709524Y7040086D01*
X32709524Y7040086D02*
X32671428Y6963896D01*
X32671428Y6963896D02*
X32633333Y6925800D01*
X32633333Y6925800D02*
X32557143Y6887705D01*
X32557143Y6887705D02*
X32252381Y6887705D01*
X32252381Y6887705D02*
X32252381Y7687705D01*
X32252381Y7687705D02*
X32519047Y7687705D01*
X32519047Y7687705D02*
X32595238Y7649610D01*
X32595238Y7649610D02*
X32633333Y7611515D01*
X32633333Y7611515D02*
X32671428Y7535324D01*
X32671428Y7535324D02*
X32671428Y7459134D01*
X32671428Y7459134D02*
X32633333Y7382943D01*
X32633333Y7382943D02*
X32595238Y7344848D01*
X32595238Y7344848D02*
X32519047Y7306753D01*
X32519047Y7306753D02*
X32252381Y7306753D01*
X33014285Y7611515D02*
X33052381Y7649610D01*
X33052381Y7649610D02*
X33128571Y7687705D01*
X33128571Y7687705D02*
X33319047Y7687705D01*
X33319047Y7687705D02*
X33395238Y7649610D01*
X33395238Y7649610D02*
X33433333Y7611515D01*
X33433333Y7611515D02*
X33471428Y7535324D01*
X33471428Y7535324D02*
X33471428Y7459134D01*
X33471428Y7459134D02*
X33433333Y7344848D01*
X33433333Y7344848D02*
X32976190Y6887705D01*
X32976190Y6887705D02*
X33471428Y6887705D01*
X31833333Y18556753D02*
X31566667Y18556753D01*
X31566667Y18137705D02*
X31566667Y18937705D01*
X31566667Y18937705D02*
X31947619Y18937705D01*
X32519047Y18556753D02*
X32633333Y18518658D01*
X32633333Y18518658D02*
X32671428Y18480562D01*
X32671428Y18480562D02*
X32709524Y18404372D01*
X32709524Y18404372D02*
X32709524Y18290086D01*
X32709524Y18290086D02*
X32671428Y18213896D01*
X32671428Y18213896D02*
X32633333Y18175800D01*
X32633333Y18175800D02*
X32557143Y18137705D01*
X32557143Y18137705D02*
X32252381Y18137705D01*
X32252381Y18137705D02*
X32252381Y18937705D01*
X32252381Y18937705D02*
X32519047Y18937705D01*
X32519047Y18937705D02*
X32595238Y18899610D01*
X32595238Y18899610D02*
X32633333Y18861515D01*
X32633333Y18861515D02*
X32671428Y18785324D01*
X32671428Y18785324D02*
X32671428Y18709134D01*
X32671428Y18709134D02*
X32633333Y18632943D01*
X32633333Y18632943D02*
X32595238Y18594848D01*
X32595238Y18594848D02*
X32519047Y18556753D01*
X32519047Y18556753D02*
X32252381Y18556753D01*
X33471428Y18137705D02*
X33014285Y18137705D01*
X33242857Y18137705D02*
X33242857Y18937705D01*
X33242857Y18937705D02*
X33166666Y18823420D01*
X33166666Y18823420D02*
X33090476Y18747229D01*
X33090476Y18747229D02*
X33014285Y18709134D01*
X9686104Y3485715D02*
X9724200Y3447619D01*
X9724200Y3447619D02*
X9762295Y3333334D01*
X9762295Y3333334D02*
X9762295Y3257143D01*
X9762295Y3257143D02*
X9724200Y3142857D01*
X9724200Y3142857D02*
X9648009Y3066667D01*
X9648009Y3066667D02*
X9571819Y3028572D01*
X9571819Y3028572D02*
X9419438Y2990476D01*
X9419438Y2990476D02*
X9305152Y2990476D01*
X9305152Y2990476D02*
X9152771Y3028572D01*
X9152771Y3028572D02*
X9076580Y3066667D01*
X9076580Y3066667D02*
X9000390Y3142857D01*
X9000390Y3142857D02*
X8962295Y3257143D01*
X8962295Y3257143D02*
X8962295Y3333334D01*
X8962295Y3333334D02*
X9000390Y3447619D01*
X9000390Y3447619D02*
X9038485Y3485715D01*
X9762295Y4247619D02*
X9762295Y3790476D01*
X9762295Y4019048D02*
X8962295Y4019048D01*
X8962295Y4019048D02*
X9076580Y3942857D01*
X9076580Y3942857D02*
X9152771Y3866667D01*
X9152771Y3866667D02*
X9190866Y3790476D01*
X9228961Y4933334D02*
X9762295Y4933334D01*
X8924200Y4742858D02*
X9495628Y4552381D01*
X9495628Y4552381D02*
X9495628Y5047620D01*
X57453333Y2437705D02*
X57453333Y1866277D01*
X57453333Y1866277D02*
X57415238Y1751991D01*
X57415238Y1751991D02*
X57339047Y1675800D01*
X57339047Y1675800D02*
X57224762Y1637705D01*
X57224762Y1637705D02*
X57148571Y1637705D01*
X58177143Y2437705D02*
X58024762Y2437705D01*
X58024762Y2437705D02*
X57948571Y2399610D01*
X57948571Y2399610D02*
X57910476Y2361515D01*
X57910476Y2361515D02*
X57834286Y2247229D01*
X57834286Y2247229D02*
X57796190Y2094848D01*
X57796190Y2094848D02*
X57796190Y1790086D01*
X57796190Y1790086D02*
X57834286Y1713896D01*
X57834286Y1713896D02*
X57872381Y1675800D01*
X57872381Y1675800D02*
X57948571Y1637705D01*
X57948571Y1637705D02*
X58100952Y1637705D01*
X58100952Y1637705D02*
X58177143Y1675800D01*
X58177143Y1675800D02*
X58215238Y1713896D01*
X58215238Y1713896D02*
X58253333Y1790086D01*
X58253333Y1790086D02*
X58253333Y1980562D01*
X58253333Y1980562D02*
X58215238Y2056753D01*
X58215238Y2056753D02*
X58177143Y2094848D01*
X58177143Y2094848D02*
X58100952Y2132943D01*
X58100952Y2132943D02*
X57948571Y2132943D01*
X57948571Y2132943D02*
X57872381Y2094848D01*
X57872381Y2094848D02*
X57834286Y2056753D01*
X57834286Y2056753D02*
X57796190Y1980562D01*
X11866667Y19887705D02*
X11600000Y20268658D01*
X11409524Y19887705D02*
X11409524Y20687705D01*
X11409524Y20687705D02*
X11714286Y20687705D01*
X11714286Y20687705D02*
X11790476Y20649610D01*
X11790476Y20649610D02*
X11828571Y20611515D01*
X11828571Y20611515D02*
X11866667Y20535324D01*
X11866667Y20535324D02*
X11866667Y20421039D01*
X11866667Y20421039D02*
X11828571Y20344848D01*
X11828571Y20344848D02*
X11790476Y20306753D01*
X11790476Y20306753D02*
X11714286Y20268658D01*
X11714286Y20268658D02*
X11409524Y20268658D01*
X12171428Y20611515D02*
X12209524Y20649610D01*
X12209524Y20649610D02*
X12285714Y20687705D01*
X12285714Y20687705D02*
X12476190Y20687705D01*
X12476190Y20687705D02*
X12552381Y20649610D01*
X12552381Y20649610D02*
X12590476Y20611515D01*
X12590476Y20611515D02*
X12628571Y20535324D01*
X12628571Y20535324D02*
X12628571Y20459134D01*
X12628571Y20459134D02*
X12590476Y20344848D01*
X12590476Y20344848D02*
X12133333Y19887705D01*
X12133333Y19887705D02*
X12628571Y19887705D01*
X11866667Y12387705D02*
X11600000Y12768658D01*
X11409524Y12387705D02*
X11409524Y13187705D01*
X11409524Y13187705D02*
X11714286Y13187705D01*
X11714286Y13187705D02*
X11790476Y13149610D01*
X11790476Y13149610D02*
X11828571Y13111515D01*
X11828571Y13111515D02*
X11866667Y13035324D01*
X11866667Y13035324D02*
X11866667Y12921039D01*
X11866667Y12921039D02*
X11828571Y12844848D01*
X11828571Y12844848D02*
X11790476Y12806753D01*
X11790476Y12806753D02*
X11714286Y12768658D01*
X11714286Y12768658D02*
X11409524Y12768658D01*
X12552381Y12921039D02*
X12552381Y12387705D01*
X12361905Y13225800D02*
X12171428Y12654372D01*
X12171428Y12654372D02*
X12666667Y12654372D01*
X38116667Y5213896D02*
X38078571Y5175800D01*
X38078571Y5175800D02*
X37964286Y5137705D01*
X37964286Y5137705D02*
X37888095Y5137705D01*
X37888095Y5137705D02*
X37773809Y5175800D01*
X37773809Y5175800D02*
X37697619Y5251991D01*
X37697619Y5251991D02*
X37659524Y5328181D01*
X37659524Y5328181D02*
X37621428Y5480562D01*
X37621428Y5480562D02*
X37621428Y5594848D01*
X37621428Y5594848D02*
X37659524Y5747229D01*
X37659524Y5747229D02*
X37697619Y5823420D01*
X37697619Y5823420D02*
X37773809Y5899610D01*
X37773809Y5899610D02*
X37888095Y5937705D01*
X37888095Y5937705D02*
X37964286Y5937705D01*
X37964286Y5937705D02*
X38078571Y5899610D01*
X38078571Y5899610D02*
X38116667Y5861515D01*
X38497619Y5137705D02*
X38650000Y5137705D01*
X38650000Y5137705D02*
X38726190Y5175800D01*
X38726190Y5175800D02*
X38764286Y5213896D01*
X38764286Y5213896D02*
X38840476Y5328181D01*
X38840476Y5328181D02*
X38878571Y5480562D01*
X38878571Y5480562D02*
X38878571Y5785324D01*
X38878571Y5785324D02*
X38840476Y5861515D01*
X38840476Y5861515D02*
X38802381Y5899610D01*
X38802381Y5899610D02*
X38726190Y5937705D01*
X38726190Y5937705D02*
X38573809Y5937705D01*
X38573809Y5937705D02*
X38497619Y5899610D01*
X38497619Y5899610D02*
X38459524Y5861515D01*
X38459524Y5861515D02*
X38421428Y5785324D01*
X38421428Y5785324D02*
X38421428Y5594848D01*
X38421428Y5594848D02*
X38459524Y5518658D01*
X38459524Y5518658D02*
X38497619Y5480562D01*
X38497619Y5480562D02*
X38573809Y5442467D01*
X38573809Y5442467D02*
X38726190Y5442467D01*
X38726190Y5442467D02*
X38802381Y5480562D01*
X38802381Y5480562D02*
X38840476Y5518658D01*
X38840476Y5518658D02*
X38878571Y5594848D01*
X5233333Y4687705D02*
X5233333Y4116277D01*
X5233333Y4116277D02*
X5195238Y4001991D01*
X5195238Y4001991D02*
X5119047Y3925800D01*
X5119047Y3925800D02*
X5004762Y3887705D01*
X5004762Y3887705D02*
X4928571Y3887705D01*
X5576190Y4611515D02*
X5614286Y4649610D01*
X5614286Y4649610D02*
X5690476Y4687705D01*
X5690476Y4687705D02*
X5880952Y4687705D01*
X5880952Y4687705D02*
X5957143Y4649610D01*
X5957143Y4649610D02*
X5995238Y4611515D01*
X5995238Y4611515D02*
X6033333Y4535324D01*
X6033333Y4535324D02*
X6033333Y4459134D01*
X6033333Y4459134D02*
X5995238Y4344848D01*
X5995238Y4344848D02*
X5538095Y3887705D01*
X5538095Y3887705D02*
X6033333Y3887705D01*
X38366667Y14213896D02*
X38328571Y14175800D01*
X38328571Y14175800D02*
X38214286Y14137705D01*
X38214286Y14137705D02*
X38138095Y14137705D01*
X38138095Y14137705D02*
X38023809Y14175800D01*
X38023809Y14175800D02*
X37947619Y14251991D01*
X37947619Y14251991D02*
X37909524Y14328181D01*
X37909524Y14328181D02*
X37871428Y14480562D01*
X37871428Y14480562D02*
X37871428Y14594848D01*
X37871428Y14594848D02*
X37909524Y14747229D01*
X37909524Y14747229D02*
X37947619Y14823420D01*
X37947619Y14823420D02*
X38023809Y14899610D01*
X38023809Y14899610D02*
X38138095Y14937705D01*
X38138095Y14937705D02*
X38214286Y14937705D01*
X38214286Y14937705D02*
X38328571Y14899610D01*
X38328571Y14899610D02*
X38366667Y14861515D01*
X38671428Y14861515D02*
X38709524Y14899610D01*
X38709524Y14899610D02*
X38785714Y14937705D01*
X38785714Y14937705D02*
X38976190Y14937705D01*
X38976190Y14937705D02*
X39052381Y14899610D01*
X39052381Y14899610D02*
X39090476Y14861515D01*
X39090476Y14861515D02*
X39128571Y14785324D01*
X39128571Y14785324D02*
X39128571Y14709134D01*
X39128571Y14709134D02*
X39090476Y14594848D01*
X39090476Y14594848D02*
X38633333Y14137705D01*
X38633333Y14137705D02*
X39128571Y14137705D01*
X23786104Y14485715D02*
X23824200Y14447619D01*
X23824200Y14447619D02*
X23862295Y14333334D01*
X23862295Y14333334D02*
X23862295Y14257143D01*
X23862295Y14257143D02*
X23824200Y14142857D01*
X23824200Y14142857D02*
X23748009Y14066667D01*
X23748009Y14066667D02*
X23671819Y14028572D01*
X23671819Y14028572D02*
X23519438Y13990476D01*
X23519438Y13990476D02*
X23405152Y13990476D01*
X23405152Y13990476D02*
X23252771Y14028572D01*
X23252771Y14028572D02*
X23176580Y14066667D01*
X23176580Y14066667D02*
X23100390Y14142857D01*
X23100390Y14142857D02*
X23062295Y14257143D01*
X23062295Y14257143D02*
X23062295Y14333334D01*
X23062295Y14333334D02*
X23100390Y14447619D01*
X23100390Y14447619D02*
X23138485Y14485715D01*
X23862295Y15247619D02*
X23862295Y14790476D01*
X23862295Y15019048D02*
X23062295Y15019048D01*
X23062295Y15019048D02*
X23176580Y14942857D01*
X23176580Y14942857D02*
X23252771Y14866667D01*
X23252771Y14866667D02*
X23290866Y14790476D01*
X23062295Y15933334D02*
X23062295Y15780953D01*
X23062295Y15780953D02*
X23100390Y15704762D01*
X23100390Y15704762D02*
X23138485Y15666667D01*
X23138485Y15666667D02*
X23252771Y15590477D01*
X23252771Y15590477D02*
X23405152Y15552381D01*
X23405152Y15552381D02*
X23709914Y15552381D01*
X23709914Y15552381D02*
X23786104Y15590477D01*
X23786104Y15590477D02*
X23824200Y15628572D01*
X23824200Y15628572D02*
X23862295Y15704762D01*
X23862295Y15704762D02*
X23862295Y15857143D01*
X23862295Y15857143D02*
X23824200Y15933334D01*
X23824200Y15933334D02*
X23786104Y15971429D01*
X23786104Y15971429D02*
X23709914Y16009524D01*
X23709914Y16009524D02*
X23519438Y16009524D01*
X23519438Y16009524D02*
X23443247Y15971429D01*
X23443247Y15971429D02*
X23405152Y15933334D01*
X23405152Y15933334D02*
X23367057Y15857143D01*
X23367057Y15857143D02*
X23367057Y15704762D01*
X23367057Y15704762D02*
X23405152Y15628572D01*
X23405152Y15628572D02*
X23443247Y15590477D01*
X23443247Y15590477D02*
X23519438Y15552381D01*
X42719048Y1637705D02*
X42719048Y2437705D01*
X43557143Y1713896D02*
X43519047Y1675800D01*
X43519047Y1675800D02*
X43404762Y1637705D01*
X43404762Y1637705D02*
X43328571Y1637705D01*
X43328571Y1637705D02*
X43214285Y1675800D01*
X43214285Y1675800D02*
X43138095Y1751991D01*
X43138095Y1751991D02*
X43100000Y1828181D01*
X43100000Y1828181D02*
X43061904Y1980562D01*
X43061904Y1980562D02*
X43061904Y2094848D01*
X43061904Y2094848D02*
X43100000Y2247229D01*
X43100000Y2247229D02*
X43138095Y2323420D01*
X43138095Y2323420D02*
X43214285Y2399610D01*
X43214285Y2399610D02*
X43328571Y2437705D01*
X43328571Y2437705D02*
X43404762Y2437705D01*
X43404762Y2437705D02*
X43519047Y2399610D01*
X43519047Y2399610D02*
X43557143Y2361515D01*
X44242857Y2437705D02*
X44090476Y2437705D01*
X44090476Y2437705D02*
X44014285Y2399610D01*
X44014285Y2399610D02*
X43976190Y2361515D01*
X43976190Y2361515D02*
X43900000Y2247229D01*
X43900000Y2247229D02*
X43861904Y2094848D01*
X43861904Y2094848D02*
X43861904Y1790086D01*
X43861904Y1790086D02*
X43900000Y1713896D01*
X43900000Y1713896D02*
X43938095Y1675800D01*
X43938095Y1675800D02*
X44014285Y1637705D01*
X44014285Y1637705D02*
X44166666Y1637705D01*
X44166666Y1637705D02*
X44242857Y1675800D01*
X44242857Y1675800D02*
X44280952Y1713896D01*
X44280952Y1713896D02*
X44319047Y1790086D01*
X44319047Y1790086D02*
X44319047Y1980562D01*
X44319047Y1980562D02*
X44280952Y2056753D01*
X44280952Y2056753D02*
X44242857Y2094848D01*
X44242857Y2094848D02*
X44166666Y2132943D01*
X44166666Y2132943D02*
X44014285Y2132943D01*
X44014285Y2132943D02*
X43938095Y2094848D01*
X43938095Y2094848D02*
X43900000Y2056753D01*
X43900000Y2056753D02*
X43861904Y1980562D01*
X42719048Y8637705D02*
X42719048Y9437705D01*
X43557143Y8713896D02*
X43519047Y8675800D01*
X43519047Y8675800D02*
X43404762Y8637705D01*
X43404762Y8637705D02*
X43328571Y8637705D01*
X43328571Y8637705D02*
X43214285Y8675800D01*
X43214285Y8675800D02*
X43138095Y8751991D01*
X43138095Y8751991D02*
X43100000Y8828181D01*
X43100000Y8828181D02*
X43061904Y8980562D01*
X43061904Y8980562D02*
X43061904Y9094848D01*
X43061904Y9094848D02*
X43100000Y9247229D01*
X43100000Y9247229D02*
X43138095Y9323420D01*
X43138095Y9323420D02*
X43214285Y9399610D01*
X43214285Y9399610D02*
X43328571Y9437705D01*
X43328571Y9437705D02*
X43404762Y9437705D01*
X43404762Y9437705D02*
X43519047Y9399610D01*
X43519047Y9399610D02*
X43557143Y9361515D01*
X43823809Y9437705D02*
X44319047Y9437705D01*
X44319047Y9437705D02*
X44052381Y9132943D01*
X44052381Y9132943D02*
X44166666Y9132943D01*
X44166666Y9132943D02*
X44242857Y9094848D01*
X44242857Y9094848D02*
X44280952Y9056753D01*
X44280952Y9056753D02*
X44319047Y8980562D01*
X44319047Y8980562D02*
X44319047Y8790086D01*
X44319047Y8790086D02*
X44280952Y8713896D01*
X44280952Y8713896D02*
X44242857Y8675800D01*
X44242857Y8675800D02*
X44166666Y8637705D01*
X44166666Y8637705D02*
X43938095Y8637705D01*
X43938095Y8637705D02*
X43861904Y8675800D01*
X43861904Y8675800D02*
X43823809Y8713896D01*
X24366667Y8963896D02*
X24328571Y8925800D01*
X24328571Y8925800D02*
X24214286Y8887705D01*
X24214286Y8887705D02*
X24138095Y8887705D01*
X24138095Y8887705D02*
X24023809Y8925800D01*
X24023809Y8925800D02*
X23947619Y9001991D01*
X23947619Y9001991D02*
X23909524Y9078181D01*
X23909524Y9078181D02*
X23871428Y9230562D01*
X23871428Y9230562D02*
X23871428Y9344848D01*
X23871428Y9344848D02*
X23909524Y9497229D01*
X23909524Y9497229D02*
X23947619Y9573420D01*
X23947619Y9573420D02*
X24023809Y9649610D01*
X24023809Y9649610D02*
X24138095Y9687705D01*
X24138095Y9687705D02*
X24214286Y9687705D01*
X24214286Y9687705D02*
X24328571Y9649610D01*
X24328571Y9649610D02*
X24366667Y9611515D01*
X24823809Y9344848D02*
X24747619Y9382943D01*
X24747619Y9382943D02*
X24709524Y9421039D01*
X24709524Y9421039D02*
X24671428Y9497229D01*
X24671428Y9497229D02*
X24671428Y9535324D01*
X24671428Y9535324D02*
X24709524Y9611515D01*
X24709524Y9611515D02*
X24747619Y9649610D01*
X24747619Y9649610D02*
X24823809Y9687705D01*
X24823809Y9687705D02*
X24976190Y9687705D01*
X24976190Y9687705D02*
X25052381Y9649610D01*
X25052381Y9649610D02*
X25090476Y9611515D01*
X25090476Y9611515D02*
X25128571Y9535324D01*
X25128571Y9535324D02*
X25128571Y9497229D01*
X25128571Y9497229D02*
X25090476Y9421039D01*
X25090476Y9421039D02*
X25052381Y9382943D01*
X25052381Y9382943D02*
X24976190Y9344848D01*
X24976190Y9344848D02*
X24823809Y9344848D01*
X24823809Y9344848D02*
X24747619Y9306753D01*
X24747619Y9306753D02*
X24709524Y9268658D01*
X24709524Y9268658D02*
X24671428Y9192467D01*
X24671428Y9192467D02*
X24671428Y9040086D01*
X24671428Y9040086D02*
X24709524Y8963896D01*
X24709524Y8963896D02*
X24747619Y8925800D01*
X24747619Y8925800D02*
X24823809Y8887705D01*
X24823809Y8887705D02*
X24976190Y8887705D01*
X24976190Y8887705D02*
X25052381Y8925800D01*
X25052381Y8925800D02*
X25090476Y8963896D01*
X25090476Y8963896D02*
X25128571Y9040086D01*
X25128571Y9040086D02*
X25128571Y9192467D01*
X25128571Y9192467D02*
X25090476Y9268658D01*
X25090476Y9268658D02*
X25052381Y9306753D01*
X25052381Y9306753D02*
X24976190Y9344848D01*
X23140476Y1887705D02*
X23140476Y2687705D01*
X23140476Y2306753D02*
X23597619Y2306753D01*
X23597619Y1887705D02*
X23597619Y2687705D01*
X24397618Y1887705D02*
X23940475Y1887705D01*
X24169047Y1887705D02*
X24169047Y2687705D01*
X24169047Y2687705D02*
X24092856Y2573420D01*
X24092856Y2573420D02*
X24016666Y2497229D01*
X24016666Y2497229D02*
X23940475Y2459134D01*
X38366667Y15463896D02*
X38328571Y15425800D01*
X38328571Y15425800D02*
X38214286Y15387705D01*
X38214286Y15387705D02*
X38138095Y15387705D01*
X38138095Y15387705D02*
X38023809Y15425800D01*
X38023809Y15425800D02*
X37947619Y15501991D01*
X37947619Y15501991D02*
X37909524Y15578181D01*
X37909524Y15578181D02*
X37871428Y15730562D01*
X37871428Y15730562D02*
X37871428Y15844848D01*
X37871428Y15844848D02*
X37909524Y15997229D01*
X37909524Y15997229D02*
X37947619Y16073420D01*
X37947619Y16073420D02*
X38023809Y16149610D01*
X38023809Y16149610D02*
X38138095Y16187705D01*
X38138095Y16187705D02*
X38214286Y16187705D01*
X38214286Y16187705D02*
X38328571Y16149610D01*
X38328571Y16149610D02*
X38366667Y16111515D01*
X38633333Y16187705D02*
X39128571Y16187705D01*
X39128571Y16187705D02*
X38861905Y15882943D01*
X38861905Y15882943D02*
X38976190Y15882943D01*
X38976190Y15882943D02*
X39052381Y15844848D01*
X39052381Y15844848D02*
X39090476Y15806753D01*
X39090476Y15806753D02*
X39128571Y15730562D01*
X39128571Y15730562D02*
X39128571Y15540086D01*
X39128571Y15540086D02*
X39090476Y15463896D01*
X39090476Y15463896D02*
X39052381Y15425800D01*
X39052381Y15425800D02*
X38976190Y15387705D01*
X38976190Y15387705D02*
X38747619Y15387705D01*
X38747619Y15387705D02*
X38671428Y15425800D01*
X38671428Y15425800D02*
X38633333Y15463896D01*
X11866667Y9387705D02*
X11600000Y9768658D01*
X11409524Y9387705D02*
X11409524Y10187705D01*
X11409524Y10187705D02*
X11714286Y10187705D01*
X11714286Y10187705D02*
X11790476Y10149610D01*
X11790476Y10149610D02*
X11828571Y10111515D01*
X11828571Y10111515D02*
X11866667Y10035324D01*
X11866667Y10035324D02*
X11866667Y9921039D01*
X11866667Y9921039D02*
X11828571Y9844848D01*
X11828571Y9844848D02*
X11790476Y9806753D01*
X11790476Y9806753D02*
X11714286Y9768658D01*
X11714286Y9768658D02*
X11409524Y9768658D01*
X12628571Y9387705D02*
X12171428Y9387705D01*
X12400000Y9387705D02*
X12400000Y10187705D01*
X12400000Y10187705D02*
X12323809Y10073420D01*
X12323809Y10073420D02*
X12247619Y9997229D01*
X12247619Y9997229D02*
X12171428Y9959134D01*
X11159524Y6887705D02*
X11159524Y7687705D01*
X11159524Y7687705D02*
X11350000Y7687705D01*
X11350000Y7687705D02*
X11464286Y7649610D01*
X11464286Y7649610D02*
X11540476Y7573420D01*
X11540476Y7573420D02*
X11578571Y7497229D01*
X11578571Y7497229D02*
X11616667Y7344848D01*
X11616667Y7344848D02*
X11616667Y7230562D01*
X11616667Y7230562D02*
X11578571Y7078181D01*
X11578571Y7078181D02*
X11540476Y7001991D01*
X11540476Y7001991D02*
X11464286Y6925800D01*
X11464286Y6925800D02*
X11350000Y6887705D01*
X11350000Y6887705D02*
X11159524Y6887705D01*
X11883333Y7687705D02*
X12378571Y7687705D01*
X12378571Y7687705D02*
X12111905Y7382943D01*
X12111905Y7382943D02*
X12226190Y7382943D01*
X12226190Y7382943D02*
X12302381Y7344848D01*
X12302381Y7344848D02*
X12340476Y7306753D01*
X12340476Y7306753D02*
X12378571Y7230562D01*
X12378571Y7230562D02*
X12378571Y7040086D01*
X12378571Y7040086D02*
X12340476Y6963896D01*
X12340476Y6963896D02*
X12302381Y6925800D01*
X12302381Y6925800D02*
X12226190Y6887705D01*
X12226190Y6887705D02*
X11997619Y6887705D01*
X11997619Y6887705D02*
X11921428Y6925800D01*
X11921428Y6925800D02*
X11883333Y6963896D01*
X5733333Y11937705D02*
X5733333Y11366277D01*
X5733333Y11366277D02*
X5695238Y11251991D01*
X5695238Y11251991D02*
X5619047Y11175800D01*
X5619047Y11175800D02*
X5504762Y11137705D01*
X5504762Y11137705D02*
X5428571Y11137705D01*
X6038095Y11937705D02*
X6533333Y11937705D01*
X6533333Y11937705D02*
X6266667Y11632943D01*
X6266667Y11632943D02*
X6380952Y11632943D01*
X6380952Y11632943D02*
X6457143Y11594848D01*
X6457143Y11594848D02*
X6495238Y11556753D01*
X6495238Y11556753D02*
X6533333Y11480562D01*
X6533333Y11480562D02*
X6533333Y11290086D01*
X6533333Y11290086D02*
X6495238Y11213896D01*
X6495238Y11213896D02*
X6457143Y11175800D01*
X6457143Y11175800D02*
X6380952Y11137705D01*
X6380952Y11137705D02*
X6152381Y11137705D01*
X6152381Y11137705D02*
X6076190Y11175800D01*
X6076190Y11175800D02*
X6038095Y11213896D01*
X28866667Y18213896D02*
X28828571Y18175800D01*
X28828571Y18175800D02*
X28714286Y18137705D01*
X28714286Y18137705D02*
X28638095Y18137705D01*
X28638095Y18137705D02*
X28523809Y18175800D01*
X28523809Y18175800D02*
X28447619Y18251991D01*
X28447619Y18251991D02*
X28409524Y18328181D01*
X28409524Y18328181D02*
X28371428Y18480562D01*
X28371428Y18480562D02*
X28371428Y18594848D01*
X28371428Y18594848D02*
X28409524Y18747229D01*
X28409524Y18747229D02*
X28447619Y18823420D01*
X28447619Y18823420D02*
X28523809Y18899610D01*
X28523809Y18899610D02*
X28638095Y18937705D01*
X28638095Y18937705D02*
X28714286Y18937705D01*
X28714286Y18937705D02*
X28828571Y18899610D01*
X28828571Y18899610D02*
X28866667Y18861515D01*
X29628571Y18137705D02*
X29171428Y18137705D01*
X29400000Y18137705D02*
X29400000Y18937705D01*
X29400000Y18937705D02*
X29323809Y18823420D01*
X29323809Y18823420D02*
X29247619Y18747229D01*
X29247619Y18747229D02*
X29171428Y18709134D01*
X15969048Y11887705D02*
X15969048Y12687705D01*
X16807143Y11963896D02*
X16769047Y11925800D01*
X16769047Y11925800D02*
X16654762Y11887705D01*
X16654762Y11887705D02*
X16578571Y11887705D01*
X16578571Y11887705D02*
X16464285Y11925800D01*
X16464285Y11925800D02*
X16388095Y12001991D01*
X16388095Y12001991D02*
X16350000Y12078181D01*
X16350000Y12078181D02*
X16311904Y12230562D01*
X16311904Y12230562D02*
X16311904Y12344848D01*
X16311904Y12344848D02*
X16350000Y12497229D01*
X16350000Y12497229D02*
X16388095Y12573420D01*
X16388095Y12573420D02*
X16464285Y12649610D01*
X16464285Y12649610D02*
X16578571Y12687705D01*
X16578571Y12687705D02*
X16654762Y12687705D01*
X16654762Y12687705D02*
X16769047Y12649610D01*
X16769047Y12649610D02*
X16807143Y12611515D01*
X17492857Y12421039D02*
X17492857Y11887705D01*
X17302381Y12725800D02*
X17111904Y12154372D01*
X17111904Y12154372D02*
X17607143Y12154372D01*
X29719048Y1137705D02*
X29719048Y1937705D01*
X30557143Y1213896D02*
X30519047Y1175800D01*
X30519047Y1175800D02*
X30404762Y1137705D01*
X30404762Y1137705D02*
X30328571Y1137705D01*
X30328571Y1137705D02*
X30214285Y1175800D01*
X30214285Y1175800D02*
X30138095Y1251991D01*
X30138095Y1251991D02*
X30100000Y1328181D01*
X30100000Y1328181D02*
X30061904Y1480562D01*
X30061904Y1480562D02*
X30061904Y1594848D01*
X30061904Y1594848D02*
X30100000Y1747229D01*
X30100000Y1747229D02*
X30138095Y1823420D01*
X30138095Y1823420D02*
X30214285Y1899610D01*
X30214285Y1899610D02*
X30328571Y1937705D01*
X30328571Y1937705D02*
X30404762Y1937705D01*
X30404762Y1937705D02*
X30519047Y1899610D01*
X30519047Y1899610D02*
X30557143Y1861515D01*
X31280952Y1937705D02*
X30900000Y1937705D01*
X30900000Y1937705D02*
X30861904Y1556753D01*
X30861904Y1556753D02*
X30900000Y1594848D01*
X30900000Y1594848D02*
X30976190Y1632943D01*
X30976190Y1632943D02*
X31166666Y1632943D01*
X31166666Y1632943D02*
X31242857Y1594848D01*
X31242857Y1594848D02*
X31280952Y1556753D01*
X31280952Y1556753D02*
X31319047Y1480562D01*
X31319047Y1480562D02*
X31319047Y1290086D01*
X31319047Y1290086D02*
X31280952Y1213896D01*
X31280952Y1213896D02*
X31242857Y1175800D01*
X31242857Y1175800D02*
X31166666Y1137705D01*
X31166666Y1137705D02*
X30976190Y1137705D01*
X30976190Y1137705D02*
X30900000Y1175800D01*
X30900000Y1175800D02*
X30861904Y1213896D01*
D11*
%TO.C,J4*%
X59330000Y21330000D02*
X59330000Y20000000D01*
X58000000Y21330000D02*
X59330000Y21330000D01*
X56730000Y21330000D02*
X51590000Y21330000D01*
X56730000Y21330000D02*
X56730000Y18670000D01*
X51590000Y21330000D02*
X51590000Y18670000D01*
X56730000Y18670000D02*
X51590000Y18670000D01*
D12*
%TO.C,IC1*%
X15000000Y21150000D02*
X16200000Y21150000D01*
X16550000Y21000000D02*
X17150000Y21000000D01*
X16550000Y18100000D02*
X16550000Y21000000D01*
X17150000Y21000000D02*
X17150000Y18100000D01*
X17150000Y18100000D02*
X16550000Y18100000D01*
D11*
%TO.C,C5*%
X33788748Y14160000D02*
X35211252Y14160000D01*
X33788748Y12340000D02*
X35211252Y12340000D01*
%TO.C,R3*%
X8022936Y17410000D02*
X9477064Y17410000D01*
X8022936Y15590000D02*
X9477064Y15590000D01*
%TO.C,C6*%
X46788748Y18910000D02*
X48211252Y18910000D01*
X46788748Y17090000D02*
X48211252Y17090000D01*
%TO.C,D2*%
X52937500Y5540000D02*
X54612500Y5540000D01*
X52937500Y5540000D02*
X52287500Y5540000D01*
X52937500Y8660000D02*
X53587500Y8660000D01*
X52937500Y8660000D02*
X52287500Y8660000D01*
%TO.C,C7*%
X46788748Y21160000D02*
X48211252Y21160000D01*
X46788748Y19340000D02*
X48211252Y19340000D01*
D13*
%TO.C,IC2*%
X25950000Y16900000D02*
G75*
G03*
X25550000Y16900000I-200000J0D01*
G01*
X25550000Y16900000D02*
G75*
G03*
X25950000Y16900000I200000J0D01*
G01*
D11*
%TO.C,D1*%
X52937500Y8940000D02*
X54612500Y8940000D01*
X52937500Y8940000D02*
X52287500Y8940000D01*
X52937500Y12060000D02*
X53587500Y12060000D01*
X52937500Y12060000D02*
X52287500Y12060000D01*
%TO.C,C15*%
X20740000Y18638748D02*
X20740000Y20061252D01*
X22560000Y18638748D02*
X22560000Y20061252D01*
D12*
%TO.C,J1*%
X72905000Y8585000D02*
X72905000Y13915000D01*
X72190000Y8535000D02*
X72190000Y13915000D01*
X72190000Y8585000D02*
X72905000Y8585000D01*
X72190000Y13915000D02*
X72905000Y13915000D01*
X71979000Y8156000D02*
X72190000Y8535000D01*
X71979000Y8156000D02*
X72190000Y13915000D01*
X71979000Y14344000D02*
X72190000Y13915000D01*
X71841000Y8156000D02*
X72190000Y13915000D01*
X71841000Y8156000D02*
X71979000Y8156000D01*
X71841000Y14344000D02*
X71979000Y14344000D01*
X71630010Y8535000D02*
X72190000Y13915000D01*
X71630010Y8535000D02*
X71841000Y8156000D01*
X71630010Y13965000D02*
X71841000Y14344000D01*
X71419010Y8156000D02*
X71979000Y14344000D01*
X71419010Y8156000D02*
X71630010Y8535000D01*
X71419010Y14344000D02*
X71630010Y13965000D01*
X71281000Y8156000D02*
X71841000Y14344000D01*
X71281000Y8156000D02*
X71419010Y8156000D01*
X71281000Y14344000D02*
X71419010Y14344000D01*
X71070000Y8535000D02*
X71630010Y13965000D01*
X71070000Y8535000D02*
X71281000Y8156000D01*
X71070000Y13965000D02*
X71281000Y14344000D01*
X70859000Y8156000D02*
X71419010Y14344000D01*
X70859000Y8156000D02*
X71070000Y8535000D01*
X70859000Y14344000D02*
X71070000Y13965000D01*
X70721000Y8156000D02*
X71281000Y14344000D01*
X70721000Y8156000D02*
X70859000Y8156000D01*
X70721000Y14344000D02*
X70859000Y14344000D01*
X70510000Y8535000D02*
X71070000Y13965000D01*
X70510000Y8535000D02*
X70721000Y8156000D01*
X70510000Y13965000D02*
X70721000Y14344000D01*
X70299000Y8156000D02*
X70859000Y14344000D01*
X70299000Y8156000D02*
X70510000Y8535000D01*
X70299000Y14344000D02*
X70510000Y13965000D01*
X70161000Y8156000D02*
X70721000Y14344000D01*
X70161000Y8156000D02*
X70299000Y8156000D01*
X70161000Y14344000D02*
X70299000Y14344000D01*
X69950000Y8535000D02*
X70510000Y13965000D01*
X69950000Y8535000D02*
X70161000Y8156000D01*
X69950000Y13965000D02*
X70161000Y14344000D01*
X69739000Y8156000D02*
X70299000Y14344000D01*
X69739000Y8156000D02*
X69950000Y8535000D01*
X69739000Y14344000D02*
X69950000Y13965000D01*
X69601000Y8156000D02*
X70161000Y14344000D01*
X69601000Y8156000D02*
X69739000Y8156000D01*
X69601000Y14344000D02*
X69739000Y14344000D01*
X69390000Y8535000D02*
X69950000Y13965000D01*
X69390000Y8535000D02*
X69601000Y8156000D01*
X69390000Y13965000D02*
X69601000Y14344000D01*
X69179000Y8156000D02*
X69739000Y14344000D01*
X69179000Y8156000D02*
X69390000Y8535000D01*
X69179000Y14344000D02*
X69390000Y13965000D01*
X69041000Y8156000D02*
X69601000Y14344000D01*
X69041000Y8156000D02*
X69179000Y8156000D01*
X69041000Y14344000D02*
X69179000Y14344000D01*
X68830000Y8535000D02*
X69390000Y13965000D01*
X68830000Y8535000D02*
X69041000Y8156000D01*
X68830000Y13965000D02*
X69041000Y14344000D01*
X68619000Y8156000D02*
X69179000Y14344000D01*
X68619000Y8156000D02*
X68830000Y8535000D01*
X68619000Y14344000D02*
X68830000Y13965000D01*
X68481000Y8156000D02*
X69041000Y14344000D01*
X68481000Y8156000D02*
X68619000Y8156000D01*
X68481000Y14344000D02*
X68619000Y14344000D01*
X68270000Y8537310D02*
X68830000Y13965000D01*
X68270000Y8537310D02*
X68619000Y14344000D01*
X68270000Y8537310D02*
X68481000Y8156000D01*
X68270000Y8537310D02*
X68270000Y13965000D01*
X68270000Y8585000D02*
X68481000Y14344000D01*
X68270000Y13965000D02*
X68481000Y14344000D01*
X67895000Y8802610D02*
X68270000Y8585000D01*
X67895000Y8802610D02*
X67895000Y13703280D01*
X67895000Y13703270D02*
X68270000Y13915000D01*
X65025000Y6490000D02*
X65025000Y16010000D01*
X65025000Y8802610D02*
X67895000Y8802610D01*
X65025000Y13703270D02*
X67895000Y13703270D01*
X63375000Y6490000D02*
X65025000Y6490000D01*
X63375000Y6490000D02*
X63375000Y10112700D01*
X63375000Y12387300D02*
X63375000Y16010000D01*
X63375000Y16010000D02*
X65025000Y16010000D01*
D11*
%TO.C,C4*%
X33788748Y17660000D02*
X35211252Y17660000D01*
X33788748Y15840000D02*
X35211252Y15840000D01*
%TO.C,FB2*%
X33285242Y8240000D02*
X31614758Y8240000D01*
X33285242Y10060000D02*
X31614758Y10060000D01*
%TO.C,FB1*%
X33235242Y19240000D02*
X31564758Y19240000D01*
X33235242Y21060000D02*
X31564758Y21060000D01*
%TO.C,C14*%
X10340000Y2788748D02*
X10340000Y4211252D01*
X12160000Y2788748D02*
X12160000Y4211252D01*
%TO.C,J6*%
X51590000Y670000D02*
X51590000Y2000000D01*
X52920000Y670000D02*
X51590000Y670000D01*
X54190000Y670000D02*
X56790000Y670000D01*
X54190000Y670000D02*
X54190000Y3330000D01*
X56790000Y670000D02*
X56790000Y3330000D01*
X54190000Y3330000D02*
X56790000Y3330000D01*
%TO.C,R2*%
X8022936Y21160000D02*
X9477064Y21160000D01*
X8022936Y19340000D02*
X9477064Y19340000D01*
%TO.C,R4*%
X8022936Y14660000D02*
X9477064Y14660000D01*
X8022936Y12840000D02*
X9477064Y12840000D01*
%TO.C,C9*%
X34038748Y6410000D02*
X35461252Y6410000D01*
X34038748Y4590000D02*
X35461252Y4590000D01*
%TO.C,J2*%
X7810000Y530000D02*
X6540000Y530000D01*
X7810000Y1800000D02*
X7810000Y530000D01*
X5430000Y1420000D02*
X5042929Y1420000D01*
X5430000Y2180000D02*
X5042929Y2180000D01*
X2957071Y1420000D02*
X2560000Y1420000D01*
X2957071Y2180000D02*
X2560000Y2180000D01*
X2560000Y470000D02*
X2560000Y3130000D01*
X2560000Y3130000D02*
X-100000Y3130000D01*
X-100000Y470000D02*
X2560000Y470000D01*
X-100000Y1420000D02*
X-6100000Y1420000D01*
X-100000Y1480000D02*
X-6100000Y1480000D01*
X-100000Y1600000D02*
X-6100000Y1600000D01*
X-100000Y1720000D02*
X-6100000Y1720000D01*
X-100000Y1840000D02*
X-6100000Y1840000D01*
X-100000Y1960000D02*
X-6100000Y1960000D01*
X-100000Y2080000D02*
X-6100000Y2080000D01*
X-100000Y3130000D02*
X-100000Y470000D01*
X-6100000Y1420000D02*
X-6100000Y2180000D01*
X-6100000Y2180000D02*
X-100000Y2180000D01*
%TO.C,C2*%
X39288748Y18660000D02*
X40711252Y18660000D01*
X39288748Y16840000D02*
X40711252Y16840000D01*
%TO.C,C16*%
X22560000Y14911252D02*
X22560000Y13488748D01*
X20740000Y14911252D02*
X20740000Y13488748D01*
D12*
%TO.C,IC6*%
X41025000Y8080000D02*
X42550000Y8080000D01*
X42900000Y7950000D02*
X46100000Y7950000D01*
X42900000Y3050000D02*
X42900000Y7950000D01*
X46100000Y7950000D02*
X46100000Y3050000D01*
X46100000Y3050000D02*
X42900000Y3050000D01*
%TO.C,IC3*%
X41025000Y14830000D02*
X42550000Y14830000D01*
X42900000Y14700000D02*
X46100000Y14700000D01*
X42900000Y9800000D02*
X42900000Y14700000D01*
X46100000Y14700000D02*
X46100000Y9800000D01*
X46100000Y9800000D02*
X42900000Y9800000D01*
D11*
%TO.C,C8*%
X26988748Y10060000D02*
X28411252Y10060000D01*
X26988748Y8240000D02*
X28411252Y8240000D01*
D12*
%TO.C,H1*%
X13740000Y1387000D02*
X13740000Y3162000D01*
X12850000Y3512000D02*
X12850000Y8112000D01*
X23650000Y3512000D02*
X12850000Y3512000D01*
X12850000Y8112000D02*
X23650000Y8112000D01*
X23650000Y8112000D02*
X23650000Y3512000D01*
D11*
%TO.C,C3*%
X39288748Y21060000D02*
X40711252Y21060000D01*
X39288748Y19240000D02*
X40711252Y19240000D01*
%TO.C,R1*%
X8022936Y10410000D02*
X9477064Y10410000D01*
X8022936Y8590000D02*
X9477064Y8590000D01*
%TO.C,D3*%
X7065000Y8210000D02*
X7065000Y6290000D01*
X7065000Y6290000D02*
X9750000Y6290000D01*
X9750000Y8210000D02*
X7065000Y8210000D01*
%TO.C,J3*%
X5270000Y5610000D02*
X4000000Y5610000D01*
X5270000Y6880000D02*
X5270000Y5610000D01*
X2957071Y9040000D02*
X2560000Y9040000D01*
X2957071Y9800000D02*
X2560000Y9800000D01*
X2957071Y11580000D02*
X2560000Y11580000D01*
X2957071Y12340000D02*
X2560000Y12340000D01*
X2957071Y14120000D02*
X2560000Y14120000D01*
X2957071Y14880000D02*
X2560000Y14880000D01*
X2957071Y16660000D02*
X2560000Y16660000D01*
X2957071Y17420000D02*
X2560000Y17420000D01*
X2957071Y19200000D02*
X2560000Y19200000D01*
X2957071Y19960000D02*
X2560000Y19960000D01*
X2890000Y6500000D02*
X2560000Y6500000D01*
X2890000Y7260000D02*
X2560000Y7260000D01*
X2560000Y5550000D02*
X2560000Y20910000D01*
X2560000Y8150000D02*
X-100000Y8150000D01*
X2560000Y10690000D02*
X-100000Y10690000D01*
X2560000Y13230000D02*
X-100000Y13230000D01*
X2560000Y15770000D02*
X-100000Y15770000D01*
X2560000Y18310000D02*
X-100000Y18310000D01*
X2560000Y20910000D02*
X-100000Y20910000D01*
X-100000Y5550000D02*
X2560000Y5550000D01*
X-100000Y6500000D02*
X-6100000Y6500000D01*
X-100000Y6560000D02*
X-6100000Y6560000D01*
X-100000Y6680000D02*
X-6100000Y6680000D01*
X-100000Y6800000D02*
X-6100000Y6800000D01*
X-100000Y6920000D02*
X-6100000Y6920000D01*
X-100000Y7040000D02*
X-6100000Y7040000D01*
X-100000Y7160000D02*
X-6100000Y7160000D01*
X-100000Y9040000D02*
X-6100000Y9040000D01*
X-100000Y11580000D02*
X-6100000Y11580000D01*
X-100000Y14120000D02*
X-6100000Y14120000D01*
X-100000Y16660000D02*
X-6100000Y16660000D01*
X-100000Y19200000D02*
X-6100000Y19200000D01*
X-100000Y20910000D02*
X-100000Y5550000D01*
X-6100000Y6500000D02*
X-6100000Y7260000D01*
X-6100000Y7260000D02*
X-100000Y7260000D01*
X-6100000Y9040000D02*
X-6100000Y9800000D01*
X-6100000Y9800000D02*
X-100000Y9800000D01*
X-6100000Y11580000D02*
X-6100000Y12340000D01*
X-6100000Y12340000D02*
X-100000Y12340000D01*
X-6100000Y14120000D02*
X-6100000Y14880000D01*
X-6100000Y14880000D02*
X-100000Y14880000D01*
X-6100000Y16660000D02*
X-6100000Y17420000D01*
X-6100000Y17420000D02*
X-100000Y17420000D01*
X-6100000Y19200000D02*
X-6100000Y19960000D01*
X-6100000Y19960000D02*
X-100000Y19960000D01*
%TO.C,C1*%
X26938748Y21060000D02*
X28361252Y21060000D01*
X26938748Y19240000D02*
X28361252Y19240000D01*
D12*
%TO.C,IC4*%
X15000000Y16400000D02*
X16200000Y16400000D01*
X16550000Y16250000D02*
X17150000Y16250000D01*
X16550000Y13350000D02*
X16550000Y16250000D01*
X17150000Y16250000D02*
X17150000Y13350000D01*
X17150000Y13350000D02*
X16550000Y13350000D01*
D13*
%TO.C,IC5*%
X25950000Y6400000D02*
G75*
G03*
X25550000Y6400000I-200000J0D01*
G01*
X25550000Y6400000D02*
G75*
G03*
X25950000Y6400000I200000J0D01*
G01*
%TD*%
M02*
