%TF.GenerationSoftware,KiCad,Pcbnew,7.0.10*%
%TF.CreationDate,2024-02-11T10:45:53+07:00*%
%TF.ProjectId,PMOD-Pulser_update,504d4f44-2d50-4756-9c73-65725f757064,rev?*%
%TF.SameCoordinates,PX5e2ce30PY52bb330*%
%TF.FileFunction,Copper,L1,Top*%
%TF.FilePolarity,Positive*%
%FSLAX46Y46*%
G04 Gerber Fmt 4.6, Leading zero omitted, Abs format (unit mm)*
G04 Created by KiCad (PCBNEW 7.0.10) date 2024-02-11 10:45:53*
%MOMM*%
%LPD*%
G01*
G04 APERTURE LIST*
G04 Aperture macros list*
%AMRoundRect*
0 Rectangle with rounded corners*
0 $1 Rounding radius*
0 $2 $3 $4 $5 $6 $7 $8 $9 X,Y pos of 4 corners*
0 Add a 4 corners polygon primitive as box body*
4,1,4,$2,$3,$4,$5,$6,$7,$8,$9,$2,$3,0*
0 Add four circle primitives for the rounded corners*
1,1,$1+$1,$2,$3*
1,1,$1+$1,$4,$5*
1,1,$1+$1,$6,$7*
1,1,$1+$1,$8,$9*
0 Add four rect primitives between the rounded corners*
20,1,$1+$1,$2,$3,$4,$5,0*
20,1,$1+$1,$4,$5,$6,$7,0*
20,1,$1+$1,$6,$7,$8,$9,0*
20,1,$1+$1,$8,$9,$2,$3,0*%
G04 Aperture macros list end*
%TA.AperFunction,ComponentPad*%
%ADD10R,1.700000X1.700000*%
%TD*%
%TA.AperFunction,ComponentPad*%
%ADD11O,1.700000X1.700000*%
%TD*%
%TA.AperFunction,SMDPad,CuDef*%
%ADD12RoundRect,0.150000X0.450000X-0.150000X0.450000X0.150000X-0.450000X0.150000X-0.450000X-0.150000X0*%
%TD*%
%TA.AperFunction,SMDPad,CuDef*%
%ADD13RoundRect,0.250000X-0.325000X-0.650000X0.325000X-0.650000X0.325000X0.650000X-0.325000X0.650000X0*%
%TD*%
%TA.AperFunction,SMDPad,CuDef*%
%ADD14RoundRect,0.250000X-0.312500X-0.625000X0.312500X-0.625000X0.312500X0.625000X-0.312500X0.625000X0*%
%TD*%
%TA.AperFunction,SMDPad,CuDef*%
%ADD15RoundRect,0.150000X0.587500X0.150000X-0.587500X0.150000X-0.587500X-0.150000X0.587500X-0.150000X0*%
%TD*%
%TA.AperFunction,SMDPad,CuDef*%
%ADD16RoundRect,0.087500X0.462500X-0.087500X0.462500X0.087500X-0.462500X0.087500X-0.462500X-0.087500X0*%
%TD*%
%TA.AperFunction,SMDPad,CuDef*%
%ADD17RoundRect,0.087500X-0.087500X-0.462500X0.087500X-0.462500X0.087500X0.462500X-0.087500X0.462500X0*%
%TD*%
%TA.AperFunction,SMDPad,CuDef*%
%ADD18R,2.250000X2.250000*%
%TD*%
%TA.AperFunction,SMDPad,CuDef*%
%ADD19RoundRect,0.250000X0.650000X-0.325000X0.650000X0.325000X-0.650000X0.325000X-0.650000X-0.325000X0*%
%TD*%
%TA.AperFunction,SMDPad,CuDef*%
%ADD20R,2.350000X0.700000*%
%TD*%
%TA.AperFunction,SMDPad,CuDef*%
%ADD21R,4.900000X1.600000*%
%TD*%
%TA.AperFunction,SMDPad,CuDef*%
%ADD22RoundRect,0.250000X0.275000X0.700000X-0.275000X0.700000X-0.275000X-0.700000X0.275000X-0.700000X0*%
%TD*%
%TA.AperFunction,SMDPad,CuDef*%
%ADD23RoundRect,0.250000X-0.650000X0.325000X-0.650000X-0.325000X0.650000X-0.325000X0.650000X0.325000X0*%
%TD*%
%TA.AperFunction,SMDPad,CuDef*%
%ADD24RoundRect,0.162500X0.600000X-0.162500X0.600000X0.162500X-0.600000X0.162500X-0.600000X-0.162500X0*%
%TD*%
%TA.AperFunction,SMDPad,CuDef*%
%ADD25RoundRect,0.175000X0.175000X0.712500X-0.175000X0.712500X-0.175000X-0.712500X0.175000X-0.712500X0*%
%TD*%
%TA.AperFunction,SMDPad,CuDef*%
%ADD26RoundRect,0.243750X-0.243750X-0.456250X0.243750X-0.456250X0.243750X0.456250X-0.243750X0.456250X0*%
%TD*%
%TA.AperFunction,ViaPad*%
%ADD27C,0.800000*%
%TD*%
%TA.AperFunction,ViaPad*%
%ADD28C,1.000000*%
%TD*%
%TA.AperFunction,Conductor*%
%ADD29C,1.000000*%
%TD*%
%TA.AperFunction,Conductor*%
%ADD30C,0.500000*%
%TD*%
%TA.AperFunction,Conductor*%
%ADD31C,0.350000*%
%TD*%
%TA.AperFunction,Conductor*%
%ADD32C,0.400000*%
%TD*%
%TA.AperFunction,Conductor*%
%ADD33C,0.300000*%
%TD*%
%TA.AperFunction,Conductor*%
%ADD34C,0.200000*%
%TD*%
%TA.AperFunction,Conductor*%
%ADD35C,0.700000*%
%TD*%
%TA.AperFunction,Conductor*%
%ADD36C,0.650000*%
%TD*%
G04 APERTURE END LIST*
D10*
%TO.P,J4,1,Pin_1*%
%TO.N,OE*%
X58000000Y20000000D03*
D11*
%TO.P,J4,2,Pin_2*%
%TO.N,GND*%
X55460000Y20000000D03*
%TO.P,J4,3,Pin_3*%
%TO.N,-HV*%
X52920000Y20000000D03*
%TD*%
D12*
%TO.P,IC1,1,1A*%
%TO.N,P+*%
X15600000Y20500000D03*
%TO.P,IC1,2,GND*%
%TO.N,GND*%
X15600000Y19550000D03*
%TO.P,IC1,3,2A*%
%TO.N,Pdamp*%
X15600000Y18600000D03*
%TO.P,IC1,4,2Y*%
%TO.N,Net-(H1-2A)*%
X18100000Y18600000D03*
%TO.P,IC1,5,VCC*%
%TO.N,+5V*%
X18100000Y19550000D03*
%TO.P,IC1,6,1Y*%
%TO.N,Net-(H1-4A)*%
X18100000Y20500000D03*
%TD*%
D13*
%TO.P,C5,1*%
%TO.N,Net-(IC2-OUTB)*%
X33025000Y13250000D03*
%TO.P,C5,2*%
%TO.N,Net-(IC3-GN)*%
X35975000Y13250000D03*
%TD*%
D14*
%TO.P,R3,1*%
%TO.N,P-*%
X7287500Y16500000D03*
%TO.P,R3,2*%
%TO.N,GND*%
X10212500Y16500000D03*
%TD*%
D13*
%TO.P,C6,1*%
%TO.N,GND*%
X46025000Y18000000D03*
%TO.P,C6,2*%
%TO.N,-HV*%
X48975000Y18000000D03*
%TD*%
D15*
%TO.P,D2,1,K*%
%TO.N,Net-(IC6-DP_1)*%
X53875000Y6150000D03*
%TO.P,D2,2,A*%
%TO.N,Net-(D2-A)*%
X53875000Y8050000D03*
%TO.P,D2,3,K*%
%TO.N,Net-(D1-K-Pad3)*%
X52000000Y7100000D03*
%TD*%
D13*
%TO.P,C7,1*%
%TO.N,GND*%
X46025000Y20250000D03*
%TO.P,C7,2*%
%TO.N,-HV*%
X48975000Y20250000D03*
%TD*%
D16*
%TO.P,IC2,1,INA*%
%TO.N,PULSE+*%
X26300000Y15700000D03*
%TO.P,IC2,2,VL*%
%TO.N,GND*%
X26300000Y14900000D03*
%TO.P,IC2,3,INB*%
%TO.N,PULSE-*%
X26300000Y14100000D03*
D17*
%TO.P,IC2,4,GND_1*%
%TO.N,GND*%
X27350000Y13050000D03*
%TO.P,IC2,5,VSS1*%
X28150000Y13050000D03*
%TO.P,IC2,6,VSS2*%
X28950000Y13050000D03*
D16*
%TO.P,IC2,7,OUTB*%
%TO.N,Net-(IC2-OUTB)*%
X30000000Y14100000D03*
%TO.P,IC2,8,VH*%
%TO.N,+5V*%
X30000000Y14900000D03*
%TO.P,IC2,9,OUTA*%
%TO.N,Net-(IC2-OUTA)*%
X30000000Y15700000D03*
D17*
%TO.P,IC2,10,VDD2*%
%TO.N,+5V*%
X28950000Y16750000D03*
%TO.P,IC2,11,VDD1*%
%TO.N,Net-(IC2-VDD1)*%
X28150000Y16750000D03*
%TO.P,IC2,12,OE*%
%TO.N,OE*%
X27350000Y16750000D03*
D18*
%TO.P,IC2,13,GND_2*%
%TO.N,GND*%
X28150000Y14900000D03*
%TD*%
D15*
%TO.P,D1,1,K*%
%TO.N,Net-(IC3-DP_1)*%
X53875000Y9550000D03*
%TO.P,D1,2,A*%
%TO.N,Net-(D1-A)*%
X53875000Y11450000D03*
%TO.P,D1,3,K*%
%TO.N,Net-(D1-K-Pad3)*%
X52000000Y10500000D03*
%TD*%
D19*
%TO.P,C15,1*%
%TO.N,+5V*%
X21650000Y17875000D03*
%TO.P,C15,2*%
%TO.N,GND*%
X21650000Y20825000D03*
%TD*%
D20*
%TO.P,J1,1,1*%
%TO.N,Net-(D1-K-Pad3)*%
X62100000Y11250000D03*
D21*
%TO.P,J1,2,2*%
%TO.N,GND*%
X60525000Y7000000D03*
X60525000Y15500000D03*
%TD*%
D13*
%TO.P,C4,1*%
%TO.N,Net-(IC2-OUTA)*%
X33025000Y16750000D03*
%TO.P,C4,2*%
%TO.N,Net-(IC3-GP)*%
X35975000Y16750000D03*
%TD*%
D22*
%TO.P,FB2,1*%
%TO.N,+5V*%
X34025000Y9150000D03*
%TO.P,FB2,2*%
%TO.N,Net-(IC5-VDD1)*%
X30875000Y9150000D03*
%TD*%
%TO.P,FB1,1*%
%TO.N,+5V*%
X33975000Y20150000D03*
%TO.P,FB1,2*%
%TO.N,Net-(IC2-VDD1)*%
X30825000Y20150000D03*
%TD*%
D19*
%TO.P,C14,1*%
%TO.N,+5V*%
X11250000Y2025000D03*
%TO.P,C14,2*%
%TO.N,GND*%
X11250000Y4975000D03*
%TD*%
D10*
%TO.P,J6,1,Pin_1*%
%TO.N,+5V*%
X52920000Y2000000D03*
D11*
%TO.P,J6,2,Pin_2*%
%TO.N,+HV*%
X55460000Y2000000D03*
%TD*%
D14*
%TO.P,R2,1*%
%TO.N,P+*%
X7287500Y20250000D03*
%TO.P,R2,2*%
%TO.N,GND*%
X10212500Y20250000D03*
%TD*%
%TO.P,R4,1*%
%TO.N,Pdamp*%
X7287500Y13750000D03*
%TO.P,R4,2*%
%TO.N,GND*%
X10212500Y13750000D03*
%TD*%
D13*
%TO.P,C9,1*%
%TO.N,Net-(IC5-OUTA)*%
X33275000Y5500000D03*
%TO.P,C9,2*%
%TO.N,Net-(IC6-GP)*%
X36225000Y5500000D03*
%TD*%
D10*
%TO.P,J2,1,Pin_1*%
%TO.N,+5V*%
X6540000Y1800000D03*
D11*
%TO.P,J2,2,Pin_2*%
%TO.N,GND*%
X4000000Y1800000D03*
%TD*%
D13*
%TO.P,C2,1*%
%TO.N,GND*%
X38525000Y17750000D03*
%TO.P,C2,2*%
%TO.N,+HV*%
X41475000Y17750000D03*
%TD*%
D23*
%TO.P,C16,1*%
%TO.N,+5V*%
X21650000Y15675000D03*
%TO.P,C16,2*%
%TO.N,GND*%
X21650000Y12725000D03*
%TD*%
D24*
%TO.P,IC6,1,SN*%
%TO.N,GND*%
X41788000Y7405000D03*
%TO.P,IC6,2,GN*%
%TO.N,Net-(IC5-OUTB)*%
X41788000Y6135000D03*
%TO.P,IC6,3,SP*%
%TO.N,GND*%
X41788000Y4865000D03*
%TO.P,IC6,4,GP*%
%TO.N,Net-(IC6-GP)*%
X41788000Y3595000D03*
%TO.P,IC6,5,DP_1*%
%TO.N,Net-(IC6-DP_1)*%
X47212000Y3595000D03*
%TO.P,IC6,6,DP_2*%
X47212000Y4865000D03*
%TO.P,IC6,7,DN_1*%
%TO.N,Net-(D2-A)*%
X47212000Y6135000D03*
%TO.P,IC6,8,DN_2*%
X47212000Y7405000D03*
%TD*%
%TO.P,IC3,1,SN*%
%TO.N,-HV*%
X41788000Y14155000D03*
%TO.P,IC3,2,GN*%
%TO.N,Net-(IC3-GN)*%
X41788000Y12885000D03*
%TO.P,IC3,3,SP*%
%TO.N,+HV*%
X41788000Y11615000D03*
%TO.P,IC3,4,GP*%
%TO.N,Net-(IC3-GP)*%
X41788000Y10345000D03*
%TO.P,IC3,5,DP_1*%
%TO.N,Net-(IC3-DP_1)*%
X47212000Y10345000D03*
%TO.P,IC3,6,DP_2*%
X47212000Y11615000D03*
%TO.P,IC3,7,DN_1*%
%TO.N,Net-(D1-A)*%
X47212000Y12885000D03*
%TO.P,IC3,8,DN_2*%
X47212000Y14155000D03*
%TD*%
D13*
%TO.P,C8,1*%
%TO.N,GND*%
X26225000Y9150000D03*
%TO.P,C8,2*%
%TO.N,Net-(IC5-VDD1)*%
X29175000Y9150000D03*
%TD*%
D25*
%TO.P,H1,1,1A*%
%TO.N,Pdamp*%
X14440000Y2274000D03*
%TO.P,H1,2,1B*%
X15710000Y2274000D03*
%TO.P,H1,3,1Y*%
%TO.N,DAMP*%
X16980000Y2274000D03*
%TO.P,H1,4,2A*%
%TO.N,Net-(H1-2A)*%
X18250000Y2274000D03*
%TO.P,H1,5,2B*%
%TO.N,P+*%
X19520000Y2274000D03*
%TO.P,H1,6,2Y*%
%TO.N,PULSE+*%
X20790000Y2274000D03*
%TO.P,H1,7,GND*%
%TO.N,GND*%
X22060000Y2274000D03*
%TO.P,H1,8,3Y*%
%TO.N,_PULSE-*%
X22060000Y9350000D03*
%TO.P,H1,9,3A*%
%TO.N,P-*%
X20790000Y9350000D03*
%TO.P,H1,10,3B*%
%TO.N,Net-(H1-3B)*%
X19520000Y9350000D03*
%TO.P,H1,11,4Y*%
X18250000Y9350000D03*
%TO.P,H1,12,4A*%
%TO.N,Net-(H1-4A)*%
X16980000Y9350000D03*
%TO.P,H1,13,4B*%
%TO.N,Net-(H1-2A)*%
X15710000Y9350000D03*
%TO.P,H1,14,VCC*%
%TO.N,+5V*%
X14440000Y9350000D03*
%TD*%
D13*
%TO.P,C3,1*%
%TO.N,GND*%
X38525000Y20150000D03*
%TO.P,C3,2*%
%TO.N,+HV*%
X41475000Y20150000D03*
%TD*%
D14*
%TO.P,R1,1*%
%TO.N,OE*%
X7287500Y9500000D03*
%TO.P,R1,2*%
%TO.N,Net-(D3-A)*%
X10212500Y9500000D03*
%TD*%
D26*
%TO.P,D3,1,K*%
%TO.N,GND*%
X7812500Y7250000D03*
%TO.P,D3,2,A*%
%TO.N,Net-(D3-A)*%
X9687500Y7250000D03*
%TD*%
D10*
%TO.P,J3,1,Pin_1*%
%TO.N,+3.3V*%
X4000000Y6880000D03*
D11*
%TO.P,J3,2,Pin_2*%
%TO.N,GND*%
X4000000Y9420000D03*
%TO.P,J3,3,Pin_3*%
%TO.N,OE*%
X4000000Y11960000D03*
%TO.P,J3,4,Pin_4*%
%TO.N,Pdamp*%
X4000000Y14500000D03*
%TO.P,J3,5,Pin_5*%
%TO.N,P-*%
X4000000Y17040000D03*
%TO.P,J3,6,Pin_6*%
%TO.N,P+*%
X4000000Y19580000D03*
%TD*%
D13*
%TO.P,C1,1*%
%TO.N,GND*%
X26175000Y20150000D03*
%TO.P,C1,2*%
%TO.N,Net-(IC2-VDD1)*%
X29125000Y20150000D03*
%TD*%
D12*
%TO.P,IC4,1,1A*%
%TO.N,Pdamp*%
X15600000Y15750000D03*
%TO.P,IC4,2,GND*%
%TO.N,GND*%
X15600000Y14800000D03*
%TO.P,IC4,3,2A*%
%TO.N,_PULSE-*%
X15600000Y13850000D03*
%TO.P,IC4,4,2Y*%
%TO.N,PULSE-*%
X18100000Y13850000D03*
%TO.P,IC4,5,VCC*%
%TO.N,+5V*%
X18100000Y14800000D03*
%TO.P,IC4,6,1Y*%
%TO.N,~{DAMP}*%
X18100000Y15750000D03*
%TD*%
D16*
%TO.P,IC5,1,INA*%
%TO.N,DAMP*%
X26300000Y5200000D03*
%TO.P,IC5,2,VL*%
%TO.N,GND*%
X26300000Y4400000D03*
%TO.P,IC5,3,INB*%
%TO.N,~{DAMP}*%
X26300000Y3600000D03*
D17*
%TO.P,IC5,4,GND_1*%
%TO.N,GND*%
X27350000Y2550000D03*
%TO.P,IC5,5,VSS1*%
X28150000Y2550000D03*
%TO.P,IC5,6,VSS2*%
X28950000Y2550000D03*
D16*
%TO.P,IC5,7,OUTB*%
%TO.N,Net-(IC5-OUTB)*%
X30000000Y3600000D03*
%TO.P,IC5,8,VH*%
%TO.N,+5V*%
X30000000Y4400000D03*
%TO.P,IC5,9,OUTA*%
%TO.N,Net-(IC5-OUTA)*%
X30000000Y5200000D03*
D17*
%TO.P,IC5,10,VDD2*%
%TO.N,+5V*%
X28950000Y6250000D03*
%TO.P,IC5,11,VDD1*%
%TO.N,Net-(IC5-VDD1)*%
X28150000Y6250000D03*
%TO.P,IC5,12,OE*%
%TO.N,OE*%
X27350000Y6250000D03*
D18*
%TO.P,IC5,13,GND_2*%
%TO.N,GND*%
X28150000Y4400000D03*
%TD*%
D27*
%TO.N,GND*%
X51050000Y2000000D03*
X49500000Y9000000D03*
X62750000Y8750000D03*
X62750000Y17500000D03*
X51000000Y16750000D03*
X27750000Y11250000D03*
X43500000Y20250000D03*
X17250000Y7500000D03*
X57000000Y16750000D03*
X13000000Y8250000D03*
X45250000Y3250000D03*
X60250000Y750000D03*
X28750000Y5000000D03*
X28750000Y14250000D03*
X18750000Y6000000D03*
X61500000Y8750000D03*
X31000000Y11250000D03*
X62750000Y12500000D03*
X44500000Y19250000D03*
X45250000Y13750000D03*
X35250000Y7500000D03*
X61500000Y12500000D03*
X29750000Y11250000D03*
X13000000Y6250000D03*
X11750000Y15750000D03*
X61500000Y17500000D03*
X23500000Y4000000D03*
X60250000Y12500000D03*
X45250000Y12750000D03*
X62750000Y5000000D03*
X57250000Y10500000D03*
X52000000Y13000000D03*
X38000000Y2900000D03*
X34000000Y3000000D03*
X37000000Y9500000D03*
X12750000Y13750000D03*
X60250000Y10000000D03*
X13000000Y7250000D03*
X54000000Y16750000D03*
X61500000Y750000D03*
X45250000Y11750000D03*
X48000000Y2000000D03*
X38000000Y6500000D03*
X43500000Y7500000D03*
X61500000Y5000000D03*
X34500000Y11250000D03*
X54000000Y13000000D03*
X57750000Y5000000D03*
X62750000Y10000000D03*
X33500000Y11250000D03*
X55500000Y16750000D03*
X57000000Y12500000D03*
X18000000Y6750000D03*
X32750000Y3000000D03*
X37000000Y7600000D03*
X28750000Y15500000D03*
X46500000Y2000000D03*
X52500000Y16750000D03*
X44250000Y6750000D03*
X12750000Y16750000D03*
X55500000Y12250000D03*
X60250000Y5000000D03*
X58250000Y11250000D03*
X23500000Y7000000D03*
X57000000Y13750000D03*
X59000000Y5000000D03*
X14050000Y19600000D03*
X51000000Y13750000D03*
X51000000Y15250000D03*
X38000000Y8500000D03*
X59000000Y8750000D03*
X48000000Y9000000D03*
X23500000Y6000000D03*
X51000000Y3750000D03*
X60250000Y8750000D03*
X23500000Y5000000D03*
X57000000Y15250000D03*
X39750000Y6500000D03*
X27500000Y3750000D03*
X27500000Y5000000D03*
X45250000Y2000000D03*
X28750000Y3750000D03*
X59000000Y750000D03*
X9250000Y5500000D03*
X26000000Y11250000D03*
X45250000Y4500000D03*
X56750000Y6500000D03*
X36750000Y2900000D03*
X27500000Y14250000D03*
X9250000Y3500000D03*
X57750000Y750000D03*
X14050000Y14800000D03*
X61500000Y10000000D03*
X37000000Y18500000D03*
X62750000Y1500000D03*
X13000000Y9250000D03*
X24650000Y14900000D03*
X59000000Y12250000D03*
X56250000Y11500000D03*
X18750000Y7500000D03*
X27500000Y15500000D03*
X49500000Y2000000D03*
X45250000Y5750000D03*
%TO.N,+5V*%
X31375000Y4350000D03*
X35750000Y20000000D03*
X23900000Y19500000D03*
X9250000Y1800000D03*
D28*
X31650000Y14900000D03*
D27*
X35650000Y9150000D03*
%TO.N,Pdamp*%
X13450000Y2150000D03*
X10862500Y11862500D03*
%TO.N,DAMP*%
X24975000Y5950000D03*
X16950000Y4650000D03*
%TO.N,Net-(H1-2A)*%
X19600000Y18300000D03*
X15200000Y11100000D03*
%TO.N,P+*%
X19850000Y4150000D03*
X12000000Y18900000D03*
%TO.N,PULSE+*%
X21600000Y4150000D03*
X24975000Y16350000D03*
%TO.N,_PULSE-*%
X14050000Y13200000D03*
X21775000Y11025000D03*
%TO.N,P-*%
X12000000Y17850000D03*
X20350000Y11025000D03*
%TO.N,Net-(H1-4A)*%
X16312500Y10962500D03*
X19850000Y21050000D03*
%TO.N,PULSE-*%
X19975000Y13650000D03*
X24975000Y13550000D03*
%TO.N,OE*%
X26450000Y7150000D03*
X11775000Y10950000D03*
X27350000Y18400000D03*
%TO.N,~{DAMP}*%
X19700000Y15950000D03*
X24975000Y3150000D03*
%TO.N,+HV*%
X43750000Y17450000D03*
X42750000Y17450000D03*
%TD*%
D29*
%TO.N,-HV*%
X49225000Y20000000D02*
X48975000Y20250000D01*
X52920000Y20000000D02*
X49225000Y20000000D01*
D30*
%TO.N,GND*%
X27350000Y3600000D02*
X28125000Y4375000D01*
D31*
X28950000Y2550000D02*
X28950000Y1000000D01*
X27350000Y13050000D02*
X27350000Y11500000D01*
X26300000Y4400000D02*
X24625000Y4400000D01*
X28950000Y2550000D02*
X28950000Y3600000D01*
D30*
X20300000Y22000000D02*
X18800000Y22000000D01*
X10212500Y16500000D02*
X10212500Y13750000D01*
X21650000Y21950000D02*
X21700000Y22000000D01*
D31*
X28950000Y13050000D02*
X28950000Y14100000D01*
D30*
X21725000Y12725000D02*
X23400000Y11050000D01*
X23900000Y22000000D02*
X24050000Y21850000D01*
D31*
X28150000Y2550000D02*
X28150000Y1000000D01*
D32*
X4500000Y200000D02*
X8140000Y200000D01*
D33*
X37000000Y18750000D02*
X37125000Y18750000D01*
D31*
X27350000Y2550000D02*
X27350000Y3600000D01*
D30*
X44250000Y20250000D02*
X46025000Y20250000D01*
X21650000Y12725000D02*
X21725000Y12725000D01*
X20300000Y22000000D02*
X23900000Y22000000D01*
X21650000Y20825000D02*
X21650000Y21950000D01*
D33*
X24625000Y4400000D02*
X24575000Y4350000D01*
D31*
X28150000Y13050000D02*
X28150000Y14100000D01*
X27350000Y2550000D02*
X27350000Y1000000D01*
D33*
X14100000Y19550000D02*
X14050000Y19600000D01*
D30*
X60525000Y7000000D02*
X57250000Y7000000D01*
X4000000Y750000D02*
X4500000Y250000D01*
D31*
X27350000Y13050000D02*
X27350000Y14100000D01*
X28150000Y13050000D02*
X28150000Y11500000D01*
D30*
X21337500Y12550000D02*
X18962500Y12550000D01*
X21700000Y22000000D02*
X20300000Y22000000D01*
X18800000Y22000000D02*
X18700000Y21900000D01*
D31*
X27550000Y4400000D02*
X26500000Y4400000D01*
D30*
X4000000Y1800000D02*
X4000000Y750000D01*
D31*
X26300000Y14900000D02*
X27350000Y14900000D01*
X28150000Y2550000D02*
X28150000Y3600000D01*
D30*
X15600000Y14800000D02*
X14050000Y14800000D01*
D31*
X26300000Y14900000D02*
X24650000Y14900000D01*
D30*
X57250000Y7000000D02*
X56750000Y6500000D01*
D31*
X28950000Y13050000D02*
X28950000Y11500000D01*
D33*
X41788000Y4865000D02*
X41385000Y4865000D01*
D30*
X28125000Y4375000D02*
X28150000Y4400000D01*
X15600000Y19550000D02*
X14100000Y19550000D01*
D31*
%TO.N,Net-(IC2-VDD1)*%
X28150000Y16750000D02*
X28150000Y17850000D01*
X28150000Y17850000D02*
X29125000Y18825000D01*
X29125000Y18825000D02*
X29125000Y20150000D01*
D33*
X29125000Y20150000D02*
X30825000Y20150000D01*
D30*
%TO.N,+5V*%
X33975000Y19475000D02*
X32850000Y18350000D01*
X18100000Y14800000D02*
X20775000Y14800000D01*
X11025000Y1800000D02*
X11250000Y2025000D01*
X21650000Y17875000D02*
X21650000Y15675000D01*
X9250000Y1800000D02*
X6540000Y1800000D01*
X29575000Y7150000D02*
X29075000Y6650000D01*
X32400000Y7150000D02*
X29575000Y7150000D01*
X20775000Y14800000D02*
X21650000Y15675000D01*
X20100000Y19550000D02*
X18100000Y19550000D01*
X28950000Y17050000D02*
X28950000Y16775000D01*
X35600000Y20150000D02*
X33975000Y20150000D01*
X21650000Y17875000D02*
X21650000Y18000000D01*
X11275000Y2025000D02*
X14440000Y5190000D01*
X34025000Y8775000D02*
X32400000Y7150000D01*
X14440000Y5190000D02*
X14440000Y9350000D01*
X23900000Y18800000D02*
X22975000Y17875000D01*
X34025000Y9150000D02*
X34025000Y8775000D01*
X33975000Y20150000D02*
X33975000Y19475000D01*
X30000000Y4400000D02*
X31325000Y4400000D01*
X23900000Y19500000D02*
X23900000Y18800000D01*
X30000000Y14900000D02*
X31650000Y14900000D01*
X9250000Y1800000D02*
X11025000Y1800000D01*
X30250000Y18350000D02*
X28950000Y17050000D01*
X11250000Y2025000D02*
X11275000Y2025000D01*
X6540000Y1800000D02*
X6815000Y2075000D01*
X35750000Y20000000D02*
X35600000Y20150000D01*
X29075000Y6650000D02*
X29075000Y6250000D01*
X32850000Y18350000D02*
X30250000Y18350000D01*
X34025000Y9150000D02*
X35650000Y9150000D01*
X21650000Y18000000D02*
X20100000Y19550000D01*
X31325000Y4400000D02*
X31375000Y4350000D01*
X22975000Y17875000D02*
X21650000Y17875000D01*
D33*
%TO.N,Net-(IC2-OUTA)*%
X30000000Y15700000D02*
X30600000Y15700000D01*
X30600000Y15700000D02*
X31650000Y16750000D01*
X31650000Y16750000D02*
X33025000Y16750000D01*
%TO.N,Net-(IC3-GP)*%
X42750000Y10000000D02*
X42750000Y9625000D01*
X42405000Y10345000D02*
X42750000Y10000000D01*
X42375000Y9250000D02*
X39750000Y9250000D01*
X39750000Y9250000D02*
X37250000Y11750000D01*
X41788000Y10345000D02*
X42405000Y10345000D01*
X35975000Y16525000D02*
X35975000Y16750000D01*
X42750000Y9625000D02*
X42375000Y9250000D01*
X37250000Y15250000D02*
X35975000Y16525000D01*
X37250000Y11750000D02*
X37250000Y15250000D01*
%TO.N,Net-(IC2-OUTB)*%
X31350000Y13250000D02*
X33025000Y13250000D01*
X30500000Y14100000D02*
X31350000Y13250000D01*
X30000000Y14100000D02*
X30500000Y14100000D01*
%TO.N,Net-(IC3-GN)*%
X36500000Y11500000D02*
X36500000Y12725000D01*
X43500000Y12125000D02*
X43500000Y9500000D01*
X43500000Y9500000D02*
X42500000Y8500000D01*
X42500000Y8500000D02*
X39500000Y8500000D01*
X39500000Y8500000D02*
X36500000Y11500000D01*
X36500000Y12725000D02*
X35975000Y13250000D01*
X41788000Y12885000D02*
X42740000Y12885000D01*
X42740000Y12885000D02*
X43500000Y12125000D01*
%TO.N,Net-(IC5-VDD1)*%
X28150000Y7025000D02*
X29175000Y8050000D01*
D30*
X29175000Y9150000D02*
X30875000Y9150000D01*
D33*
X29175000Y8050000D02*
X29175000Y9150000D01*
X28150000Y6250000D02*
X28150000Y7025000D01*
%TO.N,Net-(IC5-OUTA)*%
X31050000Y5550000D02*
X33225000Y5550000D01*
X30000000Y5200000D02*
X30700000Y5200000D01*
X30700000Y5200000D02*
X31050000Y5550000D01*
X33225000Y5550000D02*
X33275000Y5500000D01*
%TO.N,Net-(IC6-GP)*%
X42655000Y3595000D02*
X43000000Y3250000D01*
X43000000Y3250000D02*
X43000000Y2750000D01*
X43000000Y2750000D02*
X42750000Y2500000D01*
X37100000Y5500000D02*
X36225000Y5500000D01*
X41788000Y3595000D02*
X42655000Y3595000D01*
X40100000Y2500000D02*
X37100000Y5500000D01*
X42750000Y2500000D02*
X40100000Y2500000D01*
%TO.N,Net-(IC3-DP_1)*%
X53875000Y9550000D02*
X50850000Y9550000D01*
X50055000Y10345000D02*
X49250000Y10345000D01*
X49000000Y10595000D02*
X48750000Y10345000D01*
X49250000Y10345000D02*
X49000000Y10345000D01*
X49000000Y10595000D02*
X49250000Y10345000D01*
X48750000Y10345000D02*
X47212000Y10345000D01*
X48635000Y11615000D02*
X49000000Y11250000D01*
X49000000Y10750000D02*
X49000000Y10595000D01*
X49000000Y10345000D02*
X48750000Y10345000D01*
X49000000Y10750000D02*
X49000000Y10345000D01*
X50850000Y9550000D02*
X50055000Y10345000D01*
X47212000Y11615000D02*
X48635000Y11615000D01*
X49000000Y11250000D02*
X49000000Y10750000D01*
%TO.N,Net-(D1-A)*%
X49250000Y12885000D02*
X49000000Y12885000D01*
X49000000Y13135000D02*
X48750000Y12885000D01*
X48750000Y12885000D02*
X47212000Y12885000D01*
X49000000Y13250000D02*
X49000000Y12885000D01*
X49000000Y13750000D02*
X49000000Y13250000D01*
X53875000Y11450000D02*
X51300000Y11450000D01*
X47212000Y14155000D02*
X48595000Y14155000D01*
X49865000Y12885000D02*
X49250000Y12885000D01*
X49000000Y12885000D02*
X48750000Y12885000D01*
X51300000Y11450000D02*
X49865000Y12885000D01*
X48595000Y14155000D02*
X49000000Y13750000D01*
X49000000Y13135000D02*
X49250000Y12885000D01*
X49000000Y13250000D02*
X49000000Y13135000D01*
%TO.N,Net-(D1-K-Pad3)*%
X56750000Y8750000D02*
X56500000Y9000000D01*
X59900000Y11250000D02*
X62100000Y11250000D01*
X55725000Y7100000D02*
X56500000Y7875000D01*
X56500000Y9000000D02*
X56500000Y9750000D01*
X56500000Y8500000D02*
X56500000Y9000000D01*
X56750000Y8750000D02*
X57400000Y8750000D01*
X55750000Y10500000D02*
X52000000Y10500000D01*
X56500000Y8750000D02*
X56750000Y8750000D01*
X56750000Y8750000D02*
X56500000Y8500000D01*
X52000000Y7100000D02*
X55725000Y7100000D01*
X57400000Y8750000D02*
X59900000Y11250000D01*
X56500000Y7875000D02*
X56500000Y8500000D01*
X56500000Y9750000D02*
X55750000Y10500000D01*
%TO.N,Net-(IC6-DP_1)*%
X49300000Y4850000D02*
X49000000Y4550000D01*
X49000000Y4865000D02*
X49300000Y4865000D01*
X49300000Y4865000D02*
X49615000Y4865000D01*
X49300000Y4865000D02*
X49300000Y4850000D01*
X49615000Y4865000D02*
X50900000Y6150000D01*
X47212000Y4865000D02*
X48700000Y4865000D01*
X49000000Y4550000D02*
X49000000Y4865000D01*
X48700000Y4850000D02*
X49000000Y4550000D01*
X48700000Y4865000D02*
X49000000Y4865000D01*
X48700000Y4865000D02*
X48700000Y4850000D01*
X48595000Y3595000D02*
X49000000Y4000000D01*
X47212000Y3595000D02*
X48595000Y3595000D01*
X49000000Y4000000D02*
X49000000Y4550000D01*
X50900000Y6150000D02*
X53875000Y6150000D01*
%TO.N,Net-(D2-A)*%
X49000000Y7000000D02*
X49000000Y7155000D01*
X49250000Y7405000D02*
X49000000Y7405000D01*
X49000000Y7405000D02*
X48750000Y7405000D01*
X49000000Y6500000D02*
X49000000Y7000000D01*
X48750000Y7405000D02*
X47212000Y7405000D01*
X50105000Y7405000D02*
X49250000Y7405000D01*
X53875000Y8050000D02*
X50750000Y8050000D01*
X47212000Y6135000D02*
X48635000Y6135000D01*
X49000000Y7000000D02*
X49000000Y7405000D01*
X49000000Y7155000D02*
X48750000Y7405000D01*
X48635000Y6135000D02*
X49000000Y6500000D01*
X49000000Y7155000D02*
X49250000Y7405000D01*
X50750000Y8050000D02*
X50105000Y7405000D01*
%TO.N,Net-(D3-A)*%
X10212500Y7775000D02*
X10212500Y9500000D01*
X9687500Y7250000D02*
X10212500Y7775000D01*
%TO.N,Pdamp*%
X14300000Y16700000D02*
X14300000Y16600000D01*
X14650000Y16250000D02*
X14300000Y16250000D01*
X10862500Y11875000D02*
X11500000Y12512500D01*
X10825000Y11900000D02*
X8600000Y11900000D01*
X4000000Y14500000D02*
X6537500Y14500000D01*
X13450000Y2150000D02*
X14316000Y2150000D01*
X7287500Y13212500D02*
X7287500Y13750000D01*
X15600000Y18600000D02*
X14550000Y18600000D01*
X14550000Y18600000D02*
X14300000Y18350000D01*
X10862500Y11862500D02*
X10862500Y11875000D01*
X14316000Y2150000D02*
X14440000Y2274000D01*
X14300000Y16700000D02*
X14300000Y16250000D01*
X8600000Y11900000D02*
X7287500Y13212500D01*
X13450000Y2150000D02*
X15586000Y2150000D01*
X14300000Y18350000D02*
X14300000Y16700000D01*
X15586000Y2150000D02*
X15710000Y2274000D01*
X10862500Y11862500D02*
X10825000Y11900000D01*
X11500000Y14000000D02*
X13750000Y16250000D01*
X15300000Y15750000D02*
X14800000Y16250000D01*
X13750000Y16250000D02*
X13950000Y16250000D01*
X15600000Y15750000D02*
X15300000Y15750000D01*
X14300000Y16600000D02*
X14650000Y16250000D01*
X14800000Y16250000D02*
X14650000Y16250000D01*
X14300000Y16600000D02*
X13950000Y16250000D01*
X11500000Y12512500D02*
X11500000Y14000000D01*
X6537500Y14500000D02*
X7287500Y13750000D01*
X13950000Y16250000D02*
X14300000Y16250000D01*
%TO.N,DAMP*%
X25725000Y5200000D02*
X26300000Y5200000D01*
X16998000Y2292000D02*
X16980000Y2274000D01*
X16950000Y4650000D02*
X16950000Y2304000D01*
X16950000Y2304000D02*
X16980000Y2274000D01*
X24975000Y5950000D02*
X25725000Y5200000D01*
%TO.N,Net-(H1-2A)*%
X15200000Y11100000D02*
X15200000Y10850000D01*
X19600000Y18300000D02*
X19300000Y18600000D01*
X18250000Y4750000D02*
X15710000Y7290000D01*
X18250000Y2274000D02*
X18250000Y4750000D01*
X15710000Y7290000D02*
X15710000Y9350000D01*
X15200000Y10850000D02*
X15710000Y10340000D01*
X19300000Y18600000D02*
X18100000Y18600000D01*
X15710000Y10340000D02*
X15710000Y9350000D01*
D34*
%TO.N,P+*%
X19520000Y2274000D02*
X19520000Y3820000D01*
X11635000Y18535000D02*
X7500000Y18535000D01*
X7287500Y18750000D02*
X7287500Y18822500D01*
X19520000Y3820000D02*
X19850000Y4150000D01*
X7500000Y18537500D02*
X7500000Y18535000D01*
X12000000Y18900000D02*
X12000000Y20250000D01*
X7500000Y18535000D02*
X7250000Y18535000D01*
X7287500Y18572500D02*
X7250000Y18535000D01*
X12550000Y20800000D02*
X14250000Y20800000D01*
X7287500Y18750000D02*
X7287500Y18572500D01*
X12000000Y20250000D02*
X12550000Y20800000D01*
X14550000Y20500000D02*
X15600000Y20500000D01*
X4000000Y19580000D02*
X5045000Y18535000D01*
X7287500Y18822500D02*
X7000000Y18535000D01*
X7287500Y18750000D02*
X7500000Y18537500D01*
X5045000Y18535000D02*
X7000000Y18535000D01*
X7287500Y20250000D02*
X7287500Y18750000D01*
X12000000Y18900000D02*
X11635000Y18535000D01*
X14250000Y20800000D02*
X14550000Y20500000D01*
X7000000Y18535000D02*
X7250000Y18535000D01*
%TO.N,PULSE+*%
X25625000Y15700000D02*
X26300000Y15700000D01*
X24975000Y16350000D02*
X25625000Y15700000D01*
X21600000Y4150000D02*
X20790000Y3340000D01*
X20790000Y3340000D02*
X20790000Y2274000D01*
D33*
%TO.N,_PULSE-*%
X22060000Y10560000D02*
X22060000Y9350000D01*
X21775000Y10845000D02*
X22060000Y10560000D01*
X14700000Y13850000D02*
X14050000Y13200000D01*
X15600000Y13850000D02*
X14700000Y13850000D01*
X21775000Y11025000D02*
X21775000Y10845000D01*
D34*
X21920000Y9350000D02*
X21960000Y9390000D01*
%TO.N,P-*%
X7250000Y17835000D02*
X7000000Y18085000D01*
X11765000Y18085000D02*
X7500000Y18085000D01*
X7500000Y18085000D02*
X7250000Y18085000D01*
X12000000Y17850000D02*
X11765000Y18085000D01*
X7000000Y18085000D02*
X7250000Y18085000D01*
X7250000Y16537500D02*
X7287500Y16500000D01*
X4000000Y17040000D02*
X5045000Y18085000D01*
X7250000Y17835000D02*
X7500000Y18085000D01*
X5045000Y18085000D02*
X7000000Y18085000D01*
X20350000Y11025000D02*
X20790000Y10585000D01*
X7250000Y18085000D02*
X7250000Y17750000D01*
X20790000Y10585000D02*
X20790000Y9350000D01*
X7250000Y17750000D02*
X7250000Y16537500D01*
X7250000Y17750000D02*
X7250000Y17835000D01*
D33*
%TO.N,Net-(H1-3B)*%
X19440000Y9430000D02*
X19440000Y10410000D01*
X19100000Y10750000D02*
X18600000Y10750000D01*
X18250000Y10400000D02*
X18250000Y9350000D01*
X19520000Y9350000D02*
X19440000Y9430000D01*
X19440000Y10410000D02*
X19100000Y10750000D01*
X18600000Y10750000D02*
X18250000Y10400000D01*
D34*
%TO.N,Net-(H1-4A)*%
X19850000Y21050000D02*
X19300000Y20500000D01*
X19300000Y20500000D02*
X18100000Y20500000D01*
X16980000Y10295000D02*
X16980000Y9350000D01*
X16312500Y10962500D02*
X16980000Y10295000D01*
%TO.N,PULSE-*%
X25525000Y14100000D02*
X26300000Y14100000D01*
X18150000Y13800000D02*
X18100000Y13850000D01*
X24975000Y13550000D02*
X25525000Y14100000D01*
X19975000Y13650000D02*
X19825000Y13800000D01*
X19825000Y13800000D02*
X18150000Y13800000D01*
D33*
%TO.N,OE*%
X8737500Y10950000D02*
X7287500Y9500000D01*
X24900000Y7850000D02*
X25600000Y7150000D01*
X23200000Y14000000D02*
X24900000Y12300000D01*
X27350000Y6950000D02*
X27350000Y6250000D01*
X26450000Y7150000D02*
X27150000Y7150000D01*
X23200000Y16700000D02*
X23200000Y14000000D01*
X27350000Y18400000D02*
X27350000Y16750000D01*
X11775000Y10950000D02*
X8737500Y10950000D01*
X27300000Y18350000D02*
X24850000Y18350000D01*
X7287500Y9812500D02*
X7287500Y9500000D01*
X27350000Y18400000D02*
X27300000Y18350000D01*
X24900000Y12300000D02*
X24900000Y7850000D01*
X25600000Y7150000D02*
X26450000Y7150000D01*
X5140000Y11960000D02*
X7287500Y9812500D01*
X27150000Y7150000D02*
X27350000Y6950000D01*
X24850000Y18350000D02*
X23200000Y16700000D01*
X4000000Y11960000D02*
X5140000Y11960000D01*
D34*
%TO.N,~{DAMP}*%
X19700000Y15950000D02*
X18300000Y15950000D01*
D33*
X25425000Y3600000D02*
X26300000Y3600000D01*
D34*
X18300000Y15950000D02*
X18100000Y15750000D01*
D33*
X24975000Y3150000D02*
X25425000Y3600000D01*
%TO.N,Net-(IC5-OUTB)*%
X42865000Y6135000D02*
X43750000Y5250000D01*
X43750000Y5250000D02*
X43750000Y2500000D01*
X30600000Y3600000D02*
X30000000Y3600000D01*
X41788000Y6135000D02*
X42865000Y6135000D01*
X43000000Y1750000D02*
X32450000Y1750000D01*
X32450000Y1750000D02*
X30600000Y3600000D01*
X43750000Y2500000D02*
X43000000Y1750000D01*
D29*
%TO.N,-HV*%
X48975000Y18000000D02*
X48975000Y16475000D01*
X48975000Y16475000D02*
X48400000Y15900000D01*
D35*
X44900000Y15900000D02*
X43155000Y14155000D01*
D29*
X48975000Y20250000D02*
X48975000Y18000000D01*
D30*
X42905000Y14155000D02*
X41788000Y14155000D01*
D36*
X43155000Y14155000D02*
X41788000Y14155000D01*
D29*
X48400000Y15900000D02*
X44900000Y15900000D01*
D36*
%TO.N,+HV*%
X39885000Y11615000D02*
X41788000Y11615000D01*
D29*
X43750000Y17450000D02*
X43700000Y17500000D01*
X43700000Y17500000D02*
X41725000Y17500000D01*
X41475000Y17750000D02*
X41475000Y20150000D01*
X39000000Y14750000D02*
X41475000Y17225000D01*
D30*
X41725000Y17500000D02*
X41475000Y17750000D01*
X41475000Y17225000D02*
X41475000Y20150000D01*
D29*
X42450000Y17500000D02*
X41725000Y17500000D01*
X39000000Y12500000D02*
X39000000Y14750000D01*
X39000000Y12500000D02*
X39885000Y11615000D01*
%TD*%
%TA.AperFunction,Conductor*%
%TO.N,GND*%
G36*
X5506388Y484303D02*
G01*
X5510410Y482803D01*
X5593068Y431746D01*
X5649895Y352945D01*
X5672241Y258394D01*
X5656703Y162490D01*
X5605646Y79832D01*
X5526845Y23005D01*
X5432294Y659D01*
X5423400Y500D01*
X4391516Y500D01*
X4296228Y19454D01*
X4215446Y73430D01*
X4161470Y154212D01*
X4142516Y249500D01*
X4161470Y344788D01*
X4215446Y425570D01*
X4296228Y479546D01*
X4327069Y490015D01*
X4332667Y491515D01*
X4397114Y500000D01*
X5419378Y500000D01*
X5506388Y484303D01*
G37*
%TD.AperFunction*%
%TA.AperFunction,Conductor*%
G36*
X45796288Y14131046D02*
G01*
X45877070Y14077070D01*
X45931046Y13996288D01*
X45950000Y13901000D01*
X45950000Y13123385D01*
X45949244Y13106730D01*
X45949256Y13106729D01*
X45949000Y13101083D01*
X45949000Y12668899D01*
X45949256Y12663274D01*
X45949245Y12663274D01*
X45950000Y12646625D01*
X45950000Y11853385D01*
X45949244Y11836730D01*
X45949256Y11836729D01*
X45949000Y11831083D01*
X45949000Y11398899D01*
X45949256Y11393274D01*
X45949245Y11393274D01*
X45950000Y11376625D01*
X45950000Y10583385D01*
X45949244Y10566730D01*
X45949256Y10566729D01*
X45949000Y10561083D01*
X45949000Y10128906D01*
X45955069Y10062115D01*
X45999354Y9920000D01*
X46002969Y9908398D01*
X46086264Y9770612D01*
X46200112Y9656764D01*
X46337898Y9573469D01*
X46491613Y9525570D01*
X46558409Y9519500D01*
X47865590Y9519501D01*
X47932387Y9525570D01*
X48086102Y9573469D01*
X48223888Y9656764D01*
X48223889Y9656766D01*
X48226906Y9658589D01*
X48318257Y9691665D01*
X48355724Y9694500D01*
X48652643Y9694500D01*
X48676072Y9693395D01*
X48688292Y9692241D01*
X48688296Y9692240D01*
X48756289Y9694378D01*
X48764111Y9694500D01*
X48914974Y9694500D01*
X48950298Y9691162D01*
X48958822Y9690626D01*
X48958830Y9690624D01*
X49009095Y9693787D01*
X49012634Y9694009D01*
X49028267Y9694500D01*
X49167823Y9694500D01*
X49179213Y9694500D01*
X49218166Y9691435D01*
X49229405Y9689654D01*
X49267016Y9693210D01*
X49268981Y9693395D01*
X49292413Y9694500D01*
X49651000Y9694500D01*
X49746288Y9675546D01*
X49827070Y9621570D01*
X49881046Y9540788D01*
X49900000Y9445500D01*
X49900000Y8304500D01*
X49881046Y8209212D01*
X49827070Y8128430D01*
X49746288Y8074454D01*
X49651000Y8055500D01*
X49347356Y8055500D01*
X49323927Y8056605D01*
X49311706Y8057760D01*
X49311703Y8057760D01*
X49243710Y8055623D01*
X49235888Y8055500D01*
X49085026Y8055500D01*
X49049701Y8058839D01*
X49041170Y8059376D01*
X48987366Y8055991D01*
X48971733Y8055500D01*
X48820794Y8055500D01*
X48781839Y8058566D01*
X48780115Y8058839D01*
X48770595Y8060347D01*
X48731011Y8056605D01*
X48707578Y8055500D01*
X48355724Y8055500D01*
X48260436Y8074454D01*
X48226906Y8091411D01*
X48223889Y8093235D01*
X48223888Y8093236D01*
X48118301Y8157066D01*
X48086101Y8176532D01*
X48086098Y8176533D01*
X47932387Y8224430D01*
X47932380Y8224431D01*
X47865594Y8230500D01*
X46558420Y8230500D01*
X46558390Y8230498D01*
X46491614Y8224431D01*
X46337899Y8176532D01*
X46337898Y8176531D01*
X46200113Y8093237D01*
X46086263Y7979387D01*
X46002969Y7841602D01*
X46002967Y7841599D01*
X45955070Y7687888D01*
X45955069Y7687881D01*
X45949000Y7621105D01*
X45949000Y7188899D01*
X45949256Y7183274D01*
X45949245Y7183274D01*
X45950000Y7166625D01*
X45950000Y6373385D01*
X45949244Y6356730D01*
X45949256Y6356729D01*
X45949000Y6351083D01*
X45949000Y5918899D01*
X45949256Y5913274D01*
X45949245Y5913274D01*
X45950000Y5896625D01*
X45950000Y5103385D01*
X45949244Y5086730D01*
X45949256Y5086729D01*
X45949000Y5081083D01*
X45949000Y4648899D01*
X45949256Y4643274D01*
X45949245Y4643274D01*
X45950000Y4626625D01*
X45950000Y3833385D01*
X45949244Y3816730D01*
X45949256Y3816729D01*
X45949000Y3811083D01*
X45949000Y3378906D01*
X45955069Y3312115D01*
X46000906Y3165019D01*
X46002969Y3158398D01*
X46086264Y3020612D01*
X46200112Y2906764D01*
X46337898Y2823469D01*
X46491613Y2775570D01*
X46558409Y2769500D01*
X47865590Y2769501D01*
X47932387Y2775570D01*
X48086102Y2823469D01*
X48223888Y2906764D01*
X48223889Y2906766D01*
X48226906Y2908589D01*
X48318257Y2941665D01*
X48355724Y2944500D01*
X48497643Y2944500D01*
X48521072Y2943395D01*
X48533292Y2942241D01*
X48533296Y2942240D01*
X48601289Y2944378D01*
X48609111Y2944500D01*
X48635922Y2944500D01*
X48635925Y2944500D01*
X48635927Y2944501D01*
X48640458Y2944786D01*
X48657830Y2946155D01*
X48697569Y2947403D01*
X48708502Y2950580D01*
X48746756Y2958502D01*
X48758058Y2959929D01*
X48795038Y2974572D01*
X48817210Y2982163D01*
X48855398Y2993256D01*
X48865195Y2999051D01*
X48900289Y3016243D01*
X48910871Y3020432D01*
X48943046Y3043809D01*
X48962637Y3056678D01*
X48996865Y3076919D01*
X49004916Y3084971D01*
X49034629Y3110348D01*
X49043837Y3117037D01*
X49069176Y3147669D01*
X49084952Y3165008D01*
X49391144Y3471200D01*
X49408490Y3486981D01*
X49417931Y3494793D01*
X49417940Y3494798D01*
X49464527Y3544410D01*
X49469945Y3550000D01*
X49488908Y3568962D01*
X49491913Y3572372D01*
X49503238Y3585632D01*
X49523317Y3607013D01*
X49530448Y3614607D01*
X49535929Y3624579D01*
X49557384Y3657242D01*
X49564362Y3666236D01*
X49580151Y3702726D01*
X49590472Y3723791D01*
X49609625Y3758629D01*
X49609627Y3758632D01*
X49612457Y3769657D01*
X49625120Y3806641D01*
X49629635Y3817073D01*
X49635853Y3856340D01*
X49640613Y3879319D01*
X49646225Y3901172D01*
X49650500Y3917823D01*
X49650500Y3929212D01*
X49653566Y3968166D01*
X49655346Y3979404D01*
X49654539Y3987937D01*
X49664441Y4084582D01*
X49710575Y4170085D01*
X49785917Y4231425D01*
X49810727Y4242865D01*
X49815011Y4244561D01*
X49837210Y4252163D01*
X49875398Y4263256D01*
X49885195Y4269051D01*
X49920289Y4286243D01*
X49930871Y4290432D01*
X49963046Y4313809D01*
X49982637Y4326678D01*
X50016865Y4346919D01*
X50024916Y4354971D01*
X50054629Y4380348D01*
X50063837Y4387037D01*
X50089176Y4417669D01*
X50104964Y4435019D01*
X51096517Y5426570D01*
X51177298Y5480546D01*
X51272586Y5499500D01*
X52787789Y5499500D01*
X52883077Y5480546D01*
X52914536Y5464827D01*
X53027102Y5398256D01*
X53184931Y5352402D01*
X53221806Y5349500D01*
X53221808Y5349500D01*
X54528192Y5349500D01*
X54528194Y5349500D01*
X54565069Y5352402D01*
X54722898Y5398256D01*
X54864365Y5481919D01*
X54980581Y5598135D01*
X55064244Y5739602D01*
X55110098Y5897431D01*
X55113000Y5934306D01*
X55113000Y6200500D01*
X55131954Y6295788D01*
X55185930Y6376570D01*
X55266712Y6430546D01*
X55362000Y6449500D01*
X55627643Y6449500D01*
X55651072Y6448395D01*
X55663292Y6447241D01*
X55663296Y6447240D01*
X55731289Y6449378D01*
X55739111Y6449500D01*
X55765922Y6449500D01*
X55765925Y6449500D01*
X55765927Y6449501D01*
X55770458Y6449786D01*
X55787830Y6451155D01*
X55827569Y6452403D01*
X55838502Y6455580D01*
X55876756Y6463502D01*
X55888058Y6464929D01*
X55925038Y6479572D01*
X55947210Y6487163D01*
X55985398Y6498256D01*
X55995195Y6504051D01*
X56030289Y6521243D01*
X56040871Y6525432D01*
X56073046Y6548809D01*
X56092637Y6561678D01*
X56126865Y6581919D01*
X56134916Y6589971D01*
X56164629Y6615348D01*
X56173837Y6622037D01*
X56199176Y6652669D01*
X56214964Y6670019D01*
X56722016Y7177070D01*
X56802797Y7231046D01*
X56898085Y7250000D01*
X57326000Y7250000D01*
X57421288Y7231046D01*
X57502070Y7177070D01*
X57556046Y7096288D01*
X57575000Y7001000D01*
X57575000Y6152168D01*
X57581401Y6092629D01*
X57581403Y6092622D01*
X57631646Y5957913D01*
X57717810Y5842813D01*
X57717812Y5842811D01*
X57832912Y5756647D01*
X57967621Y5706404D01*
X57967628Y5706402D01*
X58027167Y5700001D01*
X58027175Y5700000D01*
X58871446Y5700000D01*
X59578553Y5700000D01*
X61471447Y5700000D01*
X60525000Y6646447D01*
X59578553Y5700001D01*
X59578553Y5700000D01*
X58871446Y5700000D01*
X60171446Y7000000D01*
X58871446Y8300000D01*
X59578553Y8300000D01*
X60525000Y7353554D01*
X61471447Y8300000D01*
X59578553Y8300000D01*
X58871446Y8300000D01*
X58749000Y8300000D01*
X58653712Y8318954D01*
X58572930Y8372930D01*
X58518954Y8453712D01*
X58500000Y8549000D01*
X58500000Y8826915D01*
X58518954Y8922203D01*
X58572930Y9002985D01*
X59038108Y9468162D01*
X60096516Y10526570D01*
X60177298Y10580546D01*
X60272586Y10599500D01*
X60408375Y10599500D01*
X60503663Y10580546D01*
X60557597Y10549833D01*
X60648005Y10482153D01*
X60682669Y10456204D01*
X60817517Y10405909D01*
X60877127Y10399500D01*
X63000499Y10399501D01*
X63095787Y10380547D01*
X63176569Y10326571D01*
X63230545Y10245789D01*
X63249499Y10150501D01*
X63249499Y8549000D01*
X63230545Y8453712D01*
X63176569Y8372930D01*
X63095787Y8318954D01*
X63000499Y8300000D01*
X62178554Y8300000D01*
X60878554Y7000000D01*
X62178554Y5700000D01*
X63000499Y5700000D01*
X63095787Y5681046D01*
X63176569Y5627070D01*
X63230545Y5546288D01*
X63249499Y5451000D01*
X63249499Y2008154D01*
X63248966Y1991867D01*
X63244067Y1917131D01*
X63243966Y1915655D01*
X63231848Y1746223D01*
X63227698Y1715408D01*
X63207276Y1612740D01*
X63206370Y1608389D01*
X63177722Y1476697D01*
X63170197Y1449587D01*
X63134380Y1344075D01*
X63131895Y1337097D01*
X63087147Y1217123D01*
X63077169Y1194011D01*
X63026720Y1091710D01*
X63021940Y1082506D01*
X62961829Y972421D01*
X62950323Y953417D01*
X62886246Y857519D01*
X62878545Y846636D01*
X62804074Y747154D01*
X62791946Y732196D01*
X62715564Y645100D01*
X62704427Y633208D01*
X62616792Y545573D01*
X62604899Y534435D01*
X62517800Y458051D01*
X62502843Y445924D01*
X62403363Y371454D01*
X62392479Y363752D01*
X62296580Y299675D01*
X62277579Y288171D01*
X62167518Y228072D01*
X62158310Y223290D01*
X62055974Y172825D01*
X62032864Y162848D01*
X61912910Y118107D01*
X61905932Y115622D01*
X61800419Y79805D01*
X61773308Y72280D01*
X61641581Y43625D01*
X61637232Y42720D01*
X61534587Y22302D01*
X61503770Y18151D01*
X61334342Y6034D01*
X61332870Y5933D01*
X61264475Y1449D01*
X61258130Y1033D01*
X61241844Y500D01*
X57549000Y500D01*
X57453712Y19454D01*
X57372930Y73430D01*
X57318954Y154212D01*
X57300000Y249500D01*
X57300000Y1778206D01*
X57300634Y1795969D01*
X57305240Y1860369D01*
X57315227Y2000000D01*
X57296343Y2264026D01*
X57240077Y2522678D01*
X57147574Y2770689D01*
X57020716Y3003011D01*
X56862087Y3214915D01*
X56674915Y3402087D01*
X56463011Y3560716D01*
X56378230Y3607010D01*
X56230691Y3687573D01*
X56230687Y3687575D01*
X56103722Y3734930D01*
X55982678Y3780077D01*
X55780293Y3824103D01*
X55724027Y3836343D01*
X55460000Y3855227D01*
X55195972Y3836343D01*
X55105814Y3816730D01*
X54937322Y3780077D01*
X54871410Y3755493D01*
X54689312Y3687575D01*
X54689308Y3687573D01*
X54456995Y3560720D01*
X54456988Y3560716D01*
X54245090Y3402092D01*
X54245086Y3402088D01*
X54216130Y3373133D01*
X54135347Y3319159D01*
X54040058Y3300208D01*
X53953051Y3315907D01*
X53877484Y3344091D01*
X53877485Y3344091D01*
X53817873Y3350500D01*
X52022134Y3350500D01*
X52022130Y3350500D01*
X52022128Y3350499D01*
X52009314Y3349122D01*
X51962519Y3344092D01*
X51962515Y3344091D01*
X51827670Y3293797D01*
X51712455Y3207547D01*
X51712453Y3207545D01*
X51626204Y3092331D01*
X51575908Y2957482D01*
X51569500Y2897877D01*
X51569500Y1102135D01*
X51569500Y1102132D01*
X51569501Y1102128D01*
X51570305Y1094653D01*
X51575908Y1042520D01*
X51575909Y1042515D01*
X51584301Y1020017D01*
X51600000Y933002D01*
X51600000Y249500D01*
X51581046Y154212D01*
X51527070Y73430D01*
X51446288Y19454D01*
X51351000Y500D01*
X7656599Y500D01*
X7561311Y19454D01*
X7480529Y73430D01*
X7426553Y154212D01*
X7407599Y249500D01*
X7426553Y344788D01*
X7480529Y425570D01*
X7561311Y479546D01*
X7569560Y482793D01*
X7632331Y506204D01*
X7747546Y592454D01*
X7833796Y707669D01*
X7845114Y738017D01*
X7896172Y820672D01*
X7974975Y877498D01*
X8069526Y899841D01*
X8078415Y900000D01*
X9137547Y900000D01*
X9147083Y899500D01*
X9155354Y899500D01*
X9352917Y899500D01*
X9362453Y900000D01*
X14079367Y900000D01*
X14128964Y892451D01*
X14129423Y894755D01*
X14142339Y892187D01*
X14142343Y892185D01*
X14210406Y886000D01*
X14210414Y886000D01*
X14669586Y886000D01*
X14669594Y886000D01*
X14737657Y892185D01*
X14737662Y892187D01*
X14750577Y894755D01*
X14751035Y892451D01*
X14800633Y900000D01*
X15349367Y900000D01*
X15398964Y892451D01*
X15399423Y894755D01*
X15412339Y892187D01*
X15412343Y892185D01*
X15480406Y886000D01*
X15480414Y886000D01*
X15939586Y886000D01*
X15939594Y886000D01*
X16007657Y892185D01*
X16007662Y892187D01*
X16020577Y894755D01*
X16021035Y892451D01*
X16070633Y900000D01*
X16619367Y900000D01*
X16668964Y892451D01*
X16669423Y894755D01*
X16682339Y892187D01*
X16682343Y892185D01*
X16750406Y886000D01*
X16750414Y886000D01*
X17209586Y886000D01*
X17209594Y886000D01*
X17277657Y892185D01*
X17277662Y892187D01*
X17290577Y894755D01*
X17291035Y892451D01*
X17340633Y900000D01*
X17889367Y900000D01*
X17938964Y892451D01*
X17939423Y894755D01*
X17952339Y892187D01*
X17952343Y892185D01*
X18020406Y886000D01*
X18020414Y886000D01*
X18479586Y886000D01*
X18479594Y886000D01*
X18547657Y892185D01*
X18547662Y892187D01*
X18560577Y894755D01*
X18561035Y892451D01*
X18610633Y900000D01*
X19159367Y900000D01*
X19208964Y892451D01*
X19209423Y894755D01*
X19222339Y892187D01*
X19222343Y892185D01*
X19290406Y886000D01*
X19290414Y886000D01*
X19749586Y886000D01*
X19749594Y886000D01*
X19817657Y892185D01*
X19817662Y892187D01*
X19830577Y894755D01*
X19831035Y892451D01*
X19880633Y900000D01*
X20429367Y900000D01*
X20478964Y892451D01*
X20479423Y894755D01*
X20492339Y892187D01*
X20492343Y892185D01*
X20560406Y886000D01*
X20560414Y886000D01*
X21019586Y886000D01*
X21019594Y886000D01*
X21087657Y892185D01*
X21087662Y892187D01*
X21100577Y894755D01*
X21101035Y892451D01*
X21150633Y900000D01*
X21701112Y900000D01*
X21749692Y895215D01*
X21762439Y892680D01*
X21809999Y888358D01*
X21810000Y888359D01*
X21810000Y888360D01*
X22310000Y888360D01*
X22357563Y892680D01*
X22514063Y941447D01*
X22654341Y1026248D01*
X22770252Y1142159D01*
X22855054Y1282438D01*
X22903820Y1438937D01*
X22903820Y1438938D01*
X22909999Y1506928D01*
X22910000Y1506949D01*
X22910000Y2023999D01*
X22909999Y2024000D01*
X22310001Y2024000D01*
X22310000Y2023999D01*
X22310000Y888360D01*
X21810000Y888360D01*
X21810000Y2275000D01*
X21828954Y2370288D01*
X21882930Y2451070D01*
X21963712Y2505046D01*
X22059000Y2524000D01*
X22909998Y2524000D01*
X22909999Y2524001D01*
X22909999Y3041053D01*
X22903818Y3109070D01*
X22855053Y3265564D01*
X22770252Y3405842D01*
X22654340Y3521754D01*
X22620180Y3542405D01*
X22548441Y3607923D01*
X22507235Y3695907D01*
X22500000Y3755493D01*
X22500000Y4085002D01*
X22501364Y4111030D01*
X22502105Y4118081D01*
X22505460Y4150000D01*
X22485674Y4338256D01*
X22427179Y4518284D01*
X22332533Y4682216D01*
X22332531Y4682219D01*
X22332530Y4682220D01*
X22205873Y4822886D01*
X22205872Y4822887D01*
X22205871Y4822888D01*
X22100423Y4899500D01*
X22052728Y4934153D01*
X21879810Y5011142D01*
X21879796Y5011146D01*
X21694646Y5050500D01*
X21505354Y5050500D01*
X21497083Y5050500D01*
X21487547Y5050000D01*
X19962453Y5050000D01*
X19952917Y5050500D01*
X19944646Y5050500D01*
X19755354Y5050500D01*
X19747083Y5050500D01*
X19737547Y5050000D01*
X18969080Y5050000D01*
X18873792Y5068954D01*
X18793010Y5122930D01*
X18772335Y5146381D01*
X18768083Y5151862D01*
X18768081Y5151865D01*
X18767296Y5152650D01*
X18760025Y5159922D01*
X18734656Y5189625D01*
X18732776Y5192212D01*
X18727963Y5198837D01*
X18727961Y5198839D01*
X18727959Y5198841D01*
X18697330Y5224180D01*
X18679979Y5239967D01*
X16922930Y6997016D01*
X16868954Y7077798D01*
X16850000Y7173086D01*
X16850000Y7701000D01*
X16868954Y7796288D01*
X16922930Y7877070D01*
X17003712Y7931046D01*
X17099000Y7950000D01*
X22321392Y7950000D01*
X22337697Y7960895D01*
X22358899Y7968573D01*
X22514270Y8016988D01*
X22654653Y8101852D01*
X22770648Y8217847D01*
X22855512Y8358230D01*
X22904315Y8514843D01*
X22910500Y8582906D01*
X22910500Y10117094D01*
X22904315Y10185157D01*
X22895839Y10212356D01*
X22885421Y10245789D01*
X22855512Y10341770D01*
X22770648Y10482153D01*
X22770647Y10482154D01*
X22770644Y10482159D01*
X22761360Y10494009D01*
X22764536Y10496498D01*
X22727139Y10552467D01*
X22708308Y10639936D01*
X22708103Y10646458D01*
X22707597Y10662569D01*
X22707596Y10662574D01*
X22704422Y10673500D01*
X22696498Y10711764D01*
X22695894Y10716538D01*
X22695071Y10723058D01*
X22680962Y10758693D01*
X22663507Y10854267D01*
X22664840Y10876383D01*
X22680460Y11025000D01*
X22660674Y11213256D01*
X22602179Y11393284D01*
X22590317Y11413830D01*
X22559088Y11505825D01*
X22565442Y11602772D01*
X22608412Y11689908D01*
X22675241Y11750257D01*
X22768340Y11807681D01*
X22768345Y11807685D01*
X22892315Y11931655D01*
X22892318Y11931659D01*
X22984358Y12080879D01*
X22984359Y12080880D01*
X23039504Y12247299D01*
X23039505Y12247306D01*
X23049999Y12350019D01*
X23050000Y12350029D01*
X23050000Y12474999D01*
X23049999Y12475000D01*
X21649000Y12475000D01*
X21553712Y12493954D01*
X21472930Y12547930D01*
X21418954Y12628712D01*
X21400000Y12724000D01*
X21400000Y13306819D01*
X21900000Y13102273D01*
X21900000Y12975001D01*
X21900001Y12975000D01*
X23074105Y12975000D01*
X23082238Y12980434D01*
X23177526Y12999388D01*
X23272814Y12980434D01*
X23353596Y12926458D01*
X24176570Y12103484D01*
X24230546Y12022702D01*
X24249500Y11927414D01*
X24249500Y7947357D01*
X24248395Y7923928D01*
X24247240Y7911708D01*
X24247240Y7911705D01*
X24247240Y7911704D01*
X24248832Y7861046D01*
X24249377Y7843711D01*
X24249500Y7835889D01*
X24249500Y7809075D01*
X24249508Y7808947D01*
X24250000Y7793306D01*
X24250000Y6561984D01*
X24231046Y6466696D01*
X24216641Y6437485D01*
X24154189Y6329314D01*
X24147821Y6318284D01*
X24128439Y6258632D01*
X24089325Y6138256D01*
X24069540Y5950000D01*
X24089325Y5761745D01*
X24117909Y5673774D01*
X24147821Y5581716D01*
X24242467Y5417784D01*
X24242469Y5417781D01*
X24356698Y5290918D01*
X24369129Y5277112D01*
X24475953Y5199500D01*
X24522271Y5165848D01*
X24695189Y5088859D01*
X24695192Y5088858D01*
X24695197Y5088856D01*
X24880354Y5049500D01*
X24893118Y5046787D01*
X24892718Y5044908D01*
X24969474Y5021076D01*
X25026735Y4978319D01*
X25189818Y4815236D01*
X25243794Y4734454D01*
X25262748Y4639166D01*
X25260618Y4606666D01*
X25250000Y4526013D01*
X25250000Y4399272D01*
X25231046Y4303984D01*
X25177070Y4223202D01*
X25120964Y4181076D01*
X25109133Y4174572D01*
X25076955Y4151194D01*
X25057359Y4138322D01*
X25023134Y4118081D01*
X25010757Y4108480D01*
X25009468Y4110142D01*
X24945922Y4067693D01*
X24892902Y4054229D01*
X24893118Y4053213D01*
X24695203Y4011146D01*
X24695189Y4011142D01*
X24522271Y3934153D01*
X24369126Y3822886D01*
X24242469Y3682220D01*
X24164375Y3546956D01*
X24147821Y3518284D01*
X24141003Y3497301D01*
X24089325Y3338256D01*
X24069540Y3150000D01*
X24089325Y2961745D01*
X24101311Y2924858D01*
X24147821Y2781716D01*
X24242467Y2617784D01*
X24242469Y2617781D01*
X24368715Y2477572D01*
X24369129Y2477112D01*
X24412703Y2445454D01*
X24522271Y2365848D01*
X24695189Y2288859D01*
X24695192Y2288858D01*
X24695197Y2288856D01*
X24880354Y2249500D01*
X24967992Y2249500D01*
X25020502Y2239056D01*
X25046397Y2244559D01*
X25098165Y2250000D01*
X26430170Y2250000D01*
X26525458Y2231046D01*
X26606240Y2177070D01*
X26660216Y2096288D01*
X26677040Y2033499D01*
X26690120Y1934134D01*
X26749320Y1791214D01*
X26843488Y1668493D01*
X26843492Y1668489D01*
X26966213Y1574321D01*
X27109132Y1515121D01*
X27170142Y1507089D01*
X27191026Y1500000D01*
X31676914Y1500000D01*
X31772202Y1481046D01*
X31852984Y1427070D01*
X31921192Y1358862D01*
X31936981Y1341509D01*
X31944799Y1332058D01*
X31994372Y1285507D01*
X31999988Y1280065D01*
X32014699Y1265355D01*
X32018965Y1261089D01*
X32018972Y1261083D01*
X32022315Y1258136D01*
X32035607Y1246785D01*
X32064607Y1219552D01*
X32074579Y1214070D01*
X32107238Y1192618D01*
X32116236Y1185638D01*
X32152718Y1169851D01*
X32173779Y1159533D01*
X32183759Y1154047D01*
X32208632Y1140373D01*
X32219660Y1137542D01*
X32256633Y1124883D01*
X32267069Y1120367D01*
X32267074Y1120365D01*
X32306343Y1114146D01*
X32329300Y1109392D01*
X32367823Y1099500D01*
X32379206Y1099500D01*
X32418160Y1096435D01*
X32429405Y1094653D01*
X32468989Y1098395D01*
X32492422Y1099500D01*
X42902643Y1099500D01*
X42926072Y1098395D01*
X42938292Y1097241D01*
X42938296Y1097240D01*
X43006289Y1099378D01*
X43014111Y1099500D01*
X43040922Y1099500D01*
X43040925Y1099500D01*
X43040927Y1099501D01*
X43045458Y1099786D01*
X43062830Y1101155D01*
X43102569Y1102403D01*
X43113502Y1105580D01*
X43151756Y1113502D01*
X43163058Y1114929D01*
X43200038Y1129572D01*
X43222210Y1137163D01*
X43260398Y1148256D01*
X43270195Y1154051D01*
X43305289Y1171243D01*
X43315871Y1175432D01*
X43348046Y1198809D01*
X43367637Y1211678D01*
X43401865Y1231919D01*
X43409916Y1239971D01*
X43439629Y1265348D01*
X43448837Y1272037D01*
X43474176Y1302669D01*
X43489952Y1320008D01*
X44141144Y1971200D01*
X44158490Y1986981D01*
X44167931Y1994793D01*
X44167940Y1994798D01*
X44214527Y2044410D01*
X44219945Y2050000D01*
X44238908Y2068962D01*
X44241913Y2072372D01*
X44253238Y2085632D01*
X44280445Y2114604D01*
X44280444Y2114604D01*
X44280448Y2114607D01*
X44285929Y2124579D01*
X44307384Y2157242D01*
X44314362Y2166236D01*
X44330151Y2202726D01*
X44340472Y2223791D01*
X44359625Y2258629D01*
X44359627Y2258632D01*
X44362457Y2269657D01*
X44375120Y2306641D01*
X44379635Y2317073D01*
X44385852Y2356334D01*
X44390607Y2379298D01*
X44400500Y2417823D01*
X44400500Y2429213D01*
X44403566Y2468167D01*
X44405346Y2479405D01*
X44401605Y2518983D01*
X44400500Y2542414D01*
X44400500Y5152650D01*
X44401605Y5176085D01*
X44402757Y5188285D01*
X44402760Y5188296D01*
X44400623Y5256292D01*
X44400500Y5264113D01*
X44400500Y5290918D01*
X44400216Y5295415D01*
X44398845Y5312833D01*
X44397597Y5352569D01*
X44397596Y5352574D01*
X44394422Y5363500D01*
X44386498Y5401764D01*
X44385894Y5406538D01*
X44385071Y5413058D01*
X44370435Y5450024D01*
X44362835Y5472221D01*
X44360416Y5480546D01*
X44351744Y5510398D01*
X44345944Y5520204D01*
X44328759Y5555284D01*
X44324568Y5565871D01*
X44301189Y5598050D01*
X44288319Y5617645D01*
X44268084Y5651861D01*
X44268082Y5651864D01*
X44268081Y5651865D01*
X44268077Y5651869D01*
X44260025Y5659922D01*
X44234656Y5689625D01*
X44232776Y5692212D01*
X44227963Y5698837D01*
X44227961Y5698839D01*
X44227959Y5698841D01*
X44197330Y5724180D01*
X44179979Y5739967D01*
X43393810Y6526136D01*
X43378025Y6543484D01*
X43370201Y6552941D01*
X43320625Y6599496D01*
X43315011Y6604936D01*
X43296041Y6623906D01*
X43292697Y6626854D01*
X43279386Y6638222D01*
X43250393Y6665448D01*
X43250390Y6665450D01*
X43250388Y6665452D01*
X43240409Y6670938D01*
X43207763Y6692383D01*
X43198767Y6699361D01*
X43198768Y6699361D01*
X43162281Y6715150D01*
X43141230Y6725463D01*
X43131357Y6730890D01*
X43056983Y6793401D01*
X43012192Y6879615D01*
X43003803Y6976407D01*
X43013575Y7023174D01*
X43044434Y7122208D01*
X43044434Y7122210D01*
X43047414Y7155000D01*
X40528586Y7155000D01*
X40531565Y7122210D01*
X40531566Y7122205D01*
X40579426Y6968610D01*
X40579429Y6968605D01*
X40621324Y6899302D01*
X40654400Y6807950D01*
X40650000Y6710895D01*
X40621325Y6641668D01*
X40578969Y6571604D01*
X40578967Y6571599D01*
X40531070Y6417888D01*
X40531069Y6417881D01*
X40525000Y6351105D01*
X40525000Y5918906D01*
X40531069Y5852115D01*
X40578968Y5698400D01*
X40578970Y5698395D01*
X40621324Y5628334D01*
X40654400Y5536983D01*
X40650000Y5439928D01*
X40621325Y5370701D01*
X40579429Y5301398D01*
X40579426Y5301391D01*
X40531566Y5147796D01*
X40531565Y5147791D01*
X40528585Y5115001D01*
X40528586Y5115000D01*
X41789000Y5115000D01*
X41884288Y5096046D01*
X41965070Y5042070D01*
X42019046Y4961288D01*
X42038000Y4866000D01*
X42038000Y4864000D01*
X42019046Y4768712D01*
X41965070Y4687930D01*
X41884288Y4633954D01*
X41789000Y4615000D01*
X40476176Y4615000D01*
X40416351Y4600255D01*
X40405075Y4600000D01*
X39023086Y4600000D01*
X38927798Y4618954D01*
X38847016Y4672930D01*
X37628810Y5891136D01*
X37613025Y5908484D01*
X37605201Y5917941D01*
X37555625Y5964496D01*
X37550011Y5969936D01*
X37531041Y5988906D01*
X37527697Y5991854D01*
X37514386Y6003222D01*
X37485393Y6030448D01*
X37485390Y6030450D01*
X37485388Y6030452D01*
X37475409Y6035938D01*
X37442763Y6057383D01*
X37433767Y6064361D01*
X37420280Y6072337D01*
X37421825Y6074951D01*
X37362875Y6115703D01*
X37310183Y6197327D01*
X37293996Y6263659D01*
X37289999Y6302797D01*
X37282121Y6326570D01*
X37251862Y6417887D01*
X37234814Y6469334D01*
X37142712Y6618656D01*
X37018656Y6742712D01*
X37016321Y6744152D01*
X36949285Y6785500D01*
X36869334Y6834814D01*
X36869332Y6834815D01*
X36869330Y6834816D01*
X36869332Y6834816D01*
X36702802Y6889998D01*
X36702798Y6889999D01*
X36702797Y6889999D01*
X36600009Y6900500D01*
X36600005Y6900500D01*
X35849984Y6900500D01*
X35846530Y6900323D01*
X35833860Y6900000D01*
X34849000Y6900000D01*
X34753712Y6918954D01*
X34672930Y6972930D01*
X34618954Y7053712D01*
X34600000Y7149000D01*
X34600000Y7614289D01*
X34618954Y7709577D01*
X34672930Y7790359D01*
X34718276Y7826214D01*
X34768656Y7857288D01*
X34892712Y7981344D01*
X34984814Y8130666D01*
X34993562Y8157067D01*
X35041526Y8241556D01*
X35118172Y8301260D01*
X35211831Y8327088D01*
X35308244Y8315108D01*
X35331187Y8306225D01*
X35370197Y8288856D01*
X35555354Y8249500D01*
X35744645Y8249500D01*
X35744646Y8249500D01*
X35929803Y8288856D01*
X35941411Y8294024D01*
X36102728Y8365848D01*
X36102728Y8365849D01*
X36102730Y8365849D01*
X36255871Y8477112D01*
X36382533Y8617784D01*
X36477179Y8781716D01*
X36535674Y8961744D01*
X36555460Y9150000D01*
X36535674Y9338256D01*
X36477179Y9518284D01*
X36382533Y9682216D01*
X36382531Y9682219D01*
X36382530Y9682220D01*
X36255873Y9822886D01*
X36255872Y9822887D01*
X36255871Y9822888D01*
X36163065Y9890315D01*
X36102728Y9934153D01*
X35929810Y10011142D01*
X35929796Y10011146D01*
X35744646Y10050500D01*
X35555354Y10050500D01*
X35547083Y10050500D01*
X35537547Y10050000D01*
X35197392Y10050000D01*
X35102104Y10068954D01*
X35021322Y10122930D01*
X34985463Y10168282D01*
X34918336Y10277112D01*
X34892712Y10318656D01*
X34768656Y10442712D01*
X34743688Y10458112D01*
X34704713Y10482152D01*
X34619334Y10534814D01*
X34619332Y10534815D01*
X34619330Y10534816D01*
X34619332Y10534816D01*
X34452802Y10589998D01*
X34452798Y10589999D01*
X34452797Y10589999D01*
X34350009Y10600500D01*
X34350005Y10600500D01*
X33699984Y10600500D01*
X33696530Y10600323D01*
X33683860Y10600000D01*
X31216164Y10600000D01*
X31203497Y10600322D01*
X31200015Y10600500D01*
X31200009Y10600500D01*
X31200002Y10600500D01*
X30549993Y10600500D01*
X30447199Y10589999D01*
X30364636Y10562639D01*
X30286313Y10550000D01*
X29566164Y10550000D01*
X29553497Y10550322D01*
X29550015Y10550500D01*
X29550009Y10550500D01*
X29550002Y10550500D01*
X28799993Y10550500D01*
X28697199Y10539999D01*
X28530667Y10484815D01*
X28381346Y10392714D01*
X28257286Y10268654D01*
X28165184Y10119332D01*
X28110002Y9952803D01*
X28110001Y9952798D01*
X28110001Y9952797D01*
X28109132Y9944291D01*
X28099762Y9852569D01*
X28099500Y9850009D01*
X28099500Y9157255D01*
X28099501Y9149000D01*
X28080547Y9053712D01*
X28026571Y8972931D01*
X27945789Y8918954D01*
X27850501Y8900000D01*
X26224000Y8900000D01*
X26128712Y8918954D01*
X26047930Y8972930D01*
X25993954Y9053712D01*
X25975000Y9149000D01*
X25975000Y9400001D01*
X26475000Y9400001D01*
X26475001Y9400000D01*
X27299998Y9400000D01*
X27299999Y9400001D01*
X27299999Y9849968D01*
X27299998Y9849985D01*
X27289505Y9952700D01*
X27289504Y9952703D01*
X27234359Y10119120D01*
X27234358Y10119122D01*
X27142318Y10268342D01*
X27142315Y10268346D01*
X27018345Y10392316D01*
X27018341Y10392319D01*
X26869121Y10484359D01*
X26869120Y10484360D01*
X26702701Y10539505D01*
X26702694Y10539506D01*
X26599981Y10550000D01*
X26475001Y10550000D01*
X26475000Y10549999D01*
X26475000Y9400001D01*
X25975000Y9400001D01*
X25975000Y10550001D01*
X25850021Y10550000D01*
X25824803Y10547423D01*
X25728082Y10556596D01*
X25642234Y10602084D01*
X25580328Y10676962D01*
X25551789Y10769831D01*
X25550500Y10795134D01*
X25550500Y11751000D01*
X25569454Y11846288D01*
X25623430Y11927070D01*
X25704212Y11981046D01*
X25799500Y12000000D01*
X32172544Y12000000D01*
X32267832Y11981046D01*
X32303260Y11962930D01*
X32380666Y11915186D01*
X32380669Y11915185D01*
X32380667Y11915185D01*
X32515730Y11870430D01*
X32547203Y11860001D01*
X32649991Y11849500D01*
X33400008Y11849501D01*
X33502797Y11860001D01*
X33669334Y11915186D01*
X33818656Y12007288D01*
X33838440Y12027073D01*
X33919219Y12081046D01*
X34014507Y12100000D01*
X34985493Y12100000D01*
X35080781Y12081046D01*
X35161559Y12027073D01*
X35181344Y12007288D01*
X35330666Y11915186D01*
X35330669Y11915185D01*
X35330667Y11915185D01*
X35465730Y11870430D01*
X35497203Y11860001D01*
X35599991Y11849500D01*
X35600469Y11849501D01*
X35600630Y11849468D01*
X35606321Y11849178D01*
X35606278Y11848346D01*
X35695755Y11830561D01*
X35776544Y11776596D01*
X35830532Y11695823D01*
X35849500Y11600537D01*
X35849500Y11597357D01*
X35848395Y11573928D01*
X35847240Y11561708D01*
X35847240Y11561705D01*
X35847240Y11561704D01*
X35848853Y11510398D01*
X35849377Y11493711D01*
X35849500Y11485889D01*
X35849500Y11459070D01*
X35849775Y11454681D01*
X35851153Y11437172D01*
X35852402Y11397435D01*
X35852402Y11397432D01*
X35852403Y11397431D01*
X35855580Y11386492D01*
X35863500Y11348248D01*
X35864928Y11336944D01*
X35879565Y11299973D01*
X35887161Y11277788D01*
X35898255Y11239604D01*
X35898255Y11239603D01*
X35904048Y11229809D01*
X35921240Y11194716D01*
X35925430Y11184133D01*
X35925432Y11184129D01*
X35948802Y11151962D01*
X35961673Y11132368D01*
X35981919Y11098135D01*
X35989978Y11090076D01*
X36015344Y11060375D01*
X36022037Y11051163D01*
X36022038Y11051162D01*
X36052662Y11025828D01*
X36070014Y11010040D01*
X38971192Y8108862D01*
X38986981Y8091509D01*
X38994799Y8082058D01*
X39044372Y8035507D01*
X39049988Y8030065D01*
X39063064Y8016990D01*
X39068966Y8011088D01*
X39068973Y8011082D01*
X39072314Y8008137D01*
X39085618Y7996774D01*
X39114607Y7969552D01*
X39116382Y7968576D01*
X39124576Y7964072D01*
X39157244Y7942613D01*
X39166237Y7935637D01*
X39202733Y7919844D01*
X39223791Y7909528D01*
X39258632Y7890373D01*
X39266804Y7888276D01*
X39269651Y7887544D01*
X39306624Y7874887D01*
X39317074Y7870364D01*
X39356341Y7864146D01*
X39379316Y7859387D01*
X39417817Y7849501D01*
X39417821Y7849501D01*
X39417823Y7849500D01*
X39429207Y7849500D01*
X39468158Y7846435D01*
X39479405Y7844653D01*
X39516532Y7848163D01*
X39518992Y7848395D01*
X39542424Y7849500D01*
X40273608Y7849500D01*
X40368896Y7830546D01*
X40449678Y7776570D01*
X40503654Y7695788D01*
X40507083Y7678545D01*
X40528586Y7655000D01*
X43047414Y7655000D01*
X43047414Y7655001D01*
X43044434Y7687791D01*
X43044433Y7687796D01*
X42996573Y7841391D01*
X42994102Y7846881D01*
X42972277Y7941553D01*
X42988342Y8037370D01*
X43039852Y8119746D01*
X43045060Y8125116D01*
X43891144Y8971200D01*
X43908490Y8986981D01*
X43917931Y8994793D01*
X43917940Y8994798D01*
X43964527Y9044410D01*
X43969945Y9050000D01*
X43988909Y9068963D01*
X43991914Y9072373D01*
X44003239Y9085633D01*
X44030445Y9114604D01*
X44030444Y9114604D01*
X44030448Y9114607D01*
X44035930Y9124580D01*
X44057395Y9157255D01*
X44064363Y9166237D01*
X44080157Y9202738D01*
X44090466Y9223782D01*
X44109627Y9258632D01*
X44112458Y9269664D01*
X44125117Y9306633D01*
X44129636Y9317074D01*
X44135855Y9356345D01*
X44140612Y9379317D01*
X44150500Y9417823D01*
X44150500Y9429207D01*
X44153566Y9468162D01*
X44154285Y9472702D01*
X44155347Y9479405D01*
X44151604Y9518993D01*
X44150500Y9542424D01*
X44150500Y12027651D01*
X44151605Y12051086D01*
X44152757Y12063286D01*
X44152760Y12063297D01*
X44150623Y12131293D01*
X44150500Y12139114D01*
X44150500Y12165921D01*
X44150491Y12166064D01*
X44150000Y12181699D01*
X44150000Y13136965D01*
X44168954Y13232253D01*
X44222930Y13313035D01*
X44986965Y14077070D01*
X45067747Y14131046D01*
X45163035Y14150000D01*
X45701000Y14150000D01*
X45796288Y14131046D01*
G37*
%TD.AperFunction*%
%TA.AperFunction,Conductor*%
G36*
X19297893Y22230546D02*
G01*
X19378675Y22176570D01*
X19432651Y22095788D01*
X19451605Y22000500D01*
X19432651Y21905212D01*
X19378675Y21824430D01*
X19348964Y21799055D01*
X19244126Y21722886D01*
X19117469Y21582220D01*
X19117464Y21582213D01*
X19026409Y21424500D01*
X18962351Y21351455D01*
X18875215Y21308484D01*
X18810769Y21300000D01*
X18631829Y21300000D01*
X18620584Y21300443D01*
X18620579Y21300308D01*
X18615694Y21300500D01*
X17584306Y21300500D01*
X17584305Y21300500D01*
X17579421Y21300308D01*
X17579415Y21300443D01*
X17568171Y21300000D01*
X16131829Y21300000D01*
X16120584Y21300443D01*
X16120579Y21300308D01*
X16115694Y21300500D01*
X15084306Y21300500D01*
X15084305Y21300500D01*
X15079421Y21300308D01*
X15079415Y21300443D01*
X15068171Y21300000D01*
X14661604Y21300000D01*
X14566316Y21318954D01*
X14566315Y21318954D01*
X14552843Y21324535D01*
X14552841Y21324536D01*
X14406762Y21385044D01*
X14406760Y21385045D01*
X14337284Y21394191D01*
X14277314Y21402086D01*
X14250000Y21405682D01*
X14249999Y21405682D01*
X14226817Y21402630D01*
X14194317Y21400500D01*
X12605683Y21400500D01*
X12573183Y21402630D01*
X12550000Y21405682D01*
X12523019Y21402130D01*
X12490519Y21400000D01*
X11163801Y21400000D01*
X11068513Y21418954D01*
X11006408Y21460451D01*
X11004724Y21458319D01*
X10993341Y21467319D01*
X10844121Y21559359D01*
X10844120Y21559360D01*
X10677701Y21614505D01*
X10677694Y21614506D01*
X10574981Y21625000D01*
X10462501Y21625000D01*
X10462500Y21624999D01*
X10462500Y20249000D01*
X10443546Y20153712D01*
X10389570Y20072930D01*
X10308788Y20018954D01*
X10213500Y20000000D01*
X8599500Y20000000D01*
X8504212Y20018954D01*
X8423430Y20072930D01*
X8369454Y20153712D01*
X8350500Y20249000D01*
X8350500Y20500001D01*
X9150000Y20500001D01*
X9150001Y20500000D01*
X9962499Y20500000D01*
X9962500Y20500001D01*
X9962500Y21625001D01*
X9850024Y21625000D01*
X9747300Y21614506D01*
X9747297Y21614505D01*
X9580880Y21559360D01*
X9580878Y21559359D01*
X9431658Y21467319D01*
X9431654Y21467316D01*
X9307684Y21343346D01*
X9307681Y21343342D01*
X9215641Y21194122D01*
X9215640Y21194121D01*
X9160495Y21027702D01*
X9160494Y21027695D01*
X9150000Y20924982D01*
X9150000Y20500001D01*
X8350500Y20500001D01*
X8350499Y20924998D01*
X8350499Y20925008D01*
X8339999Y21027797D01*
X8338312Y21032887D01*
X8296768Y21158260D01*
X8284814Y21194334D01*
X8192712Y21343656D01*
X8068656Y21467712D01*
X8040927Y21484815D01*
X7987442Y21517805D01*
X7919334Y21559814D01*
X7919332Y21559815D01*
X7919330Y21559816D01*
X7919332Y21559816D01*
X7752802Y21614998D01*
X7752798Y21614999D01*
X7752797Y21614999D01*
X7650009Y21625500D01*
X7650005Y21625500D01*
X6924993Y21625500D01*
X6822199Y21614999D01*
X6655667Y21559815D01*
X6506346Y21467714D01*
X6382286Y21343654D01*
X6290184Y21194332D01*
X6249210Y21070678D01*
X6201246Y20986188D01*
X6124600Y20926485D01*
X6030940Y20900658D01*
X6012849Y20900000D01*
X4324405Y20900000D01*
X4259962Y20908484D01*
X4251357Y20910790D01*
X4235408Y20915063D01*
X4235406Y20915064D01*
X4235401Y20915065D01*
X4000005Y20935659D01*
X3999995Y20935659D01*
X3764598Y20915065D01*
X3536335Y20853903D01*
X3536333Y20853902D01*
X3322177Y20754039D01*
X3322169Y20754035D01*
X3128600Y20618496D01*
X2961504Y20451400D01*
X2825965Y20257831D01*
X2825961Y20257823D01*
X2726098Y20043667D01*
X2726097Y20043665D01*
X2696637Y19933715D01*
X2665000Y19815640D01*
X2664936Y19815403D01*
X2657166Y19726597D01*
X2637436Y19658910D01*
X2649052Y19526148D01*
X2650000Y19504446D01*
X2650000Y17115550D01*
X2649052Y17093847D01*
X2644341Y17040004D01*
X2644341Y17039998D01*
X2649052Y16986156D01*
X2650000Y16964452D01*
X2650000Y14575550D01*
X2649052Y14553847D01*
X2644341Y14500004D01*
X2644341Y14499998D01*
X2644551Y14497598D01*
X2648474Y14452756D01*
X2649052Y14446156D01*
X2650000Y14424452D01*
X2650000Y12035550D01*
X2649052Y12013847D01*
X2644341Y11960004D01*
X2644341Y11959998D01*
X2649052Y11906156D01*
X2650000Y11884452D01*
X2650000Y9695236D01*
X2669364Y9670000D01*
X2820142Y9670000D01*
X2827852Y9668467D01*
X2840737Y9670000D01*
X3566314Y9670000D01*
X3540507Y9629844D01*
X3500000Y9491889D01*
X3500000Y9348111D01*
X3540507Y9210156D01*
X3566314Y9170000D01*
X2841220Y9170000D01*
X2832521Y9171731D01*
X2803333Y9170000D01*
X2650000Y9170000D01*
X2650000Y7793867D01*
X2649643Y7780536D01*
X2649500Y7777869D01*
X2649500Y5982135D01*
X2649500Y5982132D01*
X2649501Y5982128D01*
X2650329Y5974430D01*
X2655908Y5922520D01*
X2655909Y5922516D01*
X2685637Y5842811D01*
X2706204Y5787669D01*
X2792454Y5672454D01*
X2907669Y5586204D01*
X3042517Y5535909D01*
X3102127Y5529500D01*
X4897872Y5529501D01*
X4957483Y5535909D01*
X5092331Y5586204D01*
X5207546Y5672454D01*
X5293796Y5787669D01*
X5344091Y5922517D01*
X5350500Y5982127D01*
X5350500Y6744190D01*
X6825000Y6744190D01*
X6835407Y6642330D01*
X6890095Y6477288D01*
X6890097Y6477283D01*
X6981366Y6329314D01*
X6981370Y6329309D01*
X7104308Y6206371D01*
X7104313Y6206367D01*
X7252282Y6115098D01*
X7252287Y6115096D01*
X7417329Y6060408D01*
X7519189Y6050001D01*
X7519200Y6050000D01*
X7562499Y6050000D01*
X7562500Y6050001D01*
X7562500Y6999999D01*
X7562499Y7000000D01*
X6825001Y7000000D01*
X6825000Y6999999D01*
X6825000Y6744190D01*
X5350500Y6744190D01*
X5350499Y7777872D01*
X5350498Y7777876D01*
X5350357Y7780516D01*
X5350000Y7793847D01*
X5350000Y9170000D01*
X4433686Y9170000D01*
X4459493Y9210156D01*
X4500000Y9348111D01*
X4500000Y9491889D01*
X4459493Y9629844D01*
X4433686Y9670000D01*
X5337132Y9670000D01*
X5390315Y9716640D01*
X5482314Y9747870D01*
X5514815Y9750000D01*
X5975500Y9750000D01*
X6070788Y9731046D01*
X6151570Y9677070D01*
X6205546Y9596288D01*
X6224500Y9501000D01*
X6224500Y8825003D01*
X6224501Y8824986D01*
X6235001Y8722200D01*
X6286072Y8568081D01*
X6290186Y8555666D01*
X6382288Y8406344D01*
X6506344Y8282288D01*
X6655666Y8190186D01*
X6669829Y8185493D01*
X6680542Y8181943D01*
X6765032Y8133979D01*
X6824736Y8057333D01*
X6850564Y7963674D01*
X6838586Y7867266D01*
X6835407Y7857673D01*
X6825000Y7755811D01*
X6825000Y7500001D01*
X6825001Y7500000D01*
X7813500Y7500000D01*
X7908788Y7481046D01*
X7989570Y7427070D01*
X8043546Y7346288D01*
X8062500Y7251000D01*
X8062500Y6050001D01*
X8062501Y6050000D01*
X9377997Y6050000D01*
X9390664Y6049678D01*
X9394146Y6049501D01*
X9394152Y6049500D01*
X9394158Y6049500D01*
X9734961Y6049500D01*
X9830249Y6030546D01*
X9911031Y5976570D01*
X9965007Y5895788D01*
X9983961Y5800500D01*
X9965007Y5705212D01*
X9946889Y5669780D01*
X9915640Y5619119D01*
X9860495Y5452702D01*
X9860494Y5452695D01*
X9850000Y5349982D01*
X9850000Y5225001D01*
X9850001Y5225000D01*
X10999999Y5225000D01*
X11000000Y5225001D01*
X11500000Y5225001D01*
X11500001Y5225000D01*
X12649998Y5225000D01*
X12649999Y5225001D01*
X12649999Y5349968D01*
X12649998Y5349985D01*
X12639505Y5452700D01*
X12639504Y5452703D01*
X12584359Y5619120D01*
X12584358Y5619122D01*
X12492318Y5768342D01*
X12492315Y5768346D01*
X12368345Y5892316D01*
X12368341Y5892319D01*
X12219121Y5984359D01*
X12219120Y5984360D01*
X12052701Y6039505D01*
X12052694Y6039506D01*
X11949981Y6050000D01*
X11500001Y6050000D01*
X11500000Y6049999D01*
X11500000Y5225001D01*
X11000000Y5225001D01*
X11000000Y8185493D01*
X11018954Y8280781D01*
X11072927Y8361560D01*
X11117712Y8406344D01*
X11209814Y8555666D01*
X11264999Y8722203D01*
X11275500Y8824991D01*
X11275499Y9828067D01*
X11294453Y9923353D01*
X11348429Y10004134D01*
X11429211Y10058111D01*
X11524499Y10077065D01*
X11576266Y10071625D01*
X11680354Y10049500D01*
X11680355Y10049500D01*
X11869645Y10049500D01*
X11869646Y10049500D01*
X12054803Y10088856D01*
X12122404Y10118954D01*
X12227728Y10165848D01*
X12227728Y10165849D01*
X12227730Y10165849D01*
X12380871Y10277112D01*
X12507533Y10417784D01*
X12602179Y10581716D01*
X12660674Y10761744D01*
X12680460Y10950000D01*
X12660674Y11138256D01*
X12602179Y11318284D01*
X12507533Y11482216D01*
X12507531Y11482219D01*
X12507530Y11482220D01*
X12380873Y11622886D01*
X12380872Y11622887D01*
X12380871Y11622888D01*
X12252640Y11716053D01*
X12186693Y11787395D01*
X12153066Y11878545D01*
X12150000Y11917497D01*
X12150000Y12410697D01*
X12150500Y12418644D01*
X12150500Y12441713D01*
X12153566Y12480667D01*
X12155346Y12491905D01*
X12151605Y12531483D01*
X12150500Y12554914D01*
X12150500Y13627414D01*
X12169454Y13722702D01*
X12223430Y13803484D01*
X13946516Y15526570D01*
X14027298Y15580546D01*
X14122586Y15599500D01*
X14214974Y15599500D01*
X14250303Y15596161D01*
X14258825Y15595625D01*
X14258830Y15595624D01*
X14258834Y15595625D01*
X14266628Y15595134D01*
X14360539Y15570237D01*
X14437773Y15511297D01*
X14486573Y15427287D01*
X14500000Y15346625D01*
X14500000Y14550000D01*
X14462531Y14512531D01*
X14427070Y14459458D01*
X14395418Y14435676D01*
X14396800Y14433774D01*
X14351960Y14401198D01*
X14332365Y14388327D01*
X14298138Y14368085D01*
X14298131Y14368079D01*
X14290071Y14360019D01*
X14260380Y14334661D01*
X14251171Y14327970D01*
X14251156Y14327957D01*
X14225815Y14297325D01*
X14210032Y14279979D01*
X14101735Y14171682D01*
X14020953Y14117706D01*
X13967901Y14104230D01*
X13968118Y14103213D01*
X13770203Y14061146D01*
X13770189Y14061142D01*
X13597271Y13984153D01*
X13444126Y13872886D01*
X13317469Y13732220D01*
X13222822Y13568286D01*
X13164325Y13388256D01*
X13144540Y13200000D01*
X13164325Y13011745D01*
X13192037Y12926458D01*
X13222821Y12831716D01*
X13317467Y12667784D01*
X13317469Y12667781D01*
X13424624Y12548774D01*
X13444129Y12527112D01*
X13543113Y12455196D01*
X13597271Y12415848D01*
X13770189Y12338859D01*
X13770192Y12338858D01*
X13770197Y12338856D01*
X13955354Y12299500D01*
X14144645Y12299500D01*
X14144646Y12299500D01*
X14329803Y12338856D01*
X14340014Y12343402D01*
X14502728Y12415848D01*
X14502728Y12415849D01*
X14502730Y12415849D01*
X14655871Y12527112D01*
X14782533Y12667784D01*
X14877179Y12831716D01*
X14890685Y12873284D01*
X14938153Y12958046D01*
X15014449Y13018195D01*
X15107956Y13044568D01*
X15147023Y13044569D01*
X15245556Y13036818D01*
X15312819Y13049500D01*
X16115693Y13049500D01*
X16115694Y13049500D01*
X16115694Y13049501D01*
X16120579Y13049692D01*
X16120584Y13049558D01*
X16131829Y13050000D01*
X17568171Y13050000D01*
X17579415Y13049558D01*
X17579421Y13049692D01*
X17584305Y13049501D01*
X17584306Y13049500D01*
X17584307Y13049500D01*
X18615693Y13049500D01*
X18615694Y13049500D01*
X18615694Y13049501D01*
X18620579Y13049692D01*
X18620584Y13049558D01*
X18631829Y13050000D01*
X19192638Y13050000D01*
X19287926Y13031046D01*
X19357976Y12984241D01*
X19359425Y12985849D01*
X19369126Y12977115D01*
X19369129Y12977112D01*
X19441098Y12924824D01*
X19522271Y12865848D01*
X19695189Y12788859D01*
X19695192Y12788858D01*
X19695197Y12788856D01*
X19880354Y12749500D01*
X20001001Y12749500D01*
X20096289Y12730546D01*
X20177071Y12676570D01*
X20231047Y12595788D01*
X20250001Y12500500D01*
X20250001Y12350024D01*
X20260494Y12247301D01*
X20260495Y12247298D01*
X20272277Y12211743D01*
X20284258Y12115330D01*
X20258431Y12021670D01*
X20198728Y11945024D01*
X20114238Y11897060D01*
X20087690Y11889863D01*
X20070205Y11886147D01*
X20070189Y11886142D01*
X19897271Y11809153D01*
X19744126Y11697886D01*
X19617469Y11557220D01*
X19598578Y11524499D01*
X19534519Y11451455D01*
X19447383Y11408484D01*
X19382938Y11400000D01*
X19201803Y11400000D01*
X19193856Y11400500D01*
X19182177Y11400500D01*
X19170794Y11400500D01*
X19131839Y11403566D01*
X19120595Y11405347D01*
X19081011Y11401605D01*
X19057578Y11400500D01*
X18697357Y11400500D01*
X18673927Y11401605D01*
X18661705Y11402761D01*
X18593696Y11400623D01*
X18585876Y11400500D01*
X18559075Y11400500D01*
X18559071Y11400500D01*
X18558936Y11400491D01*
X18543305Y11400000D01*
X17240720Y11400000D01*
X17145432Y11418954D01*
X17064650Y11472930D01*
X17054082Y11485304D01*
X17053766Y11485018D01*
X16918373Y11635386D01*
X16918372Y11635387D01*
X16918371Y11635388D01*
X16835189Y11695823D01*
X16765228Y11746653D01*
X16592310Y11823642D01*
X16592296Y11823646D01*
X16407146Y11863000D01*
X16217854Y11863000D01*
X16032703Y11823646D01*
X16032693Y11823643D01*
X15980069Y11800213D01*
X15885310Y11778772D01*
X15789558Y11795226D01*
X15732435Y11826242D01*
X15726490Y11830561D01*
X15702012Y11848346D01*
X15652728Y11884153D01*
X15479810Y11961142D01*
X15479796Y11961146D01*
X15294646Y12000500D01*
X15105354Y12000500D01*
X14920203Y11961146D01*
X14920189Y11961142D01*
X14747271Y11884153D01*
X14594126Y11772886D01*
X14467469Y11632220D01*
X14375503Y11472930D01*
X14372821Y11468284D01*
X14369829Y11459075D01*
X14314325Y11288256D01*
X14294540Y11100000D01*
X14294540Y11099999D01*
X14305845Y10992433D01*
X14296955Y10895686D01*
X14251717Y10809705D01*
X14177020Y10747581D01*
X14132289Y10728682D01*
X13985729Y10683012D01*
X13985728Y10683011D01*
X13845348Y10598149D01*
X13729351Y10482152D01*
X13644489Y10341772D01*
X13644487Y10341768D01*
X13595684Y10185158D01*
X13595684Y10185155D01*
X13589501Y10117111D01*
X13589500Y10117087D01*
X13589500Y8582914D01*
X13589501Y8582890D01*
X13595684Y8514846D01*
X13595684Y8514843D01*
X13639907Y8372930D01*
X13644488Y8358230D01*
X13653590Y8343173D01*
X13686665Y8251825D01*
X13689500Y8214358D01*
X13689500Y5604009D01*
X13670546Y5508721D01*
X13616570Y5427939D01*
X12957885Y4769254D01*
X12877103Y4715278D01*
X12781815Y4696324D01*
X12686527Y4715278D01*
X12671977Y4725000D01*
X11500001Y4725000D01*
X11500000Y4724999D01*
X11500000Y3414509D01*
X11481046Y3319221D01*
X11427070Y3238439D01*
X11411561Y3222930D01*
X11330779Y3168954D01*
X11235491Y3150000D01*
X7453870Y3150000D01*
X7440542Y3150357D01*
X7437874Y3150500D01*
X5642135Y3150500D01*
X5639487Y3150357D01*
X5626154Y3150000D01*
X4249845Y3150000D01*
X4249691Y3143805D01*
X4247691Y3103704D01*
X4226740Y3020327D01*
X4239386Y2996583D01*
X4250000Y2924658D01*
X4250000Y2235502D01*
X4142315Y2284680D01*
X4035763Y2300000D01*
X3964237Y2300000D01*
X3857685Y2284680D01*
X3750000Y2235502D01*
X3750000Y2924858D01*
X3768954Y3020146D01*
X3770467Y3022412D01*
X3764493Y3032396D01*
X3750000Y3116107D01*
X3750000Y3130636D01*
X3749998Y3130637D01*
X3536516Y3073434D01*
X3536505Y3073430D01*
X3322428Y2973604D01*
X3322420Y2973600D01*
X3128923Y2838111D01*
X2961889Y2671077D01*
X2826400Y2477580D01*
X2826396Y2477572D01*
X2726570Y2263495D01*
X2726566Y2263484D01*
X2669363Y2050002D01*
X2669364Y2050000D01*
X3566314Y2050000D01*
X3540507Y2009844D01*
X3500000Y1871889D01*
X3500000Y1728111D01*
X3540507Y1590156D01*
X3566314Y1550000D01*
X264274Y1550000D01*
X168986Y1568954D01*
X88204Y1622930D01*
X34228Y1703712D01*
X15986Y1780180D01*
X6626Y1903699D01*
X6563Y1904556D01*
X1103Y1982758D01*
X500Y2000042D01*
X500Y4600016D01*
X9850001Y4600016D01*
X9860494Y4497301D01*
X9860495Y4497298D01*
X9915640Y4330881D01*
X9915641Y4330879D01*
X10007681Y4181659D01*
X10007684Y4181655D01*
X10131654Y4057685D01*
X10131658Y4057682D01*
X10280878Y3965642D01*
X10280879Y3965641D01*
X10447298Y3910496D01*
X10447305Y3910495D01*
X10550023Y3900001D01*
X11000000Y3900001D01*
X11000000Y4724999D01*
X10999999Y4725000D01*
X9850002Y4725000D01*
X9850001Y4724999D01*
X9850001Y4600016D01*
X500Y4600016D01*
X500Y20241850D01*
X1033Y20258133D01*
X2748Y20284306D01*
X5940Y20333008D01*
X6031Y20334331D01*
X7152Y20350000D01*
X18151Y20503793D01*
X22298Y20534577D01*
X42729Y20637291D01*
X43608Y20641513D01*
X72283Y20773331D01*
X79795Y20800400D01*
X115655Y20906038D01*
X118075Y20912830D01*
X162858Y21032900D01*
X172817Y21055964D01*
X223313Y21158360D01*
X228042Y21167465D01*
X288183Y21277606D01*
X299652Y21296550D01*
X363783Y21392529D01*
X371434Y21403339D01*
X445955Y21502887D01*
X458007Y21517753D01*
X534466Y21604938D01*
X545530Y21616751D01*
X633249Y21704470D01*
X645062Y21715534D01*
X732247Y21791993D01*
X747113Y21804045D01*
X846680Y21878581D01*
X857471Y21886217D01*
X953450Y21950348D01*
X972397Y21961818D01*
X1082539Y22021961D01*
X1091640Y22026687D01*
X1194036Y22077183D01*
X1217100Y22087142D01*
X1337212Y22131941D01*
X1343961Y22134345D01*
X1449600Y22170205D01*
X1476669Y22177717D01*
X1608532Y22206402D01*
X1612708Y22207271D01*
X1715423Y22227702D01*
X1746205Y22231849D01*
X1915910Y22243986D01*
X1916870Y22244052D01*
X1991868Y22248968D01*
X2008150Y22249500D01*
X19202605Y22249500D01*
X19297893Y22230546D01*
G37*
%TD.AperFunction*%
%TA.AperFunction,Conductor*%
G36*
X32896503Y4099678D02*
G01*
X32899965Y4099503D01*
X32899991Y4099500D01*
X33650008Y4099501D01*
X33650015Y4099501D01*
X33653470Y4099677D01*
X33666140Y4100000D01*
X35833836Y4100000D01*
X35846503Y4099678D01*
X35849965Y4099503D01*
X35849991Y4099500D01*
X36600008Y4099501D01*
X36600015Y4099501D01*
X36603470Y4099677D01*
X36616140Y4100000D01*
X37476914Y4100000D01*
X37572202Y4081046D01*
X37652984Y4027070D01*
X38427070Y3252984D01*
X38481046Y3172202D01*
X38500000Y3076914D01*
X38500000Y2649500D01*
X38481046Y2554212D01*
X38427070Y2473430D01*
X38346288Y2419454D01*
X38251000Y2400500D01*
X32822586Y2400500D01*
X32727298Y2419454D01*
X32646516Y2473430D01*
X32422930Y2697016D01*
X32368954Y2777798D01*
X32350000Y2873086D01*
X32350000Y3851000D01*
X32368954Y3946288D01*
X32422930Y4027070D01*
X32503712Y4081046D01*
X32599000Y4100000D01*
X32883836Y4100000D01*
X32896503Y4099678D01*
G37*
%TD.AperFunction*%
%TA.AperFunction,Conductor*%
G36*
X61258131Y22248967D02*
G01*
X61262243Y22248698D01*
X61333288Y22244042D01*
X61333904Y22243999D01*
X61503793Y22231847D01*
X61534585Y22227701D01*
X61637287Y22207272D01*
X61641282Y22206440D01*
X61773359Y22177709D01*
X61800420Y22170198D01*
X61905889Y22134395D01*
X61912790Y22131938D01*
X62032897Y22087140D01*
X62055981Y22077174D01*
X62158302Y22026715D01*
X62167399Y22021991D01*
X62277616Y21961808D01*
X62296598Y21950315D01*
X62392464Y21886260D01*
X62403328Y21878572D01*
X62458258Y21837452D01*
X62502858Y21804064D01*
X62517813Y21791939D01*
X62604872Y21715591D01*
X62616766Y21704452D01*
X62704450Y21616768D01*
X62715589Y21604874D01*
X62791937Y21517815D01*
X62804062Y21502860D01*
X62878563Y21403339D01*
X62886265Y21392455D01*
X62950310Y21296605D01*
X62961815Y21277604D01*
X63021971Y21167436D01*
X63026736Y21158260D01*
X63077165Y21055999D01*
X63087143Y21032887D01*
X63131922Y20912830D01*
X63134407Y20905852D01*
X63170191Y20800437D01*
X63177714Y20773332D01*
X63186780Y20731658D01*
X63206390Y20641513D01*
X63207295Y20637163D01*
X63227695Y20534606D01*
X63231846Y20503791D01*
X63243987Y20334030D01*
X63244088Y20332556D01*
X63248965Y20258163D01*
X63249498Y20241874D01*
X63249498Y17049000D01*
X63230544Y16953712D01*
X63176568Y16872930D01*
X63095786Y16818954D01*
X63000498Y16800000D01*
X62178554Y16800000D01*
X60878554Y15500000D01*
X62178554Y14200000D01*
X63000498Y14200000D01*
X63095786Y14181046D01*
X63176568Y14127070D01*
X63230544Y14046288D01*
X63249498Y13951000D01*
X63249498Y12349500D01*
X63230544Y12254212D01*
X63176568Y12173430D01*
X63095786Y12119454D01*
X63000498Y12100500D01*
X60877134Y12100500D01*
X60877130Y12100500D01*
X60877128Y12100499D01*
X60864314Y12099122D01*
X60817519Y12094092D01*
X60817515Y12094091D01*
X60682667Y12043796D01*
X60557597Y11950167D01*
X60469956Y11908235D01*
X60408375Y11900500D01*
X59997357Y11900500D01*
X59973928Y11901605D01*
X59961707Y11902760D01*
X59961704Y11902760D01*
X59893711Y11900623D01*
X59885889Y11900500D01*
X59859074Y11900500D01*
X59854678Y11900224D01*
X59837171Y11898847D01*
X59797429Y11897598D01*
X59797427Y11897597D01*
X59786491Y11894420D01*
X59748249Y11886500D01*
X59736945Y11885072D01*
X59736934Y11885069D01*
X59699958Y11870430D01*
X59677775Y11862835D01*
X59639601Y11851744D01*
X59629797Y11845946D01*
X59594722Y11828763D01*
X59584128Y11824569D01*
X59551960Y11801198D01*
X59532365Y11788327D01*
X59498138Y11768085D01*
X59498131Y11768079D01*
X59490071Y11760019D01*
X59460380Y11734661D01*
X59451171Y11727970D01*
X59451156Y11727957D01*
X59425820Y11697331D01*
X59410037Y11679985D01*
X57902983Y10172930D01*
X57822201Y10118954D01*
X57726913Y10100000D01*
X57176644Y10100000D01*
X57081356Y10118954D01*
X57000574Y10172930D01*
X56983319Y10193133D01*
X56977959Y10198841D01*
X56947330Y10224180D01*
X56929979Y10239967D01*
X56278810Y10891136D01*
X56263025Y10908484D01*
X56255201Y10917941D01*
X56205625Y10964496D01*
X56200011Y10969936D01*
X56181041Y10988906D01*
X56177697Y10991854D01*
X56164386Y11003222D01*
X56135393Y11030448D01*
X56135390Y11030450D01*
X56135388Y11030452D01*
X56125409Y11035938D01*
X56092763Y11057383D01*
X56083767Y11064361D01*
X56083768Y11064361D01*
X56047281Y11080150D01*
X56026222Y11090467D01*
X55991370Y11109626D01*
X55991369Y11109627D01*
X55991368Y11109627D01*
X55980323Y11112464D01*
X55943373Y11125115D01*
X55932926Y11129636D01*
X55893660Y11135855D01*
X55870692Y11140611D01*
X55832177Y11150500D01*
X55832176Y11150500D01*
X55820794Y11150500D01*
X55781839Y11153566D01*
X55770595Y11155347D01*
X55731011Y11151605D01*
X55707578Y11150500D01*
X55362000Y11150500D01*
X55266712Y11169454D01*
X55185930Y11223430D01*
X55131954Y11304212D01*
X55113000Y11399500D01*
X55113000Y11665692D01*
X55112999Y11665705D01*
X55110510Y11697331D01*
X55110098Y11702569D01*
X55064244Y11860398D01*
X54980581Y12001865D01*
X54864365Y12118081D01*
X54722898Y12201744D01*
X54565069Y12247598D01*
X54565066Y12247599D01*
X54565063Y12247599D01*
X54528204Y12250500D01*
X54528194Y12250500D01*
X53221806Y12250500D01*
X53221795Y12250500D01*
X53184936Y12247599D01*
X53184927Y12247597D01*
X53027101Y12201744D01*
X52973657Y12170137D01*
X52914538Y12135175D01*
X52822873Y12102984D01*
X52787789Y12100500D01*
X51672586Y12100500D01*
X51577298Y12119454D01*
X51496516Y12173430D01*
X50572930Y13097016D01*
X50518954Y13177798D01*
X50500000Y13273086D01*
X50500000Y14652168D01*
X57575000Y14652168D01*
X57581401Y14592629D01*
X57581403Y14592622D01*
X57631646Y14457913D01*
X57717810Y14342813D01*
X57717812Y14342811D01*
X57832912Y14256647D01*
X57967621Y14206404D01*
X57967628Y14206402D01*
X58027167Y14200001D01*
X58027175Y14200000D01*
X58871446Y14200000D01*
X59578553Y14200000D01*
X61471447Y14200000D01*
X60525000Y15146447D01*
X59578553Y14200001D01*
X59578553Y14200000D01*
X58871446Y14200000D01*
X60171446Y15500000D01*
X58871446Y16800000D01*
X59578553Y16800000D01*
X60525000Y15853554D01*
X61471447Y16800000D01*
X59578553Y16800000D01*
X58871446Y16800000D01*
X58027167Y16800000D01*
X57967628Y16793599D01*
X57967621Y16793597D01*
X57832912Y16743354D01*
X57717812Y16657190D01*
X57717810Y16657188D01*
X57631646Y16542088D01*
X57581403Y16407379D01*
X57581401Y16407372D01*
X57575000Y16347833D01*
X57575000Y14652168D01*
X50500000Y14652168D01*
X50500000Y16963575D01*
X50507547Y17024416D01*
X50511473Y17039995D01*
X50540096Y17153588D01*
X50541737Y17174431D01*
X50550499Y17285772D01*
X50550500Y17285783D01*
X50550499Y18250502D01*
X50569453Y18345788D01*
X50623429Y18426569D01*
X50704211Y18480546D01*
X50799499Y18499500D01*
X51753675Y18499500D01*
X51848963Y18480546D01*
X51902895Y18449835D01*
X51916989Y18439284D01*
X52149311Y18312426D01*
X52397322Y18219923D01*
X52655974Y18163657D01*
X52920000Y18144773D01*
X53184026Y18163657D01*
X53442678Y18219923D01*
X53690689Y18312426D01*
X53923011Y18439284D01*
X54134915Y18597913D01*
X54134919Y18597918D01*
X54138149Y18600335D01*
X54225789Y18642265D01*
X54287369Y18650000D01*
X55184763Y18650000D01*
X55210000Y18669366D01*
X55210000Y19564499D01*
X55317685Y19515320D01*
X55424237Y19500000D01*
X55495763Y19500000D01*
X55602315Y19515320D01*
X55710000Y19564499D01*
X55710000Y18669366D01*
X55735237Y18650000D01*
X57086130Y18650000D01*
X57099458Y18649643D01*
X57102110Y18649502D01*
X57102127Y18649500D01*
X58897872Y18649501D01*
X58957483Y18655909D01*
X59092331Y18706204D01*
X59207546Y18792454D01*
X59293796Y18907669D01*
X59344091Y19042517D01*
X59350500Y19102127D01*
X59350499Y20897872D01*
X59344091Y20957483D01*
X59293796Y21092331D01*
X59207546Y21207546D01*
X59092331Y21293796D01*
X58980219Y21335611D01*
X58957481Y21344092D01*
X58897873Y21350500D01*
X57102135Y21350500D01*
X57099487Y21350357D01*
X57086154Y21350000D01*
X55710000Y21350000D01*
X55710000Y20435502D01*
X55602315Y20484680D01*
X55495763Y20500000D01*
X55424237Y20500000D01*
X55317685Y20484680D01*
X55210000Y20435502D01*
X55210000Y21405422D01*
X55202131Y21428602D01*
X55200000Y21461107D01*
X55200000Y22000500D01*
X55218954Y22095788D01*
X55272930Y22176570D01*
X55353712Y22230546D01*
X55449000Y22249500D01*
X61241850Y22249500D01*
X61258131Y22248967D01*
G37*
%TD.AperFunction*%
%TA.AperFunction,Conductor*%
G36*
X13993413Y20180546D02*
G01*
X14074195Y20126570D01*
X14086012Y20114753D01*
X14107481Y20090272D01*
X14121718Y20071718D01*
X14204390Y20008282D01*
X14247159Y19975464D01*
X14347952Y19933714D01*
X14428732Y19879738D01*
X14435506Y19872692D01*
X14502703Y19800000D01*
X14733989Y19800000D01*
X14829277Y19781046D01*
X14860791Y19765295D01*
X14862481Y19764295D01*
X14934836Y19699458D01*
X14976871Y19611867D01*
X14982187Y19514858D01*
X14949974Y19423198D01*
X14885137Y19350843D01*
X14862481Y19335705D01*
X14860791Y19334705D01*
X14769131Y19302492D01*
X14733989Y19300000D01*
X14499207Y19300000D01*
X14431254Y19250631D01*
X14388942Y19235585D01*
X14386949Y19235074D01*
X14376510Y19230941D01*
X14349970Y19220434D01*
X14327796Y19212842D01*
X14289603Y19201746D01*
X14289595Y19201742D01*
X14279784Y19195940D01*
X14244720Y19178762D01*
X14234128Y19174569D01*
X14201955Y19151194D01*
X14182359Y19138322D01*
X14148134Y19118081D01*
X14148130Y19118078D01*
X14140071Y19110019D01*
X14110380Y19084661D01*
X14101171Y19077970D01*
X14101156Y19077957D01*
X14075820Y19047331D01*
X14060037Y19029985D01*
X13908859Y18878807D01*
X13891519Y18863028D01*
X13882055Y18855199D01*
X13835485Y18805608D01*
X13830056Y18800005D01*
X13811097Y18781044D01*
X13808183Y18777740D01*
X13796784Y18764394D01*
X13777500Y18743858D01*
X13769547Y18735388D01*
X13764060Y18725407D01*
X13742623Y18692771D01*
X13735640Y18683769D01*
X13735638Y18683765D01*
X13719845Y18647272D01*
X13709531Y18626219D01*
X13690374Y18591372D01*
X13690369Y18591360D01*
X13687535Y18580322D01*
X13674890Y18543387D01*
X13670366Y18532931D01*
X13670364Y18532927D01*
X13664145Y18493661D01*
X13659390Y18470702D01*
X13649500Y18432179D01*
X13649500Y18420794D01*
X13646434Y18381841D01*
X13644653Y18370597D01*
X13648395Y18331011D01*
X13649500Y18307578D01*
X13649500Y17084502D01*
X13630546Y16989214D01*
X13576570Y16908432D01*
X13499391Y16855982D01*
X13489605Y16851748D01*
X13479792Y16845944D01*
X13444720Y16828762D01*
X13434131Y16824569D01*
X13434130Y16824569D01*
X13434129Y16824568D01*
X13401962Y16801199D01*
X13382368Y16788327D01*
X13348134Y16768081D01*
X13340073Y16760020D01*
X13310380Y16734660D01*
X13301167Y16727967D01*
X13301156Y16727957D01*
X13275820Y16697331D01*
X13260037Y16679985D01*
X12002983Y15422930D01*
X11922201Y15368954D01*
X11826913Y15350000D01*
X11485962Y15350000D01*
X11390674Y15368954D01*
X11309892Y15422930D01*
X11255916Y15503712D01*
X11236962Y15599000D01*
X11249600Y15677320D01*
X11264504Y15722301D01*
X11264505Y15722306D01*
X11274999Y15825019D01*
X11275000Y15825029D01*
X11275000Y16249999D01*
X11274999Y16250000D01*
X10462501Y16250000D01*
X10462500Y16249999D01*
X10462500Y13749000D01*
X10443546Y13653712D01*
X10389570Y13572930D01*
X10308788Y13518954D01*
X10213500Y13500000D01*
X10211500Y13500000D01*
X10116212Y13518954D01*
X10035430Y13572930D01*
X9981454Y13653712D01*
X9962500Y13749000D01*
X9962500Y16501000D01*
X9981454Y16596288D01*
X10035430Y16677070D01*
X10116212Y16731046D01*
X10211500Y16750000D01*
X11274998Y16750000D01*
X11287166Y16762169D01*
X11293953Y16796288D01*
X11347929Y16877070D01*
X11428711Y16931046D01*
X11523999Y16950000D01*
X11887547Y16950000D01*
X11897083Y16949500D01*
X11905354Y16949500D01*
X12094645Y16949500D01*
X12094646Y16949500D01*
X12279803Y16988856D01*
X12394669Y17039998D01*
X12452728Y17065848D01*
X12452728Y17065849D01*
X12452730Y17065849D01*
X12605871Y17177112D01*
X12732533Y17317784D01*
X12827179Y17481716D01*
X12885674Y17661744D01*
X12905460Y17850000D01*
X12905152Y17852933D01*
X12901364Y17888974D01*
X12900000Y17915000D01*
X12900000Y18835002D01*
X12901364Y18861030D01*
X12902534Y18872156D01*
X12905460Y18900000D01*
X12902403Y18929090D01*
X12901364Y18938974D01*
X12900000Y18965000D01*
X12900000Y19950500D01*
X12918954Y20045788D01*
X12972930Y20126570D01*
X13053712Y20180546D01*
X13149000Y20199500D01*
X13898125Y20199500D01*
X13993413Y20180546D01*
G37*
%TD.AperFunction*%
%TA.AperFunction,Conductor*%
G36*
X38646288Y22230546D02*
G01*
X38727070Y22176570D01*
X38781046Y22095788D01*
X38800000Y22000500D01*
X38800000Y21678139D01*
X38781046Y21582851D01*
X38775000Y21573803D01*
X38775000Y17749000D01*
X38756046Y17653712D01*
X38702070Y17572930D01*
X38621288Y17518954D01*
X38526000Y17500000D01*
X37237299Y17500000D01*
X37142011Y17518954D01*
X37061229Y17572930D01*
X37007253Y17653712D01*
X37000938Y17670676D01*
X36984814Y17719334D01*
X36947058Y17780546D01*
X36892712Y17868656D01*
X36768656Y17992712D01*
X36768653Y17992714D01*
X36756839Y18000001D01*
X37450000Y18000001D01*
X37450001Y18000000D01*
X38274999Y18000000D01*
X38275000Y18000001D01*
X38275000Y19899999D01*
X38274999Y19900000D01*
X37450001Y19900000D01*
X37450000Y19899999D01*
X37450000Y18000001D01*
X36756839Y18000001D01*
X36619333Y18084815D01*
X36570676Y18100938D01*
X36486187Y18148903D01*
X36426485Y18225550D01*
X36400658Y18319209D01*
X36400000Y18337299D01*
X36400000Y19280540D01*
X36418954Y19375828D01*
X36463956Y19447154D01*
X36482533Y19467784D01*
X36577179Y19631716D01*
X36635674Y19811744D01*
X36655460Y20000000D01*
X36635674Y20188256D01*
X36577179Y20368284D01*
X36558867Y20400001D01*
X37450000Y20400001D01*
X37450001Y20400000D01*
X38274999Y20400000D01*
X38275000Y20400001D01*
X38275000Y21550001D01*
X38150024Y21550000D01*
X38047300Y21539506D01*
X38047297Y21539505D01*
X37880880Y21484360D01*
X37880878Y21484359D01*
X37731658Y21392319D01*
X37731654Y21392316D01*
X37607684Y21268346D01*
X37607681Y21268342D01*
X37515641Y21119122D01*
X37515640Y21119121D01*
X37460495Y20952702D01*
X37460494Y20952695D01*
X37450000Y20849982D01*
X37450000Y20400001D01*
X36558867Y20400001D01*
X36482533Y20532216D01*
X36482531Y20532219D01*
X36482530Y20532220D01*
X36355873Y20672886D01*
X36355872Y20672887D01*
X36355871Y20672888D01*
X36246199Y20752569D01*
X36202728Y20784153D01*
X36029810Y20861142D01*
X36029796Y20861146D01*
X35844646Y20900500D01*
X35702113Y20900500D01*
X35680413Y20902708D01*
X35680305Y20901469D01*
X35665858Y20902734D01*
X35665856Y20902734D01*
X35665853Y20902734D01*
X35592690Y20900605D01*
X35585450Y20900500D01*
X35203701Y20900500D01*
X35108413Y20919454D01*
X35027631Y20973430D01*
X34973655Y21054212D01*
X34967340Y21071178D01*
X34934815Y21169332D01*
X34925872Y21183832D01*
X34842712Y21318656D01*
X34718656Y21442712D01*
X34569334Y21534814D01*
X34569332Y21534815D01*
X34569330Y21534816D01*
X34569332Y21534816D01*
X34402802Y21589998D01*
X34402798Y21589999D01*
X34402797Y21589999D01*
X34300009Y21600500D01*
X34300005Y21600500D01*
X33649984Y21600500D01*
X33646530Y21600323D01*
X33633860Y21600000D01*
X31166164Y21600000D01*
X31153497Y21600322D01*
X31150015Y21600500D01*
X31150009Y21600500D01*
X31150002Y21600500D01*
X30499993Y21600500D01*
X30397199Y21589999D01*
X30314636Y21562639D01*
X30236313Y21550000D01*
X29516164Y21550000D01*
X29503497Y21550322D01*
X29500015Y21550500D01*
X29500009Y21550500D01*
X29500002Y21550500D01*
X28749993Y21550500D01*
X28647199Y21539999D01*
X28480667Y21484815D01*
X28331346Y21392714D01*
X28207286Y21268654D01*
X28115184Y21119332D01*
X28060002Y20952803D01*
X28060001Y20952798D01*
X28060001Y20952797D01*
X28058250Y20935659D01*
X28049898Y20853902D01*
X28049500Y20850009D01*
X28049500Y20153712D01*
X28049501Y20149000D01*
X28030547Y20053712D01*
X27976571Y19972931D01*
X27895789Y19918954D01*
X27800501Y19900000D01*
X24852628Y19900000D01*
X24757340Y19918954D01*
X24676558Y19972930D01*
X24636992Y20024492D01*
X24632533Y20032216D01*
X24632527Y20032222D01*
X24632524Y20032227D01*
X24505873Y20172886D01*
X24505872Y20172887D01*
X24505871Y20172888D01*
X24403271Y20247431D01*
X24352728Y20284153D01*
X24179810Y20361142D01*
X24179796Y20361146D01*
X23996994Y20400001D01*
X25100000Y20400001D01*
X25100001Y20400000D01*
X25924999Y20400000D01*
X25925000Y20400001D01*
X26425000Y20400001D01*
X26425001Y20400000D01*
X27249998Y20400000D01*
X27249999Y20400001D01*
X27249999Y20849968D01*
X27249998Y20849985D01*
X27239505Y20952700D01*
X27239504Y20952703D01*
X27184359Y21119120D01*
X27184358Y21119122D01*
X27092318Y21268342D01*
X27092315Y21268346D01*
X26968345Y21392316D01*
X26968341Y21392319D01*
X26819121Y21484359D01*
X26819120Y21484360D01*
X26652701Y21539505D01*
X26652694Y21539506D01*
X26549981Y21550000D01*
X26425001Y21550000D01*
X26425000Y21549999D01*
X26425000Y20400001D01*
X25925000Y20400001D01*
X25925000Y21550001D01*
X25800024Y21550000D01*
X25697300Y21539506D01*
X25697297Y21539505D01*
X25530880Y21484360D01*
X25530878Y21484359D01*
X25381658Y21392319D01*
X25381654Y21392316D01*
X25257684Y21268346D01*
X25257681Y21268342D01*
X25165641Y21119122D01*
X25165640Y21119121D01*
X25110495Y20952702D01*
X25110494Y20952695D01*
X25100000Y20849982D01*
X25100000Y20400001D01*
X23996994Y20400001D01*
X23994646Y20400500D01*
X23805354Y20400500D01*
X23797083Y20400500D01*
X23787547Y20400000D01*
X23299000Y20400000D01*
X23203712Y20418954D01*
X23122930Y20472930D01*
X23068954Y20553712D01*
X23068374Y20556625D01*
X23049999Y20575000D01*
X21900001Y20575000D01*
X21900000Y20574999D01*
X21900000Y20400000D01*
X21400000Y20364286D01*
X21400000Y20826000D01*
X21418954Y20921288D01*
X21472930Y21002070D01*
X21553712Y21056046D01*
X21649000Y21075000D01*
X23049998Y21075000D01*
X23049999Y21075001D01*
X23049999Y21199968D01*
X23049998Y21199985D01*
X23039505Y21302700D01*
X23039504Y21302703D01*
X22984359Y21469120D01*
X22984358Y21469122D01*
X22892318Y21618342D01*
X22892315Y21618346D01*
X22768345Y21742316D01*
X22768337Y21742322D01*
X22693354Y21788572D01*
X22622202Y21854727D01*
X22581784Y21943076D01*
X22578252Y22040167D01*
X22612144Y22131218D01*
X22678299Y22202370D01*
X22766648Y22242788D01*
X22824072Y22249500D01*
X38551000Y22249500D01*
X38646288Y22230546D01*
G37*
%TD.AperFunction*%
%TA.AperFunction,Conductor*%
G36*
X46146288Y22230546D02*
G01*
X46227070Y22176570D01*
X46281046Y22095788D01*
X46300000Y22000500D01*
X46300000Y21778139D01*
X46281046Y21682851D01*
X46275000Y21673803D01*
X46275000Y17999000D01*
X46256046Y17903712D01*
X46202070Y17822930D01*
X46121288Y17768954D01*
X46026000Y17750000D01*
X46024000Y17750000D01*
X45928712Y17768954D01*
X45847930Y17822930D01*
X45793954Y17903712D01*
X45775000Y17999000D01*
X45775000Y19999999D01*
X45774999Y20000000D01*
X44950001Y20000000D01*
X44950000Y19999999D01*
X44950000Y19099000D01*
X44931046Y19003712D01*
X44877070Y18922930D01*
X44796288Y18868954D01*
X44701000Y18850000D01*
X44414941Y18850000D01*
X44324428Y18867034D01*
X44279128Y18884710D01*
X44269618Y18888649D01*
X44188884Y18924063D01*
X44188877Y18924065D01*
X44173624Y18927928D01*
X44144253Y18937337D01*
X44129614Y18943049D01*
X44129613Y18943050D01*
X44129611Y18943050D01*
X44129609Y18943051D01*
X44043326Y18961143D01*
X44033302Y18963462D01*
X43947824Y18985108D01*
X43947814Y18985110D01*
X43932154Y18986407D01*
X43901630Y18990854D01*
X43886237Y18994081D01*
X43886234Y18994082D01*
X43886230Y18994082D01*
X43798143Y18997725D01*
X43787872Y18998362D01*
X43762071Y19000500D01*
X43762067Y19000500D01*
X43736176Y19000500D01*
X43725885Y19000713D01*
X43637780Y19004358D01*
X43622175Y19002412D01*
X43591375Y19000500D01*
X43299000Y19000500D01*
X43203712Y19019454D01*
X43122930Y19073430D01*
X43068954Y19154212D01*
X43050000Y19249500D01*
X43050000Y19419648D01*
X43050442Y19430893D01*
X43050308Y19430898D01*
X43050497Y19435757D01*
X43050500Y19435783D01*
X43050499Y20500001D01*
X44950000Y20500001D01*
X44950001Y20500000D01*
X45774999Y20500000D01*
X45775000Y20500001D01*
X45775000Y21650001D01*
X45650024Y21650000D01*
X45547300Y21639506D01*
X45547297Y21639505D01*
X45380880Y21584360D01*
X45380878Y21584359D01*
X45231658Y21492319D01*
X45231654Y21492316D01*
X45107684Y21368346D01*
X45107681Y21368342D01*
X45015641Y21219122D01*
X45015640Y21219121D01*
X44960495Y21052702D01*
X44960494Y21052695D01*
X44950000Y20949982D01*
X44950000Y20500001D01*
X43050499Y20500001D01*
X43050499Y20864216D01*
X43050498Y20864222D01*
X43050307Y20869094D01*
X43050441Y20869100D01*
X43050000Y20880337D01*
X43050000Y22000500D01*
X43068954Y22095788D01*
X43122930Y22176570D01*
X43203712Y22230546D01*
X43299000Y22249500D01*
X46051000Y22249500D01*
X46146288Y22230546D01*
G37*
%TD.AperFunction*%
%TD*%
M02*
