%TF.GenerationSoftware,KiCad,Pcbnew,8.0.6*%
%TF.CreationDate,2024-11-11T23:30:30+07:00*%
%TF.ProjectId,panel,70616e65-6c2e-46b6-9963-61645f706362,rev?*%
%TF.SameCoordinates,PX6b0cc90PY5b8d800*%
%TF.FileFunction,Copper,L1,Top*%
%TF.FilePolarity,Positive*%
%FSLAX46Y46*%
G04 Gerber Fmt 4.6, Leading zero omitted, Abs format (unit mm)*
G04 Created by KiCad (PCBNEW 8.0.6) date 2024-11-11 23:30:30*
%MOMM*%
%LPD*%
G01*
G04 APERTURE LIST*
G04 Aperture macros list*
%AMRoundRect*
0 Rectangle with rounded corners*
0 $1 Rounding radius*
0 $2 $3 $4 $5 $6 $7 $8 $9 X,Y pos of 4 corners*
0 Add a 4 corners polygon primitive as box body*
4,1,4,$2,$3,$4,$5,$6,$7,$8,$9,$2,$3,0*
0 Add four circle primitives for the rounded corners*
1,1,$1+$1,$2,$3*
1,1,$1+$1,$4,$5*
1,1,$1+$1,$6,$7*
1,1,$1+$1,$8,$9*
0 Add four rect primitives between the rounded corners*
20,1,$1+$1,$2,$3,$4,$5,0*
20,1,$1+$1,$4,$5,$6,$7,0*
20,1,$1+$1,$6,$7,$8,$9,0*
20,1,$1+$1,$8,$9,$2,$3,0*%
G04 Aperture macros list end*
%TA.AperFunction,SMDPad,CuDef*%
%ADD10RoundRect,0.250000X-0.650000X0.325000X-0.650000X-0.325000X0.650000X-0.325000X0.650000X0.325000X0*%
%TD*%
%TA.AperFunction,SMDPad,CuDef*%
%ADD11RoundRect,0.175000X0.175000X0.712500X-0.175000X0.712500X-0.175000X-0.712500X0.175000X-0.712500X0*%
%TD*%
%TA.AperFunction,ComponentPad*%
%ADD12R,1.700000X1.700000*%
%TD*%
%TA.AperFunction,ComponentPad*%
%ADD13O,1.700000X1.700000*%
%TD*%
%TA.AperFunction,ComponentPad*%
%ADD14C,2.000000*%
%TD*%
%TA.AperFunction,SMDPad,CuDef*%
%ADD15RoundRect,0.087500X0.462500X-0.087500X0.462500X0.087500X-0.462500X0.087500X-0.462500X-0.087500X0*%
%TD*%
%TA.AperFunction,SMDPad,CuDef*%
%ADD16RoundRect,0.087500X-0.087500X-0.462500X0.087500X-0.462500X0.087500X0.462500X-0.087500X0.462500X0*%
%TD*%
%TA.AperFunction,SMDPad,CuDef*%
%ADD17R,2.250000X2.250000*%
%TD*%
%TA.AperFunction,SMDPad,CuDef*%
%ADD18RoundRect,0.250000X-0.325000X-0.650000X0.325000X-0.650000X0.325000X0.650000X-0.325000X0.650000X0*%
%TD*%
%TA.AperFunction,SMDPad,CuDef*%
%ADD19RoundRect,0.250000X0.275000X0.700000X-0.275000X0.700000X-0.275000X-0.700000X0.275000X-0.700000X0*%
%TD*%
%TA.AperFunction,SMDPad,CuDef*%
%ADD20RoundRect,0.250000X0.650000X-0.325000X0.650000X0.325000X-0.650000X0.325000X-0.650000X-0.325000X0*%
%TD*%
%TA.AperFunction,SMDPad,CuDef*%
%ADD21RoundRect,0.150000X0.587500X0.150000X-0.587500X0.150000X-0.587500X-0.150000X0.587500X-0.150000X0*%
%TD*%
%TA.AperFunction,SMDPad,CuDef*%
%ADD22RoundRect,0.243750X-0.243750X-0.456250X0.243750X-0.456250X0.243750X0.456250X-0.243750X0.456250X0*%
%TD*%
%TA.AperFunction,SMDPad,CuDef*%
%ADD23RoundRect,0.150000X0.450000X-0.150000X0.450000X0.150000X-0.450000X0.150000X-0.450000X-0.150000X0*%
%TD*%
%TA.AperFunction,SMDPad,CuDef*%
%ADD24RoundRect,0.250000X-0.312500X-0.625000X0.312500X-0.625000X0.312500X0.625000X-0.312500X0.625000X0*%
%TD*%
%TA.AperFunction,SMDPad,CuDef*%
%ADD25R,2.350000X0.700000*%
%TD*%
%TA.AperFunction,SMDPad,CuDef*%
%ADD26R,4.900000X4.800000*%
%TD*%
%TA.AperFunction,SMDPad,CuDef*%
%ADD27RoundRect,0.162500X0.600000X-0.162500X0.600000X0.162500X-0.600000X0.162500X-0.600000X-0.162500X0*%
%TD*%
%TA.AperFunction,SMDPad,CuDef*%
%ADD28RoundRect,0.250000X0.700000X-0.275000X0.700000X0.275000X-0.700000X0.275000X-0.700000X-0.275000X0*%
%TD*%
%TA.AperFunction,SMDPad,CuDef*%
%ADD29RoundRect,0.250000X0.325000X0.650000X-0.325000X0.650000X-0.325000X-0.650000X0.325000X-0.650000X0*%
%TD*%
%TA.AperFunction,SMDPad,CuDef*%
%ADD30R,1.200000X1.800000*%
%TD*%
%TA.AperFunction,ViaPad*%
%ADD31C,0.800000*%
%TD*%
%TA.AperFunction,ViaPad*%
%ADD32C,1.000000*%
%TD*%
%TA.AperFunction,Conductor*%
%ADD33C,0.500000*%
%TD*%
%TA.AperFunction,Conductor*%
%ADD34C,0.350000*%
%TD*%
%TA.AperFunction,Conductor*%
%ADD35C,0.300000*%
%TD*%
%TA.AperFunction,Conductor*%
%ADD36C,0.200000*%
%TD*%
%TA.AperFunction,Conductor*%
%ADD37C,1.000000*%
%TD*%
%TA.AperFunction,Conductor*%
%ADD38C,0.650000*%
%TD*%
%TA.AperFunction,Conductor*%
%ADD39C,0.700000*%
%TD*%
%TA.AperFunction,Conductor*%
%ADD40C,1.500000*%
%TD*%
G04 APERTURE END LIST*
D10*
%TO.P,C16,1*%
%TO.N,+5V*%
X45399999Y15675000D03*
%TO.P,C16,2*%
%TO.N,GND*%
X45399999Y12725000D03*
%TD*%
D11*
%TO.P,H1,1,1A*%
%TO.N,Pdamp*%
X38189999Y2274000D03*
%TO.P,H1,2,1B*%
X39459999Y2274000D03*
%TO.P,H1,3,1Y*%
%TO.N,DAMP*%
X40729999Y2274000D03*
%TO.P,H1,4,2A*%
%TO.N,Net-(H1-2A)*%
X41999999Y2274000D03*
%TO.P,H1,5,2B*%
%TO.N,P+*%
X43269999Y2274000D03*
%TO.P,H1,6,2Y*%
%TO.N,PULSE+*%
X44539999Y2274000D03*
%TO.P,H1,7,GND*%
%TO.N,GND*%
X45809999Y2274000D03*
%TO.P,H1,8,3Y*%
%TO.N,_PULSE-*%
X45809999Y9350000D03*
%TO.P,H1,9,3A*%
%TO.N,P-*%
X44539999Y9350000D03*
%TO.P,H1,10,3B*%
%TO.N,Net-(H1-3B)*%
X43269999Y9350000D03*
%TO.P,H1,11,4Y*%
X41999999Y9350000D03*
%TO.P,H1,12,4A*%
%TO.N,Net-(H1-4A)*%
X40729999Y9350000D03*
%TO.P,H1,13,4B*%
%TO.N,Net-(H1-2A)*%
X39459999Y9350000D03*
%TO.P,H1,14,VCC*%
%TO.N,+5V*%
X38189999Y9350000D03*
%TD*%
D12*
%TO.P,J3,1,1*%
%TO.N,+3.3V*%
X27749999Y1800000D03*
D13*
%TO.P,J3,2,2*%
%TO.N,GND*%
X27749999Y4340000D03*
%TO.P,J3,3,3*%
%TO.N,OE*%
X27749999Y6880000D03*
%TO.P,J3,4,4*%
%TO.N,Pdamp*%
X27749999Y9420000D03*
%TO.P,J3,5,5*%
%TO.N,P-*%
X27749999Y11960000D03*
%TO.P,J3,6,6*%
%TO.N,P+*%
X27749999Y14500000D03*
%TD*%
D14*
%TO.P,REF\u002A\u002A,1*%
%TO.N,Net-(D1-K-Pad3)*%
X84749999Y11250000D03*
%TD*%
D15*
%TO.P,IC2,1,INA*%
%TO.N,PULSE+*%
X50049999Y15700000D03*
%TO.P,IC2,2,VL*%
%TO.N,GND*%
X50049999Y14900000D03*
%TO.P,IC2,3,INB*%
%TO.N,PULSE-*%
X50049999Y14100000D03*
D16*
%TO.P,IC2,4,GND_1*%
%TO.N,GND*%
X51099999Y13050000D03*
%TO.P,IC2,5,VSS1*%
X51899999Y13050000D03*
%TO.P,IC2,6,VSS2*%
X52699999Y13050000D03*
D15*
%TO.P,IC2,7,OUTB*%
%TO.N,Net-(IC2-OUTB)*%
X53749999Y14100000D03*
%TO.P,IC2,8,VH*%
%TO.N,+5V*%
X53749999Y14900000D03*
%TO.P,IC2,9,OUTA*%
%TO.N,Net-(IC2-OUTA)*%
X53749999Y15700000D03*
D16*
%TO.P,IC2,10,VDD2*%
%TO.N,+5V*%
X52699999Y16750000D03*
%TO.P,IC2,11,VDD1*%
%TO.N,Net-(IC2-VDD1)*%
X51899999Y16750000D03*
%TO.P,IC2,12,OE*%
%TO.N,OE*%
X51099999Y16750000D03*
D17*
%TO.P,IC2,13,GND_2*%
%TO.N,GND*%
X51899999Y14900000D03*
%TD*%
D18*
%TO.P,C4,1*%
%TO.N,Net-(IC2-OUTA)*%
X56774999Y16750000D03*
%TO.P,C4,2*%
%TO.N,Net-(IC3-GP)*%
X59724999Y16750000D03*
%TD*%
%TO.P,C3,1*%
%TO.N,GND*%
X62274999Y20150000D03*
%TO.P,C3,2*%
%TO.N,+HV*%
X65224999Y20150000D03*
%TD*%
D19*
%TO.P,FB1,1*%
%TO.N,+5V*%
X57724999Y20150000D03*
%TO.P,FB1,2*%
%TO.N,Net-(IC2-VDD1)*%
X54574999Y20150000D03*
%TD*%
D20*
%TO.P,C15,1*%
%TO.N,+5V*%
X45399999Y17875000D03*
%TO.P,C15,2*%
%TO.N,GND*%
X45399999Y20825000D03*
%TD*%
D12*
%TO.P,J2,1,Pin_1*%
%TO.N,+5V*%
X30289999Y19580000D03*
D13*
%TO.P,J2,2,Pin_2*%
%TO.N,GND*%
X27749999Y19580000D03*
%TD*%
D12*
%TO.P,J6,1,Pin_1*%
%TO.N,+5V*%
X76669999Y2000000D03*
D13*
%TO.P,J6,2,Pin_2*%
%TO.N,+HV*%
X79209999Y2000000D03*
%TD*%
D21*
%TO.P,D1,1,K*%
%TO.N,Net-(IC3-DP_1)*%
X77624999Y9550000D03*
%TO.P,D1,2,A*%
%TO.N,Net-(D1-A)*%
X77624999Y11450000D03*
%TO.P,D1,3,K*%
%TO.N,Net-(D1-K-Pad3)*%
X75749999Y10500000D03*
%TD*%
D18*
%TO.P,C9,1*%
%TO.N,Net-(IC5-OUTA)*%
X57024999Y5500000D03*
%TO.P,C9,2*%
%TO.N,Net-(IC6-GP)*%
X59974999Y5500000D03*
%TD*%
D22*
%TO.P,D3,1*%
%TO.N,GND*%
X31562499Y7250000D03*
%TO.P,D3,2*%
%TO.N,Net-(D3-Pad2)*%
X33437499Y7250000D03*
%TD*%
D18*
%TO.P,C8,1*%
%TO.N,GND*%
X49974999Y9150000D03*
%TO.P,C8,2*%
%TO.N,Net-(IC5-VDD1)*%
X52924999Y9150000D03*
%TD*%
D20*
%TO.P,C14,1*%
%TO.N,+5V*%
X34999999Y2025000D03*
%TO.P,C14,2*%
%TO.N,GND*%
X34999999Y4975000D03*
%TD*%
D23*
%TO.P,IC1,1,1A*%
%TO.N,P+*%
X39349999Y20500000D03*
%TO.P,IC1,2,GND*%
%TO.N,GND*%
X39349999Y19550000D03*
%TO.P,IC1,3,2A*%
%TO.N,Pdamp*%
X39349999Y18600000D03*
%TO.P,IC1,4,2Y*%
%TO.N,Net-(H1-2A)*%
X41849999Y18600000D03*
%TO.P,IC1,5,VCC*%
%TO.N,+5V*%
X41849999Y19550000D03*
%TO.P,IC1,6,1Y*%
%TO.N,Net-(H1-4A)*%
X41849999Y20500000D03*
%TD*%
D18*
%TO.P,C6,1*%
%TO.N,GND*%
X69774999Y18000000D03*
%TO.P,C6,2*%
%TO.N,-HV*%
X72724999Y18000000D03*
%TD*%
D12*
%TO.P,J4,1,Pin_1*%
%TO.N,OE*%
X81749999Y20000000D03*
D13*
%TO.P,J4,2,Pin_2*%
%TO.N,GND*%
X79209999Y20000000D03*
%TO.P,J4,3,Pin_3*%
%TO.N,-HV*%
X76669999Y20000000D03*
%TD*%
D24*
%TO.P,R1,1*%
%TO.N,OE*%
X31037499Y9500000D03*
%TO.P,R1,2*%
%TO.N,Net-(D3-Pad2)*%
X33962499Y9500000D03*
%TD*%
D25*
%TO.P,J1,1,1*%
%TO.N,Net-(D1-K-Pad3)*%
X85850999Y11250000D03*
D26*
%TO.P,J1,2,2*%
%TO.N,GND*%
X84275999Y7000000D03*
X84275999Y15500000D03*
%TD*%
D18*
%TO.P,C5,1*%
%TO.N,Net-(IC2-OUTB)*%
X56774999Y13250000D03*
%TO.P,C5,2*%
%TO.N,Net-(IC3-GN)*%
X59724999Y13250000D03*
%TD*%
D27*
%TO.P,IC3,1,SN*%
%TO.N,-HV*%
X65537999Y14155000D03*
%TO.P,IC3,2,GN*%
%TO.N,Net-(IC3-GN)*%
X65537999Y12885000D03*
%TO.P,IC3,3,SP*%
%TO.N,+HV*%
X65537999Y11615000D03*
%TO.P,IC3,4,GP*%
%TO.N,Net-(IC3-GP)*%
X65537999Y10345000D03*
%TO.P,IC3,5,DP_1*%
%TO.N,Net-(IC3-DP_1)*%
X70961999Y10345000D03*
%TO.P,IC3,6,DP_2*%
X70961999Y11615000D03*
%TO.P,IC3,7,DN_1*%
%TO.N,Net-(D1-A)*%
X70961999Y12885000D03*
%TO.P,IC3,8,DN_2*%
X70961999Y14155000D03*
%TD*%
D21*
%TO.P,D2,1,K*%
%TO.N,Net-(IC6-DP_1)*%
X77624999Y6150000D03*
%TO.P,D2,2,A*%
%TO.N,Net-(D2-A)*%
X77624999Y8050000D03*
%TO.P,D2,3,K*%
%TO.N,Net-(D1-K-Pad3)*%
X75749999Y7100000D03*
%TD*%
D19*
%TO.P,FB2,1*%
%TO.N,+5V*%
X57774999Y9150000D03*
%TO.P,FB2,2*%
%TO.N,Net-(IC5-VDD1)*%
X54624999Y9150000D03*
%TD*%
D18*
%TO.P,C7,1*%
%TO.N,GND*%
X69774999Y20250000D03*
%TO.P,C7,2*%
%TO.N,-HV*%
X72724999Y20250000D03*
%TD*%
%TO.P,C2,1*%
%TO.N,GND*%
X62274999Y17750000D03*
%TO.P,C2,2*%
%TO.N,+HV*%
X65224999Y17750000D03*
%TD*%
%TO.P,C1,1*%
%TO.N,GND*%
X49924999Y20150000D03*
%TO.P,C1,2*%
%TO.N,Net-(IC2-VDD1)*%
X52874999Y20150000D03*
%TD*%
D24*
%TO.P,R4,1*%
%TO.N,Pdamp*%
X31037499Y13500000D03*
%TO.P,R4,2*%
%TO.N,GND*%
X33962499Y13500000D03*
%TD*%
D15*
%TO.P,IC5,1,INA*%
%TO.N,DAMP*%
X50049999Y5200000D03*
%TO.P,IC5,2,VL*%
%TO.N,GND*%
X50049999Y4400000D03*
%TO.P,IC5,3,INB*%
%TO.N,~{DAMP}*%
X50049999Y3600000D03*
D16*
%TO.P,IC5,4,GND_1*%
%TO.N,GND*%
X51099999Y2550000D03*
%TO.P,IC5,5,VSS1*%
X51899999Y2550000D03*
%TO.P,IC5,6,VSS2*%
X52699999Y2550000D03*
D15*
%TO.P,IC5,7,OUTB*%
%TO.N,Net-(IC5-OUTB)*%
X53749999Y3600000D03*
%TO.P,IC5,8,VH*%
%TO.N,+5V*%
X53749999Y4400000D03*
%TO.P,IC5,9,OUTA*%
%TO.N,Net-(IC5-OUTA)*%
X53749999Y5200000D03*
D16*
%TO.P,IC5,10,VDD2*%
%TO.N,+5V*%
X52699999Y6250000D03*
%TO.P,IC5,11,VDD1*%
%TO.N,Net-(IC5-VDD1)*%
X51899999Y6250000D03*
%TO.P,IC5,12,OE*%
%TO.N,OE*%
X51099999Y6250000D03*
D17*
%TO.P,IC5,13,GND_2*%
%TO.N,GND*%
X51899999Y4400000D03*
%TD*%
D27*
%TO.P,IC6,1,SN*%
%TO.N,GND*%
X65537999Y7405000D03*
%TO.P,IC6,2,GN*%
%TO.N,Net-(IC5-OUTB)*%
X65537999Y6135000D03*
%TO.P,IC6,3,SP*%
%TO.N,GND*%
X65537999Y4865000D03*
%TO.P,IC6,4,GP*%
%TO.N,Net-(IC6-GP)*%
X65537999Y3595000D03*
%TO.P,IC6,5,DP_1*%
%TO.N,Net-(IC6-DP_1)*%
X70961999Y3595000D03*
%TO.P,IC6,6,DP_2*%
X70961999Y4865000D03*
%TO.P,IC6,7,DN_1*%
%TO.N,Net-(D2-A)*%
X70961999Y6135000D03*
%TO.P,IC6,8,DN_2*%
X70961999Y7405000D03*
%TD*%
D23*
%TO.P,IC4,1,1A*%
%TO.N,Pdamp*%
X39349999Y15750000D03*
%TO.P,IC4,2,GND*%
%TO.N,GND*%
X39349999Y14800000D03*
%TO.P,IC4,3,2A*%
%TO.N,_PULSE-*%
X39349999Y13850000D03*
%TO.P,IC4,4,2Y*%
%TO.N,PULSE-*%
X41849999Y13850000D03*
%TO.P,IC4,5,VCC*%
%TO.N,+5V*%
X41849999Y14800000D03*
%TO.P,IC4,6,1Y*%
%TO.N,~{DAMP}*%
X41849999Y15750000D03*
%TD*%
D24*
%TO.P,R2,1*%
%TO.N,P+*%
X32937499Y20850000D03*
%TO.P,R2,2*%
%TO.N,GND*%
X35862499Y20850000D03*
%TD*%
%TO.P,R3,1*%
%TO.N,P-*%
X31037499Y15750000D03*
%TO.P,R3,2*%
%TO.N,GND*%
X33962499Y15750000D03*
%TD*%
D18*
%TO.P,C12,1*%
%TO.N,GND*%
X3525002Y19749999D03*
%TO.P,C12,2*%
%TO.N,-HV*%
X6475002Y19749999D03*
%TD*%
D10*
%TO.P,C11,1*%
%TO.N,GND*%
X2250002Y14974999D03*
%TO.P,C11,2*%
%TO.N,Net-(PS1-+VIN)*%
X2250002Y12024999D03*
%TD*%
D28*
%TO.P,L1,1*%
%TO.N,+5V*%
X2250002Y6424999D03*
%TO.P,L1,2*%
%TO.N,Net-(PS1-+VIN)*%
X2250002Y9574999D03*
%TD*%
D29*
%TO.P,C13,1*%
%TO.N,GND*%
X19225002Y1999999D03*
%TO.P,C13,2*%
%TO.N,+HV*%
X16275002Y1999999D03*
%TD*%
D30*
%TO.P,PS1,1,-VIN*%
%TO.N,GND*%
X17580002Y15924999D03*
%TO.P,PS1,2,+VIN*%
%TO.N,Net-(PS1-+VIN)*%
X15040002Y15924999D03*
%TO.P,PS1,4,COM*%
%TO.N,GND*%
X9960002Y15924999D03*
%TO.P,PS1,5,-VOUT*%
%TO.N,-HV*%
X7420002Y15924999D03*
%TO.P,PS1,7,+VOUT*%
%TO.N,+HV*%
X9960002Y5724999D03*
%TO.P,PS1,10,NC*%
%TO.N,unconnected-(PS1-NC-Pad10)*%
X17580002Y5724999D03*
%TD*%
D18*
%TO.P,C10,1*%
%TO.N,GND*%
X4025002Y1999999D03*
%TO.P,C10,2*%
%TO.N,+5V*%
X6975002Y1999999D03*
%TD*%
D12*
%TO.P,J5,1,Pin_1*%
%TO.N,OE*%
X15500002Y19999999D03*
D13*
%TO.P,J5,2,Pin_2*%
%TO.N,GND*%
X12960002Y19999999D03*
%TO.P,J5,3,Pin_3*%
%TO.N,-HV*%
X10420002Y19999999D03*
%TD*%
D12*
%TO.P,J7,1,Pin_1*%
%TO.N,+5V*%
X10420002Y1999999D03*
D13*
%TO.P,J7,2,Pin_2*%
%TO.N,+HV*%
X12960002Y1999999D03*
%TD*%
D31*
%TO.N,GND*%
X74749999Y15250000D03*
X85949999Y18850000D03*
X36749999Y6250000D03*
X47249999Y6000000D03*
X36499999Y16750000D03*
X47249999Y4000000D03*
X51249999Y5000000D03*
X61749999Y6500000D03*
X41749999Y6750000D03*
X57249999Y11250000D03*
X67249999Y20250000D03*
X60749999Y7600000D03*
X68999999Y4500000D03*
X56499999Y3000000D03*
X70249999Y2000000D03*
X60749999Y18500000D03*
X36699999Y13900000D03*
X85249999Y3700000D03*
X76249999Y16750000D03*
X53499999Y11250000D03*
X79249999Y12250000D03*
X68999999Y2000000D03*
X68999999Y5750000D03*
X74749999Y16750000D03*
X52499999Y5000000D03*
X40999999Y7500000D03*
X83999999Y750000D03*
X85249999Y750000D03*
X52499999Y3750000D03*
X86499999Y3700000D03*
X83749999Y18850000D03*
X83999999Y3700000D03*
X74749999Y13750000D03*
X68999999Y13750000D03*
X38149999Y19550000D03*
X58999999Y7500000D03*
X80899999Y6700000D03*
X80749999Y12500000D03*
X47249999Y7000000D03*
X74749999Y3750000D03*
X68999999Y3250000D03*
X35499999Y15750000D03*
X32249999Y3000000D03*
X80899999Y5550000D03*
X42499999Y6000000D03*
X77749999Y13000000D03*
X82749999Y3700000D03*
X80899999Y8100000D03*
X71749999Y9000000D03*
X67999999Y6750000D03*
X75749999Y13000000D03*
X36749999Y8250000D03*
X32249999Y5500000D03*
X74799999Y2000000D03*
X28249999Y17000000D03*
X68999999Y12750000D03*
X68249999Y19250000D03*
X57749999Y3000000D03*
X29749999Y500000D03*
X42499999Y7500000D03*
X36749999Y9250000D03*
X60499999Y2900000D03*
X61749999Y8500000D03*
X51249999Y15500000D03*
X81499999Y3700000D03*
X51499999Y11250000D03*
X80749999Y16750000D03*
X80749999Y13750000D03*
X68999999Y11750000D03*
X31249999Y21500000D03*
X31499999Y500000D03*
X52499999Y14250000D03*
X48399999Y14900000D03*
X81499999Y750000D03*
X60749999Y9500000D03*
X61749999Y2900000D03*
X58249999Y11250000D03*
X80749999Y15250000D03*
X47249999Y5000000D03*
X73249999Y2000000D03*
X52499999Y15500000D03*
X79999999Y11500000D03*
X51249999Y3750000D03*
X51249999Y14250000D03*
X63499999Y6500000D03*
X71749999Y2000000D03*
X36749999Y7250000D03*
X54749999Y11250000D03*
X49749999Y11250000D03*
X79249999Y16750000D03*
X73249999Y9000000D03*
X67249999Y7500000D03*
X77749999Y16750000D03*
X29249999Y21500000D03*
X29999999Y5500000D03*
X86499999Y1500000D03*
X37799999Y14800000D03*
X82749999Y750000D03*
%TO.N,+5V*%
X32999999Y1800000D03*
X47649999Y19500000D03*
D32*
X55399999Y14900000D03*
D31*
X59399999Y9150000D03*
X59499999Y20000000D03*
X55124999Y4350000D03*
%TO.N,Pdamp*%
X37199999Y2150000D03*
X34649999Y11750000D03*
%TO.N,DAMP*%
X40699999Y4650000D03*
X48724999Y5950000D03*
%TO.N,Net-(H1-2A)*%
X38949999Y11100000D03*
X43349999Y18300000D03*
%TO.N,P+*%
X35749999Y18900000D03*
X43599999Y4150000D03*
%TO.N,PULSE+*%
X45349999Y4150000D03*
X48724999Y16350000D03*
%TO.N,_PULSE-*%
X37799999Y13200000D03*
X45524999Y11025000D03*
%TO.N,P-*%
X44099999Y11025000D03*
X35749999Y17850000D03*
%TO.N,Net-(H1-4A)*%
X43599999Y21050000D03*
X40062499Y10962500D03*
%TO.N,PULSE-*%
X48724999Y13550000D03*
X43724999Y13650000D03*
%TO.N,OE*%
X51099999Y18400000D03*
X35549999Y10700000D03*
X50199999Y7150000D03*
%TO.N,~{DAMP}*%
X43449999Y15950000D03*
X48724999Y3150000D03*
%TO.N,+HV*%
X67449999Y17500000D03*
X66499999Y17450000D03*
%TO.N,GND*%
X19500002Y20749999D03*
X2250002Y16499999D03*
X5500002Y10499999D03*
X16500002Y7499999D03*
X16500002Y13999999D03*
X1000002Y4749999D03*
X19500002Y7999999D03*
X11750002Y15999999D03*
X7500002Y13499999D03*
X1000002Y20749999D03*
X17250002Y20749999D03*
X8750002Y10499999D03*
X12000002Y13499999D03*
X19500002Y12249999D03*
X5250002Y17499999D03*
X1000002Y16499999D03*
X19500002Y4249999D03*
X16500002Y10499999D03*
X12750002Y7999999D03*
X12750002Y10499999D03*
X5500002Y7999999D03*
X4250002Y13499999D03*
X19500002Y16749999D03*
X1000002Y1249999D03*
X2000002Y19749999D03*
%TD*%
D33*
%TO.N,GND*%
X51874999Y4375000D02*
X51899999Y4400000D01*
X51099999Y3600000D02*
X51874999Y4375000D01*
D34*
X50049999Y14900000D02*
X48399999Y14900000D01*
X51099999Y13050000D02*
X51099999Y14100000D01*
D33*
X85249999Y19000000D02*
X85249999Y16700000D01*
D34*
X50049999Y4400000D02*
X48374999Y4400000D01*
D33*
X45449999Y22000000D02*
X44049999Y22000000D01*
D35*
X48374999Y4400000D02*
X48324999Y4350000D01*
D34*
X51299999Y4400000D02*
X50249999Y4400000D01*
D33*
X39349999Y19550000D02*
X38149999Y19550000D01*
D35*
X60749999Y18750000D02*
X60874999Y18750000D01*
D33*
X33962499Y15750000D02*
X33962499Y13500000D01*
D34*
X51099999Y2550000D02*
X51099999Y1000000D01*
D33*
X45474999Y12725000D02*
X47149999Y11050000D01*
D34*
X51099999Y13050000D02*
X51099999Y11500000D01*
D33*
X42549999Y22000000D02*
X42449999Y21900000D01*
X39349999Y14800000D02*
X37799999Y14800000D01*
D34*
X52699999Y2550000D02*
X52699999Y3600000D01*
D33*
X80599999Y14400000D02*
X82899999Y14400000D01*
X86349999Y18950000D02*
X86349999Y16650000D01*
X67999999Y20250000D02*
X69774999Y20250000D01*
X83149999Y7200000D02*
X80849999Y7200000D01*
D34*
X51899999Y13050000D02*
X51899999Y11500000D01*
D33*
X83349999Y8550000D02*
X81049999Y8550000D01*
X86449999Y5250000D02*
X86449999Y2950000D01*
D34*
X52699999Y2550000D02*
X52699999Y1000000D01*
D33*
X45399999Y20825000D02*
X45399999Y21950000D01*
D34*
X52699999Y13050000D02*
X52699999Y14100000D01*
D33*
X47649999Y22000000D02*
X47799999Y21850000D01*
D34*
X51899999Y2550000D02*
X51899999Y3600000D01*
D33*
X44049999Y22000000D02*
X47649999Y22000000D01*
D34*
X51099999Y2550000D02*
X51099999Y3600000D01*
X51899999Y2550000D02*
X51899999Y1000000D01*
X50049999Y14900000D02*
X51099999Y14900000D01*
D33*
X82799999Y5350000D02*
X82799999Y3050000D01*
X80649999Y16800000D02*
X82949999Y16800000D01*
X45399999Y21950000D02*
X45449999Y22000000D01*
X45087499Y12550000D02*
X42712499Y12550000D01*
D34*
X51899999Y13050000D02*
X51899999Y14100000D01*
D33*
X83099999Y4850000D02*
X80799999Y4850000D01*
X80675999Y15500000D02*
X82975999Y15500000D01*
D35*
X65537999Y4865000D02*
X65134999Y4865000D01*
D33*
X84749999Y5250000D02*
X84749999Y2950000D01*
X44049999Y22000000D02*
X42549999Y22000000D01*
X83149999Y6000000D02*
X80849999Y6000000D01*
D34*
X52699999Y13050000D02*
X52699999Y11500000D01*
D33*
X45399999Y12725000D02*
X45474999Y12725000D01*
X84099999Y18950000D02*
X84099999Y16650000D01*
D35*
%TO.N,Net-(IC2-VDD1)*%
X52874999Y20150000D02*
X54574999Y20150000D01*
D34*
X51899999Y17850000D02*
X52874999Y18825000D01*
X52874999Y18825000D02*
X52874999Y20150000D01*
X51899999Y16750000D02*
X51899999Y17850000D01*
D33*
%TO.N,+5V*%
X57774999Y9150000D02*
X59399999Y9150000D01*
X53749999Y14900000D02*
X55399999Y14900000D01*
X38189999Y5190000D02*
X38189999Y9350000D01*
X57774999Y8775000D02*
X56149999Y7150000D01*
X34999999Y2025000D02*
X35024999Y2025000D01*
X46724999Y17875000D02*
X45399999Y17875000D01*
X57724999Y19475000D02*
X56599999Y18350000D01*
X53324999Y7150000D02*
X52824999Y6650000D01*
X35024999Y2025000D02*
X38189999Y5190000D01*
X43849999Y19550000D02*
X41849999Y19550000D01*
X57774999Y9150000D02*
X57774999Y8775000D01*
X47649999Y19500000D02*
X47649999Y18800000D01*
X57724999Y20150000D02*
X57724999Y19475000D01*
X32999999Y1800000D02*
X34774999Y1800000D01*
X41849999Y14800000D02*
X44524999Y14800000D01*
X44524999Y14800000D02*
X45399999Y15675000D01*
X59499999Y20000000D02*
X59349999Y20150000D01*
X55074999Y4400000D02*
X55124999Y4350000D01*
X47649999Y18800000D02*
X46724999Y17875000D01*
X52824999Y6650000D02*
X52824999Y6250000D01*
X53999999Y18350000D02*
X52699999Y17050000D01*
X45399999Y17875000D02*
X45399999Y18000000D01*
X56149999Y7150000D02*
X53324999Y7150000D01*
X56599999Y18350000D02*
X53999999Y18350000D01*
X45399999Y17875000D02*
X45399999Y15675000D01*
X45399999Y18000000D02*
X43849999Y19550000D01*
X53749999Y4400000D02*
X55074999Y4400000D01*
X59349999Y20150000D02*
X57724999Y20150000D01*
X34774999Y1800000D02*
X34999999Y2025000D01*
X52699999Y17050000D02*
X52699999Y16775000D01*
D35*
%TO.N,Net-(IC2-OUTA)*%
X55399999Y16750000D02*
X56774999Y16750000D01*
X53749999Y15700000D02*
X54349999Y15700000D01*
X54349999Y15700000D02*
X55399999Y16750000D01*
%TO.N,Net-(IC3-GP)*%
X59724999Y16525000D02*
X59724999Y16750000D01*
X63499999Y9250000D02*
X60999999Y11750000D01*
X60999999Y11750000D02*
X60999999Y15250000D01*
X66154999Y10345000D02*
X66499999Y10000000D01*
X66499999Y10000000D02*
X66499999Y9625000D01*
X60999999Y15250000D02*
X59724999Y16525000D01*
X65537999Y10345000D02*
X66154999Y10345000D01*
X66499999Y9625000D02*
X66124999Y9250000D01*
X66124999Y9250000D02*
X63499999Y9250000D01*
%TO.N,Net-(IC2-OUTB)*%
X53749999Y14100000D02*
X54249999Y14100000D01*
X54249999Y14100000D02*
X55099999Y13250000D01*
X55099999Y13250000D02*
X56774999Y13250000D01*
%TO.N,Net-(IC3-GN)*%
X65537999Y12885000D02*
X66489999Y12885000D01*
X66249999Y8500000D02*
X63249999Y8500000D01*
X66489999Y12885000D02*
X67249999Y12125000D01*
X63249999Y8500000D02*
X60249999Y11500000D01*
X67249999Y9500000D02*
X66249999Y8500000D01*
X60249999Y11500000D02*
X60249999Y12725000D01*
X60249999Y12725000D02*
X59724999Y13250000D01*
X67249999Y12125000D02*
X67249999Y9500000D01*
D33*
%TO.N,Net-(IC5-VDD1)*%
X52924999Y9150000D02*
X54624999Y9150000D01*
D35*
X52924999Y8050000D02*
X52924999Y9150000D01*
X51899999Y7025000D02*
X52924999Y8050000D01*
X51899999Y6250000D02*
X51899999Y7025000D01*
%TO.N,Net-(IC5-OUTA)*%
X56974999Y5550000D02*
X57024999Y5500000D01*
X53749999Y5200000D02*
X54449999Y5200000D01*
X54449999Y5200000D02*
X54799999Y5550000D01*
X54799999Y5550000D02*
X56974999Y5550000D01*
%TO.N,Net-(IC6-GP)*%
X66499999Y2500000D02*
X63849999Y2500000D01*
X66404999Y3595000D02*
X66749999Y3250000D01*
X65537999Y3595000D02*
X66404999Y3595000D01*
X63849999Y2500000D02*
X60849999Y5500000D01*
X60849999Y5500000D02*
X59974999Y5500000D01*
X66749999Y2750000D02*
X66499999Y2500000D01*
X66749999Y3250000D02*
X66749999Y2750000D01*
%TO.N,Net-(IC3-DP_1)*%
X70961999Y11615000D02*
X72384999Y11615000D01*
X72749999Y11250000D02*
X72749999Y10750000D01*
X73804999Y10345000D02*
X72999999Y10345000D01*
X72749999Y10345000D02*
X72499999Y10345000D01*
X72384999Y11615000D02*
X72749999Y11250000D01*
X72499999Y10345000D02*
X70961999Y10345000D01*
X72999999Y10345000D02*
X72749999Y10345000D01*
X72749999Y10595000D02*
X72499999Y10345000D01*
X74599999Y9550000D02*
X73804999Y10345000D01*
X77624999Y9550000D02*
X74599999Y9550000D01*
X72749999Y10595000D02*
X72999999Y10345000D01*
X72749999Y10750000D02*
X72749999Y10345000D01*
X72749999Y10750000D02*
X72749999Y10595000D01*
%TO.N,Net-(D1-A)*%
X72749999Y13135000D02*
X72999999Y12885000D01*
X73614999Y12885000D02*
X72999999Y12885000D01*
X77624999Y11450000D02*
X75049999Y11450000D01*
X75049999Y11450000D02*
X73614999Y12885000D01*
X72749999Y13250000D02*
X72749999Y13135000D01*
X72499999Y12885000D02*
X70961999Y12885000D01*
X72999999Y12885000D02*
X72749999Y12885000D01*
X72749999Y13135000D02*
X72499999Y12885000D01*
X70961999Y14155000D02*
X72344999Y14155000D01*
X72749999Y12885000D02*
X72499999Y12885000D01*
X72344999Y14155000D02*
X72749999Y13750000D01*
X72749999Y13250000D02*
X72749999Y12885000D01*
X72749999Y13750000D02*
X72749999Y13250000D01*
%TO.N,Net-(D1-K-Pad3)*%
X78649999Y7100000D02*
X78999999Y7450000D01*
X79399999Y8850000D02*
X80049999Y8850000D01*
X78999999Y7450000D02*
X78999999Y8450000D01*
X78649999Y10500000D02*
X75749999Y10500000D01*
X79399999Y8850000D02*
X78999999Y8450000D01*
X78999999Y8850000D02*
X79399999Y8850000D01*
X78999999Y9200000D02*
X78999999Y10150000D01*
X75749999Y7100000D02*
X78649999Y7100000D01*
X78999999Y8450000D02*
X78999999Y8850000D01*
X78999999Y10150000D02*
X78649999Y10500000D01*
X82449999Y11250000D02*
X85849999Y11250000D01*
X79399999Y8850000D02*
X79349999Y8850000D01*
X78999999Y8850000D02*
X78999999Y9200000D01*
X80049999Y8850000D02*
X82449999Y11250000D01*
X79349999Y8850000D02*
X78999999Y9200000D01*
%TO.N,Net-(IC6-DP_1)*%
X73049999Y4850000D02*
X72749999Y4550000D01*
X72344999Y3595000D02*
X72749999Y4000000D01*
X73049999Y4865000D02*
X73049999Y4850000D01*
X73049999Y4865000D02*
X73364999Y4865000D01*
X72449999Y4865000D02*
X72449999Y4850000D01*
X72749999Y4000000D02*
X72749999Y4550000D01*
X72749999Y4550000D02*
X72749999Y4865000D01*
X70961999Y3595000D02*
X72344999Y3595000D01*
X72749999Y4865000D02*
X73049999Y4865000D01*
X72449999Y4865000D02*
X72749999Y4865000D01*
X74649999Y6150000D02*
X77624999Y6150000D01*
X70961999Y4865000D02*
X72449999Y4865000D01*
X73364999Y4865000D02*
X74649999Y6150000D01*
X72449999Y4850000D02*
X72749999Y4550000D01*
%TO.N,Net-(D2-A)*%
X77624999Y8050000D02*
X74499999Y8050000D01*
X72749999Y7405000D02*
X72499999Y7405000D01*
X72749999Y7000000D02*
X72749999Y7155000D01*
X72749999Y7155000D02*
X72499999Y7405000D01*
X72499999Y7405000D02*
X70961999Y7405000D01*
X72384999Y6135000D02*
X72749999Y6500000D01*
X73854999Y7405000D02*
X72999999Y7405000D01*
X72749999Y6500000D02*
X72749999Y7000000D01*
X72999999Y7405000D02*
X72749999Y7405000D01*
X72749999Y7000000D02*
X72749999Y7405000D01*
X72749999Y7155000D02*
X72999999Y7405000D01*
X70961999Y6135000D02*
X72384999Y6135000D01*
X74499999Y8050000D02*
X73854999Y7405000D01*
%TO.N,Net-(D3-Pad2)*%
X33437499Y7250000D02*
X33962499Y7775000D01*
X33962499Y7775000D02*
X33962499Y9500000D01*
%TO.N,Pdamp*%
X39349999Y18600000D02*
X38299999Y18600000D01*
X38299999Y18600000D02*
X38049999Y18350000D01*
X35449999Y12550000D02*
X34649999Y11750000D01*
X38049999Y16700000D02*
X38049999Y16600000D01*
X34649999Y11750000D02*
X31449999Y11750000D01*
X37199999Y2150000D02*
X38065999Y2150000D01*
X38065999Y2150000D02*
X38189999Y2274000D01*
X39335999Y2150000D02*
X39459999Y2274000D01*
X35449999Y14200000D02*
X35449999Y12550000D01*
X38049999Y16700000D02*
X38049999Y16250000D01*
X37699999Y16250000D02*
X37499999Y16250000D01*
X38399999Y16250000D02*
X38049999Y16250000D01*
X37699999Y16250000D02*
X38049999Y16250000D01*
X39049999Y15750000D02*
X38549999Y16250000D01*
X39349999Y15750000D02*
X39049999Y15750000D01*
X38049999Y16600000D02*
X38399999Y16250000D01*
X38049999Y16600000D02*
X37699999Y16250000D01*
X37199999Y2150000D02*
X39335999Y2150000D01*
X29768749Y12231250D02*
X31037499Y13500000D01*
X31037499Y12162500D02*
X31037499Y13500000D01*
X31449999Y11750000D02*
X31037499Y12162500D01*
X29768749Y11468750D02*
X29768749Y12231250D01*
X37499999Y16250000D02*
X35449999Y14200000D01*
X27749999Y9420000D02*
X27749999Y9450000D01*
X38549999Y16250000D02*
X38399999Y16250000D01*
X27749999Y9450000D02*
X29768749Y11468750D01*
X38049999Y18350000D02*
X38049999Y16700000D01*
%TO.N,DAMP*%
X40699999Y2304000D02*
X40729999Y2274000D01*
X40747999Y2292000D02*
X40729999Y2274000D01*
X49474999Y5200000D02*
X50049999Y5200000D01*
X48724999Y5950000D02*
X49474999Y5200000D01*
X40699999Y4650000D02*
X40699999Y2304000D01*
%TO.N,Net-(H1-2A)*%
X39459999Y10340000D02*
X39459999Y9350000D01*
X38949999Y11100000D02*
X38949999Y10850000D01*
X41999999Y2274000D02*
X41999999Y4750000D01*
X43349999Y18300000D02*
X43049999Y18600000D01*
X41999999Y4750000D02*
X39459999Y7290000D01*
X39459999Y7290000D02*
X39459999Y9350000D01*
X38949999Y10850000D02*
X39459999Y10340000D01*
X43049999Y18600000D02*
X41849999Y18600000D01*
D36*
%TO.N,P+*%
X32937499Y18662501D02*
X32999999Y18600001D01*
X35749999Y18900000D02*
X36399999Y18900000D01*
X32281800Y18600001D02*
X32749999Y18600001D01*
X27749999Y14500000D02*
X28794998Y13455001D01*
X28794998Y13455001D02*
X28886800Y13455001D01*
X43269999Y2274000D02*
X43269999Y3820000D01*
X32937499Y20850000D02*
X32899999Y20812500D01*
X37999999Y20500000D02*
X39349999Y20500000D01*
X33249999Y18600001D02*
X35450000Y18600001D01*
X32600000Y18600001D02*
X32549999Y18600001D01*
X35450000Y18600001D02*
X35749999Y18900000D01*
X32937499Y19000000D02*
X32937499Y18937500D01*
X32937499Y18937500D02*
X32600000Y18600001D01*
X32937499Y19000000D02*
X32937499Y18662501D01*
X30156799Y17725000D02*
X31406799Y17725000D01*
X36399999Y18900000D02*
X37999999Y20500000D01*
X43269999Y3820000D02*
X43599999Y4150000D01*
X29524999Y14093200D02*
X29524999Y17093200D01*
X28886800Y13455001D02*
X29524999Y14093200D01*
X32999999Y18600001D02*
X33249999Y18600001D01*
X32937499Y20850000D02*
X32937499Y19000000D01*
X32749999Y18600001D02*
X32999999Y18600001D01*
X32937499Y19000000D02*
X32937499Y18912501D01*
X29524999Y17093200D02*
X30156799Y17725000D01*
X31406799Y17725000D02*
X32281800Y18600001D01*
X32937499Y18912501D02*
X33249999Y18600001D01*
%TO.N,PULSE+*%
X48724999Y16350000D02*
X49374999Y15700000D01*
X49374999Y15700000D02*
X50049999Y15700000D01*
X44539999Y3340000D02*
X44539999Y2274000D01*
X45349999Y4150000D02*
X44539999Y3340000D01*
D35*
%TO.N,_PULSE-*%
X45809999Y10560000D02*
X45809999Y9350000D01*
X45524999Y10845000D02*
X45809999Y10560000D01*
X38449999Y13850000D02*
X37799999Y13200000D01*
D36*
X45669999Y9350000D02*
X45709999Y9390000D01*
D35*
X45524999Y11025000D02*
X45524999Y10845000D01*
X39349999Y13850000D02*
X38449999Y13850000D01*
D36*
%TO.N,P-*%
X30999999Y17275000D02*
X31349999Y17275000D01*
X31037499Y15750000D02*
X31037499Y17000000D01*
X29974999Y16906800D02*
X30343199Y17275000D01*
X44099999Y11025000D02*
X44539999Y10585000D01*
X44539999Y10585000D02*
X44539999Y9350000D01*
X35450000Y18149999D02*
X35749999Y17850000D01*
X31037499Y17000000D02*
X31037499Y17037500D01*
X31349999Y17275000D02*
X31593199Y17275000D01*
X31037499Y17237500D02*
X30999999Y17275000D01*
X31037499Y17000000D02*
X31037499Y17237500D01*
X30799999Y17275000D02*
X30999999Y17275000D01*
X30343199Y17275000D02*
X30799999Y17275000D01*
X29073198Y13004999D02*
X29974999Y13906800D01*
X31037499Y17037500D02*
X30799999Y17275000D01*
X29974999Y13906800D02*
X29974999Y16906800D01*
X28794998Y13004999D02*
X29073198Y13004999D01*
X32468198Y18149999D02*
X35450000Y18149999D01*
X31593199Y17275000D02*
X32468198Y18149999D01*
X31037499Y17000000D02*
X31074999Y17000000D01*
X27749999Y11960000D02*
X28794998Y13004999D01*
X31074999Y17000000D02*
X31349999Y17275000D01*
D35*
%TO.N,Net-(H1-3B)*%
X43269999Y9350000D02*
X43189999Y9430000D01*
X42349999Y10750000D02*
X41999999Y10400000D01*
X41999999Y10400000D02*
X41999999Y9350000D01*
X43189999Y9430000D02*
X43189999Y10410000D01*
X43189999Y10410000D02*
X42849999Y10750000D01*
X42849999Y10750000D02*
X42349999Y10750000D01*
D36*
%TO.N,Net-(H1-4A)*%
X40729999Y10295000D02*
X40729999Y9350000D01*
X43049999Y20500000D02*
X41849999Y20500000D01*
X43599999Y21050000D02*
X43049999Y20500000D01*
X40062499Y10962500D02*
X40729999Y10295000D01*
%TO.N,PULSE-*%
X49274999Y14100000D02*
X50049999Y14100000D01*
X48724999Y13550000D02*
X49274999Y14100000D01*
X43724999Y13650000D02*
X43574999Y13800000D01*
X41899999Y13800000D02*
X41849999Y13850000D01*
X43574999Y13800000D02*
X41899999Y13800000D01*
D35*
%TO.N,OE*%
X27749999Y6880000D02*
X29079999Y6880000D01*
X51099999Y18400000D02*
X51049999Y18350000D01*
X46949999Y14000000D02*
X48649999Y12300000D01*
X30249999Y9500000D02*
X31037499Y9500000D01*
X49349999Y7150000D02*
X50199999Y7150000D01*
X46949999Y16700000D02*
X46949999Y14000000D01*
X48649999Y7850000D02*
X49349999Y7150000D01*
X51049999Y18350000D02*
X48599999Y18350000D01*
X29549999Y8800000D02*
X30249999Y9500000D01*
X32387499Y10850000D02*
X31037499Y9500000D01*
X29079999Y6880000D02*
X29549999Y7350000D01*
X50899999Y7150000D02*
X51099999Y6950000D01*
X48649999Y12300000D02*
X48649999Y7850000D01*
X48599999Y18350000D02*
X46949999Y16700000D01*
X29549999Y7350000D02*
X29549999Y8800000D01*
X51099999Y18400000D02*
X51099999Y16750000D01*
X35399999Y10850000D02*
X32387499Y10850000D01*
X35549999Y10700000D02*
X35399999Y10850000D01*
X51099999Y6950000D02*
X51099999Y6250000D01*
X50199999Y7150000D02*
X50899999Y7150000D01*
D36*
%TO.N,~{DAMP}*%
X43449999Y15950000D02*
X42049999Y15950000D01*
D35*
X48724999Y3150000D02*
X49174999Y3600000D01*
D36*
X42049999Y15950000D02*
X41849999Y15750000D01*
D35*
X49174999Y3600000D02*
X50049999Y3600000D01*
%TO.N,Net-(IC5-OUTB)*%
X67499999Y2500000D02*
X66749999Y1750000D01*
X54349999Y3600000D02*
X53749999Y3600000D01*
X66749999Y1750000D02*
X56199999Y1750000D01*
X67499999Y5250000D02*
X67499999Y2500000D01*
X56199999Y1750000D02*
X54349999Y3600000D01*
X65537999Y6135000D02*
X66614999Y6135000D01*
X66614999Y6135000D02*
X67499999Y5250000D01*
D33*
%TO.N,-HV*%
X66654999Y14155000D02*
X65537999Y14155000D01*
D37*
X72724999Y18000000D02*
X72724999Y16475000D01*
X72724999Y20250000D02*
X72724999Y18000000D01*
X72149999Y15900000D02*
X68649999Y15900000D01*
X72974999Y20000000D02*
X72724999Y20250000D01*
D38*
X66904999Y14155000D02*
X65537999Y14155000D01*
D37*
X76669999Y20000000D02*
X72974999Y20000000D01*
X72724999Y16475000D02*
X72149999Y15900000D01*
D39*
X68649999Y15900000D02*
X66904999Y14155000D01*
D37*
%TO.N,+HV*%
X65224999Y17750000D02*
X65224999Y20150000D01*
D38*
X63634999Y11615000D02*
X65537999Y11615000D01*
D37*
X62749999Y12500000D02*
X63634999Y11615000D01*
X67449999Y17500000D02*
X65474999Y17500000D01*
X62749999Y12500000D02*
X62749999Y14750000D01*
X62749999Y14750000D02*
X65224999Y17225000D01*
X66199999Y17500000D02*
X65474999Y17500000D01*
D33*
X65224999Y17225000D02*
X65224999Y20150000D01*
X65474999Y17500000D02*
X65224999Y17750000D01*
%TO.N,GND*%
X12960002Y18039999D02*
X13000002Y17999999D01*
X11675002Y15924999D02*
X11750002Y15999999D01*
X3525002Y19749999D02*
X2000002Y19749999D01*
X9960002Y15924999D02*
X11675002Y15924999D01*
D40*
X12960002Y19999999D02*
X12960002Y18039999D01*
D33*
X2250002Y14974999D02*
X2250002Y16499999D01*
D37*
%TO.N,+5V*%
X6975002Y1999999D02*
X10420002Y1999999D01*
X6975002Y4524999D02*
X5075002Y6424999D01*
X6975002Y1999999D02*
X6975002Y4524999D01*
X5075002Y6424999D02*
X2250002Y6424999D01*
%TO.N,Net-(PS1-+VIN)*%
X12525002Y12024999D02*
X2250002Y12024999D01*
X2250002Y12024999D02*
X2250002Y9574999D01*
X15040002Y14539999D02*
X12525002Y12024999D01*
X15040002Y15924999D02*
X15040002Y14539999D01*
%TO.N,-HV*%
X6475002Y19749999D02*
X10170002Y19749999D01*
X7420002Y19749999D02*
X6475002Y19749999D01*
X7420002Y15924999D02*
X7420002Y19749999D01*
X10170002Y19749999D02*
X10420002Y19999999D01*
%TO.N,+HV*%
X12960002Y1999999D02*
X16275002Y1999999D01*
X11675002Y5574999D02*
X9960002Y5574999D01*
X12960002Y4289999D02*
X11675002Y5574999D01*
X12960002Y1999999D02*
X12960002Y4289999D01*
%TD*%
%TA.AperFunction,Conductor*%
%TO.N,GND*%
G36*
X31496287Y22231046D02*
G01*
X31577069Y22177070D01*
X31631045Y22096288D01*
X31649999Y22001000D01*
X31649999Y21132589D01*
X31631045Y21037301D01*
X31577069Y20956519D01*
X31496287Y20902543D01*
X31400999Y20883589D01*
X31313985Y20899288D01*
X31247483Y20924091D01*
X31247484Y20924091D01*
X31187872Y20930500D01*
X29392133Y20930500D01*
X29392129Y20930500D01*
X29392127Y20930499D01*
X29379313Y20929122D01*
X29332518Y20924092D01*
X29332513Y20924091D01*
X29310016Y20915699D01*
X29223001Y20900000D01*
X28072474Y20900000D01*
X28008027Y20908485D01*
X27999999Y20910636D01*
X27999999Y20900000D01*
X27799999Y20900000D01*
X27999999Y20891112D01*
X27999999Y20013012D01*
X27942992Y20045925D01*
X27815825Y20080000D01*
X27684173Y20080000D01*
X27557006Y20045925D01*
X27499999Y20013012D01*
X27499999Y20910636D01*
X27499997Y20910637D01*
X27286515Y20853434D01*
X27286504Y20853430D01*
X27072427Y20753604D01*
X27072419Y20753600D01*
X26878922Y20618111D01*
X26711888Y20451077D01*
X26576399Y20257580D01*
X26576395Y20257572D01*
X26476569Y20043495D01*
X26476565Y20043484D01*
X26419362Y19830002D01*
X26419363Y19830000D01*
X27316987Y19830000D01*
X27284074Y19772993D01*
X27249999Y19645826D01*
X27249999Y19514174D01*
X27284074Y19387007D01*
X27316987Y19330000D01*
X26419363Y19330000D01*
X26419362Y19329999D01*
X26476565Y19116517D01*
X26476565Y19116515D01*
X26576398Y18902424D01*
X26711888Y18708924D01*
X26878922Y18541890D01*
X27072422Y18406400D01*
X27286510Y18306569D01*
X27499999Y18249365D01*
X27499999Y19146988D01*
X27557006Y19114075D01*
X27684173Y19080000D01*
X27815825Y19080000D01*
X27942992Y19114075D01*
X27999999Y19146988D01*
X27999999Y18249365D01*
X28213487Y18306569D01*
X28295767Y18344936D01*
X28390138Y18368028D01*
X28486162Y18353249D01*
X28569221Y18302847D01*
X28626670Y18224497D01*
X28649762Y18130126D01*
X28649999Y18119265D01*
X28649999Y15961288D01*
X28631045Y15866000D01*
X28577069Y15785218D01*
X28496287Y15731242D01*
X28400999Y15712288D01*
X28305711Y15731242D01*
X28295769Y15735617D01*
X28213666Y15773902D01*
X28213663Y15773903D01*
X27985400Y15835065D01*
X27750004Y15855659D01*
X27749994Y15855659D01*
X27514597Y15835065D01*
X27286334Y15773903D01*
X27286332Y15773902D01*
X27072176Y15674039D01*
X27072168Y15674035D01*
X26878599Y15538496D01*
X26711503Y15371400D01*
X26575964Y15177831D01*
X26575960Y15177823D01*
X26476097Y14963667D01*
X26476096Y14963665D01*
X26472301Y14949500D01*
X26414936Y14735408D01*
X26414935Y14735405D01*
X26414935Y14735402D01*
X26407397Y14649245D01*
X26387310Y14580332D01*
X26399051Y14446142D01*
X26399999Y14424439D01*
X26399999Y12035550D01*
X26399051Y12013847D01*
X26394340Y11960004D01*
X26394340Y11959998D01*
X26399051Y11906156D01*
X26399999Y11884452D01*
X26399999Y9495550D01*
X26399051Y9473847D01*
X26394340Y9420004D01*
X26394340Y9419998D01*
X26399051Y9366156D01*
X26399999Y9344452D01*
X26399999Y6955550D01*
X26399051Y6933847D01*
X26394717Y6884306D01*
X26394340Y6880000D01*
X26397189Y6847431D01*
X26399051Y6826156D01*
X26399999Y6804452D01*
X26399999Y4600000D01*
X26400000Y4600000D01*
X26410000Y4590000D01*
X27316987Y4590000D01*
X27284074Y4532993D01*
X27249999Y4405826D01*
X27249999Y4274174D01*
X27284074Y4147007D01*
X27316987Y4090000D01*
X26419362Y4090000D01*
X26399999Y4064766D01*
X26399999Y2713867D01*
X26399642Y2700536D01*
X26399499Y2697869D01*
X26399499Y902130D01*
X26399642Y899481D01*
X26399999Y886151D01*
X26399999Y249000D01*
X26381045Y153712D01*
X26327069Y72930D01*
X26246287Y18954D01*
X26150999Y0D01*
X25752203Y0D01*
X25747834Y38D01*
X25623100Y2227D01*
X25592132Y4709D01*
X25552886Y10336D01*
X25343081Y40415D01*
X25308461Y47925D01*
X25069106Y117996D01*
X25035900Y130343D01*
X24808915Y233672D01*
X24777798Y250606D01*
X24567774Y385101D01*
X24539375Y406279D01*
X24404094Y523023D01*
X24350548Y569232D01*
X24325457Y594212D01*
X24161669Y782312D01*
X24140370Y810609D01*
X24004937Y1020043D01*
X23987865Y1051085D01*
X23965565Y1099500D01*
X23883530Y1277609D01*
X23871036Y1310759D01*
X23865558Y1329167D01*
X23799902Y1549803D01*
X23792241Y1584383D01*
X23755426Y1833299D01*
X23752808Y1864206D01*
X23750058Y1988454D01*
X23749999Y1993781D01*
X23749999Y20247804D01*
X23750039Y20252243D01*
X23750608Y20284153D01*
X23752269Y20377281D01*
X23754763Y20408275D01*
X23790675Y20658053D01*
X23798226Y20692761D01*
X23844386Y20849968D01*
X23868691Y20932743D01*
X23881101Y20966015D01*
X23985003Y21193529D01*
X24002025Y21224701D01*
X24002027Y21224704D01*
X24137250Y21435115D01*
X24158527Y21463537D01*
X24322321Y21652567D01*
X24347435Y21677680D01*
X24536462Y21841472D01*
X24564884Y21862749D01*
X24775302Y21997977D01*
X24806470Y22014996D01*
X25033984Y22118898D01*
X25067256Y22131308D01*
X25307240Y22201774D01*
X25341946Y22209324D01*
X25591726Y22245237D01*
X25622718Y22247730D01*
X25747756Y22249961D01*
X25752196Y22250000D01*
X31400999Y22250000D01*
X31496287Y22231046D01*
G37*
%TD.AperFunction*%
%TA.AperFunction,Conductor*%
G36*
X38096287Y15580546D02*
G01*
X38177069Y15526570D01*
X38231045Y15445788D01*
X38249999Y15350500D01*
X38249999Y14550000D01*
X38220022Y14520023D01*
X38177069Y14455737D01*
X38139335Y14424770D01*
X38035326Y14355275D01*
X37851733Y14171682D01*
X37770952Y14117706D01*
X37717900Y14104230D01*
X37718117Y14103213D01*
X37520202Y14061146D01*
X37520188Y14061142D01*
X37347270Y13984153D01*
X37194125Y13872886D01*
X37067468Y13732220D01*
X36972821Y13568286D01*
X36914324Y13388256D01*
X36894539Y13200000D01*
X36914324Y13011745D01*
X36940101Y12932415D01*
X36972820Y12831716D01*
X37067466Y12667784D01*
X37067468Y12667781D01*
X37187790Y12534151D01*
X37194128Y12527112D01*
X37272281Y12470331D01*
X37347270Y12415848D01*
X37520188Y12338859D01*
X37520191Y12338858D01*
X37520196Y12338856D01*
X37705353Y12299500D01*
X37894644Y12299500D01*
X37894645Y12299500D01*
X38079802Y12338856D01*
X38104886Y12350024D01*
X38252727Y12415848D01*
X38252727Y12415849D01*
X38252729Y12415849D01*
X38405870Y12527112D01*
X38532532Y12667784D01*
X38627178Y12831716D01*
X38640684Y12873284D01*
X38688152Y12958046D01*
X38764448Y13018195D01*
X38857955Y13044568D01*
X38897022Y13044569D01*
X38995555Y13036818D01*
X39062818Y13049500D01*
X39865692Y13049500D01*
X39865693Y13049500D01*
X39865693Y13049501D01*
X39870578Y13049692D01*
X39870583Y13049558D01*
X39881828Y13050000D01*
X41318170Y13050000D01*
X41329414Y13049558D01*
X41329420Y13049692D01*
X41334304Y13049501D01*
X41334305Y13049500D01*
X41334306Y13049500D01*
X42365692Y13049500D01*
X42365693Y13049500D01*
X42365693Y13049501D01*
X42370578Y13049692D01*
X42370583Y13049558D01*
X42381828Y13050000D01*
X42942637Y13050000D01*
X43037925Y13031046D01*
X43107975Y12984241D01*
X43109424Y12985849D01*
X43119125Y12977115D01*
X43119128Y12977112D01*
X43188848Y12926458D01*
X43272270Y12865848D01*
X43445188Y12788859D01*
X43445191Y12788858D01*
X43445196Y12788856D01*
X43630353Y12749500D01*
X43751000Y12749500D01*
X43846288Y12730546D01*
X43927070Y12676570D01*
X43981046Y12595788D01*
X44000000Y12500500D01*
X44000000Y12350024D01*
X44010493Y12247301D01*
X44010494Y12247298D01*
X44022276Y12211743D01*
X44034257Y12115330D01*
X44008430Y12021670D01*
X43948727Y11945024D01*
X43864237Y11897060D01*
X43837689Y11889863D01*
X43820204Y11886147D01*
X43820188Y11886142D01*
X43647270Y11809153D01*
X43494125Y11697886D01*
X43367468Y11557220D01*
X43348577Y11524499D01*
X43284518Y11451455D01*
X43197382Y11408484D01*
X43132937Y11400000D01*
X42931377Y11400000D01*
X42921193Y11400500D01*
X42914068Y11400500D01*
X42285930Y11400500D01*
X42278805Y11400500D01*
X42268621Y11400000D01*
X40990719Y11400000D01*
X40895431Y11418954D01*
X40814649Y11472930D01*
X40804081Y11485304D01*
X40803765Y11485018D01*
X40668372Y11635386D01*
X40668371Y11635387D01*
X40668370Y11635388D01*
X40575903Y11702569D01*
X40515227Y11746653D01*
X40342309Y11823642D01*
X40342295Y11823646D01*
X40157145Y11863000D01*
X39967853Y11863000D01*
X39782702Y11823646D01*
X39782692Y11823643D01*
X39730068Y11800213D01*
X39635309Y11778772D01*
X39539557Y11795226D01*
X39482434Y11826242D01*
X39476489Y11830561D01*
X39452011Y11848346D01*
X39402727Y11884153D01*
X39229809Y11961142D01*
X39229795Y11961146D01*
X39044645Y12000500D01*
X38855353Y12000500D01*
X38670202Y11961146D01*
X38670188Y11961142D01*
X38497270Y11884153D01*
X38344125Y11772886D01*
X38217468Y11632220D01*
X38122821Y11468286D01*
X38064324Y11288256D01*
X38044539Y11100000D01*
X38044539Y11099999D01*
X38055844Y10992433D01*
X38046954Y10895686D01*
X38001716Y10809705D01*
X37927019Y10747581D01*
X37882288Y10728682D01*
X37735728Y10683012D01*
X37735727Y10683011D01*
X37595347Y10598149D01*
X37479350Y10482152D01*
X37394488Y10341772D01*
X37394486Y10341768D01*
X37345683Y10185158D01*
X37345683Y10185155D01*
X37339500Y10117111D01*
X37339499Y10117087D01*
X37339499Y8582914D01*
X37339500Y8582890D01*
X37345683Y8514846D01*
X37345683Y8514843D01*
X37392113Y8365849D01*
X37394487Y8358230D01*
X37403589Y8343173D01*
X37436664Y8251825D01*
X37439499Y8214358D01*
X37439499Y5604009D01*
X37420545Y5508721D01*
X37366569Y5427939D01*
X36707884Y4769254D01*
X36627102Y4715278D01*
X36531814Y4696324D01*
X36436526Y4715278D01*
X36421976Y4725000D01*
X35250000Y4725000D01*
X35249999Y4724999D01*
X35249999Y3414509D01*
X35231045Y3319221D01*
X35177069Y3238439D01*
X35177067Y3238438D01*
X35112057Y3173429D01*
X35031275Y3119453D01*
X34935989Y3100500D01*
X34299992Y3100500D01*
X34197198Y3089999D01*
X34030666Y3034815D01*
X33881345Y2942714D01*
X33757286Y2818655D01*
X33692490Y2713604D01*
X33626334Y2642454D01*
X33537985Y2602036D01*
X33440894Y2598504D01*
X33379284Y2616851D01*
X33279802Y2661144D01*
X33279797Y2661145D01*
X33279795Y2661146D01*
X33094645Y2700500D01*
X32905353Y2700500D01*
X32720202Y2661146D01*
X32720188Y2661142D01*
X32547270Y2584153D01*
X32394125Y2472886D01*
X32267471Y2332223D01*
X32267468Y2332220D01*
X32172821Y2168286D01*
X32114324Y1988256D01*
X32094539Y1800000D01*
X32114324Y1611745D01*
X32134451Y1549803D01*
X32172820Y1431716D01*
X32255300Y1288856D01*
X32267468Y1267781D01*
X32394125Y1127115D01*
X32394128Y1127112D01*
X32477968Y1066199D01*
X32547270Y1015848D01*
X32720188Y938859D01*
X32720191Y938858D01*
X32720196Y938856D01*
X32905353Y899500D01*
X33094642Y899500D01*
X33094645Y899500D01*
X33201544Y922223D01*
X33298686Y923494D01*
X33357573Y900000D01*
X37829366Y900000D01*
X37878963Y892451D01*
X37879422Y894755D01*
X37892338Y892187D01*
X37892342Y892185D01*
X37960405Y886000D01*
X37960413Y886000D01*
X38419585Y886000D01*
X38419593Y886000D01*
X38487656Y892185D01*
X38487661Y892187D01*
X38500576Y894755D01*
X38501034Y892451D01*
X38550632Y900000D01*
X39099366Y900000D01*
X39148963Y892451D01*
X39149422Y894755D01*
X39162338Y892187D01*
X39162342Y892185D01*
X39230405Y886000D01*
X39230413Y886000D01*
X39689585Y886000D01*
X39689593Y886000D01*
X39757656Y892185D01*
X39757661Y892187D01*
X39770576Y894755D01*
X39771034Y892451D01*
X39820632Y900000D01*
X40369366Y900000D01*
X40418963Y892451D01*
X40419422Y894755D01*
X40432338Y892187D01*
X40432342Y892185D01*
X40500405Y886000D01*
X40500413Y886000D01*
X40959585Y886000D01*
X40959593Y886000D01*
X41027656Y892185D01*
X41027661Y892187D01*
X41040576Y894755D01*
X41041034Y892451D01*
X41090632Y900000D01*
X41639366Y900000D01*
X41688963Y892451D01*
X41689422Y894755D01*
X41702338Y892187D01*
X41702342Y892185D01*
X41770405Y886000D01*
X41770413Y886000D01*
X42229585Y886000D01*
X42229593Y886000D01*
X42297656Y892185D01*
X42297661Y892187D01*
X42310576Y894755D01*
X42311034Y892451D01*
X42360632Y900000D01*
X42909366Y900000D01*
X42958963Y892451D01*
X42959422Y894755D01*
X42972338Y892187D01*
X42972342Y892185D01*
X43040405Y886000D01*
X43040413Y886000D01*
X43499585Y886000D01*
X43499593Y886000D01*
X43567656Y892185D01*
X43567661Y892187D01*
X43580576Y894755D01*
X43581034Y892451D01*
X43630632Y900000D01*
X44179366Y900000D01*
X44228963Y892451D01*
X44229422Y894755D01*
X44242338Y892187D01*
X44242342Y892185D01*
X44310405Y886000D01*
X44310413Y886000D01*
X44769585Y886000D01*
X44769593Y886000D01*
X44837656Y892185D01*
X44837661Y892187D01*
X44850576Y894755D01*
X44851034Y892451D01*
X44900632Y900000D01*
X45451111Y900000D01*
X45499691Y895215D01*
X45512438Y892680D01*
X45559998Y888358D01*
X45559999Y888359D01*
X45559999Y2023999D01*
X46059999Y2023999D01*
X46059999Y888360D01*
X46107562Y892680D01*
X46264062Y941447D01*
X46404340Y1026248D01*
X46520251Y1142159D01*
X46605053Y1282438D01*
X46653819Y1438937D01*
X46653819Y1438938D01*
X46659998Y1506928D01*
X46659999Y1506949D01*
X46659999Y2023999D01*
X46659998Y2024000D01*
X46060000Y2024000D01*
X46059999Y2023999D01*
X45559999Y2023999D01*
X45559999Y2275000D01*
X45578953Y2370288D01*
X45632929Y2451070D01*
X45713711Y2505046D01*
X45808999Y2524000D01*
X46659997Y2524000D01*
X46659998Y2524001D01*
X46659998Y3041053D01*
X46653817Y3109070D01*
X46605052Y3265564D01*
X46520251Y3405842D01*
X46404339Y3521754D01*
X46370179Y3542405D01*
X46298440Y3607923D01*
X46257234Y3695907D01*
X46249999Y3755493D01*
X46249999Y4085002D01*
X46251363Y4111030D01*
X46252073Y4117788D01*
X46255459Y4150000D01*
X46235673Y4338256D01*
X46177178Y4518284D01*
X46082532Y4682216D01*
X46082530Y4682219D01*
X46082529Y4682220D01*
X45955872Y4822886D01*
X45955871Y4822887D01*
X45955870Y4822888D01*
X45850422Y4899500D01*
X45802727Y4934153D01*
X45629809Y5011142D01*
X45629795Y5011146D01*
X45444645Y5050500D01*
X45255353Y5050500D01*
X45247082Y5050500D01*
X45237546Y5050000D01*
X43712452Y5050000D01*
X43702916Y5050500D01*
X43694645Y5050500D01*
X43505353Y5050500D01*
X43497082Y5050500D01*
X43487546Y5050000D01*
X42714988Y5050000D01*
X42619700Y5068954D01*
X42538918Y5122930D01*
X42507954Y5160661D01*
X42505278Y5164666D01*
X42505277Y5164667D01*
X42505275Y5164670D01*
X40672929Y6997016D01*
X40618953Y7077798D01*
X40599999Y7173086D01*
X40599999Y7701000D01*
X40618953Y7796288D01*
X40672929Y7877070D01*
X40753711Y7931046D01*
X40848999Y7950000D01*
X46071391Y7950000D01*
X46087696Y7960895D01*
X46108898Y7968573D01*
X46264269Y8016988D01*
X46404652Y8101852D01*
X46520647Y8217847D01*
X46605511Y8358230D01*
X46654314Y8514843D01*
X46660499Y8582906D01*
X46660499Y10117094D01*
X46654314Y10185157D01*
X46605511Y10341770D01*
X46520647Y10482153D01*
X46520644Y10482156D01*
X46512530Y10492512D01*
X46468682Y10579209D01*
X46460732Y10621691D01*
X46460499Y10624054D01*
X46460499Y10624069D01*
X46435500Y10749744D01*
X46432604Y10756734D01*
X46413650Y10852021D01*
X46415014Y10878050D01*
X46416087Y10888256D01*
X46430459Y11025000D01*
X46410673Y11213256D01*
X46352178Y11393284D01*
X46340316Y11413830D01*
X46309087Y11505825D01*
X46315441Y11602772D01*
X46358411Y11689908D01*
X46425240Y11750257D01*
X46518339Y11807681D01*
X46518344Y11807685D01*
X46642314Y11931655D01*
X46642317Y11931659D01*
X46734357Y12080879D01*
X46734358Y12080880D01*
X46789503Y12247299D01*
X46789504Y12247306D01*
X46799998Y12350019D01*
X46799999Y12350029D01*
X46799999Y12474999D01*
X46799998Y12475000D01*
X45398999Y12475000D01*
X45303711Y12493954D01*
X45222929Y12547930D01*
X45168953Y12628712D01*
X45149999Y12724000D01*
X45149999Y13306819D01*
X45649999Y13102273D01*
X45649999Y12975001D01*
X45650000Y12975000D01*
X46824104Y12975000D01*
X46832237Y12980434D01*
X46927525Y12999388D01*
X47022813Y12980434D01*
X47103595Y12926458D01*
X47926569Y12103484D01*
X47980545Y12022702D01*
X47999499Y11927414D01*
X47999499Y7923291D01*
X47985838Y7854614D01*
X47995215Y7807473D01*
X47999999Y7758896D01*
X47999999Y6561984D01*
X47981045Y6466696D01*
X47966640Y6437485D01*
X47904005Y6328997D01*
X47897820Y6318284D01*
X47888115Y6288415D01*
X47839324Y6138256D01*
X47819539Y5950000D01*
X47839324Y5761745D01*
X47846519Y5739602D01*
X47897820Y5581716D01*
X47992466Y5417784D01*
X47992468Y5417781D01*
X48097267Y5301391D01*
X48119128Y5277112D01*
X48205121Y5214635D01*
X48272270Y5165848D01*
X48445188Y5088859D01*
X48445191Y5088858D01*
X48445196Y5088856D01*
X48630353Y5049500D01*
X48643117Y5046787D01*
X48642717Y5044909D01*
X48719472Y5021078D01*
X48776735Y4978319D01*
X48939817Y4815237D01*
X48993793Y4734455D01*
X49012747Y4639167D01*
X49010617Y4606667D01*
X48999999Y4526013D01*
X48999999Y4396869D01*
X48981045Y4301581D01*
X48927069Y4220799D01*
X48876848Y4183552D01*
X48877043Y4183261D01*
X48871135Y4179314D01*
X48868388Y4177276D01*
X48866875Y4176468D01*
X48750159Y4098481D01*
X48749456Y4099532D01*
X48674867Y4059671D01*
X48643109Y4053247D01*
X48643117Y4053213D01*
X48445202Y4011146D01*
X48445188Y4011142D01*
X48272270Y3934153D01*
X48119125Y3822886D01*
X47992468Y3682220D01*
X47922320Y3560720D01*
X47897820Y3518284D01*
X47891002Y3497301D01*
X47839324Y3338256D01*
X47819539Y3150000D01*
X47839324Y2961745D01*
X47851426Y2924500D01*
X47897820Y2781716D01*
X47974155Y2649500D01*
X47992468Y2617781D01*
X48078098Y2522680D01*
X48119128Y2477112D01*
X48198488Y2419454D01*
X48272270Y2365848D01*
X48445188Y2288859D01*
X48445191Y2288858D01*
X48445196Y2288856D01*
X48630353Y2249500D01*
X48717991Y2249500D01*
X48770501Y2239056D01*
X48796396Y2244559D01*
X48848164Y2250000D01*
X50180169Y2250000D01*
X50275457Y2231046D01*
X50356239Y2177070D01*
X50410215Y2096288D01*
X50427039Y2033499D01*
X50440119Y1934134D01*
X50499319Y1791214D01*
X50593487Y1668493D01*
X50593491Y1668489D01*
X50716212Y1574321D01*
X50859131Y1515121D01*
X50920141Y1507089D01*
X50941025Y1500000D01*
X55426913Y1500000D01*
X55522201Y1481046D01*
X55602983Y1427070D01*
X55785330Y1244723D01*
X55808396Y1229311D01*
X55891871Y1173535D01*
X55931333Y1157190D01*
X56010255Y1124499D01*
X56135928Y1099501D01*
X56135929Y1099500D01*
X56135930Y1099500D01*
X66814069Y1099500D01*
X66814069Y1099501D01*
X66939743Y1124499D01*
X67058126Y1173535D01*
X67164668Y1244723D01*
X68005275Y2085331D01*
X68076464Y2191873D01*
X68125500Y2310256D01*
X68129868Y2332216D01*
X68150499Y2435931D01*
X68150499Y5314069D01*
X68125500Y5439744D01*
X68084877Y5537814D01*
X68076465Y5558125D01*
X68076462Y5558130D01*
X68066169Y5573535D01*
X68005277Y5664668D01*
X67029668Y6640277D01*
X66923126Y6711465D01*
X66905872Y6718612D01*
X66825091Y6772589D01*
X66771116Y6853371D01*
X66752163Y6948660D01*
X66763437Y7022734D01*
X66794433Y7122208D01*
X66794433Y7122210D01*
X66797413Y7155000D01*
X64278585Y7155000D01*
X64281564Y7122210D01*
X64281565Y7122205D01*
X64329425Y6968610D01*
X64329428Y6968605D01*
X64371323Y6899302D01*
X64404399Y6807950D01*
X64399999Y6710895D01*
X64371324Y6641668D01*
X64328968Y6571604D01*
X64328966Y6571599D01*
X64281069Y6417888D01*
X64281068Y6417881D01*
X64274999Y6351105D01*
X64274999Y5918906D01*
X64281068Y5852115D01*
X64328967Y5698400D01*
X64328969Y5698395D01*
X64371323Y5628334D01*
X64404399Y5536983D01*
X64399999Y5439928D01*
X64371324Y5370701D01*
X64329428Y5301398D01*
X64329425Y5301391D01*
X64281565Y5147796D01*
X64281564Y5147791D01*
X64278584Y5115001D01*
X64278585Y5115000D01*
X65538999Y5115000D01*
X65634287Y5096046D01*
X65715069Y5042070D01*
X65769045Y4961288D01*
X65787999Y4866000D01*
X65787999Y4864000D01*
X65769045Y4768712D01*
X65715069Y4687930D01*
X65634287Y4633954D01*
X65538999Y4615000D01*
X64226175Y4615000D01*
X64166350Y4600255D01*
X64155074Y4600000D01*
X62773085Y4600000D01*
X62677797Y4618954D01*
X62597015Y4672930D01*
X61264666Y6005279D01*
X61153622Y6079475D01*
X61084922Y6148174D01*
X61047742Y6237933D01*
X61044246Y6261208D01*
X61039998Y6302797D01*
X61039753Y6303535D01*
X61001861Y6417887D01*
X60984813Y6469334D01*
X60892711Y6618656D01*
X60768655Y6742712D01*
X60766320Y6744152D01*
X60692462Y6789708D01*
X60619333Y6834814D01*
X60619331Y6834815D01*
X60619329Y6834816D01*
X60619331Y6834816D01*
X60452801Y6889998D01*
X60452797Y6889999D01*
X60452796Y6889999D01*
X60350008Y6900500D01*
X60350004Y6900500D01*
X59599983Y6900500D01*
X59596529Y6900323D01*
X59583859Y6900000D01*
X58598999Y6900000D01*
X58503711Y6918954D01*
X58422929Y6972930D01*
X58368953Y7053712D01*
X58349999Y7149000D01*
X58349999Y7614289D01*
X58368953Y7709577D01*
X58422929Y7790359D01*
X58468275Y7826214D01*
X58518655Y7857288D01*
X58642711Y7981344D01*
X58734813Y8130666D01*
X58743561Y8157067D01*
X58791525Y8241556D01*
X58868171Y8301260D01*
X58961830Y8327088D01*
X59058243Y8315108D01*
X59081186Y8306225D01*
X59120196Y8288856D01*
X59305353Y8249500D01*
X59494644Y8249500D01*
X59494645Y8249500D01*
X59679802Y8288856D01*
X59691410Y8294024D01*
X59852727Y8365848D01*
X59852727Y8365849D01*
X59852729Y8365849D01*
X60005870Y8477112D01*
X60132532Y8617784D01*
X60227178Y8781716D01*
X60285673Y8961744D01*
X60305459Y9150000D01*
X60285673Y9338256D01*
X60227178Y9518284D01*
X60132532Y9682216D01*
X60132530Y9682219D01*
X60132529Y9682220D01*
X60005872Y9822886D01*
X60005871Y9822887D01*
X60005870Y9822888D01*
X59899734Y9900000D01*
X59852727Y9934153D01*
X59679809Y10011142D01*
X59679795Y10011146D01*
X59494645Y10050500D01*
X59305353Y10050500D01*
X59297082Y10050500D01*
X59287546Y10050000D01*
X58947391Y10050000D01*
X58852103Y10068954D01*
X58771321Y10122930D01*
X58735462Y10168282D01*
X58659522Y10291401D01*
X58642711Y10318656D01*
X58518655Y10442712D01*
X58516025Y10444334D01*
X58454712Y10482152D01*
X58369333Y10534814D01*
X58369331Y10534815D01*
X58369329Y10534816D01*
X58369331Y10534816D01*
X58202801Y10589998D01*
X58202797Y10589999D01*
X58202796Y10589999D01*
X58100008Y10600500D01*
X58100004Y10600500D01*
X57449983Y10600500D01*
X57446529Y10600323D01*
X57433859Y10600000D01*
X54966163Y10600000D01*
X54953496Y10600322D01*
X54950014Y10600500D01*
X54950008Y10600500D01*
X54950001Y10600500D01*
X54299992Y10600500D01*
X54197198Y10589999D01*
X54114635Y10562639D01*
X54036312Y10550000D01*
X53316163Y10550000D01*
X53303496Y10550322D01*
X53300014Y10550500D01*
X53300008Y10550500D01*
X53300001Y10550500D01*
X52549992Y10550500D01*
X52447198Y10539999D01*
X52280666Y10484815D01*
X52131345Y10392714D01*
X52007285Y10268654D01*
X51915183Y10119332D01*
X51860001Y9952803D01*
X51860000Y9952798D01*
X51860000Y9952797D01*
X51849499Y9850009D01*
X51849499Y9184592D01*
X51849500Y9149000D01*
X51830546Y9053712D01*
X51776570Y8972931D01*
X51695788Y8918954D01*
X51600500Y8900000D01*
X49973999Y8900000D01*
X49878711Y8918954D01*
X49797929Y8972930D01*
X49743953Y9053712D01*
X49724999Y9149000D01*
X49724999Y10549999D01*
X50224999Y10549999D01*
X50224999Y9400001D01*
X50225000Y9400000D01*
X51049997Y9400000D01*
X51049998Y9400001D01*
X51049998Y9849968D01*
X51049997Y9849985D01*
X51039504Y9952700D01*
X51039503Y9952703D01*
X50984358Y10119120D01*
X50984357Y10119122D01*
X50892317Y10268342D01*
X50892314Y10268346D01*
X50768344Y10392316D01*
X50768340Y10392319D01*
X50619120Y10484359D01*
X50619119Y10484360D01*
X50452700Y10539505D01*
X50452693Y10539506D01*
X50349980Y10550000D01*
X50225000Y10550000D01*
X50224999Y10549999D01*
X49724999Y10549999D01*
X49724999Y10550001D01*
X49600020Y10550000D01*
X49574802Y10547423D01*
X49478081Y10556596D01*
X49392233Y10602084D01*
X49330327Y10676962D01*
X49301788Y10769831D01*
X49300499Y10795134D01*
X49300499Y11751000D01*
X49319453Y11846288D01*
X49373429Y11927070D01*
X49454211Y11981046D01*
X49549499Y12000000D01*
X55922543Y12000000D01*
X56017831Y11981046D01*
X56053259Y11962930D01*
X56130665Y11915186D01*
X56130668Y11915185D01*
X56130666Y11915185D01*
X56261142Y11871950D01*
X56297202Y11860001D01*
X56399990Y11849500D01*
X57150007Y11849501D01*
X57252796Y11860001D01*
X57419333Y11915186D01*
X57568655Y12007288D01*
X57588439Y12027073D01*
X57669218Y12081046D01*
X57764506Y12100000D01*
X58735492Y12100000D01*
X58830780Y12081046D01*
X58911558Y12027073D01*
X58931343Y12007288D01*
X59080665Y11915186D01*
X59080668Y11915185D01*
X59080666Y11915185D01*
X59211142Y11871950D01*
X59247202Y11860001D01*
X59349990Y11849500D01*
X59350468Y11849501D01*
X59350629Y11849468D01*
X59356320Y11849178D01*
X59356277Y11848346D01*
X59445754Y11830561D01*
X59526543Y11776596D01*
X59580531Y11695823D01*
X59599499Y11600537D01*
X59599499Y11435929D01*
X59619510Y11335331D01*
X59619511Y11335328D01*
X59624497Y11310257D01*
X59673534Y11191872D01*
X59718551Y11124499D01*
X59744722Y11085331D01*
X62835330Y7994723D01*
X62925984Y7934151D01*
X62941872Y7923535D01*
X62941874Y7923535D01*
X62941876Y7923533D01*
X62976548Y7909172D01*
X63060255Y7874499D01*
X63185928Y7849501D01*
X63185929Y7849500D01*
X64023607Y7849500D01*
X64118895Y7830546D01*
X64199677Y7776570D01*
X64253653Y7695788D01*
X64257082Y7678545D01*
X64278585Y7655000D01*
X66797413Y7655000D01*
X66797413Y7655001D01*
X66794433Y7687791D01*
X66794432Y7687796D01*
X66746572Y7841391D01*
X66744101Y7846881D01*
X66722276Y7941553D01*
X66738341Y8037370D01*
X66789851Y8119746D01*
X66795060Y8125116D01*
X67755276Y9085331D01*
X67826465Y9191874D01*
X67865424Y9285931D01*
X67875500Y9310256D01*
X67900499Y9435931D01*
X67900499Y12189069D01*
X67900499Y12196198D01*
X67899999Y12206379D01*
X67899999Y13136965D01*
X67918953Y13232253D01*
X67972929Y13313035D01*
X68736964Y14077070D01*
X68817746Y14131046D01*
X68913034Y14150000D01*
X69450999Y14150000D01*
X69546287Y14131046D01*
X69627069Y14077070D01*
X69681045Y13996288D01*
X69699999Y13901000D01*
X69699999Y13123385D01*
X69699243Y13106730D01*
X69699255Y13106729D01*
X69698999Y13101083D01*
X69698999Y12668899D01*
X69699255Y12663274D01*
X69699244Y12663274D01*
X69699999Y12646625D01*
X69699999Y11853385D01*
X69699243Y11836730D01*
X69699255Y11836729D01*
X69698999Y11831083D01*
X69698999Y11398899D01*
X69699255Y11393274D01*
X69699244Y11393274D01*
X69699999Y11376625D01*
X69699999Y10583385D01*
X69699243Y10566730D01*
X69699255Y10566729D01*
X69698999Y10561083D01*
X69698999Y10128906D01*
X69705068Y10062115D01*
X69750647Y9915848D01*
X69752968Y9908398D01*
X69836263Y9770612D01*
X69950111Y9656764D01*
X70087897Y9573469D01*
X70241612Y9525570D01*
X70308408Y9519500D01*
X71615589Y9519501D01*
X71682386Y9525570D01*
X71836101Y9573469D01*
X71973887Y9656764D01*
X71973888Y9656766D01*
X71976905Y9658589D01*
X72068256Y9691665D01*
X72105723Y9694500D01*
X72435930Y9694500D01*
X72685930Y9694500D01*
X72814068Y9694500D01*
X72935930Y9694500D01*
X73400999Y9694500D01*
X73496287Y9675546D01*
X73577069Y9621570D01*
X73631045Y9540788D01*
X73649999Y9445500D01*
X73649999Y8304500D01*
X73631045Y8209212D01*
X73577069Y8128430D01*
X73496287Y8074454D01*
X73400999Y8055500D01*
X72105723Y8055500D01*
X72010435Y8074454D01*
X71976905Y8091411D01*
X71973888Y8093235D01*
X71973887Y8093236D01*
X71892893Y8142199D01*
X71836100Y8176532D01*
X71836097Y8176533D01*
X71682386Y8224430D01*
X71682379Y8224431D01*
X71615593Y8230500D01*
X70308419Y8230500D01*
X70308389Y8230498D01*
X70241613Y8224431D01*
X70087898Y8176532D01*
X70087897Y8176531D01*
X69950112Y8093237D01*
X69836262Y7979387D01*
X69752968Y7841602D01*
X69752966Y7841599D01*
X69705069Y7687888D01*
X69705068Y7687881D01*
X69698999Y7621105D01*
X69698999Y7188899D01*
X69699255Y7183274D01*
X69699244Y7183274D01*
X69699999Y7166625D01*
X69699999Y6373385D01*
X69699243Y6356730D01*
X69699255Y6356729D01*
X69698999Y6351083D01*
X69698999Y5918899D01*
X69699255Y5913274D01*
X69699244Y5913274D01*
X69699999Y5896625D01*
X69699999Y5103385D01*
X69699243Y5086730D01*
X69699255Y5086729D01*
X69698999Y5081083D01*
X69698999Y4648899D01*
X69699255Y4643274D01*
X69699244Y4643274D01*
X69699999Y4626625D01*
X69699999Y3833385D01*
X69699243Y3816730D01*
X69699255Y3816729D01*
X69698999Y3811083D01*
X69698999Y3378906D01*
X69705068Y3312115D01*
X69748667Y3172202D01*
X69752968Y3158398D01*
X69836263Y3020612D01*
X69950111Y2906764D01*
X70087897Y2823469D01*
X70241612Y2775570D01*
X70308408Y2769500D01*
X71615589Y2769501D01*
X71682386Y2775570D01*
X71836101Y2823469D01*
X71973887Y2906764D01*
X71973888Y2906766D01*
X71976905Y2908589D01*
X72068256Y2941665D01*
X72105723Y2944500D01*
X72409069Y2944500D01*
X72409069Y2944501D01*
X72534743Y2969499D01*
X72653126Y3018535D01*
X72660609Y3023535D01*
X72759668Y3089723D01*
X73255275Y3585330D01*
X73326464Y3691873D01*
X73375500Y3810256D01*
X73383505Y3850500D01*
X73400499Y3935931D01*
X73400499Y4009233D01*
X73419453Y4104521D01*
X73473429Y4185303D01*
X73554211Y4239279D01*
X73554212Y4239279D01*
X73581302Y4250500D01*
X73673126Y4288535D01*
X73723315Y4322070D01*
X73779668Y4359723D01*
X74846515Y5426570D01*
X74927297Y5480546D01*
X75022585Y5499500D01*
X76537788Y5499500D01*
X76633076Y5480546D01*
X76664535Y5464827D01*
X76777101Y5398256D01*
X76934930Y5352402D01*
X76971805Y5349500D01*
X76971807Y5349500D01*
X78278191Y5349500D01*
X78278193Y5349500D01*
X78315068Y5352402D01*
X78472897Y5398256D01*
X78614364Y5481919D01*
X78730580Y5598135D01*
X78814243Y5739602D01*
X78860097Y5897431D01*
X78862999Y5934306D01*
X78862999Y6326881D01*
X78881953Y6422169D01*
X78935929Y6502951D01*
X78973662Y6533917D01*
X79030060Y6571599D01*
X79064663Y6594719D01*
X79064664Y6594721D01*
X79064668Y6594723D01*
X79505276Y7035331D01*
X79576464Y7141873D01*
X79580037Y7150499D01*
X79625500Y7260256D01*
X79650499Y7385931D01*
X79650499Y7950500D01*
X79669453Y8045788D01*
X79723429Y8126570D01*
X79804211Y8180546D01*
X79899499Y8199500D01*
X80114069Y8199500D01*
X80114069Y8199501D01*
X80239743Y8224499D01*
X80358126Y8273535D01*
X80388793Y8294026D01*
X80464668Y8344723D01*
X80900932Y8780988D01*
X80981711Y8834961D01*
X81076999Y8853915D01*
X81172287Y8834961D01*
X81253069Y8780985D01*
X81307045Y8700203D01*
X81325999Y8604915D01*
X81325999Y4552168D01*
X81332400Y4492630D01*
X81332402Y4492620D01*
X81354857Y4432415D01*
X84099928Y7177484D01*
X84180710Y7231460D01*
X84275998Y7250414D01*
X84371286Y7231460D01*
X84452068Y7177484D01*
X84453482Y7176070D01*
X84507458Y7095288D01*
X84526412Y7000000D01*
X84507458Y6904712D01*
X84453482Y6823930D01*
X81734271Y4104720D01*
X81778169Y4100001D01*
X81778171Y4100000D01*
X86750998Y4100000D01*
X86846286Y4081046D01*
X86927068Y4027070D01*
X86981044Y3946288D01*
X86999998Y3851000D01*
X86999998Y2002196D01*
X86999958Y1997756D01*
X86997728Y1872714D01*
X86995233Y1841718D01*
X86959321Y1591949D01*
X86951772Y1557243D01*
X86881308Y1317264D01*
X86868892Y1283976D01*
X86764994Y1056474D01*
X86747968Y1025294D01*
X86612751Y814891D01*
X86591465Y786456D01*
X86427679Y597438D01*
X86402559Y572318D01*
X86213542Y408533D01*
X86185100Y387242D01*
X85974702Y252028D01*
X85943521Y235002D01*
X85716023Y131107D01*
X85682736Y118691D01*
X85442761Y48228D01*
X85408045Y40676D01*
X85158272Y4765D01*
X85127279Y2271D01*
X85007686Y138D01*
X85002239Y40D01*
X84997802Y0D01*
X81298999Y0D01*
X81203711Y18954D01*
X81122929Y72930D01*
X81068953Y153712D01*
X81049999Y249000D01*
X81049999Y1778206D01*
X81050633Y1795969D01*
X81053905Y1841718D01*
X81065226Y2000000D01*
X81046342Y2264026D01*
X80990076Y2522678D01*
X80897573Y2770689D01*
X80770715Y3003011D01*
X80612086Y3214915D01*
X80424914Y3402087D01*
X80213010Y3560716D01*
X80128229Y3607010D01*
X79980690Y3687573D01*
X79980686Y3687575D01*
X79853721Y3734930D01*
X79732677Y3780077D01*
X79530292Y3824103D01*
X79474026Y3836343D01*
X79209999Y3855227D01*
X78945971Y3836343D01*
X78860658Y3817784D01*
X78687321Y3780077D01*
X78621409Y3755493D01*
X78439311Y3687575D01*
X78439307Y3687573D01*
X78206994Y3560720D01*
X78206987Y3560716D01*
X77995089Y3402092D01*
X77995085Y3402088D01*
X77966129Y3373133D01*
X77885346Y3319159D01*
X77790057Y3300208D01*
X77703050Y3315907D01*
X77627483Y3344091D01*
X77627484Y3344091D01*
X77567872Y3350500D01*
X75772133Y3350500D01*
X75772129Y3350500D01*
X75772127Y3350499D01*
X75759313Y3349122D01*
X75712518Y3344092D01*
X75712514Y3344091D01*
X75577669Y3293797D01*
X75462454Y3207547D01*
X75462452Y3207545D01*
X75376203Y3092331D01*
X75325907Y2957482D01*
X75319499Y2897877D01*
X75319499Y1102135D01*
X75319499Y1102132D01*
X75319500Y1102128D01*
X75319783Y1099500D01*
X75325907Y1042520D01*
X75325908Y1042515D01*
X75334300Y1020017D01*
X75349999Y933002D01*
X75349999Y249000D01*
X75331045Y153712D01*
X75277069Y72930D01*
X75196287Y18954D01*
X75100999Y0D01*
X29348999Y0D01*
X29253711Y18954D01*
X29172929Y72930D01*
X29118953Y153712D01*
X29099999Y249000D01*
X29099999Y886131D01*
X29100356Y899460D01*
X29100496Y902108D01*
X29100499Y902127D01*
X29100498Y2697872D01*
X29100497Y2697876D01*
X29100356Y2700516D01*
X29099999Y2713847D01*
X29099999Y4064764D01*
X29080635Y4090000D01*
X28183011Y4090000D01*
X28215924Y4147007D01*
X28249999Y4274174D01*
X28249999Y4405826D01*
X28215924Y4532993D01*
X28183011Y4590000D01*
X29089998Y4590000D01*
X29099998Y4600000D01*
X29099999Y4600000D01*
X29099999Y4724999D01*
X33600000Y4724999D01*
X33600000Y4600016D01*
X33610493Y4497301D01*
X33610494Y4497298D01*
X33665639Y4330881D01*
X33665640Y4330879D01*
X33757680Y4181659D01*
X33757683Y4181655D01*
X33881653Y4057685D01*
X33881657Y4057682D01*
X34030877Y3965642D01*
X34030878Y3965641D01*
X34197297Y3910496D01*
X34197304Y3910495D01*
X34300022Y3900001D01*
X34749999Y3900001D01*
X34749999Y4724999D01*
X34749998Y4725000D01*
X33600001Y4725000D01*
X33600000Y4724999D01*
X29099999Y4724999D01*
X29099999Y5801000D01*
X29118953Y5896288D01*
X29172929Y5977070D01*
X29253711Y6031046D01*
X29348999Y6050000D01*
X31312498Y6050000D01*
X31312499Y6050001D01*
X31312499Y7251000D01*
X31331453Y7346288D01*
X31385429Y7427070D01*
X31466211Y7481046D01*
X31561499Y7500000D01*
X31563499Y7500000D01*
X31658787Y7481046D01*
X31739569Y7427070D01*
X31793545Y7346288D01*
X31812499Y7251000D01*
X31812499Y6050001D01*
X31812500Y6050000D01*
X33127996Y6050000D01*
X33140663Y6049678D01*
X33144145Y6049501D01*
X33144151Y6049500D01*
X33144157Y6049500D01*
X33484960Y6049500D01*
X33580248Y6030546D01*
X33661030Y5976570D01*
X33715006Y5895788D01*
X33733960Y5800500D01*
X33715006Y5705212D01*
X33696888Y5669780D01*
X33665639Y5619119D01*
X33610494Y5452702D01*
X33610493Y5452695D01*
X33599999Y5349982D01*
X33599999Y5225001D01*
X33600000Y5225000D01*
X34749998Y5225000D01*
X34749999Y5225001D01*
X34749999Y6049999D01*
X35249999Y6049999D01*
X35249999Y5225001D01*
X35250000Y5225000D01*
X36399997Y5225000D01*
X36399998Y5225001D01*
X36399998Y5349968D01*
X36399997Y5349985D01*
X36389504Y5452700D01*
X36389503Y5452703D01*
X36334358Y5619120D01*
X36334357Y5619122D01*
X36242317Y5768342D01*
X36242314Y5768346D01*
X36118344Y5892316D01*
X36118340Y5892319D01*
X35969120Y5984359D01*
X35969119Y5984360D01*
X35802700Y6039505D01*
X35802693Y6039506D01*
X35699980Y6050000D01*
X35250000Y6050000D01*
X35249999Y6049999D01*
X34749999Y6049999D01*
X34749999Y8185493D01*
X34768953Y8280781D01*
X34822926Y8361560D01*
X34867711Y8406344D01*
X34959813Y8555666D01*
X35014998Y8722203D01*
X35025499Y8824991D01*
X35025498Y9583381D01*
X35044452Y9678667D01*
X35098428Y9759448D01*
X35179210Y9813425D01*
X35274498Y9832379D01*
X35326264Y9826939D01*
X35455353Y9799500D01*
X35455354Y9799500D01*
X35644644Y9799500D01*
X35644645Y9799500D01*
X35829802Y9838856D01*
X35854859Y9850012D01*
X36002727Y9915848D01*
X36002727Y9915849D01*
X36002729Y9915849D01*
X36155870Y10027112D01*
X36282532Y10167784D01*
X36377178Y10331716D01*
X36435673Y10511744D01*
X36455459Y10700000D01*
X36435673Y10888256D01*
X36377178Y11068284D01*
X36282532Y11232216D01*
X36282530Y11232219D01*
X36282529Y11232220D01*
X36155872Y11372886D01*
X36155871Y11372887D01*
X36155870Y11372888D01*
X36024568Y11468284D01*
X36002640Y11484216D01*
X35936691Y11555559D01*
X35903065Y11646709D01*
X35899999Y11685661D01*
X35899999Y11978883D01*
X35918953Y12074171D01*
X35949218Y12124668D01*
X35948480Y12125161D01*
X35955273Y12135329D01*
X35955276Y12135331D01*
X36026464Y12241873D01*
X36075500Y12360256D01*
X36076257Y12364064D01*
X36076259Y12364064D01*
X36076261Y12364086D01*
X36100499Y12485931D01*
X36100499Y13827414D01*
X36119453Y13922702D01*
X36173429Y14003484D01*
X37696515Y15526570D01*
X37777297Y15580546D01*
X37872585Y15599500D01*
X37985930Y15599500D01*
X38000999Y15599500D01*
X38096287Y15580546D01*
G37*
%TD.AperFunction*%
%TA.AperFunction,Conductor*%
G36*
X56646502Y4099678D02*
G01*
X56649964Y4099503D01*
X56649990Y4099500D01*
X57400007Y4099501D01*
X57400014Y4099501D01*
X57403469Y4099677D01*
X57416139Y4100000D01*
X59583835Y4100000D01*
X59596502Y4099678D01*
X59599964Y4099503D01*
X59599990Y4099500D01*
X60350007Y4099501D01*
X60350014Y4099501D01*
X60353469Y4099677D01*
X60366139Y4100000D01*
X61226913Y4100000D01*
X61322201Y4081046D01*
X61402983Y4027070D01*
X62177069Y3252984D01*
X62231045Y3172202D01*
X62249999Y3076914D01*
X62249999Y2649500D01*
X62231045Y2554212D01*
X62177069Y2473430D01*
X62096287Y2419454D01*
X62000999Y2400500D01*
X56572585Y2400500D01*
X56477297Y2419454D01*
X56396515Y2473430D01*
X56172929Y2697016D01*
X56118953Y2777798D01*
X56099999Y2873086D01*
X56099999Y3851000D01*
X56118953Y3946288D01*
X56172929Y4027070D01*
X56253711Y4081046D01*
X56348999Y4100000D01*
X56633835Y4100000D01*
X56646502Y4099678D01*
G37*
%TD.AperFunction*%
%TA.AperFunction,Conductor*%
G36*
X79459999Y18669366D02*
G01*
X79485236Y18650000D01*
X80836129Y18650000D01*
X80849457Y18649643D01*
X80852109Y18649502D01*
X80852126Y18649500D01*
X81472074Y18649501D01*
X81567359Y18630547D01*
X81648140Y18576571D01*
X81702117Y18495790D01*
X81719089Y18410464D01*
X84275999Y15853553D01*
X84453482Y15676070D01*
X84507458Y15595288D01*
X84526412Y15500000D01*
X84507458Y15404712D01*
X84453482Y15323930D01*
X81782302Y12652751D01*
X81749193Y12630629D01*
X81733445Y12607061D01*
X81785816Y12458610D01*
X81799999Y12375772D01*
X81799999Y11623086D01*
X81781045Y11527798D01*
X81727069Y11447016D01*
X80075569Y9795516D01*
X79994787Y9741540D01*
X79899499Y9722586D01*
X79804211Y9741540D01*
X79723429Y9795516D01*
X79669453Y9876298D01*
X79650499Y9971586D01*
X79650499Y10214070D01*
X79650498Y10214072D01*
X79648437Y10224432D01*
X79625500Y10339744D01*
X79576464Y10458127D01*
X79576218Y10458495D01*
X79560963Y10481327D01*
X79560958Y10481332D01*
X79505276Y10564669D01*
X79288343Y10781602D01*
X79064671Y11005275D01*
X78973663Y11066084D01*
X78904964Y11134783D01*
X78867784Y11224542D01*
X78862999Y11273121D01*
X78862999Y11665692D01*
X78862998Y11665705D01*
X78860097Y11702569D01*
X78814243Y11860398D01*
X78730580Y12001865D01*
X78614364Y12118081D01*
X78472897Y12201744D01*
X78315068Y12247598D01*
X78315065Y12247599D01*
X78315062Y12247599D01*
X78278203Y12250500D01*
X78278193Y12250500D01*
X76971805Y12250500D01*
X76971794Y12250500D01*
X76934935Y12247599D01*
X76934926Y12247597D01*
X76777100Y12201744D01*
X76723656Y12170137D01*
X76664537Y12135175D01*
X76572872Y12102984D01*
X76537788Y12100500D01*
X75422585Y12100500D01*
X75327297Y12119454D01*
X75246515Y12173430D01*
X74322929Y13097016D01*
X74268953Y13177798D01*
X74249999Y13273086D01*
X74249999Y16963575D01*
X74257546Y17024416D01*
X74267986Y17065849D01*
X74290095Y17153588D01*
X74291565Y17172257D01*
X74300498Y17285772D01*
X74300499Y17285783D01*
X74300498Y17947833D01*
X81325999Y17947833D01*
X81325999Y13052168D01*
X81332400Y12992630D01*
X81332402Y12992620D01*
X81354857Y12932415D01*
X81374929Y12952485D01*
X81401396Y12970170D01*
X81408461Y12983825D01*
X81426977Y13004534D01*
X83922444Y15500001D01*
X81354857Y18067589D01*
X81332402Y18007383D01*
X81332401Y18007377D01*
X81325999Y17947833D01*
X74300498Y17947833D01*
X74300498Y18250502D01*
X74319452Y18345788D01*
X74373428Y18426569D01*
X74454210Y18480546D01*
X74549498Y18499500D01*
X75503674Y18499500D01*
X75598962Y18480546D01*
X75652894Y18449835D01*
X75666988Y18439284D01*
X75899310Y18312426D01*
X76147321Y18219923D01*
X76405973Y18163657D01*
X76669999Y18144773D01*
X76934025Y18163657D01*
X77192677Y18219923D01*
X77440688Y18312426D01*
X77673010Y18439284D01*
X77884914Y18597913D01*
X77884918Y18597918D01*
X77888148Y18600335D01*
X77975788Y18642265D01*
X78037368Y18650000D01*
X78934762Y18650000D01*
X78959999Y18669366D01*
X78959999Y19566988D01*
X79017006Y19534075D01*
X79144173Y19500000D01*
X79275825Y19500000D01*
X79402992Y19534075D01*
X79459999Y19566988D01*
X79459999Y18669366D01*
G37*
%TD.AperFunction*%
%TA.AperFunction,Conductor*%
G36*
X36746287Y17231046D02*
G01*
X36827069Y17177070D01*
X36881045Y17096288D01*
X36899999Y17001000D01*
X36899999Y16673086D01*
X36881045Y16577798D01*
X36827069Y16497016D01*
X35752983Y15422930D01*
X35672201Y15368954D01*
X35576913Y15350000D01*
X35273999Y15350000D01*
X35178711Y15368954D01*
X35097929Y15422930D01*
X35089594Y15435404D01*
X35024998Y15500000D01*
X34212500Y15500000D01*
X34212499Y15499999D01*
X34212499Y13499000D01*
X34193545Y13403712D01*
X34139569Y13322930D01*
X34058787Y13268954D01*
X33963499Y13250000D01*
X33961499Y13250000D01*
X33866211Y13268954D01*
X33785429Y13322930D01*
X33731453Y13403712D01*
X33712499Y13499000D01*
X33712499Y15751000D01*
X33731453Y15846288D01*
X33785429Y15927070D01*
X33866211Y15981046D01*
X33961499Y16000000D01*
X35024997Y16000000D01*
X35024998Y16000001D01*
X35024998Y16424968D01*
X35024997Y16424985D01*
X35014504Y16527700D01*
X35014503Y16527703D01*
X34983032Y16622678D01*
X34971051Y16719092D01*
X34996878Y16812751D01*
X35056581Y16889397D01*
X35141071Y16937361D01*
X35219393Y16950000D01*
X35637546Y16950000D01*
X35647082Y16949500D01*
X35655353Y16949500D01*
X35844644Y16949500D01*
X35844645Y16949500D01*
X36029802Y16988856D01*
X36147936Y17041453D01*
X36202727Y17065848D01*
X36202727Y17065849D01*
X36202729Y17065849D01*
X36355870Y17177112D01*
X36355875Y17177119D01*
X36365574Y17185849D01*
X36368055Y17183093D01*
X36425114Y17225720D01*
X36519274Y17249656D01*
X36532361Y17250000D01*
X36650999Y17250000D01*
X36746287Y17231046D01*
G37*
%TD.AperFunction*%
%TA.AperFunction,Conductor*%
G36*
X62396287Y22231046D02*
G01*
X62477069Y22177070D01*
X62531045Y22096288D01*
X62549999Y22001000D01*
X62549999Y21678139D01*
X62531045Y21582851D01*
X62524999Y21573803D01*
X62524999Y17749000D01*
X62506045Y17653712D01*
X62452069Y17572930D01*
X62371287Y17518954D01*
X62275999Y17500000D01*
X60987298Y17500000D01*
X60892010Y17518954D01*
X60811228Y17572930D01*
X60757252Y17653712D01*
X60750937Y17670676D01*
X60734813Y17719334D01*
X60696030Y17782211D01*
X60642711Y17868656D01*
X60518655Y17992712D01*
X60518652Y17992714D01*
X60369332Y18084815D01*
X60320675Y18100938D01*
X60236186Y18148903D01*
X60176484Y18225550D01*
X60150657Y18319209D01*
X60149999Y18337299D01*
X60149999Y19280540D01*
X60168953Y19375828D01*
X60213955Y19447154D01*
X60232532Y19467784D01*
X60327178Y19631716D01*
X60385673Y19811744D01*
X60394949Y19899999D01*
X61199999Y19899999D01*
X61199999Y18000001D01*
X61200000Y18000000D01*
X62024998Y18000000D01*
X62024999Y18000001D01*
X62024999Y19899999D01*
X62024998Y19900000D01*
X61200000Y19900000D01*
X61199999Y19899999D01*
X60394949Y19899999D01*
X60405459Y20000000D01*
X60385673Y20188256D01*
X60327178Y20368284D01*
X60232532Y20532216D01*
X60232530Y20532219D01*
X60232529Y20532220D01*
X60105872Y20672886D01*
X60105871Y20672887D01*
X60105870Y20672888D01*
X59971258Y20770689D01*
X59952727Y20784153D01*
X59804874Y20849982D01*
X61199999Y20849982D01*
X61199999Y20400001D01*
X61200000Y20400000D01*
X62024998Y20400000D01*
X62024999Y20400001D01*
X62024999Y21550001D01*
X61900023Y21550000D01*
X61797299Y21539506D01*
X61797296Y21539505D01*
X61630879Y21484360D01*
X61630877Y21484359D01*
X61481657Y21392319D01*
X61481653Y21392316D01*
X61357683Y21268346D01*
X61357680Y21268342D01*
X61265640Y21119122D01*
X61265639Y21119121D01*
X61210494Y20952702D01*
X61210493Y20952695D01*
X61199999Y20849982D01*
X59804874Y20849982D01*
X59779809Y20861142D01*
X59779795Y20861146D01*
X59594645Y20900500D01*
X59423917Y20900500D01*
X58953700Y20900500D01*
X58858412Y20919454D01*
X58777630Y20973430D01*
X58723654Y21054212D01*
X58717339Y21071178D01*
X58684814Y21169332D01*
X58675871Y21183832D01*
X58592711Y21318656D01*
X58468655Y21442712D01*
X58319333Y21534814D01*
X58319331Y21534815D01*
X58319329Y21534816D01*
X58319331Y21534816D01*
X58152801Y21589998D01*
X58152797Y21589999D01*
X58152796Y21589999D01*
X58050008Y21600500D01*
X58050004Y21600500D01*
X57399983Y21600500D01*
X57396529Y21600323D01*
X57383859Y21600000D01*
X54916163Y21600000D01*
X54903496Y21600322D01*
X54900014Y21600500D01*
X54900008Y21600500D01*
X54900001Y21600500D01*
X54249992Y21600500D01*
X54147198Y21589999D01*
X54064635Y21562639D01*
X53986312Y21550000D01*
X53266163Y21550000D01*
X53253496Y21550322D01*
X53250014Y21550500D01*
X53250008Y21550500D01*
X53250001Y21550500D01*
X52499992Y21550500D01*
X52397198Y21539999D01*
X52230666Y21484815D01*
X52081345Y21392714D01*
X51957285Y21268654D01*
X51865183Y21119332D01*
X51810001Y20952803D01*
X51810000Y20952798D01*
X51810000Y20952797D01*
X51809335Y20946288D01*
X51800637Y20861144D01*
X51799499Y20850009D01*
X51799499Y20172886D01*
X51799500Y20149000D01*
X51780546Y20053712D01*
X51726570Y19972931D01*
X51645788Y19918954D01*
X51550500Y19900000D01*
X48602627Y19900000D01*
X48507339Y19918954D01*
X48426557Y19972930D01*
X48386991Y20024492D01*
X48382532Y20032216D01*
X48382526Y20032222D01*
X48382523Y20032227D01*
X48255872Y20172886D01*
X48255871Y20172887D01*
X48255870Y20172888D01*
X48179299Y20228520D01*
X48102727Y20284153D01*
X47929809Y20361142D01*
X47929795Y20361146D01*
X47744645Y20400500D01*
X47555353Y20400500D01*
X47547082Y20400500D01*
X47537546Y20400000D01*
X47048999Y20400000D01*
X46953711Y20418954D01*
X46872929Y20472930D01*
X46818953Y20553712D01*
X46818373Y20556625D01*
X46799998Y20575000D01*
X45650000Y20575000D01*
X45649999Y20574999D01*
X45649999Y20400000D01*
X45149999Y20364286D01*
X45149999Y20826000D01*
X45154769Y20849982D01*
X48849999Y20849982D01*
X48849999Y20400001D01*
X48850000Y20400000D01*
X49674998Y20400000D01*
X49674999Y20400001D01*
X49674999Y21549999D01*
X50174999Y21549999D01*
X50174999Y20400001D01*
X50175000Y20400000D01*
X50999997Y20400000D01*
X50999998Y20400001D01*
X50999998Y20849968D01*
X50999997Y20849985D01*
X50989504Y20952700D01*
X50989503Y20952703D01*
X50934358Y21119120D01*
X50934357Y21119122D01*
X50842317Y21268342D01*
X50842314Y21268346D01*
X50718344Y21392316D01*
X50718340Y21392319D01*
X50569120Y21484359D01*
X50569119Y21484360D01*
X50402700Y21539505D01*
X50402693Y21539506D01*
X50299980Y21550000D01*
X50175000Y21550000D01*
X50174999Y21549999D01*
X49674999Y21549999D01*
X49674999Y21550001D01*
X49550023Y21550000D01*
X49447299Y21539506D01*
X49447296Y21539505D01*
X49280879Y21484360D01*
X49280877Y21484359D01*
X49131657Y21392319D01*
X49131653Y21392316D01*
X49007683Y21268346D01*
X49007680Y21268342D01*
X48915640Y21119122D01*
X48915639Y21119121D01*
X48860494Y20952702D01*
X48860493Y20952695D01*
X48849999Y20849982D01*
X45154769Y20849982D01*
X45168953Y20921288D01*
X45222929Y21002070D01*
X45303711Y21056046D01*
X45398999Y21075000D01*
X46799997Y21075000D01*
X46799998Y21075001D01*
X46799998Y21199968D01*
X46799997Y21199985D01*
X46789504Y21302700D01*
X46789503Y21302703D01*
X46734358Y21469120D01*
X46734357Y21469122D01*
X46642317Y21618342D01*
X46642314Y21618346D01*
X46518344Y21742316D01*
X46518342Y21742317D01*
X46442542Y21789071D01*
X46371391Y21855227D01*
X46330972Y21943575D01*
X46327440Y22040666D01*
X46361331Y22131718D01*
X46427487Y22202869D01*
X46515835Y22243288D01*
X46573260Y22250000D01*
X62300999Y22250000D01*
X62396287Y22231046D01*
G37*
%TD.AperFunction*%
%TA.AperFunction,Conductor*%
G36*
X69896287Y22231046D02*
G01*
X69977069Y22177070D01*
X70031045Y22096288D01*
X70049999Y22001000D01*
X70049999Y21778139D01*
X70031045Y21682851D01*
X70024999Y21673803D01*
X70024999Y17999000D01*
X70006045Y17903712D01*
X69952069Y17822930D01*
X69871287Y17768954D01*
X69775999Y17750000D01*
X69773999Y17750000D01*
X69678711Y17768954D01*
X69597929Y17822930D01*
X69543953Y17903712D01*
X69524999Y17999000D01*
X69524999Y19999999D01*
X69524998Y20000000D01*
X68700000Y20000000D01*
X68699999Y19999999D01*
X68699999Y19099000D01*
X68681045Y19003712D01*
X68627069Y18922930D01*
X68546287Y18868954D01*
X68450999Y18850000D01*
X68165390Y18850000D01*
X68070102Y18868954D01*
X68052347Y18877139D01*
X68025991Y18890568D01*
X68025986Y18890570D01*
X67897812Y18932216D01*
X67801367Y18963553D01*
X67801365Y18963554D01*
X67801363Y18963554D01*
X67568102Y19000499D01*
X67568093Y19000500D01*
X67568091Y19000500D01*
X67568087Y19000500D01*
X67048999Y19000500D01*
X66953711Y19019454D01*
X66872929Y19073430D01*
X66818953Y19154212D01*
X66799999Y19249500D01*
X66799999Y19419648D01*
X66800441Y19430893D01*
X66800307Y19430898D01*
X66800496Y19435757D01*
X66800499Y19435783D01*
X66800498Y20864216D01*
X66800497Y20864222D01*
X66800306Y20869094D01*
X66800440Y20869100D01*
X66799999Y20880337D01*
X66799999Y20949982D01*
X68699999Y20949982D01*
X68699999Y20500001D01*
X68700000Y20500000D01*
X69524998Y20500000D01*
X69524999Y20500001D01*
X69524999Y21650001D01*
X69400023Y21650000D01*
X69297299Y21639506D01*
X69297296Y21639505D01*
X69130879Y21584360D01*
X69130877Y21584359D01*
X68981657Y21492319D01*
X68981653Y21492316D01*
X68857683Y21368346D01*
X68857680Y21368342D01*
X68765640Y21219122D01*
X68765639Y21219121D01*
X68710494Y21052702D01*
X68710493Y21052695D01*
X68699999Y20949982D01*
X66799999Y20949982D01*
X66799999Y22001000D01*
X66818953Y22096288D01*
X66872929Y22177070D01*
X66953711Y22231046D01*
X67048999Y22250000D01*
X69800999Y22250000D01*
X69896287Y22231046D01*
G37*
%TD.AperFunction*%
%TA.AperFunction,Conductor*%
G36*
X85002238Y22249960D02*
G01*
X85007043Y22249875D01*
X85127290Y22247728D01*
X85158255Y22245237D01*
X85408050Y22209322D01*
X85442758Y22201771D01*
X85682736Y22131307D01*
X85716009Y22118898D01*
X85943538Y22014988D01*
X85974688Y21997979D01*
X86185101Y21862755D01*
X86213541Y21841465D01*
X86402558Y21677680D01*
X86427678Y21652560D01*
X86591463Y21463543D01*
X86612751Y21435106D01*
X86747974Y21224695D01*
X86764988Y21193535D01*
X86868892Y20966018D01*
X86881305Y20932738D01*
X86951769Y20692760D01*
X86959321Y20658045D01*
X86995232Y20408274D01*
X86997726Y20377280D01*
X86999957Y20252245D01*
X86999997Y20247803D01*
X86999997Y18649000D01*
X86981043Y18553712D01*
X86927067Y18472930D01*
X86846285Y18418954D01*
X86750997Y18400000D01*
X83161196Y18400000D01*
X83065908Y18418954D01*
X82985126Y18472930D01*
X82931150Y18553712D01*
X82912196Y18649000D01*
X82931150Y18744288D01*
X82961859Y18798217D01*
X83043795Y18907669D01*
X83094090Y19042517D01*
X83100499Y19102127D01*
X83100498Y20897872D01*
X83094090Y20957483D01*
X83043795Y21092331D01*
X82957545Y21207546D01*
X82842330Y21293796D01*
X82730218Y21335611D01*
X82707480Y21344092D01*
X82647872Y21350500D01*
X80852134Y21350500D01*
X80849486Y21350357D01*
X80836153Y21350000D01*
X79459999Y21350000D01*
X79459999Y20433012D01*
X79402992Y20465925D01*
X79275825Y20500000D01*
X79144173Y20500000D01*
X79017006Y20465925D01*
X78959999Y20433012D01*
X78959999Y21405422D01*
X78952130Y21428602D01*
X78949999Y21461107D01*
X78949999Y22001000D01*
X78968953Y22096288D01*
X79022929Y22177070D01*
X79103711Y22231046D01*
X79198999Y22250000D01*
X84997796Y22250000D01*
X85002238Y22249960D01*
G37*
%TD.AperFunction*%
%TA.AperFunction,Conductor*%
G36*
X43048581Y22231046D02*
G01*
X43129363Y22177070D01*
X43183339Y22096288D01*
X43202293Y22001000D01*
X43183339Y21905712D01*
X43129363Y21824930D01*
X43099651Y21799555D01*
X42994129Y21722889D01*
X42994126Y21722887D01*
X42867468Y21582220D01*
X42867463Y21582213D01*
X42776408Y21424500D01*
X42712350Y21351455D01*
X42625214Y21308484D01*
X42560768Y21300000D01*
X42381828Y21300000D01*
X42370583Y21300443D01*
X42370578Y21300308D01*
X42365693Y21300500D01*
X41334305Y21300500D01*
X41334304Y21300500D01*
X41329420Y21300308D01*
X41329414Y21300443D01*
X41318170Y21300000D01*
X39881828Y21300000D01*
X39870583Y21300443D01*
X39870578Y21300308D01*
X39865693Y21300500D01*
X38834305Y21300500D01*
X38834304Y21300500D01*
X38829420Y21300308D01*
X38829414Y21300443D01*
X38818170Y21300000D01*
X38299999Y21300000D01*
X38228796Y21205062D01*
X38225075Y21200101D01*
X38152739Y21135243D01*
X38061089Y21103004D01*
X38025875Y21100501D01*
X37920942Y21100501D01*
X37768216Y21059578D01*
X37768211Y21059576D01*
X37631284Y20980521D01*
X37631282Y20980520D01*
X37263949Y20613188D01*
X37183168Y20559212D01*
X37087879Y20540258D01*
X36992591Y20559212D01*
X36931547Y20600000D01*
X35861499Y20600000D01*
X35766211Y20618954D01*
X35685429Y20672930D01*
X35631453Y20753712D01*
X35612499Y20849000D01*
X35612499Y20851000D01*
X35631453Y20946288D01*
X35685429Y21027070D01*
X35766211Y21081046D01*
X35861499Y21100000D01*
X36924997Y21100000D01*
X36924998Y21100001D01*
X36924998Y21524968D01*
X36924997Y21524985D01*
X36914504Y21627700D01*
X36914503Y21627703D01*
X36859358Y21794120D01*
X36812381Y21870282D01*
X36778490Y21961334D01*
X36782022Y22058424D01*
X36822440Y22146773D01*
X36893592Y22212929D01*
X36984644Y22246820D01*
X37024310Y22250000D01*
X42953293Y22250000D01*
X43048581Y22231046D01*
G37*
%TD.AperFunction*%
%TD*%
%TA.AperFunction,Conductor*%
%TO.N,GND*%
G36*
X4146290Y5405545D02*
G01*
X4227072Y5351569D01*
X4281048Y5270787D01*
X4300002Y5175499D01*
X4300002Y3528138D01*
X4281048Y3432850D01*
X4275002Y3423802D01*
X4275002Y2250000D01*
X4275003Y2249999D01*
X4300002Y2249999D01*
X4300002Y1749999D01*
X2950004Y1749999D01*
X2950003Y1749998D01*
X2950003Y1300015D01*
X2960496Y1197300D01*
X2960497Y1197297D01*
X3000253Y1077321D01*
X3012234Y980907D01*
X2986407Y887248D01*
X2926703Y810602D01*
X2842214Y762638D01*
X2763892Y749999D01*
X749002Y749999D01*
X653714Y768953D01*
X572932Y822929D01*
X518956Y903711D01*
X500002Y998999D01*
X500002Y2699981D01*
X2950002Y2699981D01*
X2950002Y2250000D01*
X2950003Y2249999D01*
X3775001Y2249999D01*
X3775002Y2250000D01*
X3775002Y3400000D01*
X3650026Y3399999D01*
X3547302Y3389505D01*
X3547299Y3389504D01*
X3380882Y3334359D01*
X3380880Y3334358D01*
X3231660Y3242318D01*
X3231656Y3242315D01*
X3107686Y3118345D01*
X3107683Y3118341D01*
X3015643Y2969121D01*
X3015642Y2969120D01*
X2960497Y2802701D01*
X2960496Y2802694D01*
X2950002Y2699981D01*
X500002Y2699981D01*
X500002Y5150999D01*
X518956Y5246287D01*
X572932Y5327069D01*
X653714Y5381045D01*
X749002Y5399999D01*
X1483838Y5399999D01*
X1496505Y5399677D01*
X1499967Y5399502D01*
X1499993Y5399499D01*
X3000010Y5399500D01*
X3102799Y5410000D01*
X3102910Y5410037D01*
X3108413Y5411860D01*
X3186736Y5424499D01*
X4051002Y5424499D01*
X4146290Y5405545D01*
G37*
%TD.AperFunction*%
%TA.AperFunction,Conductor*%
G36*
X2296290Y21231045D02*
G01*
X2377072Y21177069D01*
X2431048Y21096287D01*
X2450002Y21000999D01*
X2450002Y20000000D01*
X2450003Y19999999D01*
X3526002Y19999999D01*
X3621290Y19981045D01*
X3702072Y19927069D01*
X3756048Y19846287D01*
X3775002Y19750999D01*
X3775002Y18350001D01*
X3775004Y18349999D01*
X5028390Y18349999D01*
X5123678Y18331045D01*
X5204456Y18277072D01*
X5345348Y18136180D01*
X5345351Y18136178D01*
X5345352Y18136177D01*
X5470975Y18049145D01*
X5530376Y18007992D01*
X5735319Y17914903D01*
X5735320Y17914903D01*
X5735322Y17914902D01*
X5745867Y17911212D01*
X5745206Y17909323D01*
X5819102Y17874250D01*
X5884250Y17802175D01*
X5916856Y17710655D01*
X5919502Y17674453D01*
X5919502Y17323122D01*
X5900548Y17227834D01*
X5891206Y17207837D01*
X5886095Y17198054D01*
X5886093Y17198048D01*
X5830117Y17002421D01*
X5830116Y17002417D01*
X5819502Y16883036D01*
X5819502Y14966968D01*
X5819503Y14966956D01*
X5830115Y14847585D01*
X5830115Y14847582D01*
X5830116Y14847581D01*
X5865192Y14724998D01*
X5886092Y14651954D01*
X5886095Y14651946D01*
X5952769Y14524304D01*
X5980304Y14471592D01*
X6108893Y14313890D01*
X6266595Y14185301D01*
X6446953Y14091090D01*
X6642584Y14035113D01*
X6761965Y14024499D01*
X8078038Y14024500D01*
X8197420Y14035113D01*
X8393051Y14091090D01*
X8573409Y14185301D01*
X8731111Y14313890D01*
X8808136Y14408355D01*
X8883042Y14470225D01*
X8975923Y14498721D01*
X9001114Y14499999D01*
X9692328Y14499999D01*
X9710002Y14524304D01*
X9710002Y15674998D01*
X10210002Y15674998D01*
X10210002Y14525000D01*
X10210003Y14524999D01*
X10607827Y14524999D01*
X10607834Y14525000D01*
X10667373Y14531401D01*
X10667380Y14531403D01*
X10802089Y14581646D01*
X10917189Y14667810D01*
X10917191Y14667812D01*
X11003355Y14782912D01*
X11053598Y14917621D01*
X11053600Y14917628D01*
X11060001Y14977167D01*
X11060002Y14977174D01*
X11060002Y15674998D01*
X11060001Y15674999D01*
X10210003Y15674999D01*
X10210002Y15674998D01*
X9710002Y15674998D01*
X9710002Y17324998D01*
X10210002Y17324998D01*
X10210002Y16175000D01*
X10210003Y16174999D01*
X11060001Y16174999D01*
X11060002Y16175000D01*
X11060002Y16872824D01*
X11060001Y16872832D01*
X11053600Y16932371D01*
X11053598Y16932378D01*
X11003355Y17067087D01*
X10917191Y17182187D01*
X10917189Y17182189D01*
X10802089Y17268353D01*
X10667380Y17318596D01*
X10667373Y17318598D01*
X10607834Y17324999D01*
X10210003Y17324999D01*
X10210002Y17324998D01*
X9710002Y17324998D01*
X9710002Y17387865D01*
X9700002Y17438138D01*
X9700002Y17953857D01*
X9718956Y18049145D01*
X9772932Y18129927D01*
X9853714Y18183903D01*
X9949002Y18202857D01*
X10001924Y18197168D01*
X10155976Y18163656D01*
X10420002Y18144772D01*
X10684028Y18163656D01*
X10942680Y18219922D01*
X11190691Y18312425D01*
X11423013Y18439283D01*
X11634917Y18597912D01*
X11634921Y18597917D01*
X11638151Y18600334D01*
X11725791Y18642264D01*
X11787371Y18649999D01*
X12710001Y18649999D01*
X13210003Y18649999D01*
X14586132Y18649999D01*
X14599460Y18649642D01*
X14602112Y18649501D01*
X14602129Y18649499D01*
X16397874Y18649500D01*
X16457485Y18655908D01*
X16592333Y18706203D01*
X16707548Y18792453D01*
X16793798Y18907668D01*
X16844093Y19042516D01*
X16850502Y19102126D01*
X16850501Y20897871D01*
X16844093Y20957482D01*
X16844092Y20957483D01*
X16842428Y20972971D01*
X16846287Y20973386D01*
X16843863Y21040765D01*
X16877791Y21131803D01*
X16943976Y21202927D01*
X17032341Y21243310D01*
X17089667Y21249999D01*
X19751002Y21249999D01*
X19846290Y21231045D01*
X19927072Y21177069D01*
X19981048Y21096287D01*
X20000002Y21000999D01*
X20000002Y3633806D01*
X19981048Y3538518D01*
X19927072Y3457736D01*
X19846290Y3403760D01*
X19751002Y3384806D01*
X19716258Y3388484D01*
X19716222Y3388123D01*
X19599983Y3399999D01*
X19475003Y3399999D01*
X19475002Y3399998D01*
X19475002Y1998999D01*
X19456048Y1903711D01*
X19402072Y1822929D01*
X19321290Y1768953D01*
X19226002Y1749999D01*
X19224002Y1749999D01*
X19128714Y1768953D01*
X19047932Y1822929D01*
X18993956Y1903711D01*
X18975002Y1998999D01*
X18975002Y3400000D01*
X18850026Y3399999D01*
X18774307Y3392263D01*
X18677586Y3401435D01*
X18591737Y3446923D01*
X18529831Y3521801D01*
X18501291Y3614669D01*
X18500002Y3639974D01*
X18500002Y4334423D01*
X18518956Y4429711D01*
X18549669Y4483645D01*
X18598651Y4549076D01*
X18623798Y4582668D01*
X18674093Y4717516D01*
X18680502Y4777126D01*
X18680501Y6672871D01*
X18674093Y6732482D01*
X18623798Y6867330D01*
X18537548Y6982545D01*
X18422333Y7068795D01*
X18342119Y7098713D01*
X18287483Y7119091D01*
X18227875Y7125499D01*
X16932136Y7125499D01*
X16932132Y7125499D01*
X16932130Y7125498D01*
X16919316Y7124121D01*
X16872521Y7119091D01*
X16872517Y7119090D01*
X16737670Y7068795D01*
X16737669Y7068795D01*
X16712118Y7049666D01*
X16624478Y7007734D01*
X16562895Y6999999D01*
X12184461Y6999999D01*
X12107516Y7012186D01*
X12055894Y7028959D01*
X12026370Y7038552D01*
X12026368Y7038553D01*
X12026366Y7038553D01*
X11793105Y7075498D01*
X11793096Y7075499D01*
X11793094Y7075499D01*
X11793090Y7075499D01*
X11601630Y7075499D01*
X11506342Y7094453D01*
X11425560Y7148429D01*
X11408533Y7169316D01*
X11407680Y7168619D01*
X11343071Y7247856D01*
X11271111Y7336108D01*
X11113409Y7464697D01*
X11113404Y7464700D01*
X10933055Y7558906D01*
X10933054Y7558907D01*
X10933051Y7558908D01*
X10737420Y7614885D01*
X10618039Y7625499D01*
X10618037Y7625499D01*
X9301970Y7625499D01*
X9301958Y7625498D01*
X9182587Y7614886D01*
X9084768Y7586897D01*
X8986957Y7558909D01*
X8986950Y7558907D01*
X8928347Y7528295D01*
X8835112Y7500977D01*
X8813061Y7499999D01*
X5249002Y7499999D01*
X5153714Y7518953D01*
X5072932Y7572929D01*
X5018956Y7653711D01*
X5000002Y7748999D01*
X5000002Y10775499D01*
X5018956Y10870787D01*
X5072932Y10951569D01*
X5153714Y11005545D01*
X5249002Y11024499D01*
X12623541Y11024499D01*
X12623542Y11024499D01*
X12623543Y11024499D01*
X12720190Y11043724D01*
X12816838Y11062948D01*
X12870167Y11085038D01*
X12998916Y11138367D01*
X13162784Y11247860D01*
X13302141Y11387217D01*
X13302143Y11387221D01*
X15677780Y13762858D01*
X15677784Y13762860D01*
X15817141Y13902217D01*
X15926634Y14066085D01*
X16002053Y14248164D01*
X16012280Y14299579D01*
X16049459Y14389336D01*
X16118158Y14458035D01*
X16207917Y14495215D01*
X16256495Y14499999D01*
X17305001Y14499999D01*
X17330002Y14525000D01*
X17330002Y15674998D01*
X17830002Y15674998D01*
X17830002Y14525000D01*
X17830003Y14524999D01*
X18227827Y14524999D01*
X18227834Y14525000D01*
X18287373Y14531401D01*
X18287380Y14531403D01*
X18422089Y14581646D01*
X18537189Y14667810D01*
X18537191Y14667812D01*
X18623355Y14782912D01*
X18673598Y14917621D01*
X18673600Y14917628D01*
X18680001Y14977167D01*
X18680002Y14977174D01*
X18680002Y15674998D01*
X18680001Y15674999D01*
X17830003Y15674999D01*
X17830002Y15674998D01*
X17330002Y15674998D01*
X17330002Y17324998D01*
X17830002Y17324998D01*
X17830002Y16175000D01*
X17830003Y16174999D01*
X18680001Y16174999D01*
X18680002Y16175000D01*
X18680002Y16872824D01*
X18680001Y16872832D01*
X18673600Y16932371D01*
X18673598Y16932378D01*
X18623355Y17067087D01*
X18537191Y17182187D01*
X18537189Y17182189D01*
X18422089Y17268353D01*
X18287380Y17318596D01*
X18287373Y17318598D01*
X18227834Y17324999D01*
X17830003Y17324999D01*
X17830002Y17324998D01*
X17330002Y17324998D01*
X17305001Y17349999D01*
X17300002Y17349999D01*
X15050002Y17349999D01*
X14914894Y17349999D01*
X14895189Y17338645D01*
X14815355Y17325499D01*
X14392136Y17325499D01*
X14392132Y17325499D01*
X14392130Y17325498D01*
X14379316Y17324121D01*
X14332521Y17319091D01*
X14332517Y17319090D01*
X14197672Y17268796D01*
X14082457Y17182546D01*
X14082455Y17182544D01*
X13996206Y17067330D01*
X13945910Y16932481D01*
X13939502Y16872876D01*
X13939502Y14977123D01*
X13939802Y14971543D01*
X13925975Y14875377D01*
X13876398Y14791823D01*
X13867229Y14782149D01*
X12183512Y13098430D01*
X12102730Y13044453D01*
X12007442Y13025499D01*
X3899002Y13025499D01*
X3803714Y13044453D01*
X3722932Y13098429D01*
X3668956Y13179211D01*
X3650002Y13274499D01*
X3650002Y14724998D01*
X3650001Y14724999D01*
X2249002Y14724999D01*
X2153714Y14743953D01*
X2072932Y14797929D01*
X2018956Y14878711D01*
X2000002Y14973999D01*
X2000002Y16049998D01*
X2500002Y16049998D01*
X2500002Y15225000D01*
X2500003Y15224999D01*
X3650000Y15224999D01*
X3650001Y15225000D01*
X3650001Y15349967D01*
X3650000Y15349984D01*
X3639507Y15452699D01*
X3639506Y15452702D01*
X3584361Y15619119D01*
X3584360Y15619121D01*
X3492320Y15768341D01*
X3492317Y15768345D01*
X3368347Y15892315D01*
X3368343Y15892318D01*
X3219123Y15984358D01*
X3219122Y15984359D01*
X3052703Y16039504D01*
X3052696Y16039505D01*
X2949983Y16049999D01*
X2500003Y16049999D01*
X2500002Y16049998D01*
X2000002Y16049998D01*
X2000001Y16049999D01*
X1550026Y16049999D01*
X1447305Y16039505D01*
X1447304Y16039505D01*
X1366227Y16012638D01*
X1287905Y15999999D01*
X749002Y15999999D01*
X653714Y16018953D01*
X572932Y16072929D01*
X518956Y16153711D01*
X500002Y16248999D01*
X500002Y19499998D01*
X2450003Y19499998D01*
X2450003Y19050015D01*
X2460496Y18947300D01*
X2460497Y18947297D01*
X2515642Y18780880D01*
X2515643Y18780878D01*
X2607683Y18631658D01*
X2607686Y18631654D01*
X2731656Y18507684D01*
X2731660Y18507681D01*
X2880880Y18415641D01*
X2880881Y18415640D01*
X3047300Y18360495D01*
X3047307Y18360494D01*
X3150025Y18350000D01*
X3275002Y18350001D01*
X3275002Y19499998D01*
X3275001Y19499999D01*
X2450004Y19499999D01*
X2450003Y19499998D01*
X500002Y19499998D01*
X500002Y21000999D01*
X518956Y21096287D01*
X572932Y21177069D01*
X653714Y21231045D01*
X749002Y21249999D01*
X2201002Y21249999D01*
X2296290Y21231045D01*
G37*
%TD.AperFunction*%
%TA.AperFunction,Conductor*%
G36*
X13210002Y18734499D02*
G01*
X12710002Y18759499D01*
X12710002Y19566987D01*
X12767009Y19534074D01*
X12894176Y19499999D01*
X13025828Y19499999D01*
X13152995Y19534074D01*
X13210002Y19566987D01*
X13210002Y18734499D01*
G37*
%TD.AperFunction*%
%TD*%
M02*
