%TF.GenerationSoftware,KiCad,Pcbnew,8.0.6*%
%TF.CreationDate,2024-11-11T23:30:30+07:00*%
%TF.ProjectId,panel,70616e65-6c2e-46b6-9963-61645f706362,rev?*%
%TF.SameCoordinates,PX6b0cc90PY5b8d800*%
%TF.FileFunction,Profile,NP*%
%FSLAX46Y46*%
G04 Gerber Fmt 4.6, Leading zero omitted, Abs format (unit mm)*
G04 Created by KiCad (PCBNEW 8.0.6) date 2024-11-11 23:30:30*
%MOMM*%
%LPD*%
G01*
G04 APERTURE LIST*
%TA.AperFunction,Profile*%
%ADD10C,0.100000*%
%TD*%
G04 APERTURE END LIST*
D10*
X20750000Y14250000D02*
X20750000Y20250000D01*
X84999999Y0D02*
X25749999Y0D01*
X23750000Y14250000D02*
X23749999Y20250000D01*
X23750000Y14250000D02*
G75*
G02*
X20750000Y14250000I-1500000J0D01*
G01*
X25749999Y0D02*
G75*
G02*
X23750020Y1991119I1J2000000D01*
G01*
X20750000Y8250000D02*
X20750002Y1999998D01*
X84999999Y22250000D02*
G75*
G02*
X87000000Y20250000I1J-2000000D01*
G01*
X86999997Y20250000D02*
X86999999Y1999998D01*
X25749999Y22250000D02*
X84999999Y22250000D01*
X20750000Y8250000D02*
G75*
G02*
X23750000Y8250000I1500000J0D01*
G01*
X23750000Y8250000D02*
X23750000Y1991119D01*
X86999999Y1999998D02*
G75*
G02*
X84999999Y1I-1999999J2D01*
G01*
X23749999Y20250000D02*
G75*
G02*
X25749999Y22250001I2000001J0D01*
G01*
X20750002Y1999998D02*
G75*
G02*
X18750002Y-2I-2000002J2D01*
G01*
X5Y20250001D02*
X4Y2000000D01*
X2000005Y22249999D02*
X18750002Y22250000D01*
X2000002Y0D02*
G75*
G02*
X3Y2000000I0J1999999D01*
G01*
X18750002Y0D02*
X2000002Y0D01*
X5Y20250001D02*
G75*
G02*
X2000005Y22249996I1999997J-2D01*
G01*
X18750002Y22250000D02*
G75*
G02*
X20750003Y20250000I0J-2000001D01*
G01*
M02*
