%TF.GenerationSoftware,KiCad,Pcbnew,8.0.6*%
%TF.CreationDate,2024-11-11T23:30:30+07:00*%
%TF.ProjectId,panel,70616e65-6c2e-46b6-9963-61645f706362,rev?*%
%TF.SameCoordinates,PX6b0cc90PY5b8d800*%
%TF.FileFunction,Paste,Top*%
%TF.FilePolarity,Positive*%
%FSLAX46Y46*%
G04 Gerber Fmt 4.6, Leading zero omitted, Abs format (unit mm)*
G04 Created by KiCad (PCBNEW 8.0.6) date 2024-11-11 23:30:30*
%MOMM*%
%LPD*%
G01*
G04 APERTURE LIST*
G04 Aperture macros list*
%AMRoundRect*
0 Rectangle with rounded corners*
0 $1 Rounding radius*
0 $2 $3 $4 $5 $6 $7 $8 $9 X,Y pos of 4 corners*
0 Add a 4 corners polygon primitive as box body*
4,1,4,$2,$3,$4,$5,$6,$7,$8,$9,$2,$3,0*
0 Add four circle primitives for the rounded corners*
1,1,$1+$1,$2,$3*
1,1,$1+$1,$4,$5*
1,1,$1+$1,$6,$7*
1,1,$1+$1,$8,$9*
0 Add four rect primitives between the rounded corners*
20,1,$1+$1,$2,$3,$4,$5,0*
20,1,$1+$1,$4,$5,$6,$7,0*
20,1,$1+$1,$6,$7,$8,$9,0*
20,1,$1+$1,$8,$9,$2,$3,0*%
G04 Aperture macros list end*
%ADD10RoundRect,0.250000X-0.650000X0.325000X-0.650000X-0.325000X0.650000X-0.325000X0.650000X0.325000X0*%
%ADD11RoundRect,0.175000X0.175000X0.712500X-0.175000X0.712500X-0.175000X-0.712500X0.175000X-0.712500X0*%
%ADD12RoundRect,0.087500X0.462500X-0.087500X0.462500X0.087500X-0.462500X0.087500X-0.462500X-0.087500X0*%
%ADD13RoundRect,0.087500X-0.087500X-0.462500X0.087500X-0.462500X0.087500X0.462500X-0.087500X0.462500X0*%
%ADD14R,2.250000X2.250000*%
%ADD15RoundRect,0.250000X-0.325000X-0.650000X0.325000X-0.650000X0.325000X0.650000X-0.325000X0.650000X0*%
%ADD16RoundRect,0.250000X0.275000X0.700000X-0.275000X0.700000X-0.275000X-0.700000X0.275000X-0.700000X0*%
%ADD17RoundRect,0.250000X0.650000X-0.325000X0.650000X0.325000X-0.650000X0.325000X-0.650000X-0.325000X0*%
%ADD18RoundRect,0.150000X0.587500X0.150000X-0.587500X0.150000X-0.587500X-0.150000X0.587500X-0.150000X0*%
%ADD19RoundRect,0.243750X-0.243750X-0.456250X0.243750X-0.456250X0.243750X0.456250X-0.243750X0.456250X0*%
%ADD20RoundRect,0.150000X0.450000X-0.150000X0.450000X0.150000X-0.450000X0.150000X-0.450000X-0.150000X0*%
%ADD21RoundRect,0.250000X-0.312500X-0.625000X0.312500X-0.625000X0.312500X0.625000X-0.312500X0.625000X0*%
%ADD22R,2.350000X0.700000*%
%ADD23R,4.900000X4.800000*%
%ADD24RoundRect,0.162500X0.600000X-0.162500X0.600000X0.162500X-0.600000X0.162500X-0.600000X-0.162500X0*%
%ADD25RoundRect,0.250000X0.700000X-0.275000X0.700000X0.275000X-0.700000X0.275000X-0.700000X-0.275000X0*%
%ADD26RoundRect,0.250000X0.325000X0.650000X-0.325000X0.650000X-0.325000X-0.650000X0.325000X-0.650000X0*%
%ADD27R,1.200000X1.800000*%
G04 APERTURE END LIST*
D10*
%TO.C,C16*%
X45399999Y15675000D03*
X45399999Y12725000D03*
%TD*%
D11*
%TO.C,H1*%
X38189999Y2274000D03*
X39459999Y2274000D03*
X40729999Y2274000D03*
X41999999Y2274000D03*
X43269999Y2274000D03*
X44539999Y2274000D03*
X45809999Y2274000D03*
X45809999Y9350000D03*
X44539999Y9350000D03*
X43269999Y9350000D03*
X41999999Y9350000D03*
X40729999Y9350000D03*
X39459999Y9350000D03*
X38189999Y9350000D03*
%TD*%
D12*
%TO.C,IC2*%
X50049999Y15700000D03*
X50049999Y14900000D03*
X50049999Y14100000D03*
D13*
X51099999Y13050000D03*
X51899999Y13050000D03*
X52699999Y13050000D03*
D12*
X53749999Y14100000D03*
X53749999Y14900000D03*
X53749999Y15700000D03*
D13*
X52699999Y16750000D03*
X51899999Y16750000D03*
X51099999Y16750000D03*
D14*
X51899999Y14900000D03*
%TD*%
D15*
%TO.C,C4*%
X56774999Y16750000D03*
X59724999Y16750000D03*
%TD*%
%TO.C,C3*%
X62274999Y20150000D03*
X65224999Y20150000D03*
%TD*%
D16*
%TO.C,FB1*%
X57724999Y20150000D03*
X54574999Y20150000D03*
%TD*%
D17*
%TO.C,C15*%
X45399999Y17875000D03*
X45399999Y20825000D03*
%TD*%
D18*
%TO.C,D1*%
X77624999Y9550000D03*
X77624999Y11450000D03*
X75749999Y10500000D03*
%TD*%
D15*
%TO.C,C9*%
X57024999Y5500000D03*
X59974999Y5500000D03*
%TD*%
D19*
%TO.C,D3*%
X31562499Y7250000D03*
X33437499Y7250000D03*
%TD*%
D15*
%TO.C,C8*%
X49974999Y9150000D03*
X52924999Y9150000D03*
%TD*%
D17*
%TO.C,C14*%
X34999999Y2025000D03*
X34999999Y4975000D03*
%TD*%
D20*
%TO.C,IC1*%
X39349999Y20500000D03*
X39349999Y19550000D03*
X39349999Y18600000D03*
X41849999Y18600000D03*
X41849999Y19550000D03*
X41849999Y20500000D03*
%TD*%
D15*
%TO.C,C6*%
X69774999Y18000000D03*
X72724999Y18000000D03*
%TD*%
D21*
%TO.C,R1*%
X31037499Y9500000D03*
X33962499Y9500000D03*
%TD*%
D22*
%TO.C,J1*%
X85850999Y11250000D03*
D23*
X84275999Y7000000D03*
X84275999Y15500000D03*
%TD*%
D15*
%TO.C,C5*%
X56774999Y13250000D03*
X59724999Y13250000D03*
%TD*%
D24*
%TO.C,IC3*%
X65537999Y14155000D03*
X65537999Y12885000D03*
X65537999Y11615000D03*
X65537999Y10345000D03*
X70961999Y10345000D03*
X70961999Y11615000D03*
X70961999Y12885000D03*
X70961999Y14155000D03*
%TD*%
D18*
%TO.C,D2*%
X77624999Y6150000D03*
X77624999Y8050000D03*
X75749999Y7100000D03*
%TD*%
D16*
%TO.C,FB2*%
X57774999Y9150000D03*
X54624999Y9150000D03*
%TD*%
D15*
%TO.C,C7*%
X69774999Y20250000D03*
X72724999Y20250000D03*
%TD*%
%TO.C,C2*%
X62274999Y17750000D03*
X65224999Y17750000D03*
%TD*%
%TO.C,C1*%
X49924999Y20150000D03*
X52874999Y20150000D03*
%TD*%
D21*
%TO.C,R4*%
X31037499Y13500000D03*
X33962499Y13500000D03*
%TD*%
D12*
%TO.C,IC5*%
X50049999Y5200000D03*
X50049999Y4400000D03*
X50049999Y3600000D03*
D13*
X51099999Y2550000D03*
X51899999Y2550000D03*
X52699999Y2550000D03*
D12*
X53749999Y3600000D03*
X53749999Y4400000D03*
X53749999Y5200000D03*
D13*
X52699999Y6250000D03*
X51899999Y6250000D03*
X51099999Y6250000D03*
D14*
X51899999Y4400000D03*
%TD*%
D24*
%TO.C,IC6*%
X65537999Y7405000D03*
X65537999Y6135000D03*
X65537999Y4865000D03*
X65537999Y3595000D03*
X70961999Y3595000D03*
X70961999Y4865000D03*
X70961999Y6135000D03*
X70961999Y7405000D03*
%TD*%
D20*
%TO.C,IC4*%
X39349999Y15750000D03*
X39349999Y14800000D03*
X39349999Y13850000D03*
X41849999Y13850000D03*
X41849999Y14800000D03*
X41849999Y15750000D03*
%TD*%
D21*
%TO.C,R2*%
X32937499Y20850000D03*
X35862499Y20850000D03*
%TD*%
%TO.C,R3*%
X31037499Y15750000D03*
X33962499Y15750000D03*
%TD*%
D15*
%TO.C,C12*%
X3525002Y19749999D03*
X6475002Y19749999D03*
%TD*%
D10*
%TO.C,C11*%
X2250002Y14974999D03*
X2250002Y12024999D03*
%TD*%
D25*
%TO.C,L1*%
X2250002Y6424999D03*
X2250002Y9574999D03*
%TD*%
D26*
%TO.C,C13*%
X19225002Y1999999D03*
X16275002Y1999999D03*
%TD*%
D27*
%TO.C,PS1*%
X17580002Y15924999D03*
X15040002Y15924999D03*
X9960002Y15924999D03*
X7420002Y15924999D03*
X9960002Y5724999D03*
X17580002Y5724999D03*
%TD*%
D15*
%TO.C,C10*%
X4025002Y1999999D03*
X6975002Y1999999D03*
%TD*%
M02*
