%TF.GenerationSoftware,KiCad,Pcbnew,7.0.10*%
%TF.CreationDate,2024-02-02T00:24:17+07:00*%
%TF.ProjectId,PICO_ADC_Test,5049434f-5f41-4444-935f-546573742e6b,R0.1*%
%TF.SameCoordinates,PX72ade90PY75c75e0*%
%TF.FileFunction,Copper,L3,Inr*%
%TF.FilePolarity,Positive*%
%FSLAX46Y46*%
G04 Gerber Fmt 4.6, Leading zero omitted, Abs format (unit mm)*
G04 Created by KiCad (PCBNEW 7.0.10) date 2024-02-02 00:24:17*
%MOMM*%
%LPD*%
G01*
G04 APERTURE LIST*
%TA.AperFunction,ComponentPad*%
%ADD10R,1.700000X1.700000*%
%TD*%
%TA.AperFunction,ComponentPad*%
%ADD11O,1.700000X1.700000*%
%TD*%
%TA.AperFunction,ComponentPad*%
%ADD12C,0.800000*%
%TD*%
%TA.AperFunction,ComponentPad*%
%ADD13C,6.400000*%
%TD*%
%TA.AperFunction,ViaPad*%
%ADD14C,0.800000*%
%TD*%
%TA.AperFunction,Conductor*%
%ADD15C,1.000000*%
%TD*%
%TA.AperFunction,Conductor*%
%ADD16C,0.500000*%
%TD*%
G04 APERTURE END LIST*
D10*
%TO.N,+5V*%
%TO.C,J4*%
X46700000Y51500000D03*
D11*
%TO.N,SWCLK*%
X49240000Y51500000D03*
%TO.N,SWDIO*%
X51780000Y51500000D03*
%TO.N,GND*%
X54320000Y51500000D03*
%TD*%
D10*
%TO.N,GND*%
%TO.C,J2*%
X10210000Y27250000D03*
D11*
%TO.N,+5V*%
X12750000Y27250000D03*
%TD*%
D12*
%TO.N,N/C*%
%TO.C,REF\u002A\u002A*%
X79100000Y3500000D03*
X79802944Y5197056D03*
X79802944Y1802944D03*
X81500000Y5900000D03*
D13*
X81500000Y3500000D03*
D12*
X81500000Y1100000D03*
X83197056Y5197056D03*
X83197056Y1802944D03*
X83900000Y3500000D03*
%TD*%
D10*
%TO.N,+3.3V*%
%TO.C,J3*%
X10210000Y45030000D03*
D11*
%TO.N,GND*%
X10210000Y42490000D03*
%TO.N,GPIO17*%
X10210000Y39950000D03*
%TO.N,GPIO16*%
X10210000Y37410000D03*
%TO.N,GPIO12*%
X10210000Y34870000D03*
%TO.N,GPIO11*%
X10210000Y32330000D03*
%TD*%
D12*
%TO.N,N/C*%
%TO.C,REF\u002A\u002A*%
X1100000Y3500000D03*
X1802944Y5197056D03*
X1802944Y1802944D03*
X3500000Y5900000D03*
D13*
X3500000Y3500000D03*
D12*
X3500000Y1100000D03*
X5197056Y5197056D03*
X5197056Y1802944D03*
X5900000Y3500000D03*
%TD*%
%TO.N,N/C*%
%TO.C,REF\u002A\u002A*%
X1100000Y50500000D03*
X1802944Y52197056D03*
X1802944Y48802944D03*
X3500000Y52900000D03*
D13*
X3500000Y50500000D03*
D12*
X3500000Y48100000D03*
X5197056Y52197056D03*
X5197056Y48802944D03*
X5900000Y50500000D03*
%TD*%
D10*
%TO.N,GND*%
%TO.C,J5*%
X10210000Y50120000D03*
D11*
%TO.N,+5V*%
X12750000Y50120000D03*
%TD*%
D10*
%TO.N,GND*%
%TO.C,J7*%
X10210000Y4390000D03*
D11*
%TO.N,+5V*%
X12750000Y4390000D03*
%TD*%
D12*
%TO.N,N/C*%
%TO.C,REF\u002A\u002A*%
X79100000Y50500000D03*
X79802944Y52197056D03*
X79802944Y48802944D03*
X81500000Y52900000D03*
D13*
X81500000Y50500000D03*
D12*
X81500000Y48100000D03*
X83197056Y52197056D03*
X83197056Y48802944D03*
X83900000Y50500000D03*
%TD*%
D10*
%TO.N,+3.3V*%
%TO.C,J6*%
X12750000Y22170000D03*
D11*
X10210000Y22170000D03*
%TO.N,GND*%
X12750000Y19630000D03*
X10210000Y19630000D03*
%TO.N,GPIO21*%
X12750000Y17090000D03*
%TO.N,GPIO28*%
X10210000Y17090000D03*
%TO.N,GPIO20*%
X12750000Y14550000D03*
%TO.N,GPIO27*%
X10210000Y14550000D03*
%TO.N,GPIO19*%
X12750000Y12010000D03*
%TO.N,GPIO26*%
X10210000Y12010000D03*
%TO.N,GPIO18*%
X12750000Y9470000D03*
%TO.N,GPIO22*%
X10210000Y9470000D03*
%TD*%
D14*
%TO.N,GND*%
X59500000Y13000000D03*
X1500000Y10690000D03*
X83500000Y38630000D03*
X63500000Y42250000D03*
X56500000Y32500000D03*
X57250000Y16000000D03*
X83500000Y28470000D03*
X83500000Y41170000D03*
X21750000Y50000000D03*
X74500000Y26750000D03*
X52750000Y27500000D03*
X70040000Y1500000D03*
X59250000Y16000000D03*
X26000000Y28500000D03*
X1500000Y38630000D03*
X66000000Y7000000D03*
X30750000Y10500000D03*
X60250000Y52500000D03*
X63750000Y44250000D03*
X77750000Y48250000D03*
X49500000Y17250000D03*
X72580000Y1500000D03*
X30750000Y33500000D03*
X61250000Y17750000D03*
X45250000Y32250000D03*
X42750000Y34750000D03*
X74250000Y37500000D03*
X64000000Y52500000D03*
X55750000Y3000000D03*
X66750000Y29750000D03*
X83500000Y31010000D03*
X1500000Y33550000D03*
X1500000Y23390000D03*
X64000000Y50750000D03*
X83500000Y43710000D03*
X21750000Y1500000D03*
X74250000Y40500000D03*
X51250000Y9500000D03*
X71500000Y45750000D03*
X35250000Y46250000D03*
X83500000Y17500000D03*
X49500000Y1500000D03*
X73000000Y16750000D03*
X26250000Y20750000D03*
X52750000Y5750000D03*
X58150000Y6000000D03*
X69500000Y11750000D03*
X21750000Y20750000D03*
X35000000Y1500000D03*
X43000000Y37250000D03*
X66000000Y9250000D03*
X1500000Y46250000D03*
X83500000Y33550000D03*
X30750000Y46250000D03*
X51250000Y15512500D03*
X78250000Y18750000D03*
X77250000Y1500000D03*
X78000000Y7750000D03*
X76750000Y46500000D03*
X56750000Y52500000D03*
X30750000Y37500000D03*
X1500000Y31010000D03*
X63750000Y29750000D03*
X57250000Y7912500D03*
X54500000Y48500000D03*
X1500000Y13230000D03*
X58150000Y3750000D03*
X61500000Y11250000D03*
X81000000Y25250000D03*
X51000000Y3000000D03*
X1500000Y25930000D03*
X26000000Y23750000D03*
X50500000Y45250000D03*
X21750000Y38670000D03*
X1500000Y8150000D03*
X50250000Y5750000D03*
X71250000Y29750000D03*
X1500000Y20850000D03*
X75750000Y18750000D03*
X21750000Y47000000D03*
X68250000Y29750000D03*
X75120000Y1500000D03*
X56500000Y34000000D03*
X21750000Y33590000D03*
X66000000Y2500000D03*
X55300000Y17700000D03*
X21750000Y23750000D03*
X83500000Y36090000D03*
X61500000Y13000000D03*
X63750000Y46250000D03*
X57250000Y13000000D03*
X66250000Y42250000D03*
X77000000Y33500000D03*
X26250000Y10500000D03*
X48750000Y25250000D03*
X52750000Y30000000D03*
X30750000Y40750000D03*
X55500000Y5750000D03*
X83500000Y46250000D03*
X30750000Y28500000D03*
X35000000Y5510000D03*
X26000000Y40500000D03*
X76500000Y25000000D03*
X44950000Y37250000D03*
X51250000Y12512500D03*
X83500000Y14960000D03*
X1500000Y15770000D03*
X52750000Y1500000D03*
X64000000Y48750000D03*
X1500000Y36090000D03*
X50500000Y25250000D03*
X79500000Y27250000D03*
X65500000Y11750000D03*
X35000000Y15670000D03*
X73000000Y18750000D03*
X21750000Y5510000D03*
X69750000Y29750000D03*
X71500000Y42000000D03*
X60250000Y43250000D03*
X47000000Y29850000D03*
X47000000Y18250000D03*
X35000000Y10590000D03*
X21750000Y10590000D03*
X54750000Y45250000D03*
X83500000Y7750000D03*
X83500000Y12420000D03*
X52750000Y8250000D03*
X80250000Y46500000D03*
X56500000Y42500000D03*
X30750000Y15750000D03*
X21750000Y43750000D03*
X83500000Y9880000D03*
X21750000Y15670000D03*
X59750000Y1500000D03*
X55750000Y1500000D03*
X80750000Y7750000D03*
X77250000Y52500000D03*
X35000000Y20750000D03*
X30750000Y20750000D03*
X71750000Y26750000D03*
X47000000Y25250000D03*
X56500000Y38500000D03*
X1500000Y28470000D03*
X72000000Y13750000D03*
X66000000Y4750000D03*
X63000000Y17750000D03*
X1500000Y18310000D03*
X52750000Y9500000D03*
X57250000Y17750000D03*
X77000000Y35500000D03*
X73250000Y46500000D03*
X21750000Y28510000D03*
X1500000Y41170000D03*
X61250000Y16000000D03*
X67500000Y1500000D03*
X59250000Y17750000D03*
X1500000Y43710000D03*
X26250000Y15750000D03*
X51250000Y8250000D03*
X65250000Y29750000D03*
X61500000Y28500000D03*
X28500000Y48550000D03*
X56500000Y35500000D03*
X35000000Y23750000D03*
X26000000Y33500000D03*
X43750000Y39400000D03*
%TO.N,+3.3V*%
X54112500Y41937500D03*
X52250000Y25500000D03*
%TO.N,5VVGA*%
X59000000Y19250000D03*
X61250000Y19250000D03*
X80500000Y19050000D03*
%TO.N,+5V*%
X83000000Y25250000D03*
X80500000Y29500000D03*
%TO.N,GPIO21*%
X16250000Y34500000D03*
%TO.N,GPIO18*%
X16250000Y42250000D03*
%TO.N,GPIO19*%
X16250000Y39750000D03*
%TO.N,GPIO11*%
X41000000Y38750000D03*
%TO.N,GPIO12*%
X41000000Y41000000D03*
%TO.N,GPIO20*%
X16250000Y37250000D03*
%TO.N,CS*%
X41050000Y43800000D03*
X51750000Y34700000D03*
%TO.N,SCLK*%
X52550000Y33800000D03*
X41000000Y46500000D03*
%TO.N,MOSI*%
X51750000Y32900000D03*
X40995000Y49000000D03*
%TD*%
D15*
%TO.N,+3.3V*%
X6850000Y41746296D02*
X6850000Y25530000D01*
X10340000Y22300000D02*
X28500000Y22300000D01*
X54950000Y27400000D02*
X53050000Y25500000D01*
X53650000Y42400000D02*
X54950000Y41100000D01*
X10210000Y45030000D02*
X10133704Y45030000D01*
X6850000Y25530000D02*
X10210000Y22170000D01*
X10210000Y22170000D02*
X10340000Y22300000D01*
X28500000Y22300000D02*
X33750000Y27550000D01*
X53050000Y25500000D02*
X52250000Y25500000D01*
X33750000Y27550000D02*
X33750000Y40800000D01*
X54950000Y41100000D02*
X54950000Y27400000D01*
X35350000Y42400000D02*
X53650000Y42400000D01*
X10133704Y45030000D02*
X6850000Y41746296D01*
X33750000Y40800000D02*
X35350000Y42400000D01*
%TO.N,5VVGA*%
X61250000Y19250000D02*
X59000000Y19250000D01*
X79100000Y24750000D02*
X75550000Y28300000D01*
X61250000Y21700000D02*
X61250000Y19250000D01*
D16*
X61250000Y21500000D02*
X61250000Y21700000D01*
D15*
X64550000Y28300000D02*
X61250000Y25000000D01*
X79100000Y20450000D02*
X79100000Y24750000D01*
X59700000Y19250000D02*
X61250000Y20800000D01*
X80500000Y19050000D02*
X79100000Y20450000D01*
X61250000Y25000000D02*
X61250000Y21700000D01*
X75550000Y28300000D02*
X64550000Y28300000D01*
X61250000Y20800000D02*
X61250000Y21500000D01*
X59000000Y19250000D02*
X59700000Y19250000D01*
%TO.N,+5V*%
X44600000Y51500000D02*
X44600000Y50500000D01*
X12750000Y46850000D02*
X12750000Y47500000D01*
X12750000Y6350000D02*
X11800000Y7300000D01*
X8000000Y7300000D02*
X5350000Y9950000D01*
D16*
X44600000Y51500000D02*
X46700000Y51500000D01*
X46700000Y51500000D02*
X45600000Y51500000D01*
D15*
X44650000Y50500000D02*
X45600000Y51450000D01*
X11400000Y47400000D02*
X12750000Y46050000D01*
X83000000Y25250000D02*
X83000000Y27000000D01*
X44600000Y50500000D02*
X44600000Y48300000D01*
X83000000Y27000000D02*
X80500000Y29500000D01*
D16*
X45300000Y51500000D02*
X45350000Y51500000D01*
D15*
X5350000Y9950000D02*
X5350000Y44600000D01*
X12100000Y47500000D02*
X12750000Y46850000D01*
X12100000Y47500000D02*
X12750000Y47500000D01*
D16*
X45600000Y51500000D02*
X45350000Y51500000D01*
D15*
X78750000Y31250000D02*
X80500000Y29500000D01*
X45600000Y51450000D02*
X45600000Y51500000D01*
X58650000Y44000000D02*
X58650000Y33350000D01*
X12750000Y46850000D02*
X12750000Y46050000D01*
D16*
X46700000Y51500000D02*
X45300000Y51500000D01*
D15*
X14130000Y51500000D02*
X12750000Y50120000D01*
X46700000Y51500000D02*
X43600000Y51500000D01*
X11800000Y7300000D02*
X8000000Y7300000D01*
X44600000Y50500000D02*
X43600000Y51500000D01*
X12750000Y48850000D02*
X11400000Y47500000D01*
D16*
X45350000Y51500000D02*
X44600000Y51500000D01*
D15*
X43600000Y51500000D02*
X14130000Y51500000D01*
X12750000Y27250000D02*
X12750000Y46850000D01*
X44600000Y50500000D02*
X44650000Y50500000D01*
X12750000Y50120000D02*
X12750000Y48200000D01*
X58650000Y33350000D02*
X60750000Y31250000D01*
X60750000Y31250000D02*
X78750000Y31250000D01*
X12750000Y4390000D02*
X12750000Y6350000D01*
X5350000Y44600000D02*
X8250000Y47500000D01*
X46150000Y46750000D02*
X55900000Y46750000D01*
D16*
X44600000Y51500000D02*
X45300000Y51500000D01*
D15*
X12750000Y48200000D02*
X12750000Y47500000D01*
X55900000Y46750000D02*
X58650000Y44000000D01*
X11400000Y47500000D02*
X11400000Y47400000D01*
X44600000Y48300000D02*
X46150000Y46750000D01*
X8250000Y47500000D02*
X12100000Y47500000D01*
%TD*%
%TA.AperFunction,Conductor*%
%TO.N,GND*%
G36*
X10296288Y52981046D02*
G01*
X10377070Y52927070D01*
X10431046Y52846288D01*
X10450000Y52751000D01*
X10450000Y51581139D01*
X10434765Y51504549D01*
X10441046Y51495149D01*
X10450000Y51450135D01*
X10450000Y51250000D01*
X10460000Y51250000D01*
X10460000Y50555502D01*
X10352315Y50604680D01*
X10245763Y50620000D01*
X10174237Y50620000D01*
X10067685Y50604680D01*
X9960000Y50555502D01*
X9960000Y51401861D01*
X9971304Y51458695D01*
X9959999Y51470000D01*
X9312167Y51470000D01*
X9252628Y51463599D01*
X9252621Y51463597D01*
X9117912Y51413354D01*
X9002812Y51327190D01*
X9002810Y51327188D01*
X8916646Y51212088D01*
X8866403Y51077379D01*
X8866401Y51077372D01*
X8860000Y51017833D01*
X8860000Y50370001D01*
X8860001Y50370000D01*
X9776314Y50370000D01*
X9750507Y50329844D01*
X9710000Y50191889D01*
X9710000Y50048111D01*
X9750507Y49910156D01*
X9776314Y49870000D01*
X8860001Y49870000D01*
X8860000Y49869999D01*
X8860000Y49572651D01*
X8850000Y49522378D01*
X8850000Y48749500D01*
X8831046Y48654212D01*
X8777070Y48573430D01*
X8696288Y48519454D01*
X8601000Y48500500D01*
X8265825Y48500500D01*
X8259518Y48500580D01*
X8173639Y48502757D01*
X8173630Y48502756D01*
X8120243Y48493188D01*
X8101512Y48490561D01*
X8047566Y48485075D01*
X8047563Y48485075D01*
X8026091Y48478338D01*
X7995488Y48470827D01*
X7973347Y48466859D01*
X7922982Y48446741D01*
X7905165Y48440398D01*
X7853412Y48424160D01*
X7853408Y48424158D01*
X7833741Y48413242D01*
X7805280Y48399725D01*
X7784383Y48391377D01*
X7739096Y48361532D01*
X7722924Y48351735D01*
X7675501Y48325412D01*
X7675495Y48325408D01*
X7658424Y48310753D01*
X7633269Y48291786D01*
X7614481Y48279403D01*
X7614480Y48279402D01*
X7576113Y48241037D01*
X7562245Y48228185D01*
X7521104Y48192865D01*
X7507338Y48175082D01*
X7486510Y48151433D01*
X4653739Y45318661D01*
X4649225Y45314261D01*
X4586946Y45255059D01*
X4586945Y45255058D01*
X4555961Y45210542D01*
X4544574Y45195440D01*
X4510305Y45153412D01*
X4510299Y45153403D01*
X4499879Y45133456D01*
X4483556Y45106514D01*
X4470707Y45088053D01*
X4470702Y45088044D01*
X4449315Y45038208D01*
X4441203Y45021126D01*
X4416091Y44973052D01*
X4409905Y44951430D01*
X4399336Y44921744D01*
X4390459Y44901057D01*
X4390458Y44901056D01*
X4379541Y44847933D01*
X4375033Y44829563D01*
X4360113Y44777419D01*
X4360111Y44777409D01*
X4358402Y44754972D01*
X4354028Y44723781D01*
X4349500Y44701741D01*
X4349500Y44647510D01*
X4348781Y44628603D01*
X4344663Y44574526D01*
X4344663Y44574525D01*
X4347505Y44552208D01*
X4349500Y44520752D01*
X4349500Y9965866D01*
X4349420Y9959559D01*
X4347242Y9873641D01*
X4347243Y9873637D01*
X4356812Y9820240D01*
X4359438Y9801515D01*
X4364925Y9747566D01*
X4371662Y9726092D01*
X4379173Y9695490D01*
X4383141Y9673350D01*
X4383143Y9673344D01*
X4403257Y9622989D01*
X4409602Y9605168D01*
X4425840Y9553413D01*
X4425845Y9553403D01*
X4436757Y9533743D01*
X4450276Y9505277D01*
X4458619Y9484391D01*
X4458626Y9484377D01*
X4488466Y9439101D01*
X4498266Y9422925D01*
X4524591Y9375498D01*
X4539242Y9358432D01*
X4558221Y9333260D01*
X4570596Y9314483D01*
X4608951Y9276127D01*
X4621810Y9262252D01*
X4657135Y9221104D01*
X4657136Y9221103D01*
X4674917Y9207339D01*
X4698572Y9186507D01*
X7281336Y6603744D01*
X7285701Y6599267D01*
X7305999Y6577914D01*
X7344943Y6536945D01*
X7389455Y6505964D01*
X7404561Y6494575D01*
X7446593Y6460302D01*
X7466533Y6449886D01*
X7493483Y6433559D01*
X7511951Y6420705D01*
X7543460Y6407184D01*
X7561793Y6399316D01*
X7578881Y6391201D01*
X7626951Y6366091D01*
X7648580Y6359903D01*
X7678258Y6349337D01*
X7698942Y6340460D01*
X7752085Y6329539D01*
X7770439Y6325034D01*
X7822582Y6310113D01*
X7845013Y6308406D01*
X7876219Y6304030D01*
X7898259Y6299500D01*
X7952491Y6299500D01*
X7971396Y6298782D01*
X8025476Y6294663D01*
X8046180Y6297300D01*
X8047792Y6297505D01*
X8079248Y6299500D01*
X10251000Y6299500D01*
X10346288Y6280546D01*
X10427070Y6226570D01*
X10481046Y6145788D01*
X10500000Y6050500D01*
X10500000Y5883139D01*
X10481046Y5787851D01*
X10460000Y5756353D01*
X10460000Y4825502D01*
X10352315Y4874680D01*
X10245763Y4890000D01*
X10174237Y4890000D01*
X10067685Y4874680D01*
X9960000Y4825502D01*
X9960000Y5739999D01*
X9959999Y5740000D01*
X9312167Y5740000D01*
X9252628Y5733599D01*
X9252621Y5733597D01*
X9117912Y5683354D01*
X9002812Y5597190D01*
X9002810Y5597188D01*
X8916646Y5482088D01*
X8866403Y5347379D01*
X8866401Y5347372D01*
X8860000Y5287833D01*
X8860000Y4640001D01*
X8860001Y4640000D01*
X9776314Y4640000D01*
X9750507Y4599844D01*
X9710000Y4461889D01*
X9710000Y4318111D01*
X9750507Y4180156D01*
X9776314Y4140000D01*
X8860001Y4140000D01*
X8860000Y4139999D01*
X8860000Y3492168D01*
X8866401Y3432629D01*
X8866403Y3432622D01*
X8916646Y3297913D01*
X9002810Y3182813D01*
X9002812Y3182811D01*
X9117912Y3096647D01*
X9252621Y3046404D01*
X9252628Y3046402D01*
X9312167Y3040001D01*
X9312175Y3040000D01*
X9959999Y3040000D01*
X9960000Y3040001D01*
X9960000Y3954499D01*
X10067685Y3905320D01*
X10174237Y3890000D01*
X10245763Y3890000D01*
X10352315Y3905320D01*
X10460000Y3954499D01*
X10460000Y3040001D01*
X10460001Y3040000D01*
X11107825Y3040000D01*
X11107832Y3040001D01*
X11167371Y3046402D01*
X11167378Y3046404D01*
X11302087Y3096647D01*
X11417187Y3182811D01*
X11417189Y3182813D01*
X11514026Y3312169D01*
X11517313Y3309709D01*
X11557897Y3358286D01*
X11643978Y3403333D01*
X11740745Y3412009D01*
X11833466Y3382993D01*
X11874223Y3355177D01*
X11878593Y3351511D01*
X11878599Y3351505D01*
X12072170Y3215965D01*
X12286337Y3116097D01*
X12514592Y3054937D01*
X12514595Y3054937D01*
X12514598Y3054936D01*
X12749995Y3034341D01*
X12750000Y3034341D01*
X12750005Y3034341D01*
X12985401Y3054936D01*
X12985403Y3054937D01*
X12985408Y3054937D01*
X13213663Y3116097D01*
X13427830Y3215965D01*
X13621401Y3351505D01*
X13788495Y3518599D01*
X13924035Y3712170D01*
X14023903Y3926337D01*
X14085063Y4154592D01*
X14096171Y4281565D01*
X14110764Y4331629D01*
X14106606Y4379159D01*
X14106604Y4379202D01*
X14100948Y4443847D01*
X14100000Y4465550D01*
X14100000Y9394452D01*
X14100948Y9416156D01*
X14105659Y9469998D01*
X14105659Y9470004D01*
X14100948Y9523847D01*
X14100000Y9545550D01*
X14100000Y11856781D01*
X14099366Y11858541D01*
X14097546Y11917268D01*
X14105659Y12009996D01*
X14105659Y12010006D01*
X14091993Y12166205D01*
X14100000Y12239323D01*
X14100000Y14474452D01*
X14100948Y14496156D01*
X14105659Y14549998D01*
X14105659Y14550004D01*
X14100948Y14603847D01*
X14100000Y14625550D01*
X14100000Y17014452D01*
X14100948Y17036156D01*
X14105659Y17089998D01*
X14105659Y17090004D01*
X14100948Y17143847D01*
X14100000Y17165550D01*
X14100000Y19199073D01*
X57995630Y19199073D01*
X57995631Y19199053D01*
X58026442Y18997935D01*
X58026443Y18997931D01*
X58026444Y18997929D01*
X58097114Y18807113D01*
X58138332Y18740984D01*
X58204748Y18634428D01*
X58344939Y18486948D01*
X58487789Y18387522D01*
X58511951Y18370705D01*
X58698942Y18290460D01*
X58898259Y18249500D01*
X59684134Y18249500D01*
X59690441Y18249420D01*
X59776361Y18247243D01*
X59776361Y18247244D01*
X59776363Y18247243D01*
X59776364Y18247244D01*
X59788955Y18248202D01*
X59789005Y18247536D01*
X59811094Y18249500D01*
X61218342Y18249500D01*
X61230954Y18249180D01*
X61300936Y18245631D01*
X61370221Y18256246D01*
X61382684Y18257834D01*
X61452438Y18264926D01*
X61458721Y18266898D01*
X61495566Y18275448D01*
X61502071Y18276444D01*
X61567831Y18300800D01*
X61579675Y18304848D01*
X61646588Y18325841D01*
X61652339Y18329034D01*
X61686719Y18344830D01*
X61692887Y18347114D01*
X61752370Y18384192D01*
X61763220Y18390579D01*
X61824502Y18424591D01*
X61829488Y18428873D01*
X61859992Y18451271D01*
X61865569Y18454747D01*
X61865571Y18454748D01*
X61916381Y18503047D01*
X61925731Y18511496D01*
X61978895Y18557134D01*
X61982926Y18562343D01*
X62008276Y18590401D01*
X62013053Y18594941D01*
X62053094Y18652471D01*
X62060562Y18662640D01*
X62103447Y18718041D01*
X62103446Y18718041D01*
X62103448Y18718042D01*
X62106350Y18723958D01*
X62125538Y18756554D01*
X62129295Y18761951D01*
X62156940Y18826373D01*
X62162184Y18837787D01*
X62193060Y18900729D01*
X62194707Y18907095D01*
X62206945Y18942896D01*
X62209540Y18948942D01*
X62223652Y19017619D01*
X62226489Y19029847D01*
X62244063Y19097715D01*
X62244396Y19104289D01*
X62249173Y19141806D01*
X62250500Y19148259D01*
X62250500Y19218343D01*
X62250820Y19230956D01*
X62254369Y19300937D01*
X62253371Y19307453D01*
X62250500Y19345156D01*
X62250500Y20752492D01*
X62251219Y20771399D01*
X62252749Y20791491D01*
X62255337Y20825476D01*
X62252495Y20847794D01*
X62250500Y20879249D01*
X62250500Y24482439D01*
X62269454Y24577727D01*
X62323430Y24658509D01*
X64891491Y27226570D01*
X64972273Y27280546D01*
X65067561Y27299500D01*
X75032439Y27299500D01*
X75127727Y27280546D01*
X75208509Y27226570D01*
X78026570Y24408510D01*
X78080546Y24327728D01*
X78099500Y24232440D01*
X78099500Y20465866D01*
X78099420Y20459559D01*
X78097242Y20373641D01*
X78097243Y20373637D01*
X78106812Y20320240D01*
X78109438Y20301515D01*
X78114925Y20247566D01*
X78121662Y20226092D01*
X78129173Y20195490D01*
X78133141Y20173350D01*
X78133143Y20173344D01*
X78153257Y20122989D01*
X78159602Y20105168D01*
X78175840Y20053413D01*
X78175845Y20053403D01*
X78186757Y20033743D01*
X78200276Y20005277D01*
X78208619Y19984391D01*
X78208626Y19984377D01*
X78238466Y19939101D01*
X78248270Y19922919D01*
X78274591Y19875498D01*
X78289242Y19858432D01*
X78308221Y19833260D01*
X78320596Y19814483D01*
X78358951Y19776127D01*
X78371810Y19762252D01*
X78407135Y19721104D01*
X78407136Y19721103D01*
X78424917Y19707339D01*
X78448571Y19686507D01*
X79500651Y18634429D01*
X79828420Y18306660D01*
X79946593Y18210302D01*
X79946597Y18210300D01*
X80126951Y18116091D01*
X80126958Y18116089D01*
X80322573Y18060115D01*
X80322577Y18060115D01*
X80322582Y18060113D01*
X80525476Y18044663D01*
X80727328Y18070370D01*
X80919872Y18136184D01*
X81095227Y18239410D01*
X81246213Y18375821D01*
X81366649Y18539833D01*
X81448531Y18718042D01*
X81451603Y18724727D01*
X81451603Y18724729D01*
X81451605Y18724732D01*
X81497603Y18922946D01*
X81502757Y19126363D01*
X81466858Y19326653D01*
X81391377Y19515617D01*
X81279402Y19685519D01*
X80173430Y20791491D01*
X80119454Y20872273D01*
X80100500Y20967561D01*
X80100500Y24734151D01*
X80100580Y24740459D01*
X80102757Y24826363D01*
X80093183Y24879775D01*
X80090562Y24898461D01*
X80085074Y24952438D01*
X80078340Y24973901D01*
X80070826Y25004510D01*
X80066858Y25026653D01*
X80066079Y25028603D01*
X80046741Y25077016D01*
X80040395Y25094841D01*
X80026465Y25139238D01*
X80024159Y25146588D01*
X80019505Y25154972D01*
X80013245Y25166251D01*
X79999719Y25194733D01*
X79991378Y25215615D01*
X79991376Y25215620D01*
X79961535Y25260897D01*
X79951729Y25277083D01*
X79925412Y25324498D01*
X79925409Y25324502D01*
X79910757Y25341569D01*
X79891777Y25366741D01*
X79879402Y25385519D01*
X79879401Y25385520D01*
X79841041Y25423881D01*
X79828182Y25437757D01*
X79792870Y25478891D01*
X79792860Y25478900D01*
X79775081Y25492662D01*
X79751427Y25513494D01*
X76268662Y28996258D01*
X76264258Y29000776D01*
X76205058Y29063055D01*
X76160545Y29094036D01*
X76145435Y29105429D01*
X76103414Y29139693D01*
X76103409Y29139697D01*
X76103407Y29139698D01*
X76103404Y29139700D01*
X76103402Y29139701D01*
X76083460Y29150118D01*
X76056509Y29166447D01*
X76038055Y29179291D01*
X76038053Y29179292D01*
X76038049Y29179295D01*
X76037672Y29179457D01*
X75988202Y29200687D01*
X75971116Y29208801D01*
X75962606Y29213246D01*
X75923049Y29233909D01*
X75923048Y29233910D01*
X75923047Y29233910D01*
X75901421Y29240098D01*
X75871735Y29250667D01*
X75851054Y29259542D01*
X75797924Y29270461D01*
X75779555Y29274970D01*
X75727422Y29289887D01*
X75704979Y29291596D01*
X75673773Y29295973D01*
X75651741Y29300500D01*
X75597509Y29300500D01*
X75578603Y29301219D01*
X75553495Y29303131D01*
X75524525Y29305337D01*
X75524524Y29305337D01*
X75502208Y29302495D01*
X75470752Y29300500D01*
X64565866Y29300500D01*
X64559559Y29300580D01*
X64473641Y29302758D01*
X64473637Y29302757D01*
X64420241Y29293188D01*
X64401516Y29290562D01*
X64347564Y29285075D01*
X64347554Y29285073D01*
X64326079Y29278336D01*
X64295491Y29270828D01*
X64273347Y29266859D01*
X64222965Y29246735D01*
X64205153Y29240394D01*
X64153411Y29224159D01*
X64133750Y29213246D01*
X64105286Y29199728D01*
X64084384Y29191379D01*
X64084371Y29191372D01*
X64039087Y29161528D01*
X64022918Y29151731D01*
X63975497Y29125409D01*
X63975494Y29125406D01*
X63958416Y29110746D01*
X63933267Y29091783D01*
X63914479Y29079400D01*
X63914477Y29079398D01*
X63876120Y29041043D01*
X63862252Y29028191D01*
X63821104Y28992866D01*
X63807330Y28975072D01*
X63786504Y28951426D01*
X60553739Y25718661D01*
X60549225Y25714261D01*
X60486946Y25655059D01*
X60486945Y25655058D01*
X60455961Y25610542D01*
X60444574Y25595440D01*
X60410305Y25553412D01*
X60410299Y25553403D01*
X60399879Y25533456D01*
X60383556Y25506514D01*
X60370707Y25488053D01*
X60370702Y25488044D01*
X60349315Y25438208D01*
X60341203Y25421126D01*
X60316091Y25373052D01*
X60309905Y25351430D01*
X60299336Y25321744D01*
X60290459Y25301057D01*
X60290458Y25301056D01*
X60279541Y25247933D01*
X60275033Y25229563D01*
X60260113Y25177419D01*
X60260111Y25177409D01*
X60258402Y25154972D01*
X60254028Y25123781D01*
X60249500Y25101741D01*
X60249500Y25047510D01*
X60248781Y25028603D01*
X60244663Y24974526D01*
X60244663Y24974525D01*
X60247505Y24952208D01*
X60249500Y24920752D01*
X60249500Y21317560D01*
X60230546Y21222272D01*
X60176570Y21141491D01*
X59358511Y20323431D01*
X59277729Y20269454D01*
X59182441Y20250500D01*
X58949258Y20250500D01*
X58949253Y20250500D01*
X58949239Y20250499D01*
X58797566Y20235076D01*
X58603405Y20174157D01*
X58425495Y20075409D01*
X58271107Y19942870D01*
X58146549Y19781954D01*
X58056941Y19599276D01*
X58056940Y19599272D01*
X58005937Y19402287D01*
X58005936Y19402278D01*
X57995630Y19199073D01*
X14100000Y19199073D01*
X14100000Y19380000D01*
X13183686Y19380000D01*
X13209493Y19420156D01*
X13250000Y19558111D01*
X13250000Y19701889D01*
X13209493Y19839844D01*
X13183686Y19880000D01*
X14100000Y19880000D01*
X14100000Y21050500D01*
X14118954Y21145788D01*
X14172930Y21226570D01*
X14253712Y21280546D01*
X14349000Y21299500D01*
X28484134Y21299500D01*
X28490441Y21299420D01*
X28576360Y21297243D01*
X28576360Y21297244D01*
X28576363Y21297243D01*
X28629751Y21306813D01*
X28648462Y21309438D01*
X28702438Y21314926D01*
X28723892Y21321658D01*
X28754511Y21329174D01*
X28776653Y21333142D01*
X28827047Y21353273D01*
X28844811Y21359597D01*
X28896588Y21375841D01*
X28916251Y21386756D01*
X28944732Y21400281D01*
X28947744Y21401485D01*
X28965617Y21408623D01*
X29010908Y21438473D01*
X29027073Y21448267D01*
X29074502Y21474591D01*
X29091575Y21489249D01*
X29116734Y21508219D01*
X29135519Y21520598D01*
X29173875Y21558955D01*
X29187738Y21571804D01*
X29228895Y21607134D01*
X29242661Y21624920D01*
X29263486Y21648567D01*
X34446294Y26831376D01*
X34450730Y26835700D01*
X34513053Y26894941D01*
X34544036Y26939459D01*
X34555423Y26954560D01*
X34589698Y26996593D01*
X34600113Y27016533D01*
X34616448Y27043494D01*
X34619980Y27048568D01*
X34629295Y27061951D01*
X34650680Y27111787D01*
X34658791Y27128867D01*
X34683909Y27176951D01*
X34690094Y27198570D01*
X34700672Y27228280D01*
X34705260Y27238970D01*
X34709540Y27248942D01*
X34720459Y27302082D01*
X34724968Y27320450D01*
X34739884Y27372575D01*
X34739884Y27372576D01*
X34739886Y27372582D01*
X34741593Y27395009D01*
X34745970Y27426220D01*
X34750500Y27448259D01*
X34750500Y27502494D01*
X34751219Y27521402D01*
X34755337Y27575476D01*
X34752495Y27597795D01*
X34750500Y27629249D01*
X34750500Y32900000D01*
X50844540Y32900000D01*
X50864325Y32711745D01*
X50878072Y32669437D01*
X50922821Y32531716D01*
X50922822Y32531715D01*
X51017469Y32367781D01*
X51132626Y32239887D01*
X51144129Y32227112D01*
X51258984Y32143665D01*
X51297271Y32115848D01*
X51470189Y32038859D01*
X51470192Y32038858D01*
X51470197Y32038856D01*
X51655354Y31999500D01*
X51844645Y31999500D01*
X51844646Y31999500D01*
X52029803Y32038856D01*
X52041438Y32044036D01*
X52202728Y32115848D01*
X52202728Y32115849D01*
X52202730Y32115849D01*
X52355871Y32227112D01*
X52482533Y32367784D01*
X52577179Y32531716D01*
X52635674Y32711744D01*
X52636743Y32721919D01*
X52665550Y32814700D01*
X52727673Y32889399D01*
X52813652Y32934638D01*
X52828156Y32938322D01*
X52829796Y32938855D01*
X52829803Y32938856D01*
X52978741Y33005168D01*
X53002728Y33015848D01*
X53002728Y33015849D01*
X53002730Y33015849D01*
X53155871Y33127112D01*
X53282533Y33267784D01*
X53377179Y33431716D01*
X53435674Y33611744D01*
X53452864Y33775302D01*
X53459765Y33797527D01*
X53452864Y33824700D01*
X53435674Y33988256D01*
X53412957Y34058170D01*
X53377179Y34168284D01*
X53282533Y34332216D01*
X53282531Y34332219D01*
X53282530Y34332220D01*
X53155873Y34472886D01*
X53155872Y34472887D01*
X53155871Y34472888D01*
X53079300Y34528520D01*
X53002728Y34584153D01*
X52829808Y34661142D01*
X52829806Y34661143D01*
X52829803Y34661144D01*
X52829799Y34661145D01*
X52817385Y34665179D01*
X52817929Y34666855D01*
X52743341Y34698902D01*
X52675548Y34768495D01*
X52639548Y34858734D01*
X52636745Y34878064D01*
X52635674Y34888256D01*
X52577179Y35068284D01*
X52482533Y35232216D01*
X52482531Y35232219D01*
X52482530Y35232220D01*
X52355873Y35372886D01*
X52355872Y35372887D01*
X52355871Y35372888D01*
X52279300Y35428520D01*
X52202728Y35484153D01*
X52029810Y35561142D01*
X52029796Y35561146D01*
X51844646Y35600500D01*
X51655354Y35600500D01*
X51470203Y35561146D01*
X51470189Y35561142D01*
X51297271Y35484153D01*
X51144126Y35372886D01*
X51017469Y35232220D01*
X50922822Y35068286D01*
X50864325Y34888256D01*
X50844540Y34700000D01*
X50864325Y34511745D01*
X50893573Y34421730D01*
X50922821Y34331716D01*
X51017467Y34167784D01*
X51017469Y34167781D01*
X51116164Y34058170D01*
X51144129Y34027112D01*
X51179457Y34001445D01*
X51245406Y33930101D01*
X51279033Y33838951D01*
X51275218Y33741871D01*
X51234543Y33653641D01*
X51179457Y33598555D01*
X51144126Y33572886D01*
X51017469Y33432220D01*
X50922822Y33268286D01*
X50864325Y33088256D01*
X50844540Y32900000D01*
X34750500Y32900000D01*
X34750500Y40282439D01*
X34769454Y40377727D01*
X34823430Y40458509D01*
X35691491Y41326570D01*
X35772273Y41380546D01*
X35867561Y41399500D01*
X39851000Y41399500D01*
X39946288Y41380546D01*
X40027070Y41326570D01*
X40081046Y41245788D01*
X40100000Y41150500D01*
X40100000Y41065000D01*
X40098636Y41038974D01*
X40097647Y41029563D01*
X40094540Y41000000D01*
X40096914Y40977409D01*
X40098636Y40961030D01*
X40100000Y40935002D01*
X40100000Y38815000D01*
X40098636Y38788974D01*
X40094540Y38750002D01*
X40094540Y38750001D01*
X40114325Y38561745D01*
X40142175Y38476035D01*
X40172821Y38381716D01*
X40230740Y38281397D01*
X40267469Y38217781D01*
X40394126Y38077115D01*
X40394129Y38077112D01*
X40508984Y37993665D01*
X40547271Y37965848D01*
X40720189Y37888859D01*
X40720192Y37888858D01*
X40720197Y37888856D01*
X40905354Y37849500D01*
X41094645Y37849500D01*
X41094646Y37849500D01*
X41279803Y37888856D01*
X41452730Y37965849D01*
X41605871Y38077112D01*
X41732533Y38217784D01*
X41827179Y38381716D01*
X41885674Y38561744D01*
X41898601Y38684744D01*
X41908846Y38717739D01*
X41906823Y38736994D01*
X41906818Y38737071D01*
X41905459Y38749998D01*
X41905460Y38750000D01*
X41901364Y38788974D01*
X41900000Y38815000D01*
X41900000Y40935002D01*
X41901364Y40961029D01*
X41905460Y41000001D01*
X41905460Y41000002D01*
X41892378Y41124474D01*
X41901268Y41221221D01*
X41946505Y41307202D01*
X42021203Y41369326D01*
X42113988Y41398136D01*
X42140014Y41399500D01*
X53132439Y41399500D01*
X53227727Y41380546D01*
X53308509Y41326570D01*
X53876570Y40758509D01*
X53930546Y40677727D01*
X53949500Y40582439D01*
X53949500Y33850727D01*
X53940991Y33807954D01*
X53949500Y33749274D01*
X53949500Y27917560D01*
X53930546Y27822272D01*
X53876570Y27741490D01*
X52708510Y26573430D01*
X52627728Y26519454D01*
X52532440Y26500500D01*
X52199258Y26500500D01*
X52199253Y26500500D01*
X52199239Y26500499D01*
X52047566Y26485076D01*
X51853405Y26424157D01*
X51675495Y26325409D01*
X51521107Y26192870D01*
X51396549Y26031954D01*
X51306941Y25849276D01*
X51306940Y25849272D01*
X51255937Y25652287D01*
X51255936Y25652278D01*
X51245630Y25449073D01*
X51245631Y25449053D01*
X51276442Y25247935D01*
X51276443Y25247933D01*
X51276444Y25247929D01*
X51347114Y25057113D01*
X51366096Y25026659D01*
X51454748Y24884428D01*
X51594939Y24736948D01*
X51736437Y24638463D01*
X51761951Y24620705D01*
X51948942Y24540460D01*
X52148259Y24499500D01*
X53034134Y24499500D01*
X53040441Y24499420D01*
X53126360Y24497243D01*
X53126360Y24497244D01*
X53126363Y24497243D01*
X53179751Y24506813D01*
X53198462Y24509438D01*
X53252438Y24514926D01*
X53273892Y24521658D01*
X53304511Y24529174D01*
X53326653Y24533142D01*
X53377047Y24553273D01*
X53394811Y24559597D01*
X53446588Y24575841D01*
X53466251Y24586756D01*
X53494732Y24600281D01*
X53497744Y24601485D01*
X53515617Y24608623D01*
X53560908Y24638473D01*
X53577073Y24648267D01*
X53624502Y24674591D01*
X53641575Y24689249D01*
X53666734Y24708219D01*
X53685519Y24720598D01*
X53723875Y24758955D01*
X53737738Y24771804D01*
X53778895Y24807134D01*
X53792666Y24824926D01*
X53813485Y24848566D01*
X55646313Y26681394D01*
X55650750Y26685719D01*
X55713053Y26744941D01*
X55744036Y26789457D01*
X55755417Y26804551D01*
X55789698Y26846593D01*
X55800112Y26866533D01*
X55816443Y26893488D01*
X55829295Y26911951D01*
X55850686Y26961800D01*
X55858791Y26978868D01*
X55883909Y27026951D01*
X55890094Y27048570D01*
X55900666Y27078265D01*
X55909540Y27098942D01*
X55920458Y27152076D01*
X55924967Y27170441D01*
X55939886Y27222579D01*
X55939885Y27222579D01*
X55939887Y27222582D01*
X55941595Y27245018D01*
X55945975Y27276241D01*
X55950499Y27298254D01*
X55950500Y27298260D01*
X55950500Y27352492D01*
X55951219Y27371399D01*
X55953137Y27396588D01*
X55955337Y27425477D01*
X55952495Y27447795D01*
X55950500Y27479250D01*
X55950500Y41084136D01*
X55950580Y41090443D01*
X55952757Y41176360D01*
X55952756Y41176361D01*
X55952757Y41176363D01*
X55943184Y41229771D01*
X55940562Y41248463D01*
X55935074Y41302438D01*
X55928338Y41323905D01*
X55920824Y41354520D01*
X55916858Y41376652D01*
X55911984Y41388855D01*
X55896740Y41427019D01*
X55890396Y41444839D01*
X55874161Y41496581D01*
X55874159Y41496588D01*
X55863241Y41516258D01*
X55849725Y41544718D01*
X55841378Y41565617D01*
X55811526Y41610911D01*
X55801730Y41627081D01*
X55775409Y41674503D01*
X55763757Y41688075D01*
X55760752Y41691575D01*
X55741777Y41716741D01*
X55729401Y41735520D01*
X55691047Y41773874D01*
X55678188Y41787750D01*
X55642870Y41828891D01*
X55642868Y41828893D01*
X55642866Y41828895D01*
X55625077Y41842665D01*
X55601423Y41863497D01*
X54368662Y43096258D01*
X54364258Y43100776D01*
X54305058Y43163055D01*
X54260545Y43194036D01*
X54245435Y43205429D01*
X54203414Y43239693D01*
X54203409Y43239697D01*
X54203407Y43239698D01*
X54203404Y43239700D01*
X54203402Y43239701D01*
X54183460Y43250118D01*
X54156509Y43266447D01*
X54138055Y43279291D01*
X54138053Y43279292D01*
X54138049Y43279295D01*
X54137672Y43279457D01*
X54088202Y43300687D01*
X54071116Y43308801D01*
X54041714Y43324159D01*
X54023049Y43333909D01*
X54023048Y43333910D01*
X54023047Y43333910D01*
X54001421Y43340098D01*
X53971735Y43350667D01*
X53951054Y43359542D01*
X53897924Y43370461D01*
X53879555Y43374970D01*
X53827422Y43389887D01*
X53804979Y43391596D01*
X53773773Y43395973D01*
X53751741Y43400500D01*
X53697509Y43400500D01*
X53678603Y43401219D01*
X53653495Y43403131D01*
X53624525Y43405337D01*
X53624524Y43405337D01*
X53602208Y43402495D01*
X53570752Y43400500D01*
X42190014Y43400500D01*
X42094726Y43419454D01*
X42013944Y43473430D01*
X41959968Y43554212D01*
X41941014Y43649500D01*
X41942378Y43675526D01*
X41955460Y43799999D01*
X41955460Y43800000D01*
X41935674Y43988256D01*
X41934950Y43990483D01*
X41877179Y44168284D01*
X41782533Y44332216D01*
X41782531Y44332219D01*
X41782530Y44332220D01*
X41655873Y44472886D01*
X41655872Y44472887D01*
X41655871Y44472888D01*
X41546696Y44552208D01*
X41502728Y44584153D01*
X41329810Y44661142D01*
X41329796Y44661146D01*
X41144646Y44700500D01*
X40955354Y44700500D01*
X40770203Y44661146D01*
X40770189Y44661142D01*
X40597271Y44584153D01*
X40444126Y44472886D01*
X40317469Y44332220D01*
X40222822Y44168286D01*
X40164325Y43988256D01*
X40144540Y43800000D01*
X40144540Y43799999D01*
X40157622Y43675526D01*
X40148732Y43578779D01*
X40103495Y43492798D01*
X40028797Y43430674D01*
X39936012Y43401864D01*
X39909986Y43400500D01*
X35365866Y43400500D01*
X35359559Y43400580D01*
X35273640Y43402758D01*
X35273636Y43402757D01*
X35220239Y43393188D01*
X35201514Y43390562D01*
X35147566Y43385075D01*
X35147562Y43385075D01*
X35126087Y43378337D01*
X35095495Y43370829D01*
X35073353Y43366860D01*
X35073348Y43366858D01*
X35022971Y43346737D01*
X35005170Y43340400D01*
X34993442Y43336720D01*
X34953409Y43324159D01*
X34953408Y43324158D01*
X34933742Y43313243D01*
X34905282Y43299727D01*
X34884385Y43291380D01*
X34884384Y43291379D01*
X34839089Y43261528D01*
X34822916Y43251730D01*
X34775504Y43225414D01*
X34775494Y43225406D01*
X34758416Y43210746D01*
X34733267Y43191783D01*
X34714479Y43179400D01*
X34714477Y43179398D01*
X34676120Y43141043D01*
X34662252Y43128191D01*
X34621104Y43092866D01*
X34607330Y43075072D01*
X34586504Y43051426D01*
X33053739Y41518661D01*
X33049225Y41514261D01*
X32986946Y41455059D01*
X32986945Y41455058D01*
X32955961Y41410542D01*
X32944574Y41395440D01*
X32910305Y41353412D01*
X32910299Y41353403D01*
X32899879Y41333456D01*
X32883556Y41306514D01*
X32870707Y41288053D01*
X32870702Y41288044D01*
X32849315Y41238208D01*
X32841203Y41221126D01*
X32816091Y41173052D01*
X32809905Y41151430D01*
X32799336Y41121744D01*
X32790459Y41101057D01*
X32790458Y41101056D01*
X32779541Y41047933D01*
X32775033Y41029563D01*
X32760113Y40977419D01*
X32760111Y40977409D01*
X32758402Y40954972D01*
X32754028Y40923781D01*
X32749500Y40901741D01*
X32749500Y40847510D01*
X32748781Y40828603D01*
X32744663Y40774526D01*
X32744663Y40774525D01*
X32747505Y40752208D01*
X32749500Y40720752D01*
X32749500Y28067561D01*
X32730546Y27972273D01*
X32676570Y27891491D01*
X28158510Y23373430D01*
X28077728Y23319454D01*
X27982440Y23300500D01*
X14137731Y23300500D01*
X14042443Y23319454D01*
X13961661Y23373430D01*
X13957548Y23377543D01*
X13957546Y23377546D01*
X13842331Y23463796D01*
X13735123Y23503782D01*
X13707481Y23514092D01*
X13647873Y23520500D01*
X11852134Y23520500D01*
X11852130Y23520500D01*
X11852128Y23520499D01*
X11828283Y23517936D01*
X11792514Y23514091D01*
X11777363Y23510510D01*
X11776982Y23512119D01*
X11709815Y23500000D01*
X10495909Y23500000D01*
X10452674Y23503782D01*
X10445402Y23505065D01*
X10365226Y23512079D01*
X10271952Y23539266D01*
X10210859Y23584061D01*
X7923430Y25871490D01*
X7869454Y25952272D01*
X7850500Y26047560D01*
X7850500Y30701000D01*
X7869454Y30796288D01*
X7923430Y30877070D01*
X8004212Y30931046D01*
X8099500Y30950000D01*
X11500500Y30950000D01*
X11595788Y30931046D01*
X11676570Y30877070D01*
X11730546Y30796288D01*
X11749500Y30701000D01*
X11749500Y28705864D01*
X11730546Y28610576D01*
X11676570Y28529794D01*
X11595788Y28475818D01*
X11500500Y28456864D01*
X11405212Y28475818D01*
X11351280Y28506529D01*
X11302089Y28543353D01*
X11167378Y28593597D01*
X11167371Y28593599D01*
X11107832Y28600000D01*
X10460001Y28600000D01*
X10460000Y28599999D01*
X10460000Y27685502D01*
X10352315Y27734680D01*
X10245763Y27750000D01*
X10174237Y27750000D01*
X10067685Y27734680D01*
X9960000Y27685502D01*
X9960000Y28599999D01*
X9959999Y28600000D01*
X9312167Y28600000D01*
X9252628Y28593599D01*
X9252621Y28593597D01*
X9117912Y28543354D01*
X9002812Y28457190D01*
X9002810Y28457188D01*
X8916646Y28342088D01*
X8866403Y28207379D01*
X8866401Y28207372D01*
X8860000Y28147833D01*
X8860000Y27500001D01*
X8860001Y27500000D01*
X9776314Y27500000D01*
X9750507Y27459844D01*
X9710000Y27321889D01*
X9710000Y27178111D01*
X9750507Y27040156D01*
X9776314Y27000000D01*
X8860001Y27000000D01*
X8860000Y26999999D01*
X8860000Y26352168D01*
X8866401Y26292629D01*
X8866403Y26292622D01*
X8916646Y26157913D01*
X9002810Y26042813D01*
X9002812Y26042811D01*
X9117912Y25956647D01*
X9252621Y25906404D01*
X9252628Y25906402D01*
X9312167Y25900001D01*
X9312175Y25900000D01*
X9959999Y25900000D01*
X9960000Y25900001D01*
X9960000Y26814499D01*
X10067685Y26765320D01*
X10174237Y26750000D01*
X10245763Y26750000D01*
X10352315Y26765320D01*
X10460000Y26814499D01*
X10460000Y25900001D01*
X10460001Y25900000D01*
X12674452Y25900000D01*
X12696152Y25899053D01*
X12715999Y25897316D01*
X12749997Y25894341D01*
X12750000Y25894341D01*
X12750005Y25894341D01*
X12985401Y25914936D01*
X12985403Y25914937D01*
X12985408Y25914937D01*
X13213663Y25976097D01*
X13427830Y26075965D01*
X13621401Y26211505D01*
X13788495Y26378599D01*
X13924035Y26572170D01*
X14023903Y26786337D01*
X14085063Y27014592D01*
X14085064Y27014599D01*
X14105659Y27249995D01*
X14105659Y27250006D01*
X14085064Y27485402D01*
X14085063Y27485405D01*
X14085063Y27485408D01*
X14023903Y27713663D01*
X13924035Y27927829D01*
X13892915Y27972273D01*
X13795531Y28111353D01*
X13756402Y28200280D01*
X13750500Y28254173D01*
X13750500Y34500000D01*
X15344540Y34500000D01*
X15364325Y34311745D01*
X15393573Y34221730D01*
X15422821Y34131716D01*
X15483214Y34027112D01*
X15517469Y33967781D01*
X15640174Y33831504D01*
X15644129Y33827112D01*
X15715441Y33775301D01*
X15797271Y33715848D01*
X15970189Y33638859D01*
X15970192Y33638858D01*
X15970197Y33638856D01*
X16155354Y33599500D01*
X16344645Y33599500D01*
X16344646Y33599500D01*
X16529803Y33638856D01*
X16563011Y33653641D01*
X16702728Y33715848D01*
X16702728Y33715849D01*
X16702730Y33715849D01*
X16855871Y33827112D01*
X16982533Y33967784D01*
X17077179Y34131716D01*
X17135674Y34311744D01*
X17155460Y34500000D01*
X17135674Y34688256D01*
X17077179Y34868284D01*
X16982533Y35032216D01*
X16982531Y35032219D01*
X16982530Y35032220D01*
X16855873Y35172886D01*
X16855872Y35172887D01*
X16855871Y35172888D01*
X16774207Y35232220D01*
X16702728Y35284153D01*
X16529810Y35361142D01*
X16529796Y35361146D01*
X16344646Y35400500D01*
X16155354Y35400500D01*
X15970203Y35361146D01*
X15970189Y35361142D01*
X15797271Y35284153D01*
X15644126Y35172886D01*
X15517469Y35032220D01*
X15422822Y34868286D01*
X15364325Y34688256D01*
X15344540Y34500000D01*
X13750500Y34500000D01*
X13750500Y37250000D01*
X15344540Y37250000D01*
X15364325Y37061745D01*
X15393573Y36971730D01*
X15422821Y36881716D01*
X15517467Y36717784D01*
X15517469Y36717781D01*
X15625168Y36598170D01*
X15644129Y36577112D01*
X15697138Y36538599D01*
X15797271Y36465848D01*
X15970189Y36388859D01*
X15970192Y36388858D01*
X15970197Y36388856D01*
X16155354Y36349500D01*
X16344645Y36349500D01*
X16344646Y36349500D01*
X16529803Y36388856D01*
X16702730Y36465849D01*
X16855871Y36577112D01*
X16982533Y36717784D01*
X17077179Y36881716D01*
X17135674Y37061744D01*
X17155460Y37250000D01*
X17135674Y37438256D01*
X17077179Y37618284D01*
X16982533Y37782216D01*
X16982531Y37782219D01*
X16982530Y37782220D01*
X16855873Y37922886D01*
X16855872Y37922887D01*
X16855871Y37922888D01*
X16779300Y37978520D01*
X16702728Y38034153D01*
X16529810Y38111142D01*
X16529796Y38111146D01*
X16344646Y38150500D01*
X16155354Y38150500D01*
X15970203Y38111146D01*
X15970189Y38111142D01*
X15797271Y38034153D01*
X15644126Y37922886D01*
X15517469Y37782220D01*
X15422822Y37618286D01*
X15364325Y37438256D01*
X15344540Y37250000D01*
X13750500Y37250000D01*
X13750500Y39750000D01*
X15344540Y39750000D01*
X15364325Y39561745D01*
X15388826Y39486340D01*
X15422821Y39381716D01*
X15499099Y39249599D01*
X15517469Y39217781D01*
X15607057Y39118284D01*
X15644129Y39077112D01*
X15744234Y39004382D01*
X15797271Y38965848D01*
X15970189Y38888859D01*
X15970192Y38888858D01*
X15970197Y38888856D01*
X16155354Y38849500D01*
X16344645Y38849500D01*
X16344646Y38849500D01*
X16529803Y38888856D01*
X16702730Y38965849D01*
X16855871Y39077112D01*
X16982533Y39217784D01*
X17077179Y39381716D01*
X17135674Y39561744D01*
X17155460Y39750000D01*
X17135674Y39938256D01*
X17077179Y40118284D01*
X16982533Y40282216D01*
X16982531Y40282219D01*
X16982530Y40282220D01*
X16855873Y40422886D01*
X16855872Y40422887D01*
X16855871Y40422888D01*
X16779300Y40478520D01*
X16702728Y40534153D01*
X16529810Y40611142D01*
X16529796Y40611146D01*
X16344646Y40650500D01*
X16155354Y40650500D01*
X15970203Y40611146D01*
X15970189Y40611142D01*
X15797271Y40534153D01*
X15644126Y40422886D01*
X15517469Y40282220D01*
X15423902Y40120157D01*
X15422821Y40118284D01*
X15410449Y40080208D01*
X15364325Y39938256D01*
X15344540Y39750000D01*
X13750500Y39750000D01*
X13750500Y42250000D01*
X15344540Y42250000D01*
X15364325Y42061745D01*
X15382659Y42005320D01*
X15422821Y41881716D01*
X15517467Y41717784D01*
X15517469Y41717781D01*
X15644126Y41577115D01*
X15644129Y41577112D01*
X15754960Y41496589D01*
X15797271Y41465848D01*
X15970189Y41388859D01*
X15970192Y41388858D01*
X15970197Y41388856D01*
X16155354Y41349500D01*
X16344645Y41349500D01*
X16344646Y41349500D01*
X16529803Y41388856D01*
X16609355Y41424275D01*
X16702728Y41465848D01*
X16702728Y41465849D01*
X16702730Y41465849D01*
X16855871Y41577112D01*
X16982533Y41717784D01*
X17077179Y41881716D01*
X17135674Y42061744D01*
X17155460Y42250000D01*
X17135674Y42438256D01*
X17077179Y42618284D01*
X16982533Y42782216D01*
X16982531Y42782219D01*
X16982530Y42782220D01*
X16855873Y42922886D01*
X16855872Y42922887D01*
X16855871Y42922888D01*
X16763499Y42990000D01*
X16702728Y43034153D01*
X16529810Y43111142D01*
X16529796Y43111146D01*
X16344646Y43150500D01*
X16155354Y43150500D01*
X15970203Y43111146D01*
X15970189Y43111142D01*
X15797271Y43034153D01*
X15644126Y42922886D01*
X15517469Y42782220D01*
X15422822Y42618286D01*
X15364325Y42438256D01*
X15344540Y42250000D01*
X13750500Y42250000D01*
X13750500Y46034176D01*
X13750580Y46040483D01*
X13752756Y46126360D01*
X13751797Y46138950D01*
X13752462Y46139001D01*
X13750500Y46161087D01*
X13750500Y46500000D01*
X40094540Y46500000D01*
X40114325Y46311745D01*
X40143573Y46221730D01*
X40172821Y46131716D01*
X40267467Y45967784D01*
X40267469Y45967781D01*
X40381446Y45841198D01*
X40394129Y45827112D01*
X40486344Y45760114D01*
X40547271Y45715848D01*
X40720189Y45638859D01*
X40720192Y45638858D01*
X40720197Y45638856D01*
X40905354Y45599500D01*
X41094645Y45599500D01*
X41094646Y45599500D01*
X41279803Y45638856D01*
X41452730Y45715849D01*
X41605871Y45827112D01*
X41732533Y45967784D01*
X41827179Y46131716D01*
X41885674Y46311744D01*
X41905460Y46500000D01*
X41885674Y46688256D01*
X41827179Y46868284D01*
X41732533Y47032216D01*
X41732531Y47032219D01*
X41732530Y47032220D01*
X41605873Y47172886D01*
X41605872Y47172887D01*
X41605871Y47172888D01*
X41529300Y47228520D01*
X41452728Y47284153D01*
X41279810Y47361142D01*
X41279796Y47361146D01*
X41094646Y47400500D01*
X40905354Y47400500D01*
X40720203Y47361146D01*
X40720189Y47361142D01*
X40547271Y47284153D01*
X40394126Y47172886D01*
X40267469Y47032220D01*
X40172822Y46868286D01*
X40114325Y46688256D01*
X40094540Y46500000D01*
X13750500Y46500000D01*
X13750500Y46834136D01*
X13750580Y46840443D01*
X13752757Y46926360D01*
X13751798Y46938951D01*
X13752463Y46939002D01*
X13750500Y46961092D01*
X13750500Y47468343D01*
X13750820Y47480956D01*
X13754369Y47550937D01*
X13753371Y47557453D01*
X13750500Y47595156D01*
X13750500Y48802494D01*
X13751219Y48821402D01*
X13755337Y48875476D01*
X13752495Y48897795D01*
X13750500Y48929249D01*
X13750500Y49000000D01*
X40089540Y49000000D01*
X40109325Y48811745D01*
X40129550Y48749500D01*
X40167821Y48631716D01*
X40247800Y48493188D01*
X40262469Y48467781D01*
X40331264Y48391377D01*
X40389129Y48327112D01*
X40494244Y48250742D01*
X40542271Y48215848D01*
X40715189Y48138859D01*
X40715192Y48138858D01*
X40715197Y48138856D01*
X40900354Y48099500D01*
X41089645Y48099500D01*
X41089646Y48099500D01*
X41274803Y48138856D01*
X41328115Y48162592D01*
X41447728Y48215848D01*
X41447728Y48215849D01*
X41447730Y48215849D01*
X41600871Y48327112D01*
X41727533Y48467784D01*
X41822179Y48631716D01*
X41880674Y48811744D01*
X41900460Y49000000D01*
X41880674Y49188256D01*
X41822179Y49368284D01*
X41727533Y49532216D01*
X41727531Y49532219D01*
X41727530Y49532220D01*
X41600873Y49672886D01*
X41600872Y49672887D01*
X41600871Y49672888D01*
X41522852Y49729572D01*
X41447728Y49784153D01*
X41274810Y49861142D01*
X41274796Y49861146D01*
X41089646Y49900500D01*
X40900354Y49900500D01*
X40715203Y49861146D01*
X40715189Y49861142D01*
X40542271Y49784153D01*
X40389126Y49672886D01*
X40262469Y49532220D01*
X40262467Y49532216D01*
X40167821Y49368284D01*
X40152651Y49321597D01*
X40109325Y49188256D01*
X40089540Y49000000D01*
X13750500Y49000000D01*
X13750500Y49115828D01*
X13769454Y49211116D01*
X13795527Y49258642D01*
X13924035Y49442170D01*
X14023903Y49656337D01*
X14085063Y49884592D01*
X14092078Y49964777D01*
X14119264Y50058046D01*
X14164057Y50119138D01*
X14471491Y50426570D01*
X14552273Y50480546D01*
X14647560Y50499500D01*
X43082439Y50499500D01*
X43177727Y50480546D01*
X43258509Y50426570D01*
X43526570Y50158509D01*
X43580546Y50077727D01*
X43599500Y49982439D01*
X43599500Y48315866D01*
X43599420Y48309559D01*
X43597242Y48223641D01*
X43597243Y48223637D01*
X43606812Y48170240D01*
X43609438Y48151515D01*
X43614925Y48097566D01*
X43621662Y48076092D01*
X43629173Y48045490D01*
X43633141Y48023350D01*
X43633143Y48023344D01*
X43653257Y47972989D01*
X43659602Y47955168D01*
X43675840Y47903413D01*
X43675845Y47903403D01*
X43686757Y47883743D01*
X43700276Y47855277D01*
X43708619Y47834391D01*
X43708626Y47834377D01*
X43738466Y47789101D01*
X43748266Y47772925D01*
X43763226Y47745973D01*
X43774591Y47725498D01*
X43789242Y47708432D01*
X43808221Y47683260D01*
X43820596Y47664483D01*
X43858951Y47626127D01*
X43871810Y47612252D01*
X43907135Y47571104D01*
X43907136Y47571103D01*
X43924917Y47557339D01*
X43948572Y47536507D01*
X45431337Y46053743D01*
X45435702Y46049266D01*
X45494941Y45986947D01*
X45494943Y45986945D01*
X45539455Y45955964D01*
X45554561Y45944575D01*
X45596593Y45910302D01*
X45616533Y45899886D01*
X45643483Y45883559D01*
X45661951Y45870705D01*
X45693460Y45857184D01*
X45711793Y45849316D01*
X45728881Y45841201D01*
X45776951Y45816091D01*
X45798580Y45809903D01*
X45828258Y45799337D01*
X45848942Y45790460D01*
X45902085Y45779539D01*
X45920439Y45775034D01*
X45972582Y45760113D01*
X45995013Y45758406D01*
X46026219Y45754030D01*
X46048259Y45749500D01*
X46102491Y45749500D01*
X46121396Y45748782D01*
X46175476Y45744663D01*
X46196180Y45747300D01*
X46197792Y45747505D01*
X46229248Y45749500D01*
X55382439Y45749500D01*
X55477727Y45730546D01*
X55558509Y45676570D01*
X57576570Y43658509D01*
X57630546Y43577727D01*
X57649500Y43482439D01*
X57649500Y33365866D01*
X57649420Y33359559D01*
X57647242Y33273641D01*
X57647243Y33273637D01*
X57656812Y33220240D01*
X57659438Y33201515D01*
X57664925Y33147566D01*
X57671662Y33126092D01*
X57679173Y33095490D01*
X57683141Y33073350D01*
X57683143Y33073344D01*
X57703257Y33022989D01*
X57709602Y33005168D01*
X57725840Y32953413D01*
X57725845Y32953403D01*
X57736757Y32933743D01*
X57750276Y32905277D01*
X57758619Y32884391D01*
X57758626Y32884377D01*
X57788466Y32839101D01*
X57798266Y32822925D01*
X57824591Y32775498D01*
X57839242Y32758432D01*
X57858221Y32733260D01*
X57870596Y32714483D01*
X57908951Y32676127D01*
X57921810Y32662252D01*
X57957134Y32621105D01*
X57974915Y32607341D01*
X57998569Y32586510D01*
X60031355Y30553724D01*
X60035720Y30549247D01*
X60094941Y30486947D01*
X60126387Y30465060D01*
X60139458Y30455962D01*
X60154548Y30444585D01*
X60196592Y30410303D01*
X60216528Y30399890D01*
X60243484Y30383559D01*
X60261951Y30370705D01*
X60311805Y30349311D01*
X60328880Y30341202D01*
X60376951Y30316091D01*
X60398577Y30309904D01*
X60428264Y30299334D01*
X60448942Y30290460D01*
X60502092Y30279539D01*
X60520446Y30275033D01*
X60572582Y30260114D01*
X60595009Y30258407D01*
X60626221Y30254029D01*
X60648259Y30249500D01*
X60702493Y30249500D01*
X60721400Y30248782D01*
X60775476Y30244663D01*
X60795992Y30247276D01*
X60797792Y30247505D01*
X60829248Y30249500D01*
X78232439Y30249500D01*
X78327727Y30230546D01*
X78408509Y30176570D01*
X79720598Y28864481D01*
X80856184Y27728895D01*
X81926570Y26658510D01*
X81980546Y26577728D01*
X81999500Y26482440D01*
X81999500Y25199266D01*
X81999501Y25199240D01*
X82014925Y25047567D01*
X82014924Y25047567D01*
X82045868Y24948942D01*
X82067581Y24879737D01*
X82075843Y24853406D01*
X82174591Y24675496D01*
X82307130Y24521108D01*
X82307134Y24521105D01*
X82468042Y24396552D01*
X82468045Y24396551D01*
X82468046Y24396550D01*
X82650724Y24306942D01*
X82650725Y24306942D01*
X82650729Y24306940D01*
X82847715Y24255937D01*
X82936624Y24251429D01*
X83050927Y24245631D01*
X83050930Y24245632D01*
X83050936Y24245631D01*
X83055636Y24246352D01*
X83060716Y24247129D01*
X83098420Y24250000D01*
X83751000Y24250000D01*
X83846288Y24231046D01*
X83927070Y24177070D01*
X83981046Y24096288D01*
X84000000Y24001000D01*
X84000000Y7449000D01*
X83981046Y7353712D01*
X83927070Y7272930D01*
X83846288Y7218954D01*
X83751000Y7200000D01*
X81612957Y7200000D01*
X81599926Y7200341D01*
X81500000Y7205578D01*
X81112662Y7185278D01*
X81112656Y7185278D01*
X81112654Y7185277D01*
X80729571Y7124603D01*
X80729567Y7124603D01*
X80729567Y7124602D01*
X80675650Y7110155D01*
X80354913Y7024214D01*
X79992804Y6885214D01*
X79647215Y6709128D01*
X79647210Y6709125D01*
X79321914Y6497876D01*
X79020490Y6253787D01*
X78746213Y5979510D01*
X78502124Y5678086D01*
X78290875Y5352790D01*
X78290872Y5352785D01*
X78114786Y5007196D01*
X77980601Y4657630D01*
X77975786Y4645087D01*
X77876548Y4274723D01*
X77875397Y4270429D01*
X77814723Y3887346D01*
X77814722Y3887338D01*
X77798736Y3582313D01*
X77794422Y3500000D01*
X77799659Y3400074D01*
X77800000Y3387043D01*
X77800000Y1249000D01*
X77781046Y1153712D01*
X77727070Y1072930D01*
X77646288Y1018954D01*
X77551000Y1000000D01*
X32849000Y1000000D01*
X32753712Y1018954D01*
X32672930Y1072930D01*
X32618954Y1153712D01*
X32600000Y1249000D01*
X32600000Y2193690D01*
X32607621Y2254821D01*
X32611132Y2268688D01*
X32611134Y2268695D01*
X32617675Y2347645D01*
X32618834Y2358638D01*
X32629298Y2440346D01*
X32628624Y2456209D01*
X32629251Y2487346D01*
X32630300Y2500000D01*
X32623455Y2582599D01*
X32622831Y2592574D01*
X32620760Y2641328D01*
X32619180Y2678532D01*
X32616616Y2690429D01*
X32611878Y2722320D01*
X32611134Y2731305D01*
X32589868Y2815277D01*
X32587862Y2823842D01*
X32568954Y2911581D01*
X32565799Y2919433D01*
X32555459Y2951159D01*
X32554158Y2956295D01*
X32554157Y2956300D01*
X32524427Y3024078D01*
X32517903Y3038952D01*
X32514887Y3046131D01*
X32480065Y3132787D01*
X32480064Y3132790D01*
X32477565Y3136848D01*
X32461570Y3167376D01*
X32460924Y3168849D01*
X32409550Y3247484D01*
X32405976Y3253119D01*
X32355073Y3335790D01*
X32355072Y3335792D01*
X32354369Y3336590D01*
X32340331Y3355049D01*
X32340304Y3355027D01*
X32333982Y3363150D01*
X32311987Y3387043D01*
X32267830Y3435010D01*
X32264149Y3439101D01*
X32212082Y3498261D01*
X32163356Y3582313D01*
X32150000Y3662768D01*
X32150000Y5237418D01*
X32158485Y5301866D01*
X32161207Y5312023D01*
X32161768Y5318437D01*
X32167064Y5352143D01*
X32167748Y5355144D01*
X32169191Y5361463D01*
X32172813Y5442132D01*
X32173510Y5452660D01*
X32180277Y5530000D01*
X32179388Y5540153D01*
X32178692Y5573020D01*
X32179290Y5586330D01*
X32168950Y5662654D01*
X32167647Y5674354D01*
X32161207Y5747977D01*
X32157599Y5761439D01*
X32151366Y5792470D01*
X32149075Y5809387D01*
X32126429Y5879080D01*
X32122733Y5891560D01*
X32122156Y5893712D01*
X32104575Y5959330D01*
X32097090Y5975381D01*
X32085953Y6003654D01*
X32079517Y6023464D01*
X32046566Y6084697D01*
X32040170Y6097447D01*
X32012103Y6157636D01*
X32012099Y6157642D01*
X31999802Y6175204D01*
X31984498Y6200038D01*
X31972855Y6221675D01*
X31972852Y6221681D01*
X31931837Y6273112D01*
X31922544Y6285540D01*
X31916155Y6294664D01*
X31905338Y6310113D01*
X31886597Y6336879D01*
X31868768Y6354708D01*
X31850164Y6375526D01*
X31832508Y6397666D01*
X31806139Y6420704D01*
X31785786Y6438486D01*
X31773558Y6449918D01*
X31731876Y6491599D01*
X31731877Y6491599D01*
X31708162Y6508203D01*
X31687154Y6524658D01*
X31662996Y6545765D01*
X31662994Y6545767D01*
X31612952Y6575665D01*
X31597850Y6585445D01*
X31552639Y6617102D01*
X31552637Y6617103D01*
X31552635Y6617105D01*
X31522997Y6630925D01*
X31500523Y6642838D01*
X31469763Y6661216D01*
X31418690Y6680384D01*
X31400953Y6687835D01*
X31354332Y6709575D01*
X31319110Y6719013D01*
X31296073Y6726403D01*
X31259028Y6740306D01*
X31259019Y6740308D01*
X31209020Y6749383D01*
X31189054Y6753862D01*
X31142977Y6766207D01*
X31142976Y6766208D01*
X31142969Y6766209D01*
X31102928Y6769712D01*
X31080179Y6772764D01*
X31072984Y6774070D01*
X31037547Y6780500D01*
X31037544Y6780500D01*
X30990479Y6780500D01*
X30968780Y6781447D01*
X30941937Y6783796D01*
X30925000Y6785277D01*
X30924999Y6785277D01*
X30877284Y6781103D01*
X30870692Y6780667D01*
X30814936Y6775650D01*
X30814326Y6775596D01*
X30703864Y6765931D01*
X30700815Y6765378D01*
X30690544Y6762544D01*
X30677603Y6758972D01*
X30611365Y6750000D01*
X26386244Y6750000D01*
X26321801Y6758484D01*
X26296071Y6765378D01*
X26292977Y6766207D01*
X26292976Y6766208D01*
X26292973Y6766208D01*
X26252928Y6769712D01*
X26230179Y6772764D01*
X26222984Y6774070D01*
X26187547Y6780500D01*
X26187544Y6780500D01*
X26140479Y6780500D01*
X26118780Y6781447D01*
X26091937Y6783796D01*
X26075000Y6785277D01*
X26074999Y6785277D01*
X26027284Y6781103D01*
X26020692Y6780667D01*
X25964936Y6775650D01*
X25964326Y6775596D01*
X25853864Y6765931D01*
X25850815Y6765378D01*
X25747774Y6736941D01*
X25745980Y6736454D01*
X25645622Y6709564D01*
X25639250Y6707528D01*
X25633832Y6705495D01*
X25540888Y6660737D01*
X25538093Y6659413D01*
X25447355Y6617100D01*
X25440704Y6613260D01*
X25435593Y6610559D01*
X25431032Y6607833D01*
X25350606Y6549401D01*
X25347072Y6546880D01*
X25268123Y6491600D01*
X25259803Y6484617D01*
X25259432Y6485059D01*
X25257145Y6483105D01*
X25257343Y6482879D01*
X25248920Y6475520D01*
X25182782Y6406347D01*
X25178881Y6402358D01*
X25113402Y6336878D01*
X25106416Y6328552D01*
X25106229Y6328709D01*
X25099189Y6320126D01*
X25093369Y6312828D01*
X25072060Y6280546D01*
X25042707Y6236080D01*
X25038888Y6230463D01*
X24987900Y6157644D01*
X24985052Y6152710D01*
X24970504Y6126694D01*
X24969364Y6124968D01*
X24934687Y6043839D01*
X24931398Y6036477D01*
X24895423Y5959328D01*
X24895423Y5959326D01*
X24894725Y5956721D01*
X24883189Y5923354D01*
X24880897Y5917992D01*
X24862094Y5835615D01*
X24859855Y5826587D01*
X24838794Y5747981D01*
X24838791Y5747968D01*
X24838230Y5741550D01*
X24832940Y5707874D01*
X24830809Y5698536D01*
X24830807Y5698525D01*
X24827186Y5617885D01*
X24826490Y5607359D01*
X24819723Y5530000D01*
X24819723Y5529997D01*
X24820611Y5519838D01*
X24821307Y5487001D01*
X24820709Y5473681D01*
X24820710Y5473670D01*
X24831048Y5397344D01*
X24832353Y5385626D01*
X24838791Y5312030D01*
X24838793Y5312023D01*
X24841517Y5301855D01*
X24850000Y5237417D01*
X24850000Y3660169D01*
X24831046Y3564881D01*
X24784179Y3491508D01*
X24779567Y3486499D01*
X24768683Y3475395D01*
X24719883Y3428623D01*
X24701643Y3403962D01*
X24684653Y3383394D01*
X24666021Y3363154D01*
X24666017Y3363149D01*
X24628770Y3306138D01*
X24620515Y3294271D01*
X24578125Y3236954D01*
X24578115Y3236938D01*
X24565974Y3212859D01*
X24552102Y3188789D01*
X24539076Y3168850D01*
X24539075Y3168848D01*
X24510226Y3103082D01*
X24504541Y3091012D01*
X24470793Y3024078D01*
X24463976Y3001817D01*
X24453924Y2974724D01*
X24445843Y2956301D01*
X24427302Y2883091D01*
X24424010Y2871315D01*
X24400983Y2796123D01*
X24400983Y2796122D01*
X24398497Y2776710D01*
X24392898Y2747231D01*
X24388865Y2731307D01*
X24388865Y2731304D01*
X24382326Y2652391D01*
X24381160Y2641328D01*
X24370702Y2559662D01*
X24370702Y2559658D01*
X24371375Y2543781D01*
X24370750Y2512681D01*
X24369700Y2500001D01*
X24376541Y2417428D01*
X24377167Y2407440D01*
X24380819Y2321470D01*
X24383385Y2309565D01*
X24388120Y2277690D01*
X24388865Y2268695D01*
X24392380Y2254818D01*
X24400000Y2193689D01*
X24400000Y1249000D01*
X24381046Y1153712D01*
X24327070Y1072930D01*
X24246288Y1018954D01*
X24151000Y1000000D01*
X7449000Y1000000D01*
X7353712Y1018954D01*
X7272930Y1072930D01*
X7218954Y1153712D01*
X7200000Y1249000D01*
X7200000Y3387043D01*
X7200341Y3400074D01*
X7201837Y3428623D01*
X7205578Y3500000D01*
X7185278Y3887338D01*
X7124602Y4270433D01*
X7024214Y4645087D01*
X6885214Y5007194D01*
X6709125Y5352789D01*
X6557458Y5586336D01*
X6497875Y5678086D01*
X6253786Y5979510D01*
X6253785Y5979511D01*
X6253781Y5979516D01*
X5979516Y6253781D01*
X5955648Y6273109D01*
X5678085Y6497876D01*
X5352789Y6709125D01*
X5352784Y6709128D01*
X5007195Y6885214D01*
X4794799Y6966745D01*
X4645087Y7024214D01*
X4270433Y7124602D01*
X4270429Y7124603D01*
X4270428Y7124603D01*
X3887344Y7185277D01*
X3887345Y7185277D01*
X3887343Y7185278D01*
X3887338Y7185278D01*
X3500000Y7205578D01*
X3499999Y7205578D01*
X3400074Y7200341D01*
X3387043Y7200000D01*
X1249000Y7200000D01*
X1153712Y7218954D01*
X1072930Y7272930D01*
X1018954Y7353712D01*
X1000000Y7449000D01*
X1000000Y46551000D01*
X1018954Y46646288D01*
X1072930Y46727070D01*
X1153712Y46781046D01*
X1249000Y46800000D01*
X3387043Y46800000D01*
X3400074Y46799659D01*
X3500000Y46794422D01*
X3887338Y46814722D01*
X4270433Y46875398D01*
X4645087Y46975786D01*
X5007194Y47114786D01*
X5352789Y47290875D01*
X5678084Y47502124D01*
X5979516Y47746219D01*
X6253781Y48020484D01*
X6497876Y48321916D01*
X6709125Y48647211D01*
X6885214Y48992806D01*
X7024214Y49354913D01*
X7124602Y49729567D01*
X7185278Y50112662D01*
X7205578Y50500000D01*
X7200341Y50599928D01*
X7200000Y50612959D01*
X7200000Y52751000D01*
X7218954Y52846288D01*
X7272930Y52927070D01*
X7353712Y52981046D01*
X7449000Y53000000D01*
X10201000Y53000000D01*
X10296288Y52981046D01*
G37*
%TD.AperFunction*%
%TA.AperFunction,Conductor*%
G36*
X12290507Y19839844D02*
G01*
X12250000Y19701889D01*
X12250000Y19558111D01*
X12290507Y19420156D01*
X12316314Y19380000D01*
X10643686Y19380000D01*
X10669493Y19420156D01*
X10710000Y19558111D01*
X10710000Y19701889D01*
X10669493Y19839844D01*
X10643686Y19880000D01*
X12316314Y19880000D01*
X12290507Y19839844D01*
G37*
%TD.AperFunction*%
%TA.AperFunction,Conductor*%
G36*
X77646288Y52981046D02*
G01*
X77727070Y52927070D01*
X77781046Y52846288D01*
X77800000Y52751000D01*
X77800000Y50612959D01*
X77799659Y50599928D01*
X77794422Y50500000D01*
X77814722Y50112662D01*
X77814722Y50112657D01*
X77814723Y50112655D01*
X77854558Y49861142D01*
X77875398Y49729567D01*
X77975786Y49354913D01*
X78016596Y49248599D01*
X78114786Y48992805D01*
X78290872Y48647216D01*
X78290875Y48647211D01*
X78502124Y48321915D01*
X78743903Y48023344D01*
X78746219Y48020484D01*
X79020484Y47746219D01*
X79020489Y47746215D01*
X79020490Y47746214D01*
X79321914Y47502125D01*
X79321916Y47502124D01*
X79647211Y47290875D01*
X79992806Y47114786D01*
X80354913Y46975786D01*
X80729567Y46875398D01*
X81112662Y46814722D01*
X81500000Y46794422D01*
X81599926Y46799659D01*
X81612957Y46800000D01*
X83751000Y46800000D01*
X83846288Y46781046D01*
X83927070Y46727070D01*
X83981046Y46646288D01*
X84000000Y46551000D01*
X84000000Y28299000D01*
X83981046Y28203712D01*
X83927070Y28122930D01*
X83846288Y28068954D01*
X83751000Y28050000D01*
X83468061Y28050000D01*
X83372773Y28068954D01*
X83291991Y28122930D01*
X81171580Y30243340D01*
X79468662Y31946258D01*
X79464258Y31950776D01*
X79405058Y32013055D01*
X79360545Y32044036D01*
X79345435Y32055429D01*
X79303414Y32089693D01*
X79303409Y32089697D01*
X79303407Y32089698D01*
X79303404Y32089700D01*
X79303402Y32089701D01*
X79283460Y32100118D01*
X79256509Y32116447D01*
X79238055Y32129291D01*
X79238053Y32129292D01*
X79238049Y32129295D01*
X79237672Y32129457D01*
X79188202Y32150687D01*
X79171116Y32158801D01*
X79123047Y32183910D01*
X79101421Y32190098D01*
X79071735Y32200667D01*
X79051054Y32209542D01*
X78997924Y32220461D01*
X78979555Y32224970D01*
X78927422Y32239887D01*
X78904979Y32241596D01*
X78873773Y32245973D01*
X78851741Y32250500D01*
X78797509Y32250500D01*
X78778603Y32251219D01*
X78753495Y32253131D01*
X78724525Y32255337D01*
X78724524Y32255337D01*
X78702208Y32252495D01*
X78670752Y32250500D01*
X61267561Y32250500D01*
X61172273Y32269454D01*
X61091491Y32323430D01*
X59723430Y33691491D01*
X59669454Y33772273D01*
X59650500Y33867561D01*
X59650500Y43984176D01*
X59650580Y43990483D01*
X59652756Y44076361D01*
X59652755Y44076362D01*
X59652756Y44076363D01*
X59643186Y44129754D01*
X59640563Y44148459D01*
X59635074Y44202438D01*
X59628336Y44223912D01*
X59620825Y44254517D01*
X59616858Y44276653D01*
X59596735Y44327029D01*
X59590398Y44344828D01*
X59574159Y44396588D01*
X59563245Y44416251D01*
X59549719Y44444733D01*
X59541378Y44465615D01*
X59541376Y44465620D01*
X59511535Y44510897D01*
X59501729Y44527083D01*
X59475412Y44574498D01*
X59475409Y44574502D01*
X59460757Y44591569D01*
X59441777Y44616741D01*
X59429402Y44635519D01*
X59417411Y44647510D01*
X59391041Y44673881D01*
X59378182Y44687757D01*
X59342870Y44728891D01*
X59342860Y44728900D01*
X59325081Y44742662D01*
X59301427Y44763494D01*
X56618662Y47446258D01*
X56614258Y47450776D01*
X56555058Y47513055D01*
X56510545Y47544036D01*
X56495435Y47555429D01*
X56453414Y47589693D01*
X56453409Y47589697D01*
X56453407Y47589698D01*
X56453404Y47589700D01*
X56453402Y47589701D01*
X56433460Y47600118D01*
X56406509Y47616447D01*
X56388055Y47629291D01*
X56388053Y47629292D01*
X56388049Y47629295D01*
X56387672Y47629457D01*
X56338202Y47650687D01*
X56321116Y47658801D01*
X56273047Y47683910D01*
X56251421Y47690098D01*
X56221735Y47700667D01*
X56201054Y47709542D01*
X56147924Y47720461D01*
X56129555Y47724970D01*
X56077422Y47739887D01*
X56054979Y47741596D01*
X56023773Y47745973D01*
X56001741Y47750500D01*
X55947509Y47750500D01*
X55928603Y47751219D01*
X55903495Y47753131D01*
X55874525Y47755337D01*
X55874524Y47755337D01*
X55852208Y47752495D01*
X55820752Y47750500D01*
X54299000Y47750500D01*
X54203712Y47769454D01*
X54122930Y47823430D01*
X54068954Y47904212D01*
X54050000Y47999500D01*
X54050000Y50031226D01*
X54068954Y50126514D01*
X54070000Y50128080D01*
X54070000Y51064499D01*
X54177685Y51015320D01*
X54284237Y51000000D01*
X54355763Y51000000D01*
X54462315Y51015320D01*
X54570000Y51064499D01*
X54570000Y50169365D01*
X54783488Y50226569D01*
X54997576Y50326400D01*
X55191076Y50461890D01*
X55358110Y50628924D01*
X55493600Y50822424D01*
X55593433Y51036515D01*
X55593433Y51036517D01*
X55650636Y51249999D01*
X55650636Y51250000D01*
X54753686Y51250000D01*
X54779493Y51290156D01*
X54820000Y51428111D01*
X54820000Y51571889D01*
X54779493Y51709844D01*
X54753686Y51750000D01*
X55650636Y51750000D01*
X55650635Y51750001D01*
X55608484Y51907314D01*
X55600000Y51971760D01*
X55600000Y52751000D01*
X55618954Y52846288D01*
X55672930Y52927070D01*
X55753712Y52981046D01*
X55849000Y53000000D01*
X77551000Y53000000D01*
X77646288Y52981046D01*
G37*
%TD.AperFunction*%
%TD*%
M02*
