M48
; DRILL file {KiCad 7.0.10} date Mon Feb 19 15:37:40 2024
; FORMAT={-:-/ absolute / metric / decimal}
; #@! TF.CreationDate,2024-02-19T15:37:40+07:00
; #@! TF.GenerationSoftware,Kicad,Pcbnew,7.0.10
; #@! TF.FileFunction,Plated,1,2,PTH
FMAT,2
METRIC
; #@! TA.AperFunction,Plated,PTH,ViaDrill
T1C0.500
; #@! TA.AperFunction,Plated,PTH,ComponentDrill
T2C1.000
; #@! TA.AperFunction,Plated,PTH,ComponentDrill
T3C3.200
%
G90
G05
T1
X15.0Y1.25
X17.75Y5.75
X18.0Y1.25
X19.75Y5.75
X20.75Y1.25
X21.75Y5.75
X23.25Y1.25
X23.75Y5.75
X25.75Y5.75
X26.25Y1.25
X29.0Y1.25
X31.75Y1.25
X34.75Y1.25
X37.5Y1.25
X40.25Y1.25
X43.25Y1.25
X46.0Y5.75
X46.0Y3.5
X46.0Y1.25
T2
X4.0Y14.54
X4.0Y12.0
X4.0Y9.46
X4.0Y6.92
X4.0Y4.38
X4.0Y1.84
X6.54Y14.54
X6.54Y12.0
X6.54Y9.46
X6.54Y6.92
X6.54Y4.38
X6.54Y1.84
X25.855Y10.77
X27.0Y12.75
X27.0Y8.79
X28.145Y10.77
X29.29Y12.75
X29.29Y8.79
X30.435Y10.77
X31.58Y12.75
X31.58Y8.79
X32.725Y10.77
X33.87Y12.75
X33.87Y8.79
X35.015Y10.77
X36.16Y12.75
X36.16Y8.79
T3
X18.815Y10.84
X43.815Y10.84
M30
