%TF.GenerationSoftware,KiCad,Pcbnew,7.0.10*%
%TF.CreationDate,2024-02-19T15:37:38+07:00*%
%TF.ProjectId,PMOD2VGA,504d4f44-3256-4474-912e-6b696361645f,rev?*%
%TF.SameCoordinates,PX8c6db50PY50d2eb0*%
%TF.FileFunction,Legend,Bot*%
%TF.FilePolarity,Positive*%
%FSLAX46Y46*%
G04 Gerber Fmt 4.6, Leading zero omitted, Abs format (unit mm)*
G04 Created by KiCad (PCBNEW 7.0.10) date 2024-02-19 15:37:38*
%MOMM*%
%LPD*%
G01*
G04 APERTURE LIST*
%ADD10C,0.150000*%
G04 APERTURE END LIST*
D10*
G36*
X9928696Y11412324D02*
G01*
X7922693Y11412324D01*
X7922693Y11643205D01*
X8065550Y11643205D01*
X8074459Y11592681D01*
X8113759Y11559704D01*
X8139411Y11555181D01*
X8710839Y11555181D01*
X8759048Y11572728D01*
X8784700Y11617157D01*
X8775791Y11667681D01*
X8736491Y11700658D01*
X8710839Y11705181D01*
X8500125Y11705181D01*
X8500125Y11725420D01*
X9016792Y11725420D01*
X9022391Y11710037D01*
X9023818Y11693725D01*
X9033210Y11680311D01*
X9034339Y11677211D01*
X9036088Y11676202D01*
X9038758Y11672388D01*
X9086377Y11624768D01*
X9090441Y11622873D01*
X9092789Y11619052D01*
X9115694Y11606649D01*
X9258550Y11559030D01*
X9260185Y11559075D01*
X9282268Y11555181D01*
X9377506Y11555181D01*
X9379044Y11555742D01*
X9401223Y11559030D01*
X9544080Y11606649D01*
X9547592Y11609437D01*
X9552059Y11609827D01*
X9573396Y11624767D01*
X9668635Y11720007D01*
X9669326Y11721490D01*
X9682683Y11739498D01*
X9730302Y11834736D01*
X9730708Y11838265D01*
X9735981Y11850087D01*
X9783600Y12040563D01*
X9783239Y12044012D01*
X9785839Y12058753D01*
X9785839Y12201610D01*
X9784653Y12204868D01*
X9783600Y12219800D01*
X9735981Y12410276D01*
X9733992Y12413221D01*
X9730302Y12425627D01*
X9682683Y12520865D01*
X9681496Y12521989D01*
X9668634Y12540357D01*
X9573396Y12635595D01*
X9569332Y12637490D01*
X9566985Y12641311D01*
X9544080Y12653713D01*
X9401223Y12701332D01*
X9399588Y12701288D01*
X9377506Y12705181D01*
X9234649Y12705181D01*
X9230435Y12703648D01*
X9226074Y12704689D01*
X9201108Y12697263D01*
X9105870Y12649644D01*
X9070598Y12612390D01*
X9067523Y12561179D01*
X9098087Y12519974D01*
X9147985Y12508054D01*
X9172952Y12515480D01*
X9252354Y12555181D01*
X9365336Y12555181D01*
X9479849Y12517010D01*
X9553962Y12442897D01*
X9592455Y12365910D01*
X9635839Y12192376D01*
X9635839Y12067987D01*
X9592455Y11894453D01*
X9553961Y11817466D01*
X9479849Y11743353D01*
X9365336Y11705181D01*
X9294438Y11705181D01*
X9179925Y11743352D01*
X9166792Y11756486D01*
X9166792Y11983753D01*
X9282268Y11983753D01*
X9330477Y12001300D01*
X9356129Y12045729D01*
X9347220Y12096253D01*
X9307920Y12129230D01*
X9282268Y12133753D01*
X9091792Y12133753D01*
X9073483Y12127090D01*
X9054292Y12123705D01*
X9049941Y12118521D01*
X9043583Y12116206D01*
X9033840Y12099333D01*
X9021315Y12084405D01*
X9019597Y12074663D01*
X9017931Y12071777D01*
X9018509Y12068495D01*
X9016792Y12058753D01*
X9016792Y11725420D01*
X8500125Y11725420D01*
X8500125Y12401496D01*
X8562568Y12339053D01*
X8564049Y12338363D01*
X8582060Y12325004D01*
X8677298Y12277385D01*
X8728264Y12271520D01*
X8771077Y12299786D01*
X8785704Y12348961D01*
X8765301Y12396032D01*
X8744380Y12411549D01*
X8660028Y12453725D01*
X8578647Y12535106D01*
X8487529Y12671784D01*
X8484052Y12674339D01*
X8482578Y12678390D01*
X8463728Y12689274D01*
X8446187Y12702163D01*
X8441884Y12701886D01*
X8438149Y12704042D01*
X8416711Y12700262D01*
X8394991Y12698861D01*
X8391872Y12695882D01*
X8387625Y12695133D01*
X8373632Y12678458D01*
X8357894Y12663423D01*
X8357419Y12659137D01*
X8354648Y12655833D01*
X8350125Y12630181D01*
X8350125Y11705181D01*
X8139411Y11705181D01*
X8091202Y11687634D01*
X8065550Y11643205D01*
X7922693Y11643205D01*
X7922693Y12848038D01*
X9928696Y12848038D01*
X9928696Y11412324D01*
G37*
G36*
X9588220Y9205181D02*
G01*
X9299973Y9205181D01*
X9231457Y9239439D01*
X9201050Y9269847D01*
X9166792Y9338363D01*
X9166792Y9445810D01*
X9201050Y9514326D01*
X9227544Y9540820D01*
X9342057Y9578991D01*
X9588220Y9578991D01*
X9588220Y9205181D01*
G37*
G36*
X9588220Y9728991D02*
G01*
X9347592Y9728991D01*
X9279076Y9763249D01*
X9248669Y9793656D01*
X9214411Y9862172D01*
X9214411Y9922000D01*
X9248669Y9990516D01*
X9279076Y10020923D01*
X9347592Y10055181D01*
X9588220Y10055181D01*
X9588220Y9728991D01*
G37*
G36*
X9881077Y8912324D02*
G01*
X7922693Y8912324D01*
X7922693Y9143205D01*
X8065550Y9143205D01*
X8074459Y9092681D01*
X8113759Y9059704D01*
X8139411Y9055181D01*
X8710839Y9055181D01*
X8759048Y9072728D01*
X8784700Y9117157D01*
X8775791Y9167681D01*
X8736491Y9200658D01*
X8710839Y9205181D01*
X8500125Y9205181D01*
X8500125Y9320658D01*
X9016792Y9320658D01*
X9018325Y9316445D01*
X9017284Y9312084D01*
X9024710Y9287117D01*
X9072329Y9191879D01*
X9073517Y9190754D01*
X9086377Y9172388D01*
X9133996Y9124768D01*
X9135477Y9124078D01*
X9153489Y9110718D01*
X9248727Y9063099D01*
X9253180Y9062587D01*
X9256616Y9059704D01*
X9282268Y9055181D01*
X9663220Y9055181D01*
X9681528Y9061845D01*
X9700720Y9065229D01*
X9705070Y9070414D01*
X9711429Y9072728D01*
X9721171Y9089602D01*
X9733697Y9104529D01*
X9735414Y9114272D01*
X9737081Y9117157D01*
X9736502Y9120440D01*
X9738220Y9130181D01*
X9738220Y10130181D01*
X9731556Y10148490D01*
X9728172Y10167681D01*
X9722987Y10172032D01*
X9720673Y10178390D01*
X9703799Y10188133D01*
X9688872Y10200658D01*
X9679129Y10202376D01*
X9676244Y10204042D01*
X9672961Y10203464D01*
X9663220Y10205181D01*
X9329887Y10205181D01*
X9325673Y10203648D01*
X9321312Y10204689D01*
X9296346Y10197263D01*
X9201108Y10149644D01*
X9199982Y10148455D01*
X9181616Y10135595D01*
X9133997Y10087976D01*
X9133306Y10086495D01*
X9119948Y10068484D01*
X9072329Y9973246D01*
X9071816Y9968793D01*
X9068934Y9965357D01*
X9064411Y9939705D01*
X9064411Y9844467D01*
X9065944Y9840254D01*
X9064903Y9835893D01*
X9072329Y9810926D01*
X9119948Y9715688D01*
X9121137Y9714563D01*
X9133997Y9696196D01*
X9155806Y9674387D01*
X9155334Y9674345D01*
X9133997Y9659405D01*
X9086378Y9611786D01*
X9085687Y9610305D01*
X9072329Y9592294D01*
X9024710Y9497056D01*
X9024197Y9492603D01*
X9021315Y9489167D01*
X9016792Y9463515D01*
X9016792Y9320658D01*
X8500125Y9320658D01*
X8500125Y9901496D01*
X8562568Y9839053D01*
X8564049Y9838363D01*
X8582060Y9825004D01*
X8677298Y9777385D01*
X8728264Y9771520D01*
X8771077Y9799786D01*
X8785704Y9848961D01*
X8765301Y9896032D01*
X8744380Y9911549D01*
X8660028Y9953725D01*
X8578647Y10035106D01*
X8487529Y10171784D01*
X8484052Y10174339D01*
X8482578Y10178390D01*
X8463728Y10189274D01*
X8446187Y10202163D01*
X8441884Y10201886D01*
X8438149Y10204042D01*
X8416711Y10200262D01*
X8394991Y10198861D01*
X8391872Y10195882D01*
X8387625Y10195133D01*
X8373632Y10178458D01*
X8357894Y10163423D01*
X8357419Y10159137D01*
X8354648Y10155833D01*
X8350125Y10130181D01*
X8350125Y9205181D01*
X8139411Y9205181D01*
X8091202Y9187634D01*
X8065550Y9143205D01*
X7922693Y9143205D01*
X7922693Y10348038D01*
X9881077Y10348038D01*
X9881077Y8912324D01*
G37*
G36*
X9881077Y6162324D02*
G01*
X8016792Y6162324D01*
X8016792Y6523039D01*
X8159649Y6523039D01*
X8161182Y6518827D01*
X8160140Y6514465D01*
X8167567Y6489498D01*
X8215186Y6394259D01*
X8223339Y6386540D01*
X8227806Y6376235D01*
X8248727Y6360718D01*
X8343965Y6313099D01*
X8348418Y6312587D01*
X8351854Y6309704D01*
X8377506Y6305181D01*
X8567982Y6305181D01*
X8572195Y6306715D01*
X8576556Y6305673D01*
X8601523Y6313099D01*
X8696761Y6360718D01*
X8715189Y6380181D01*
X9016792Y6380181D01*
X9034339Y6331972D01*
X9078768Y6306320D01*
X9129292Y6315229D01*
X9162269Y6354529D01*
X9166792Y6380181D01*
X9166792Y6828991D01*
X9588220Y6828991D01*
X9588220Y6380181D01*
X9605767Y6331972D01*
X9650196Y6306320D01*
X9700720Y6315229D01*
X9733697Y6354529D01*
X9738220Y6380181D01*
X9738220Y7380181D01*
X9720673Y7428390D01*
X9676244Y7454042D01*
X9625720Y7445133D01*
X9592743Y7405833D01*
X9588220Y7380181D01*
X9588220Y6978991D01*
X9166792Y6978991D01*
X9166792Y7380181D01*
X9149245Y7428390D01*
X9104816Y7454042D01*
X9054292Y7445133D01*
X9021315Y7405833D01*
X9016792Y7380181D01*
X9016792Y6380181D01*
X8715189Y6380181D01*
X8732033Y6397972D01*
X8735108Y6449182D01*
X8704544Y6490388D01*
X8654645Y6502308D01*
X8629679Y6494882D01*
X8550277Y6455181D01*
X8395211Y6455181D01*
X8338169Y6483702D01*
X8309649Y6540744D01*
X8309649Y6552953D01*
X8338169Y6609995D01*
X8395211Y6638515D01*
X8520363Y6638515D01*
X8524576Y6640049D01*
X8528937Y6639007D01*
X8553904Y6646433D01*
X8649142Y6694052D01*
X8656861Y6702206D01*
X8667166Y6706672D01*
X8682683Y6727593D01*
X8730302Y6822831D01*
X8730814Y6827285D01*
X8733697Y6830720D01*
X8738220Y6856372D01*
X8738220Y6903991D01*
X8736686Y6908205D01*
X8737728Y6912566D01*
X8730302Y6937532D01*
X8682683Y7032770D01*
X8674529Y7040490D01*
X8670063Y7050794D01*
X8649142Y7066311D01*
X8553904Y7113930D01*
X8549450Y7114443D01*
X8546015Y7117325D01*
X8520363Y7121848D01*
X8377506Y7121848D01*
X8373292Y7120315D01*
X8368931Y7121356D01*
X8343965Y7113930D01*
X8248727Y7066311D01*
X8213455Y7029057D01*
X8210380Y6977846D01*
X8240944Y6936641D01*
X8290842Y6924721D01*
X8315809Y6932147D01*
X8395211Y6971848D01*
X8502658Y6971848D01*
X8559699Y6943328D01*
X8588220Y6886286D01*
X8588220Y6874077D01*
X8559699Y6817036D01*
X8502658Y6788515D01*
X8377506Y6788515D01*
X8373292Y6786982D01*
X8368931Y6788023D01*
X8343965Y6780597D01*
X8248727Y6732978D01*
X8241007Y6724825D01*
X8230703Y6720358D01*
X8215186Y6699437D01*
X8167567Y6604199D01*
X8167054Y6599746D01*
X8164172Y6596310D01*
X8159649Y6570658D01*
X8159649Y6523039D01*
X8016792Y6523039D01*
X8016792Y7596899D01*
X9881077Y7596899D01*
X9881077Y6162324D01*
G37*
G36*
X2770085Y6162324D02*
G01*
X957268Y6162324D01*
X957268Y6523039D01*
X1100125Y6523039D01*
X1101658Y6518827D01*
X1100616Y6514465D01*
X1108043Y6489498D01*
X1155662Y6394259D01*
X1163815Y6386540D01*
X1168282Y6376235D01*
X1189203Y6360718D01*
X1284441Y6313099D01*
X1288894Y6312587D01*
X1292330Y6309704D01*
X1317982Y6305181D01*
X1508458Y6305181D01*
X1512671Y6306715D01*
X1517032Y6305673D01*
X1541999Y6313099D01*
X1637237Y6360718D01*
X1672509Y6397972D01*
X1675584Y6449182D01*
X1645020Y6490388D01*
X1595121Y6502308D01*
X1570155Y6494882D01*
X1490753Y6455181D01*
X1335687Y6455181D01*
X1278645Y6483702D01*
X1250125Y6540744D01*
X1250125Y6552953D01*
X1278645Y6609995D01*
X1335687Y6638515D01*
X1460839Y6638515D01*
X1465052Y6640049D01*
X1469413Y6639007D01*
X1494380Y6646433D01*
X1589618Y6694052D01*
X1597337Y6702206D01*
X1607642Y6706672D01*
X1623159Y6727593D01*
X1670778Y6822831D01*
X1671290Y6827285D01*
X1674173Y6830720D01*
X1678696Y6856372D01*
X1678696Y6903991D01*
X1677162Y6908205D01*
X1678204Y6912566D01*
X1670778Y6937532D01*
X1623159Y7032770D01*
X1615005Y7040490D01*
X1610539Y7050794D01*
X1589618Y7066311D01*
X1494380Y7113930D01*
X1489926Y7114443D01*
X1486491Y7117325D01*
X1460839Y7121848D01*
X1317982Y7121848D01*
X1313768Y7120315D01*
X1309407Y7121356D01*
X1284441Y7113930D01*
X1189203Y7066311D01*
X1153931Y7029057D01*
X1150856Y6977846D01*
X1181420Y6936641D01*
X1231318Y6924721D01*
X1256285Y6932147D01*
X1335687Y6971848D01*
X1443134Y6971848D01*
X1500175Y6943328D01*
X1528696Y6886286D01*
X1528696Y6874077D01*
X1500175Y6817036D01*
X1443134Y6788515D01*
X1317982Y6788515D01*
X1313768Y6786982D01*
X1309407Y6788023D01*
X1284441Y6780597D01*
X1189203Y6732978D01*
X1181483Y6724825D01*
X1171179Y6720358D01*
X1155662Y6699437D01*
X1108043Y6604199D01*
X1107530Y6599746D01*
X1104648Y6596310D01*
X1100125Y6570658D01*
X1100125Y6523039D01*
X957268Y6523039D01*
X957268Y7382230D01*
X1814439Y7382230D01*
X1818260Y7356464D01*
X2151593Y6356464D01*
X2152935Y6354773D01*
X2152994Y6352614D01*
X2168743Y6334853D01*
X2183484Y6316278D01*
X2185597Y6315846D01*
X2187031Y6314229D01*
X2210501Y6310749D01*
X2233745Y6305992D01*
X2235644Y6307021D01*
X2237780Y6306704D01*
X2257993Y6319123D01*
X2278859Y6330421D01*
X2279652Y6332429D01*
X2281492Y6333559D01*
X2293895Y6356464D01*
X2627228Y7356464D01*
X2625827Y7407747D01*
X2591789Y7446133D01*
X2541041Y7453658D01*
X2497328Y7426803D01*
X2484926Y7403898D01*
X2222744Y6617352D01*
X1960562Y7403898D01*
X1928671Y7444084D01*
X1878410Y7454370D01*
X1833296Y7429941D01*
X1814439Y7382230D01*
X957268Y7382230D01*
X957268Y7597227D01*
X2770085Y7597227D01*
X2770085Y6162324D01*
G37*
G36*
X1273555Y10020923D02*
G01*
X1303962Y9990516D01*
X1342455Y9913529D01*
X1385839Y9739995D01*
X1385839Y9520368D01*
X1342455Y9346834D01*
X1303961Y9269847D01*
X1273554Y9239439D01*
X1205039Y9205181D01*
X1145211Y9205181D01*
X1076695Y9239439D01*
X1046288Y9269847D01*
X1007794Y9346834D01*
X964411Y9520368D01*
X964411Y9739995D01*
X1007794Y9913529D01*
X1046288Y9990516D01*
X1076695Y10020923D01*
X1145211Y10055181D01*
X1205039Y10055181D01*
X1273555Y10020923D01*
G37*
G36*
X2338220Y9205181D02*
G01*
X2049973Y9205181D01*
X1981457Y9239439D01*
X1951050Y9269847D01*
X1916792Y9338363D01*
X1916792Y9445810D01*
X1951050Y9514326D01*
X1977544Y9540820D01*
X2092057Y9578991D01*
X2338220Y9578991D01*
X2338220Y9205181D01*
G37*
G36*
X2338220Y9728991D02*
G01*
X2097592Y9728991D01*
X2029076Y9763249D01*
X1998669Y9793656D01*
X1964411Y9862172D01*
X1964411Y9922000D01*
X1998669Y9990516D01*
X2029076Y10020923D01*
X2097592Y10055181D01*
X2338220Y10055181D01*
X2338220Y9728991D01*
G37*
G36*
X2631077Y8912324D02*
G01*
X671554Y8912324D01*
X671554Y9511134D01*
X814411Y9511134D01*
X815596Y9507877D01*
X816650Y9492944D01*
X864269Y9302468D01*
X866257Y9299524D01*
X869948Y9287117D01*
X917567Y9191879D01*
X918755Y9190754D01*
X931615Y9172388D01*
X979234Y9124768D01*
X980715Y9124078D01*
X998727Y9110718D01*
X1093965Y9063099D01*
X1098418Y9062587D01*
X1101854Y9059704D01*
X1127506Y9055181D01*
X1222744Y9055181D01*
X1226957Y9056715D01*
X1231318Y9055673D01*
X1256285Y9063099D01*
X1351523Y9110718D01*
X1352647Y9111906D01*
X1371016Y9124768D01*
X1418634Y9172387D01*
X1419324Y9173869D01*
X1432683Y9191879D01*
X1480302Y9287117D01*
X1480708Y9290646D01*
X1485981Y9302468D01*
X1490529Y9320658D01*
X1766792Y9320658D01*
X1768325Y9316445D01*
X1767284Y9312084D01*
X1774710Y9287117D01*
X1822329Y9191879D01*
X1823517Y9190754D01*
X1836377Y9172388D01*
X1883996Y9124768D01*
X1885477Y9124078D01*
X1903489Y9110718D01*
X1998727Y9063099D01*
X2003180Y9062587D01*
X2006616Y9059704D01*
X2032268Y9055181D01*
X2413220Y9055181D01*
X2431528Y9061845D01*
X2450720Y9065229D01*
X2455070Y9070414D01*
X2461429Y9072728D01*
X2471171Y9089602D01*
X2483697Y9104529D01*
X2485414Y9114272D01*
X2487081Y9117157D01*
X2486502Y9120440D01*
X2488220Y9130181D01*
X2488220Y10130181D01*
X2481556Y10148490D01*
X2478172Y10167681D01*
X2472987Y10172032D01*
X2470673Y10178390D01*
X2453799Y10188133D01*
X2438872Y10200658D01*
X2429129Y10202376D01*
X2426244Y10204042D01*
X2422961Y10203464D01*
X2413220Y10205181D01*
X2079887Y10205181D01*
X2075673Y10203648D01*
X2071312Y10204689D01*
X2046346Y10197263D01*
X1951108Y10149644D01*
X1949982Y10148455D01*
X1931616Y10135595D01*
X1883997Y10087976D01*
X1883306Y10086495D01*
X1869948Y10068484D01*
X1822329Y9973246D01*
X1821816Y9968793D01*
X1818934Y9965357D01*
X1814411Y9939705D01*
X1814411Y9844467D01*
X1815944Y9840254D01*
X1814903Y9835893D01*
X1822329Y9810926D01*
X1869948Y9715688D01*
X1871137Y9714563D01*
X1883997Y9696196D01*
X1905806Y9674387D01*
X1905334Y9674345D01*
X1883997Y9659405D01*
X1836378Y9611786D01*
X1835687Y9610305D01*
X1822329Y9592294D01*
X1774710Y9497056D01*
X1774197Y9492603D01*
X1771315Y9489167D01*
X1766792Y9463515D01*
X1766792Y9320658D01*
X1490529Y9320658D01*
X1533600Y9492944D01*
X1533239Y9496393D01*
X1535839Y9511134D01*
X1535839Y9749229D01*
X1534653Y9752487D01*
X1533600Y9767419D01*
X1485981Y9957895D01*
X1483992Y9960840D01*
X1480302Y9973246D01*
X1432683Y10068484D01*
X1431493Y10069610D01*
X1418634Y10087976D01*
X1371015Y10135595D01*
X1369533Y10136286D01*
X1351523Y10149644D01*
X1256285Y10197263D01*
X1251831Y10197776D01*
X1248396Y10200658D01*
X1222744Y10205181D01*
X1127506Y10205181D01*
X1123292Y10203648D01*
X1118931Y10204689D01*
X1093965Y10197263D01*
X998727Y10149644D01*
X997601Y10148455D01*
X979235Y10135595D01*
X931616Y10087976D01*
X930925Y10086495D01*
X917567Y10068484D01*
X869948Y9973246D01*
X869541Y9969718D01*
X864269Y9957895D01*
X816650Y9767419D01*
X817010Y9763971D01*
X814411Y9749229D01*
X814411Y9511134D01*
X671554Y9511134D01*
X671554Y10348038D01*
X2631077Y10348038D01*
X2631077Y8912324D01*
G37*
G36*
X1273555Y12520923D02*
G01*
X1303962Y12490516D01*
X1342455Y12413529D01*
X1385839Y12239995D01*
X1385839Y12020368D01*
X1342455Y11846834D01*
X1303961Y11769847D01*
X1273554Y11739439D01*
X1205039Y11705181D01*
X1145211Y11705181D01*
X1076695Y11739439D01*
X1046288Y11769847D01*
X1007794Y11846834D01*
X964411Y12020368D01*
X964411Y12239995D01*
X1007794Y12413529D01*
X1046288Y12490516D01*
X1076695Y12520923D01*
X1145211Y12555181D01*
X1205039Y12555181D01*
X1273555Y12520923D01*
G37*
G36*
X2678696Y11412324D02*
G01*
X671554Y11412324D01*
X671554Y12011134D01*
X814411Y12011134D01*
X815596Y12007877D01*
X816650Y11992944D01*
X864269Y11802468D01*
X866257Y11799524D01*
X869948Y11787117D01*
X917567Y11691879D01*
X918755Y11690754D01*
X931615Y11672388D01*
X979234Y11624768D01*
X980715Y11624078D01*
X998727Y11610718D01*
X1093965Y11563099D01*
X1098418Y11562587D01*
X1101854Y11559704D01*
X1127506Y11555181D01*
X1222744Y11555181D01*
X1226957Y11556715D01*
X1231318Y11555673D01*
X1256285Y11563099D01*
X1351523Y11610718D01*
X1352647Y11611906D01*
X1371016Y11624768D01*
X1418634Y11672387D01*
X1419324Y11673869D01*
X1432683Y11691879D01*
X1449454Y11725420D01*
X1766792Y11725420D01*
X1772391Y11710037D01*
X1773818Y11693725D01*
X1783210Y11680311D01*
X1784339Y11677211D01*
X1786088Y11676202D01*
X1788758Y11672388D01*
X1836377Y11624768D01*
X1840441Y11622873D01*
X1842789Y11619052D01*
X1865694Y11606649D01*
X2008550Y11559030D01*
X2010185Y11559075D01*
X2032268Y11555181D01*
X2127506Y11555181D01*
X2129044Y11555742D01*
X2151223Y11559030D01*
X2294080Y11606649D01*
X2297592Y11609437D01*
X2302059Y11609827D01*
X2323396Y11624767D01*
X2418635Y11720007D01*
X2419326Y11721490D01*
X2432683Y11739498D01*
X2480302Y11834736D01*
X2480708Y11838265D01*
X2485981Y11850087D01*
X2533600Y12040563D01*
X2533239Y12044012D01*
X2535839Y12058753D01*
X2535839Y12201610D01*
X2534653Y12204868D01*
X2533600Y12219800D01*
X2485981Y12410276D01*
X2483992Y12413221D01*
X2480302Y12425627D01*
X2432683Y12520865D01*
X2431496Y12521989D01*
X2418634Y12540357D01*
X2323396Y12635595D01*
X2319332Y12637490D01*
X2316985Y12641311D01*
X2294080Y12653713D01*
X2151223Y12701332D01*
X2149588Y12701288D01*
X2127506Y12705181D01*
X1984649Y12705181D01*
X1980435Y12703648D01*
X1976074Y12704689D01*
X1951108Y12697263D01*
X1855870Y12649644D01*
X1820598Y12612390D01*
X1817523Y12561179D01*
X1848087Y12519974D01*
X1897985Y12508054D01*
X1922952Y12515480D01*
X2002354Y12555181D01*
X2115336Y12555181D01*
X2229849Y12517010D01*
X2303962Y12442897D01*
X2342455Y12365910D01*
X2385839Y12192376D01*
X2385839Y12067987D01*
X2342455Y11894453D01*
X2303961Y11817466D01*
X2229849Y11743353D01*
X2115336Y11705181D01*
X2044438Y11705181D01*
X1929925Y11743352D01*
X1916792Y11756486D01*
X1916792Y11983753D01*
X2032268Y11983753D01*
X2080477Y12001300D01*
X2106129Y12045729D01*
X2097220Y12096253D01*
X2057920Y12129230D01*
X2032268Y12133753D01*
X1841792Y12133753D01*
X1823483Y12127090D01*
X1804292Y12123705D01*
X1799941Y12118521D01*
X1793583Y12116206D01*
X1783840Y12099333D01*
X1771315Y12084405D01*
X1769597Y12074663D01*
X1767931Y12071777D01*
X1768509Y12068495D01*
X1766792Y12058753D01*
X1766792Y11725420D01*
X1449454Y11725420D01*
X1480302Y11787117D01*
X1480708Y11790646D01*
X1485981Y11802468D01*
X1533600Y11992944D01*
X1533239Y11996393D01*
X1535839Y12011134D01*
X1535839Y12249229D01*
X1534653Y12252487D01*
X1533600Y12267419D01*
X1485981Y12457895D01*
X1483992Y12460840D01*
X1480302Y12473246D01*
X1432683Y12568484D01*
X1431493Y12569610D01*
X1418634Y12587976D01*
X1371015Y12635595D01*
X1369533Y12636286D01*
X1351523Y12649644D01*
X1256285Y12697263D01*
X1251831Y12697776D01*
X1248396Y12700658D01*
X1222744Y12705181D01*
X1127506Y12705181D01*
X1123292Y12703648D01*
X1118931Y12704689D01*
X1093965Y12697263D01*
X998727Y12649644D01*
X997601Y12648455D01*
X979235Y12635595D01*
X931616Y12587976D01*
X930925Y12586495D01*
X917567Y12568484D01*
X869948Y12473246D01*
X869541Y12469718D01*
X864269Y12457895D01*
X816650Y12267419D01*
X817010Y12263971D01*
X814411Y12249229D01*
X814411Y12011134D01*
X671554Y12011134D01*
X671554Y12848038D01*
X2678696Y12848038D01*
X2678696Y11412324D01*
G37*
G36*
X9588220Y14431372D02*
G01*
X9299973Y14431372D01*
X9231457Y14465630D01*
X9201050Y14496037D01*
X9166792Y14564553D01*
X9166792Y14672000D01*
X9201050Y14740516D01*
X9231457Y14770923D01*
X9299973Y14805181D01*
X9588220Y14805181D01*
X9588220Y14431372D01*
G37*
G36*
X9881077Y13662324D02*
G01*
X7922693Y13662324D01*
X7922693Y13893205D01*
X8065550Y13893205D01*
X8074459Y13842681D01*
X8113759Y13809704D01*
X8139411Y13805181D01*
X8710839Y13805181D01*
X8759048Y13822728D01*
X8784700Y13867157D01*
X8775791Y13917681D01*
X8736491Y13950658D01*
X8710839Y13955181D01*
X8500125Y13955181D01*
X8500125Y14651496D01*
X8562568Y14589053D01*
X8564049Y14588363D01*
X8582060Y14575004D01*
X8677298Y14527385D01*
X8728264Y14521520D01*
X8766627Y14546848D01*
X9016792Y14546848D01*
X9018325Y14542635D01*
X9017284Y14538274D01*
X9024710Y14513307D01*
X9072329Y14418069D01*
X9073518Y14416944D01*
X9086378Y14398577D01*
X9133997Y14350958D01*
X9135478Y14350267D01*
X9153489Y14336909D01*
X9248727Y14289290D01*
X9253180Y14288778D01*
X9256616Y14285895D01*
X9281207Y14281560D01*
X9030350Y13923191D01*
X9017079Y13873634D01*
X9038766Y13827140D01*
X9085266Y13805465D01*
X9134819Y13818750D01*
X9153234Y13837171D01*
X9464174Y14281372D01*
X9588220Y14281372D01*
X9588220Y13880181D01*
X9605767Y13831972D01*
X9650196Y13806320D01*
X9700720Y13815229D01*
X9733697Y13854529D01*
X9738220Y13880181D01*
X9738220Y14880181D01*
X9731556Y14898490D01*
X9728172Y14917681D01*
X9722987Y14922032D01*
X9720673Y14928390D01*
X9703799Y14938133D01*
X9688872Y14950658D01*
X9679129Y14952376D01*
X9676244Y14954042D01*
X9672961Y14953464D01*
X9663220Y14955181D01*
X9282268Y14955181D01*
X9278054Y14953648D01*
X9273693Y14954689D01*
X9248727Y14947263D01*
X9153489Y14899644D01*
X9152363Y14898455D01*
X9133997Y14885595D01*
X9086378Y14837976D01*
X9085687Y14836495D01*
X9072329Y14818484D01*
X9024710Y14723246D01*
X9024197Y14718793D01*
X9021315Y14715357D01*
X9016792Y14689705D01*
X9016792Y14546848D01*
X8766627Y14546848D01*
X8771077Y14549786D01*
X8785704Y14598961D01*
X8765301Y14646032D01*
X8744380Y14661549D01*
X8660028Y14703725D01*
X8578647Y14785106D01*
X8487529Y14921784D01*
X8484052Y14924339D01*
X8482578Y14928390D01*
X8463728Y14939274D01*
X8446187Y14952163D01*
X8441884Y14951886D01*
X8438149Y14954042D01*
X8416711Y14950262D01*
X8394991Y14948861D01*
X8391872Y14945882D01*
X8387625Y14945133D01*
X8373632Y14928458D01*
X8357894Y14913423D01*
X8357419Y14909137D01*
X8354648Y14905833D01*
X8350125Y14880181D01*
X8350125Y13955181D01*
X8139411Y13955181D01*
X8091202Y13937634D01*
X8065550Y13893205D01*
X7922693Y13893205D01*
X7922693Y15098038D01*
X9881077Y15098038D01*
X9881077Y13662324D01*
G37*
G36*
X1273555Y14770923D02*
G01*
X1303962Y14740516D01*
X1342455Y14663529D01*
X1385839Y14489995D01*
X1385839Y14270368D01*
X1342455Y14096834D01*
X1303961Y14019847D01*
X1273554Y13989439D01*
X1205039Y13955181D01*
X1145211Y13955181D01*
X1076695Y13989439D01*
X1046288Y14019847D01*
X1007794Y14096834D01*
X964411Y14270368D01*
X964411Y14489995D01*
X1007794Y14663529D01*
X1046288Y14740516D01*
X1076695Y14770923D01*
X1145211Y14805181D01*
X1205039Y14805181D01*
X1273555Y14770923D01*
G37*
G36*
X2338220Y14431372D02*
G01*
X2049973Y14431372D01*
X1981457Y14465630D01*
X1951050Y14496037D01*
X1916792Y14564553D01*
X1916792Y14672000D01*
X1951050Y14740516D01*
X1981457Y14770923D01*
X2049973Y14805181D01*
X2338220Y14805181D01*
X2338220Y14431372D01*
G37*
G36*
X2631077Y13662324D02*
G01*
X671554Y13662324D01*
X671554Y14261134D01*
X814411Y14261134D01*
X815596Y14257877D01*
X816650Y14242944D01*
X864269Y14052468D01*
X866257Y14049524D01*
X869948Y14037117D01*
X917567Y13941879D01*
X918755Y13940754D01*
X931615Y13922388D01*
X979234Y13874768D01*
X980715Y13874078D01*
X998727Y13860718D01*
X1093965Y13813099D01*
X1098418Y13812587D01*
X1101854Y13809704D01*
X1127506Y13805181D01*
X1222744Y13805181D01*
X1226957Y13806715D01*
X1231318Y13805673D01*
X1256285Y13813099D01*
X1351523Y13860718D01*
X1352647Y13861906D01*
X1371016Y13874768D01*
X1418634Y13922387D01*
X1419324Y13923869D01*
X1432683Y13941879D01*
X1480302Y14037117D01*
X1480708Y14040646D01*
X1485981Y14052468D01*
X1533600Y14242944D01*
X1533239Y14246393D01*
X1535839Y14261134D01*
X1535839Y14499229D01*
X1534653Y14502487D01*
X1533600Y14517419D01*
X1526243Y14546848D01*
X1766792Y14546848D01*
X1768325Y14542635D01*
X1767284Y14538274D01*
X1774710Y14513307D01*
X1822329Y14418069D01*
X1823518Y14416944D01*
X1836378Y14398577D01*
X1883997Y14350958D01*
X1885478Y14350267D01*
X1903489Y14336909D01*
X1998727Y14289290D01*
X2003180Y14288778D01*
X2006616Y14285895D01*
X2031207Y14281560D01*
X1780350Y13923191D01*
X1767079Y13873634D01*
X1788766Y13827140D01*
X1835266Y13805465D01*
X1884819Y13818750D01*
X1903234Y13837171D01*
X2214174Y14281372D01*
X2338220Y14281372D01*
X2338220Y13880181D01*
X2355767Y13831972D01*
X2400196Y13806320D01*
X2450720Y13815229D01*
X2483697Y13854529D01*
X2488220Y13880181D01*
X2488220Y14880181D01*
X2481556Y14898490D01*
X2478172Y14917681D01*
X2472987Y14922032D01*
X2470673Y14928390D01*
X2453799Y14938133D01*
X2438872Y14950658D01*
X2429129Y14952376D01*
X2426244Y14954042D01*
X2422961Y14953464D01*
X2413220Y14955181D01*
X2032268Y14955181D01*
X2028054Y14953648D01*
X2023693Y14954689D01*
X1998727Y14947263D01*
X1903489Y14899644D01*
X1902363Y14898455D01*
X1883997Y14885595D01*
X1836378Y14837976D01*
X1835687Y14836495D01*
X1822329Y14818484D01*
X1774710Y14723246D01*
X1774197Y14718793D01*
X1771315Y14715357D01*
X1766792Y14689705D01*
X1766792Y14546848D01*
X1526243Y14546848D01*
X1485981Y14707895D01*
X1483992Y14710840D01*
X1480302Y14723246D01*
X1432683Y14818484D01*
X1431493Y14819610D01*
X1418634Y14837976D01*
X1371015Y14885595D01*
X1369533Y14886286D01*
X1351523Y14899644D01*
X1256285Y14947263D01*
X1251831Y14947776D01*
X1248396Y14950658D01*
X1222744Y14955181D01*
X1127506Y14955181D01*
X1123292Y14953648D01*
X1118931Y14954689D01*
X1093965Y14947263D01*
X998727Y14899644D01*
X997601Y14898455D01*
X979235Y14885595D01*
X931616Y14837976D01*
X930925Y14836495D01*
X917567Y14818484D01*
X869948Y14723246D01*
X869541Y14719718D01*
X864269Y14707895D01*
X816650Y14517419D01*
X817010Y14513971D01*
X814411Y14499229D01*
X814411Y14261134D01*
X671554Y14261134D01*
X671554Y15098038D01*
X2631077Y15098038D01*
X2631077Y13662324D01*
G37*
G36*
X10040601Y3955181D02*
G01*
X9889676Y3955181D01*
X9775163Y3993352D01*
X9701050Y4067466D01*
X9662556Y4144453D01*
X9619173Y4317987D01*
X9619173Y4442376D01*
X9662556Y4615910D01*
X9701050Y4692897D01*
X9775163Y4767010D01*
X9889676Y4805181D01*
X10040601Y4805181D01*
X10040601Y3955181D01*
G37*
G36*
X12428696Y3662324D02*
G01*
X9326316Y3662324D01*
X9326316Y4308753D01*
X9469173Y4308753D01*
X9470358Y4305496D01*
X9471412Y4290563D01*
X9519031Y4100087D01*
X9521019Y4097143D01*
X9524710Y4084736D01*
X9572329Y3989498D01*
X9573515Y3988375D01*
X9586378Y3970006D01*
X9681616Y3874767D01*
X9685680Y3872872D01*
X9688027Y3869052D01*
X9710932Y3856649D01*
X9853788Y3809030D01*
X9855423Y3809075D01*
X9877506Y3805181D01*
X10115601Y3805181D01*
X10133909Y3811845D01*
X10153101Y3815229D01*
X10157451Y3820414D01*
X10163810Y3822728D01*
X10173552Y3839602D01*
X10186078Y3854529D01*
X10187795Y3864272D01*
X10189462Y3867157D01*
X10188883Y3870440D01*
X10190601Y3880181D01*
X10516792Y3880181D01*
X10519163Y3873665D01*
X10517990Y3866829D01*
X10527729Y3850132D01*
X10534339Y3831972D01*
X10540344Y3828505D01*
X10543839Y3822513D01*
X10562030Y3815984D01*
X10578768Y3806320D01*
X10585599Y3807525D01*
X10592126Y3805182D01*
X10610257Y3811873D01*
X10629292Y3815229D01*
X10633749Y3820542D01*
X10640256Y3822942D01*
X10656910Y3842971D01*
X11088220Y4597765D01*
X11088220Y3880181D01*
X11105767Y3831972D01*
X11150196Y3806320D01*
X11200720Y3815229D01*
X11233697Y3854529D01*
X11238220Y3880181D01*
X11238220Y3975420D01*
X11516792Y3975420D01*
X11522391Y3960037D01*
X11523818Y3943725D01*
X11533210Y3930311D01*
X11534339Y3927211D01*
X11536088Y3926202D01*
X11538758Y3922388D01*
X11586377Y3874768D01*
X11590441Y3872873D01*
X11592789Y3869052D01*
X11615694Y3856649D01*
X11758550Y3809030D01*
X11760185Y3809075D01*
X11782268Y3805181D01*
X11877506Y3805181D01*
X11879044Y3805742D01*
X11901223Y3809030D01*
X12044080Y3856649D01*
X12047592Y3859437D01*
X12052059Y3859827D01*
X12073396Y3874767D01*
X12168635Y3970007D01*
X12169326Y3971490D01*
X12182683Y3989498D01*
X12230302Y4084736D01*
X12230708Y4088265D01*
X12235981Y4100087D01*
X12283600Y4290563D01*
X12283239Y4294012D01*
X12285839Y4308753D01*
X12285839Y4451610D01*
X12284653Y4454868D01*
X12283600Y4469800D01*
X12235981Y4660276D01*
X12233992Y4663221D01*
X12230302Y4675627D01*
X12182683Y4770865D01*
X12181496Y4771989D01*
X12168634Y4790357D01*
X12073396Y4885595D01*
X12069332Y4887490D01*
X12066985Y4891311D01*
X12044080Y4903713D01*
X11901223Y4951332D01*
X11899588Y4951288D01*
X11877506Y4955181D01*
X11734649Y4955181D01*
X11730435Y4953648D01*
X11726074Y4954689D01*
X11701108Y4947263D01*
X11605870Y4899644D01*
X11570598Y4862390D01*
X11567523Y4811179D01*
X11598087Y4769974D01*
X11647985Y4758054D01*
X11672952Y4765480D01*
X11752354Y4805181D01*
X11865336Y4805181D01*
X11979849Y4767010D01*
X12053962Y4692897D01*
X12092455Y4615910D01*
X12135839Y4442376D01*
X12135839Y4317987D01*
X12092455Y4144453D01*
X12053961Y4067466D01*
X11979849Y3993353D01*
X11865336Y3955181D01*
X11794438Y3955181D01*
X11679925Y3993352D01*
X11666792Y4006486D01*
X11666792Y4233753D01*
X11782268Y4233753D01*
X11830477Y4251300D01*
X11856129Y4295729D01*
X11847220Y4346253D01*
X11807920Y4379230D01*
X11782268Y4383753D01*
X11591792Y4383753D01*
X11573483Y4377090D01*
X11554292Y4373705D01*
X11549941Y4368521D01*
X11543583Y4366206D01*
X11533840Y4349333D01*
X11521315Y4334405D01*
X11519597Y4324663D01*
X11517931Y4321777D01*
X11518509Y4318495D01*
X11516792Y4308753D01*
X11516792Y3975420D01*
X11238220Y3975420D01*
X11238220Y4880181D01*
X11235847Y4886699D01*
X11237022Y4893534D01*
X11227282Y4910232D01*
X11220673Y4928390D01*
X11214668Y4931858D01*
X11211173Y4937849D01*
X11192981Y4944379D01*
X11176244Y4954042D01*
X11169412Y4952838D01*
X11162886Y4955180D01*
X11144754Y4948490D01*
X11125720Y4945133D01*
X11121262Y4939821D01*
X11114756Y4937420D01*
X11098102Y4917392D01*
X10666792Y4162598D01*
X10666792Y4880181D01*
X10649245Y4928390D01*
X10604816Y4954042D01*
X10554292Y4945133D01*
X10521315Y4905833D01*
X10516792Y4880181D01*
X10516792Y3880181D01*
X10190601Y3880181D01*
X10190601Y4880181D01*
X10183937Y4898490D01*
X10180553Y4917681D01*
X10175368Y4922032D01*
X10173054Y4928390D01*
X10156180Y4938133D01*
X10141253Y4950658D01*
X10131510Y4952376D01*
X10128625Y4954042D01*
X10125342Y4953464D01*
X10115601Y4955181D01*
X9877506Y4955181D01*
X9875968Y4954622D01*
X9853788Y4951332D01*
X9710932Y4903713D01*
X9707421Y4900927D01*
X9702953Y4900536D01*
X9681616Y4885595D01*
X9586378Y4790357D01*
X9585687Y4788876D01*
X9572329Y4770865D01*
X9524710Y4675627D01*
X9524303Y4672099D01*
X9519031Y4660276D01*
X9471412Y4469800D01*
X9471772Y4466352D01*
X9469173Y4451610D01*
X9469173Y4308753D01*
X9326316Y4308753D01*
X9326316Y5098038D01*
X12428696Y5098038D01*
X12428696Y3662324D01*
G37*
G36*
X12379938Y1162324D02*
G01*
X7802535Y1162324D01*
X7802535Y2382230D01*
X7945392Y2382230D01*
X7949213Y2356464D01*
X8282546Y1356464D01*
X8283888Y1354773D01*
X8283947Y1352614D01*
X8299696Y1334853D01*
X8314437Y1316278D01*
X8316550Y1315846D01*
X8317984Y1314229D01*
X8341454Y1310749D01*
X8364698Y1305992D01*
X8366597Y1307021D01*
X8368733Y1306704D01*
X8388946Y1319123D01*
X8409812Y1330421D01*
X8410605Y1332429D01*
X8412445Y1333559D01*
X8424848Y1356464D01*
X8496246Y1570658D01*
X8897745Y1570658D01*
X8899278Y1566445D01*
X8898237Y1562084D01*
X8905663Y1537117D01*
X8953282Y1441879D01*
X8954470Y1440754D01*
X8967330Y1422388D01*
X9014949Y1374768D01*
X9016430Y1374078D01*
X9034442Y1360718D01*
X9129680Y1313099D01*
X9134133Y1312587D01*
X9137569Y1309704D01*
X9163221Y1305181D01*
X9448935Y1305181D01*
X9453148Y1306715D01*
X9457509Y1305673D01*
X9482476Y1313099D01*
X9577714Y1360718D01*
X9578838Y1361906D01*
X9597207Y1374768D01*
X9644825Y1422387D01*
X9650397Y1434336D01*
X9850411Y1434336D01*
X9855453Y1415516D01*
X9857152Y1396104D01*
X9862825Y1388002D01*
X9863688Y1384781D01*
X9866419Y1382869D01*
X9872092Y1374767D01*
X9919711Y1327148D01*
X9937369Y1318915D01*
X9953333Y1307736D01*
X9956749Y1308035D01*
X9959720Y1306320D01*
X9963099Y1306916D01*
X9966207Y1305467D01*
X9985026Y1310510D01*
X10004440Y1312208D01*
X10008253Y1314878D01*
X10010244Y1315229D01*
X10012365Y1317758D01*
X10012542Y1317882D01*
X10015762Y1318744D01*
X10017673Y1321474D01*
X10025777Y1327148D01*
X10073396Y1374767D01*
X10081630Y1392426D01*
X10092807Y1408388D01*
X10092217Y1415131D01*
X10095077Y1421263D01*
X10090034Y1440082D01*
X10088337Y1459495D01*
X10082662Y1467600D01*
X10081800Y1470818D01*
X10079070Y1472730D01*
X10073396Y1480833D01*
X10025778Y1528452D01*
X10008120Y1536686D01*
X9992155Y1547865D01*
X9988738Y1547567D01*
X9985768Y1549281D01*
X9982388Y1548686D01*
X9979281Y1550134D01*
X9960461Y1545092D01*
X9941047Y1543393D01*
X9937233Y1540723D01*
X9935244Y1540372D01*
X9933122Y1537845D01*
X9932944Y1537720D01*
X9929726Y1536857D01*
X9927814Y1534128D01*
X9919710Y1528452D01*
X9872091Y1480832D01*
X9863857Y1463175D01*
X9852680Y1447211D01*
X9853270Y1440468D01*
X9850411Y1434336D01*
X9650397Y1434336D01*
X9666506Y1468884D01*
X9653228Y1518439D01*
X9611203Y1547865D01*
X9560095Y1543393D01*
X9538758Y1528452D01*
X9499745Y1489439D01*
X9431230Y1455181D01*
X9180926Y1455181D01*
X9112410Y1489439D01*
X9082003Y1519847D01*
X9056597Y1570658D01*
X10326316Y1570658D01*
X10327849Y1566445D01*
X10326808Y1562084D01*
X10334234Y1537117D01*
X10381853Y1441879D01*
X10383041Y1440754D01*
X10395901Y1422388D01*
X10443520Y1374768D01*
X10445001Y1374078D01*
X10463013Y1360718D01*
X10558251Y1313099D01*
X10562704Y1312587D01*
X10566140Y1309704D01*
X10591792Y1305181D01*
X10877506Y1305181D01*
X10881719Y1306715D01*
X10886080Y1305673D01*
X10911047Y1313099D01*
X11006285Y1360718D01*
X11007409Y1361906D01*
X11025778Y1374768D01*
X11073396Y1422387D01*
X11095077Y1468884D01*
X11081799Y1518439D01*
X11039774Y1547865D01*
X10988666Y1543393D01*
X10967329Y1528452D01*
X10928316Y1489439D01*
X10859801Y1455181D01*
X10609497Y1455181D01*
X10540981Y1489439D01*
X10510574Y1519847D01*
X10476316Y1588363D01*
X10476316Y1774158D01*
X11327455Y1774158D01*
X11336364Y1723634D01*
X11375664Y1690657D01*
X11401316Y1686134D01*
X11707268Y1686134D01*
X11707268Y1380181D01*
X11724815Y1331972D01*
X11769244Y1306320D01*
X11819768Y1315229D01*
X11852745Y1354529D01*
X11857268Y1380181D01*
X11857268Y1686134D01*
X12163220Y1686134D01*
X12211429Y1703681D01*
X12237081Y1748110D01*
X12228172Y1798634D01*
X12188872Y1831611D01*
X12163220Y1836134D01*
X11857268Y1836134D01*
X11857268Y2142086D01*
X11839721Y2190295D01*
X11795292Y2215947D01*
X11744768Y2207038D01*
X11711791Y2167738D01*
X11707268Y2142086D01*
X11707268Y1836134D01*
X11401316Y1836134D01*
X11353107Y1818587D01*
X11327455Y1774158D01*
X10476316Y1774158D01*
X10476316Y1791048D01*
X10510574Y1859564D01*
X10540981Y1889971D01*
X10609497Y1924229D01*
X10734649Y1924229D01*
X10753648Y1931145D01*
X10773485Y1935067D01*
X10777235Y1939730D01*
X10782858Y1941776D01*
X10792967Y1959286D01*
X10805642Y1975041D01*
X10805518Y1981024D01*
X10808510Y1986205D01*
X10804998Y2006119D01*
X10804580Y2026333D01*
X10800140Y2033667D01*
X10799601Y2036729D01*
X10796931Y2038969D01*
X10791092Y2048617D01*
X10566598Y2305181D01*
X11020363Y2305181D01*
X11068572Y2322728D01*
X11094224Y2367157D01*
X11085315Y2417681D01*
X11046015Y2450658D01*
X11020363Y2455181D01*
X10401316Y2455181D01*
X10382316Y2448266D01*
X10362480Y2444343D01*
X10358729Y2439681D01*
X10353107Y2437634D01*
X10342996Y2420123D01*
X10330323Y2404368D01*
X10330446Y2398387D01*
X10327455Y2393205D01*
X10330966Y2373292D01*
X10331385Y2353077D01*
X10335824Y2345744D01*
X10336364Y2342681D01*
X10339033Y2340442D01*
X10344873Y2330793D01*
X10572568Y2070570D01*
X10558251Y2066311D01*
X10463013Y2018692D01*
X10461887Y2017503D01*
X10443521Y2004643D01*
X10395902Y1957024D01*
X10395211Y1955543D01*
X10381853Y1937532D01*
X10334234Y1842294D01*
X10333721Y1837841D01*
X10330839Y1834405D01*
X10326316Y1808753D01*
X10326316Y1570658D01*
X9056597Y1570658D01*
X9047745Y1588363D01*
X9047745Y1791048D01*
X9082003Y1859564D01*
X9112410Y1889971D01*
X9180926Y1924229D01*
X9306078Y1924229D01*
X9325077Y1931145D01*
X9344914Y1935067D01*
X9348664Y1939730D01*
X9354287Y1941776D01*
X9364396Y1959286D01*
X9377071Y1975041D01*
X9376947Y1981024D01*
X9379939Y1986205D01*
X9376427Y2006119D01*
X9376009Y2026333D01*
X9371569Y2033667D01*
X9371030Y2036729D01*
X9368360Y2038969D01*
X9362521Y2048617D01*
X9138027Y2305181D01*
X9591792Y2305181D01*
X9640001Y2322728D01*
X9665653Y2367157D01*
X9656744Y2417681D01*
X9617444Y2450658D01*
X9591792Y2455181D01*
X8972745Y2455181D01*
X8953745Y2448266D01*
X8933909Y2444343D01*
X8930158Y2439681D01*
X8924536Y2437634D01*
X8914425Y2420123D01*
X8901752Y2404368D01*
X8901875Y2398387D01*
X8898884Y2393205D01*
X8902395Y2373292D01*
X8902814Y2353077D01*
X8907253Y2345744D01*
X8907793Y2342681D01*
X8910462Y2340442D01*
X8916302Y2330793D01*
X9143997Y2070570D01*
X9129680Y2066311D01*
X9034442Y2018692D01*
X9033316Y2017503D01*
X9014950Y2004643D01*
X8967331Y1957024D01*
X8966640Y1955543D01*
X8953282Y1937532D01*
X8905663Y1842294D01*
X8905150Y1837841D01*
X8902268Y1834405D01*
X8897745Y1808753D01*
X8897745Y1570658D01*
X8496246Y1570658D01*
X8758181Y2356464D01*
X8756780Y2407747D01*
X8722742Y2446133D01*
X8671994Y2453658D01*
X8628281Y2426803D01*
X8615879Y2403898D01*
X8353697Y1617352D01*
X8091515Y2403898D01*
X8059624Y2444084D01*
X8009363Y2454370D01*
X7964249Y2429941D01*
X7945392Y2382230D01*
X7802535Y2382230D01*
X7802535Y2598038D01*
X12379938Y2598038D01*
X12379938Y1162324D01*
G37*
M02*
