%TF.GenerationSoftware,KiCad,Pcbnew,9.0.6*%
%TF.CreationDate,2025-12-16T17:11:07+07:00*%
%TF.ProjectId,PICO_ADC_Test,5049434f-5f41-4444-935f-546573742e6b,R0.1*%
%TF.SameCoordinates,PX72ade90PY75c75e0*%
%TF.FileFunction,Soldermask,Bot*%
%TF.FilePolarity,Negative*%
%FSLAX46Y46*%
G04 Gerber Fmt 4.6, Leading zero omitted, Abs format (unit mm)*
G04 Created by KiCad (PCBNEW 9.0.6) date 2025-12-16 17:11:07*
%MOMM*%
%LPD*%
G01*
G04 APERTURE LIST*
%ADD10C,0.000000*%
%ADD11C,2.000000*%
%ADD12R,1.700000X1.700000*%
%ADD13O,1.700000X1.700000*%
%ADD14C,0.800000*%
%ADD15C,6.400000*%
%ADD16R,4.800000X4.900000*%
%ADD17O,1.800000X1.800000*%
%ADD18O,1.500000X1.500000*%
%ADD19C,1.000000*%
G04 APERTURE END LIST*
D10*
%TO.C,G\u002A\u002A\u002A*%
G36*
X58831310Y30370453D02*
G01*
X58853581Y30370350D01*
X58867731Y30370186D01*
X58872821Y30369960D01*
X58872823Y30369957D01*
X58873944Y30364841D01*
X58877049Y30350202D01*
X58882083Y30326301D01*
X58888991Y30293401D01*
X58897719Y30251765D01*
X58908212Y30201656D01*
X58920414Y30143335D01*
X58934272Y30077066D01*
X58949729Y30003111D01*
X58966733Y29921732D01*
X58985227Y29833192D01*
X59005157Y29737755D01*
X59026468Y29635681D01*
X59049105Y29527235D01*
X59073014Y29412678D01*
X59098139Y29292273D01*
X59124427Y29166283D01*
X59151821Y29034970D01*
X59180268Y28898596D01*
X59209713Y28757425D01*
X59240100Y28611719D01*
X59271374Y28461740D01*
X59303482Y28307751D01*
X59336369Y28150015D01*
X59369979Y27988794D01*
X59404257Y27824351D01*
X59439149Y27656948D01*
X59474601Y27486848D01*
X59510557Y27314313D01*
X59511305Y27310723D01*
X59547252Y27138244D01*
X59582698Y26968209D01*
X59617589Y26800881D01*
X59651869Y26636521D01*
X59685483Y26475393D01*
X59718377Y26317758D01*
X59750496Y26163879D01*
X59781784Y26014019D01*
X59812187Y25868440D01*
X59841650Y25727404D01*
X59870118Y25591174D01*
X59897536Y25460012D01*
X59923849Y25334180D01*
X59949002Y25213942D01*
X59972941Y25099560D01*
X59995610Y24991295D01*
X60016954Y24889410D01*
X60036919Y24794169D01*
X60055449Y24705832D01*
X60072490Y24624663D01*
X60087986Y24550925D01*
X60101884Y24484879D01*
X60114127Y24426787D01*
X60124661Y24376913D01*
X60133431Y24335519D01*
X60140383Y24302867D01*
X60145460Y24279220D01*
X60148609Y24264840D01*
X60149774Y24259989D01*
X60149792Y24260004D01*
X60151195Y24265355D01*
X60154581Y24280017D01*
X60159853Y24303544D01*
X60166915Y24335490D01*
X60175671Y24375409D01*
X60186023Y24422855D01*
X60197876Y24477381D01*
X60211133Y24538543D01*
X60225697Y24605892D01*
X60241472Y24678985D01*
X60258362Y24757373D01*
X60276270Y24840612D01*
X60295099Y24928255D01*
X60314753Y25019856D01*
X60335136Y25114969D01*
X60356152Y25213148D01*
X60377702Y25313947D01*
X60602904Y26367877D01*
X60880202Y26369127D01*
X61157500Y26370377D01*
X61379807Y25319812D01*
X61380277Y25317592D01*
X61401582Y25216962D01*
X61422356Y25118950D01*
X61442501Y25024003D01*
X61461923Y24932570D01*
X61480525Y24845097D01*
X61498211Y24762034D01*
X61514886Y24683829D01*
X61530453Y24610929D01*
X61544818Y24543783D01*
X61557884Y24482839D01*
X61569554Y24428544D01*
X61579734Y24381347D01*
X61588328Y24341697D01*
X61595239Y24310040D01*
X61600372Y24286825D01*
X61603631Y24272500D01*
X61604920Y24267513D01*
X61605466Y24270540D01*
X61607165Y24282976D01*
X61609951Y24304677D01*
X61613780Y24335274D01*
X61618606Y24374395D01*
X61624387Y24421670D01*
X61631076Y24476727D01*
X61638631Y24539195D01*
X61647006Y24608704D01*
X61656156Y24684883D01*
X61666038Y24767360D01*
X61676608Y24855764D01*
X61687820Y24949726D01*
X61699630Y25048872D01*
X61711994Y25152834D01*
X61724867Y25261239D01*
X61738205Y25373716D01*
X61751963Y25489896D01*
X61766098Y25609406D01*
X61780564Y25731875D01*
X61795317Y25856934D01*
X61982906Y27448090D01*
X62241688Y27449385D01*
X62500471Y27450680D01*
X62497604Y27434382D01*
X62496953Y27430189D01*
X62494856Y27416333D01*
X62491376Y27393203D01*
X62486565Y27361138D01*
X62480473Y27320480D01*
X62473151Y27271570D01*
X62464651Y27214748D01*
X62455022Y27150355D01*
X62444316Y27078732D01*
X62432584Y27000220D01*
X62419877Y26915160D01*
X62406246Y26823891D01*
X62391740Y26726756D01*
X62376413Y26624095D01*
X62360313Y26516249D01*
X62343493Y26403558D01*
X62326003Y26286364D01*
X62307894Y26165007D01*
X62289216Y26039828D01*
X62270022Y25911168D01*
X62250361Y25779367D01*
X62230285Y25644767D01*
X62209845Y25507708D01*
X62193790Y25400052D01*
X62173585Y25264570D01*
X62153771Y25131711D01*
X62134400Y25001822D01*
X62115523Y24875250D01*
X62097192Y24752339D01*
X62079459Y24633437D01*
X62062374Y24518889D01*
X62045991Y24409042D01*
X62030359Y24304242D01*
X62015532Y24204834D01*
X62001561Y24111165D01*
X61988496Y24023582D01*
X61976391Y23942429D01*
X61965296Y23868054D01*
X61955263Y23800803D01*
X61946344Y23741021D01*
X61938591Y23689054D01*
X61932054Y23645250D01*
X61926786Y23609954D01*
X61922839Y23583512D01*
X61920263Y23566270D01*
X61919111Y23558574D01*
X61913270Y23519816D01*
X61662040Y23519816D01*
X61410810Y23519816D01*
X61406225Y23541071D01*
X61404727Y23547940D01*
X61400311Y23567849D01*
X61393975Y23596142D01*
X61385836Y23632300D01*
X61376014Y23675805D01*
X61364625Y23726139D01*
X61351789Y23782784D01*
X61337624Y23845222D01*
X61322248Y23912934D01*
X61305778Y23985403D01*
X61288335Y24062110D01*
X61270034Y24142536D01*
X61250996Y24226165D01*
X61231338Y24312477D01*
X61211179Y24400955D01*
X61190636Y24491079D01*
X61169828Y24582333D01*
X61148873Y24674198D01*
X61127890Y24766155D01*
X61106996Y24857687D01*
X61086311Y24948276D01*
X61065951Y25037402D01*
X61046036Y25124548D01*
X61026684Y25209196D01*
X61008013Y25290828D01*
X60990140Y25368925D01*
X60973186Y25442969D01*
X60957267Y25512443D01*
X60942502Y25576827D01*
X60929009Y25635604D01*
X60916907Y25688255D01*
X60906313Y25734263D01*
X60897346Y25773109D01*
X60890125Y25804274D01*
X60884767Y25827242D01*
X60881391Y25841493D01*
X60880114Y25846509D01*
X60879665Y25845238D01*
X60877175Y25835619D01*
X60872620Y25816950D01*
X60866104Y25789686D01*
X60857734Y25754282D01*
X60847612Y25711192D01*
X60835845Y25660872D01*
X60822536Y25603775D01*
X60807791Y25540357D01*
X60791715Y25471073D01*
X60774411Y25396376D01*
X60755985Y25316722D01*
X60736542Y25232565D01*
X60716186Y25144360D01*
X60695023Y25052561D01*
X60673156Y24957624D01*
X60650690Y24860003D01*
X60627732Y24760153D01*
X60604384Y24658528D01*
X60580752Y24555584D01*
X60556940Y24451774D01*
X60533054Y24347553D01*
X60509198Y24243377D01*
X60485477Y24139699D01*
X60461996Y24036976D01*
X60438859Y23935660D01*
X60416171Y23836207D01*
X60394037Y23739072D01*
X60372562Y23644709D01*
X60351850Y23553573D01*
X60344184Y23519816D01*
X60093067Y23519816D01*
X59841949Y23519816D01*
X59099629Y26944241D01*
X58357308Y30368665D01*
X58614442Y30369960D01*
X58631022Y30370041D01*
X58679805Y30370247D01*
X58725165Y30370391D01*
X58766162Y30370473D01*
X58801857Y30370494D01*
X58831310Y30370453D01*
G37*
%TD*%
D11*
%TO.C,REF\u002A\u002A*%
X71000000Y52000000D03*
%TD*%
D12*
%TO.C,J4*%
X46700000Y51500000D03*
D13*
X49240000Y51500000D03*
X51780000Y51500000D03*
X54320000Y51500000D03*
%TD*%
D12*
%TO.C,J2*%
X10210000Y27250000D03*
D13*
X12750000Y27250000D03*
%TD*%
D14*
%TO.C,REF\u002A\u002A*%
X79100000Y3500000D03*
X79802944Y5197056D03*
X79802944Y1802944D03*
X81500000Y5900000D03*
D15*
X81500000Y3500000D03*
D14*
X81500000Y1100000D03*
X83197056Y5197056D03*
X83197056Y1802944D03*
X83900000Y3500000D03*
%TD*%
D12*
%TO.C,J3*%
X10210000Y45030000D03*
D13*
X10210000Y42490000D03*
X10210000Y39950000D03*
X10210000Y37410000D03*
X10210000Y34870000D03*
X10210000Y32330000D03*
%TD*%
D14*
%TO.C,REF\u002A\u002A*%
X1100000Y3500000D03*
X1802944Y5197056D03*
X1802944Y1802944D03*
X3500000Y5900000D03*
D15*
X3500000Y3500000D03*
D14*
X3500000Y1100000D03*
X5197056Y5197056D03*
X5197056Y1802944D03*
X5900000Y3500000D03*
%TD*%
D16*
%TO.C,J1*%
X75250000Y51175000D03*
X66750000Y51175000D03*
%TD*%
D14*
%TO.C,REF\u002A\u002A*%
X1100000Y50500000D03*
X1802944Y52197056D03*
X1802944Y48802944D03*
X3500000Y52900000D03*
D15*
X3500000Y50500000D03*
D14*
X3500000Y48100000D03*
X5197056Y52197056D03*
X5197056Y48802944D03*
X5900000Y50500000D03*
%TD*%
D12*
%TO.C,J5*%
X10210000Y50120000D03*
D13*
X12750000Y50120000D03*
%TD*%
D12*
%TO.C,J7*%
X10210000Y4390000D03*
D13*
X12750000Y4390000D03*
%TD*%
D17*
%TO.C,U2*%
X31225000Y2500000D03*
D18*
X30925000Y5530000D03*
X26075000Y5530000D03*
D17*
X25775000Y2500000D03*
%TD*%
D14*
%TO.C,REF\u002A\u002A*%
X79100000Y50500000D03*
X79802944Y52197056D03*
X79802944Y48802944D03*
X81500000Y52900000D03*
D15*
X81500000Y50500000D03*
D14*
X81500000Y48100000D03*
X83197056Y52197056D03*
X83197056Y48802944D03*
X83900000Y50500000D03*
%TD*%
D12*
%TO.C,J6*%
X12750000Y22170000D03*
D13*
X10210000Y22170000D03*
X12750000Y19630000D03*
X10210000Y19630000D03*
X12750000Y17090000D03*
X10210000Y17090000D03*
X12750000Y14550000D03*
X10210000Y14550000D03*
X12750000Y12010000D03*
X10210000Y12010000D03*
X12750000Y9470000D03*
X10210000Y9470000D03*
%TD*%
D19*
%TO.C,TP2*%
X48693324Y34000000D03*
%TD*%
%TO.C,TP1*%
X49550000Y35850000D03*
%TD*%
%TO.C,TP3*%
X49700000Y31900000D03*
%TD*%
%TO.C,TP4*%
X64750000Y33200000D03*
%TD*%
M02*
