%TF.GenerationSoftware,KiCad,Pcbnew,8.0.6*%
%TF.CreationDate,2024-11-15T11:21:47+07:00*%
%TF.ProjectId,MAX14866_PMOD,4d415831-3438-4363-965f-504d4f442e6b,rev?*%
%TF.SameCoordinates,Original*%
%TF.FileFunction,Soldermask,Top*%
%TF.FilePolarity,Negative*%
%FSLAX46Y46*%
G04 Gerber Fmt 4.6, Leading zero omitted, Abs format (unit mm)*
G04 Created by KiCad (PCBNEW 8.0.6) date 2024-11-15 11:21:47*
%MOMM*%
%LPD*%
G01*
G04 APERTURE LIST*
G04 Aperture macros list*
%AMRoundRect*
0 Rectangle with rounded corners*
0 $1 Rounding radius*
0 $2 $3 $4 $5 $6 $7 $8 $9 X,Y pos of 4 corners*
0 Add a 4 corners polygon primitive as box body*
4,1,4,$2,$3,$4,$5,$6,$7,$8,$9,$2,$3,0*
0 Add four circle primitives for the rounded corners*
1,1,$1+$1,$2,$3*
1,1,$1+$1,$4,$5*
1,1,$1+$1,$6,$7*
1,1,$1+$1,$8,$9*
0 Add four rect primitives between the rounded corners*
20,1,$1+$1,$2,$3,$4,$5,0*
20,1,$1+$1,$4,$5,$6,$7,0*
20,1,$1+$1,$6,$7,$8,$9,0*
20,1,$1+$1,$8,$9,$2,$3,0*%
G04 Aperture macros list end*
%ADD10C,2.000000*%
%ADD11R,0.700000X2.350000*%
%ADD12R,3.600000X4.875000*%
%ADD13R,3.500000X4.875000*%
%ADD14RoundRect,0.250000X-0.312500X-0.625000X0.312500X-0.625000X0.312500X0.625000X-0.312500X0.625000X0*%
%ADD15R,1.700000X1.700000*%
%ADD16O,1.700000X1.700000*%
%ADD17RoundRect,0.250000X0.625000X-0.312500X0.625000X0.312500X-0.625000X0.312500X-0.625000X-0.312500X0*%
%ADD18R,0.254000X0.812800*%
%ADD19R,0.812800X0.254000*%
%ADD20R,5.588000X5.588000*%
%ADD21RoundRect,0.250000X0.275000X0.700000X-0.275000X0.700000X-0.275000X-0.700000X0.275000X-0.700000X0*%
%ADD22RoundRect,0.250000X0.325000X0.650000X-0.325000X0.650000X-0.325000X-0.650000X0.325000X-0.650000X0*%
%ADD23R,0.300000X0.475000*%
%ADD24RoundRect,0.250000X0.650000X-0.325000X0.650000X0.325000X-0.650000X0.325000X-0.650000X-0.325000X0*%
%ADD25RoundRect,0.250000X-0.325000X-0.650000X0.325000X-0.650000X0.325000X0.650000X-0.325000X0.650000X0*%
G04 APERTURE END LIST*
D10*
%TO.C,REF\u002A\u002A*%
X26750000Y4250000D03*
%TD*%
D11*
%TO.C,J3*%
X26750000Y1250000D03*
D12*
X23450000Y2812500D03*
D13*
X30000000Y2812500D03*
%TD*%
D14*
%TO.C,R3*%
X27287500Y21250000D03*
X30212500Y21250000D03*
%TD*%
D15*
%TO.C,J7*%
X57710000Y3760000D03*
D16*
X60250000Y3760000D03*
%TD*%
D15*
%TO.C,J2*%
X57710000Y21540000D03*
D16*
X60250000Y21540000D03*
X57710000Y19000000D03*
X60250000Y19000000D03*
X57710000Y16460000D03*
X60250000Y16460000D03*
X57710000Y13920000D03*
X60250000Y13920000D03*
X57710000Y11380000D03*
X60250000Y11380000D03*
X57710000Y8840000D03*
X60250000Y8840000D03*
%TD*%
D17*
%TO.C,R4*%
X48500000Y16537500D03*
X48500000Y19462500D03*
%TD*%
D15*
%TO.C,J6*%
X5300000Y3720000D03*
D16*
X2760000Y3720000D03*
%TD*%
D17*
%TO.C,R5*%
X48500000Y11750000D03*
X48500000Y14675000D03*
%TD*%
D18*
%TO.C,U2*%
X20750000Y19204400D03*
X20250001Y19204400D03*
X19749999Y19204400D03*
X19250000Y19204400D03*
X18750001Y19204400D03*
X18250000Y19204400D03*
X17750000Y19204400D03*
X17249999Y19204400D03*
X16750000Y19204400D03*
X16250001Y19204400D03*
X15749999Y19204400D03*
X15250000Y19204400D03*
D19*
X14545600Y18500000D03*
X14545600Y18000001D03*
X14545600Y17499999D03*
X14545600Y17000000D03*
X14545600Y16500001D03*
X14545600Y16000000D03*
X14545600Y15500000D03*
X14545600Y14999999D03*
X14545600Y14500000D03*
X14545600Y14000001D03*
X14545600Y13499999D03*
X14545600Y13000000D03*
D18*
X15250000Y12295600D03*
X15749999Y12295600D03*
X16250001Y12295600D03*
X16750000Y12295600D03*
X17249999Y12295600D03*
X17750000Y12295600D03*
X18250000Y12295600D03*
X18750001Y12295600D03*
X19250000Y12295600D03*
X19749999Y12295600D03*
X20250001Y12295600D03*
X20750000Y12295600D03*
D19*
X21454400Y13000000D03*
X21454400Y13499999D03*
X21454400Y14000001D03*
X21454400Y14500000D03*
X21454400Y14999999D03*
X21454400Y15500000D03*
X21454400Y16000000D03*
X21454400Y16500001D03*
X21454400Y17000000D03*
X21454400Y17499999D03*
X21454400Y18000001D03*
X21454400Y18500000D03*
D20*
X18000000Y15750000D03*
%TD*%
D21*
%TO.C,L1*%
X54575000Y21750000D03*
X51425000Y21750000D03*
%TD*%
D10*
%TO.C,REF\u002A\u002A*%
X14250000Y4250000D03*
%TD*%
D22*
%TO.C,C3*%
X30179400Y15499999D03*
X27229400Y15499999D03*
%TD*%
D15*
%TO.C,J4*%
X5300000Y21500000D03*
D16*
X2760000Y21500000D03*
X5300000Y18960000D03*
X2760000Y18960000D03*
X5300000Y16420000D03*
X2760000Y16420000D03*
X5300000Y13880000D03*
X2760000Y13880000D03*
X5300000Y11340000D03*
X2760000Y11340000D03*
X5300000Y8800000D03*
X2760000Y8800000D03*
%TD*%
D23*
%TO.C,IC1*%
X51000000Y17412000D03*
X51500000Y17412000D03*
X52000000Y17412000D03*
X52000000Y19088000D03*
X51500000Y19088000D03*
X51000000Y19088000D03*
%TD*%
D24*
%TO.C,C6*%
X46000000Y16525000D03*
X46000000Y19475000D03*
%TD*%
D11*
%TO.C,J1*%
X14250000Y1250000D03*
D12*
X10950000Y2812500D03*
D13*
X17500000Y2812500D03*
%TD*%
D14*
%TO.C,R2*%
X27287500Y19000000D03*
X30212500Y19000000D03*
%TD*%
%TO.C,R1*%
X27287500Y13000000D03*
X30212500Y13000000D03*
%TD*%
D25*
%TO.C,C5*%
X45525000Y21750000D03*
X48475000Y21750000D03*
%TD*%
D22*
%TO.C,C2*%
X30225000Y10500000D03*
X27275000Y10500000D03*
%TD*%
D15*
%TO.C,J5*%
X53500000Y5040000D03*
D16*
X53500000Y2500000D03*
X50960000Y5040000D03*
X50960000Y2500000D03*
X48420000Y5040000D03*
X48420000Y2500000D03*
X45880000Y5040000D03*
X45880000Y2500000D03*
X43340000Y5040000D03*
X43340000Y2500000D03*
X40800000Y5040000D03*
X40800000Y2500000D03*
X38260000Y5040000D03*
X38260000Y2500000D03*
X35720000Y5040000D03*
X35720000Y2500000D03*
%TD*%
D24*
%TO.C,C4*%
X53500000Y11775000D03*
X53500000Y14725000D03*
%TD*%
M02*
