%TF.GenerationSoftware,KiCad,Pcbnew,8.0.6*%
%TF.CreationDate,2024-11-15T11:21:47+07:00*%
%TF.ProjectId,MAX14866_PMOD,4d415831-3438-4363-965f-504d4f442e6b,rev?*%
%TF.SameCoordinates,Original*%
%TF.FileFunction,Copper,L1,Top*%
%TF.FilePolarity,Positive*%
%FSLAX46Y46*%
G04 Gerber Fmt 4.6, Leading zero omitted, Abs format (unit mm)*
G04 Created by KiCad (PCBNEW 8.0.6) date 2024-11-15 11:21:47*
%MOMM*%
%LPD*%
G01*
G04 APERTURE LIST*
G04 Aperture macros list*
%AMRoundRect*
0 Rectangle with rounded corners*
0 $1 Rounding radius*
0 $2 $3 $4 $5 $6 $7 $8 $9 X,Y pos of 4 corners*
0 Add a 4 corners polygon primitive as box body*
4,1,4,$2,$3,$4,$5,$6,$7,$8,$9,$2,$3,0*
0 Add four circle primitives for the rounded corners*
1,1,$1+$1,$2,$3*
1,1,$1+$1,$4,$5*
1,1,$1+$1,$6,$7*
1,1,$1+$1,$8,$9*
0 Add four rect primitives between the rounded corners*
20,1,$1+$1,$2,$3,$4,$5,0*
20,1,$1+$1,$4,$5,$6,$7,0*
20,1,$1+$1,$6,$7,$8,$9,0*
20,1,$1+$1,$8,$9,$2,$3,0*%
G04 Aperture macros list end*
%TA.AperFunction,ComponentPad*%
%ADD10C,2.000000*%
%TD*%
%TA.AperFunction,SMDPad,CuDef*%
%ADD11R,0.700000X2.350000*%
%TD*%
%TA.AperFunction,SMDPad,CuDef*%
%ADD12R,3.600000X4.875000*%
%TD*%
%TA.AperFunction,SMDPad,CuDef*%
%ADD13R,3.500000X4.875000*%
%TD*%
%TA.AperFunction,SMDPad,CuDef*%
%ADD14RoundRect,0.250000X-0.312500X-0.625000X0.312500X-0.625000X0.312500X0.625000X-0.312500X0.625000X0*%
%TD*%
%TA.AperFunction,ComponentPad*%
%ADD15R,1.700000X1.700000*%
%TD*%
%TA.AperFunction,ComponentPad*%
%ADD16O,1.700000X1.700000*%
%TD*%
%TA.AperFunction,SMDPad,CuDef*%
%ADD17RoundRect,0.250000X0.625000X-0.312500X0.625000X0.312500X-0.625000X0.312500X-0.625000X-0.312500X0*%
%TD*%
%TA.AperFunction,SMDPad,CuDef*%
%ADD18R,0.254000X0.812800*%
%TD*%
%TA.AperFunction,SMDPad,CuDef*%
%ADD19R,0.812800X0.254000*%
%TD*%
%TA.AperFunction,SMDPad,CuDef*%
%ADD20R,5.588000X5.588000*%
%TD*%
%TA.AperFunction,SMDPad,CuDef*%
%ADD21RoundRect,0.250000X0.275000X0.700000X-0.275000X0.700000X-0.275000X-0.700000X0.275000X-0.700000X0*%
%TD*%
%TA.AperFunction,SMDPad,CuDef*%
%ADD22RoundRect,0.250000X0.325000X0.650000X-0.325000X0.650000X-0.325000X-0.650000X0.325000X-0.650000X0*%
%TD*%
%TA.AperFunction,SMDPad,CuDef*%
%ADD23R,0.300000X0.475000*%
%TD*%
%TA.AperFunction,SMDPad,CuDef*%
%ADD24RoundRect,0.250000X0.650000X-0.325000X0.650000X0.325000X-0.650000X0.325000X-0.650000X-0.325000X0*%
%TD*%
%TA.AperFunction,SMDPad,CuDef*%
%ADD25RoundRect,0.250000X-0.325000X-0.650000X0.325000X-0.650000X0.325000X0.650000X-0.325000X0.650000X0*%
%TD*%
%TA.AperFunction,ViaPad*%
%ADD26C,0.600000*%
%TD*%
%TA.AperFunction,Conductor*%
%ADD27C,0.500000*%
%TD*%
%TA.AperFunction,Conductor*%
%ADD28C,0.250000*%
%TD*%
%TA.AperFunction,Conductor*%
%ADD29C,0.300000*%
%TD*%
%TA.AperFunction,Conductor*%
%ADD30C,1.000000*%
%TD*%
G04 APERTURE END LIST*
D10*
%TO.P,REF\u002A\u002A,1*%
%TO.N,Net-(U2-COM0)*%
X26750000Y4250000D03*
%TD*%
D11*
%TO.P,J3,1,1*%
%TO.N,Net-(U2-COM0)*%
X26750000Y1250000D03*
D12*
%TO.P,J3,2,2*%
%TO.N,GND*%
X23450000Y2812500D03*
D13*
X30000000Y2812500D03*
%TD*%
D14*
%TO.P,R3,1*%
%TO.N,/CLR*%
X27287500Y21250000D03*
%TO.P,R3,2*%
%TO.N,+3.3V*%
X30212500Y21250000D03*
%TD*%
D15*
%TO.P,J7,1,Pin_1*%
%TO.N,+5V*%
X57710000Y3760000D03*
D16*
%TO.P,J7,2,Pin_2*%
%TO.N,GND*%
X60250000Y3760000D03*
%TD*%
D15*
%TO.P,J2,1,1*%
%TO.N,+3.3V*%
X57710000Y21540000D03*
D16*
%TO.P,J2,2,2*%
X60250000Y21540000D03*
%TO.P,J2,3,3*%
%TO.N,GND*%
X57710000Y19000000D03*
%TO.P,J2,4,4*%
X60250000Y19000000D03*
%TO.P,J2,5,5*%
%TO.N,/SET*%
X57710000Y16460000D03*
%TO.P,J2,6,6*%
%TO.N,/CLR*%
X60250000Y16460000D03*
%TO.P,J2,7,7*%
%TO.N,/\u002ALE*%
X57710000Y13920000D03*
%TO.P,J2,8,8*%
%TO.N,unconnected-(J2-Pad8)*%
X60250000Y13920000D03*
%TO.P,J2,9,9*%
%TO.N,/CLK*%
X57710000Y11380000D03*
%TO.P,J2,10,10*%
%TO.N,unconnected-(J2-Pad10)*%
X60250000Y11380000D03*
%TO.P,J2,11,11*%
%TO.N,/DIN*%
X57710000Y8840000D03*
%TO.P,J2,12,12*%
%TO.N,unconnected-(J2-Pad12)*%
X60250000Y8840000D03*
%TD*%
D17*
%TO.P,R4,1*%
%TO.N,Net-(IC1-FB)*%
X48500000Y16537500D03*
%TO.P,R4,2*%
%TO.N,+5V*%
X48500000Y19462500D03*
%TD*%
D15*
%TO.P,J6,1,Pin_1*%
%TO.N,+5V*%
X5300000Y3720000D03*
D16*
%TO.P,J6,2,Pin_2*%
%TO.N,GND*%
X2760000Y3720000D03*
%TD*%
D17*
%TO.P,R5,1*%
%TO.N,GND*%
X48500000Y11750000D03*
%TO.P,R5,2*%
%TO.N,Net-(IC1-FB)*%
X48500000Y14675000D03*
%TD*%
D18*
%TO.P,U2,1,COM0*%
%TO.N,Net-(U2-COM0)*%
X20750000Y19204400D03*
%TO.P,U2,2,NO0*%
%TO.N,/TR1*%
X20250001Y19204400D03*
%TO.P,U2,3,COM1*%
%TO.N,Net-(U2-COM1)*%
X19749999Y19204400D03*
%TO.P,U2,4,NO1*%
%TO.N,/TR1*%
X19250000Y19204400D03*
%TO.P,U2,5,COM2*%
%TO.N,Net-(U2-COM0)*%
X18750001Y19204400D03*
%TO.P,U2,6,NO2*%
%TO.N,/TR2*%
X18250000Y19204400D03*
%TO.P,U2,7,COM3*%
%TO.N,Net-(U2-COM1)*%
X17750000Y19204400D03*
%TO.P,U2,8,NO3*%
%TO.N,/TR2*%
X17249999Y19204400D03*
%TO.P,U2,9,GND*%
%TO.N,GND*%
X16750000Y19204400D03*
%TO.P,U2,10,GND*%
X16250001Y19204400D03*
%TO.P,U2,11,COM4*%
%TO.N,Net-(U2-COM0)*%
X15749999Y19204400D03*
%TO.P,U2,12,NO4*%
%TO.N,/TR3*%
X15250000Y19204400D03*
D19*
%TO.P,U2,13,COM5*%
%TO.N,Net-(U2-COM1)*%
X14545600Y18500000D03*
%TO.P,U2,14,NO5*%
%TO.N,/TR3*%
X14545600Y18000001D03*
%TO.P,U2,15,COM6*%
%TO.N,Net-(U2-COM0)*%
X14545600Y17499999D03*
%TO.P,U2,16,NO6*%
%TO.N,/TR4*%
X14545600Y17000000D03*
%TO.P,U2,17,COM7*%
%TO.N,Net-(U2-COM1)*%
X14545600Y16500001D03*
%TO.P,U2,18,NO7*%
%TO.N,/TR4*%
X14545600Y16000000D03*
%TO.P,U2,19,NO8*%
%TO.N,/TR5*%
X14545600Y15500000D03*
%TO.P,U2,20,COM8*%
%TO.N,Net-(U2-COM0)*%
X14545600Y14999999D03*
%TO.P,U2,21,NO9*%
%TO.N,/TR5*%
X14545600Y14500000D03*
%TO.P,U2,22,COM9*%
%TO.N,Net-(U2-COM1)*%
X14545600Y14000001D03*
%TO.P,U2,23,NO10*%
%TO.N,/TR6*%
X14545600Y13499999D03*
%TO.P,U2,24,COM10*%
%TO.N,Net-(U2-COM0)*%
X14545600Y13000000D03*
D18*
%TO.P,U2,25,NO11*%
%TO.N,/TR6*%
X15250000Y12295600D03*
%TO.P,U2,26,COM11*%
%TO.N,Net-(U2-COM1)*%
X15749999Y12295600D03*
%TO.P,U2,27,GND*%
%TO.N,GND*%
X16250001Y12295600D03*
%TO.P,U2,28,GND*%
X16750000Y12295600D03*
%TO.P,U2,29,NO12*%
%TO.N,/TR7*%
X17249999Y12295600D03*
%TO.P,U2,30,COM12*%
%TO.N,Net-(U2-COM0)*%
X17750000Y12295600D03*
%TO.P,U2,31,NO13*%
%TO.N,/TR7*%
X18250000Y12295600D03*
%TO.P,U2,32,COM13*%
%TO.N,Net-(U2-COM1)*%
X18750001Y12295600D03*
%TO.P,U2,33,NO14*%
%TO.N,/TR8*%
X19250000Y12295600D03*
%TO.P,U2,34,COM14*%
%TO.N,Net-(U2-COM0)*%
X19749999Y12295600D03*
%TO.P,U2,35,NO15*%
%TO.N,/TR8*%
X20250001Y12295600D03*
%TO.P,U2,36,COM15*%
%TO.N,Net-(U2-COM1)*%
X20750000Y12295600D03*
D19*
%TO.P,U2,37,GND*%
%TO.N,GND*%
X21454400Y13000000D03*
%TO.P,U2,38,\u002ALE*%
%TO.N,/\u002ALE*%
X21454400Y13499999D03*
%TO.P,U2,39,DOUT*%
%TO.N,/DOUT*%
X21454400Y14000001D03*
%TO.P,U2,40,VDD*%
%TO.N,+3.3V*%
X21454400Y14500000D03*
%TO.P,U2,41,GND*%
%TO.N,GND*%
X21454400Y14999999D03*
%TO.P,U2,42,GND*%
X21454400Y15500000D03*
%TO.P,U2,43,VCC*%
%TO.N,Net-(U2-VCC)*%
X21454400Y16000000D03*
%TO.P,U2,44,DIN*%
%TO.N,/DIN*%
X21454400Y16500001D03*
%TO.P,U2,45,CLK*%
%TO.N,/CLK*%
X21454400Y17000000D03*
%TO.P,U2,46,SET*%
%TO.N,/SET*%
X21454400Y17499999D03*
%TO.P,U2,47,CLR*%
%TO.N,/CLR*%
X21454400Y18000001D03*
%TO.P,U2,48,GND*%
%TO.N,GND*%
X21454400Y18500000D03*
D20*
%TO.P,U2,49,EPAD*%
X18000000Y15750000D03*
%TD*%
D21*
%TO.P,L1,1,1*%
%TO.N,+3.3V*%
X54575000Y21750000D03*
%TO.P,L1,2,2*%
%TO.N,Net-(IC1-SW)*%
X51425000Y21750000D03*
%TD*%
D10*
%TO.P,REF\u002A\u002A,1*%
%TO.N,Net-(U2-COM1)*%
X14250000Y4250000D03*
%TD*%
D22*
%TO.P,C3,1*%
%TO.N,GND*%
X30179400Y15499999D03*
%TO.P,C3,2*%
%TO.N,Net-(U2-VCC)*%
X27229400Y15499999D03*
%TD*%
D15*
%TO.P,J4,1,1*%
%TO.N,+3.3V*%
X5300000Y21500000D03*
D16*
%TO.P,J4,2,2*%
X2760000Y21500000D03*
%TO.P,J4,3,3*%
%TO.N,GND*%
X5300000Y18960000D03*
%TO.P,J4,4,4*%
X2760000Y18960000D03*
%TO.P,J4,5,5*%
%TO.N,/SET*%
X5300000Y16420000D03*
%TO.P,J4,6,6*%
%TO.N,/CLR*%
X2760000Y16420000D03*
%TO.P,J4,7,7*%
%TO.N,/\u002ALE*%
X5300000Y13880000D03*
%TO.P,J4,8,8*%
%TO.N,unconnected-(J4-Pad8)*%
X2760000Y13880000D03*
%TO.P,J4,9,9*%
%TO.N,/CLK*%
X5300000Y11340000D03*
%TO.P,J4,10,10*%
%TO.N,unconnected-(J4-Pad10)*%
X2760000Y11340000D03*
%TO.P,J4,11,11*%
%TO.N,/DOUT*%
X5300000Y8800000D03*
%TO.P,J4,12,12*%
%TO.N,unconnected-(J4-Pad12)*%
X2760000Y8800000D03*
%TD*%
D23*
%TO.P,IC1,1,FB*%
%TO.N,Net-(IC1-FB)*%
X51000000Y17412000D03*
%TO.P,IC1,2,EN*%
%TO.N,+3.3V*%
X51500000Y17412000D03*
%TO.P,IC1,3,VIN*%
X52000000Y17412000D03*
%TO.P,IC1,4,GND*%
%TO.N,GND*%
X52000000Y19088000D03*
%TO.P,IC1,5,SW*%
%TO.N,Net-(IC1-SW)*%
X51500000Y19088000D03*
%TO.P,IC1,6,VOUT*%
%TO.N,+5V*%
X51000000Y19088000D03*
%TD*%
D24*
%TO.P,C6,1*%
%TO.N,GND*%
X46000000Y16525000D03*
%TO.P,C6,2*%
%TO.N,+5V*%
X46000000Y19475000D03*
%TD*%
D11*
%TO.P,J1,1,1*%
%TO.N,Net-(U2-COM1)*%
X14250000Y1250000D03*
D12*
%TO.P,J1,2,2*%
%TO.N,GND*%
X10950000Y2812500D03*
D13*
X17500000Y2812500D03*
%TD*%
D14*
%TO.P,R2,1*%
%TO.N,/SET*%
X27287500Y19000000D03*
%TO.P,R2,2*%
%TO.N,+3.3V*%
X30212500Y19000000D03*
%TD*%
%TO.P,R1,1*%
%TO.N,Net-(U2-VCC)*%
X27287500Y13000000D03*
%TO.P,R1,2*%
%TO.N,+5V*%
X30212500Y13000000D03*
%TD*%
D25*
%TO.P,C5,1*%
%TO.N,GND*%
X45525000Y21750000D03*
%TO.P,C5,2*%
%TO.N,+5V*%
X48475000Y21750000D03*
%TD*%
D22*
%TO.P,C2,1*%
%TO.N,GND*%
X30225000Y10500000D03*
%TO.P,C2,2*%
%TO.N,+3.3V*%
X27275000Y10500000D03*
%TD*%
D15*
%TO.P,J5,1,Pin_1*%
%TO.N,/TR1*%
X53500000Y5040000D03*
D16*
%TO.P,J5,2,Pin_2*%
%TO.N,GND*%
X53500000Y2500000D03*
%TO.P,J5,3,Pin_3*%
%TO.N,/TR2*%
X50960000Y5040000D03*
%TO.P,J5,4,Pin_4*%
%TO.N,GND*%
X50960000Y2500000D03*
%TO.P,J5,5,Pin_5*%
%TO.N,/TR3*%
X48420000Y5040000D03*
%TO.P,J5,6,Pin_6*%
%TO.N,GND*%
X48420000Y2500000D03*
%TO.P,J5,7,Pin_7*%
%TO.N,/TR4*%
X45880000Y5040000D03*
%TO.P,J5,8,Pin_8*%
%TO.N,GND*%
X45880000Y2500000D03*
%TO.P,J5,9,Pin_9*%
%TO.N,/TR5*%
X43340000Y5040000D03*
%TO.P,J5,10,Pin_10*%
%TO.N,GND*%
X43340000Y2500000D03*
%TO.P,J5,11,Pin_11*%
%TO.N,/TR6*%
X40800000Y5040000D03*
%TO.P,J5,12,Pin_12*%
%TO.N,GND*%
X40800000Y2500000D03*
%TO.P,J5,13,Pin_13*%
%TO.N,/TR7*%
X38260000Y5040000D03*
%TO.P,J5,14,Pin_14*%
%TO.N,GND*%
X38260000Y2500000D03*
%TO.P,J5,15,Pin_15*%
%TO.N,/TR8*%
X35720000Y5040000D03*
%TO.P,J5,16,Pin_16*%
%TO.N,GND*%
X35720000Y2500000D03*
%TD*%
D24*
%TO.P,C4,1*%
%TO.N,GND*%
X53500000Y11775000D03*
%TO.P,C4,2*%
%TO.N,+3.3V*%
X53500000Y14725000D03*
%TD*%
D26*
%TO.N,GND*%
X33750000Y5500000D03*
X20500000Y5250000D03*
X5000000Y6500000D03*
%TO.N,+3.3V*%
X31650000Y22900000D03*
%TO.N,GND*%
X52150000Y10500000D03*
X18200000Y17950000D03*
X20350000Y17950000D03*
X7750000Y17250000D03*
X8000000Y2750000D03*
X8000000Y1500000D03*
X7750000Y18750000D03*
X51150000Y10500000D03*
X9750000Y21750000D03*
X22250000Y19600000D03*
X25200000Y21850000D03*
X20500000Y4000000D03*
X7750000Y20250000D03*
X15950000Y17950000D03*
X7750000Y21750000D03*
X3500000Y6500000D03*
X23850000Y21850000D03*
X43750000Y16950000D03*
X1000000Y2750000D03*
X55550000Y5550000D03*
X53250000Y19088000D03*
X11500000Y21750000D03*
X50300000Y11750000D03*
X32750000Y1300000D03*
X22600000Y21850000D03*
X31800000Y21450000D03*
X43950000Y21450000D03*
X1000000Y4250000D03*
X16000000Y17050000D03*
X46500000Y14750000D03*
X40150000Y21450000D03*
X13750000Y21750000D03*
X19300000Y17950000D03*
X17000000Y17050000D03*
X17000000Y17950000D03*
X43050000Y14050000D03*
X41900000Y21450000D03*
X56000000Y1750000D03*
X33100000Y21450000D03*
X19300000Y17050000D03*
X62000000Y1750000D03*
X56050000Y8300000D03*
X44500000Y12500000D03*
X7750000Y16000000D03*
X23050000Y20950000D03*
X1000000Y1500000D03*
X41400000Y16950000D03*
X8000000Y4250000D03*
X32750000Y2500000D03*
X46500000Y11000000D03*
X39150000Y16950000D03*
X31500000Y17000000D03*
X18200000Y17050000D03*
X59000000Y1750000D03*
X1000000Y5750000D03*
X20500000Y2500000D03*
X32750000Y4000000D03*
X20350000Y17050000D03*
X20500000Y1300000D03*
X52750000Y20250000D03*
X33000000Y17000000D03*
%TO.N,+5V*%
X42600000Y15700000D03*
X36250000Y7750000D03*
%TO.N,Net-(U2-COM1)*%
X17500000Y20500000D03*
X20000000Y20500000D03*
X13750000Y19000000D03*
X11850000Y12450000D03*
X12250000Y16750000D03*
%TO.N,/DIN*%
X25350000Y18000000D03*
%TO.N,/CLR*%
X32750000Y10000000D03*
X25350000Y20200000D03*
X36200000Y19400000D03*
%TO.N,/\u002ALE*%
X36000000Y12650000D03*
X23150000Y12500000D03*
X33250000Y9250000D03*
X40050000Y9000000D03*
%TO.N,/SET*%
X24600000Y19500000D03*
X35500000Y20100000D03*
X32000000Y10500000D03*
%TO.N,/CLK*%
X24700000Y18600000D03*
X32750000Y8500000D03*
X37850000Y18700000D03*
%TO.N,Net-(U2-COM0)*%
X22250000Y10000000D03*
X17450000Y10800000D03*
X11200000Y19700000D03*
X19950000Y10750000D03*
X13450000Y12150000D03*
X21650000Y20850000D03*
X12250000Y14750000D03*
%TO.N,/DOUT*%
X29750000Y7750000D03*
%TO.N,/TR6*%
X13900000Y11300000D03*
%TO.N,/TR3*%
X12750000Y19250000D03*
%TO.N,/TR4*%
X11500000Y17750000D03*
%TO.N,/TR2*%
X16500000Y20350000D03*
%TO.N,/TR8*%
X20950000Y10700000D03*
%TO.N,/TR5*%
X10950000Y13100000D03*
%TO.N,/TR1*%
X20800000Y20850000D03*
%TO.N,/TR7*%
X16550000Y11100000D03*
%TD*%
D27*
%TO.N,+5V*%
X36250000Y8750000D02*
X36250000Y7750000D01*
X42600000Y15100000D02*
X36250000Y8750000D01*
X42600000Y15700000D02*
X42600000Y15100000D01*
D28*
%TO.N,/CLK*%
X36750000Y17600000D02*
X37850000Y18700000D01*
X34250000Y9750000D02*
X36750000Y12250000D01*
X34250000Y8775000D02*
X34250000Y9750000D01*
X33975000Y8500000D02*
X34250000Y8775000D01*
X36750000Y12250000D02*
X36750000Y17600000D01*
X32750000Y8500000D02*
X33975000Y8500000D01*
%TO.N,Net-(U2-COM1)*%
X14250000Y10250001D02*
X14000000Y10500001D01*
X14250000Y10000000D02*
X14250000Y10250001D01*
X14000000Y10500001D02*
X14250000Y10500001D01*
X12949999Y10500001D02*
X14000000Y10500001D01*
X14500000Y10500001D02*
X15749999Y10500001D01*
X14250000Y10250001D02*
X14500000Y10500001D01*
X14250000Y10500001D02*
X14500000Y10500001D01*
X14250000Y10000000D02*
X14250000Y10500001D01*
X14250000Y1750000D02*
X14250000Y10000000D01*
D27*
%TO.N,+3.3V*%
X27250000Y10500000D02*
X27275000Y10500000D01*
D29*
X51500000Y16650000D02*
X51500000Y17331000D01*
D28*
X24450000Y14500000D02*
X21454400Y14500000D01*
D27*
X25000000Y14500000D02*
X25500000Y14000000D01*
X30212500Y21250000D02*
X30212500Y19000000D01*
X27275000Y10500000D02*
X28250000Y10500000D01*
X28750000Y11000000D02*
X28750000Y17500000D01*
X28250000Y10500000D02*
X28750000Y11000000D01*
X30212500Y21462500D02*
X30212500Y21250000D01*
X24450000Y14500000D02*
X25000000Y14500000D01*
D29*
X53331000Y17500000D02*
X51669000Y17500000D01*
D28*
X27275000Y10675000D02*
X27275000Y10500000D01*
D27*
X25500000Y14000000D02*
X25500000Y12250000D01*
X30212500Y18962500D02*
X30212500Y19000000D01*
X60250000Y21725000D02*
X57710000Y21725000D01*
X31650000Y22900000D02*
X30212500Y21462500D01*
X28750000Y17500000D02*
X30212500Y18962500D01*
X25500000Y12250000D02*
X27250000Y10500000D01*
%TO.N,GND*%
X19000000Y3656250D02*
X19000000Y7143750D01*
X22243750Y4000000D02*
X18756250Y4000000D01*
D28*
X16750000Y19204400D02*
X16750000Y17000000D01*
X16250001Y19204400D02*
X16250001Y17499999D01*
D27*
X10637500Y2500000D02*
X7150000Y2500000D01*
X34493750Y750000D02*
X31006250Y750000D01*
X17500000Y3312500D02*
X17500000Y6800000D01*
D30*
X30000000Y3262500D02*
X30000000Y4400000D01*
D27*
X22243750Y750000D02*
X18756250Y750000D01*
D28*
X21454400Y14999999D02*
X18750001Y14999999D01*
X21454400Y15500000D02*
X18250000Y15500000D01*
X16250001Y12295600D02*
X16250001Y14000001D01*
D27*
X24050000Y3256250D02*
X24050000Y6743750D01*
D28*
X21454400Y18500000D02*
X21800000Y18500000D01*
X21850000Y13000000D02*
X22000000Y12850000D01*
D27*
X33850000Y2500000D02*
X30956250Y2500000D01*
X9743750Y750000D02*
X6256250Y750000D01*
D28*
X21454400Y13000000D02*
X20750000Y13000000D01*
X20750000Y13000000D02*
X18000000Y15750000D01*
X16750000Y12295600D02*
X16750000Y14500000D01*
D27*
X22243750Y2500000D02*
X18756250Y2500000D01*
D30*
X30000000Y4400000D02*
X27400000Y7000000D01*
D27*
X21900000Y3206250D02*
X21900000Y6693750D01*
D28*
X21800000Y18500000D02*
X22050000Y18750000D01*
X22000000Y12850000D02*
X22000000Y11950000D01*
X22050000Y18750000D02*
X22050000Y19550000D01*
D27*
X52150000Y19088000D02*
X53400000Y19088000D01*
X16000000Y3356250D02*
X16000000Y6843750D01*
X10800000Y7650000D02*
X10800000Y4162500D01*
D30*
X27400000Y7000000D02*
X27350000Y7000000D01*
D28*
X22000000Y11950000D02*
X22600000Y11350000D01*
D27*
X12500000Y7400000D02*
X12500000Y3912500D01*
D28*
X21454400Y13000000D02*
X21850000Y13000000D01*
X19925000Y17675000D02*
X19575000Y17325000D01*
X21454400Y18500000D02*
X20750000Y18500000D01*
X20750000Y18500000D02*
X19925000Y17675000D01*
%TO.N,Net-(U2-VCC)*%
X27229399Y15500000D02*
X27229400Y15499999D01*
D27*
X27287500Y13000000D02*
X27287500Y15441899D01*
D28*
X27287500Y15441899D02*
X27229400Y15499999D01*
X23750000Y16000000D02*
X21454400Y16000000D01*
D27*
X24000000Y15750000D02*
X24250000Y15500000D01*
X24250000Y15500000D02*
X27229399Y15500000D01*
D28*
X24000000Y15750000D02*
X23750000Y16000000D01*
D27*
%TO.N,+5V*%
X30212500Y13000000D02*
X32850000Y13000000D01*
X43200000Y20100000D02*
X43800000Y20100000D01*
X48874500Y19088000D02*
X48500000Y19462500D01*
X44425000Y19475000D02*
X46000000Y19475000D01*
X42600000Y19500000D02*
X42000000Y20100000D01*
X42800000Y20100000D02*
X43200000Y20100000D01*
X46000000Y19475000D02*
X48487500Y19475000D01*
X35050000Y21150000D02*
X36000000Y21150000D01*
X48475000Y19487500D02*
X48500000Y19462500D01*
X34400000Y14550000D02*
X34400000Y20500000D01*
X42600000Y19500000D02*
X42600000Y20050000D01*
X48475000Y21750000D02*
X48475000Y19487500D01*
X43800000Y20100000D02*
X44425000Y19475000D01*
X32850000Y13000000D02*
X34400000Y14550000D01*
X50850000Y19088000D02*
X48724500Y19088000D01*
X42600000Y20050000D02*
X42550000Y20100000D01*
X42600000Y15700000D02*
X42600000Y19500000D01*
X48487500Y19475000D02*
X48500000Y19462500D01*
X42000000Y20100000D02*
X42800000Y20100000D01*
X36000000Y21150000D02*
X37050000Y20100000D01*
X42600000Y19500000D02*
X43200000Y20100000D01*
X34400000Y20500000D02*
X35050000Y21150000D01*
X37050000Y20100000D02*
X42000000Y20100000D01*
D28*
%TO.N,Net-(IC1-SW)*%
X51500000Y19088000D02*
X51500000Y21675000D01*
X51500000Y21675000D02*
X51425000Y21750000D01*
%TO.N,Net-(IC1-FB)*%
X49374500Y17412000D02*
X48500000Y16537500D01*
X51000000Y17412000D02*
X49374500Y17412000D01*
X48500000Y16537500D02*
X48500000Y14675000D01*
%TO.N,Net-(U2-COM1)*%
X19000000Y9550000D02*
X20800000Y9550000D01*
X21650000Y10400000D02*
X21650000Y11100000D01*
X21650000Y11100000D02*
X20752001Y11997999D01*
X13750000Y19000000D02*
X14247999Y18502001D01*
X20752001Y11997999D02*
X20752001Y12295600D01*
X11850000Y11600000D02*
X12949999Y10500001D01*
X14247999Y18502001D02*
X14250000Y18502001D01*
X11850000Y12450000D02*
X11850000Y11600000D01*
X18750001Y9600001D02*
X18750001Y9750000D01*
X18500000Y9550000D02*
X18700000Y9550000D01*
X18750001Y9550000D02*
X19000000Y9550000D01*
X15749999Y10500001D02*
X15749999Y10150001D01*
X19749999Y20249999D02*
X20000000Y20500000D01*
X18750001Y9750000D02*
X18700000Y9750000D01*
X18700000Y9550000D02*
X18750001Y9600001D01*
X15749999Y12295600D02*
X15749999Y11249999D01*
X12499999Y16500001D02*
X12250000Y16750000D01*
X18750001Y9750000D02*
X18800000Y9750000D01*
X20800000Y9550000D02*
X21650000Y10400000D01*
X14545600Y16500001D02*
X12499999Y16500001D01*
X15749999Y11249999D02*
X15749999Y10500001D01*
X17750000Y20250000D02*
X17750000Y19204400D01*
X17500000Y20500000D02*
X17750000Y20250000D01*
X18800000Y9750000D02*
X19000000Y9550000D01*
X15749999Y10150001D02*
X16350000Y9550000D01*
X14250000Y18502001D02*
X14252001Y18500000D01*
X18750001Y9750000D02*
X18750001Y12295600D01*
X13400001Y14000001D02*
X14545600Y14000001D01*
X18700000Y9750000D02*
X18500000Y9550000D01*
X11850000Y12450000D02*
X13400001Y14000001D01*
X19749999Y19204400D02*
X19749999Y20249999D01*
X16350000Y9550000D02*
X18500000Y9550000D01*
X14252001Y18500000D02*
X14545600Y18500000D01*
%TO.N,/DIN*%
X23850001Y16500001D02*
X21454400Y16500001D01*
X25350000Y18000000D02*
X23850001Y16500001D01*
%TO.N,/CLR*%
X36200000Y13950000D02*
X36200000Y19400000D01*
X25350000Y20200000D02*
X26400000Y21250000D01*
X22100001Y18000001D02*
X21454400Y18000001D01*
X24300000Y20200000D02*
X22100001Y18000001D01*
X26400000Y21250000D02*
X27287500Y21250000D01*
X25350000Y20200000D02*
X24300000Y20200000D01*
X32750000Y10500000D02*
X36200000Y13950000D01*
X32750000Y10000000D02*
X32750000Y10500000D01*
%TO.N,/\u002ALE*%
X23150000Y12500000D02*
X23150000Y13100000D01*
X56000000Y10950000D02*
X56000000Y12210000D01*
X35650000Y12650000D02*
X36000000Y12650000D01*
X33525000Y10525000D02*
X35650000Y12650000D01*
X54050000Y9000000D02*
X56000000Y10950000D01*
X40050000Y9000000D02*
X54050000Y9000000D01*
X33250000Y9250000D02*
X33525000Y9525000D01*
X22750001Y13499999D02*
X21454400Y13499999D01*
X56000000Y12210000D02*
X57710000Y13920000D01*
X33525000Y9525000D02*
X33525000Y10525000D01*
X23150000Y13100000D02*
X22750001Y13499999D01*
%TO.N,/SET*%
X32000000Y10500000D02*
X32000000Y10525000D01*
X24600000Y19500000D02*
X26787500Y19500000D01*
X22599999Y17499999D02*
X21454400Y17499999D01*
X26787500Y19500000D02*
X27287500Y19000000D01*
X35500000Y14025000D02*
X35500000Y20100000D01*
X24600000Y19500000D02*
X22599999Y17499999D01*
X32000000Y10525000D02*
X35500000Y14025000D01*
%TO.N,/CLK*%
X24700000Y18600000D02*
X23100000Y17000000D01*
X23100000Y17000000D02*
X21454400Y17000000D01*
%TO.N,Net-(U2-COM0)*%
X11400000Y18700000D02*
X12050000Y18700000D01*
X11200000Y19700000D02*
X11200000Y18900000D01*
X15250000Y20500000D02*
X15752000Y19998000D01*
X12499999Y14999999D02*
X14545600Y14999999D01*
X13250001Y17499999D02*
X14545600Y17499999D01*
X17750000Y11100000D02*
X17750000Y12295600D01*
X19950000Y10750000D02*
X19749999Y10950001D01*
X21650000Y21250000D02*
X21150000Y21750000D01*
X22250000Y10000000D02*
X26750000Y5500000D01*
X12050000Y18700000D02*
X13250001Y17499999D01*
X21650000Y20850000D02*
X21650000Y20450000D01*
X26750000Y5500000D02*
X26750000Y1700000D01*
X15235800Y20485800D02*
X15250000Y20500000D01*
X11200000Y19700000D02*
X12150000Y19700000D01*
X21650000Y20450000D02*
X20750000Y19550000D01*
X11200000Y18900000D02*
X11400000Y18700000D01*
X12250000Y14750000D02*
X12499999Y14999999D01*
X19749999Y10950001D02*
X19749999Y12295600D01*
X12935800Y20485800D02*
X15235800Y20485800D01*
X12150000Y19700000D02*
X12935800Y20485800D01*
X13450000Y12450000D02*
X14000000Y13000000D01*
X18750001Y21000001D02*
X18750001Y19204400D01*
X20750000Y19206401D02*
X20752001Y19204400D01*
X19500000Y21750000D02*
X18750001Y21000001D01*
X21150000Y21750000D02*
X19500000Y21750000D01*
X17450000Y10800000D02*
X17750000Y11100000D01*
X15752000Y19998000D02*
X15752000Y19204400D01*
X20750000Y19550000D02*
X20750000Y19204400D01*
X21650000Y20850000D02*
X21650000Y21250000D01*
X13450000Y12150000D02*
X13450000Y12450000D01*
X14000000Y13000000D02*
X14545600Y13000000D01*
%TO.N,/DOUT*%
X24400000Y13100000D02*
X23499999Y14000001D01*
X29750000Y7750000D02*
X28725000Y8775000D01*
X26475000Y8775000D02*
X24400000Y10850000D01*
X28725000Y8775000D02*
X26475000Y8775000D01*
X24400000Y10850000D02*
X24400000Y13100000D01*
X23499999Y14000001D02*
X21454400Y14000001D01*
%TO.N,/TR6*%
X12650000Y12500000D02*
X13649999Y13499999D01*
X13900000Y11300000D02*
X12950000Y11300000D01*
X14900000Y11300000D02*
X15250000Y11650000D01*
X12950000Y11300000D02*
X12650000Y11600000D01*
X12650000Y11600000D02*
X12650000Y12500000D01*
X13900000Y11300000D02*
X14900000Y11300000D01*
X13649999Y13499999D02*
X14545600Y13499999D01*
X15250000Y11650000D02*
X15250000Y12295600D01*
%TO.N,/TR3*%
X12750000Y19250000D02*
X12750000Y18750000D01*
X12750000Y19250000D02*
X13300000Y19800000D01*
X13502000Y17998000D02*
X14545600Y17998000D01*
X12750000Y18750000D02*
X13502000Y17998000D01*
X14950000Y19800000D02*
X15250000Y19500000D01*
X15250000Y19500000D02*
X15250000Y19204400D01*
X13300000Y19800000D02*
X14950000Y19800000D01*
%TO.N,/TR4*%
X12000000Y16000000D02*
X14543601Y16000000D01*
X11500000Y16500000D02*
X12000000Y16000000D01*
X11500000Y17750000D02*
X11500000Y16500000D01*
X13000000Y17000000D02*
X14545600Y17000000D01*
X11500000Y17750000D02*
X12250000Y17750000D01*
X12250000Y17750000D02*
X13000000Y17000000D01*
X14543601Y16000000D02*
X14545600Y15998001D01*
%TO.N,/TR2*%
X16500000Y20350000D02*
X17400000Y21250000D01*
X17249999Y19750000D02*
X17249999Y19204400D01*
X17400000Y21250000D02*
X18000000Y21250000D01*
X16649999Y20350000D02*
X17249999Y19750000D01*
X18000000Y21250000D02*
X18250000Y21000000D01*
X18250000Y21000000D02*
X18250000Y19204400D01*
X16500000Y20350000D02*
X16649999Y20350000D01*
%TO.N,/TR8*%
X20300000Y10050000D02*
X19650000Y10050000D01*
X20950000Y10750000D02*
X20250000Y11450000D01*
X20950000Y10700000D02*
X20300000Y10050000D01*
X19250000Y10450000D02*
X19250000Y12295600D01*
X20250000Y11450000D02*
X20250000Y12293601D01*
X20250000Y12293601D02*
X20251999Y12295600D01*
X19650000Y10050000D02*
X19250000Y10450000D01*
X20950000Y10700000D02*
X20950000Y10750000D01*
%TO.N,/TR5*%
X11575000Y13100000D02*
X12975000Y14500000D01*
X12000000Y15500000D02*
X14543601Y15500000D01*
X12975000Y14500000D02*
X14545600Y14500000D01*
X10950000Y13100000D02*
X10950000Y14450000D01*
X10950000Y14450000D02*
X12000000Y15500000D01*
X10950000Y13100000D02*
X11575000Y13100000D01*
X14543601Y15500000D02*
X14545600Y15501999D01*
%TO.N,/TR1*%
X19750000Y21250000D02*
X19250000Y20750000D01*
X19250000Y20750000D02*
X19250000Y19204400D01*
X20800000Y20318750D02*
X20250001Y19768751D01*
X20250001Y19768751D02*
X20250001Y19204400D01*
X20800000Y20850000D02*
X20400000Y21250000D01*
X20400000Y21250000D02*
X19750000Y21250000D01*
X20250000Y19206400D02*
X20248000Y19204400D01*
X20800000Y20850000D02*
X20800000Y20318750D01*
%TO.N,/TR7*%
X16550000Y11100000D02*
X16550000Y10500000D01*
X16550000Y10500000D02*
X16950000Y10100000D01*
X16550000Y11100000D02*
X17250000Y11800000D01*
X17250000Y12295599D02*
X17249999Y12295600D01*
X17250000Y11800000D02*
X17250000Y12295599D01*
X16950000Y10100000D02*
X17800000Y10100000D01*
X18250000Y10550000D02*
X18250000Y12295600D01*
X17800000Y10100000D02*
X18250000Y10550000D01*
%TD*%
%TA.AperFunction,Conductor*%
%TO.N,+3.3V*%
G36*
X56303039Y22030315D02*
G01*
X56348794Y21977511D01*
X56360000Y21926000D01*
X56360000Y21790000D01*
X57276988Y21790000D01*
X57244075Y21732993D01*
X57210000Y21605826D01*
X57210000Y21474174D01*
X57244075Y21347007D01*
X57276988Y21290000D01*
X56360000Y21290000D01*
X56360000Y20642156D01*
X56366401Y20582628D01*
X56366403Y20582621D01*
X56416645Y20447914D01*
X56416649Y20447907D01*
X56500000Y20336567D01*
X56500000Y20000000D01*
X56500000Y19628194D01*
X56488382Y19575790D01*
X56436099Y19463670D01*
X56436094Y19463656D01*
X56374938Y19235414D01*
X56374936Y19235404D01*
X56354341Y19000001D01*
X56354341Y19000000D01*
X56374936Y18764597D01*
X56374938Y18764587D01*
X56436094Y18536345D01*
X56436096Y18536340D01*
X56463177Y18478264D01*
X56473668Y18409186D01*
X56470295Y18392760D01*
X56247250Y17587496D01*
X56234078Y17556799D01*
X56007249Y17178749D01*
X55750000Y16750000D01*
X55750000Y16250000D01*
X55750000Y16249999D01*
X55750000Y14901362D01*
X55730315Y14834323D01*
X55713681Y14813681D01*
X55286319Y14386319D01*
X55224996Y14352834D01*
X55198638Y14350000D01*
X55024000Y14350000D01*
X54956961Y14369685D01*
X54911206Y14422489D01*
X54900000Y14474000D01*
X54900000Y14475000D01*
X52100001Y14475000D01*
X52100001Y14474000D01*
X52080316Y14406961D01*
X52027512Y14361206D01*
X51976001Y14350000D01*
X51801362Y14350000D01*
X51734323Y14369685D01*
X51713681Y14386319D01*
X51286319Y14813681D01*
X51252834Y14875004D01*
X51250000Y14901362D01*
X51250000Y15099987D01*
X52100000Y15099987D01*
X52100000Y14975000D01*
X53250000Y14975000D01*
X53750000Y14975000D01*
X54899999Y14975000D01*
X54899999Y15099972D01*
X54899998Y15099987D01*
X54889505Y15202698D01*
X54834358Y15369120D01*
X54834356Y15369125D01*
X54742315Y15518346D01*
X54618345Y15642316D01*
X54469124Y15734357D01*
X54469119Y15734359D01*
X54302697Y15789506D01*
X54302690Y15789507D01*
X54199986Y15800000D01*
X53750000Y15800000D01*
X53750000Y14975000D01*
X53250000Y14975000D01*
X53250000Y15800000D01*
X52800028Y15800000D01*
X52800012Y15799999D01*
X52697302Y15789506D01*
X52530880Y15734359D01*
X52530875Y15734357D01*
X52381654Y15642316D01*
X52257684Y15518346D01*
X52165643Y15369125D01*
X52165641Y15369120D01*
X52110494Y15202698D01*
X52110493Y15202691D01*
X52100000Y15099987D01*
X51250000Y15099987D01*
X51250000Y16550500D01*
X51269685Y16617539D01*
X51322489Y16663294D01*
X51343327Y16667828D01*
X51365611Y16690112D01*
X51369685Y16703985D01*
X51399686Y16736211D01*
X51451690Y16775141D01*
X51517154Y16799557D01*
X51585426Y16784705D01*
X51634832Y16735300D01*
X51650000Y16675873D01*
X51650000Y16674500D01*
X51697821Y16674500D01*
X51697831Y16674501D01*
X51736742Y16678685D01*
X51763258Y16678685D01*
X51802168Y16674501D01*
X51802179Y16674500D01*
X51850000Y16674500D01*
X52150000Y16674500D01*
X52197828Y16674500D01*
X52197844Y16674501D01*
X52257372Y16680902D01*
X52257379Y16680904D01*
X52392086Y16731146D01*
X52392093Y16731150D01*
X52507187Y16817310D01*
X52507190Y16817313D01*
X52593350Y16932407D01*
X52593354Y16932414D01*
X52643596Y17067121D01*
X52643598Y17067128D01*
X52649999Y17126656D01*
X52650000Y17126673D01*
X52650000Y17262000D01*
X52150000Y17262000D01*
X52150000Y16674500D01*
X51850000Y16674500D01*
X51850000Y17438000D01*
X51869685Y17505039D01*
X51922489Y17550794D01*
X51974000Y17562000D01*
X52650000Y17562000D01*
X52650000Y17626000D01*
X52669685Y17693039D01*
X52722489Y17738794D01*
X52774000Y17750000D01*
X53396445Y17750000D01*
X53396447Y17750000D01*
X53750000Y17750000D01*
X54250000Y18250000D01*
X54250000Y20176002D01*
X54269685Y20243041D01*
X54290922Y20261444D01*
X54288682Y20263683D01*
X54324999Y20300001D01*
X54825000Y20300001D01*
X54899972Y20300001D01*
X54899986Y20300002D01*
X55002697Y20310495D01*
X55169119Y20365642D01*
X55169124Y20365644D01*
X55318345Y20457685D01*
X55442315Y20581655D01*
X55534356Y20730876D01*
X55534358Y20730881D01*
X55589505Y20897303D01*
X55589506Y20897310D01*
X55599999Y21000014D01*
X55600000Y21000027D01*
X55600000Y21500000D01*
X54825000Y21500000D01*
X54825000Y20300001D01*
X54324999Y20300001D01*
X54325000Y20300002D01*
X54325000Y21876000D01*
X54344685Y21943039D01*
X54397489Y21988794D01*
X54449000Y22000000D01*
X55599999Y22000000D01*
X55599999Y22050000D01*
X55899999Y22050000D01*
X56236000Y22050000D01*
X56303039Y22030315D01*
G37*
%TD.AperFunction*%
%TA.AperFunction,Conductor*%
G36*
X59784075Y21732993D02*
G01*
X59750000Y21605826D01*
X59750000Y21474174D01*
X59784075Y21347007D01*
X59816988Y21290000D01*
X58143012Y21290000D01*
X58175925Y21347007D01*
X58210000Y21474174D01*
X58210000Y21605826D01*
X58175925Y21732993D01*
X58143012Y21790000D01*
X59816988Y21790000D01*
X59784075Y21732993D01*
G37*
%TD.AperFunction*%
%TD*%
%TA.AperFunction,Conductor*%
%TO.N,GND*%
G36*
X26046288Y22980546D02*
G01*
X26127070Y22926570D01*
X26181046Y22845788D01*
X26200000Y22750500D01*
X26200000Y22001742D01*
X26181046Y21906454D01*
X26127070Y21825672D01*
X26089339Y21794707D01*
X26001269Y21735860D01*
X25914139Y21648730D01*
X25914138Y21648730D01*
X25322547Y21057140D01*
X25241766Y21003164D01*
X25174360Y20985776D01*
X25170750Y20985370D01*
X25093305Y20958271D01*
X25000478Y20925789D01*
X25000476Y20925789D01*
X25000476Y20925788D01*
X25000470Y20925786D01*
X24901609Y20863666D01*
X24810842Y20829018D01*
X24769133Y20825500D01*
X24238391Y20825500D01*
X24133357Y20804609D01*
X24133358Y20804608D01*
X24117547Y20801463D01*
X24003717Y20754313D01*
X24003711Y20754310D01*
X23910210Y20691833D01*
X23910203Y20691829D01*
X23901269Y20685861D01*
X23901267Y20685859D01*
X22349234Y19133828D01*
X22268453Y19079852D01*
X22173165Y19060898D01*
X22086149Y19076597D01*
X21983105Y19115030D01*
X21900449Y19166089D01*
X21850000Y19236049D01*
X21850000Y19662273D01*
X21868954Y19757561D01*
X21922925Y19838337D01*
X22048729Y19964140D01*
X22048733Y19964142D01*
X22135858Y20051267D01*
X22204311Y20153714D01*
X22251463Y20267548D01*
X22252709Y20273817D01*
X22286091Y20357726D01*
X22375789Y20500478D01*
X22435368Y20670745D01*
X22444621Y20752870D01*
X22455565Y20849997D01*
X22455565Y20850004D01*
X22435369Y21029246D01*
X22435368Y21029255D01*
X22375789Y21199522D01*
X22286092Y21342273D01*
X22252712Y21426175D01*
X22251464Y21432448D01*
X22251462Y21432453D01*
X22204314Y21546282D01*
X22204313Y21546283D01*
X22169394Y21598543D01*
X22169392Y21598545D01*
X22135860Y21648730D01*
X22135859Y21648731D01*
X22135858Y21648733D01*
X22048733Y21735858D01*
X22048729Y21735861D01*
X21635860Y22148730D01*
X21635858Y22148733D01*
X21548733Y22235858D01*
X21490117Y22275024D01*
X21446286Y22304312D01*
X21365792Y22337653D01*
X21365791Y22337654D01*
X21349122Y22344558D01*
X21332452Y22351463D01*
X21232214Y22371401D01*
X21232212Y22371402D01*
X21232208Y22371403D01*
X21211611Y22375500D01*
X21211607Y22375500D01*
X21211606Y22375500D01*
X19561607Y22375500D01*
X19438393Y22375500D01*
X19438388Y22375500D01*
X19417782Y22371401D01*
X19417781Y22371402D01*
X19317551Y22351464D01*
X19317547Y22351463D01*
X19298700Y22343656D01*
X19270397Y22331933D01*
X19270395Y22331933D01*
X19203715Y22304313D01*
X19203715Y22304312D01*
X19203714Y22304311D01*
X19101269Y22235860D01*
X19014139Y22148730D01*
X19014138Y22148730D01*
X18664639Y21799232D01*
X18583858Y21745256D01*
X18488570Y21726302D01*
X18393281Y21745256D01*
X18350257Y21768250D01*
X18347534Y21770069D01*
X18347535Y21770072D01*
X18347506Y21770087D01*
X18296288Y21804311D01*
X18296281Y21804314D01*
X18215792Y21837653D01*
X18215791Y21837654D01*
X18194945Y21846288D01*
X18182452Y21851463D01*
X18080922Y21871658D01*
X18080920Y21871659D01*
X18080915Y21871661D01*
X18061613Y21875500D01*
X18061607Y21875500D01*
X18061606Y21875500D01*
X17461607Y21875500D01*
X17338393Y21875500D01*
X17338386Y21875500D01*
X17319073Y21871658D01*
X17217552Y21851464D01*
X17217546Y21851463D01*
X17103718Y21804314D01*
X17103713Y21804311D01*
X17001269Y21735860D01*
X16914139Y21648730D01*
X16914138Y21648730D01*
X16472547Y21207140D01*
X16391766Y21153164D01*
X16324360Y21135776D01*
X16320750Y21135370D01*
X16265634Y21116084D01*
X16150478Y21075789D01*
X16150476Y21075789D01*
X16150476Y21075788D01*
X16150470Y21075786D01*
X15997738Y20979818D01*
X15986807Y20971099D01*
X15985280Y20973013D01*
X15921522Y20930419D01*
X15826233Y20911474D01*
X15730946Y20930437D01*
X15658696Y20978715D01*
X15658189Y20978096D01*
X15651903Y20983255D01*
X15650195Y20984396D01*
X15648741Y20985850D01*
X15648735Y20985855D01*
X15648733Y20985857D01*
X15546286Y21054312D01*
X15432452Y21101463D01*
X15382996Y21111300D01*
X15311607Y21125500D01*
X15188393Y21125500D01*
X15141055Y21116084D01*
X15092479Y21111300D01*
X12874191Y21111300D01*
X12824737Y21101463D01*
X12824736Y21101464D01*
X12753351Y21087264D01*
X12753346Y21087263D01*
X12726354Y21076082D01*
X12639516Y21040113D01*
X12639508Y21040109D01*
X12602144Y21015142D01*
X12589688Y21006818D01*
X12558307Y20985850D01*
X12539095Y20973013D01*
X12537067Y20971658D01*
X12449942Y20884533D01*
X12449939Y20884530D01*
X12449938Y20884531D01*
X11963841Y20398431D01*
X11883060Y20344454D01*
X11787772Y20325500D01*
X11780867Y20325500D01*
X11685579Y20344454D01*
X11648391Y20363666D01*
X11549529Y20425786D01*
X11549524Y20425788D01*
X11549522Y20425789D01*
X11379255Y20485368D01*
X11379251Y20485369D01*
X11379245Y20485370D01*
X11200004Y20505565D01*
X11199996Y20505565D01*
X11020754Y20485370D01*
X11020746Y20485369D01*
X11020745Y20485368D01*
X10850478Y20425789D01*
X10850476Y20425789D01*
X10850476Y20425788D01*
X10850470Y20425786D01*
X10697742Y20329820D01*
X10570180Y20202258D01*
X10474214Y20049530D01*
X10474211Y20049524D01*
X10474211Y20049522D01*
X10437404Y19944332D01*
X10414632Y19879254D01*
X10414630Y19879246D01*
X10394435Y19700004D01*
X10394435Y19699997D01*
X10414630Y19520755D01*
X10414631Y19520749D01*
X10414632Y19520745D01*
X10474211Y19350478D01*
X10474212Y19350477D01*
X10474212Y19350476D01*
X10481654Y19338633D01*
X10536335Y19251609D01*
X10570982Y19160844D01*
X10574500Y19119134D01*
X10574500Y18961607D01*
X10574500Y18838393D01*
X10581614Y18802627D01*
X10582875Y18796291D01*
X10582876Y18796284D01*
X10598535Y18717555D01*
X10598537Y18717548D01*
X10610613Y18688393D01*
X10610613Y18688391D01*
X10645684Y18603720D01*
X10645687Y18603715D01*
X10645688Y18603714D01*
X10673824Y18561607D01*
X10673825Y18561605D01*
X10696570Y18527565D01*
X10700000Y18519285D01*
X10700000Y18259170D01*
X10700000Y17813372D01*
X10698434Y17785493D01*
X10694435Y17750000D01*
X10696183Y17734482D01*
X10698434Y17714509D01*
X10700000Y17686628D01*
X10700000Y15187731D01*
X10681046Y15092443D01*
X10627070Y15011661D01*
X10464138Y14848729D01*
X10442537Y14816402D01*
X10442538Y14816401D01*
X10425833Y14791400D01*
X10395688Y14746286D01*
X10366108Y14674872D01*
X10348536Y14632451D01*
X10344745Y14613391D01*
X10325586Y14517066D01*
X10325582Y14517047D01*
X10324501Y14511615D01*
X10324500Y14511604D01*
X10324500Y13680867D01*
X10305546Y13585579D01*
X10286334Y13548391D01*
X10224214Y13449530D01*
X10224211Y13449524D01*
X10224211Y13449522D01*
X10180684Y13325127D01*
X10164632Y13279254D01*
X10164630Y13279246D01*
X10144435Y13100004D01*
X10144435Y13099997D01*
X10164630Y12920755D01*
X10164631Y12920749D01*
X10164632Y12920745D01*
X10224211Y12750478D01*
X10224212Y12750477D01*
X10224214Y12750471D01*
X10320180Y12597743D01*
X10320182Y12597741D01*
X10320184Y12597738D01*
X10447738Y12470184D01*
X10447740Y12470183D01*
X10447742Y12470181D01*
X10600470Y12374215D01*
X10600473Y12374214D01*
X10600478Y12374211D01*
X10770745Y12314632D01*
X10905237Y12299479D01*
X10997800Y12269976D01*
X11072030Y12207295D01*
X11112379Y12134291D01*
X11124211Y12100478D01*
X11186335Y12001609D01*
X11220982Y11910844D01*
X11224500Y11869134D01*
X11224500Y11538386D01*
X11228120Y11520185D01*
X11228122Y11520181D01*
X11238278Y11469123D01*
X11238591Y11467549D01*
X11248537Y11417549D01*
X11264090Y11380000D01*
X11295688Y11303713D01*
X11319854Y11267548D01*
X11319855Y11267546D01*
X11351428Y11220294D01*
X11364142Y11201267D01*
X11451267Y11114142D01*
X11451269Y11114141D01*
X12551266Y10014143D01*
X12551269Y10014141D01*
X12653712Y9945690D01*
X12653713Y9945690D01*
X12653714Y9945689D01*
X12720396Y9918069D01*
X12767547Y9898538D01*
X12787596Y9894550D01*
X12888393Y9874500D01*
X13023894Y9874500D01*
X13023914Y9874501D01*
X13375500Y9874501D01*
X13470788Y9855547D01*
X13551570Y9801571D01*
X13605546Y9720789D01*
X13624500Y9625501D01*
X13624500Y5766004D01*
X13605546Y5670716D01*
X13551570Y5589934D01*
X13494011Y5547015D01*
X13439810Y5517683D01*
X13346985Y5489000D01*
X13250250Y5498024D01*
X13164331Y5543379D01*
X13121965Y5587450D01*
X13107189Y5607188D01*
X13107187Y5607190D01*
X12992087Y5693354D01*
X12857378Y5743597D01*
X12857371Y5743599D01*
X12797832Y5750000D01*
X9102167Y5750000D01*
X9042628Y5743599D01*
X9042621Y5743597D01*
X8907912Y5693354D01*
X8792812Y5607190D01*
X8792807Y5607185D01*
X8706647Y5492090D01*
X8684185Y5431869D01*
X11127483Y2988571D01*
X11181459Y2907789D01*
X11200413Y2812501D01*
X11181459Y2717213D01*
X11127545Y2636494D01*
X11126132Y2635080D01*
X11045370Y2581075D01*
X10950088Y2562087D01*
X10854793Y2581007D01*
X10773993Y2634955D01*
X10773930Y2635017D01*
X8650000Y4758947D01*
X8650000Y749500D01*
X8631046Y654212D01*
X8577070Y573430D01*
X8496288Y519454D01*
X8401000Y500500D01*
X1013982Y500500D01*
X986102Y502066D01*
X916727Y509883D01*
X862371Y522290D01*
X809755Y540701D01*
X759519Y564893D01*
X712325Y594547D01*
X668731Y629311D01*
X629310Y668732D01*
X594546Y712326D01*
X564892Y759520D01*
X540701Y809752D01*
X522287Y862378D01*
X509884Y916718D01*
X502064Y986118D01*
X500500Y1013982D01*
X500500Y3970002D01*
X1429363Y3970002D01*
X1429364Y3970000D01*
X2326988Y3970000D01*
X2294075Y3912993D01*
X2260000Y3785826D01*
X2260000Y3654174D01*
X2294075Y3527007D01*
X2326988Y3470000D01*
X1429364Y3470000D01*
X1429363Y3469999D01*
X1486566Y3256517D01*
X1486566Y3256515D01*
X1586399Y3042424D01*
X1721889Y2848924D01*
X1888923Y2681890D01*
X2082423Y2546400D01*
X2296511Y2446569D01*
X2510000Y2389365D01*
X2510000Y3286988D01*
X2567007Y3254075D01*
X2694174Y3220000D01*
X2825826Y3220000D01*
X2952993Y3254075D01*
X3010000Y3286988D01*
X3010000Y2389365D01*
X3223488Y2446569D01*
X3437576Y2546400D01*
X3631079Y2681892D01*
X3635128Y2685289D01*
X3638839Y2687326D01*
X3639983Y2688126D01*
X3640070Y2688001D01*
X3720305Y2732023D01*
X3816882Y2742603D01*
X3910157Y2715420D01*
X3985928Y2654611D01*
X3994907Y2641461D01*
X3995531Y2641927D01*
X4006203Y2627671D01*
X4006204Y2627669D01*
X4092454Y2512454D01*
X4207669Y2426204D01*
X4342517Y2375909D01*
X4402127Y2369500D01*
X6197872Y2369501D01*
X6257483Y2375909D01*
X6392331Y2426204D01*
X6507546Y2512454D01*
X6593796Y2627669D01*
X6644091Y2762517D01*
X6650500Y2822127D01*
X6650499Y4617872D01*
X6644091Y4677483D01*
X6593796Y4812331D01*
X6507546Y4927546D01*
X6392331Y5013796D01*
X6293555Y5050637D01*
X6257481Y5064092D01*
X6197873Y5070500D01*
X4402134Y5070500D01*
X4402130Y5070500D01*
X4402128Y5070499D01*
X4389314Y5069122D01*
X4342519Y5064092D01*
X4342515Y5064091D01*
X4207670Y5013797D01*
X4144633Y4966607D01*
X4092454Y4927546D01*
X4025475Y4838073D01*
X3995531Y4798073D01*
X3992314Y4800482D01*
X3951340Y4751498D01*
X3865231Y4706505D01*
X3768458Y4697890D01*
X3675756Y4726964D01*
X3635137Y4754704D01*
X3631081Y4758107D01*
X3437576Y4893601D01*
X3223484Y4993434D01*
X3010001Y5050637D01*
X3010000Y5050636D01*
X3010000Y4153012D01*
X2952993Y4185925D01*
X2825826Y4220000D01*
X2694174Y4220000D01*
X2567007Y4185925D01*
X2510000Y4153012D01*
X2510000Y5050636D01*
X2509998Y5050637D01*
X2296516Y4993434D01*
X2296505Y4993430D01*
X2082428Y4893604D01*
X2082420Y4893600D01*
X1888923Y4758111D01*
X1721889Y4591077D01*
X1586400Y4397580D01*
X1586396Y4397572D01*
X1486570Y4183495D01*
X1486566Y4183484D01*
X1429363Y3970002D01*
X500500Y3970002D01*
X500500Y19001000D01*
X519454Y19096288D01*
X573430Y19177070D01*
X654212Y19231046D01*
X749500Y19250000D01*
X1275878Y19250000D01*
X1371166Y19231046D01*
X1402664Y19210000D01*
X2326988Y19210000D01*
X2294075Y19152993D01*
X2260000Y19025826D01*
X2260000Y18894174D01*
X2294075Y18767007D01*
X2326988Y18710000D01*
X1429364Y18710000D01*
X1441625Y18664241D01*
X1445867Y18599527D01*
X1450000Y18599527D01*
X1450000Y16781727D01*
X1441516Y16717284D01*
X1424937Y16655408D01*
X1424935Y16655402D01*
X1404341Y16420006D01*
X1404341Y16419995D01*
X1424935Y16184605D01*
X1424938Y16184587D01*
X1441516Y16122717D01*
X1450000Y16058273D01*
X1450000Y14241727D01*
X1441516Y14177284D01*
X1424937Y14115408D01*
X1424935Y14115402D01*
X1404341Y13880006D01*
X1404341Y13879995D01*
X1424935Y13644605D01*
X1424938Y13644587D01*
X1441516Y13582717D01*
X1450000Y13518273D01*
X1450000Y11701727D01*
X1441516Y11637284D01*
X1424937Y11575408D01*
X1424935Y11575402D01*
X1404341Y11340006D01*
X1404341Y11339995D01*
X1424935Y11104605D01*
X1424938Y11104587D01*
X1441516Y11042717D01*
X1450000Y10978273D01*
X1450000Y9132371D01*
X1449080Y9125517D01*
X1424937Y9035412D01*
X1424935Y9035402D01*
X1404341Y8800006D01*
X1404341Y8799995D01*
X1424935Y8564599D01*
X1477621Y8367968D01*
X1486097Y8336337D01*
X1525302Y8252262D01*
X1585965Y8122170D01*
X1721045Y7929255D01*
X1721505Y7928599D01*
X1888599Y7761505D01*
X2082170Y7625965D01*
X2296337Y7526097D01*
X2524592Y7464937D01*
X2524595Y7464937D01*
X2524598Y7464936D01*
X2759995Y7444341D01*
X2760000Y7444341D01*
X2760005Y7444341D01*
X2824686Y7450000D01*
X3240611Y7450000D01*
X5224452Y7450000D01*
X5246152Y7449053D01*
X5265999Y7447316D01*
X5299997Y7444341D01*
X5300000Y7444341D01*
X5300005Y7444341D01*
X5535401Y7464936D01*
X5535403Y7464937D01*
X5535408Y7464937D01*
X5763663Y7526097D01*
X5977830Y7625965D01*
X6171401Y7761505D01*
X6338495Y7928599D01*
X6474035Y8122170D01*
X6573903Y8336337D01*
X6635063Y8564592D01*
X6635064Y8564599D01*
X6655659Y8799995D01*
X6655659Y8800006D01*
X6635064Y9035402D01*
X6635063Y9035404D01*
X6635063Y9035408D01*
X6616284Y9105493D01*
X6608484Y9134606D01*
X6600000Y9199049D01*
X6600000Y10940953D01*
X6608484Y11005398D01*
X6611283Y11015844D01*
X6635063Y11104592D01*
X6645667Y11225789D01*
X6655659Y11339995D01*
X6655659Y11340006D01*
X6635064Y11575402D01*
X6635063Y11575404D01*
X6635063Y11575408D01*
X6618484Y11637284D01*
X6608484Y11674606D01*
X6600000Y11739049D01*
X6600000Y13480953D01*
X6608484Y13545398D01*
X6616837Y13576571D01*
X6635063Y13644592D01*
X6641239Y13715186D01*
X6655659Y13879995D01*
X6655659Y13880006D01*
X6635064Y14115402D01*
X6635063Y14115404D01*
X6635063Y14115408D01*
X6614833Y14190910D01*
X6608484Y14214606D01*
X6600000Y14279049D01*
X6600000Y16020953D01*
X6608484Y16085398D01*
X6612736Y16101267D01*
X6635063Y16184592D01*
X6645405Y16302796D01*
X6655659Y16419995D01*
X6655659Y16420006D01*
X6635064Y16655402D01*
X6635063Y16655404D01*
X6635063Y16655408D01*
X6613875Y16734484D01*
X6608484Y16754606D01*
X6600000Y16819049D01*
X6600000Y18204907D01*
X6600000Y18595666D01*
X6630636Y18709999D01*
X6630636Y18710000D01*
X5733012Y18710000D01*
X5765925Y18767007D01*
X5800000Y18894174D01*
X5800000Y19025826D01*
X5765925Y19152993D01*
X5733012Y19210000D01*
X6630636Y19210000D01*
X6630636Y19210002D01*
X6573433Y19423484D01*
X6573429Y19423495D01*
X6473603Y19637572D01*
X6473599Y19637580D01*
X6338106Y19831082D01*
X6334704Y19835137D01*
X6332665Y19838853D01*
X6331874Y19839983D01*
X6331997Y19840070D01*
X6287974Y19920315D01*
X6277398Y20016893D01*
X6304585Y20110166D01*
X6365397Y20185936D01*
X6378540Y20194907D01*
X6378073Y20195531D01*
X6392329Y20206204D01*
X6392331Y20206204D01*
X6507546Y20292454D01*
X6593796Y20407669D01*
X6644091Y20542517D01*
X6650500Y20602127D01*
X6650499Y22397872D01*
X6644091Y22457483D01*
X6593796Y22592331D01*
X6587097Y22601280D01*
X6545167Y22688921D01*
X6539967Y22785937D01*
X6572289Y22877558D01*
X6637212Y22949835D01*
X6724853Y22991765D01*
X6786432Y22999500D01*
X25951000Y22999500D01*
X26046288Y22980546D01*
G37*
%TD.AperFunction*%
%TA.AperFunction,Conductor*%
G36*
X24332587Y7032823D02*
G01*
X24350000Y7006763D01*
X24350000Y5950000D01*
X24438114Y5950000D01*
X24428907Y5903712D01*
X24374931Y5822930D01*
X24294149Y5768954D01*
X24198861Y5750000D01*
X21602167Y5750000D01*
X21542628Y5743599D01*
X21542621Y5743597D01*
X21407912Y5693354D01*
X21292812Y5607190D01*
X21292807Y5607185D01*
X21206647Y5492090D01*
X21184185Y5431869D01*
X23627483Y2988571D01*
X23681459Y2907789D01*
X23700413Y2812501D01*
X23681459Y2717213D01*
X23627545Y2636494D01*
X23626132Y2635080D01*
X23545370Y2581075D01*
X23450088Y2562087D01*
X23354793Y2581007D01*
X23273993Y2634955D01*
X23273930Y2635017D01*
X21150000Y4758947D01*
X21150000Y749500D01*
X21131046Y654212D01*
X21077070Y573430D01*
X20996288Y519454D01*
X20901000Y500500D01*
X19999000Y500500D01*
X19903712Y519454D01*
X19822930Y573430D01*
X19768954Y654212D01*
X19750000Y749500D01*
X19750000Y4708947D01*
X19749999Y4708947D01*
X17676070Y2635017D01*
X17595288Y2581041D01*
X17500000Y2562087D01*
X17404712Y2581041D01*
X17323930Y2635017D01*
X17322516Y2636431D01*
X17268540Y2717213D01*
X17249586Y2812501D01*
X17268540Y2907789D01*
X17322516Y2988571D01*
X19729396Y5395452D01*
X19693353Y5492088D01*
X19607189Y5607188D01*
X19607187Y5607190D01*
X19492087Y5693354D01*
X19357378Y5743597D01*
X19357371Y5743599D01*
X19297832Y5750000D01*
X15702167Y5750000D01*
X15642628Y5743599D01*
X15642621Y5743597D01*
X15507912Y5693354D01*
X15392812Y5607190D01*
X15392806Y5607184D01*
X15378031Y5587447D01*
X15305752Y5522525D01*
X15214130Y5490206D01*
X15117114Y5495408D01*
X15060188Y5517684D01*
X15005988Y5547016D01*
X14931206Y5609038D01*
X14885851Y5694957D01*
X14875500Y5766004D01*
X14875500Y8601000D01*
X14894454Y8696288D01*
X14948430Y8777070D01*
X15029212Y8831046D01*
X15124500Y8850000D01*
X22154888Y8850000D01*
X22515410Y8850000D01*
X24332587Y7032823D01*
G37*
%TD.AperFunction*%
%TA.AperFunction,Conductor*%
G36*
X41681281Y19330546D02*
G01*
X41762055Y19276578D01*
X41776566Y19262066D01*
X41830543Y19181290D01*
X41849500Y19086003D01*
X41849500Y16021210D01*
X41835527Y15938971D01*
X41814633Y15879260D01*
X41814630Y15879250D01*
X41794435Y15700004D01*
X41794435Y15700000D01*
X41799493Y15655109D01*
X41815863Y15509815D01*
X41807696Y15413003D01*
X41763103Y15326687D01*
X41744498Y15305867D01*
X35667046Y9228414D01*
X35630512Y9173735D01*
X35630511Y9173733D01*
X35584917Y9105497D01*
X35584915Y9105493D01*
X35528341Y8968912D01*
X35499500Y8823921D01*
X35499500Y8071210D01*
X35485527Y7988971D01*
X35464633Y7929260D01*
X35464630Y7929250D01*
X35444435Y7750003D01*
X35444435Y7749997D01*
X35464630Y7570755D01*
X35464631Y7570749D01*
X35464632Y7570745D01*
X35524211Y7400478D01*
X35524212Y7400477D01*
X35524214Y7400471D01*
X35620180Y7247743D01*
X35620182Y7247741D01*
X35620184Y7247738D01*
X35747738Y7120184D01*
X35747740Y7120183D01*
X35747742Y7120181D01*
X35900470Y7024215D01*
X35900473Y7024214D01*
X35900478Y7024211D01*
X36070745Y6964632D01*
X36070754Y6964631D01*
X36249996Y6944435D01*
X36250000Y6944435D01*
X36250004Y6944435D01*
X36389908Y6960199D01*
X36429255Y6964632D01*
X36599522Y7024211D01*
X36599527Y7024215D01*
X36599529Y7024215D01*
X36752257Y7120181D01*
X36752256Y7120181D01*
X36752262Y7120184D01*
X36879816Y7247738D01*
X36975789Y7400478D01*
X37035368Y7570745D01*
X37046097Y7665966D01*
X37055565Y7749997D01*
X37055565Y7750003D01*
X37035369Y7929250D01*
X37035368Y7929254D01*
X37035368Y7929255D01*
X37014473Y7988971D01*
X37000500Y8071210D01*
X37000500Y8335994D01*
X37019454Y8431282D01*
X37073427Y8512061D01*
X40061366Y11499999D01*
X47125001Y11499999D01*
X47125001Y11387516D01*
X47135494Y11284801D01*
X47135495Y11284798D01*
X47190640Y11118381D01*
X47190641Y11118379D01*
X47282681Y10969159D01*
X47282684Y10969155D01*
X47406654Y10845185D01*
X47406658Y10845182D01*
X47555878Y10753142D01*
X47555879Y10753141D01*
X47722298Y10697996D01*
X47722305Y10697995D01*
X47825023Y10687501D01*
X48250000Y10687501D01*
X48250000Y11499999D01*
X48750000Y11499999D01*
X48750000Y10687502D01*
X48750001Y10687501D01*
X49174968Y10687501D01*
X49174984Y10687502D01*
X49277699Y10697995D01*
X49277702Y10697996D01*
X49444119Y10753141D01*
X49444121Y10753142D01*
X49593341Y10845182D01*
X49593345Y10845185D01*
X49717315Y10969155D01*
X49717318Y10969159D01*
X49809358Y11118379D01*
X49809359Y11118380D01*
X49864504Y11284799D01*
X49864505Y11284806D01*
X49874999Y11387519D01*
X49875000Y11387529D01*
X49875000Y11499999D01*
X49874999Y11500000D01*
X48750001Y11500000D01*
X48750000Y11499999D01*
X48250000Y11499999D01*
X48249999Y11500000D01*
X47125002Y11500000D01*
X47125001Y11499999D01*
X40061366Y11499999D01*
X40086366Y11524999D01*
X52100001Y11524999D01*
X52100001Y11400016D01*
X52110494Y11297301D01*
X52110495Y11297298D01*
X52165640Y11130881D01*
X52165641Y11130879D01*
X52257681Y10981659D01*
X52257684Y10981655D01*
X52381654Y10857685D01*
X52381658Y10857682D01*
X52530878Y10765642D01*
X52530879Y10765641D01*
X52697298Y10710496D01*
X52697305Y10710495D01*
X52800023Y10700001D01*
X53250000Y10700001D01*
X53250000Y11524999D01*
X53249999Y11525000D01*
X52100002Y11525000D01*
X52100001Y11524999D01*
X40086366Y11524999D01*
X40673849Y12112482D01*
X47125000Y12112482D01*
X47125000Y12000001D01*
X47125001Y12000000D01*
X48249999Y12000000D01*
X48250000Y12000001D01*
X48250000Y12812499D01*
X48750000Y12812499D01*
X48750000Y12000001D01*
X48750001Y12000000D01*
X49874998Y12000000D01*
X49874999Y12000001D01*
X49874999Y12112468D01*
X49874998Y12112485D01*
X49871167Y12149982D01*
X52100000Y12149982D01*
X52100000Y12025001D01*
X52100001Y12025000D01*
X53249999Y12025000D01*
X53250000Y12025001D01*
X53250000Y12849999D01*
X53249999Y12850000D01*
X52800024Y12850000D01*
X52697300Y12839506D01*
X52697297Y12839505D01*
X52530880Y12784360D01*
X52530878Y12784359D01*
X52381658Y12692319D01*
X52381654Y12692316D01*
X52257684Y12568346D01*
X52257681Y12568342D01*
X52165641Y12419122D01*
X52165640Y12419121D01*
X52110495Y12252702D01*
X52110494Y12252695D01*
X52100000Y12149982D01*
X49871167Y12149982D01*
X49864505Y12215200D01*
X49864504Y12215203D01*
X49809359Y12381620D01*
X49809358Y12381622D01*
X49717318Y12530842D01*
X49717315Y12530846D01*
X49593345Y12654816D01*
X49593341Y12654819D01*
X49444121Y12746859D01*
X49444120Y12746860D01*
X49277701Y12802005D01*
X49277694Y12802006D01*
X49174981Y12812500D01*
X48750001Y12812500D01*
X48750000Y12812499D01*
X48250000Y12812499D01*
X48249999Y12812500D01*
X47825024Y12812500D01*
X47722300Y12802006D01*
X47722297Y12802005D01*
X47555880Y12746860D01*
X47555878Y12746859D01*
X47406658Y12654819D01*
X47406654Y12654816D01*
X47282684Y12530846D01*
X47282681Y12530842D01*
X47190641Y12381622D01*
X47190640Y12381621D01*
X47135495Y12215202D01*
X47135494Y12215195D01*
X47125000Y12112482D01*
X40673849Y12112482D01*
X43182951Y14621584D01*
X43206708Y14657139D01*
X43265084Y14744505D01*
X43321658Y14881087D01*
X43350500Y15026082D01*
X43350500Y15378792D01*
X43364473Y15461031D01*
X43366818Y15467733D01*
X43385368Y15520745D01*
X43397444Y15627924D01*
X43405565Y15699997D01*
X43405565Y15700003D01*
X43385369Y15879250D01*
X43385368Y15879253D01*
X43385368Y15879255D01*
X43364473Y15938971D01*
X43350500Y16021210D01*
X43350500Y16274999D01*
X44600001Y16274999D01*
X44600001Y16150016D01*
X44610494Y16047301D01*
X44610495Y16047298D01*
X44665640Y15880881D01*
X44665641Y15880879D01*
X44757681Y15731659D01*
X44757684Y15731655D01*
X44881654Y15607685D01*
X44881658Y15607682D01*
X45030878Y15515642D01*
X45030879Y15515641D01*
X45197298Y15460496D01*
X45197305Y15460495D01*
X45300023Y15450001D01*
X45750000Y15450001D01*
X45750000Y16274999D01*
X45749999Y16275000D01*
X44600002Y16275000D01*
X44600001Y16274999D01*
X43350500Y16274999D01*
X43350500Y18886994D01*
X43369454Y18982282D01*
X43423430Y19063064D01*
X43504212Y19117040D01*
X43599500Y19135994D01*
X43694788Y19117040D01*
X43775566Y19063067D01*
X43842048Y18996585D01*
X43842049Y18996584D01*
X43842052Y18996580D01*
X43904459Y18934174D01*
X43946584Y18892049D01*
X44069505Y18809916D01*
X44206087Y18753342D01*
X44351080Y18724501D01*
X44351081Y18724500D01*
X44351082Y18724500D01*
X44501000Y18724500D01*
X44596288Y18705546D01*
X44677070Y18651570D01*
X44731046Y18570788D01*
X44750000Y18475500D01*
X44750000Y17376504D01*
X44731046Y17281216D01*
X44712928Y17245785D01*
X44665641Y17169122D01*
X44665640Y17169121D01*
X44610495Y17002702D01*
X44610494Y17002695D01*
X44600000Y16899982D01*
X44600000Y16775001D01*
X44600001Y16775000D01*
X45749999Y16775000D01*
X45750000Y16775001D01*
X45750000Y17000000D01*
X46250000Y17000000D01*
X46250000Y15450002D01*
X46250001Y15450001D01*
X46699968Y15450001D01*
X46699984Y15450002D01*
X46802697Y15460495D01*
X46824541Y15467733D01*
X46920954Y15479714D01*
X47014613Y15453888D01*
X47091260Y15394186D01*
X47139226Y15309696D01*
X47151207Y15213283D01*
X47139229Y15153057D01*
X47135002Y15140300D01*
X47135001Y15140296D01*
X47124500Y15037512D01*
X47124500Y14312494D01*
X47135001Y14209700D01*
X47190185Y14043168D01*
X47190186Y14043166D01*
X47199000Y14028876D01*
X47272835Y13909169D01*
X47282288Y13893844D01*
X47406344Y13769788D01*
X47555666Y13677686D01*
X47555669Y13677685D01*
X47555667Y13677685D01*
X47684209Y13635091D01*
X47722203Y13622501D01*
X47824991Y13612000D01*
X49175008Y13612001D01*
X49277797Y13622501D01*
X49444334Y13677686D01*
X49501472Y13712930D01*
X49592524Y13746820D01*
X49632190Y13750000D01*
X52275519Y13750000D01*
X52466463Y13750000D01*
X52472087Y13748724D01*
X52501401Y13733236D01*
X52530662Y13715188D01*
X52530667Y13715185D01*
X52643833Y13677686D01*
X52697203Y13660001D01*
X52799991Y13649500D01*
X53501002Y13649501D01*
X53596288Y13630547D01*
X53677069Y13576571D01*
X53731046Y13495789D01*
X53750000Y13400501D01*
X53750000Y10000000D01*
X53963114Y10000000D01*
X53979565Y9917296D01*
X53960611Y9822008D01*
X53906639Y9741231D01*
X53863845Y9698435D01*
X53783065Y9644456D01*
X53687777Y9625500D01*
X40630867Y9625500D01*
X40535579Y9644454D01*
X40498391Y9663666D01*
X40399529Y9725786D01*
X40399524Y9725788D01*
X40399522Y9725789D01*
X40229255Y9785368D01*
X40229251Y9785369D01*
X40229245Y9785370D01*
X40050004Y9805565D01*
X40049996Y9805565D01*
X39870754Y9785370D01*
X39870746Y9785369D01*
X39870745Y9785368D01*
X39700478Y9725789D01*
X39700476Y9725789D01*
X39700476Y9725788D01*
X39700470Y9725786D01*
X39547742Y9629820D01*
X39420180Y9502258D01*
X39324214Y9349530D01*
X39324211Y9349524D01*
X39324211Y9349522D01*
X39271559Y9199049D01*
X39264632Y9179254D01*
X39264630Y9179246D01*
X39244435Y9000004D01*
X39244435Y8999997D01*
X39264630Y8820755D01*
X39264631Y8820749D01*
X39264632Y8820745D01*
X39324211Y8650478D01*
X39324212Y8650477D01*
X39324214Y8650471D01*
X39420180Y8497743D01*
X39420182Y8497741D01*
X39420184Y8497738D01*
X39547738Y8370184D01*
X39547740Y8370183D01*
X39547742Y8370181D01*
X39700470Y8274215D01*
X39700473Y8274214D01*
X39700478Y8274211D01*
X39870745Y8214632D01*
X39870754Y8214631D01*
X40049996Y8194435D01*
X40050000Y8194435D01*
X40050004Y8194435D01*
X40189908Y8210199D01*
X40229255Y8214632D01*
X40399522Y8274211D01*
X40399527Y8274215D01*
X40399529Y8274215D01*
X40498391Y8336334D01*
X40589158Y8370982D01*
X40630867Y8374500D01*
X54111606Y8374500D01*
X54111607Y8374500D01*
X54175978Y8387304D01*
X54213456Y8394759D01*
X54232448Y8398536D01*
X54232448Y8398537D01*
X54232452Y8398537D01*
X54265781Y8412344D01*
X54265792Y8412346D01*
X54265792Y8412348D01*
X54346286Y8445688D01*
X54397509Y8479916D01*
X54448733Y8514142D01*
X54535858Y8601267D01*
X54535858Y8601269D01*
X54556358Y8621768D01*
X54556360Y8621772D01*
X54611660Y8677072D01*
X54692442Y8731047D01*
X54787728Y8750000D01*
X56013854Y8750000D01*
X56260591Y8750000D01*
X56324658Y8699297D01*
X56371970Y8614441D01*
X56375526Y8602394D01*
X56385653Y8564599D01*
X56430148Y8398537D01*
X56436097Y8376337D01*
X56511502Y8214631D01*
X56535965Y8162170D01*
X56651101Y7997738D01*
X56671505Y7968599D01*
X56838599Y7801505D01*
X57032170Y7665965D01*
X57246337Y7566097D01*
X57474592Y7504937D01*
X57474595Y7504937D01*
X57474598Y7504936D01*
X57709995Y7484341D01*
X57710000Y7484341D01*
X57710005Y7484341D01*
X57888984Y7500000D01*
X60005000Y7500000D01*
X60053285Y7500000D01*
X60064696Y7500000D01*
X60077216Y7499458D01*
X60249996Y7484341D01*
X60250000Y7484341D01*
X60250005Y7484341D01*
X60485401Y7504936D01*
X60485403Y7504937D01*
X60485408Y7504937D01*
X60713663Y7566097D01*
X60927830Y7665965D01*
X61121401Y7801505D01*
X61288495Y7968599D01*
X61424035Y8162170D01*
X61523903Y8376337D01*
X61585063Y8604592D01*
X61585304Y8607345D01*
X61605659Y8839995D01*
X61605659Y8840006D01*
X61585064Y9075402D01*
X61585063Y9075405D01*
X61585063Y9075408D01*
X61523903Y9303663D01*
X61443627Y9475815D01*
X61424038Y9517823D01*
X61424034Y9517831D01*
X61348643Y9625500D01*
X61288495Y9711401D01*
X61121401Y9878495D01*
X61082074Y9906033D01*
X61014891Y9976211D01*
X60979678Y10066760D01*
X60981797Y10163892D01*
X61020925Y10252819D01*
X61082073Y10313968D01*
X61121401Y10341505D01*
X61288495Y10508599D01*
X61424035Y10702170D01*
X61523903Y10916337D01*
X61585063Y11144592D01*
X61585064Y11144599D01*
X61605659Y11379995D01*
X61605659Y11380006D01*
X61585064Y11615402D01*
X61585063Y11615405D01*
X61585063Y11615408D01*
X61523903Y11843663D01*
X61450250Y12001611D01*
X61424038Y12057823D01*
X61424034Y12057831D01*
X61358847Y12150928D01*
X61288495Y12251401D01*
X61121401Y12418495D01*
X61082074Y12446033D01*
X61014891Y12516211D01*
X60979678Y12606760D01*
X60981797Y12703892D01*
X61020925Y12792819D01*
X61082073Y12853968D01*
X61121401Y12881505D01*
X61288495Y13048599D01*
X61424035Y13242170D01*
X61523903Y13456337D01*
X61585063Y13684592D01*
X61585064Y13684599D01*
X61605659Y13919995D01*
X61605659Y13920006D01*
X61585064Y14155402D01*
X61585063Y14155405D01*
X61585063Y14155408D01*
X61523903Y14383663D01*
X61454979Y14531470D01*
X61424038Y14597823D01*
X61424034Y14597831D01*
X61358164Y14691903D01*
X61288495Y14791401D01*
X61121401Y14958495D01*
X61082074Y14986033D01*
X61014891Y15056211D01*
X60979678Y15146760D01*
X60981797Y15243892D01*
X61020925Y15332819D01*
X61082073Y15393968D01*
X61121401Y15421505D01*
X61288495Y15588599D01*
X61424035Y15782170D01*
X61523903Y15996337D01*
X61585063Y16224592D01*
X61585064Y16224599D01*
X61605659Y16459995D01*
X61605659Y16460006D01*
X61585064Y16695402D01*
X61585063Y16695405D01*
X61585063Y16695408D01*
X61523903Y16923663D01*
X61469616Y17040082D01*
X61424038Y17137823D01*
X61424034Y17137831D01*
X61334628Y17265516D01*
X61288495Y17331401D01*
X61121401Y17498495D01*
X61121397Y17498498D01*
X61121396Y17498499D01*
X61081638Y17526338D01*
X61014454Y17596519D01*
X60979242Y17687069D01*
X60981362Y17784200D01*
X61020491Y17873127D01*
X61081640Y17934276D01*
X61121075Y17961889D01*
X61288110Y18128924D01*
X61423600Y18322424D01*
X61523433Y18536515D01*
X61523433Y18536517D01*
X61580636Y18749999D01*
X61580636Y18750000D01*
X60683012Y18750000D01*
X60715925Y18807007D01*
X60750000Y18934174D01*
X60750000Y19065826D01*
X60715925Y19192993D01*
X60683012Y19250000D01*
X61587171Y19250000D01*
X61950000Y19250000D01*
X62250500Y19250000D01*
X62345788Y19231046D01*
X62426570Y19177070D01*
X62480546Y19096288D01*
X62499500Y19001000D01*
X62499500Y1013982D01*
X62497934Y986101D01*
X62490117Y916728D01*
X62477710Y862370D01*
X62459300Y809757D01*
X62435107Y759520D01*
X62405453Y712326D01*
X62370689Y668732D01*
X62331268Y629311D01*
X62287674Y594547D01*
X62240480Y564893D01*
X62190243Y540700D01*
X62137630Y522290D01*
X62083272Y509883D01*
X62047446Y505847D01*
X62013897Y502066D01*
X61986018Y500500D01*
X54999000Y500500D01*
X54903712Y519454D01*
X54822930Y573430D01*
X54768954Y654212D01*
X54750000Y749500D01*
X54750000Y1500000D01*
X54750000Y1986263D01*
X54773431Y2036510D01*
X54773433Y2036517D01*
X54830636Y2249999D01*
X54830636Y2250000D01*
X53933012Y2250000D01*
X53965925Y2307007D01*
X54000000Y2434174D01*
X54000000Y2565826D01*
X53965925Y2692993D01*
X53933012Y2750000D01*
X54830636Y2750000D01*
X54830636Y2750002D01*
X54773433Y2963484D01*
X54773433Y2963486D01*
X54764458Y2982732D01*
X54750000Y3041816D01*
X54750000Y3806290D01*
X54768954Y3901578D01*
X54786053Y3931603D01*
X54785260Y3932036D01*
X54793794Y3947666D01*
X54793794Y3947667D01*
X54793796Y3947669D01*
X54844091Y4082517D01*
X54850500Y4142127D01*
X54850500Y4657877D01*
X56359500Y4657877D01*
X56359500Y2862135D01*
X56359501Y2862131D01*
X56365908Y2802520D01*
X56365909Y2802516D01*
X56416203Y2667671D01*
X56416204Y2667669D01*
X56502454Y2552454D01*
X56617669Y2466204D01*
X56752517Y2415909D01*
X56812127Y2409500D01*
X58607872Y2409501D01*
X58667483Y2415909D01*
X58802331Y2466204D01*
X58917546Y2552454D01*
X59003796Y2667669D01*
X59003796Y2667671D01*
X59014469Y2681927D01*
X59017692Y2679515D01*
X59058534Y2728403D01*
X59144614Y2773451D01*
X59241381Y2782128D01*
X59334102Y2753114D01*
X59374863Y2725296D01*
X59378918Y2721894D01*
X59572423Y2586400D01*
X59786511Y2486569D01*
X60000000Y2429365D01*
X60000000Y3326988D01*
X60057007Y3294075D01*
X60184174Y3260000D01*
X60315826Y3260000D01*
X60442993Y3294075D01*
X60500000Y3326988D01*
X60500000Y2429365D01*
X60713488Y2486569D01*
X60927576Y2586400D01*
X61121076Y2721890D01*
X61288110Y2888924D01*
X61423600Y3082424D01*
X61523433Y3296515D01*
X61523433Y3296517D01*
X61580636Y3509999D01*
X61580636Y3510000D01*
X60683012Y3510000D01*
X60715925Y3567007D01*
X60750000Y3694174D01*
X60750000Y3825826D01*
X60715925Y3952993D01*
X60683012Y4010000D01*
X61580636Y4010000D01*
X61580636Y4010002D01*
X61523433Y4223484D01*
X61523429Y4223495D01*
X61423603Y4437572D01*
X61423599Y4437580D01*
X61288110Y4631077D01*
X61121076Y4798111D01*
X60927576Y4933601D01*
X60713484Y5033434D01*
X60500001Y5090637D01*
X60500000Y5090636D01*
X60500000Y4193012D01*
X60442993Y4225925D01*
X60315826Y4260000D01*
X60184174Y4260000D01*
X60057007Y4225925D01*
X60000000Y4193012D01*
X60000000Y5090636D01*
X59999998Y5090637D01*
X59786516Y5033434D01*
X59786505Y5033430D01*
X59572428Y4933604D01*
X59572420Y4933600D01*
X59378909Y4798101D01*
X59374854Y4794698D01*
X59371142Y4792662D01*
X59370017Y4791874D01*
X59369930Y4791998D01*
X59289674Y4747972D01*
X59193095Y4737400D01*
X59099823Y4764591D01*
X59024057Y4825407D01*
X59015092Y4838540D01*
X59014469Y4838073D01*
X59003796Y4852330D01*
X59003796Y4852331D01*
X58917546Y4967546D01*
X58802331Y5053796D01*
X58703555Y5090637D01*
X58667481Y5104092D01*
X58607873Y5110500D01*
X56812134Y5110500D01*
X56812130Y5110500D01*
X56812128Y5110499D01*
X56799314Y5109122D01*
X56752519Y5104092D01*
X56752515Y5104091D01*
X56617670Y5053797D01*
X56502455Y4967547D01*
X56502453Y4967545D01*
X56416204Y4852331D01*
X56365908Y4717482D01*
X56359500Y4657877D01*
X54850500Y4657877D01*
X54850499Y5937872D01*
X54844091Y5997483D01*
X54793796Y6132331D01*
X54707546Y6247546D01*
X54592331Y6333796D01*
X54506795Y6365699D01*
X54457481Y6384092D01*
X54397873Y6390500D01*
X52602134Y6390500D01*
X52602130Y6390500D01*
X52602128Y6390499D01*
X52589314Y6389122D01*
X52542519Y6384092D01*
X52542517Y6384091D01*
X52493203Y6365699D01*
X52406191Y6350000D01*
X51321727Y6350000D01*
X51257284Y6358484D01*
X51219408Y6368633D01*
X51195408Y6375063D01*
X51195406Y6375064D01*
X51195401Y6375065D01*
X50960005Y6395659D01*
X50959995Y6395659D01*
X50724598Y6375065D01*
X50724592Y6375063D01*
X50662716Y6358484D01*
X50598273Y6350000D01*
X48781727Y6350000D01*
X48717284Y6358484D01*
X48679408Y6368633D01*
X48655408Y6375063D01*
X48655406Y6375064D01*
X48655401Y6375065D01*
X48420005Y6395659D01*
X48419995Y6395659D01*
X48184598Y6375065D01*
X48184592Y6375063D01*
X48122716Y6358484D01*
X48058273Y6350000D01*
X46241727Y6350000D01*
X46177284Y6358484D01*
X46139408Y6368633D01*
X46115408Y6375063D01*
X46115406Y6375064D01*
X46115401Y6375065D01*
X45880005Y6395659D01*
X45879995Y6395659D01*
X45644598Y6375065D01*
X45644592Y6375063D01*
X45582716Y6358484D01*
X45518273Y6350000D01*
X43701727Y6350000D01*
X43637284Y6358484D01*
X43599408Y6368633D01*
X43575408Y6375063D01*
X43575406Y6375064D01*
X43575401Y6375065D01*
X43340005Y6395659D01*
X43339995Y6395659D01*
X43104598Y6375065D01*
X43104592Y6375063D01*
X43042716Y6358484D01*
X42978273Y6350000D01*
X41161727Y6350000D01*
X41097284Y6358484D01*
X41059408Y6368633D01*
X41035408Y6375063D01*
X41035406Y6375064D01*
X41035401Y6375065D01*
X40800005Y6395659D01*
X40799995Y6395659D01*
X40564598Y6375065D01*
X40564592Y6375063D01*
X40502716Y6358484D01*
X40438273Y6350000D01*
X38621727Y6350000D01*
X38557284Y6358484D01*
X38519408Y6368633D01*
X38495408Y6375063D01*
X38495406Y6375064D01*
X38495401Y6375065D01*
X38260005Y6395659D01*
X38259995Y6395659D01*
X38024598Y6375065D01*
X38024592Y6375063D01*
X37962716Y6358484D01*
X37898273Y6350000D01*
X36081727Y6350000D01*
X36017284Y6358484D01*
X35979408Y6368633D01*
X35955408Y6375063D01*
X35955406Y6375064D01*
X35955401Y6375065D01*
X35720005Y6395659D01*
X35719995Y6395659D01*
X35484598Y6375065D01*
X35256335Y6313903D01*
X35256333Y6313902D01*
X35042177Y6214039D01*
X35042169Y6214035D01*
X34848600Y6078496D01*
X34681504Y5911400D01*
X34545968Y5717833D01*
X34545961Y5717823D01*
X34446098Y5503667D01*
X34446097Y5503665D01*
X34384935Y5275402D01*
X34364341Y5040006D01*
X34364341Y5039995D01*
X34384935Y4804599D01*
X34434967Y4617873D01*
X34446097Y4576337D01*
X34529453Y4397580D01*
X34545965Y4362170D01*
X34645513Y4220000D01*
X34681505Y4168599D01*
X34848599Y4001505D01*
X34888362Y3973662D01*
X34955544Y3903483D01*
X34990757Y3812933D01*
X34988638Y3715802D01*
X34949509Y3626874D01*
X34888364Y3565728D01*
X34848923Y3538111D01*
X34681889Y3371077D01*
X34546400Y3177580D01*
X34546396Y3177572D01*
X34446570Y2963495D01*
X34446566Y2963484D01*
X34389363Y2750002D01*
X34389364Y2750000D01*
X35286988Y2750000D01*
X35254075Y2692993D01*
X35220000Y2565826D01*
X35220000Y2434174D01*
X35254075Y2307007D01*
X35286988Y2250000D01*
X34389364Y2250000D01*
X34389363Y2249999D01*
X34446566Y2036517D01*
X34446566Y2036515D01*
X34546399Y1822424D01*
X34681889Y1628924D01*
X34685366Y1625447D01*
X34687555Y1622170D01*
X34688878Y1620594D01*
X34688705Y1620450D01*
X34739342Y1544665D01*
X34750000Y1491084D01*
X34750000Y1407671D01*
X34750000Y749500D01*
X34731046Y654212D01*
X34677070Y573430D01*
X34596288Y519454D01*
X34501000Y500500D01*
X32499000Y500500D01*
X32403712Y519454D01*
X32322930Y573430D01*
X32268954Y654212D01*
X32250000Y749500D01*
X32250000Y4708947D01*
X32249999Y4708947D01*
X30176070Y2635017D01*
X30095288Y2581041D01*
X30000000Y2562087D01*
X29904712Y2581041D01*
X29823930Y2635017D01*
X29822516Y2636431D01*
X29768540Y2717213D01*
X29749586Y2812501D01*
X29768540Y2907789D01*
X29822516Y2988571D01*
X32229396Y5395452D01*
X32193353Y5492088D01*
X32107189Y5607188D01*
X32107187Y5607190D01*
X31992087Y5693354D01*
X31857378Y5743597D01*
X31857371Y5743599D01*
X31797832Y5750000D01*
X28202167Y5750000D01*
X28142628Y5743599D01*
X28142621Y5743597D01*
X28007912Y5693354D01*
X27892812Y5607190D01*
X27892806Y5607184D01*
X27878031Y5587447D01*
X27805752Y5522525D01*
X27714130Y5490206D01*
X27617114Y5495408D01*
X27560188Y5517683D01*
X27456841Y5573612D01*
X27382059Y5635634D01*
X27345308Y5697311D01*
X27336809Y5717829D01*
X27336807Y5717833D01*
X27323483Y5750000D01*
X27304312Y5796286D01*
X27286508Y5822930D01*
X27270084Y5847510D01*
X27270082Y5847513D01*
X27235860Y5898730D01*
X27235858Y5898733D01*
X27148733Y5985858D01*
X27148729Y5985861D01*
X23107139Y10027451D01*
X23053163Y10108233D01*
X23035774Y10175651D01*
X23035368Y10179255D01*
X22975789Y10349522D01*
X22975786Y10349527D01*
X22975785Y10349530D01*
X22879819Y10502258D01*
X22879817Y10502260D01*
X22879816Y10502262D01*
X22752262Y10629816D01*
X22752259Y10629818D01*
X22752257Y10629820D01*
X22599529Y10725786D01*
X22599524Y10725788D01*
X22599522Y10725789D01*
X22442258Y10780818D01*
X22358579Y10830180D01*
X22300158Y10907807D01*
X22275892Y11001883D01*
X22275500Y11015844D01*
X22275500Y11161601D01*
X22275500Y11161606D01*
X22272736Y11175500D01*
X22252099Y11279255D01*
X22251463Y11282452D01*
X22211057Y11380000D01*
X22204313Y11396282D01*
X22204310Y11396287D01*
X22135858Y11498733D01*
X22048733Y11585858D01*
X22048732Y11585859D01*
X21686661Y11947930D01*
X21632685Y12028712D01*
X21613731Y12124000D01*
X21632685Y12219288D01*
X21686661Y12300070D01*
X21767443Y12354046D01*
X21862731Y12373000D01*
X21908625Y12373000D01*
X21908632Y12373001D01*
X21968171Y12379402D01*
X21968178Y12379404D01*
X22062597Y12414620D01*
X22158501Y12430161D01*
X22253052Y12407819D01*
X22331856Y12350994D01*
X22382915Y12268338D01*
X22384627Y12263601D01*
X22424211Y12150478D01*
X22424213Y12150475D01*
X22424214Y12150471D01*
X22520180Y11997743D01*
X22520182Y11997741D01*
X22520184Y11997738D01*
X22647738Y11870184D01*
X22647740Y11870183D01*
X22647742Y11870181D01*
X22800470Y11774215D01*
X22800473Y11774214D01*
X22800478Y11774211D01*
X22970745Y11714632D01*
X22970754Y11714631D01*
X23149996Y11694435D01*
X23150000Y11694435D01*
X23150004Y11694435D01*
X23289908Y11710199D01*
X23329255Y11714632D01*
X23443264Y11754526D01*
X23539461Y11768106D01*
X23633536Y11743840D01*
X23711164Y11685419D01*
X23760527Y11601738D01*
X23774500Y11519498D01*
X23774500Y10788394D01*
X23784801Y10736605D01*
X23784800Y10736605D01*
X23798535Y10667555D01*
X23798538Y10667544D01*
X23804267Y10653714D01*
X23808082Y10644505D01*
X23845688Y10553714D01*
X23845689Y10553712D01*
X23869854Y10517548D01*
X23869855Y10517546D01*
X23881579Y10500000D01*
X23914142Y10451267D01*
X24001267Y10364142D01*
X24001270Y10364140D01*
X25989139Y8376271D01*
X25989142Y8376267D01*
X26076267Y8289142D01*
X26127486Y8254919D01*
X26127489Y8254916D01*
X26127490Y8254916D01*
X26178714Y8220688D01*
X26242093Y8194437D01*
X26242096Y8194434D01*
X26287934Y8175448D01*
X26292548Y8173537D01*
X26349454Y8162218D01*
X26413393Y8149500D01*
X26413394Y8149500D01*
X28362770Y8149500D01*
X28458058Y8130546D01*
X28538840Y8076570D01*
X28892860Y7722550D01*
X28946836Y7641768D01*
X28964224Y7574361D01*
X28964630Y7570753D01*
X28964631Y7570749D01*
X28964632Y7570745D01*
X29024211Y7400478D01*
X29024212Y7400477D01*
X29024214Y7400471D01*
X29120180Y7247743D01*
X29120182Y7247741D01*
X29120184Y7247738D01*
X29247738Y7120184D01*
X29247740Y7120183D01*
X29247742Y7120181D01*
X29400470Y7024215D01*
X29400473Y7024214D01*
X29400478Y7024211D01*
X29570745Y6964632D01*
X29570754Y6964631D01*
X29749996Y6944435D01*
X29750000Y6944435D01*
X29750004Y6944435D01*
X29889908Y6960199D01*
X29929255Y6964632D01*
X30099522Y7024211D01*
X30099527Y7024215D01*
X30099529Y7024215D01*
X30252257Y7120181D01*
X30252256Y7120181D01*
X30252262Y7120184D01*
X30379816Y7247738D01*
X30475789Y7400478D01*
X30535368Y7570745D01*
X30546097Y7665966D01*
X30555565Y7749997D01*
X30555565Y7750004D01*
X30535369Y7929246D01*
X30535368Y7929255D01*
X30475789Y8099522D01*
X30475786Y8099527D01*
X30475785Y8099530D01*
X30379819Y8252258D01*
X30379817Y8252260D01*
X30379816Y8252262D01*
X30252262Y8379816D01*
X30252259Y8379818D01*
X30252257Y8379820D01*
X30099529Y8475786D01*
X30099524Y8475788D01*
X30099522Y8475789D01*
X29929255Y8535368D01*
X29929251Y8535369D01*
X29929247Y8535370D01*
X29925639Y8535776D01*
X29921028Y8537246D01*
X29915616Y8538481D01*
X29915720Y8538938D01*
X29833073Y8565280D01*
X29777450Y8607140D01*
X29709659Y8674931D01*
X29655683Y8755713D01*
X29636729Y8851001D01*
X29655683Y8946289D01*
X29709659Y9027071D01*
X29790441Y9081047D01*
X29885728Y9100001D01*
X29975000Y9100002D01*
X29975000Y10501000D01*
X29993954Y10596288D01*
X30047930Y10677070D01*
X30128712Y10731046D01*
X30224000Y10750000D01*
X30226000Y10750000D01*
X30321288Y10731046D01*
X30402070Y10677070D01*
X30456046Y10596288D01*
X30475000Y10501000D01*
X30475000Y9100002D01*
X30475001Y9100001D01*
X30599968Y9100001D01*
X30599984Y9100002D01*
X30702699Y9110495D01*
X30702702Y9110496D01*
X30817969Y9148691D01*
X30828503Y9150000D01*
X30996860Y9150000D01*
X31092148Y9131046D01*
X31172930Y9077070D01*
X31327070Y8922930D01*
X31381046Y8842148D01*
X31400000Y8746860D01*
X31400000Y8550000D01*
X31600000Y8500000D01*
X31581392Y8588387D01*
X31616516Y8610915D01*
X31712143Y8628080D01*
X31807059Y8607345D01*
X31886815Y8551864D01*
X31939269Y8470086D01*
X31954912Y8407004D01*
X31964630Y8320754D01*
X31964631Y8320749D01*
X31964632Y8320745D01*
X32024211Y8150478D01*
X32024212Y8150477D01*
X32024214Y8150471D01*
X32120180Y7997743D01*
X32120182Y7997741D01*
X32120184Y7997738D01*
X32247738Y7870184D01*
X32247740Y7870183D01*
X32247742Y7870181D01*
X32400470Y7774215D01*
X32400473Y7774214D01*
X32400478Y7774211D01*
X32570745Y7714632D01*
X32570754Y7714631D01*
X32749996Y7694435D01*
X32750000Y7694435D01*
X32750004Y7694435D01*
X32889908Y7710199D01*
X32929255Y7714632D01*
X33099522Y7774211D01*
X33099527Y7774215D01*
X33099529Y7774215D01*
X33198391Y7836334D01*
X33289158Y7870982D01*
X33330867Y7874500D01*
X34036606Y7874500D01*
X34036607Y7874500D01*
X34100978Y7887304D01*
X34157452Y7898537D01*
X34193257Y7913368D01*
X34271286Y7945688D01*
X34322509Y7979916D01*
X34373733Y8014142D01*
X34460858Y8101267D01*
X34460858Y8101269D01*
X34481358Y8121768D01*
X34481362Y8121773D01*
X34521808Y8162219D01*
X34735858Y8376267D01*
X34804312Y8478715D01*
X34851463Y8592549D01*
X34853859Y8604592D01*
X34875500Y8713394D01*
X34875500Y9387771D01*
X34894454Y9483059D01*
X34948428Y9563839D01*
X37148729Y11764140D01*
X37148733Y11764142D01*
X37235858Y11851267D01*
X37292737Y11936392D01*
X37304312Y11953715D01*
X37343588Y12048537D01*
X37351463Y12067548D01*
X37375500Y12188394D01*
X37375500Y17237772D01*
X37394454Y17333060D01*
X37448428Y17413839D01*
X37877451Y17842863D01*
X37958230Y17896837D01*
X38025643Y17914226D01*
X38029255Y17914632D01*
X38199522Y17974211D01*
X38199527Y17974215D01*
X38199529Y17974215D01*
X38329157Y18055666D01*
X38352262Y18070184D01*
X38479816Y18197738D01*
X38514076Y18252262D01*
X38575785Y18350471D01*
X38575785Y18350473D01*
X38575789Y18350478D01*
X38635368Y18520745D01*
X38643521Y18593109D01*
X38655565Y18699997D01*
X38655565Y18700004D01*
X38635369Y18879246D01*
X38635368Y18879254D01*
X38632660Y18886994D01*
X38586726Y19018266D01*
X38573146Y19114461D01*
X38597412Y19208536D01*
X38655833Y19286164D01*
X38739514Y19335527D01*
X38821754Y19349500D01*
X41585993Y19349500D01*
X41681281Y19330546D01*
G37*
%TD.AperFunction*%
%TA.AperFunction,Conductor*%
G36*
X37794075Y2692993D02*
G01*
X37760000Y2565826D01*
X37760000Y2434174D01*
X37794075Y2307007D01*
X37826988Y2250000D01*
X36153012Y2250000D01*
X36185925Y2307007D01*
X36220000Y2434174D01*
X36220000Y2565826D01*
X36185925Y2692993D01*
X36153012Y2750000D01*
X37826988Y2750000D01*
X37794075Y2692993D01*
G37*
%TD.AperFunction*%
%TA.AperFunction,Conductor*%
G36*
X40334075Y2692993D02*
G01*
X40300000Y2565826D01*
X40300000Y2434174D01*
X40334075Y2307007D01*
X40366988Y2250000D01*
X38693012Y2250000D01*
X38725925Y2307007D01*
X38760000Y2434174D01*
X38760000Y2565826D01*
X38725925Y2692993D01*
X38693012Y2750000D01*
X40366988Y2750000D01*
X40334075Y2692993D01*
G37*
%TD.AperFunction*%
%TA.AperFunction,Conductor*%
G36*
X42874075Y2692993D02*
G01*
X42840000Y2565826D01*
X42840000Y2434174D01*
X42874075Y2307007D01*
X42906988Y2250000D01*
X41233012Y2250000D01*
X41265925Y2307007D01*
X41300000Y2434174D01*
X41300000Y2565826D01*
X41265925Y2692993D01*
X41233012Y2750000D01*
X42906988Y2750000D01*
X42874075Y2692993D01*
G37*
%TD.AperFunction*%
%TA.AperFunction,Conductor*%
G36*
X45414075Y2692993D02*
G01*
X45380000Y2565826D01*
X45380000Y2434174D01*
X45414075Y2307007D01*
X45446988Y2250000D01*
X43773012Y2250000D01*
X43805925Y2307007D01*
X43840000Y2434174D01*
X43840000Y2565826D01*
X43805925Y2692993D01*
X43773012Y2750000D01*
X45446988Y2750000D01*
X45414075Y2692993D01*
G37*
%TD.AperFunction*%
%TA.AperFunction,Conductor*%
G36*
X47954075Y2692993D02*
G01*
X47920000Y2565826D01*
X47920000Y2434174D01*
X47954075Y2307007D01*
X47986988Y2250000D01*
X46313012Y2250000D01*
X46345925Y2307007D01*
X46380000Y2434174D01*
X46380000Y2565826D01*
X46345925Y2692993D01*
X46313012Y2750000D01*
X47986988Y2750000D01*
X47954075Y2692993D01*
G37*
%TD.AperFunction*%
%TA.AperFunction,Conductor*%
G36*
X50494075Y2692993D02*
G01*
X50460000Y2565826D01*
X50460000Y2434174D01*
X50494075Y2307007D01*
X50526988Y2250000D01*
X48853012Y2250000D01*
X48885925Y2307007D01*
X48920000Y2434174D01*
X48920000Y2565826D01*
X48885925Y2692993D01*
X48853012Y2750000D01*
X50526988Y2750000D01*
X50494075Y2692993D01*
G37*
%TD.AperFunction*%
%TA.AperFunction,Conductor*%
G36*
X53034075Y2692993D02*
G01*
X53000000Y2565826D01*
X53000000Y2434174D01*
X53034075Y2307007D01*
X53066988Y2250000D01*
X51393012Y2250000D01*
X51425925Y2307007D01*
X51460000Y2434174D01*
X51460000Y2565826D01*
X51425925Y2692993D01*
X51393012Y2750000D01*
X53066988Y2750000D01*
X53034075Y2692993D01*
G37*
%TD.AperFunction*%
%TA.AperFunction,Conductor*%
G36*
X44359013Y22980546D02*
G01*
X44439795Y22926570D01*
X44493771Y22845788D01*
X44512725Y22750500D01*
X44500086Y22672178D01*
X44460495Y22552702D01*
X44460494Y22552695D01*
X44450000Y22449982D01*
X44450000Y22000001D01*
X44450001Y22000000D01*
X45526000Y22000000D01*
X45621288Y21981046D01*
X45702070Y21927070D01*
X45756046Y21846288D01*
X45775000Y21751000D01*
X45775000Y21749000D01*
X45756046Y21653712D01*
X45702070Y21572930D01*
X45621288Y21518954D01*
X45526000Y21500000D01*
X44450002Y21500000D01*
X44450001Y21499999D01*
X44450001Y21050013D01*
X44451015Y21040093D01*
X44441839Y20943373D01*
X44396349Y20857526D01*
X44321469Y20795622D01*
X44228599Y20767085D01*
X44131879Y20776261D01*
X44108015Y20784751D01*
X44060073Y20804609D01*
X44018913Y20821658D01*
X44018911Y20821659D01*
X43873920Y20850500D01*
X43873918Y20850500D01*
X43273918Y20850500D01*
X42873918Y20850500D01*
X42073918Y20850500D01*
X37464006Y20850500D01*
X37368718Y20869454D01*
X37287939Y20923428D01*
X36478416Y21732952D01*
X36478415Y21732953D01*
X36478411Y21732957D01*
X36404732Y21782185D01*
X36404729Y21782188D01*
X36404729Y21782187D01*
X36355495Y21815084D01*
X36218913Y21871658D01*
X36218911Y21871659D01*
X36073920Y21900500D01*
X36073918Y21900500D01*
X34976082Y21900500D01*
X34976079Y21900500D01*
X34831088Y21871659D01*
X34831089Y21871659D01*
X34694507Y21815085D01*
X34694502Y21815083D01*
X34645271Y21782189D01*
X34645270Y21782187D01*
X34627134Y21770069D01*
X34571579Y21732949D01*
X34571578Y21732948D01*
X33817047Y20978416D01*
X33781888Y20925793D01*
X33781885Y20925789D01*
X33734916Y20855496D01*
X33734912Y20855488D01*
X33678342Y20718915D01*
X33678341Y20718912D01*
X33649500Y20573921D01*
X33649500Y15399000D01*
X33630546Y15303712D01*
X33576570Y15222930D01*
X33495788Y15168954D01*
X33400500Y15150000D01*
X31575647Y15150000D01*
X31380238Y15150000D01*
X31374408Y15151417D01*
X31303215Y15201183D01*
X31254399Y15249999D01*
X30178400Y15249999D01*
X30083112Y15268953D01*
X30002330Y15322929D01*
X29948354Y15403711D01*
X29929400Y15498999D01*
X29929400Y16899998D01*
X30429400Y16899998D01*
X30429400Y15750000D01*
X30429401Y15749999D01*
X31254398Y15749999D01*
X31254399Y15750000D01*
X31254399Y16199967D01*
X31254398Y16199984D01*
X31243905Y16302699D01*
X31243904Y16302702D01*
X31188759Y16469119D01*
X31188758Y16469121D01*
X31096718Y16618341D01*
X31096715Y16618345D01*
X30972745Y16742315D01*
X30972741Y16742318D01*
X30823521Y16834358D01*
X30823520Y16834359D01*
X30657101Y16889504D01*
X30657094Y16889505D01*
X30554381Y16899999D01*
X30429401Y16899999D01*
X30429400Y16899998D01*
X29929400Y16899998D01*
X29929400Y16915444D01*
X29906523Y16949682D01*
X29900000Y16982476D01*
X29900000Y17375501D01*
X29918954Y17470789D01*
X29972930Y17551571D01*
X30053712Y17605547D01*
X30149000Y17624501D01*
X30575006Y17624501D01*
X30575008Y17624501D01*
X30677797Y17635001D01*
X30844334Y17690186D01*
X30993656Y17782288D01*
X31117712Y17906344D01*
X31209814Y18055666D01*
X31264999Y18222203D01*
X31275500Y18324991D01*
X31275499Y19675008D01*
X31264999Y19777797D01*
X31248258Y19828317D01*
X31209815Y19944331D01*
X31209814Y19944332D01*
X31209814Y19944334D01*
X31179004Y19994286D01*
X31145114Y20085332D01*
X31148646Y20182422D01*
X31179003Y20255714D01*
X31209814Y20305666D01*
X31264999Y20472203D01*
X31275500Y20574991D01*
X31275499Y21360994D01*
X31294453Y21456281D01*
X31348429Y21537062D01*
X31942713Y22131347D01*
X31989215Y22164327D01*
X31987680Y22166770D01*
X32077606Y22223275D01*
X32152262Y22270184D01*
X32279816Y22397738D01*
X32352804Y22513897D01*
X32375785Y22550471D01*
X32375785Y22550473D01*
X32375789Y22550478D01*
X32435368Y22720745D01*
X32441861Y22778380D01*
X32471365Y22870945D01*
X32534046Y22945175D01*
X32620362Y22989768D01*
X32689296Y22999500D01*
X44263725Y22999500D01*
X44359013Y22980546D01*
G37*
%TD.AperFunction*%
%TA.AperFunction,Conductor*%
G36*
X4834075Y19152993D02*
G01*
X4800000Y19025826D01*
X4800000Y18894174D01*
X4834075Y18767007D01*
X4866988Y18710000D01*
X3193012Y18710000D01*
X3225925Y18767007D01*
X3260000Y18894174D01*
X3260000Y19025826D01*
X3225925Y19152993D01*
X3193012Y19210000D01*
X4866988Y19210000D01*
X4834075Y19152993D01*
G37*
%TD.AperFunction*%
%TA.AperFunction,Conductor*%
G36*
X53528736Y20781046D02*
G01*
X53609518Y20727070D01*
X53645376Y20681718D01*
X53707284Y20581348D01*
X53716282Y20569969D01*
X53715328Y20569216D01*
X53761074Y20500746D01*
X53780023Y20405457D01*
X53769939Y20335326D01*
X53764978Y20318430D01*
X53764977Y20318422D01*
X53764976Y20318418D01*
X53744500Y20176002D01*
X53744500Y20175998D01*
X53744500Y18999000D01*
X53725546Y18903712D01*
X53671570Y18822930D01*
X53590788Y18768954D01*
X53495500Y18750000D01*
X52899000Y18750000D01*
X52803712Y18768954D01*
X52722930Y18822930D01*
X52668954Y18903712D01*
X52650000Y18999000D01*
X52650000Y19373325D01*
X52649999Y19373333D01*
X52643598Y19432872D01*
X52643596Y19432879D01*
X52593353Y19567588D01*
X52507189Y19682688D01*
X52507187Y19682690D01*
X52392085Y19768855D01*
X52287483Y19807870D01*
X52204826Y19858929D01*
X52148001Y19937732D01*
X52125659Y20032283D01*
X52125500Y20041170D01*
X52125500Y20310993D01*
X52144454Y20406281D01*
X52198427Y20487060D01*
X52292712Y20581344D01*
X52321859Y20628599D01*
X52354624Y20681718D01*
X52420779Y20752870D01*
X52509128Y20793288D01*
X52566552Y20800000D01*
X53433448Y20800000D01*
X53528736Y20781046D01*
G37*
%TD.AperFunction*%
%TA.AperFunction,Conductor*%
G36*
X59784075Y19192993D02*
G01*
X59750000Y19065826D01*
X59750000Y18934174D01*
X59784075Y18807007D01*
X59816988Y18750000D01*
X58143012Y18750000D01*
X58175925Y18807007D01*
X58210000Y18934174D01*
X58210000Y19065826D01*
X58175925Y19192993D01*
X58143012Y19250000D01*
X59816988Y19250000D01*
X59784075Y19192993D01*
G37*
%TD.AperFunction*%
%TD*%
%TA.AperFunction,Conductor*%
%TO.N,Net-(U2-COM1)*%
G36*
X14375870Y2771573D02*
G01*
X14378170Y2768310D01*
X14419997Y2680040D01*
X14419998Y2680038D01*
X14460898Y2605070D01*
X14464999Y2597553D01*
X14510000Y2527553D01*
X14510004Y2527548D01*
X14554991Y2470046D01*
X14555001Y2470035D01*
X14595074Y2429930D01*
X14598498Y2421655D01*
X14598012Y2418323D01*
X14261214Y1286680D01*
X14255569Y1279728D01*
X14246663Y1278803D01*
X14239711Y1284448D01*
X14238786Y1286680D01*
X13901987Y2418323D01*
X13902912Y2427229D01*
X13904921Y2429926D01*
X13945000Y2470036D01*
X13989999Y2527553D01*
X14035000Y2597553D01*
X14080000Y2680036D01*
X14121830Y2768310D01*
X14128469Y2774319D01*
X14132403Y2775000D01*
X14367597Y2775000D01*
X14375870Y2771573D01*
G37*
%TD.AperFunction*%
%TD*%
%TA.AperFunction,Conductor*%
%TO.N,Net-(U2-COM0)*%
G36*
X26875870Y2771573D02*
G01*
X26878170Y2768310D01*
X26919997Y2680040D01*
X26919998Y2680039D01*
X26920000Y2680036D01*
X26965000Y2597553D01*
X27010000Y2527553D01*
X27010004Y2527548D01*
X27054991Y2470046D01*
X27055001Y2470035D01*
X27095074Y2429930D01*
X27098498Y2421655D01*
X27098012Y2418323D01*
X26761214Y1286680D01*
X26755569Y1279728D01*
X26746663Y1278803D01*
X26739711Y1284448D01*
X26738786Y1286680D01*
X26401987Y2418323D01*
X26402912Y2427229D01*
X26404921Y2429926D01*
X26445000Y2470036D01*
X26490000Y2527553D01*
X26535000Y2597553D01*
X26580000Y2680036D01*
X26621830Y2768310D01*
X26628469Y2774319D01*
X26632403Y2775000D01*
X26867597Y2775000D01*
X26875870Y2771573D01*
G37*
%TD.AperFunction*%
%TD*%
M02*
