M48
; DRILL file {KiCad 8.0.6} date 2024-11-15T11:21:47+0700
; FORMAT={-:-/ absolute / inch / decimal}
; #@! TF.CreationDate,2024-11-15T11:21:47+07:00
; #@! TF.GenerationSoftware,Kicad,Pcbnew,8.0.6
; #@! TF.FileFunction,Plated,1,2,PTH
FMAT,2
INCH
; #@! TA.AperFunction,Plated,PTH,ViaDrill
T1C0.0118
; #@! TA.AperFunction,Plated,PTH,ComponentDrill
T2C0.0394
%
G90
G05
T1
X0.0394Y0.2264
X0.0394Y0.1673
X0.0394Y0.1083
X0.0394Y0.0591
X0.1378Y0.2559
X0.1969Y0.2559
X0.3051Y0.8563
X0.3051Y0.7972
X0.3051Y0.7382
X0.3051Y0.6791
X0.3051Y0.6299
X0.315Y0.1673
X0.315Y0.1083
X0.315Y0.0591
X0.3839Y0.8563
X0.4311Y0.5157
X0.4409Y0.7756
X0.4528Y0.8563
X0.4528Y0.6988
X0.4665Y0.4902
X0.4823Y0.6594
X0.4823Y0.5807
X0.502Y0.7579
X0.5295Y0.4783
X0.5413Y0.8563
X0.5413Y0.748
X0.5472Y0.4449
X0.628Y0.7067
X0.6299Y0.6713
X0.6496Y0.8012
X0.6516Y0.437
X0.6693Y0.7067
X0.6693Y0.6713
X0.687Y0.4252
X0.689Y0.8071
X0.7165Y0.7067
X0.7165Y0.6713
X0.7598Y0.7067
X0.7598Y0.6713
X0.7854Y0.4232
X0.7874Y0.8071
X0.8012Y0.7067
X0.8012Y0.6713
X0.8071Y0.2067
X0.8071Y0.1575
X0.8071Y0.0984
X0.8071Y0.0512
X0.8189Y0.8209
X0.8248Y0.4213
X0.8524Y0.8209
X0.876Y0.7717
X0.876Y0.3937
X0.8898Y0.8602
X0.9075Y0.8248
X0.9114Y0.4921
X0.939Y0.8602
X0.9685Y0.7677
X0.9724Y0.7323
X0.9921Y0.8602
X0.998Y0.7953
X0.998Y0.7087
X1.1713Y0.3051
X1.2402Y0.6693
X1.2461Y0.9016
X1.252Y0.8445
X1.2598Y0.4134
X1.2894Y0.3937
X1.2894Y0.3346
X1.2894Y0.1575
X1.2894Y0.0984
X1.2894Y0.0512
X1.2992Y0.6693
X1.3031Y0.8445
X1.3091Y0.3642
X1.3287Y0.2165
X1.3976Y0.7913
X1.4173Y0.498
X1.4252Y0.7638
X1.4272Y0.3051
X1.4902Y0.7362
X1.5413Y0.6673
X1.5768Y0.3543
X1.5807Y0.8445
X1.6299Y0.6673
X1.6496Y0.8445
X1.6772Y0.6181
X1.6949Y0.5531
X1.7224Y0.6673
X1.7303Y0.8445
X1.752Y0.4921
X1.8307Y0.5807
X1.8307Y0.4331
X1.9803Y0.4626
X2.0138Y0.4134
X2.0531Y0.4134
X2.0768Y0.7972
X2.0965Y0.7515
X2.187Y0.2185
X2.2047Y0.0689
X2.2067Y0.3268
X2.3228Y0.0689
X2.4409Y0.0689
T2
X0.1087Y0.8465
X0.1087Y0.7465
X0.1087Y0.6465
X0.1087Y0.5465
X0.1087Y0.4465
X0.1087Y0.3465
X0.1087Y0.1465
X0.2087Y0.8465
X0.2087Y0.7465
X0.2087Y0.6465
X0.2087Y0.5465
X0.2087Y0.4465
X0.2087Y0.3465
X0.2087Y0.1465
X0.561Y0.1673
X1.0531Y0.1673
X1.4063Y0.1984
X1.4063Y0.0984
X1.5063Y0.1984
X1.5063Y0.0984
X1.6063Y0.1984
X1.6063Y0.0984
X1.7063Y0.1984
X1.7063Y0.0984
X1.8063Y0.1984
X1.8063Y0.0984
X1.9063Y0.1984
X1.9063Y0.0984
X2.0063Y0.1984
X2.0063Y0.0984
X2.1063Y0.1984
X2.1063Y0.0984
X2.272Y0.848
X2.272Y0.748
X2.272Y0.648
X2.272Y0.548
X2.272Y0.448
X2.272Y0.348
X2.272Y0.148
X2.372Y0.848
X2.372Y0.748
X2.372Y0.648
X2.372Y0.548
X2.372Y0.448
X2.372Y0.348
X2.372Y0.148
M30
