%TF.GenerationSoftware,KiCad,Pcbnew,8.0.6*%
%TF.CreationDate,2024-11-15T11:21:47+07:00*%
%TF.ProjectId,MAX14866_PMOD,4d415831-3438-4363-965f-504d4f442e6b,rev?*%
%TF.SameCoordinates,Original*%
%TF.FileFunction,Legend,Top*%
%TF.FilePolarity,Positive*%
%FSLAX46Y46*%
G04 Gerber Fmt 4.6, Leading zero omitted, Abs format (unit mm)*
G04 Created by KiCad (PCBNEW 8.0.6) date 2024-11-15 11:21:47*
%MOMM*%
%LPD*%
G01*
G04 APERTURE LIST*
G04 Aperture macros list*
%AMRoundRect*
0 Rectangle with rounded corners*
0 $1 Rounding radius*
0 $2 $3 $4 $5 $6 $7 $8 $9 X,Y pos of 4 corners*
0 Add a 4 corners polygon primitive as box body*
4,1,4,$2,$3,$4,$5,$6,$7,$8,$9,$2,$3,0*
0 Add four circle primitives for the rounded corners*
1,1,$1+$1,$2,$3*
1,1,$1+$1,$4,$5*
1,1,$1+$1,$6,$7*
1,1,$1+$1,$8,$9*
0 Add four rect primitives between the rounded corners*
20,1,$1+$1,$2,$3,$4,$5,0*
20,1,$1+$1,$4,$5,$6,$7,0*
20,1,$1+$1,$6,$7,$8,$9,0*
20,1,$1+$1,$8,$9,$2,$3,0*%
G04 Aperture macros list end*
%ADD10C,0.100000*%
%ADD11C,0.200000*%
%ADD12C,0.150000*%
%ADD13C,0.120000*%
%ADD14C,0.152400*%
%ADD15C,0.000000*%
%ADD16C,2.000000*%
%ADD17R,0.700000X2.350000*%
%ADD18R,3.600000X4.875000*%
%ADD19R,3.500000X4.875000*%
%ADD20RoundRect,0.250000X-0.312500X-0.625000X0.312500X-0.625000X0.312500X0.625000X-0.312500X0.625000X0*%
%ADD21R,1.700000X1.700000*%
%ADD22O,1.700000X1.700000*%
%ADD23RoundRect,0.250000X0.625000X-0.312500X0.625000X0.312500X-0.625000X0.312500X-0.625000X-0.312500X0*%
%ADD24R,0.254000X0.812800*%
%ADD25R,0.812800X0.254000*%
%ADD26R,5.588000X5.588000*%
%ADD27RoundRect,0.250000X0.275000X0.700000X-0.275000X0.700000X-0.275000X-0.700000X0.275000X-0.700000X0*%
%ADD28RoundRect,0.250000X0.325000X0.650000X-0.325000X0.650000X-0.325000X-0.650000X0.325000X-0.650000X0*%
%ADD29R,0.300000X0.475000*%
%ADD30RoundRect,0.250000X0.650000X-0.325000X0.650000X0.325000X-0.650000X0.325000X-0.650000X-0.325000X0*%
%ADD31RoundRect,0.250000X-0.325000X-0.650000X0.325000X-0.650000X0.325000X0.650000X-0.325000X0.650000X0*%
G04 APERTURE END LIST*
D10*
X20750000Y21250000D02*
X20250000Y22250000D01*
X21250000Y22250000D01*
X20750000Y21250000D01*
G36*
X20750000Y21250000D02*
G01*
X20250000Y22250000D01*
X21250000Y22250000D01*
X20750000Y21250000D01*
G37*
X58925000Y6650000D02*
X59675000Y7150000D01*
X13975000Y9100000D02*
X14725000Y8600000D01*
X13975000Y9100000D02*
X14725000Y9600000D01*
X16225000Y9100000D02*
X13975000Y9100000D01*
X58925000Y6650000D02*
X59675000Y6150000D01*
X61175000Y6650000D02*
X58925000Y6650000D01*
D11*
G36*
X9200912Y9877739D02*
G01*
X9360328Y9718324D01*
X9445863Y9376187D01*
X9445863Y8734139D01*
X9360328Y8392002D01*
X9200913Y8232586D01*
X9046066Y8155162D01*
X8712328Y8155162D01*
X8557480Y8232586D01*
X8398064Y8392002D01*
X8312530Y8734139D01*
X8312530Y9376186D01*
X8398064Y9718323D01*
X8557479Y9877738D01*
X8712328Y9955162D01*
X9046066Y9955162D01*
X9200912Y9877739D01*
G37*
G36*
X13675688Y7732940D02*
G01*
X7890308Y7732940D01*
X7890308Y9388496D01*
X8112530Y9388496D01*
X8112530Y8721829D01*
X8112865Y8718427D01*
X8112648Y8716968D01*
X8113727Y8709671D01*
X8114451Y8702320D01*
X8115015Y8700957D01*
X8115516Y8697575D01*
X8210754Y8316624D01*
X8217349Y8298163D01*
X8221775Y8292189D01*
X8224621Y8285320D01*
X8237057Y8270167D01*
X8427533Y8079690D01*
X8435199Y8073398D01*
X8436932Y8071400D01*
X8439940Y8069507D01*
X8442686Y8067253D01*
X8445126Y8066243D01*
X8453523Y8060957D01*
X8643999Y7965719D01*
X8662307Y7958713D01*
X8665890Y7958459D01*
X8669211Y7957083D01*
X8688720Y7955162D01*
X9069673Y7955162D01*
X9089182Y7957083D01*
X9092502Y7958459D01*
X9096086Y7958713D01*
X9114394Y7965719D01*
X9304871Y8060957D01*
X9313268Y8066243D01*
X9315707Y8067253D01*
X9318451Y8069506D01*
X9321461Y8071400D01*
X9323193Y8073398D01*
X9330860Y8079690D01*
X9521336Y8270166D01*
X9533772Y8285320D01*
X9536616Y8292188D01*
X9541044Y8298163D01*
X9547639Y8316623D01*
X9642877Y8697575D01*
X9643377Y8700957D01*
X9643942Y8702320D01*
X9644665Y8709671D01*
X9645745Y8716968D01*
X9645527Y8718427D01*
X9645863Y8721829D01*
X9645863Y9388496D01*
X9645527Y9391899D01*
X9645745Y9393357D01*
X9644665Y9400655D01*
X9643942Y9408005D01*
X9643377Y9409369D01*
X9642877Y9412750D01*
X9547639Y9793702D01*
X9541044Y9812162D01*
X9536617Y9818137D01*
X9533772Y9825005D01*
X9521336Y9840158D01*
X9330860Y10030635D01*
X9323193Y10036927D01*
X9321461Y10038924D01*
X9318449Y10040820D01*
X9315706Y10043071D01*
X9313269Y10044081D01*
X9304871Y10049367D01*
X9293281Y10055162D01*
X10303006Y10055162D01*
X10303006Y8436115D01*
X10304927Y8416606D01*
X10306302Y8413286D01*
X10306557Y8409702D01*
X10313563Y8391394D01*
X10408801Y8200917D01*
X10414085Y8192523D01*
X10415096Y8190082D01*
X10417350Y8187336D01*
X10419244Y8184327D01*
X10421240Y8182596D01*
X10427533Y8174929D01*
X10522771Y8079689D01*
X10530439Y8073396D01*
X10532170Y8071400D01*
X10535177Y8069507D01*
X10537924Y8067253D01*
X10540364Y8066243D01*
X10548761Y8060957D01*
X10739237Y7965719D01*
X10757545Y7958713D01*
X10761128Y7958459D01*
X10764449Y7957083D01*
X10783958Y7955162D01*
X11164911Y7955162D01*
X11184420Y7957083D01*
X11187740Y7958459D01*
X11191324Y7958713D01*
X11209632Y7965719D01*
X11400109Y8060957D01*
X11408506Y8066243D01*
X11410945Y8067253D01*
X11413689Y8069506D01*
X11416699Y8071400D01*
X11418431Y8073398D01*
X11426098Y8079690D01*
X11521336Y8174929D01*
X11527628Y8182596D01*
X11529625Y8184327D01*
X11531518Y8187335D01*
X11533773Y8190082D01*
X11534784Y8192524D01*
X11540068Y8200918D01*
X11635306Y8391394D01*
X11642312Y8409702D01*
X11642566Y8413286D01*
X11643942Y8416606D01*
X11645863Y8436115D01*
X11645863Y10055162D01*
X11643942Y10074671D01*
X12114451Y10074671D01*
X12114451Y10035653D01*
X12129383Y9999605D01*
X12156973Y9972015D01*
X12193021Y9957083D01*
X12212530Y9955162D01*
X12683958Y9955162D01*
X12683958Y8055162D01*
X12685879Y8035653D01*
X12700811Y7999605D01*
X12728401Y7972015D01*
X12764449Y7957083D01*
X12803467Y7957083D01*
X12839515Y7972015D01*
X12867105Y7999605D01*
X12882037Y8035653D01*
X12883958Y8055162D01*
X12883958Y9955162D01*
X13355387Y9955162D01*
X13374896Y9957083D01*
X13410944Y9972015D01*
X13438534Y9999605D01*
X13453466Y10035653D01*
X13453466Y10074671D01*
X13438534Y10110719D01*
X13410944Y10138309D01*
X13374896Y10153241D01*
X13355387Y10155162D01*
X12212530Y10155162D01*
X12193021Y10153241D01*
X12156973Y10138309D01*
X12129383Y10110719D01*
X12114451Y10074671D01*
X11643942Y10074671D01*
X11629010Y10110719D01*
X11601420Y10138309D01*
X11565372Y10153241D01*
X11526354Y10153241D01*
X11490306Y10138309D01*
X11462716Y10110719D01*
X11447784Y10074671D01*
X11445863Y10055162D01*
X11445863Y8459723D01*
X11368439Y8304876D01*
X11296151Y8232586D01*
X11141304Y8155162D01*
X10807566Y8155162D01*
X10652717Y8232586D01*
X10580430Y8304874D01*
X10503006Y8459722D01*
X10503006Y10055162D01*
X10501085Y10074671D01*
X10486153Y10110719D01*
X10458563Y10138309D01*
X10422515Y10153241D01*
X10383497Y10153241D01*
X10347449Y10138309D01*
X10319859Y10110719D01*
X10304927Y10074671D01*
X10303006Y10055162D01*
X9293281Y10055162D01*
X9114394Y10144605D01*
X9096086Y10151611D01*
X9092502Y10151866D01*
X9089182Y10153241D01*
X9069673Y10155162D01*
X8688720Y10155162D01*
X8669211Y10153241D01*
X8665890Y10151866D01*
X8662307Y10151611D01*
X8643999Y10144605D01*
X8453523Y10049367D01*
X8445124Y10044081D01*
X8442687Y10043071D01*
X8439944Y10040820D01*
X8436932Y10038924D01*
X8435198Y10036926D01*
X8427534Y10030635D01*
X8237057Y9840159D01*
X8224621Y9825005D01*
X8221775Y9818137D01*
X8217349Y9812162D01*
X8210754Y9793701D01*
X8115516Y9412750D01*
X8115015Y9409369D01*
X8114451Y9408005D01*
X8113727Y9400655D01*
X8112648Y9393357D01*
X8112865Y9391899D01*
X8112530Y9388496D01*
X7890308Y9388496D01*
X7890308Y10377384D01*
X13675688Y10377384D01*
X13675688Y7732940D01*
G37*
D10*
G36*
X48242534Y7293119D02*
G01*
X48269154Y7266498D01*
X48298342Y7208123D01*
X48298342Y7079348D01*
X48269155Y7020974D01*
X48242535Y6994353D01*
X48184159Y6965164D01*
X48017288Y6965164D01*
X47958913Y6994352D01*
X47932292Y7020972D01*
X47903104Y7079349D01*
X47903104Y7208123D01*
X47932293Y7266500D01*
X47958913Y7293120D01*
X48017288Y7322307D01*
X48184158Y7322307D01*
X48242534Y7293119D01*
G37*
G36*
X48603104Y7841252D02*
G01*
X48573916Y7782878D01*
X48547296Y7756257D01*
X48488920Y7727068D01*
X48398241Y7727068D01*
X48339865Y7756257D01*
X48313244Y7782877D01*
X48284057Y7841252D01*
X48284057Y8084211D01*
X48603104Y8084211D01*
X48603104Y7841252D01*
G37*
G36*
X48791993Y6776275D02*
G01*
X47714215Y6776275D01*
X47714215Y7219926D01*
X47803104Y7219926D01*
X47803104Y7067545D01*
X47803592Y7065089D01*
X47803230Y7064000D01*
X47805346Y7056273D01*
X47806910Y7048411D01*
X47807721Y7047600D01*
X47808383Y7045184D01*
X47846479Y6968993D01*
X47851392Y6962662D01*
X47855845Y6955999D01*
X47893939Y6917904D01*
X47900605Y6913450D01*
X47906934Y6908538D01*
X47983124Y6870443D01*
X47985539Y6869782D01*
X47986351Y6868970D01*
X47994212Y6867407D01*
X48001940Y6865290D01*
X48003028Y6865653D01*
X48005485Y6865164D01*
X48195961Y6865164D01*
X48198417Y6865653D01*
X48199505Y6865290D01*
X48207229Y6867406D01*
X48215095Y6868970D01*
X48215906Y6869782D01*
X48218321Y6870443D01*
X48294513Y6908538D01*
X48300844Y6913452D01*
X48307507Y6917904D01*
X48345602Y6955998D01*
X48350061Y6962673D01*
X48354968Y6968994D01*
X48393064Y7045185D01*
X48393725Y7047601D01*
X48394536Y7048411D01*
X48396099Y7056272D01*
X48398216Y7064001D01*
X48397853Y7065089D01*
X48398342Y7067545D01*
X48398342Y7219926D01*
X48397853Y7222383D01*
X48398216Y7223471D01*
X48396099Y7231199D01*
X48394536Y7239060D01*
X48393724Y7239872D01*
X48393063Y7242287D01*
X48360047Y7308318D01*
X48442097Y7287805D01*
X48545059Y7219166D01*
X48573917Y7190307D01*
X48603104Y7131933D01*
X48603104Y6991354D01*
X48606910Y6972220D01*
X48633970Y6945160D01*
X48672238Y6945160D01*
X48699298Y6972220D01*
X48703104Y6991354D01*
X48703104Y7143735D01*
X48702615Y7146192D01*
X48702978Y7147279D01*
X48700861Y7155009D01*
X48699298Y7162869D01*
X48698487Y7163680D01*
X48697826Y7166095D01*
X48659730Y7242286D01*
X48654823Y7248608D01*
X48650364Y7255282D01*
X48612269Y7293376D01*
X48608155Y7296125D01*
X48604649Y7299624D01*
X48490363Y7375814D01*
X48482473Y7379072D01*
X48474755Y7382718D01*
X48322374Y7420814D01*
X48316256Y7421112D01*
X48310247Y7422307D01*
X48005485Y7422307D01*
X48003027Y7421819D01*
X48001939Y7422181D01*
X47994209Y7420065D01*
X47986351Y7418501D01*
X47985539Y7417690D01*
X47983123Y7417028D01*
X47906934Y7378932D01*
X47900605Y7374021D01*
X47893939Y7369566D01*
X47855845Y7331471D01*
X47851392Y7324809D01*
X47846479Y7318477D01*
X47808383Y7242287D01*
X47807721Y7239872D01*
X47806910Y7239060D01*
X47805346Y7231199D01*
X47803230Y7223471D01*
X47803592Y7222383D01*
X47803104Y7219926D01*
X47714215Y7219926D01*
X47714215Y7666253D01*
X47804288Y7666253D01*
X47826233Y7634902D01*
X47863919Y7628252D01*
X47881777Y7636106D01*
X48184057Y7847702D01*
X48184057Y7829449D01*
X48184545Y7826993D01*
X48184183Y7825904D01*
X48186299Y7818177D01*
X48187863Y7810315D01*
X48188674Y7809504D01*
X48189336Y7807088D01*
X48227431Y7730898D01*
X48232346Y7724564D01*
X48236797Y7717904D01*
X48274891Y7679809D01*
X48281557Y7675355D01*
X48287886Y7670443D01*
X48364077Y7632347D01*
X48366492Y7631686D01*
X48367304Y7630874D01*
X48375165Y7629311D01*
X48382893Y7627194D01*
X48383981Y7627557D01*
X48386438Y7627068D01*
X48500723Y7627068D01*
X48503179Y7627557D01*
X48504268Y7627194D01*
X48511995Y7629311D01*
X48519857Y7630874D01*
X48520668Y7631686D01*
X48523084Y7632347D01*
X48599275Y7670443D01*
X48605606Y7675357D01*
X48612269Y7679809D01*
X48650364Y7717903D01*
X48654818Y7724570D01*
X48659730Y7730898D01*
X48697825Y7807088D01*
X48698486Y7809504D01*
X48699298Y7810315D01*
X48700861Y7818177D01*
X48702978Y7825904D01*
X48702615Y7826993D01*
X48703104Y7829449D01*
X48703104Y8134211D01*
X48699298Y8153345D01*
X48672238Y8180405D01*
X48653104Y8184211D01*
X47853104Y8184211D01*
X47833970Y8180405D01*
X47806910Y8153345D01*
X47806910Y8115077D01*
X47833970Y8088017D01*
X47853104Y8084211D01*
X48184057Y8084211D01*
X48184057Y7969768D01*
X47824431Y7718030D01*
X47810938Y7703939D01*
X47804288Y7666253D01*
X47714215Y7666253D01*
X47714215Y8648584D01*
X47806910Y8648584D01*
X47806910Y8610316D01*
X47833970Y8583256D01*
X47853104Y8579450D01*
X48603104Y8579450D01*
X48603104Y8400878D01*
X48606910Y8381744D01*
X48633970Y8354684D01*
X48672238Y8354684D01*
X48699298Y8381744D01*
X48703104Y8400878D01*
X48703104Y8858021D01*
X48699298Y8877155D01*
X48672238Y8904215D01*
X48633970Y8904215D01*
X48606910Y8877155D01*
X48603104Y8858021D01*
X48603104Y8679450D01*
X47853104Y8679450D01*
X47833970Y8675644D01*
X47806910Y8648584D01*
X47714215Y8648584D01*
X47714215Y8993104D01*
X48791993Y8993104D01*
X48791993Y6776275D01*
G37*
G36*
X43353104Y7841252D02*
G01*
X43323916Y7782878D01*
X43297296Y7756257D01*
X43238920Y7727068D01*
X43148241Y7727068D01*
X43089865Y7756257D01*
X43063244Y7782877D01*
X43034057Y7841252D01*
X43034057Y8084211D01*
X43353104Y8084211D01*
X43353104Y7841252D01*
G37*
G36*
X43579963Y6741985D02*
G01*
X42465399Y6741985D01*
X42465399Y7010488D01*
X42556910Y7010488D01*
X42556910Y6972220D01*
X42583970Y6945160D01*
X42603104Y6941354D01*
X42819771Y6941354D01*
X42819771Y6877068D01*
X42823577Y6857934D01*
X42850637Y6830874D01*
X42888905Y6830874D01*
X42915965Y6857934D01*
X42919771Y6877068D01*
X42919771Y6941354D01*
X43136438Y6941354D01*
X43155572Y6945160D01*
X43182632Y6972220D01*
X43182632Y7010488D01*
X43155572Y7037548D01*
X43136438Y7041354D01*
X42919771Y7041354D01*
X42919771Y7302936D01*
X43425388Y7134396D01*
X43444744Y7131956D01*
X43478972Y7149070D01*
X43491074Y7185374D01*
X43473960Y7219603D01*
X43457011Y7229264D01*
X42885582Y7419741D01*
X42866227Y7422181D01*
X42858867Y7418501D01*
X42850637Y7418501D01*
X42842407Y7410272D01*
X42831998Y7405067D01*
X42829395Y7397260D01*
X42823577Y7391441D01*
X42819771Y7372307D01*
X42819771Y7041354D01*
X42603104Y7041354D01*
X42583970Y7037548D01*
X42556910Y7010488D01*
X42465399Y7010488D01*
X42465399Y7666253D01*
X42554288Y7666253D01*
X42576233Y7634902D01*
X42613919Y7628252D01*
X42631777Y7636106D01*
X42934057Y7847702D01*
X42934057Y7829449D01*
X42934545Y7826993D01*
X42934183Y7825904D01*
X42936299Y7818177D01*
X42937863Y7810315D01*
X42938674Y7809504D01*
X42939336Y7807088D01*
X42977431Y7730898D01*
X42982346Y7724564D01*
X42986797Y7717904D01*
X43024891Y7679809D01*
X43031557Y7675355D01*
X43037886Y7670443D01*
X43114077Y7632347D01*
X43116492Y7631686D01*
X43117304Y7630874D01*
X43125165Y7629311D01*
X43132893Y7627194D01*
X43133981Y7627557D01*
X43136438Y7627068D01*
X43250723Y7627068D01*
X43253179Y7627557D01*
X43254268Y7627194D01*
X43261995Y7629311D01*
X43269857Y7630874D01*
X43270668Y7631686D01*
X43273084Y7632347D01*
X43349275Y7670443D01*
X43355606Y7675357D01*
X43362269Y7679809D01*
X43400364Y7717903D01*
X43404818Y7724570D01*
X43409730Y7730898D01*
X43447825Y7807088D01*
X43448486Y7809504D01*
X43449298Y7810315D01*
X43450861Y7818177D01*
X43452978Y7825904D01*
X43452615Y7826993D01*
X43453104Y7829449D01*
X43453104Y8134211D01*
X43449298Y8153345D01*
X43422238Y8180405D01*
X43403104Y8184211D01*
X42603104Y8184211D01*
X42583970Y8180405D01*
X42556910Y8153345D01*
X42556910Y8115077D01*
X42583970Y8088017D01*
X42603104Y8084211D01*
X42934057Y8084211D01*
X42934057Y7969768D01*
X42574431Y7718030D01*
X42560938Y7703939D01*
X42554288Y7666253D01*
X42465399Y7666253D01*
X42465399Y8648584D01*
X42556910Y8648584D01*
X42556910Y8610316D01*
X42583970Y8583256D01*
X42603104Y8579450D01*
X43353104Y8579450D01*
X43353104Y8400878D01*
X43356910Y8381744D01*
X43383970Y8354684D01*
X43422238Y8354684D01*
X43449298Y8381744D01*
X43453104Y8400878D01*
X43453104Y8858021D01*
X43449298Y8877155D01*
X43422238Y8904215D01*
X43383970Y8904215D01*
X43356910Y8877155D01*
X43353104Y8858021D01*
X43353104Y8679450D01*
X42603104Y8679450D01*
X42583970Y8675644D01*
X42556910Y8648584D01*
X42465399Y8648584D01*
X42465399Y8993104D01*
X43579963Y8993104D01*
X43579963Y6741985D01*
G37*
G36*
X51353104Y7841252D02*
G01*
X51323916Y7782878D01*
X51297296Y7756257D01*
X51238920Y7727068D01*
X51148241Y7727068D01*
X51089865Y7756257D01*
X51063244Y7782877D01*
X51034057Y7841252D01*
X51034057Y8084211D01*
X51353104Y8084211D01*
X51353104Y7841252D01*
G37*
G36*
X51541993Y6738183D02*
G01*
X50464219Y6738183D01*
X50464219Y7220536D01*
X50553108Y7220536D01*
X50567320Y7185004D01*
X50583408Y7173969D01*
X51383408Y6831111D01*
X51383820Y6831024D01*
X51383970Y6830874D01*
X51384528Y6830874D01*
X51402494Y6827072D01*
X51411999Y6830874D01*
X51422238Y6830874D01*
X51429063Y6837700D01*
X51438025Y6841284D01*
X51442057Y6850694D01*
X51449298Y6857934D01*
X51452881Y6875948D01*
X51453100Y6876458D01*
X51453021Y6876654D01*
X51453104Y6877068D01*
X51453104Y7410402D01*
X51449298Y7429536D01*
X51422238Y7456596D01*
X51383970Y7456596D01*
X51356910Y7429536D01*
X51353104Y7410402D01*
X51353104Y6952895D01*
X50622800Y7265883D01*
X50603714Y7269922D01*
X50568182Y7255710D01*
X50553108Y7220536D01*
X50464219Y7220536D01*
X50464219Y7666253D01*
X50554288Y7666253D01*
X50576233Y7634902D01*
X50613919Y7628252D01*
X50631777Y7636106D01*
X50934057Y7847702D01*
X50934057Y7829449D01*
X50934545Y7826993D01*
X50934183Y7825904D01*
X50936299Y7818177D01*
X50937863Y7810315D01*
X50938674Y7809504D01*
X50939336Y7807088D01*
X50977431Y7730898D01*
X50982346Y7724564D01*
X50986797Y7717904D01*
X51024891Y7679809D01*
X51031557Y7675355D01*
X51037886Y7670443D01*
X51114077Y7632347D01*
X51116492Y7631686D01*
X51117304Y7630874D01*
X51125165Y7629311D01*
X51132893Y7627194D01*
X51133981Y7627557D01*
X51136438Y7627068D01*
X51250723Y7627068D01*
X51253179Y7627557D01*
X51254268Y7627194D01*
X51261995Y7629311D01*
X51269857Y7630874D01*
X51270668Y7631686D01*
X51273084Y7632347D01*
X51349275Y7670443D01*
X51355606Y7675357D01*
X51362269Y7679809D01*
X51400364Y7717903D01*
X51404818Y7724570D01*
X51409730Y7730898D01*
X51447825Y7807088D01*
X51448486Y7809504D01*
X51449298Y7810315D01*
X51450861Y7818177D01*
X51452978Y7825904D01*
X51452615Y7826993D01*
X51453104Y7829449D01*
X51453104Y8134211D01*
X51449298Y8153345D01*
X51422238Y8180405D01*
X51403104Y8184211D01*
X50603104Y8184211D01*
X50583970Y8180405D01*
X50556910Y8153345D01*
X50556910Y8115077D01*
X50583970Y8088017D01*
X50603104Y8084211D01*
X50934057Y8084211D01*
X50934057Y7969768D01*
X50574431Y7718030D01*
X50560938Y7703939D01*
X50554288Y7666253D01*
X50464219Y7666253D01*
X50464219Y8648584D01*
X50556910Y8648584D01*
X50556910Y8610316D01*
X50583970Y8583256D01*
X50603104Y8579450D01*
X51353104Y8579450D01*
X51353104Y8400878D01*
X51356910Y8381744D01*
X51383970Y8354684D01*
X51422238Y8354684D01*
X51449298Y8381744D01*
X51453104Y8400878D01*
X51453104Y8858021D01*
X51449298Y8877155D01*
X51422238Y8904215D01*
X51383970Y8904215D01*
X51356910Y8877155D01*
X51353104Y8858021D01*
X51353104Y8679450D01*
X50603104Y8679450D01*
X50583970Y8675644D01*
X50556910Y8648584D01*
X50464219Y8648584D01*
X50464219Y8993104D01*
X51541993Y8993104D01*
X51541993Y6738183D01*
G37*
G36*
X35853104Y7841252D02*
G01*
X35823916Y7782878D01*
X35797296Y7756257D01*
X35738920Y7727068D01*
X35648241Y7727068D01*
X35589865Y7756257D01*
X35563244Y7782877D01*
X35534057Y7841252D01*
X35534057Y8084211D01*
X35853104Y8084211D01*
X35853104Y7841252D01*
G37*
G36*
X36041993Y6780081D02*
G01*
X34964215Y6780081D01*
X34964215Y7372307D01*
X35053104Y7372307D01*
X35053104Y6915164D01*
X35056910Y6896030D01*
X35083970Y6868970D01*
X35122238Y6868970D01*
X35149298Y6896030D01*
X35153104Y6915164D01*
X35153104Y7093735D01*
X35903104Y7093735D01*
X35922238Y7097541D01*
X35925878Y7101182D01*
X35930926Y7102191D01*
X35939002Y7114306D01*
X35949298Y7124601D01*
X35949298Y7129749D01*
X35952153Y7134031D01*
X35949298Y7148307D01*
X35949298Y7162869D01*
X35945657Y7166510D01*
X35944648Y7171557D01*
X35930839Y7185337D01*
X35820673Y7258782D01*
X35753720Y7325735D01*
X35719254Y7394667D01*
X35707293Y7410079D01*
X35670989Y7422181D01*
X35636761Y7405067D01*
X35624659Y7368763D01*
X35629812Y7349947D01*
X35667907Y7273755D01*
X35672816Y7267430D01*
X35677273Y7260760D01*
X35744299Y7193735D01*
X35153104Y7193735D01*
X35153104Y7372307D01*
X35149298Y7391441D01*
X35122238Y7418501D01*
X35083970Y7418501D01*
X35056910Y7391441D01*
X35053104Y7372307D01*
X34964215Y7372307D01*
X34964215Y7666253D01*
X35054288Y7666253D01*
X35076233Y7634902D01*
X35113919Y7628252D01*
X35131777Y7636106D01*
X35434057Y7847702D01*
X35434057Y7829449D01*
X35434545Y7826993D01*
X35434183Y7825904D01*
X35436299Y7818177D01*
X35437863Y7810315D01*
X35438674Y7809504D01*
X35439336Y7807088D01*
X35477431Y7730898D01*
X35482346Y7724564D01*
X35486797Y7717904D01*
X35524891Y7679809D01*
X35531557Y7675355D01*
X35537886Y7670443D01*
X35614077Y7632347D01*
X35616492Y7631686D01*
X35617304Y7630874D01*
X35625165Y7629311D01*
X35632893Y7627194D01*
X35633981Y7627557D01*
X35636438Y7627068D01*
X35750723Y7627068D01*
X35753179Y7627557D01*
X35754268Y7627194D01*
X35761995Y7629311D01*
X35769857Y7630874D01*
X35770668Y7631686D01*
X35773084Y7632347D01*
X35849275Y7670443D01*
X35855606Y7675357D01*
X35862269Y7679809D01*
X35900364Y7717903D01*
X35904818Y7724570D01*
X35909730Y7730898D01*
X35947825Y7807088D01*
X35948486Y7809504D01*
X35949298Y7810315D01*
X35950861Y7818177D01*
X35952978Y7825904D01*
X35952615Y7826993D01*
X35953104Y7829449D01*
X35953104Y8134211D01*
X35949298Y8153345D01*
X35922238Y8180405D01*
X35903104Y8184211D01*
X35103104Y8184211D01*
X35083970Y8180405D01*
X35056910Y8153345D01*
X35056910Y8115077D01*
X35083970Y8088017D01*
X35103104Y8084211D01*
X35434057Y8084211D01*
X35434057Y7969768D01*
X35074431Y7718030D01*
X35060938Y7703939D01*
X35054288Y7666253D01*
X34964215Y7666253D01*
X34964215Y8648584D01*
X35056910Y8648584D01*
X35056910Y8610316D01*
X35083970Y8583256D01*
X35103104Y8579450D01*
X35853104Y8579450D01*
X35853104Y8400878D01*
X35856910Y8381744D01*
X35883970Y8354684D01*
X35922238Y8354684D01*
X35949298Y8381744D01*
X35953104Y8400878D01*
X35953104Y8858021D01*
X35949298Y8877155D01*
X35922238Y8904215D01*
X35883970Y8904215D01*
X35856910Y8877155D01*
X35853104Y8858021D01*
X35853104Y8679450D01*
X35103104Y8679450D01*
X35083970Y8675644D01*
X35056910Y8648584D01*
X34964215Y8648584D01*
X34964215Y8993104D01*
X36041993Y8993104D01*
X36041993Y6780081D01*
G37*
G36*
X40853104Y7841252D02*
G01*
X40823916Y7782878D01*
X40797296Y7756257D01*
X40738920Y7727068D01*
X40648241Y7727068D01*
X40589865Y7756257D01*
X40563244Y7782877D01*
X40534057Y7841252D01*
X40534057Y8084211D01*
X40853104Y8084211D01*
X40853104Y7841252D01*
G37*
G36*
X41041993Y6776275D02*
G01*
X39964215Y6776275D01*
X39964215Y7296116D01*
X40053104Y7296116D01*
X40053104Y7067545D01*
X40053592Y7065089D01*
X40053230Y7064000D01*
X40055346Y7056273D01*
X40056910Y7048411D01*
X40057721Y7047600D01*
X40058383Y7045184D01*
X40096479Y6968993D01*
X40101392Y6962662D01*
X40105845Y6955999D01*
X40143939Y6917904D01*
X40150605Y6913450D01*
X40156934Y6908538D01*
X40233124Y6870443D01*
X40235539Y6869782D01*
X40236351Y6868970D01*
X40244212Y6867407D01*
X40251940Y6865290D01*
X40253028Y6865653D01*
X40255485Y6865164D01*
X40445961Y6865164D01*
X40448417Y6865653D01*
X40449505Y6865290D01*
X40457229Y6867406D01*
X40465095Y6868970D01*
X40465906Y6869782D01*
X40468321Y6870443D01*
X40544513Y6908538D01*
X40550844Y6913452D01*
X40557507Y6917904D01*
X40595602Y6955998D01*
X40600061Y6962673D01*
X40604968Y6968994D01*
X40643064Y7045185D01*
X40643725Y7047601D01*
X40644536Y7048411D01*
X40646099Y7056272D01*
X40648216Y7064001D01*
X40647853Y7065089D01*
X40648342Y7067545D01*
X40648342Y7071642D01*
X40870179Y6877535D01*
X40882501Y6870439D01*
X40883970Y6868970D01*
X40885052Y6868970D01*
X40887085Y6867799D01*
X40904647Y6868970D01*
X40922238Y6868970D01*
X40923494Y6870227D01*
X40925269Y6870345D01*
X40936861Y6883593D01*
X40949298Y6896030D01*
X40949755Y6898330D01*
X40950469Y6899145D01*
X40950330Y6901222D01*
X40953104Y6915164D01*
X40953104Y7410402D01*
X40949298Y7429536D01*
X40922238Y7456596D01*
X40883970Y7456596D01*
X40856910Y7429536D01*
X40853104Y7410402D01*
X40853104Y7025353D01*
X40631267Y7219459D01*
X40618946Y7226554D01*
X40617476Y7228024D01*
X40616393Y7228024D01*
X40614361Y7229194D01*
X40596807Y7228024D01*
X40579208Y7228024D01*
X40577951Y7226768D01*
X40576177Y7226649D01*
X40564588Y7213405D01*
X40552148Y7200964D01*
X40551690Y7198664D01*
X40550978Y7197849D01*
X40551116Y7195777D01*
X40548342Y7181830D01*
X40548342Y7079348D01*
X40519155Y7020974D01*
X40492535Y6994353D01*
X40434159Y6965164D01*
X40267288Y6965164D01*
X40208913Y6994352D01*
X40182292Y7020972D01*
X40153104Y7079349D01*
X40153104Y7284313D01*
X40182292Y7342690D01*
X40214650Y7375046D01*
X40225489Y7391267D01*
X40225489Y7429536D01*
X40198429Y7456596D01*
X40160160Y7456596D01*
X40143939Y7445757D01*
X40105845Y7407662D01*
X40101392Y7401000D01*
X40096479Y7394668D01*
X40058383Y7318477D01*
X40057721Y7316062D01*
X40056910Y7315250D01*
X40055346Y7307389D01*
X40053230Y7299661D01*
X40053592Y7298573D01*
X40053104Y7296116D01*
X39964215Y7296116D01*
X39964215Y7666253D01*
X40054288Y7666253D01*
X40076233Y7634902D01*
X40113919Y7628252D01*
X40131777Y7636106D01*
X40434057Y7847702D01*
X40434057Y7829449D01*
X40434545Y7826993D01*
X40434183Y7825904D01*
X40436299Y7818177D01*
X40437863Y7810315D01*
X40438674Y7809504D01*
X40439336Y7807088D01*
X40477431Y7730898D01*
X40482346Y7724564D01*
X40486797Y7717904D01*
X40524891Y7679809D01*
X40531557Y7675355D01*
X40537886Y7670443D01*
X40614077Y7632347D01*
X40616492Y7631686D01*
X40617304Y7630874D01*
X40625165Y7629311D01*
X40632893Y7627194D01*
X40633981Y7627557D01*
X40636438Y7627068D01*
X40750723Y7627068D01*
X40753179Y7627557D01*
X40754268Y7627194D01*
X40761995Y7629311D01*
X40769857Y7630874D01*
X40770668Y7631686D01*
X40773084Y7632347D01*
X40849275Y7670443D01*
X40855606Y7675357D01*
X40862269Y7679809D01*
X40900364Y7717903D01*
X40904818Y7724570D01*
X40909730Y7730898D01*
X40947825Y7807088D01*
X40948486Y7809504D01*
X40949298Y7810315D01*
X40950861Y7818177D01*
X40952978Y7825904D01*
X40952615Y7826993D01*
X40953104Y7829449D01*
X40953104Y8134211D01*
X40949298Y8153345D01*
X40922238Y8180405D01*
X40903104Y8184211D01*
X40103104Y8184211D01*
X40083970Y8180405D01*
X40056910Y8153345D01*
X40056910Y8115077D01*
X40083970Y8088017D01*
X40103104Y8084211D01*
X40434057Y8084211D01*
X40434057Y7969768D01*
X40074431Y7718030D01*
X40060938Y7703939D01*
X40054288Y7666253D01*
X39964215Y7666253D01*
X39964215Y8648584D01*
X40056910Y8648584D01*
X40056910Y8610316D01*
X40083970Y8583256D01*
X40103104Y8579450D01*
X40853104Y8579450D01*
X40853104Y8400878D01*
X40856910Y8381744D01*
X40883970Y8354684D01*
X40922238Y8354684D01*
X40949298Y8381744D01*
X40953104Y8400878D01*
X40953104Y8858021D01*
X40949298Y8877155D01*
X40922238Y8904215D01*
X40883970Y8904215D01*
X40856910Y8877155D01*
X40853104Y8858021D01*
X40853104Y8679450D01*
X40103104Y8679450D01*
X40083970Y8675644D01*
X40056910Y8648584D01*
X39964215Y8648584D01*
X39964215Y8993104D01*
X41041993Y8993104D01*
X41041993Y6776275D01*
G37*
G36*
X53204439Y7293119D02*
G01*
X53231059Y7266498D01*
X53260247Y7208123D01*
X53260247Y7079348D01*
X53231060Y7020974D01*
X53204440Y6994353D01*
X53146064Y6965164D01*
X53017288Y6965164D01*
X52958913Y6994352D01*
X52932292Y7020972D01*
X52903104Y7079349D01*
X52903104Y7208123D01*
X52932293Y7266500D01*
X52958913Y7293120D01*
X53017288Y7322307D01*
X53146063Y7322307D01*
X53204439Y7293119D01*
G37*
G36*
X53547296Y7293119D02*
G01*
X53573916Y7266498D01*
X53603104Y7208123D01*
X53603104Y7079348D01*
X53573917Y7020974D01*
X53547297Y6994353D01*
X53488921Y6965164D01*
X53474431Y6965164D01*
X53416056Y6994352D01*
X53389434Y7020973D01*
X53360247Y7079348D01*
X53360247Y7208123D01*
X53389433Y7266497D01*
X53416056Y7293120D01*
X53474431Y7322307D01*
X53488920Y7322307D01*
X53547296Y7293119D01*
G37*
G36*
X53603104Y7841252D02*
G01*
X53573916Y7782878D01*
X53547296Y7756257D01*
X53488920Y7727068D01*
X53398241Y7727068D01*
X53339865Y7756257D01*
X53313244Y7782877D01*
X53284057Y7841252D01*
X53284057Y8084211D01*
X53603104Y8084211D01*
X53603104Y7841252D01*
G37*
G36*
X53791993Y6776275D02*
G01*
X52714215Y6776275D01*
X52714215Y7219926D01*
X52803104Y7219926D01*
X52803104Y7067545D01*
X52803592Y7065089D01*
X52803230Y7064000D01*
X52805346Y7056273D01*
X52806910Y7048411D01*
X52807721Y7047600D01*
X52808383Y7045184D01*
X52846479Y6968993D01*
X52851392Y6962662D01*
X52855845Y6955999D01*
X52893939Y6917904D01*
X52900605Y6913450D01*
X52906934Y6908538D01*
X52983124Y6870443D01*
X52985539Y6869782D01*
X52986351Y6868970D01*
X52994212Y6867407D01*
X53001940Y6865290D01*
X53003028Y6865653D01*
X53005485Y6865164D01*
X53157866Y6865164D01*
X53160322Y6865653D01*
X53161410Y6865290D01*
X53169134Y6867406D01*
X53177000Y6868970D01*
X53177811Y6869782D01*
X53180226Y6870443D01*
X53256418Y6908538D01*
X53262749Y6913452D01*
X53269412Y6917904D01*
X53307507Y6955998D01*
X53310247Y6960099D01*
X53312987Y6955998D01*
X53351083Y6917903D01*
X53357748Y6913450D01*
X53364077Y6908538D01*
X53440267Y6870443D01*
X53442682Y6869782D01*
X53443494Y6868970D01*
X53451355Y6867407D01*
X53459083Y6865290D01*
X53460171Y6865653D01*
X53462628Y6865164D01*
X53500723Y6865164D01*
X53503179Y6865653D01*
X53504267Y6865290D01*
X53511991Y6867406D01*
X53519857Y6868970D01*
X53520668Y6869782D01*
X53523083Y6870443D01*
X53599275Y6908538D01*
X53605606Y6913452D01*
X53612269Y6917904D01*
X53650364Y6955998D01*
X53654823Y6962673D01*
X53659730Y6968994D01*
X53697826Y7045185D01*
X53698487Y7047601D01*
X53699298Y7048411D01*
X53700861Y7056272D01*
X53702978Y7064001D01*
X53702615Y7065089D01*
X53703104Y7067545D01*
X53703104Y7219926D01*
X53702615Y7222383D01*
X53702978Y7223471D01*
X53700861Y7231199D01*
X53699298Y7239060D01*
X53698486Y7239872D01*
X53697825Y7242287D01*
X53659730Y7318477D01*
X53654818Y7324806D01*
X53650364Y7331472D01*
X53612269Y7369566D01*
X53605606Y7374019D01*
X53599275Y7378932D01*
X53523084Y7417028D01*
X53520668Y7417690D01*
X53519857Y7418501D01*
X53511995Y7420065D01*
X53504268Y7422181D01*
X53503179Y7421819D01*
X53500723Y7422307D01*
X53462628Y7422307D01*
X53460170Y7421819D01*
X53459082Y7422181D01*
X53451352Y7420065D01*
X53443494Y7418501D01*
X53442682Y7417690D01*
X53440266Y7417028D01*
X53364077Y7378932D01*
X53357748Y7374021D01*
X53351083Y7369567D01*
X53312987Y7331472D01*
X53310247Y7327372D01*
X53307507Y7331472D01*
X53269412Y7369566D01*
X53262749Y7374019D01*
X53256418Y7378932D01*
X53180227Y7417028D01*
X53177811Y7417690D01*
X53177000Y7418501D01*
X53169138Y7420065D01*
X53161411Y7422181D01*
X53160322Y7421819D01*
X53157866Y7422307D01*
X53005485Y7422307D01*
X53003027Y7421819D01*
X53001939Y7422181D01*
X52994209Y7420065D01*
X52986351Y7418501D01*
X52985539Y7417690D01*
X52983123Y7417028D01*
X52906934Y7378932D01*
X52900605Y7374021D01*
X52893939Y7369566D01*
X52855845Y7331471D01*
X52851392Y7324809D01*
X52846479Y7318477D01*
X52808383Y7242287D01*
X52807721Y7239872D01*
X52806910Y7239060D01*
X52805346Y7231199D01*
X52803230Y7223471D01*
X52803592Y7222383D01*
X52803104Y7219926D01*
X52714215Y7219926D01*
X52714215Y7666253D01*
X52804288Y7666253D01*
X52826233Y7634902D01*
X52863919Y7628252D01*
X52881777Y7636106D01*
X53184057Y7847702D01*
X53184057Y7829449D01*
X53184545Y7826993D01*
X53184183Y7825904D01*
X53186299Y7818177D01*
X53187863Y7810315D01*
X53188674Y7809504D01*
X53189336Y7807088D01*
X53227431Y7730898D01*
X53232346Y7724564D01*
X53236797Y7717904D01*
X53274891Y7679809D01*
X53281557Y7675355D01*
X53287886Y7670443D01*
X53364077Y7632347D01*
X53366492Y7631686D01*
X53367304Y7630874D01*
X53375165Y7629311D01*
X53382893Y7627194D01*
X53383981Y7627557D01*
X53386438Y7627068D01*
X53500723Y7627068D01*
X53503179Y7627557D01*
X53504268Y7627194D01*
X53511995Y7629311D01*
X53519857Y7630874D01*
X53520668Y7631686D01*
X53523084Y7632347D01*
X53599275Y7670443D01*
X53605606Y7675357D01*
X53612269Y7679809D01*
X53650364Y7717903D01*
X53654818Y7724570D01*
X53659730Y7730898D01*
X53697825Y7807088D01*
X53698486Y7809504D01*
X53699298Y7810315D01*
X53700861Y7818177D01*
X53702978Y7825904D01*
X53702615Y7826993D01*
X53703104Y7829449D01*
X53703104Y8134211D01*
X53699298Y8153345D01*
X53672238Y8180405D01*
X53653104Y8184211D01*
X52853104Y8184211D01*
X52833970Y8180405D01*
X52806910Y8153345D01*
X52806910Y8115077D01*
X52833970Y8088017D01*
X52853104Y8084211D01*
X53184057Y8084211D01*
X53184057Y7969768D01*
X52824431Y7718030D01*
X52810938Y7703939D01*
X52804288Y7666253D01*
X52714215Y7666253D01*
X52714215Y8648584D01*
X52806910Y8648584D01*
X52806910Y8610316D01*
X52833970Y8583256D01*
X52853104Y8579450D01*
X53603104Y8579450D01*
X53603104Y8400878D01*
X53606910Y8381744D01*
X53633970Y8354684D01*
X53672238Y8354684D01*
X53699298Y8381744D01*
X53703104Y8400878D01*
X53703104Y8858021D01*
X53699298Y8877155D01*
X53672238Y8904215D01*
X53633970Y8904215D01*
X53606910Y8877155D01*
X53603104Y8858021D01*
X53603104Y8679450D01*
X52853104Y8679450D01*
X52833970Y8675644D01*
X52806910Y8648584D01*
X52714215Y8648584D01*
X52714215Y8993104D01*
X53791993Y8993104D01*
X53791993Y6776275D01*
G37*
D11*
G36*
X58525228Y5233184D02*
G01*
X55785546Y5233184D01*
X55785546Y7555162D01*
X56007768Y7555162D01*
X56007768Y5555162D01*
X56009689Y5535653D01*
X56024621Y5499605D01*
X56052211Y5472015D01*
X56088259Y5457083D01*
X56127277Y5457083D01*
X56163325Y5472015D01*
X56190915Y5499605D01*
X56205847Y5535653D01*
X56207768Y5555162D01*
X56207768Y7555162D01*
X56960149Y7555162D01*
X56960149Y5555162D01*
X56962070Y5535653D01*
X56977002Y5499605D01*
X57004592Y5472015D01*
X57040640Y5457083D01*
X57079658Y5457083D01*
X57115706Y5472015D01*
X57143296Y5499605D01*
X57158228Y5535653D01*
X57160149Y5555162D01*
X57160149Y7178606D01*
X58116182Y5505548D01*
X58119100Y5501438D01*
X58119859Y5499605D01*
X58121725Y5497739D01*
X58127529Y5489563D01*
X58138043Y5481421D01*
X58147449Y5472015D01*
X58153339Y5469576D01*
X58158378Y5465673D01*
X58171206Y5462175D01*
X58183497Y5457083D01*
X58189872Y5457083D01*
X58196021Y5455406D01*
X58209212Y5457083D01*
X58222515Y5457083D01*
X58228406Y5459524D01*
X58234728Y5460327D01*
X58246273Y5466925D01*
X58258563Y5472015D01*
X58263070Y5476523D01*
X58268605Y5479685D01*
X58276747Y5490200D01*
X58286153Y5499605D01*
X58288592Y5505496D01*
X58292495Y5510534D01*
X58295993Y5523362D01*
X58301085Y5535653D01*
X58302067Y5545633D01*
X58302762Y5548178D01*
X58302511Y5550145D01*
X58303006Y5555162D01*
X58303006Y7555162D01*
X58301085Y7574671D01*
X58286153Y7610719D01*
X58258563Y7638309D01*
X58222515Y7653241D01*
X58183497Y7653241D01*
X58147449Y7638309D01*
X58119859Y7610719D01*
X58104927Y7574671D01*
X58103006Y7555162D01*
X58103006Y5931719D01*
X57146973Y7604776D01*
X57144054Y7608887D01*
X57143296Y7610719D01*
X57141429Y7612586D01*
X57135626Y7620761D01*
X57125111Y7628904D01*
X57115706Y7638309D01*
X57109815Y7640749D01*
X57104777Y7644651D01*
X57091948Y7648150D01*
X57079658Y7653241D01*
X57073283Y7653241D01*
X57067134Y7654918D01*
X57053941Y7653241D01*
X57040640Y7653241D01*
X57034751Y7650802D01*
X57028427Y7649998D01*
X57016877Y7643398D01*
X57004592Y7638309D01*
X57000084Y7633802D01*
X56994550Y7630639D01*
X56986407Y7620125D01*
X56977002Y7610719D01*
X56974562Y7604829D01*
X56970660Y7599790D01*
X56967161Y7586962D01*
X56962070Y7574671D01*
X56961087Y7564694D01*
X56960393Y7562147D01*
X56960643Y7560180D01*
X56960149Y7555162D01*
X56207768Y7555162D01*
X56205847Y7574671D01*
X56190915Y7610719D01*
X56163325Y7638309D01*
X56127277Y7653241D01*
X56088259Y7653241D01*
X56052211Y7638309D01*
X56024621Y7610719D01*
X56009689Y7574671D01*
X56007768Y7555162D01*
X55785546Y7555162D01*
X55785546Y7877140D01*
X58525228Y7877140D01*
X58525228Y5233184D01*
G37*
D10*
G36*
X38353104Y7841252D02*
G01*
X38323916Y7782878D01*
X38297296Y7756257D01*
X38238920Y7727068D01*
X38148241Y7727068D01*
X38089865Y7756257D01*
X38063244Y7782877D01*
X38034057Y7841252D01*
X38034057Y8084211D01*
X38353104Y8084211D01*
X38353104Y7841252D01*
G37*
G36*
X38541993Y6776275D02*
G01*
X37464215Y6776275D01*
X37464215Y7410402D01*
X37553104Y7410402D01*
X37553104Y6915164D01*
X37556910Y6896030D01*
X37583970Y6868970D01*
X37622238Y6868970D01*
X37649298Y6896030D01*
X37653104Y6915164D01*
X37653104Y7289692D01*
X38024892Y6917904D01*
X38026973Y6916514D01*
X38027487Y6915486D01*
X38034452Y6911516D01*
X38041113Y6907065D01*
X38042261Y6907065D01*
X38044436Y6905825D01*
X38158722Y6867730D01*
X38166670Y6866728D01*
X38174533Y6865164D01*
X38250723Y6865164D01*
X38253179Y6865653D01*
X38254267Y6865290D01*
X38261991Y6867406D01*
X38269857Y6868970D01*
X38270668Y6869782D01*
X38273083Y6870443D01*
X38349275Y6908538D01*
X38355606Y6913452D01*
X38362269Y6917904D01*
X38400364Y6955998D01*
X38404823Y6962673D01*
X38409730Y6968994D01*
X38447826Y7045185D01*
X38448487Y7047601D01*
X38449298Y7048411D01*
X38450861Y7056272D01*
X38452978Y7064001D01*
X38452615Y7065089D01*
X38453104Y7067545D01*
X38453104Y7258021D01*
X38452615Y7260478D01*
X38452978Y7261566D01*
X38450861Y7269294D01*
X38449298Y7277155D01*
X38448486Y7277967D01*
X38447825Y7280382D01*
X38409730Y7356572D01*
X38404818Y7362901D01*
X38400365Y7369566D01*
X38362270Y7407662D01*
X38346049Y7418501D01*
X38307780Y7418501D01*
X38280720Y7391442D01*
X38280720Y7353173D01*
X38291558Y7336952D01*
X38323916Y7304593D01*
X38353104Y7246218D01*
X38353104Y7079348D01*
X38323917Y7020974D01*
X38297297Y6994353D01*
X38238921Y6965164D01*
X38182646Y6965164D01*
X38087255Y6996961D01*
X37638459Y7445757D01*
X37622238Y7456596D01*
X37583970Y7456596D01*
X37556910Y7429536D01*
X37553104Y7410402D01*
X37464215Y7410402D01*
X37464215Y7666253D01*
X37554288Y7666253D01*
X37576233Y7634902D01*
X37613919Y7628252D01*
X37631777Y7636106D01*
X37934057Y7847702D01*
X37934057Y7829449D01*
X37934545Y7826993D01*
X37934183Y7825904D01*
X37936299Y7818177D01*
X37937863Y7810315D01*
X37938674Y7809504D01*
X37939336Y7807088D01*
X37977431Y7730898D01*
X37982346Y7724564D01*
X37986797Y7717904D01*
X38024891Y7679809D01*
X38031557Y7675355D01*
X38037886Y7670443D01*
X38114077Y7632347D01*
X38116492Y7631686D01*
X38117304Y7630874D01*
X38125165Y7629311D01*
X38132893Y7627194D01*
X38133981Y7627557D01*
X38136438Y7627068D01*
X38250723Y7627068D01*
X38253179Y7627557D01*
X38254268Y7627194D01*
X38261995Y7629311D01*
X38269857Y7630874D01*
X38270668Y7631686D01*
X38273084Y7632347D01*
X38349275Y7670443D01*
X38355606Y7675357D01*
X38362269Y7679809D01*
X38400364Y7717903D01*
X38404818Y7724570D01*
X38409730Y7730898D01*
X38447825Y7807088D01*
X38448486Y7809504D01*
X38449298Y7810315D01*
X38450861Y7818177D01*
X38452978Y7825904D01*
X38452615Y7826993D01*
X38453104Y7829449D01*
X38453104Y8134211D01*
X38449298Y8153345D01*
X38422238Y8180405D01*
X38403104Y8184211D01*
X37603104Y8184211D01*
X37583970Y8180405D01*
X37556910Y8153345D01*
X37556910Y8115077D01*
X37583970Y8088017D01*
X37603104Y8084211D01*
X37934057Y8084211D01*
X37934057Y7969768D01*
X37574431Y7718030D01*
X37560938Y7703939D01*
X37554288Y7666253D01*
X37464215Y7666253D01*
X37464215Y8648584D01*
X37556910Y8648584D01*
X37556910Y8610316D01*
X37583970Y8583256D01*
X37603104Y8579450D01*
X38353104Y8579450D01*
X38353104Y8400878D01*
X38356910Y8381744D01*
X38383970Y8354684D01*
X38422238Y8354684D01*
X38449298Y8381744D01*
X38453104Y8400878D01*
X38453104Y8858021D01*
X38449298Y8877155D01*
X38422238Y8904215D01*
X38383970Y8904215D01*
X38356910Y8877155D01*
X38353104Y8858021D01*
X38353104Y8679450D01*
X37603104Y8679450D01*
X37583970Y8675644D01*
X37556910Y8648584D01*
X37464215Y8648584D01*
X37464215Y8993104D01*
X38541993Y8993104D01*
X38541993Y6776275D01*
G37*
G36*
X45853104Y7841252D02*
G01*
X45823916Y7782878D01*
X45797296Y7756257D01*
X45738920Y7727068D01*
X45648241Y7727068D01*
X45589865Y7756257D01*
X45563244Y7782877D01*
X45534057Y7841252D01*
X45534057Y8084211D01*
X45853104Y8084211D01*
X45853104Y7841252D01*
G37*
G36*
X46041993Y6776275D02*
G01*
X44964215Y6776275D01*
X44964215Y7258021D01*
X45053104Y7258021D01*
X45053104Y7067545D01*
X45053592Y7065089D01*
X45053230Y7064000D01*
X45055346Y7056273D01*
X45056910Y7048411D01*
X45057721Y7047600D01*
X45058383Y7045184D01*
X45096479Y6968993D01*
X45101392Y6962662D01*
X45105845Y6955999D01*
X45143939Y6917904D01*
X45150605Y6913450D01*
X45156934Y6908538D01*
X45233124Y6870443D01*
X45235539Y6869782D01*
X45236351Y6868970D01*
X45244212Y6867407D01*
X45251940Y6865290D01*
X45253028Y6865653D01*
X45255485Y6865164D01*
X45445961Y6865164D01*
X45448417Y6865653D01*
X45449505Y6865290D01*
X45457229Y6867406D01*
X45465095Y6868970D01*
X45465906Y6869782D01*
X45468321Y6870443D01*
X45544513Y6908538D01*
X45550844Y6913452D01*
X45557507Y6917904D01*
X45595602Y6955998D01*
X45600061Y6962673D01*
X45604968Y6968994D01*
X45643064Y7045185D01*
X45643725Y7047601D01*
X45644536Y7048411D01*
X45646099Y7056272D01*
X45648216Y7064001D01*
X45647853Y7065089D01*
X45648342Y7067545D01*
X45648342Y7258021D01*
X45647853Y7260478D01*
X45648216Y7261566D01*
X45646099Y7269294D01*
X45644536Y7277155D01*
X45643724Y7277967D01*
X45643063Y7280382D01*
X45627492Y7311524D01*
X45853104Y7288962D01*
X45853104Y6953259D01*
X45856910Y6934125D01*
X45883970Y6907065D01*
X45922238Y6907065D01*
X45949298Y6934125D01*
X45953104Y6953259D01*
X45953104Y7334211D01*
X45950724Y7346172D01*
X45950973Y7348653D01*
X45949993Y7349851D01*
X45949298Y7353345D01*
X45937398Y7365245D01*
X45926740Y7378272D01*
X45923331Y7379312D01*
X45922238Y7380405D01*
X45919746Y7380405D01*
X45908079Y7383963D01*
X45527127Y7422059D01*
X45507710Y7420176D01*
X45505663Y7418501D01*
X45503018Y7418501D01*
X45491116Y7406600D01*
X45478091Y7395943D01*
X45477827Y7393312D01*
X45475958Y7391442D01*
X45475958Y7374615D01*
X45474283Y7357865D01*
X45475958Y7355818D01*
X45475958Y7353173D01*
X45486796Y7336952D01*
X45519154Y7304593D01*
X45548342Y7246218D01*
X45548342Y7079348D01*
X45519155Y7020974D01*
X45492535Y6994353D01*
X45434159Y6965164D01*
X45267288Y6965164D01*
X45208913Y6994352D01*
X45182292Y7020972D01*
X45153104Y7079349D01*
X45153104Y7246218D01*
X45182292Y7304594D01*
X45214651Y7336952D01*
X45225489Y7353173D01*
X45225488Y7391442D01*
X45198429Y7418501D01*
X45160160Y7418500D01*
X45143939Y7407662D01*
X45105844Y7369566D01*
X45101388Y7362898D01*
X45096479Y7356572D01*
X45058383Y7280382D01*
X45057721Y7277967D01*
X45056910Y7277155D01*
X45055346Y7269294D01*
X45053230Y7261566D01*
X45053592Y7260478D01*
X45053104Y7258021D01*
X44964215Y7258021D01*
X44964215Y7666253D01*
X45054288Y7666253D01*
X45076233Y7634902D01*
X45113919Y7628252D01*
X45131777Y7636106D01*
X45434057Y7847702D01*
X45434057Y7829449D01*
X45434545Y7826993D01*
X45434183Y7825904D01*
X45436299Y7818177D01*
X45437863Y7810315D01*
X45438674Y7809504D01*
X45439336Y7807088D01*
X45477431Y7730898D01*
X45482346Y7724564D01*
X45486797Y7717904D01*
X45524891Y7679809D01*
X45531557Y7675355D01*
X45537886Y7670443D01*
X45614077Y7632347D01*
X45616492Y7631686D01*
X45617304Y7630874D01*
X45625165Y7629311D01*
X45632893Y7627194D01*
X45633981Y7627557D01*
X45636438Y7627068D01*
X45750723Y7627068D01*
X45753179Y7627557D01*
X45754268Y7627194D01*
X45761995Y7629311D01*
X45769857Y7630874D01*
X45770668Y7631686D01*
X45773084Y7632347D01*
X45849275Y7670443D01*
X45855606Y7675357D01*
X45862269Y7679809D01*
X45900364Y7717903D01*
X45904818Y7724570D01*
X45909730Y7730898D01*
X45947825Y7807088D01*
X45948486Y7809504D01*
X45949298Y7810315D01*
X45950861Y7818177D01*
X45952978Y7825904D01*
X45952615Y7826993D01*
X45953104Y7829449D01*
X45953104Y8134211D01*
X45949298Y8153345D01*
X45922238Y8180405D01*
X45903104Y8184211D01*
X45103104Y8184211D01*
X45083970Y8180405D01*
X45056910Y8153345D01*
X45056910Y8115077D01*
X45083970Y8088017D01*
X45103104Y8084211D01*
X45434057Y8084211D01*
X45434057Y7969768D01*
X45074431Y7718030D01*
X45060938Y7703939D01*
X45054288Y7666253D01*
X44964215Y7666253D01*
X44964215Y8648584D01*
X45056910Y8648584D01*
X45056910Y8610316D01*
X45083970Y8583256D01*
X45103104Y8579450D01*
X45853104Y8579450D01*
X45853104Y8400878D01*
X45856910Y8381744D01*
X45883970Y8354684D01*
X45922238Y8354684D01*
X45949298Y8381744D01*
X45953104Y8400878D01*
X45953104Y8858021D01*
X45949298Y8877155D01*
X45922238Y8904215D01*
X45883970Y8904215D01*
X45856910Y8877155D01*
X45853104Y8858021D01*
X45853104Y8679450D01*
X45103104Y8679450D01*
X45083970Y8675644D01*
X45056910Y8648584D01*
X44964215Y8648584D01*
X44964215Y8993104D01*
X46041993Y8993104D01*
X46041993Y6776275D01*
G37*
D12*
X30872493Y7180181D02*
X30872493Y6465896D01*
X30872493Y6465896D02*
X30824874Y6323039D01*
X30824874Y6323039D02*
X30729636Y6227800D01*
X30729636Y6227800D02*
X30586779Y6180181D01*
X30586779Y6180181D02*
X30491541Y6180181D01*
X31253446Y7180181D02*
X31872493Y7180181D01*
X31872493Y7180181D02*
X31539160Y6799229D01*
X31539160Y6799229D02*
X31682017Y6799229D01*
X31682017Y6799229D02*
X31777255Y6751610D01*
X31777255Y6751610D02*
X31824874Y6703991D01*
X31824874Y6703991D02*
X31872493Y6608753D01*
X31872493Y6608753D02*
X31872493Y6370658D01*
X31872493Y6370658D02*
X31824874Y6275420D01*
X31824874Y6275420D02*
X31777255Y6227800D01*
X31777255Y6227800D02*
X31682017Y6180181D01*
X31682017Y6180181D02*
X31396303Y6180181D01*
X31396303Y6180181D02*
X31301065Y6227800D01*
X31301065Y6227800D02*
X31253446Y6275420D01*
X31833333Y20795181D02*
X31500000Y21271372D01*
X31261905Y20795181D02*
X31261905Y21795181D01*
X31261905Y21795181D02*
X31642857Y21795181D01*
X31642857Y21795181D02*
X31738095Y21747562D01*
X31738095Y21747562D02*
X31785714Y21699943D01*
X31785714Y21699943D02*
X31833333Y21604705D01*
X31833333Y21604705D02*
X31833333Y21461848D01*
X31833333Y21461848D02*
X31785714Y21366610D01*
X31785714Y21366610D02*
X31738095Y21318991D01*
X31738095Y21318991D02*
X31642857Y21271372D01*
X31642857Y21271372D02*
X31261905Y21271372D01*
X32166667Y21795181D02*
X32785714Y21795181D01*
X32785714Y21795181D02*
X32452381Y21414229D01*
X32452381Y21414229D02*
X32595238Y21414229D01*
X32595238Y21414229D02*
X32690476Y21366610D01*
X32690476Y21366610D02*
X32738095Y21318991D01*
X32738095Y21318991D02*
X32785714Y21223753D01*
X32785714Y21223753D02*
X32785714Y20985658D01*
X32785714Y20985658D02*
X32738095Y20890420D01*
X32738095Y20890420D02*
X32690476Y20842800D01*
X32690476Y20842800D02*
X32595238Y20795181D01*
X32595238Y20795181D02*
X32309524Y20795181D01*
X32309524Y20795181D02*
X32214286Y20842800D01*
X32214286Y20842800D02*
X32166667Y20890420D01*
X58666666Y1545181D02*
X58666666Y830896D01*
X58666666Y830896D02*
X58619047Y688039D01*
X58619047Y688039D02*
X58523809Y592800D01*
X58523809Y592800D02*
X58380952Y545181D01*
X58380952Y545181D02*
X58285714Y545181D01*
X59047619Y1545181D02*
X59714285Y1545181D01*
X59714285Y1545181D02*
X59285714Y545181D01*
X54166666Y17395181D02*
X54166666Y16680896D01*
X54166666Y16680896D02*
X54119047Y16538039D01*
X54119047Y16538039D02*
X54023809Y16442800D01*
X54023809Y16442800D02*
X53880952Y16395181D01*
X53880952Y16395181D02*
X53785714Y16395181D01*
X54595238Y17299943D02*
X54642857Y17347562D01*
X54642857Y17347562D02*
X54738095Y17395181D01*
X54738095Y17395181D02*
X54976190Y17395181D01*
X54976190Y17395181D02*
X55071428Y17347562D01*
X55071428Y17347562D02*
X55119047Y17299943D01*
X55119047Y17299943D02*
X55166666Y17204705D01*
X55166666Y17204705D02*
X55166666Y17109467D01*
X55166666Y17109467D02*
X55119047Y16966610D01*
X55119047Y16966610D02*
X54547619Y16395181D01*
X54547619Y16395181D02*
X55166666Y16395181D01*
X50954819Y15583334D02*
X50478628Y15250001D01*
X50954819Y15011906D02*
X49954819Y15011906D01*
X49954819Y15011906D02*
X49954819Y15392858D01*
X49954819Y15392858D02*
X50002438Y15488096D01*
X50002438Y15488096D02*
X50050057Y15535715D01*
X50050057Y15535715D02*
X50145295Y15583334D01*
X50145295Y15583334D02*
X50288152Y15583334D01*
X50288152Y15583334D02*
X50383390Y15535715D01*
X50383390Y15535715D02*
X50431009Y15488096D01*
X50431009Y15488096D02*
X50478628Y15392858D01*
X50478628Y15392858D02*
X50478628Y15011906D01*
X50288152Y16440477D02*
X50954819Y16440477D01*
X49907200Y16202382D02*
X50621485Y15964287D01*
X50621485Y15964287D02*
X50621485Y16583334D01*
X3416666Y1795181D02*
X3416666Y1080896D01*
X3416666Y1080896D02*
X3369047Y938039D01*
X3369047Y938039D02*
X3273809Y842800D01*
X3273809Y842800D02*
X3130952Y795181D01*
X3130952Y795181D02*
X3035714Y795181D01*
X4321428Y1795181D02*
X4130952Y1795181D01*
X4130952Y1795181D02*
X4035714Y1747562D01*
X4035714Y1747562D02*
X3988095Y1699943D01*
X3988095Y1699943D02*
X3892857Y1557086D01*
X3892857Y1557086D02*
X3845238Y1366610D01*
X3845238Y1366610D02*
X3845238Y985658D01*
X3845238Y985658D02*
X3892857Y890420D01*
X3892857Y890420D02*
X3940476Y842800D01*
X3940476Y842800D02*
X4035714Y795181D01*
X4035714Y795181D02*
X4226190Y795181D01*
X4226190Y795181D02*
X4321428Y842800D01*
X4321428Y842800D02*
X4369047Y890420D01*
X4369047Y890420D02*
X4416666Y985658D01*
X4416666Y985658D02*
X4416666Y1223753D01*
X4416666Y1223753D02*
X4369047Y1318991D01*
X4369047Y1318991D02*
X4321428Y1366610D01*
X4321428Y1366610D02*
X4226190Y1414229D01*
X4226190Y1414229D02*
X4035714Y1414229D01*
X4035714Y1414229D02*
X3940476Y1366610D01*
X3940476Y1366610D02*
X3892857Y1318991D01*
X3892857Y1318991D02*
X3845238Y1223753D01*
X47134819Y13045834D02*
X46658628Y12712501D01*
X47134819Y12474406D02*
X46134819Y12474406D01*
X46134819Y12474406D02*
X46134819Y12855358D01*
X46134819Y12855358D02*
X46182438Y12950596D01*
X46182438Y12950596D02*
X46230057Y12998215D01*
X46230057Y12998215D02*
X46325295Y13045834D01*
X46325295Y13045834D02*
X46468152Y13045834D01*
X46468152Y13045834D02*
X46563390Y12998215D01*
X46563390Y12998215D02*
X46611009Y12950596D01*
X46611009Y12950596D02*
X46658628Y12855358D01*
X46658628Y12855358D02*
X46658628Y12474406D01*
X46134819Y13950596D02*
X46134819Y13474406D01*
X46134819Y13474406D02*
X46611009Y13426787D01*
X46611009Y13426787D02*
X46563390Y13474406D01*
X46563390Y13474406D02*
X46515771Y13569644D01*
X46515771Y13569644D02*
X46515771Y13807739D01*
X46515771Y13807739D02*
X46563390Y13902977D01*
X46563390Y13902977D02*
X46611009Y13950596D01*
X46611009Y13950596D02*
X46706247Y13998215D01*
X46706247Y13998215D02*
X46944342Y13998215D01*
X46944342Y13998215D02*
X47039580Y13950596D01*
X47039580Y13950596D02*
X47087200Y13902977D01*
X47087200Y13902977D02*
X47134819Y13807739D01*
X47134819Y13807739D02*
X47134819Y13569644D01*
X47134819Y13569644D02*
X47087200Y13474406D01*
X47087200Y13474406D02*
X47039580Y13426787D01*
X11988095Y21045181D02*
X11988095Y20235658D01*
X11988095Y20235658D02*
X12035714Y20140420D01*
X12035714Y20140420D02*
X12083333Y20092800D01*
X12083333Y20092800D02*
X12178571Y20045181D01*
X12178571Y20045181D02*
X12369047Y20045181D01*
X12369047Y20045181D02*
X12464285Y20092800D01*
X12464285Y20092800D02*
X12511904Y20140420D01*
X12511904Y20140420D02*
X12559523Y20235658D01*
X12559523Y20235658D02*
X12559523Y21045181D01*
X12988095Y20949943D02*
X13035714Y20997562D01*
X13035714Y20997562D02*
X13130952Y21045181D01*
X13130952Y21045181D02*
X13369047Y21045181D01*
X13369047Y21045181D02*
X13464285Y20997562D01*
X13464285Y20997562D02*
X13511904Y20949943D01*
X13511904Y20949943D02*
X13559523Y20854705D01*
X13559523Y20854705D02*
X13559523Y20759467D01*
X13559523Y20759467D02*
X13511904Y20616610D01*
X13511904Y20616610D02*
X12940476Y20045181D01*
X12940476Y20045181D02*
X13559523Y20045181D01*
X54333333Y19295181D02*
X53857143Y19295181D01*
X53857143Y19295181D02*
X53857143Y20295181D01*
X55190476Y19295181D02*
X54619048Y19295181D01*
X54904762Y19295181D02*
X54904762Y20295181D01*
X54904762Y20295181D02*
X54809524Y20152324D01*
X54809524Y20152324D02*
X54714286Y20057086D01*
X54714286Y20057086D02*
X54619048Y20009467D01*
X31833333Y15140420D02*
X31785714Y15092800D01*
X31785714Y15092800D02*
X31642857Y15045181D01*
X31642857Y15045181D02*
X31547619Y15045181D01*
X31547619Y15045181D02*
X31404762Y15092800D01*
X31404762Y15092800D02*
X31309524Y15188039D01*
X31309524Y15188039D02*
X31261905Y15283277D01*
X31261905Y15283277D02*
X31214286Y15473753D01*
X31214286Y15473753D02*
X31214286Y15616610D01*
X31214286Y15616610D02*
X31261905Y15807086D01*
X31261905Y15807086D02*
X31309524Y15902324D01*
X31309524Y15902324D02*
X31404762Y15997562D01*
X31404762Y15997562D02*
X31547619Y16045181D01*
X31547619Y16045181D02*
X31642857Y16045181D01*
X31642857Y16045181D02*
X31785714Y15997562D01*
X31785714Y15997562D02*
X31833333Y15949943D01*
X32166667Y16045181D02*
X32785714Y16045181D01*
X32785714Y16045181D02*
X32452381Y15664229D01*
X32452381Y15664229D02*
X32595238Y15664229D01*
X32595238Y15664229D02*
X32690476Y15616610D01*
X32690476Y15616610D02*
X32738095Y15568991D01*
X32738095Y15568991D02*
X32785714Y15473753D01*
X32785714Y15473753D02*
X32785714Y15235658D01*
X32785714Y15235658D02*
X32738095Y15140420D01*
X32738095Y15140420D02*
X32690476Y15092800D01*
X32690476Y15092800D02*
X32595238Y15045181D01*
X32595238Y15045181D02*
X32309524Y15045181D01*
X32309524Y15045181D02*
X32214286Y15092800D01*
X32214286Y15092800D02*
X32166667Y15140420D01*
X3666666Y6795181D02*
X3666666Y6080896D01*
X3666666Y6080896D02*
X3619047Y5938039D01*
X3619047Y5938039D02*
X3523809Y5842800D01*
X3523809Y5842800D02*
X3380952Y5795181D01*
X3380952Y5795181D02*
X3285714Y5795181D01*
X4571428Y6461848D02*
X4571428Y5795181D01*
X4333333Y6842800D02*
X4095238Y6128515D01*
X4095238Y6128515D02*
X4714285Y6128515D01*
X51723810Y15645181D02*
X51723810Y16645181D01*
X52771428Y15740420D02*
X52723809Y15692800D01*
X52723809Y15692800D02*
X52580952Y15645181D01*
X52580952Y15645181D02*
X52485714Y15645181D01*
X52485714Y15645181D02*
X52342857Y15692800D01*
X52342857Y15692800D02*
X52247619Y15788039D01*
X52247619Y15788039D02*
X52200000Y15883277D01*
X52200000Y15883277D02*
X52152381Y16073753D01*
X52152381Y16073753D02*
X52152381Y16216610D01*
X52152381Y16216610D02*
X52200000Y16407086D01*
X52200000Y16407086D02*
X52247619Y16502324D01*
X52247619Y16502324D02*
X52342857Y16597562D01*
X52342857Y16597562D02*
X52485714Y16645181D01*
X52485714Y16645181D02*
X52580952Y16645181D01*
X52580952Y16645181D02*
X52723809Y16597562D01*
X52723809Y16597562D02*
X52771428Y16549943D01*
X53723809Y15645181D02*
X53152381Y15645181D01*
X53438095Y15645181D02*
X53438095Y16645181D01*
X53438095Y16645181D02*
X53342857Y16502324D01*
X53342857Y16502324D02*
X53247619Y16407086D01*
X53247619Y16407086D02*
X53152381Y16359467D01*
X44359580Y17833334D02*
X44407200Y17785715D01*
X44407200Y17785715D02*
X44454819Y17642858D01*
X44454819Y17642858D02*
X44454819Y17547620D01*
X44454819Y17547620D02*
X44407200Y17404763D01*
X44407200Y17404763D02*
X44311961Y17309525D01*
X44311961Y17309525D02*
X44216723Y17261906D01*
X44216723Y17261906D02*
X44026247Y17214287D01*
X44026247Y17214287D02*
X43883390Y17214287D01*
X43883390Y17214287D02*
X43692914Y17261906D01*
X43692914Y17261906D02*
X43597676Y17309525D01*
X43597676Y17309525D02*
X43502438Y17404763D01*
X43502438Y17404763D02*
X43454819Y17547620D01*
X43454819Y17547620D02*
X43454819Y17642858D01*
X43454819Y17642858D02*
X43502438Y17785715D01*
X43502438Y17785715D02*
X43550057Y17833334D01*
X43454819Y18690477D02*
X43454819Y18500001D01*
X43454819Y18500001D02*
X43502438Y18404763D01*
X43502438Y18404763D02*
X43550057Y18357144D01*
X43550057Y18357144D02*
X43692914Y18261906D01*
X43692914Y18261906D02*
X43883390Y18214287D01*
X43883390Y18214287D02*
X44264342Y18214287D01*
X44264342Y18214287D02*
X44359580Y18261906D01*
X44359580Y18261906D02*
X44407200Y18309525D01*
X44407200Y18309525D02*
X44454819Y18404763D01*
X44454819Y18404763D02*
X44454819Y18595239D01*
X44454819Y18595239D02*
X44407200Y18690477D01*
X44407200Y18690477D02*
X44359580Y18738096D01*
X44359580Y18738096D02*
X44264342Y18785715D01*
X44264342Y18785715D02*
X44026247Y18785715D01*
X44026247Y18785715D02*
X43931009Y18738096D01*
X43931009Y18738096D02*
X43883390Y18690477D01*
X43883390Y18690477D02*
X43835771Y18595239D01*
X43835771Y18595239D02*
X43835771Y18404763D01*
X43835771Y18404763D02*
X43883390Y18309525D01*
X43883390Y18309525D02*
X43931009Y18261906D01*
X43931009Y18261906D02*
X44026247Y18214287D01*
X18872493Y7130181D02*
X18872493Y6415896D01*
X18872493Y6415896D02*
X18824874Y6273039D01*
X18824874Y6273039D02*
X18729636Y6177800D01*
X18729636Y6177800D02*
X18586779Y6130181D01*
X18586779Y6130181D02*
X18491541Y6130181D01*
X19872493Y6130181D02*
X19301065Y6130181D01*
X19586779Y6130181D02*
X19586779Y7130181D01*
X19586779Y7130181D02*
X19491541Y6987324D01*
X19491541Y6987324D02*
X19396303Y6892086D01*
X19396303Y6892086D02*
X19301065Y6844467D01*
X31833333Y18545181D02*
X31500000Y19021372D01*
X31261905Y18545181D02*
X31261905Y19545181D01*
X31261905Y19545181D02*
X31642857Y19545181D01*
X31642857Y19545181D02*
X31738095Y19497562D01*
X31738095Y19497562D02*
X31785714Y19449943D01*
X31785714Y19449943D02*
X31833333Y19354705D01*
X31833333Y19354705D02*
X31833333Y19211848D01*
X31833333Y19211848D02*
X31785714Y19116610D01*
X31785714Y19116610D02*
X31738095Y19068991D01*
X31738095Y19068991D02*
X31642857Y19021372D01*
X31642857Y19021372D02*
X31261905Y19021372D01*
X32214286Y19449943D02*
X32261905Y19497562D01*
X32261905Y19497562D02*
X32357143Y19545181D01*
X32357143Y19545181D02*
X32595238Y19545181D01*
X32595238Y19545181D02*
X32690476Y19497562D01*
X32690476Y19497562D02*
X32738095Y19449943D01*
X32738095Y19449943D02*
X32785714Y19354705D01*
X32785714Y19354705D02*
X32785714Y19259467D01*
X32785714Y19259467D02*
X32738095Y19116610D01*
X32738095Y19116610D02*
X32166667Y18545181D01*
X32166667Y18545181D02*
X32785714Y18545181D01*
X31833333Y12545181D02*
X31500000Y13021372D01*
X31261905Y12545181D02*
X31261905Y13545181D01*
X31261905Y13545181D02*
X31642857Y13545181D01*
X31642857Y13545181D02*
X31738095Y13497562D01*
X31738095Y13497562D02*
X31785714Y13449943D01*
X31785714Y13449943D02*
X31833333Y13354705D01*
X31833333Y13354705D02*
X31833333Y13211848D01*
X31833333Y13211848D02*
X31785714Y13116610D01*
X31785714Y13116610D02*
X31738095Y13068991D01*
X31738095Y13068991D02*
X31642857Y13021372D01*
X31642857Y13021372D02*
X31261905Y13021372D01*
X32785714Y12545181D02*
X32214286Y12545181D01*
X32500000Y12545181D02*
X32500000Y13545181D01*
X32500000Y13545181D02*
X32404762Y13402324D01*
X32404762Y13402324D02*
X32309524Y13307086D01*
X32309524Y13307086D02*
X32214286Y13259467D01*
X43333333Y21390420D02*
X43285714Y21342800D01*
X43285714Y21342800D02*
X43142857Y21295181D01*
X43142857Y21295181D02*
X43047619Y21295181D01*
X43047619Y21295181D02*
X42904762Y21342800D01*
X42904762Y21342800D02*
X42809524Y21438039D01*
X42809524Y21438039D02*
X42761905Y21533277D01*
X42761905Y21533277D02*
X42714286Y21723753D01*
X42714286Y21723753D02*
X42714286Y21866610D01*
X42714286Y21866610D02*
X42761905Y22057086D01*
X42761905Y22057086D02*
X42809524Y22152324D01*
X42809524Y22152324D02*
X42904762Y22247562D01*
X42904762Y22247562D02*
X43047619Y22295181D01*
X43047619Y22295181D02*
X43142857Y22295181D01*
X43142857Y22295181D02*
X43285714Y22247562D01*
X43285714Y22247562D02*
X43333333Y22199943D01*
X44238095Y22295181D02*
X43761905Y22295181D01*
X43761905Y22295181D02*
X43714286Y21818991D01*
X43714286Y21818991D02*
X43761905Y21866610D01*
X43761905Y21866610D02*
X43857143Y21914229D01*
X43857143Y21914229D02*
X44095238Y21914229D01*
X44095238Y21914229D02*
X44190476Y21866610D01*
X44190476Y21866610D02*
X44238095Y21818991D01*
X44238095Y21818991D02*
X44285714Y21723753D01*
X44285714Y21723753D02*
X44285714Y21485658D01*
X44285714Y21485658D02*
X44238095Y21390420D01*
X44238095Y21390420D02*
X44190476Y21342800D01*
X44190476Y21342800D02*
X44095238Y21295181D01*
X44095238Y21295181D02*
X43857143Y21295181D01*
X43857143Y21295181D02*
X43761905Y21342800D01*
X43761905Y21342800D02*
X43714286Y21390420D01*
X31833333Y10140420D02*
X31785714Y10092800D01*
X31785714Y10092800D02*
X31642857Y10045181D01*
X31642857Y10045181D02*
X31547619Y10045181D01*
X31547619Y10045181D02*
X31404762Y10092800D01*
X31404762Y10092800D02*
X31309524Y10188039D01*
X31309524Y10188039D02*
X31261905Y10283277D01*
X31261905Y10283277D02*
X31214286Y10473753D01*
X31214286Y10473753D02*
X31214286Y10616610D01*
X31214286Y10616610D02*
X31261905Y10807086D01*
X31261905Y10807086D02*
X31309524Y10902324D01*
X31309524Y10902324D02*
X31404762Y10997562D01*
X31404762Y10997562D02*
X31547619Y11045181D01*
X31547619Y11045181D02*
X31642857Y11045181D01*
X31642857Y11045181D02*
X31785714Y10997562D01*
X31785714Y10997562D02*
X31833333Y10949943D01*
X32214286Y10949943D02*
X32261905Y10997562D01*
X32261905Y10997562D02*
X32357143Y11045181D01*
X32357143Y11045181D02*
X32595238Y11045181D01*
X32595238Y11045181D02*
X32690476Y10997562D01*
X32690476Y10997562D02*
X32738095Y10949943D01*
X32738095Y10949943D02*
X32785714Y10854705D01*
X32785714Y10854705D02*
X32785714Y10759467D01*
X32785714Y10759467D02*
X32738095Y10616610D01*
X32738095Y10616610D02*
X32166667Y10045181D01*
X32166667Y10045181D02*
X32785714Y10045181D01*
X56006666Y1795181D02*
X56006666Y1080896D01*
X56006666Y1080896D02*
X55959047Y938039D01*
X55959047Y938039D02*
X55863809Y842800D01*
X55863809Y842800D02*
X55720952Y795181D01*
X55720952Y795181D02*
X55625714Y795181D01*
X56959047Y1795181D02*
X56482857Y1795181D01*
X56482857Y1795181D02*
X56435238Y1318991D01*
X56435238Y1318991D02*
X56482857Y1366610D01*
X56482857Y1366610D02*
X56578095Y1414229D01*
X56578095Y1414229D02*
X56816190Y1414229D01*
X56816190Y1414229D02*
X56911428Y1366610D01*
X56911428Y1366610D02*
X56959047Y1318991D01*
X56959047Y1318991D02*
X57006666Y1223753D01*
X57006666Y1223753D02*
X57006666Y985658D01*
X57006666Y985658D02*
X56959047Y890420D01*
X56959047Y890420D02*
X56911428Y842800D01*
X56911428Y842800D02*
X56816190Y795181D01*
X56816190Y795181D02*
X56578095Y795181D01*
X56578095Y795181D02*
X56482857Y842800D01*
X56482857Y842800D02*
X56435238Y890420D01*
X52009580Y13083334D02*
X52057200Y13035715D01*
X52057200Y13035715D02*
X52104819Y12892858D01*
X52104819Y12892858D02*
X52104819Y12797620D01*
X52104819Y12797620D02*
X52057200Y12654763D01*
X52057200Y12654763D02*
X51961961Y12559525D01*
X51961961Y12559525D02*
X51866723Y12511906D01*
X51866723Y12511906D02*
X51676247Y12464287D01*
X51676247Y12464287D02*
X51533390Y12464287D01*
X51533390Y12464287D02*
X51342914Y12511906D01*
X51342914Y12511906D02*
X51247676Y12559525D01*
X51247676Y12559525D02*
X51152438Y12654763D01*
X51152438Y12654763D02*
X51104819Y12797620D01*
X51104819Y12797620D02*
X51104819Y12892858D01*
X51104819Y12892858D02*
X51152438Y13035715D01*
X51152438Y13035715D02*
X51200057Y13083334D01*
X51438152Y13940477D02*
X52104819Y13940477D01*
X51057200Y13702382D02*
X51771485Y13464287D01*
X51771485Y13464287D02*
X51771485Y14083334D01*
D13*
%TO.C,REF\u002A\u002A*%
X28250000Y4250000D02*
G75*
G02*
X25250000Y4250000I-1500000J0D01*
G01*
X25250000Y4250000D02*
G75*
G02*
X28250000Y4250000I1500000J0D01*
G01*
D11*
%TO.C,J3*%
X21990000Y-25000D02*
X21990000Y-1675000D01*
X21990000Y-25000D02*
X25612700Y-25000D01*
X21990000Y-1675000D02*
X31510000Y-1675000D01*
X23656000Y-5131000D02*
X23656000Y-5269000D01*
X23656000Y-5131000D02*
X29844000Y-5691000D01*
X23656000Y-5269000D02*
X24035000Y-5480000D01*
X23656000Y-5269000D02*
X29844000Y-5829000D01*
X23656000Y-5691000D02*
X23656000Y-5829000D01*
X23656000Y-5691000D02*
X29844000Y-6251000D01*
X23656000Y-5829000D02*
X24035000Y-6040000D01*
X23656000Y-5829000D02*
X29844000Y-6389000D01*
X23656000Y-6251000D02*
X23656000Y-6389000D01*
X23656000Y-6251000D02*
X29844000Y-6811000D01*
X23656000Y-6389000D02*
X24035000Y-6600000D01*
X23656000Y-6389000D02*
X29844000Y-6949000D01*
X23656000Y-6811000D02*
X23656000Y-6949000D01*
X23656000Y-6811000D02*
X29844000Y-7371000D01*
X23656000Y-6949000D02*
X24035000Y-7160000D01*
X23656000Y-6949000D02*
X29844000Y-7509000D01*
X23656000Y-7371000D02*
X23656000Y-7509000D01*
X23656000Y-7371000D02*
X29844000Y-7931000D01*
X23656000Y-7509000D02*
X24035000Y-7720000D01*
X23656000Y-7509000D02*
X29844000Y-8069010D01*
X23656000Y-7931000D02*
X23656000Y-8069010D01*
X23656000Y-7931000D02*
X29844000Y-8491000D01*
X23656000Y-8069010D02*
X24035000Y-8280010D01*
X23656000Y-8069010D02*
X29844000Y-8629000D01*
X23656000Y-8491000D02*
X23656000Y-8629000D01*
X23656000Y-8491000D02*
X29415000Y-8840000D01*
X23656000Y-8629000D02*
X24035000Y-8840000D01*
X23656000Y-8629000D02*
X29415000Y-8840000D01*
X24035000Y-5480000D02*
X23656000Y-5691000D01*
X24035000Y-5480000D02*
X29465000Y-6040000D01*
X24035000Y-6040000D02*
X23656000Y-6251000D01*
X24035000Y-6040000D02*
X29465000Y-6600000D01*
X24035000Y-6600000D02*
X23656000Y-6811000D01*
X24035000Y-6600000D02*
X29465000Y-7160000D01*
X24035000Y-7160000D02*
X23656000Y-7371000D01*
X24035000Y-7160000D02*
X29465000Y-7720000D01*
X24035000Y-7720000D02*
X23656000Y-7931000D01*
X24035000Y-7720000D02*
X29465000Y-8280010D01*
X24035000Y-8280010D02*
X23656000Y-8491000D01*
X24035000Y-8280010D02*
X29415000Y-8840000D01*
X24035000Y-8840000D02*
X29415000Y-8840000D01*
X24037310Y-4920000D02*
X23656000Y-5131000D01*
X24037310Y-4920000D02*
X29465000Y-4920000D01*
X24037310Y-4920000D02*
X29465000Y-5480000D01*
X24037310Y-4920000D02*
X29844000Y-5269000D01*
X24085000Y-4920000D02*
X29844000Y-5131000D01*
X24085000Y-8840000D02*
X24085000Y-9555000D01*
X24085000Y-9555000D02*
X29415000Y-9555000D01*
X24302610Y-1675000D02*
X24302610Y-4545000D01*
X24302610Y-4545000D02*
X24085000Y-4920000D01*
X24302610Y-4545000D02*
X29203280Y-4545000D01*
X27887300Y-25000D02*
X31510000Y-25000D01*
X29203270Y-1675000D02*
X29203270Y-4545000D01*
X29203270Y-4545000D02*
X29415000Y-4920000D01*
X29415000Y-8840000D02*
X29415000Y-9555000D01*
X29465000Y-4920000D02*
X29844000Y-5131000D01*
X29465000Y-5480000D02*
X29844000Y-5691000D01*
X29465000Y-6040000D02*
X29844000Y-6251000D01*
X29465000Y-6600000D02*
X29844000Y-6811000D01*
X29465000Y-7160000D02*
X29844000Y-7371000D01*
X29465000Y-7720000D02*
X29844000Y-7931000D01*
X29465000Y-8280010D02*
X29844000Y-8491000D01*
X29844000Y-5131000D02*
X29844000Y-5269000D01*
X29844000Y-5269000D02*
X29465000Y-5480000D01*
X29844000Y-5691000D02*
X29844000Y-5829000D01*
X29844000Y-5829000D02*
X29465000Y-6040000D01*
X29844000Y-6251000D02*
X29844000Y-6389000D01*
X29844000Y-6389000D02*
X29465000Y-6600000D01*
X29844000Y-6811000D02*
X29844000Y-6949000D01*
X29844000Y-6949000D02*
X29465000Y-7160000D01*
X29844000Y-7371000D02*
X29844000Y-7509000D01*
X29844000Y-7509000D02*
X29465000Y-7720000D01*
X29844000Y-7931000D02*
X29844000Y-8069010D01*
X29844000Y-8069010D02*
X29465000Y-8280010D01*
X29844000Y-8491000D02*
X29844000Y-8629000D01*
X29844000Y-8629000D02*
X29415000Y-8840000D01*
X31510000Y-25000D02*
X31510000Y-1675000D01*
D13*
%TO.C,R3*%
X28022936Y22160000D02*
X29477064Y22160000D01*
X28022936Y20340000D02*
X29477064Y20340000D01*
%TO.C,J7*%
X56440000Y5030000D02*
X57710000Y5030000D01*
X56440000Y3760000D02*
X56440000Y5030000D01*
X58820000Y4140000D02*
X59207071Y4140000D01*
X58820000Y3380000D02*
X59207071Y3380000D01*
X61292929Y4140000D02*
X61690000Y4140000D01*
X61292929Y3380000D02*
X61690000Y3380000D01*
X61690000Y5090000D02*
X61690000Y2430000D01*
X61690000Y2430000D02*
X64350000Y2430000D01*
X64350000Y5090000D02*
X61690000Y5090000D01*
X64350000Y4140000D02*
X70350000Y4140000D01*
X64350000Y4080000D02*
X70350000Y4080000D01*
X64350000Y3960000D02*
X70350000Y3960000D01*
X64350000Y3840000D02*
X70350000Y3840000D01*
X64350000Y3720000D02*
X70350000Y3720000D01*
X64350000Y3600000D02*
X70350000Y3600000D01*
X64350000Y3480000D02*
X70350000Y3480000D01*
X64350000Y2430000D02*
X64350000Y5090000D01*
X70350000Y4140000D02*
X70350000Y3380000D01*
X70350000Y3380000D02*
X64350000Y3380000D01*
%TO.C,J2*%
X56440000Y22810000D02*
X57710000Y22810000D01*
X56440000Y21540000D02*
X56440000Y22810000D01*
X58752929Y19380000D02*
X59207071Y19380000D01*
X58752929Y18620000D02*
X59207071Y18620000D01*
X58752929Y16840000D02*
X59207071Y16840000D01*
X58752929Y16080000D02*
X59207071Y16080000D01*
X58752929Y14300000D02*
X59207071Y14300000D01*
X58752929Y13540000D02*
X59207071Y13540000D01*
X58752929Y11760000D02*
X59207071Y11760000D01*
X58752929Y11000000D02*
X59207071Y11000000D01*
X58752929Y9220000D02*
X59207071Y9220000D01*
X58752929Y8460000D02*
X59207071Y8460000D01*
X58820000Y21920000D02*
X59207071Y21920000D01*
X58820000Y21160000D02*
X59207071Y21160000D01*
X61292929Y21920000D02*
X61690000Y21920000D01*
X61292929Y21160000D02*
X61690000Y21160000D01*
X61292929Y19380000D02*
X61690000Y19380000D01*
X61292929Y18620000D02*
X61690000Y18620000D01*
X61292929Y16840000D02*
X61690000Y16840000D01*
X61292929Y16080000D02*
X61690000Y16080000D01*
X61292929Y14300000D02*
X61690000Y14300000D01*
X61292929Y13540000D02*
X61690000Y13540000D01*
X61292929Y11760000D02*
X61690000Y11760000D01*
X61292929Y11000000D02*
X61690000Y11000000D01*
X61292929Y9220000D02*
X61690000Y9220000D01*
X61292929Y8460000D02*
X61690000Y8460000D01*
X61690000Y22870000D02*
X61690000Y7510000D01*
X61690000Y20270000D02*
X64350000Y20270000D01*
X61690000Y17730000D02*
X64350000Y17730000D01*
X61690000Y15190000D02*
X64350000Y15190000D01*
X61690000Y12650000D02*
X64350000Y12650000D01*
X61690000Y10110000D02*
X64350000Y10110000D01*
X61690000Y7510000D02*
X64350000Y7510000D01*
X64350000Y22870000D02*
X61690000Y22870000D01*
X64350000Y21920000D02*
X70350000Y21920000D01*
X64350000Y21860000D02*
X70350000Y21860000D01*
X64350000Y21740000D02*
X70350000Y21740000D01*
X64350000Y21620000D02*
X70350000Y21620000D01*
X64350000Y21500000D02*
X70350000Y21500000D01*
X64350000Y21380000D02*
X70350000Y21380000D01*
X64350000Y21260000D02*
X70350000Y21260000D01*
X64350000Y19380000D02*
X70350000Y19380000D01*
X64350000Y16840000D02*
X70350000Y16840000D01*
X64350000Y14300000D02*
X70350000Y14300000D01*
X64350000Y11760000D02*
X70350000Y11760000D01*
X64350000Y9220000D02*
X70350000Y9220000D01*
X64350000Y7510000D02*
X64350000Y22870000D01*
X70350000Y21920000D02*
X70350000Y21160000D01*
X70350000Y21160000D02*
X64350000Y21160000D01*
X70350000Y19380000D02*
X70350000Y18620000D01*
X70350000Y18620000D02*
X64350000Y18620000D01*
X70350000Y16840000D02*
X70350000Y16080000D01*
X70350000Y16080000D02*
X64350000Y16080000D01*
X70350000Y14300000D02*
X70350000Y13540000D01*
X70350000Y13540000D02*
X64350000Y13540000D01*
X70350000Y11760000D02*
X70350000Y11000000D01*
X70350000Y11000000D02*
X64350000Y11000000D01*
X70350000Y9220000D02*
X70350000Y8460000D01*
X70350000Y8460000D02*
X64350000Y8460000D01*
%TO.C,R4*%
X47590000Y17272936D02*
X47590000Y18727064D01*
X49410000Y17272936D02*
X49410000Y18727064D01*
%TO.C,J6*%
X-7330000Y5050000D02*
X-7330000Y2390000D01*
X-7330000Y5050000D02*
X1300000Y5050000D01*
X-7330000Y4930000D02*
X1300000Y4930000D01*
X-7330000Y4814545D02*
X1300000Y4814545D01*
X-7330000Y4699090D02*
X1300000Y4699090D01*
X-7330000Y4583635D02*
X1300000Y4583635D01*
X-7330000Y4468180D02*
X1300000Y4468180D01*
X-7330000Y4352725D02*
X1300000Y4352725D01*
X-7330000Y4237270D02*
X1300000Y4237270D01*
X-7330000Y4121815D02*
X1300000Y4121815D01*
X-7330000Y4006360D02*
X1300000Y4006360D01*
X-7330000Y3890905D02*
X1300000Y3890905D01*
X-7330000Y3775450D02*
X1300000Y3775450D01*
X-7330000Y3659995D02*
X1300000Y3659995D01*
X-7330000Y3544540D02*
X1300000Y3544540D01*
X-7330000Y3429085D02*
X1300000Y3429085D01*
X-7330000Y3313630D02*
X1300000Y3313630D01*
X-7330000Y3198175D02*
X1300000Y3198175D01*
X-7330000Y3082720D02*
X1300000Y3082720D01*
X-7330000Y2967265D02*
X1300000Y2967265D01*
X-7330000Y2851810D02*
X1300000Y2851810D01*
X-7330000Y2736355D02*
X1300000Y2736355D01*
X-7330000Y2620900D02*
X1300000Y2620900D01*
X-7330000Y2505445D02*
X1300000Y2505445D01*
X-7330000Y2390000D02*
X1300000Y2390000D01*
X1300000Y5050000D02*
X1300000Y2390000D01*
X1300000Y4080000D02*
X1710000Y4080000D01*
X1300000Y3360000D02*
X1710000Y3360000D01*
X3810000Y4080000D02*
X4190000Y4080000D01*
X3810000Y3360000D02*
X4190000Y3360000D01*
X5300000Y5050000D02*
X6410000Y5050000D01*
X6410000Y5050000D02*
X6410000Y3720000D01*
%TO.C,R5*%
X47590000Y12485436D02*
X47590000Y13939564D01*
X49410000Y12485436D02*
X49410000Y13939564D01*
D14*
%TO.C,U2*%
X14317000Y19433000D02*
X14317000Y18959740D01*
X14317000Y12540260D02*
X14317000Y12067000D01*
X14317000Y12067000D02*
X14790260Y12067000D01*
X14790260Y19433000D02*
X14317000Y19433000D01*
X21209740Y12067000D02*
X21683000Y12067000D01*
X21683000Y19433000D02*
X21209740Y19433000D01*
X21683000Y18959740D02*
X21683000Y19433000D01*
X21683000Y12067000D02*
X21683000Y12540260D01*
D15*
G36*
X13885200Y14809499D02*
G01*
X13631200Y14809499D01*
X13631200Y15190499D01*
X13885200Y15190499D01*
X13885200Y14809499D01*
G37*
G36*
X16440501Y19864800D02*
G01*
X16059501Y19864800D01*
X16059501Y20118800D01*
X16440501Y20118800D01*
X16440501Y19864800D01*
G37*
G36*
X17940501Y11381200D02*
G01*
X17559500Y11381200D01*
X17559500Y11635200D01*
X17940501Y11635200D01*
X17940501Y11381200D01*
G37*
G36*
X22368800Y14309500D02*
G01*
X22114800Y14309500D01*
X22114800Y14690500D01*
X22368800Y14690500D01*
X22368800Y14309500D01*
G37*
D13*
%TO.C,L1*%
X53835242Y22660000D02*
X52164758Y22660000D01*
X53835242Y20840000D02*
X52164758Y20840000D01*
%TO.C,REF\u002A\u002A*%
X15750000Y4250000D02*
G75*
G02*
X12750000Y4250000I-1500000J0D01*
G01*
X12750000Y4250000D02*
G75*
G02*
X15750000Y4250000I1500000J0D01*
G01*
%TO.C,C3*%
X29415652Y16409999D02*
X27993148Y16409999D01*
X29415652Y14589999D02*
X27993148Y14589999D01*
%TO.C,J4*%
X-7330000Y22830000D02*
X-7330000Y7470000D01*
X-7330000Y22830000D02*
X1300000Y22830000D01*
X-7330000Y22710000D02*
X1300000Y22710000D01*
X-7330000Y22591905D02*
X1300000Y22591905D01*
X-7330000Y22473810D02*
X1300000Y22473810D01*
X-7330000Y22355715D02*
X1300000Y22355715D01*
X-7330000Y22237620D02*
X1300000Y22237620D01*
X-7330000Y22119525D02*
X1300000Y22119525D01*
X-7330000Y22001430D02*
X1300000Y22001430D01*
X-7330000Y21883335D02*
X1300000Y21883335D01*
X-7330000Y21765240D02*
X1300000Y21765240D01*
X-7330000Y21647145D02*
X1300000Y21647145D01*
X-7330000Y21529050D02*
X1300000Y21529050D01*
X-7330000Y21410955D02*
X1300000Y21410955D01*
X-7330000Y21292860D02*
X1300000Y21292860D01*
X-7330000Y21174765D02*
X1300000Y21174765D01*
X-7330000Y21056670D02*
X1300000Y21056670D01*
X-7330000Y20938575D02*
X1300000Y20938575D01*
X-7330000Y20820480D02*
X1300000Y20820480D01*
X-7330000Y20702385D02*
X1300000Y20702385D01*
X-7330000Y20584290D02*
X1300000Y20584290D01*
X-7330000Y20466195D02*
X1300000Y20466195D01*
X-7330000Y20348100D02*
X1300000Y20348100D01*
X-7330000Y20230000D02*
X1300000Y20230000D01*
X-7330000Y17690000D02*
X1300000Y17690000D01*
X-7330000Y15150000D02*
X1300000Y15150000D01*
X-7330000Y12610000D02*
X1300000Y12610000D01*
X-7330000Y10070000D02*
X1300000Y10070000D01*
X-7330000Y7470000D02*
X1300000Y7470000D01*
X1300000Y22830000D02*
X1300000Y7470000D01*
X1300000Y21860000D02*
X1710000Y21860000D01*
X1300000Y21140000D02*
X1710000Y21140000D01*
X1300000Y19320000D02*
X1710000Y19320000D01*
X1300000Y18600000D02*
X1710000Y18600000D01*
X1300000Y16780000D02*
X1710000Y16780000D01*
X1300000Y16060000D02*
X1710000Y16060000D01*
X1300000Y14240000D02*
X1710000Y14240000D01*
X1300000Y13520000D02*
X1710000Y13520000D01*
X1300000Y11700000D02*
X1710000Y11700000D01*
X1300000Y10980000D02*
X1710000Y10980000D01*
X1300000Y9160000D02*
X1710000Y9160000D01*
X1300000Y8440000D02*
X1710000Y8440000D01*
X3810000Y21860000D02*
X4190000Y21860000D01*
X3810000Y21140000D02*
X4190000Y21140000D01*
X3810000Y19320000D02*
X4250000Y19320000D01*
X3810000Y18600000D02*
X4250000Y18600000D01*
X3810000Y16780000D02*
X4250000Y16780000D01*
X3810000Y16060000D02*
X4250000Y16060000D01*
X3810000Y14240000D02*
X4250000Y14240000D01*
X3810000Y13520000D02*
X4250000Y13520000D01*
X3810000Y11700000D02*
X4250000Y11700000D01*
X3810000Y10980000D02*
X4250000Y10980000D01*
X3810000Y9160000D02*
X4250000Y9160000D01*
X3810000Y8440000D02*
X4250000Y8440000D01*
X5300000Y22830000D02*
X6410000Y22830000D01*
X6410000Y22830000D02*
X6410000Y21500000D01*
D11*
%TO.C,IC1*%
X50600000Y17175000D02*
X50600000Y17650000D01*
X50700000Y18500000D02*
X52300000Y18500000D01*
X50700000Y18000000D02*
X50700000Y18500000D01*
X52300000Y18500000D02*
X52300000Y18000000D01*
X52300000Y18000000D02*
X50700000Y18000000D01*
D13*
%TO.C,C6*%
X45090000Y17288748D02*
X45090000Y18711252D01*
X46910000Y17288748D02*
X46910000Y18711252D01*
D11*
%TO.C,J1*%
X9490000Y-25000D02*
X9490000Y-1675000D01*
X9490000Y-25000D02*
X13112700Y-25000D01*
X9490000Y-1675000D02*
X19010000Y-1675000D01*
X11156000Y-5131000D02*
X11156000Y-5269000D01*
X11156000Y-5131000D02*
X17344000Y-5691000D01*
X11156000Y-5269000D02*
X11535000Y-5480000D01*
X11156000Y-5269000D02*
X17344000Y-5829000D01*
X11156000Y-5691000D02*
X11156000Y-5829000D01*
X11156000Y-5691000D02*
X17344000Y-6251000D01*
X11156000Y-5829000D02*
X11535000Y-6040000D01*
X11156000Y-5829000D02*
X17344000Y-6389000D01*
X11156000Y-6251000D02*
X11156000Y-6389000D01*
X11156000Y-6251000D02*
X17344000Y-6811000D01*
X11156000Y-6389000D02*
X11535000Y-6600000D01*
X11156000Y-6389000D02*
X17344000Y-6949000D01*
X11156000Y-6811000D02*
X11156000Y-6949000D01*
X11156000Y-6811000D02*
X17344000Y-7371000D01*
X11156000Y-6949000D02*
X11535000Y-7160000D01*
X11156000Y-6949000D02*
X17344000Y-7509000D01*
X11156000Y-7371000D02*
X11156000Y-7509000D01*
X11156000Y-7371000D02*
X17344000Y-7931000D01*
X11156000Y-7509000D02*
X11535000Y-7720000D01*
X11156000Y-7509000D02*
X17344000Y-8069010D01*
X11156000Y-7931000D02*
X11156000Y-8069010D01*
X11156000Y-7931000D02*
X17344000Y-8491000D01*
X11156000Y-8069010D02*
X11535000Y-8280010D01*
X11156000Y-8069010D02*
X17344000Y-8629000D01*
X11156000Y-8491000D02*
X11156000Y-8629000D01*
X11156000Y-8491000D02*
X16915000Y-8840000D01*
X11156000Y-8629000D02*
X11535000Y-8840000D01*
X11156000Y-8629000D02*
X16915000Y-8840000D01*
X11535000Y-5480000D02*
X11156000Y-5691000D01*
X11535000Y-5480000D02*
X16965000Y-6040000D01*
X11535000Y-6040000D02*
X11156000Y-6251000D01*
X11535000Y-6040000D02*
X16965000Y-6600000D01*
X11535000Y-6600000D02*
X11156000Y-6811000D01*
X11535000Y-6600000D02*
X16965000Y-7160000D01*
X11535000Y-7160000D02*
X11156000Y-7371000D01*
X11535000Y-7160000D02*
X16965000Y-7720000D01*
X11535000Y-7720000D02*
X11156000Y-7931000D01*
X11535000Y-7720000D02*
X16965000Y-8280010D01*
X11535000Y-8280010D02*
X11156000Y-8491000D01*
X11535000Y-8280010D02*
X16915000Y-8840000D01*
X11535000Y-8840000D02*
X16915000Y-8840000D01*
X11537310Y-4920000D02*
X11156000Y-5131000D01*
X11537310Y-4920000D02*
X16965000Y-4920000D01*
X11537310Y-4920000D02*
X16965000Y-5480000D01*
X11537310Y-4920000D02*
X17344000Y-5269000D01*
X11585000Y-4920000D02*
X17344000Y-5131000D01*
X11585000Y-8840000D02*
X11585000Y-9555000D01*
X11585000Y-9555000D02*
X16915000Y-9555000D01*
X11802610Y-1675000D02*
X11802610Y-4545000D01*
X11802610Y-4545000D02*
X11585000Y-4920000D01*
X11802610Y-4545000D02*
X16703280Y-4545000D01*
X15387300Y-25000D02*
X19010000Y-25000D01*
X16703270Y-1675000D02*
X16703270Y-4545000D01*
X16703270Y-4545000D02*
X16915000Y-4920000D01*
X16915000Y-8840000D02*
X16915000Y-9555000D01*
X16965000Y-4920000D02*
X17344000Y-5131000D01*
X16965000Y-5480000D02*
X17344000Y-5691000D01*
X16965000Y-6040000D02*
X17344000Y-6251000D01*
X16965000Y-6600000D02*
X17344000Y-6811000D01*
X16965000Y-7160000D02*
X17344000Y-7371000D01*
X16965000Y-7720000D02*
X17344000Y-7931000D01*
X16965000Y-8280010D02*
X17344000Y-8491000D01*
X17344000Y-5131000D02*
X17344000Y-5269000D01*
X17344000Y-5269000D02*
X16965000Y-5480000D01*
X17344000Y-5691000D02*
X17344000Y-5829000D01*
X17344000Y-5829000D02*
X16965000Y-6040000D01*
X17344000Y-6251000D02*
X17344000Y-6389000D01*
X17344000Y-6389000D02*
X16965000Y-6600000D01*
X17344000Y-6811000D02*
X17344000Y-6949000D01*
X17344000Y-6949000D02*
X16965000Y-7160000D01*
X17344000Y-7371000D02*
X17344000Y-7509000D01*
X17344000Y-7509000D02*
X16965000Y-7720000D01*
X17344000Y-7931000D02*
X17344000Y-8069010D01*
X17344000Y-8069010D02*
X16965000Y-8280010D01*
X17344000Y-8491000D02*
X17344000Y-8629000D01*
X17344000Y-8629000D02*
X16915000Y-8840000D01*
X19010000Y-25000D02*
X19010000Y-1675000D01*
D13*
%TO.C,R2*%
X28022936Y19910000D02*
X29477064Y19910000D01*
X28022936Y18090000D02*
X29477064Y18090000D01*
%TO.C,R1*%
X28022936Y13910000D02*
X29477064Y13910000D01*
X28022936Y12090000D02*
X29477064Y12090000D01*
%TO.C,C5*%
X46288748Y22660000D02*
X47711252Y22660000D01*
X46288748Y20840000D02*
X47711252Y20840000D01*
%TO.C,C2*%
X29461252Y11410000D02*
X28038748Y11410000D01*
X29461252Y9590000D02*
X28038748Y9590000D01*
%TO.C,J5*%
X34390000Y6370000D02*
X34390000Y1170000D01*
X52230000Y6370000D02*
X34390000Y6370000D01*
X52230000Y6370000D02*
X52230000Y3770000D01*
X52230000Y3770000D02*
X54830000Y3770000D01*
X53500000Y6370000D02*
X54830000Y6370000D01*
X54830000Y6370000D02*
X54830000Y5040000D01*
X54830000Y3770000D02*
X54830000Y1170000D01*
X54830000Y1170000D02*
X34390000Y1170000D01*
%TO.C,C4*%
X52590000Y12538748D02*
X52590000Y13961252D01*
X54410000Y12538748D02*
X54410000Y13961252D01*
%TD*%
%LPC*%
D16*
%TO.C,REF\u002A\u002A*%
X26750000Y4250000D03*
%TD*%
D17*
%TO.C,J3*%
X26750000Y1250000D03*
D18*
X23450000Y2812500D03*
D19*
X30000000Y2812500D03*
%TD*%
D20*
%TO.C,R3*%
X27287500Y21250000D03*
X30212500Y21250000D03*
%TD*%
D21*
%TO.C,J7*%
X57710000Y3760000D03*
D22*
X60250000Y3760000D03*
%TD*%
D21*
%TO.C,J2*%
X57710000Y21540000D03*
D22*
X60250000Y21540000D03*
X57710000Y19000000D03*
X60250000Y19000000D03*
X57710000Y16460000D03*
X60250000Y16460000D03*
X57710000Y13920000D03*
X60250000Y13920000D03*
X57710000Y11380000D03*
X60250000Y11380000D03*
X57710000Y8840000D03*
X60250000Y8840000D03*
%TD*%
D23*
%TO.C,R4*%
X48500000Y16537500D03*
X48500000Y19462500D03*
%TD*%
D21*
%TO.C,J6*%
X5300000Y3720000D03*
D22*
X2760000Y3720000D03*
%TD*%
D23*
%TO.C,R5*%
X48500000Y11750000D03*
X48500000Y14675000D03*
%TD*%
D24*
%TO.C,U2*%
X20750000Y19204400D03*
X20250001Y19204400D03*
X19749999Y19204400D03*
X19250000Y19204400D03*
X18750001Y19204400D03*
X18250000Y19204400D03*
X17750000Y19204400D03*
X17249999Y19204400D03*
X16750000Y19204400D03*
X16250001Y19204400D03*
X15749999Y19204400D03*
X15250000Y19204400D03*
D25*
X14545600Y18500000D03*
X14545600Y18000001D03*
X14545600Y17499999D03*
X14545600Y17000000D03*
X14545600Y16500001D03*
X14545600Y16000000D03*
X14545600Y15500000D03*
X14545600Y14999999D03*
X14545600Y14500000D03*
X14545600Y14000001D03*
X14545600Y13499999D03*
X14545600Y13000000D03*
D24*
X15250000Y12295600D03*
X15749999Y12295600D03*
X16250001Y12295600D03*
X16750000Y12295600D03*
X17249999Y12295600D03*
X17750000Y12295600D03*
X18250000Y12295600D03*
X18750001Y12295600D03*
X19250000Y12295600D03*
X19749999Y12295600D03*
X20250001Y12295600D03*
X20750000Y12295600D03*
D25*
X21454400Y13000000D03*
X21454400Y13499999D03*
X21454400Y14000001D03*
X21454400Y14500000D03*
X21454400Y14999999D03*
X21454400Y15500000D03*
X21454400Y16000000D03*
X21454400Y16500001D03*
X21454400Y17000000D03*
X21454400Y17499999D03*
X21454400Y18000001D03*
X21454400Y18500000D03*
D26*
X18000000Y15750000D03*
%TD*%
D27*
%TO.C,L1*%
X54575000Y21750000D03*
X51425000Y21750000D03*
%TD*%
D16*
%TO.C,REF\u002A\u002A*%
X14250000Y4250000D03*
%TD*%
D28*
%TO.C,C3*%
X30179400Y15499999D03*
X27229400Y15499999D03*
%TD*%
D21*
%TO.C,J4*%
X5300000Y21500000D03*
D22*
X2760000Y21500000D03*
X5300000Y18960000D03*
X2760000Y18960000D03*
X5300000Y16420000D03*
X2760000Y16420000D03*
X5300000Y13880000D03*
X2760000Y13880000D03*
X5300000Y11340000D03*
X2760000Y11340000D03*
X5300000Y8800000D03*
X2760000Y8800000D03*
%TD*%
D29*
%TO.C,IC1*%
X51000000Y17412000D03*
X51500000Y17412000D03*
X52000000Y17412000D03*
X52000000Y19088000D03*
X51500000Y19088000D03*
X51000000Y19088000D03*
%TD*%
D30*
%TO.C,C6*%
X46000000Y16525000D03*
X46000000Y19475000D03*
%TD*%
D17*
%TO.C,J1*%
X14250000Y1250000D03*
D18*
X10950000Y2812500D03*
D19*
X17500000Y2812500D03*
%TD*%
D20*
%TO.C,R2*%
X27287500Y19000000D03*
X30212500Y19000000D03*
%TD*%
%TO.C,R1*%
X27287500Y13000000D03*
X30212500Y13000000D03*
%TD*%
D31*
%TO.C,C5*%
X45525000Y21750000D03*
X48475000Y21750000D03*
%TD*%
D28*
%TO.C,C2*%
X30225000Y10500000D03*
X27275000Y10500000D03*
%TD*%
D21*
%TO.C,J5*%
X53500000Y5040000D03*
D22*
X53500000Y2500000D03*
X50960000Y5040000D03*
X50960000Y2500000D03*
X48420000Y5040000D03*
X48420000Y2500000D03*
X45880000Y5040000D03*
X45880000Y2500000D03*
X43340000Y5040000D03*
X43340000Y2500000D03*
X40800000Y5040000D03*
X40800000Y2500000D03*
X38260000Y5040000D03*
X38260000Y2500000D03*
X35720000Y5040000D03*
X35720000Y2500000D03*
%TD*%
D30*
%TO.C,C4*%
X53500000Y11775000D03*
X53500000Y14725000D03*
%TD*%
%LPD*%
M02*
