%TF.GenerationSoftware,KiCad,Pcbnew,9.0.6*%
%TF.CreationDate,2025-12-21T20:15:55+07:00*%
%TF.ProjectId,MAX14866_PMOD,4d415831-3438-4363-965f-504d4f442e6b,rev?*%
%TF.SameCoordinates,Original*%
%TF.FileFunction,Copper,L1,Top*%
%TF.FilePolarity,Positive*%
%FSLAX46Y46*%
G04 Gerber Fmt 4.6, Leading zero omitted, Abs format (unit mm)*
G04 Created by KiCad (PCBNEW 9.0.6) date 2025-12-21 20:15:55*
%MOMM*%
%LPD*%
G01*
G04 APERTURE LIST*
G04 Aperture macros list*
%AMRoundRect*
0 Rectangle with rounded corners*
0 $1 Rounding radius*
0 $2 $3 $4 $5 $6 $7 $8 $9 X,Y pos of 4 corners*
0 Add a 4 corners polygon primitive as box body*
4,1,4,$2,$3,$4,$5,$6,$7,$8,$9,$2,$3,0*
0 Add four circle primitives for the rounded corners*
1,1,$1+$1,$2,$3*
1,1,$1+$1,$4,$5*
1,1,$1+$1,$6,$7*
1,1,$1+$1,$8,$9*
0 Add four rect primitives between the rounded corners*
20,1,$1+$1,$2,$3,$4,$5,0*
20,1,$1+$1,$4,$5,$6,$7,0*
20,1,$1+$1,$6,$7,$8,$9,0*
20,1,$1+$1,$8,$9,$2,$3,0*%
G04 Aperture macros list end*
%TA.AperFunction,ComponentPad*%
%ADD10C,2.000000*%
%TD*%
%TA.AperFunction,SMDPad,CuDef*%
%ADD11R,0.700000X2.350000*%
%TD*%
%TA.AperFunction,SMDPad,CuDef*%
%ADD12R,3.600000X4.875000*%
%TD*%
%TA.AperFunction,SMDPad,CuDef*%
%ADD13R,3.500000X4.875000*%
%TD*%
%TA.AperFunction,SMDPad,CuDef*%
%ADD14RoundRect,0.250000X-0.312500X-0.625000X0.312500X-0.625000X0.312500X0.625000X-0.312500X0.625000X0*%
%TD*%
%TA.AperFunction,ComponentPad*%
%ADD15R,1.700000X1.700000*%
%TD*%
%TA.AperFunction,ComponentPad*%
%ADD16O,1.700000X1.700000*%
%TD*%
%TA.AperFunction,SMDPad,CuDef*%
%ADD17R,0.254000X0.812800*%
%TD*%
%TA.AperFunction,SMDPad,CuDef*%
%ADD18R,0.812800X0.254000*%
%TD*%
%TA.AperFunction,SMDPad,CuDef*%
%ADD19R,5.588000X5.588000*%
%TD*%
%TA.AperFunction,SMDPad,CuDef*%
%ADD20RoundRect,0.250000X0.325000X0.650000X-0.325000X0.650000X-0.325000X-0.650000X0.325000X-0.650000X0*%
%TD*%
%TA.AperFunction,ViaPad*%
%ADD21C,0.600000*%
%TD*%
%TA.AperFunction,Conductor*%
%ADD22C,0.250000*%
%TD*%
%TA.AperFunction,Conductor*%
%ADD23C,0.500000*%
%TD*%
%TA.AperFunction,Conductor*%
%ADD24C,1.000000*%
%TD*%
G04 APERTURE END LIST*
D10*
%TO.P,REF\u002A\u002A,1*%
%TO.N,Net-(U2-COM0)*%
X26750000Y4250000D03*
%TD*%
D11*
%TO.P,J3,1,1*%
%TO.N,Net-(U2-COM0)*%
X26750000Y1250000D03*
D12*
%TO.P,J3,2,2*%
%TO.N,GND*%
X23450000Y2812500D03*
D13*
X30000000Y2812500D03*
%TD*%
D14*
%TO.P,R3,1*%
%TO.N,/CLR*%
X27287500Y21250000D03*
%TO.P,R3,2*%
%TO.N,GND*%
X30212500Y21250000D03*
%TD*%
D15*
%TO.P,J7,1,Pin_1*%
%TO.N,+5V*%
X57710000Y3760000D03*
D16*
%TO.P,J7,2,Pin_2*%
%TO.N,GND*%
X60250000Y3760000D03*
%TD*%
D15*
%TO.P,J2,1,1*%
%TO.N,+3.3V*%
X57710000Y21540000D03*
D16*
%TO.P,J2,2,2*%
X60250000Y21540000D03*
%TO.P,J2,3,3*%
%TO.N,GND*%
X57710000Y19000000D03*
%TO.P,J2,4,4*%
X60250000Y19000000D03*
%TO.P,J2,5,5*%
%TO.N,/SET*%
X57710000Y16460000D03*
%TO.P,J2,6,6*%
%TO.N,/CLR*%
X60250000Y16460000D03*
%TO.P,J2,7,7*%
%TO.N,/\u002ALE*%
X57710000Y13920000D03*
%TO.P,J2,8,8*%
%TO.N,unconnected-(J2-Pad8)*%
X60250000Y13920000D03*
%TO.P,J2,9,9*%
%TO.N,/CLK*%
X57710000Y11380000D03*
%TO.P,J2,10,10*%
%TO.N,unconnected-(J2-Pad10)*%
X60250000Y11380000D03*
%TO.P,J2,11,11*%
%TO.N,/DIN*%
X57710000Y8840000D03*
%TO.P,J2,12,12*%
%TO.N,unconnected-(J2-Pad12)*%
X60250000Y8840000D03*
%TD*%
D15*
%TO.P,J6,1,Pin_1*%
%TO.N,+5V*%
X5300000Y3720000D03*
D16*
%TO.P,J6,2,Pin_2*%
%TO.N,GND*%
X2760000Y3720000D03*
%TD*%
D17*
%TO.P,U2,1,COM0*%
%TO.N,Net-(U2-COM0)*%
X20750000Y19204400D03*
%TO.P,U2,2,NO0*%
%TO.N,/TR1*%
X20250001Y19204400D03*
%TO.P,U2,3,COM1*%
%TO.N,Net-(U2-COM1)*%
X19749999Y19204400D03*
%TO.P,U2,4,NO1*%
%TO.N,/TR1*%
X19250000Y19204400D03*
%TO.P,U2,5,COM2*%
%TO.N,Net-(U2-COM0)*%
X18750001Y19204400D03*
%TO.P,U2,6,NO2*%
%TO.N,/TR2*%
X18250000Y19204400D03*
%TO.P,U2,7,COM3*%
%TO.N,Net-(U2-COM1)*%
X17750000Y19204400D03*
%TO.P,U2,8,NO3*%
%TO.N,/TR2*%
X17249999Y19204400D03*
%TO.P,U2,9,GND*%
%TO.N,GND*%
X16750000Y19204400D03*
%TO.P,U2,10,GND*%
X16250001Y19204400D03*
%TO.P,U2,11,COM4*%
%TO.N,Net-(U2-COM0)*%
X15749999Y19204400D03*
%TO.P,U2,12,NO4*%
%TO.N,/TR3*%
X15250000Y19204400D03*
D18*
%TO.P,U2,13,COM5*%
%TO.N,Net-(U2-COM1)*%
X14545600Y18500000D03*
%TO.P,U2,14,NO5*%
%TO.N,/TR3*%
X14545600Y18000001D03*
%TO.P,U2,15,COM6*%
%TO.N,Net-(U2-COM0)*%
X14545600Y17499999D03*
%TO.P,U2,16,NO6*%
%TO.N,/TR4*%
X14545600Y17000000D03*
%TO.P,U2,17,COM7*%
%TO.N,Net-(U2-COM1)*%
X14545600Y16500001D03*
%TO.P,U2,18,NO7*%
%TO.N,/TR4*%
X14545600Y16000000D03*
%TO.P,U2,19,NO8*%
%TO.N,/TR5*%
X14545600Y15500000D03*
%TO.P,U2,20,COM8*%
%TO.N,Net-(U2-COM0)*%
X14545600Y14999999D03*
%TO.P,U2,21,NO9*%
%TO.N,/TR5*%
X14545600Y14500000D03*
%TO.P,U2,22,COM9*%
%TO.N,Net-(U2-COM1)*%
X14545600Y14000001D03*
%TO.P,U2,23,NO10*%
%TO.N,/TR6*%
X14545600Y13499999D03*
%TO.P,U2,24,COM10*%
%TO.N,Net-(U2-COM0)*%
X14545600Y13000000D03*
D17*
%TO.P,U2,25,NO11*%
%TO.N,/TR6*%
X15250000Y12295600D03*
%TO.P,U2,26,COM11*%
%TO.N,Net-(U2-COM1)*%
X15749999Y12295600D03*
%TO.P,U2,27,GND*%
%TO.N,GND*%
X16250001Y12295600D03*
%TO.P,U2,28,GND*%
X16750000Y12295600D03*
%TO.P,U2,29,NO12*%
%TO.N,/TR7*%
X17249999Y12295600D03*
%TO.P,U2,30,COM12*%
%TO.N,Net-(U2-COM0)*%
X17750000Y12295600D03*
%TO.P,U2,31,NO13*%
%TO.N,/TR7*%
X18250000Y12295600D03*
%TO.P,U2,32,COM13*%
%TO.N,Net-(U2-COM1)*%
X18750001Y12295600D03*
%TO.P,U2,33,NO14*%
%TO.N,/TR8*%
X19250000Y12295600D03*
%TO.P,U2,34,COM14*%
%TO.N,Net-(U2-COM0)*%
X19749999Y12295600D03*
%TO.P,U2,35,NO15*%
%TO.N,/TR8*%
X20250001Y12295600D03*
%TO.P,U2,36,COM15*%
%TO.N,Net-(U2-COM1)*%
X20750000Y12295600D03*
D18*
%TO.P,U2,37,GND*%
%TO.N,GND*%
X21454400Y13000000D03*
%TO.P,U2,38,\u002ALE*%
%TO.N,/\u002ALE*%
X21454400Y13499999D03*
%TO.P,U2,39,DOUT*%
%TO.N,/DOUT*%
X21454400Y14000001D03*
%TO.P,U2,40,VDD*%
%TO.N,+3.3V*%
X21454400Y14500000D03*
%TO.P,U2,41,GND*%
%TO.N,GND*%
X21454400Y14999999D03*
%TO.P,U2,42,GND*%
X21454400Y15500000D03*
%TO.P,U2,43,VCC*%
%TO.N,Net-(U2-VCC)*%
X21454400Y16000000D03*
%TO.P,U2,44,DIN*%
%TO.N,/DIN*%
X21454400Y16500001D03*
%TO.P,U2,45,CLK*%
%TO.N,/CLK*%
X21454400Y17000000D03*
%TO.P,U2,46,SET*%
%TO.N,/SET*%
X21454400Y17499999D03*
%TO.P,U2,47,CLR*%
%TO.N,/CLR*%
X21454400Y18000001D03*
%TO.P,U2,48,GND*%
%TO.N,GND*%
X21454400Y18500000D03*
D19*
%TO.P,U2,49,EPAD*%
X18000000Y15750000D03*
%TD*%
D10*
%TO.P,REF\u002A\u002A,1*%
%TO.N,Net-(U2-COM1)*%
X14250000Y4250000D03*
%TD*%
D20*
%TO.P,C3,1*%
%TO.N,GND*%
X30179400Y15499999D03*
%TO.P,C3,2*%
%TO.N,Net-(U2-VCC)*%
X27229400Y15499999D03*
%TD*%
D15*
%TO.P,J4,1,1*%
%TO.N,+3.3V*%
X5300000Y21500000D03*
D16*
%TO.P,J4,2,2*%
X2760000Y21500000D03*
%TO.P,J4,3,3*%
%TO.N,GND*%
X5300000Y18960000D03*
%TO.P,J4,4,4*%
X2760000Y18960000D03*
%TO.P,J4,5,5*%
%TO.N,/SET*%
X5300000Y16420000D03*
%TO.P,J4,6,6*%
%TO.N,/CLR*%
X2760000Y16420000D03*
%TO.P,J4,7,7*%
%TO.N,/\u002ALE*%
X5300000Y13880000D03*
%TO.P,J4,8,8*%
%TO.N,unconnected-(J4-Pad8)*%
X2760000Y13880000D03*
%TO.P,J4,9,9*%
%TO.N,/CLK*%
X5300000Y11340000D03*
%TO.P,J4,10,10*%
%TO.N,unconnected-(J4-Pad10)*%
X2760000Y11340000D03*
%TO.P,J4,11,11*%
%TO.N,/DOUT*%
X5300000Y8800000D03*
%TO.P,J4,12,12*%
%TO.N,unconnected-(J4-Pad12)*%
X2760000Y8800000D03*
%TD*%
D11*
%TO.P,J1,1,1*%
%TO.N,Net-(U2-COM1)*%
X14250000Y1250000D03*
D12*
%TO.P,J1,2,2*%
%TO.N,GND*%
X10950000Y2812500D03*
D13*
X17500000Y2812500D03*
%TD*%
D14*
%TO.P,R2,1*%
%TO.N,/SET*%
X27287500Y19000000D03*
%TO.P,R2,2*%
%TO.N,GND*%
X30212500Y19000000D03*
%TD*%
%TO.P,R1,1*%
%TO.N,Net-(U2-VCC)*%
X27287500Y13000000D03*
%TO.P,R1,2*%
%TO.N,+5V*%
X30212500Y13000000D03*
%TD*%
D20*
%TO.P,C2,1*%
%TO.N,GND*%
X30225000Y10500000D03*
%TO.P,C2,2*%
%TO.N,+3.3V*%
X27275000Y10500000D03*
%TD*%
D15*
%TO.P,J5,1,Pin_1*%
%TO.N,/TR1*%
X53500000Y5040000D03*
D16*
%TO.P,J5,2,Pin_2*%
%TO.N,GND*%
X53500000Y2500000D03*
%TO.P,J5,3,Pin_3*%
%TO.N,/TR2*%
X50960000Y5040000D03*
%TO.P,J5,4,Pin_4*%
%TO.N,GND*%
X50960000Y2500000D03*
%TO.P,J5,5,Pin_5*%
%TO.N,/TR3*%
X48420000Y5040000D03*
%TO.P,J5,6,Pin_6*%
%TO.N,GND*%
X48420000Y2500000D03*
%TO.P,J5,7,Pin_7*%
%TO.N,/TR4*%
X45880000Y5040000D03*
%TO.P,J5,8,Pin_8*%
%TO.N,GND*%
X45880000Y2500000D03*
%TO.P,J5,9,Pin_9*%
%TO.N,/TR5*%
X43340000Y5040000D03*
%TO.P,J5,10,Pin_10*%
%TO.N,GND*%
X43340000Y2500000D03*
%TO.P,J5,11,Pin_11*%
%TO.N,/TR6*%
X40800000Y5040000D03*
%TO.P,J5,12,Pin_12*%
%TO.N,GND*%
X40800000Y2500000D03*
%TO.P,J5,13,Pin_13*%
%TO.N,/TR7*%
X38260000Y5040000D03*
%TO.P,J5,14,Pin_14*%
%TO.N,GND*%
X38260000Y2500000D03*
%TO.P,J5,15,Pin_15*%
%TO.N,/TR8*%
X35720000Y5040000D03*
%TO.P,J5,16,Pin_16*%
%TO.N,GND*%
X35720000Y2500000D03*
%TD*%
D21*
%TO.N,+3.3V*%
X28770000Y22910000D03*
%TO.N,GND*%
X52150000Y10500000D03*
X18200000Y17950000D03*
X20350000Y17950000D03*
X7750000Y17250000D03*
X8000000Y2750000D03*
X8000000Y1500000D03*
X7750000Y18750000D03*
X51150000Y10500000D03*
X5000000Y6500000D03*
X9750000Y21750000D03*
X55250000Y19950000D03*
X22250000Y19600000D03*
X25200000Y21850000D03*
X20500000Y4000000D03*
X7750000Y20250000D03*
X15950000Y17950000D03*
X41250000Y16950000D03*
X7750000Y21750000D03*
X3500000Y6500000D03*
X23850000Y21850000D03*
X44250000Y16950000D03*
X1000000Y2750000D03*
X55550000Y5550000D03*
X53250000Y19088000D03*
X11500000Y21750000D03*
X50300000Y11750000D03*
X32750000Y1300000D03*
X22600000Y21850000D03*
X31800000Y21450000D03*
X45950000Y21850000D03*
X43950000Y21450000D03*
X1000000Y4250000D03*
X52000000Y15350000D03*
X16000000Y17050000D03*
X54350000Y15300000D03*
X46500000Y14750000D03*
X40150000Y21450000D03*
X13750000Y21750000D03*
X20500000Y5250000D03*
X19300000Y17950000D03*
X33750000Y5500000D03*
X17000000Y17050000D03*
X17000000Y17950000D03*
X43050000Y14050000D03*
X41900000Y21450000D03*
X56000000Y1750000D03*
X51650000Y17950000D03*
X49650000Y17800000D03*
X33100000Y21450000D03*
X19300000Y17050000D03*
X48350000Y19250000D03*
X62000000Y1750000D03*
X56050000Y8300000D03*
X44500000Y12500000D03*
X7750000Y16000000D03*
X23050000Y20950000D03*
X48500000Y21700000D03*
X50000000Y20000000D03*
X1000000Y1500000D03*
X8000000Y4250000D03*
X32750000Y2500000D03*
X55450000Y18250000D03*
X46500000Y11000000D03*
X38250000Y17000000D03*
X31500000Y17000000D03*
X46850000Y20850000D03*
X18200000Y17050000D03*
X59000000Y1750000D03*
X1000000Y5750000D03*
X20500000Y2500000D03*
X32750000Y4000000D03*
X20350000Y17050000D03*
X53400000Y17850000D03*
X20500000Y1300000D03*
X52750000Y20250000D03*
X55150000Y21750000D03*
X53200000Y14300000D03*
X33000000Y17000000D03*
%TO.N,+5V*%
X42600000Y15700000D03*
X36250000Y7750000D03*
%TO.N,Net-(U2-COM1)*%
X17500000Y20500000D03*
X20000000Y20500000D03*
X13750000Y19000000D03*
X11850000Y12450000D03*
X12250000Y16750000D03*
%TO.N,/DIN*%
X25350000Y18000000D03*
%TO.N,/CLR*%
X32750000Y10000000D03*
X25350000Y20200000D03*
X36200000Y19400000D03*
%TO.N,/\u002ALE*%
X36000000Y12650000D03*
X23150000Y12500000D03*
X33250000Y9250000D03*
X40050000Y9000000D03*
%TO.N,/SET*%
X24600000Y19500000D03*
X35500000Y20100000D03*
X32000000Y10500000D03*
%TO.N,/CLK*%
X24700000Y18600000D03*
X32750000Y8500000D03*
X37850000Y18700000D03*
%TO.N,Net-(U2-COM0)*%
X22250000Y10000000D03*
X17450000Y10800000D03*
X11200000Y19700000D03*
X19950000Y10750000D03*
X13450000Y12150000D03*
X21650000Y20850000D03*
X12250000Y14750000D03*
%TO.N,/DOUT*%
X29750000Y7750000D03*
%TO.N,/TR6*%
X13900000Y11300000D03*
%TO.N,/TR3*%
X12750000Y19250000D03*
%TO.N,/TR4*%
X11500000Y17750000D03*
%TO.N,/TR2*%
X16500000Y20350000D03*
%TO.N,/TR8*%
X20950000Y10700000D03*
%TO.N,/TR5*%
X10950000Y13100000D03*
%TO.N,/TR1*%
X20800000Y20850000D03*
%TO.N,/TR7*%
X16550000Y11100000D03*
%TD*%
D22*
%TO.N,+3.3V*%
X24450000Y14500000D02*
X21454400Y14500000D01*
D23*
X28750000Y22890000D02*
X28770000Y22910000D01*
X26220000Y10500000D02*
X27275000Y10500000D01*
X28750000Y11000000D02*
X28750000Y22890000D01*
X27275000Y10500000D02*
X28250000Y10500000D01*
D22*
X27275000Y10675000D02*
X27275000Y10500000D01*
D23*
X24450000Y14500000D02*
X25000000Y14500000D01*
X25500000Y14000000D02*
X25500000Y11220000D01*
X28250000Y10500000D02*
X28750000Y11000000D01*
X25500000Y11220000D02*
X26220000Y10500000D01*
X25000000Y14500000D02*
X25500000Y14000000D01*
X60250000Y21725000D02*
X57710000Y21725000D01*
%TO.N,GND*%
X19000000Y3656250D02*
X19000000Y7143750D01*
X22243750Y4000000D02*
X18756250Y4000000D01*
D22*
X16750000Y19204400D02*
X16750000Y17000000D01*
X16250001Y19204400D02*
X16250001Y17499999D01*
D23*
X10637500Y2500000D02*
X7150000Y2500000D01*
X34493750Y750000D02*
X31006250Y750000D01*
X17500000Y3312500D02*
X17500000Y6800000D01*
D24*
X30000000Y3262500D02*
X30000000Y4400000D01*
D23*
X22243750Y750000D02*
X18756250Y750000D01*
D22*
X21454400Y14999999D02*
X18750001Y14999999D01*
X21454400Y15500000D02*
X18250000Y15500000D01*
X16250001Y12295600D02*
X16250001Y14000001D01*
D23*
X30212500Y21462500D02*
X30212500Y21250000D01*
X24050000Y3256250D02*
X24050000Y6743750D01*
D22*
X21454400Y18500000D02*
X21800000Y18500000D01*
X21850000Y13000000D02*
X22000000Y12850000D01*
D23*
X33850000Y2500000D02*
X30956250Y2500000D01*
X9743750Y750000D02*
X6256250Y750000D01*
D22*
X21454400Y13000000D02*
X20750000Y13000000D01*
X20750000Y13000000D02*
X18000000Y15750000D01*
X16750000Y12295600D02*
X16750000Y14500000D01*
D23*
X22243750Y2500000D02*
X18756250Y2500000D01*
D24*
X30000000Y4400000D02*
X27400000Y7000000D01*
D23*
X21900000Y3206250D02*
X21900000Y6693750D01*
D22*
X21800000Y18500000D02*
X22050000Y18750000D01*
X22000000Y12850000D02*
X22000000Y11950000D01*
X22050000Y18750000D02*
X22050000Y19550000D01*
D23*
X16000000Y3356250D02*
X16000000Y6843750D01*
X30212500Y18962500D02*
X30212500Y19000000D01*
X10800000Y7650000D02*
X10800000Y4162500D01*
D24*
X27400000Y7000000D02*
X27350000Y7000000D01*
D22*
X22000000Y11950000D02*
X22600000Y11350000D01*
D23*
X12500000Y7400000D02*
X12500000Y3912500D01*
D22*
X21454400Y13000000D02*
X21850000Y13000000D01*
X19925000Y17675000D02*
X19575000Y17325000D01*
X21454400Y18500000D02*
X20750000Y18500000D01*
X20750000Y18500000D02*
X19925000Y17675000D01*
%TO.N,Net-(U2-VCC)*%
X27229399Y15500000D02*
X27229400Y15499999D01*
D23*
X27287500Y13000000D02*
X27287500Y15441899D01*
D22*
X27287500Y15441899D02*
X27229400Y15499999D01*
X23750000Y16000000D02*
X21454400Y16000000D01*
D23*
X24000000Y15750000D02*
X24250000Y15500000D01*
X24250000Y15500000D02*
X27229399Y15500000D01*
D22*
X24000000Y15750000D02*
X23750000Y16000000D01*
D23*
%TO.N,+5V*%
X40500000Y15700000D02*
X40000000Y15200000D01*
X40000000Y12500000D02*
X40000000Y15200000D01*
X40000000Y15700000D02*
X40000000Y16200000D01*
X36000000Y21150000D02*
X35050000Y21150000D01*
X40000000Y15200000D02*
X40000000Y15700000D01*
X36250000Y7750000D02*
X36250000Y8750000D01*
X39500000Y20100000D02*
X37050000Y20100000D01*
X36250000Y8750000D02*
X40000000Y12500000D01*
X40000000Y16200000D02*
X40000000Y19600000D01*
X40000000Y19600000D02*
X39500000Y20100000D01*
X35050000Y21150000D02*
X34400000Y20500000D01*
X40850000Y15700000D02*
X40500000Y15700000D01*
X40850000Y15700000D02*
X40000000Y15700000D01*
X37050000Y20100000D02*
X36000000Y21150000D01*
X34400000Y20500000D02*
X34400000Y14550000D01*
X34400000Y14550000D02*
X32850000Y13000000D01*
X40500000Y15700000D02*
X40000000Y16200000D01*
X42600000Y15700000D02*
X40850000Y15700000D01*
X32850000Y13000000D02*
X30212500Y13000000D01*
D22*
%TO.N,Net-(U2-COM1)*%
X14250000Y10000000D02*
X14250000Y10250001D01*
X15420000Y10500001D02*
X15450000Y10500001D01*
X14250000Y10250001D02*
X14000000Y10500001D01*
X14250000Y1750000D02*
X14250000Y10000000D01*
X19000000Y9550000D02*
X20800000Y9550000D01*
X14250000Y10250001D02*
X14500000Y10500001D01*
X21650000Y10400000D02*
X21650000Y11100000D01*
X21650000Y11100000D02*
X20752001Y11997999D01*
X13750000Y19000000D02*
X14247999Y18502001D01*
X15420000Y10500001D02*
X15749999Y10500001D01*
X20752001Y11997999D02*
X20752001Y12295600D01*
X11850000Y11600000D02*
X12949999Y10500001D01*
X14247999Y18502001D02*
X14250000Y18502001D01*
X11850000Y12450000D02*
X11850000Y11600000D01*
X18750001Y9600001D02*
X18750001Y9750000D01*
X18500000Y9550000D02*
X18700000Y9550000D01*
X15749999Y10800000D02*
X15749999Y10500001D01*
X18750001Y9550000D02*
X19000000Y9550000D01*
X15749999Y9850001D02*
X16050000Y9550000D01*
X15749999Y10500001D02*
X15749999Y10150001D01*
X19749999Y20249999D02*
X20000000Y20500000D01*
X18750001Y9750000D02*
X18700000Y9750000D01*
X18700000Y9550000D02*
X18750001Y9600001D01*
X15749999Y12295600D02*
X15749999Y11249999D01*
X12499999Y16500001D02*
X12250000Y16750000D01*
X15749999Y10150001D02*
X15749999Y9850001D01*
X18750001Y9750000D02*
X18800000Y9750000D01*
X20800000Y9550000D02*
X21650000Y10400000D01*
X16050000Y9550000D02*
X18500000Y9550000D01*
X14545600Y16500001D02*
X12499999Y16500001D01*
X15749999Y11249999D02*
X15749999Y10800000D01*
X17750000Y20250000D02*
X17750000Y19204400D01*
X12949999Y10500001D02*
X14000000Y10500001D01*
X15450000Y10450000D02*
X15749999Y10150001D01*
X17500000Y20500000D02*
X17750000Y20250000D01*
X14250000Y10500001D02*
X14500000Y10500001D01*
X18800000Y9750000D02*
X19000000Y9550000D01*
X15450000Y10500001D02*
X15749999Y10800000D01*
X14000000Y10500001D02*
X14250000Y10500001D01*
X14250000Y18502001D02*
X14252001Y18500000D01*
X18750001Y9750000D02*
X18750001Y12295600D01*
X13400001Y14000001D02*
X14545600Y14000001D01*
X18700000Y9750000D02*
X18500000Y9550000D01*
X11850000Y12450000D02*
X13400001Y14000001D01*
X14250000Y10000000D02*
X14250000Y10500001D01*
X15450000Y10500001D02*
X15450000Y10450000D01*
X19749999Y19204400D02*
X19749999Y20249999D01*
X14252001Y18500000D02*
X14545600Y18500000D01*
X14500000Y10500001D02*
X15420000Y10500001D01*
%TO.N,/DIN*%
X23850001Y16500001D02*
X21454400Y16500001D01*
X25350000Y18000000D02*
X23850001Y16500001D01*
%TO.N,/CLR*%
X36200000Y13950000D02*
X36200000Y19400000D01*
X25350000Y20200000D02*
X26400000Y21250000D01*
X22100001Y18000001D02*
X21454400Y18000001D01*
X24300000Y20200000D02*
X22100001Y18000001D01*
X26400000Y21250000D02*
X27287500Y21250000D01*
X25350000Y20200000D02*
X24300000Y20200000D01*
X32750000Y10500000D02*
X36200000Y13950000D01*
X32750000Y10000000D02*
X32750000Y10500000D01*
%TO.N,/\u002ALE*%
X23150000Y12500000D02*
X23150000Y13100000D01*
X56000000Y10950000D02*
X56000000Y12210000D01*
X35650000Y12650000D02*
X36000000Y12650000D01*
X33525000Y10525000D02*
X35650000Y12650000D01*
X54050000Y9000000D02*
X56000000Y10950000D01*
X40050000Y9000000D02*
X54050000Y9000000D01*
X33250000Y9250000D02*
X33525000Y9525000D01*
X22750001Y13499999D02*
X21454400Y13499999D01*
X56000000Y12210000D02*
X57710000Y13920000D01*
X33525000Y9525000D02*
X33525000Y10525000D01*
X23150000Y13100000D02*
X22750001Y13499999D01*
%TO.N,/SET*%
X32000000Y10500000D02*
X32000000Y10525000D01*
X24600000Y19500000D02*
X25150000Y19500000D01*
X22599999Y17499999D02*
X21454400Y17499999D01*
X25150000Y19500000D02*
X25640000Y19010000D01*
X25640000Y19010000D02*
X27277500Y19010000D01*
X27277500Y19010000D02*
X27287500Y19000000D01*
X35500000Y14025000D02*
X35500000Y20100000D01*
X24600000Y19500000D02*
X22599999Y17499999D01*
X32000000Y10525000D02*
X35500000Y14025000D01*
%TO.N,/CLK*%
X36750000Y17600000D02*
X37850000Y18700000D01*
X24700000Y18600000D02*
X23100000Y17000000D01*
X32750000Y8500000D02*
X33975000Y8500000D01*
X33975000Y8500000D02*
X34250000Y8775000D01*
X36750000Y12250000D02*
X36750000Y17600000D01*
X23100000Y17000000D02*
X21454400Y17000000D01*
X34250000Y8775000D02*
X34250000Y9750000D01*
X34250000Y9750000D02*
X36750000Y12250000D01*
%TO.N,Net-(U2-COM0)*%
X11400000Y18700000D02*
X12050000Y18700000D01*
X11200000Y19700000D02*
X11200000Y18900000D01*
X15250000Y20500000D02*
X15752000Y19998000D01*
X12499999Y14999999D02*
X14545600Y14999999D01*
X13250001Y17499999D02*
X14545600Y17499999D01*
X17750000Y11100000D02*
X17750000Y12295600D01*
X19950000Y10750000D02*
X19749999Y10950001D01*
X21650000Y21250000D02*
X21150000Y21750000D01*
X22250000Y10000000D02*
X26750000Y5500000D01*
X12050000Y18700000D02*
X13250001Y17499999D01*
X21650000Y20850000D02*
X21650000Y20450000D01*
X26750000Y5500000D02*
X26750000Y1700000D01*
X15235800Y20485800D02*
X15250000Y20500000D01*
X11200000Y19700000D02*
X12150000Y19700000D01*
X21650000Y20450000D02*
X20750000Y19550000D01*
X11200000Y18900000D02*
X11400000Y18700000D01*
X12250000Y14750000D02*
X12499999Y14999999D01*
X19749999Y10950001D02*
X19749999Y12295600D01*
X12935800Y20485800D02*
X15235800Y20485800D01*
X12150000Y19700000D02*
X12935800Y20485800D01*
X13450000Y12450000D02*
X14000000Y13000000D01*
X18750001Y21000001D02*
X18750001Y19204400D01*
X20750000Y19206401D02*
X20752001Y19204400D01*
X19500000Y21750000D02*
X18750001Y21000001D01*
X21150000Y21750000D02*
X19500000Y21750000D01*
X17450000Y10800000D02*
X17750000Y11100000D01*
X15752000Y19998000D02*
X15752000Y19204400D01*
X20750000Y19550000D02*
X20750000Y19204400D01*
X21650000Y20850000D02*
X21650000Y21250000D01*
X13450000Y12150000D02*
X13450000Y12450000D01*
X14000000Y13000000D02*
X14545600Y13000000D01*
%TO.N,/DOUT*%
X24400000Y13100000D02*
X23499999Y14000001D01*
X29750000Y7750000D02*
X28725000Y8775000D01*
X26475000Y8775000D02*
X24400000Y10850000D01*
X28725000Y8775000D02*
X26475000Y8775000D01*
X24400000Y10850000D02*
X24400000Y13100000D01*
X23499999Y14000001D02*
X21454400Y14000001D01*
%TO.N,/TR6*%
X12650000Y12500000D02*
X13649999Y13499999D01*
X13900000Y11300000D02*
X12950000Y11300000D01*
X14900000Y11300000D02*
X15250000Y11650000D01*
X12950000Y11300000D02*
X12650000Y11600000D01*
X12650000Y11600000D02*
X12650000Y12500000D01*
X13900000Y11300000D02*
X14900000Y11300000D01*
X13649999Y13499999D02*
X14545600Y13499999D01*
X15250000Y11650000D02*
X15250000Y12295600D01*
%TO.N,/TR3*%
X12750000Y19250000D02*
X12750000Y18750000D01*
X12750000Y19250000D02*
X13300000Y19800000D01*
X13502000Y17998000D02*
X14545600Y17998000D01*
X12750000Y18750000D02*
X13502000Y17998000D01*
X14950000Y19800000D02*
X15250000Y19500000D01*
X15250000Y19500000D02*
X15250000Y19204400D01*
X13300000Y19800000D02*
X14950000Y19800000D01*
%TO.N,/TR4*%
X12000000Y16000000D02*
X14543601Y16000000D01*
X11500000Y16500000D02*
X12000000Y16000000D01*
X11500000Y17750000D02*
X11500000Y16500000D01*
X13000000Y17000000D02*
X14545600Y17000000D01*
X11500000Y17750000D02*
X12250000Y17750000D01*
X12250000Y17750000D02*
X13000000Y17000000D01*
X14543601Y16000000D02*
X14545600Y15998001D01*
%TO.N,/TR2*%
X16500000Y20350000D02*
X17400000Y21250000D01*
X17249999Y19750000D02*
X17249999Y19204400D01*
X17400000Y21250000D02*
X18000000Y21250000D01*
X16649999Y20350000D02*
X17249999Y19750000D01*
X18000000Y21250000D02*
X18250000Y21000000D01*
X18250000Y21000000D02*
X18250000Y19204400D01*
X16500000Y20350000D02*
X16649999Y20350000D01*
%TO.N,/TR8*%
X20300000Y10050000D02*
X19650000Y10050000D01*
X20950000Y10750000D02*
X20250000Y11450000D01*
X20950000Y10700000D02*
X20300000Y10050000D01*
X19250000Y10450000D02*
X19250000Y12295600D01*
X20250000Y11450000D02*
X20250000Y12293601D01*
X20250000Y12293601D02*
X20251999Y12295600D01*
X19650000Y10050000D02*
X19250000Y10450000D01*
X20950000Y10700000D02*
X20950000Y10750000D01*
%TO.N,/TR5*%
X11575000Y13100000D02*
X12975000Y14500000D01*
X12000000Y15500000D02*
X14543601Y15500000D01*
X12975000Y14500000D02*
X14545600Y14500000D01*
X10950000Y13100000D02*
X10950000Y14450000D01*
X10950000Y14450000D02*
X12000000Y15500000D01*
X10950000Y13100000D02*
X11575000Y13100000D01*
X14543601Y15500000D02*
X14545600Y15501999D01*
%TO.N,/TR1*%
X19750000Y21250000D02*
X19250000Y20750000D01*
X19250000Y20750000D02*
X19250000Y19204400D01*
X20800000Y20318750D02*
X20250001Y19768751D01*
X20250001Y19768751D02*
X20250001Y19204400D01*
X20800000Y20850000D02*
X20400000Y21250000D01*
X20400000Y21250000D02*
X19750000Y21250000D01*
X20250000Y19206400D02*
X20248000Y19204400D01*
X20800000Y20850000D02*
X20800000Y20318750D01*
%TO.N,/TR7*%
X16550000Y11100000D02*
X16550000Y10500000D01*
X16550000Y10500000D02*
X16950000Y10100000D01*
X16550000Y11100000D02*
X17250000Y11800000D01*
X17250000Y12295599D02*
X17249999Y12295600D01*
X17250000Y11800000D02*
X17250000Y12295599D01*
X16950000Y10100000D02*
X17800000Y10100000D01*
X18250000Y10550000D02*
X18250000Y12295600D01*
X17800000Y10100000D02*
X18250000Y10550000D01*
%TD*%
%TA.AperFunction,Conductor*%
%TO.N,Net-(U2-COM1)*%
G36*
X14372423Y2771573D02*
G01*
X14375817Y2764182D01*
X14379906Y2710064D01*
X14380889Y2706196D01*
X14411645Y2585126D01*
X14461511Y2495545D01*
X14523399Y2443269D01*
X14559284Y2429784D01*
X14586182Y2426624D01*
X14593999Y2422255D01*
X14596437Y2413639D01*
X14596031Y2411667D01*
X14261214Y1286680D01*
X14255569Y1279728D01*
X14246663Y1278803D01*
X14239711Y1284448D01*
X14238786Y1286680D01*
X13903733Y2412457D01*
X13904658Y2421363D01*
X13911610Y2427008D01*
X13912876Y2427309D01*
X13959757Y2435713D01*
X14001732Y2459246D01*
X14036564Y2493175D01*
X14074940Y2554257D01*
X14101349Y2623155D01*
X14119544Y2706191D01*
X14119851Y2710064D01*
X14124146Y2764225D01*
X14128216Y2772201D01*
X14135809Y2775000D01*
X14364150Y2775000D01*
X14372423Y2771573D01*
G37*
%TD.AperFunction*%
%TD*%
%TA.AperFunction,Conductor*%
%TO.N,Net-(U2-COM0)*%
G36*
X26872423Y2771573D02*
G01*
X26875817Y2764182D01*
X26879906Y2710064D01*
X26880889Y2706196D01*
X26911645Y2585126D01*
X26961511Y2495545D01*
X27023399Y2443269D01*
X27059284Y2429784D01*
X27086182Y2426624D01*
X27093999Y2422255D01*
X27096437Y2413639D01*
X27096031Y2411667D01*
X26761214Y1286680D01*
X26755569Y1279728D01*
X26746663Y1278803D01*
X26739711Y1284448D01*
X26738786Y1286680D01*
X26403733Y2412457D01*
X26404658Y2421363D01*
X26411610Y2427008D01*
X26412876Y2427309D01*
X26459757Y2435713D01*
X26501732Y2459246D01*
X26536564Y2493175D01*
X26574940Y2554257D01*
X26601349Y2623155D01*
X26619544Y2706191D01*
X26619851Y2710064D01*
X26624146Y2764225D01*
X26628216Y2772201D01*
X26635809Y2775000D01*
X26864150Y2775000D01*
X26872423Y2771573D01*
G37*
%TD.AperFunction*%
%TD*%
%TA.AperFunction,Conductor*%
%TO.N,GND*%
G36*
X26046288Y22980546D02*
G01*
X26127070Y22926570D01*
X26181046Y22845788D01*
X26200000Y22750500D01*
X26200000Y22001742D01*
X26197739Y21990379D01*
X26198946Y21978854D01*
X26188328Y21943067D01*
X26181046Y21906454D01*
X26174608Y21896819D01*
X26171313Y21885712D01*
X26147813Y21856718D01*
X26127070Y21825672D01*
X26113876Y21814845D01*
X26110140Y21810234D01*
X26100132Y21801918D01*
X26001267Y21735858D01*
X25914142Y21648733D01*
X25914139Y21648730D01*
X25906041Y21640633D01*
X25906030Y21640623D01*
X25318013Y21052606D01*
X25237232Y20998630D01*
X25190522Y20984461D01*
X25116507Y20969739D01*
X25116502Y20969737D01*
X24970826Y20909397D01*
X24970814Y20909391D01*
X24908067Y20867464D01*
X24818308Y20830284D01*
X24769731Y20825500D01*
X24238386Y20825500D01*
X24219073Y20821658D01*
X24117552Y20801464D01*
X24117549Y20801464D01*
X24117548Y20801463D01*
X24117546Y20801463D01*
X24117545Y20801462D01*
X24003717Y20754313D01*
X24003706Y20754307D01*
X23915986Y20695695D01*
X23915987Y20695694D01*
X23901269Y20685860D01*
X23901264Y20685856D01*
X22349234Y19133828D01*
X22312471Y19109265D01*
X22276604Y19083400D01*
X22272208Y19082362D01*
X22268453Y19079852D01*
X22225080Y19071225D01*
X22182053Y19061057D01*
X22177595Y19061780D01*
X22173165Y19060898D01*
X22086149Y19076597D01*
X22011984Y19104259D01*
X21929327Y19155318D01*
X21872502Y19234121D01*
X21850159Y19328672D01*
X21850000Y19337560D01*
X21850000Y19662271D01*
X21868954Y19757559D01*
X21922930Y19838340D01*
X22034535Y19949946D01*
X22048729Y19964140D01*
X22048733Y19964142D01*
X22135858Y20051267D01*
X22204311Y20153714D01*
X22251463Y20267548D01*
X22253621Y20278398D01*
X22290797Y20368159D01*
X22290803Y20368168D01*
X22302016Y20384949D01*
X22359394Y20470821D01*
X22419737Y20616503D01*
X22450500Y20771158D01*
X22450500Y20928842D01*
X22436618Y20998630D01*
X22419738Y21083493D01*
X22419737Y21083495D01*
X22419737Y21083497D01*
X22359394Y21229179D01*
X22290798Y21331840D01*
X22258469Y21401586D01*
X22255634Y21411480D01*
X22251463Y21432451D01*
X22250940Y21433713D01*
X22229341Y21485859D01*
X22204312Y21546285D01*
X22169395Y21598541D01*
X22135858Y21648733D01*
X22048733Y21735858D01*
X22048729Y21735861D01*
X21635860Y22148730D01*
X21635858Y22148733D01*
X21548733Y22235858D01*
X21530834Y22247818D01*
X21489172Y22275656D01*
X21489169Y22275658D01*
X21475937Y22284499D01*
X21446286Y22304312D01*
X21365792Y22337653D01*
X21357894Y22340925D01*
X21357887Y22340928D01*
X21343683Y22346811D01*
X21332452Y22351463D01*
X21332449Y22351464D01*
X21332446Y22351465D01*
X21272032Y22363482D01*
X21211612Y22375500D01*
X21211607Y22375500D01*
X21211606Y22375500D01*
X19561607Y22375500D01*
X19438393Y22375500D01*
X19438387Y22375500D01*
X19377973Y22363484D01*
X19377974Y22363483D01*
X19317550Y22351464D01*
X19317548Y22351464D01*
X19274266Y22333535D01*
X19203716Y22304313D01*
X19203713Y22304310D01*
X19101269Y22235860D01*
X19014139Y22148730D01*
X19014138Y22148730D01*
X18664639Y21799232D01*
X18583858Y21745256D01*
X18488570Y21726302D01*
X18393281Y21745256D01*
X18350257Y21768250D01*
X18347534Y21770069D01*
X18347535Y21770072D01*
X18347506Y21770087D01*
X18296288Y21804311D01*
X18281988Y21810234D01*
X18215792Y21837653D01*
X18182452Y21851463D01*
X18080922Y21871658D01*
X18073229Y21873189D01*
X18073215Y21873192D01*
X18061613Y21875500D01*
X18061607Y21875500D01*
X18061606Y21875500D01*
X17461607Y21875500D01*
X17338393Y21875500D01*
X17338386Y21875500D01*
X17319073Y21871658D01*
X17217552Y21851464D01*
X17217546Y21851463D01*
X17103718Y21804314D01*
X17103713Y21804311D01*
X17001269Y21735860D01*
X16914139Y21648730D01*
X16914138Y21648730D01*
X16468013Y21202606D01*
X16387232Y21148630D01*
X16340522Y21134461D01*
X16266507Y21119739D01*
X16266502Y21119737D01*
X16120826Y21059397D01*
X16120819Y21059394D01*
X15989710Y20971789D01*
X15984605Y20967599D01*
X15898921Y20921803D01*
X15802233Y20912283D01*
X15709263Y20940488D01*
X15658327Y20978265D01*
X15658189Y20978096D01*
X15654761Y20980909D01*
X15650579Y20984011D01*
X15648733Y20985857D01*
X15546286Y21054312D01*
X15534017Y21059394D01*
X15432452Y21101463D01*
X15382996Y21111300D01*
X15311607Y21125500D01*
X15188393Y21125500D01*
X15141055Y21116084D01*
X15092479Y21111300D01*
X12874191Y21111300D01*
X12824737Y21101463D01*
X12824736Y21101464D01*
X12753351Y21087264D01*
X12753346Y21087263D01*
X12726354Y21076082D01*
X12726353Y21076083D01*
X12639519Y21040116D01*
X12639514Y21040113D01*
X12611795Y21021590D01*
X12611791Y21021587D01*
X12537069Y20971660D01*
X12537067Y20971658D01*
X12449942Y20884533D01*
X12449939Y20884530D01*
X12449938Y20884531D01*
X11963843Y20398434D01*
X11963842Y20398433D01*
X11963837Y20398428D01*
X11917496Y20367464D01*
X11883060Y20344454D01*
X11787772Y20325500D01*
X11780269Y20325500D01*
X11684981Y20344454D01*
X11641933Y20367464D01*
X11579185Y20409391D01*
X11579173Y20409397D01*
X11433497Y20469737D01*
X11433492Y20469739D01*
X11278846Y20500500D01*
X11278842Y20500500D01*
X11121158Y20500500D01*
X11121153Y20500500D01*
X10966507Y20469739D01*
X10966502Y20469737D01*
X10820826Y20409397D01*
X10820819Y20409394D01*
X10689714Y20321792D01*
X10578208Y20210286D01*
X10490606Y20079181D01*
X10490603Y20079174D01*
X10430263Y19933498D01*
X10430261Y19933493D01*
X10399500Y19778847D01*
X10399500Y19621154D01*
X10430261Y19466508D01*
X10430263Y19466503D01*
X10490603Y19320827D01*
X10490608Y19320818D01*
X10532535Y19258070D01*
X10540248Y19239449D01*
X10552034Y19223093D01*
X10557566Y19197639D01*
X10569715Y19168310D01*
X10574344Y19128535D01*
X10574500Y19124125D01*
X10574500Y18961607D01*
X10574500Y18838393D01*
X10582876Y18796285D01*
X10586792Y18776593D01*
X10586793Y18776590D01*
X10598537Y18717548D01*
X10598538Y18717544D01*
X10606013Y18699500D01*
X10606014Y18699496D01*
X10638464Y18621154D01*
X10645688Y18603714D01*
X10658034Y18585238D01*
X10695214Y18495481D01*
X10700000Y18446898D01*
X10700000Y17831356D01*
X10699500Y17828842D01*
X10699500Y17671158D01*
X10700000Y17668645D01*
X10700000Y15187731D01*
X10681046Y15092443D01*
X10627070Y15011661D01*
X10464140Y14848731D01*
X10464137Y14848727D01*
X10439335Y14811610D01*
X10439336Y14811609D01*
X10431441Y14799793D01*
X10395688Y14746286D01*
X10366108Y14674872D01*
X10348537Y14632452D01*
X10345473Y14617049D01*
X10326461Y14521463D01*
X10324850Y14513369D01*
X10324847Y14513355D01*
X10324500Y14511607D01*
X10324500Y13680269D01*
X10305546Y13584981D01*
X10282537Y13541934D01*
X10240608Y13479182D01*
X10240602Y13479171D01*
X10180263Y13333498D01*
X10180261Y13333493D01*
X10149500Y13178847D01*
X10149500Y13021154D01*
X10180261Y12866508D01*
X10180263Y12866503D01*
X10240603Y12720827D01*
X10240606Y12720820D01*
X10328208Y12589715D01*
X10328211Y12589711D01*
X10439711Y12478211D01*
X10439714Y12478209D01*
X10570819Y12390607D01*
X10570820Y12390607D01*
X10570821Y12390606D01*
X10716503Y12330263D01*
X10716505Y12330263D01*
X10716507Y12330262D01*
X10867148Y12300298D01*
X10871158Y12299500D01*
X10879508Y12299500D01*
X10915711Y12292299D01*
X10952436Y12288581D01*
X10963015Y12282890D01*
X10974796Y12280546D01*
X11005488Y12260039D01*
X11037994Y12242550D01*
X11044179Y12234187D01*
X11055578Y12226570D01*
X11099424Y12167281D01*
X11105003Y12156775D01*
X11140606Y12070821D01*
X11189519Y11997617D01*
X11195416Y11986513D01*
X11205843Y11951798D01*
X11219715Y11918310D01*
X11221574Y11899428D01*
X11223366Y11893465D01*
X11222755Y11887439D01*
X11224500Y11869732D01*
X11224500Y11661607D01*
X11224500Y11538393D01*
X11227264Y11524499D01*
X11248537Y11417548D01*
X11254020Y11404312D01*
X11292160Y11312231D01*
X11295689Y11303712D01*
X11319854Y11267548D01*
X11319855Y11267546D01*
X11358914Y11209091D01*
X11364142Y11201267D01*
X11451267Y11114142D01*
X11451269Y11114141D01*
X12551266Y10014143D01*
X12653714Y9945689D01*
X12707199Y9923535D01*
X12767547Y9898538D01*
X12787596Y9894550D01*
X12888393Y9874500D01*
X13023894Y9874500D01*
X13023914Y9874501D01*
X13375500Y9874501D01*
X13470788Y9855547D01*
X13551570Y9801571D01*
X13605546Y9720789D01*
X13624500Y9625501D01*
X13624500Y5767930D01*
X13617800Y5734249D01*
X13615060Y5700019D01*
X13608400Y5686993D01*
X13605546Y5672642D01*
X13586466Y5644088D01*
X13570836Y5613512D01*
X13560228Y5604819D01*
X13551570Y5591860D01*
X13496874Y5550515D01*
X13492746Y5548211D01*
X13463567Y5533343D01*
X13455117Y5527204D01*
X13442145Y5519962D01*
X13409769Y5509491D01*
X13378866Y5495249D01*
X13363927Y5494665D01*
X13349705Y5490064D01*
X13315787Y5492780D01*
X13281785Y5491448D01*
X13267760Y5496625D01*
X13252860Y5497817D01*
X13222564Y5513305D01*
X13190640Y5525087D01*
X13179298Y5535423D01*
X13166353Y5542041D01*
X13146633Y5565194D01*
X13121437Y5588156D01*
X13107191Y5607186D01*
X13107187Y5607190D01*
X12992087Y5693354D01*
X12857378Y5743597D01*
X12857371Y5743599D01*
X12797832Y5750000D01*
X9102167Y5750000D01*
X9042628Y5743599D01*
X9042621Y5743597D01*
X8907912Y5693354D01*
X8792812Y5607190D01*
X8792807Y5607185D01*
X8706647Y5492090D01*
X8684185Y5431867D01*
X10950706Y3165346D01*
X11004682Y3084564D01*
X11023636Y2989276D01*
X11004682Y2893988D01*
X10950706Y2813206D01*
X10949294Y2811794D01*
X10868512Y2757818D01*
X10773224Y2738864D01*
X10677936Y2757818D01*
X10597154Y2811794D01*
X8650000Y4758948D01*
X8650000Y749500D01*
X8631046Y654212D01*
X8577070Y573430D01*
X8496288Y519454D01*
X8401000Y500500D01*
X1013982Y500500D01*
X986102Y502066D01*
X916727Y509883D01*
X862371Y522290D01*
X809755Y540701D01*
X759519Y564893D01*
X712325Y594547D01*
X668731Y629311D01*
X629310Y668732D01*
X594546Y712326D01*
X570874Y750000D01*
X564891Y759522D01*
X540701Y809752D01*
X522287Y862378D01*
X509884Y916718D01*
X502064Y986118D01*
X500500Y1013982D01*
X500500Y3970000D01*
X1432769Y3970000D01*
X2326988Y3970000D01*
X2294075Y3912993D01*
X2260000Y3785826D01*
X2260000Y3654174D01*
X2294075Y3527007D01*
X2326988Y3470000D01*
X1432770Y3470000D01*
X1443243Y3403871D01*
X1508902Y3201788D01*
X1508908Y3201775D01*
X1605376Y3012447D01*
X1730275Y2840538D01*
X1880537Y2690276D01*
X2052446Y2565377D01*
X2241774Y2468909D01*
X2241787Y2468903D01*
X2443870Y2403244D01*
X2510000Y2392770D01*
X2510000Y3286988D01*
X2567007Y3254075D01*
X2694174Y3220000D01*
X2825826Y3220000D01*
X2952993Y3254075D01*
X3010000Y3286988D01*
X3010000Y2392771D01*
X3076129Y2403244D01*
X3182526Y2437813D01*
X3259470Y2450000D01*
X4100537Y2450000D01*
X4190837Y2432039D01*
X4190983Y2432428D01*
X4193389Y2431531D01*
X4195825Y2431046D01*
X4199844Y2429123D01*
X4207667Y2426205D01*
X4207669Y2426204D01*
X4342517Y2375909D01*
X4402127Y2369500D01*
X6197872Y2369501D01*
X6257483Y2375909D01*
X6392331Y2426204D01*
X6507546Y2512454D01*
X6593796Y2627669D01*
X6644091Y2762517D01*
X6650500Y2822127D01*
X6650499Y4617872D01*
X6644091Y4677483D01*
X6593796Y4812331D01*
X6507546Y4927546D01*
X6392331Y5013796D01*
X6302682Y5047233D01*
X6257481Y5064092D01*
X6197873Y5070500D01*
X4402134Y5070500D01*
X4402130Y5070500D01*
X4402128Y5070499D01*
X4389314Y5069122D01*
X4342519Y5064092D01*
X4342518Y5064092D01*
X4342517Y5064091D01*
X4212769Y5015699D01*
X4125757Y5000000D01*
X3228693Y5000000D01*
X3151748Y5012187D01*
X3076124Y5036759D01*
X3076120Y5036760D01*
X3010000Y5047233D01*
X3010000Y4153012D01*
X2952993Y4185925D01*
X2825826Y4220000D01*
X2694174Y4220000D01*
X2567007Y4185925D01*
X2510000Y4153012D01*
X2510000Y5047232D01*
X2509999Y5047233D01*
X2443879Y5036760D01*
X2443875Y5036759D01*
X2241784Y4971096D01*
X2241774Y4971092D01*
X2052446Y4874624D01*
X1880537Y4749725D01*
X1730275Y4599463D01*
X1605376Y4427554D01*
X1508908Y4238226D01*
X1508902Y4238213D01*
X1443243Y4036130D01*
X1432769Y3970000D01*
X500500Y3970000D01*
X500500Y19001000D01*
X519454Y19096288D01*
X573430Y19177070D01*
X654212Y19231046D01*
X749500Y19250000D01*
X1283815Y19250000D01*
X1307956Y19245198D01*
X1332572Y19245180D01*
X1355139Y19235813D01*
X1379103Y19231046D01*
X1399570Y19217371D01*
X1417327Y19210000D01*
X2326988Y19210000D01*
X2294075Y19152993D01*
X2260000Y19025826D01*
X2260000Y18894174D01*
X2294075Y18767007D01*
X2326988Y18710000D01*
X1479625Y18710000D01*
X1467644Y18650000D01*
X1450000Y18650000D01*
X1450000Y18561638D01*
X1450000Y16795896D01*
X1444086Y16745937D01*
X1444284Y16745905D01*
X1443489Y16740886D01*
X1443120Y16737768D01*
X1442753Y16736241D01*
X1410584Y16533137D01*
X1410584Y16533134D01*
X1409500Y16526287D01*
X1409500Y16313713D01*
X1442754Y16103757D01*
X1447010Y16090658D01*
X1449161Y16064533D01*
X1450000Y16044104D01*
X1450000Y14255896D01*
X1444086Y14205937D01*
X1444284Y14205905D01*
X1443489Y14200886D01*
X1443120Y14197768D01*
X1442753Y14196241D01*
X1409500Y13986297D01*
X1409500Y13773716D01*
X1409501Y13773702D01*
X1442752Y13563766D01*
X1443119Y13562237D01*
X1443488Y13559117D01*
X1444284Y13554093D01*
X1444086Y13554062D01*
X1450000Y13504104D01*
X1450000Y11715896D01*
X1444086Y11665937D01*
X1444284Y11665905D01*
X1443489Y11660886D01*
X1443120Y11657768D01*
X1442753Y11656241D01*
X1409500Y11446297D01*
X1409500Y11233716D01*
X1409501Y11233702D01*
X1442752Y11023766D01*
X1443119Y11022237D01*
X1443488Y11019117D01*
X1444284Y11014093D01*
X1444086Y11014062D01*
X1450000Y10964104D01*
X1450000Y9175896D01*
X1444086Y9125937D01*
X1444284Y9125905D01*
X1443489Y9120886D01*
X1443120Y9117768D01*
X1442753Y9116241D01*
X1409500Y8906297D01*
X1409500Y8693704D01*
X1442753Y8483760D01*
X1505988Y8289142D01*
X1508443Y8281588D01*
X1604949Y8092184D01*
X1729896Y7920208D01*
X1880208Y7769896D01*
X2052184Y7644949D01*
X2241588Y7548443D01*
X2443757Y7482754D01*
X2517601Y7471059D01*
X2653703Y7449501D01*
X2653710Y7449501D01*
X2653713Y7449500D01*
X2653716Y7449500D01*
X2767031Y7449500D01*
X2866287Y7449500D01*
X2868935Y7449920D01*
X2888003Y7449998D01*
X2888290Y7449942D01*
X2889028Y7450000D01*
X5177577Y7450000D01*
X5190296Y7449500D01*
X5193713Y7449500D01*
X5406284Y7449500D01*
X5406287Y7449500D01*
X5406290Y7449501D01*
X5406296Y7449501D01*
X5505476Y7465211D01*
X5616243Y7482754D01*
X5818412Y7548443D01*
X6007816Y7644949D01*
X6179792Y7769896D01*
X6330104Y7920208D01*
X6455051Y8092184D01*
X6551557Y8281588D01*
X6617246Y8483757D01*
X6639106Y8621772D01*
X6650499Y8693704D01*
X6650500Y8693716D01*
X6650500Y8906285D01*
X6650499Y8906297D01*
X6618948Y9105495D01*
X6617246Y9116243D01*
X6612186Y9131817D01*
X6600000Y9208759D01*
X6600000Y10931242D01*
X6612188Y11008190D01*
X6615738Y11019117D01*
X6617246Y11023757D01*
X6646222Y11206701D01*
X6650499Y11233704D01*
X6650500Y11233716D01*
X6650500Y11446285D01*
X6650499Y11446297D01*
X6622273Y11624501D01*
X6617246Y11656243D01*
X6614096Y11665937D01*
X6612186Y11671817D01*
X6600000Y11748759D01*
X6600000Y13471242D01*
X6612188Y13548190D01*
X6615738Y13559117D01*
X6617246Y13563757D01*
X6637104Y13689132D01*
X6650499Y13773704D01*
X6650500Y13773716D01*
X6650500Y13986285D01*
X6650499Y13986297D01*
X6620631Y14174873D01*
X6617246Y14196243D01*
X6612186Y14211817D01*
X6600000Y14288759D01*
X6600000Y16011242D01*
X6612188Y16088190D01*
X6612423Y16088914D01*
X6617246Y16103757D01*
X6650500Y16313713D01*
X6650500Y16526287D01*
X6650499Y16526290D01*
X6650499Y16526297D01*
X6623066Y16699500D01*
X6617246Y16736243D01*
X6612186Y16751817D01*
X6600000Y16828759D01*
X6600000Y18552862D01*
X6612187Y18629807D01*
X6616757Y18643873D01*
X6627230Y18710000D01*
X5733012Y18710000D01*
X5765925Y18767007D01*
X5800000Y18894174D01*
X5800000Y19025826D01*
X5765925Y19152993D01*
X5733012Y19210000D01*
X6627230Y19210000D01*
X6616756Y19276130D01*
X6551097Y19478213D01*
X6551091Y19478226D01*
X6454623Y19667554D01*
X6323972Y19847380D01*
X6326267Y19849048D01*
X6287795Y19917692D01*
X6276343Y20014170D01*
X6302684Y20107686D01*
X6362806Y20184003D01*
X6378569Y20194868D01*
X6378073Y20195531D01*
X6392329Y20206204D01*
X6392331Y20206204D01*
X6507546Y20292454D01*
X6593796Y20407669D01*
X6644091Y20542517D01*
X6650500Y20602127D01*
X6650499Y22397872D01*
X6644091Y22457483D01*
X6593796Y22592331D01*
X6587097Y22601280D01*
X6545167Y22688921D01*
X6539967Y22785937D01*
X6572289Y22877558D01*
X6637212Y22949835D01*
X6724853Y22991765D01*
X6786432Y22999500D01*
X25951000Y22999500D01*
X26046288Y22980546D01*
G37*
%TD.AperFunction*%
%TA.AperFunction,Conductor*%
G36*
X22507558Y8831046D02*
G01*
X22588340Y8777070D01*
X24277070Y7088340D01*
X24331046Y7007558D01*
X24350000Y6912270D01*
X24350000Y5999000D01*
X24331046Y5903712D01*
X24277070Y5822930D01*
X24196288Y5768954D01*
X24101000Y5750000D01*
X21602167Y5750000D01*
X21542628Y5743599D01*
X21542621Y5743597D01*
X21407912Y5693354D01*
X21292812Y5607190D01*
X21292807Y5607185D01*
X21206647Y5492090D01*
X21184185Y5431867D01*
X23450706Y3165346D01*
X23504682Y3084564D01*
X23523636Y2989276D01*
X23504682Y2893988D01*
X23450706Y2813206D01*
X23449294Y2811794D01*
X23368512Y2757818D01*
X23273224Y2738864D01*
X23177936Y2757818D01*
X23097154Y2811794D01*
X21150000Y4758948D01*
X21150000Y749500D01*
X21131046Y654212D01*
X21077070Y573430D01*
X20996288Y519454D01*
X20901000Y500500D01*
X19999000Y500500D01*
X19903712Y519454D01*
X19822930Y573430D01*
X19768954Y654212D01*
X19750000Y749500D01*
X19750000Y4708948D01*
X19749999Y4708948D01*
X17852846Y2811794D01*
X17772064Y2757818D01*
X17676776Y2738864D01*
X17581488Y2757818D01*
X17500706Y2811794D01*
X17499293Y2813207D01*
X17445317Y2893989D01*
X17426363Y2989277D01*
X17445317Y3084565D01*
X17499293Y3165347D01*
X19729396Y5395451D01*
X19693352Y5492089D01*
X19607189Y5607188D01*
X19607187Y5607190D01*
X19492087Y5693354D01*
X19357378Y5743597D01*
X19357371Y5743599D01*
X19297832Y5750000D01*
X15702167Y5750000D01*
X15642628Y5743599D01*
X15642621Y5743597D01*
X15507912Y5693354D01*
X15392812Y5607190D01*
X15392806Y5607184D01*
X15378559Y5588152D01*
X15354560Y5566597D01*
X15333644Y5542040D01*
X15318735Y5534419D01*
X15306280Y5523231D01*
X15275862Y5512501D01*
X15247137Y5497816D01*
X15230445Y5496480D01*
X15214659Y5490911D01*
X15182449Y5492639D01*
X15150292Y5490064D01*
X15137536Y5495047D01*
X15117643Y5496113D01*
X15057852Y5519963D01*
X15044885Y5527202D01*
X15036433Y5533343D01*
X15007249Y5548213D01*
X15003124Y5550516D01*
X14969664Y5579017D01*
X14935159Y5606218D01*
X14932815Y5610404D01*
X14929163Y5613514D01*
X14909158Y5652646D01*
X14887687Y5690985D01*
X14886846Y5696289D01*
X14884939Y5700021D01*
X14883593Y5716831D01*
X14875500Y5767930D01*
X14875500Y8601000D01*
X14894454Y8696288D01*
X14948430Y8777070D01*
X15029212Y8831046D01*
X15124500Y8850000D01*
X22412270Y8850000D01*
X22507558Y8831046D01*
G37*
%TD.AperFunction*%
%TA.AperFunction,Conductor*%
G36*
X56292314Y22980546D02*
G01*
X56373096Y22926570D01*
X56427072Y22845788D01*
X56446026Y22750500D01*
X56427072Y22655212D01*
X56416483Y22633081D01*
X56365908Y22497482D01*
X56359500Y22437877D01*
X56359500Y20642135D01*
X56359501Y20642131D01*
X56365908Y20582520D01*
X56365909Y20582516D01*
X56407569Y20470821D01*
X56416204Y20447669D01*
X56502454Y20332454D01*
X56617669Y20246204D01*
X56617670Y20246204D01*
X56631927Y20235531D01*
X56629631Y20232465D01*
X56679305Y20190948D01*
X56724333Y20104858D01*
X56732989Y20008090D01*
X56703954Y19915375D01*
X56685122Y19888038D01*
X56686028Y19887380D01*
X56555376Y19707554D01*
X56458908Y19518226D01*
X56458902Y19518213D01*
X56393243Y19316130D01*
X56382769Y19250000D01*
X57276988Y19250000D01*
X57244075Y19192993D01*
X57210000Y19065826D01*
X57210000Y18934174D01*
X57244075Y18807007D01*
X57276988Y18750000D01*
X56382770Y18750000D01*
X56393243Y18683871D01*
X56458902Y18481788D01*
X56458908Y18481775D01*
X56555376Y18292447D01*
X56680275Y18120538D01*
X56830535Y17970278D01*
X56883556Y17931756D01*
X56949505Y17860413D01*
X56983132Y17769263D01*
X56979318Y17672183D01*
X56938644Y17583952D01*
X56883558Y17528866D01*
X56830209Y17490106D01*
X56679897Y17339794D01*
X56554950Y17167818D01*
X56458441Y16978408D01*
X56392753Y16776241D01*
X56359500Y16566297D01*
X56359500Y16353704D01*
X56392753Y16143760D01*
X56452996Y15958350D01*
X56458443Y15941588D01*
X56554949Y15752184D01*
X56679896Y15580208D01*
X56830208Y15429896D01*
X56849941Y15415560D01*
X56883131Y15391445D01*
X56949080Y15320101D01*
X56982707Y15228951D01*
X56978892Y15131871D01*
X56938217Y15043641D01*
X56883131Y14988555D01*
X56830207Y14950104D01*
X56679897Y14799794D01*
X56554950Y14627818D01*
X56458441Y14438408D01*
X56392753Y14236241D01*
X56359500Y14026297D01*
X56359500Y13813704D01*
X56388823Y13628574D01*
X56385009Y13531494D01*
X56344335Y13443263D01*
X56318959Y13413552D01*
X55607326Y12701919D01*
X55607312Y12701904D01*
X55601270Y12695861D01*
X55601267Y12695858D01*
X55514142Y12608733D01*
X55483420Y12562754D01*
X55474590Y12549541D01*
X55474586Y12549535D01*
X55445692Y12506293D01*
X55445689Y12506289D01*
X55445688Y12506286D01*
X55416547Y12435931D01*
X55398537Y12392452D01*
X55394092Y12370104D01*
X55391215Y12355644D01*
X55391215Y12355641D01*
X55386167Y12330262D01*
X55375275Y12275500D01*
X55374500Y12271606D01*
X55374500Y12271603D01*
X55374500Y11312231D01*
X55355546Y11216943D01*
X55301570Y11136161D01*
X53863840Y9698430D01*
X53783058Y9644454D01*
X53687770Y9625500D01*
X40630269Y9625500D01*
X40534981Y9644454D01*
X40491933Y9667464D01*
X40429185Y9709391D01*
X40429173Y9709397D01*
X40283497Y9769737D01*
X40283492Y9769739D01*
X40128846Y9800500D01*
X40128842Y9800500D01*
X39971158Y9800500D01*
X39971153Y9800500D01*
X39816507Y9769739D01*
X39816502Y9769737D01*
X39670826Y9709397D01*
X39670819Y9709394D01*
X39539714Y9621792D01*
X39428208Y9510286D01*
X39340606Y9379181D01*
X39340603Y9379174D01*
X39280263Y9233498D01*
X39280261Y9233493D01*
X39249500Y9078847D01*
X39249500Y8921154D01*
X39280261Y8766508D01*
X39280263Y8766503D01*
X39340603Y8620827D01*
X39340606Y8620820D01*
X39428208Y8489715D01*
X39428211Y8489711D01*
X39539711Y8378211D01*
X39539714Y8378209D01*
X39670819Y8290607D01*
X39670820Y8290607D01*
X39670821Y8290606D01*
X39816503Y8230263D01*
X39816505Y8230263D01*
X39816507Y8230262D01*
X39864629Y8220690D01*
X39971158Y8199500D01*
X40128842Y8199500D01*
X40283497Y8230263D01*
X40429179Y8290606D01*
X40429185Y8290610D01*
X40491933Y8332536D01*
X40581692Y8369716D01*
X40630269Y8374500D01*
X54111607Y8374500D01*
X54172029Y8386519D01*
X54232452Y8398537D01*
X54265792Y8412348D01*
X54279076Y8417851D01*
X54279079Y8417851D01*
X54319839Y8434735D01*
X54346286Y8445688D01*
X54412169Y8489711D01*
X54448733Y8514142D01*
X54535858Y8601267D01*
X54535858Y8601269D01*
X54556333Y8621743D01*
X54556361Y8621772D01*
X54611661Y8677071D01*
X54692443Y8731047D01*
X54787729Y8750000D01*
X56144254Y8750000D01*
X56239542Y8731046D01*
X56320324Y8677070D01*
X56374300Y8596288D01*
X56390188Y8539957D01*
X56392754Y8523757D01*
X56457963Y8323063D01*
X56458443Y8321588D01*
X56554949Y8132184D01*
X56679896Y7960208D01*
X56830208Y7809896D01*
X57002184Y7684949D01*
X57191588Y7588443D01*
X57393757Y7522754D01*
X57467601Y7511059D01*
X57603703Y7489501D01*
X57603710Y7489501D01*
X57603713Y7489500D01*
X57603716Y7489500D01*
X57816284Y7489500D01*
X57816287Y7489500D01*
X57863225Y7496935D01*
X57902176Y7500000D01*
X60057824Y7500000D01*
X60096774Y7496935D01*
X60143713Y7489500D01*
X60143716Y7489500D01*
X60356284Y7489500D01*
X60356287Y7489500D01*
X60356290Y7489501D01*
X60356296Y7489501D01*
X60455476Y7505211D01*
X60566243Y7522754D01*
X60768412Y7588443D01*
X60957816Y7684949D01*
X61129792Y7809896D01*
X61280104Y7960208D01*
X61405051Y8132184D01*
X61501557Y8321588D01*
X61567246Y8523757D01*
X61594165Y8693716D01*
X61600499Y8733704D01*
X61600500Y8733716D01*
X61600500Y8946289D01*
X61600499Y8946297D01*
X61576154Y9100002D01*
X61567246Y9156243D01*
X61501557Y9358412D01*
X61405051Y9547816D01*
X61280104Y9719792D01*
X61129792Y9870104D01*
X61076867Y9908556D01*
X61010920Y9979897D01*
X60977293Y10071047D01*
X60981107Y10168127D01*
X61021781Y10256358D01*
X61076867Y10311445D01*
X61129792Y10349896D01*
X61280104Y10500208D01*
X61405051Y10672184D01*
X61501557Y10861588D01*
X61567246Y11063757D01*
X61590313Y11209394D01*
X61600499Y11273704D01*
X61600500Y11273716D01*
X61600500Y11486285D01*
X61600499Y11486297D01*
X61573582Y11656241D01*
X61567246Y11696243D01*
X61501557Y11898412D01*
X61405051Y12087816D01*
X61280104Y12259792D01*
X61129792Y12410104D01*
X61076867Y12448556D01*
X61010920Y12519897D01*
X60977293Y12611047D01*
X60981107Y12708127D01*
X61021781Y12796358D01*
X61076867Y12851445D01*
X61129792Y12889896D01*
X61280104Y13040208D01*
X61405051Y13212184D01*
X61501557Y13401588D01*
X61567246Y13603757D01*
X61594165Y13773716D01*
X61600499Y13813704D01*
X61600500Y13813716D01*
X61600500Y14026285D01*
X61600499Y14026297D01*
X61573582Y14196241D01*
X61567246Y14236243D01*
X61501557Y14438412D01*
X61405051Y14627816D01*
X61280104Y14799792D01*
X61129792Y14950104D01*
X61076867Y14988556D01*
X61010920Y15059897D01*
X60977293Y15151047D01*
X60981107Y15248127D01*
X61021781Y15336358D01*
X61076867Y15391445D01*
X61129792Y15429896D01*
X61280104Y15580208D01*
X61405051Y15752184D01*
X61501557Y15941588D01*
X61567246Y16143757D01*
X61592421Y16302702D01*
X61600499Y16353704D01*
X61600500Y16353716D01*
X61600500Y16566285D01*
X61600499Y16566297D01*
X61573582Y16736241D01*
X61567246Y16776243D01*
X61501557Y16978412D01*
X61405051Y17167816D01*
X61280104Y17339792D01*
X61129792Y17490104D01*
X61076442Y17528865D01*
X61010493Y17600208D01*
X60976867Y17691358D01*
X60980681Y17788438D01*
X61021356Y17876669D01*
X61076445Y17931757D01*
X61129462Y17970276D01*
X61279724Y18120538D01*
X61404623Y18292447D01*
X61501091Y18481775D01*
X61501097Y18481788D01*
X61566756Y18683871D01*
X61577230Y18750000D01*
X60683012Y18750000D01*
X60715925Y18807007D01*
X60750000Y18934174D01*
X60750000Y19065826D01*
X60715925Y19192993D01*
X60683012Y19250000D01*
X62250500Y19250000D01*
X62345788Y19231046D01*
X62426570Y19177070D01*
X62480546Y19096288D01*
X62499500Y19001000D01*
X62499500Y1013982D01*
X62497934Y986104D01*
X62497934Y986101D01*
X62490117Y916728D01*
X62477710Y862370D01*
X62459300Y809757D01*
X62435107Y759520D01*
X62405453Y712326D01*
X62370689Y668732D01*
X62331268Y629311D01*
X62287674Y594547D01*
X62240480Y564893D01*
X62190243Y540700D01*
X62137630Y522290D01*
X62083272Y509883D01*
X62047446Y505847D01*
X62013897Y502066D01*
X61986018Y500500D01*
X54999000Y500500D01*
X54903712Y519454D01*
X54822930Y573430D01*
X54768954Y654212D01*
X54750000Y749500D01*
X54750000Y1938976D01*
X54762187Y2015920D01*
X54816756Y2183871D01*
X54827230Y2250000D01*
X53933012Y2250000D01*
X53965925Y2307007D01*
X54000000Y2434174D01*
X54000000Y2565826D01*
X53965925Y2692993D01*
X53933012Y2750000D01*
X54827230Y2750000D01*
X54816756Y2816130D01*
X54762187Y2984080D01*
X54750000Y3061024D01*
X54750000Y3806290D01*
X54768954Y3901578D01*
X54786055Y3931608D01*
X54785262Y3932041D01*
X54793789Y3947661D01*
X54793796Y3947669D01*
X54844091Y4082517D01*
X54850500Y4142127D01*
X54850499Y4657877D01*
X56359500Y4657877D01*
X56359500Y2862135D01*
X56359501Y2862131D01*
X56365908Y2802520D01*
X56365909Y2802516D01*
X56407772Y2690276D01*
X56416204Y2667669D01*
X56502454Y2552454D01*
X56617669Y2466204D01*
X56752517Y2415909D01*
X56812127Y2409500D01*
X58607872Y2409501D01*
X58667483Y2415909D01*
X58802331Y2466204D01*
X58917546Y2552454D01*
X59003796Y2667669D01*
X59003796Y2667671D01*
X59014469Y2681927D01*
X59017536Y2679631D01*
X59059022Y2729282D01*
X59145105Y2774324D01*
X59241872Y2782994D01*
X59334592Y2753974D01*
X59361956Y2735115D01*
X59362620Y2736028D01*
X59542446Y2605377D01*
X59731774Y2508909D01*
X59731787Y2508903D01*
X59933870Y2443244D01*
X60000000Y2432770D01*
X60000000Y3326988D01*
X60057007Y3294075D01*
X60184174Y3260000D01*
X60315826Y3260000D01*
X60442993Y3294075D01*
X60500000Y3326988D01*
X60500000Y2432771D01*
X60566129Y2443244D01*
X60768212Y2508903D01*
X60768225Y2508909D01*
X60957553Y2605377D01*
X61129462Y2730276D01*
X61279724Y2880538D01*
X61404623Y3052447D01*
X61501091Y3241775D01*
X61501097Y3241788D01*
X61566756Y3443871D01*
X61577230Y3510000D01*
X60683012Y3510000D01*
X60715925Y3567007D01*
X60750000Y3694174D01*
X60750000Y3825826D01*
X60715925Y3952993D01*
X60683012Y4010000D01*
X61577230Y4010000D01*
X61566756Y4076130D01*
X61501097Y4278213D01*
X61501091Y4278226D01*
X61404623Y4467554D01*
X61279724Y4639463D01*
X61129462Y4789725D01*
X60957553Y4914624D01*
X60768225Y5011092D01*
X60768215Y5011096D01*
X60566124Y5076759D01*
X60566120Y5076760D01*
X60500000Y5087233D01*
X60500000Y4193012D01*
X60442993Y4225925D01*
X60315826Y4260000D01*
X60184174Y4260000D01*
X60057007Y4225925D01*
X60000000Y4193012D01*
X60000000Y5087232D01*
X59999999Y5087233D01*
X59933879Y5076760D01*
X59933875Y5076759D01*
X59731784Y5011096D01*
X59731774Y5011092D01*
X59542446Y4914624D01*
X59362620Y4783972D01*
X59360962Y4786254D01*
X59292168Y4747750D01*
X59195683Y4736356D01*
X59102183Y4762752D01*
X59025901Y4822919D01*
X59015124Y4838564D01*
X59014469Y4838073D01*
X59003796Y4852330D01*
X59003796Y4852331D01*
X58917546Y4967546D01*
X58802331Y5053796D01*
X58712682Y5087233D01*
X58667481Y5104092D01*
X58607873Y5110500D01*
X56812134Y5110500D01*
X56812130Y5110500D01*
X56812128Y5110499D01*
X56799314Y5109122D01*
X56752519Y5104092D01*
X56752515Y5104091D01*
X56617670Y5053797D01*
X56502455Y4967547D01*
X56502453Y4967545D01*
X56416204Y4852331D01*
X56365908Y4717482D01*
X56359500Y4657877D01*
X54850499Y4657877D01*
X54850499Y5047232D01*
X54850499Y5937866D01*
X54850499Y5937872D01*
X54844091Y5997483D01*
X54793796Y6132331D01*
X54707546Y6247546D01*
X54592331Y6333796D01*
X54506795Y6365699D01*
X54457481Y6384092D01*
X54397873Y6390500D01*
X52602134Y6390500D01*
X52602130Y6390500D01*
X52602128Y6390499D01*
X52542526Y6384092D01*
X52542517Y6384091D01*
X52493205Y6365699D01*
X52406191Y6350000D01*
X51335895Y6350000D01*
X51285936Y6355914D01*
X51285905Y6355716D01*
X51280878Y6356513D01*
X51277762Y6356881D01*
X51276235Y6357248D01*
X51066296Y6390500D01*
X51066287Y6390500D01*
X50853713Y6390500D01*
X50853703Y6390500D01*
X50643764Y6357248D01*
X50642238Y6356881D01*
X50639121Y6356513D01*
X50634095Y6355716D01*
X50634063Y6355914D01*
X50584105Y6350000D01*
X48795895Y6350000D01*
X48745936Y6355914D01*
X48745905Y6355716D01*
X48740878Y6356513D01*
X48737762Y6356881D01*
X48736235Y6357248D01*
X48526296Y6390500D01*
X48526287Y6390500D01*
X48313713Y6390500D01*
X48313703Y6390500D01*
X48103764Y6357248D01*
X48102238Y6356881D01*
X48099121Y6356513D01*
X48094095Y6355716D01*
X48094063Y6355914D01*
X48044105Y6350000D01*
X46255895Y6350000D01*
X46205936Y6355914D01*
X46205905Y6355716D01*
X46200878Y6356513D01*
X46197762Y6356881D01*
X46196235Y6357248D01*
X45986296Y6390500D01*
X45986287Y6390500D01*
X45773713Y6390500D01*
X45773703Y6390500D01*
X45563764Y6357248D01*
X45562238Y6356881D01*
X45559121Y6356513D01*
X45554095Y6355716D01*
X45554063Y6355914D01*
X45504105Y6350000D01*
X43715895Y6350000D01*
X43665936Y6355914D01*
X43665905Y6355716D01*
X43660878Y6356513D01*
X43657762Y6356881D01*
X43656235Y6357248D01*
X43446296Y6390500D01*
X43446287Y6390500D01*
X43233713Y6390500D01*
X43233703Y6390500D01*
X43023764Y6357248D01*
X43022238Y6356881D01*
X43019121Y6356513D01*
X43014095Y6355716D01*
X43014063Y6355914D01*
X42964105Y6350000D01*
X41175895Y6350000D01*
X41125936Y6355914D01*
X41125905Y6355716D01*
X41120878Y6356513D01*
X41117762Y6356881D01*
X41116235Y6357248D01*
X40906296Y6390500D01*
X40906287Y6390500D01*
X40693713Y6390500D01*
X40693703Y6390500D01*
X40483764Y6357248D01*
X40482238Y6356881D01*
X40479121Y6356513D01*
X40474095Y6355716D01*
X40474063Y6355914D01*
X40424105Y6350000D01*
X38635895Y6350000D01*
X38585936Y6355914D01*
X38585905Y6355716D01*
X38580878Y6356513D01*
X38577762Y6356881D01*
X38576235Y6357248D01*
X38366296Y6390500D01*
X38366287Y6390500D01*
X38153713Y6390500D01*
X38153703Y6390500D01*
X37943764Y6357248D01*
X37942238Y6356881D01*
X37939121Y6356513D01*
X37934095Y6355716D01*
X37934063Y6355914D01*
X37884105Y6350000D01*
X36095895Y6350000D01*
X36045936Y6355914D01*
X36045905Y6355716D01*
X36040878Y6356513D01*
X36037762Y6356881D01*
X36036235Y6357248D01*
X35826296Y6390500D01*
X35826287Y6390500D01*
X35613713Y6390500D01*
X35613703Y6390500D01*
X35403759Y6357247D01*
X35201592Y6291559D01*
X35012182Y6195050D01*
X34840206Y6070103D01*
X34689897Y5919794D01*
X34564950Y5747818D01*
X34468441Y5558408D01*
X34402753Y5356241D01*
X34369500Y5146297D01*
X34369500Y4933704D01*
X34402753Y4723760D01*
X34402754Y4723757D01*
X34468443Y4521588D01*
X34564949Y4332184D01*
X34689896Y4160208D01*
X34840208Y4009896D01*
X34893556Y3971137D01*
X34959505Y3899794D01*
X34993132Y3808644D01*
X34989318Y3711564D01*
X34948644Y3623333D01*
X34893558Y3568247D01*
X34840538Y3529726D01*
X34690275Y3379463D01*
X34565376Y3207554D01*
X34468908Y3018226D01*
X34468902Y3018213D01*
X34403243Y2816130D01*
X34392769Y2750000D01*
X35286988Y2750000D01*
X35254075Y2692993D01*
X35220000Y2565826D01*
X35220000Y2434174D01*
X35254075Y2307007D01*
X35286988Y2250000D01*
X34392770Y2250000D01*
X34403243Y2183871D01*
X34468902Y1981788D01*
X34468908Y1981775D01*
X34565376Y1792447D01*
X34690278Y1620534D01*
X34690337Y1620465D01*
X34690366Y1620413D01*
X34696028Y1612620D01*
X34695105Y1611951D01*
X34737811Y1535699D01*
X34750000Y1458748D01*
X34750000Y749500D01*
X34731046Y654212D01*
X34677070Y573430D01*
X34596288Y519454D01*
X34501000Y500500D01*
X32499000Y500500D01*
X32403712Y519454D01*
X32322930Y573430D01*
X32268954Y654212D01*
X32250000Y749500D01*
X32250000Y4708948D01*
X32249999Y4708948D01*
X30352846Y2811794D01*
X30272064Y2757818D01*
X30176776Y2738864D01*
X30081488Y2757818D01*
X30000706Y2811794D01*
X29999293Y2813207D01*
X29945317Y2893989D01*
X29926363Y2989277D01*
X29945317Y3084565D01*
X29999293Y3165347D01*
X32166086Y5332140D01*
X32229396Y5395451D01*
X32193352Y5492089D01*
X32107189Y5607188D01*
X32107187Y5607190D01*
X31992087Y5693354D01*
X31857378Y5743597D01*
X31857371Y5743599D01*
X31797832Y5750000D01*
X28202167Y5750000D01*
X28142628Y5743599D01*
X28142621Y5743597D01*
X28007912Y5693354D01*
X27892812Y5607190D01*
X27892806Y5607184D01*
X27878559Y5588152D01*
X27856185Y5568057D01*
X27837095Y5544818D01*
X27820376Y5535893D01*
X27806280Y5523231D01*
X27777923Y5513229D01*
X27751389Y5499062D01*
X27732526Y5497214D01*
X27714659Y5490911D01*
X27684631Y5492522D01*
X27654697Y5489588D01*
X27640809Y5494871D01*
X27617643Y5496113D01*
X27561740Y5517838D01*
X27546683Y5525896D01*
X27536433Y5533343D01*
X27459899Y5572340D01*
X27457670Y5573532D01*
X27422043Y5602800D01*
X27385817Y5631359D01*
X27384334Y5633779D01*
X27382599Y5635204D01*
X27376771Y5646121D01*
X27345114Y5697779D01*
X27337652Y5715793D01*
X27337648Y5715802D01*
X27330007Y5734249D01*
X27315633Y5768954D01*
X27304313Y5796285D01*
X27270084Y5847510D01*
X27270082Y5847513D01*
X27235860Y5898730D01*
X27235858Y5898733D01*
X27148733Y5985858D01*
X27148729Y5985861D01*
X23102605Y10031985D01*
X23076251Y10071428D01*
X23049569Y10110529D01*
X23049092Y10112074D01*
X23048629Y10112767D01*
X23048177Y10115037D01*
X23034461Y10159472D01*
X23019737Y10233497D01*
X22959394Y10379179D01*
X22931344Y10421158D01*
X22871791Y10510286D01*
X22871789Y10510289D01*
X22760289Y10621789D01*
X22744732Y10632184D01*
X22629180Y10709394D01*
X22629173Y10709397D01*
X22483497Y10769737D01*
X22483487Y10769740D01*
X22475912Y10771247D01*
X22457390Y10778920D01*
X22437594Y10782118D01*
X22412928Y10797339D01*
X22386154Y10808430D01*
X22371976Y10822609D01*
X22354913Y10833138D01*
X22337950Y10856638D01*
X22317458Y10877132D01*
X22309785Y10895658D01*
X22298051Y10911914D01*
X22292504Y10937383D01*
X22280282Y10966893D01*
X22275663Y11006455D01*
X22275500Y11010959D01*
X22275500Y11161606D01*
X22272736Y11175500D01*
X22252654Y11276465D01*
X22251463Y11282452D01*
X22204311Y11396286D01*
X22135858Y11498733D01*
X22048733Y11585858D01*
X22048732Y11585859D01*
X21686661Y11947930D01*
X21632685Y12028712D01*
X21613731Y12124000D01*
X21632685Y12219288D01*
X21686661Y12300070D01*
X21767443Y12354046D01*
X21814390Y12368262D01*
X22098170Y12424424D01*
X22126967Y12424397D01*
X22155397Y12429003D01*
X22175090Y12424350D01*
X22195325Y12424330D01*
X22221920Y12413284D01*
X22249948Y12406661D01*
X22266361Y12394826D01*
X22285048Y12387064D01*
X22305392Y12366681D01*
X22328752Y12349836D01*
X22340590Y12331415D01*
X22353681Y12318299D01*
X22362067Y12297997D01*
X22376557Y12275450D01*
X22440605Y12120823D01*
X22440606Y12120820D01*
X22528208Y11989715D01*
X22528211Y11989711D01*
X22639711Y11878211D01*
X22639714Y11878209D01*
X22770819Y11790607D01*
X22770820Y11790607D01*
X22770821Y11790606D01*
X22916503Y11730263D01*
X22916505Y11730263D01*
X22916507Y11730262D01*
X23067148Y11700298D01*
X23071158Y11699500D01*
X23228842Y11699500D01*
X23383497Y11730263D01*
X23430214Y11749614D01*
X23525498Y11768568D01*
X23620786Y11749615D01*
X23701568Y11695639D01*
X23755545Y11614858D01*
X23774500Y11519570D01*
X23774500Y10788394D01*
X23784801Y10736605D01*
X23784800Y10736605D01*
X23798535Y10667555D01*
X23798538Y10667544D01*
X23806264Y10648893D01*
X23808082Y10644505D01*
X23845688Y10553714D01*
X23873824Y10511607D01*
X23873826Y10511604D01*
X23910884Y10456142D01*
X23914142Y10451267D01*
X24001267Y10364142D01*
X24001270Y10364140D01*
X25989139Y8376271D01*
X25989142Y8376267D01*
X26032873Y8332536D01*
X26076267Y8289142D01*
X26076268Y8289141D01*
X26110152Y8266500D01*
X26178710Y8220690D01*
X26178714Y8220688D01*
X26248280Y8191873D01*
X26248281Y8191873D01*
X26292548Y8173537D01*
X26337132Y8164669D01*
X26413393Y8149500D01*
X26413394Y8149500D01*
X28362770Y8149500D01*
X28458058Y8130546D01*
X28538840Y8076570D01*
X28897393Y7718017D01*
X28951369Y7637235D01*
X28965538Y7590527D01*
X28980262Y7516505D01*
X28980263Y7516503D01*
X29040603Y7370827D01*
X29040606Y7370820D01*
X29128208Y7239715D01*
X29128211Y7239711D01*
X29239711Y7128211D01*
X29239714Y7128209D01*
X29370819Y7040607D01*
X29370820Y7040607D01*
X29370821Y7040606D01*
X29516503Y6980263D01*
X29516505Y6980263D01*
X29516507Y6980262D01*
X29667148Y6950298D01*
X29671158Y6949500D01*
X29828842Y6949500D01*
X29983497Y6980263D01*
X30129179Y7040606D01*
X30260289Y7128211D01*
X30371789Y7239711D01*
X30459394Y7370821D01*
X30519737Y7516503D01*
X30550500Y7671158D01*
X30550500Y7828842D01*
X30520451Y7979910D01*
X30519738Y7983493D01*
X30519737Y7983496D01*
X30519737Y7983497D01*
X30459394Y8129179D01*
X30445815Y8149501D01*
X30371791Y8260286D01*
X30371789Y8260289D01*
X30260289Y8371789D01*
X30253589Y8376266D01*
X30129180Y8459394D01*
X30129173Y8459397D01*
X29983497Y8519737D01*
X29983495Y8519738D01*
X29909473Y8534462D01*
X29886816Y8543847D01*
X29862765Y8548631D01*
X29842373Y8562256D01*
X29819714Y8571642D01*
X29781983Y8602607D01*
X29709659Y8674931D01*
X29655683Y8755713D01*
X29636729Y8851001D01*
X29655683Y8946289D01*
X29709659Y9027071D01*
X29790441Y9081047D01*
X29840855Y9091075D01*
X29885728Y9100001D01*
X29975000Y9100002D01*
X29975000Y10251000D01*
X29993954Y10346288D01*
X30047930Y10427070D01*
X30128712Y10481046D01*
X30224000Y10500000D01*
X30226000Y10500000D01*
X30321288Y10481046D01*
X30402070Y10427070D01*
X30456046Y10346288D01*
X30475000Y10251000D01*
X30475000Y9100002D01*
X30475001Y9100001D01*
X30599968Y9100001D01*
X30599984Y9100002D01*
X30702696Y9110495D01*
X30702697Y9110495D01*
X30783775Y9137361D01*
X30862097Y9150000D01*
X30996860Y9150000D01*
X31092148Y9131046D01*
X31172930Y9077070D01*
X31327070Y8922930D01*
X31381046Y8842148D01*
X31400000Y8746860D01*
X31400000Y8550000D01*
X31600000Y8500000D01*
X31599999Y8500001D01*
X31617306Y8495674D01*
X31633834Y8506275D01*
X31729461Y8523441D01*
X31824377Y8502706D01*
X31904133Y8447226D01*
X31956587Y8365448D01*
X31969012Y8323063D01*
X31980261Y8266508D01*
X31980263Y8266503D01*
X32040603Y8120827D01*
X32040606Y8120820D01*
X32111887Y8014141D01*
X32128211Y7989711D01*
X32239711Y7878211D01*
X32239714Y7878209D01*
X32370819Y7790607D01*
X32370820Y7790607D01*
X32370821Y7790606D01*
X32516503Y7730263D01*
X32516505Y7730263D01*
X32516507Y7730262D01*
X32578067Y7718017D01*
X32671158Y7699500D01*
X32828842Y7699500D01*
X32983497Y7730263D01*
X33129179Y7790606D01*
X33129185Y7790610D01*
X33191933Y7832536D01*
X33281692Y7869716D01*
X33330269Y7874500D01*
X34036607Y7874500D01*
X34097029Y7886519D01*
X34157452Y7898537D01*
X34193257Y7913368D01*
X34271286Y7945688D01*
X34322509Y7979916D01*
X34373733Y8014142D01*
X34460858Y8101267D01*
X34460858Y8101269D01*
X34481358Y8121768D01*
X34481362Y8121773D01*
X34524259Y8164670D01*
X34735858Y8376267D01*
X34804312Y8478715D01*
X34833507Y8549197D01*
X34838647Y8561606D01*
X34838648Y8561609D01*
X34851461Y8592542D01*
X34851461Y8592544D01*
X34851463Y8592548D01*
X34875500Y8713394D01*
X34875500Y9387771D01*
X34894454Y9483059D01*
X34948428Y9563839D01*
X37148729Y11764140D01*
X37148733Y11764142D01*
X37235858Y11851267D01*
X37292737Y11936392D01*
X37304312Y11953715D01*
X37338118Y12035331D01*
X37351463Y12067548D01*
X37375500Y12188394D01*
X37375500Y17237772D01*
X37394454Y17333060D01*
X37448428Y17413839D01*
X37881984Y17847396D01*
X37962763Y17901370D01*
X38009469Y17915539D01*
X38083497Y17930263D01*
X38229179Y17990606D01*
X38360289Y18078211D01*
X38471789Y18189711D01*
X38559394Y18320821D01*
X38619737Y18466503D01*
X38650500Y18621158D01*
X38650500Y18778842D01*
X38644898Y18807007D01*
X38619738Y18933493D01*
X38619737Y18933494D01*
X38619737Y18933497D01*
X38590030Y19005215D01*
X38571078Y19100502D01*
X38590033Y19195790D01*
X38644010Y19276571D01*
X38724792Y19330547D01*
X38820078Y19349500D01*
X39000500Y19349500D01*
X39095788Y19330546D01*
X39176570Y19276570D01*
X39230546Y19195788D01*
X39249500Y19100500D01*
X39249500Y12914008D01*
X39230546Y12818720D01*
X39176570Y12737938D01*
X35667048Y9228416D01*
X35624800Y9165186D01*
X35584919Y9105500D01*
X35584913Y9105490D01*
X35528341Y8968912D01*
X35499500Y8823921D01*
X35499500Y8079470D01*
X35491132Y8037405D01*
X35484738Y7995010D01*
X35482759Y7991727D01*
X35480690Y7984908D01*
X35480547Y7984185D01*
X35480265Y7983505D01*
X35480262Y7983496D01*
X35449500Y7828847D01*
X35449500Y7671154D01*
X35480261Y7516508D01*
X35480263Y7516503D01*
X35540603Y7370827D01*
X35540606Y7370820D01*
X35628208Y7239715D01*
X35628211Y7239711D01*
X35739711Y7128211D01*
X35739714Y7128209D01*
X35870819Y7040607D01*
X35870820Y7040607D01*
X35870821Y7040606D01*
X36016503Y6980263D01*
X36016505Y6980263D01*
X36016507Y6980262D01*
X36167148Y6950298D01*
X36171158Y6949500D01*
X36328842Y6949500D01*
X36483497Y6980263D01*
X36629179Y7040606D01*
X36760289Y7128211D01*
X36871789Y7239711D01*
X36959394Y7370821D01*
X37019737Y7516503D01*
X37050500Y7671158D01*
X37050500Y7828842D01*
X37019737Y7983497D01*
X37019734Y7983505D01*
X37019453Y7984185D01*
X37019309Y7984908D01*
X37016185Y7995208D01*
X37017199Y7995516D01*
X37000500Y8079470D01*
X37000500Y8335993D01*
X37019454Y8431281D01*
X37073427Y8512060D01*
X40582952Y12021584D01*
X40640220Y12107293D01*
X40644131Y12113146D01*
X40644132Y12113148D01*
X40647010Y12117455D01*
X40665084Y12144505D01*
X40721658Y12281087D01*
X40750500Y12426082D01*
X40750500Y14700500D01*
X40769454Y14795788D01*
X40823430Y14876570D01*
X40904212Y14930546D01*
X40999500Y14949500D01*
X42270530Y14949500D01*
X42354484Y14932801D01*
X42354792Y14933815D01*
X42365092Y14930691D01*
X42365815Y14930547D01*
X42366495Y14930266D01*
X42366498Y14930265D01*
X42366503Y14930263D01*
X42521158Y14899500D01*
X42678842Y14899500D01*
X42833497Y14930263D01*
X42979179Y14990606D01*
X43110289Y15078211D01*
X43221789Y15189711D01*
X43309394Y15320821D01*
X43369737Y15466503D01*
X43400500Y15621158D01*
X43400500Y15778842D01*
X43369737Y15933497D01*
X43309394Y16079179D01*
X43294635Y16101267D01*
X43221791Y16210286D01*
X43221789Y16210289D01*
X43110289Y16321789D01*
X43110285Y16321792D01*
X42979180Y16409394D01*
X42979173Y16409397D01*
X42833497Y16469737D01*
X42833492Y16469739D01*
X42678846Y16500500D01*
X42678842Y16500500D01*
X42521158Y16500500D01*
X42521153Y16500500D01*
X42366504Y16469738D01*
X42366495Y16469735D01*
X42365815Y16469453D01*
X42365092Y16469310D01*
X42354792Y16466185D01*
X42354484Y16467200D01*
X42270530Y16450500D01*
X40999500Y16450500D01*
X40904212Y16469454D01*
X40823430Y16523430D01*
X40769454Y16604212D01*
X40750500Y16699500D01*
X40750500Y19673919D01*
X40750499Y19673921D01*
X40750287Y19674985D01*
X40721658Y19818913D01*
X40665084Y19955495D01*
X40622159Y20019737D01*
X40615483Y20029728D01*
X40582953Y20078414D01*
X40582952Y20078416D01*
X39978416Y20682952D01*
X39974068Y20685857D01*
X39952259Y20700429D01*
X39899235Y20735858D01*
X39855495Y20765084D01*
X39718913Y20821658D01*
X39718911Y20821659D01*
X39573920Y20850500D01*
X39573918Y20850500D01*
X37464006Y20850500D01*
X37368718Y20869454D01*
X37287939Y20923428D01*
X36478416Y21732952D01*
X36478415Y21732953D01*
X36478411Y21732957D01*
X36404732Y21782185D01*
X36404729Y21782188D01*
X36404729Y21782187D01*
X36355495Y21815084D01*
X36218913Y21871658D01*
X36218911Y21871659D01*
X36073920Y21900500D01*
X36073918Y21900500D01*
X34976082Y21900500D01*
X34976079Y21900500D01*
X34831088Y21871659D01*
X34831089Y21871659D01*
X34694507Y21815085D01*
X34694502Y21815083D01*
X34645271Y21782189D01*
X34645270Y21782187D01*
X34627134Y21770069D01*
X34571579Y21732949D01*
X34571578Y21732948D01*
X33817049Y20978418D01*
X33817048Y20978417D01*
X33778157Y20920211D01*
X33734918Y20855500D01*
X33734915Y20855493D01*
X33678341Y20718912D01*
X33649500Y20573921D01*
X33649500Y15399000D01*
X33630546Y15303712D01*
X33576570Y15222930D01*
X33495788Y15168954D01*
X33400500Y15150000D01*
X31457538Y15150000D01*
X31362250Y15168954D01*
X31281468Y15222930D01*
X31254399Y15249999D01*
X30428400Y15249999D01*
X30333112Y15268953D01*
X30252330Y15322929D01*
X30198354Y15403711D01*
X30179400Y15498999D01*
X30179400Y15499999D01*
X30178400Y15499999D01*
X30083112Y15518953D01*
X30002330Y15572929D01*
X29948354Y15653711D01*
X29929400Y15748999D01*
X29929400Y16899998D01*
X30429400Y16899998D01*
X30429400Y15749999D01*
X31254398Y15749999D01*
X31254399Y15750000D01*
X31254399Y16199967D01*
X31254398Y16199984D01*
X31243905Y16302699D01*
X31243904Y16302702D01*
X31188759Y16469119D01*
X31188758Y16469121D01*
X31096718Y16618341D01*
X31096715Y16618345D01*
X30972745Y16742315D01*
X30972741Y16742318D01*
X30823521Y16834358D01*
X30823520Y16834359D01*
X30657101Y16889504D01*
X30657094Y16889505D01*
X30554381Y16899999D01*
X30429401Y16899999D01*
X30429400Y16899998D01*
X29929400Y16899998D01*
X29929400Y16921617D01*
X29918954Y16937250D01*
X29900000Y17032538D01*
X29900000Y17459362D01*
X29918954Y17554650D01*
X29962500Y17619823D01*
X29962500Y18749999D01*
X30462500Y18749999D01*
X30462500Y17625002D01*
X30462501Y17625001D01*
X30574968Y17625001D01*
X30574984Y17625002D01*
X30677699Y17635495D01*
X30677702Y17635496D01*
X30844119Y17690641D01*
X30844121Y17690642D01*
X30993341Y17782682D01*
X30993345Y17782685D01*
X31117315Y17906655D01*
X31117318Y17906659D01*
X31209358Y18055879D01*
X31209359Y18055880D01*
X31264504Y18222299D01*
X31264505Y18222306D01*
X31274999Y18325019D01*
X31275000Y18325029D01*
X31275000Y18749999D01*
X31274999Y18750000D01*
X30462501Y18750000D01*
X30462500Y18749999D01*
X29962500Y18749999D01*
X29962500Y19250001D01*
X30462500Y19250001D01*
X30462501Y19250000D01*
X31274998Y19250000D01*
X31274999Y19250001D01*
X31274999Y19674968D01*
X31274998Y19674985D01*
X31264505Y19777700D01*
X31264504Y19777703D01*
X31209359Y19944120D01*
X31178420Y19994279D01*
X31144527Y20085331D01*
X31148058Y20182422D01*
X31178420Y20255721D01*
X31209359Y20305881D01*
X31264504Y20472299D01*
X31264505Y20472306D01*
X31274999Y20575019D01*
X31275000Y20575029D01*
X31275000Y20999999D01*
X31274999Y21000000D01*
X30462500Y21000000D01*
X30462500Y19250001D01*
X29962500Y19250001D01*
X29962500Y21001000D01*
X29981454Y21096288D01*
X30035430Y21177070D01*
X30116212Y21231046D01*
X30211500Y21250000D01*
X30212500Y21250000D01*
X30212500Y21251000D01*
X30231454Y21346288D01*
X30285430Y21427070D01*
X30366212Y21481046D01*
X30461500Y21500000D01*
X31274998Y21500000D01*
X31274999Y21500001D01*
X31274999Y21924968D01*
X31274998Y21924985D01*
X31264505Y22027700D01*
X31264504Y22027703D01*
X31209359Y22194120D01*
X31209358Y22194122D01*
X31117318Y22343342D01*
X31117315Y22343346D01*
X30993345Y22467316D01*
X30993341Y22467319D01*
X30877822Y22538572D01*
X30806671Y22604728D01*
X30766253Y22693076D01*
X30762721Y22790167D01*
X30796613Y22881219D01*
X30862769Y22952370D01*
X30951117Y22992788D01*
X31008541Y22999500D01*
X56197026Y22999500D01*
X56292314Y22980546D01*
G37*
%TD.AperFunction*%
%TA.AperFunction,Conductor*%
G36*
X37794075Y2692993D02*
G01*
X37760000Y2565826D01*
X37760000Y2434174D01*
X37794075Y2307007D01*
X37826988Y2250000D01*
X36153012Y2250000D01*
X36185925Y2307007D01*
X36220000Y2434174D01*
X36220000Y2565826D01*
X36185925Y2692993D01*
X36153012Y2750000D01*
X37826988Y2750000D01*
X37794075Y2692993D01*
G37*
%TD.AperFunction*%
%TA.AperFunction,Conductor*%
G36*
X40334075Y2692993D02*
G01*
X40300000Y2565826D01*
X40300000Y2434174D01*
X40334075Y2307007D01*
X40366988Y2250000D01*
X38693012Y2250000D01*
X38725925Y2307007D01*
X38760000Y2434174D01*
X38760000Y2565826D01*
X38725925Y2692993D01*
X38693012Y2750000D01*
X40366988Y2750000D01*
X40334075Y2692993D01*
G37*
%TD.AperFunction*%
%TA.AperFunction,Conductor*%
G36*
X42874075Y2692993D02*
G01*
X42840000Y2565826D01*
X42840000Y2434174D01*
X42874075Y2307007D01*
X42906988Y2250000D01*
X41233012Y2250000D01*
X41265925Y2307007D01*
X41300000Y2434174D01*
X41300000Y2565826D01*
X41265925Y2692993D01*
X41233012Y2750000D01*
X42906988Y2750000D01*
X42874075Y2692993D01*
G37*
%TD.AperFunction*%
%TA.AperFunction,Conductor*%
G36*
X45414075Y2692993D02*
G01*
X45380000Y2565826D01*
X45380000Y2434174D01*
X45414075Y2307007D01*
X45446988Y2250000D01*
X43773012Y2250000D01*
X43805925Y2307007D01*
X43840000Y2434174D01*
X43840000Y2565826D01*
X43805925Y2692993D01*
X43773012Y2750000D01*
X45446988Y2750000D01*
X45414075Y2692993D01*
G37*
%TD.AperFunction*%
%TA.AperFunction,Conductor*%
G36*
X47954075Y2692993D02*
G01*
X47920000Y2565826D01*
X47920000Y2434174D01*
X47954075Y2307007D01*
X47986988Y2250000D01*
X46313012Y2250000D01*
X46345925Y2307007D01*
X46380000Y2434174D01*
X46380000Y2565826D01*
X46345925Y2692993D01*
X46313012Y2750000D01*
X47986988Y2750000D01*
X47954075Y2692993D01*
G37*
%TD.AperFunction*%
%TA.AperFunction,Conductor*%
G36*
X50494075Y2692993D02*
G01*
X50460000Y2565826D01*
X50460000Y2434174D01*
X50494075Y2307007D01*
X50526988Y2250000D01*
X48853012Y2250000D01*
X48885925Y2307007D01*
X48920000Y2434174D01*
X48920000Y2565826D01*
X48885925Y2692993D01*
X48853012Y2750000D01*
X50526988Y2750000D01*
X50494075Y2692993D01*
G37*
%TD.AperFunction*%
%TA.AperFunction,Conductor*%
G36*
X53034075Y2692993D02*
G01*
X53000000Y2565826D01*
X53000000Y2434174D01*
X53034075Y2307007D01*
X53066988Y2250000D01*
X51393012Y2250000D01*
X51425925Y2307007D01*
X51460000Y2434174D01*
X51460000Y2565826D01*
X51425925Y2692993D01*
X51393012Y2750000D01*
X53066988Y2750000D01*
X53034075Y2692993D01*
G37*
%TD.AperFunction*%
%TA.AperFunction,Conductor*%
G36*
X4834075Y19152993D02*
G01*
X4800000Y19025826D01*
X4800000Y18894174D01*
X4834075Y18767007D01*
X4866988Y18710000D01*
X3193012Y18710000D01*
X3225925Y18767007D01*
X3260000Y18894174D01*
X3260000Y19025826D01*
X3225925Y19152993D01*
X3193012Y19210000D01*
X4866988Y19210000D01*
X4834075Y19152993D01*
G37*
%TD.AperFunction*%
%TA.AperFunction,Conductor*%
G36*
X59784075Y19192993D02*
G01*
X59750000Y19065826D01*
X59750000Y18934174D01*
X59784075Y18807007D01*
X59816988Y18750000D01*
X58143012Y18750000D01*
X58175925Y18807007D01*
X58210000Y18934174D01*
X58210000Y19065826D01*
X58175925Y19192993D01*
X58143012Y19250000D01*
X59816988Y19250000D01*
X59784075Y19192993D01*
G37*
%TD.AperFunction*%
%TD*%
M02*
