%TF.GenerationSoftware,KiCad,Pcbnew,7.0.10*%
%TF.CreationDate,2024-02-11T10:45:53+07:00*%
%TF.ProjectId,PMOD-Pulser_update,504d4f44-2d50-4756-9c73-65725f757064,rev?*%
%TF.SameCoordinates,PX5e2ce30PY52bb330*%
%TF.FileFunction,Legend,Bot*%
%TF.FilePolarity,Positive*%
%FSLAX46Y46*%
G04 Gerber Fmt 4.6, Leading zero omitted, Abs format (unit mm)*
G04 Created by KiCad (PCBNEW 7.0.10) date 2024-02-11 10:45:53*
%MOMM*%
%LPD*%
G01*
G04 APERTURE LIST*
%ADD10C,0.150000*%
G04 APERTURE END LIST*
D10*
G36*
X2379761Y19593658D02*
G01*
X2167704Y19593658D01*
X2118236Y19618392D01*
X2097353Y19639275D01*
X2072618Y19688745D01*
X2072618Y19767619D01*
X2097353Y19817089D01*
X2118236Y19837971D01*
X2167704Y19862705D01*
X2379761Y19862705D01*
X2379761Y19593658D01*
G37*
G36*
X2644047Y18949558D02*
G01*
X857091Y18949558D01*
X857091Y19455491D01*
X971377Y19455491D01*
X980286Y19404967D01*
X1019586Y19371990D01*
X1045238Y19367467D01*
X1274999Y19367467D01*
X1274999Y19137705D01*
X1292546Y19089496D01*
X1336975Y19063844D01*
X1387499Y19072753D01*
X1420476Y19112053D01*
X1424999Y19137705D01*
X1424999Y19367467D01*
X1654761Y19367467D01*
X1702970Y19385014D01*
X1728622Y19429443D01*
X1719713Y19479967D01*
X1680413Y19512944D01*
X1654761Y19517467D01*
X1424999Y19517467D01*
X1424999Y19671039D01*
X1922618Y19671039D01*
X1924151Y19666826D01*
X1923110Y19662464D01*
X1930536Y19637498D01*
X1968632Y19561307D01*
X1969821Y19560182D01*
X1982681Y19541815D01*
X2020776Y19503720D01*
X2022257Y19503029D01*
X2040268Y19489671D01*
X2116458Y19451576D01*
X2120911Y19451064D01*
X2124347Y19448181D01*
X2149999Y19443658D01*
X2379761Y19443658D01*
X2379761Y19137705D01*
X2397308Y19089496D01*
X2441737Y19063844D01*
X2492261Y19072753D01*
X2525238Y19112053D01*
X2529761Y19137705D01*
X2529761Y19937705D01*
X2523097Y19956014D01*
X2519713Y19975205D01*
X2514528Y19979556D01*
X2512214Y19985914D01*
X2495340Y19995657D01*
X2480413Y20008182D01*
X2470670Y20009900D01*
X2467785Y20011566D01*
X2464502Y20010988D01*
X2454761Y20012705D01*
X2149999Y20012705D01*
X2145785Y20011172D01*
X2141425Y20012213D01*
X2116458Y20004787D01*
X2040268Y19966692D01*
X2039142Y19965503D01*
X2020776Y19952643D01*
X1982681Y19914548D01*
X1981988Y19913064D01*
X1968632Y19895056D01*
X1930536Y19818865D01*
X1930023Y19814412D01*
X1927141Y19810976D01*
X1922618Y19785324D01*
X1922618Y19671039D01*
X1424999Y19671039D01*
X1424999Y19747229D01*
X1407452Y19795438D01*
X1363023Y19821090D01*
X1312499Y19812181D01*
X1279522Y19772881D01*
X1274999Y19747229D01*
X1274999Y19517467D01*
X1045238Y19517467D01*
X997029Y19499920D01*
X971377Y19455491D01*
X857091Y19455491D01*
X857091Y20126991D01*
X2644047Y20126991D01*
X2644047Y18949558D01*
G37*
G36*
X3163094Y3870181D02*
G01*
X3012169Y3870181D01*
X2897656Y3908352D01*
X2823543Y3982466D01*
X2785049Y4059453D01*
X2741666Y4232987D01*
X2741666Y4357376D01*
X2785049Y4530910D01*
X2823543Y4607897D01*
X2897656Y4682010D01*
X3012169Y4720181D01*
X3163094Y4720181D01*
X3163094Y3870181D01*
G37*
G36*
X5551189Y3577324D02*
G01*
X2448809Y3577324D01*
X2448809Y4223753D01*
X2591666Y4223753D01*
X2592851Y4220496D01*
X2593905Y4205563D01*
X2641524Y4015087D01*
X2643512Y4012143D01*
X2647203Y3999736D01*
X2694822Y3904498D01*
X2696008Y3903375D01*
X2708871Y3885006D01*
X2804109Y3789767D01*
X2808173Y3787872D01*
X2810520Y3784052D01*
X2833425Y3771649D01*
X2976281Y3724030D01*
X2977916Y3724075D01*
X2999999Y3720181D01*
X3238094Y3720181D01*
X3256402Y3726845D01*
X3275594Y3730229D01*
X3279944Y3735414D01*
X3286303Y3737728D01*
X3296045Y3754602D01*
X3308571Y3769529D01*
X3310288Y3779272D01*
X3311955Y3782157D01*
X3311376Y3785440D01*
X3313094Y3795181D01*
X3639285Y3795181D01*
X3641656Y3788665D01*
X3640483Y3781829D01*
X3650222Y3765132D01*
X3656832Y3746972D01*
X3662837Y3743505D01*
X3666332Y3737513D01*
X3684523Y3730984D01*
X3701261Y3721320D01*
X3708092Y3722525D01*
X3714619Y3720182D01*
X3732750Y3726873D01*
X3751785Y3730229D01*
X3756242Y3735542D01*
X3762749Y3737942D01*
X3779403Y3757971D01*
X4210713Y4512765D01*
X4210713Y3795181D01*
X4228260Y3746972D01*
X4272689Y3721320D01*
X4323213Y3730229D01*
X4356190Y3769529D01*
X4360713Y3795181D01*
X4360713Y3890420D01*
X4639285Y3890420D01*
X4644884Y3875037D01*
X4646311Y3858725D01*
X4655703Y3845311D01*
X4656832Y3842211D01*
X4658581Y3841202D01*
X4661251Y3837388D01*
X4708870Y3789768D01*
X4712934Y3787873D01*
X4715282Y3784052D01*
X4738187Y3771649D01*
X4881043Y3724030D01*
X4882678Y3724075D01*
X4904761Y3720181D01*
X4999999Y3720181D01*
X5001537Y3720742D01*
X5023716Y3724030D01*
X5166573Y3771649D01*
X5170085Y3774437D01*
X5174552Y3774827D01*
X5195889Y3789767D01*
X5291128Y3885007D01*
X5291819Y3886490D01*
X5305176Y3904498D01*
X5352795Y3999736D01*
X5353201Y4003265D01*
X5358474Y4015087D01*
X5406093Y4205563D01*
X5405732Y4209012D01*
X5408332Y4223753D01*
X5408332Y4366610D01*
X5407146Y4369868D01*
X5406093Y4384800D01*
X5358474Y4575276D01*
X5356485Y4578221D01*
X5352795Y4590627D01*
X5305176Y4685865D01*
X5303989Y4686989D01*
X5291127Y4705357D01*
X5195889Y4800595D01*
X5191825Y4802490D01*
X5189478Y4806311D01*
X5166573Y4818713D01*
X5023716Y4866332D01*
X5022081Y4866288D01*
X4999999Y4870181D01*
X4857142Y4870181D01*
X4852928Y4868648D01*
X4848567Y4869689D01*
X4823601Y4862263D01*
X4728363Y4814644D01*
X4693091Y4777390D01*
X4690016Y4726179D01*
X4720580Y4684974D01*
X4770478Y4673054D01*
X4795445Y4680480D01*
X4874847Y4720181D01*
X4987829Y4720181D01*
X5102342Y4682010D01*
X5176455Y4607897D01*
X5214948Y4530910D01*
X5258332Y4357376D01*
X5258332Y4232987D01*
X5214948Y4059453D01*
X5176454Y3982466D01*
X5102342Y3908353D01*
X4987829Y3870181D01*
X4916931Y3870181D01*
X4802418Y3908352D01*
X4789285Y3921486D01*
X4789285Y4148753D01*
X4904761Y4148753D01*
X4952970Y4166300D01*
X4978622Y4210729D01*
X4969713Y4261253D01*
X4930413Y4294230D01*
X4904761Y4298753D01*
X4714285Y4298753D01*
X4695976Y4292090D01*
X4676785Y4288705D01*
X4672434Y4283521D01*
X4666076Y4281206D01*
X4656333Y4264333D01*
X4643808Y4249405D01*
X4642090Y4239663D01*
X4640424Y4236777D01*
X4641002Y4233495D01*
X4639285Y4223753D01*
X4639285Y3890420D01*
X4360713Y3890420D01*
X4360713Y4795181D01*
X4358340Y4801699D01*
X4359515Y4808534D01*
X4349775Y4825232D01*
X4343166Y4843390D01*
X4337161Y4846858D01*
X4333666Y4852849D01*
X4315474Y4859379D01*
X4298737Y4869042D01*
X4291905Y4867838D01*
X4285379Y4870180D01*
X4267247Y4863490D01*
X4248213Y4860133D01*
X4243755Y4854821D01*
X4237249Y4852420D01*
X4220595Y4832392D01*
X3789285Y4077598D01*
X3789285Y4795181D01*
X3771738Y4843390D01*
X3727309Y4869042D01*
X3676785Y4860133D01*
X3643808Y4820833D01*
X3639285Y4795181D01*
X3639285Y3795181D01*
X3313094Y3795181D01*
X3313094Y4795181D01*
X3306430Y4813490D01*
X3303046Y4832681D01*
X3297861Y4837032D01*
X3295547Y4843390D01*
X3278673Y4853133D01*
X3263746Y4865658D01*
X3254003Y4867376D01*
X3251118Y4869042D01*
X3247835Y4868464D01*
X3238094Y4870181D01*
X2999999Y4870181D01*
X2998461Y4869622D01*
X2976281Y4866332D01*
X2833425Y4818713D01*
X2829914Y4815927D01*
X2825446Y4815536D01*
X2804109Y4800595D01*
X2708871Y4705357D01*
X2708180Y4703876D01*
X2694822Y4685865D01*
X2647203Y4590627D01*
X2646796Y4587099D01*
X2641524Y4575276D01*
X2593905Y4384800D01*
X2594265Y4381352D01*
X2591666Y4366610D01*
X2591666Y4223753D01*
X2448809Y4223753D01*
X2448809Y5013038D01*
X5551189Y5013038D01*
X5551189Y3577324D01*
G37*
G36*
X1688905Y14571305D02*
G01*
X1709788Y14550422D01*
X1734524Y14500953D01*
X1734524Y14307792D01*
X1709788Y14258322D01*
X1688905Y14237439D01*
X1639438Y14212705D01*
X1522467Y14212705D01*
X1503571Y14222153D01*
X1503571Y14586591D01*
X1522467Y14596039D01*
X1639437Y14596039D01*
X1688905Y14571305D01*
G37*
G36*
X2496428Y14593658D02*
G01*
X2284371Y14593658D01*
X2234903Y14618392D01*
X2214020Y14639275D01*
X2189285Y14688745D01*
X2189285Y14767619D01*
X2214020Y14817089D01*
X2234903Y14837971D01*
X2284371Y14862705D01*
X2496428Y14862705D01*
X2496428Y14593658D01*
G37*
G36*
X2760714Y13948419D02*
G01*
X1239285Y13948419D01*
X1239285Y14137705D01*
X1353571Y14137705D01*
X1371118Y14089496D01*
X1415547Y14063844D01*
X1466071Y14072753D01*
X1466334Y14073067D01*
X1471221Y14070623D01*
X1475674Y14070111D01*
X1479110Y14067228D01*
X1504762Y14062705D01*
X1657143Y14062705D01*
X1661356Y14064239D01*
X1665717Y14063197D01*
X1690684Y14070623D01*
X1766874Y14108718D01*
X1767998Y14109906D01*
X1786367Y14122768D01*
X1824462Y14160864D01*
X1825153Y14162348D01*
X1838510Y14180354D01*
X1876605Y14256544D01*
X1877117Y14260998D01*
X1880001Y14264434D01*
X1884524Y14290086D01*
X1884524Y14518658D01*
X1882990Y14522873D01*
X1884032Y14527234D01*
X1876605Y14552200D01*
X1838510Y14628390D01*
X1837318Y14629518D01*
X1824461Y14647881D01*
X1801303Y14671039D01*
X2039285Y14671039D01*
X2040818Y14666826D01*
X2039777Y14662464D01*
X2047203Y14637498D01*
X2085299Y14561307D01*
X2086488Y14560182D01*
X2099348Y14541815D01*
X2137443Y14503720D01*
X2138924Y14503029D01*
X2156935Y14489671D01*
X2233125Y14451576D01*
X2237578Y14451064D01*
X2241014Y14448181D01*
X2266666Y14443658D01*
X2496428Y14443658D01*
X2496428Y14137705D01*
X2513975Y14089496D01*
X2558404Y14063844D01*
X2608928Y14072753D01*
X2641905Y14112053D01*
X2646428Y14137705D01*
X2646428Y14937705D01*
X2639764Y14956014D01*
X2636380Y14975205D01*
X2631195Y14979556D01*
X2628881Y14985914D01*
X2612007Y14995657D01*
X2597080Y15008182D01*
X2587337Y15009900D01*
X2584452Y15011566D01*
X2581169Y15010988D01*
X2571428Y15012705D01*
X2266666Y15012705D01*
X2262452Y15011172D01*
X2258092Y15012213D01*
X2233125Y15004787D01*
X2156935Y14966692D01*
X2155809Y14965503D01*
X2137443Y14952643D01*
X2099348Y14914548D01*
X2098655Y14913064D01*
X2085299Y14895056D01*
X2047203Y14818865D01*
X2046690Y14814412D01*
X2043808Y14810976D01*
X2039285Y14785324D01*
X2039285Y14671039D01*
X1801303Y14671039D01*
X1786366Y14685976D01*
X1784881Y14686669D01*
X1766874Y14700025D01*
X1690685Y14738121D01*
X1686230Y14738634D01*
X1682795Y14741516D01*
X1657143Y14746039D01*
X1504762Y14746039D01*
X1503571Y14745606D01*
X1503571Y14937705D01*
X1486024Y14985914D01*
X1441595Y15011566D01*
X1391071Y15002657D01*
X1358094Y14963357D01*
X1353571Y14937705D01*
X1353571Y14137705D01*
X1239285Y14137705D01*
X1239285Y15126991D01*
X2760714Y15126991D01*
X2760714Y13948419D01*
G37*
G36*
X7681856Y3577324D02*
G01*
X5722647Y3577324D01*
X5722647Y4797230D01*
X5865504Y4797230D01*
X5869325Y4771464D01*
X6202658Y3771464D01*
X6204000Y3769773D01*
X6204059Y3767614D01*
X6219808Y3749853D01*
X6234549Y3731278D01*
X6236662Y3730846D01*
X6238096Y3729229D01*
X6261566Y3725749D01*
X6284810Y3720992D01*
X6286709Y3722021D01*
X6288845Y3721704D01*
X6309058Y3734123D01*
X6329924Y3745421D01*
X6330717Y3747429D01*
X6332557Y3748559D01*
X6344960Y3771464D01*
X6416358Y3985658D01*
X6817857Y3985658D01*
X6819390Y3981445D01*
X6818349Y3977084D01*
X6825775Y3952117D01*
X6873394Y3856879D01*
X6874582Y3855754D01*
X6887442Y3837388D01*
X6935061Y3789768D01*
X6936542Y3789078D01*
X6954554Y3775718D01*
X7049792Y3728099D01*
X7054245Y3727587D01*
X7057681Y3724704D01*
X7083333Y3720181D01*
X7321428Y3720181D01*
X7325641Y3721715D01*
X7330002Y3720673D01*
X7354969Y3728099D01*
X7450207Y3775718D01*
X7451331Y3776906D01*
X7469700Y3789768D01*
X7517318Y3837387D01*
X7538999Y3883884D01*
X7525721Y3933439D01*
X7483696Y3962865D01*
X7432588Y3958393D01*
X7411251Y3943452D01*
X7372238Y3904439D01*
X7303723Y3870181D01*
X7101038Y3870181D01*
X7032522Y3904439D01*
X7002115Y3934847D01*
X6967857Y4003363D01*
X6967857Y4206048D01*
X7002115Y4274564D01*
X7032522Y4304971D01*
X7101038Y4339229D01*
X7303723Y4339229D01*
X7372239Y4304971D01*
X7411252Y4265958D01*
X7411699Y4265750D01*
X7411914Y4265304D01*
X7434929Y4254918D01*
X7457748Y4244277D01*
X7458224Y4244405D01*
X7458675Y4244201D01*
X7482946Y4251029D01*
X7507303Y4257554D01*
X7507586Y4257960D01*
X7508062Y4258093D01*
X7522292Y4278962D01*
X7536729Y4299580D01*
X7536686Y4300071D01*
X7536965Y4300479D01*
X7538913Y4326454D01*
X7491294Y4802644D01*
X7484383Y4816996D01*
X7481618Y4832681D01*
X7473585Y4839421D01*
X7469037Y4848868D01*
X7454519Y4855420D01*
X7442318Y4865658D01*
X7425109Y4868693D01*
X7422276Y4869971D01*
X7420573Y4869493D01*
X7416666Y4870181D01*
X6940476Y4870181D01*
X6892267Y4852634D01*
X6866615Y4808205D01*
X6875524Y4757681D01*
X6914824Y4724704D01*
X6940476Y4720181D01*
X7348792Y4720181D01*
X7373610Y4471991D01*
X7354969Y4481311D01*
X7350515Y4481824D01*
X7347080Y4484706D01*
X7321428Y4489229D01*
X7083333Y4489229D01*
X7079119Y4487696D01*
X7074758Y4488737D01*
X7049792Y4481311D01*
X6954554Y4433692D01*
X6953428Y4432503D01*
X6935062Y4419643D01*
X6887443Y4372024D01*
X6886752Y4370543D01*
X6873394Y4352532D01*
X6825775Y4257294D01*
X6825262Y4252841D01*
X6822380Y4249405D01*
X6817857Y4223753D01*
X6817857Y3985658D01*
X6416358Y3985658D01*
X6678293Y4771464D01*
X6676892Y4822747D01*
X6642854Y4861133D01*
X6592106Y4868658D01*
X6548393Y4841803D01*
X6535991Y4818898D01*
X6273809Y4032352D01*
X6011627Y4818898D01*
X5979736Y4859084D01*
X5929475Y4869370D01*
X5884361Y4844941D01*
X5865504Y4797230D01*
X5722647Y4797230D01*
X5722647Y5013038D01*
X7681856Y5013038D01*
X7681856Y3577324D01*
G37*
G36*
X815475Y9212705D02*
G01*
X712169Y9212705D01*
X626227Y9241352D01*
X571162Y9296418D01*
X542192Y9354358D01*
X508332Y9489798D01*
X508332Y9585613D01*
X542192Y9721054D01*
X571162Y9778994D01*
X626226Y9834058D01*
X712169Y9862705D01*
X815475Y9862705D01*
X815475Y9212705D01*
G37*
G36*
X2755952Y8948419D02*
G01*
X244046Y8948419D01*
X244046Y9480562D01*
X358332Y9480562D01*
X359517Y9477305D01*
X360571Y9462371D01*
X398667Y9309990D01*
X400656Y9307045D01*
X404346Y9294640D01*
X442441Y9218450D01*
X443627Y9217327D01*
X456490Y9198958D01*
X532680Y9122767D01*
X536743Y9120873D01*
X539091Y9117051D01*
X561996Y9104649D01*
X676282Y9066554D01*
X677916Y9066599D01*
X699999Y9062705D01*
X890475Y9062705D01*
X908783Y9069369D01*
X927975Y9072753D01*
X932325Y9077938D01*
X938684Y9080252D01*
X948426Y9097126D01*
X960952Y9112053D01*
X962669Y9121796D01*
X964336Y9124681D01*
X963757Y9127964D01*
X965475Y9137705D01*
X1196427Y9137705D01*
X1198798Y9131189D01*
X1197625Y9124353D01*
X1207364Y9107656D01*
X1213974Y9089496D01*
X1219979Y9086029D01*
X1223474Y9080037D01*
X1241665Y9073508D01*
X1258403Y9063844D01*
X1265234Y9065049D01*
X1271761Y9062706D01*
X1289892Y9069397D01*
X1308927Y9072753D01*
X1313384Y9078066D01*
X1319891Y9080466D01*
X1336545Y9100495D01*
X1653570Y9655289D01*
X1653570Y9137705D01*
X1671117Y9089496D01*
X1715546Y9063844D01*
X1766070Y9072753D01*
X1799047Y9112053D01*
X1803570Y9137705D01*
X1803570Y9213896D01*
X1996427Y9213896D01*
X2002026Y9198512D01*
X2003454Y9182200D01*
X2012845Y9168788D01*
X2013974Y9165687D01*
X2015723Y9164677D01*
X2018394Y9160863D01*
X2056490Y9122767D01*
X2060554Y9120872D01*
X2062901Y9117052D01*
X2085806Y9104649D01*
X2200091Y9066554D01*
X2201725Y9066599D01*
X2223808Y9062705D01*
X2299999Y9062705D01*
X2301537Y9063266D01*
X2323716Y9066554D01*
X2438002Y9104649D01*
X2441513Y9107437D01*
X2445982Y9107827D01*
X2467318Y9122767D01*
X2543509Y9198959D01*
X2544200Y9200442D01*
X2557557Y9218450D01*
X2595652Y9294640D01*
X2596057Y9298167D01*
X2601331Y9309990D01*
X2639427Y9462372D01*
X2639066Y9465821D01*
X2641666Y9480562D01*
X2641666Y9594848D01*
X2640480Y9598106D01*
X2639427Y9613038D01*
X2601331Y9765420D01*
X2599342Y9768364D01*
X2595652Y9780770D01*
X2557557Y9856961D01*
X2556370Y9858085D01*
X2543508Y9876453D01*
X2467318Y9952643D01*
X2463254Y9954538D01*
X2460907Y9958359D01*
X2438002Y9970761D01*
X2323716Y10008856D01*
X2322081Y10008812D01*
X2299999Y10012705D01*
X2185713Y10012705D01*
X2181499Y10011172D01*
X2177139Y10012213D01*
X2152172Y10004787D01*
X2075982Y9966692D01*
X2040710Y9929438D01*
X2037635Y9878227D01*
X2068199Y9837022D01*
X2118097Y9825102D01*
X2143064Y9832528D01*
X2203418Y9862705D01*
X2287829Y9862705D01*
X2373771Y9834058D01*
X2428835Y9778994D01*
X2457805Y9721055D01*
X2491666Y9585613D01*
X2491666Y9489798D01*
X2457805Y9354357D01*
X2428835Y9296418D01*
X2373770Y9241352D01*
X2287829Y9212705D01*
X2235978Y9212705D01*
X2150037Y9241352D01*
X2146427Y9244962D01*
X2146427Y9405562D01*
X2223808Y9405562D01*
X2272017Y9423109D01*
X2297669Y9467538D01*
X2288760Y9518062D01*
X2249460Y9551039D01*
X2223808Y9555562D01*
X2071427Y9555562D01*
X2053118Y9548899D01*
X2033927Y9545514D01*
X2029576Y9540330D01*
X2023218Y9538015D01*
X2013475Y9521142D01*
X2000950Y9506214D01*
X1999232Y9496472D01*
X1997566Y9493586D01*
X1998144Y9490304D01*
X1996427Y9480562D01*
X1996427Y9213896D01*
X1803570Y9213896D01*
X1803570Y9937705D01*
X1801198Y9944222D01*
X1802372Y9951057D01*
X1792632Y9967755D01*
X1786023Y9985914D01*
X1780017Y9989382D01*
X1776523Y9995373D01*
X1758331Y10001903D01*
X1741594Y10011566D01*
X1734762Y10010362D01*
X1728236Y10012704D01*
X1710104Y10006014D01*
X1691070Y10002657D01*
X1686612Y9997345D01*
X1680106Y9994944D01*
X1663452Y9974915D01*
X1346427Y9420122D01*
X1346427Y9937705D01*
X1328880Y9985914D01*
X1284451Y10011566D01*
X1233927Y10002657D01*
X1200950Y9963357D01*
X1196427Y9937705D01*
X1196427Y9137705D01*
X965475Y9137705D01*
X965475Y9937705D01*
X958811Y9956014D01*
X955427Y9975205D01*
X950242Y9979556D01*
X947928Y9985914D01*
X931054Y9995657D01*
X916127Y10008182D01*
X906384Y10009900D01*
X903499Y10011566D01*
X900216Y10010988D01*
X890475Y10012705D01*
X699999Y10012705D01*
X698460Y10012145D01*
X676282Y10008856D01*
X561996Y9970761D01*
X558485Y9967975D01*
X554017Y9967584D01*
X532680Y9952643D01*
X456490Y9876453D01*
X455799Y9874972D01*
X442441Y9856961D01*
X404346Y9780770D01*
X403940Y9777244D01*
X398667Y9765420D01*
X360571Y9613039D01*
X360931Y9609591D01*
X358332Y9594848D01*
X358332Y9480562D01*
X244046Y9480562D01*
X244046Y10126991D01*
X2755952Y10126991D01*
X2755952Y8948419D01*
G37*
G36*
X2469858Y12337971D02*
G01*
X2522752Y12285077D01*
X2553571Y12161804D01*
X2553571Y11913608D01*
X2522752Y11790334D01*
X2469857Y11737440D01*
X2420389Y11712705D01*
X2303418Y11712705D01*
X2253950Y11737439D01*
X2201054Y11790335D01*
X2170237Y11913606D01*
X2170237Y12161806D01*
X2201054Y12285077D01*
X2253949Y12337971D01*
X2303418Y12362705D01*
X2420389Y12362705D01*
X2469858Y12337971D01*
G37*
G36*
X2817857Y11448419D02*
G01*
X1183281Y11448419D01*
X1183281Y11650729D01*
X1297567Y11650729D01*
X1306476Y11600205D01*
X1345776Y11567228D01*
X1371428Y11562705D01*
X1752380Y11562705D01*
X1770688Y11569369D01*
X1789880Y11572753D01*
X1794230Y11577938D01*
X1800589Y11580252D01*
X1810331Y11597126D01*
X1822857Y11612053D01*
X1824574Y11621796D01*
X1826241Y11624681D01*
X1825662Y11627964D01*
X1827380Y11637705D01*
X1827380Y11904372D01*
X2020237Y11904372D01*
X2021422Y11901115D01*
X2022476Y11886182D01*
X2060571Y11733801D01*
X2064713Y11727668D01*
X2065359Y11720295D01*
X2080299Y11698958D01*
X2156490Y11622767D01*
X2157971Y11622076D01*
X2175982Y11608718D01*
X2252172Y11570623D01*
X2256625Y11570111D01*
X2260061Y11567228D01*
X2285713Y11562705D01*
X2438094Y11562705D01*
X2442306Y11564239D01*
X2446668Y11563196D01*
X2471635Y11570623D01*
X2547826Y11608718D01*
X2548950Y11609906D01*
X2567318Y11622767D01*
X2643509Y11698959D01*
X2646635Y11705665D01*
X2652626Y11710011D01*
X2663236Y11733800D01*
X2701332Y11886182D01*
X2700971Y11889631D01*
X2703571Y11904372D01*
X2703571Y12171039D01*
X2702385Y12174297D01*
X2701332Y12189229D01*
X2663236Y12341611D01*
X2659093Y12347744D01*
X2658449Y12355116D01*
X2643508Y12376453D01*
X2567318Y12452643D01*
X2565836Y12453334D01*
X2547826Y12466692D01*
X2471635Y12504787D01*
X2467181Y12505300D01*
X2463746Y12508182D01*
X2438094Y12512705D01*
X2285713Y12512705D01*
X2281499Y12511172D01*
X2277139Y12512213D01*
X2252172Y12504787D01*
X2175982Y12466692D01*
X2174856Y12465504D01*
X2156491Y12452644D01*
X2080299Y12376453D01*
X2077171Y12369746D01*
X2071181Y12365399D01*
X2060571Y12341610D01*
X2022476Y12189229D01*
X2022836Y12185781D01*
X2020237Y12171039D01*
X2020237Y11904372D01*
X1827380Y11904372D01*
X1827380Y12437705D01*
X1820716Y12456014D01*
X1817332Y12475205D01*
X1812147Y12479556D01*
X1809833Y12485914D01*
X1792959Y12495657D01*
X1778032Y12508182D01*
X1768289Y12509900D01*
X1765404Y12511566D01*
X1762121Y12510988D01*
X1752380Y12512705D01*
X1371428Y12512705D01*
X1323219Y12495158D01*
X1297567Y12450729D01*
X1306476Y12400205D01*
X1345776Y12367228D01*
X1371428Y12362705D01*
X1677380Y12362705D01*
X1677380Y12131753D01*
X1485714Y12131753D01*
X1437505Y12114206D01*
X1411853Y12069777D01*
X1420762Y12019253D01*
X1460062Y11986276D01*
X1485714Y11981753D01*
X1677380Y11981753D01*
X1677380Y11712705D01*
X1371428Y11712705D01*
X1323219Y11695158D01*
X1297567Y11650729D01*
X1183281Y11650729D01*
X1183281Y12626991D01*
X2817857Y12626991D01*
X2817857Y11448419D01*
G37*
G36*
X2869952Y6198419D02*
G01*
X91694Y6198419D01*
X91694Y7189754D01*
X205980Y7189754D01*
X209801Y7163988D01*
X476467Y6363988D01*
X477809Y6362297D01*
X477868Y6360138D01*
X493617Y6342377D01*
X508358Y6323802D01*
X510471Y6323370D01*
X511905Y6321753D01*
X535375Y6318273D01*
X558619Y6313516D01*
X560518Y6314545D01*
X562654Y6314228D01*
X582860Y6326643D01*
X603733Y6337944D01*
X604527Y6339954D01*
X606366Y6341083D01*
X618769Y6363988D01*
X677468Y6540086D01*
X967857Y6540086D01*
X969390Y6535873D01*
X968349Y6531512D01*
X975775Y6506545D01*
X1013870Y6430355D01*
X1015058Y6429230D01*
X1027918Y6410864D01*
X1066013Y6372768D01*
X1067494Y6372078D01*
X1085506Y6358718D01*
X1161697Y6320623D01*
X1166150Y6320111D01*
X1169586Y6317228D01*
X1195238Y6312705D01*
X1423809Y6312705D01*
X1428021Y6314239D01*
X1432383Y6313196D01*
X1457350Y6320623D01*
X1533541Y6358718D01*
X1534665Y6359906D01*
X1553034Y6372768D01*
X1591129Y6410864D01*
X1601141Y6432336D01*
X1730047Y6432336D01*
X1735089Y6413518D01*
X1736788Y6394104D01*
X1742462Y6386000D01*
X1743325Y6382781D01*
X1746054Y6380870D01*
X1751728Y6372767D01*
X1789823Y6334672D01*
X1807482Y6326438D01*
X1823444Y6315261D01*
X1826860Y6315560D01*
X1829832Y6313844D01*
X1833211Y6314440D01*
X1836319Y6312991D01*
X1855137Y6318034D01*
X1874551Y6319731D01*
X1878365Y6322403D01*
X1880356Y6322753D01*
X1882477Y6325281D01*
X1882655Y6325406D01*
X1885874Y6326268D01*
X1887785Y6328998D01*
X1895888Y6334671D01*
X1933984Y6372766D01*
X1942217Y6390423D01*
X1953397Y6406388D01*
X1952807Y6413132D01*
X1955666Y6419262D01*
X1950624Y6438079D01*
X1948926Y6457496D01*
X1943250Y6465601D01*
X1942389Y6468817D01*
X1939660Y6470728D01*
X1933985Y6478833D01*
X1895889Y6516929D01*
X1878230Y6525164D01*
X1862266Y6536341D01*
X1858850Y6536043D01*
X1855880Y6537757D01*
X1852499Y6537161D01*
X1849392Y6538610D01*
X1830572Y6533568D01*
X1811159Y6531869D01*
X1807345Y6529199D01*
X1805356Y6528848D01*
X1803234Y6526321D01*
X1803056Y6526196D01*
X1799838Y6525333D01*
X1797926Y6522604D01*
X1789822Y6516928D01*
X1751727Y6478832D01*
X1743493Y6461175D01*
X1732316Y6445211D01*
X1732906Y6438468D01*
X1730047Y6432336D01*
X1601141Y6432336D01*
X1612809Y6457360D01*
X1599531Y6506915D01*
X1557505Y6536341D01*
X1506398Y6531869D01*
X1485061Y6516928D01*
X1455572Y6487439D01*
X1406104Y6462705D01*
X1212943Y6462705D01*
X1163474Y6487439D01*
X1142591Y6508323D01*
X1126709Y6540086D01*
X2110714Y6540086D01*
X2112247Y6535873D01*
X2111206Y6531512D01*
X2118632Y6506545D01*
X2156727Y6430355D01*
X2157915Y6429230D01*
X2170775Y6410864D01*
X2208870Y6372768D01*
X2210351Y6372078D01*
X2228363Y6358718D01*
X2304554Y6320623D01*
X2309007Y6320111D01*
X2312443Y6317228D01*
X2338095Y6312705D01*
X2566666Y6312705D01*
X2570878Y6314239D01*
X2575240Y6313196D01*
X2600207Y6320623D01*
X2676398Y6358718D01*
X2677522Y6359906D01*
X2695891Y6372768D01*
X2733986Y6410864D01*
X2755666Y6457360D01*
X2742388Y6506915D01*
X2700362Y6536341D01*
X2649255Y6531869D01*
X2627918Y6516928D01*
X2598429Y6487439D01*
X2548961Y6462705D01*
X2355800Y6462705D01*
X2306331Y6487439D01*
X2285448Y6508323D01*
X2260714Y6557791D01*
X2260714Y6712858D01*
X2285448Y6762327D01*
X2306330Y6783209D01*
X2355800Y6807943D01*
X2452380Y6807943D01*
X2471376Y6814858D01*
X2491216Y6818780D01*
X2494967Y6823445D01*
X2500589Y6825490D01*
X2510697Y6842998D01*
X2523373Y6858755D01*
X2523249Y6864738D01*
X2526241Y6869919D01*
X2522730Y6889830D01*
X2522312Y6910047D01*
X2517871Y6917383D01*
X2517332Y6920443D01*
X2514664Y6922682D01*
X2508824Y6932330D01*
X2350996Y7112705D01*
X2680952Y7112705D01*
X2729161Y7130252D01*
X2754813Y7174681D01*
X2745904Y7225205D01*
X2706604Y7258182D01*
X2680952Y7262705D01*
X2185714Y7262705D01*
X2166714Y7255790D01*
X2146878Y7251867D01*
X2143127Y7247205D01*
X2137505Y7245158D01*
X2127395Y7227649D01*
X2114721Y7211893D01*
X2114844Y7205911D01*
X2111853Y7200729D01*
X2115364Y7180816D01*
X2115783Y7160601D01*
X2120222Y7153268D01*
X2120762Y7150205D01*
X2123431Y7147966D01*
X2129271Y7138317D01*
X2297230Y6946364D01*
X2228363Y6911930D01*
X2227237Y6910741D01*
X2208871Y6897881D01*
X2170776Y6859786D01*
X2170085Y6858305D01*
X2156727Y6840294D01*
X2118632Y6764103D01*
X2118119Y6759650D01*
X2115237Y6756214D01*
X2110714Y6730562D01*
X2110714Y6540086D01*
X1126709Y6540086D01*
X1117857Y6557791D01*
X1117857Y6712858D01*
X1142591Y6762327D01*
X1163473Y6783209D01*
X1212943Y6807943D01*
X1309523Y6807943D01*
X1328519Y6814858D01*
X1348359Y6818780D01*
X1352110Y6823445D01*
X1357732Y6825490D01*
X1367840Y6842998D01*
X1380516Y6858755D01*
X1380392Y6864738D01*
X1383384Y6869919D01*
X1379873Y6889830D01*
X1379455Y6910047D01*
X1375014Y6917383D01*
X1374475Y6920443D01*
X1371807Y6922682D01*
X1365967Y6932330D01*
X1208139Y7112705D01*
X1538095Y7112705D01*
X1586304Y7130252D01*
X1611956Y7174681D01*
X1603047Y7225205D01*
X1563747Y7258182D01*
X1538095Y7262705D01*
X1042857Y7262705D01*
X1023857Y7255790D01*
X1004021Y7251867D01*
X1000270Y7247205D01*
X994648Y7245158D01*
X984538Y7227649D01*
X971864Y7211893D01*
X971987Y7205911D01*
X968996Y7200729D01*
X972507Y7180816D01*
X972926Y7160601D01*
X977365Y7153268D01*
X977905Y7150205D01*
X980574Y7147966D01*
X986414Y7138317D01*
X1154373Y6946364D01*
X1085506Y6911930D01*
X1084380Y6910741D01*
X1066014Y6897881D01*
X1027919Y6859786D01*
X1027228Y6858305D01*
X1013870Y6840294D01*
X975775Y6764103D01*
X975262Y6759650D01*
X972380Y6756214D01*
X967857Y6730562D01*
X967857Y6540086D01*
X677468Y6540086D01*
X885436Y7163988D01*
X884035Y7215272D01*
X849998Y7253657D01*
X799249Y7261182D01*
X755536Y7234327D01*
X743134Y7211422D01*
X547618Y6624876D01*
X352103Y7211422D01*
X320212Y7251608D01*
X269951Y7261894D01*
X224837Y7237465D01*
X205980Y7189754D01*
X91694Y7189754D01*
X91694Y7376991D01*
X2869952Y7376991D01*
X2869952Y6198419D01*
G37*
G36*
X2379761Y17093658D02*
G01*
X2167704Y17093658D01*
X2118236Y17118392D01*
X2097353Y17139275D01*
X2072618Y17188745D01*
X2072618Y17267619D01*
X2097353Y17317089D01*
X2118236Y17337971D01*
X2167704Y17362705D01*
X2379761Y17362705D01*
X2379761Y17093658D01*
G37*
G36*
X2644047Y16449558D02*
G01*
X857091Y16449558D01*
X857091Y16955491D01*
X971377Y16955491D01*
X980286Y16904967D01*
X1019586Y16871990D01*
X1045238Y16867467D01*
X1654761Y16867467D01*
X1702970Y16885014D01*
X1728622Y16929443D01*
X1719713Y16979967D01*
X1680413Y17012944D01*
X1654761Y17017467D01*
X1045238Y17017467D01*
X997029Y16999920D01*
X971377Y16955491D01*
X857091Y16955491D01*
X857091Y17171039D01*
X1922618Y17171039D01*
X1924151Y17166826D01*
X1923110Y17162464D01*
X1930536Y17137498D01*
X1968632Y17061307D01*
X1969821Y17060182D01*
X1982681Y17041815D01*
X2020776Y17003720D01*
X2022257Y17003029D01*
X2040268Y16989671D01*
X2116458Y16951576D01*
X2120911Y16951064D01*
X2124347Y16948181D01*
X2149999Y16943658D01*
X2379761Y16943658D01*
X2379761Y16637705D01*
X2397308Y16589496D01*
X2441737Y16563844D01*
X2492261Y16572753D01*
X2525238Y16612053D01*
X2529761Y16637705D01*
X2529761Y17437705D01*
X2523097Y17456014D01*
X2519713Y17475205D01*
X2514528Y17479556D01*
X2512214Y17485914D01*
X2495340Y17495657D01*
X2480413Y17508182D01*
X2470670Y17509900D01*
X2467785Y17511566D01*
X2464502Y17510988D01*
X2454761Y17512705D01*
X2149999Y17512705D01*
X2145785Y17511172D01*
X2141425Y17512213D01*
X2116458Y17504787D01*
X2040268Y17466692D01*
X2039142Y17465503D01*
X2020776Y17452643D01*
X1982681Y17414548D01*
X1981988Y17413064D01*
X1968632Y17395056D01*
X1930536Y17318865D01*
X1930023Y17314412D01*
X1927141Y17310976D01*
X1922618Y17285324D01*
X1922618Y17171039D01*
X857091Y17171039D01*
X857091Y17626991D01*
X2644047Y17626991D01*
X2644047Y16449558D01*
G37*
M02*
