%TF.GenerationSoftware,KiCad,Pcbnew,7.0.10*%
%TF.CreationDate,2024-02-11T10:45:53+07:00*%
%TF.ProjectId,PMOD-Pulser_update,504d4f44-2d50-4756-9c73-65725f757064,rev?*%
%TF.SameCoordinates,PX5e2ce30PY52bb330*%
%TF.FileFunction,Copper,L2,Bot*%
%TF.FilePolarity,Positive*%
%FSLAX46Y46*%
G04 Gerber Fmt 4.6, Leading zero omitted, Abs format (unit mm)*
G04 Created by KiCad (PCBNEW 7.0.10) date 2024-02-11 10:45:53*
%MOMM*%
%LPD*%
G01*
G04 APERTURE LIST*
%TA.AperFunction,ComponentPad*%
%ADD10R,1.700000X1.700000*%
%TD*%
%TA.AperFunction,ComponentPad*%
%ADD11O,1.700000X1.700000*%
%TD*%
%TA.AperFunction,SMDPad,CuDef*%
%ADD12R,4.900000X1.600000*%
%TD*%
%TA.AperFunction,ViaPad*%
%ADD13C,0.800000*%
%TD*%
%TA.AperFunction,ViaPad*%
%ADD14C,1.000000*%
%TD*%
%TA.AperFunction,Conductor*%
%ADD15C,1.000000*%
%TD*%
%TA.AperFunction,Conductor*%
%ADD16C,0.500000*%
%TD*%
%TA.AperFunction,Conductor*%
%ADD17C,0.300000*%
%TD*%
%TA.AperFunction,Conductor*%
%ADD18C,0.200000*%
%TD*%
G04 APERTURE END LIST*
D10*
%TO.P,J4,1,Pin_1*%
%TO.N,OE*%
X58000000Y20000000D03*
D11*
%TO.P,J4,2,Pin_2*%
%TO.N,GND*%
X55460000Y20000000D03*
%TO.P,J4,3,Pin_3*%
%TO.N,-HV*%
X52920000Y20000000D03*
%TD*%
D12*
%TO.P,J1,2,2*%
%TO.N,GND*%
X60525000Y7000000D03*
X60525000Y15500000D03*
%TD*%
D10*
%TO.P,J6,1,Pin_1*%
%TO.N,+5V*%
X52920000Y2000000D03*
D11*
%TO.P,J6,2,Pin_2*%
%TO.N,+HV*%
X55460000Y2000000D03*
%TD*%
D10*
%TO.P,J2,1,Pin_1*%
%TO.N,+5V*%
X6540000Y1800000D03*
D11*
%TO.P,J2,2,Pin_2*%
%TO.N,GND*%
X4000000Y1800000D03*
%TD*%
D10*
%TO.P,J3,1,Pin_1*%
%TO.N,+3.3V*%
X4000000Y6880000D03*
D11*
%TO.P,J3,2,Pin_2*%
%TO.N,GND*%
X4000000Y9420000D03*
%TO.P,J3,3,Pin_3*%
%TO.N,OE*%
X4000000Y11960000D03*
%TO.P,J3,4,Pin_4*%
%TO.N,Pdamp*%
X4000000Y14500000D03*
%TO.P,J3,5,Pin_5*%
%TO.N,P-*%
X4000000Y17040000D03*
%TO.P,J3,6,Pin_6*%
%TO.N,P+*%
X4000000Y19580000D03*
%TD*%
D13*
%TO.N,GND*%
X51050000Y2000000D03*
X49500000Y9000000D03*
X62750000Y8750000D03*
X62750000Y17500000D03*
X51000000Y16750000D03*
X27750000Y11250000D03*
X43500000Y20250000D03*
X17250000Y7500000D03*
X57000000Y16750000D03*
X13000000Y8250000D03*
X45250000Y3250000D03*
X60250000Y750000D03*
X28750000Y5000000D03*
X28750000Y14250000D03*
X18750000Y6000000D03*
X61500000Y8750000D03*
X31000000Y11250000D03*
X62750000Y12500000D03*
X44500000Y19250000D03*
X45250000Y13750000D03*
X35250000Y7500000D03*
X61500000Y12500000D03*
X29750000Y11250000D03*
X13000000Y6250000D03*
X11750000Y15750000D03*
X61500000Y17500000D03*
X23500000Y4000000D03*
X60250000Y12500000D03*
X45250000Y12750000D03*
X62750000Y5000000D03*
X57250000Y10500000D03*
X52000000Y13000000D03*
X38000000Y2900000D03*
X34000000Y3000000D03*
X37000000Y9500000D03*
X12750000Y13750000D03*
X60250000Y10000000D03*
X13000000Y7250000D03*
X54000000Y16750000D03*
X61500000Y750000D03*
X45250000Y11750000D03*
X48000000Y2000000D03*
X38000000Y6500000D03*
X43500000Y7500000D03*
X61500000Y5000000D03*
X34500000Y11250000D03*
X54000000Y13000000D03*
X57750000Y5000000D03*
X62750000Y10000000D03*
X33500000Y11250000D03*
X55500000Y16750000D03*
X57000000Y12500000D03*
X18000000Y6750000D03*
X32750000Y3000000D03*
X37000000Y7600000D03*
X28750000Y15500000D03*
X46500000Y2000000D03*
X52500000Y16750000D03*
X44250000Y6750000D03*
X12750000Y16750000D03*
X55500000Y12250000D03*
X60250000Y5000000D03*
X58250000Y11250000D03*
X23500000Y7000000D03*
X57000000Y13750000D03*
X59000000Y5000000D03*
X14050000Y19600000D03*
X51000000Y13750000D03*
X51000000Y15250000D03*
X38000000Y8500000D03*
X59000000Y8750000D03*
X48000000Y9000000D03*
X23500000Y6000000D03*
X51000000Y3750000D03*
X60250000Y8750000D03*
X23500000Y5000000D03*
X57000000Y15250000D03*
X39750000Y6500000D03*
X27500000Y3750000D03*
X27500000Y5000000D03*
X45250000Y2000000D03*
X28750000Y3750000D03*
X59000000Y750000D03*
X9250000Y5500000D03*
X26000000Y11250000D03*
X45250000Y4500000D03*
X56750000Y6500000D03*
X36750000Y2900000D03*
X27500000Y14250000D03*
X9250000Y3500000D03*
X57750000Y750000D03*
X14050000Y14800000D03*
X61500000Y10000000D03*
X37000000Y18500000D03*
X62750000Y1500000D03*
X13000000Y9250000D03*
X24650000Y14900000D03*
X59000000Y12250000D03*
X56250000Y11500000D03*
X18750000Y7500000D03*
X27500000Y15500000D03*
X49500000Y2000000D03*
X45250000Y5750000D03*
%TO.N,+5V*%
X31375000Y4350000D03*
X35750000Y20000000D03*
X23900000Y19500000D03*
X9250000Y1800000D03*
D14*
X31650000Y14900000D03*
D13*
X35650000Y9150000D03*
%TO.N,Pdamp*%
X13450000Y2150000D03*
X10862500Y11862500D03*
%TO.N,DAMP*%
X24975000Y5950000D03*
X16950000Y4650000D03*
%TO.N,Net-(H1-2A)*%
X19600000Y18300000D03*
X15200000Y11100000D03*
%TO.N,P+*%
X19850000Y4150000D03*
X12000000Y18900000D03*
%TO.N,PULSE+*%
X21600000Y4150000D03*
X24975000Y16350000D03*
%TO.N,_PULSE-*%
X14050000Y13200000D03*
X21775000Y11025000D03*
%TO.N,P-*%
X12000000Y17850000D03*
X20350000Y11025000D03*
%TO.N,Net-(H1-4A)*%
X16312500Y10962500D03*
X19850000Y21050000D03*
%TO.N,PULSE-*%
X19975000Y13650000D03*
X24975000Y13550000D03*
%TO.N,OE*%
X26450000Y7150000D03*
X11775000Y10950000D03*
X27350000Y18400000D03*
%TO.N,~{DAMP}*%
X19700000Y15950000D03*
X24975000Y3150000D03*
%TO.N,+HV*%
X43750000Y17450000D03*
X42750000Y17450000D03*
%TD*%
D15*
%TO.N,+HV*%
X55460000Y4540000D02*
X55460000Y2000000D01*
X48000000Y5750000D02*
X54250000Y5750000D01*
X43000000Y17200000D02*
X43000000Y10750000D01*
X54250000Y5750000D02*
X55460000Y4540000D01*
X42750000Y17450000D02*
X43000000Y17200000D01*
X43000000Y10750000D02*
X48000000Y5750000D01*
D16*
%TO.N,+5V*%
X51620000Y700000D02*
X53000000Y2080000D01*
X36000000Y700000D02*
X51620000Y700000D01*
X32250000Y19800000D02*
X33000000Y20550000D01*
X34850000Y4350000D02*
X35500000Y3700000D01*
X35200000Y20550000D02*
X33000000Y20550000D01*
X9250000Y1800000D02*
X11700000Y1800000D01*
X35650000Y19900000D02*
X35750000Y20000000D01*
X32250000Y15750000D02*
X32250000Y14250000D01*
X12800000Y700000D02*
X34800000Y700000D01*
X35500000Y700000D02*
X35550000Y700000D01*
X32250000Y5500000D02*
X32250000Y5225000D01*
X32250000Y5250000D02*
X32250000Y4350000D01*
X33050000Y4350000D02*
X34850000Y4350000D01*
X32250000Y5150000D02*
X33050000Y4350000D01*
X33000000Y9150000D02*
X32300000Y9150000D01*
X35500000Y1250000D02*
X35500000Y700000D01*
X35500000Y1500000D02*
X35500000Y1250000D01*
X32850000Y9150000D02*
X32250000Y8550000D01*
X32250000Y9900000D02*
X32250000Y9100000D01*
X32250000Y5250000D02*
X32250000Y5150000D01*
X33000000Y9150000D02*
X32250000Y9900000D01*
X35500000Y1200000D02*
X36000000Y700000D01*
X35500000Y1200000D02*
X35000000Y700000D01*
X31750000Y4350000D02*
X32250000Y4350000D01*
X32250000Y20550000D02*
X32250000Y19750000D01*
X32250000Y19750000D02*
X32250000Y15750000D01*
X32300000Y9150000D02*
X32250000Y9100000D01*
X31650000Y14850000D02*
X32250000Y14250000D01*
X35500000Y1250000D02*
X35500000Y1200000D01*
X32250000Y5225000D02*
X31375000Y4350000D01*
X31650000Y14900000D02*
X31650000Y14850000D01*
X32250000Y8550000D02*
X32250000Y5250000D01*
X31500000Y20550000D02*
X24950000Y20550000D01*
X35650000Y9150000D02*
X33000000Y9150000D01*
X35750000Y20000000D02*
X35200000Y20550000D01*
X31375000Y4350000D02*
X31750000Y4350000D01*
X35500000Y3700000D02*
X35500000Y1500000D01*
X33000000Y20550000D02*
X31500000Y20550000D01*
X32250000Y15500000D02*
X32250000Y15750000D01*
X11700000Y1800000D02*
X12800000Y700000D01*
X32250000Y19800000D02*
X31500000Y20550000D01*
X24950000Y20550000D02*
X23900000Y19500000D01*
X32250000Y14250000D02*
X32250000Y9900000D01*
X32250000Y19750000D02*
X32250000Y19800000D01*
X31650000Y14900000D02*
X32250000Y15500000D01*
X35000000Y700000D02*
X36000000Y700000D01*
X35500000Y1500000D02*
X35500000Y1200000D01*
X34800000Y700000D02*
X35000000Y700000D01*
X32250000Y9100000D02*
X32250000Y8550000D01*
X32250000Y4350000D02*
X33050000Y4350000D01*
X33000000Y9150000D02*
X32850000Y9150000D01*
D17*
%TO.N,Pdamp*%
X4250000Y14250000D02*
X4000000Y14500000D01*
X10862500Y11862500D02*
X10862500Y4737500D01*
X10862500Y4737500D02*
X13450000Y2150000D01*
D18*
%TO.N,DAMP*%
X25800000Y2550000D02*
X25450000Y2200000D01*
X20325000Y2200000D02*
X17875000Y4650000D01*
X25050000Y5950000D02*
X25800000Y5200000D01*
X24975000Y5950000D02*
X25050000Y5950000D01*
X25450000Y2200000D02*
X20325000Y2200000D01*
X17875000Y4650000D02*
X16950000Y4650000D01*
X25800000Y5200000D02*
X25800000Y2550000D01*
D17*
%TO.N,Net-(H1-2A)*%
X10650000Y21250000D02*
X9600000Y20200000D01*
X13700000Y11100000D02*
X15200000Y11100000D01*
X19600000Y19650000D02*
X18000000Y21250000D01*
X9600000Y20200000D02*
X9600000Y15200000D01*
X18000000Y21250000D02*
X10650000Y21250000D01*
X19600000Y18300000D02*
X19600000Y19650000D01*
X9600000Y15200000D02*
X13700000Y11100000D01*
D18*
%TO.N,P+*%
X22775000Y10275000D02*
X22775000Y11450000D01*
X12400000Y18500000D02*
X12000000Y18900000D01*
X18125000Y12100000D02*
X16650000Y13575000D01*
X16650000Y15750000D02*
X13900000Y18500000D01*
X16650000Y13575000D02*
X16650000Y15750000D01*
X13900000Y18500000D02*
X12400000Y18500000D01*
X22775000Y11450000D02*
X22125000Y12100000D01*
X19850000Y4150000D02*
X19850000Y7350000D01*
X22125000Y12100000D02*
X18125000Y12100000D01*
X19850000Y7350000D02*
X22775000Y10275000D01*
%TO.N,PULSE+*%
X25750000Y15575000D02*
X24975000Y16350000D01*
X21600000Y6850000D02*
X24025000Y9275000D01*
X25750000Y13050000D02*
X25750000Y15575000D01*
X24025000Y11325000D02*
X25750000Y13050000D01*
X24025000Y9275000D02*
X24025000Y11325000D01*
X21600000Y4150000D02*
X21600000Y6850000D01*
%TO.N,_PULSE-*%
X21775000Y11025000D02*
X21775000Y11000000D01*
X20750000Y9975000D02*
X18500000Y9975000D01*
X15225000Y13250000D02*
X14100000Y13250000D01*
X14100000Y13250000D02*
X14050000Y13200000D01*
X21775000Y11000000D02*
X20750000Y9975000D01*
X18500000Y9975000D02*
X15225000Y13250000D01*
%TO.N,P-*%
X20350000Y11025000D02*
X19775000Y11600000D01*
X16200000Y15550000D02*
X13750000Y18000000D01*
X19775000Y11600000D02*
X17925000Y11600000D01*
X17925000Y11600000D02*
X16200000Y13325000D01*
X16200000Y13325000D02*
X16200000Y15550000D01*
X13750000Y18000000D02*
X12150000Y18000000D01*
X12150000Y18000000D02*
X12000000Y17850000D01*
%TO.N,Net-(H1-4A)*%
X9050000Y14875000D02*
X9050000Y20450000D01*
X13625000Y10300000D02*
X9050000Y14875000D01*
X9050000Y20450000D02*
X10400000Y21800000D01*
X16312500Y10962500D02*
X15650000Y10300000D01*
X10400000Y21800000D02*
X19100000Y21800000D01*
X15650000Y10300000D02*
X13625000Y10300000D01*
X19100000Y21800000D02*
X19850000Y21050000D01*
%TO.N,PULSE-*%
X19975000Y13650000D02*
X24875000Y13650000D01*
X24875000Y13650000D02*
X24975000Y13550000D01*
D17*
%TO.N,OE*%
X11800000Y5600000D02*
X15800000Y1600000D01*
X22800000Y19950000D02*
X24350000Y21500000D01*
X51700000Y17950000D02*
X55900000Y17950000D01*
X22800000Y19100000D02*
X22800000Y19950000D01*
X57950000Y20000000D02*
X58000000Y20000000D01*
X11800000Y10925000D02*
X11800000Y5600000D01*
X24122792Y18450000D02*
X23450000Y18450000D01*
X24350000Y21500000D02*
X48150000Y21500000D01*
X25222792Y19550000D02*
X24122792Y18450000D01*
X11775000Y10950000D02*
X11800000Y10925000D01*
X55900000Y17950000D02*
X57950000Y20000000D01*
X26200000Y19550000D02*
X25222792Y19550000D01*
X27350000Y18400000D02*
X26200000Y19550000D01*
X23450000Y18450000D02*
X22800000Y19100000D01*
X26450000Y2400000D02*
X26450000Y7150000D01*
X15800000Y1600000D02*
X25650000Y1600000D01*
X25650000Y1600000D02*
X26450000Y2400000D01*
X48150000Y21500000D02*
X51700000Y17950000D01*
D18*
%TO.N,~{DAMP}*%
X23750000Y2750000D02*
X24150000Y3150000D01*
X19700000Y15950000D02*
X19150000Y15400000D01*
X19625000Y12825000D02*
X22425000Y12825000D01*
X24150000Y3150000D02*
X24975000Y3150000D01*
X19150000Y15400000D02*
X19150000Y13300000D01*
X23475000Y11775000D02*
X23475000Y9925000D01*
X20700000Y7150000D02*
X20700000Y3350000D01*
X20700000Y3350000D02*
X21300000Y2750000D01*
X19150000Y13300000D02*
X19625000Y12825000D01*
X22425000Y12825000D02*
X23475000Y11775000D01*
X23475000Y9925000D02*
X20700000Y7150000D01*
X21300000Y2750000D02*
X23750000Y2750000D01*
D15*
%TO.N,+HV*%
X42750000Y17450000D02*
X43650000Y17450000D01*
%TD*%
%TA.AperFunction,Conductor*%
%TO.N,GND*%
G36*
X61258131Y22248967D02*
G01*
X61262243Y22248698D01*
X61333288Y22244042D01*
X61333904Y22243999D01*
X61503793Y22231847D01*
X61534585Y22227701D01*
X61637287Y22207272D01*
X61641282Y22206440D01*
X61773359Y22177709D01*
X61800420Y22170198D01*
X61905889Y22134395D01*
X61912790Y22131938D01*
X62032897Y22087140D01*
X62055981Y22077174D01*
X62158302Y22026715D01*
X62167399Y22021991D01*
X62277616Y21961808D01*
X62296598Y21950315D01*
X62392464Y21886260D01*
X62403328Y21878572D01*
X62458258Y21837452D01*
X62502858Y21804064D01*
X62517813Y21791939D01*
X62604872Y21715591D01*
X62616766Y21704452D01*
X62704450Y21616768D01*
X62715589Y21604874D01*
X62791937Y21517815D01*
X62804062Y21502860D01*
X62878563Y21403339D01*
X62886265Y21392455D01*
X62950310Y21296605D01*
X62961815Y21277604D01*
X63021971Y21167436D01*
X63026736Y21158260D01*
X63077165Y21055999D01*
X63087143Y21032887D01*
X63131922Y20912830D01*
X63134407Y20905852D01*
X63170191Y20800437D01*
X63177714Y20773332D01*
X63201292Y20664947D01*
X63206390Y20641513D01*
X63207295Y20637163D01*
X63227695Y20534606D01*
X63231846Y20503791D01*
X63243987Y20334030D01*
X63244088Y20332556D01*
X63248965Y20258163D01*
X63249498Y20241874D01*
X63249498Y17049000D01*
X63230544Y16953712D01*
X63176568Y16872930D01*
X63095786Y16818954D01*
X63000498Y16800000D01*
X62178554Y16800000D01*
X60878554Y15500000D01*
X62178554Y14200000D01*
X63000498Y14200000D01*
X63095786Y14181046D01*
X63176568Y14127070D01*
X63230544Y14046288D01*
X63249498Y13951000D01*
X63249499Y8549000D01*
X63230545Y8453712D01*
X63176569Y8372930D01*
X63095787Y8318954D01*
X63000499Y8300000D01*
X62178554Y8300000D01*
X60878554Y7000000D01*
X62178554Y5700000D01*
X63000499Y5700000D01*
X63095787Y5681046D01*
X63176569Y5627070D01*
X63230545Y5546288D01*
X63249499Y5451000D01*
X63249499Y2008154D01*
X63248966Y1991867D01*
X63244067Y1917131D01*
X63243966Y1915655D01*
X63231848Y1746223D01*
X63227698Y1715408D01*
X63207276Y1612740D01*
X63206370Y1608389D01*
X63177722Y1476697D01*
X63170197Y1449587D01*
X63134380Y1344075D01*
X63131895Y1337097D01*
X63087147Y1217123D01*
X63077169Y1194011D01*
X63026720Y1091710D01*
X63021940Y1082506D01*
X62961829Y972421D01*
X62950323Y953417D01*
X62886246Y857519D01*
X62878545Y846636D01*
X62804074Y747154D01*
X62791946Y732196D01*
X62715564Y645100D01*
X62704427Y633208D01*
X62616792Y545573D01*
X62604899Y534435D01*
X62517800Y458051D01*
X62502843Y445924D01*
X62403363Y371454D01*
X62392479Y363752D01*
X62296580Y299675D01*
X62277579Y288171D01*
X62167518Y228072D01*
X62158310Y223290D01*
X62055974Y172825D01*
X62032864Y162848D01*
X61912910Y118107D01*
X61905932Y115622D01*
X61800419Y79805D01*
X61773308Y72280D01*
X61641581Y43625D01*
X61637232Y42720D01*
X61534587Y22302D01*
X61503770Y18151D01*
X61334342Y6034D01*
X61332870Y5933D01*
X61264475Y1449D01*
X61258130Y1033D01*
X61241844Y500D01*
X57499000Y500D01*
X57403712Y19454D01*
X57322930Y73430D01*
X57268954Y154212D01*
X57250000Y249500D01*
X57250000Y1496166D01*
X57255690Y1549094D01*
X57268696Y1608883D01*
X57296343Y1735974D01*
X57315227Y2000000D01*
X57296343Y2264026D01*
X57258876Y2436261D01*
X57255690Y2450907D01*
X57250000Y2503835D01*
X57250000Y2758293D01*
X57197179Y2772757D01*
X57120428Y2832325D01*
X57089995Y2876136D01*
X57071991Y2909108D01*
X57020716Y3003011D01*
X57020712Y3003017D01*
X57010164Y3017108D01*
X56968234Y3104749D01*
X56960500Y3166326D01*
X56960500Y4431376D01*
X56962412Y4462177D01*
X56964357Y4477779D01*
X56962339Y4526556D01*
X56960713Y4565878D01*
X56960500Y4576169D01*
X56960500Y4602056D01*
X56960500Y4602067D01*
X56958359Y4627892D01*
X56957723Y4638152D01*
X56956383Y4670551D01*
X56954080Y4726237D01*
X56950855Y4741615D01*
X56946405Y4772153D01*
X56945108Y4787821D01*
X56923455Y4873327D01*
X56921142Y4883325D01*
X56903049Y4969614D01*
X56897334Y4984259D01*
X56887923Y5013636D01*
X56884063Y5028881D01*
X56848631Y5109657D01*
X56844710Y5119123D01*
X56812655Y5201274D01*
X56806775Y5211142D01*
X56804606Y5214783D01*
X56790485Y5242217D01*
X56786852Y5250500D01*
X56784173Y5256607D01*
X56735941Y5330431D01*
X56730501Y5339147D01*
X56685367Y5414892D01*
X56685366Y5414894D01*
X56675207Y5426888D01*
X56656761Y5451626D01*
X56650219Y5461639D01*
X56648164Y5464785D01*
X56588420Y5529684D01*
X56581628Y5537376D01*
X56564905Y5557121D01*
X56564901Y5557126D01*
X56546562Y5575465D01*
X56539506Y5582819D01*
X56479744Y5647738D01*
X56467331Y5657399D01*
X56444207Y5677820D01*
X55969859Y6152168D01*
X57575000Y6152168D01*
X57581401Y6092629D01*
X57581403Y6092622D01*
X57631646Y5957913D01*
X57717810Y5842813D01*
X57717812Y5842811D01*
X57832912Y5756647D01*
X57967621Y5706404D01*
X57967628Y5706402D01*
X58027167Y5700001D01*
X58027175Y5700000D01*
X58871446Y5700000D01*
X59578553Y5700000D01*
X61471447Y5700000D01*
X60525000Y6646447D01*
X59578553Y5700001D01*
X59578553Y5700000D01*
X58871446Y5700000D01*
X60171446Y7000000D01*
X58871446Y8300000D01*
X59578553Y8300000D01*
X60525000Y7353554D01*
X61471447Y8300000D01*
X59578553Y8300000D01*
X58871446Y8300000D01*
X58027167Y8300000D01*
X57967628Y8293599D01*
X57967621Y8293597D01*
X57832912Y8243354D01*
X57717812Y8157190D01*
X57717810Y8157188D01*
X57631646Y8042088D01*
X57581403Y7907379D01*
X57581401Y7907372D01*
X57575000Y7847833D01*
X57575000Y6152168D01*
X55969859Y6152168D01*
X55387817Y6734211D01*
X55367389Y6757344D01*
X55357738Y6769744D01*
X55292856Y6829473D01*
X55285474Y6836554D01*
X55267126Y6854902D01*
X55247361Y6871642D01*
X55239646Y6878455D01*
X55174787Y6938162D01*
X55174785Y6938164D01*
X55161631Y6946758D01*
X55136893Y6965204D01*
X55124895Y6975366D01*
X55049127Y7020515D01*
X55040401Y7025962D01*
X55006226Y7048289D01*
X54966607Y7074173D01*
X54952207Y7080490D01*
X54924780Y7094608D01*
X54911274Y7102656D01*
X54911269Y7102658D01*
X54829126Y7134711D01*
X54819620Y7138648D01*
X54738879Y7174064D01*
X54738877Y7174065D01*
X54723624Y7177928D01*
X54694253Y7187337D01*
X54679611Y7193050D01*
X54679609Y7193051D01*
X54593326Y7211143D01*
X54583302Y7213462D01*
X54497824Y7235108D01*
X54497814Y7235110D01*
X54482154Y7236407D01*
X54451630Y7240854D01*
X54436237Y7244081D01*
X54436234Y7244082D01*
X54436230Y7244082D01*
X54348143Y7247725D01*
X54337872Y7248362D01*
X54312071Y7250500D01*
X54312067Y7250500D01*
X54286176Y7250500D01*
X54275885Y7250713D01*
X54187780Y7254358D01*
X54172175Y7252412D01*
X54141375Y7250500D01*
X48724668Y7250500D01*
X48629380Y7269454D01*
X48548598Y7323430D01*
X44573430Y11298598D01*
X44519454Y11379380D01*
X44500500Y11474668D01*
X44500500Y14652168D01*
X57575000Y14652168D01*
X57581401Y14592629D01*
X57581403Y14592622D01*
X57631646Y14457913D01*
X57717810Y14342813D01*
X57717812Y14342811D01*
X57832912Y14256647D01*
X57967621Y14206404D01*
X57967628Y14206402D01*
X58027167Y14200001D01*
X58027175Y14200000D01*
X58871446Y14200000D01*
X59578553Y14200000D01*
X61471447Y14200000D01*
X60525000Y15146447D01*
X59578553Y14200001D01*
X59578553Y14200000D01*
X58871446Y14200000D01*
X60171446Y15500000D01*
X58871446Y16800000D01*
X59578553Y16800000D01*
X60525000Y15853554D01*
X61471447Y16800000D01*
X59578553Y16800000D01*
X58871446Y16800000D01*
X58027167Y16800000D01*
X57967628Y16793599D01*
X57967621Y16793597D01*
X57832912Y16743354D01*
X57717812Y16657190D01*
X57717810Y16657188D01*
X57631646Y16542088D01*
X57581403Y16407379D01*
X57581401Y16407372D01*
X57575000Y16347833D01*
X57575000Y14652168D01*
X44500500Y14652168D01*
X44500500Y16084230D01*
X44519454Y16179518D01*
X44573430Y16260300D01*
X44580857Y16267425D01*
X44757730Y16430249D01*
X44757738Y16430256D01*
X44910474Y16626491D01*
X45028828Y16845190D01*
X45109571Y17080386D01*
X45124226Y17168219D01*
X45128442Y17188325D01*
X45136134Y17218695D01*
X45138720Y17249914D01*
X45141262Y17270310D01*
X45150500Y17325665D01*
X45150500Y17381769D01*
X45151350Y17402330D01*
X45153155Y17424116D01*
X45155300Y17450000D01*
X45151350Y17497672D01*
X45150500Y17518232D01*
X45150500Y17574333D01*
X45150499Y17574338D01*
X45141262Y17629694D01*
X45138720Y17650086D01*
X45136134Y17681305D01*
X45128444Y17711667D01*
X45124226Y17731783D01*
X45109571Y17819614D01*
X45107762Y17824883D01*
X45062017Y17958134D01*
X45028828Y18054810D01*
X44910474Y18273509D01*
X44910471Y18273513D01*
X44910470Y18273515D01*
X44757742Y18469739D01*
X44757741Y18469740D01*
X44757738Y18469744D01*
X44757733Y18469749D01*
X44757730Y18469752D01*
X44574785Y18638164D01*
X44574778Y18638170D01*
X44403089Y18750338D01*
X44366607Y18774173D01*
X44366604Y18774175D01*
X44366603Y18774175D01*
X44217442Y18839603D01*
X44138881Y18874063D01*
X44138879Y18874064D01*
X44138878Y18874064D01*
X44138874Y18874065D01*
X43897831Y18935106D01*
X43897812Y18935110D01*
X43712089Y18950500D01*
X43712067Y18950500D01*
X42786176Y18950500D01*
X42775885Y18950713D01*
X42687779Y18954358D01*
X42600267Y18943450D01*
X42590034Y18942389D01*
X42502188Y18935110D01*
X42502170Y18935107D01*
X42486940Y18931250D01*
X42456633Y18925546D01*
X42441019Y18923600D01*
X42356479Y18898431D01*
X42346582Y18895706D01*
X42320324Y18889056D01*
X42261120Y18874064D01*
X42246721Y18867748D01*
X42217773Y18857136D01*
X42202686Y18852644D01*
X42202676Y18852640D01*
X42123446Y18813908D01*
X42114116Y18809583D01*
X42033394Y18774174D01*
X42033382Y18774168D01*
X42020225Y18765572D01*
X41993415Y18750338D01*
X41979288Y18743432D01*
X41979282Y18743428D01*
X41907519Y18692190D01*
X41899022Y18686385D01*
X41825223Y18638171D01*
X41825209Y18638159D01*
X41813639Y18627509D01*
X41789710Y18608077D01*
X41776904Y18598933D01*
X41714554Y18536584D01*
X41707132Y18529463D01*
X41642266Y18469749D01*
X41642259Y18469742D01*
X41632602Y18457334D01*
X41612191Y18434221D01*
X41601067Y18423097D01*
X41601065Y18423094D01*
X41549827Y18351333D01*
X41543681Y18343090D01*
X41489526Y18273510D01*
X41489522Y18273504D01*
X41482041Y18259680D01*
X41465709Y18233516D01*
X41456572Y18220720D01*
X41456569Y18220714D01*
X41417847Y18141509D01*
X41413142Y18132367D01*
X41371172Y18054811D01*
X41371170Y18054807D01*
X41366063Y18039930D01*
X41354262Y18011442D01*
X41347356Y17997316D01*
X41322197Y17912808D01*
X41319058Y17903010D01*
X41290430Y17819619D01*
X41290427Y17819607D01*
X41287841Y17804110D01*
X41280889Y17774058D01*
X41276402Y17758986D01*
X41276401Y17758980D01*
X41265491Y17671459D01*
X41264007Y17661279D01*
X41249500Y17574338D01*
X41249500Y17558625D01*
X41247588Y17527826D01*
X41245643Y17512221D01*
X41247757Y17461096D01*
X41249287Y17424116D01*
X41249500Y17413825D01*
X41249500Y17325660D01*
X41252087Y17310153D01*
X41255268Y17279479D01*
X41255918Y17263765D01*
X41274010Y17177484D01*
X41275914Y17167369D01*
X41290429Y17080386D01*
X41290430Y17080380D01*
X41295535Y17065510D01*
X41303722Y17035778D01*
X41306948Y17020394D01*
X41306950Y17020387D01*
X41306951Y17020386D01*
X41332966Y16953712D01*
X41338993Y16938267D01*
X41342532Y16928611D01*
X41371172Y16845189D01*
X41378655Y16831362D01*
X41391632Y16803364D01*
X41397343Y16788727D01*
X41442474Y16712988D01*
X41447558Y16704041D01*
X41469488Y16663519D01*
X41498171Y16570695D01*
X41499500Y16545006D01*
X41499500Y10858625D01*
X41497588Y10827826D01*
X41495643Y10812221D01*
X41499287Y10724116D01*
X41499500Y10713825D01*
X41499500Y10687929D01*
X41501638Y10662128D01*
X41502275Y10651857D01*
X41505918Y10563770D01*
X41509146Y10548373D01*
X41513593Y10517846D01*
X41514890Y10502186D01*
X41514892Y10502176D01*
X41536538Y10416698D01*
X41538857Y10406674D01*
X41556949Y10320391D01*
X41556950Y10320389D01*
X41562663Y10305747D01*
X41572072Y10276376D01*
X41575935Y10261123D01*
X41575936Y10261121D01*
X41611352Y10180380D01*
X41615289Y10170874D01*
X41647344Y10088726D01*
X41647345Y10088725D01*
X41655392Y10075220D01*
X41669510Y10047793D01*
X41675827Y10033393D01*
X41690363Y10011144D01*
X41724038Y9959599D01*
X41729485Y9950873D01*
X41774634Y9875105D01*
X41784796Y9863107D01*
X41803242Y9838369D01*
X41811836Y9825215D01*
X41811838Y9825213D01*
X41871545Y9760354D01*
X41878358Y9752639D01*
X41895098Y9732874D01*
X41913446Y9714526D01*
X41920527Y9707144D01*
X41958747Y9665627D01*
X41980255Y9642263D01*
X41992656Y9632611D01*
X42015789Y9612183D01*
X46862183Y4765789D01*
X46882610Y4742657D01*
X46892261Y4730257D01*
X46892263Y4730255D01*
X46957119Y4670551D01*
X46964546Y4663426D01*
X46982880Y4645092D01*
X47002639Y4628357D01*
X47010353Y4621545D01*
X47053739Y4581606D01*
X47075215Y4561836D01*
X47075220Y4561833D01*
X47088374Y4553239D01*
X47113112Y4534793D01*
X47125106Y4524634D01*
X47200881Y4479482D01*
X47209577Y4474054D01*
X47283393Y4425827D01*
X47297792Y4419511D01*
X47325210Y4405398D01*
X47338727Y4397344D01*
X47420892Y4365283D01*
X47430377Y4361354D01*
X47511116Y4325938D01*
X47511117Y4325938D01*
X47511119Y4325937D01*
X47526351Y4322081D01*
X47555746Y4312663D01*
X47570386Y4306950D01*
X47656697Y4288853D01*
X47666696Y4286539D01*
X47683180Y4282365D01*
X47752179Y4264892D01*
X47767848Y4263594D01*
X47798376Y4259146D01*
X47813763Y4255919D01*
X47895775Y4252528D01*
X47901858Y4252276D01*
X47912136Y4251638D01*
X47917775Y4251171D01*
X47937933Y4249500D01*
X47963824Y4249500D01*
X47974115Y4249287D01*
X48062219Y4245643D01*
X48062219Y4245644D01*
X48062221Y4245643D01*
X48077825Y4247588D01*
X48108625Y4249500D01*
X51301000Y4249500D01*
X51396288Y4230546D01*
X51477070Y4176570D01*
X51531046Y4095788D01*
X51550000Y4000500D01*
X51550000Y1794508D01*
X51531046Y1699220D01*
X51477072Y1618441D01*
X51382060Y1523429D01*
X51301282Y1469454D01*
X51205994Y1450500D01*
X36499500Y1450500D01*
X36404212Y1469454D01*
X36323430Y1523430D01*
X36269454Y1604212D01*
X36250500Y1699500D01*
X36250500Y3627189D01*
X36253129Y3663279D01*
X36255289Y3678023D01*
X36251447Y3721942D01*
X36250500Y3743639D01*
X36250500Y3743704D01*
X36250500Y3743709D01*
X36247107Y3772727D01*
X36246380Y3779845D01*
X36239999Y3852797D01*
X36239996Y3852806D01*
X36237779Y3863546D01*
X36235241Y3874254D01*
X36216427Y3925945D01*
X36210204Y3943043D01*
X36207830Y3949876D01*
X36205574Y3956684D01*
X36184814Y4019334D01*
X36184813Y4019336D01*
X36184812Y4019339D01*
X36180175Y4029284D01*
X36175236Y4039118D01*
X36137963Y4095788D01*
X36135007Y4100283D01*
X36131123Y4106380D01*
X36092710Y4168658D01*
X36085896Y4177275D01*
X36078830Y4185696D01*
X36025619Y4235899D01*
X36020425Y4240943D01*
X35432162Y4829206D01*
X35408504Y4856583D01*
X35399609Y4868531D01*
X35399605Y4868535D01*
X35365850Y4896859D01*
X35349852Y4911516D01*
X35349775Y4911593D01*
X35326874Y4929701D01*
X35321264Y4934271D01*
X35270853Y4976570D01*
X35265214Y4981302D01*
X35265207Y4981306D01*
X35256024Y4987346D01*
X35246675Y4993113D01*
X35180327Y5024052D01*
X35173812Y5027206D01*
X35108430Y5060042D01*
X35098099Y5063803D01*
X35087670Y5067258D01*
X35015950Y5082068D01*
X35008883Y5083635D01*
X34937727Y5100499D01*
X34937723Y5100500D01*
X34937721Y5100500D01*
X34937718Y5100500D01*
X34926813Y5101775D01*
X34915858Y5102734D01*
X34915856Y5102734D01*
X34915853Y5102734D01*
X34842690Y5100605D01*
X34835450Y5100500D01*
X33464006Y5100500D01*
X33368718Y5119454D01*
X33287939Y5173428D01*
X33073430Y5387938D01*
X33019454Y5468719D01*
X33000500Y5564007D01*
X33000500Y8135993D01*
X33019454Y8231281D01*
X33073430Y8312063D01*
X33087937Y8326570D01*
X33168719Y8380546D01*
X33264007Y8399500D01*
X35072265Y8399500D01*
X35167553Y8380546D01*
X35196762Y8366142D01*
X35197272Y8365848D01*
X35370189Y8288859D01*
X35370192Y8288858D01*
X35370197Y8288856D01*
X35555354Y8249500D01*
X35744645Y8249500D01*
X35744646Y8249500D01*
X35929803Y8288856D01*
X35940452Y8293597D01*
X36102728Y8365848D01*
X36102728Y8365849D01*
X36102730Y8365849D01*
X36255871Y8477112D01*
X36382533Y8617784D01*
X36477179Y8781716D01*
X36535674Y8961744D01*
X36555460Y9150000D01*
X36535674Y9338256D01*
X36477179Y9518284D01*
X36382533Y9682216D01*
X36382531Y9682219D01*
X36382530Y9682220D01*
X36255873Y9822886D01*
X36255872Y9822887D01*
X36255871Y9822888D01*
X36146115Y9902630D01*
X36102728Y9934153D01*
X35929810Y10011142D01*
X35929796Y10011146D01*
X35744646Y10050500D01*
X35555354Y10050500D01*
X35370203Y10011146D01*
X35370189Y10011142D01*
X35197272Y9934153D01*
X35196762Y9933858D01*
X35196124Y9933642D01*
X35185349Y9928844D01*
X35184908Y9929835D01*
X35104763Y9902630D01*
X35072265Y9900500D01*
X33414008Y9900500D01*
X33318720Y9919454D01*
X33237938Y9973430D01*
X33073430Y10137938D01*
X33019454Y10218720D01*
X33000500Y10314008D01*
X33000500Y14177189D01*
X33003129Y14213279D01*
X33005289Y14228023D01*
X33001448Y14271926D01*
X33000500Y14293628D01*
X33000500Y15397892D01*
X33002731Y15419585D01*
X33001469Y15419695D01*
X33002732Y15434138D01*
X33002731Y15434140D01*
X33002733Y15434144D01*
X33000605Y15507290D01*
X33000500Y15514529D01*
X33000500Y19385993D01*
X33019454Y19481281D01*
X33073430Y19562063D01*
X33237937Y19726570D01*
X33318719Y19780546D01*
X33414007Y19799500D01*
X34687396Y19799500D01*
X34782684Y19780546D01*
X34863466Y19726570D01*
X34917442Y19645788D01*
X34921730Y19634166D01*
X34922817Y19631724D01*
X34922820Y19631719D01*
X34922821Y19631716D01*
X35017467Y19467784D01*
X35017469Y19467781D01*
X35144126Y19327115D01*
X35144129Y19327112D01*
X35225099Y19268284D01*
X35297271Y19215848D01*
X35470189Y19138859D01*
X35470192Y19138858D01*
X35470197Y19138856D01*
X35655354Y19099500D01*
X35844645Y19099500D01*
X35844646Y19099500D01*
X36029803Y19138856D01*
X36202730Y19215849D01*
X36355871Y19327112D01*
X36482533Y19467784D01*
X36577179Y19631716D01*
X36635674Y19811744D01*
X36655460Y20000000D01*
X36635674Y20188256D01*
X36577179Y20368284D01*
X36529192Y20451400D01*
X36514989Y20476001D01*
X36483760Y20568000D01*
X36490115Y20664947D01*
X36533085Y20752082D01*
X36606131Y20816141D01*
X36698130Y20847370D01*
X36730630Y20849500D01*
X47777414Y20849500D01*
X47872702Y20830546D01*
X47953484Y20776570D01*
X51171192Y17558862D01*
X51186981Y17541509D01*
X51194799Y17532058D01*
X51244372Y17485507D01*
X51249988Y17480065D01*
X51264699Y17465355D01*
X51268965Y17461089D01*
X51268972Y17461083D01*
X51272315Y17458136D01*
X51285607Y17446785D01*
X51314607Y17419552D01*
X51314609Y17419551D01*
X51324579Y17414070D01*
X51357238Y17392617D01*
X51366232Y17385640D01*
X51366235Y17385639D01*
X51366236Y17385638D01*
X51375177Y17381769D01*
X51402711Y17369854D01*
X51423784Y17359531D01*
X51444026Y17348403D01*
X51458632Y17340373D01*
X51469662Y17337542D01*
X51506633Y17324883D01*
X51517073Y17320365D01*
X51556340Y17314146D01*
X51579305Y17309390D01*
X51617823Y17299500D01*
X51629213Y17299500D01*
X51668166Y17296435D01*
X51679405Y17294654D01*
X51717016Y17298210D01*
X51718981Y17298395D01*
X51742413Y17299500D01*
X55802643Y17299500D01*
X55826072Y17298395D01*
X55838292Y17297241D01*
X55838296Y17297240D01*
X55906289Y17299378D01*
X55914111Y17299500D01*
X55940922Y17299500D01*
X55940925Y17299500D01*
X55940927Y17299501D01*
X55945458Y17299786D01*
X55962830Y17301155D01*
X56002569Y17302403D01*
X56013502Y17305580D01*
X56051756Y17313502D01*
X56063058Y17314929D01*
X56100038Y17329572D01*
X56122210Y17337163D01*
X56160398Y17348256D01*
X56170195Y17354051D01*
X56205289Y17371243D01*
X56215871Y17375432D01*
X56248046Y17398809D01*
X56267637Y17411678D01*
X56301865Y17431919D01*
X56309916Y17439971D01*
X56339629Y17465348D01*
X56348837Y17472037D01*
X56374176Y17502669D01*
X56389952Y17520008D01*
X57446515Y18576572D01*
X57527297Y18630547D01*
X57622585Y18649501D01*
X58897866Y18649501D01*
X58897872Y18649501D01*
X58957483Y18655909D01*
X59092331Y18706204D01*
X59207546Y18792454D01*
X59293796Y18907669D01*
X59344091Y19042517D01*
X59350500Y19102127D01*
X59350499Y20897872D01*
X59344091Y20957483D01*
X59293796Y21092331D01*
X59207546Y21207546D01*
X59092331Y21293796D01*
X59012117Y21323714D01*
X58957481Y21344092D01*
X58897876Y21350500D01*
X57302947Y21350500D01*
X57232482Y21364517D01*
X57110745Y21351427D01*
X57084126Y21350000D01*
X55735234Y21350000D01*
X55710000Y21330638D01*
X55710000Y20435502D01*
X55602315Y20484680D01*
X55495763Y20500000D01*
X55424237Y20500000D01*
X55317685Y20484680D01*
X55210000Y20435502D01*
X55210000Y21405422D01*
X55202131Y21428602D01*
X55200000Y21461107D01*
X55200000Y22000500D01*
X55218954Y22095788D01*
X55272930Y22176570D01*
X55353712Y22230546D01*
X55449000Y22249500D01*
X61241850Y22249500D01*
X61258131Y22248967D01*
G37*
%TD.AperFunction*%
%TA.AperFunction,Conductor*%
G36*
X17722702Y20580546D02*
G01*
X17803484Y20526570D01*
X18876570Y19453484D01*
X18930546Y19372702D01*
X18949500Y19277414D01*
X18949500Y19018906D01*
X18930546Y18923618D01*
X18885545Y18852295D01*
X18867469Y18832220D01*
X18777407Y18676228D01*
X18772821Y18668284D01*
X18766718Y18649501D01*
X18714325Y18488256D01*
X18694540Y18300000D01*
X18714325Y18111745D01*
X18738204Y18038256D01*
X18772821Y17931716D01*
X18863845Y17774058D01*
X18867469Y17767781D01*
X18973431Y17650099D01*
X18994129Y17627112D01*
X19088394Y17558625D01*
X19147271Y17515848D01*
X19320189Y17438859D01*
X19320192Y17438858D01*
X19320197Y17438856D01*
X19505354Y17399500D01*
X19694645Y17399500D01*
X19694646Y17399500D01*
X19879803Y17438856D01*
X19882299Y17439967D01*
X20052728Y17515848D01*
X20052728Y17515849D01*
X20052730Y17515849D01*
X20205871Y17627112D01*
X20332533Y17767784D01*
X20427179Y17931716D01*
X20485674Y18111744D01*
X20485674Y18111745D01*
X20489707Y18124156D01*
X20492556Y18123231D01*
X20522126Y18192045D01*
X20591721Y18259836D01*
X20681962Y18295833D01*
X20727326Y18300000D01*
X22576915Y18300000D01*
X22672203Y18281046D01*
X22752985Y18227070D01*
X22921184Y18058871D01*
X22936972Y18041520D01*
X22944797Y18032061D01*
X22944798Y18032060D01*
X22994420Y17985462D01*
X23000004Y17980050D01*
X23018965Y17961090D01*
X23022317Y17958134D01*
X23035619Y17946773D01*
X23064607Y17919552D01*
X23074582Y17914068D01*
X23107240Y17892616D01*
X23116237Y17885637D01*
X23152733Y17869844D01*
X23173799Y17859523D01*
X23208632Y17840373D01*
X23216804Y17838276D01*
X23219651Y17837544D01*
X23256624Y17824887D01*
X23267074Y17820364D01*
X23306341Y17814146D01*
X23329316Y17809387D01*
X23367817Y17799501D01*
X23367821Y17799501D01*
X23367823Y17799500D01*
X23379207Y17799500D01*
X23418158Y17796435D01*
X23429405Y17794653D01*
X23468989Y17798395D01*
X23492422Y17799500D01*
X24025435Y17799500D01*
X24048864Y17798395D01*
X24061084Y17797241D01*
X24061088Y17797240D01*
X24129081Y17799378D01*
X24136903Y17799500D01*
X24163714Y17799500D01*
X24163717Y17799500D01*
X24163719Y17799501D01*
X24168250Y17799786D01*
X24185622Y17801155D01*
X24225361Y17802403D01*
X24236294Y17805580D01*
X24274548Y17813502D01*
X24285850Y17814929D01*
X24322830Y17829572D01*
X24345002Y17837163D01*
X24383190Y17848256D01*
X24392987Y17854051D01*
X24428081Y17871243D01*
X24438663Y17875432D01*
X24470838Y17898809D01*
X24490429Y17911678D01*
X24524657Y17931919D01*
X24532708Y17939971D01*
X24562421Y17965348D01*
X24571629Y17972037D01*
X24596973Y18002675D01*
X24612750Y18020014D01*
X25419308Y18826570D01*
X25500089Y18880546D01*
X25595377Y18899500D01*
X25827414Y18899500D01*
X25922702Y18880546D01*
X26003484Y18826570D01*
X26383891Y18446163D01*
X26437867Y18365381D01*
X26455457Y18296122D01*
X26464325Y18211745D01*
X26490117Y18132367D01*
X26522821Y18031716D01*
X26616275Y17869849D01*
X26617469Y17867781D01*
X26739899Y17731810D01*
X26744129Y17727112D01*
X26834101Y17661744D01*
X26897271Y17615848D01*
X27070189Y17538859D01*
X27070192Y17538858D01*
X27070197Y17538856D01*
X27255354Y17499500D01*
X27444645Y17499500D01*
X27444646Y17499500D01*
X27629803Y17538856D01*
X27674205Y17558625D01*
X27802728Y17615848D01*
X27802728Y17615849D01*
X27802730Y17615849D01*
X27955871Y17727112D01*
X28082533Y17867784D01*
X28177179Y18031716D01*
X28235674Y18211744D01*
X28255460Y18400000D01*
X28253033Y18423096D01*
X28251364Y18438974D01*
X28250000Y18465000D01*
X28250000Y18581499D01*
X28250183Y18582421D01*
X28250000Y18583577D01*
X28250000Y19550500D01*
X28268954Y19645788D01*
X28322930Y19726570D01*
X28403712Y19780546D01*
X28499000Y19799500D01*
X31085993Y19799500D01*
X31181281Y19780546D01*
X31262062Y19726570D01*
X31426569Y19562064D01*
X31480546Y19481283D01*
X31499500Y19385995D01*
X31499500Y16084538D01*
X31480546Y15989250D01*
X31426570Y15908468D01*
X31345788Y15854492D01*
X31322785Y15846261D01*
X31265273Y15828815D01*
X31265266Y15828812D01*
X31091463Y15735912D01*
X30939120Y15610886D01*
X30939114Y15610880D01*
X30814088Y15458537D01*
X30721188Y15284734D01*
X30721185Y15284726D01*
X30663975Y15096132D01*
X30644659Y14900000D01*
X30663975Y14703869D01*
X30721185Y14515275D01*
X30721188Y14515267D01*
X30814088Y14341464D01*
X30862265Y14282761D01*
X30939117Y14189117D01*
X31047097Y14100500D01*
X31091463Y14064089D01*
X31265266Y13971189D01*
X31265271Y13971187D01*
X31265273Y13971186D01*
X31322782Y13953741D01*
X31408462Y13907945D01*
X31470097Y13832844D01*
X31498301Y13739873D01*
X31499500Y13715464D01*
X31499500Y9972812D01*
X31496871Y9936725D01*
X31494711Y9921982D01*
X31494711Y9921978D01*
X31498553Y9878060D01*
X31499500Y9856362D01*
X31499500Y9202115D01*
X31497295Y9180418D01*
X31498530Y9180309D01*
X31497266Y9165862D01*
X31497266Y9165857D01*
X31497266Y9165856D01*
X31498409Y9126592D01*
X31499395Y9092691D01*
X31499500Y9085451D01*
X31499500Y8652115D01*
X31497295Y8630418D01*
X31498530Y8630309D01*
X31497266Y8615862D01*
X31499395Y8542691D01*
X31499500Y8535451D01*
X31499500Y5639008D01*
X31480546Y5543720D01*
X31426570Y5462938D01*
X31426569Y5462938D01*
X31248410Y5284780D01*
X31167629Y5230804D01*
X31124116Y5217292D01*
X31095203Y5211146D01*
X31095191Y5211142D01*
X30922271Y5134153D01*
X30769126Y5022886D01*
X30642469Y4882220D01*
X30547822Y4718286D01*
X30489325Y4538256D01*
X30469540Y4350000D01*
X30489325Y4161745D01*
X30518573Y4071730D01*
X30547821Y3981716D01*
X30639520Y3822888D01*
X30642469Y3817781D01*
X30769126Y3677115D01*
X30769129Y3677112D01*
X30875265Y3600000D01*
X30922271Y3565848D01*
X31095189Y3488859D01*
X31095192Y3488858D01*
X31095197Y3488856D01*
X31280354Y3449500D01*
X31469645Y3449500D01*
X31469646Y3449500D01*
X31654803Y3488856D01*
X31827730Y3565849D01*
X31827734Y3565853D01*
X31828238Y3566142D01*
X31828875Y3566359D01*
X31839651Y3571156D01*
X31840091Y3570166D01*
X31920237Y3597370D01*
X31952735Y3599500D01*
X32162279Y3599500D01*
X32220910Y3599500D01*
X32235387Y3599079D01*
X32293935Y3595669D01*
X32294167Y3595710D01*
X32294208Y3595717D01*
X32337445Y3599500D01*
X32947887Y3599500D01*
X32969586Y3597293D01*
X32969695Y3598531D01*
X32984134Y3597269D01*
X32984144Y3597266D01*
X33054277Y3599307D01*
X33057310Y3599395D01*
X33064550Y3599500D01*
X34435992Y3599500D01*
X34531280Y3580546D01*
X34612062Y3526570D01*
X34676570Y3462062D01*
X34730546Y3381280D01*
X34749500Y3285992D01*
X34749500Y1699500D01*
X34730546Y1604212D01*
X34676570Y1523430D01*
X34595788Y1469454D01*
X34500500Y1450500D01*
X27349000Y1450500D01*
X27253712Y1469454D01*
X27172930Y1523430D01*
X27118954Y1604212D01*
X27100000Y1699500D01*
X27100000Y2298197D01*
X27100500Y2306144D01*
X27100500Y2329207D01*
X27103566Y2368162D01*
X27105347Y2379405D01*
X27101605Y2418991D01*
X27100500Y2442423D01*
X27100500Y6431097D01*
X27119454Y6526385D01*
X27164455Y6597708D01*
X27182533Y6617784D01*
X27277179Y6781716D01*
X27335674Y6961744D01*
X27355460Y7150000D01*
X27335674Y7338256D01*
X27277179Y7518284D01*
X27182533Y7682216D01*
X27182531Y7682219D01*
X27182530Y7682220D01*
X27055873Y7822886D01*
X27055872Y7822887D01*
X27055871Y7822888D01*
X26979300Y7878520D01*
X26902728Y7934153D01*
X26729810Y8011142D01*
X26729796Y8011146D01*
X26544646Y8050500D01*
X26355354Y8050500D01*
X26170203Y8011146D01*
X26170189Y8011142D01*
X25997271Y7934153D01*
X25844126Y7822886D01*
X25717469Y7682220D01*
X25717467Y7682216D01*
X25622821Y7518284D01*
X25607651Y7471597D01*
X25564325Y7338256D01*
X25547475Y7177928D01*
X25544540Y7150000D01*
X25547164Y7125027D01*
X25538275Y7028281D01*
X25493039Y6942300D01*
X25418343Y6880175D01*
X25325558Y6851364D01*
X25299529Y6850000D01*
X25087453Y6850000D01*
X25077917Y6850500D01*
X25069646Y6850500D01*
X24880354Y6850500D01*
X24695203Y6811146D01*
X24695189Y6811142D01*
X24522271Y6734153D01*
X24369126Y6622886D01*
X24242469Y6482220D01*
X24147822Y6318286D01*
X24089325Y6138256D01*
X24069540Y5950000D01*
X24089325Y5761747D01*
X24092039Y5748982D01*
X24090618Y5748681D01*
X24100000Y5689456D01*
X24100000Y3945643D01*
X24081046Y3850355D01*
X24027070Y3769573D01*
X23946290Y3715598D01*
X23847159Y3674536D01*
X23847154Y3674534D01*
X23817080Y3651456D01*
X23729945Y3608485D01*
X23665498Y3600000D01*
X22710856Y3600000D01*
X22615568Y3618954D01*
X22534786Y3672930D01*
X22480810Y3753712D01*
X22461856Y3849000D01*
X22474043Y3925945D01*
X22485672Y3961738D01*
X22485671Y3961738D01*
X22485674Y3961744D01*
X22505460Y4150000D01*
X22485674Y4338256D01*
X22427179Y4518284D01*
X22332533Y4682216D01*
X22332531Y4682219D01*
X22332530Y4682220D01*
X22264457Y4757823D01*
X22214782Y4841318D01*
X22200500Y4924436D01*
X22200500Y6498126D01*
X22219454Y6593414D01*
X22273428Y6674194D01*
X24410251Y8811018D01*
X24434731Y8832485D01*
X24453282Y8846718D01*
X24549536Y8972159D01*
X24610044Y9118238D01*
X24625500Y9235639D01*
X24630682Y9275000D01*
X24627630Y9298183D01*
X24625500Y9330683D01*
X24625500Y10973126D01*
X24644454Y11068414D01*
X24698428Y11149194D01*
X26135251Y12586018D01*
X26159731Y12607485D01*
X26178282Y12621718D01*
X26274536Y12747159D01*
X26335044Y12893238D01*
X26347777Y12989956D01*
X26355682Y13050000D01*
X26352630Y13073183D01*
X26350500Y13105683D01*
X26350500Y15519311D01*
X26352630Y15551813D01*
X26355683Y15575000D01*
X26335044Y15731762D01*
X26287617Y15846261D01*
X26274538Y15877837D01*
X26274536Y15877840D01*
X26274536Y15877841D01*
X26268257Y15886024D01*
X26249069Y15911030D01*
X26178286Y16003277D01*
X26178285Y16003278D01*
X26178282Y16003282D01*
X26159728Y16017519D01*
X26135247Y16038988D01*
X25949412Y16224823D01*
X25895436Y16305605D01*
X25877846Y16374867D01*
X25872025Y16430249D01*
X25860674Y16538256D01*
X25802179Y16718284D01*
X25707533Y16882216D01*
X25707531Y16882219D01*
X25707530Y16882220D01*
X25580873Y17022886D01*
X25580872Y17022887D01*
X25580871Y17022888D01*
X25483204Y17093847D01*
X25427728Y17134153D01*
X25254810Y17211142D01*
X25254796Y17211146D01*
X25069646Y17250500D01*
X24880354Y17250500D01*
X24695203Y17211146D01*
X24695189Y17211142D01*
X24522271Y17134153D01*
X24369126Y17022886D01*
X24242469Y16882220D01*
X24162295Y16743354D01*
X24147821Y16718284D01*
X24143193Y16704041D01*
X24089325Y16538256D01*
X24069540Y16350000D01*
X24089325Y16161745D01*
X24114412Y16084538D01*
X24147821Y15981716D01*
X24236099Y15828814D01*
X24242469Y15817781D01*
X24327874Y15722930D01*
X24369129Y15677112D01*
X24406446Y15650000D01*
X24522271Y15565848D01*
X24695189Y15488859D01*
X24695192Y15488858D01*
X24695197Y15488856D01*
X24880354Y15449500D01*
X24900500Y15449500D01*
X24995788Y15430546D01*
X25076570Y15376570D01*
X25130546Y15295788D01*
X25149500Y15200500D01*
X25149500Y14699500D01*
X25130546Y14604212D01*
X25076570Y14523430D01*
X24995788Y14469454D01*
X24900500Y14450500D01*
X24880354Y14450500D01*
X24695203Y14411146D01*
X24695189Y14411142D01*
X24522271Y14334153D01*
X24472588Y14298055D01*
X24384357Y14257380D01*
X24326229Y14250500D01*
X20849000Y14250500D01*
X20753712Y14269454D01*
X20672930Y14323430D01*
X20618954Y14404212D01*
X20600000Y14499500D01*
X20600000Y15885002D01*
X20601364Y15911030D01*
X20605460Y15950000D01*
X20585674Y16138256D01*
X20527179Y16318284D01*
X20432533Y16482216D01*
X20432531Y16482219D01*
X20432530Y16482220D01*
X20305873Y16622886D01*
X20305872Y16622887D01*
X20305871Y16622888D01*
X20187949Y16708563D01*
X20152728Y16734153D01*
X19979810Y16811142D01*
X19979796Y16811146D01*
X19794646Y16850500D01*
X19605354Y16850500D01*
X19420203Y16811146D01*
X19420189Y16811142D01*
X19247271Y16734153D01*
X19094126Y16622886D01*
X18967469Y16482220D01*
X18891132Y16350000D01*
X18872821Y16318284D01*
X18866595Y16299123D01*
X18814325Y16138256D01*
X18798014Y15983055D01*
X18769204Y15890270D01*
X18726453Y15833018D01*
X18721722Y15828288D01*
X18685537Y15781129D01*
X18685535Y15781127D01*
X18659668Y15747417D01*
X18586622Y15683359D01*
X18494623Y15652130D01*
X18462124Y15650000D01*
X17487215Y15650000D01*
X17391927Y15668954D01*
X17311145Y15722930D01*
X17257169Y15803712D01*
X17240345Y15866499D01*
X17235044Y15906762D01*
X17195064Y16003282D01*
X17174536Y16052841D01*
X17147786Y16087702D01*
X17078282Y16178282D01*
X17059728Y16192519D01*
X17035247Y16213988D01*
X14363987Y18885248D01*
X14342510Y18909739D01*
X14331874Y18923600D01*
X14328282Y18928282D01*
X14319387Y18935107D01*
X14252409Y18986501D01*
X14202841Y19024536D01*
X14056762Y19085044D01*
X14056760Y19085045D01*
X13976407Y19095623D01*
X13923182Y19102630D01*
X13900000Y19105682D01*
X13899999Y19105682D01*
X13876817Y19102630D01*
X13844317Y19100500D01*
X13062604Y19100500D01*
X12967316Y19119454D01*
X12886534Y19173430D01*
X12832558Y19254212D01*
X12828269Y19265835D01*
X12827182Y19268277D01*
X12827180Y19268280D01*
X12827179Y19268284D01*
X12732533Y19432216D01*
X12732531Y19432219D01*
X12732530Y19432220D01*
X12605873Y19572886D01*
X12605872Y19572887D01*
X12605871Y19572888D01*
X12507158Y19644607D01*
X12452728Y19684153D01*
X12279810Y19761142D01*
X12279796Y19761146D01*
X12094646Y19800500D01*
X11905354Y19800500D01*
X11720203Y19761146D01*
X11720189Y19761142D01*
X11547271Y19684153D01*
X11394126Y19572886D01*
X11267469Y19432220D01*
X11216877Y19344592D01*
X11172821Y19268284D01*
X11170502Y19261146D01*
X11114325Y19088256D01*
X11094540Y18900000D01*
X11114326Y18711744D01*
X11114326Y18711742D01*
X11172819Y18531720D01*
X11191423Y18499496D01*
X11222650Y18407496D01*
X11216294Y18310549D01*
X11191423Y18250504D01*
X11172819Y18218281D01*
X11114326Y18038259D01*
X11114326Y18038257D01*
X11094540Y17850000D01*
X11114325Y17661745D01*
X11142726Y17574338D01*
X11172821Y17481716D01*
X11262915Y17325668D01*
X11267469Y17317781D01*
X11363486Y17211144D01*
X11394129Y17177112D01*
X11478862Y17115550D01*
X11547271Y17065848D01*
X11720189Y16988859D01*
X11720192Y16988858D01*
X11720197Y16988856D01*
X11905354Y16949500D01*
X12094645Y16949500D01*
X12094646Y16949500D01*
X12279803Y16988856D01*
X12385191Y17035778D01*
X12452728Y17065848D01*
X12452728Y17065849D01*
X12452730Y17065849D01*
X12605871Y17177112D01*
X12671950Y17250500D01*
X12731931Y17317114D01*
X12809777Y17375244D01*
X12903943Y17399159D01*
X12916973Y17399500D01*
X13398125Y17399500D01*
X13493413Y17380546D01*
X13574195Y17326570D01*
X15526570Y15374195D01*
X15580546Y15293413D01*
X15599500Y15198125D01*
X15599500Y14349000D01*
X15580546Y14253712D01*
X15526570Y14172930D01*
X15445788Y14118954D01*
X15350500Y14100000D01*
X14162453Y14100000D01*
X14152917Y14100500D01*
X14144646Y14100500D01*
X13955354Y14100500D01*
X13770203Y14061146D01*
X13770189Y14061142D01*
X13597271Y13984153D01*
X13444126Y13872886D01*
X13317469Y13732220D01*
X13222821Y13568285D01*
X13175308Y13422054D01*
X13127835Y13337287D01*
X13051538Y13277139D01*
X12958030Y13250768D01*
X12938495Y13250000D01*
X12573086Y13250000D01*
X12477798Y13268954D01*
X12397016Y13322930D01*
X10323430Y15396516D01*
X10269454Y15477298D01*
X10250500Y15572586D01*
X10250500Y19827414D01*
X10269454Y19922702D01*
X10323430Y20003484D01*
X10846516Y20526570D01*
X10927298Y20580546D01*
X11022586Y20599500D01*
X17627414Y20599500D01*
X17722702Y20580546D01*
G37*
%TD.AperFunction*%
%TA.AperFunction,Conductor*%
G36*
X8296288Y22230546D02*
G01*
X8377070Y22176570D01*
X8431046Y22095788D01*
X8450000Y22000500D01*
X8450000Y20509481D01*
X8447870Y20476981D01*
X8444318Y20450001D01*
X8447370Y20426819D01*
X8449500Y20394318D01*
X8449500Y14930683D01*
X8447370Y14898183D01*
X8444318Y14875001D01*
X8449500Y14835639D01*
X8449500Y14835638D01*
X8464955Y14718240D01*
X8476131Y14691259D01*
X8525464Y14572159D01*
X8525465Y14572157D01*
X8525466Y14572156D01*
X8613127Y14457913D01*
X8621718Y14446718D01*
X8632041Y14438797D01*
X8640268Y14432484D01*
X8664755Y14411010D01*
X9927070Y13148695D01*
X9981046Y13067913D01*
X10000000Y12972625D01*
X10000000Y12161516D01*
X9987813Y12084570D01*
X9976826Y12050757D01*
X9957040Y11862500D01*
X9976825Y11674245D01*
X10005537Y11585881D01*
X10035321Y11494216D01*
X10129967Y11330284D01*
X10148043Y11310209D01*
X10197716Y11226720D01*
X10212000Y11143597D01*
X10212000Y5104059D01*
X10200000Y5043732D01*
X10200000Y3399000D01*
X10181046Y3303712D01*
X10127070Y3222930D01*
X10046288Y3168954D01*
X9951000Y3150000D01*
X7453870Y3150000D01*
X7440542Y3150357D01*
X7437874Y3150500D01*
X5642135Y3150500D01*
X5639487Y3150357D01*
X5626154Y3150000D01*
X4249983Y3150000D01*
X4249966Y3147946D01*
X4247966Y3027107D01*
X4237427Y2978355D01*
X4250000Y2909108D01*
X4250000Y2235502D01*
X4142315Y2284680D01*
X4035763Y2300000D01*
X3964237Y2300000D01*
X3857685Y2284680D01*
X3750000Y2235502D01*
X3750000Y2909175D01*
X3761871Y2968856D01*
X3750000Y3031228D01*
X3750000Y3130636D01*
X3749998Y3130637D01*
X3536516Y3073434D01*
X3536505Y3073430D01*
X3322428Y2973604D01*
X3322420Y2973600D01*
X3128923Y2838111D01*
X2961889Y2671077D01*
X2826400Y2477580D01*
X2826396Y2477572D01*
X2726570Y2263495D01*
X2726566Y2263484D01*
X2669363Y2050002D01*
X2669364Y2050000D01*
X3566314Y2050000D01*
X3540507Y2009844D01*
X3500000Y1871889D01*
X3500000Y1728111D01*
X3540507Y1590156D01*
X3566314Y1550000D01*
X264274Y1550000D01*
X168986Y1568954D01*
X88204Y1622930D01*
X34228Y1703712D01*
X15986Y1780180D01*
X6626Y1903699D01*
X6563Y1904556D01*
X1103Y1982758D01*
X500Y2000042D01*
X500Y11959998D01*
X2644341Y11959998D01*
X2649052Y11906156D01*
X2650000Y11884452D01*
X2650000Y9670000D01*
X3566314Y9670000D01*
X3540507Y9629844D01*
X3500000Y9491889D01*
X3500000Y9348111D01*
X3540507Y9210156D01*
X3566314Y9170000D01*
X2650000Y9170000D01*
X2650000Y7793867D01*
X2649643Y7780536D01*
X2649500Y7777869D01*
X2649500Y5982135D01*
X2649500Y5982132D01*
X2649501Y5982128D01*
X2650527Y5972586D01*
X2655908Y5922520D01*
X2655909Y5922516D01*
X2685637Y5842811D01*
X2706204Y5787669D01*
X2792454Y5672454D01*
X2907669Y5586204D01*
X3042517Y5535909D01*
X3102127Y5529500D01*
X4897872Y5529501D01*
X4957483Y5535909D01*
X5092331Y5586204D01*
X5207546Y5672454D01*
X5293796Y5787669D01*
X5344091Y5922517D01*
X5350500Y5982127D01*
X5350499Y7777872D01*
X5350498Y7777876D01*
X5350357Y7780516D01*
X5350000Y7793847D01*
X5350000Y9169847D01*
X5349832Y9170000D01*
X5254109Y9170000D01*
X5212160Y9173559D01*
X5208890Y9174118D01*
X5194234Y9170366D01*
X5180734Y9170000D01*
X4433686Y9170000D01*
X4459493Y9210156D01*
X4500000Y9348111D01*
X4500000Y9491889D01*
X4459493Y9629844D01*
X4433686Y9670000D01*
X5181438Y9670000D01*
X5203423Y9665627D01*
X5242407Y9670000D01*
X5330634Y9670000D01*
X5350000Y9695239D01*
X5350000Y11884452D01*
X5350948Y11906156D01*
X5355659Y11959998D01*
X5355659Y11960004D01*
X5350948Y12013847D01*
X5350000Y12035550D01*
X5350000Y14424452D01*
X5350948Y14446156D01*
X5352987Y14469454D01*
X5355659Y14500000D01*
X5354323Y14515267D01*
X5350948Y14553847D01*
X5350000Y14575550D01*
X5350000Y16964452D01*
X5350948Y16986156D01*
X5355659Y17039998D01*
X5355659Y17040004D01*
X5350948Y17093847D01*
X5350000Y17115550D01*
X5350000Y19504452D01*
X5350948Y19526156D01*
X5356607Y19590832D01*
X5356607Y19590837D01*
X5361311Y19644607D01*
X5357476Y19651036D01*
X5344047Y19712713D01*
X5335063Y19815408D01*
X5273903Y20043663D01*
X5174035Y20257829D01*
X5173822Y20258133D01*
X5090510Y20377115D01*
X5038495Y20451401D01*
X4871401Y20618495D01*
X4844740Y20637163D01*
X4677830Y20754035D01*
X4648935Y20767509D01*
X4463663Y20853903D01*
X4463660Y20853904D01*
X4235401Y20915065D01*
X4000005Y20935659D01*
X3999995Y20935659D01*
X3764598Y20915065D01*
X3536335Y20853903D01*
X3536333Y20853902D01*
X3322177Y20754039D01*
X3322169Y20754035D01*
X3128600Y20618496D01*
X2961504Y20451400D01*
X2825965Y20257831D01*
X2825961Y20257823D01*
X2726098Y20043667D01*
X2726097Y20043665D01*
X2664935Y19815402D01*
X2644341Y19580006D01*
X2644341Y19579998D01*
X2649052Y19526156D01*
X2650000Y19504452D01*
X2650000Y17115550D01*
X2649052Y17093847D01*
X2644341Y17040004D01*
X2644341Y17039998D01*
X2649052Y16986156D01*
X2650000Y16964452D01*
X2650000Y14575550D01*
X2649052Y14553847D01*
X2645677Y14515267D01*
X2644341Y14500000D01*
X2647013Y14469454D01*
X2649052Y14446156D01*
X2650000Y14424452D01*
X2650000Y12035550D01*
X2649052Y12013847D01*
X2644341Y11960004D01*
X2644341Y11959998D01*
X500Y11959998D01*
X500Y20241850D01*
X1033Y20258133D01*
X5442Y20325407D01*
X5940Y20333008D01*
X6031Y20334331D01*
X6107Y20335388D01*
X18151Y20503793D01*
X22298Y20534577D01*
X42729Y20637291D01*
X43608Y20641513D01*
X72283Y20773331D01*
X79795Y20800400D01*
X115655Y20906038D01*
X118075Y20912830D01*
X162858Y21032900D01*
X172817Y21055964D01*
X223313Y21158360D01*
X228042Y21167465D01*
X288183Y21277606D01*
X299652Y21296550D01*
X363783Y21392529D01*
X371434Y21403339D01*
X445955Y21502887D01*
X458007Y21517753D01*
X534466Y21604938D01*
X545530Y21616751D01*
X633249Y21704470D01*
X645062Y21715534D01*
X732247Y21791993D01*
X747113Y21804045D01*
X846680Y21878581D01*
X857471Y21886217D01*
X953450Y21950348D01*
X972397Y21961818D01*
X1082539Y22021961D01*
X1091640Y22026687D01*
X1194036Y22077183D01*
X1217100Y22087142D01*
X1337212Y22131941D01*
X1343961Y22134345D01*
X1449600Y22170205D01*
X1476669Y22177717D01*
X1608532Y22206402D01*
X1612708Y22207271D01*
X1715423Y22227702D01*
X1746205Y22231849D01*
X1915910Y22243986D01*
X1916870Y22244052D01*
X1991868Y22248968D01*
X2008150Y22249500D01*
X8201000Y22249500D01*
X8296288Y22230546D01*
G37*
%TD.AperFunction*%
%TA.AperFunction,Conductor*%
G36*
X13429393Y9731046D02*
G01*
X13429394Y9731045D01*
X13468235Y9714956D01*
X13498879Y9710922D01*
X13625000Y9694318D01*
X13645788Y9697055D01*
X13648183Y9697370D01*
X13680683Y9699500D01*
X15594317Y9699500D01*
X15626817Y9697370D01*
X15629532Y9697013D01*
X15650000Y9694318D01*
X15777173Y9711061D01*
X15806764Y9714956D01*
X15845606Y9731045D01*
X15940894Y9750000D01*
X17772625Y9750000D01*
X17867913Y9731046D01*
X17948695Y9677070D01*
X18036012Y9589753D01*
X18057481Y9565272D01*
X18071718Y9546718D01*
X18152430Y9484786D01*
X18197159Y9450464D01*
X18343238Y9389956D01*
X18500000Y9369318D01*
X18520788Y9372055D01*
X18523183Y9372370D01*
X18555683Y9374500D01*
X19001000Y9374500D01*
X19096288Y9355546D01*
X19177070Y9301570D01*
X19231046Y9220788D01*
X19250000Y9125500D01*
X19250000Y7409481D01*
X19247870Y7376981D01*
X19244318Y7350001D01*
X19247370Y7326819D01*
X19249500Y7294318D01*
X19249500Y5749000D01*
X19230546Y5653712D01*
X19176570Y5572930D01*
X19095788Y5518954D01*
X19000500Y5500000D01*
X17303539Y5500000D01*
X17242820Y5509618D01*
X17242568Y5508431D01*
X17044646Y5550500D01*
X16855354Y5550500D01*
X16657432Y5508431D01*
X16657179Y5509618D01*
X16596461Y5500000D01*
X12923086Y5500000D01*
X12827798Y5518954D01*
X12747016Y5572930D01*
X12523430Y5796516D01*
X12469454Y5877298D01*
X12450500Y5972586D01*
X12450500Y9501000D01*
X12469454Y9596288D01*
X12523430Y9677070D01*
X12604212Y9731046D01*
X12699500Y9750000D01*
X13334105Y9750000D01*
X13429393Y9731046D01*
G37*
%TD.AperFunction*%
%TD*%
M02*
