%TF.GenerationSoftware,KiCad,Pcbnew,9.0.4*%
%TF.CreationDate,2025-10-07T14:59:10+07:00*%
%TF.ProjectId,pic0rick_Adapter,70696330-7269-4636-9b5f-416461707465,rev?*%
%TF.SameCoordinates,PX7641700PY7088980*%
%TF.FileFunction,Soldermask,Top*%
%TF.FilePolarity,Negative*%
%FSLAX46Y46*%
G04 Gerber Fmt 4.6, Leading zero omitted, Abs format (unit mm)*
G04 Created by KiCad (PCBNEW 9.0.4) date 2025-10-07 14:59:10*
%MOMM*%
%LPD*%
G01*
G04 APERTURE LIST*
%ADD10C,3.200000*%
%ADD11R,1.700000X1.700000*%
%ADD12C,1.700000*%
G04 APERTURE END LIST*
D10*
%TO.C,REF\u002A\u002A*%
X33750000Y56000000D03*
%TD*%
%TO.C,REF\u002A\u002A*%
X3500000Y56000000D03*
%TD*%
%TO.C,REF\u002A\u002A*%
X33750000Y-1250000D03*
%TD*%
%TO.C,REF\u002A\u002A*%
X3500000Y-1250000D03*
%TD*%
D11*
%TO.C,J5*%
X33210000Y28120000D03*
D12*
X35750000Y28120000D03*
%TD*%
D11*
%TO.C,J11*%
X8500000Y5250000D03*
D12*
X11040000Y5250000D03*
X13579999Y5250000D03*
X16120000Y5250000D03*
X18660000Y5250000D03*
X21200000Y5250000D03*
X23740000Y5250000D03*
X26280001Y5250000D03*
X28820000Y5250000D03*
%TD*%
D11*
%TO.C,J1*%
X8450000Y1625000D03*
D12*
X10990000Y1625000D03*
X13529999Y1625000D03*
X16070000Y1625000D03*
X18610000Y1625000D03*
X21150000Y1625000D03*
X23690000Y1625000D03*
X26230001Y1625000D03*
X28770000Y1625000D03*
%TD*%
D11*
%TO.C,J10*%
X4000000Y5270000D03*
D12*
X1460000Y5270000D03*
%TD*%
D11*
%TO.C,J4*%
X1460000Y45910000D03*
D12*
X1460000Y43370000D03*
X1460000Y40830001D03*
X1460000Y38290000D03*
X1460000Y35750000D03*
X1460000Y33210000D03*
%TD*%
D11*
%TO.C,J7*%
X33210000Y50980000D03*
D12*
X35750000Y50980000D03*
%TD*%
D11*
%TO.C,J3*%
X35750000Y45900000D03*
D12*
X35750000Y43360000D03*
X35750000Y40820001D03*
X35750000Y38280000D03*
X35750000Y35740000D03*
X35750000Y33200000D03*
%TD*%
D11*
%TO.C,J9*%
X4000000Y28130000D03*
D12*
X1460000Y28130000D03*
%TD*%
D11*
%TO.C,J12*%
X4000000Y51000000D03*
D12*
X1460000Y51000000D03*
%TD*%
D11*
%TO.C,J6*%
X33210000Y23039999D03*
D12*
X35750000Y23039999D03*
X33210000Y20499999D03*
X35750000Y20499999D03*
X33210000Y17960000D03*
X35750000Y17959999D03*
X33210000Y15419999D03*
X35750000Y15419999D03*
X33210000Y12879999D03*
X35750000Y12879999D03*
X33210000Y10339999D03*
X35750000Y10339999D03*
%TD*%
D11*
%TO.C,J2*%
X33210000Y5270000D03*
D12*
X35750000Y5270000D03*
%TD*%
D11*
%TO.C,J8*%
X4000000Y23050000D03*
D12*
X1460000Y23050000D03*
X4000000Y20510000D03*
X1460000Y20510000D03*
X4000000Y17970000D03*
X1460000Y17970000D03*
X4000000Y15430000D03*
X1460000Y15430000D03*
X4000000Y12890000D03*
X1460000Y12890000D03*
X4000000Y10350000D03*
X1460000Y10350000D03*
%TD*%
M02*
