M48
; DRILL file {KiCad 9.0.4} date 2025-10-07T14:59:12+0700
; FORMAT={-:-/ absolute / inch / decimal}
; #@! TF.CreationDate,2025-10-07T14:59:12+07:00
; #@! TF.GenerationSoftware,Kicad,Pcbnew,9.0.4
; #@! TF.FileFunction,Plated,1,2,PTH
FMAT,2
INCH
; #@! TA.AperFunction,Plated,PTH,ViaDrill
T1C0.0118
; #@! TA.AperFunction,Plated,PTH,ComponentDrill
T2C0.0394
%
G90
G05
T1
X0.0492Y0.0492
X0.1378Y1.5453
X0.1575Y0.0492
X0.2264Y1.939
X0.2264Y1.8799
X0.2264Y1.5453
X0.2362Y0.1083
X0.2461Y1.4075
X0.2559Y1.0236
X0.2559Y0.8366
X0.2657Y2.0768
X0.2657Y1.25
X0.2657Y1.1811
X0.2657Y0.6594
X0.2854Y0.5413
X0.3051Y1.752
X0.3051Y0.6201
X0.315Y1.939
X0.3248Y1.7126
X0.3445Y1.6732
X0.3445Y0.5413
X0.3543Y0.4823
X0.3642Y0.6398
X0.374Y2.0768
X0.3839Y1.8602
X0.3937Y1.6831
X0.3937Y1.5453
X0.4035Y1.4567
X0.4035Y1.2598
X0.4134Y1.7126
X0.4232Y0.5512
X0.4724Y1.7421
X0.4724Y1.2598
X0.4823Y2.0768
X0.4823Y1.6831
X0.4823Y1.5453
X0.4823Y1.4567
X0.4823Y1.378
X0.4921Y1.1713
X0.5217Y1.9488
X0.5512Y1.1083
X0.5512Y0.8366
X0.5807Y1.8799
X0.6004Y2.0768
X0.6102Y1.6732
X0.6201Y1.752
X0.6201Y0.8858
X0.6201Y0.7776
X0.6299Y1.939
X0.6299Y1.7126
X0.6299Y1.5354
X0.6299Y1.378
X0.6299Y1.2106
X0.6299Y0.689
X0.6398Y1.4469
X0.6398Y1.0335
X0.6594Y1.6831
X0.6791Y0.563
X0.6988Y1.7323
X0.7185Y0.8858
X0.7283Y1.2106
X0.7382Y1.8701
X0.7382Y1.5453
X0.748Y2.0768
X0.7579Y1.0335
X0.7579Y0.7677
X0.7677Y0.6102
X0.7776Y1.4764
X0.7776Y1.378
X0.7874Y1.9488
X0.7874Y1.6043
X0.8346Y0.1339
X0.8366Y1.6831
X0.8465Y0.8858
X0.8661Y0.7087
X0.876Y2.0768
X0.8858Y1.7421
X0.8858Y1.4862
X0.8957Y1.5945
X0.8957Y0.7972
X0.9154Y1.8701
X0.9154Y1.378
X0.9252Y1.2205
X0.9252Y1.0335
X0.935Y1.9488
X0.9695Y0.6142
X0.9843Y1.4764
X1.0039Y2.0768
X1.0039Y1.7421
X1.0039Y1.624
X1.0197Y0.6152
X1.0256Y0.502
X1.0531Y1.0335
X1.063Y1.378
X1.063Y1.2205
X1.0699Y0.6161
X1.0728Y1.5354
X1.0728Y1.4469
X1.0728Y0.5217
X1.0827Y1.9488
X1.0827Y0.561
X1.1122Y1.8701
X1.1122Y1.5945
X1.1122Y0.5217
X1.1122Y0.4823
X1.1417Y2.0669
X1.1516Y1.7421
X1.1516Y0.4921
X1.1614Y1.6535
X1.2008Y1.9488
X1.2008Y1.1811
X1.2106Y1.2402
X1.2106Y1.0335
X1.2303Y2.0866
X1.2303Y1.378
X1.2303Y0.0492
X1.2598Y1.8701
X1.2697Y1.4567
X1.3091Y1.7421
X1.3189Y1.3976
X1.3287Y0.0492
X1.3386Y1.4567
X1.4173Y2.0768
X1.4173Y0.0492
T2
X0.0575Y2.0079
X0.0575Y1.8075
X0.0575Y1.7075
X0.0575Y1.6075
X0.0575Y1.5075
X0.0575Y1.4075
X0.0575Y1.3075
X0.0575Y1.1075
X0.0575Y0.9075
X0.0575Y0.8075
X0.0575Y0.7075
X0.0575Y0.6075
X0.0575Y0.5075
X0.0575Y0.4075
X0.0575Y0.2075
X0.1575Y2.0079
X0.1575Y1.1075
X0.1575Y0.9075
X0.1575Y0.8075
X0.1575Y0.7075
X0.1575Y0.6075
X0.1575Y0.5075
X0.1575Y0.4075
X0.1575Y0.2075
X0.3327Y0.064
X0.3346Y0.2067
X0.4327Y0.064
X0.4346Y0.2067
X0.5327Y0.064
X0.5346Y0.2067
X0.6327Y0.064
X0.6346Y0.2067
X0.7327Y0.064
X0.7346Y0.2067
X0.8327Y0.064
X0.8346Y0.2067
X0.9327Y0.064
X0.9346Y0.2067
X1.0327Y0.064
X1.0346Y0.2067
X1.1327Y0.064
X1.1346Y0.2067
X1.3075Y2.0071
X1.3075Y1.1071
X1.3075Y0.9071
X1.3075Y0.8071
X1.3075Y0.7071
X1.3075Y0.6071
X1.3075Y0.5071
X1.3075Y0.4071
X1.3075Y0.2075
X1.4075Y2.0071
X1.4075Y1.8071
X1.4075Y1.7071
X1.4075Y1.6071
X1.4075Y1.5071
X1.4075Y1.4071
X1.4075Y1.3071
X1.4075Y1.1071
X1.4075Y0.9071
X1.4075Y0.8071
X1.4075Y0.7071
X1.4075Y0.6071
X1.4075Y0.5071
X1.4075Y0.4071
X1.4075Y0.2075
M30
