%TF.GenerationSoftware,KiCad,Pcbnew,9.0.4*%
%TF.CreationDate,2025-10-07T14:59:10+07:00*%
%TF.ProjectId,pic0rick_Adapter,70696330-7269-4636-9b5f-416461707465,rev?*%
%TF.SameCoordinates,PX7641700PY7088980*%
%TF.FileFunction,Copper,L2,Bot*%
%TF.FilePolarity,Positive*%
%FSLAX46Y46*%
G04 Gerber Fmt 4.6, Leading zero omitted, Abs format (unit mm)*
G04 Created by KiCad (PCBNEW 9.0.4) date 2025-10-07 14:59:10*
%MOMM*%
%LPD*%
G01*
G04 APERTURE LIST*
%TA.AperFunction,ComponentPad*%
%ADD10R,1.700000X1.700000*%
%TD*%
%TA.AperFunction,ComponentPad*%
%ADD11C,1.700000*%
%TD*%
%TA.AperFunction,ViaPad*%
%ADD12C,0.600000*%
%TD*%
%TA.AperFunction,Conductor*%
%ADD13C,0.300000*%
%TD*%
%TA.AperFunction,Conductor*%
%ADD14C,1.000000*%
%TD*%
G04 APERTURE END LIST*
D10*
%TO.P,J5,1,Pin_1*%
%TO.N,+5V*%
X33210000Y28120000D03*
D11*
%TO.P,J5,2,Pin_2*%
%TO.N,GND*%
X35750000Y28120000D03*
%TD*%
D10*
%TO.P,J11,1,Pin_1*%
%TO.N,unconnected-(J1-Pin_1-Pad1)*%
X8500000Y5250000D03*
D11*
%TO.P,J11,2,Pin_2*%
%TO.N,GPIO20*%
X11040000Y5250000D03*
%TO.P,J11,3,Pin_3*%
%TO.N,GPIO19*%
X13579999Y5250000D03*
%TO.P,J11,4,Pin_4*%
%TO.N,GPIO21*%
X16120000Y5250000D03*
%TO.P,J11,5,Pin_5*%
%TO.N,GPIO17*%
X18660000Y5250000D03*
%TO.P,J11,6,Pin_6*%
%TO.N,GPIO18*%
X21200000Y5250000D03*
%TO.P,J11,7,Pin_7*%
%TO.N,GPIO16*%
X23740000Y5250000D03*
%TO.P,J11,8,Pin_8*%
%TO.N,GND*%
X26280001Y5250000D03*
%TO.P,J11,9,Pin_9*%
%TO.N,+3.3V*%
X28820000Y5250000D03*
%TD*%
D10*
%TO.P,J1,1,Pin_1*%
%TO.N,unconnected-(J1-Pin_1-Pad1)*%
X8450000Y1625000D03*
D11*
%TO.P,J1,2,Pin_2*%
%TO.N,GPIO20*%
X10990000Y1625000D03*
%TO.P,J1,3,Pin_3*%
%TO.N,GPIO19*%
X13529999Y1625000D03*
%TO.P,J1,4,Pin_4*%
%TO.N,GPIO18*%
X16070000Y1625000D03*
%TO.P,J1,5,Pin_5*%
%TO.N,GPIO17*%
X18610000Y1625000D03*
%TO.P,J1,6,Pin_6*%
%TO.N,GPIO16*%
X21150000Y1625000D03*
%TO.P,J1,7,Pin_7*%
%TO.N,GPIO21*%
X23690000Y1625000D03*
%TO.P,J1,8,Pin_8*%
%TO.N,GND*%
X26230001Y1625000D03*
%TO.P,J1,9,Pin_9*%
%TO.N,+3.3V*%
X28770000Y1625000D03*
%TD*%
D10*
%TO.P,J10,1,Pin_1*%
%TO.N,+5V*%
X4000000Y5270000D03*
D11*
%TO.P,J10,2,Pin_2*%
%TO.N,GND*%
X1460000Y5270000D03*
%TD*%
D10*
%TO.P,J4,1,Pin_1*%
%TO.N,+3.3V*%
X1460000Y45910000D03*
D11*
%TO.P,J4,2,Pin_2*%
%TO.N,GND*%
X1460000Y43370000D03*
%TO.P,J4,3,Pin_3*%
%TO.N,+3.3V*%
X1460000Y40830001D03*
%TO.P,J4,4,Pin_4*%
%TO.N,GPIO12*%
X1460000Y38290000D03*
%TO.P,J4,5,Pin_5*%
%TO.N,unconnected-(J4-Pin_5-Pad5)*%
X1460000Y35750000D03*
%TO.P,J4,6,Pin_6*%
%TO.N,GPIO11*%
X1460000Y33210000D03*
%TD*%
D10*
%TO.P,J7,1,Pin_1*%
%TO.N,+5V*%
X33210000Y50980000D03*
D11*
%TO.P,J7,2,Pin_2*%
%TO.N,GND*%
X35750000Y50980000D03*
%TD*%
D10*
%TO.P,J3,1,Pin_1*%
%TO.N,+3.3V*%
X35750000Y45900000D03*
D11*
%TO.P,J3,2,Pin_2*%
%TO.N,GND*%
X35750000Y43360000D03*
%TO.P,J3,3,Pin_3*%
%TO.N,GPIO17*%
X35750000Y40820001D03*
%TO.P,J3,4,Pin_4*%
%TO.N,GPIO16*%
X35750000Y38280000D03*
%TO.P,J3,5,Pin_5*%
%TO.N,GPIO12*%
X35750000Y35740000D03*
%TO.P,J3,6,Pin_6*%
%TO.N,GPIO11*%
X35750000Y33200000D03*
%TD*%
D10*
%TO.P,J9,1,Pin_1*%
%TO.N,+5V*%
X4000000Y28130000D03*
D11*
%TO.P,J9,2,Pin_2*%
%TO.N,GND*%
X1460000Y28130000D03*
%TD*%
D10*
%TO.P,J12,1,Pin_1*%
%TO.N,+5V*%
X4000000Y51000000D03*
D11*
%TO.P,J12,2,Pin_2*%
%TO.N,GND*%
X1460000Y51000000D03*
%TD*%
D10*
%TO.P,J6,1,Pin_1*%
%TO.N,+3.3V*%
X33210000Y23039999D03*
D11*
%TO.P,J6,2,Pin_2*%
X35750000Y23039999D03*
%TO.P,J6,3,Pin_3*%
%TO.N,GND*%
X33210000Y20499999D03*
%TO.P,J6,4,Pin_4*%
X35750000Y20499999D03*
%TO.P,J6,5,Pin_5*%
%TO.N,GPIO21*%
X33210000Y17960000D03*
%TO.P,J6,6,Pin_6*%
%TO.N,GPIO28*%
X35750000Y17959999D03*
%TO.P,J6,7,Pin_7*%
%TO.N,GPIO20*%
X33210000Y15419999D03*
%TO.P,J6,8,Pin_8*%
%TO.N,GPIO27*%
X35750000Y15419999D03*
%TO.P,J6,9,Pin_9*%
%TO.N,GPIO19*%
X33210000Y12879999D03*
%TO.P,J6,10,Pin_10*%
%TO.N,GPIO26*%
X35750000Y12879999D03*
%TO.P,J6,11,Pin_11*%
%TO.N,GPIO18*%
X33210000Y10339999D03*
%TO.P,J6,12,Pin_12*%
%TO.N,GPIO22*%
X35750000Y10339999D03*
%TD*%
D10*
%TO.P,J2,1,Pin_1*%
%TO.N,+5V*%
X33210000Y5270000D03*
D11*
%TO.P,J2,2,Pin_2*%
%TO.N,GND*%
X35750000Y5270000D03*
%TD*%
D10*
%TO.P,J8,1,Pin_1*%
%TO.N,+3.3V*%
X4000000Y23050000D03*
D11*
%TO.P,J8,2,Pin_2*%
X1460000Y23050000D03*
%TO.P,J8,3,Pin_3*%
%TO.N,GND*%
X4000000Y20510000D03*
%TO.P,J8,4,Pin_4*%
X1460000Y20510000D03*
%TO.P,J8,5,Pin_5*%
%TO.N,unconnected-(J8-Pin_5-Pad5)*%
X4000000Y17970000D03*
%TO.P,J8,6,Pin_6*%
%TO.N,GPIO22*%
X1460000Y17970000D03*
%TO.P,J8,7,Pin_7*%
%TO.N,GPIO28*%
X4000000Y15430000D03*
%TO.P,J8,8,Pin_8*%
%TO.N,unconnected-(J8-Pin_8-Pad8)*%
X1460000Y15430000D03*
%TO.P,J8,9,Pin_9*%
%TO.N,GPIO27*%
X4000000Y12890000D03*
%TO.P,J8,10,Pin_10*%
%TO.N,unconnected-(J8-Pin_10-Pad10)*%
X1460000Y12890000D03*
%TO.P,J8,11,Pin_11*%
%TO.N,GPIO26*%
X4000000Y10350000D03*
%TO.P,J8,12,Pin_12*%
%TO.N,unconnected-(J8-Pin_12-Pad12)*%
X1460000Y10350000D03*
%TD*%
D12*
%TO.N,GPIO21*%
X21200000Y3400000D03*
%TO.N,GND*%
X22500000Y44250000D03*
X4000000Y1250000D03*
X27250000Y36750000D03*
X21250000Y42750000D03*
X7250000Y13750000D03*
X10000000Y42750000D03*
X5750000Y47750000D03*
X3500000Y39250000D03*
X19250000Y19500000D03*
X28250000Y47500000D03*
X33250000Y44250000D03*
X27500000Y49500000D03*
X12250000Y35000000D03*
X8250000Y43500000D03*
X9250000Y16250000D03*
X27500000Y14250000D03*
X25500000Y52750000D03*
X6500000Y21250000D03*
X6500000Y26000000D03*
X16000000Y43500000D03*
X25000000Y37500000D03*
X26750000Y26250000D03*
X33500000Y35500000D03*
X29500000Y42000000D03*
X30500000Y30000000D03*
X10250000Y37000000D03*
X29250000Y44250000D03*
X19000000Y52750000D03*
X29000000Y52500000D03*
X6250000Y35750000D03*
X14750000Y47750000D03*
X18250000Y22500000D03*
X25500000Y41250000D03*
X28250000Y12250000D03*
X31250000Y1250000D03*
X33750000Y1250000D03*
X12250000Y37000000D03*
X31250000Y35000000D03*
X12250000Y52750000D03*
X22750000Y40500000D03*
X16750000Y42750000D03*
X19250000Y26250000D03*
X9500000Y52750000D03*
X10750000Y14000000D03*
X28250000Y40500000D03*
X10250000Y32000000D03*
X5750000Y49250000D03*
X12000000Y32000000D03*
X6750000Y31750000D03*
X6750000Y52750000D03*
X27250000Y13250000D03*
X12000000Y44250000D03*
X21500000Y22500000D03*
X15750000Y44500000D03*
X18750000Y47500000D03*
X7750000Y15750000D03*
X31250000Y53000000D03*
X7750000Y44500000D03*
X22000000Y18000000D03*
X19500000Y15500000D03*
X23250000Y47500000D03*
X8750000Y13750000D03*
X16000000Y39000000D03*
X15750000Y22500000D03*
X15500000Y42500000D03*
X13250000Y49500000D03*
X32250000Y37000000D03*
X6750000Y30000000D03*
X8750000Y42500000D03*
X16000000Y49250000D03*
X29250000Y12500000D03*
X15750000Y19750000D03*
X30750000Y26250000D03*
X27250000Y39000000D03*
X19750000Y35000000D03*
X30500000Y49500000D03*
X5750000Y39250000D03*
X30750000Y31500000D03*
X10500000Y43500000D03*
X17750000Y44000000D03*
X27000000Y31000000D03*
X22750000Y20250000D03*
X36000000Y1250000D03*
X16250000Y36750000D03*
X6000000Y2750000D03*
X16000000Y30750000D03*
X9750000Y47250000D03*
X17250000Y14300000D03*
X23500000Y31000000D03*
X12250000Y39250000D03*
X34000000Y37000000D03*
X18500000Y30750000D03*
X19750000Y37500000D03*
X16000000Y35000000D03*
X18750000Y39250000D03*
X16000000Y17500000D03*
X16250000Y26250000D03*
X36000000Y52750000D03*
X9000000Y12250000D03*
X32000000Y47500000D03*
X8000000Y49250000D03*
X12250000Y42750000D03*
X15250000Y52750000D03*
X28250000Y13250000D03*
X27000000Y35000000D03*
X20000000Y49500000D03*
X22250000Y52750000D03*
X1250000Y1250000D03*
X12500000Y29750000D03*
X23500000Y26250000D03*
X23250000Y35000000D03*
X25500000Y44250000D03*
X10000000Y39250000D03*
X6750000Y16750000D03*
X22500000Y37750000D03*
X23750000Y49500000D03*
X20000000Y40750000D03*
%TO.N,+5V*%
X14000000Y28150000D03*
X14000000Y21250000D03*
%TO.N,GPIO16*%
X25900000Y15625000D03*
%TO.N,+3.3V*%
X26050000Y12750000D03*
%TO.N,GPIO17*%
X24625000Y15600000D03*
%TO.N,GPIO21*%
X27175000Y15650000D03*
%TD*%
D13*
%TO.N,GPIO21*%
X29460000Y17960000D02*
X33210000Y17960000D01*
X27175000Y15650000D02*
X27175000Y15675000D01*
X27175000Y15675000D02*
X29460000Y17960000D01*
%TO.N,GPIO16*%
X32030000Y38280000D02*
X35750000Y38280000D01*
X29350000Y19100000D02*
X29350000Y35600000D01*
X25900000Y15650000D02*
X29350000Y19100000D01*
X25900000Y15625000D02*
X25900000Y15650000D01*
X29350000Y35600000D02*
X32030000Y38280000D01*
%TO.N,GPIO17*%
X30570001Y40820001D02*
X35750000Y40820001D01*
X28700000Y38950000D02*
X30570001Y40820001D01*
X24650000Y15600000D02*
X28700000Y19650000D01*
X24625000Y15600000D02*
X24650000Y15600000D01*
X28700000Y19650000D02*
X28700000Y38950000D01*
%TO.N,GPIO18*%
X14850000Y2845000D02*
X16070000Y1625000D01*
X15600000Y6750000D02*
X14850000Y6000000D01*
X19700000Y6750000D02*
X15600000Y6750000D01*
X21200000Y5250000D02*
X19700000Y6750000D01*
X14850000Y6000000D02*
X14850000Y2845000D01*
D14*
%TO.N,+5V*%
X6980000Y8250000D02*
X4000000Y5270000D01*
X30200000Y8250000D02*
X6980000Y8250000D01*
X33180000Y5270000D02*
X30200000Y8250000D01*
X33210000Y5270000D02*
X33180000Y5270000D01*
D13*
%TO.N,GPIO22*%
X2700000Y16730000D02*
X1460000Y17970000D01*
X2700000Y9800000D02*
X2700000Y16730000D01*
X34810001Y9400000D02*
X3100000Y9400000D01*
X35750000Y10339999D02*
X34810001Y9400000D01*
X3100000Y9400000D02*
X2700000Y9800000D01*
%TO.N,GPIO26*%
X35379999Y12879999D02*
X35750000Y12879999D01*
X34100000Y11600000D02*
X35379999Y12879999D01*
X31900000Y11600000D02*
X34100000Y11600000D01*
X4350000Y10000000D02*
X30300000Y10000000D01*
X4000000Y10350000D02*
X4350000Y10000000D01*
X30300000Y10000000D02*
X31900000Y11600000D01*
%TO.N,GPIO27*%
X35319999Y15419999D02*
X35750000Y15419999D01*
X34050000Y14150000D02*
X35319999Y15419999D01*
X32000000Y14150000D02*
X34050000Y14150000D01*
X6290000Y10600000D02*
X29850000Y10600000D01*
X29850000Y10600000D02*
X31675000Y12425000D01*
X4000000Y12890000D02*
X6290000Y10600000D01*
X31675000Y12425000D02*
X31675000Y13825000D01*
X31675000Y13825000D02*
X32000000Y14150000D01*
%TO.N,GPIO28*%
X32550000Y16700000D02*
X34490001Y16700000D01*
X30800000Y14950000D02*
X32550000Y16700000D01*
X34490001Y16700000D02*
X35750000Y17959999D01*
X30800000Y12398528D02*
X30800000Y14950000D01*
X29601472Y11200000D02*
X30800000Y12398528D01*
X4000000Y15430000D02*
X8230000Y11200000D01*
X8230000Y11200000D02*
X29601472Y11200000D01*
D14*
%TO.N,+3.3V*%
X8350000Y19600000D02*
X8350000Y21950000D01*
X15200000Y12750000D02*
X8350000Y19600000D01*
X26050000Y12750000D02*
X15200000Y12750000D01*
D13*
%TO.N,GPIO21*%
X17970000Y3400000D02*
X16120000Y5250000D01*
X21200000Y3400000D02*
X17970000Y3400000D01*
X21915000Y3400000D02*
X23690000Y1625000D01*
X21200000Y3400000D02*
X21915000Y3400000D01*
D14*
%TO.N,+5V*%
X14000000Y21250000D02*
X14000000Y28150000D01*
X14000000Y45750000D02*
X8750000Y51000000D01*
X14000000Y28150000D02*
X14000000Y45750000D01*
X8750000Y51000000D02*
X4000000Y51000000D01*
%TO.N,+3.3V*%
X6719999Y40830001D02*
X1460000Y40830001D01*
X8350000Y24200000D02*
X8350000Y24350000D01*
X8350000Y21950000D02*
X8350000Y23050000D01*
X8350000Y23050000D02*
X8350000Y24350000D01*
X8350000Y39200000D02*
X6719999Y40830001D01*
X7200000Y23050000D02*
X7250000Y23050000D01*
X8350000Y23050000D02*
X7200000Y23050000D01*
X7200000Y23050000D02*
X4000000Y23050000D01*
X7250000Y23050000D02*
X8350000Y21950000D01*
X8350000Y24350000D02*
X8350000Y39200000D01*
X7200000Y23050000D02*
X8350000Y24200000D01*
%TD*%
%TA.AperFunction,Conductor*%
%TO.N,GND*%
G36*
X29801257Y7229815D02*
G01*
X29821899Y7213181D01*
X31823181Y5211898D01*
X31856666Y5150575D01*
X31859500Y5124217D01*
X31859500Y4372130D01*
X31859501Y4372124D01*
X31865908Y4312517D01*
X31916202Y4177672D01*
X31916206Y4177665D01*
X32002452Y4062456D01*
X32002455Y4062453D01*
X32117664Y3976207D01*
X32117671Y3976203D01*
X32252517Y3925909D01*
X32252516Y3925909D01*
X32259444Y3925165D01*
X32312127Y3919500D01*
X34107872Y3919501D01*
X34167483Y3925909D01*
X34302331Y3976204D01*
X34417546Y4062454D01*
X34503796Y4177669D01*
X34554091Y4312517D01*
X34560500Y4372127D01*
X34560499Y4382688D01*
X34580179Y4449725D01*
X34596818Y4470374D01*
X35267036Y5140593D01*
X35284075Y5077007D01*
X35349901Y4962993D01*
X35442993Y4869901D01*
X35557007Y4804075D01*
X35620589Y4787038D01*
X34988282Y4154731D01*
X34988282Y4154730D01*
X35042449Y4115376D01*
X35231782Y4018905D01*
X35433870Y3953243D01*
X35643754Y3920000D01*
X35856246Y3920000D01*
X36066127Y3953243D01*
X36066130Y3953243D01*
X36268217Y4018905D01*
X36457557Y4115380D01*
X36552615Y4184442D01*
X36618421Y4207922D01*
X36686475Y4192096D01*
X36735170Y4141991D01*
X36749500Y4084124D01*
X36749500Y-1246753D01*
X36749330Y-1253243D01*
X36733407Y-1557046D01*
X36732050Y-1569953D01*
X36684971Y-1867205D01*
X36682273Y-1879902D01*
X36604374Y-2170623D01*
X36600363Y-2182966D01*
X36492510Y-2463935D01*
X36487231Y-2475793D01*
X36350591Y-2743963D01*
X36344101Y-2755203D01*
X36180187Y-3007608D01*
X36172558Y-3018109D01*
X35983149Y-3252010D01*
X35974464Y-3261655D01*
X35761655Y-3474464D01*
X35752010Y-3483149D01*
X35518109Y-3672558D01*
X35507608Y-3680187D01*
X35255203Y-3844101D01*
X35243963Y-3850591D01*
X34975793Y-3987231D01*
X34963935Y-3992510D01*
X34682966Y-4100363D01*
X34670623Y-4104374D01*
X34379902Y-4182273D01*
X34367205Y-4184971D01*
X34069953Y-4232050D01*
X34057046Y-4233407D01*
X33753244Y-4249330D01*
X33746754Y-4249500D01*
X3503246Y-4249500D01*
X3496756Y-4249330D01*
X3192953Y-4233407D01*
X3180046Y-4232050D01*
X2882794Y-4184971D01*
X2870097Y-4182273D01*
X2579376Y-4104374D01*
X2567033Y-4100363D01*
X2286064Y-3992510D01*
X2274206Y-3987231D01*
X2006036Y-3850591D01*
X1994796Y-3844101D01*
X1742391Y-3680187D01*
X1731890Y-3672558D01*
X1497989Y-3483149D01*
X1488344Y-3474464D01*
X1275535Y-3261655D01*
X1266850Y-3252010D01*
X1077441Y-3018109D01*
X1069812Y-3007608D01*
X1008517Y-2913222D01*
X905896Y-2755199D01*
X899408Y-2743963D01*
X762768Y-2475793D01*
X757489Y-2463935D01*
X686994Y-2280289D01*
X649635Y-2182965D01*
X645625Y-2170623D01*
X644626Y-2166895D01*
X567724Y-1879896D01*
X565028Y-1867205D01*
X561685Y-1846100D01*
X517949Y-1569953D01*
X516592Y-1557046D01*
X500670Y-1253243D01*
X500500Y-1246753D01*
X500500Y-1128711D01*
X1649500Y-1128711D01*
X1649500Y-1371288D01*
X1681161Y-1611785D01*
X1743947Y-1846104D01*
X1757947Y-1879902D01*
X1836776Y-2070212D01*
X1958064Y-2280289D01*
X1958066Y-2280292D01*
X1958067Y-2280293D01*
X2105733Y-2472736D01*
X2105739Y-2472743D01*
X2277256Y-2644260D01*
X2277262Y-2644265D01*
X2469711Y-2791936D01*
X2679788Y-2913224D01*
X2903900Y-3006054D01*
X3138211Y-3068838D01*
X3318586Y-3092584D01*
X3378711Y-3100500D01*
X3378712Y-3100500D01*
X3621289Y-3100500D01*
X3669388Y-3094167D01*
X3861789Y-3068838D01*
X4096100Y-3006054D01*
X4320212Y-2913224D01*
X4530289Y-2791936D01*
X4722738Y-2644265D01*
X4894265Y-2472738D01*
X5041936Y-2280289D01*
X5163224Y-2070212D01*
X5256054Y-1846100D01*
X5318838Y-1611789D01*
X5350500Y-1371288D01*
X5350500Y-1128712D01*
X5350500Y-1128711D01*
X31899500Y-1128711D01*
X31899500Y-1371288D01*
X31931161Y-1611785D01*
X31993947Y-1846104D01*
X32007947Y-1879902D01*
X32086776Y-2070212D01*
X32208064Y-2280289D01*
X32208066Y-2280292D01*
X32208067Y-2280293D01*
X32355733Y-2472736D01*
X32355739Y-2472743D01*
X32527256Y-2644260D01*
X32527262Y-2644265D01*
X32719711Y-2791936D01*
X32929788Y-2913224D01*
X33153900Y-3006054D01*
X33388211Y-3068838D01*
X33568586Y-3092584D01*
X33628711Y-3100500D01*
X33628712Y-3100500D01*
X33871289Y-3100500D01*
X33919388Y-3094167D01*
X34111789Y-3068838D01*
X34346100Y-3006054D01*
X34570212Y-2913224D01*
X34780289Y-2791936D01*
X34972738Y-2644265D01*
X35144265Y-2472738D01*
X35291936Y-2280289D01*
X35413224Y-2070212D01*
X35506054Y-1846100D01*
X35568838Y-1611789D01*
X35600500Y-1371288D01*
X35600500Y-1128712D01*
X35568838Y-888211D01*
X35506054Y-653900D01*
X35413224Y-429788D01*
X35291936Y-219711D01*
X35144265Y-27262D01*
X35144260Y-27256D01*
X34972743Y144261D01*
X34972736Y144267D01*
X34780293Y291933D01*
X34780292Y291934D01*
X34780289Y291936D01*
X34570212Y413224D01*
X34570205Y413227D01*
X34346104Y506053D01*
X34111785Y568839D01*
X33871289Y600500D01*
X33871288Y600500D01*
X33628712Y600500D01*
X33628711Y600500D01*
X33388214Y568839D01*
X33153895Y506053D01*
X32929794Y413227D01*
X32929785Y413223D01*
X32719706Y291933D01*
X32527263Y144267D01*
X32527256Y144261D01*
X32355739Y-27256D01*
X32355733Y-27263D01*
X32208067Y-219706D01*
X32086777Y-429785D01*
X32086773Y-429794D01*
X31993947Y-653895D01*
X31931161Y-888214D01*
X31899500Y-1128711D01*
X5350500Y-1128711D01*
X5318838Y-888211D01*
X5256054Y-653900D01*
X5163224Y-429788D01*
X5041936Y-219711D01*
X4894265Y-27262D01*
X4894260Y-27256D01*
X4722743Y144261D01*
X4722736Y144267D01*
X4530293Y291933D01*
X4530292Y291934D01*
X4530289Y291936D01*
X4320212Y413224D01*
X4320205Y413227D01*
X4096104Y506053D01*
X3861785Y568839D01*
X3621289Y600500D01*
X3621288Y600500D01*
X3378712Y600500D01*
X3378711Y600500D01*
X3138214Y568839D01*
X2903895Y506053D01*
X2679794Y413227D01*
X2679785Y413223D01*
X2469706Y291933D01*
X2277263Y144267D01*
X2277256Y144261D01*
X2105739Y-27256D01*
X2105733Y-27263D01*
X1958067Y-219706D01*
X1836777Y-429785D01*
X1836773Y-429794D01*
X1743947Y-653895D01*
X1681161Y-888214D01*
X1649500Y-1128711D01*
X500500Y-1128711D01*
X500500Y4055063D01*
X520185Y4122102D01*
X572989Y4167857D01*
X642147Y4177801D01*
X697386Y4155381D01*
X752445Y4115378D01*
X941782Y4018905D01*
X1143870Y3953243D01*
X1353754Y3920000D01*
X1566246Y3920000D01*
X1776127Y3953243D01*
X1776130Y3953243D01*
X1978217Y4018905D01*
X2167554Y4115378D01*
X2221716Y4154730D01*
X2221717Y4154730D01*
X1589409Y4787038D01*
X1652993Y4804075D01*
X1767007Y4869901D01*
X1860099Y4962993D01*
X1925925Y5077007D01*
X1942962Y5140591D01*
X2613181Y4470372D01*
X2646666Y4409049D01*
X2649500Y4382700D01*
X2649500Y4372135D01*
X2649501Y4372124D01*
X2655908Y4312517D01*
X2706202Y4177672D01*
X2706206Y4177665D01*
X2792452Y4062456D01*
X2792455Y4062453D01*
X2907664Y3976207D01*
X2907671Y3976203D01*
X3042517Y3925909D01*
X3042516Y3925909D01*
X3049444Y3925165D01*
X3102127Y3919500D01*
X4897872Y3919501D01*
X4957483Y3925909D01*
X5092331Y3976204D01*
X5092336Y3976209D01*
X5100109Y3980452D01*
X5100933Y3978943D01*
X5156543Y3999684D01*
X5165389Y4000000D01*
X7126000Y4000000D01*
X7193039Y3980315D01*
X7238794Y3927511D01*
X7250000Y3876000D01*
X7250000Y2883898D01*
X7230315Y2816859D01*
X7225267Y2809587D01*
X7156203Y2717331D01*
X7156202Y2717329D01*
X7105908Y2582483D01*
X7099501Y2522884D01*
X7099500Y2522865D01*
X7099500Y727130D01*
X7099501Y727124D01*
X7105908Y667517D01*
X7156202Y532672D01*
X7156206Y532665D01*
X7242452Y417456D01*
X7242455Y417453D01*
X7357664Y331207D01*
X7357671Y331203D01*
X7492517Y280909D01*
X7492516Y280909D01*
X7499444Y280165D01*
X7552127Y274500D01*
X9347872Y274501D01*
X9407483Y280909D01*
X9542331Y331204D01*
X9657546Y417454D01*
X9743796Y532669D01*
X9792810Y664084D01*
X9834681Y720016D01*
X9900145Y744434D01*
X9968418Y729583D01*
X9996673Y708431D01*
X10110213Y594891D01*
X10282179Y469952D01*
X10282181Y469951D01*
X10282184Y469949D01*
X10471588Y373443D01*
X10673757Y307754D01*
X10883713Y274500D01*
X10883714Y274500D01*
X11096286Y274500D01*
X11096287Y274500D01*
X11306243Y307754D01*
X11508412Y373443D01*
X11697816Y469949D01*
X11784138Y532665D01*
X11869786Y594891D01*
X11869788Y594894D01*
X11869792Y594896D01*
X12020104Y745208D01*
X12020106Y745212D01*
X12020109Y745214D01*
X12145048Y917180D01*
X12145050Y917183D01*
X12145051Y917184D01*
X12149512Y925942D01*
X12197483Y976738D01*
X12265303Y993536D01*
X12331440Y971002D01*
X12370483Y925946D01*
X12374948Y917183D01*
X12499889Y745214D01*
X12650212Y594891D01*
X12822178Y469952D01*
X12822180Y469951D01*
X12822183Y469949D01*
X13011587Y373443D01*
X13213756Y307754D01*
X13423712Y274500D01*
X13423713Y274500D01*
X13636285Y274500D01*
X13636286Y274500D01*
X13846242Y307754D01*
X14048411Y373443D01*
X14237815Y469949D01*
X14324137Y532665D01*
X14409785Y594891D01*
X14409787Y594894D01*
X14409791Y594896D01*
X14560103Y745208D01*
X14560105Y745212D01*
X14560108Y745214D01*
X14685047Y917179D01*
X14685187Y917453D01*
X14689512Y925944D01*
X14737483Y976740D01*
X14805303Y993538D01*
X14871439Y971004D01*
X14910483Y925948D01*
X14914949Y917183D01*
X15039890Y745214D01*
X15190213Y594891D01*
X15362179Y469952D01*
X15362181Y469951D01*
X15362184Y469949D01*
X15551588Y373443D01*
X15753757Y307754D01*
X15963713Y274500D01*
X15963714Y274500D01*
X16176286Y274500D01*
X16176287Y274500D01*
X16386243Y307754D01*
X16588412Y373443D01*
X16777816Y469949D01*
X16864138Y532665D01*
X16949786Y594891D01*
X16949788Y594894D01*
X16949792Y594896D01*
X17100104Y745208D01*
X17100106Y745212D01*
X17100109Y745214D01*
X17225048Y917180D01*
X17225050Y917183D01*
X17225051Y917184D01*
X17229514Y925946D01*
X17277488Y976741D01*
X17345308Y993537D01*
X17411444Y971001D01*
X17450484Y925946D01*
X17454591Y917885D01*
X17454951Y917180D01*
X17579890Y745214D01*
X17730213Y594891D01*
X17902179Y469952D01*
X17902181Y469951D01*
X17902184Y469949D01*
X18091588Y373443D01*
X18293757Y307754D01*
X18503713Y274500D01*
X18503714Y274500D01*
X18716286Y274500D01*
X18716287Y274500D01*
X18926243Y307754D01*
X19128412Y373443D01*
X19317816Y469949D01*
X19404138Y532665D01*
X19489786Y594891D01*
X19489788Y594894D01*
X19489792Y594896D01*
X19640104Y745208D01*
X19640106Y745212D01*
X19640109Y745214D01*
X19765048Y917180D01*
X19765050Y917183D01*
X19765051Y917184D01*
X19769514Y925946D01*
X19817488Y976741D01*
X19885308Y993537D01*
X19951444Y971001D01*
X19990484Y925946D01*
X19994591Y917885D01*
X19994951Y917180D01*
X20119890Y745214D01*
X20270213Y594891D01*
X20442179Y469952D01*
X20442181Y469951D01*
X20442184Y469949D01*
X20631588Y373443D01*
X20833757Y307754D01*
X21043713Y274500D01*
X21043714Y274500D01*
X21256286Y274500D01*
X21256287Y274500D01*
X21466243Y307754D01*
X21668412Y373443D01*
X21857816Y469949D01*
X21944138Y532665D01*
X22029786Y594891D01*
X22029788Y594894D01*
X22029792Y594896D01*
X22180104Y745208D01*
X22180106Y745212D01*
X22180109Y745214D01*
X22305048Y917180D01*
X22305050Y917183D01*
X22305051Y917184D01*
X22309514Y925946D01*
X22357488Y976741D01*
X22425308Y993537D01*
X22491444Y971001D01*
X22530484Y925946D01*
X22534591Y917885D01*
X22534951Y917180D01*
X22659890Y745214D01*
X22810213Y594891D01*
X22982179Y469952D01*
X22982181Y469951D01*
X22982184Y469949D01*
X23171588Y373443D01*
X23373757Y307754D01*
X23583713Y274500D01*
X23583714Y274500D01*
X23796286Y274500D01*
X23796287Y274500D01*
X24006243Y307754D01*
X24208412Y373443D01*
X24397816Y469949D01*
X24484138Y532665D01*
X24569786Y594891D01*
X24569788Y594894D01*
X24569792Y594896D01*
X24720104Y745208D01*
X24720106Y745212D01*
X24720109Y745214D01*
X24845048Y917180D01*
X24845050Y917183D01*
X24845051Y917184D01*
X24849795Y926496D01*
X24897767Y977292D01*
X24965587Y994089D01*
X25031723Y971554D01*
X25070766Y926497D01*
X25075374Y917453D01*
X25114729Y863284D01*
X25125000Y873555D01*
X25125000Y825000D01*
X25475000Y475000D01*
X25544051Y475000D01*
X25564368Y449017D01*
X25711783Y373905D01*
X25913871Y308243D01*
X26123755Y275000D01*
X26336247Y275000D01*
X26546128Y308243D01*
X26546131Y308243D01*
X26748218Y373905D01*
X26920103Y461485D01*
X26976398Y475000D01*
X27034446Y475000D01*
X27275000Y475000D01*
X27275000Y933554D01*
X27345271Y863283D01*
X27345271Y863284D01*
X27384624Y917447D01*
X27389231Y926489D01*
X27437202Y977288D01*
X27505022Y994088D01*
X27571158Y971554D01*
X27610202Y926499D01*
X27614949Y917183D01*
X27739890Y745214D01*
X27890213Y594891D01*
X28062179Y469952D01*
X28062181Y469951D01*
X28062184Y469949D01*
X28251588Y373443D01*
X28453757Y307754D01*
X28663713Y274500D01*
X28663714Y274500D01*
X28876286Y274500D01*
X28876287Y274500D01*
X29086243Y307754D01*
X29288412Y373443D01*
X29477816Y469949D01*
X29564138Y532665D01*
X29649786Y594891D01*
X29649788Y594894D01*
X29649792Y594896D01*
X29800104Y745208D01*
X29800106Y745212D01*
X29800109Y745214D01*
X29925048Y917180D01*
X29925050Y917183D01*
X29925051Y917184D01*
X30021557Y1106588D01*
X30087246Y1308757D01*
X30120500Y1518713D01*
X30120500Y1731287D01*
X30087246Y1941243D01*
X30021557Y2143412D01*
X29925051Y2332816D01*
X29925049Y2332819D01*
X29925048Y2332821D01*
X29800109Y2504787D01*
X29649786Y2655110D01*
X29477820Y2780049D01*
X29288414Y2876556D01*
X29288413Y2876557D01*
X29288412Y2876557D01*
X29086243Y2942246D01*
X29086241Y2942247D01*
X29086240Y2942247D01*
X28924957Y2967792D01*
X28876287Y2975500D01*
X28663713Y2975500D01*
X28615042Y2967792D01*
X28453760Y2942247D01*
X28251585Y2876556D01*
X28062179Y2780049D01*
X27890213Y2655110D01*
X27739890Y2504787D01*
X27614950Y2332819D01*
X27610201Y2323499D01*
X27562223Y2272706D01*
X27494402Y2255914D01*
X27428268Y2278455D01*
X27389232Y2323509D01*
X27384625Y2332551D01*
X27345271Y2386718D01*
X27345270Y2386718D01*
X26712963Y1754410D01*
X26695926Y1817993D01*
X26630100Y1932007D01*
X26537008Y2025099D01*
X26422994Y2090925D01*
X26359410Y2107963D01*
X26991717Y2740272D01*
X26937551Y2779625D01*
X26748218Y2876096D01*
X26546130Y2941758D01*
X26336247Y2975000D01*
X26123755Y2975000D01*
X25913873Y2941758D01*
X25913870Y2941758D01*
X25711783Y2876096D01*
X25522440Y2779620D01*
X25468283Y2740273D01*
X25468283Y2740272D01*
X26100592Y2107963D01*
X26037008Y2090925D01*
X25922994Y2025099D01*
X25829902Y1932007D01*
X25764076Y1817993D01*
X25747038Y1754409D01*
X25114729Y2386718D01*
X25114728Y2386718D01*
X25075381Y2332560D01*
X25070763Y2323497D01*
X25066793Y2319295D01*
X25065216Y2313732D01*
X25043067Y2294177D01*
X25022785Y2272704D01*
X25017174Y2271315D01*
X25012840Y2267488D01*
X24983638Y2263012D01*
X24954964Y2255912D01*
X24949491Y2257778D01*
X24943777Y2256901D01*
X24916794Y2268922D01*
X24888830Y2278453D01*
X24883858Y2283595D01*
X24879954Y2285334D01*
X24870024Y2297902D01*
X24856594Y2311791D01*
X24852873Y2317464D01*
X24845051Y2332816D01*
X24821944Y2364621D01*
X24820313Y2367107D01*
X24810984Y2397815D01*
X24800202Y2428037D01*
X24800035Y2433859D01*
X24800005Y2433960D01*
X24800030Y2434050D01*
X24800000Y2435114D01*
X24800000Y4371068D01*
X24819685Y4438107D01*
X24823662Y4443926D01*
X24895051Y4542184D01*
X24899795Y4551496D01*
X24947767Y4602292D01*
X25015587Y4619089D01*
X25081723Y4596554D01*
X25120766Y4551497D01*
X25125374Y4542453D01*
X25164729Y4488284D01*
X25797038Y5120592D01*
X25814076Y5057007D01*
X25879902Y4942993D01*
X25972994Y4849901D01*
X26087008Y4784075D01*
X26150591Y4767038D01*
X25518283Y4134731D01*
X25518283Y4134730D01*
X25572450Y4095376D01*
X25761783Y3998905D01*
X25963871Y3933243D01*
X26173755Y3900000D01*
X26386247Y3900000D01*
X26596128Y3933243D01*
X26596131Y3933243D01*
X26798218Y3998905D01*
X26987555Y4095378D01*
X27041717Y4134730D01*
X27041718Y4134730D01*
X26409409Y4767038D01*
X26472994Y4784075D01*
X26587008Y4849901D01*
X26680100Y4942993D01*
X26745926Y5057007D01*
X26762963Y5120592D01*
X27395271Y4488283D01*
X27395271Y4488284D01*
X27434624Y4542447D01*
X27439231Y4551489D01*
X27487202Y4602288D01*
X27555022Y4619088D01*
X27621158Y4596554D01*
X27660202Y4551499D01*
X27664949Y4542183D01*
X27789890Y4370214D01*
X27940213Y4219891D01*
X28112179Y4094952D01*
X28112181Y4094951D01*
X28112184Y4094949D01*
X28301588Y3998443D01*
X28503757Y3932754D01*
X28713713Y3899500D01*
X28713714Y3899500D01*
X28926286Y3899500D01*
X28926287Y3899500D01*
X29136243Y3932754D01*
X29338412Y3998443D01*
X29527816Y4094949D01*
X29610098Y4154730D01*
X29699786Y4219891D01*
X29699788Y4219894D01*
X29699792Y4219896D01*
X29850104Y4370208D01*
X29850106Y4370212D01*
X29850109Y4370214D01*
X29975048Y4542180D01*
X29975050Y4542183D01*
X29975051Y4542184D01*
X30071557Y4731588D01*
X30137246Y4933757D01*
X30170500Y5143713D01*
X30170500Y5356287D01*
X30137246Y5566243D01*
X30071557Y5768412D01*
X29975051Y5957816D01*
X29975049Y5957819D01*
X29975048Y5957821D01*
X29850109Y6129787D01*
X29699786Y6280110D01*
X29527820Y6405049D01*
X29338414Y6501556D01*
X29338413Y6501557D01*
X29338412Y6501557D01*
X29136243Y6567246D01*
X29136241Y6567247D01*
X29136240Y6567247D01*
X28974957Y6592792D01*
X28926287Y6600500D01*
X28713713Y6600500D01*
X28674202Y6594243D01*
X28503759Y6567247D01*
X28503760Y6567247D01*
X28301585Y6501556D01*
X28112179Y6405049D01*
X27940213Y6280110D01*
X27789890Y6129787D01*
X27664950Y5957819D01*
X27660201Y5948499D01*
X27612223Y5897706D01*
X27544402Y5880914D01*
X27478268Y5903455D01*
X27439232Y5948509D01*
X27434625Y5957551D01*
X27395271Y6011718D01*
X27395270Y6011718D01*
X26762963Y5379410D01*
X26745926Y5442993D01*
X26680100Y5557007D01*
X26587008Y5650099D01*
X26472994Y5715925D01*
X26409410Y5732963D01*
X27041717Y6365272D01*
X26987551Y6404625D01*
X26798218Y6501096D01*
X26596130Y6566758D01*
X26386247Y6600000D01*
X26173755Y6600000D01*
X25963873Y6566758D01*
X25963870Y6566758D01*
X25761783Y6501096D01*
X25572440Y6404620D01*
X25518283Y6365273D01*
X25518283Y6365272D01*
X26150592Y5732963D01*
X26087008Y5715925D01*
X25972994Y5650099D01*
X25879902Y5557007D01*
X25814076Y5442993D01*
X25797038Y5379409D01*
X25164729Y6011718D01*
X25164728Y6011718D01*
X25125381Y5957560D01*
X25120763Y5948497D01*
X25117961Y5945531D01*
X25116954Y5941577D01*
X25094170Y5920345D01*
X25072785Y5897704D01*
X25068824Y5896724D01*
X25065840Y5893942D01*
X25035197Y5888398D01*
X25004964Y5880912D01*
X25001101Y5882229D01*
X24997087Y5881502D01*
X24968311Y5893405D01*
X24938830Y5903453D01*
X24935211Y5907096D01*
X24932523Y5908208D01*
X24925421Y5916953D01*
X24908460Y5934028D01*
X24903632Y5940973D01*
X24895051Y5957816D01*
X24822958Y6057044D01*
X24822179Y6058165D01*
X24811524Y6090125D01*
X24800202Y6121858D01*
X24800132Y6124294D01*
X24800081Y6124448D01*
X24800123Y6124615D01*
X24800000Y6128935D01*
X24800000Y7125500D01*
X24819685Y7192539D01*
X24872489Y7238294D01*
X24924000Y7249500D01*
X29734218Y7249500D01*
X29801257Y7229815D01*
G37*
%TD.AperFunction*%
%TA.AperFunction,Conductor*%
G36*
X6851257Y22029815D02*
G01*
X6871899Y22013181D01*
X7313181Y21571899D01*
X7346666Y21510576D01*
X7349500Y21484218D01*
X7349500Y19501456D01*
X7387481Y19310512D01*
X7387948Y19308166D01*
X7387948Y19308164D01*
X7463364Y19126093D01*
X7463371Y19126080D01*
X7572860Y18962219D01*
X7572863Y18962215D01*
X7716537Y18818541D01*
X7716559Y18818521D01*
X12063681Y14471399D01*
X12097166Y14410076D01*
X12100000Y14383718D01*
X12100000Y11974500D01*
X12080315Y11907461D01*
X12027511Y11861706D01*
X11976000Y11850500D01*
X8550808Y11850500D01*
X8483769Y11870185D01*
X8463127Y11886819D01*
X5350657Y14999289D01*
X5317172Y15060612D01*
X5317689Y15108755D01*
X5316484Y15108945D01*
X5334203Y15220821D01*
X5350500Y15323713D01*
X5350500Y15536287D01*
X5317246Y15746243D01*
X5251557Y15948412D01*
X5155051Y16137816D01*
X5155049Y16137819D01*
X5155048Y16137821D01*
X5030109Y16309787D01*
X4879786Y16460110D01*
X4707820Y16585049D01*
X4707115Y16585409D01*
X4699054Y16589515D01*
X4648259Y16637488D01*
X4631463Y16705308D01*
X4653999Y16771444D01*
X4699054Y16810485D01*
X4707816Y16814949D01*
X4729789Y16830914D01*
X4879786Y16939891D01*
X4879788Y16939894D01*
X4879792Y16939896D01*
X5030104Y17090208D01*
X5030106Y17090212D01*
X5030109Y17090214D01*
X5155048Y17262180D01*
X5155047Y17262180D01*
X5155051Y17262184D01*
X5251557Y17451588D01*
X5317246Y17653757D01*
X5350500Y17863713D01*
X5350500Y18076287D01*
X5317246Y18286243D01*
X5251557Y18488412D01*
X5155051Y18677816D01*
X5155049Y18677819D01*
X5155048Y18677821D01*
X5030109Y18849787D01*
X4879786Y19000110D01*
X4707817Y19125051D01*
X4698504Y19129796D01*
X4647707Y19177770D01*
X4630912Y19245591D01*
X4653449Y19311726D01*
X4698507Y19350768D01*
X4707555Y19355378D01*
X4761716Y19394730D01*
X4761717Y19394730D01*
X4129408Y20027038D01*
X4192993Y20044075D01*
X4307007Y20109901D01*
X4400099Y20202993D01*
X4465925Y20317007D01*
X4482962Y20380592D01*
X5115270Y19748283D01*
X5115270Y19748284D01*
X5154622Y19802446D01*
X5251095Y19991783D01*
X5316757Y20193870D01*
X5316757Y20193873D01*
X5350000Y20403754D01*
X5350000Y20616247D01*
X5316757Y20826128D01*
X5316757Y20826131D01*
X5251095Y21028218D01*
X5154624Y21217551D01*
X5115270Y21271718D01*
X5115269Y21271718D01*
X4482962Y20639410D01*
X4465925Y20702993D01*
X4400099Y20817007D01*
X4307007Y20910099D01*
X4192993Y20975925D01*
X4129409Y20992963D01*
X4799627Y21663182D01*
X4860950Y21696667D01*
X4887307Y21699501D01*
X4897872Y21699501D01*
X4957483Y21705909D01*
X5092331Y21756204D01*
X5207546Y21842454D01*
X5293796Y21957669D01*
X5297960Y21968835D01*
X5339829Y22024766D01*
X5405293Y22049184D01*
X5414141Y22049500D01*
X6784218Y22049500D01*
X6851257Y22029815D01*
G37*
%TD.AperFunction*%
%TA.AperFunction,Conductor*%
G36*
X33753244Y58999330D02*
G01*
X34057046Y58983408D01*
X34069953Y58982051D01*
X34201089Y58961282D01*
X34367209Y58934972D01*
X34379896Y58932276D01*
X34670625Y58854375D01*
X34682965Y58850365D01*
X34963938Y58742510D01*
X34975790Y58737233D01*
X35243968Y58600589D01*
X35255199Y58594104D01*
X35507608Y58430188D01*
X35518109Y58422559D01*
X35752010Y58233150D01*
X35761655Y58224465D01*
X35974464Y58011656D01*
X35983149Y58002011D01*
X36172558Y57768110D01*
X36180187Y57757609D01*
X36344101Y57505204D01*
X36350591Y57493964D01*
X36487231Y57225794D01*
X36492510Y57213936D01*
X36600363Y56932967D01*
X36604374Y56920624D01*
X36682273Y56629903D01*
X36684971Y56617206D01*
X36732050Y56319954D01*
X36733407Y56307047D01*
X36749330Y56003244D01*
X36749500Y55996754D01*
X36749500Y52165877D01*
X36729815Y52098838D01*
X36677011Y52053083D01*
X36607853Y52043139D01*
X36552615Y52065558D01*
X36457553Y52134624D01*
X36268217Y52231096D01*
X36066129Y52296758D01*
X35856246Y52330000D01*
X35643754Y52330000D01*
X35433872Y52296758D01*
X35433869Y52296758D01*
X35231782Y52231096D01*
X35042439Y52134620D01*
X34988282Y52095273D01*
X34988282Y52095272D01*
X35620591Y51462963D01*
X35557007Y51445925D01*
X35442993Y51380099D01*
X35349901Y51287007D01*
X35284075Y51172993D01*
X35267037Y51109409D01*
X34596818Y51779628D01*
X34563333Y51840951D01*
X34560499Y51867309D01*
X34560499Y51877871D01*
X34560498Y51877877D01*
X34560497Y51877884D01*
X34554091Y51937483D01*
X34553487Y51939102D01*
X34503797Y52072329D01*
X34503793Y52072336D01*
X34417547Y52187545D01*
X34417544Y52187548D01*
X34302335Y52273794D01*
X34302328Y52273798D01*
X34167482Y52324092D01*
X34167483Y52324092D01*
X34107883Y52330499D01*
X34107881Y52330500D01*
X34107873Y52330500D01*
X34107864Y52330500D01*
X32312129Y52330500D01*
X32312123Y52330499D01*
X32252516Y52324092D01*
X32117671Y52273798D01*
X32117664Y52273794D01*
X32002455Y52187548D01*
X32002452Y52187545D01*
X31916206Y52072336D01*
X31916202Y52072329D01*
X31865908Y51937483D01*
X31860441Y51886629D01*
X31859501Y51877877D01*
X31859500Y51877865D01*
X31859500Y50082130D01*
X31859501Y50082124D01*
X31865908Y50022517D01*
X31916202Y49887672D01*
X31916206Y49887665D01*
X32002452Y49772456D01*
X32002455Y49772453D01*
X32117664Y49686207D01*
X32117671Y49686203D01*
X32252517Y49635909D01*
X32252516Y49635909D01*
X32259444Y49635165D01*
X32312127Y49629500D01*
X34107872Y49629501D01*
X34167483Y49635909D01*
X34302331Y49686204D01*
X34417546Y49772454D01*
X34503796Y49887669D01*
X34554091Y50022517D01*
X34560500Y50082127D01*
X34560499Y50092688D01*
X34580179Y50159725D01*
X34596818Y50180374D01*
X35267037Y50850592D01*
X35284075Y50787007D01*
X35349901Y50672993D01*
X35442993Y50579901D01*
X35557007Y50514075D01*
X35620589Y50497038D01*
X34988282Y49864731D01*
X34988282Y49864730D01*
X35042449Y49825376D01*
X35231782Y49728905D01*
X35433870Y49663243D01*
X35643754Y49630000D01*
X35856246Y49630000D01*
X36066127Y49663243D01*
X36066130Y49663243D01*
X36268217Y49728905D01*
X36457557Y49825380D01*
X36552615Y49894442D01*
X36618421Y49917922D01*
X36686475Y49902096D01*
X36735170Y49851991D01*
X36749500Y49794124D01*
X36749500Y47374500D01*
X36729815Y47307461D01*
X36677011Y47261706D01*
X36625500Y47250500D01*
X34852129Y47250500D01*
X34852123Y47250499D01*
X34792516Y47244092D01*
X34657671Y47193798D01*
X34657664Y47193794D01*
X34542455Y47107548D01*
X34542452Y47107545D01*
X34456206Y46992336D01*
X34456202Y46992329D01*
X34405908Y46857483D01*
X34399501Y46797884D01*
X34399500Y46797865D01*
X34399500Y45002130D01*
X34399501Y45002124D01*
X34405908Y44942517D01*
X34456202Y44807672D01*
X34456206Y44807665D01*
X34542452Y44692456D01*
X34542455Y44692453D01*
X34657664Y44606207D01*
X34657671Y44606203D01*
X34702618Y44589439D01*
X34792517Y44555909D01*
X34852127Y44549500D01*
X34862685Y44549501D01*
X34929723Y44529821D01*
X34950372Y44513182D01*
X35620591Y43842963D01*
X35557007Y43825925D01*
X35442993Y43760099D01*
X35349901Y43667007D01*
X35284075Y43552993D01*
X35267037Y43489409D01*
X34634728Y44121718D01*
X34634727Y44121718D01*
X34595380Y44067561D01*
X34498904Y43878218D01*
X34433242Y43676131D01*
X34433242Y43676128D01*
X34400000Y43466247D01*
X34400000Y43253754D01*
X34433242Y43043873D01*
X34433242Y43043870D01*
X34498904Y42841783D01*
X34595375Y42652450D01*
X34634728Y42598284D01*
X35267037Y43230592D01*
X35284075Y43167007D01*
X35349901Y43052993D01*
X35442993Y42959901D01*
X35557007Y42894075D01*
X35620589Y42877038D01*
X34988282Y42244731D01*
X34988282Y42244730D01*
X35042449Y42205376D01*
X35051491Y42200769D01*
X35102289Y42152796D01*
X35119086Y42084975D01*
X35096551Y42018840D01*
X35051501Y41979800D01*
X35042181Y41975051D01*
X34870213Y41850111D01*
X34719890Y41699788D01*
X34592085Y41523876D01*
X34590740Y41524853D01*
X34544295Y41482835D01*
X34490382Y41470501D01*
X30505930Y41470501D01*
X30380262Y41445504D01*
X30380256Y41445502D01*
X30261875Y41396467D01*
X30155327Y41325275D01*
X28194726Y39364674D01*
X28194723Y39364669D01*
X28150538Y39298540D01*
X28137036Y39278334D01*
X28123535Y39258128D01*
X28123533Y39258125D01*
X28074499Y39139745D01*
X28074497Y39139739D01*
X28049500Y39014072D01*
X28049500Y19970809D01*
X28029815Y19903770D01*
X28013181Y19883128D01*
X24553276Y16423224D01*
X24491953Y16389739D01*
X24489787Y16389288D01*
X24391508Y16369739D01*
X24391498Y16369736D01*
X24245827Y16309398D01*
X24245814Y16309391D01*
X24114711Y16221790D01*
X24114707Y16221787D01*
X24003213Y16110293D01*
X24003210Y16110289D01*
X23915609Y15979186D01*
X23915602Y15979173D01*
X23855264Y15833502D01*
X23855261Y15833490D01*
X23824500Y15678847D01*
X23824500Y15521154D01*
X23855261Y15366511D01*
X23855264Y15366499D01*
X23915602Y15220828D01*
X23915609Y15220815D01*
X24003210Y15089712D01*
X24003213Y15089708D01*
X24114707Y14978214D01*
X24114711Y14978211D01*
X24245814Y14890610D01*
X24245827Y14890603D01*
X24345060Y14849500D01*
X24391503Y14830263D01*
X24541131Y14800500D01*
X24546153Y14799501D01*
X24546156Y14799500D01*
X24546158Y14799500D01*
X24703844Y14799500D01*
X24703845Y14799501D01*
X24858497Y14830263D01*
X25004179Y14890606D01*
X25135289Y14978211D01*
X25187320Y15030243D01*
X25248639Y15063726D01*
X25318330Y15058743D01*
X25362680Y15030241D01*
X25389707Y15003214D01*
X25389711Y15003211D01*
X25520814Y14915610D01*
X25520827Y14915603D01*
X25666498Y14855265D01*
X25666503Y14855263D01*
X25792176Y14830265D01*
X25821153Y14824501D01*
X25821156Y14824500D01*
X25821158Y14824500D01*
X25978844Y14824500D01*
X25978845Y14824501D01*
X26133497Y14855263D01*
X26279179Y14915606D01*
X26410289Y15003211D01*
X26462320Y15055243D01*
X26523639Y15088726D01*
X26593330Y15083743D01*
X26637680Y15055241D01*
X26664707Y15028214D01*
X26664711Y15028211D01*
X26795814Y14940610D01*
X26795827Y14940603D01*
X26941498Y14880265D01*
X26941503Y14880263D01*
X27067176Y14855265D01*
X27096153Y14849501D01*
X27096156Y14849500D01*
X27096158Y14849500D01*
X27254832Y14849500D01*
X27265010Y14850000D01*
X30025500Y14850000D01*
X30092539Y14830315D01*
X30138294Y14777511D01*
X30149500Y14726000D01*
X30149500Y12719336D01*
X30129815Y12652297D01*
X30113181Y12631655D01*
X29368345Y11886819D01*
X29307022Y11853334D01*
X29280664Y11850500D01*
X27174000Y11850500D01*
X27106961Y11870185D01*
X27061206Y11922989D01*
X27050000Y11974500D01*
X27050000Y12640292D01*
X27050500Y12650460D01*
X27050500Y12848544D01*
X27012052Y13041830D01*
X27012051Y13041831D01*
X27012051Y13041835D01*
X26950564Y13190280D01*
X26936635Y13223908D01*
X26936628Y13223921D01*
X26827139Y13387782D01*
X26827136Y13387786D01*
X26687785Y13527137D01*
X26687781Y13527140D01*
X26523920Y13636629D01*
X26523907Y13636636D01*
X26341839Y13712050D01*
X26341829Y13712053D01*
X26148543Y13750500D01*
X26148541Y13750500D01*
X15665782Y13750500D01*
X15598743Y13770185D01*
X15578101Y13786819D01*
X9386819Y19978101D01*
X9353334Y20039424D01*
X9350500Y20065782D01*
X9350500Y24101455D01*
X9350501Y24101460D01*
X9350501Y24298541D01*
X9350500Y24298547D01*
X9350500Y24448541D01*
X9350500Y39095325D01*
X9350501Y39095346D01*
X9350501Y39298543D01*
X9350500Y39298545D01*
X9323347Y39435052D01*
X9312052Y39491835D01*
X9236632Y39673914D01*
X9236631Y39673915D01*
X9236628Y39673921D01*
X9127140Y39837781D01*
X9127137Y39837785D01*
X7504208Y41460712D01*
X7504205Y41460716D01*
X7504205Y41460715D01*
X7497138Y41467782D01*
X7497138Y41467783D01*
X7357781Y41607140D01*
X7357780Y41607141D01*
X7357779Y41607142D01*
X7193919Y41716630D01*
X7193910Y41716635D01*
X7121314Y41746705D01*
X7065164Y41769963D01*
X7011835Y41792052D01*
X7011831Y41792053D01*
X7011827Y41792055D01*
X6915187Y41811277D01*
X6818543Y41830501D01*
X6818540Y41830501D01*
X2420200Y41830501D01*
X2353161Y41850186D01*
X2340634Y41859495D01*
X2167817Y41985052D01*
X2158501Y41989799D01*
X2107707Y42037774D01*
X2090913Y42105596D01*
X2113452Y42171730D01*
X2158511Y42210770D01*
X2167553Y42215377D01*
X2221716Y42254730D01*
X2221717Y42254730D01*
X1589409Y42887038D01*
X1652993Y42904075D01*
X1767007Y42969901D01*
X1860099Y43062993D01*
X1925925Y43177007D01*
X1942962Y43240591D01*
X2575270Y42608283D01*
X2575270Y42608284D01*
X2614622Y42662446D01*
X2711095Y42851783D01*
X2776757Y43053870D01*
X2776757Y43053873D01*
X2810000Y43263754D01*
X2810000Y43476247D01*
X2776757Y43686128D01*
X2776757Y43686131D01*
X2711095Y43888218D01*
X2614624Y44077551D01*
X2575270Y44131718D01*
X2575269Y44131718D01*
X1942962Y43499410D01*
X1925925Y43562993D01*
X1860099Y43677007D01*
X1767007Y43770099D01*
X1652993Y43835925D01*
X1589407Y43852964D01*
X2259627Y44523182D01*
X2320950Y44556667D01*
X2347307Y44559501D01*
X2357872Y44559501D01*
X2417483Y44565909D01*
X2552331Y44616204D01*
X2667546Y44702454D01*
X2753796Y44817669D01*
X2804091Y44952517D01*
X2810500Y45012127D01*
X2810499Y46807872D01*
X2804091Y46867483D01*
X2753796Y47002331D01*
X2753795Y47002332D01*
X2753793Y47002336D01*
X2667547Y47117545D01*
X2667544Y47117548D01*
X2552335Y47203794D01*
X2552328Y47203798D01*
X2417482Y47254092D01*
X2417483Y47254092D01*
X2357883Y47260499D01*
X2357881Y47260500D01*
X2357873Y47260500D01*
X2357865Y47260500D01*
X624500Y47260500D01*
X557461Y47280185D01*
X511706Y47332989D01*
X500500Y47384500D01*
X500500Y49785063D01*
X520185Y49852102D01*
X572989Y49897857D01*
X642147Y49907801D01*
X697386Y49885381D01*
X752445Y49845378D01*
X941782Y49748905D01*
X1143870Y49683243D01*
X1353754Y49650000D01*
X1566246Y49650000D01*
X1776127Y49683243D01*
X1776130Y49683243D01*
X1978217Y49748905D01*
X2167554Y49845378D01*
X2221716Y49884730D01*
X2221717Y49884730D01*
X1589409Y50517038D01*
X1652993Y50534075D01*
X1767007Y50599901D01*
X1860099Y50692993D01*
X1925925Y50807007D01*
X1942962Y50870592D01*
X2613181Y50200372D01*
X2646666Y50139049D01*
X2649500Y50112700D01*
X2649500Y50102135D01*
X2649501Y50102124D01*
X2655908Y50042517D01*
X2706202Y49907672D01*
X2706206Y49907665D01*
X2792452Y49792456D01*
X2792455Y49792453D01*
X2907664Y49706207D01*
X2907671Y49706203D01*
X3042517Y49655909D01*
X3042516Y49655909D01*
X3049444Y49655165D01*
X3102127Y49649500D01*
X4897872Y49649501D01*
X4957483Y49655909D01*
X5092331Y49706204D01*
X5207546Y49792454D01*
X5293796Y49907669D01*
X5297960Y49918835D01*
X5339829Y49974766D01*
X5405293Y49999184D01*
X5414141Y49999500D01*
X8284218Y49999500D01*
X8351257Y49979815D01*
X8371899Y49963181D01*
X12963181Y45371899D01*
X12996666Y45310576D01*
X12999500Y45284218D01*
X12999500Y28248541D01*
X12999500Y21151459D01*
X12999500Y21151457D01*
X12999499Y21151457D01*
X13037947Y20958171D01*
X13037950Y20958161D01*
X13113364Y20776093D01*
X13113371Y20776080D01*
X13222860Y20612219D01*
X13222863Y20612215D01*
X13362214Y20472864D01*
X13362218Y20472861D01*
X13526079Y20363372D01*
X13526092Y20363365D01*
X13638012Y20317007D01*
X13708165Y20287949D01*
X13708169Y20287949D01*
X13708170Y20287948D01*
X13901456Y20249500D01*
X13901459Y20249500D01*
X14098543Y20249500D01*
X14251315Y20279889D01*
X14291835Y20287949D01*
X14473914Y20363368D01*
X14637782Y20472861D01*
X14777139Y20612218D01*
X14886632Y20776086D01*
X14962051Y20958165D01*
X14975986Y21028218D01*
X15000500Y21151457D01*
X15000500Y45848544D01*
X14962052Y46041830D01*
X14962051Y46041831D01*
X14962051Y46041835D01*
X14962049Y46041840D01*
X14886635Y46223908D01*
X14886628Y46223921D01*
X14777139Y46387782D01*
X14777136Y46387786D01*
X14634686Y46530236D01*
X14634655Y46530265D01*
X9532054Y51632866D01*
X9527141Y51637779D01*
X9527139Y51637782D01*
X9387782Y51777139D01*
X9376815Y51784467D01*
X9223920Y51886629D01*
X9223907Y51886636D01*
X9097242Y51939102D01*
X9097234Y51939105D01*
X9090120Y51942051D01*
X9041836Y51962051D01*
X8945188Y51981276D01*
X8940801Y51982149D01*
X8940796Y51982150D01*
X8848544Y52000500D01*
X8848541Y52000500D01*
X5414141Y52000500D01*
X5347102Y52020185D01*
X5301347Y52072989D01*
X5297969Y52081141D01*
X5293796Y52092331D01*
X5293793Y52092335D01*
X5293793Y52092336D01*
X5207547Y52207545D01*
X5207544Y52207548D01*
X5092335Y52293794D01*
X5092328Y52293798D01*
X4957482Y52344092D01*
X4957483Y52344092D01*
X4897883Y52350499D01*
X4897881Y52350500D01*
X4897873Y52350500D01*
X4897864Y52350500D01*
X3102129Y52350500D01*
X3102123Y52350499D01*
X3042516Y52344092D01*
X2907671Y52293798D01*
X2907664Y52293794D01*
X2792455Y52207548D01*
X2792452Y52207545D01*
X2706206Y52092336D01*
X2706202Y52092329D01*
X2655908Y51957483D01*
X2649501Y51897884D01*
X2649500Y51897865D01*
X2649500Y51887310D01*
X2629815Y51820271D01*
X2613181Y51799629D01*
X1942962Y51129410D01*
X1925925Y51192993D01*
X1860099Y51307007D01*
X1767007Y51400099D01*
X1652993Y51465925D01*
X1589407Y51482964D01*
X2221716Y52115272D01*
X2167550Y52154625D01*
X1978217Y52251096D01*
X1776129Y52316758D01*
X1566246Y52350000D01*
X1353754Y52350000D01*
X1143872Y52316758D01*
X1143869Y52316758D01*
X941782Y52251096D01*
X752442Y52154621D01*
X697385Y52114620D01*
X631578Y52091140D01*
X563525Y52106966D01*
X514830Y52157072D01*
X500500Y52214938D01*
X500500Y55996754D01*
X500670Y56003243D01*
X503953Y56065892D01*
X506856Y56121289D01*
X1649500Y56121289D01*
X1649500Y55878712D01*
X1681161Y55638215D01*
X1743947Y55403896D01*
X1836773Y55179795D01*
X1836776Y55179788D01*
X1958064Y54969711D01*
X1958066Y54969708D01*
X1958067Y54969707D01*
X2105733Y54777264D01*
X2105739Y54777257D01*
X2277256Y54605740D01*
X2277262Y54605735D01*
X2469711Y54458064D01*
X2679788Y54336776D01*
X2903900Y54243946D01*
X3138211Y54181162D01*
X3318586Y54157416D01*
X3378711Y54149500D01*
X3378712Y54149500D01*
X3621289Y54149500D01*
X3669388Y54155833D01*
X3861789Y54181162D01*
X4096100Y54243946D01*
X4320212Y54336776D01*
X4530289Y54458064D01*
X4722738Y54605735D01*
X4894265Y54777262D01*
X5041936Y54969711D01*
X5163224Y55179788D01*
X5256054Y55403900D01*
X5318838Y55638211D01*
X5350500Y55878712D01*
X5350500Y56121288D01*
X5350500Y56121289D01*
X31899500Y56121289D01*
X31899500Y55878712D01*
X31931161Y55638215D01*
X31993947Y55403896D01*
X32086773Y55179795D01*
X32086776Y55179788D01*
X32208064Y54969711D01*
X32208066Y54969708D01*
X32208067Y54969707D01*
X32355733Y54777264D01*
X32355739Y54777257D01*
X32527256Y54605740D01*
X32527262Y54605735D01*
X32719711Y54458064D01*
X32929788Y54336776D01*
X33153900Y54243946D01*
X33388211Y54181162D01*
X33568586Y54157416D01*
X33628711Y54149500D01*
X33628712Y54149500D01*
X33871289Y54149500D01*
X33919388Y54155833D01*
X34111789Y54181162D01*
X34346100Y54243946D01*
X34570212Y54336776D01*
X34780289Y54458064D01*
X34972738Y54605735D01*
X35144265Y54777262D01*
X35291936Y54969711D01*
X35413224Y55179788D01*
X35506054Y55403900D01*
X35568838Y55638211D01*
X35600500Y55878712D01*
X35600500Y56121288D01*
X35568838Y56361789D01*
X35506054Y56596100D01*
X35413224Y56820212D01*
X35291936Y57030289D01*
X35144265Y57222738D01*
X35144260Y57222744D01*
X34972743Y57394261D01*
X34972736Y57394267D01*
X34780293Y57541933D01*
X34780292Y57541934D01*
X34780289Y57541936D01*
X34570212Y57663224D01*
X34570205Y57663227D01*
X34346104Y57756053D01*
X34111785Y57818839D01*
X33871289Y57850500D01*
X33871288Y57850500D01*
X33628712Y57850500D01*
X33628711Y57850500D01*
X33388214Y57818839D01*
X33153895Y57756053D01*
X32929794Y57663227D01*
X32929785Y57663223D01*
X32719706Y57541933D01*
X32527263Y57394267D01*
X32527256Y57394261D01*
X32355739Y57222744D01*
X32355733Y57222737D01*
X32208067Y57030294D01*
X32086777Y56820215D01*
X32086773Y56820206D01*
X31993947Y56596105D01*
X31931161Y56361786D01*
X31899500Y56121289D01*
X5350500Y56121289D01*
X5318838Y56361789D01*
X5256054Y56596100D01*
X5163224Y56820212D01*
X5041936Y57030289D01*
X4894265Y57222738D01*
X4894260Y57222744D01*
X4722743Y57394261D01*
X4722736Y57394267D01*
X4530293Y57541933D01*
X4530292Y57541934D01*
X4530289Y57541936D01*
X4320212Y57663224D01*
X4320205Y57663227D01*
X4096104Y57756053D01*
X3861785Y57818839D01*
X3621289Y57850500D01*
X3621288Y57850500D01*
X3378712Y57850500D01*
X3378711Y57850500D01*
X3138214Y57818839D01*
X2903895Y57756053D01*
X2679794Y57663227D01*
X2679785Y57663223D01*
X2469706Y57541933D01*
X2277263Y57394267D01*
X2277256Y57394261D01*
X2105739Y57222744D01*
X2105733Y57222737D01*
X1958067Y57030294D01*
X1836777Y56820215D01*
X1836773Y56820206D01*
X1743947Y56596105D01*
X1681161Y56361786D01*
X1649500Y56121289D01*
X506856Y56121289D01*
X516592Y56307049D01*
X517949Y56319954D01*
X554904Y56553285D01*
X565029Y56617214D01*
X567723Y56629893D01*
X645627Y56920632D01*
X649636Y56932967D01*
X757493Y57213946D01*
X762763Y57225785D01*
X899415Y57493977D01*
X905891Y57505192D01*
X1069819Y57757620D01*
X1077434Y57768101D01*
X1266858Y58002021D01*
X1275525Y58011646D01*
X1488354Y58224475D01*
X1497979Y58233142D01*
X1731899Y58422566D01*
X1742380Y58430181D01*
X1994808Y58594109D01*
X2006023Y58600585D01*
X2274215Y58737237D01*
X2286054Y58742507D01*
X2567040Y58850367D01*
X2579368Y58854373D01*
X2870107Y58932277D01*
X2882786Y58934971D01*
X3180046Y58982051D01*
X3192951Y58983408D01*
X3496756Y58999331D01*
X3503246Y58999500D01*
X3565892Y58999500D01*
X33684108Y58999500D01*
X33746754Y58999500D01*
X33753244Y58999330D01*
G37*
%TD.AperFunction*%
%TA.AperFunction,Conductor*%
G36*
X35284075Y20307006D02*
G01*
X35349901Y20192992D01*
X35442993Y20099900D01*
X35557007Y20034074D01*
X35620589Y20017037D01*
X34988282Y19384730D01*
X34988282Y19384729D01*
X35042452Y19345373D01*
X35042451Y19345373D01*
X35051495Y19340765D01*
X35102292Y19292791D01*
X35119087Y19224970D01*
X35096550Y19158835D01*
X35051499Y19119797D01*
X35042182Y19115050D01*
X34870213Y18990109D01*
X34870209Y18990105D01*
X34719897Y18839792D01*
X34719890Y18839786D01*
X34594948Y18667816D01*
X34590482Y18659050D01*
X34542506Y18608257D01*
X34474684Y18591464D01*
X34408550Y18614004D01*
X34369516Y18659054D01*
X34365050Y18667818D01*
X34240109Y18839787D01*
X34089786Y18990110D01*
X33917817Y19115051D01*
X33908501Y19119798D01*
X33857707Y19167773D01*
X33840913Y19235595D01*
X33863452Y19301729D01*
X33908511Y19340769D01*
X33917553Y19345376D01*
X33971716Y19384729D01*
X33971717Y19384729D01*
X33339408Y20017037D01*
X33402993Y20034074D01*
X33517007Y20099900D01*
X33610099Y20192992D01*
X33675925Y20307006D01*
X33692962Y20370591D01*
X34325270Y19738282D01*
X34325270Y19738283D01*
X34364622Y19792445D01*
X34369514Y19802045D01*
X34417488Y19852842D01*
X34485308Y19869638D01*
X34551444Y19847102D01*
X34590486Y19802045D01*
X34595375Y19792449D01*
X34634728Y19738283D01*
X35267037Y20370591D01*
X35284075Y20307006D01*
G37*
%TD.AperFunction*%
%TA.AperFunction,Conductor*%
G36*
X3534075Y20317007D02*
G01*
X3599901Y20202993D01*
X3692993Y20109901D01*
X3807007Y20044075D01*
X3870590Y20027038D01*
X3238282Y19394731D01*
X3238282Y19394730D01*
X3292452Y19355374D01*
X3292451Y19355374D01*
X3301495Y19350766D01*
X3352292Y19302792D01*
X3369087Y19234971D01*
X3346550Y19168836D01*
X3301499Y19129798D01*
X3292182Y19125051D01*
X3120213Y19000110D01*
X2969890Y18849787D01*
X2844949Y18677818D01*
X2840484Y18669054D01*
X2792509Y18618258D01*
X2724688Y18601464D01*
X2658553Y18624002D01*
X2619516Y18669054D01*
X2615050Y18677818D01*
X2490109Y18849787D01*
X2339786Y19000110D01*
X2167817Y19125051D01*
X2158504Y19129796D01*
X2107707Y19177770D01*
X2090912Y19245591D01*
X2113449Y19311726D01*
X2158507Y19350768D01*
X2167555Y19355378D01*
X2221716Y19394730D01*
X2221717Y19394730D01*
X1589409Y20027038D01*
X1652993Y20044075D01*
X1767007Y20109901D01*
X1860099Y20202993D01*
X1925925Y20317007D01*
X1942962Y20380591D01*
X2575270Y19748283D01*
X2575270Y19748284D01*
X2614622Y19802446D01*
X2619514Y19812046D01*
X2667488Y19862843D01*
X2735308Y19879639D01*
X2801444Y19857103D01*
X2840486Y19812046D01*
X2845375Y19802450D01*
X2884728Y19748284D01*
X3517037Y20380592D01*
X3534075Y20317007D01*
G37*
%TD.AperFunction*%
%TA.AperFunction,Conductor*%
G36*
X34557421Y37609815D02*
G01*
X34591099Y37575409D01*
X34592085Y37576125D01*
X34719890Y37400214D01*
X34870213Y37249891D01*
X35042182Y37124950D01*
X35050946Y37120484D01*
X35101742Y37072509D01*
X35118536Y37004688D01*
X35095998Y36938553D01*
X35050946Y36899516D01*
X35042182Y36895051D01*
X34870213Y36770110D01*
X34719890Y36619787D01*
X34594951Y36447821D01*
X34498444Y36258415D01*
X34432753Y36056240D01*
X34399500Y35846287D01*
X34399500Y35633714D01*
X34431169Y35433761D01*
X34432754Y35423757D01*
X34495194Y35231586D01*
X34498444Y35221586D01*
X34594951Y35032180D01*
X34719890Y34860214D01*
X34870213Y34709891D01*
X35042182Y34584950D01*
X35050946Y34580484D01*
X35101742Y34532509D01*
X35118536Y34464688D01*
X35095998Y34398553D01*
X35050946Y34359516D01*
X35042182Y34355051D01*
X34870213Y34230110D01*
X34719890Y34079787D01*
X34594951Y33907821D01*
X34498444Y33718415D01*
X34432753Y33516240D01*
X34399500Y33306287D01*
X34399500Y33093714D01*
X34431169Y32893761D01*
X34432754Y32883757D01*
X34495194Y32691586D01*
X34498444Y32681586D01*
X34594951Y32492180D01*
X34719890Y32320214D01*
X34870213Y32169891D01*
X35042179Y32044952D01*
X35042181Y32044951D01*
X35042184Y32044949D01*
X35231588Y31948443D01*
X35433757Y31882754D01*
X35643713Y31849500D01*
X35643714Y31849500D01*
X35856286Y31849500D01*
X35856287Y31849500D01*
X36066243Y31882754D01*
X36268412Y31948443D01*
X36457816Y32044949D01*
X36552615Y32113824D01*
X36618421Y32137304D01*
X36686475Y32121479D01*
X36735170Y32071373D01*
X36749500Y32013506D01*
X36749500Y29305877D01*
X36729815Y29238838D01*
X36677011Y29193083D01*
X36607853Y29183139D01*
X36552615Y29205558D01*
X36457553Y29274624D01*
X36268217Y29371096D01*
X36066129Y29436758D01*
X35856246Y29470000D01*
X35643754Y29470000D01*
X35433872Y29436758D01*
X35433869Y29436758D01*
X35231782Y29371096D01*
X35042439Y29274620D01*
X34988282Y29235273D01*
X34988282Y29235272D01*
X35620591Y28602963D01*
X35557007Y28585925D01*
X35442993Y28520099D01*
X35349901Y28427007D01*
X35284075Y28312993D01*
X35267037Y28249409D01*
X34596818Y28919628D01*
X34563333Y28980951D01*
X34560499Y29007309D01*
X34560499Y29017871D01*
X34560498Y29017877D01*
X34560497Y29017884D01*
X34554091Y29077483D01*
X34550361Y29087483D01*
X34503797Y29212329D01*
X34503793Y29212336D01*
X34417547Y29327545D01*
X34417544Y29327548D01*
X34302335Y29413794D01*
X34302328Y29413798D01*
X34167482Y29464092D01*
X34167483Y29464092D01*
X34107883Y29470499D01*
X34107881Y29470500D01*
X34107873Y29470500D01*
X34107864Y29470500D01*
X32312129Y29470500D01*
X32312123Y29470499D01*
X32252516Y29464092D01*
X32117671Y29413798D01*
X32117664Y29413794D01*
X32002455Y29327548D01*
X32002452Y29327545D01*
X31916206Y29212336D01*
X31916202Y29212329D01*
X31865908Y29077483D01*
X31860575Y29027873D01*
X31859501Y29017877D01*
X31859500Y29017865D01*
X31859500Y27222130D01*
X31859501Y27222124D01*
X31865908Y27162517D01*
X31916202Y27027672D01*
X31916206Y27027665D01*
X32002452Y26912456D01*
X32002455Y26912453D01*
X32117664Y26826207D01*
X32117671Y26826203D01*
X32252517Y26775909D01*
X32252516Y26775909D01*
X32259444Y26775165D01*
X32312127Y26769500D01*
X34107872Y26769501D01*
X34167483Y26775909D01*
X34302331Y26826204D01*
X34417546Y26912454D01*
X34503796Y27027669D01*
X34554091Y27162517D01*
X34560500Y27222127D01*
X34560499Y27232688D01*
X34580179Y27299725D01*
X34596818Y27320374D01*
X35267037Y27990592D01*
X35284075Y27927007D01*
X35349901Y27812993D01*
X35442993Y27719901D01*
X35557007Y27654075D01*
X35620589Y27637038D01*
X34988282Y27004731D01*
X34988282Y27004730D01*
X35042449Y26965376D01*
X35231782Y26868905D01*
X35433870Y26803243D01*
X35643754Y26770000D01*
X35856246Y26770000D01*
X36066127Y26803243D01*
X36066130Y26803243D01*
X36268217Y26868905D01*
X36457557Y26965380D01*
X36552615Y27034442D01*
X36618421Y27057922D01*
X36686475Y27042096D01*
X36735170Y26991991D01*
X36749500Y26934124D01*
X36749500Y24226494D01*
X36729815Y24159455D01*
X36677011Y24113700D01*
X36607853Y24103756D01*
X36552615Y24126176D01*
X36457820Y24195048D01*
X36268414Y24291555D01*
X36268413Y24291556D01*
X36268412Y24291556D01*
X36066243Y24357245D01*
X36066241Y24357246D01*
X36066240Y24357246D01*
X35904957Y24382791D01*
X35856287Y24390499D01*
X35643713Y24390499D01*
X35595042Y24382791D01*
X35433760Y24357246D01*
X35231585Y24291555D01*
X35042179Y24195048D01*
X34870215Y24070110D01*
X34756673Y23956568D01*
X34695350Y23923084D01*
X34625658Y23928068D01*
X34569725Y23969940D01*
X34552810Y24000917D01*
X34503797Y24132328D01*
X34503793Y24132335D01*
X34417547Y24247544D01*
X34417544Y24247547D01*
X34302335Y24333793D01*
X34302328Y24333797D01*
X34167482Y24384091D01*
X34167483Y24384091D01*
X34107883Y24390498D01*
X34107881Y24390499D01*
X34107873Y24390499D01*
X34107864Y24390499D01*
X32312129Y24390499D01*
X32312123Y24390498D01*
X32252516Y24384091D01*
X32117671Y24333797D01*
X32117664Y24333793D01*
X32002455Y24247547D01*
X32002452Y24247544D01*
X31916206Y24132335D01*
X31916202Y24132328D01*
X31865908Y23997482D01*
X31859501Y23937883D01*
X31859500Y23937864D01*
X31859500Y22142129D01*
X31859501Y22142123D01*
X31865908Y22082516D01*
X31916202Y21947671D01*
X31916206Y21947664D01*
X32002452Y21832455D01*
X32002455Y21832452D01*
X32117664Y21746206D01*
X32117671Y21746202D01*
X32153728Y21732754D01*
X32252517Y21695908D01*
X32312127Y21689499D01*
X32322685Y21689500D01*
X32389723Y21669820D01*
X32410372Y21653181D01*
X33080591Y20982962D01*
X33017007Y20965924D01*
X32902993Y20900098D01*
X32809901Y20807006D01*
X32744075Y20692992D01*
X32727037Y20629408D01*
X32094728Y21261717D01*
X32094727Y21261717D01*
X32055380Y21207560D01*
X31958904Y21018217D01*
X31893242Y20816130D01*
X31893242Y20816127D01*
X31860000Y20606246D01*
X31860000Y20393753D01*
X31893242Y20183872D01*
X31893242Y20183869D01*
X31958904Y19981782D01*
X32055375Y19792449D01*
X32094728Y19738283D01*
X32727037Y20370591D01*
X32744075Y20307006D01*
X32809901Y20192992D01*
X32902993Y20099900D01*
X33017007Y20034074D01*
X33080590Y20017037D01*
X32448282Y19384730D01*
X32448282Y19384729D01*
X32502449Y19345375D01*
X32511491Y19340768D01*
X32562289Y19292795D01*
X32579086Y19224974D01*
X32556551Y19158839D01*
X32511501Y19119799D01*
X32502181Y19115050D01*
X32330213Y18990110D01*
X32330209Y18990106D01*
X32179896Y18839792D01*
X32179890Y18839787D01*
X32052085Y18663875D01*
X32050740Y18664852D01*
X32004295Y18622834D01*
X31950382Y18610500D01*
X30036401Y18610500D01*
X29969362Y18630185D01*
X29923607Y18682989D01*
X29913663Y18752147D01*
X29924757Y18785987D01*
X29924134Y18786245D01*
X29946314Y18839792D01*
X29975499Y18910252D01*
X29975501Y18910256D01*
X29991384Y18990104D01*
X30000500Y19035929D01*
X30000500Y35279192D01*
X30020185Y35346231D01*
X30036819Y35366873D01*
X32263127Y37593181D01*
X32324450Y37626666D01*
X32350808Y37629500D01*
X34490382Y37629500D01*
X34557421Y37609815D01*
G37*
%TD.AperFunction*%
%TA.AperFunction,Conductor*%
G36*
X34728418Y22144582D02*
G01*
X34756673Y22123430D01*
X34870213Y22009890D01*
X35042179Y21884951D01*
X35042181Y21884950D01*
X35042184Y21884948D01*
X35051493Y21880205D01*
X35102290Y21832233D01*
X35119087Y21764412D01*
X35096552Y21698277D01*
X35051505Y21659239D01*
X35042446Y21654623D01*
X35042440Y21654619D01*
X34988282Y21615272D01*
X34988282Y21615271D01*
X35620591Y20982962D01*
X35557007Y20965924D01*
X35442993Y20900098D01*
X35349901Y20807006D01*
X35284075Y20692992D01*
X35267037Y20629408D01*
X34634728Y21261717D01*
X34634727Y21261717D01*
X34595380Y21207559D01*
X34590483Y21197948D01*
X34542506Y21147154D01*
X34474684Y21130361D01*
X34408550Y21152901D01*
X34369516Y21197951D01*
X34364626Y21207547D01*
X34325270Y21261717D01*
X34325269Y21261717D01*
X33692962Y20629409D01*
X33675925Y20692992D01*
X33610099Y20807006D01*
X33517007Y20900098D01*
X33402993Y20965924D01*
X33339409Y20982962D01*
X34009627Y21653181D01*
X34070950Y21686666D01*
X34097307Y21689500D01*
X34107872Y21689500D01*
X34167483Y21695908D01*
X34302331Y21746203D01*
X34417546Y21832453D01*
X34503796Y21947668D01*
X34552810Y22079083D01*
X34594681Y22135015D01*
X34660145Y22159433D01*
X34728418Y22144582D01*
G37*
%TD.AperFunction*%
%TA.AperFunction,Conductor*%
G36*
X2584341Y22161932D02*
G01*
X2606378Y22145435D01*
X2640274Y22120061D01*
X2657189Y22089083D01*
X2706202Y21957672D01*
X2706206Y21957665D01*
X2792452Y21842456D01*
X2792455Y21842453D01*
X2907664Y21756207D01*
X2907671Y21756203D01*
X2934475Y21746206D01*
X3042517Y21705909D01*
X3102127Y21699500D01*
X3112685Y21699501D01*
X3179723Y21679821D01*
X3200372Y21663182D01*
X3870591Y20992963D01*
X3807007Y20975925D01*
X3692993Y20910099D01*
X3599901Y20817007D01*
X3534075Y20702993D01*
X3517037Y20639409D01*
X2884728Y21271718D01*
X2884727Y21271718D01*
X2845380Y21217560D01*
X2840483Y21207949D01*
X2792506Y21157155D01*
X2724684Y21140362D01*
X2658550Y21162902D01*
X2619516Y21207952D01*
X2614626Y21217548D01*
X2575270Y21271718D01*
X2575269Y21271718D01*
X1942962Y20639410D01*
X1925925Y20702993D01*
X1860099Y20817007D01*
X1767007Y20910099D01*
X1652993Y20975925D01*
X1589407Y20992964D01*
X2221716Y21625272D01*
X2167547Y21664627D01*
X2167547Y21664628D01*
X2158500Y21669237D01*
X2107706Y21717212D01*
X2090912Y21785034D01*
X2113451Y21851168D01*
X2158508Y21890207D01*
X2167816Y21894949D01*
X2339792Y22019896D01*
X2453329Y22133434D01*
X2514648Y22166916D01*
X2514649Y22166916D01*
X2584341Y22161932D01*
G37*
%TD.AperFunction*%
%TA.AperFunction,Conductor*%
G36*
X6321256Y39809816D02*
G01*
X6341898Y39793182D01*
X7313181Y38821899D01*
X7346666Y38760576D01*
X7349500Y38734218D01*
X7349500Y24665783D01*
X7329815Y24598744D01*
X7313181Y24578102D01*
X6821899Y24086819D01*
X6760576Y24053334D01*
X6734218Y24050500D01*
X5414141Y24050500D01*
X5347102Y24070185D01*
X5301347Y24122989D01*
X5297969Y24131141D01*
X5293796Y24142331D01*
X5293793Y24142335D01*
X5293793Y24142336D01*
X5207547Y24257545D01*
X5207544Y24257548D01*
X5092335Y24343794D01*
X5092328Y24343798D01*
X4957482Y24394092D01*
X4957483Y24394092D01*
X4897883Y24400499D01*
X4897881Y24400500D01*
X4897873Y24400500D01*
X4897864Y24400500D01*
X3102129Y24400500D01*
X3102123Y24400499D01*
X3042516Y24394092D01*
X2907671Y24343798D01*
X2907664Y24343794D01*
X2792455Y24257548D01*
X2792452Y24257545D01*
X2706206Y24142336D01*
X2706203Y24142331D01*
X2657189Y24010917D01*
X2615317Y23954984D01*
X2549853Y23930567D01*
X2481580Y23945419D01*
X2453326Y23966570D01*
X2339786Y24080110D01*
X2167820Y24205049D01*
X1978414Y24301556D01*
X1978413Y24301557D01*
X1978412Y24301557D01*
X1776243Y24367246D01*
X1776241Y24367247D01*
X1776240Y24367247D01*
X1614957Y24392792D01*
X1566287Y24400500D01*
X1353713Y24400500D01*
X1305042Y24392792D01*
X1143760Y24367247D01*
X941585Y24301556D01*
X752181Y24205050D01*
X697384Y24165238D01*
X631577Y24141759D01*
X563524Y24157585D01*
X514830Y24207692D01*
X500500Y24265557D01*
X500500Y26915063D01*
X520185Y26982102D01*
X572989Y27027857D01*
X642147Y27037801D01*
X697386Y27015381D01*
X752445Y26975378D01*
X941782Y26878905D01*
X1143870Y26813243D01*
X1353754Y26780000D01*
X1566246Y26780000D01*
X1776127Y26813243D01*
X1776130Y26813243D01*
X1978217Y26878905D01*
X2167554Y26975378D01*
X2221716Y27014730D01*
X2221717Y27014730D01*
X1589409Y27647038D01*
X1652993Y27664075D01*
X1767007Y27729901D01*
X1860099Y27822993D01*
X1925925Y27937007D01*
X1942962Y28000591D01*
X2613181Y27330372D01*
X2646666Y27269049D01*
X2649500Y27242700D01*
X2649500Y27232135D01*
X2649501Y27232124D01*
X2655908Y27172517D01*
X2706202Y27037672D01*
X2706206Y27037665D01*
X2792452Y26922456D01*
X2792455Y26922453D01*
X2907664Y26836207D01*
X2907671Y26836203D01*
X3042517Y26785909D01*
X3042516Y26785909D01*
X3049444Y26785165D01*
X3102127Y26779500D01*
X4897872Y26779501D01*
X4957483Y26785909D01*
X5092331Y26836204D01*
X5207546Y26922454D01*
X5293796Y27037669D01*
X5344091Y27172517D01*
X5350500Y27232127D01*
X5350499Y29027872D01*
X5344091Y29087483D01*
X5293796Y29222331D01*
X5293795Y29222332D01*
X5293793Y29222336D01*
X5207547Y29337545D01*
X5207544Y29337548D01*
X5092335Y29423794D01*
X5092328Y29423798D01*
X4957482Y29474092D01*
X4957483Y29474092D01*
X4897883Y29480499D01*
X4897881Y29480500D01*
X4897873Y29480500D01*
X4897864Y29480500D01*
X3102129Y29480500D01*
X3102123Y29480499D01*
X3042516Y29474092D01*
X2907671Y29423798D01*
X2907664Y29423794D01*
X2792455Y29337548D01*
X2792452Y29337545D01*
X2706206Y29222336D01*
X2706202Y29222329D01*
X2655908Y29087483D01*
X2649501Y29027884D01*
X2649501Y29027877D01*
X2649500Y29027865D01*
X2649500Y29017310D01*
X2629815Y28950271D01*
X2613181Y28929629D01*
X1942962Y28259410D01*
X1925925Y28322993D01*
X1860099Y28437007D01*
X1767007Y28530099D01*
X1652993Y28595925D01*
X1589407Y28612964D01*
X2221716Y29245272D01*
X2167550Y29284625D01*
X1978217Y29381096D01*
X1776129Y29446758D01*
X1566246Y29480000D01*
X1353754Y29480000D01*
X1143872Y29446758D01*
X1143869Y29446758D01*
X941782Y29381096D01*
X752442Y29284621D01*
X697385Y29244620D01*
X631578Y29221140D01*
X563525Y29236966D01*
X514830Y29287072D01*
X500500Y29344938D01*
X500500Y31994444D01*
X520185Y32061483D01*
X572989Y32107238D01*
X642147Y32117182D01*
X697385Y32094762D01*
X729578Y32071373D01*
X752184Y32054949D01*
X941588Y31958443D01*
X1143757Y31892754D01*
X1353713Y31859500D01*
X1353714Y31859500D01*
X1566286Y31859500D01*
X1566287Y31859500D01*
X1776243Y31892754D01*
X1978412Y31958443D01*
X2167816Y32054949D01*
X2253473Y32117182D01*
X2339786Y32179891D01*
X2339788Y32179894D01*
X2339792Y32179896D01*
X2490104Y32330208D01*
X2490106Y32330212D01*
X2490109Y32330214D01*
X2615048Y32502180D01*
X2615047Y32502180D01*
X2615051Y32502184D01*
X2711557Y32691588D01*
X2777246Y32893757D01*
X2810500Y33103713D01*
X2810500Y33316287D01*
X2777246Y33526243D01*
X2711557Y33728412D01*
X2615051Y33917816D01*
X2615049Y33917819D01*
X2615048Y33917821D01*
X2490109Y34089787D01*
X2339786Y34240110D01*
X2167820Y34365049D01*
X2167115Y34365409D01*
X2159054Y34369515D01*
X2108259Y34417488D01*
X2091463Y34485308D01*
X2113999Y34551444D01*
X2159054Y34590485D01*
X2167816Y34594949D01*
X2189789Y34610914D01*
X2339786Y34719891D01*
X2339788Y34719894D01*
X2339792Y34719896D01*
X2490104Y34870208D01*
X2490106Y34870212D01*
X2490109Y34870214D01*
X2615048Y35042180D01*
X2615047Y35042180D01*
X2615051Y35042184D01*
X2711557Y35231588D01*
X2777246Y35433757D01*
X2810500Y35643713D01*
X2810500Y35856287D01*
X2777246Y36066243D01*
X2711557Y36268412D01*
X2615051Y36457816D01*
X2615049Y36457819D01*
X2615048Y36457821D01*
X2490109Y36629787D01*
X2339786Y36780110D01*
X2167820Y36905049D01*
X2167115Y36905409D01*
X2159054Y36909515D01*
X2108259Y36957488D01*
X2091463Y37025308D01*
X2113999Y37091444D01*
X2159054Y37130485D01*
X2167816Y37134949D01*
X2189789Y37150914D01*
X2339786Y37259891D01*
X2339788Y37259894D01*
X2339792Y37259896D01*
X2490104Y37410208D01*
X2490106Y37410212D01*
X2490109Y37410214D01*
X2615048Y37582180D01*
X2615047Y37582180D01*
X2615051Y37582184D01*
X2711557Y37771588D01*
X2777246Y37973757D01*
X2810500Y38183713D01*
X2810500Y38396287D01*
X2777246Y38606243D01*
X2711557Y38808412D01*
X2615051Y38997816D01*
X2615049Y38997819D01*
X2615048Y38997821D01*
X2490109Y39169787D01*
X2339786Y39320110D01*
X2167817Y39445051D01*
X2159052Y39449517D01*
X2108257Y39497492D01*
X2091462Y39565313D01*
X2114000Y39631448D01*
X2159056Y39670487D01*
X2167816Y39674950D01*
X2167818Y39674952D01*
X2167821Y39674953D01*
X2343734Y39802760D01*
X2344364Y39801893D01*
X2403419Y39828360D01*
X2420200Y39829501D01*
X6254217Y39829501D01*
X6321256Y39809816D01*
G37*
%TD.AperFunction*%
%TD*%
M02*
