%TF.GenerationSoftware,KiCad,Pcbnew,8.0.6*%
%TF.CreationDate,2024-10-28T10:58:12+07:00*%
%TF.ProjectId,PICO_ADC_Test,5049434f-5f41-4444-935f-546573742e6b,R0.1*%
%TF.SameCoordinates,PX72ade90PY75c75e0*%
%TF.FileFunction,Copper,L1,Top*%
%TF.FilePolarity,Positive*%
%FSLAX46Y46*%
G04 Gerber Fmt 4.6, Leading zero omitted, Abs format (unit mm)*
G04 Created by KiCad (PCBNEW 8.0.6) date 2024-10-28 10:58:12*
%MOMM*%
%LPD*%
G01*
G04 APERTURE LIST*
G04 Aperture macros list*
%AMRoundRect*
0 Rectangle with rounded corners*
0 $1 Rounding radius*
0 $2 $3 $4 $5 $6 $7 $8 $9 X,Y pos of 4 corners*
0 Add a 4 corners polygon primitive as box body*
4,1,4,$2,$3,$4,$5,$6,$7,$8,$9,$2,$3,0*
0 Add four circle primitives for the rounded corners*
1,1,$1+$1,$2,$3*
1,1,$1+$1,$4,$5*
1,1,$1+$1,$6,$7*
1,1,$1+$1,$8,$9*
0 Add four rect primitives between the rounded corners*
20,1,$1+$1,$2,$3,$4,$5,0*
20,1,$1+$1,$4,$5,$6,$7,0*
20,1,$1+$1,$6,$7,$8,$9,0*
20,1,$1+$1,$8,$9,$2,$3,0*%
%AMFreePoly0*
4,1,9,3.862500,-0.866500,0.737500,-0.866500,0.737500,-0.450000,-0.737500,-0.450000,-0.737500,0.450000,0.737500,0.450000,0.737500,0.866500,3.862500,0.866500,3.862500,-0.866500,3.862500,-0.866500,$1*%
G04 Aperture macros list end*
%TA.AperFunction,ComponentPad*%
%ADD10C,2.000000*%
%TD*%
%TA.AperFunction,SMDPad,CuDef*%
%ADD11RoundRect,0.250000X-0.325000X-0.650000X0.325000X-0.650000X0.325000X0.650000X-0.325000X0.650000X0*%
%TD*%
%TA.AperFunction,SMDPad,CuDef*%
%ADD12RoundRect,0.250000X-0.650000X0.325000X-0.650000X-0.325000X0.650000X-0.325000X0.650000X0.325000X0*%
%TD*%
%TA.AperFunction,SMDPad,CuDef*%
%ADD13RoundRect,0.250000X0.650000X-0.325000X0.650000X0.325000X-0.650000X0.325000X-0.650000X-0.325000X0*%
%TD*%
%TA.AperFunction,SMDPad,CuDef*%
%ADD14RoundRect,0.250000X0.325000X0.650000X-0.325000X0.650000X-0.325000X-0.650000X0.325000X-0.650000X0*%
%TD*%
%TA.AperFunction,SMDPad,CuDef*%
%ADD15RoundRect,0.110000X-0.110000X-0.650000X0.110000X-0.650000X0.110000X0.650000X-0.110000X0.650000X0*%
%TD*%
%TA.AperFunction,SMDPad,CuDef*%
%ADD16RoundRect,0.250000X-0.625000X0.312500X-0.625000X-0.312500X0.625000X-0.312500X0.625000X0.312500X0*%
%TD*%
%TA.AperFunction,SMDPad,CuDef*%
%ADD17RoundRect,0.250000X0.625000X-0.312500X0.625000X0.312500X-0.625000X0.312500X-0.625000X-0.312500X0*%
%TD*%
%TA.AperFunction,SMDPad,CuDef*%
%ADD18RoundRect,0.250000X0.700000X-0.275000X0.700000X0.275000X-0.700000X0.275000X-0.700000X-0.275000X0*%
%TD*%
%TA.AperFunction,SMDPad,CuDef*%
%ADD19R,0.600000X0.850000*%
%TD*%
%TA.AperFunction,ComponentPad*%
%ADD20R,1.700000X1.700000*%
%TD*%
%TA.AperFunction,ComponentPad*%
%ADD21O,1.700000X1.700000*%
%TD*%
%TA.AperFunction,SMDPad,CuDef*%
%ADD22RoundRect,0.250000X0.312500X0.625000X-0.312500X0.625000X-0.312500X-0.625000X0.312500X-0.625000X0*%
%TD*%
%TA.AperFunction,SMDPad,CuDef*%
%ADD23RoundRect,0.250000X-0.700000X0.275000X-0.700000X-0.275000X0.700000X-0.275000X0.700000X0.275000X0*%
%TD*%
%TA.AperFunction,ComponentPad*%
%ADD24C,0.800000*%
%TD*%
%TA.AperFunction,ComponentPad*%
%ADD25C,6.400000*%
%TD*%
%TA.AperFunction,SMDPad,CuDef*%
%ADD26RoundRect,0.112500X0.587500X-0.112500X0.587500X0.112500X-0.587500X0.112500X-0.587500X-0.112500X0*%
%TD*%
%TA.AperFunction,SMDPad,CuDef*%
%ADD27RoundRect,0.112500X-0.625000X0.112500X-0.625000X-0.112500X0.625000X-0.112500X0.625000X0.112500X0*%
%TD*%
%TA.AperFunction,SMDPad,CuDef*%
%ADD28R,0.700000X2.350000*%
%TD*%
%TA.AperFunction,SMDPad,CuDef*%
%ADD29R,4.800000X4.900000*%
%TD*%
%TA.AperFunction,SMDPad,CuDef*%
%ADD30R,1.300000X0.900000*%
%TD*%
%TA.AperFunction,SMDPad,CuDef*%
%ADD31FreePoly0,0.000000*%
%TD*%
%TA.AperFunction,SMDPad,CuDef*%
%ADD32RoundRect,0.250000X0.275000X0.700000X-0.275000X0.700000X-0.275000X-0.700000X0.275000X-0.700000X0*%
%TD*%
%TA.AperFunction,SMDPad,CuDef*%
%ADD33RoundRect,0.250000X-0.312500X-0.625000X0.312500X-0.625000X0.312500X0.625000X-0.312500X0.625000X0*%
%TD*%
%TA.AperFunction,SMDPad,CuDef*%
%ADD34RoundRect,0.425000X1.325000X0.425000X-1.325000X0.425000X-1.325000X-0.425000X1.325000X-0.425000X0*%
%TD*%
%TA.AperFunction,SMDPad,CuDef*%
%ADD35RoundRect,0.425000X-0.425000X1.325000X-0.425000X-1.325000X0.425000X-1.325000X0.425000X1.325000X0*%
%TD*%
%TA.AperFunction,ViaPad*%
%ADD36C,0.800000*%
%TD*%
%TA.AperFunction,Conductor*%
%ADD37C,0.500000*%
%TD*%
%TA.AperFunction,Conductor*%
%ADD38C,0.450000*%
%TD*%
%TA.AperFunction,Conductor*%
%ADD39C,0.400000*%
%TD*%
%TA.AperFunction,Conductor*%
%ADD40C,0.300000*%
%TD*%
%TA.AperFunction,Conductor*%
%ADD41C,1.000000*%
%TD*%
G04 APERTURE END LIST*
D10*
%TO.P,REF\u002A\u002A,1*%
%TO.N,Net-(U1-A)*%
X71000000Y52000000D03*
%TD*%
D11*
%TO.P,C13,1*%
%TO.N,Net-(IC1-VCOM)*%
X61525000Y2500000D03*
%TO.P,C13,2*%
%TO.N,GND*%
X64475000Y2500000D03*
%TD*%
D12*
%TO.P,C9,1*%
%TO.N,Net-(C9-Pad1)*%
X71000000Y18725000D03*
%TO.P,C9,2*%
%TO.N,TO_ADC_L*%
X71000000Y15775000D03*
%TD*%
D13*
%TO.P,C21,1*%
%TO.N,5VVGA*%
X78000000Y20525000D03*
%TO.P,C21,2*%
%TO.N,GND*%
X78000000Y23475000D03*
%TD*%
D14*
%TO.P,C26,1*%
%TO.N,+3.3V*%
X54112500Y40012500D03*
%TO.P,C26,2*%
%TO.N,GND*%
X51162500Y40012500D03*
%TD*%
%TO.P,C25,1*%
%TO.N,+3.3V*%
X54087500Y37662500D03*
%TO.P,C25,2*%
%TO.N,GND*%
X51137500Y37662500D03*
%TD*%
D15*
%TO.P,IC2,1,LMD*%
%TO.N,Net-(IC2-LMD)*%
X70130000Y32965000D03*
%TO.P,IC2,2,INH*%
%TO.N,Net-(IC2-INH)*%
X69490000Y32965000D03*
%TO.P,IC2,3,VPSL*%
%TO.N,5VLNA*%
X68850000Y32965000D03*
%TO.P,IC2,4,LON*%
%TO.N,Net-(IC2-LON)*%
X68210000Y32965000D03*
%TO.P,IC2,5,LOP*%
%TO.N,Net-(IC2-LOP)*%
X67570000Y32965000D03*
%TO.P,IC2,6,COML*%
%TO.N,GND*%
X66930000Y32965000D03*
%TO.P,IC2,7,VIP*%
%TO.N,Net-(IC2-VIP)*%
X66290000Y32965000D03*
%TO.P,IC2,8,VIN*%
%TO.N,Net-(IC2-VIN)*%
X65650000Y32965000D03*
%TO.P,IC2,9,MODE*%
%TO.N,GND*%
X65010000Y32965000D03*
%TO.P,IC2,10,GAIN*%
%TO.N,DAC_G*%
X64370000Y32965000D03*
%TO.P,IC2,11,VCM*%
%TO.N,Net-(IC2-VCM)*%
X64370000Y27535000D03*
%TO.P,IC2,12,RCLMP*%
%TO.N,Net-(IC2-RCLMP)*%
X65010000Y27535000D03*
%TO.P,IC2,13,HILO*%
%TO.N,Net-(IC2-HILO)*%
X65650000Y27535000D03*
%TO.P,IC2,14,VPOS*%
%TO.N,Net-(IC2-VPOS)*%
X66290000Y27535000D03*
%TO.P,IC2,15,VOH*%
%TO.N,VOH*%
X66930000Y27535000D03*
%TO.P,IC2,16,VOL*%
%TO.N,VOL*%
X67570000Y27535000D03*
%TO.P,IC2,17,COMM_1*%
%TO.N,GND*%
X68210000Y27535000D03*
%TO.P,IC2,18,ENBV*%
%TO.N,Net-(IC2-ENBV)*%
X68850000Y27535000D03*
%TO.P,IC2,19,ENBL*%
%TO.N,Net-(IC2-ENBL)*%
X69490000Y27535000D03*
%TO.P,IC2,20,COMM_2*%
%TO.N,GND*%
X70130000Y27535000D03*
%TD*%
D13*
%TO.P,C3,1*%
%TO.N,Net-(IC1-IRS)*%
X54500000Y20525000D03*
%TO.P,C3,2*%
%TO.N,GND*%
X54500000Y23475000D03*
%TD*%
D16*
%TO.P,R7,1*%
%TO.N,Net-(C6-Pad2)*%
X64750000Y40462500D03*
%TO.P,R7,2*%
%TO.N,Net-(IC2-LON)*%
X64750000Y37537500D03*
%TD*%
D13*
%TO.P,C7,1*%
%TO.N,+3.3V*%
X47500000Y20525000D03*
%TO.P,C7,2*%
%TO.N,GND*%
X47500000Y23475000D03*
%TD*%
D11*
%TO.P,C15,1*%
%TO.N,Net-(IC1-VREFT)*%
X61525000Y7000000D03*
%TO.P,C15,2*%
%TO.N,GND*%
X64475000Y7000000D03*
%TD*%
D16*
%TO.P,R1,1*%
%TO.N,+3.3V*%
X52250000Y23462500D03*
%TO.P,R1,2*%
%TO.N,Net-(IC1-IRS)*%
X52250000Y20537500D03*
%TD*%
D17*
%TO.P,R3,1*%
%TO.N,5VVGA*%
X73250000Y20537500D03*
%TO.P,R3,2*%
%TO.N,Net-(IC2-ENBV)*%
X73250000Y23462500D03*
%TD*%
D18*
%TO.P,FB4,1*%
%TO.N,5VVGA*%
X83000000Y20425000D03*
%TO.P,FB4,2*%
%TO.N,+5V*%
X83000000Y23575000D03*
%TD*%
D19*
%TO.P,D1,1*%
%TO.N,GND*%
X74050000Y38300000D03*
%TO.P,D1,2*%
X75950000Y38300000D03*
%TO.P,D1,3*%
%TO.N,Net-(U1-B)*%
X75000000Y40700000D03*
%TD*%
D13*
%TO.P,C20,1*%
%TO.N,Net-(IC1-VIN-)*%
X63750000Y13275000D03*
%TO.P,C20,2*%
%TO.N,Net-(IC1-VIN+)*%
X63750000Y16225000D03*
%TD*%
D20*
%TO.P,J4,1,1*%
%TO.N,+5V*%
X46700000Y51500000D03*
D21*
%TO.P,J4,2,2*%
%TO.N,SWCLK*%
X49240000Y51500000D03*
%TO.P,J4,3,3*%
%TO.N,SWDIO*%
X51780000Y51500000D03*
%TO.P,J4,4,4*%
%TO.N,GND*%
X54320000Y51500000D03*
%TD*%
D18*
%TO.P,FB5,1*%
%TO.N,+5V*%
X78000000Y28700000D03*
%TO.P,FB5,2*%
%TO.N,5VLNA*%
X78000000Y31850000D03*
%TD*%
D13*
%TO.P,C8,1*%
%TO.N,+3.3V*%
X49750000Y20525000D03*
%TO.P,C8,2*%
%TO.N,GND*%
X49750000Y23475000D03*
%TD*%
D20*
%TO.P,J2,1,Pin_1*%
%TO.N,GND*%
X10210000Y27250000D03*
D21*
%TO.P,J2,2,Pin_2*%
%TO.N,+5V*%
X12750000Y27250000D03*
%TD*%
D22*
%TO.P,R9,1*%
%TO.N,Net-(IC2-RCLMP)*%
X58712500Y25750000D03*
%TO.P,R9,2*%
%TO.N,GND*%
X55787500Y25750000D03*
%TD*%
D23*
%TO.P,FB3,1*%
%TO.N,VOL*%
X68500000Y23575000D03*
%TO.P,FB3,2*%
%TO.N,Net-(C9-Pad1)*%
X68500000Y20425000D03*
%TD*%
D13*
%TO.P,C4,1*%
%TO.N,Net-(IC1-IRS)*%
X56750000Y20525000D03*
%TO.P,C4,2*%
%TO.N,GND*%
X56750000Y23475000D03*
%TD*%
D23*
%TO.P,FB1,1*%
%TO.N,VOH*%
X66000000Y23575000D03*
%TO.P,FB1,2*%
%TO.N,Net-(C2-Pad1)*%
X66000000Y20425000D03*
%TD*%
D12*
%TO.P,C23,1*%
%TO.N,5VLNA*%
X75750000Y31725000D03*
%TO.P,C23,2*%
%TO.N,GND*%
X75750000Y28775000D03*
%TD*%
D24*
%TO.P,REF\u002A\u002A,1*%
%TO.N,N/C*%
X79100000Y3500000D03*
X79802944Y5197056D03*
X79802944Y1802944D03*
X81500000Y5900000D03*
D25*
X81500000Y3500000D03*
D24*
X81500000Y1100000D03*
X83197056Y5197056D03*
X83197056Y1802944D03*
X83900000Y3500000D03*
%TD*%
D20*
%TO.P,J3,1,Pin_1*%
%TO.N,+3.3V*%
X10210000Y45030000D03*
D21*
%TO.P,J3,2,Pin_2*%
%TO.N,GND*%
X10210000Y42490000D03*
%TO.P,J3,3,Pin_3*%
%TO.N,GPIO17*%
X10210000Y39950000D03*
%TO.P,J3,4,Pin_4*%
%TO.N,GPIO16*%
X10210000Y37410000D03*
%TO.P,J3,5,Pin_5*%
%TO.N,GPIO12*%
X10210000Y34870000D03*
%TO.P,J3,6,Pin_6*%
%TO.N,GPIO11*%
X10210000Y32330000D03*
%TD*%
D14*
%TO.P,C17,1*%
%TO.N,Net-(IC2-RCLMP)*%
X58725000Y28000000D03*
%TO.P,C17,2*%
%TO.N,GND*%
X55775000Y28000000D03*
%TD*%
D26*
%TO.P,IC3,1,VDD*%
%TO.N,+3.3V*%
X54250000Y35350000D03*
%TO.P,IC3,2,~{CS}*%
%TO.N,CS*%
X54250000Y34700000D03*
%TO.P,IC3,3,SCK*%
%TO.N,SCLK*%
X54250000Y34050000D03*
%TO.P,IC3,4,SDI*%
%TO.N,MOSI*%
X54250000Y33400000D03*
%TO.P,IC3,5,~{LDAC}*%
%TO.N,GND*%
X58650000Y33400000D03*
%TO.P,IC3,6,VOUTB*%
%TO.N,unconnected-(IC3-VOUTB-Pad6)*%
X58650000Y34050000D03*
%TO.P,IC3,7,VSS*%
%TO.N,GND*%
X58650000Y34700000D03*
%TO.P,IC3,8,VOUTA*%
%TO.N,DAC_G*%
X58650000Y35350000D03*
%TD*%
D12*
%TO.P,C10,1*%
%TO.N,Net-(IC2-LON)*%
X58800000Y40450000D03*
%TO.P,C10,2*%
%TO.N,Net-(IC2-VIN)*%
X58800000Y37500000D03*
%TD*%
D24*
%TO.P,REF\u002A\u002A,1*%
%TO.N,N/C*%
X1100000Y3500000D03*
X1802944Y5197056D03*
X1802944Y1802944D03*
X3500000Y5900000D03*
D25*
X3500000Y3500000D03*
D24*
X3500000Y1100000D03*
X5197056Y5197056D03*
X5197056Y1802944D03*
X5900000Y3500000D03*
%TD*%
D12*
%TO.P,C5,1*%
%TO.N,Net-(C5-Pad1)*%
X69500000Y40475000D03*
%TO.P,C5,2*%
%TO.N,Net-(IC2-INH)*%
X69500000Y37525000D03*
%TD*%
D27*
%TO.P,IC1,1,CLK*%
%TO.N,ADC_CLK*%
X55438000Y7062500D03*
%TO.P,IC1,2,VDDA_1*%
%TO.N,Net-(IC1-IRS)*%
X55438000Y7712500D03*
%TO.P,IC1,3,VSSA_1*%
%TO.N,GND*%
X55438000Y8362500D03*
%TO.P,IC1,4,VCOM*%
%TO.N,Net-(IC1-VCOM)*%
X55438000Y9012500D03*
%TO.P,IC1,5,IRS*%
%TO.N,Net-(IC1-IRS)*%
X55438000Y9662500D03*
%TO.P,IC1,6,VREF*%
%TO.N,Net-(IC1-VREF)*%
X55438000Y10312500D03*
%TO.P,IC1,7,VREFT*%
%TO.N,Net-(IC1-VREFT)*%
X55438000Y10962500D03*
%TO.P,IC1,8,VREFB*%
%TO.N,Net-(IC1-VREFB)*%
X55438000Y11612500D03*
%TO.P,IC1,9,VDDA_2*%
%TO.N,Net-(IC1-IRS)*%
X55438000Y12262500D03*
%TO.P,IC1,10,VDDA_3*%
X55438000Y12912500D03*
%TO.P,IC1,11,VSSA_2*%
%TO.N,GND*%
X55438000Y13562500D03*
%TO.P,IC1,12,VIN-*%
%TO.N,Net-(IC1-VIN-)*%
X55438000Y14212500D03*
%TO.P,IC1,13,VIN+*%
%TO.N,Net-(IC1-VIN+)*%
X55438000Y14862500D03*
%TO.P,IC1,14,VSSA_3*%
%TO.N,GND*%
X55438000Y15512500D03*
%TO.P,IC1,15,DF*%
X49562000Y15512500D03*
%TO.P,IC1,16,D9*%
%TO.N,D9*%
X49562000Y14862500D03*
%TO.P,IC1,17,D8*%
%TO.N,D8*%
X49562000Y14212500D03*
%TO.P,IC1,18,D7*%
%TO.N,D7*%
X49562000Y13562500D03*
%TO.P,IC1,19,D6*%
%TO.N,D6*%
X49562000Y12912500D03*
%TO.P,IC1,20,D5*%
%TO.N,D5*%
X49562000Y12262500D03*
%TO.P,IC1,21,VSSIO*%
%TO.N,GND*%
X49562000Y11612500D03*
%TO.P,IC1,22,VDDIO*%
%TO.N,+3.3V*%
X49562000Y10962500D03*
%TO.P,IC1,23,D4*%
%TO.N,D4*%
X49562000Y10312500D03*
%TO.P,IC1,24,D3*%
%TO.N,D3*%
X49562000Y9662500D03*
%TO.P,IC1,25,D2*%
%TO.N,D2*%
X49562000Y9012500D03*
%TO.P,IC1,26,D1*%
%TO.N,D1*%
X49562000Y8362500D03*
%TO.P,IC1,27,D0*%
%TO.N,D0*%
X49562000Y7712500D03*
%TO.P,IC1,28,STBY*%
%TO.N,GND*%
X49562000Y7062500D03*
%TD*%
D12*
%TO.P,C11,1*%
%TO.N,Net-(IC2-LOP)*%
X61200000Y40450000D03*
%TO.P,C11,2*%
%TO.N,Net-(IC2-VIP)*%
X61200000Y37500000D03*
%TD*%
D28*
%TO.P,J1,1,1*%
%TO.N,Net-(U1-A)*%
X71000000Y52750000D03*
D29*
%TO.P,J1,2,2*%
%TO.N,GND*%
X75250000Y51175000D03*
X66750000Y51175000D03*
%TD*%
D13*
%TO.P,C6,1*%
%TO.N,Net-(IC2-INH)*%
X67000000Y37525000D03*
%TO.P,C6,2*%
%TO.N,Net-(C6-Pad2)*%
X67000000Y40475000D03*
%TD*%
D24*
%TO.P,REF\u002A\u002A,1*%
%TO.N,N/C*%
X1100000Y50500000D03*
X1802944Y52197056D03*
X1802944Y48802944D03*
X3500000Y52900000D03*
D25*
X3500000Y50500000D03*
D24*
X3500000Y48100000D03*
X5197056Y52197056D03*
X5197056Y48802944D03*
X5900000Y50500000D03*
%TD*%
D30*
%TO.P,U1,1,A*%
%TO.N,Net-(U1-A)*%
X74800000Y45750000D03*
D31*
%TO.P,U1,2,COM*%
%TO.N,unconnected-(U1-COM-Pad2)*%
X74887500Y44250000D03*
D30*
%TO.P,U1,3,B*%
%TO.N,Net-(U1-B)*%
X74800000Y42750000D03*
%TD*%
D13*
%TO.P,C22,1*%
%TO.N,5VVGA*%
X80500000Y20525000D03*
%TO.P,C22,2*%
%TO.N,GND*%
X80500000Y23475000D03*
%TD*%
D12*
%TO.P,C24,1*%
%TO.N,5VLNA*%
X73500000Y31725000D03*
%TO.P,C24,2*%
%TO.N,GND*%
X73500000Y28775000D03*
%TD*%
D32*
%TO.P,FB2,1*%
%TO.N,Net-(U1-B)*%
X72325000Y42750000D03*
%TO.P,FB2,2*%
%TO.N,Net-(C5-Pad1)*%
X69175000Y42750000D03*
%TD*%
D13*
%TO.P,C12,1*%
%TO.N,Net-(IC2-INH)*%
X72000000Y37525000D03*
%TO.P,C12,2*%
%TO.N,GND*%
X72000000Y40475000D03*
%TD*%
D20*
%TO.P,J5,1,Pin_1*%
%TO.N,GND*%
X10210000Y50120000D03*
D21*
%TO.P,J5,2,Pin_2*%
%TO.N,+5V*%
X12750000Y50120000D03*
%TD*%
D17*
%TO.P,R5,1*%
%TO.N,5VVGA*%
X61250000Y20537500D03*
%TO.P,R5,2*%
%TO.N,Net-(IC2-VPOS)*%
X61250000Y23462500D03*
%TD*%
D33*
%TO.P,R10,1*%
%TO.N,Net-(IC1-VIN-)*%
X65787500Y13750000D03*
%TO.P,R10,2*%
%TO.N,TO_ADC_L*%
X68712500Y13750000D03*
%TD*%
D12*
%TO.P,C18,1*%
%TO.N,DAC_G*%
X61500000Y33225000D03*
%TO.P,C18,2*%
%TO.N,GND*%
X61500000Y30275000D03*
%TD*%
D11*
%TO.P,C16,1*%
%TO.N,Net-(IC1-VREFB)*%
X61525000Y9250000D03*
%TO.P,C16,2*%
%TO.N,GND*%
X64475000Y9250000D03*
%TD*%
D20*
%TO.P,J7,1,Pin_1*%
%TO.N,GND*%
X10210000Y4390000D03*
D21*
%TO.P,J7,2,Pin_2*%
%TO.N,+5V*%
X12750000Y4390000D03*
%TD*%
D17*
%TO.P,R6,1*%
%TO.N,5VVGA*%
X59000000Y20537500D03*
%TO.P,R6,2*%
%TO.N,Net-(IC2-HILO)*%
X59000000Y23462500D03*
%TD*%
D16*
%TO.P,R4,1*%
%TO.N,VOH*%
X63750000Y23462500D03*
%TO.P,R4,2*%
%TO.N,Net-(C2-Pad1)*%
X63750000Y20537500D03*
%TD*%
%TO.P,R8,1*%
%TO.N,VOL*%
X71000000Y23462500D03*
%TO.P,R8,2*%
%TO.N,Net-(C9-Pad1)*%
X71000000Y20537500D03*
%TD*%
D34*
%TO.P,U2,1,GPIO0*%
%TO.N,ADC_CLK*%
X38290000Y2370000D03*
%TO.P,U2,2,GPIO1*%
%TO.N,D0*%
X38290000Y4910000D03*
%TO.P,U2,3,GND*%
%TO.N,GND*%
X38290000Y7450000D03*
%TO.P,U2,4,GPIO2*%
%TO.N,D1*%
X38290000Y9990000D03*
%TO.P,U2,5,GPIO3*%
%TO.N,D2*%
X38290000Y12530000D03*
%TO.P,U2,6,GPIO4*%
%TO.N,D3*%
X38290000Y15070000D03*
%TO.P,U2,7,GPIO5*%
%TO.N,D4*%
X38290000Y17610000D03*
%TO.P,U2,8,GND*%
%TO.N,GND*%
X38290000Y20150000D03*
%TO.P,U2,9,GPIO6*%
%TO.N,D5*%
X38290000Y22690000D03*
%TO.P,U2,10,GPIO7*%
%TO.N,D6*%
X38290000Y25230000D03*
%TO.P,U2,11,GPIO8*%
%TO.N,D7*%
X38290000Y27770000D03*
%TO.P,U2,12,GPIO9*%
%TO.N,D8*%
X38290000Y30310000D03*
%TO.P,U2,13,GND*%
%TO.N,GND*%
X38290000Y32850000D03*
%TO.P,U2,14,GPIO10*%
%TO.N,D9*%
X38290000Y35390000D03*
%TO.P,U2,15,GPIO11*%
%TO.N,GPIO11*%
X38290000Y37930000D03*
%TO.P,U2,16,GPIO12*%
%TO.N,GPIO12*%
X38290000Y40470000D03*
%TO.P,U2,17,GPIO13*%
%TO.N,CS*%
X38290000Y43010000D03*
%TO.P,U2,18,GND*%
%TO.N,GND*%
X38290000Y45550000D03*
%TO.P,U2,19,GPIO14*%
%TO.N,SCLK*%
X38290000Y48090000D03*
%TO.P,U2,20,GPIO15*%
%TO.N,MOSI*%
X38290000Y50630000D03*
%TO.P,U2,21,GPIO16*%
%TO.N,GPIO16*%
X18710000Y50630000D03*
%TO.P,U2,22,GPIO17*%
%TO.N,GPIO17*%
X18710000Y48090000D03*
%TO.P,U2,23,GND*%
%TO.N,GND*%
X18710000Y45550000D03*
%TO.P,U2,24,GPIO18*%
%TO.N,GPIO18*%
X18710000Y43010000D03*
%TO.P,U2,25,GPIO19*%
%TO.N,GPIO19*%
X18710000Y40470000D03*
%TO.P,U2,26,GPIO20*%
%TO.N,GPIO20*%
X18710000Y37930000D03*
%TO.P,U2,27,GPIO21*%
%TO.N,GPIO21*%
X18710000Y35390000D03*
%TO.P,U2,28,GND*%
%TO.N,GND*%
X18710000Y32850000D03*
%TO.P,U2,29,GPIO22*%
%TO.N,GPIO22*%
X18710000Y30310000D03*
%TO.P,U2,30,RUN*%
%TO.N,unconnected-(U2-RUN-Pad30)*%
X18710000Y27770000D03*
%TO.P,U2,31,GPIO26_ADC0*%
%TO.N,GPIO26*%
X18710000Y25230000D03*
%TO.P,U2,32,GPIO27_ADC1*%
%TO.N,GPIO27*%
X18710000Y22690000D03*
%TO.P,U2,33,AGND*%
%TO.N,GND*%
X18710000Y20150000D03*
%TO.P,U2,34,GPIO28_ADC2*%
%TO.N,GPIO28*%
X18710000Y17610000D03*
%TO.P,U2,35,ADC_VREF*%
%TO.N,unconnected-(U2-ADC_VREF-Pad35)*%
X18710000Y15070000D03*
%TO.P,U2,36,3V3*%
%TO.N,+3.3V*%
X18710000Y12530000D03*
%TO.P,U2,37,3V3_EN*%
%TO.N,unconnected-(U2-3V3_EN-Pad37)*%
X18710000Y9990000D03*
%TO.P,U2,38,GND*%
%TO.N,GND*%
X18710000Y7450000D03*
%TO.P,U2,39,VSYS*%
%TO.N,unconnected-(U2-VSYS-Pad39)*%
X18710000Y4910000D03*
%TO.P,U2,40,VBUS*%
%TO.N,+5V*%
X18710000Y2370000D03*
D35*
%TO.P,U2,41,SWCLK*%
%TO.N,SWCLK*%
X31040000Y51300000D03*
%TO.P,U2,42,GND*%
%TO.N,GND*%
X28500000Y51300000D03*
%TO.P,U2,43,SWDIO*%
%TO.N,SWDIO*%
X25960000Y51300000D03*
%TD*%
D24*
%TO.P,REF\u002A\u002A,1*%
%TO.N,N/C*%
X79100000Y50500000D03*
X79802944Y52197056D03*
X79802944Y48802944D03*
X81500000Y52900000D03*
D25*
X81500000Y50500000D03*
D24*
X81500000Y48100000D03*
X83197056Y52197056D03*
X83197056Y48802944D03*
X83900000Y50500000D03*
%TD*%
D14*
%TO.P,C19,1*%
%TO.N,Net-(IC2-VCM)*%
X58725000Y30500000D03*
%TO.P,C19,2*%
%TO.N,GND*%
X55775000Y30500000D03*
%TD*%
D11*
%TO.P,C14,1*%
%TO.N,Net-(IC1-VREF)*%
X61525000Y4750000D03*
%TO.P,C14,2*%
%TO.N,GND*%
X64475000Y4750000D03*
%TD*%
D33*
%TO.P,R11,1*%
%TO.N,Net-(IC1-VIN+)*%
X65787500Y16000000D03*
%TO.P,R11,2*%
%TO.N,TO_ADC_H*%
X68712500Y16000000D03*
%TD*%
D11*
%TO.P,C2,1*%
%TO.N,Net-(C2-Pad1)*%
X65775000Y18250000D03*
%TO.P,C2,2*%
%TO.N,TO_ADC_H*%
X68725000Y18250000D03*
%TD*%
D17*
%TO.P,R2,1*%
%TO.N,5VVGA*%
X75500000Y20537500D03*
%TO.P,R2,2*%
%TO.N,Net-(IC2-ENBL)*%
X75500000Y23462500D03*
%TD*%
D20*
%TO.P,J6,1,1*%
%TO.N,+3.3V*%
X12750000Y22170000D03*
D21*
%TO.P,J6,2,2*%
X10210000Y22170000D03*
%TO.P,J6,3,3*%
%TO.N,GND*%
X12750000Y19630000D03*
%TO.P,J6,4,4*%
X10210000Y19630000D03*
%TO.P,J6,5,5*%
%TO.N,GPIO21*%
X12750000Y17090000D03*
%TO.P,J6,6,6*%
%TO.N,GPIO28*%
X10210000Y17090000D03*
%TO.P,J6,7,7*%
%TO.N,GPIO20*%
X12750000Y14550000D03*
%TO.P,J6,8,8*%
%TO.N,GPIO27*%
X10210000Y14550000D03*
%TO.P,J6,9,9*%
%TO.N,GPIO19*%
X12750000Y12010000D03*
%TO.P,J6,10,10*%
%TO.N,GPIO26*%
X10210000Y12010000D03*
%TO.P,J6,11,11*%
%TO.N,GPIO18*%
X12750000Y9470000D03*
%TO.P,J6,12,12*%
%TO.N,GPIO22*%
X10210000Y9470000D03*
%TD*%
D14*
%TO.P,C1,1*%
%TO.N,GND*%
X74975000Y35250000D03*
%TO.P,C1,2*%
%TO.N,Net-(IC2-LMD)*%
X72025000Y35250000D03*
%TD*%
D36*
%TO.N,GND*%
X59500000Y13000000D03*
X3000000Y10690000D03*
X83500000Y38630000D03*
X63500000Y42250000D03*
X56500000Y32500000D03*
X73200000Y44650000D03*
X57250000Y16000000D03*
X83500000Y28470000D03*
X83500000Y41170000D03*
X21750000Y50000000D03*
X74500000Y26750000D03*
X52750000Y27500000D03*
X70040000Y1500000D03*
X59250000Y16000000D03*
X26000000Y28500000D03*
X3000000Y38630000D03*
X66000000Y7000000D03*
X30750000Y10500000D03*
X60250000Y52500000D03*
X78250000Y47950000D03*
X49500000Y17250000D03*
X73750000Y39750000D03*
X72580000Y1500000D03*
X30750000Y33500000D03*
X61250000Y17750000D03*
X45250000Y32250000D03*
X42750000Y34750000D03*
X63400000Y52500000D03*
X55750000Y3000000D03*
X66750000Y29750000D03*
X83500000Y31010000D03*
X3000000Y33550000D03*
X3000000Y23390000D03*
X63400000Y50750000D03*
X83500000Y43710000D03*
X21750000Y1500000D03*
X51250000Y9500000D03*
X76250000Y40250000D03*
X35250000Y46250000D03*
X83500000Y17500000D03*
X49500000Y1500000D03*
X73000000Y16750000D03*
X26250000Y20750000D03*
X52750000Y5750000D03*
X58150000Y6000000D03*
X69500000Y11750000D03*
X76500000Y46250000D03*
X21750000Y20750000D03*
X35000000Y1500000D03*
X43000000Y37250000D03*
X66000000Y9250000D03*
X3000000Y46250000D03*
X83500000Y33550000D03*
X30750000Y46250000D03*
X51250000Y15512500D03*
X78250000Y18750000D03*
X77250000Y1500000D03*
X67700000Y43700000D03*
X78000000Y7750000D03*
X56750000Y52500000D03*
X72250000Y45000000D03*
X30750000Y37500000D03*
X3000000Y31010000D03*
X63750000Y29750000D03*
X57250000Y7912500D03*
X54500000Y48500000D03*
X3000000Y13230000D03*
X58150000Y3750000D03*
X61500000Y11250000D03*
X81000000Y25250000D03*
X51000000Y3000000D03*
X3000000Y25930000D03*
X26000000Y23750000D03*
X50500000Y45250000D03*
X21750000Y38670000D03*
X3000000Y8150000D03*
X50250000Y5750000D03*
X71250000Y29750000D03*
X3000000Y20850000D03*
X75750000Y18750000D03*
X69400000Y44700000D03*
X75250000Y47150000D03*
X21750000Y47000000D03*
X68250000Y29750000D03*
X78400000Y46250000D03*
X75120000Y1500000D03*
X56500000Y34000000D03*
X21750000Y33590000D03*
X66000000Y2500000D03*
X55300000Y17700000D03*
X21750000Y23750000D03*
X83500000Y36090000D03*
X61500000Y13000000D03*
X57250000Y13000000D03*
X66250000Y42250000D03*
X77000000Y33500000D03*
X26250000Y10500000D03*
X48750000Y25250000D03*
X52750000Y30000000D03*
X30750000Y40750000D03*
X55500000Y5750000D03*
X69950000Y48100000D03*
X83500000Y46250000D03*
X30750000Y28500000D03*
X79700000Y42850000D03*
X35000000Y5510000D03*
X26000000Y40500000D03*
X76500000Y25000000D03*
X44950000Y37250000D03*
X51250000Y12512500D03*
X83500000Y14960000D03*
X3000000Y15770000D03*
X52750000Y1500000D03*
X63400000Y48750000D03*
X73500000Y47000000D03*
X3000000Y36090000D03*
X50500000Y25250000D03*
X79500000Y27250000D03*
X65500000Y11750000D03*
X35000000Y15670000D03*
X73000000Y18750000D03*
X21750000Y5510000D03*
X69750000Y29750000D03*
X60250000Y43250000D03*
X79700000Y44900000D03*
X47000000Y29850000D03*
X47000000Y18250000D03*
X35000000Y10590000D03*
X21750000Y10590000D03*
X54750000Y45250000D03*
X83500000Y7750000D03*
X83500000Y12420000D03*
X52750000Y8250000D03*
X80250000Y46500000D03*
X56500000Y42500000D03*
X30750000Y15750000D03*
X21750000Y43750000D03*
X83500000Y9880000D03*
X21750000Y15670000D03*
X59750000Y1500000D03*
X55750000Y1500000D03*
X80750000Y7750000D03*
X76250000Y41500000D03*
X35000000Y20750000D03*
X30750000Y20750000D03*
X71750000Y26750000D03*
X70500000Y46750000D03*
X47000000Y25250000D03*
X77750000Y42300000D03*
X56500000Y38500000D03*
X3000000Y28470000D03*
X72000000Y13750000D03*
X66000000Y4750000D03*
X63000000Y17750000D03*
X3000000Y18310000D03*
X52750000Y9500000D03*
X57250000Y17750000D03*
X77000000Y35500000D03*
X21750000Y28510000D03*
X3000000Y41170000D03*
X61250000Y16000000D03*
X67500000Y1500000D03*
X59250000Y17750000D03*
X72200000Y48100000D03*
X3000000Y43710000D03*
X26250000Y15750000D03*
X51250000Y8250000D03*
X65250000Y29750000D03*
X61500000Y28500000D03*
X28500000Y48550000D03*
X56500000Y35500000D03*
X35000000Y23750000D03*
X71250000Y45750000D03*
X26000000Y33500000D03*
X43750000Y39400000D03*
%TO.N,+3.3V*%
X54112500Y41937500D03*
X52250000Y25500000D03*
%TO.N,5VVGA*%
X59000000Y19250000D03*
X61250000Y19250000D03*
X80500000Y19050000D03*
%TO.N,+5V*%
X83000000Y25250000D03*
X80500000Y29500000D03*
%TO.N,GPIO21*%
X16250000Y34500000D03*
%TO.N,GPIO18*%
X16250000Y42250000D03*
%TO.N,GPIO19*%
X16250000Y39750000D03*
%TO.N,GPIO11*%
X41000000Y38750000D03*
%TO.N,GPIO12*%
X41000000Y41000000D03*
%TO.N,GPIO20*%
X16250000Y37250000D03*
%TO.N,CS*%
X41050000Y43800000D03*
X51750000Y34700000D03*
%TO.N,SCLK*%
X52550000Y33800000D03*
X41000000Y46500000D03*
%TO.N,MOSI*%
X51750000Y32900000D03*
X40995000Y49000000D03*
%TD*%
D37*
%TO.N,GND*%
X57250000Y16000000D02*
X57250000Y16250000D01*
X57237500Y13000000D02*
X57000000Y12762500D01*
D38*
X50850000Y11612500D02*
X51250000Y12012500D01*
D39*
X65010000Y32965000D02*
X65010000Y31260000D01*
X68210000Y29710000D02*
X68210000Y27535000D01*
D37*
X66750000Y51175000D02*
X66750000Y47200000D01*
D39*
X66930000Y32965000D02*
X66930000Y31070000D01*
D38*
X49562000Y17188000D02*
X49500000Y17250000D01*
D37*
X51250000Y12012500D02*
X51250000Y12512500D01*
D38*
X56800000Y8362500D02*
X55438000Y8362500D01*
X58650000Y33400000D02*
X57200000Y33400000D01*
D37*
X66250000Y49650000D02*
X62650000Y49650000D01*
D39*
X68250000Y29750000D02*
X68210000Y29710000D01*
D37*
X66500000Y52750000D02*
X62900000Y52750000D01*
D39*
X70130000Y29370000D02*
X70130000Y27535000D01*
D38*
X49562000Y11612500D02*
X50850000Y11612500D01*
X49562000Y7062500D02*
X49562000Y6062000D01*
X49562000Y15512500D02*
X51250000Y15512500D01*
X55438000Y15512500D02*
X55438000Y16688000D01*
D37*
X55438000Y16688000D02*
X55500000Y16750000D01*
X55787500Y25750000D02*
X55787500Y25462500D01*
X55787500Y25462500D02*
X56750000Y24500000D01*
D38*
X58650000Y34700000D02*
X56750000Y34700000D01*
X56762500Y15512500D02*
X57250000Y16000000D01*
D37*
X63150000Y51175000D02*
X62575000Y51175000D01*
D38*
X56687500Y13562500D02*
X55438000Y13562500D01*
X55438000Y15512500D02*
X56762500Y15512500D01*
D37*
X75250000Y51175000D02*
X75250000Y47150000D01*
D38*
X57250000Y7912500D02*
X56800000Y8362500D01*
D37*
X56700000Y34650000D02*
X56750000Y34700000D01*
X56750000Y24500000D02*
X56750000Y23475000D01*
D38*
X57250000Y13000000D02*
X56687500Y13562500D01*
D37*
X62575000Y51175000D02*
X62300000Y50900000D01*
X57250000Y13000000D02*
X57237500Y13000000D01*
X66750000Y51175000D02*
X63150000Y51175000D01*
D38*
X49562000Y15512500D02*
X49562000Y17188000D01*
X49562000Y7062500D02*
X51312500Y7062500D01*
D37*
X51312500Y7062500D02*
X52000000Y7750000D01*
D39*
X69750000Y29750000D02*
X70130000Y29370000D01*
D40*
%TO.N,Net-(IC2-LMD)*%
X70130000Y32965000D02*
X70130000Y34880000D01*
X70130000Y34880000D02*
X70500000Y35250000D01*
X70500000Y35250000D02*
X72025000Y35250000D01*
%TO.N,Net-(C2-Pad1)*%
X65775000Y18250000D02*
X64500000Y18250000D01*
X63750000Y19000000D02*
X63750000Y20537500D01*
X63750000Y20537500D02*
X65887500Y20537500D01*
X64500000Y18250000D02*
X63750000Y19000000D01*
X65887500Y20537500D02*
X66000000Y20425000D01*
%TO.N,TO_ADC_H*%
X68712500Y18237500D02*
X68712500Y16000000D01*
X68725000Y18250000D02*
X68712500Y18237500D01*
D37*
%TO.N,Net-(IC1-IRS)*%
X54500000Y20775000D02*
X56750000Y20775000D01*
D38*
X53912500Y12912500D02*
X53900000Y12900000D01*
X54450000Y9662500D02*
X53962500Y9662500D01*
X54150000Y9662500D02*
X53900000Y9912500D01*
X54263000Y12912500D02*
X53975500Y13200000D01*
X54000000Y12600000D02*
X54075000Y12675000D01*
X53900000Y9600000D02*
X53900000Y9912500D01*
X55438000Y12262500D02*
X54400000Y12262500D01*
D37*
X54500000Y20775000D02*
X54487500Y20787500D01*
D38*
X54350000Y12912500D02*
X54312500Y12912500D01*
X54400000Y12262500D02*
X54312500Y12262500D01*
X53900000Y20175000D02*
X54500000Y20775000D01*
X54075000Y12675000D02*
X53900000Y12500000D01*
X54400000Y12262500D02*
X53937500Y12262500D01*
X53937500Y12262500D02*
X53900000Y12300000D01*
X54312500Y12262500D02*
X53900000Y11850000D01*
X54437500Y9662500D02*
X53900000Y10200000D01*
X53962500Y9662500D02*
X53900000Y9600000D01*
X54312500Y12912500D02*
X54075000Y12675000D01*
X54400000Y12262500D02*
X54337500Y12262500D01*
X54437500Y7712500D02*
X55438000Y7712500D01*
X55438000Y12912500D02*
X54350000Y12912500D01*
X53900000Y12500000D02*
X53900000Y20175000D01*
D37*
X54487500Y20787500D02*
X52250000Y20787500D01*
D38*
X53900000Y9200000D02*
X53900000Y8250000D01*
X53900000Y8250000D02*
X54437500Y7712500D01*
X55438000Y9662500D02*
X54450000Y9662500D01*
X54350000Y12912500D02*
X54263000Y12912500D01*
X53900000Y10200000D02*
X53900000Y11850000D01*
X54350000Y12912500D02*
X53912500Y12912500D01*
X54362500Y9662500D02*
X53900000Y9200000D01*
X53900000Y9912500D02*
X53900000Y10200000D01*
X54450000Y9662500D02*
X54362500Y9662500D01*
X54450000Y9662500D02*
X54150000Y9662500D01*
X53900000Y11850000D02*
X53900000Y12500000D01*
X54337500Y12262500D02*
X54000000Y12600000D01*
X54450000Y9662500D02*
X54437500Y9662500D01*
X53900000Y9912500D02*
X53900000Y9200000D01*
D40*
%TO.N,Net-(C5-Pad1)*%
X69500000Y40475000D02*
X69500000Y42425000D01*
X69500000Y42425000D02*
X69175000Y42750000D01*
%TO.N,Net-(IC2-INH)*%
X69500000Y37525000D02*
X72000000Y37525000D01*
X69490000Y32965000D02*
X69490000Y37515000D01*
X69490000Y37515000D02*
X69500000Y37525000D01*
X67000000Y37525000D02*
X69500000Y37525000D01*
%TO.N,Net-(C6-Pad2)*%
X64506250Y40462500D02*
X66743750Y40462500D01*
D37*
%TO.N,+3.3V*%
X14750000Y21500000D02*
X14750000Y13500000D01*
X52250000Y23250000D02*
X49775000Y20775000D01*
X12750000Y22170000D02*
X14080000Y22170000D01*
X54087500Y37662500D02*
X54412500Y37337500D01*
X51962500Y10962500D02*
X49562000Y10962500D01*
X14080000Y22170000D02*
X14750000Y21500000D01*
X52500000Y11500000D02*
X51962500Y10962500D01*
X54250000Y37500000D02*
X54250000Y35350000D01*
X47500000Y20775000D02*
X47750000Y20525000D01*
X52500000Y16500000D02*
X52500000Y11500000D01*
X54112500Y37687500D02*
X54087500Y37662500D01*
X54112500Y40012500D02*
X54112500Y37687500D01*
X47750000Y19500000D02*
X48500000Y18750000D01*
X48500000Y18750000D02*
X50250000Y18750000D01*
X54087500Y37662500D02*
X54250000Y37500000D01*
D41*
X52250000Y25500000D02*
X52250000Y23712500D01*
X54112500Y40012500D02*
X54112500Y41937500D01*
D37*
X14750000Y13500000D02*
X15720000Y12530000D01*
X15720000Y12530000D02*
X19610000Y12530000D01*
X52250000Y23712500D02*
X52250000Y23250000D01*
X47750000Y20525000D02*
X47750000Y19500000D01*
X50250000Y18750000D02*
X52500000Y16500000D01*
X49775000Y20775000D02*
X47500000Y20775000D01*
D40*
%TO.N,Net-(C9-Pad1)*%
X70887500Y20425000D02*
X71000000Y20537500D01*
X68500000Y20425000D02*
X70887500Y20425000D01*
X71000000Y20425000D02*
X71000000Y18725000D01*
X68500000Y20425000D02*
X71000000Y20425000D01*
%TO.N,TO_ADC_L*%
X71000000Y15775000D02*
X71000000Y14500000D01*
X70250000Y13750000D02*
X68712500Y13750000D01*
X71000000Y14500000D02*
X70250000Y13750000D01*
%TO.N,Net-(IC2-LON)*%
X68210000Y34290000D02*
X66250000Y36250000D01*
X60150000Y41800000D02*
X58800000Y40450000D01*
X63250000Y39250000D02*
X63250000Y40700000D01*
X64750000Y37750000D02*
X63250000Y39250000D01*
X64750000Y37537500D02*
X64750000Y37750000D01*
X68210000Y32965000D02*
X68210000Y34290000D01*
X63250000Y40700000D02*
X62150000Y41800000D01*
X64750000Y36600000D02*
X64750000Y37537500D01*
X66250000Y36250000D02*
X65100000Y36250000D01*
X62150000Y41800000D02*
X60150000Y41800000D01*
X65100000Y36250000D02*
X64750000Y36600000D01*
%TO.N,Net-(IC2-VIN)*%
X65150000Y34450000D02*
X62050000Y34450000D01*
X65650000Y32965000D02*
X65650000Y33950000D01*
X65650000Y33950000D02*
X65150000Y34450000D01*
X59000000Y37500000D02*
X58800000Y37500000D01*
X62050000Y34450000D02*
X59000000Y37500000D01*
%TO.N,Net-(IC2-LOP)*%
X66000000Y35650000D02*
X63300000Y35650000D01*
X62600000Y36350000D02*
X62600000Y39050000D01*
X67570000Y34080000D02*
X66000000Y35650000D01*
X62600000Y39050000D02*
X61200000Y40450000D01*
X63300000Y35650000D02*
X62600000Y36350000D01*
X67570000Y32965000D02*
X67570000Y34080000D01*
%TO.N,Net-(IC2-VIP)*%
X66290000Y32965000D02*
X66290000Y34160000D01*
X62350000Y35050000D02*
X61200000Y36200000D01*
X66290000Y34160000D02*
X65400000Y35050000D01*
X65400000Y35050000D02*
X62350000Y35050000D01*
X61200000Y36200000D02*
X61200000Y37500000D01*
%TO.N,Net-(IC1-VCOM)*%
X57937500Y9012500D02*
X59250000Y7700000D01*
X59250000Y4350000D02*
X61100000Y2500000D01*
X55438000Y9012500D02*
X57937500Y9012500D01*
X61100000Y2500000D02*
X61525000Y2500000D01*
X59250000Y7700000D02*
X59250000Y4350000D01*
%TO.N,Net-(IC1-VREF)*%
X55925000Y10337500D02*
X55438000Y10337500D01*
X59850000Y6150000D02*
X61250000Y4750000D01*
X61250000Y4750000D02*
X61525000Y4750000D01*
X57737500Y10312500D02*
X59850000Y8200000D01*
X59850000Y8200000D02*
X59850000Y6150000D01*
X55438000Y10312500D02*
X57737500Y10312500D01*
%TO.N,Net-(IC1-VREFT)*%
X60450000Y7800000D02*
X61250000Y7000000D01*
X58537500Y10962500D02*
X60450000Y9050000D01*
X61250000Y7000000D02*
X61525000Y7000000D01*
X60450000Y9050000D02*
X60450000Y7800000D01*
X55438000Y10962500D02*
X58537500Y10962500D01*
%TO.N,Net-(IC1-VREFB)*%
X58887500Y11612500D02*
X61250000Y9250000D01*
X61250000Y9250000D02*
X61525000Y9250000D01*
X55438000Y11612500D02*
X58887500Y11612500D01*
%TO.N,Net-(IC2-RCLMP)*%
X58712500Y27712500D02*
X58712500Y25750000D01*
X64400000Y25875000D02*
X58837500Y25875000D01*
X58750000Y27750000D02*
X58712500Y27712500D01*
X58725000Y28000000D02*
X58725000Y27775000D01*
X65010000Y27535000D02*
X65010000Y26485000D01*
X65010000Y26485000D02*
X64400000Y25875000D01*
X58837500Y25875000D02*
X58712500Y25750000D01*
X58725000Y27775000D02*
X58750000Y27750000D01*
%TO.N,DAC_G*%
X62625000Y33225000D02*
X63250000Y33850000D01*
X60150000Y35350000D02*
X61500000Y34000000D01*
X63250000Y33850000D02*
X64150000Y33850000D01*
X58650000Y35350000D02*
X60150000Y35350000D01*
X64370000Y33630000D02*
X64370000Y32965000D01*
X64150000Y33850000D02*
X64370000Y33630000D01*
X61500000Y34000000D02*
X61500000Y33225000D01*
X61500000Y33225000D02*
X62625000Y33225000D01*
%TO.N,Net-(IC2-VCM)*%
X58725000Y30500000D02*
X58725000Y30275000D01*
X64370000Y26845000D02*
X64370000Y27535000D01*
X60250000Y27750000D02*
X61525000Y26475000D01*
X58725000Y30275000D02*
X60250000Y28750000D01*
X61525000Y26475000D02*
X64000000Y26475000D01*
X64000000Y26475000D02*
X64370000Y26845000D01*
X60250000Y28750000D02*
X60250000Y27750000D01*
%TO.N,Net-(IC1-VIN-)*%
X55438000Y14212500D02*
X62287500Y14212500D01*
X63225000Y13275000D02*
X63750000Y13275000D01*
X65287500Y13250000D02*
X63775000Y13250000D01*
X62287500Y14212500D02*
X63225000Y13275000D01*
X65787500Y13750000D02*
X65287500Y13250000D01*
X63775000Y13250000D02*
X63750000Y13275000D01*
%TO.N,Net-(IC1-VIN+)*%
X63750000Y16225000D02*
X65562500Y16225000D01*
X65562500Y16225000D02*
X65787500Y16000000D01*
X63662500Y16225000D02*
X63750000Y16225000D01*
X62300000Y14862500D02*
X63662500Y16225000D01*
X55438000Y14862500D02*
X62300000Y14862500D01*
D37*
%TO.N,5VVGA*%
X77987500Y20537500D02*
X78000000Y20525000D01*
D41*
X75500000Y20537500D02*
X77987500Y20537500D01*
X73250000Y20537500D02*
X75500000Y20537500D01*
X78000000Y20525000D02*
X80500000Y20525000D01*
D37*
X61250000Y20787500D02*
X61250000Y19250000D01*
D41*
X80500000Y19050000D02*
X80500000Y20525000D01*
D37*
X80500000Y20525000D02*
X80600000Y20425000D01*
X59000000Y20800000D02*
X59000000Y19250000D01*
D41*
X82900000Y20525000D02*
X80500000Y20525000D01*
D37*
%TO.N,5VLNA*%
X73500000Y31725000D02*
X75750000Y31725000D01*
X75750000Y31725000D02*
X77875000Y31725000D01*
D38*
X68850000Y31650000D02*
X69250000Y31250000D01*
D37*
X69250000Y31250000D02*
X73025000Y31250000D01*
X77875000Y31725000D02*
X78000000Y31850000D01*
X73025000Y31250000D02*
X73500000Y31725000D01*
D38*
X68850000Y32965000D02*
X68850000Y31650000D01*
D40*
%TO.N,Net-(U1-B)*%
X72325000Y42750000D02*
X74800000Y42750000D01*
X75000000Y40700000D02*
X75000000Y42550000D01*
X75000000Y42550000D02*
X74800000Y42750000D01*
%TO.N,VOH*%
X63750000Y23462500D02*
X65887500Y23462500D01*
X65887500Y23462500D02*
X66000000Y23575000D01*
X66000000Y24750000D02*
X66930000Y25680000D01*
X66000000Y23575000D02*
X66000000Y24750000D01*
X66930000Y25680000D02*
X66930000Y27535000D01*
%TO.N,VOL*%
X68500000Y23575000D02*
X70887500Y23575000D01*
X68500000Y23575000D02*
X68500000Y24750000D01*
X70887500Y23575000D02*
X71000000Y23462500D01*
X67570000Y25680000D02*
X67570000Y27535000D01*
X68500000Y24750000D02*
X67570000Y25680000D01*
D41*
%TO.N,+5V*%
X19610000Y2370000D02*
X14880000Y2370000D01*
X83000000Y25250000D02*
X83000000Y23575000D01*
X80500000Y29500000D02*
X79700000Y28700000D01*
X14880000Y2370000D02*
X12750000Y4500000D01*
X79700000Y28700000D02*
X78000000Y28700000D01*
D40*
%TO.N,ADC_CLK*%
X52850000Y3864424D02*
X52850000Y4000000D01*
X47450000Y1200000D02*
X41900000Y1200000D01*
X54050000Y3864424D02*
X54050000Y4000000D01*
X37510000Y2250000D02*
X37390000Y2370000D01*
X55438000Y7062500D02*
X56537500Y7062500D01*
X50550000Y4300000D02*
X47450000Y1200000D01*
X56537500Y7062500D02*
X57050000Y6550000D01*
X54050000Y4000000D02*
X54050000Y4558978D01*
X40850000Y2250000D02*
X37510000Y2250000D01*
X37420000Y2400000D02*
X37390000Y2370000D01*
X56300000Y4300000D02*
X54950000Y4300000D01*
X53450000Y4558978D02*
X53450000Y4300000D01*
X52550000Y4300000D02*
X50550000Y4300000D01*
X53450000Y4300000D02*
X53450000Y3864424D01*
X57050000Y5050000D02*
X56300000Y4300000D01*
X57050000Y6550000D02*
X57050000Y5050000D01*
X54650000Y4000000D02*
X54650000Y3864424D01*
X53791022Y4817956D02*
X53708978Y4817956D01*
X41900000Y1200000D02*
X40850000Y2250000D01*
X54950000Y4300000D02*
G75*
G03*
X54650000Y4000000I0J-300000D01*
G01*
X54350000Y3564424D02*
G75*
G02*
X54050024Y3864424I0J299976D01*
G01*
X53450000Y3864424D02*
G75*
G02*
X53150000Y3564400I-300000J-24D01*
G01*
X52850000Y4000000D02*
G75*
G03*
X52550000Y4300000I-300000J0D01*
G01*
X54650000Y3864424D02*
G75*
G02*
X54350000Y3564400I-300000J-24D01*
G01*
X54050000Y4558978D02*
G75*
G03*
X53791022Y4818000I-259000J22D01*
G01*
X53150000Y3564424D02*
G75*
G02*
X52850024Y3864424I0J299976D01*
G01*
X53708978Y4817956D02*
G75*
G03*
X53450044Y4558978I22J-258956D01*
G01*
%TO.N,D9*%
X45750000Y17500000D02*
X45750000Y30100000D01*
X45750000Y30100000D02*
X40460000Y35390000D01*
X48387500Y14862500D02*
X45750000Y17500000D01*
X40460000Y35390000D02*
X37390000Y35390000D01*
X49562000Y14862500D02*
X48387500Y14862500D01*
%TO.N,D8*%
X42490183Y29460044D02*
X42577938Y29547798D01*
X42577938Y29972062D02*
X42577939Y29972061D01*
X43214335Y29335665D02*
X42914448Y29035779D01*
X45150000Y17250000D02*
X45150000Y27400000D01*
X45150000Y27400000D02*
X44275000Y28275000D01*
X42490184Y29035779D02*
X42490183Y29035780D01*
X43850734Y28275001D02*
X43798329Y28222595D01*
X43374065Y28222595D02*
X43374063Y28222597D01*
X43638602Y28911398D02*
X43938518Y29211315D01*
X43638599Y28911400D02*
X43638602Y28911398D01*
X43938518Y29635579D02*
X43938516Y29635581D01*
X49562000Y14212500D02*
X48187500Y14212500D01*
X42240000Y30310000D02*
X37390000Y30310000D01*
X42577939Y29972061D02*
X42240000Y30310000D01*
X43850735Y28275001D02*
X43850734Y28275001D01*
X43514252Y29635581D02*
X43214335Y29335665D01*
X48187500Y14212500D02*
X45150000Y17250000D01*
X43426467Y28699268D02*
X43638599Y28911400D01*
X43374063Y28646861D02*
X43426467Y28699268D01*
X42914448Y29035779D02*
G75*
G02*
X42490184Y29035779I-212132J212132D01*
G01*
X42490183Y29035780D02*
G75*
G02*
X42490195Y29460032I212117J212120D01*
G01*
X42577938Y29547798D02*
G75*
G03*
X42577908Y29972032I-212138J212102D01*
G01*
X43938516Y29635581D02*
G75*
G03*
X43514252Y29635581I-212132J-212132D01*
G01*
X43374063Y28222597D02*
G75*
G02*
X43374092Y28646832I212137J212103D01*
G01*
X44275000Y28275000D02*
G75*
G03*
X43850768Y28274968I-212100J-212100D01*
G01*
X43798329Y28222595D02*
G75*
G02*
X43374065Y28222595I-212132J212132D01*
G01*
X43938518Y29211315D02*
G75*
G03*
X43938471Y29635532I-212118J212085D01*
G01*
%TO.N,D7*%
X47962500Y13587500D02*
X49562000Y13587500D01*
X43473189Y25004820D02*
X43473188Y25004819D01*
X42518628Y25747311D02*
X43352718Y26581405D01*
X42928441Y27005648D02*
X42928442Y27005649D01*
X41330000Y27770000D02*
X41875000Y27225000D01*
X44550000Y17000000D02*
X47962500Y13587500D01*
X43776984Y26157139D02*
X43048924Y25429083D01*
X42299264Y27225000D02*
X42504178Y27429913D01*
X44550000Y24550000D02*
X44550000Y17000000D01*
X43996317Y25103683D02*
X44550000Y24550000D01*
X42518629Y25747312D02*
X42518628Y25747311D01*
X42299265Y27225001D02*
X42299264Y27225000D01*
X43776983Y26157138D02*
X43776984Y26157139D01*
X43996316Y25103684D02*
X43996317Y25103683D01*
X42928442Y27005649D02*
X42094364Y26171575D01*
X37390000Y27770000D02*
X41330000Y27770000D01*
X43473188Y25004819D02*
X43572052Y25103684D01*
X43048924Y25004819D02*
G75*
G03*
X43473233Y25004776I212176J212181D01*
G01*
X43776984Y26581403D02*
G75*
G02*
X43776954Y26157167I-212184J-212103D01*
G01*
X42094364Y26171575D02*
G75*
G03*
X42094321Y25747268I212136J-212175D01*
G01*
X43048924Y25429083D02*
G75*
G03*
X43048973Y25004868I212176J-212083D01*
G01*
X42504178Y27429913D02*
G75*
G02*
X42928442Y27429913I212132J-212132D01*
G01*
X42928442Y27429913D02*
G75*
G02*
X42928422Y27005667I-212142J-212113D01*
G01*
X43352718Y26581405D02*
G75*
G02*
X43776934Y26581353I212082J-212105D01*
G01*
X43572052Y25103684D02*
G75*
G02*
X43996316Y25103684I212132J-212132D01*
G01*
X42094364Y25747311D02*
G75*
G03*
X42518633Y25747308I212136J212089D01*
G01*
X41875000Y27225000D02*
G75*
G03*
X42299233Y27225033I212100J212100D01*
G01*
%TO.N,D6*%
X42691684Y24021839D02*
X41798889Y23129048D01*
X41737082Y24764289D02*
X40879669Y23906880D01*
X41149265Y25025001D02*
X41149264Y25025000D01*
X41303934Y23482617D02*
X41303933Y23482616D01*
X41737081Y24764288D02*
X41737082Y24764289D01*
X43950000Y21800000D02*
X43950000Y16750000D01*
X41303933Y23482616D02*
X42267418Y24446105D01*
X42691683Y24021838D02*
X42691684Y24021839D01*
X40520000Y25230000D02*
X40725000Y25025000D01*
X43270579Y22479421D02*
X43270580Y22479420D01*
X43950000Y16750000D02*
X47787500Y12912500D01*
X47787500Y12912500D02*
X49562000Y12912500D01*
X42223154Y22704785D02*
X42223153Y22704784D01*
X42223153Y22704784D02*
X43115919Y23597554D01*
X43540184Y23173287D02*
X43540185Y23173288D01*
X41149264Y25025000D02*
X41312818Y25188553D01*
X42907286Y24251413D02*
X42907284Y24251415D01*
X43540185Y23173288D02*
X43270579Y22903685D01*
X37390000Y25230000D02*
X40520000Y25230000D01*
X43270580Y22479420D02*
X43950000Y21800000D01*
X43115919Y23597554D02*
G75*
G02*
X43540234Y23597601I212181J-212154D01*
G01*
X40879669Y23906880D02*
G75*
G03*
X40879621Y23482568I212131J-212180D01*
G01*
X42691684Y24446103D02*
G75*
G02*
X42691654Y24021867I-212184J-212103D01*
G01*
X40879669Y23482616D02*
G75*
G03*
X41303933Y23482618I212131J212084D01*
G01*
X41798889Y23129048D02*
G75*
G03*
X41798873Y22704768I212111J-212148D01*
G01*
X43270579Y22903685D02*
G75*
G03*
X43270626Y22479468I212121J-212085D01*
G01*
X40725000Y25025000D02*
G75*
G03*
X41149233Y25025033I212100J212100D01*
G01*
X42267418Y24446105D02*
G75*
G02*
X42691634Y24446053I212082J-212105D01*
G01*
X41737082Y25188553D02*
G75*
G02*
X41737102Y24764267I-212182J-212153D01*
G01*
X43540185Y23597552D02*
G75*
G02*
X43540204Y23173267I-212185J-212152D01*
G01*
X41798889Y22704784D02*
G75*
G03*
X42223133Y22704806I212111J212116D01*
G01*
X41312818Y25188553D02*
G75*
G02*
X41737082Y25188553I212132J-212132D01*
G01*
%TO.N,D5*%
X44624180Y14491093D02*
X44779412Y14646324D01*
X46052205Y13373530D02*
X45896944Y13218268D01*
X45203676Y14222059D02*
X45048445Y14066827D01*
X45472679Y13642534D02*
X45627941Y13797795D01*
X40910000Y22690000D02*
X37390000Y22690000D01*
X44779412Y15070588D02*
X44779413Y15070587D01*
X41095098Y21514952D02*
X41095098Y21514953D01*
X44624180Y14491092D02*
X44624180Y14491093D01*
X44779413Y15070587D02*
X43300000Y16550000D01*
X47587500Y12262500D02*
X47325000Y12525000D01*
X41802205Y21373530D02*
X41519363Y21090687D01*
X42600000Y19050000D02*
X43000000Y19050000D01*
X42650734Y20525001D02*
X42367892Y20242158D01*
X41802206Y21373530D02*
X41802205Y21373530D01*
X41095098Y21514953D02*
X41377941Y21797795D01*
X46476470Y13373530D02*
X46476471Y13373529D01*
X46321216Y12794012D02*
X46321216Y12794013D01*
X49562000Y12262500D02*
X47587500Y12262500D01*
X43300000Y20300000D02*
X43075000Y20525000D01*
X43300000Y19350000D02*
X43300000Y20000000D01*
X41377941Y22222059D02*
X41377942Y22222058D01*
X41943627Y20666423D02*
X41943627Y20666424D01*
X43000000Y18450000D02*
X42600000Y18450000D01*
X46321216Y12794013D02*
X46476470Y12949266D01*
X43000000Y17250000D02*
X42600000Y17250000D01*
X42226470Y21373530D02*
X42226471Y21373529D01*
X42600000Y17850000D02*
X43000000Y17850000D01*
X42650735Y20525001D02*
X42650734Y20525001D01*
X46900735Y12525001D02*
X46900734Y12525001D01*
X46900734Y12525001D02*
X46745481Y12369747D01*
X46052206Y13373530D02*
X46052205Y13373530D01*
X45627941Y14222059D02*
X45627942Y14222058D01*
X43300000Y20000000D02*
X43300000Y20300000D01*
X41943627Y20666424D02*
X42226470Y20949266D01*
X45472679Y13642533D02*
X45472679Y13642534D01*
X41377942Y22222058D02*
X40910000Y22690000D01*
X43300000Y16550000D02*
X43300000Y16950000D01*
X45203677Y14222059D02*
X45203676Y14222059D01*
X44624181Y14066827D02*
G75*
G02*
X44624140Y14491132I212119J212173D01*
G01*
X42300000Y18750000D02*
G75*
G02*
X42600000Y19050000I300000J0D01*
G01*
X42367892Y20242158D02*
G75*
G02*
X41943628Y20242158I-212132J212132D01*
G01*
X46476470Y12949266D02*
G75*
G03*
X46476472Y13373532I-212170J212134D01*
G01*
X42600000Y18450000D02*
G75*
G02*
X42300000Y18750000I0J300000D01*
G01*
X41519363Y21090687D02*
G75*
G02*
X41095099Y21090687I-212132J212132D01*
G01*
X41943628Y20242158D02*
G75*
G02*
X41943618Y20666432I212172J212142D01*
G01*
X45627942Y14222058D02*
G75*
G03*
X45203668Y14222068I-212142J-212158D01*
G01*
X41377941Y21797795D02*
G75*
G03*
X41377914Y22222032I-212141J212105D01*
G01*
X42226471Y21373529D02*
G75*
G03*
X41802168Y21373568I-212171J-212129D01*
G01*
X43300000Y16950000D02*
G75*
G03*
X43000000Y17250000I-300000J0D01*
G01*
X45048445Y14066827D02*
G75*
G02*
X44624181Y14066827I-212132J212132D01*
G01*
X43300000Y18150000D02*
G75*
G03*
X43000000Y18450000I-300000J0D01*
G01*
X43000000Y19050000D02*
G75*
G03*
X43300000Y19350000I0J300000D01*
G01*
X43000000Y17850000D02*
G75*
G03*
X43300000Y18150000I0J300000D01*
G01*
X44779412Y14646324D02*
G75*
G03*
X44779456Y15070632I-212112J212176D01*
G01*
X46321217Y12369747D02*
G75*
G02*
X46321196Y12794032I212083J212153D01*
G01*
X43075000Y20525000D02*
G75*
G03*
X42650768Y20524968I-212100J-212100D01*
G01*
X42600000Y17250000D02*
G75*
G02*
X42300000Y17550000I0J300000D01*
G01*
X47325000Y12525000D02*
G75*
G03*
X46900768Y12524968I-212100J-212100D01*
G01*
X42226470Y20949266D02*
G75*
G03*
X42226472Y21373532I-212170J212134D01*
G01*
X46476471Y13373529D02*
G75*
G03*
X46052168Y13373568I-212171J-212129D01*
G01*
X45627941Y13797795D02*
G75*
G03*
X45627914Y14222032I-212141J212105D01*
G01*
X42300000Y17550000D02*
G75*
G02*
X42600000Y17850000I300000J0D01*
G01*
X45896944Y13218268D02*
G75*
G02*
X45472680Y13218268I-212132J212132D01*
G01*
X41095099Y21090687D02*
G75*
G02*
X41095118Y21514932I212101J212113D01*
G01*
X45472680Y13218268D02*
G75*
G02*
X45472680Y13642532I212120J212132D01*
G01*
X46745481Y12369747D02*
G75*
G02*
X46321217Y12369747I-212132J212132D01*
G01*
%TO.N,D4*%
X41840068Y15959932D02*
X42097355Y16217218D01*
X42097355Y16641482D02*
X42097354Y16641483D01*
X42688599Y15111400D02*
X42688602Y15111398D01*
X45769361Y11040690D02*
X45769363Y11040689D01*
X44072303Y12737747D02*
X44072303Y12737748D01*
X42592287Y15863616D02*
X42264335Y15535665D01*
X44779410Y12596325D02*
X44496568Y12313482D01*
X47325000Y10899265D02*
X47572487Y11146753D01*
X44072303Y12737748D02*
X44355146Y13020590D01*
X47148222Y11571018D02*
X47148222Y11571017D01*
X43016553Y15863614D02*
X43016551Y15863616D01*
X45627939Y11747796D02*
X45345097Y11464953D01*
X41406036Y15525901D02*
X41840068Y15959932D01*
X47324999Y10899265D02*
X47325000Y10899265D01*
X47487500Y10312500D02*
X47325000Y10475000D01*
X43223774Y13586277D02*
X43506617Y13869119D01*
X42264335Y15535665D02*
X41830303Y15101634D01*
X42688602Y15111398D02*
X43016553Y15439350D01*
X43930882Y13444854D02*
X43930881Y13444854D01*
X42476467Y14899268D02*
X42688599Y15111400D01*
X47148222Y11571017D02*
X46193626Y10616425D01*
X43223774Y13586276D02*
X43223774Y13586277D01*
X49562000Y10312500D02*
X47487500Y10312500D01*
X46052204Y11747797D02*
X46052205Y11747795D01*
X44779411Y12596325D02*
X44779410Y12596325D01*
X41203672Y16596328D02*
X40190000Y17610000D01*
X42254547Y14677345D02*
X42476467Y14899268D01*
X42900735Y14475001D02*
X42900734Y14475001D01*
X44355146Y13444854D02*
X44355147Y13444853D01*
X45627940Y11747796D02*
X45627939Y11747796D01*
X41203671Y16596329D02*
X41203672Y16596328D01*
X45769363Y11040689D02*
X46052204Y11323533D01*
X40190000Y17610000D02*
X37390000Y17610000D01*
X42900734Y14475001D02*
X42678813Y14253079D01*
X44920832Y11889218D02*
X44920832Y11889219D01*
X41673090Y16641483D02*
X41627935Y16596329D01*
X45203675Y12596325D02*
X45203676Y12596324D01*
X43930881Y13444854D02*
X43648039Y13162011D01*
X41406039Y15101634D02*
X41406036Y15101637D01*
X43506617Y14293383D02*
X43325000Y14475000D01*
X42254549Y14253079D02*
X42254547Y14253081D01*
X44920832Y11889219D02*
X45203675Y12172061D01*
X43325000Y14475000D02*
G75*
G03*
X42900768Y14474968I-212100J-212100D01*
G01*
X46052205Y11747795D02*
G75*
G03*
X45627968Y11747768I-212105J-212095D01*
G01*
X42097355Y16217218D02*
G75*
G03*
X42097305Y16641432I-212155J212082D01*
G01*
X45769362Y10616425D02*
G75*
G02*
X45769319Y11040732I212138J212175D01*
G01*
X42097354Y16641483D02*
G75*
G03*
X41673090Y16641483I-212132J-212132D01*
G01*
X43648039Y13162011D02*
G75*
G02*
X43223775Y13162011I-212132J212132D01*
G01*
X43016553Y15439350D02*
G75*
G03*
X43016571Y15863632I-212153J212150D01*
G01*
X47572487Y11571017D02*
G75*
G03*
X47148268Y11570972I-212087J-212117D01*
G01*
X47325000Y10475000D02*
G75*
G02*
X47325032Y10899232I212100J212100D01*
G01*
X43223775Y13162011D02*
G75*
G02*
X43223818Y13586232I212125J212089D01*
G01*
X44355147Y13444853D02*
G75*
G03*
X43930868Y13444868I-212147J-212153D01*
G01*
X41627935Y16596329D02*
G75*
G02*
X41203671Y16596329I-212132J212132D01*
G01*
X44920833Y11464953D02*
G75*
G02*
X44920818Y11889232I212167J212147D01*
G01*
X45203676Y12596324D02*
G75*
G03*
X44779368Y12596368I-212176J-212124D01*
G01*
X46052204Y11323533D02*
G75*
G03*
X46052239Y11747832I-212104J212167D01*
G01*
X41830303Y15101634D02*
G75*
G02*
X41406039Y15101634I-212132J212132D01*
G01*
X43506617Y13869119D02*
G75*
G03*
X43506666Y14293432I-212117J212181D01*
G01*
X42254547Y14253081D02*
G75*
G02*
X42254560Y14677332I212153J212119D01*
G01*
X46193626Y10616425D02*
G75*
G02*
X45769362Y10616425I-212132J212132D01*
G01*
X45345097Y11464953D02*
G75*
G02*
X44920833Y11464953I-212132J212132D01*
G01*
X42678813Y14253079D02*
G75*
G02*
X42254549Y14253079I-212132J212132D01*
G01*
X43016551Y15863616D02*
G75*
G03*
X42592287Y15863616I-212132J-212132D01*
G01*
X47572487Y11146753D02*
G75*
G03*
X47572502Y11571032I-212087J212147D01*
G01*
X45203675Y12172061D02*
G75*
G03*
X45203682Y12596332I-212175J212139D01*
G01*
X44072304Y12313482D02*
G75*
G02*
X44072318Y12737732I212096J212118D01*
G01*
X44496568Y12313482D02*
G75*
G02*
X44072304Y12313482I-212132J212132D01*
G01*
X41406036Y15101637D02*
G75*
G02*
X41406005Y15525932I212164J212163D01*
G01*
X44355146Y13020590D02*
G75*
G03*
X44355124Y13444832I-212146J212110D01*
G01*
%TO.N,D3*%
X41397297Y12112755D02*
X42351888Y13067351D01*
X44331801Y10804596D02*
X43518626Y9991425D01*
X44331801Y10804597D02*
X44331801Y10804596D01*
X46875000Y9400175D02*
X46875000Y9804980D01*
X47275350Y9162849D02*
X47112325Y9162849D01*
X42634735Y12501661D02*
X41821560Y11688491D01*
X42245828Y11264223D02*
X42245830Y11264222D01*
X40380000Y15070000D02*
X37390000Y15070000D01*
X41927623Y13491615D02*
X41680135Y13244128D01*
X40750000Y14700000D02*
X40380000Y15070000D01*
X41255871Y13244128D02*
X40750000Y13750000D01*
X43483268Y11653128D02*
X42670093Y10839958D01*
X44649999Y10274265D02*
X44650000Y10274265D01*
X44650000Y10274265D02*
X44756066Y10380332D01*
X43483268Y11653129D02*
X43483268Y11653128D01*
X46275000Y9637500D02*
X46275000Y8988579D01*
X45375000Y9637500D02*
X44862500Y9637500D01*
X46875000Y9400174D02*
X46875000Y9400175D01*
X42634735Y12501662D02*
X42634735Y12501661D01*
X43094361Y10415690D02*
X43094363Y10415689D01*
X40750000Y13750000D02*
X40750000Y14700000D01*
X44862500Y9637500D02*
X44650000Y9850000D01*
X45675000Y8988579D02*
X45675000Y9337500D01*
X46707520Y9972460D02*
X46442480Y9972460D01*
X49562000Y9637500D02*
X47750000Y9637500D01*
X44756065Y10804597D02*
X44756066Y10804596D01*
X42245830Y11264222D02*
X43059000Y12077397D01*
X46275000Y9804980D02*
X46275000Y9637500D01*
X41927623Y13491616D02*
X41927623Y13491615D01*
X41397295Y12112756D02*
X41397297Y12112755D01*
X43094363Y10415689D02*
X43907533Y11228864D01*
X47512675Y9400175D02*
X47512675Y9400174D01*
X43907533Y11653128D02*
G75*
G03*
X43483268Y11653129I-212133J-212128D01*
G01*
X44756066Y10380332D02*
G75*
G03*
X44756101Y10804633I-212166J212168D01*
G01*
X44650000Y9850000D02*
G75*
G02*
X44650032Y10274232I212100J212100D01*
G01*
X42351888Y13067351D02*
G75*
G03*
X42351905Y13491632I-212088J212149D01*
G01*
X47750000Y9637500D02*
G75*
G03*
X47512700Y9400175I0J-237300D01*
G01*
X42245829Y10839958D02*
G75*
G02*
X42245819Y11264232I212171J212142D01*
G01*
X41680135Y13244128D02*
G75*
G02*
X41255871Y13244128I-212132J212132D01*
G01*
X43518626Y9991425D02*
G75*
G02*
X43094362Y9991425I-212132J212132D01*
G01*
X44756066Y10804596D02*
G75*
G03*
X44331768Y10804630I-212166J-212096D01*
G01*
X43094362Y9991425D02*
G75*
G02*
X43094319Y10415732I212138J212175D01*
G01*
X42351888Y13491615D02*
G75*
G03*
X41927668Y13491571I-212088J-212115D01*
G01*
X45675000Y9337500D02*
G75*
G03*
X45375000Y9637500I-300000J0D01*
G01*
X43059000Y12501661D02*
G75*
G03*
X42634768Y12501629I-212100J-212161D01*
G01*
X47112325Y9162849D02*
G75*
G02*
X46874949Y9400174I-25J237351D01*
G01*
X43907533Y11228864D02*
G75*
G03*
X43907537Y11653132I-212133J212136D01*
G01*
X46442480Y9972460D02*
G75*
G03*
X46275040Y9804980I20J-167460D01*
G01*
X47512675Y9400174D02*
G75*
G02*
X47275350Y9162825I-237375J26D01*
G01*
X46875000Y9804980D02*
G75*
G03*
X46707520Y9972500I-167500J20D01*
G01*
X41821560Y11688491D02*
G75*
G02*
X41397296Y11688491I-212132J212132D01*
G01*
X43059000Y12077397D02*
G75*
G03*
X43058971Y12501632I-212100J212103D01*
G01*
X41397296Y11688491D02*
G75*
G02*
X41397319Y12112732I212104J212109D01*
G01*
X45975000Y8688579D02*
G75*
G02*
X45674979Y8988579I0J300021D01*
G01*
X42670093Y10839958D02*
G75*
G02*
X42245829Y10839958I-212132J212132D01*
G01*
X46275000Y8988579D02*
G75*
G02*
X45975000Y8688600I-300000J21D01*
G01*
%TO.N,D2*%
X41944238Y9821445D02*
X41944239Y9821446D01*
X46827881Y7752881D02*
X48087500Y9012500D01*
X45767220Y6692217D02*
X45955288Y6504149D01*
X41449265Y10175001D02*
X41519975Y10245710D01*
X45310077Y7149363D02*
X45767220Y6692220D01*
X40700000Y12100000D02*
X40700000Y10500000D01*
X45767220Y6692220D02*
X45767220Y6692217D01*
X44499333Y6263047D02*
X44918691Y5843688D01*
X45805065Y7927167D02*
X45805066Y7927167D01*
X44282292Y5631559D02*
X44075068Y5838783D01*
X42959747Y6850000D02*
X42652882Y6850000D01*
X46379552Y6552277D02*
X46379552Y6552278D01*
X46331426Y6504150D02*
X46379552Y6552277D01*
X46379553Y6928415D02*
X45805065Y7502903D01*
X40270000Y12530000D02*
X40700000Y12100000D01*
X42652882Y7450000D02*
X42959747Y7450000D01*
X37390000Y12530000D02*
X40270000Y12530000D01*
X46403616Y7752881D02*
X46403615Y7752881D01*
X45955288Y6504149D02*
X45955289Y6504151D01*
X48087500Y9012500D02*
X49562000Y9012500D01*
X42352882Y8897118D02*
X42352882Y7750000D01*
X42352882Y5197118D02*
X42700000Y4850000D01*
X41944239Y9821446D02*
X41873527Y9750737D01*
X42352882Y6550000D02*
X42352882Y5197118D01*
X45449023Y6161889D02*
X44885813Y6725099D01*
X44075068Y6263047D02*
X44075069Y6263047D01*
X43925000Y4850000D02*
X44282291Y5207294D01*
X41783460Y9466540D02*
X42352882Y8897118D01*
X41783460Y9575172D02*
X41783460Y9466540D01*
X40700000Y10500000D02*
X41025000Y10175000D01*
X46229330Y7927167D02*
X46403616Y7752881D01*
X44918691Y5843688D02*
X45024757Y5737622D01*
X45236889Y5737622D02*
X45449022Y5949756D01*
X42700000Y4850000D02*
X43925000Y4850000D01*
X45955289Y6504151D02*
G75*
G03*
X46331468Y6504108I188111J188049D01*
G01*
X44282291Y5207294D02*
G75*
G03*
X44282265Y5631532I-212091J212106D01*
G01*
X41519975Y10245710D02*
G75*
G02*
X41944239Y10245710I212132J-212132D01*
G01*
X41944239Y10245710D02*
G75*
G02*
X41944216Y9821467I-212139J-212110D01*
G01*
X45805065Y7927167D02*
G75*
G02*
X46229330Y7927168I212133J-212133D01*
G01*
X46379552Y6552278D02*
G75*
G03*
X46379506Y6928368I-188052J188022D01*
G01*
X46403615Y7752881D02*
G75*
G03*
X46827881Y7752881I212133J212134D01*
G01*
X44885813Y6725099D02*
G75*
G02*
X44885844Y7149332I212087J212101D01*
G01*
X42959747Y7450000D02*
G75*
G02*
X43259700Y7150000I-47J-300000D01*
G01*
X45024757Y5737622D02*
G75*
G03*
X45236889Y5737622I106066J106066D01*
G01*
X41873527Y9750737D02*
G75*
G03*
X41783468Y9575171I263673J-246137D01*
G01*
X44885813Y7149363D02*
G75*
G02*
X45310077Y7149363I212132J-212132D01*
G01*
X42652882Y6850000D02*
G75*
G03*
X42352900Y6550000I18J-300000D01*
G01*
X44075068Y5838783D02*
G75*
G02*
X44075083Y6263032I212132J212117D01*
G01*
X41025000Y10175000D02*
G75*
G03*
X41449233Y10175033I212100J212100D01*
G01*
X42352882Y7750000D02*
G75*
G03*
X42652882Y7449982I300018J0D01*
G01*
X45449022Y5949756D02*
G75*
G03*
X45449000Y6161866I-106022J106044D01*
G01*
X45805065Y7927167D02*
X45805066Y7927167D01*
X45805065Y7502903D02*
G75*
G02*
X45805100Y7927132I212135J212097D01*
G01*
X43259747Y7150000D02*
G75*
G02*
X42959747Y6849953I-300047J0D01*
G01*
X44075069Y6263047D02*
G75*
G02*
X44499333Y6263047I212132J-212132D01*
G01*
%TO.N,D1*%
X40360000Y9990000D02*
X37390000Y9990000D01*
X43600000Y2851003D02*
X43600000Y3150000D01*
X40750000Y9600000D02*
X40360000Y9990000D01*
X46550000Y4550000D02*
X46550000Y3950000D01*
X41450000Y7100000D02*
X41050000Y7100000D01*
X41050000Y7700000D02*
X41450000Y7700000D01*
X48312500Y8362500D02*
X47600000Y7650000D01*
X49562000Y8362500D02*
X48312500Y8362500D01*
X40750000Y5350000D02*
X40750000Y6200000D01*
X40750000Y8600000D02*
X40750000Y9600000D01*
X46550000Y3950000D02*
X46050000Y3450000D01*
X46050000Y3450000D02*
X45100000Y3450000D01*
X44200000Y4048997D02*
X44200000Y3750000D01*
X46250000Y5450000D02*
X45924054Y5450000D01*
X47600000Y6800000D02*
X46550000Y5750000D01*
X45924054Y4850000D02*
X46250000Y4850000D01*
X47600000Y7650000D02*
X47600000Y6800000D01*
X41450000Y8300000D02*
X41050000Y8300000D01*
X44200000Y3750000D02*
X44200000Y2851003D01*
X41050000Y6500000D02*
X41450000Y6500000D01*
X42650000Y3450000D02*
X40750000Y5350000D01*
X44800000Y3750000D02*
X44800000Y4048997D01*
X43300000Y3450000D02*
X42650000Y3450000D01*
X44200000Y2851003D02*
G75*
G02*
X43900000Y2551000I-300000J-3D01*
G01*
X40750000Y6200000D02*
G75*
G02*
X41050000Y6500000I300000J0D01*
G01*
X41450000Y6500000D02*
G75*
G03*
X41750000Y6800000I0J300000D01*
G01*
X41050000Y8300000D02*
G75*
G02*
X40750000Y8600000I0J300000D01*
G01*
X45624054Y5150000D02*
G75*
G03*
X45924054Y4849954I300046J0D01*
G01*
X44500000Y4348997D02*
G75*
G03*
X44200003Y4048997I0J-299997D01*
G01*
X43600000Y3150000D02*
G75*
G03*
X43300000Y3450000I-300000J0D01*
G01*
X41050000Y7100000D02*
G75*
G02*
X40750000Y7400000I0J300000D01*
G01*
X43900000Y2551003D02*
G75*
G02*
X43600003Y2851003I0J299997D01*
G01*
X41450000Y7700000D02*
G75*
G03*
X41750000Y8000000I0J300000D01*
G01*
X41750000Y6800000D02*
G75*
G03*
X41450000Y7100000I-300000J0D01*
G01*
X45924054Y5450000D02*
G75*
G03*
X45624100Y5150000I46J-300000D01*
G01*
X44800000Y4048997D02*
G75*
G03*
X44500000Y4349000I-300000J3D01*
G01*
X41750000Y8000000D02*
G75*
G03*
X41450000Y8300000I-300000J0D01*
G01*
X40750000Y7400000D02*
G75*
G02*
X41050000Y7700000I300000J0D01*
G01*
X46250000Y4850000D02*
G75*
G02*
X46550000Y4550000I0J-300000D01*
G01*
X45100000Y3450000D02*
G75*
G02*
X44800000Y3750000I0J300000D01*
G01*
X46550000Y5750000D02*
G75*
G02*
X46250000Y5450000I-300000J0D01*
G01*
%TO.N,D0*%
X49562000Y7712500D02*
X48512500Y7712500D01*
X41200000Y4050000D02*
X40340000Y4910000D01*
X48512500Y7712500D02*
X48200000Y7400000D01*
X48200000Y2800000D02*
X47200000Y1800000D01*
X48200000Y3450000D02*
X48200000Y2800000D01*
X46600000Y2100000D02*
X46600000Y2459650D01*
X47500000Y3750000D02*
X47900000Y3750000D01*
X42650000Y1800000D02*
X42150000Y1800000D01*
X44800000Y2459656D02*
X44800000Y2100000D01*
X48200000Y4950000D02*
X48900000Y4950000D01*
X47200000Y1800000D02*
X46900000Y1800000D01*
X44500000Y1800000D02*
X42650000Y1800000D01*
X40340000Y4910000D02*
X37390000Y4910000D01*
X41200000Y2750000D02*
X41200000Y4050000D01*
X47500000Y4950000D02*
X48200000Y4950000D01*
X48650000Y5925000D02*
X48650000Y5775000D01*
X46000000Y2459650D02*
X46000000Y2100000D01*
X48200000Y5550000D02*
X47500000Y5550000D01*
X45400000Y2100000D02*
X45400000Y2459656D01*
X42150000Y1800000D02*
X41200000Y2750000D01*
X47900000Y4350000D02*
X47500000Y4350000D01*
X48900000Y4350000D02*
X47900000Y4350000D01*
X48425000Y5550000D02*
X48200000Y5550000D01*
X48200000Y7400000D02*
X48200000Y6375000D01*
X47200000Y4050000D02*
G75*
G03*
X47500000Y3750000I300000J0D01*
G01*
X46000000Y2100000D02*
G75*
G02*
X45700000Y1800000I-300000J0D01*
G01*
X47200000Y5250000D02*
G75*
G03*
X47500000Y4950000I300000J0D01*
G01*
X46600000Y2459650D02*
G75*
G03*
X46300000Y2759600I-300000J-50D01*
G01*
X48425000Y6150000D02*
G75*
G02*
X48650000Y5925000I0J-225000D01*
G01*
X48900000Y4950000D02*
G75*
G02*
X49200000Y4650000I0J-300000D01*
G01*
X47900000Y3750000D02*
G75*
G02*
X48200000Y3450000I0J-300000D01*
G01*
X44800000Y2100000D02*
G75*
G02*
X44500000Y1800000I-300000J0D01*
G01*
X45700000Y1800000D02*
G75*
G02*
X45400000Y2100000I0J300000D01*
G01*
X45100000Y2759656D02*
G75*
G03*
X44800044Y2459656I0J-299956D01*
G01*
X48200000Y6375000D02*
G75*
G03*
X48425000Y6150000I225000J0D01*
G01*
X46300000Y2759650D02*
G75*
G03*
X45999950Y2459650I0J-300050D01*
G01*
X47500000Y4350000D02*
G75*
G03*
X47200000Y4050000I0J-300000D01*
G01*
X47500000Y5550000D02*
G75*
G03*
X47200000Y5250000I0J-300000D01*
G01*
X45400000Y2459656D02*
G75*
G03*
X45100000Y2759700I-300000J44D01*
G01*
X49200000Y4650000D02*
G75*
G02*
X48900000Y4350000I-300000J0D01*
G01*
X46900000Y1800000D02*
G75*
G02*
X46600000Y2100000I0J300000D01*
G01*
X48650000Y5775000D02*
G75*
G02*
X48425000Y5550000I-225000J0D01*
G01*
%TO.N,Net-(IC2-HILO)*%
X65650000Y27535000D02*
X65650000Y26250000D01*
X65650000Y26250000D02*
X64650000Y25250000D01*
X60525000Y25250000D02*
X59000000Y23725000D01*
X64650000Y25250000D02*
X60525000Y25250000D01*
%TO.N,Net-(IC2-VPOS)*%
X64850000Y24600000D02*
X61600000Y24600000D01*
X66260000Y27535000D02*
X66260000Y26010000D01*
X61250000Y23712500D02*
X61250000Y24250000D01*
X66260000Y26010000D02*
X64850000Y24600000D01*
X61600000Y24600000D02*
X61250000Y24250000D01*
%TO.N,Net-(IC2-ENBV)*%
X72500000Y24650000D02*
X70150000Y24650000D01*
X73250000Y23462500D02*
X73250000Y23900000D01*
X70150000Y24650000D02*
X68850000Y25950000D01*
X68850000Y25950000D02*
X68850000Y27535000D01*
X73250000Y23900000D02*
X72500000Y24650000D01*
%TO.N,Net-(IC2-ENBL)*%
X73900000Y25600000D02*
X69950000Y25600000D01*
X69490000Y26060000D02*
X69490000Y27535000D01*
X75500000Y24000000D02*
X73900000Y25600000D01*
X75500000Y23462500D02*
X75500000Y24000000D01*
X69950000Y25600000D02*
X69490000Y26060000D01*
%TO.N,Net-(U1-A)*%
X71000000Y48762847D02*
X71000000Y52750000D01*
X72247686Y46502314D02*
X71716180Y47033825D01*
X74800000Y45750000D02*
X74063932Y45750000D01*
X74063932Y45750000D02*
G75*
G02*
X72247662Y46502290I-32J2568600D01*
G01*
X71000000Y48762847D02*
G75*
G03*
X71716160Y47033805I2445200J-47D01*
G01*
%TO.N,GPIO21*%
X17140000Y35390000D02*
X19610000Y35390000D01*
X16250000Y34500000D02*
X17140000Y35390000D01*
%TO.N,GPIO17*%
X9000000Y47000000D02*
X8200000Y46200000D01*
X8200000Y46200000D02*
X8200000Y41960000D01*
X15100000Y47000000D02*
X9000000Y47000000D01*
X16190000Y48090000D02*
X15100000Y47000000D01*
X19610000Y48090000D02*
X16190000Y48090000D01*
X8200000Y41960000D02*
X10210000Y39950000D01*
%TO.N,GPIO18*%
X17010000Y43010000D02*
X19610000Y43010000D01*
X16250000Y42250000D02*
X17010000Y43010000D01*
%TO.N,GPIO19*%
X16250000Y39750000D02*
X16970000Y40470000D01*
X16970000Y40470000D02*
X19610000Y40470000D01*
%TO.N,GPIO11*%
X41000000Y38750000D02*
X40180000Y37930000D01*
X40180000Y37930000D02*
X39365000Y37930000D01*
%TO.N,GPIO22*%
X15300000Y26600000D02*
X15300000Y29400000D01*
X8904416Y25550000D02*
X14250000Y25550000D01*
X15300000Y29400000D02*
X16210000Y30310000D01*
X10210000Y9470000D02*
X6910000Y12770000D01*
X6910000Y12770000D02*
X6910000Y23555584D01*
X14250000Y25550000D02*
X15300000Y26600000D01*
X16210000Y30310000D02*
X19610000Y30310000D01*
X6910000Y23555584D02*
X8904416Y25550000D01*
%TO.N,GPIO12*%
X37390000Y40470000D02*
X40470000Y40470000D01*
X40470000Y40470000D02*
X41000000Y41000000D01*
%TO.N,GPIO26*%
X19610000Y25230000D02*
X19330000Y24950000D01*
X9152944Y24950000D02*
X7510000Y23307056D01*
X7510000Y14710000D02*
X10210000Y12010000D01*
X19330000Y24950000D02*
X9152944Y24950000D01*
X7510000Y23307056D02*
X7510000Y14710000D01*
%TO.N,GPIO16*%
X8751472Y47600000D02*
X7600000Y46448528D01*
X14851472Y47600000D02*
X8751472Y47600000D01*
X7600000Y46448528D02*
X7600000Y40020000D01*
X7600000Y40020000D02*
X10210000Y37410000D01*
X19610000Y50630000D02*
X17881472Y50630000D01*
X17881472Y50630000D02*
X14851472Y47600000D01*
%TO.N,GPIO27*%
X8110000Y16650000D02*
X10210000Y14550000D01*
X15960000Y22690000D02*
X14300000Y24350000D01*
X8110000Y23058528D02*
X8110000Y16650000D01*
X19610000Y22690000D02*
X15960000Y22690000D01*
X14300000Y24350000D02*
X9401472Y24350000D01*
X9401472Y24350000D02*
X8110000Y23058528D01*
%TO.N,GPIO20*%
X16250000Y37250000D02*
X16930000Y37930000D01*
X16930000Y37930000D02*
X19610000Y37930000D01*
%TO.N,GPIO28*%
X10210000Y17090000D02*
X8710000Y18590000D01*
X8710000Y18590000D02*
X8710000Y22810000D01*
X16340000Y17610000D02*
X19610000Y17610000D01*
X13950000Y23750000D02*
X15750000Y21950000D01*
X8710000Y22810000D02*
X9650000Y23750000D01*
X9650000Y23750000D02*
X13950000Y23750000D01*
X15750000Y18200000D02*
X16340000Y17610000D01*
X15750000Y21950000D02*
X15750000Y18200000D01*
%TO.N,CS*%
X41050000Y43800000D02*
X40300000Y43050000D01*
X54250000Y34700000D02*
X51750000Y34700000D01*
X37430000Y43050000D02*
X37390000Y43010000D01*
X40300000Y43050000D02*
X37430000Y43050000D01*
%TO.N,SCLK*%
X52550000Y33800000D02*
X52800000Y34050000D01*
X41000000Y46500000D02*
X40955000Y46500000D01*
X40955000Y46500000D02*
X39365000Y48090000D01*
X52800000Y34050000D02*
X54250000Y34050000D01*
%TO.N,MOSI*%
X53400000Y33400000D02*
X54250000Y33400000D01*
X52900000Y32900000D02*
X53400000Y33400000D01*
X40995000Y49000000D02*
X39365000Y50630000D01*
X51750000Y32900000D02*
X52900000Y32900000D01*
%TO.N,SWCLK*%
X49240000Y51290000D02*
X49240000Y51500000D01*
X32550000Y50400000D02*
X34800000Y52650000D01*
X41850000Y52650000D02*
X45150000Y49350000D01*
X45150000Y49350000D02*
X47300000Y49350000D01*
X31350000Y50400000D02*
X31040000Y50400000D01*
X47300000Y49350000D02*
X49240000Y51290000D01*
X34800000Y52650000D02*
X41850000Y52650000D01*
X31040000Y50400000D02*
X32550000Y50400000D01*
%TO.N,SWDIO*%
X30500000Y47500000D02*
X27250000Y47500000D01*
X51780000Y51480000D02*
X49050000Y48750000D01*
X44700000Y48750000D02*
X41400000Y52050000D01*
X49050000Y48750000D02*
X44700000Y48750000D01*
X51780000Y51500000D02*
X51780000Y51480000D01*
X41400000Y52050000D02*
X35050000Y52050000D01*
X25960000Y48790000D02*
X25960000Y50400000D01*
X27250000Y47500000D02*
X25960000Y48790000D01*
X35050000Y52050000D02*
X30500000Y47500000D01*
%TD*%
%TA.AperFunction,Conductor*%
%TO.N,GND*%
G36*
X12284075Y19822993D02*
G01*
X12250000Y19695826D01*
X12250000Y19564174D01*
X12284075Y19437007D01*
X12316988Y19380000D01*
X10643012Y19380000D01*
X10675925Y19437007D01*
X10710000Y19564174D01*
X10710000Y19695826D01*
X10675925Y19822993D01*
X10643012Y19880000D01*
X12316988Y19880000D01*
X12284075Y19822993D01*
G37*
%TD.AperFunction*%
%TA.AperFunction,Conductor*%
G36*
X11513138Y42240000D02*
G01*
X10643012Y42240000D01*
X10675925Y42297007D01*
X10710000Y42424174D01*
X10710000Y42555826D01*
X10675925Y42682993D01*
X10643012Y42740000D01*
X11521117Y42740000D01*
X11513138Y42240000D01*
G37*
%TD.AperFunction*%
%TA.AperFunction,Conductor*%
G36*
X24459836Y52981046D02*
G01*
X24540618Y52927070D01*
X24594594Y52846288D01*
X24613548Y52751000D01*
X24612781Y52731470D01*
X24609500Y52689778D01*
X24609500Y49910222D01*
X24613363Y49861142D01*
X24615859Y49829423D01*
X24615860Y49829416D01*
X24666210Y49641510D01*
X24666211Y49641506D01*
X24754534Y49468161D01*
X24754537Y49468157D01*
X24853358Y49346124D01*
X24876968Y49316968D01*
X24876973Y49316964D01*
X25028156Y49194538D01*
X25028163Y49194533D01*
X25045305Y49185799D01*
X25173544Y49120459D01*
X25249840Y49060313D01*
X25297313Y48975546D01*
X25309500Y48898599D01*
X25309500Y48725931D01*
X25320214Y48672070D01*
X25328698Y48629420D01*
X25334499Y48600255D01*
X25383534Y48481873D01*
X25424045Y48421244D01*
X25454723Y48375331D01*
X26835330Y46994724D01*
X26863672Y46975787D01*
X26923321Y46935931D01*
X26923320Y46935931D01*
X26941868Y46923538D01*
X26941877Y46923533D01*
X26976549Y46909172D01*
X27060256Y46874499D01*
X27185929Y46849501D01*
X27185930Y46849500D01*
X30451004Y46849500D01*
X30507523Y46838258D01*
X30542515Y46845217D01*
X30591088Y46850000D01*
X35801000Y46850000D01*
X35896288Y46831046D01*
X35977070Y46777070D01*
X36031046Y46696288D01*
X36050000Y46601000D01*
X36050000Y46162943D01*
X36046403Y46120772D01*
X36046354Y46120492D01*
X36040000Y46039750D01*
X36040000Y45800001D01*
X36040001Y45800000D01*
X38291000Y45800000D01*
X38386288Y45781046D01*
X38467070Y45727070D01*
X38521046Y45646288D01*
X38540000Y45551000D01*
X38540000Y45549000D01*
X38521046Y45453712D01*
X38467070Y45372930D01*
X38386288Y45318954D01*
X38291000Y45300000D01*
X36040001Y45300000D01*
X36040000Y45299999D01*
X36040000Y45060249D01*
X36046354Y44979504D01*
X36046402Y44979230D01*
X36050000Y44937056D01*
X36050000Y43625917D01*
X36046404Y43583754D01*
X36045858Y43580579D01*
X36039500Y43499792D01*
X36039500Y43499778D01*
X36039500Y42520222D01*
X36042199Y42485931D01*
X36045859Y42439419D01*
X36046403Y42436256D01*
X36050000Y42394085D01*
X36050000Y41085917D01*
X36046404Y41043754D01*
X36045858Y41040579D01*
X36039500Y40959792D01*
X36039500Y40959778D01*
X36039500Y39980222D01*
X36041879Y39949996D01*
X36045859Y39899419D01*
X36046403Y39896256D01*
X36050000Y39854085D01*
X36050000Y38545917D01*
X36046404Y38503754D01*
X36045858Y38500579D01*
X36039500Y38419792D01*
X36039500Y38419778D01*
X36039500Y37440222D01*
X36041879Y37409996D01*
X36045859Y37359419D01*
X36046403Y37356256D01*
X36050000Y37314085D01*
X36050000Y36005917D01*
X36046404Y35963754D01*
X36045858Y35960579D01*
X36039500Y35879792D01*
X36039500Y35879778D01*
X36039500Y34900222D01*
X36042760Y34858802D01*
X36045859Y34819419D01*
X36046403Y34816256D01*
X36050000Y34774085D01*
X36050000Y33462943D01*
X36046403Y33420772D01*
X36046354Y33420492D01*
X36040000Y33339750D01*
X36040000Y33100001D01*
X36040001Y33100000D01*
X39000000Y33100000D01*
X39000000Y32600000D01*
X36040001Y32600000D01*
X36040000Y32599999D01*
X36040000Y32360249D01*
X36046354Y32279504D01*
X36046402Y32279230D01*
X36050000Y32237056D01*
X36050000Y30925917D01*
X36046404Y30883754D01*
X36045858Y30880579D01*
X36039500Y30799792D01*
X36039500Y30799778D01*
X36039500Y29820222D01*
X36043544Y29768839D01*
X36045859Y29739419D01*
X36046403Y29736256D01*
X36050000Y29694085D01*
X36050000Y28385917D01*
X36046404Y28343754D01*
X36045858Y28340579D01*
X36039500Y28259792D01*
X36039500Y28259778D01*
X36039500Y27280222D01*
X36041879Y27249995D01*
X36045859Y27199419D01*
X36046403Y27196256D01*
X36050000Y27154085D01*
X36050000Y25845917D01*
X36046404Y25803754D01*
X36045858Y25800579D01*
X36039500Y25719792D01*
X36039500Y25719778D01*
X36039500Y24740222D01*
X36043814Y24685404D01*
X36045859Y24659419D01*
X36046403Y24656256D01*
X36050000Y24614085D01*
X36050000Y23305917D01*
X36046404Y23263754D01*
X36045858Y23260579D01*
X36039500Y23179792D01*
X36039500Y23179778D01*
X36039500Y22200222D01*
X36040616Y22186045D01*
X36045859Y22119419D01*
X36046403Y22116256D01*
X36050000Y22074085D01*
X36050000Y20762943D01*
X36046403Y20720772D01*
X36046354Y20720492D01*
X36040000Y20639750D01*
X36040000Y20400001D01*
X36040001Y20400000D01*
X39500000Y20400000D01*
X39500000Y19900000D01*
X36040001Y19900000D01*
X36040000Y19899999D01*
X36040000Y19660249D01*
X36046354Y19579504D01*
X36046402Y19579230D01*
X36050000Y19537056D01*
X36050000Y18225917D01*
X36046404Y18183754D01*
X36045858Y18180579D01*
X36039500Y18099792D01*
X36039500Y18099778D01*
X36039500Y17120222D01*
X36043230Y17072831D01*
X36045859Y17039419D01*
X36046403Y17036256D01*
X36050000Y16994085D01*
X36050000Y15685917D01*
X36046404Y15643754D01*
X36045858Y15640579D01*
X36039500Y15559792D01*
X36039500Y15559778D01*
X36039500Y14580222D01*
X36042862Y14537500D01*
X36045859Y14499419D01*
X36046403Y14496256D01*
X36050000Y14454085D01*
X36050000Y13145917D01*
X36046404Y13103754D01*
X36045858Y13100579D01*
X36039500Y13019792D01*
X36039500Y13019778D01*
X36039500Y12040222D01*
X36041879Y12009998D01*
X36045859Y11959419D01*
X36046403Y11956256D01*
X36050000Y11914085D01*
X36050000Y10605917D01*
X36046404Y10563754D01*
X36045858Y10560579D01*
X36039500Y10479792D01*
X36039500Y10479778D01*
X36039500Y9500222D01*
X36042424Y9463066D01*
X36045859Y9419419D01*
X36046403Y9416256D01*
X36050000Y9374085D01*
X36050000Y8062943D01*
X36046403Y8020772D01*
X36046354Y8020492D01*
X36040000Y7939750D01*
X36040000Y7700001D01*
X36040001Y7700000D01*
X38291000Y7700000D01*
X38386288Y7681046D01*
X38467070Y7627070D01*
X38521046Y7546288D01*
X38540000Y7451000D01*
X38540000Y7449000D01*
X38521046Y7353712D01*
X38467070Y7272930D01*
X38386288Y7218954D01*
X38291000Y7200000D01*
X36040001Y7200000D01*
X36040000Y7199999D01*
X36040000Y6960249D01*
X36046354Y6879504D01*
X36046402Y6879230D01*
X36050000Y6837056D01*
X36050000Y5525917D01*
X36046404Y5483754D01*
X36045858Y5480579D01*
X36039500Y5399792D01*
X36039500Y5399778D01*
X36039500Y4420222D01*
X36044124Y4361459D01*
X36045859Y4339419D01*
X36046403Y4336256D01*
X36050000Y4294085D01*
X36050000Y2985917D01*
X36046404Y2943754D01*
X36045858Y2940579D01*
X36039500Y2859792D01*
X36039500Y2859778D01*
X36039500Y1880222D01*
X36043362Y1831154D01*
X36045859Y1799419D01*
X36046403Y1796256D01*
X36050000Y1754085D01*
X36050000Y1249000D01*
X36031046Y1153712D01*
X35977070Y1072930D01*
X35896288Y1018954D01*
X35801000Y1000000D01*
X32849000Y1000000D01*
X32753712Y1018954D01*
X32672930Y1072930D01*
X32618954Y1153712D01*
X32600000Y1249000D01*
X32600000Y2193691D01*
X32607621Y2254822D01*
X32611132Y2268687D01*
X32611133Y2268692D01*
X32611134Y2268695D01*
X32630300Y2500000D01*
X32611134Y2731305D01*
X32554157Y2956300D01*
X32460924Y3168849D01*
X32393044Y3272747D01*
X32333981Y3363151D01*
X32215804Y3491526D01*
X32165212Y3574470D01*
X32150000Y3660169D01*
X32150000Y5237417D01*
X32158485Y5301865D01*
X32161207Y5312023D01*
X32180277Y5530000D01*
X32161207Y5747977D01*
X32104575Y5959330D01*
X32012102Y6157638D01*
X31984398Y6197203D01*
X31944530Y6254141D01*
X31886598Y6336877D01*
X31731877Y6491598D01*
X31552639Y6617102D01*
X31509121Y6637395D01*
X31354328Y6709576D01*
X31241738Y6739744D01*
X31142977Y6766207D01*
X30925000Y6785277D01*
X30707023Y6766207D01*
X30707021Y6766207D01*
X30707016Y6766206D01*
X30684029Y6760046D01*
X30678203Y6758485D01*
X30613758Y6750000D01*
X26386242Y6750000D01*
X26321796Y6758485D01*
X26314089Y6760550D01*
X26292983Y6766206D01*
X26292979Y6766207D01*
X26292977Y6766207D01*
X26075000Y6785277D01*
X25857023Y6766207D01*
X25690332Y6721543D01*
X25645666Y6709574D01*
X25447368Y6617106D01*
X25447360Y6617102D01*
X25268124Y6491599D01*
X25113401Y6336876D01*
X24987898Y6157640D01*
X24987894Y6157632D01*
X24895426Y5959334D01*
X24895425Y5959330D01*
X24838793Y5747977D01*
X24825601Y5597190D01*
X24819723Y5530000D01*
X24838793Y5312022D01*
X24841515Y5301865D01*
X24850000Y5237417D01*
X24850000Y3660169D01*
X24831046Y3564881D01*
X24784196Y3491526D01*
X24666018Y3363151D01*
X24539074Y3168847D01*
X24445842Y2956298D01*
X24445841Y2956294D01*
X24388868Y2731316D01*
X24388866Y2731309D01*
X24369700Y2500000D01*
X24388866Y2268692D01*
X24388867Y2268687D01*
X24392379Y2254822D01*
X24400000Y2193691D01*
X24400000Y1249000D01*
X24381046Y1153712D01*
X24327070Y1072930D01*
X24246288Y1018954D01*
X24151000Y1000000D01*
X21199000Y1000000D01*
X21103712Y1018954D01*
X21022930Y1072930D01*
X20968954Y1153712D01*
X20950000Y1249000D01*
X20950000Y1754085D01*
X20953597Y1796256D01*
X20954140Y1799419D01*
X20954141Y1799422D01*
X20960500Y1880222D01*
X20960500Y2859778D01*
X20956240Y2913901D01*
X20954141Y2940579D01*
X20953596Y2943754D01*
X20950000Y2985917D01*
X20950000Y4294085D01*
X20953597Y4336256D01*
X20954140Y4339419D01*
X20954141Y4339422D01*
X20960500Y4420222D01*
X20960500Y5399778D01*
X20955095Y5468450D01*
X20954141Y5480579D01*
X20953596Y5483754D01*
X20950000Y5525917D01*
X20950000Y6837056D01*
X20953598Y6879230D01*
X20953645Y6879504D01*
X20959999Y6960249D01*
X20960000Y6960263D01*
X20960000Y7199999D01*
X20959999Y7200000D01*
X16457527Y7200000D01*
X16450000Y7194971D01*
X16450000Y5999000D01*
X16431046Y5903712D01*
X16377070Y5822930D01*
X16296288Y5768954D01*
X16201000Y5750000D01*
X10837134Y5750000D01*
X10786861Y5740000D01*
X10460001Y5740000D01*
X10460000Y5739999D01*
X10460000Y4823012D01*
X10402993Y4855925D01*
X10275826Y4890000D01*
X10144174Y4890000D01*
X10017007Y4855925D01*
X9960000Y4823012D01*
X9960000Y5739999D01*
X9959999Y5740000D01*
X9312167Y5740000D01*
X9252628Y5733599D01*
X9252621Y5733597D01*
X9117912Y5683354D01*
X9002812Y5597190D01*
X9002810Y5597188D01*
X8916646Y5482088D01*
X8866403Y5347379D01*
X8866401Y5347372D01*
X8860000Y5287833D01*
X8860000Y4640001D01*
X8860001Y4640000D01*
X9776988Y4640000D01*
X9744075Y4582993D01*
X9710000Y4455826D01*
X9710000Y4324174D01*
X9744075Y4197007D01*
X9776988Y4140000D01*
X8860001Y4140000D01*
X8860000Y4139999D01*
X8860000Y3492168D01*
X8866401Y3432629D01*
X8866403Y3432622D01*
X8916646Y3297913D01*
X9002810Y3182813D01*
X9002812Y3182811D01*
X9117912Y3096647D01*
X9252621Y3046404D01*
X9252628Y3046402D01*
X9312167Y3040001D01*
X9312175Y3040000D01*
X9959999Y3040000D01*
X9960000Y3040001D01*
X9960000Y3956988D01*
X10017007Y3924075D01*
X10144174Y3890000D01*
X10275826Y3890000D01*
X10402993Y3924075D01*
X10460000Y3956988D01*
X10460000Y3023648D01*
X10481046Y2992149D01*
X10500000Y2896861D01*
X10500000Y1249000D01*
X10481046Y1153712D01*
X10427070Y1072930D01*
X10346288Y1018954D01*
X10251000Y1000000D01*
X7449000Y1000000D01*
X7353712Y1018954D01*
X7272930Y1072930D01*
X7218954Y1153712D01*
X7200000Y1249000D01*
X7200000Y3387043D01*
X7200341Y3400074D01*
X7200966Y3412009D01*
X7205578Y3500000D01*
X7185278Y3887338D01*
X7124602Y4270433D01*
X7024214Y4645087D01*
X6885214Y5007194D01*
X6709125Y5352789D01*
X6550847Y5596516D01*
X6497875Y5678086D01*
X6253786Y5979510D01*
X6253785Y5979511D01*
X6253781Y5979516D01*
X5979516Y6253781D01*
X5979509Y6253787D01*
X5678085Y6497876D01*
X5352789Y6709125D01*
X5352784Y6709128D01*
X5007195Y6885214D01*
X4800204Y6964670D01*
X4645087Y7024214D01*
X4270433Y7124602D01*
X4270429Y7124603D01*
X4270428Y7124603D01*
X3887344Y7185277D01*
X3887345Y7185277D01*
X3887343Y7185278D01*
X3887338Y7185278D01*
X3500000Y7205578D01*
X3499999Y7205578D01*
X3400074Y7200341D01*
X3387043Y7200000D01*
X2621071Y7200000D01*
X2525783Y7218954D01*
X2445001Y7272930D01*
X2391025Y7353712D01*
X2372071Y7449000D01*
X2391025Y7544288D01*
X2442325Y7668139D01*
X2459256Y7709013D01*
X2497593Y7901746D01*
X2500000Y8000000D01*
X2500000Y23619656D01*
X6259500Y23619656D01*
X6259500Y23619653D01*
X6259500Y12705931D01*
X6280112Y12602311D01*
X6281318Y12596251D01*
X6281319Y12596239D01*
X6281320Y12596239D01*
X6284497Y12580260D01*
X6333535Y12461873D01*
X6404723Y12355331D01*
X8811260Y9948794D01*
X8865236Y9868012D01*
X8884190Y9772724D01*
X8876740Y9716131D01*
X8876825Y9716116D01*
X8876482Y9714172D01*
X8875707Y9708283D01*
X8874937Y9705412D01*
X8874935Y9705402D01*
X8854341Y9470006D01*
X8854341Y9469995D01*
X8874935Y9234599D01*
X8914520Y9086862D01*
X8936097Y9006337D01*
X9015049Y8837025D01*
X9035965Y8792170D01*
X9157900Y8618028D01*
X9171505Y8598599D01*
X9338599Y8431505D01*
X9532170Y8295965D01*
X9746337Y8196097D01*
X9974592Y8134937D01*
X9974595Y8134937D01*
X9974598Y8134936D01*
X10209995Y8114341D01*
X10210000Y8114341D01*
X10210005Y8114341D01*
X10445401Y8134936D01*
X10445402Y8134937D01*
X10445408Y8134937D01*
X10467449Y8140843D01*
X10469962Y8141516D01*
X10534405Y8150000D01*
X12000000Y8150000D01*
X12029061Y8165554D01*
X12041339Y8177859D01*
X12131056Y8215141D01*
X12228211Y8215253D01*
X12276050Y8199623D01*
X12276120Y8199815D01*
X12281893Y8197714D01*
X12285156Y8196648D01*
X12286337Y8196097D01*
X12514592Y8134937D01*
X12514595Y8134937D01*
X12514598Y8134936D01*
X12749995Y8114341D01*
X12750000Y8114341D01*
X12750005Y8114341D01*
X12985401Y8134936D01*
X12985403Y8134937D01*
X12985408Y8134937D01*
X13213663Y8196097D01*
X13279230Y8226672D01*
X13373599Y8249763D01*
X13384460Y8250000D01*
X16201000Y8250000D01*
X16296288Y8231046D01*
X16377070Y8177070D01*
X16431046Y8096288D01*
X16450000Y8001000D01*
X16450000Y7702037D01*
X16452907Y7700000D01*
X20950000Y7700000D01*
X20959999Y7700000D01*
X20960000Y7700001D01*
X20960000Y7939737D01*
X20959999Y7939750D01*
X20953645Y8020492D01*
X20953597Y8020772D01*
X20950000Y8062943D01*
X20950000Y9374085D01*
X20953597Y9416256D01*
X20954140Y9419419D01*
X20954141Y9419422D01*
X20960500Y9500222D01*
X20960500Y10479778D01*
X20954141Y10560578D01*
X20954141Y10560579D01*
X20953596Y10563754D01*
X20950000Y10605917D01*
X20950000Y11914085D01*
X20953597Y11956256D01*
X20954140Y11959419D01*
X20954141Y11959422D01*
X20960500Y12040222D01*
X20960500Y13019778D01*
X20956154Y13074994D01*
X20954141Y13100579D01*
X20953596Y13103754D01*
X20950000Y13145917D01*
X20950000Y14454085D01*
X20953597Y14496256D01*
X20954140Y14499419D01*
X20954141Y14499422D01*
X20960500Y14580222D01*
X20960500Y15559778D01*
X20954182Y15640051D01*
X20954141Y15640579D01*
X20953596Y15643754D01*
X20950000Y15685917D01*
X20950000Y16994085D01*
X20953597Y17036256D01*
X20954140Y17039419D01*
X20954141Y17039422D01*
X20960500Y17120222D01*
X20960500Y18099778D01*
X20955495Y18163368D01*
X20954141Y18180579D01*
X20953596Y18183754D01*
X20950000Y18225917D01*
X20950000Y19537056D01*
X20953598Y19579230D01*
X20953645Y19579504D01*
X20959999Y19660249D01*
X20960000Y19660263D01*
X20960000Y19899999D01*
X20959999Y19900000D01*
X18709000Y19900000D01*
X18613712Y19918954D01*
X18532930Y19972930D01*
X18478954Y20053712D01*
X18460000Y20149000D01*
X18460000Y20151000D01*
X18478954Y20246288D01*
X18532930Y20327070D01*
X18613712Y20381046D01*
X18709000Y20400000D01*
X20959999Y20400000D01*
X20960000Y20400001D01*
X20960000Y20639737D01*
X20959999Y20639750D01*
X20953645Y20720492D01*
X20953597Y20720772D01*
X20950000Y20762943D01*
X20950000Y22074085D01*
X20953597Y22116256D01*
X20954140Y22119419D01*
X20954141Y22119422D01*
X20960500Y22200222D01*
X20960500Y23179778D01*
X20954141Y23260578D01*
X20954141Y23260579D01*
X20953596Y23263754D01*
X20950000Y23305917D01*
X20950000Y24614085D01*
X20953597Y24656256D01*
X20954140Y24659419D01*
X20954141Y24659422D01*
X20960500Y24740222D01*
X20960500Y25719778D01*
X20960174Y25723914D01*
X20954141Y25800579D01*
X20953596Y25803754D01*
X20950000Y25845917D01*
X20950000Y27154085D01*
X20953597Y27196256D01*
X20954140Y27199419D01*
X20954141Y27199422D01*
X20960500Y27280222D01*
X20960500Y28259778D01*
X20958815Y28281182D01*
X20954141Y28340579D01*
X20953596Y28343754D01*
X20950000Y28385917D01*
X20950000Y29694085D01*
X20953597Y29736256D01*
X20954140Y29739419D01*
X20954141Y29739422D01*
X20960500Y29820222D01*
X20960500Y30799778D01*
X20955938Y30857739D01*
X20954141Y30880579D01*
X20953596Y30883754D01*
X20950000Y30925917D01*
X20950000Y32237056D01*
X20953598Y32279230D01*
X20953645Y32279504D01*
X20959999Y32360249D01*
X20960000Y32360263D01*
X20960000Y32599999D01*
X20959999Y32600000D01*
X16460001Y32600000D01*
X16450936Y32590936D01*
X16450000Y32586229D01*
X16450000Y31209500D01*
X16431046Y31114212D01*
X16377070Y31033430D01*
X16296288Y30979454D01*
X16201000Y30960500D01*
X16145928Y30960500D01*
X16020257Y30935502D01*
X15901878Y30886468D01*
X15901874Y30886466D01*
X15901873Y30886465D01*
X15795330Y30815276D01*
X15795326Y30815273D01*
X14794720Y29814666D01*
X14764101Y29768839D01*
X14734808Y29724998D01*
X14723535Y29708127D01*
X14723533Y29708125D01*
X14723533Y29708123D01*
X14723531Y29708120D01*
X14674498Y29589743D01*
X14649500Y29464072D01*
X14649500Y28849000D01*
X14630546Y28753712D01*
X14576570Y28672930D01*
X14495788Y28618954D01*
X14400500Y28600000D01*
X12825548Y28600000D01*
X12803847Y28600948D01*
X12784000Y28602685D01*
X12750003Y28605659D01*
X12749997Y28605659D01*
X12715999Y28602685D01*
X12696152Y28600948D01*
X12674452Y28600000D01*
X10460001Y28600000D01*
X10460000Y28599999D01*
X10460000Y27683012D01*
X10402993Y27715925D01*
X10275826Y27750000D01*
X10144174Y27750000D01*
X10017007Y27715925D01*
X9960000Y27683012D01*
X9960000Y28599999D01*
X9959999Y28600000D01*
X9312167Y28600000D01*
X9252628Y28593599D01*
X9252621Y28593597D01*
X9117912Y28543354D01*
X9002812Y28457190D01*
X9002810Y28457188D01*
X8916646Y28342088D01*
X8866403Y28207379D01*
X8866401Y28207372D01*
X8860000Y28147833D01*
X8860000Y27500001D01*
X8860001Y27500000D01*
X9776988Y27500000D01*
X9744075Y27442993D01*
X9710000Y27315826D01*
X9710000Y27184174D01*
X9744075Y27057007D01*
X9776988Y27000000D01*
X8860001Y27000000D01*
X8860000Y26999999D01*
X8860000Y26402075D01*
X8841046Y26306787D01*
X8787070Y26226005D01*
X8706289Y26172029D01*
X8596290Y26126466D01*
X8596288Y26126465D01*
X8489750Y26055279D01*
X6404720Y23970250D01*
X6344088Y23879504D01*
X6344086Y23879501D01*
X6333535Y23863712D01*
X6333531Y23863704D01*
X6284498Y23745327D01*
X6259500Y23619656D01*
X2500000Y23619656D01*
X2500000Y46250000D01*
X2497593Y46348254D01*
X2497592Y46348257D01*
X2497592Y46348262D01*
X2466927Y46502422D01*
X2466927Y46512600D01*
X6949500Y46512600D01*
X6949500Y39955929D01*
X6970670Y39849502D01*
X6974498Y39830259D01*
X6974498Y39830257D01*
X7023535Y39711872D01*
X7094723Y39605331D01*
X8777070Y37922984D01*
X8831046Y37842202D01*
X8850000Y37746914D01*
X8850000Y34935962D01*
X8856404Y34900899D01*
X8855488Y34883106D01*
X8854341Y34870000D01*
X8854976Y34862746D01*
X8850000Y34817316D01*
X8850000Y34600000D01*
X8850000Y33100000D01*
X8850001Y33100000D01*
X8882851Y33067150D01*
X8936827Y32986368D01*
X8955781Y32891080D01*
X8938527Y32804344D01*
X8939814Y32803875D01*
X8936097Y32793665D01*
X8874935Y32565402D01*
X8854341Y32330006D01*
X8854341Y32329995D01*
X8874935Y32094599D01*
X8921864Y31919454D01*
X8936097Y31866337D01*
X9032081Y31660500D01*
X9035965Y31652170D01*
X9154497Y31482888D01*
X9171505Y31458599D01*
X9338599Y31291505D01*
X9532170Y31155965D01*
X9746337Y31056097D01*
X9974592Y30994937D01*
X9974595Y30994937D01*
X9974598Y30994936D01*
X10209995Y30974341D01*
X10210000Y30974341D01*
X10210005Y30974341D01*
X10445401Y30994936D01*
X10445403Y30994937D01*
X10445408Y30994937D01*
X10673663Y31056097D01*
X10887830Y31155965D01*
X11081401Y31291505D01*
X11248495Y31458599D01*
X11384035Y31652170D01*
X11483903Y31866337D01*
X11545063Y32094592D01*
X11545869Y32103805D01*
X11565659Y32329995D01*
X11565659Y32330006D01*
X11545064Y32565402D01*
X11545063Y32565405D01*
X11545063Y32565408D01*
X11483903Y32793663D01*
X11429278Y32910805D01*
X11406186Y33005174D01*
X11420965Y33101198D01*
X11471366Y33184257D01*
X11501713Y33212300D01*
X11549999Y33250001D01*
X11550000Y33250000D01*
X11550000Y34600000D01*
X11550000Y34680149D01*
X11550948Y34701851D01*
X11565659Y34869995D01*
X11565659Y34870006D01*
X11550948Y35038150D01*
X11550000Y35059852D01*
X11550000Y37220155D01*
X11550948Y37241858D01*
X11551661Y37250001D01*
X11563157Y37381404D01*
X11565659Y37409996D01*
X11565659Y37410005D01*
X11550948Y37578144D01*
X11550000Y37599847D01*
X11550000Y39760155D01*
X11550948Y39781858D01*
X11565659Y39949996D01*
X11565659Y39950005D01*
X11550948Y40118144D01*
X11550000Y40139847D01*
X11550000Y42239999D01*
X11550000Y42321625D01*
X15337011Y42321625D01*
X15348636Y42211025D01*
X15350000Y42184997D01*
X15350000Y39815000D01*
X15348636Y39788974D01*
X15345607Y39760155D01*
X15344540Y39750000D01*
X15348547Y39711872D01*
X15348636Y39711030D01*
X15350000Y39685002D01*
X15350000Y37315000D01*
X15348636Y37288974D01*
X15344540Y37250002D01*
X15344540Y37250001D01*
X15348636Y37211030D01*
X15350000Y37185002D01*
X15350000Y34565000D01*
X15348636Y34538974D01*
X15344540Y34500002D01*
X15344540Y34500001D01*
X15364325Y34311745D01*
X15381413Y34259156D01*
X15422821Y34131716D01*
X15494660Y34007287D01*
X15517469Y33967781D01*
X15644126Y33827115D01*
X15644129Y33827112D01*
X15722158Y33770421D01*
X15797271Y33715848D01*
X15970189Y33638859D01*
X15970192Y33638858D01*
X15970197Y33638856D01*
X16155354Y33599500D01*
X16211231Y33599500D01*
X16306519Y33580546D01*
X16387301Y33526570D01*
X16441277Y33445788D01*
X16460231Y33350500D01*
X16460039Y33340712D01*
X16460000Y33339721D01*
X16460000Y33100001D01*
X16460001Y33100000D01*
X20950000Y33100000D01*
X20959999Y33100000D01*
X20960000Y33100001D01*
X20960000Y33339737D01*
X20959999Y33339750D01*
X20953645Y33420492D01*
X20953597Y33420772D01*
X20950000Y33462943D01*
X20950000Y34774085D01*
X20953597Y34816256D01*
X20954140Y34819419D01*
X20954141Y34819422D01*
X20960500Y34900222D01*
X20960500Y35879778D01*
X20954141Y35960578D01*
X20954140Y35960582D01*
X20953596Y35963754D01*
X20950000Y36005917D01*
X20950000Y37314085D01*
X20953597Y37356256D01*
X20954140Y37359419D01*
X20954141Y37359422D01*
X20960500Y37440222D01*
X20960500Y38419778D01*
X20958725Y38442326D01*
X20954141Y38500579D01*
X20953596Y38503754D01*
X20950000Y38545917D01*
X20950000Y39854085D01*
X20953597Y39896256D01*
X20954140Y39899419D01*
X20954141Y39899422D01*
X20960500Y39980222D01*
X20960500Y40959778D01*
X20960401Y40961030D01*
X20954141Y41040579D01*
X20953596Y41043754D01*
X20950000Y41085917D01*
X20950000Y42394085D01*
X20953597Y42436256D01*
X20954140Y42439419D01*
X20954141Y42439422D01*
X20960500Y42520222D01*
X20960500Y43499778D01*
X20954141Y43580578D01*
X20954141Y43580579D01*
X20953596Y43583754D01*
X20950000Y43625917D01*
X20950000Y44937056D01*
X20953598Y44979230D01*
X20953645Y44979504D01*
X20959999Y45060249D01*
X20960000Y45060263D01*
X20960000Y45299999D01*
X20959999Y45300000D01*
X16460001Y45300000D01*
X16460000Y45299999D01*
X16460000Y45060249D01*
X16466354Y44979509D01*
X16466355Y44979502D01*
X16491515Y44885609D01*
X16500000Y44821161D01*
X16500000Y43740774D01*
X16491515Y43676328D01*
X16465860Y43580585D01*
X16465859Y43580579D01*
X16465859Y43580578D01*
X16459500Y43499778D01*
X16459500Y43499776D01*
X16459500Y43499771D01*
X16459500Y43482586D01*
X16440546Y43387298D01*
X16386570Y43306516D01*
X16386569Y43306515D01*
X16301734Y43221681D01*
X16220952Y43167705D01*
X16167901Y43154230D01*
X16168118Y43153213D01*
X15970203Y43111146D01*
X15970189Y43111142D01*
X15797271Y43034153D01*
X15644126Y42922886D01*
X15517469Y42782220D01*
X15422822Y42618286D01*
X15364325Y42438256D01*
X15359772Y42394927D01*
X15337011Y42321625D01*
X11550000Y42321625D01*
X11550000Y44026184D01*
X11553581Y44056905D01*
X11552426Y44057029D01*
X11554268Y44074168D01*
X11560500Y44132127D01*
X11560499Y45927872D01*
X11554091Y45987483D01*
X11544393Y46013486D01*
X11528853Y46109390D01*
X11551197Y46203941D01*
X11608023Y46282744D01*
X11690680Y46333801D01*
X11777694Y46349500D01*
X15046341Y46349500D01*
X15105190Y46337795D01*
X15142513Y46345217D01*
X15191085Y46350000D01*
X16215051Y46350000D01*
X16310339Y46331046D01*
X16391121Y46277070D01*
X16445097Y46196288D01*
X16464051Y46101000D01*
X16463284Y46081466D01*
X16460000Y46039734D01*
X16460000Y45800001D01*
X16460001Y45800000D01*
X20959999Y45800000D01*
X20960000Y45800001D01*
X20960000Y46039737D01*
X20959999Y46039750D01*
X20953645Y46120492D01*
X20953597Y46120772D01*
X20950000Y46162943D01*
X20950000Y47474085D01*
X20953597Y47516256D01*
X20954140Y47519419D01*
X20954141Y47519422D01*
X20960500Y47600222D01*
X20960500Y48579778D01*
X20958888Y48600255D01*
X20954141Y48660579D01*
X20953596Y48663754D01*
X20950000Y48705917D01*
X20950000Y50014085D01*
X20953597Y50056256D01*
X20954140Y50059419D01*
X20954141Y50059422D01*
X20960500Y50140222D01*
X20960500Y51119778D01*
X20954141Y51200578D01*
X20903788Y51388496D01*
X20815465Y51561840D01*
X20730876Y51666298D01*
X20693036Y51713027D01*
X20693032Y51713032D01*
X20665400Y51735408D01*
X20541843Y51835463D01*
X20541839Y51835466D01*
X20368494Y51923789D01*
X20368490Y51923790D01*
X20180584Y51974140D01*
X20180579Y51974141D01*
X20180578Y51974141D01*
X20099778Y51980500D01*
X17320222Y51980500D01*
X17239422Y51974141D01*
X17239415Y51974140D01*
X17051509Y51923790D01*
X17051505Y51923789D01*
X16878160Y51835466D01*
X16878156Y51835463D01*
X16726973Y51713037D01*
X16726963Y51713027D01*
X16604537Y51561844D01*
X16604534Y51561840D01*
X16516211Y51388495D01*
X16516210Y51388491D01*
X16465860Y51200585D01*
X16465859Y51200578D01*
X16459500Y51119778D01*
X16459500Y51119776D01*
X16459500Y51119771D01*
X16459500Y50231115D01*
X16440546Y50135827D01*
X16386570Y50055045D01*
X14654956Y48323430D01*
X14574174Y48269454D01*
X14478886Y48250500D01*
X8687400Y48250500D01*
X8561729Y48225502D01*
X8443350Y48176468D01*
X8443346Y48176466D01*
X8443345Y48176465D01*
X8365572Y48124499D01*
X8336798Y48105273D01*
X7094723Y46863198D01*
X7023534Y46756656D01*
X6974498Y46638270D01*
X6949500Y46512600D01*
X2466927Y46512600D01*
X2466926Y46599576D01*
X2504106Y46689336D01*
X2572804Y46758035D01*
X2662564Y46795215D01*
X2711142Y46800000D01*
X3387043Y46800000D01*
X3400074Y46799659D01*
X3500000Y46794422D01*
X3887338Y46814722D01*
X4270433Y46875398D01*
X4645087Y46975786D01*
X5007194Y47114786D01*
X5352789Y47290875D01*
X5678084Y47502124D01*
X5979516Y47746219D01*
X6253781Y48020484D01*
X6497876Y48321916D01*
X6709125Y48647211D01*
X6885214Y48992806D01*
X7024214Y49354913D01*
X7124602Y49729567D01*
X7185278Y50112662D01*
X7205578Y50500000D01*
X7200341Y50599928D01*
X7200000Y50612959D01*
X7200000Y51017833D01*
X8860000Y51017833D01*
X8860000Y50370001D01*
X8860001Y50370000D01*
X9776988Y50370000D01*
X9744075Y50312993D01*
X9710000Y50185826D01*
X9710000Y50054174D01*
X9744075Y49927007D01*
X9776988Y49870000D01*
X8860001Y49870000D01*
X8860000Y49869999D01*
X8860000Y49222168D01*
X8866401Y49162629D01*
X8866403Y49162622D01*
X8916646Y49027913D01*
X9002810Y48912813D01*
X9002812Y48912811D01*
X9117912Y48826647D01*
X9252621Y48776404D01*
X9252628Y48776402D01*
X9312167Y48770001D01*
X9312175Y48770000D01*
X9959999Y48770000D01*
X9960000Y48770001D01*
X9960000Y49686988D01*
X10017007Y49654075D01*
X10144174Y49620000D01*
X10275826Y49620000D01*
X10402993Y49654075D01*
X10460000Y49686988D01*
X10460000Y48770001D01*
X10460001Y48770000D01*
X11107825Y48770000D01*
X11107832Y48770001D01*
X11167371Y48776402D01*
X11167381Y48776404D01*
X11188555Y48784301D01*
X11275570Y48800000D01*
X12425595Y48800000D01*
X12490038Y48791516D01*
X12493139Y48790686D01*
X12514592Y48784937D01*
X12514596Y48784937D01*
X12514598Y48784936D01*
X12749995Y48764341D01*
X12750000Y48764341D01*
X12750005Y48764341D01*
X12985401Y48784936D01*
X12985403Y48784937D01*
X12985408Y48784937D01*
X13213663Y48846097D01*
X13427830Y48945965D01*
X13621401Y49081505D01*
X13788495Y49248599D01*
X13924035Y49442170D01*
X14023903Y49656337D01*
X14085063Y49884592D01*
X14086455Y49900500D01*
X14105659Y50119995D01*
X14105659Y50120006D01*
X14085064Y50355402D01*
X14085063Y50355405D01*
X14085063Y50355408D01*
X14023903Y50583663D01*
X13961951Y50716518D01*
X13924038Y50797823D01*
X13924034Y50797831D01*
X13861360Y50887338D01*
X13788495Y50991401D01*
X13621401Y51158495D01*
X13561290Y51200585D01*
X13427830Y51294035D01*
X13213663Y51393903D01*
X13213660Y51393904D01*
X12985401Y51455065D01*
X12750005Y51475659D01*
X12749995Y51475659D01*
X12514598Y51455065D01*
X12507327Y51453782D01*
X12464092Y51450000D01*
X11248758Y51450000D01*
X11182974Y51461869D01*
X11182537Y51460015D01*
X11167371Y51463599D01*
X11107832Y51470000D01*
X10460001Y51470000D01*
X10460000Y51469999D01*
X10460000Y50553012D01*
X10402993Y50585925D01*
X10275826Y50620000D01*
X10144174Y50620000D01*
X10017007Y50585925D01*
X9960000Y50553012D01*
X9960000Y51469999D01*
X9959999Y51470000D01*
X9312167Y51470000D01*
X9252628Y51463599D01*
X9252621Y51463597D01*
X9117912Y51413354D01*
X9002812Y51327190D01*
X9002810Y51327188D01*
X8916646Y51212088D01*
X8866403Y51077379D01*
X8866401Y51077372D01*
X8860000Y51017833D01*
X7200000Y51017833D01*
X7200000Y52751000D01*
X7218954Y52846288D01*
X7272930Y52927070D01*
X7353712Y52981046D01*
X7449000Y53000000D01*
X24364548Y53000000D01*
X24459836Y52981046D01*
G37*
%TD.AperFunction*%
%TA.AperFunction,Conductor*%
G36*
X57660202Y8343046D02*
G01*
X57740984Y8289070D01*
X58526570Y7503484D01*
X58580546Y7422702D01*
X58599500Y7327414D01*
X58599500Y4285929D01*
X58619155Y4187120D01*
X58624499Y4160256D01*
X58673534Y4041873D01*
X58744723Y3935331D01*
X60077070Y2602984D01*
X60131046Y2522202D01*
X60150000Y2426914D01*
X60150000Y1249000D01*
X60131046Y1153712D01*
X60077070Y1072930D01*
X59996288Y1018954D01*
X59901000Y1000000D01*
X58422989Y1000000D01*
X57500000Y1000000D01*
X53500000Y1000000D01*
X52500000Y1000000D01*
X49349000Y1000000D01*
X49253712Y1018954D01*
X49172930Y1072930D01*
X49118954Y1153712D01*
X49100000Y1249000D01*
X49100000Y1826914D01*
X49118954Y1922202D01*
X49172930Y2002984D01*
X50746516Y3576570D01*
X50827298Y3630546D01*
X50922586Y3649500D01*
X52042386Y3649500D01*
X52137674Y3630546D01*
X52218456Y3576570D01*
X52272432Y3495788D01*
X52276374Y3485650D01*
X52285259Y3461234D01*
X52285260Y3461231D01*
X52285261Y3461229D01*
X52285262Y3461227D01*
X52368415Y3317185D01*
X52368416Y3317183D01*
X52368419Y3317179D01*
X52475305Y3189784D01*
X52475311Y3189778D01*
X52475317Y3189771D01*
X52572513Y3108208D01*
X52602723Y3082857D01*
X52665862Y3046402D01*
X52746758Y2999694D01*
X52746761Y2999693D01*
X52746763Y2999692D01*
X52770459Y2991067D01*
X52903047Y2942807D01*
X53066840Y2913924D01*
X53066855Y2913924D01*
X53067122Y2913900D01*
X53150000Y2913900D01*
X53233159Y2913900D01*
X53233162Y2913900D01*
X53396960Y2942784D01*
X53553252Y2999673D01*
X53625519Y3041400D01*
X53717514Y3072630D01*
X53814461Y3066278D01*
X53874527Y3041398D01*
X53946751Y2999697D01*
X53946763Y2999692D01*
X53970459Y2991067D01*
X54103047Y2942807D01*
X54266840Y2913924D01*
X54266855Y2913924D01*
X54267122Y2913900D01*
X54350000Y2913900D01*
X54433159Y2913900D01*
X54433162Y2913900D01*
X54596960Y2942784D01*
X54753252Y2999673D01*
X54897291Y3082839D01*
X55024699Y3189754D01*
X55131605Y3317171D01*
X55214760Y3461217D01*
X55223651Y3485650D01*
X55274045Y3568709D01*
X55352391Y3626163D01*
X55446760Y3649262D01*
X55457639Y3649500D01*
X56364070Y3649500D01*
X56364070Y3649501D01*
X56489744Y3674499D01*
X56608127Y3723535D01*
X56635572Y3741873D01*
X56714669Y3794723D01*
X57555276Y4635331D01*
X57626465Y4741873D01*
X57675501Y4860256D01*
X57679831Y4882025D01*
X57700500Y4985931D01*
X57700500Y6614069D01*
X57675501Y6739744D01*
X57635193Y6837056D01*
X57626467Y6858123D01*
X57626464Y6858128D01*
X57606441Y6888095D01*
X57606440Y6888097D01*
X57555277Y6964669D01*
X56952169Y7567777D01*
X56845627Y7638965D01*
X56829708Y7645559D01*
X56748927Y7699536D01*
X56694952Y7780318D01*
X56675999Y7875604D01*
X56675999Y7886895D01*
X56675999Y7886904D01*
X56673265Y7921656D01*
X56659530Y7968930D01*
X56651148Y8065722D01*
X56659532Y8107870D01*
X56672767Y8153423D01*
X56673555Y8157737D01*
X56675303Y8162155D01*
X56676317Y8165641D01*
X56676646Y8165546D01*
X56709321Y8248069D01*
X56776932Y8317838D01*
X56866097Y8356423D01*
X56918503Y8362000D01*
X57564914Y8362000D01*
X57660202Y8343046D01*
G37*
%TD.AperFunction*%
%TA.AperFunction,Conductor*%
G36*
X74603422Y19524361D02*
G01*
X74641145Y19511861D01*
X74722203Y19485001D01*
X74824991Y19474500D01*
X76175008Y19474501D01*
X76277797Y19485001D01*
X76396577Y19524362D01*
X76474900Y19537000D01*
X76928684Y19537000D01*
X77016808Y19519471D01*
X77016900Y19519748D01*
X77019129Y19519010D01*
X77023972Y19518046D01*
X77029876Y19515448D01*
X77030665Y19515187D01*
X77030666Y19515186D01*
X77197203Y19460001D01*
X77299991Y19449500D01*
X78700008Y19449501D01*
X78802797Y19460001D01*
X78959300Y19511862D01*
X79037622Y19524500D01*
X79250500Y19524500D01*
X79345788Y19505546D01*
X79426570Y19451570D01*
X79480546Y19370788D01*
X79499500Y19275500D01*
X79499500Y18951455D01*
X79537947Y18758170D01*
X79537949Y18758165D01*
X79613365Y18576092D01*
X79613366Y18576089D01*
X79613368Y18576086D01*
X79652746Y18517153D01*
X79722134Y18413305D01*
X79722861Y18412218D01*
X79862218Y18272861D01*
X80026086Y18163368D01*
X80208165Y18087949D01*
X80208167Y18087949D01*
X80208169Y18087948D01*
X80396453Y18050496D01*
X80401459Y18049500D01*
X80513805Y18049500D01*
X80556167Y18041074D01*
X80576993Y18045216D01*
X80625569Y18050000D01*
X83751000Y18050000D01*
X83846288Y18031046D01*
X83927070Y17977070D01*
X83981046Y17896288D01*
X84000000Y17801000D01*
X84000000Y7449000D01*
X83981046Y7353712D01*
X83927070Y7272930D01*
X83846288Y7218954D01*
X83751000Y7200000D01*
X81612957Y7200000D01*
X81599926Y7200341D01*
X81500000Y7205578D01*
X81112662Y7185278D01*
X81112656Y7185278D01*
X81112654Y7185277D01*
X80729571Y7124603D01*
X80729567Y7124603D01*
X80729567Y7124602D01*
X80557064Y7078380D01*
X80354913Y7024214D01*
X79992804Y6885214D01*
X79647215Y6709128D01*
X79647210Y6709125D01*
X79321914Y6497876D01*
X79020490Y6253787D01*
X78746213Y5979510D01*
X78502124Y5678086D01*
X78290875Y5352790D01*
X78290872Y5352785D01*
X78114786Y5007196D01*
X78009593Y4733158D01*
X77975786Y4645087D01*
X77876548Y4274723D01*
X77875397Y4270429D01*
X77814723Y3887346D01*
X77814722Y3887338D01*
X77802257Y3649501D01*
X77794422Y3500000D01*
X77799659Y3400074D01*
X77800000Y3387043D01*
X77800000Y1249000D01*
X77781046Y1153712D01*
X77727070Y1072930D01*
X77646288Y1018954D01*
X77551000Y1000000D01*
X65799000Y1000000D01*
X65703712Y1018954D01*
X65622930Y1072930D01*
X65568954Y1153712D01*
X65550000Y1249000D01*
X65550000Y2249999D01*
X65549999Y2250000D01*
X64474000Y2250000D01*
X64378712Y2268954D01*
X64297930Y2322930D01*
X64243954Y2403712D01*
X64225000Y2499000D01*
X64225000Y4499999D01*
X64725000Y4499999D01*
X64725000Y2750001D01*
X64725001Y2750000D01*
X65549998Y2750000D01*
X65549999Y2750001D01*
X65549999Y3199968D01*
X65549998Y3199985D01*
X65539505Y3302700D01*
X65539504Y3302703D01*
X65484359Y3469120D01*
X65468841Y3494278D01*
X65434948Y3585329D01*
X65438478Y3682420D01*
X65468841Y3755722D01*
X65484359Y3780880D01*
X65539504Y3947299D01*
X65539505Y3947306D01*
X65549999Y4050019D01*
X65550000Y4050029D01*
X65550000Y4499999D01*
X65549999Y4500000D01*
X64725001Y4500000D01*
X64725000Y4499999D01*
X64225000Y4499999D01*
X64225000Y6749999D01*
X64725000Y6749999D01*
X64725000Y5000001D01*
X64725001Y5000000D01*
X65549998Y5000000D01*
X65549999Y5000001D01*
X65549999Y5449968D01*
X65549998Y5449985D01*
X65539505Y5552700D01*
X65539504Y5552703D01*
X65484359Y5719120D01*
X65468841Y5744278D01*
X65434948Y5835329D01*
X65438478Y5932420D01*
X65468841Y6005722D01*
X65484359Y6030880D01*
X65539504Y6197299D01*
X65539505Y6197306D01*
X65549999Y6300019D01*
X65550000Y6300029D01*
X65550000Y6749999D01*
X65549999Y6750000D01*
X64725001Y6750000D01*
X64725000Y6749999D01*
X64225000Y6749999D01*
X64225000Y8999999D01*
X64725000Y8999999D01*
X64725000Y7250001D01*
X64725001Y7250000D01*
X65549998Y7250000D01*
X65549999Y7250001D01*
X65549999Y7699968D01*
X65549997Y7700000D01*
X65539505Y7802700D01*
X65539504Y7802703D01*
X65484359Y7969120D01*
X65468841Y7994278D01*
X65434948Y8085329D01*
X65438478Y8182420D01*
X65468841Y8255722D01*
X65484359Y8280880D01*
X65539504Y8447299D01*
X65539505Y8447306D01*
X65549999Y8550019D01*
X65550000Y8550029D01*
X65550000Y8999999D01*
X65549999Y9000000D01*
X64725001Y9000000D01*
X64725000Y8999999D01*
X64225000Y8999999D01*
X64225000Y10649999D01*
X64725000Y10649999D01*
X64725000Y9500001D01*
X64725001Y9500000D01*
X65549998Y9500000D01*
X65549999Y9500001D01*
X65549999Y9949968D01*
X65549998Y9949985D01*
X65539505Y10052700D01*
X65539504Y10052703D01*
X65484359Y10219120D01*
X65484358Y10219122D01*
X65392318Y10368342D01*
X65392315Y10368346D01*
X65268345Y10492316D01*
X65268341Y10492319D01*
X65119121Y10584359D01*
X65119120Y10584360D01*
X64952701Y10639505D01*
X64952694Y10639506D01*
X64849981Y10650000D01*
X64725001Y10650000D01*
X64725000Y10649999D01*
X64225000Y10649999D01*
X64225000Y10650001D01*
X64100024Y10650000D01*
X63997301Y10639506D01*
X63857471Y10593171D01*
X63761057Y10581191D01*
X63667398Y10607019D01*
X63612220Y10650000D01*
X63600000Y10650000D01*
X61916164Y10650000D01*
X61903497Y10650322D01*
X61900015Y10650500D01*
X61900009Y10650500D01*
X61900002Y10650500D01*
X61149993Y10650500D01*
X61047198Y10639999D01*
X61047196Y10639998D01*
X60992255Y10621792D01*
X60895841Y10609811D01*
X60802182Y10635639D01*
X60737863Y10682083D01*
X59302169Y12117777D01*
X59195627Y12188966D01*
X59100357Y12228427D01*
X59077244Y12238001D01*
X59077242Y12238002D01*
X59077241Y12238002D01*
X58951571Y12263000D01*
X58951569Y12263000D01*
X56919015Y12263000D01*
X56823727Y12281954D01*
X56742945Y12335930D01*
X56688969Y12416712D01*
X56674065Y12467273D01*
X56673264Y12471660D01*
X56661676Y12511545D01*
X56659791Y12518031D01*
X56651407Y12614820D01*
X56659789Y12656962D01*
X56673265Y12703344D01*
X56676000Y12738095D01*
X56675999Y13086904D01*
X56673265Y13121656D01*
X56659530Y13168930D01*
X56651148Y13265722D01*
X56659532Y13307870D01*
X56672767Y13353423D01*
X56673555Y13357737D01*
X56675303Y13362155D01*
X56676317Y13365641D01*
X56676646Y13365546D01*
X56709321Y13448069D01*
X56776932Y13517838D01*
X56866097Y13556423D01*
X56918503Y13562000D01*
X61914914Y13562000D01*
X62010202Y13543046D01*
X62090984Y13489070D01*
X62276570Y13303484D01*
X62330546Y13222702D01*
X62349500Y13127415D01*
X62349500Y12899995D01*
X62360001Y12797200D01*
X62415185Y12630668D01*
X62415186Y12630666D01*
X62507288Y12481344D01*
X62631344Y12357288D01*
X62780666Y12265186D01*
X62780669Y12265185D01*
X62780667Y12265185D01*
X62944310Y12210960D01*
X62947203Y12210001D01*
X63049991Y12199500D01*
X64450008Y12199501D01*
X64552797Y12210001D01*
X64719334Y12265186D01*
X64868656Y12357288D01*
X64893754Y12382387D01*
X64974532Y12436362D01*
X65069819Y12455317D01*
X65148145Y12442678D01*
X65167206Y12436362D01*
X65322203Y12385001D01*
X65424991Y12374500D01*
X66150008Y12374501D01*
X66252797Y12385001D01*
X66259916Y12387360D01*
X66338242Y12400000D01*
X68161759Y12400000D01*
X68240080Y12387362D01*
X68247203Y12385001D01*
X68349991Y12374500D01*
X69075008Y12374501D01*
X69177797Y12385001D01*
X69344334Y12440186D01*
X69493656Y12532288D01*
X69617712Y12656344D01*
X69709814Y12805666D01*
X69750624Y12928822D01*
X69798588Y13013311D01*
X69875234Y13073015D01*
X69968893Y13098842D01*
X69986985Y13099500D01*
X70314070Y13099500D01*
X70314070Y13099501D01*
X70439744Y13124499D01*
X70558127Y13173535D01*
X70567891Y13180059D01*
X70664669Y13244723D01*
X71505276Y14085331D01*
X71576465Y14191873D01*
X71625501Y14310256D01*
X71625749Y14311504D01*
X71625751Y14311514D01*
X71625754Y14311514D01*
X71625757Y14311545D01*
X71650500Y14435931D01*
X71650500Y14479731D01*
X71669454Y14575019D01*
X71723430Y14655801D01*
X71804212Y14709777D01*
X71821178Y14716092D01*
X71969331Y14765185D01*
X71969331Y14765186D01*
X71969334Y14765186D01*
X72118656Y14857288D01*
X72242712Y14981344D01*
X72334814Y15130666D01*
X72389999Y15297203D01*
X72400500Y15399991D01*
X72400499Y16150008D01*
X72400497Y16150018D01*
X72400322Y16153472D01*
X72400000Y16166141D01*
X72400000Y18333837D01*
X72400322Y18346505D01*
X72400497Y18349964D01*
X72400500Y18349991D01*
X72400499Y19100008D01*
X72390264Y19200200D01*
X72399436Y19296917D01*
X72444924Y19382766D01*
X72519801Y19444672D01*
X72612670Y19473212D01*
X72637956Y19474501D01*
X73925008Y19474501D01*
X74027797Y19485001D01*
X74146577Y19524362D01*
X74224900Y19537000D01*
X74525100Y19537000D01*
X74603422Y19524361D01*
G37*
%TD.AperFunction*%
%TA.AperFunction,Conductor*%
G36*
X53020788Y10231046D02*
G01*
X53101570Y10177070D01*
X53155546Y10096288D01*
X53174500Y10001000D01*
X53174500Y9983955D01*
X53174500Y9271455D01*
X53174500Y8178545D01*
X53194897Y8076004D01*
X53196692Y8066983D01*
X53196692Y8066975D01*
X53196693Y8066975D01*
X53199526Y8052733D01*
X53202381Y8038379D01*
X53257068Y7906351D01*
X53336467Y7787521D01*
X53336472Y7787515D01*
X53667915Y7456073D01*
X53975020Y7148968D01*
X54080663Y7078380D01*
X54090393Y7071879D01*
X54159093Y7003183D01*
X54196275Y6913424D01*
X54200294Y6884370D01*
X54202734Y6853348D01*
X54202736Y6853339D01*
X54245943Y6704617D01*
X54245943Y6704616D01*
X54299493Y6614069D01*
X54324785Y6571302D01*
X54434302Y6461785D01*
X54567613Y6382945D01*
X54567615Y6382945D01*
X54567616Y6382944D01*
X54716340Y6339736D01*
X54716343Y6339735D01*
X54719923Y6339454D01*
X54751095Y6337000D01*
X56124904Y6337001D01*
X56130965Y6337478D01*
X56227445Y6326059D01*
X56312213Y6278587D01*
X56372361Y6202290D01*
X56398732Y6108782D01*
X56399500Y6089246D01*
X56399500Y5422586D01*
X56380546Y5327298D01*
X56326570Y5246516D01*
X56103484Y5023430D01*
X56022702Y4969454D01*
X55927414Y4950500D01*
X55023294Y4950500D01*
X54950000Y4950500D01*
X54866842Y4950500D01*
X54866837Y4950500D01*
X54866835Y4950499D01*
X54808881Y4940281D01*
X54711750Y4942402D01*
X54622823Y4981532D01*
X54558600Y5047179D01*
X54540348Y5074500D01*
X54497469Y5138684D01*
X54456606Y5179554D01*
X54370807Y5265369D01*
X54370801Y5265374D01*
X54221859Y5364911D01*
X54221856Y5364913D01*
X54056354Y5433483D01*
X53978489Y5448978D01*
X53880651Y5468448D01*
X53880649Y5468449D01*
X53880644Y5468449D01*
X53866139Y5468450D01*
X53866001Y5468456D01*
X53855091Y5468456D01*
X53812100Y5468456D01*
X53811838Y5468508D01*
X53708923Y5468500D01*
X53620053Y5468494D01*
X53619343Y5468493D01*
X53619342Y5468493D01*
X53443636Y5433527D01*
X53278122Y5364953D01*
X53278121Y5364952D01*
X53129169Y5265409D01*
X53129166Y5265407D01*
X53002498Y5138717D01*
X53002494Y5138712D01*
X52941351Y5047187D01*
X52872658Y4978482D01*
X52782902Y4941295D01*
X52691067Y4940290D01*
X52633168Y4950499D01*
X52633161Y4950500D01*
X52633158Y4950500D01*
X52614069Y4950500D01*
X50485931Y4950500D01*
X50478806Y4950500D01*
X50468622Y4950000D01*
X49968098Y4950000D01*
X49872810Y4968954D01*
X49792028Y5022930D01*
X49752459Y5074498D01*
X49681578Y5197267D01*
X49681577Y5197269D01*
X49574676Y5324669D01*
X49574673Y5324673D01*
X49485149Y5399792D01*
X49447266Y5431579D01*
X49423464Y5445321D01*
X49350419Y5509380D01*
X49307449Y5596516D01*
X49300890Y5676538D01*
X49300500Y5676538D01*
X49300500Y5681294D01*
X49300165Y5685380D01*
X49300498Y5688763D01*
X49300500Y5688771D01*
X49300500Y5775000D01*
X49300500Y5848294D01*
X49300500Y5989069D01*
X49300500Y6011229D01*
X49294792Y6039926D01*
X49294793Y6137079D01*
X49331973Y6226839D01*
X49400672Y6295537D01*
X49490431Y6332717D01*
X49539008Y6337501D01*
X50248843Y6337501D01*
X50248856Y6337502D01*
X50283574Y6340233D01*
X50283577Y6340234D01*
X50432186Y6383409D01*
X50565387Y6462184D01*
X50674816Y6571613D01*
X50753591Y6704814D01*
X50753591Y6704815D01*
X50796765Y6853418D01*
X50796767Y6853427D01*
X50799499Y6888139D01*
X50799499Y7236845D01*
X50799498Y7236855D01*
X50796766Y7271580D01*
X50783532Y7317132D01*
X50775147Y7413925D01*
X50783529Y7456067D01*
X50797265Y7503344D01*
X50800000Y7538095D01*
X50799999Y7886904D01*
X50797265Y7921656D01*
X50783791Y7968031D01*
X50775407Y8064820D01*
X50783789Y8106962D01*
X50797265Y8153344D01*
X50800000Y8188095D01*
X50799999Y8536904D01*
X50797265Y8571656D01*
X50783791Y8618031D01*
X50775407Y8714820D01*
X50783789Y8756962D01*
X50797265Y8803344D01*
X50800000Y8838095D01*
X50799999Y9186904D01*
X50797265Y9221656D01*
X50783791Y9268031D01*
X50775407Y9364820D01*
X50783789Y9406962D01*
X50797265Y9453344D01*
X50800000Y9488095D01*
X50799999Y9836904D01*
X50797265Y9871656D01*
X50790908Y9893534D01*
X50782527Y9990325D01*
X50811823Y10082958D01*
X50874339Y10157328D01*
X50960556Y10202114D01*
X51030023Y10212000D01*
X52036419Y10212000D01*
X52036419Y10212001D01*
X52132166Y10231046D01*
X52193410Y10243228D01*
X52193681Y10241863D01*
X52248539Y10250000D01*
X52925500Y10250000D01*
X53020788Y10231046D01*
G37*
%TD.AperFunction*%
%TA.AperFunction,Conductor*%
G36*
X47430781Y18731046D02*
G01*
X47511562Y18677070D01*
X47917048Y18271585D01*
X47917050Y18271582D01*
X47971148Y18217485D01*
X48021584Y18167049D01*
X48144505Y18084916D01*
X48281087Y18028342D01*
X48426080Y17999501D01*
X48426081Y17999500D01*
X48426082Y17999500D01*
X49835992Y17999500D01*
X49931280Y17980546D01*
X50012062Y17926570D01*
X51676570Y16262063D01*
X51730546Y16181281D01*
X51749500Y16085993D01*
X51749500Y11962000D01*
X51730546Y11866712D01*
X51676570Y11785930D01*
X51595788Y11731954D01*
X51500500Y11713000D01*
X51030022Y11713000D01*
X50934734Y11731954D01*
X50853952Y11785930D01*
X50799976Y11866712D01*
X50781022Y11962000D01*
X50790910Y12031471D01*
X50797265Y12053344D01*
X50800000Y12088095D01*
X50799999Y12436904D01*
X50797265Y12471656D01*
X50783791Y12518031D01*
X50775407Y12614820D01*
X50783789Y12656962D01*
X50797265Y12703344D01*
X50800000Y12738095D01*
X50799999Y13086904D01*
X50797265Y13121656D01*
X50783791Y13168031D01*
X50775407Y13264820D01*
X50783789Y13306962D01*
X50797265Y13353344D01*
X50800000Y13388095D01*
X50799999Y13736904D01*
X50797265Y13771656D01*
X50783791Y13818031D01*
X50775407Y13914820D01*
X50783789Y13956962D01*
X50797265Y14003344D01*
X50800000Y14038095D01*
X50799999Y14386904D01*
X50797265Y14421656D01*
X50783791Y14468031D01*
X50775407Y14564820D01*
X50783789Y14606962D01*
X50797265Y14653344D01*
X50800000Y14688095D01*
X50799999Y15036904D01*
X50797265Y15071656D01*
X50783530Y15118930D01*
X50775148Y15215722D01*
X50783532Y15257870D01*
X50796766Y15303421D01*
X50796767Y15303429D01*
X50799499Y15338139D01*
X50799499Y15686845D01*
X50799498Y15686855D01*
X50796767Y15721575D01*
X50796766Y15721578D01*
X50753591Y15870187D01*
X50674816Y16003388D01*
X50565387Y16112817D01*
X50432186Y16191592D01*
X50283582Y16234766D01*
X50283573Y16234768D01*
X50248856Y16237500D01*
X48875157Y16237500D01*
X48875143Y16237499D01*
X48840425Y16234768D01*
X48840422Y16234767D01*
X48691813Y16191592D01*
X48558612Y16112817D01*
X48483941Y16038145D01*
X48403159Y15984169D01*
X48307871Y15965215D01*
X48212583Y15984169D01*
X48131801Y16038145D01*
X46473430Y17696516D01*
X46419454Y17777298D01*
X46400500Y17872586D01*
X46400500Y18501000D01*
X46419454Y18596288D01*
X46473430Y18677070D01*
X46554212Y18731046D01*
X46649500Y18750000D01*
X47335493Y18750000D01*
X47430781Y18731046D01*
G37*
%TD.AperFunction*%
%TA.AperFunction,Conductor*%
G36*
X63246288Y18181046D02*
G01*
X63327070Y18127070D01*
X63381046Y18046288D01*
X63400000Y17951000D01*
X63400000Y17549500D01*
X63381046Y17454212D01*
X63327070Y17373430D01*
X63246288Y17319454D01*
X63151002Y17300500D01*
X63049994Y17300500D01*
X62947199Y17289999D01*
X62780667Y17234815D01*
X62631346Y17142714D01*
X62507286Y17018654D01*
X62415184Y16869332D01*
X62360002Y16702803D01*
X62360001Y16702796D01*
X62349500Y16600012D01*
X62349500Y15935087D01*
X62330546Y15839799D01*
X62276570Y15759018D01*
X62103482Y15585929D01*
X62022705Y15531955D01*
X61927416Y15513000D01*
X56918503Y15513000D01*
X56823215Y15531954D01*
X56742433Y15585930D01*
X56688457Y15666712D01*
X56673554Y15717269D01*
X56672767Y15721575D01*
X56629591Y15870187D01*
X56550816Y16003388D01*
X56441387Y16112817D01*
X56308186Y16191592D01*
X56159582Y16234766D01*
X56159573Y16234768D01*
X56124861Y16237500D01*
X54874500Y16237500D01*
X54779212Y16256454D01*
X54698430Y16310430D01*
X54644454Y16391212D01*
X54625500Y16486500D01*
X54625500Y17951000D01*
X54644454Y18046288D01*
X54698430Y18127070D01*
X54779212Y18181046D01*
X54874500Y18200000D01*
X63151000Y18200000D01*
X63246288Y18181046D01*
G37*
%TD.AperFunction*%
%TA.AperFunction,Conductor*%
G36*
X63696288Y52981046D02*
G01*
X63777070Y52927070D01*
X63831046Y52846288D01*
X63850000Y52751000D01*
X63850000Y48677177D01*
X63854719Y48633275D01*
X66573929Y51352484D01*
X66654711Y51406460D01*
X66749999Y51425414D01*
X66845287Y51406460D01*
X66926069Y51352484D01*
X69584373Y48694181D01*
X69628924Y48627504D01*
X69652489Y48635817D01*
X69735327Y48650000D01*
X70119980Y48650000D01*
X70215268Y48631046D01*
X70296050Y48577070D01*
X70350026Y48496288D01*
X70367781Y48425401D01*
X70379333Y48308084D01*
X70379336Y48308061D01*
X70438667Y48009758D01*
X70438668Y48009756D01*
X70526956Y47718693D01*
X70526960Y47718680D01*
X70641174Y47442934D01*
X70643351Y47437678D01*
X70643356Y47437669D01*
X70786716Y47169450D01*
X70786736Y47169416D01*
X70921526Y46967682D01*
X70955709Y46916522D01*
X70955712Y46916518D01*
X70955718Y46916510D01*
X71148656Y46681408D01*
X71148669Y46681394D01*
X71202191Y46627871D01*
X71202222Y46627837D01*
X71715818Y46114237D01*
X71715926Y46114075D01*
X71899456Y45930554D01*
X71899524Y45930486D01*
X72144020Y45729841D01*
X72407005Y45554127D01*
X72685946Y45405036D01*
X72875569Y45326495D01*
X72939538Y45299999D01*
X72978158Y45284003D01*
X72978165Y45284001D01*
X73280821Y45192196D01*
X73280820Y45192196D01*
X73473765Y45153819D01*
X73563525Y45116641D01*
X73632225Y45047943D01*
X73669406Y44958184D01*
X73669407Y44861029D01*
X73665177Y44843815D01*
X73664976Y44842416D01*
X73644500Y44700000D01*
X73644500Y44699996D01*
X73644500Y44449000D01*
X73625546Y44353712D01*
X73571570Y44272930D01*
X73490788Y44218954D01*
X73395500Y44200000D01*
X72666164Y44200000D01*
X72653497Y44200322D01*
X72650015Y44200500D01*
X72650009Y44200500D01*
X72650002Y44200500D01*
X71999984Y44200500D01*
X71996530Y44200323D01*
X71983860Y44200000D01*
X69516164Y44200000D01*
X69503497Y44200322D01*
X69500015Y44200500D01*
X69500009Y44200500D01*
X69500002Y44200500D01*
X68849993Y44200500D01*
X68747199Y44189999D01*
X68580667Y44134815D01*
X68431346Y44042714D01*
X68307286Y43918654D01*
X68215184Y43769332D01*
X68160002Y43602803D01*
X68160002Y43602801D01*
X68160001Y43602797D01*
X68149500Y43500009D01*
X68149500Y42782216D01*
X68149501Y42099000D01*
X68130547Y42003712D01*
X68076571Y41922931D01*
X67995789Y41868954D01*
X67900501Y41850000D01*
X63123086Y41850000D01*
X63027798Y41868954D01*
X62947016Y41922930D01*
X62564669Y42305277D01*
X62458127Y42376466D01*
X62359376Y42417369D01*
X62339744Y42425501D01*
X62339742Y42425502D01*
X62339741Y42425502D01*
X62214071Y42450500D01*
X62214069Y42450500D01*
X60085931Y42450500D01*
X60085928Y42450500D01*
X59960257Y42425502D01*
X59841878Y42376468D01*
X59841874Y42376466D01*
X59841873Y42376465D01*
X59735330Y42305276D01*
X59735323Y42305271D01*
X59028482Y41598430D01*
X58947701Y41544454D01*
X58852413Y41525500D01*
X58099993Y41525500D01*
X57997199Y41514999D01*
X57830667Y41459815D01*
X57681346Y41367714D01*
X57557286Y41243654D01*
X57465184Y41094332D01*
X57410002Y40927803D01*
X57410001Y40927798D01*
X57410001Y40927797D01*
X57408685Y40914916D01*
X57399500Y40825012D01*
X57399500Y40075001D01*
X57399678Y40071526D01*
X57400000Y40058857D01*
X57400000Y37891161D01*
X57399677Y37878491D01*
X57399500Y37875018D01*
X57399500Y37125001D01*
X57399678Y37121526D01*
X57400000Y37108857D01*
X57400000Y32149000D01*
X57381046Y32053712D01*
X57327070Y31972930D01*
X57246288Y31918954D01*
X57151000Y31900000D01*
X56025000Y31900000D01*
X56025000Y30750001D01*
X56025001Y30750000D01*
X56200000Y30750000D01*
X56200000Y30250000D01*
X56025001Y30250000D01*
X56025000Y30249999D01*
X56025000Y27115203D01*
X56037500Y27052361D01*
X56037500Y25749000D01*
X56018546Y25653712D01*
X55964570Y25572930D01*
X55883788Y25518954D01*
X55788500Y25500000D01*
X54725002Y25500000D01*
X54725001Y25499999D01*
X54725001Y25075016D01*
X54735494Y24972301D01*
X54735495Y24972298D01*
X54795203Y24792112D01*
X54791797Y24790984D01*
X54808498Y24722738D01*
X54793719Y24626714D01*
X54750000Y24554666D01*
X54750000Y23725001D01*
X54750001Y23725000D01*
X56751000Y23725000D01*
X56846288Y23706046D01*
X56927070Y23652070D01*
X56981046Y23571288D01*
X57000000Y23476000D01*
X57000000Y23000000D01*
X56500000Y23000000D01*
X56500000Y23224999D01*
X56499999Y23225000D01*
X54750001Y23225000D01*
X54750000Y23224999D01*
X54750000Y23000000D01*
X54250000Y23000000D01*
X54250000Y24549999D01*
X54249999Y24550000D01*
X53800024Y24550000D01*
X53697301Y24539506D01*
X53577821Y24499914D01*
X53481408Y24487934D01*
X53387749Y24513762D01*
X53311103Y24573465D01*
X53263138Y24657955D01*
X53250500Y24736276D01*
X53250500Y25598541D01*
X53250499Y25598546D01*
X53212052Y25791831D01*
X53212051Y25791833D01*
X53212051Y25791835D01*
X53136632Y25973914D01*
X53027139Y26137782D01*
X52887782Y26277139D01*
X52723914Y26386632D01*
X52723911Y26386634D01*
X52723908Y26386635D01*
X52541835Y26462051D01*
X52541830Y26462053D01*
X52348545Y26500500D01*
X52348541Y26500500D01*
X52151459Y26500500D01*
X52151454Y26500500D01*
X51958169Y26462053D01*
X51958164Y26462051D01*
X51776091Y26386635D01*
X51776084Y26386631D01*
X51612221Y26277142D01*
X51472858Y26137779D01*
X51363369Y25973916D01*
X51363365Y25973909D01*
X51287949Y25791836D01*
X51287947Y25791831D01*
X51249500Y25598546D01*
X51249500Y24799000D01*
X51230546Y24703712D01*
X51176570Y24622930D01*
X51095788Y24568954D01*
X51000500Y24550000D01*
X50000001Y24550000D01*
X50000000Y24549999D01*
X50000000Y23474000D01*
X49981046Y23378712D01*
X49927070Y23297930D01*
X49846288Y23243954D01*
X49751000Y23225000D01*
X47499000Y23225000D01*
X47403712Y23243954D01*
X47322930Y23297930D01*
X47268954Y23378712D01*
X47250000Y23474000D01*
X47250000Y24549999D01*
X47750000Y24549999D01*
X47750000Y23725001D01*
X47750001Y23725000D01*
X49499999Y23725000D01*
X49500000Y23725001D01*
X49500000Y24549999D01*
X49499999Y24550000D01*
X49150000Y24550000D01*
X48100000Y24550000D01*
X47750001Y24550000D01*
X47750000Y24549999D01*
X47250000Y24549999D01*
X47249999Y24550000D01*
X46800024Y24550000D01*
X46683780Y24538124D01*
X46683571Y24540168D01*
X46604471Y24539019D01*
X46514181Y24574893D01*
X46444493Y24642588D01*
X46406015Y24731799D01*
X46400500Y24783914D01*
X46400500Y27749999D01*
X54700001Y27749999D01*
X54700001Y27300016D01*
X54710494Y27197301D01*
X54710495Y27197298D01*
X54765640Y27030881D01*
X54765641Y27030880D01*
X54801370Y26972954D01*
X54835262Y26881903D01*
X54831730Y26784812D01*
X54801372Y26711519D01*
X54790641Y26694122D01*
X54790640Y26694121D01*
X54735495Y26527702D01*
X54735494Y26527695D01*
X54725000Y26424982D01*
X54725000Y26000001D01*
X54725001Y26000000D01*
X55537499Y26000000D01*
X55537500Y26000001D01*
X55537500Y26609798D01*
X55525000Y26672639D01*
X55525000Y27749999D01*
X55524999Y27750000D01*
X54700002Y27750000D01*
X54700001Y27749999D01*
X46400500Y27749999D01*
X46400500Y28699982D01*
X54700000Y28699982D01*
X54700000Y28250001D01*
X54700001Y28250000D01*
X55524999Y28250000D01*
X55525000Y28250001D01*
X55525000Y30249999D01*
X55524999Y30250000D01*
X54700002Y30250000D01*
X54700001Y30249999D01*
X54700001Y29800016D01*
X54710494Y29697301D01*
X54710495Y29697298D01*
X54765640Y29530881D01*
X54858261Y29380718D01*
X54892152Y29289666D01*
X54888620Y29192575D01*
X54858261Y29119282D01*
X54765640Y28969120D01*
X54710495Y28802702D01*
X54710494Y28802695D01*
X54700000Y28699982D01*
X46400500Y28699982D01*
X46400500Y30164070D01*
X46400499Y30164072D01*
X46390087Y30216414D01*
X46375501Y30289744D01*
X46326465Y30408127D01*
X46320076Y30417689D01*
X46310478Y30432055D01*
X46310472Y30432062D01*
X46255277Y30514669D01*
X45569964Y31199982D01*
X54700000Y31199982D01*
X54700000Y30750001D01*
X54700001Y30750000D01*
X55524999Y30750000D01*
X55525000Y30750001D01*
X55525000Y31900001D01*
X55400024Y31900000D01*
X55297300Y31889506D01*
X55297297Y31889505D01*
X55130880Y31834360D01*
X55130878Y31834359D01*
X54981658Y31742319D01*
X54981654Y31742316D01*
X54857684Y31618346D01*
X54857681Y31618342D01*
X54765641Y31469122D01*
X54765640Y31469121D01*
X54710495Y31302702D01*
X54710494Y31302695D01*
X54700000Y31199982D01*
X45569964Y31199982D01*
X42069945Y34700001D01*
X50844540Y34700001D01*
X50848636Y34661029D01*
X50850000Y34635002D01*
X50850000Y32965000D01*
X50848636Y32938974D01*
X50844540Y32900002D01*
X50844540Y32900001D01*
X50864325Y32711745D01*
X50884864Y32648535D01*
X50922821Y32531716D01*
X51017467Y32367784D01*
X51017469Y32367781D01*
X51126925Y32246219D01*
X51144129Y32227112D01*
X51236500Y32160001D01*
X51297271Y32115848D01*
X51470189Y32038859D01*
X51470192Y32038858D01*
X51470197Y32038856D01*
X51655354Y31999500D01*
X51844645Y31999500D01*
X51844646Y31999500D01*
X52029803Y32038856D01*
X52202730Y32115849D01*
X52321233Y32201946D01*
X52409464Y32242620D01*
X52467591Y32249500D01*
X52964070Y32249500D01*
X52964070Y32249501D01*
X53089744Y32274499D01*
X53208127Y32323535D01*
X53232019Y32339499D01*
X53314669Y32394723D01*
X53521517Y32601573D01*
X53602295Y32655547D01*
X53697578Y32674501D01*
X54899404Y32674501D01*
X54934156Y32677235D01*
X55082887Y32720445D01*
X55216198Y32799285D01*
X55325715Y32908802D01*
X55404555Y33042113D01*
X55447765Y33190844D01*
X55450500Y33225595D01*
X55450499Y33574404D01*
X55447765Y33609156D01*
X55434291Y33655531D01*
X55425907Y33752320D01*
X55434289Y33794462D01*
X55447765Y33840844D01*
X55450500Y33875595D01*
X55450499Y34224404D01*
X55447765Y34259156D01*
X55434291Y34305531D01*
X55425907Y34402320D01*
X55434289Y34444462D01*
X55447765Y34490844D01*
X55450500Y34525595D01*
X55450499Y34874404D01*
X55447765Y34909156D01*
X55434291Y34955531D01*
X55425907Y35052320D01*
X55434289Y35094462D01*
X55447765Y35140844D01*
X55450500Y35175595D01*
X55450499Y35524404D01*
X55447765Y35559156D01*
X55404555Y35707887D01*
X55325715Y35841198D01*
X55216198Y35950715D01*
X55216195Y35950717D01*
X55216194Y35950718D01*
X55122748Y36005982D01*
X55050378Y36070802D01*
X55008323Y36158383D01*
X55000500Y36220306D01*
X55000500Y36465589D01*
X55019454Y36560877D01*
X55037571Y36596307D01*
X55059764Y36632288D01*
X55097314Y36693166D01*
X55152499Y36859703D01*
X55163000Y36962491D01*
X55162999Y38362508D01*
X55152499Y38465297D01*
X55151743Y38467577D01*
X55097314Y38631834D01*
X55082951Y38655121D01*
X55063585Y38686517D01*
X55029694Y38777568D01*
X55033226Y38874659D01*
X55063582Y38947947D01*
X55122314Y39043166D01*
X55177499Y39209703D01*
X55188000Y39312491D01*
X55187999Y40712508D01*
X55177499Y40815297D01*
X55175476Y40821401D01*
X55125639Y40971800D01*
X55113000Y41050123D01*
X55113000Y42036041D01*
X55112999Y42036046D01*
X55074552Y42229331D01*
X55074551Y42229333D01*
X55074551Y42229335D01*
X54999132Y42411414D01*
X54889639Y42575282D01*
X54750282Y42714639D01*
X54740693Y42721046D01*
X54627009Y42797007D01*
X54586414Y42824132D01*
X54586411Y42824134D01*
X54586408Y42824135D01*
X54404335Y42899551D01*
X54404330Y42899553D01*
X54211045Y42938000D01*
X54211041Y42938000D01*
X54013959Y42938000D01*
X54013954Y42938000D01*
X53820669Y42899553D01*
X53820664Y42899551D01*
X53638591Y42824135D01*
X53638584Y42824131D01*
X53474721Y42714642D01*
X53335358Y42575279D01*
X53225869Y42411416D01*
X53225865Y42411409D01*
X53150449Y42229336D01*
X53150447Y42229331D01*
X53112000Y42036046D01*
X53112000Y41649000D01*
X53093046Y41553712D01*
X53039070Y41472930D01*
X52958288Y41418954D01*
X52863000Y41400000D01*
X51672517Y41400000D01*
X51647209Y41401289D01*
X51537479Y41412500D01*
X51412501Y41412500D01*
X51412500Y41412499D01*
X51412500Y38697639D01*
X51393546Y38602351D01*
X51387500Y38593303D01*
X51387500Y36262502D01*
X51427070Y36222932D01*
X51481046Y36142150D01*
X51500000Y36046862D01*
X51500000Y35736115D01*
X51481046Y35640827D01*
X51427070Y35560045D01*
X51352278Y35508643D01*
X51297271Y35484153D01*
X51144126Y35372886D01*
X51017469Y35232220D01*
X50937942Y35094474D01*
X50922821Y35068284D01*
X50917634Y35052320D01*
X50864325Y34888256D01*
X50844540Y34700001D01*
X42069945Y34700001D01*
X41972930Y34797016D01*
X41918954Y34877798D01*
X41900000Y34973086D01*
X41900000Y37412499D01*
X50062501Y37412499D01*
X50062501Y36962516D01*
X50072994Y36859801D01*
X50072995Y36859798D01*
X50128140Y36693381D01*
X50128141Y36693379D01*
X50220181Y36544159D01*
X50220184Y36544155D01*
X50344154Y36420185D01*
X50344158Y36420182D01*
X50493378Y36328142D01*
X50493379Y36328141D01*
X50659798Y36272996D01*
X50659805Y36272995D01*
X50762523Y36262501D01*
X50887500Y36262502D01*
X50887500Y37412499D01*
X50887499Y37412500D01*
X50062502Y37412500D01*
X50062501Y37412499D01*
X41900000Y37412499D01*
X41900000Y38362482D01*
X50062500Y38362482D01*
X50062500Y37912501D01*
X50062501Y37912500D01*
X50887499Y37912500D01*
X50887500Y37912501D01*
X50887500Y38977361D01*
X50906454Y39072649D01*
X50912500Y39081698D01*
X50912500Y39762499D01*
X50912499Y39762500D01*
X50087502Y39762500D01*
X50087501Y39762499D01*
X50087501Y39312516D01*
X50097994Y39209801D01*
X50097995Y39209798D01*
X50153140Y39043381D01*
X50187001Y38988484D01*
X50220892Y38897432D01*
X50217360Y38800342D01*
X50187001Y38727048D01*
X50128140Y38631620D01*
X50072995Y38465202D01*
X50072994Y38465195D01*
X50062500Y38362482D01*
X41900000Y38362482D01*
X41900000Y38685002D01*
X41901364Y38711030D01*
X41905460Y38750001D01*
X41905460Y38750002D01*
X41901364Y38788974D01*
X41900000Y38815000D01*
X41900000Y40712482D01*
X50087500Y40712482D01*
X50087500Y40262501D01*
X50087501Y40262500D01*
X50912499Y40262500D01*
X50912500Y40262501D01*
X50912500Y41412501D01*
X50787524Y41412500D01*
X50684800Y41402006D01*
X50684797Y41402005D01*
X50518380Y41346860D01*
X50518378Y41346859D01*
X50369158Y41254819D01*
X50369154Y41254816D01*
X50245184Y41130846D01*
X50245181Y41130842D01*
X50153141Y40981622D01*
X50153140Y40981621D01*
X50097995Y40815202D01*
X50097994Y40815195D01*
X50087500Y40712482D01*
X41900000Y40712482D01*
X41900000Y40935002D01*
X41901364Y40961030D01*
X41905460Y41000001D01*
X41905460Y41000002D01*
X41901364Y41038974D01*
X41900000Y41065000D01*
X41900000Y43462514D01*
X41912187Y43539459D01*
X41925547Y43580578D01*
X41935674Y43611744D01*
X41955460Y43800000D01*
X41935674Y43988256D01*
X41912186Y44060542D01*
X41900000Y44137487D01*
X41900000Y46435002D01*
X41901364Y46461030D01*
X41905460Y46500001D01*
X41905460Y46500002D01*
X41901364Y46538974D01*
X41900000Y46565000D01*
X41900000Y48001000D01*
X41918954Y48096288D01*
X41972930Y48177070D01*
X42053712Y48231046D01*
X42149000Y48250000D01*
X44201901Y48250000D01*
X44297189Y48231046D01*
X44340235Y48208038D01*
X44372645Y48186383D01*
X44372649Y48186380D01*
X44391870Y48173537D01*
X44391877Y48173533D01*
X44401725Y48169454D01*
X44510256Y48124499D01*
X44635929Y48099501D01*
X44635930Y48099500D01*
X44635931Y48099500D01*
X49114070Y48099500D01*
X49114070Y48099501D01*
X49239744Y48124499D01*
X49358127Y48173535D01*
X49377354Y48186382D01*
X49464669Y48244723D01*
X49473806Y48253860D01*
X64182412Y48253860D01*
X64242617Y48231405D01*
X64242628Y48231402D01*
X64302167Y48225001D01*
X64302175Y48225000D01*
X69197825Y48225000D01*
X69197832Y48225001D01*
X69257376Y48231403D01*
X69257377Y48231403D01*
X69317586Y48253860D01*
X69319944Y48264698D01*
X69298833Y48296294D01*
X69243009Y48329041D01*
X69232409Y48339037D01*
X66749999Y50821447D01*
X64182412Y48253860D01*
X49473806Y48253860D01*
X51317166Y50097222D01*
X51397948Y50151198D01*
X51493236Y50170152D01*
X51536487Y50166367D01*
X51544581Y50164940D01*
X51544592Y50164937D01*
X51544602Y50164937D01*
X51544603Y50164936D01*
X51779994Y50144341D01*
X51780000Y50144341D01*
X51780005Y50144341D01*
X52015401Y50164936D01*
X52015403Y50164937D01*
X52015408Y50164937D01*
X52243663Y50226097D01*
X52457830Y50325965D01*
X52651401Y50461505D01*
X52818495Y50628599D01*
X52846337Y50668363D01*
X52916515Y50735544D01*
X53007064Y50770758D01*
X53104196Y50768639D01*
X53193124Y50729511D01*
X53254273Y50668363D01*
X53281888Y50628925D01*
X53448923Y50461890D01*
X53642423Y50326400D01*
X53856511Y50226569D01*
X54070000Y50169365D01*
X54070000Y51066988D01*
X54127007Y51034075D01*
X54254174Y51000000D01*
X54385826Y51000000D01*
X54512993Y51034075D01*
X54570000Y51066988D01*
X54570000Y50169365D01*
X54783488Y50226569D01*
X54997576Y50326400D01*
X55191076Y50461890D01*
X55358110Y50628924D01*
X55493600Y50822424D01*
X55593433Y51036515D01*
X55593433Y51036517D01*
X55650636Y51249999D01*
X55650636Y51250000D01*
X54753012Y51250000D01*
X54785925Y51307007D01*
X54820000Y51434174D01*
X54820000Y51565826D01*
X54785925Y51692993D01*
X54753012Y51750000D01*
X55650636Y51750000D01*
X55650636Y51750002D01*
X55593433Y51963484D01*
X55593429Y51963495D01*
X55493603Y52177572D01*
X55493599Y52177580D01*
X55358110Y52371077D01*
X55191072Y52538115D01*
X55178336Y52547033D01*
X55111152Y52617214D01*
X55075940Y52707764D01*
X55078061Y52804896D01*
X55117191Y52893822D01*
X55187372Y52961006D01*
X55277922Y52996218D01*
X55321158Y53000000D01*
X63601000Y53000000D01*
X63696288Y52981046D01*
G37*
%TD.AperFunction*%
%TA.AperFunction,Conductor*%
G36*
X75345287Y51406460D02*
G01*
X75426069Y51352484D01*
X78156073Y48622481D01*
X78182378Y48626263D01*
X78276515Y48602236D01*
X78354292Y48544014D01*
X78377880Y48513235D01*
X78502124Y48321915D01*
X78713084Y48061402D01*
X78746219Y48020484D01*
X79020484Y47746219D01*
X79020489Y47746215D01*
X79020490Y47746214D01*
X79321914Y47502125D01*
X79421140Y47437687D01*
X79647211Y47290875D01*
X79992806Y47114786D01*
X80354913Y46975786D01*
X80729567Y46875398D01*
X81112662Y46814722D01*
X81500000Y46794422D01*
X81599926Y46799659D01*
X81612957Y46800000D01*
X83751000Y46800000D01*
X83846288Y46781046D01*
X83927070Y46727070D01*
X83981046Y46646288D01*
X84000000Y46551000D01*
X84000000Y26250959D01*
X83981046Y26155671D01*
X83927070Y26074889D01*
X83846288Y26020913D01*
X83751000Y26001959D01*
X83655712Y26020913D01*
X83612663Y26043923D01*
X83491065Y26125172D01*
X83473914Y26136632D01*
X83473911Y26136634D01*
X83473908Y26136635D01*
X83291835Y26212051D01*
X83291830Y26212053D01*
X83098545Y26250500D01*
X83098541Y26250500D01*
X82901459Y26250500D01*
X82901454Y26250500D01*
X82708169Y26212053D01*
X82708164Y26212051D01*
X82526091Y26136635D01*
X82526084Y26136631D01*
X82362221Y26027142D01*
X82222858Y25887779D01*
X82113369Y25723916D01*
X82113365Y25723909D01*
X82037949Y25541836D01*
X82037947Y25541831D01*
X81999500Y25348546D01*
X81999500Y24685404D01*
X81980546Y24590116D01*
X81926570Y24509334D01*
X81881220Y24473477D01*
X81819002Y24435100D01*
X81817395Y24437704D01*
X81752419Y24404491D01*
X81655573Y24396743D01*
X81563135Y24426647D01*
X81553804Y24432126D01*
X81469118Y24484360D01*
X81469120Y24484360D01*
X81302701Y24539505D01*
X81302694Y24539506D01*
X81199981Y24550000D01*
X80750001Y24550000D01*
X80750000Y24549999D01*
X80750000Y23200000D01*
X80250000Y23200000D01*
X80250000Y23224999D01*
X80249999Y23225000D01*
X78250001Y23225000D01*
X78250000Y23224999D01*
X78250000Y23200000D01*
X77750000Y23200000D01*
X77750000Y24549999D01*
X78250000Y24549999D01*
X78250000Y23725001D01*
X78250001Y23725000D01*
X80249999Y23725000D01*
X80250000Y23725001D01*
X80250000Y24549999D01*
X80249999Y24550000D01*
X79800024Y24550000D01*
X79697300Y24539506D01*
X79697297Y24539505D01*
X79530880Y24484360D01*
X79380718Y24391739D01*
X79289666Y24357848D01*
X79192575Y24361380D01*
X79119282Y24391739D01*
X78969118Y24484360D01*
X78969120Y24484360D01*
X78802701Y24539505D01*
X78802694Y24539506D01*
X78699981Y24550000D01*
X78250001Y24550000D01*
X78250000Y24549999D01*
X77750000Y24549999D01*
X77749999Y24550000D01*
X77300024Y24550000D01*
X77197300Y24539506D01*
X77197297Y24539505D01*
X77030880Y24484360D01*
X77030878Y24484359D01*
X76881654Y24392317D01*
X76874723Y24386836D01*
X76788220Y24342605D01*
X76691375Y24334845D01*
X76598933Y24364736D01*
X76589572Y24370231D01*
X76559447Y24388812D01*
X76444334Y24459814D01*
X76444332Y24459815D01*
X76444330Y24459816D01*
X76444332Y24459816D01*
X76277802Y24514998D01*
X76277798Y24514999D01*
X76277797Y24514999D01*
X76226403Y24520250D01*
X76175011Y24525500D01*
X76175009Y24525500D01*
X75997586Y24525500D01*
X75902298Y24544454D01*
X75821516Y24598430D01*
X74314669Y26105277D01*
X74208127Y26176466D01*
X74112857Y26215927D01*
X74089744Y26225501D01*
X74089742Y26225502D01*
X74089741Y26225502D01*
X73964071Y26250500D01*
X73964069Y26250500D01*
X71009992Y26250500D01*
X70914704Y26269454D01*
X70833922Y26323430D01*
X70779946Y26404212D01*
X70760992Y26499500D01*
X70779946Y26594788D01*
X70795669Y26626255D01*
X70804280Y26640816D01*
X70847278Y26788819D01*
X70847278Y26788820D01*
X70849999Y26823396D01*
X70850000Y26823403D01*
X70850000Y28246597D01*
X70849999Y28246605D01*
X70847278Y28281181D01*
X70847278Y28281182D01*
X70804279Y28429189D01*
X70747616Y28524999D01*
X72100001Y28524999D01*
X72100001Y28400016D01*
X72110494Y28297301D01*
X72110495Y28297298D01*
X72165640Y28130881D01*
X72165641Y28130879D01*
X72257681Y27981659D01*
X72257684Y27981655D01*
X72381654Y27857685D01*
X72381658Y27857682D01*
X72530878Y27765642D01*
X72530879Y27765641D01*
X72697298Y27710496D01*
X72697305Y27710495D01*
X72800023Y27700001D01*
X73250000Y27700001D01*
X73250000Y28524999D01*
X73750000Y28524999D01*
X73750000Y27700002D01*
X73750001Y27700001D01*
X74199968Y27700001D01*
X74199984Y27700002D01*
X74302699Y27710495D01*
X74302702Y27710496D01*
X74469119Y27765641D01*
X74494278Y27781159D01*
X74585329Y27815052D01*
X74682420Y27811522D01*
X74755722Y27781159D01*
X74780880Y27765641D01*
X74780879Y27765641D01*
X74947298Y27710496D01*
X74947305Y27710495D01*
X75050023Y27700001D01*
X75500000Y27700001D01*
X75500000Y28524999D01*
X75499999Y28525000D01*
X73750001Y28525000D01*
X73750000Y28524999D01*
X73250000Y28524999D01*
X73249999Y28525000D01*
X72100002Y28525000D01*
X72100001Y28524999D01*
X70747616Y28524999D01*
X70725827Y28561841D01*
X70725827Y28561842D01*
X70616841Y28670828D01*
X70484188Y28749280D01*
X70336180Y28792279D01*
X70301604Y28795000D01*
X69958395Y28795000D01*
X69923819Y28792279D01*
X69923817Y28792279D01*
X69880359Y28779653D01*
X69783566Y28771272D01*
X69741426Y28779655D01*
X69696262Y28792777D01*
X69696263Y28792777D01*
X69661659Y28795500D01*
X69661650Y28795500D01*
X69318350Y28795500D01*
X69318341Y28795500D01*
X69283739Y28792777D01*
X69239464Y28779914D01*
X69142671Y28771533D01*
X69100536Y28779914D01*
X69068613Y28789188D01*
X69056262Y28792776D01*
X69056261Y28792777D01*
X69021658Y28795500D01*
X69021650Y28795500D01*
X68678350Y28795500D01*
X68678340Y28795500D01*
X68643738Y28792777D01*
X68598570Y28779654D01*
X68501777Y28771272D01*
X68459636Y28779654D01*
X68416180Y28792279D01*
X68416184Y28792279D01*
X68381604Y28795000D01*
X68038395Y28795000D01*
X68003819Y28792279D01*
X68003817Y28792279D01*
X67960359Y28779653D01*
X67863566Y28771272D01*
X67821426Y28779655D01*
X67776262Y28792777D01*
X67776263Y28792777D01*
X67741659Y28795500D01*
X67741650Y28795500D01*
X67398350Y28795500D01*
X67398341Y28795500D01*
X67363739Y28792777D01*
X67319464Y28779914D01*
X67222671Y28771533D01*
X67180536Y28779914D01*
X67148613Y28789188D01*
X67136262Y28792776D01*
X67136261Y28792777D01*
X67101658Y28795500D01*
X67101650Y28795500D01*
X66758350Y28795500D01*
X66758341Y28795500D01*
X66723739Y28792777D01*
X66679464Y28779914D01*
X66582671Y28771533D01*
X66540536Y28779914D01*
X66508613Y28789188D01*
X66496262Y28792776D01*
X66496261Y28792777D01*
X66461658Y28795500D01*
X66461650Y28795500D01*
X66118350Y28795500D01*
X66118341Y28795500D01*
X66083739Y28792777D01*
X66039464Y28779914D01*
X65942671Y28771533D01*
X65900536Y28779914D01*
X65868613Y28789188D01*
X65856262Y28792776D01*
X65856261Y28792777D01*
X65821658Y28795500D01*
X65821650Y28795500D01*
X65478350Y28795500D01*
X65478341Y28795500D01*
X65443739Y28792777D01*
X65399464Y28779914D01*
X65302671Y28771533D01*
X65260536Y28779914D01*
X65228613Y28789188D01*
X65216262Y28792776D01*
X65216261Y28792777D01*
X65181658Y28795500D01*
X65181650Y28795500D01*
X64838350Y28795500D01*
X64838341Y28795500D01*
X64803739Y28792777D01*
X64759464Y28779914D01*
X64662671Y28771533D01*
X64620536Y28779914D01*
X64588613Y28789188D01*
X64576262Y28792776D01*
X64576261Y28792777D01*
X64541658Y28795500D01*
X64541650Y28795500D01*
X64198350Y28795500D01*
X64198340Y28795500D01*
X64163736Y28792777D01*
X64163734Y28792776D01*
X64015620Y28749745D01*
X64015616Y28749743D01*
X63882848Y28671225D01*
X63773775Y28562152D01*
X63695257Y28429384D01*
X63695255Y28429380D01*
X63652224Y28281266D01*
X63652223Y28281264D01*
X63649500Y28246660D01*
X63649500Y27374500D01*
X63630546Y27279212D01*
X63576570Y27198430D01*
X63495788Y27144454D01*
X63400500Y27125500D01*
X61897586Y27125500D01*
X61802298Y27144454D01*
X61721516Y27198430D01*
X60973430Y27946516D01*
X60919454Y28027298D01*
X60900500Y28122586D01*
X60900500Y28814070D01*
X60882925Y28902421D01*
X60882924Y28999576D01*
X60920103Y29089336D01*
X60988801Y29158036D01*
X61078560Y29195216D01*
X61127140Y29200001D01*
X61250000Y29200001D01*
X61250000Y30024999D01*
X61750000Y30024999D01*
X61750000Y29200002D01*
X61750001Y29200001D01*
X62199968Y29200001D01*
X62199984Y29200002D01*
X62302699Y29210495D01*
X62302702Y29210496D01*
X62469119Y29265641D01*
X62469121Y29265642D01*
X62618341Y29357682D01*
X62618345Y29357685D01*
X62742315Y29481655D01*
X62742318Y29481659D01*
X62834358Y29630879D01*
X62834359Y29630880D01*
X62889504Y29797299D01*
X62889505Y29797306D01*
X62899999Y29900019D01*
X62900000Y29900029D01*
X62900000Y30024999D01*
X62899999Y30025000D01*
X61750001Y30025000D01*
X61750000Y30024999D01*
X61250000Y30024999D01*
X61250000Y30663637D01*
X61750000Y30686364D01*
X61750000Y30525001D01*
X61750001Y30525000D01*
X62899998Y30525000D01*
X62900000Y30525002D01*
X62900000Y31451000D01*
X62918954Y31546288D01*
X62972930Y31627070D01*
X63053712Y31681046D01*
X63149000Y31700000D01*
X64435016Y31700000D01*
X64457639Y31704500D01*
X64541649Y31704500D01*
X64541650Y31704500D01*
X64576262Y31707224D01*
X64621425Y31720346D01*
X64718217Y31728730D01*
X64760365Y31720346D01*
X64803812Y31707724D01*
X64803820Y31707722D01*
X64838395Y31705001D01*
X64838403Y31705000D01*
X65181597Y31705000D01*
X65181606Y31705001D01*
X65216172Y31707721D01*
X65216183Y31707723D01*
X65259630Y31720346D01*
X65356423Y31728731D01*
X65398566Y31720348D01*
X65443738Y31707224D01*
X65478350Y31704500D01*
X65478351Y31704500D01*
X65821649Y31704500D01*
X65821650Y31704500D01*
X65856262Y31707224D01*
X65900530Y31720086D01*
X65997320Y31728470D01*
X66039464Y31720087D01*
X66083738Y31707224D01*
X66083736Y31707224D01*
X66098441Y31706067D01*
X66118350Y31704500D01*
X66118351Y31704500D01*
X66461649Y31704500D01*
X66461650Y31704500D01*
X66496262Y31707224D01*
X66541425Y31720346D01*
X66638217Y31728730D01*
X66680365Y31720346D01*
X66723812Y31707724D01*
X66723820Y31707722D01*
X66758395Y31705001D01*
X66758403Y31705000D01*
X67101597Y31705000D01*
X67101606Y31705001D01*
X67136172Y31707721D01*
X67136183Y31707723D01*
X67179630Y31720346D01*
X67276423Y31728731D01*
X67318566Y31720348D01*
X67363738Y31707224D01*
X67398350Y31704500D01*
X67398351Y31704500D01*
X67741649Y31704500D01*
X67741650Y31704500D01*
X67776262Y31707224D01*
X67820530Y31720086D01*
X67917320Y31728470D01*
X67964270Y31718639D01*
X67964302Y31718629D01*
X68049600Y31672115D01*
X68110604Y31596501D01*
X68134247Y31529544D01*
X68141216Y31494511D01*
X68141216Y31494508D01*
X68152380Y31438382D01*
X68152380Y31438381D01*
X68207069Y31306349D01*
X68286467Y31187521D01*
X68578516Y30895472D01*
X68609482Y30857739D01*
X68648211Y30799776D01*
X68667049Y30771584D01*
X68771584Y30667049D01*
X68894505Y30584916D01*
X69031087Y30528342D01*
X69176080Y30499501D01*
X69176081Y30499500D01*
X71851000Y30499500D01*
X71946288Y30480546D01*
X72027070Y30426570D01*
X72081046Y30345788D01*
X72100000Y30250500D01*
X72100000Y29025001D01*
X72100001Y29025000D01*
X73249999Y29025000D01*
X73250000Y29025001D01*
X73250000Y29138889D01*
X73300000Y29100000D01*
X73750000Y29100000D01*
X73750000Y29025001D01*
X73750001Y29025000D01*
X75499999Y29025000D01*
X75500000Y29025001D01*
X75500000Y29100000D01*
X76000000Y29100000D01*
X76000000Y27700002D01*
X76000001Y27700001D01*
X76449968Y27700001D01*
X76449984Y27700002D01*
X76552699Y27710495D01*
X76719121Y27765643D01*
X76722876Y27767393D01*
X76728723Y27768825D01*
X76732888Y27770204D01*
X76732998Y27769871D01*
X76817246Y27790488D01*
X76913271Y27775710D01*
X76958829Y27753655D01*
X76980666Y27740186D01*
X76980669Y27740185D01*
X76980667Y27740185D01*
X77141590Y27686861D01*
X77147203Y27685001D01*
X77249991Y27674500D01*
X78750008Y27674501D01*
X78852797Y27685001D01*
X78852908Y27685038D01*
X78858411Y27686861D01*
X78936734Y27699500D01*
X79798541Y27699500D01*
X79953266Y27730277D01*
X79991836Y27737949D01*
X80051404Y27762623D01*
X80173914Y27813368D01*
X80337782Y27922861D01*
X80477139Y28062218D01*
X80477140Y28062221D01*
X80491332Y28076412D01*
X80491334Y28076416D01*
X81277139Y28862219D01*
X81386631Y29026086D01*
X81462051Y29208164D01*
X81500500Y29401460D01*
X81500500Y29598540D01*
X81462051Y29791836D01*
X81386631Y29973914D01*
X81277139Y30137781D01*
X81137781Y30277139D01*
X81118919Y30289742D01*
X80973914Y30386631D01*
X80973912Y30386632D01*
X80791836Y30462051D01*
X80598540Y30500500D01*
X80401460Y30500500D01*
X80394335Y30500500D01*
X80384151Y30500000D01*
X79699000Y30500000D01*
X79603712Y30518954D01*
X79522930Y30572930D01*
X79468954Y30653712D01*
X79450000Y30749000D01*
X79450000Y31508837D01*
X79450322Y31521505D01*
X79450497Y31524964D01*
X79450500Y31524991D01*
X79450499Y32175008D01*
X79439999Y32277797D01*
X79439433Y32279504D01*
X79384814Y32444333D01*
X79384814Y32444334D01*
X79292712Y32593656D01*
X79168656Y32717712D01*
X79140927Y32734815D01*
X79120843Y32747203D01*
X79019334Y32809814D01*
X79019332Y32809815D01*
X79019330Y32809816D01*
X79019332Y32809816D01*
X78852802Y32864998D01*
X78852798Y32864999D01*
X78852797Y32864999D01*
X78750009Y32875500D01*
X78750005Y32875500D01*
X77249993Y32875500D01*
X77147199Y32864999D01*
X76980665Y32809815D01*
X76980664Y32809814D01*
X76909058Y32765647D01*
X76818006Y32731756D01*
X76720915Y32735288D01*
X76700019Y32741215D01*
X76552802Y32789998D01*
X76552798Y32789999D01*
X76552797Y32789999D01*
X76450009Y32800500D01*
X76450005Y32800500D01*
X75049991Y32800500D01*
X74974302Y32792768D01*
X74877581Y32801941D01*
X74791733Y32847430D01*
X74729827Y32922308D01*
X74701289Y33015177D01*
X74700000Y33040479D01*
X74700000Y33721862D01*
X74718954Y33817150D01*
X74725000Y33826199D01*
X74725000Y34999999D01*
X75225000Y34999999D01*
X75225000Y33850002D01*
X75225001Y33850001D01*
X75349968Y33850001D01*
X75349984Y33850002D01*
X75452699Y33860495D01*
X75452702Y33860496D01*
X75619119Y33915641D01*
X75619121Y33915642D01*
X75768341Y34007682D01*
X75768345Y34007685D01*
X75892315Y34131655D01*
X75892318Y34131659D01*
X75984358Y34280879D01*
X75984359Y34280880D01*
X76039504Y34447299D01*
X76039505Y34447306D01*
X76049999Y34550019D01*
X76050000Y34550029D01*
X76050000Y34999999D01*
X76049999Y35000000D01*
X75225001Y35000000D01*
X75225000Y34999999D01*
X74725000Y34999999D01*
X74724999Y35000000D01*
X74495652Y35000000D01*
X74473913Y35500000D01*
X74724999Y35500000D01*
X74725000Y35500001D01*
X74725000Y36649999D01*
X75225000Y36649999D01*
X75225000Y35500001D01*
X75225001Y35500000D01*
X76049998Y35500000D01*
X76049999Y35500001D01*
X76049999Y35949968D01*
X76049998Y35949985D01*
X76039505Y36052700D01*
X76039504Y36052703D01*
X75984359Y36219120D01*
X75984358Y36219122D01*
X75892318Y36368342D01*
X75892315Y36368346D01*
X75768345Y36492316D01*
X75768341Y36492319D01*
X75619121Y36584359D01*
X75619120Y36584360D01*
X75452701Y36639505D01*
X75452694Y36639506D01*
X75349981Y36650000D01*
X75225001Y36650000D01*
X75225000Y36649999D01*
X74725000Y36649999D01*
X74725000Y36673803D01*
X74718954Y36682851D01*
X74700000Y36778139D01*
X74700000Y37425332D01*
X74718954Y37520620D01*
X74749665Y37574552D01*
X74800664Y37642679D01*
X74872941Y37707602D01*
X74964562Y37739924D01*
X75061578Y37734725D01*
X75149219Y37692794D01*
X75199332Y37642681D01*
X75292806Y37517817D01*
X75292812Y37517811D01*
X75407912Y37431647D01*
X75542621Y37381404D01*
X75542628Y37381402D01*
X75602167Y37375001D01*
X75602175Y37375000D01*
X75699999Y37375000D01*
X75700000Y37375001D01*
X75700000Y38049999D01*
X76200000Y38049999D01*
X76200000Y37375001D01*
X76200001Y37375000D01*
X76297825Y37375000D01*
X76297832Y37375001D01*
X76357371Y37381402D01*
X76357378Y37381404D01*
X76492087Y37431647D01*
X76607187Y37517811D01*
X76607189Y37517813D01*
X76693353Y37632913D01*
X76743596Y37767622D01*
X76743598Y37767629D01*
X76749999Y37827168D01*
X76750000Y37827175D01*
X76750000Y38049999D01*
X76749999Y38050000D01*
X76200001Y38050000D01*
X76200000Y38049999D01*
X75700000Y38049999D01*
X75700000Y39224999D01*
X76200000Y39224999D01*
X76200000Y38550001D01*
X76200001Y38550000D01*
X76749999Y38550000D01*
X76750000Y38550001D01*
X76750000Y38772825D01*
X76749999Y38772833D01*
X76743598Y38832372D01*
X76743596Y38832379D01*
X76693353Y38967088D01*
X76607189Y39082188D01*
X76607187Y39082190D01*
X76492087Y39168354D01*
X76357378Y39218597D01*
X76357371Y39218599D01*
X76297832Y39225000D01*
X76200001Y39225000D01*
X76200000Y39224999D01*
X75700000Y39224999D01*
X75699999Y39225000D01*
X75602167Y39225000D01*
X75542626Y39218599D01*
X75534853Y39215699D01*
X75447837Y39200000D01*
X74552163Y39200000D01*
X74465147Y39215699D01*
X74457373Y39218599D01*
X74397832Y39225000D01*
X74300001Y39225000D01*
X74300000Y39224999D01*
X74300000Y38299000D01*
X74281046Y38203712D01*
X74227070Y38122930D01*
X74146288Y38068954D01*
X74051000Y38050000D01*
X74049000Y38050000D01*
X73953712Y38068954D01*
X73872930Y38122930D01*
X73818954Y38203712D01*
X73800000Y38299000D01*
X73800000Y39224999D01*
X73799999Y39225000D01*
X73702167Y39225000D01*
X73642628Y39218599D01*
X73642621Y39218597D01*
X73507912Y39168354D01*
X73392812Y39082190D01*
X73392810Y39082188D01*
X73306646Y38967088D01*
X73256403Y38832379D01*
X73256402Y38832378D01*
X73255329Y38822387D01*
X73226299Y38729670D01*
X73163998Y38655121D01*
X73077910Y38610087D01*
X73007755Y38600000D01*
X72716164Y38600000D01*
X72703497Y38600322D01*
X72700014Y38600500D01*
X72700009Y38600500D01*
X72700003Y38600500D01*
X71999000Y38600500D01*
X71903712Y38619454D01*
X71822930Y38673430D01*
X71768954Y38754212D01*
X71750000Y38849500D01*
X71750000Y40224999D01*
X72250000Y40224999D01*
X72250000Y39400002D01*
X72250001Y39400001D01*
X72699968Y39400001D01*
X72699984Y39400002D01*
X72802699Y39410495D01*
X72802702Y39410496D01*
X72969119Y39465641D01*
X72969121Y39465642D01*
X73118341Y39557682D01*
X73118345Y39557685D01*
X73242315Y39681655D01*
X73242318Y39681659D01*
X73334358Y39830879D01*
X73334359Y39830880D01*
X73389504Y39997299D01*
X73389505Y39997306D01*
X73399999Y40100019D01*
X73400000Y40100029D01*
X73400000Y40224999D01*
X73399999Y40225000D01*
X72250001Y40225000D01*
X72250000Y40224999D01*
X71750000Y40224999D01*
X71750000Y40476000D01*
X71768954Y40571288D01*
X71822930Y40652070D01*
X71903712Y40706046D01*
X71999000Y40725000D01*
X73423801Y40725000D01*
X73432850Y40731046D01*
X73528138Y40750000D01*
X73950500Y40750000D01*
X74045788Y40731046D01*
X74126570Y40677070D01*
X74180546Y40596288D01*
X74199500Y40501001D01*
X74199500Y40227135D01*
X74199500Y40227132D01*
X74199501Y40227128D01*
X74201567Y40207907D01*
X74205908Y40167520D01*
X74205909Y40167516D01*
X74256203Y40032671D01*
X74256204Y40032669D01*
X74342454Y39917454D01*
X74457669Y39831204D01*
X74592517Y39780909D01*
X74652127Y39774500D01*
X75347872Y39774501D01*
X75407483Y39780909D01*
X75542331Y39831204D01*
X75657546Y39917454D01*
X75743796Y40032669D01*
X75794091Y40167517D01*
X75800500Y40227127D01*
X75800499Y41172872D01*
X75794091Y41232483D01*
X75743796Y41367331D01*
X75743795Y41367333D01*
X75700166Y41425614D01*
X75658235Y41513255D01*
X75650500Y41574835D01*
X75650500Y41700250D01*
X75669454Y41795538D01*
X75723430Y41876320D01*
X75750279Y41899584D01*
X75781465Y41922930D01*
X75807546Y41942454D01*
X75893796Y42057669D01*
X75944091Y42192517D01*
X75950500Y42252127D01*
X75950499Y42629002D01*
X75969453Y42724288D01*
X76023429Y42805069D01*
X76104210Y42859046D01*
X76199498Y42878000D01*
X78749994Y42878000D01*
X78750000Y42878000D01*
X78821940Y42883145D01*
X78959992Y42923681D01*
X79081032Y43001469D01*
X79175254Y43110206D01*
X79235024Y43241084D01*
X79255500Y43383500D01*
X79255500Y45116500D01*
X79250355Y45188440D01*
X79209819Y45326492D01*
X79132031Y45447532D01*
X79129905Y45449374D01*
X79023293Y45541755D01*
X79023291Y45541756D01*
X78892418Y45601524D01*
X78851725Y45607375D01*
X78750000Y45622000D01*
X78749995Y45622000D01*
X76199500Y45622000D01*
X76104212Y45640954D01*
X76023430Y45694930D01*
X75969454Y45775712D01*
X75950500Y45870999D01*
X75950499Y46247866D01*
X75950499Y46247872D01*
X75944091Y46307483D01*
X75893796Y46442331D01*
X75807546Y46557546D01*
X75692331Y46643796D01*
X75612117Y46673714D01*
X75557481Y46694092D01*
X75497873Y46700500D01*
X74102134Y46700500D01*
X74102130Y46700500D01*
X74102128Y46700499D01*
X74089314Y46699122D01*
X74042519Y46694092D01*
X74042515Y46694091D01*
X73907670Y46643797D01*
X73792455Y46557547D01*
X73779862Y46544953D01*
X73777353Y46547462D01*
X73728086Y46503228D01*
X73636457Y46470928D01*
X73539443Y46476151D01*
X73521045Y46481615D01*
X73345354Y46541251D01*
X73315263Y46553715D01*
X73119519Y46650241D01*
X73091312Y46666525D01*
X72956417Y46756655D01*
X72909824Y46787786D01*
X72883997Y46807604D01*
X72714145Y46956554D01*
X72702264Y46967682D01*
X72181922Y47488029D01*
X72170781Y47499924D01*
X72032136Y47658024D01*
X72012309Y47683864D01*
X71900019Y47851923D01*
X71883738Y47880125D01*
X71794346Y48061402D01*
X71781882Y48091494D01*
X71779164Y48099500D01*
X71723091Y48264697D01*
X72680054Y48264697D01*
X72682411Y48253860D01*
X72742617Y48231405D01*
X72742628Y48231402D01*
X72802167Y48225001D01*
X72802175Y48225000D01*
X77697825Y48225000D01*
X77697832Y48225001D01*
X77757376Y48231403D01*
X77757377Y48231403D01*
X77817586Y48253860D01*
X75249999Y50821447D01*
X72758520Y48329968D01*
X72695555Y48287898D01*
X72680054Y48264697D01*
X71723091Y48264697D01*
X71716918Y48282883D01*
X71708488Y48314347D01*
X71708259Y48315496D01*
X71703578Y48339037D01*
X71700914Y48352430D01*
X71700917Y48449585D01*
X71738099Y48539343D01*
X71806800Y48608040D01*
X71896561Y48645217D01*
X71945131Y48650000D01*
X72264670Y48650000D01*
X72347510Y48635816D01*
X72365640Y48629420D01*
X72366944Y48633289D01*
X72406800Y48685356D01*
X75073929Y51352484D01*
X75154711Y51406460D01*
X75249999Y51425414D01*
X75345287Y51406460D01*
G37*
%TD.AperFunction*%
%TA.AperFunction,Conductor*%
G36*
X28596288Y51531046D02*
G01*
X28677070Y51477070D01*
X28731046Y51396288D01*
X28750000Y51301000D01*
X28750000Y49050001D01*
X28750001Y49050000D01*
X28751000Y49050000D01*
X28846288Y49031046D01*
X28927070Y48977070D01*
X28981046Y48896288D01*
X29000000Y48801000D01*
X29000000Y48399500D01*
X28981046Y48304212D01*
X28927070Y48223430D01*
X28846288Y48169454D01*
X28751000Y48150500D01*
X28249000Y48150500D01*
X28153712Y48169454D01*
X28072930Y48223430D01*
X28018954Y48304212D01*
X28000000Y48399500D01*
X28000000Y48801000D01*
X28018954Y48896288D01*
X28072930Y48977070D01*
X28153712Y49031046D01*
X28249000Y49050000D01*
X28249999Y49050000D01*
X28250000Y49050001D01*
X28250000Y51301000D01*
X28268954Y51396288D01*
X28322930Y51477070D01*
X28403712Y51531046D01*
X28499000Y51550000D01*
X28501000Y51550000D01*
X28596288Y51531046D01*
G37*
%TD.AperFunction*%
%TD*%
M02*
