%TF.GenerationSoftware,KiCad,Pcbnew,7.0.10*%
%TF.CreationDate,2024-02-19T11:00:08+07:00*%
%TF.ProjectId,PMODP2PSRAM,504d4f44-5032-4505-9352-414d2e6b6963,rev?*%
%TF.SameCoordinates,PX8c6db50PY50d2eb0*%
%TF.FileFunction,Legend,Top*%
%TF.FilePolarity,Positive*%
%FSLAX46Y46*%
G04 Gerber Fmt 4.6, Leading zero omitted, Abs format (unit mm)*
G04 Created by KiCad (PCBNEW 7.0.10) date 2024-02-19 11:00:08*
%MOMM*%
%LPD*%
G01*
G04 APERTURE LIST*
%ADD10C,0.150000*%
%ADD11C,0.200000*%
%ADD12C,0.120000*%
G04 APERTURE END LIST*
D10*
X11773810Y13095181D02*
X11773810Y14095181D01*
X12821428Y13190420D02*
X12773809Y13142800D01*
X12773809Y13142800D02*
X12630952Y13095181D01*
X12630952Y13095181D02*
X12535714Y13095181D01*
X12535714Y13095181D02*
X12392857Y13142800D01*
X12392857Y13142800D02*
X12297619Y13238039D01*
X12297619Y13238039D02*
X12250000Y13333277D01*
X12250000Y13333277D02*
X12202381Y13523753D01*
X12202381Y13523753D02*
X12202381Y13666610D01*
X12202381Y13666610D02*
X12250000Y13857086D01*
X12250000Y13857086D02*
X12297619Y13952324D01*
X12297619Y13952324D02*
X12392857Y14047562D01*
X12392857Y14047562D02*
X12535714Y14095181D01*
X12535714Y14095181D02*
X12630952Y14095181D01*
X12630952Y14095181D02*
X12773809Y14047562D01*
X12773809Y14047562D02*
X12821428Y13999943D01*
X13773809Y13095181D02*
X13202381Y13095181D01*
X13488095Y13095181D02*
X13488095Y14095181D01*
X13488095Y14095181D02*
X13392857Y13952324D01*
X13392857Y13952324D02*
X13297619Y13857086D01*
X13297619Y13857086D02*
X13202381Y13809467D01*
X9183333Y5490420D02*
X9135714Y5442800D01*
X9135714Y5442800D02*
X8992857Y5395181D01*
X8992857Y5395181D02*
X8897619Y5395181D01*
X8897619Y5395181D02*
X8754762Y5442800D01*
X8754762Y5442800D02*
X8659524Y5538039D01*
X8659524Y5538039D02*
X8611905Y5633277D01*
X8611905Y5633277D02*
X8564286Y5823753D01*
X8564286Y5823753D02*
X8564286Y5966610D01*
X8564286Y5966610D02*
X8611905Y6157086D01*
X8611905Y6157086D02*
X8659524Y6252324D01*
X8659524Y6252324D02*
X8754762Y6347562D01*
X8754762Y6347562D02*
X8897619Y6395181D01*
X8897619Y6395181D02*
X8992857Y6395181D01*
X8992857Y6395181D02*
X9135714Y6347562D01*
X9135714Y6347562D02*
X9183333Y6299943D01*
X10135714Y5395181D02*
X9564286Y5395181D01*
X9850000Y5395181D02*
X9850000Y6395181D01*
X9850000Y6395181D02*
X9754762Y6252324D01*
X9754762Y6252324D02*
X9659524Y6157086D01*
X9659524Y6157086D02*
X9564286Y6109467D01*
X9333333Y3045181D02*
X9000000Y3521372D01*
X8761905Y3045181D02*
X8761905Y4045181D01*
X8761905Y4045181D02*
X9142857Y4045181D01*
X9142857Y4045181D02*
X9238095Y3997562D01*
X9238095Y3997562D02*
X9285714Y3949943D01*
X9285714Y3949943D02*
X9333333Y3854705D01*
X9333333Y3854705D02*
X9333333Y3711848D01*
X9333333Y3711848D02*
X9285714Y3616610D01*
X9285714Y3616610D02*
X9238095Y3568991D01*
X9238095Y3568991D02*
X9142857Y3521372D01*
X9142857Y3521372D02*
X8761905Y3521372D01*
X10285714Y3045181D02*
X9714286Y3045181D01*
X10000000Y3045181D02*
X10000000Y4045181D01*
X10000000Y4045181D02*
X9904762Y3902324D01*
X9904762Y3902324D02*
X9809524Y3807086D01*
X9809524Y3807086D02*
X9714286Y3759467D01*
X9216666Y1695181D02*
X9216666Y980896D01*
X9216666Y980896D02*
X9169047Y838039D01*
X9169047Y838039D02*
X9073809Y742800D01*
X9073809Y742800D02*
X8930952Y695181D01*
X8930952Y695181D02*
X8835714Y695181D01*
X10216666Y695181D02*
X9645238Y695181D01*
X9930952Y695181D02*
X9930952Y1695181D01*
X9930952Y1695181D02*
X9835714Y1552324D01*
X9835714Y1552324D02*
X9740476Y1457086D01*
X9740476Y1457086D02*
X9645238Y1409467D01*
D11*
%TO.C,IC1*%
X16200000Y7420000D02*
X14700000Y7420000D01*
X14350000Y12450000D02*
X14350000Y7550000D01*
X11150000Y12450000D02*
X14350000Y12450000D01*
X11150000Y7550000D02*
X11150000Y12450000D01*
X14350000Y7550000D02*
X11150000Y7550000D01*
D12*
%TO.C,C1*%
X12038748Y6910000D02*
X13461252Y6910000D01*
X12038748Y5090000D02*
X13461252Y5090000D01*
%TO.C,R1*%
X12022936Y4410000D02*
X13477064Y4410000D01*
X12022936Y2590000D02*
X13477064Y2590000D01*
%TO.C,J1*%
X-6100000Y14920000D02*
X-100000Y14920000D01*
X-6100000Y14160000D02*
X-6100000Y14920000D01*
X-6100000Y12380000D02*
X-100000Y12380000D01*
X-6100000Y11620000D02*
X-6100000Y12380000D01*
X-6100000Y9840000D02*
X-100000Y9840000D01*
X-6100000Y9080000D02*
X-6100000Y9840000D01*
X-6100000Y7300000D02*
X-100000Y7300000D01*
X-6100000Y6540000D02*
X-6100000Y7300000D01*
X-6100000Y4760000D02*
X-100000Y4760000D01*
X-6100000Y4000000D02*
X-6100000Y4760000D01*
X-6100000Y2220000D02*
X-100000Y2220000D01*
X-6100000Y1460000D02*
X-6100000Y2220000D01*
X-100000Y15870000D02*
X-100000Y510000D01*
X-100000Y14160000D02*
X-6100000Y14160000D01*
X-100000Y11620000D02*
X-6100000Y11620000D01*
X-100000Y9080000D02*
X-6100000Y9080000D01*
X-100000Y6540000D02*
X-6100000Y6540000D01*
X-100000Y4000000D02*
X-6100000Y4000000D01*
X-100000Y2120000D02*
X-6100000Y2120000D01*
X-100000Y2000000D02*
X-6100000Y2000000D01*
X-100000Y1880000D02*
X-6100000Y1880000D01*
X-100000Y1760000D02*
X-6100000Y1760000D01*
X-100000Y1640000D02*
X-6100000Y1640000D01*
X-100000Y1520000D02*
X-6100000Y1520000D01*
X-100000Y1460000D02*
X-6100000Y1460000D01*
X-100000Y510000D02*
X2560000Y510000D01*
X2560000Y15870000D02*
X-100000Y15870000D01*
X2560000Y13270000D02*
X-100000Y13270000D01*
X2560000Y10730000D02*
X-100000Y10730000D01*
X2560000Y8190000D02*
X-100000Y8190000D01*
X2560000Y5650000D02*
X-100000Y5650000D01*
X2560000Y3110000D02*
X-100000Y3110000D01*
X2560000Y510000D02*
X2560000Y15870000D01*
X2957071Y14920000D02*
X2560000Y14920000D01*
X2957071Y14160000D02*
X2560000Y14160000D01*
X2957071Y12380000D02*
X2560000Y12380000D01*
X2957071Y11620000D02*
X2560000Y11620000D01*
X2957071Y9840000D02*
X2560000Y9840000D01*
X2957071Y9080000D02*
X2560000Y9080000D01*
X2957071Y7300000D02*
X2560000Y7300000D01*
X2957071Y6540000D02*
X2560000Y6540000D01*
X2957071Y4760000D02*
X2560000Y4760000D01*
X2957071Y4000000D02*
X2560000Y4000000D01*
X2957071Y2220000D02*
X2560000Y2220000D01*
X2957071Y1460000D02*
X2560000Y1460000D01*
X5430000Y2220000D02*
X5042929Y2220000D01*
X5430000Y1460000D02*
X5042929Y1460000D01*
X5497071Y14920000D02*
X5042929Y14920000D01*
X5497071Y14160000D02*
X5042929Y14160000D01*
X5497071Y12380000D02*
X5042929Y12380000D01*
X5497071Y11620000D02*
X5042929Y11620000D01*
X5497071Y9840000D02*
X5042929Y9840000D01*
X5497071Y9080000D02*
X5042929Y9080000D01*
X5497071Y7300000D02*
X5042929Y7300000D01*
X5497071Y6540000D02*
X5042929Y6540000D01*
X5497071Y4760000D02*
X5042929Y4760000D01*
X5497071Y4000000D02*
X5042929Y4000000D01*
X7810000Y1840000D02*
X7810000Y570000D01*
X7810000Y570000D02*
X6540000Y570000D01*
%TD*%
M02*
