G04 #@! TF.GenerationSoftware,KiCad,Pcbnew,10.0.4-10.0.4~ubuntu22.04.1*
G04 #@! TF.CreationDate,2026-09-14T12:58:56+02:00*
G04 #@! TF.ProjectId,3_in_1_Panel,335f696e-5f31-45f5-9061-6e656c2e6b69,rev?*
G04 #@! TF.SameCoordinates,PX72ade90PY75c75e0*
G04 #@! TF.FileFunction,Soldermask,Bot*
G04 #@! TF.FilePolarity,Negative*
%FSLAX46Y46*%
G04 Gerber Fmt 4.6, Leading zero omitted, Abs format (unit mm)*
G04 Created by KiCad (PCBNEW 10.0.4-10.0.4~ubuntu22.04.1) date 2026-09-14 12:58:56*
%MOMM*%
%LPD*%
G01*
G04 APERTURE LIST*
%ADD10C,0.000000*%
%ADD11C,0.800000*%
%ADD12C,6.400000*%
%ADD13C,0.500000*%
%ADD14R,1.700000X1.700000*%
%ADD15O,1.700000X1.700000*%
%ADD16R,4.800000X4.900000*%
%ADD17R,4.900000X4.800000*%
%ADD18C,2.000000*%
%ADD19O,1.800000X1.800000*%
%ADD20O,1.500000X1.500000*%
%ADD21C,1.000000*%
G04 APERTURE END LIST*
D10*
G36*
X108343775Y-95616071D02*
G01*
X108345273Y-95622940D01*
X108349690Y-95642849D01*
X108356025Y-95671142D01*
X108364164Y-95707300D01*
X108373987Y-95750805D01*
X108385374Y-95801139D01*
X108398211Y-95857784D01*
X108412376Y-95920221D01*
X108427751Y-95987934D01*
X108444222Y-96060403D01*
X108461665Y-96137110D01*
X108479966Y-96217536D01*
X108499004Y-96301165D01*
X108518662Y-96387477D01*
X108538821Y-96475955D01*
X108559364Y-96566079D01*
X108580172Y-96657333D01*
X108601127Y-96749198D01*
X108622110Y-96841155D01*
X108643004Y-96932687D01*
X108663689Y-97023276D01*
X108684049Y-97112402D01*
X108703964Y-97199548D01*
X108723316Y-97284196D01*
X108741987Y-97365828D01*
X108759860Y-97443925D01*
X108776814Y-97517970D01*
X108792733Y-97587443D01*
X108807497Y-97651827D01*
X108820991Y-97710604D01*
X108833093Y-97763255D01*
X108843687Y-97809263D01*
X108852654Y-97848109D01*
X108859875Y-97879274D01*
X108865233Y-97902242D01*
X108868609Y-97916494D01*
X108869885Y-97921509D01*
X108870335Y-97920238D01*
X108872825Y-97910619D01*
X108877380Y-97891950D01*
X108883896Y-97864686D01*
X108892266Y-97829282D01*
X108902388Y-97786192D01*
X108914155Y-97735872D01*
X108927464Y-97678775D01*
X108942209Y-97615357D01*
X108958285Y-97546074D01*
X108975589Y-97471376D01*
X108994015Y-97391722D01*
X109013458Y-97307565D01*
X109033814Y-97219360D01*
X109054977Y-97127560D01*
X109076844Y-97032624D01*
X109099311Y-96935003D01*
X109122268Y-96835153D01*
X109145615Y-96733528D01*
X109169248Y-96630584D01*
X109193059Y-96526774D01*
X109216946Y-96422553D01*
X109240802Y-96318377D01*
X109264523Y-96214699D01*
X109288004Y-96111975D01*
X109311141Y-96010660D01*
X109333829Y-95911207D01*
X109355963Y-95814072D01*
X109377438Y-95719709D01*
X109398150Y-95628573D01*
X109405817Y-95594816D01*
X109656933Y-95594816D01*
X109908050Y-95594816D01*
X110650371Y-99019241D01*
X111392692Y-102443665D01*
X111135558Y-102444959D01*
X111118978Y-102445042D01*
X111070195Y-102445247D01*
X111024835Y-102445391D01*
X110983838Y-102445473D01*
X110948143Y-102445493D01*
X110918690Y-102445453D01*
X110896419Y-102445350D01*
X110882269Y-102445186D01*
X110877179Y-102444960D01*
X110877177Y-102444957D01*
X110876056Y-102439841D01*
X110872951Y-102425202D01*
X110867917Y-102401301D01*
X110861008Y-102368401D01*
X110852281Y-102326765D01*
X110841788Y-102276656D01*
X110829586Y-102218335D01*
X110815728Y-102152066D01*
X110800271Y-102078111D01*
X110783267Y-101996732D01*
X110764773Y-101908192D01*
X110744843Y-101812755D01*
X110723532Y-101710681D01*
X110700895Y-101602235D01*
X110676986Y-101487678D01*
X110651861Y-101367273D01*
X110625573Y-101241283D01*
X110598179Y-101109969D01*
X110569732Y-100973595D01*
X110540287Y-100832425D01*
X110509900Y-100686719D01*
X110478626Y-100536740D01*
X110446518Y-100382750D01*
X110413631Y-100225015D01*
X110380021Y-100063794D01*
X110345742Y-99899351D01*
X110310851Y-99731948D01*
X110275399Y-99561848D01*
X110239443Y-99389314D01*
X110238695Y-99385723D01*
X110202749Y-99213244D01*
X110167302Y-99043209D01*
X110132410Y-98875881D01*
X110098131Y-98711521D01*
X110064517Y-98550393D01*
X110031623Y-98392758D01*
X109999503Y-98238879D01*
X109968216Y-98089018D01*
X109937813Y-97943440D01*
X109908350Y-97802404D01*
X109879882Y-97666173D01*
X109852464Y-97535012D01*
X109826151Y-97409180D01*
X109800998Y-97288943D01*
X109777059Y-97174560D01*
X109754390Y-97066295D01*
X109733046Y-96964410D01*
X109713081Y-96869169D01*
X109694551Y-96780832D01*
X109677510Y-96699663D01*
X109662014Y-96625925D01*
X109648116Y-96559879D01*
X109635873Y-96501787D01*
X109625339Y-96451913D01*
X109616569Y-96410519D01*
X109609617Y-96377867D01*
X109604540Y-96354220D01*
X109601391Y-96339841D01*
X109600226Y-96334989D01*
X109600208Y-96335005D01*
X109598805Y-96340355D01*
X109595419Y-96355017D01*
X109590147Y-96378544D01*
X109583085Y-96410490D01*
X109574329Y-96450409D01*
X109563977Y-96497855D01*
X109552124Y-96552381D01*
X109538867Y-96613543D01*
X109524303Y-96680892D01*
X109508528Y-96753985D01*
X109491638Y-96832373D01*
X109473730Y-96915612D01*
X109454901Y-97003255D01*
X109435247Y-97094856D01*
X109414864Y-97189969D01*
X109393848Y-97288149D01*
X109372298Y-97388947D01*
X109147096Y-98442877D01*
X108869798Y-98444127D01*
X108592499Y-98445377D01*
X108370193Y-97394812D01*
X108369723Y-97392592D01*
X108348418Y-97291962D01*
X108327643Y-97193950D01*
X108307499Y-97099003D01*
X108288077Y-97007570D01*
X108269475Y-96920097D01*
X108251789Y-96837034D01*
X108235114Y-96758829D01*
X108219547Y-96685929D01*
X108205182Y-96618783D01*
X108192116Y-96557839D01*
X108180446Y-96503544D01*
X108170266Y-96456347D01*
X108161672Y-96416697D01*
X108154761Y-96385040D01*
X108149628Y-96361825D01*
X108146369Y-96347500D01*
X108145080Y-96342513D01*
X108144534Y-96345541D01*
X108142835Y-96357976D01*
X108140049Y-96379677D01*
X108136220Y-96410274D01*
X108131394Y-96449395D01*
X108125613Y-96496670D01*
X108118924Y-96551727D01*
X108111368Y-96614195D01*
X108102994Y-96683704D01*
X108093844Y-96759883D01*
X108083962Y-96842360D01*
X108073393Y-96930764D01*
X108062180Y-97024727D01*
X108050371Y-97123872D01*
X108038006Y-97227834D01*
X108025133Y-97336239D01*
X108011795Y-97448716D01*
X107998038Y-97564896D01*
X107983902Y-97684406D01*
X107969437Y-97806875D01*
X107954684Y-97931934D01*
X107767094Y-99523090D01*
X107508312Y-99524385D01*
X107249529Y-99525680D01*
X107252396Y-99509382D01*
X107253047Y-99505189D01*
X107255144Y-99491333D01*
X107258624Y-99468203D01*
X107263435Y-99436137D01*
X107269527Y-99395480D01*
X107276849Y-99346570D01*
X107285349Y-99289749D01*
X107294978Y-99225355D01*
X107305684Y-99153732D01*
X107317416Y-99075220D01*
X107330123Y-98990160D01*
X107343755Y-98898891D01*
X107358260Y-98801756D01*
X107373587Y-98699095D01*
X107389687Y-98591249D01*
X107406507Y-98478558D01*
X107423997Y-98361364D01*
X107442106Y-98240008D01*
X107460784Y-98114828D01*
X107479978Y-97986168D01*
X107499639Y-97854367D01*
X107519715Y-97719767D01*
X107540155Y-97582708D01*
X107556210Y-97475052D01*
X107576415Y-97339570D01*
X107596228Y-97206711D01*
X107615600Y-97076822D01*
X107634477Y-96950250D01*
X107652808Y-96827339D01*
X107670541Y-96708437D01*
X107687626Y-96593889D01*
X107704009Y-96484042D01*
X107719641Y-96379242D01*
X107734468Y-96279834D01*
X107748439Y-96186165D01*
X107761504Y-96098582D01*
X107773609Y-96017430D01*
X107784704Y-95943054D01*
X107794737Y-95875803D01*
X107803656Y-95816021D01*
X107811409Y-95764054D01*
X107817946Y-95720250D01*
X107823214Y-95684954D01*
X107827161Y-95658512D01*
X107829736Y-95641270D01*
X107830889Y-95633574D01*
X107836730Y-95594816D01*
X108087960Y-95594816D01*
X108339190Y-95594816D01*
X108343775Y-95616071D01*
G37*
D11*
X168650000Y-75575000D03*
X167947056Y-77272056D03*
X167947056Y-73877944D03*
X166250000Y-77975000D03*
D12*
X166250000Y-75575000D03*
D11*
X166250000Y-73175000D03*
X164552944Y-77272056D03*
X164552944Y-73877944D03*
X163850000Y-75575000D03*
D13*
X103424995Y-60337001D03*
X106424995Y-60337001D03*
X106424995Y-59587001D03*
X103424995Y-59575001D03*
X103424995Y-58825001D03*
X106424995Y-58825001D03*
X103424995Y-58075001D03*
X106424995Y-58075001D03*
X103424995Y-57301001D03*
X106424995Y-57301001D03*
D14*
X123050000Y-123575000D03*
D15*
X120510000Y-123575000D03*
X117970001Y-123575000D03*
X115430000Y-123575000D03*
D13*
X91850000Y-69825000D03*
X91850000Y-72325000D03*
X92700000Y-69825000D03*
X92700000Y-72325000D03*
X93550000Y-69825000D03*
X93550000Y-72325000D03*
X94400000Y-69825000D03*
X94400000Y-72325000D03*
X95250000Y-69825000D03*
X95250000Y-72325000D03*
X96100000Y-69825000D03*
X96100000Y-72325000D03*
X96950000Y-69825000D03*
X96950000Y-72325000D03*
D11*
X90650000Y-75575000D03*
X89947056Y-77272056D03*
X89947056Y-73877944D03*
X88250000Y-77975000D03*
D12*
X88250000Y-75575000D03*
D11*
X88250000Y-73175000D03*
X86552944Y-77272056D03*
X86552944Y-73877944D03*
X85850000Y-75575000D03*
X90650000Y-122575000D03*
X89947056Y-124272056D03*
X89947056Y-120877944D03*
X88250000Y-124975000D03*
D12*
X88250000Y-122575000D03*
D11*
X88250000Y-120175000D03*
X86552944Y-124272056D03*
X86552944Y-120877944D03*
X85850000Y-122575000D03*
X168650000Y-122575000D03*
X167947056Y-124272056D03*
X167947056Y-120877944D03*
X166250000Y-124975000D03*
D12*
X166250000Y-122575000D03*
D11*
X166250000Y-120175000D03*
X164552944Y-124272056D03*
X164552944Y-120877944D03*
X163850000Y-122575000D03*
D14*
X159540000Y-76465000D03*
D15*
X157000000Y-76465000D03*
D16*
X94500000Y-123250000D03*
X103000000Y-123250000D03*
D13*
X116750000Y-69825000D03*
X116750000Y-72325000D03*
X117600000Y-69825000D03*
X117600000Y-72325000D03*
X118450000Y-69825000D03*
X118450000Y-72325000D03*
X119300000Y-69825000D03*
X119300000Y-72325000D03*
X120150000Y-69825000D03*
X120150000Y-72325000D03*
X121000000Y-69825000D03*
X121000000Y-72325000D03*
X121850000Y-69825000D03*
X121850000Y-72325000D03*
D14*
X157000000Y-94245000D03*
D15*
X159540000Y-94245000D03*
X157000000Y-91705000D03*
X159540000Y-91705000D03*
X157000000Y-89165001D03*
X159540000Y-89165000D03*
X157000000Y-86625000D03*
X159540000Y-86625000D03*
X157000000Y-84085000D03*
X159540000Y-84085000D03*
X157000000Y-81545000D03*
X159540000Y-81545000D03*
D13*
X158225000Y-69825000D03*
X158225000Y-72325000D03*
X159075000Y-69825000D03*
X159075000Y-72325000D03*
X159925000Y-69825000D03*
X159925000Y-72325000D03*
X160775000Y-69825000D03*
X160775000Y-72325000D03*
X161625000Y-69825000D03*
X161625000Y-72325000D03*
X162475000Y-69825000D03*
X162475000Y-72325000D03*
X163325000Y-69825000D03*
X163325000Y-72325000D03*
D17*
X166950994Y-63075001D03*
X166950994Y-54575001D03*
D18*
X167424994Y-58825001D03*
D14*
X164424994Y-50075001D03*
D15*
X161884994Y-50075001D03*
X159344994Y-50075001D03*
D14*
X159540000Y-99325000D03*
D15*
X157000000Y-99325000D03*
D14*
X112964994Y-50495001D03*
D15*
X110424994Y-50495001D03*
D18*
X98750000Y-124075000D03*
D14*
X159540000Y-122195000D03*
D15*
X157000000Y-122195000D03*
D14*
X110424994Y-68275001D03*
D15*
X110424994Y-65735001D03*
X110424994Y-63195001D03*
X110424994Y-60655001D03*
X110424994Y-58115001D03*
X110424994Y-55575001D03*
D14*
X159344994Y-68075001D03*
D15*
X161884994Y-68075001D03*
D19*
X138525000Y-74575000D03*
D20*
X138825000Y-77605000D03*
X143675000Y-77605000D03*
D19*
X143975000Y-74575000D03*
D14*
X159540000Y-117105000D03*
D15*
X159540000Y-114565000D03*
X159540000Y-112025001D03*
X159540000Y-109485000D03*
X159540000Y-106945000D03*
X159540000Y-104405000D03*
D21*
X120200000Y-107925000D03*
D14*
X93094997Y-68075002D03*
D15*
X95634997Y-68075002D03*
D21*
X121056676Y-106075000D03*
X120050000Y-103975000D03*
X105000000Y-105275000D03*
D14*
X98174997Y-50075002D03*
D15*
X95634997Y-50075002D03*
X93094997Y-50075002D03*
M02*
