G04 #@! TF.GenerationSoftware,KiCad,Pcbnew,10.0.4-10.0.4~ubuntu22.04.1*
G04 #@! TF.CreationDate,2026-09-14T12:58:56+02:00*
G04 #@! TF.ProjectId,3_in_1_Panel,335f696e-5f31-45f5-9061-6e656c2e6b69,rev?*
G04 #@! TF.SameCoordinates,PX72ade90PY75c75e0*
G04 #@! TF.FileFunction,Soldermask,Top*
G04 #@! TF.FilePolarity,Negative*
%FSLAX46Y46*%
G04 Gerber Fmt 4.6, Leading zero omitted, Abs format (unit mm)*
G04 Created by KiCad (PCBNEW 10.0.4-10.0.4~ubuntu22.04.1) date 2026-09-14 12:58:56*
%MOMM*%
%LPD*%
G01*
G04 APERTURE LIST*
%ADD10C,0.800000*%
%ADD11C,6.400000*%
%ADD12C,0.500000*%
%ADD13R,1.700000X1.700000*%
%ADD14O,1.700000X1.700000*%
%ADD15R,2.250000X2.250000*%
%ADD16R,0.700000X2.350000*%
%ADD17R,4.800000X4.900000*%
%ADD18R,2.350000X0.700000*%
%ADD19R,4.900000X4.800000*%
%ADD20C,2.000000*%
%ADD21R,1.200000X1.800000*%
%ADD22R,1.300000X0.900000*%
%ADD23R,0.600000X0.850000*%
%ADD24O,1.800000X1.800000*%
%ADD25O,1.500000X1.500000*%
G04 APERTURE END LIST*
G36*
G01*
X95875000Y-92050000D02*
X97125000Y-92050000D01*
G75*
G02*
X97375000Y-92300000I0J-250000D01*
G01*
X97375000Y-92925000D01*
G75*
G02*
X97125000Y-93175000I-250000J0D01*
G01*
X95875000Y-93175000D01*
G75*
G02*
X95625000Y-92925000I0J250000D01*
G01*
X95625000Y-92300000D01*
G75*
G02*
X95875000Y-92050000I250000J0D01*
G01*
G37*
G36*
G01*
X95875000Y-94975000D02*
X97125000Y-94975000D01*
G75*
G02*
X97375000Y-95225000I0J-250000D01*
G01*
X97375000Y-95850000D01*
G75*
G02*
X97125000Y-96100000I-250000J0D01*
G01*
X95875000Y-96100000D01*
G75*
G02*
X95625000Y-95850000I0J250000D01*
G01*
X95625000Y-95225000D01*
G75*
G02*
X95875000Y-94975000I250000J0D01*
G01*
G37*
G36*
G01*
X110475000Y-98450000D02*
X110475000Y-97200000D01*
G75*
G02*
X110725000Y-96950000I250000J0D01*
G01*
X111350000Y-96950000D01*
G75*
G02*
X111600000Y-97200000I0J-250000D01*
G01*
X111600000Y-98450000D01*
G75*
G02*
X111350000Y-98700000I-250000J0D01*
G01*
X110725000Y-98700000D01*
G75*
G02*
X110475000Y-98450000I0J250000D01*
G01*
G37*
G36*
G01*
X113400000Y-98450000D02*
X113400000Y-97200000D01*
G75*
G02*
X113650000Y-96950000I250000J0D01*
G01*
X114275000Y-96950000D01*
G75*
G02*
X114525000Y-97200000I0J-250000D01*
G01*
X114525000Y-98450000D01*
G75*
G02*
X114275000Y-98700000I-250000J0D01*
G01*
X113650000Y-98700000D01*
G75*
G02*
X113400000Y-98450000I0J250000D01*
G01*
G37*
G36*
G01*
X113149994Y-61200001D02*
X113149994Y-59950001D01*
G75*
G02*
X113399994Y-59700001I250000J0D01*
G01*
X114024994Y-59700001D01*
G75*
G02*
X114274994Y-59950001I0J-250000D01*
G01*
X114274994Y-61200001D01*
G75*
G02*
X114024994Y-61450001I-250000J0D01*
G01*
X113399994Y-61450001D01*
G75*
G02*
X113149994Y-61200001I0J250000D01*
G01*
G37*
G36*
G01*
X116074994Y-61200001D02*
X116074994Y-59950001D01*
G75*
G02*
X116324994Y-59700001I250000J0D01*
G01*
X116949994Y-59700001D01*
G75*
G02*
X117199994Y-59950001I0J-250000D01*
G01*
X117199994Y-61200001D01*
G75*
G02*
X116949994Y-61450001I-250000J0D01*
G01*
X116324994Y-61450001D01*
G75*
G02*
X116074994Y-61200001I0J250000D01*
G01*
G37*
D10*
X168650000Y-75575000D03*
X167947056Y-77272056D03*
X167947056Y-73877944D03*
X166250000Y-77975000D03*
D11*
X166250000Y-75575000D03*
D10*
X166250000Y-73175000D03*
X164552944Y-77272056D03*
X164552944Y-73877944D03*
X163850000Y-75575000D03*
D12*
X103424995Y-60337001D03*
X106424995Y-60337001D03*
X106424995Y-59587001D03*
X103424995Y-59575001D03*
X103424995Y-58825001D03*
X106424995Y-58825001D03*
X103424995Y-58075001D03*
X106424995Y-58075001D03*
X103424995Y-57301001D03*
X106424995Y-57301001D03*
G36*
G01*
X144374994Y-50575001D02*
X144374994Y-49275001D01*
G75*
G02*
X144624994Y-49025001I250000J0D01*
G01*
X145274994Y-49025001D01*
G75*
G02*
X145524994Y-49275001I0J-250000D01*
G01*
X145524994Y-50575001D01*
G75*
G02*
X145274994Y-50825001I-250000J0D01*
G01*
X144624994Y-50825001D01*
G75*
G02*
X144374994Y-50575001I0J250000D01*
G01*
G37*
G36*
G01*
X147324994Y-50575001D02*
X147324994Y-49275001D01*
G75*
G02*
X147574994Y-49025001I250000J0D01*
G01*
X148224994Y-49025001D01*
G75*
G02*
X148474994Y-49275001I0J-250000D01*
G01*
X148474994Y-50575001D01*
G75*
G02*
X148224994Y-50825001I-250000J0D01*
G01*
X147574994Y-50825001D01*
G75*
G02*
X147324994Y-50575001I0J250000D01*
G01*
G37*
G36*
G01*
X118324994Y-68625001D02*
X117024994Y-68625001D01*
G75*
G02*
X116774994Y-68375001I0J250000D01*
G01*
X116774994Y-67725001D01*
G75*
G02*
X117024994Y-67475001I250000J0D01*
G01*
X118324994Y-67475001D01*
G75*
G02*
X118574994Y-67725001I0J-250000D01*
G01*
X118574994Y-68375001D01*
G75*
G02*
X118324994Y-68625001I-250000J0D01*
G01*
G37*
G36*
G01*
X118324994Y-65675001D02*
X117024994Y-65675001D01*
G75*
G02*
X116774994Y-65425001I0J250000D01*
G01*
X116774994Y-64775001D01*
G75*
G02*
X117024994Y-64525001I250000J0D01*
G01*
X118324994Y-64525001D01*
G75*
G02*
X118574994Y-64775001I0J-250000D01*
G01*
X118574994Y-65425001D01*
G75*
G02*
X118324994Y-65675001I-250000J0D01*
G01*
G37*
G36*
G01*
X96900001Y-104375001D02*
X95600001Y-104375001D01*
G75*
G02*
X95350001Y-104125001I0J250000D01*
G01*
X95350001Y-103475001D01*
G75*
G02*
X95600001Y-103225001I250000J0D01*
G01*
X96900001Y-103225001D01*
G75*
G02*
X97150001Y-103475001I0J-250000D01*
G01*
X97150001Y-104125001D01*
G75*
G02*
X96900001Y-104375001I-250000J0D01*
G01*
G37*
G36*
G01*
X96900001Y-101424999D02*
X95600001Y-101424999D01*
G75*
G02*
X95350001Y-101174999I0J250000D01*
G01*
X95350001Y-100524999D01*
G75*
G02*
X95600001Y-100274999I250000J0D01*
G01*
X96900001Y-100274999D01*
G75*
G02*
X97150001Y-100524999I0J-250000D01*
G01*
X97150001Y-101174999D01*
G75*
G02*
X96900001Y-101424999I-250000J0D01*
G01*
G37*
D13*
X123050000Y-123575000D03*
D14*
X120510000Y-123575000D03*
X117970001Y-123575000D03*
X115430000Y-123575000D03*
G36*
G01*
X99400000Y-91375001D02*
X98100000Y-91375001D01*
G75*
G02*
X97850000Y-91125001I0J250000D01*
G01*
X97850000Y-90475001D01*
G75*
G02*
X98100000Y-90225001I250000J0D01*
G01*
X99400000Y-90225001D01*
G75*
G02*
X99650000Y-90475001I0J-250000D01*
G01*
X99650000Y-91125001D01*
G75*
G02*
X99400000Y-91375001I-250000J0D01*
G01*
G37*
G36*
G01*
X99400000Y-88424999D02*
X98100000Y-88424999D01*
G75*
G02*
X97850000Y-88174999I0J250000D01*
G01*
X97850000Y-87524999D01*
G75*
G02*
X98100000Y-87274999I250000J0D01*
G01*
X99400000Y-87274999D01*
G75*
G02*
X99650000Y-87524999I0J-250000D01*
G01*
X99650000Y-88174999D01*
G75*
G02*
X99400000Y-88424999I-250000J0D01*
G01*
G37*
D12*
X91850000Y-69825000D03*
X91850000Y-72325000D03*
X92700000Y-69825000D03*
X92700000Y-72325000D03*
X93550000Y-69825000D03*
X93550000Y-72325000D03*
X94400000Y-69825000D03*
X94400000Y-72325000D03*
X95250000Y-69825000D03*
X95250000Y-72325000D03*
X96100000Y-69825000D03*
X96100000Y-72325000D03*
X96950000Y-69825000D03*
X96950000Y-72325000D03*
D10*
X90650000Y-75575000D03*
X89947056Y-77272056D03*
X89947056Y-73877944D03*
X88250000Y-77975000D03*
D11*
X88250000Y-75575000D03*
D10*
X88250000Y-73175000D03*
X86552944Y-77272056D03*
X86552944Y-73877944D03*
X85850000Y-75575000D03*
X90650000Y-122575000D03*
X89947056Y-124272056D03*
X89947056Y-120877944D03*
X88250000Y-124975000D03*
D11*
X88250000Y-122575000D03*
D10*
X88250000Y-120175000D03*
X86552944Y-124272056D03*
X86552944Y-120877944D03*
X85850000Y-122575000D03*
X168650000Y-122575000D03*
X167947056Y-124272056D03*
X167947056Y-120877944D03*
X166250000Y-124975000D03*
D11*
X166250000Y-122575000D03*
D10*
X166250000Y-120175000D03*
X164552944Y-124272056D03*
X164552944Y-120877944D03*
X163850000Y-122575000D03*
G36*
G01*
X114912500Y-107200000D02*
X116087500Y-107200000D01*
G75*
G02*
X116200000Y-107312500I0J-112500D01*
G01*
X116200000Y-107537500D01*
G75*
G02*
X116087500Y-107650000I-112500J0D01*
G01*
X114912500Y-107650000D01*
G75*
G02*
X114800000Y-107537500I0J112500D01*
G01*
X114800000Y-107312500D01*
G75*
G02*
X114912500Y-107200000I112500J0D01*
G01*
G37*
G36*
G01*
X114912500Y-106550000D02*
X116087500Y-106550000D01*
G75*
G02*
X116200000Y-106662500I0J-112500D01*
G01*
X116200000Y-106887500D01*
G75*
G02*
X116087500Y-107000000I-112500J0D01*
G01*
X114912500Y-107000000D01*
G75*
G02*
X114800000Y-106887500I0J112500D01*
G01*
X114800000Y-106662500D01*
G75*
G02*
X114912500Y-106550000I112500J0D01*
G01*
G37*
G36*
G01*
X114912500Y-105900000D02*
X116087500Y-105900000D01*
G75*
G02*
X116200000Y-106012500I0J-112500D01*
G01*
X116200000Y-106237500D01*
G75*
G02*
X116087500Y-106350000I-112500J0D01*
G01*
X114912500Y-106350000D01*
G75*
G02*
X114800000Y-106237500I0J112500D01*
G01*
X114800000Y-106012500D01*
G75*
G02*
X114912500Y-105900000I112500J0D01*
G01*
G37*
G36*
G01*
X114912500Y-105250000D02*
X116087500Y-105250000D01*
G75*
G02*
X116200000Y-105362500I0J-112500D01*
G01*
X116200000Y-105587500D01*
G75*
G02*
X116087500Y-105700000I-112500J0D01*
G01*
X114912500Y-105700000D01*
G75*
G02*
X114800000Y-105587500I0J112500D01*
G01*
X114800000Y-105362500D01*
G75*
G02*
X114912500Y-105250000I112500J0D01*
G01*
G37*
G36*
G01*
X110512500Y-105250000D02*
X111687500Y-105250000D01*
G75*
G02*
X111800000Y-105362500I0J-112500D01*
G01*
X111800000Y-105587500D01*
G75*
G02*
X111687500Y-105700000I-112500J0D01*
G01*
X110512500Y-105700000D01*
G75*
G02*
X110400000Y-105587500I0J112500D01*
G01*
X110400000Y-105362500D01*
G75*
G02*
X110512500Y-105250000I112500J0D01*
G01*
G37*
G36*
G01*
X110512500Y-105900000D02*
X111687500Y-105900000D01*
G75*
G02*
X111800000Y-106012500I0J-112500D01*
G01*
X111800000Y-106237500D01*
G75*
G02*
X111687500Y-106350000I-112500J0D01*
G01*
X110512500Y-106350000D01*
G75*
G02*
X110400000Y-106237500I0J112500D01*
G01*
X110400000Y-106012500D01*
G75*
G02*
X110512500Y-105900000I112500J0D01*
G01*
G37*
G36*
G01*
X110512500Y-106550000D02*
X111687500Y-106550000D01*
G75*
G02*
X111800000Y-106662500I0J-112500D01*
G01*
X111800000Y-106887500D01*
G75*
G02*
X111687500Y-107000000I-112500J0D01*
G01*
X110512500Y-107000000D01*
G75*
G02*
X110400000Y-106887500I0J112500D01*
G01*
X110400000Y-106662500D01*
G75*
G02*
X110512500Y-106550000I112500J0D01*
G01*
G37*
G36*
G01*
X110512500Y-107200000D02*
X111687500Y-107200000D01*
G75*
G02*
X111800000Y-107312500I0J-112500D01*
G01*
X111800000Y-107537500D01*
G75*
G02*
X111687500Y-107650000I-112500J0D01*
G01*
X110512500Y-107650000D01*
G75*
G02*
X110400000Y-107537500I0J112500D01*
G01*
X110400000Y-107312500D01*
G75*
G02*
X110512500Y-107200000I112500J0D01*
G01*
G37*
G36*
G01*
X86124997Y-68725002D02*
X86124997Y-67425002D01*
G75*
G02*
X86374997Y-67175002I250000J0D01*
G01*
X87024997Y-67175002D01*
G75*
G02*
X87274997Y-67425002I0J-250000D01*
G01*
X87274997Y-68725002D01*
G75*
G02*
X87024997Y-68975002I-250000J0D01*
G01*
X86374997Y-68975002D01*
G75*
G02*
X86124997Y-68725002I0J250000D01*
G01*
G37*
G36*
G01*
X89074997Y-68725002D02*
X89074997Y-67425002D01*
G75*
G02*
X89324997Y-67175002I250000J0D01*
G01*
X89974997Y-67175002D01*
G75*
G02*
X90224997Y-67425002I0J-250000D01*
G01*
X90224997Y-68725002D01*
G75*
G02*
X89974997Y-68975002I-250000J0D01*
G01*
X89324997Y-68975002D01*
G75*
G02*
X89074997Y-68725002I0J250000D01*
G01*
G37*
G36*
G01*
X132074994Y-61575001D02*
X132074994Y-60275001D01*
G75*
G02*
X132324994Y-60025001I250000J0D01*
G01*
X132974994Y-60025001D01*
G75*
G02*
X133224994Y-60275001I0J-250000D01*
G01*
X133224994Y-61575001D01*
G75*
G02*
X132974994Y-61825001I-250000J0D01*
G01*
X132324994Y-61825001D01*
G75*
G02*
X132074994Y-61575001I0J250000D01*
G01*
G37*
G36*
G01*
X135024994Y-61575001D02*
X135024994Y-60275001D01*
G75*
G02*
X135274994Y-60025001I250000J0D01*
G01*
X135924994Y-60025001D01*
G75*
G02*
X136174994Y-60275001I0J-250000D01*
G01*
X136174994Y-61575001D01*
G75*
G02*
X135924994Y-61825001I-250000J0D01*
G01*
X135274994Y-61825001D01*
G75*
G02*
X135024994Y-61575001I0J250000D01*
G01*
G37*
G36*
G01*
X140924994Y-49225001D02*
X140924994Y-50625001D01*
G75*
G02*
X140674994Y-50875001I-250000J0D01*
G01*
X140124994Y-50875001D01*
G75*
G02*
X139874994Y-50625001I0J250000D01*
G01*
X139874994Y-49225001D01*
G75*
G02*
X140124994Y-48975001I250000J0D01*
G01*
X140674994Y-48975001D01*
G75*
G02*
X140924994Y-49225001I0J-250000D01*
G01*
G37*
G36*
G01*
X137774994Y-49225001D02*
X137774994Y-50625001D01*
G75*
G02*
X137524994Y-50875001I-250000J0D01*
G01*
X136974994Y-50875001D01*
G75*
G02*
X136724994Y-50625001I0J250000D01*
G01*
X136724994Y-49225001D01*
G75*
G02*
X136974994Y-48975001I250000J0D01*
G01*
X137524994Y-48975001D01*
G75*
G02*
X137774994Y-49225001I0J-250000D01*
G01*
G37*
G36*
G01*
X111600000Y-113100001D02*
X110300000Y-113100001D01*
G75*
G02*
X110050000Y-112850001I0J250000D01*
G01*
X110050000Y-112200001D01*
G75*
G02*
X110300000Y-111950001I250000J0D01*
G01*
X111600000Y-111950001D01*
G75*
G02*
X111850000Y-112200001I0J-250000D01*
G01*
X111850000Y-112850001D01*
G75*
G02*
X111600000Y-113100001I-250000J0D01*
G01*
G37*
G36*
G01*
X111600000Y-110149999D02*
X110300000Y-110149999D01*
G75*
G02*
X110050000Y-109899999I0J250000D01*
G01*
X110050000Y-109249999D01*
G75*
G02*
X110300000Y-108999999I250000J0D01*
G01*
X111600000Y-108999999D01*
G75*
G02*
X111850000Y-109249999I0J-250000D01*
G01*
X111850000Y-109899999D01*
G75*
G02*
X111600000Y-110149999I-250000J0D01*
G01*
G37*
G36*
G01*
X104449999Y-96175000D02*
X103049999Y-96175000D01*
G75*
G02*
X102799999Y-95925000I0J250000D01*
G01*
X102799999Y-95375000D01*
G75*
G02*
X103049999Y-95125000I250000J0D01*
G01*
X104449999Y-95125000D01*
G75*
G02*
X104699999Y-95375000I0J-250000D01*
G01*
X104699999Y-95925000D01*
G75*
G02*
X104449999Y-96175000I-250000J0D01*
G01*
G37*
G36*
G01*
X104449999Y-93025000D02*
X103049999Y-93025000D01*
G75*
G02*
X102799999Y-92775000I0J250000D01*
G01*
X102799999Y-92225000D01*
G75*
G02*
X103049999Y-91975000I250000J0D01*
G01*
X104449999Y-91975000D01*
G75*
G02*
X104699999Y-92225000I0J-250000D01*
G01*
X104699999Y-92775000D01*
G75*
G02*
X104449999Y-93025000I-250000J0D01*
G01*
G37*
G36*
G01*
X85624997Y-50975002D02*
X85624997Y-49675002D01*
G75*
G02*
X85874997Y-49425002I250000J0D01*
G01*
X86524997Y-49425002D01*
G75*
G02*
X86774997Y-49675002I0J-250000D01*
G01*
X86774997Y-50975002D01*
G75*
G02*
X86524997Y-51225002I-250000J0D01*
G01*
X85874997Y-51225002D01*
G75*
G02*
X85624997Y-50975002I0J250000D01*
G01*
G37*
G36*
G01*
X88574997Y-50975002D02*
X88574997Y-49675002D01*
G75*
G02*
X88824997Y-49425002I250000J0D01*
G01*
X89474997Y-49425002D01*
G75*
G02*
X89724997Y-49675002I0J-250000D01*
G01*
X89724997Y-50975002D01*
G75*
G02*
X89474997Y-51225002I-250000J0D01*
G01*
X88824997Y-51225002D01*
G75*
G02*
X88574997Y-50975002I0J250000D01*
G01*
G37*
G36*
G01*
X110449999Y-103225000D02*
X110449999Y-101925000D01*
G75*
G02*
X110699999Y-101675000I250000J0D01*
G01*
X111349999Y-101675000D01*
G75*
G02*
X111599999Y-101925000I0J-250000D01*
G01*
X111599999Y-103225000D01*
G75*
G02*
X111349999Y-103475000I-250000J0D01*
G01*
X110699999Y-103475000D01*
G75*
G02*
X110449999Y-103225000I0J250000D01*
G01*
G37*
G36*
G01*
X113400001Y-103225000D02*
X113400001Y-101925000D01*
G75*
G02*
X113650001Y-101675000I250000J0D01*
G01*
X114300001Y-101675000D01*
G75*
G02*
X114550001Y-101925000I0J-250000D01*
G01*
X114550001Y-103225000D01*
G75*
G02*
X114300001Y-103475000I-250000J0D01*
G01*
X113650001Y-103475000D01*
G75*
G02*
X113400001Y-103225000I0J250000D01*
G01*
G37*
G36*
G01*
X121214994Y-67088501D02*
X121214994Y-68513501D01*
G75*
G02*
X121039994Y-68688501I-175000J0D01*
G01*
X120689994Y-68688501D01*
G75*
G02*
X120514994Y-68513501I0J175000D01*
G01*
X120514994Y-67088501D01*
G75*
G02*
X120689994Y-66913501I175000J0D01*
G01*
X121039994Y-66913501D01*
G75*
G02*
X121214994Y-67088501I0J-175000D01*
G01*
G37*
G36*
G01*
X122484994Y-67088501D02*
X122484994Y-68513501D01*
G75*
G02*
X122309994Y-68688501I-175000J0D01*
G01*
X121959994Y-68688501D01*
G75*
G02*
X121784994Y-68513501I0J175000D01*
G01*
X121784994Y-67088501D01*
G75*
G02*
X121959994Y-66913501I175000J0D01*
G01*
X122309994Y-66913501D01*
G75*
G02*
X122484994Y-67088501I0J-175000D01*
G01*
G37*
G36*
G01*
X123754994Y-67088501D02*
X123754994Y-68513501D01*
G75*
G02*
X123579994Y-68688501I-175000J0D01*
G01*
X123229994Y-68688501D01*
G75*
G02*
X123054994Y-68513501I0J175000D01*
G01*
X123054994Y-67088501D01*
G75*
G02*
X123229994Y-66913501I175000J0D01*
G01*
X123579994Y-66913501D01*
G75*
G02*
X123754994Y-67088501I0J-175000D01*
G01*
G37*
G36*
G01*
X125024994Y-67088501D02*
X125024994Y-68513501D01*
G75*
G02*
X124849994Y-68688501I-175000J0D01*
G01*
X124499994Y-68688501D01*
G75*
G02*
X124324994Y-68513501I0J175000D01*
G01*
X124324994Y-67088501D01*
G75*
G02*
X124499994Y-66913501I175000J0D01*
G01*
X124849994Y-66913501D01*
G75*
G02*
X125024994Y-67088501I0J-175000D01*
G01*
G37*
G36*
G01*
X126294994Y-67088501D02*
X126294994Y-68513501D01*
G75*
G02*
X126119994Y-68688501I-175000J0D01*
G01*
X125769994Y-68688501D01*
G75*
G02*
X125594994Y-68513501I0J175000D01*
G01*
X125594994Y-67088501D01*
G75*
G02*
X125769994Y-66913501I175000J0D01*
G01*
X126119994Y-66913501D01*
G75*
G02*
X126294994Y-67088501I0J-175000D01*
G01*
G37*
G36*
G01*
X127564994Y-67088501D02*
X127564994Y-68513501D01*
G75*
G02*
X127389994Y-68688501I-175000J0D01*
G01*
X127039994Y-68688501D01*
G75*
G02*
X126864994Y-68513501I0J175000D01*
G01*
X126864994Y-67088501D01*
G75*
G02*
X127039994Y-66913501I175000J0D01*
G01*
X127389994Y-66913501D01*
G75*
G02*
X127564994Y-67088501I0J-175000D01*
G01*
G37*
G36*
G01*
X128834994Y-67088501D02*
X128834994Y-68513501D01*
G75*
G02*
X128659994Y-68688501I-175000J0D01*
G01*
X128309994Y-68688501D01*
G75*
G02*
X128134994Y-68513501I0J175000D01*
G01*
X128134994Y-67088501D01*
G75*
G02*
X128309994Y-66913501I175000J0D01*
G01*
X128659994Y-66913501D01*
G75*
G02*
X128834994Y-67088501I0J-175000D01*
G01*
G37*
G36*
G01*
X128834994Y-60012501D02*
X128834994Y-61437501D01*
G75*
G02*
X128659994Y-61612501I-175000J0D01*
G01*
X128309994Y-61612501D01*
G75*
G02*
X128134994Y-61437501I0J175000D01*
G01*
X128134994Y-60012501D01*
G75*
G02*
X128309994Y-59837501I175000J0D01*
G01*
X128659994Y-59837501D01*
G75*
G02*
X128834994Y-60012501I0J-175000D01*
G01*
G37*
G36*
G01*
X127564994Y-60012501D02*
X127564994Y-61437501D01*
G75*
G02*
X127389994Y-61612501I-175000J0D01*
G01*
X127039994Y-61612501D01*
G75*
G02*
X126864994Y-61437501I0J175000D01*
G01*
X126864994Y-60012501D01*
G75*
G02*
X127039994Y-59837501I175000J0D01*
G01*
X127389994Y-59837501D01*
G75*
G02*
X127564994Y-60012501I0J-175000D01*
G01*
G37*
G36*
G01*
X126294994Y-60012501D02*
X126294994Y-61437501D01*
G75*
G02*
X126119994Y-61612501I-175000J0D01*
G01*
X125769994Y-61612501D01*
G75*
G02*
X125594994Y-61437501I0J175000D01*
G01*
X125594994Y-60012501D01*
G75*
G02*
X125769994Y-59837501I175000J0D01*
G01*
X126119994Y-59837501D01*
G75*
G02*
X126294994Y-60012501I0J-175000D01*
G01*
G37*
G36*
G01*
X125024994Y-60012501D02*
X125024994Y-61437501D01*
G75*
G02*
X124849994Y-61612501I-175000J0D01*
G01*
X124499994Y-61612501D01*
G75*
G02*
X124324994Y-61437501I0J175000D01*
G01*
X124324994Y-60012501D01*
G75*
G02*
X124499994Y-59837501I175000J0D01*
G01*
X124849994Y-59837501D01*
G75*
G02*
X125024994Y-60012501I0J-175000D01*
G01*
G37*
G36*
G01*
X123754994Y-60012501D02*
X123754994Y-61437501D01*
G75*
G02*
X123579994Y-61612501I-175000J0D01*
G01*
X123229994Y-61612501D01*
G75*
G02*
X123054994Y-61437501I0J175000D01*
G01*
X123054994Y-60012501D01*
G75*
G02*
X123229994Y-59837501I175000J0D01*
G01*
X123579994Y-59837501D01*
G75*
G02*
X123754994Y-60012501I0J-175000D01*
G01*
G37*
G36*
G01*
X122484994Y-60012501D02*
X122484994Y-61437501D01*
G75*
G02*
X122309994Y-61612501I-175000J0D01*
G01*
X121959994Y-61612501D01*
G75*
G02*
X121784994Y-61437501I0J175000D01*
G01*
X121784994Y-60012501D01*
G75*
G02*
X121959994Y-59837501I175000J0D01*
G01*
X122309994Y-59837501D01*
G75*
G02*
X122484994Y-60012501I0J-175000D01*
G01*
G37*
G36*
G01*
X121214994Y-60012501D02*
X121214994Y-61437501D01*
G75*
G02*
X121039994Y-61612501I-175000J0D01*
G01*
X120689994Y-61612501D01*
G75*
G02*
X120514994Y-61437501I0J175000D01*
G01*
X120514994Y-60012501D01*
G75*
G02*
X120689994Y-59837501I175000J0D01*
G01*
X121039994Y-59837501D01*
G75*
G02*
X121214994Y-60012501I0J-175000D01*
G01*
G37*
G36*
G01*
X112350000Y-92024999D02*
X113650000Y-92024999D01*
G75*
G02*
X113900000Y-92274999I0J-250000D01*
G01*
X113900000Y-92924999D01*
G75*
G02*
X113650000Y-93174999I-250000J0D01*
G01*
X112350000Y-93174999D01*
G75*
G02*
X112100000Y-92924999I0J250000D01*
G01*
X112100000Y-92274999D01*
G75*
G02*
X112350000Y-92024999I250000J0D01*
G01*
G37*
G36*
G01*
X112350000Y-94975001D02*
X113650000Y-94975001D01*
G75*
G02*
X113900000Y-95225001I0J-250000D01*
G01*
X113900000Y-95875001D01*
G75*
G02*
X113650000Y-96125001I-250000J0D01*
G01*
X112350000Y-96125001D01*
G75*
G02*
X112100000Y-95875001I0J250000D01*
G01*
X112100000Y-95225001D01*
G75*
G02*
X112350000Y-94975001I250000J0D01*
G01*
G37*
G36*
G01*
X122474994Y-49875001D02*
X121574994Y-49875001D01*
G75*
G02*
X121424994Y-49725001I0J150000D01*
G01*
X121424994Y-49425001D01*
G75*
G02*
X121574994Y-49275001I150000J0D01*
G01*
X122474994Y-49275001D01*
G75*
G02*
X122624994Y-49425001I0J-150000D01*
G01*
X122624994Y-49725001D01*
G75*
G02*
X122474994Y-49875001I-150000J0D01*
G01*
G37*
G36*
G01*
X122474994Y-50825001D02*
X121574994Y-50825001D01*
G75*
G02*
X121424994Y-50675001I0J150000D01*
G01*
X121424994Y-50375001D01*
G75*
G02*
X121574994Y-50225001I150000J0D01*
G01*
X122474994Y-50225001D01*
G75*
G02*
X122624994Y-50375001I0J-150000D01*
G01*
X122624994Y-50675001D01*
G75*
G02*
X122474994Y-50825001I-150000J0D01*
G01*
G37*
G36*
G01*
X122474994Y-51775001D02*
X121574994Y-51775001D01*
G75*
G02*
X121424994Y-51625001I0J150000D01*
G01*
X121424994Y-51325001D01*
G75*
G02*
X121574994Y-51175001I150000J0D01*
G01*
X122474994Y-51175001D01*
G75*
G02*
X122624994Y-51325001I0J-150000D01*
G01*
X122624994Y-51625001D01*
G75*
G02*
X122474994Y-51775001I-150000J0D01*
G01*
G37*
G36*
G01*
X124974994Y-51775001D02*
X124074994Y-51775001D01*
G75*
G02*
X123924994Y-51625001I0J150000D01*
G01*
X123924994Y-51325001D01*
G75*
G02*
X124074994Y-51175001I150000J0D01*
G01*
X124974994Y-51175001D01*
G75*
G02*
X125124994Y-51325001I0J-150000D01*
G01*
X125124994Y-51625001D01*
G75*
G02*
X124974994Y-51775001I-150000J0D01*
G01*
G37*
G36*
G01*
X124974994Y-50825001D02*
X124074994Y-50825001D01*
G75*
G02*
X123924994Y-50675001I0J150000D01*
G01*
X123924994Y-50375001D01*
G75*
G02*
X124074994Y-50225001I150000J0D01*
G01*
X124974994Y-50225001D01*
G75*
G02*
X125124994Y-50375001I0J-150000D01*
G01*
X125124994Y-50675001D01*
G75*
G02*
X124974994Y-50825001I-150000J0D01*
G01*
G37*
G36*
G01*
X124974994Y-49875001D02*
X124074994Y-49875001D01*
G75*
G02*
X123924994Y-49725001I0J150000D01*
G01*
X123924994Y-49425001D01*
G75*
G02*
X124074994Y-49275001I150000J0D01*
G01*
X124974994Y-49275001D01*
G75*
G02*
X125124994Y-49425001I0J-150000D01*
G01*
X125124994Y-49725001D01*
G75*
G02*
X124974994Y-49875001I-150000J0D01*
G01*
G37*
G36*
G01*
X114599999Y-92024999D02*
X115899999Y-92024999D01*
G75*
G02*
X116149999Y-92274999I0J-250000D01*
G01*
X116149999Y-92924999D01*
G75*
G02*
X115899999Y-93174999I-250000J0D01*
G01*
X114599999Y-93174999D01*
G75*
G02*
X114349999Y-92924999I0J250000D01*
G01*
X114349999Y-92274999D01*
G75*
G02*
X114599999Y-92024999I250000J0D01*
G01*
G37*
G36*
G01*
X114599999Y-94975001D02*
X115899999Y-94975001D01*
G75*
G02*
X116149999Y-95225001I0J-250000D01*
G01*
X116149999Y-95875001D01*
G75*
G02*
X115899999Y-96125001I-250000J0D01*
G01*
X114599999Y-96125001D01*
G75*
G02*
X114349999Y-95875001I0J250000D01*
G01*
X114349999Y-95225001D01*
G75*
G02*
X114599999Y-94975001I250000J0D01*
G01*
G37*
G36*
G01*
X100900000Y-113125001D02*
X99600000Y-113125001D01*
G75*
G02*
X99350000Y-112875001I0J250000D01*
G01*
X99350000Y-112225001D01*
G75*
G02*
X99600000Y-111975001I250000J0D01*
G01*
X100900000Y-111975001D01*
G75*
G02*
X101150000Y-112225001I0J-250000D01*
G01*
X101150000Y-112875001D01*
G75*
G02*
X100900000Y-113125001I-250000J0D01*
G01*
G37*
G36*
G01*
X100900000Y-110174999D02*
X99600000Y-110174999D01*
G75*
G02*
X99350000Y-109924999I0J250000D01*
G01*
X99350000Y-109274999D01*
G75*
G02*
X99600000Y-109024999I250000J0D01*
G01*
X100900000Y-109024999D01*
G75*
G02*
X101150000Y-109274999I0J-250000D01*
G01*
X101150000Y-109924999D01*
G75*
G02*
X100900000Y-110174999I-250000J0D01*
G01*
G37*
G36*
G01*
X121600000Y-92024999D02*
X122900000Y-92024999D01*
G75*
G02*
X123150000Y-92274999I0J-250000D01*
G01*
X123150000Y-92924999D01*
G75*
G02*
X122900000Y-93174999I-250000J0D01*
G01*
X121600000Y-93174999D01*
G75*
G02*
X121350000Y-92924999I0J250000D01*
G01*
X121350000Y-92274999D01*
G75*
G02*
X121600000Y-92024999I250000J0D01*
G01*
G37*
G36*
G01*
X121600000Y-94975001D02*
X122900000Y-94975001D01*
G75*
G02*
X123150000Y-95225001I0J-250000D01*
G01*
X123150000Y-95875001D01*
G75*
G02*
X122900000Y-96125001I-250000J0D01*
G01*
X121600000Y-96125001D01*
G75*
G02*
X121350000Y-95875001I0J250000D01*
G01*
X121350000Y-95225001D01*
G75*
G02*
X121600000Y-94975001I250000J0D01*
G01*
G37*
G36*
G01*
X122474994Y-54625001D02*
X121574994Y-54625001D01*
G75*
G02*
X121424994Y-54475001I0J150000D01*
G01*
X121424994Y-54175001D01*
G75*
G02*
X121574994Y-54025001I150000J0D01*
G01*
X122474994Y-54025001D01*
G75*
G02*
X122624994Y-54175001I0J-150000D01*
G01*
X122624994Y-54475001D01*
G75*
G02*
X122474994Y-54625001I-150000J0D01*
G01*
G37*
G36*
G01*
X122474994Y-55575001D02*
X121574994Y-55575001D01*
G75*
G02*
X121424994Y-55425001I0J150000D01*
G01*
X121424994Y-55125001D01*
G75*
G02*
X121574994Y-54975001I150000J0D01*
G01*
X122474994Y-54975001D01*
G75*
G02*
X122624994Y-55125001I0J-150000D01*
G01*
X122624994Y-55425001D01*
G75*
G02*
X122474994Y-55575001I-150000J0D01*
G01*
G37*
G36*
G01*
X122474994Y-56525001D02*
X121574994Y-56525001D01*
G75*
G02*
X121424994Y-56375001I0J150000D01*
G01*
X121424994Y-56075001D01*
G75*
G02*
X121574994Y-55925001I150000J0D01*
G01*
X122474994Y-55925001D01*
G75*
G02*
X122624994Y-56075001I0J-150000D01*
G01*
X122624994Y-56375001D01*
G75*
G02*
X122474994Y-56525001I-150000J0D01*
G01*
G37*
G36*
G01*
X124974994Y-56525001D02*
X124074994Y-56525001D01*
G75*
G02*
X123924994Y-56375001I0J150000D01*
G01*
X123924994Y-56075001D01*
G75*
G02*
X124074994Y-55925001I150000J0D01*
G01*
X124974994Y-55925001D01*
G75*
G02*
X125124994Y-56075001I0J-150000D01*
G01*
X125124994Y-56375001D01*
G75*
G02*
X124974994Y-56525001I-150000J0D01*
G01*
G37*
G36*
G01*
X124974994Y-55575001D02*
X124074994Y-55575001D01*
G75*
G02*
X123924994Y-55425001I0J150000D01*
G01*
X123924994Y-55125001D01*
G75*
G02*
X124074994Y-54975001I150000J0D01*
G01*
X124974994Y-54975001D01*
G75*
G02*
X125124994Y-55125001I0J-150000D01*
G01*
X125124994Y-55425001D01*
G75*
G02*
X124974994Y-55575001I-150000J0D01*
G01*
G37*
G36*
G01*
X124974994Y-54625001D02*
X124074994Y-54625001D01*
G75*
G02*
X123924994Y-54475001I0J150000D01*
G01*
X123924994Y-54175001D01*
G75*
G02*
X124074994Y-54025001I150000J0D01*
G01*
X124974994Y-54025001D01*
G75*
G02*
X125124994Y-54175001I0J-150000D01*
G01*
X125124994Y-54475001D01*
G75*
G02*
X124974994Y-54625001I-150000J0D01*
G01*
G37*
G36*
G01*
X104550001Y-89675001D02*
X104550001Y-90975001D01*
G75*
G02*
X104300001Y-91225001I-250000J0D01*
G01*
X103650001Y-91225001D01*
G75*
G02*
X103400001Y-90975001I0J250000D01*
G01*
X103400001Y-89675001D01*
G75*
G02*
X103650001Y-89425001I250000J0D01*
G01*
X104300001Y-89425001D01*
G75*
G02*
X104550001Y-89675001I0J-250000D01*
G01*
G37*
G36*
G01*
X101599999Y-89675001D02*
X101599999Y-90975001D01*
G75*
G02*
X101349999Y-91225001I-250000J0D01*
G01*
X100699999Y-91225001D01*
G75*
G02*
X100449999Y-90975001I0J250000D01*
G01*
X100449999Y-89675001D01*
G75*
G02*
X100699999Y-89425001I250000J0D01*
G01*
X101349999Y-89425001D01*
G75*
G02*
X101599999Y-89675001I0J-250000D01*
G01*
G37*
G36*
G01*
X97100000Y-109024999D02*
X98400000Y-109024999D01*
G75*
G02*
X98650000Y-109274999I0J-250000D01*
G01*
X98650000Y-109924999D01*
G75*
G02*
X98400000Y-110174999I-250000J0D01*
G01*
X97100000Y-110174999D01*
G75*
G02*
X96850000Y-109924999I0J250000D01*
G01*
X96850000Y-109274999D01*
G75*
G02*
X97100000Y-109024999I250000J0D01*
G01*
G37*
G36*
G01*
X97100000Y-111975001D02*
X98400000Y-111975001D01*
G75*
G02*
X98650000Y-112225001I0J-250000D01*
G01*
X98650000Y-112875001D01*
G75*
G02*
X98400000Y-113125001I-250000J0D01*
G01*
X97100000Y-113125001D01*
G75*
G02*
X96850000Y-112875001I0J250000D01*
G01*
X96850000Y-112225001D01*
G75*
G02*
X97100000Y-111975001I250000J0D01*
G01*
G37*
G36*
G01*
X85624997Y-64175002D02*
X84224997Y-64175002D01*
G75*
G02*
X83974997Y-63925002I0J250000D01*
G01*
X83974997Y-63375002D01*
G75*
G02*
X84224997Y-63125002I250000J0D01*
G01*
X85624997Y-63125002D01*
G75*
G02*
X85874997Y-63375002I0J-250000D01*
G01*
X85874997Y-63925002D01*
G75*
G02*
X85624997Y-64175002I-250000J0D01*
G01*
G37*
G36*
G01*
X85624997Y-61025002D02*
X84224997Y-61025002D01*
G75*
G02*
X83974997Y-60775002I0J250000D01*
G01*
X83974997Y-60225002D01*
G75*
G02*
X84224997Y-59975002I250000J0D01*
G01*
X85624997Y-59975002D01*
G75*
G02*
X85874997Y-60225002I0J-250000D01*
G01*
X85874997Y-60775002D01*
G75*
G02*
X85624997Y-61025002I-250000J0D01*
G01*
G37*
G36*
G01*
X138874994Y-57475001D02*
X138874994Y-56175001D01*
G75*
G02*
X139124994Y-55925001I250000J0D01*
G01*
X139774994Y-55925001D01*
G75*
G02*
X140024994Y-56175001I0J-250000D01*
G01*
X140024994Y-57475001D01*
G75*
G02*
X139774994Y-57725001I-250000J0D01*
G01*
X139124994Y-57725001D01*
G75*
G02*
X138874994Y-57475001I0J250000D01*
G01*
G37*
G36*
G01*
X141824994Y-57475001D02*
X141824994Y-56175001D01*
G75*
G02*
X142074994Y-55925001I250000J0D01*
G01*
X142724994Y-55925001D01*
G75*
G02*
X142974994Y-56175001I0J-250000D01*
G01*
X142974994Y-57475001D01*
G75*
G02*
X142724994Y-57725001I-250000J0D01*
G01*
X142074994Y-57725001D01*
G75*
G02*
X141824994Y-57475001I0J250000D01*
G01*
G37*
G36*
G01*
X102100000Y-109024999D02*
X103400000Y-109024999D01*
G75*
G02*
X103650000Y-109274999I0J-250000D01*
G01*
X103650000Y-109924999D01*
G75*
G02*
X103400000Y-110174999I-250000J0D01*
G01*
X102100000Y-110174999D01*
G75*
G02*
X101850000Y-109924999I0J250000D01*
G01*
X101850000Y-109274999D01*
G75*
G02*
X102100000Y-109024999I250000J0D01*
G01*
G37*
G36*
G01*
X102100000Y-111975001D02*
X103400000Y-111975001D01*
G75*
G02*
X103650000Y-112225001I0J-250000D01*
G01*
X103650000Y-112875001D01*
G75*
G02*
X103400000Y-113125001I-250000J0D01*
G01*
X102100000Y-113125001D01*
G75*
G02*
X101850000Y-112875001I0J250000D01*
G01*
X101850000Y-112225001D01*
G75*
G02*
X102100000Y-111975001I250000J0D01*
G01*
G37*
G36*
G01*
X115062499Y-112737500D02*
X115062499Y-111437500D01*
G75*
G02*
X115312499Y-111187500I250000J0D01*
G01*
X115962499Y-111187500D01*
G75*
G02*
X116212499Y-111437500I0J-250000D01*
G01*
X116212499Y-112737500D01*
G75*
G02*
X115962499Y-112987500I-250000J0D01*
G01*
X115312499Y-112987500D01*
G75*
G02*
X115062499Y-112737500I0J250000D01*
G01*
G37*
G36*
G01*
X118012501Y-112737500D02*
X118012501Y-111437500D01*
G75*
G02*
X118262501Y-111187500I250000J0D01*
G01*
X118912501Y-111187500D01*
G75*
G02*
X119162501Y-111437500I0J-250000D01*
G01*
X119162501Y-112737500D01*
G75*
G02*
X118912501Y-112987500I-250000J0D01*
G01*
X118262501Y-112987500D01*
G75*
G02*
X118012501Y-112737500I0J250000D01*
G01*
G37*
G36*
G01*
X106625000Y-96100000D02*
X105375000Y-96100000D01*
G75*
G02*
X105125000Y-95850000I0J250000D01*
G01*
X105125000Y-95225000D01*
G75*
G02*
X105375000Y-94975000I250000J0D01*
G01*
X106625000Y-94975000D01*
G75*
G02*
X106875000Y-95225000I0J-250000D01*
G01*
X106875000Y-95850000D01*
G75*
G02*
X106625000Y-96100000I-250000J0D01*
G01*
G37*
G36*
G01*
X106625000Y-93175000D02*
X105375000Y-93175000D01*
G75*
G02*
X105125000Y-92925000I0J250000D01*
G01*
X105125000Y-92300000D01*
G75*
G02*
X105375000Y-92050000I250000J0D01*
G01*
X106625000Y-92050000D01*
G75*
G02*
X106875000Y-92300000I0J-250000D01*
G01*
X106875000Y-92925000D01*
G75*
G02*
X106625000Y-93175000I-250000J0D01*
G01*
G37*
G36*
G01*
X128724994Y-52775001D02*
X127424994Y-52775001D01*
G75*
G02*
X127174994Y-52525001I0J250000D01*
G01*
X127174994Y-51875001D01*
G75*
G02*
X127424994Y-51625001I250000J0D01*
G01*
X128724994Y-51625001D01*
G75*
G02*
X128974994Y-51875001I0J-250000D01*
G01*
X128974994Y-52525001D01*
G75*
G02*
X128724994Y-52775001I-250000J0D01*
G01*
G37*
G36*
G01*
X128724994Y-49825001D02*
X127424994Y-49825001D01*
G75*
G02*
X127174994Y-49575001I0J250000D01*
G01*
X127174994Y-48925001D01*
G75*
G02*
X127424994Y-48675001I250000J0D01*
G01*
X128724994Y-48675001D01*
G75*
G02*
X128974994Y-48925001I0J-250000D01*
G01*
X128974994Y-49575001D01*
G75*
G02*
X128724994Y-49825001I-250000J0D01*
G01*
G37*
G36*
G01*
X151874994Y-50475001D02*
X151874994Y-49175001D01*
G75*
G02*
X152124994Y-48925001I250000J0D01*
G01*
X152774994Y-48925001D01*
G75*
G02*
X153024994Y-49175001I0J-250000D01*
G01*
X153024994Y-50475001D01*
G75*
G02*
X152774994Y-50725001I-250000J0D01*
G01*
X152124994Y-50725001D01*
G75*
G02*
X151874994Y-50475001I0J250000D01*
G01*
G37*
G36*
G01*
X154824994Y-50475001D02*
X154824994Y-49175001D01*
G75*
G02*
X155074994Y-48925001I250000J0D01*
G01*
X155724994Y-48925001D01*
G75*
G02*
X155974994Y-49175001I0J-250000D01*
G01*
X155974994Y-50475001D01*
G75*
G02*
X155724994Y-50725001I-250000J0D01*
G01*
X155074994Y-50725001D01*
G75*
G02*
X154824994Y-50475001I0J250000D01*
G01*
G37*
D13*
X159540000Y-76465000D03*
D14*
X157000000Y-76465000D03*
G36*
G01*
X107875000Y-92050000D02*
X109125000Y-92050000D01*
G75*
G02*
X109375000Y-92300000I0J-250000D01*
G01*
X109375000Y-92925000D01*
G75*
G02*
X109125000Y-93175000I-250000J0D01*
G01*
X107875000Y-93175000D01*
G75*
G02*
X107625000Y-92925000I0J250000D01*
G01*
X107625000Y-92300000D01*
G75*
G02*
X107875000Y-92050000I250000J0D01*
G01*
G37*
G36*
G01*
X107875000Y-94975000D02*
X109125000Y-94975000D01*
G75*
G02*
X109375000Y-95225000I0J-250000D01*
G01*
X109375000Y-95850000D01*
G75*
G02*
X109125000Y-96100000I-250000J0D01*
G01*
X107875000Y-96100000D01*
G75*
G02*
X107625000Y-95850000I0J250000D01*
G01*
X107625000Y-95225000D01*
G75*
G02*
X107875000Y-94975000I250000J0D01*
G01*
G37*
G36*
G01*
X133187494Y-65050001D02*
X132262494Y-65050001D01*
G75*
G02*
X132174994Y-64962501I0J87500D01*
G01*
X132174994Y-64787501D01*
G75*
G02*
X132262494Y-64700001I87500J0D01*
G01*
X133187494Y-64700001D01*
G75*
G02*
X133274994Y-64787501I0J-87500D01*
G01*
X133274994Y-64962501D01*
G75*
G02*
X133187494Y-65050001I-87500J0D01*
G01*
G37*
G36*
G01*
X133187494Y-65850001D02*
X132262494Y-65850001D01*
G75*
G02*
X132174994Y-65762501I0J87500D01*
G01*
X132174994Y-65587501D01*
G75*
G02*
X132262494Y-65500001I87500J0D01*
G01*
X133187494Y-65500001D01*
G75*
G02*
X133274994Y-65587501I0J-87500D01*
G01*
X133274994Y-65762501D01*
G75*
G02*
X133187494Y-65850001I-87500J0D01*
G01*
G37*
G36*
G01*
X133187494Y-66650001D02*
X132262494Y-66650001D01*
G75*
G02*
X132174994Y-66562501I0J87500D01*
G01*
X132174994Y-66387501D01*
G75*
G02*
X132262494Y-66300001I87500J0D01*
G01*
X133187494Y-66300001D01*
G75*
G02*
X133274994Y-66387501I0J-87500D01*
G01*
X133274994Y-66562501D01*
G75*
G02*
X133187494Y-66650001I-87500J0D01*
G01*
G37*
G36*
G01*
X133599994Y-67987501D02*
X133599994Y-67062501D01*
G75*
G02*
X133687494Y-66975001I87500J0D01*
G01*
X133862494Y-66975001D01*
G75*
G02*
X133949994Y-67062501I0J-87500D01*
G01*
X133949994Y-67987501D01*
G75*
G02*
X133862494Y-68075001I-87500J0D01*
G01*
X133687494Y-68075001D01*
G75*
G02*
X133599994Y-67987501I0J87500D01*
G01*
G37*
G36*
G01*
X134399994Y-67987501D02*
X134399994Y-67062501D01*
G75*
G02*
X134487494Y-66975001I87500J0D01*
G01*
X134662494Y-66975001D01*
G75*
G02*
X134749994Y-67062501I0J-87500D01*
G01*
X134749994Y-67987501D01*
G75*
G02*
X134662494Y-68075001I-87500J0D01*
G01*
X134487494Y-68075001D01*
G75*
G02*
X134399994Y-67987501I0J87500D01*
G01*
G37*
G36*
G01*
X135199994Y-67987501D02*
X135199994Y-67062501D01*
G75*
G02*
X135287494Y-66975001I87500J0D01*
G01*
X135462494Y-66975001D01*
G75*
G02*
X135549994Y-67062501I0J-87500D01*
G01*
X135549994Y-67987501D01*
G75*
G02*
X135462494Y-68075001I-87500J0D01*
G01*
X135287494Y-68075001D01*
G75*
G02*
X135199994Y-67987501I0J87500D01*
G01*
G37*
G36*
G01*
X136887494Y-66650001D02*
X135962494Y-66650001D01*
G75*
G02*
X135874994Y-66562501I0J87500D01*
G01*
X135874994Y-66387501D01*
G75*
G02*
X135962494Y-66300001I87500J0D01*
G01*
X136887494Y-66300001D01*
G75*
G02*
X136974994Y-66387501I0J-87500D01*
G01*
X136974994Y-66562501D01*
G75*
G02*
X136887494Y-66650001I-87500J0D01*
G01*
G37*
G36*
G01*
X136887494Y-65850001D02*
X135962494Y-65850001D01*
G75*
G02*
X135874994Y-65762501I0J87500D01*
G01*
X135874994Y-65587501D01*
G75*
G02*
X135962494Y-65500001I87500J0D01*
G01*
X136887494Y-65500001D01*
G75*
G02*
X136974994Y-65587501I0J-87500D01*
G01*
X136974994Y-65762501D01*
G75*
G02*
X136887494Y-65850001I-87500J0D01*
G01*
G37*
G36*
G01*
X136887494Y-65050001D02*
X135962494Y-65050001D01*
G75*
G02*
X135874994Y-64962501I0J87500D01*
G01*
X135874994Y-64787501D01*
G75*
G02*
X135962494Y-64700001I87500J0D01*
G01*
X136887494Y-64700001D01*
G75*
G02*
X136974994Y-64787501I0J-87500D01*
G01*
X136974994Y-64962501D01*
G75*
G02*
X136887494Y-65050001I-87500J0D01*
G01*
G37*
G36*
G01*
X135199994Y-64287501D02*
X135199994Y-63362501D01*
G75*
G02*
X135287494Y-63275001I87500J0D01*
G01*
X135462494Y-63275001D01*
G75*
G02*
X135549994Y-63362501I0J-87500D01*
G01*
X135549994Y-64287501D01*
G75*
G02*
X135462494Y-64375001I-87500J0D01*
G01*
X135287494Y-64375001D01*
G75*
G02*
X135199994Y-64287501I0J87500D01*
G01*
G37*
G36*
G01*
X134399994Y-64287501D02*
X134399994Y-63362501D01*
G75*
G02*
X134487494Y-63275001I87500J0D01*
G01*
X134662494Y-63275001D01*
G75*
G02*
X134749994Y-63362501I0J-87500D01*
G01*
X134749994Y-64287501D01*
G75*
G02*
X134662494Y-64375001I-87500J0D01*
G01*
X134487494Y-64375001D01*
G75*
G02*
X134399994Y-64287501I0J87500D01*
G01*
G37*
G36*
G01*
X133599994Y-64287501D02*
X133599994Y-63362501D01*
G75*
G02*
X133687494Y-63275001I87500J0D01*
G01*
X133862494Y-63275001D01*
G75*
G02*
X133949994Y-63362501I0J-87500D01*
G01*
X133949994Y-64287501D01*
G75*
G02*
X133862494Y-64375001I-87500J0D01*
G01*
X133687494Y-64375001D01*
G75*
G02*
X133599994Y-64287501I0J87500D01*
G01*
G37*
D15*
X134574994Y-65675001D03*
D16*
X98750000Y-124825000D03*
D17*
X94500000Y-123250000D03*
X103000000Y-123250000D03*
D12*
X116750000Y-69825000D03*
X116750000Y-72325000D03*
X117600000Y-69825000D03*
X117600000Y-72325000D03*
X118450000Y-69825000D03*
X118450000Y-72325000D03*
X119300000Y-69825000D03*
X119300000Y-72325000D03*
X120150000Y-69825000D03*
X120150000Y-72325000D03*
X121000000Y-69825000D03*
X121000000Y-72325000D03*
X121850000Y-69825000D03*
X121850000Y-72325000D03*
G36*
G01*
X99375001Y-96100000D02*
X98125001Y-96100000D01*
G75*
G02*
X97875001Y-95850000I0J250000D01*
G01*
X97875001Y-95225000D01*
G75*
G02*
X98125001Y-94975000I250000J0D01*
G01*
X99375001Y-94975000D01*
G75*
G02*
X99625001Y-95225000I0J-250000D01*
G01*
X99625001Y-95850000D01*
G75*
G02*
X99375001Y-96100000I-250000J0D01*
G01*
G37*
G36*
G01*
X99375001Y-93175000D02*
X98125001Y-93175000D01*
G75*
G02*
X97875001Y-92925000I0J250000D01*
G01*
X97875001Y-92300000D01*
G75*
G02*
X98125001Y-92050000I250000J0D01*
G01*
X99375001Y-92050000D01*
G75*
G02*
X99625001Y-92300000I0J-250000D01*
G01*
X99625001Y-92925000D01*
G75*
G02*
X99375001Y-93175000I-250000J0D01*
G01*
G37*
G36*
G01*
X115087499Y-110387499D02*
X115087499Y-109087499D01*
G75*
G02*
X115337499Y-108837499I250000J0D01*
G01*
X115987499Y-108837499D01*
G75*
G02*
X116237499Y-109087499I0J-250000D01*
G01*
X116237499Y-110387499D01*
G75*
G02*
X115987499Y-110637499I-250000J0D01*
G01*
X115337499Y-110637499D01*
G75*
G02*
X115087499Y-110387499I0J250000D01*
G01*
G37*
G36*
G01*
X118037501Y-110387499D02*
X118037501Y-109087499D01*
G75*
G02*
X118287501Y-108837499I250000J0D01*
G01*
X118937501Y-108837499D01*
G75*
G02*
X119187501Y-109087499I0J-250000D01*
G01*
X119187501Y-110387499D01*
G75*
G02*
X118937501Y-110637499I-250000J0D01*
G01*
X118287501Y-110637499D01*
G75*
G02*
X118037501Y-110387499I0J250000D01*
G01*
G37*
G36*
G01*
X105350000Y-84774999D02*
X106650000Y-84774999D01*
G75*
G02*
X106900000Y-85024999I0J-250000D01*
G01*
X106900000Y-85674999D01*
G75*
G02*
X106650000Y-85924999I-250000J0D01*
G01*
X105350000Y-85924999D01*
G75*
G02*
X105100000Y-85674999I0J250000D01*
G01*
X105100000Y-85024999D01*
G75*
G02*
X105350000Y-84774999I250000J0D01*
G01*
G37*
G36*
G01*
X105350000Y-87725001D02*
X106650000Y-87725001D01*
G75*
G02*
X106900000Y-87975001I0J-250000D01*
G01*
X106900000Y-88625001D01*
G75*
G02*
X106650000Y-88875001I-250000J0D01*
G01*
X105350000Y-88875001D01*
G75*
G02*
X105100000Y-88625001I0J250000D01*
G01*
X105100000Y-87975001D01*
G75*
G02*
X105350000Y-87725001I250000J0D01*
G01*
G37*
G36*
G01*
X109200000Y-113100002D02*
X107900000Y-113100002D01*
G75*
G02*
X107650000Y-112850002I0J250000D01*
G01*
X107650000Y-112200002D01*
G75*
G02*
X107900000Y-111950002I250000J0D01*
G01*
X109200000Y-111950002D01*
G75*
G02*
X109450000Y-112200002I0J-250000D01*
G01*
X109450000Y-112850002D01*
G75*
G02*
X109200000Y-113100002I-250000J0D01*
G01*
G37*
G36*
G01*
X109200000Y-110150000D02*
X107900000Y-110150000D01*
G75*
G02*
X107650000Y-109900000I0J250000D01*
G01*
X107650000Y-109250000D01*
G75*
G02*
X107900000Y-109000000I250000J0D01*
G01*
X109200000Y-109000000D01*
G75*
G02*
X109450000Y-109250000I0J-250000D01*
G01*
X109450000Y-109900000D01*
G75*
G02*
X109200000Y-110150000I-250000J0D01*
G01*
G37*
G36*
G01*
X110125000Y-92050000D02*
X111375000Y-92050000D01*
G75*
G02*
X111625000Y-92300000I0J-250000D01*
G01*
X111625000Y-92925000D01*
G75*
G02*
X111375000Y-93175000I-250000J0D01*
G01*
X110125000Y-93175000D01*
G75*
G02*
X109875000Y-92925000I0J250000D01*
G01*
X109875000Y-92300000D01*
G75*
G02*
X110125000Y-92050000I250000J0D01*
G01*
G37*
G36*
G01*
X110125000Y-94975000D02*
X111375000Y-94975000D01*
G75*
G02*
X111625000Y-95225000I0J-250000D01*
G01*
X111625000Y-95850000D01*
G75*
G02*
X111375000Y-96100000I-250000J0D01*
G01*
X110125000Y-96100000D01*
G75*
G02*
X109875000Y-95850000I0J250000D01*
G01*
X109875000Y-95225000D01*
G75*
G02*
X110125000Y-94975000I250000J0D01*
G01*
G37*
G36*
G01*
X133187494Y-54550001D02*
X132262494Y-54550001D01*
G75*
G02*
X132174994Y-54462501I0J87500D01*
G01*
X132174994Y-54287501D01*
G75*
G02*
X132262494Y-54200001I87500J0D01*
G01*
X133187494Y-54200001D01*
G75*
G02*
X133274994Y-54287501I0J-87500D01*
G01*
X133274994Y-54462501D01*
G75*
G02*
X133187494Y-54550001I-87500J0D01*
G01*
G37*
G36*
G01*
X133187494Y-55350001D02*
X132262494Y-55350001D01*
G75*
G02*
X132174994Y-55262501I0J87500D01*
G01*
X132174994Y-55087501D01*
G75*
G02*
X132262494Y-55000001I87500J0D01*
G01*
X133187494Y-55000001D01*
G75*
G02*
X133274994Y-55087501I0J-87500D01*
G01*
X133274994Y-55262501D01*
G75*
G02*
X133187494Y-55350001I-87500J0D01*
G01*
G37*
G36*
G01*
X133187494Y-56150001D02*
X132262494Y-56150001D01*
G75*
G02*
X132174994Y-56062501I0J87500D01*
G01*
X132174994Y-55887501D01*
G75*
G02*
X132262494Y-55800001I87500J0D01*
G01*
X133187494Y-55800001D01*
G75*
G02*
X133274994Y-55887501I0J-87500D01*
G01*
X133274994Y-56062501D01*
G75*
G02*
X133187494Y-56150001I-87500J0D01*
G01*
G37*
G36*
G01*
X133599994Y-57487501D02*
X133599994Y-56562501D01*
G75*
G02*
X133687494Y-56475001I87500J0D01*
G01*
X133862494Y-56475001D01*
G75*
G02*
X133949994Y-56562501I0J-87500D01*
G01*
X133949994Y-57487501D01*
G75*
G02*
X133862494Y-57575001I-87500J0D01*
G01*
X133687494Y-57575001D01*
G75*
G02*
X133599994Y-57487501I0J87500D01*
G01*
G37*
G36*
G01*
X134399994Y-57487501D02*
X134399994Y-56562501D01*
G75*
G02*
X134487494Y-56475001I87500J0D01*
G01*
X134662494Y-56475001D01*
G75*
G02*
X134749994Y-56562501I0J-87500D01*
G01*
X134749994Y-57487501D01*
G75*
G02*
X134662494Y-57575001I-87500J0D01*
G01*
X134487494Y-57575001D01*
G75*
G02*
X134399994Y-57487501I0J87500D01*
G01*
G37*
G36*
G01*
X135199994Y-57487501D02*
X135199994Y-56562501D01*
G75*
G02*
X135287494Y-56475001I87500J0D01*
G01*
X135462494Y-56475001D01*
G75*
G02*
X135549994Y-56562501I0J-87500D01*
G01*
X135549994Y-57487501D01*
G75*
G02*
X135462494Y-57575001I-87500J0D01*
G01*
X135287494Y-57575001D01*
G75*
G02*
X135199994Y-57487501I0J87500D01*
G01*
G37*
G36*
G01*
X136887494Y-56150001D02*
X135962494Y-56150001D01*
G75*
G02*
X135874994Y-56062501I0J87500D01*
G01*
X135874994Y-55887501D01*
G75*
G02*
X135962494Y-55800001I87500J0D01*
G01*
X136887494Y-55800001D01*
G75*
G02*
X136974994Y-55887501I0J-87500D01*
G01*
X136974994Y-56062501D01*
G75*
G02*
X136887494Y-56150001I-87500J0D01*
G01*
G37*
G36*
G01*
X136887494Y-55350001D02*
X135962494Y-55350001D01*
G75*
G02*
X135874994Y-55262501I0J87500D01*
G01*
X135874994Y-55087501D01*
G75*
G02*
X135962494Y-55000001I87500J0D01*
G01*
X136887494Y-55000001D01*
G75*
G02*
X136974994Y-55087501I0J-87500D01*
G01*
X136974994Y-55262501D01*
G75*
G02*
X136887494Y-55350001I-87500J0D01*
G01*
G37*
G36*
G01*
X136887494Y-54550001D02*
X135962494Y-54550001D01*
G75*
G02*
X135874994Y-54462501I0J87500D01*
G01*
X135874994Y-54287501D01*
G75*
G02*
X135962494Y-54200001I87500J0D01*
G01*
X136887494Y-54200001D01*
G75*
G02*
X136974994Y-54287501I0J-87500D01*
G01*
X136974994Y-54462501D01*
G75*
G02*
X136887494Y-54550001I-87500J0D01*
G01*
G37*
G36*
G01*
X135199994Y-53787501D02*
X135199994Y-52862501D01*
G75*
G02*
X135287494Y-52775001I87500J0D01*
G01*
X135462494Y-52775001D01*
G75*
G02*
X135549994Y-52862501I0J-87500D01*
G01*
X135549994Y-53787501D01*
G75*
G02*
X135462494Y-53875001I-87500J0D01*
G01*
X135287494Y-53875001D01*
G75*
G02*
X135199994Y-53787501I0J87500D01*
G01*
G37*
G36*
G01*
X134399994Y-53787501D02*
X134399994Y-52862501D01*
G75*
G02*
X134487494Y-52775001I87500J0D01*
G01*
X134662494Y-52775001D01*
G75*
G02*
X134749994Y-52862501I0J-87500D01*
G01*
X134749994Y-53787501D01*
G75*
G02*
X134662494Y-53875001I-87500J0D01*
G01*
X134487494Y-53875001D01*
G75*
G02*
X134399994Y-53787501I0J87500D01*
G01*
G37*
G36*
G01*
X133599994Y-53787501D02*
X133599994Y-52862501D01*
G75*
G02*
X133687494Y-52775001I87500J0D01*
G01*
X133862494Y-52775001D01*
G75*
G02*
X133949994Y-52862501I0J-87500D01*
G01*
X133949994Y-53787501D01*
G75*
G02*
X133862494Y-53875001I-87500J0D01*
G01*
X133687494Y-53875001D01*
G75*
G02*
X133599994Y-53787501I0J87500D01*
G01*
G37*
D15*
X134574994Y-55175001D03*
D13*
X157000000Y-94245000D03*
D14*
X159540000Y-94245000D03*
X157000000Y-91705000D03*
X159540000Y-91705000D03*
X157000000Y-89165001D03*
X159540000Y-89165000D03*
X157000000Y-86625000D03*
X159540000Y-86625000D03*
X157000000Y-84085000D03*
X159540000Y-84085000D03*
X157000000Y-81545000D03*
X159540000Y-81545000D03*
G36*
G01*
X151874994Y-52725001D02*
X151874994Y-51425001D01*
G75*
G02*
X152124994Y-51175001I250000J0D01*
G01*
X152774994Y-51175001D01*
G75*
G02*
X153024994Y-51425001I0J-250000D01*
G01*
X153024994Y-52725001D01*
G75*
G02*
X152774994Y-52975001I-250000J0D01*
G01*
X152124994Y-52975001D01*
G75*
G02*
X151874994Y-52725001I0J250000D01*
G01*
G37*
G36*
G01*
X154824994Y-52725001D02*
X154824994Y-51425001D01*
G75*
G02*
X155074994Y-51175001I250000J0D01*
G01*
X155724994Y-51175001D01*
G75*
G02*
X155974994Y-51425001I0J-250000D01*
G01*
X155974994Y-52725001D01*
G75*
G02*
X155724994Y-52975001I-250000J0D01*
G01*
X155074994Y-52975001D01*
G75*
G02*
X154824994Y-52725001I0J250000D01*
G01*
G37*
D12*
X158225000Y-69825000D03*
X158225000Y-72325000D03*
X159075000Y-69825000D03*
X159075000Y-72325000D03*
X159925000Y-69825000D03*
X159925000Y-72325000D03*
X160775000Y-69825000D03*
X160775000Y-72325000D03*
X161625000Y-69825000D03*
X161625000Y-72325000D03*
X162475000Y-69825000D03*
X162475000Y-72325000D03*
X163325000Y-69825000D03*
X163325000Y-72325000D03*
G36*
G01*
X118125000Y-96100000D02*
X116875000Y-96100000D01*
G75*
G02*
X116625000Y-95850000I0J250000D01*
G01*
X116625000Y-95225000D01*
G75*
G02*
X116875000Y-94975000I250000J0D01*
G01*
X118125000Y-94975000D01*
G75*
G02*
X118375000Y-95225000I0J-250000D01*
G01*
X118375000Y-95850000D01*
G75*
G02*
X118125000Y-96100000I-250000J0D01*
G01*
G37*
G36*
G01*
X118125000Y-93175000D02*
X116875000Y-93175000D01*
G75*
G02*
X116625000Y-92925000I0J250000D01*
G01*
X116625000Y-92300000D01*
G75*
G02*
X116875000Y-92050000I250000J0D01*
G01*
X118125000Y-92050000D01*
G75*
G02*
X118375000Y-92300000I0J-250000D01*
G01*
X118375000Y-92925000D01*
G75*
G02*
X118125000Y-93175000I-250000J0D01*
G01*
G37*
G36*
G01*
X144374994Y-52975001D02*
X144374994Y-51675001D01*
G75*
G02*
X144624994Y-51425001I250000J0D01*
G01*
X145274994Y-51425001D01*
G75*
G02*
X145524994Y-51675001I0J-250000D01*
G01*
X145524994Y-52975001D01*
G75*
G02*
X145274994Y-53225001I-250000J0D01*
G01*
X144624994Y-53225001D01*
G75*
G02*
X144374994Y-52975001I0J250000D01*
G01*
G37*
G36*
G01*
X147324994Y-52975001D02*
X147324994Y-51675001D01*
G75*
G02*
X147574994Y-51425001I250000J0D01*
G01*
X148224994Y-51425001D01*
G75*
G02*
X148474994Y-51675001I0J-250000D01*
G01*
X148474994Y-52975001D01*
G75*
G02*
X148224994Y-53225001I-250000J0D01*
G01*
X147574994Y-53225001D01*
G75*
G02*
X147324994Y-52975001I0J250000D01*
G01*
G37*
D18*
X168525994Y-58825001D03*
D19*
X166950994Y-63075001D03*
X166950994Y-54575001D03*
G36*
G01*
X113749994Y-63281251D02*
X113749994Y-62368751D01*
G75*
G02*
X113993744Y-62125001I243750J0D01*
G01*
X114481244Y-62125001D01*
G75*
G02*
X114724994Y-62368751I0J-243750D01*
G01*
X114724994Y-63281251D01*
G75*
G02*
X114481244Y-63525001I-243750J0D01*
G01*
X113993744Y-63525001D01*
G75*
G02*
X113749994Y-63281251I0J243750D01*
G01*
G37*
G36*
G01*
X115624994Y-63281251D02*
X115624994Y-62368751D01*
G75*
G02*
X115868744Y-62125001I243750J0D01*
G01*
X116356244Y-62125001D01*
G75*
G02*
X116599994Y-62368751I0J-243750D01*
G01*
X116599994Y-63281251D01*
G75*
G02*
X116356244Y-63525001I-243750J0D01*
G01*
X115868744Y-63525001D01*
G75*
G02*
X115624994Y-63281251I0J243750D01*
G01*
G37*
D20*
X167424994Y-58825001D03*
G36*
G01*
X140974994Y-60225001D02*
X140974994Y-61625001D01*
G75*
G02*
X140724994Y-61875001I-250000J0D01*
G01*
X140174994Y-61875001D01*
G75*
G02*
X139924994Y-61625001I0J250000D01*
G01*
X139924994Y-60225001D01*
G75*
G02*
X140174994Y-59975001I250000J0D01*
G01*
X140724994Y-59975001D01*
G75*
G02*
X140974994Y-60225001I0J-250000D01*
G01*
G37*
G36*
G01*
X137824994Y-60225001D02*
X137824994Y-61625001D01*
G75*
G02*
X137574994Y-61875001I-250000J0D01*
G01*
X137024994Y-61875001D01*
G75*
G02*
X136774994Y-61625001I0J250000D01*
G01*
X136774994Y-60225001D01*
G75*
G02*
X137024994Y-59975001I250000J0D01*
G01*
X137574994Y-59975001D01*
G75*
G02*
X137824994Y-60225001I0J-250000D01*
G01*
G37*
D21*
X100254997Y-54150002D03*
X97714997Y-54150002D03*
X92634997Y-54150002D03*
X90094997Y-54150002D03*
X92634997Y-64350002D03*
X100254997Y-64350002D03*
G36*
G01*
X94650000Y-104375001D02*
X93350000Y-104375001D01*
G75*
G02*
X93100000Y-104125001I0J250000D01*
G01*
X93100000Y-103475001D01*
G75*
G02*
X93350000Y-103225001I250000J0D01*
G01*
X94650000Y-103225001D01*
G75*
G02*
X94900000Y-103475001I0J-250000D01*
G01*
X94900000Y-104125001D01*
G75*
G02*
X94650000Y-104375001I-250000J0D01*
G01*
G37*
G36*
G01*
X94650000Y-101424999D02*
X93350000Y-101424999D01*
G75*
G02*
X93100000Y-101174999I0J250000D01*
G01*
X93100000Y-100524999D01*
G75*
G02*
X93350000Y-100274999I250000J0D01*
G01*
X94650000Y-100274999D01*
G75*
G02*
X94900000Y-100524999I0J-250000D01*
G01*
X94900000Y-101174999D01*
G75*
G02*
X94650000Y-101424999I-250000J0D01*
G01*
G37*
G36*
G01*
X105625000Y-113100000D02*
X104375000Y-113100000D01*
G75*
G02*
X104125000Y-112850000I0J250000D01*
G01*
X104125000Y-112225000D01*
G75*
G02*
X104375000Y-111975000I250000J0D01*
G01*
X105625000Y-111975000D01*
G75*
G02*
X105875000Y-112225000I0J-250000D01*
G01*
X105875000Y-112850000D01*
G75*
G02*
X105625000Y-113100000I-250000J0D01*
G01*
G37*
G36*
G01*
X105625000Y-110175000D02*
X104375000Y-110175000D01*
G75*
G02*
X104125000Y-109925000I0J250000D01*
G01*
X104125000Y-109300000D01*
G75*
G02*
X104375000Y-109050000I250000J0D01*
G01*
X105625000Y-109050000D01*
G75*
G02*
X105875000Y-109300000I0J-250000D01*
G01*
X105875000Y-109925000D01*
G75*
G02*
X105625000Y-110175000I-250000J0D01*
G01*
G37*
G36*
G01*
X161037494Y-63775001D02*
X161037494Y-64075001D01*
G75*
G02*
X160887494Y-64225001I-150000J0D01*
G01*
X159712494Y-64225001D01*
G75*
G02*
X159562494Y-64075001I0J150000D01*
G01*
X159562494Y-63775001D01*
G75*
G02*
X159712494Y-63625001I150000J0D01*
G01*
X160887494Y-63625001D01*
G75*
G02*
X161037494Y-63775001I0J-150000D01*
G01*
G37*
G36*
G01*
X161037494Y-61875001D02*
X161037494Y-62175001D01*
G75*
G02*
X160887494Y-62325001I-150000J0D01*
G01*
X159712494Y-62325001D01*
G75*
G02*
X159562494Y-62175001I0J150000D01*
G01*
X159562494Y-61875001D01*
G75*
G02*
X159712494Y-61725001I150000J0D01*
G01*
X160887494Y-61725001D01*
G75*
G02*
X161037494Y-61875001I0J-150000D01*
G01*
G37*
G36*
G01*
X159162494Y-62825001D02*
X159162494Y-63125001D01*
G75*
G02*
X159012494Y-63275001I-150000J0D01*
G01*
X157837494Y-63275001D01*
G75*
G02*
X157687494Y-63125001I0J150000D01*
G01*
X157687494Y-62825001D01*
G75*
G02*
X157837494Y-62675001I150000J0D01*
G01*
X159012494Y-62675001D01*
G75*
G02*
X159162494Y-62825001I0J-150000D01*
G01*
G37*
D22*
X94950000Y-117824999D03*
G36*
X90999999Y-115458499D02*
G01*
X94124999Y-115458499D01*
X94124999Y-115874999D01*
X95599999Y-115874999D01*
X95599999Y-116774999D01*
X94124999Y-116774999D01*
X94124999Y-117191499D01*
X90999999Y-117191499D01*
X90999999Y-115458499D01*
G37*
X94950000Y-114824999D03*
G36*
G01*
X113149994Y-57200001D02*
X113149994Y-55950001D01*
G75*
G02*
X113399994Y-55700001I250000J0D01*
G01*
X114024994Y-55700001D01*
G75*
G02*
X114274994Y-55950001I0J-250000D01*
G01*
X114274994Y-57200001D01*
G75*
G02*
X114024994Y-57450001I-250000J0D01*
G01*
X113399994Y-57450001D01*
G75*
G02*
X113149994Y-57200001I0J250000D01*
G01*
G37*
G36*
G01*
X116074994Y-57200001D02*
X116074994Y-55950001D01*
G75*
G02*
X116324994Y-55700001I250000J0D01*
G01*
X116949994Y-55700001D01*
G75*
G02*
X117199994Y-55950001I0J-250000D01*
G01*
X117199994Y-57200001D01*
G75*
G02*
X116949994Y-57450001I-250000J0D01*
G01*
X116324994Y-57450001D01*
G75*
G02*
X116074994Y-57200001I0J250000D01*
G01*
G37*
G36*
G01*
X108800001Y-76175000D02*
X108800001Y-77475000D01*
G75*
G02*
X108550001Y-77725000I-250000J0D01*
G01*
X107900001Y-77725000D01*
G75*
G02*
X107650001Y-77475000I0J250000D01*
G01*
X107650001Y-76175000D01*
G75*
G02*
X107900001Y-75925000I250000J0D01*
G01*
X108550001Y-75925000D01*
G75*
G02*
X108800001Y-76175000I0J-250000D01*
G01*
G37*
G36*
G01*
X105849999Y-76175000D02*
X105849999Y-77475000D01*
G75*
G02*
X105599999Y-77725000I-250000J0D01*
G01*
X104949999Y-77725000D01*
G75*
G02*
X104699999Y-77475000I0J250000D01*
G01*
X104699999Y-76175000D01*
G75*
G02*
X104949999Y-75925000I250000J0D01*
G01*
X105599999Y-75925000D01*
G75*
G02*
X105849999Y-76175000I0J-250000D01*
G01*
G37*
D13*
X164424994Y-50075001D03*
D14*
X161884994Y-50075001D03*
X159344994Y-50075001D03*
G36*
G01*
X102474997Y-67425002D02*
X102474997Y-68725002D01*
G75*
G02*
X102224997Y-68975002I-250000J0D01*
G01*
X101574997Y-68975002D01*
G75*
G02*
X101324997Y-68725002I0J250000D01*
G01*
X101324997Y-67425002D01*
G75*
G02*
X101574997Y-67175002I250000J0D01*
G01*
X102224997Y-67175002D01*
G75*
G02*
X102474997Y-67425002I0J-250000D01*
G01*
G37*
G36*
G01*
X99524997Y-67425002D02*
X99524997Y-68725002D01*
G75*
G02*
X99274997Y-68975002I-250000J0D01*
G01*
X98624997Y-68975002D01*
G75*
G02*
X98374997Y-68725002I0J250000D01*
G01*
X98374997Y-67425002D01*
G75*
G02*
X98624997Y-67175002I250000J0D01*
G01*
X99274997Y-67175002D01*
G75*
G02*
X99524997Y-67425002I0J-250000D01*
G01*
G37*
G36*
G01*
X108900000Y-105875001D02*
X107600000Y-105875001D01*
G75*
G02*
X107350000Y-105625001I0J250000D01*
G01*
X107350000Y-104975001D01*
G75*
G02*
X107600000Y-104725001I250000J0D01*
G01*
X108900000Y-104725001D01*
G75*
G02*
X109150000Y-104975001I0J-250000D01*
G01*
X109150000Y-105625001D01*
G75*
G02*
X108900000Y-105875001I-250000J0D01*
G01*
G37*
G36*
G01*
X108900000Y-102924999D02*
X107600000Y-102924999D01*
G75*
G02*
X107350000Y-102674999I0J250000D01*
G01*
X107350000Y-102024999D01*
G75*
G02*
X107600000Y-101774999I250000J0D01*
G01*
X108900000Y-101774999D01*
G75*
G02*
X109150000Y-102024999I0J-250000D01*
G01*
X109150000Y-102674999D01*
G75*
G02*
X108900000Y-102924999I-250000J0D01*
G01*
G37*
G36*
G01*
X104525000Y-85200000D02*
X104525000Y-86450000D01*
G75*
G02*
X104275000Y-86700000I-250000J0D01*
G01*
X103650000Y-86700000D01*
G75*
G02*
X103400000Y-86450000I0J250000D01*
G01*
X103400000Y-85200000D01*
G75*
G02*
X103650000Y-84950000I250000J0D01*
G01*
X104275000Y-84950000D01*
G75*
G02*
X104525000Y-85200000I0J-250000D01*
G01*
G37*
G36*
G01*
X101600000Y-85200000D02*
X101600000Y-86450000D01*
G75*
G02*
X101350000Y-86700000I-250000J0D01*
G01*
X100725000Y-86700000D01*
G75*
G02*
X100475000Y-86450000I0J250000D01*
G01*
X100475000Y-85200000D01*
G75*
G02*
X100725000Y-84950000I250000J0D01*
G01*
X101350000Y-84950000D01*
G75*
G02*
X101600000Y-85200000I0J-250000D01*
G01*
G37*
G36*
G01*
X110449999Y-100725000D02*
X110449999Y-99425000D01*
G75*
G02*
X110699999Y-99175000I250000J0D01*
G01*
X111349999Y-99175000D01*
G75*
G02*
X111599999Y-99425000I0J-250000D01*
G01*
X111599999Y-100725000D01*
G75*
G02*
X111349999Y-100975000I-250000J0D01*
G01*
X110699999Y-100975000D01*
G75*
G02*
X110449999Y-100725000I0J250000D01*
G01*
G37*
G36*
G01*
X113400001Y-100725000D02*
X113400001Y-99425000D01*
G75*
G02*
X113650001Y-99175000I250000J0D01*
G01*
X114300001Y-99175000D01*
G75*
G02*
X114550001Y-99425000I0J-250000D01*
G01*
X114550001Y-100725000D01*
G75*
G02*
X114300001Y-100975000I-250000J0D01*
G01*
X113650001Y-100975000D01*
G75*
G02*
X113400001Y-100725000I0J250000D01*
G01*
G37*
G36*
G01*
X138874994Y-53975001D02*
X138874994Y-52675001D01*
G75*
G02*
X139124994Y-52425001I250000J0D01*
G01*
X139774994Y-52425001D01*
G75*
G02*
X140024994Y-52675001I0J-250000D01*
G01*
X140024994Y-53975001D01*
G75*
G02*
X139774994Y-54225001I-250000J0D01*
G01*
X139124994Y-54225001D01*
G75*
G02*
X138874994Y-53975001I0J250000D01*
G01*
G37*
G36*
G01*
X141824994Y-53975001D02*
X141824994Y-52675001D01*
G75*
G02*
X142074994Y-52425001I250000J0D01*
G01*
X142724994Y-52425001D01*
G75*
G02*
X142974994Y-52675001I0J-250000D01*
G01*
X142974994Y-53975001D01*
G75*
G02*
X142724994Y-54225001I-250000J0D01*
G01*
X142074994Y-54225001D01*
G75*
G02*
X141824994Y-53975001I0J250000D01*
G01*
G37*
D13*
X159540000Y-99325000D03*
D14*
X157000000Y-99325000D03*
G36*
G01*
X91100000Y-92024999D02*
X92400000Y-92024999D01*
G75*
G02*
X92650000Y-92274999I0J-250000D01*
G01*
X92650000Y-92924999D01*
G75*
G02*
X92400000Y-93174999I-250000J0D01*
G01*
X91100000Y-93174999D01*
G75*
G02*
X90850000Y-92924999I0J250000D01*
G01*
X90850000Y-92274999D01*
G75*
G02*
X91100000Y-92024999I250000J0D01*
G01*
G37*
G36*
G01*
X91100000Y-94975001D02*
X92400000Y-94975001D01*
G75*
G02*
X92650000Y-95225001I0J-250000D01*
G01*
X92650000Y-95875001D01*
G75*
G02*
X92400000Y-96125001I-250000J0D01*
G01*
X91100000Y-96125001D01*
G75*
G02*
X90850000Y-95875001I0J250000D01*
G01*
X90850000Y-95225001D01*
G75*
G02*
X91100000Y-94975001I250000J0D01*
G01*
G37*
D13*
X112964994Y-50495001D03*
D14*
X110424994Y-50495001D03*
G36*
G01*
X91050000Y-100250001D02*
X92450000Y-100250001D01*
G75*
G02*
X92700000Y-100500001I0J-250000D01*
G01*
X92700000Y-101050001D01*
G75*
G02*
X92450000Y-101300001I-250000J0D01*
G01*
X91050000Y-101300001D01*
G75*
G02*
X90800000Y-101050001I0J250000D01*
G01*
X90800000Y-100500001D01*
G75*
G02*
X91050000Y-100250001I250000J0D01*
G01*
G37*
G36*
G01*
X91050000Y-103400001D02*
X92450000Y-103400001D01*
G75*
G02*
X92700000Y-103650001I0J-250000D01*
G01*
X92700000Y-104200001D01*
G75*
G02*
X92450000Y-104450001I-250000J0D01*
G01*
X91050000Y-104450001D01*
G75*
G02*
X90800000Y-104200001I0J250000D01*
G01*
X90800000Y-103650001D01*
G75*
G02*
X91050000Y-103400001I250000J0D01*
G01*
G37*
G36*
G01*
X108800001Y-73925000D02*
X108800001Y-75225000D01*
G75*
G02*
X108550001Y-75475000I-250000J0D01*
G01*
X107900001Y-75475000D01*
G75*
G02*
X107650001Y-75225000I0J250000D01*
G01*
X107650001Y-73925000D01*
G75*
G02*
X107900001Y-73675000I250000J0D01*
G01*
X108550001Y-73675000D01*
G75*
G02*
X108800001Y-73925000I0J-250000D01*
G01*
G37*
G36*
G01*
X105849999Y-73925000D02*
X105849999Y-75225000D01*
G75*
G02*
X105599999Y-75475000I-250000J0D01*
G01*
X104949999Y-75475000D01*
G75*
G02*
X104699999Y-75225000I0J250000D01*
G01*
X104699999Y-73925000D01*
G75*
G02*
X104949999Y-73675000I250000J0D01*
G01*
X105599999Y-73675000D01*
G75*
G02*
X105849999Y-73925000I0J-250000D01*
G01*
G37*
G36*
G01*
X94199999Y-107975000D02*
X94199999Y-106675000D01*
G75*
G02*
X94449999Y-106425000I250000J0D01*
G01*
X95099999Y-106425000D01*
G75*
G02*
X95349999Y-106675000I0J-250000D01*
G01*
X95349999Y-107975000D01*
G75*
G02*
X95099999Y-108225000I-250000J0D01*
G01*
X94449999Y-108225000D01*
G75*
G02*
X94199999Y-107975000I0J250000D01*
G01*
G37*
G36*
G01*
X97150001Y-107975000D02*
X97150001Y-106675000D01*
G75*
G02*
X97400001Y-106425000I250000J0D01*
G01*
X98050001Y-106425000D01*
G75*
G02*
X98300001Y-106675000I0J-250000D01*
G01*
X98300001Y-107975000D01*
G75*
G02*
X98050001Y-108225000I-250000J0D01*
G01*
X97400001Y-108225000D01*
G75*
G02*
X97150001Y-107975000I0J250000D01*
G01*
G37*
G36*
G01*
X139124994Y-65225001D02*
X139124994Y-63925001D01*
G75*
G02*
X139374994Y-63675001I250000J0D01*
G01*
X140024994Y-63675001D01*
G75*
G02*
X140274994Y-63925001I0J-250000D01*
G01*
X140274994Y-65225001D01*
G75*
G02*
X140024994Y-65475001I-250000J0D01*
G01*
X139374994Y-65475001D01*
G75*
G02*
X139124994Y-65225001I0J250000D01*
G01*
G37*
G36*
G01*
X142074994Y-65225001D02*
X142074994Y-63925001D01*
G75*
G02*
X142324994Y-63675001I250000J0D01*
G01*
X142974994Y-63675001D01*
G75*
G02*
X143224994Y-63925001I0J-250000D01*
G01*
X143224994Y-65225001D01*
G75*
G02*
X142974994Y-65475001I-250000J0D01*
G01*
X142324994Y-65475001D01*
G75*
G02*
X142074994Y-65225001I0J250000D01*
G01*
G37*
G36*
G01*
X101949999Y-96175000D02*
X100549999Y-96175000D01*
G75*
G02*
X100299999Y-95925000I0J250000D01*
G01*
X100299999Y-95375000D01*
G75*
G02*
X100549999Y-95125000I250000J0D01*
G01*
X101949999Y-95125000D01*
G75*
G02*
X102199999Y-95375000I0J-250000D01*
G01*
X102199999Y-95925000D01*
G75*
G02*
X101949999Y-96175000I-250000J0D01*
G01*
G37*
G36*
G01*
X101949999Y-93025000D02*
X100549999Y-93025000D01*
G75*
G02*
X100299999Y-92775000I0J250000D01*
G01*
X100299999Y-92225000D01*
G75*
G02*
X100549999Y-91975000I250000J0D01*
G01*
X101949999Y-91975000D01*
G75*
G02*
X102199999Y-92225000I0J-250000D01*
G01*
X102199999Y-92775000D01*
G75*
G02*
X101949999Y-93025000I-250000J0D01*
G01*
G37*
G36*
G01*
X119350001Y-92024999D02*
X120650001Y-92024999D01*
G75*
G02*
X120900001Y-92274999I0J-250000D01*
G01*
X120900001Y-92924999D01*
G75*
G02*
X120650001Y-93174999I-250000J0D01*
G01*
X119350001Y-93174999D01*
G75*
G02*
X119100001Y-92924999I0J250000D01*
G01*
X119100001Y-92274999D01*
G75*
G02*
X119350001Y-92024999I250000J0D01*
G01*
G37*
G36*
G01*
X119350001Y-94975001D02*
X120650001Y-94975001D01*
G75*
G02*
X120900001Y-95225001I0J-250000D01*
G01*
X120900001Y-95875001D01*
G75*
G02*
X120650001Y-96125001I-250000J0D01*
G01*
X119350001Y-96125001D01*
G75*
G02*
X119100001Y-95875001I0J250000D01*
G01*
X119100001Y-95225001D01*
G75*
G02*
X119350001Y-94975001I250000J0D01*
G01*
G37*
D20*
X98750000Y-124075000D03*
G36*
G01*
X86050000Y-91975000D02*
X87450000Y-91975000D01*
G75*
G02*
X87700000Y-92225000I0J-250000D01*
G01*
X87700000Y-92775000D01*
G75*
G02*
X87450000Y-93025000I-250000J0D01*
G01*
X86050000Y-93025000D01*
G75*
G02*
X85800000Y-92775000I0J250000D01*
G01*
X85800000Y-92225000D01*
G75*
G02*
X86050000Y-91975000I250000J0D01*
G01*
G37*
G36*
G01*
X86050000Y-95125000D02*
X87450000Y-95125000D01*
G75*
G02*
X87700000Y-95375000I0J-250000D01*
G01*
X87700000Y-95925000D01*
G75*
G02*
X87450000Y-96175000I-250000J0D01*
G01*
X86050000Y-96175000D01*
G75*
G02*
X85800000Y-95925000I0J250000D01*
G01*
X85800000Y-95375000D01*
G75*
G02*
X86050000Y-95125000I250000J0D01*
G01*
G37*
G36*
G01*
X148812994Y-56245001D02*
X147612994Y-56245001D01*
G75*
G02*
X147450494Y-56082501I0J162500D01*
G01*
X147450494Y-55757501D01*
G75*
G02*
X147612994Y-55595001I162500J0D01*
G01*
X148812994Y-55595001D01*
G75*
G02*
X148975494Y-55757501I0J-162500D01*
G01*
X148975494Y-56082501D01*
G75*
G02*
X148812994Y-56245001I-162500J0D01*
G01*
G37*
G36*
G01*
X148812994Y-57515001D02*
X147612994Y-57515001D01*
G75*
G02*
X147450494Y-57352501I0J162500D01*
G01*
X147450494Y-57027501D01*
G75*
G02*
X147612994Y-56865001I162500J0D01*
G01*
X148812994Y-56865001D01*
G75*
G02*
X148975494Y-57027501I0J-162500D01*
G01*
X148975494Y-57352501D01*
G75*
G02*
X148812994Y-57515001I-162500J0D01*
G01*
G37*
G36*
G01*
X148812994Y-58785001D02*
X147612994Y-58785001D01*
G75*
G02*
X147450494Y-58622501I0J162500D01*
G01*
X147450494Y-58297501D01*
G75*
G02*
X147612994Y-58135001I162500J0D01*
G01*
X148812994Y-58135001D01*
G75*
G02*
X148975494Y-58297501I0J-162500D01*
G01*
X148975494Y-58622501D01*
G75*
G02*
X148812994Y-58785001I-162500J0D01*
G01*
G37*
G36*
G01*
X148812994Y-60055001D02*
X147612994Y-60055001D01*
G75*
G02*
X147450494Y-59892501I0J162500D01*
G01*
X147450494Y-59567501D01*
G75*
G02*
X147612994Y-59405001I162500J0D01*
G01*
X148812994Y-59405001D01*
G75*
G02*
X148975494Y-59567501I0J-162500D01*
G01*
X148975494Y-59892501D01*
G75*
G02*
X148812994Y-60055001I-162500J0D01*
G01*
G37*
G36*
G01*
X154236994Y-60055001D02*
X153036994Y-60055001D01*
G75*
G02*
X152874494Y-59892501I0J162500D01*
G01*
X152874494Y-59567501D01*
G75*
G02*
X153036994Y-59405001I162500J0D01*
G01*
X154236994Y-59405001D01*
G75*
G02*
X154399494Y-59567501I0J-162500D01*
G01*
X154399494Y-59892501D01*
G75*
G02*
X154236994Y-60055001I-162500J0D01*
G01*
G37*
G36*
G01*
X154236994Y-58785001D02*
X153036994Y-58785001D01*
G75*
G02*
X152874494Y-58622501I0J162500D01*
G01*
X152874494Y-58297501D01*
G75*
G02*
X153036994Y-58135001I162500J0D01*
G01*
X154236994Y-58135001D01*
G75*
G02*
X154399494Y-58297501I0J-162500D01*
G01*
X154399494Y-58622501D01*
G75*
G02*
X154236994Y-58785001I-162500J0D01*
G01*
G37*
G36*
G01*
X154236994Y-57515001D02*
X153036994Y-57515001D01*
G75*
G02*
X152874494Y-57352501I0J162500D01*
G01*
X152874494Y-57027501D01*
G75*
G02*
X153036994Y-56865001I162500J0D01*
G01*
X154236994Y-56865001D01*
G75*
G02*
X154399494Y-57027501I0J-162500D01*
G01*
X154399494Y-57352501D01*
G75*
G02*
X154236994Y-57515001I-162500J0D01*
G01*
G37*
G36*
G01*
X154236994Y-56245001D02*
X153036994Y-56245001D01*
G75*
G02*
X152874494Y-56082501I0J162500D01*
G01*
X152874494Y-55757501D01*
G75*
G02*
X153036994Y-55595001I162500J0D01*
G01*
X154236994Y-55595001D01*
G75*
G02*
X154399494Y-55757501I0J-162500D01*
G01*
X154399494Y-56082501D01*
G75*
G02*
X154236994Y-56245001I-162500J0D01*
G01*
G37*
G36*
G01*
X88600000Y-92024999D02*
X89900000Y-92024999D01*
G75*
G02*
X90150000Y-92274999I0J-250000D01*
G01*
X90150000Y-92924999D01*
G75*
G02*
X89900000Y-93174999I-250000J0D01*
G01*
X88600000Y-93174999D01*
G75*
G02*
X88350000Y-92924999I0J250000D01*
G01*
X88350000Y-92274999D01*
G75*
G02*
X88600000Y-92024999I250000J0D01*
G01*
G37*
G36*
G01*
X88600000Y-94975001D02*
X89900000Y-94975001D01*
G75*
G02*
X90150000Y-95225001I0J-250000D01*
G01*
X90150000Y-95875001D01*
G75*
G02*
X89900000Y-96125001I-250000J0D01*
G01*
X88600000Y-96125001D01*
G75*
G02*
X88350000Y-95875001I0J250000D01*
G01*
X88350000Y-95225001D01*
G75*
G02*
X88600000Y-94975001I250000J0D01*
G01*
G37*
G36*
G01*
X93625000Y-92050000D02*
X94875000Y-92050000D01*
G75*
G02*
X95125000Y-92300000I0J-250000D01*
G01*
X95125000Y-92925000D01*
G75*
G02*
X94875000Y-93175000I-250000J0D01*
G01*
X93625000Y-93175000D01*
G75*
G02*
X93375000Y-92925000I0J250000D01*
G01*
X93375000Y-92300000D01*
G75*
G02*
X93625000Y-92050000I250000J0D01*
G01*
G37*
G36*
G01*
X93625000Y-94975000D02*
X94875000Y-94975000D01*
G75*
G02*
X95125000Y-95225000I0J-250000D01*
G01*
X95125000Y-95850000D01*
G75*
G02*
X94875000Y-96100000I-250000J0D01*
G01*
X93625000Y-96100000D01*
G75*
G02*
X93375000Y-95850000I0J250000D01*
G01*
X93375000Y-95225000D01*
G75*
G02*
X93625000Y-94975000I250000J0D01*
G01*
G37*
D13*
X159540000Y-122195000D03*
D14*
X157000000Y-122195000D03*
D13*
X110424994Y-68275001D03*
D14*
X110424994Y-65735001D03*
X110424994Y-63195001D03*
X110424994Y-60655001D03*
X110424994Y-58115001D03*
X110424994Y-55575001D03*
D13*
X159344994Y-68075001D03*
D14*
X161884994Y-68075001D03*
D23*
X95700000Y-110374999D03*
X93800000Y-110374999D03*
X94750000Y-112775000D03*
D24*
X138525000Y-74575000D03*
D25*
X138825000Y-77605000D03*
X143675000Y-77605000D03*
D24*
X143975000Y-74575000D03*
G36*
G01*
X129710000Y-74870000D02*
X129710000Y-74020000D01*
G75*
G02*
X130135000Y-73595000I425000J0D01*
G01*
X132785000Y-73595000D01*
G75*
G02*
X133210000Y-74020000I0J-425000D01*
G01*
X133210000Y-74870000D01*
G75*
G02*
X132785000Y-75295000I-425000J0D01*
G01*
X130135000Y-75295000D01*
G75*
G02*
X129710000Y-74870000I0J425000D01*
G01*
G37*
G36*
G01*
X129710000Y-77410000D02*
X129710000Y-76560000D01*
G75*
G02*
X130135000Y-76135000I425000J0D01*
G01*
X132785000Y-76135000D01*
G75*
G02*
X133210000Y-76560000I0J-425000D01*
G01*
X133210000Y-77410000D01*
G75*
G02*
X132785000Y-77835000I-425000J0D01*
G01*
X130135000Y-77835000D01*
G75*
G02*
X129710000Y-77410000I0J425000D01*
G01*
G37*
G36*
G01*
X129710000Y-79950000D02*
X129710000Y-79100000D01*
G75*
G02*
X130135000Y-78675000I425000J0D01*
G01*
X132785000Y-78675000D01*
G75*
G02*
X133210000Y-79100000I0J-425000D01*
G01*
X133210000Y-79950000D01*
G75*
G02*
X132785000Y-80375000I-425000J0D01*
G01*
X130135000Y-80375000D01*
G75*
G02*
X129710000Y-79950000I0J425000D01*
G01*
G37*
G36*
G01*
X129710000Y-82490000D02*
X129710000Y-81640000D01*
G75*
G02*
X130135000Y-81215000I425000J0D01*
G01*
X132785000Y-81215000D01*
G75*
G02*
X133210000Y-81640000I0J-425000D01*
G01*
X133210000Y-82490000D01*
G75*
G02*
X132785000Y-82915000I-425000J0D01*
G01*
X130135000Y-82915000D01*
G75*
G02*
X129710000Y-82490000I0J425000D01*
G01*
G37*
G36*
G01*
X129710000Y-85030000D02*
X129710000Y-84180000D01*
G75*
G02*
X130135000Y-83755000I425000J0D01*
G01*
X132785000Y-83755000D01*
G75*
G02*
X133210000Y-84180000I0J-425000D01*
G01*
X133210000Y-85030000D01*
G75*
G02*
X132785000Y-85455000I-425000J0D01*
G01*
X130135000Y-85455000D01*
G75*
G02*
X129710000Y-85030000I0J425000D01*
G01*
G37*
G36*
G01*
X129710000Y-87570000D02*
X129710000Y-86720000D01*
G75*
G02*
X130135000Y-86295000I425000J0D01*
G01*
X132785000Y-86295000D01*
G75*
G02*
X133210000Y-86720000I0J-425000D01*
G01*
X133210000Y-87570000D01*
G75*
G02*
X132785000Y-87995000I-425000J0D01*
G01*
X130135000Y-87995000D01*
G75*
G02*
X129710000Y-87570000I0J425000D01*
G01*
G37*
G36*
G01*
X129710000Y-90110000D02*
X129710000Y-89260000D01*
G75*
G02*
X130135000Y-88835000I425000J0D01*
G01*
X132785000Y-88835000D01*
G75*
G02*
X133210000Y-89260000I0J-425000D01*
G01*
X133210000Y-90110000D01*
G75*
G02*
X132785000Y-90535000I-425000J0D01*
G01*
X130135000Y-90535000D01*
G75*
G02*
X129710000Y-90110000I0J425000D01*
G01*
G37*
G36*
G01*
X129710000Y-92650000D02*
X129710000Y-91800000D01*
G75*
G02*
X130135000Y-91375000I425000J0D01*
G01*
X132785000Y-91375000D01*
G75*
G02*
X133210000Y-91800000I0J-425000D01*
G01*
X133210000Y-92650000D01*
G75*
G02*
X132785000Y-93075000I-425000J0D01*
G01*
X130135000Y-93075000D01*
G75*
G02*
X129710000Y-92650000I0J425000D01*
G01*
G37*
G36*
G01*
X129710000Y-95190000D02*
X129710000Y-94340000D01*
G75*
G02*
X130135000Y-93915000I425000J0D01*
G01*
X132785000Y-93915000D01*
G75*
G02*
X133210000Y-94340000I0J-425000D01*
G01*
X133210000Y-95190000D01*
G75*
G02*
X132785000Y-95615000I-425000J0D01*
G01*
X130135000Y-95615000D01*
G75*
G02*
X129710000Y-95190000I0J425000D01*
G01*
G37*
G36*
G01*
X129710000Y-97730000D02*
X129710000Y-96880000D01*
G75*
G02*
X130135000Y-96455000I425000J0D01*
G01*
X132785000Y-96455000D01*
G75*
G02*
X133210000Y-96880000I0J-425000D01*
G01*
X133210000Y-97730000D01*
G75*
G02*
X132785000Y-98155000I-425000J0D01*
G01*
X130135000Y-98155000D01*
G75*
G02*
X129710000Y-97730000I0J425000D01*
G01*
G37*
G36*
G01*
X129710000Y-100270000D02*
X129710000Y-99420000D01*
G75*
G02*
X130135000Y-98995000I425000J0D01*
G01*
X132785000Y-98995000D01*
G75*
G02*
X133210000Y-99420000I0J-425000D01*
G01*
X133210000Y-100270000D01*
G75*
G02*
X132785000Y-100695000I-425000J0D01*
G01*
X130135000Y-100695000D01*
G75*
G02*
X129710000Y-100270000I0J425000D01*
G01*
G37*
G36*
G01*
X129710000Y-102810000D02*
X129710000Y-101960000D01*
G75*
G02*
X130135000Y-101535000I425000J0D01*
G01*
X132785000Y-101535000D01*
G75*
G02*
X133210000Y-101960000I0J-425000D01*
G01*
X133210000Y-102810000D01*
G75*
G02*
X132785000Y-103235000I-425000J0D01*
G01*
X130135000Y-103235000D01*
G75*
G02*
X129710000Y-102810000I0J425000D01*
G01*
G37*
G36*
G01*
X129710000Y-105350000D02*
X129710000Y-104500000D01*
G75*
G02*
X130135000Y-104075000I425000J0D01*
G01*
X132785000Y-104075000D01*
G75*
G02*
X133210000Y-104500000I0J-425000D01*
G01*
X133210000Y-105350000D01*
G75*
G02*
X132785000Y-105775000I-425000J0D01*
G01*
X130135000Y-105775000D01*
G75*
G02*
X129710000Y-105350000I0J425000D01*
G01*
G37*
G36*
G01*
X129710000Y-107890000D02*
X129710000Y-107040000D01*
G75*
G02*
X130135000Y-106615000I425000J0D01*
G01*
X132785000Y-106615000D01*
G75*
G02*
X133210000Y-107040000I0J-425000D01*
G01*
X133210000Y-107890000D01*
G75*
G02*
X132785000Y-108315000I-425000J0D01*
G01*
X130135000Y-108315000D01*
G75*
G02*
X129710000Y-107890000I0J425000D01*
G01*
G37*
G36*
G01*
X129710000Y-110430000D02*
X129710000Y-109580000D01*
G75*
G02*
X130135000Y-109155000I425000J0D01*
G01*
X132785000Y-109155000D01*
G75*
G02*
X133210000Y-109580000I0J-425000D01*
G01*
X133210000Y-110430000D01*
G75*
G02*
X132785000Y-110855000I-425000J0D01*
G01*
X130135000Y-110855000D01*
G75*
G02*
X129710000Y-110430000I0J425000D01*
G01*
G37*
G36*
G01*
X129710000Y-112970000D02*
X129710000Y-112120000D01*
G75*
G02*
X130135000Y-111695000I425000J0D01*
G01*
X132785000Y-111695000D01*
G75*
G02*
X133210000Y-112120000I0J-425000D01*
G01*
X133210000Y-112970000D01*
G75*
G02*
X132785000Y-113395000I-425000J0D01*
G01*
X130135000Y-113395000D01*
G75*
G02*
X129710000Y-112970000I0J425000D01*
G01*
G37*
G36*
G01*
X129710000Y-115510000D02*
X129710000Y-114660000D01*
G75*
G02*
X130135000Y-114235000I425000J0D01*
G01*
X132785000Y-114235000D01*
G75*
G02*
X133210000Y-114660000I0J-425000D01*
G01*
X133210000Y-115510000D01*
G75*
G02*
X132785000Y-115935000I-425000J0D01*
G01*
X130135000Y-115935000D01*
G75*
G02*
X129710000Y-115510000I0J425000D01*
G01*
G37*
G36*
G01*
X129710000Y-118050000D02*
X129710000Y-117200000D01*
G75*
G02*
X130135000Y-116775000I425000J0D01*
G01*
X132785000Y-116775000D01*
G75*
G02*
X133210000Y-117200000I0J-425000D01*
G01*
X133210000Y-118050000D01*
G75*
G02*
X132785000Y-118475000I-425000J0D01*
G01*
X130135000Y-118475000D01*
G75*
G02*
X129710000Y-118050000I0J425000D01*
G01*
G37*
G36*
G01*
X129710000Y-120590000D02*
X129710000Y-119740000D01*
G75*
G02*
X130135000Y-119315000I425000J0D01*
G01*
X132785000Y-119315000D01*
G75*
G02*
X133210000Y-119740000I0J-425000D01*
G01*
X133210000Y-120590000D01*
G75*
G02*
X132785000Y-121015000I-425000J0D01*
G01*
X130135000Y-121015000D01*
G75*
G02*
X129710000Y-120590000I0J425000D01*
G01*
G37*
G36*
G01*
X129710000Y-123130000D02*
X129710000Y-122280000D01*
G75*
G02*
X130135000Y-121855000I425000J0D01*
G01*
X132785000Y-121855000D01*
G75*
G02*
X133210000Y-122280000I0J-425000D01*
G01*
X133210000Y-123130000D01*
G75*
G02*
X132785000Y-123555000I-425000J0D01*
G01*
X130135000Y-123555000D01*
G75*
G02*
X129710000Y-123130000I0J425000D01*
G01*
G37*
G36*
G01*
X149290000Y-123130000D02*
X149290000Y-122280000D01*
G75*
G02*
X149715000Y-121855000I425000J0D01*
G01*
X152365000Y-121855000D01*
G75*
G02*
X152790000Y-122280000I0J-425000D01*
G01*
X152790000Y-123130000D01*
G75*
G02*
X152365000Y-123555000I-425000J0D01*
G01*
X149715000Y-123555000D01*
G75*
G02*
X149290000Y-123130000I0J425000D01*
G01*
G37*
G36*
G01*
X149290000Y-120590000D02*
X149290000Y-119740000D01*
G75*
G02*
X149715000Y-119315000I425000J0D01*
G01*
X152365000Y-119315000D01*
G75*
G02*
X152790000Y-119740000I0J-425000D01*
G01*
X152790000Y-120590000D01*
G75*
G02*
X152365000Y-121015000I-425000J0D01*
G01*
X149715000Y-121015000D01*
G75*
G02*
X149290000Y-120590000I0J425000D01*
G01*
G37*
G36*
G01*
X149290000Y-118050000D02*
X149290000Y-117200000D01*
G75*
G02*
X149715000Y-116775000I425000J0D01*
G01*
X152365000Y-116775000D01*
G75*
G02*
X152790000Y-117200000I0J-425000D01*
G01*
X152790000Y-118050000D01*
G75*
G02*
X152365000Y-118475000I-425000J0D01*
G01*
X149715000Y-118475000D01*
G75*
G02*
X149290000Y-118050000I0J425000D01*
G01*
G37*
G36*
G01*
X149290000Y-115510000D02*
X149290000Y-114660000D01*
G75*
G02*
X149715000Y-114235000I425000J0D01*
G01*
X152365000Y-114235000D01*
G75*
G02*
X152790000Y-114660000I0J-425000D01*
G01*
X152790000Y-115510000D01*
G75*
G02*
X152365000Y-115935000I-425000J0D01*
G01*
X149715000Y-115935000D01*
G75*
G02*
X149290000Y-115510000I0J425000D01*
G01*
G37*
G36*
G01*
X149290000Y-112970000D02*
X149290000Y-112120000D01*
G75*
G02*
X149715000Y-111695000I425000J0D01*
G01*
X152365000Y-111695000D01*
G75*
G02*
X152790000Y-112120000I0J-425000D01*
G01*
X152790000Y-112970000D01*
G75*
G02*
X152365000Y-113395000I-425000J0D01*
G01*
X149715000Y-113395000D01*
G75*
G02*
X149290000Y-112970000I0J425000D01*
G01*
G37*
G36*
G01*
X149290000Y-110430000D02*
X149290000Y-109580000D01*
G75*
G02*
X149715000Y-109155000I425000J0D01*
G01*
X152365000Y-109155000D01*
G75*
G02*
X152790000Y-109580000I0J-425000D01*
G01*
X152790000Y-110430000D01*
G75*
G02*
X152365000Y-110855000I-425000J0D01*
G01*
X149715000Y-110855000D01*
G75*
G02*
X149290000Y-110430000I0J425000D01*
G01*
G37*
G36*
G01*
X149290000Y-107890000D02*
X149290000Y-107040000D01*
G75*
G02*
X149715000Y-106615000I425000J0D01*
G01*
X152365000Y-106615000D01*
G75*
G02*
X152790000Y-107040000I0J-425000D01*
G01*
X152790000Y-107890000D01*
G75*
G02*
X152365000Y-108315000I-425000J0D01*
G01*
X149715000Y-108315000D01*
G75*
G02*
X149290000Y-107890000I0J425000D01*
G01*
G37*
G36*
G01*
X149290000Y-105350000D02*
X149290000Y-104500000D01*
G75*
G02*
X149715000Y-104075000I425000J0D01*
G01*
X152365000Y-104075000D01*
G75*
G02*
X152790000Y-104500000I0J-425000D01*
G01*
X152790000Y-105350000D01*
G75*
G02*
X152365000Y-105775000I-425000J0D01*
G01*
X149715000Y-105775000D01*
G75*
G02*
X149290000Y-105350000I0J425000D01*
G01*
G37*
G36*
G01*
X149290000Y-102810000D02*
X149290000Y-101960000D01*
G75*
G02*
X149715000Y-101535000I425000J0D01*
G01*
X152365000Y-101535000D01*
G75*
G02*
X152790000Y-101960000I0J-425000D01*
G01*
X152790000Y-102810000D01*
G75*
G02*
X152365000Y-103235000I-425000J0D01*
G01*
X149715000Y-103235000D01*
G75*
G02*
X149290000Y-102810000I0J425000D01*
G01*
G37*
G36*
G01*
X149290000Y-100270000D02*
X149290000Y-99420000D01*
G75*
G02*
X149715000Y-98995000I425000J0D01*
G01*
X152365000Y-98995000D01*
G75*
G02*
X152790000Y-99420000I0J-425000D01*
G01*
X152790000Y-100270000D01*
G75*
G02*
X152365000Y-100695000I-425000J0D01*
G01*
X149715000Y-100695000D01*
G75*
G02*
X149290000Y-100270000I0J425000D01*
G01*
G37*
G36*
G01*
X149290000Y-97730000D02*
X149290000Y-96880000D01*
G75*
G02*
X149715000Y-96455000I425000J0D01*
G01*
X152365000Y-96455000D01*
G75*
G02*
X152790000Y-96880000I0J-425000D01*
G01*
X152790000Y-97730000D01*
G75*
G02*
X152365000Y-98155000I-425000J0D01*
G01*
X149715000Y-98155000D01*
G75*
G02*
X149290000Y-97730000I0J425000D01*
G01*
G37*
G36*
G01*
X149290000Y-95190000D02*
X149290000Y-94340000D01*
G75*
G02*
X149715000Y-93915000I425000J0D01*
G01*
X152365000Y-93915000D01*
G75*
G02*
X152790000Y-94340000I0J-425000D01*
G01*
X152790000Y-95190000D01*
G75*
G02*
X152365000Y-95615000I-425000J0D01*
G01*
X149715000Y-95615000D01*
G75*
G02*
X149290000Y-95190000I0J425000D01*
G01*
G37*
G36*
G01*
X149290000Y-92650000D02*
X149290000Y-91800000D01*
G75*
G02*
X149715000Y-91375000I425000J0D01*
G01*
X152365000Y-91375000D01*
G75*
G02*
X152790000Y-91800000I0J-425000D01*
G01*
X152790000Y-92650000D01*
G75*
G02*
X152365000Y-93075000I-425000J0D01*
G01*
X149715000Y-93075000D01*
G75*
G02*
X149290000Y-92650000I0J425000D01*
G01*
G37*
G36*
G01*
X149290000Y-90110000D02*
X149290000Y-89260000D01*
G75*
G02*
X149715000Y-88835000I425000J0D01*
G01*
X152365000Y-88835000D01*
G75*
G02*
X152790000Y-89260000I0J-425000D01*
G01*
X152790000Y-90110000D01*
G75*
G02*
X152365000Y-90535000I-425000J0D01*
G01*
X149715000Y-90535000D01*
G75*
G02*
X149290000Y-90110000I0J425000D01*
G01*
G37*
G36*
G01*
X149290000Y-87570000D02*
X149290000Y-86720000D01*
G75*
G02*
X149715000Y-86295000I425000J0D01*
G01*
X152365000Y-86295000D01*
G75*
G02*
X152790000Y-86720000I0J-425000D01*
G01*
X152790000Y-87570000D01*
G75*
G02*
X152365000Y-87995000I-425000J0D01*
G01*
X149715000Y-87995000D01*
G75*
G02*
X149290000Y-87570000I0J425000D01*
G01*
G37*
G36*
G01*
X149290000Y-85030000D02*
X149290000Y-84180000D01*
G75*
G02*
X149715000Y-83755000I425000J0D01*
G01*
X152365000Y-83755000D01*
G75*
G02*
X152790000Y-84180000I0J-425000D01*
G01*
X152790000Y-85030000D01*
G75*
G02*
X152365000Y-85455000I-425000J0D01*
G01*
X149715000Y-85455000D01*
G75*
G02*
X149290000Y-85030000I0J425000D01*
G01*
G37*
G36*
G01*
X149290000Y-82490000D02*
X149290000Y-81640000D01*
G75*
G02*
X149715000Y-81215000I425000J0D01*
G01*
X152365000Y-81215000D01*
G75*
G02*
X152790000Y-81640000I0J-425000D01*
G01*
X152790000Y-82490000D01*
G75*
G02*
X152365000Y-82915000I-425000J0D01*
G01*
X149715000Y-82915000D01*
G75*
G02*
X149290000Y-82490000I0J425000D01*
G01*
G37*
G36*
G01*
X149290000Y-79950000D02*
X149290000Y-79100000D01*
G75*
G02*
X149715000Y-78675000I425000J0D01*
G01*
X152365000Y-78675000D01*
G75*
G02*
X152790000Y-79100000I0J-425000D01*
G01*
X152790000Y-79950000D01*
G75*
G02*
X152365000Y-80375000I-425000J0D01*
G01*
X149715000Y-80375000D01*
G75*
G02*
X149290000Y-79950000I0J425000D01*
G01*
G37*
G36*
G01*
X149290000Y-77410000D02*
X149290000Y-76560000D01*
G75*
G02*
X149715000Y-76135000I425000J0D01*
G01*
X152365000Y-76135000D01*
G75*
G02*
X152790000Y-76560000I0J-425000D01*
G01*
X152790000Y-77410000D01*
G75*
G02*
X152365000Y-77835000I-425000J0D01*
G01*
X149715000Y-77835000D01*
G75*
G02*
X149290000Y-77410000I0J425000D01*
G01*
G37*
G36*
G01*
X149290000Y-74870000D02*
X149290000Y-74020000D01*
G75*
G02*
X149715000Y-73595000I425000J0D01*
G01*
X152365000Y-73595000D01*
G75*
G02*
X152790000Y-74020000I0J-425000D01*
G01*
X152790000Y-74870000D01*
G75*
G02*
X152365000Y-75295000I-425000J0D01*
G01*
X149715000Y-75295000D01*
G75*
G02*
X149290000Y-74870000I0J425000D01*
G01*
G37*
G36*
G01*
X139135000Y-125125000D02*
X138285000Y-125125000D01*
G75*
G02*
X137860000Y-124700000I0J425000D01*
G01*
X137860000Y-122050000D01*
G75*
G02*
X138285000Y-121625000I425000J0D01*
G01*
X139135000Y-121625000D01*
G75*
G02*
X139560000Y-122050000I0J-425000D01*
G01*
X139560000Y-124700000D01*
G75*
G02*
X139135000Y-125125000I-425000J0D01*
G01*
G37*
G36*
G01*
X141675000Y-125125000D02*
X140825000Y-125125000D01*
G75*
G02*
X140400000Y-124700000I0J425000D01*
G01*
X140400000Y-122050000D01*
G75*
G02*
X140825000Y-121625000I425000J0D01*
G01*
X141675000Y-121625000D01*
G75*
G02*
X142100000Y-122050000I0J-425000D01*
G01*
X142100000Y-124700000D01*
G75*
G02*
X141675000Y-125125000I-425000J0D01*
G01*
G37*
G36*
G01*
X144215000Y-125125000D02*
X143365000Y-125125000D01*
G75*
G02*
X142940000Y-124700000I0J425000D01*
G01*
X142940000Y-122050000D01*
G75*
G02*
X143365000Y-121625000I425000J0D01*
G01*
X144215000Y-121625000D01*
G75*
G02*
X144640000Y-122050000I0J-425000D01*
G01*
X144640000Y-124700000D01*
G75*
G02*
X144215000Y-125125000I-425000J0D01*
G01*
G37*
G36*
G01*
X115049994Y-49850001D02*
X115049994Y-48600001D01*
G75*
G02*
X115299994Y-48350001I250000J0D01*
G01*
X115924994Y-48350001D01*
G75*
G02*
X116174994Y-48600001I0J-250000D01*
G01*
X116174994Y-49850001D01*
G75*
G02*
X115924994Y-50100001I-250000J0D01*
G01*
X115299994Y-50100001D01*
G75*
G02*
X115049994Y-49850001I0J250000D01*
G01*
G37*
G36*
G01*
X117974994Y-49850001D02*
X117974994Y-48600001D01*
G75*
G02*
X118224994Y-48350001I250000J0D01*
G01*
X118849994Y-48350001D01*
G75*
G02*
X119099994Y-48600001I0J-250000D01*
G01*
X119099994Y-49850001D01*
G75*
G02*
X118849994Y-50100001I-250000J0D01*
G01*
X118224994Y-50100001D01*
G75*
G02*
X117974994Y-49850001I0J250000D01*
G01*
G37*
G36*
G01*
X127424994Y-53825001D02*
X128724994Y-53825001D01*
G75*
G02*
X128974994Y-54075001I0J-250000D01*
G01*
X128974994Y-54725001D01*
G75*
G02*
X128724994Y-54975001I-250000J0D01*
G01*
X127424994Y-54975001D01*
G75*
G02*
X127174994Y-54725001I0J250000D01*
G01*
X127174994Y-54075001D01*
G75*
G02*
X127424994Y-53825001I250000J0D01*
G01*
G37*
G36*
G01*
X127424994Y-56775001D02*
X128724994Y-56775001D01*
G75*
G02*
X128974994Y-57025001I0J-250000D01*
G01*
X128974994Y-57675001D01*
G75*
G02*
X128724994Y-57925001I-250000J0D01*
G01*
X127424994Y-57925001D01*
G75*
G02*
X127174994Y-57675001I0J250000D01*
G01*
X127174994Y-57025001D01*
G75*
G02*
X127424994Y-56775001I250000J0D01*
G01*
G37*
G36*
G01*
X84274997Y-54525002D02*
X85574997Y-54525002D01*
G75*
G02*
X85824997Y-54775002I0J-250000D01*
G01*
X85824997Y-55425002D01*
G75*
G02*
X85574997Y-55675002I-250000J0D01*
G01*
X84274997Y-55675002D01*
G75*
G02*
X84024997Y-55425002I0J250000D01*
G01*
X84024997Y-54775002D01*
G75*
G02*
X84274997Y-54525002I250000J0D01*
G01*
G37*
G36*
G01*
X84274997Y-57475002D02*
X85574997Y-57475002D01*
G75*
G02*
X85824997Y-57725002I0J-250000D01*
G01*
X85824997Y-58375002D01*
G75*
G02*
X85574997Y-58625002I-250000J0D01*
G01*
X84274997Y-58625002D01*
G75*
G02*
X84024997Y-58375002I0J250000D01*
G01*
X84024997Y-57725002D01*
G75*
G02*
X84274997Y-57475002I250000J0D01*
G01*
G37*
G36*
G01*
X108800001Y-78425000D02*
X108800001Y-79725000D01*
G75*
G02*
X108550001Y-79975000I-250000J0D01*
G01*
X107900001Y-79975000D01*
G75*
G02*
X107650001Y-79725000I0J250000D01*
G01*
X107650001Y-78425000D01*
G75*
G02*
X107900001Y-78175000I250000J0D01*
G01*
X108550001Y-78175000D01*
G75*
G02*
X108800001Y-78425000I0J-250000D01*
G01*
G37*
G36*
G01*
X105849999Y-78425000D02*
X105849999Y-79725000D01*
G75*
G02*
X105599999Y-79975000I-250000J0D01*
G01*
X104949999Y-79975000D01*
G75*
G02*
X104699999Y-79725000I0J250000D01*
G01*
X104699999Y-78425000D01*
G75*
G02*
X104949999Y-78175000I250000J0D01*
G01*
X105599999Y-78175000D01*
G75*
G02*
X105849999Y-78425000I0J-250000D01*
G01*
G37*
G36*
G01*
X108800001Y-80675000D02*
X108800001Y-81975000D01*
G75*
G02*
X108550001Y-82225000I-250000J0D01*
G01*
X107900001Y-82225000D01*
G75*
G02*
X107650001Y-81975000I0J250000D01*
G01*
X107650001Y-80675000D01*
G75*
G02*
X107900001Y-80425000I250000J0D01*
G01*
X108550001Y-80425000D01*
G75*
G02*
X108800001Y-80675000I0J-250000D01*
G01*
G37*
G36*
G01*
X105849999Y-80675000D02*
X105849999Y-81975000D01*
G75*
G02*
X105599999Y-82225000I-250000J0D01*
G01*
X104949999Y-82225000D01*
G75*
G02*
X104699999Y-81975000I0J250000D01*
G01*
X104699999Y-80675000D01*
G75*
G02*
X104949999Y-80425000I250000J0D01*
G01*
X105599999Y-80425000D01*
G75*
G02*
X105849999Y-80675000I0J-250000D01*
G01*
G37*
G36*
G01*
X96900000Y-115525000D02*
X96900000Y-114125000D01*
G75*
G02*
X97150000Y-113875000I250000J0D01*
G01*
X97700000Y-113875000D01*
G75*
G02*
X97950000Y-114125000I0J-250000D01*
G01*
X97950000Y-115525000D01*
G75*
G02*
X97700000Y-115775000I-250000J0D01*
G01*
X97150000Y-115775000D01*
G75*
G02*
X96900000Y-115525000I0J250000D01*
G01*
G37*
G36*
G01*
X100050000Y-115525000D02*
X100050000Y-114125000D01*
G75*
G02*
X100300000Y-113875000I250000J0D01*
G01*
X100850000Y-113875000D01*
G75*
G02*
X101100000Y-114125000I0J-250000D01*
G01*
X101100000Y-115525000D01*
G75*
G02*
X100850000Y-115775000I-250000J0D01*
G01*
X100300000Y-115775000D01*
G75*
G02*
X100050000Y-115525000I0J250000D01*
G01*
G37*
G36*
G01*
X113149994Y-54950001D02*
X113149994Y-53700001D01*
G75*
G02*
X113399994Y-53450001I250000J0D01*
G01*
X114024994Y-53450001D01*
G75*
G02*
X114274994Y-53700001I0J-250000D01*
G01*
X114274994Y-54950001D01*
G75*
G02*
X114024994Y-55200001I-250000J0D01*
G01*
X113399994Y-55200001D01*
G75*
G02*
X113149994Y-54950001I0J250000D01*
G01*
G37*
G36*
G01*
X116074994Y-54950001D02*
X116074994Y-53700001D01*
G75*
G02*
X116324994Y-53450001I250000J0D01*
G01*
X116949994Y-53450001D01*
G75*
G02*
X117199994Y-53700001I0J-250000D01*
G01*
X117199994Y-54950001D01*
G75*
G02*
X116949994Y-55200001I-250000J0D01*
G01*
X116324994Y-55200001D01*
G75*
G02*
X116074994Y-54950001I0J250000D01*
G01*
G37*
G36*
G01*
X161037494Y-60375001D02*
X161037494Y-60675001D01*
G75*
G02*
X160887494Y-60825001I-150000J0D01*
G01*
X159712494Y-60825001D01*
G75*
G02*
X159562494Y-60675001I0J150000D01*
G01*
X159562494Y-60375001D01*
G75*
G02*
X159712494Y-60225001I150000J0D01*
G01*
X160887494Y-60225001D01*
G75*
G02*
X161037494Y-60375001I0J-150000D01*
G01*
G37*
G36*
G01*
X161037494Y-58475001D02*
X161037494Y-58775001D01*
G75*
G02*
X160887494Y-58925001I-150000J0D01*
G01*
X159712494Y-58925001D01*
G75*
G02*
X159562494Y-58775001I0J150000D01*
G01*
X159562494Y-58475001D01*
G75*
G02*
X159712494Y-58325001I150000J0D01*
G01*
X160887494Y-58325001D01*
G75*
G02*
X161037494Y-58475001I0J-150000D01*
G01*
G37*
G36*
G01*
X159162494Y-59425001D02*
X159162494Y-59725001D01*
G75*
G02*
X159012494Y-59875001I-150000J0D01*
G01*
X157837494Y-59875001D01*
G75*
G02*
X157687494Y-59725001I0J150000D01*
G01*
X157687494Y-59425001D01*
G75*
G02*
X157837494Y-59275001I150000J0D01*
G01*
X159012494Y-59275001D01*
G75*
G02*
X159162494Y-59425001I0J-150000D01*
G01*
G37*
D13*
X159540000Y-117105000D03*
D14*
X159540000Y-114565000D03*
X159540000Y-112025001D03*
X159540000Y-109485000D03*
X159540000Y-106945000D03*
X159540000Y-104405000D03*
G36*
G01*
X132024994Y-50575001D02*
X132024994Y-49275001D01*
G75*
G02*
X132274994Y-49025001I250000J0D01*
G01*
X132924994Y-49025001D01*
G75*
G02*
X133174994Y-49275001I0J-250000D01*
G01*
X133174994Y-50575001D01*
G75*
G02*
X132924994Y-50825001I-250000J0D01*
G01*
X132274994Y-50825001D01*
G75*
G02*
X132024994Y-50575001I0J250000D01*
G01*
G37*
G36*
G01*
X134974994Y-50575001D02*
X134974994Y-49275001D01*
G75*
G02*
X135224994Y-49025001I250000J0D01*
G01*
X135874994Y-49025001D01*
G75*
G02*
X136124994Y-49275001I0J-250000D01*
G01*
X136124994Y-50575001D01*
G75*
G02*
X135874994Y-50825001I-250000J0D01*
G01*
X135224994Y-50825001D01*
G75*
G02*
X134974994Y-50575001I0J250000D01*
G01*
G37*
G36*
G01*
X99840000Y-104389999D02*
X99840000Y-105689999D01*
G75*
G02*
X99730000Y-105799999I-110000J0D01*
G01*
X99510000Y-105799999D01*
G75*
G02*
X99400000Y-105689999I0J110000D01*
G01*
X99400000Y-104389999D01*
G75*
G02*
X99510000Y-104279999I110000J0D01*
G01*
X99730000Y-104279999D01*
G75*
G02*
X99840000Y-104389999I0J-110000D01*
G01*
G37*
G36*
G01*
X100480000Y-104390000D02*
X100480000Y-105690000D01*
G75*
G02*
X100370000Y-105800000I-110000J0D01*
G01*
X100150000Y-105800000D01*
G75*
G02*
X100040000Y-105690000I0J110000D01*
G01*
X100040000Y-104390000D01*
G75*
G02*
X100150000Y-104280000I110000J0D01*
G01*
X100370000Y-104280000D01*
G75*
G02*
X100480000Y-104390000I0J-110000D01*
G01*
G37*
G36*
G01*
X101120000Y-104390000D02*
X101120000Y-105690000D01*
G75*
G02*
X101010000Y-105800000I-110000J0D01*
G01*
X100790000Y-105800000D01*
G75*
G02*
X100680000Y-105690000I0J110000D01*
G01*
X100680000Y-104390000D01*
G75*
G02*
X100790000Y-104280000I110000J0D01*
G01*
X101010000Y-104280000D01*
G75*
G02*
X101120000Y-104390000I0J-110000D01*
G01*
G37*
G36*
G01*
X101760000Y-104389999D02*
X101760000Y-105689999D01*
G75*
G02*
X101650000Y-105799999I-110000J0D01*
G01*
X101430000Y-105799999D01*
G75*
G02*
X101320000Y-105689999I0J110000D01*
G01*
X101320000Y-104389999D01*
G75*
G02*
X101430000Y-104279999I110000J0D01*
G01*
X101650000Y-104279999D01*
G75*
G02*
X101760000Y-104389999I0J-110000D01*
G01*
G37*
G36*
G01*
X102400000Y-104390000D02*
X102400000Y-105690000D01*
G75*
G02*
X102290000Y-105800000I-110000J0D01*
G01*
X102070000Y-105800000D01*
G75*
G02*
X101960000Y-105690000I0J110000D01*
G01*
X101960000Y-104390000D01*
G75*
G02*
X102070000Y-104280000I110000J0D01*
G01*
X102290000Y-104280000D01*
G75*
G02*
X102400000Y-104390000I0J-110000D01*
G01*
G37*
G36*
G01*
X103040000Y-104390000D02*
X103040000Y-105690000D01*
G75*
G02*
X102930000Y-105800000I-110000J0D01*
G01*
X102710000Y-105800000D01*
G75*
G02*
X102600000Y-105690000I0J110000D01*
G01*
X102600000Y-104390000D01*
G75*
G02*
X102710000Y-104280000I110000J0D01*
G01*
X102930000Y-104280000D01*
G75*
G02*
X103040000Y-104390000I0J-110000D01*
G01*
G37*
G36*
G01*
X103680000Y-104389999D02*
X103680000Y-105689999D01*
G75*
G02*
X103570000Y-105799999I-110000J0D01*
G01*
X103350000Y-105799999D01*
G75*
G02*
X103240000Y-105689999I0J110000D01*
G01*
X103240000Y-104389999D01*
G75*
G02*
X103350000Y-104279999I110000J0D01*
G01*
X103570000Y-104279999D01*
G75*
G02*
X103680000Y-104389999I0J-110000D01*
G01*
G37*
G36*
G01*
X104320000Y-104390000D02*
X104320000Y-105690000D01*
G75*
G02*
X104210000Y-105800000I-110000J0D01*
G01*
X103990000Y-105800000D01*
G75*
G02*
X103880000Y-105690000I0J110000D01*
G01*
X103880000Y-104390000D01*
G75*
G02*
X103990000Y-104280000I110000J0D01*
G01*
X104210000Y-104280000D01*
G75*
G02*
X104320000Y-104390000I0J-110000D01*
G01*
G37*
G36*
G01*
X104960000Y-104390000D02*
X104960000Y-105690000D01*
G75*
G02*
X104850000Y-105800000I-110000J0D01*
G01*
X104630000Y-105800000D01*
G75*
G02*
X104520000Y-105690000I0J110000D01*
G01*
X104520000Y-104390000D01*
G75*
G02*
X104630000Y-104280000I110000J0D01*
G01*
X104850000Y-104280000D01*
G75*
G02*
X104960000Y-104390000I0J-110000D01*
G01*
G37*
G36*
G01*
X105600000Y-104389999D02*
X105600000Y-105689999D01*
G75*
G02*
X105490000Y-105799999I-110000J0D01*
G01*
X105270000Y-105799999D01*
G75*
G02*
X105160000Y-105689999I0J110000D01*
G01*
X105160000Y-104389999D01*
G75*
G02*
X105270000Y-104279999I110000J0D01*
G01*
X105490000Y-104279999D01*
G75*
G02*
X105600000Y-104389999I0J-110000D01*
G01*
G37*
G36*
G01*
X105600000Y-98960001D02*
X105600000Y-100260001D01*
G75*
G02*
X105490000Y-100370001I-110000J0D01*
G01*
X105270000Y-100370001D01*
G75*
G02*
X105160000Y-100260001I0J110000D01*
G01*
X105160000Y-98960001D01*
G75*
G02*
X105270000Y-98850001I110000J0D01*
G01*
X105490000Y-98850001D01*
G75*
G02*
X105600000Y-98960001I0J-110000D01*
G01*
G37*
G36*
G01*
X104960000Y-98960000D02*
X104960000Y-100260000D01*
G75*
G02*
X104850000Y-100370000I-110000J0D01*
G01*
X104630000Y-100370000D01*
G75*
G02*
X104520000Y-100260000I0J110000D01*
G01*
X104520000Y-98960000D01*
G75*
G02*
X104630000Y-98850000I110000J0D01*
G01*
X104850000Y-98850000D01*
G75*
G02*
X104960000Y-98960000I0J-110000D01*
G01*
G37*
G36*
G01*
X104320000Y-98960000D02*
X104320000Y-100260000D01*
G75*
G02*
X104210000Y-100370000I-110000J0D01*
G01*
X103990000Y-100370000D01*
G75*
G02*
X103880000Y-100260000I0J110000D01*
G01*
X103880000Y-98960000D01*
G75*
G02*
X103990000Y-98850000I110000J0D01*
G01*
X104210000Y-98850000D01*
G75*
G02*
X104320000Y-98960000I0J-110000D01*
G01*
G37*
G36*
G01*
X103680000Y-98960001D02*
X103680000Y-100260001D01*
G75*
G02*
X103570000Y-100370001I-110000J0D01*
G01*
X103350000Y-100370001D01*
G75*
G02*
X103240000Y-100260001I0J110000D01*
G01*
X103240000Y-98960001D01*
G75*
G02*
X103350000Y-98850001I110000J0D01*
G01*
X103570000Y-98850001D01*
G75*
G02*
X103680000Y-98960001I0J-110000D01*
G01*
G37*
G36*
G01*
X103040000Y-98960000D02*
X103040000Y-100260000D01*
G75*
G02*
X102930000Y-100370000I-110000J0D01*
G01*
X102710000Y-100370000D01*
G75*
G02*
X102600000Y-100260000I0J110000D01*
G01*
X102600000Y-98960000D01*
G75*
G02*
X102710000Y-98850000I110000J0D01*
G01*
X102930000Y-98850000D01*
G75*
G02*
X103040000Y-98960000I0J-110000D01*
G01*
G37*
G36*
G01*
X102400000Y-98960000D02*
X102400000Y-100260000D01*
G75*
G02*
X102290000Y-100370000I-110000J0D01*
G01*
X102070000Y-100370000D01*
G75*
G02*
X101960000Y-100260000I0J110000D01*
G01*
X101960000Y-98960000D01*
G75*
G02*
X102070000Y-98850000I110000J0D01*
G01*
X102290000Y-98850000D01*
G75*
G02*
X102400000Y-98960000I0J-110000D01*
G01*
G37*
G36*
G01*
X101760000Y-98960001D02*
X101760000Y-100260001D01*
G75*
G02*
X101650000Y-100370001I-110000J0D01*
G01*
X101430000Y-100370001D01*
G75*
G02*
X101320000Y-100260001I0J110000D01*
G01*
X101320000Y-98960001D01*
G75*
G02*
X101430000Y-98850001I110000J0D01*
G01*
X101650000Y-98850001D01*
G75*
G02*
X101760000Y-98960001I0J-110000D01*
G01*
G37*
G36*
G01*
X101120000Y-98960000D02*
X101120000Y-100260000D01*
G75*
G02*
X101010000Y-100370000I-110000J0D01*
G01*
X100790000Y-100370000D01*
G75*
G02*
X100680000Y-100260000I0J110000D01*
G01*
X100680000Y-98960000D01*
G75*
G02*
X100790000Y-98850000I110000J0D01*
G01*
X101010000Y-98850000D01*
G75*
G02*
X101120000Y-98960000I0J-110000D01*
G01*
G37*
G36*
G01*
X100480000Y-98960000D02*
X100480000Y-100260000D01*
G75*
G02*
X100370000Y-100370000I-110000J0D01*
G01*
X100150000Y-100370000D01*
G75*
G02*
X100040000Y-100260000I0J110000D01*
G01*
X100040000Y-98960000D01*
G75*
G02*
X100150000Y-98850000I110000J0D01*
G01*
X100370000Y-98850000D01*
G75*
G02*
X100480000Y-98960000I0J-110000D01*
G01*
G37*
G36*
G01*
X99840000Y-98960001D02*
X99840000Y-100260001D01*
G75*
G02*
X99730000Y-100370001I-110000J0D01*
G01*
X99510000Y-100370001D01*
G75*
G02*
X99400000Y-100260001I0J110000D01*
G01*
X99400000Y-98960001D01*
G75*
G02*
X99510000Y-98850001I110000J0D01*
G01*
X99730000Y-98850001D01*
G75*
G02*
X99840000Y-98960001I0J-110000D01*
G01*
G37*
G36*
G01*
X148812994Y-62995001D02*
X147612994Y-62995001D01*
G75*
G02*
X147450494Y-62832501I0J162500D01*
G01*
X147450494Y-62507501D01*
G75*
G02*
X147612994Y-62345001I162500J0D01*
G01*
X148812994Y-62345001D01*
G75*
G02*
X148975494Y-62507501I0J-162500D01*
G01*
X148975494Y-62832501D01*
G75*
G02*
X148812994Y-62995001I-162500J0D01*
G01*
G37*
G36*
G01*
X148812994Y-64265001D02*
X147612994Y-64265001D01*
G75*
G02*
X147450494Y-64102501I0J162500D01*
G01*
X147450494Y-63777501D01*
G75*
G02*
X147612994Y-63615001I162500J0D01*
G01*
X148812994Y-63615001D01*
G75*
G02*
X148975494Y-63777501I0J-162500D01*
G01*
X148975494Y-64102501D01*
G75*
G02*
X148812994Y-64265001I-162500J0D01*
G01*
G37*
G36*
G01*
X148812994Y-65535001D02*
X147612994Y-65535001D01*
G75*
G02*
X147450494Y-65372501I0J162500D01*
G01*
X147450494Y-65047501D01*
G75*
G02*
X147612994Y-64885001I162500J0D01*
G01*
X148812994Y-64885001D01*
G75*
G02*
X148975494Y-65047501I0J-162500D01*
G01*
X148975494Y-65372501D01*
G75*
G02*
X148812994Y-65535001I-162500J0D01*
G01*
G37*
G36*
G01*
X148812994Y-66805001D02*
X147612994Y-66805001D01*
G75*
G02*
X147450494Y-66642501I0J162500D01*
G01*
X147450494Y-66317501D01*
G75*
G02*
X147612994Y-66155001I162500J0D01*
G01*
X148812994Y-66155001D01*
G75*
G02*
X148975494Y-66317501I0J-162500D01*
G01*
X148975494Y-66642501D01*
G75*
G02*
X148812994Y-66805001I-162500J0D01*
G01*
G37*
G36*
G01*
X154236994Y-66805001D02*
X153036994Y-66805001D01*
G75*
G02*
X152874494Y-66642501I0J162500D01*
G01*
X152874494Y-66317501D01*
G75*
G02*
X153036994Y-66155001I162500J0D01*
G01*
X154236994Y-66155001D01*
G75*
G02*
X154399494Y-66317501I0J-162500D01*
G01*
X154399494Y-66642501D01*
G75*
G02*
X154236994Y-66805001I-162500J0D01*
G01*
G37*
G36*
G01*
X154236994Y-65535001D02*
X153036994Y-65535001D01*
G75*
G02*
X152874494Y-65372501I0J162500D01*
G01*
X152874494Y-65047501D01*
G75*
G02*
X153036994Y-64885001I162500J0D01*
G01*
X154236994Y-64885001D01*
G75*
G02*
X154399494Y-65047501I0J-162500D01*
G01*
X154399494Y-65372501D01*
G75*
G02*
X154236994Y-65535001I-162500J0D01*
G01*
G37*
G36*
G01*
X154236994Y-64265001D02*
X153036994Y-64265001D01*
G75*
G02*
X152874494Y-64102501I0J162500D01*
G01*
X152874494Y-63777501D01*
G75*
G02*
X153036994Y-63615001I162500J0D01*
G01*
X154236994Y-63615001D01*
G75*
G02*
X154399494Y-63777501I0J-162500D01*
G01*
X154399494Y-64102501D01*
G75*
G02*
X154236994Y-64265001I-162500J0D01*
G01*
G37*
G36*
G01*
X154236994Y-62995001D02*
X153036994Y-62995001D01*
G75*
G02*
X152874494Y-62832501I0J162500D01*
G01*
X152874494Y-62507501D01*
G75*
G02*
X153036994Y-62345001I162500J0D01*
G01*
X154236994Y-62345001D01*
G75*
G02*
X154399494Y-62507501I0J-162500D01*
G01*
X154399494Y-62832501D01*
G75*
G02*
X154236994Y-62995001I-162500J0D01*
G01*
G37*
G36*
G01*
X104525000Y-87450000D02*
X104525000Y-88700000D01*
G75*
G02*
X104275000Y-88950000I-250000J0D01*
G01*
X103650000Y-88950000D01*
G75*
G02*
X103400000Y-88700000I0J250000D01*
G01*
X103400000Y-87450000D01*
G75*
G02*
X103650000Y-87200000I250000J0D01*
G01*
X104275000Y-87200000D01*
G75*
G02*
X104525000Y-87450000I0J-250000D01*
G01*
G37*
G36*
G01*
X101600000Y-87450000D02*
X101600000Y-88700000D01*
G75*
G02*
X101350000Y-88950000I-250000J0D01*
G01*
X100725000Y-88950000D01*
G75*
G02*
X100475000Y-88700000I0J250000D01*
G01*
X100475000Y-87450000D01*
G75*
G02*
X100725000Y-87200000I250000J0D01*
G01*
X101350000Y-87200000D01*
G75*
G02*
X101600000Y-87450000I0J-250000D01*
G01*
G37*
G36*
G01*
X114937000Y-79362501D02*
X113687000Y-79362501D01*
G75*
G02*
X113574500Y-79250001I0J112500D01*
G01*
X113574500Y-79025001D01*
G75*
G02*
X113687000Y-78912501I112500J0D01*
G01*
X114937000Y-78912501D01*
G75*
G02*
X115049500Y-79025001I0J-112500D01*
G01*
X115049500Y-79250001D01*
G75*
G02*
X114937000Y-79362501I-112500J0D01*
G01*
G37*
G36*
G01*
X114937000Y-80012501D02*
X113687000Y-80012501D01*
G75*
G02*
X113574500Y-79900001I0J112500D01*
G01*
X113574500Y-79675001D01*
G75*
G02*
X113687000Y-79562501I112500J0D01*
G01*
X114937000Y-79562501D01*
G75*
G02*
X115049500Y-79675001I0J-112500D01*
G01*
X115049500Y-79900001D01*
G75*
G02*
X114937000Y-80012501I-112500J0D01*
G01*
G37*
G36*
G01*
X114937000Y-80662501D02*
X113687000Y-80662501D01*
G75*
G02*
X113574500Y-80550001I0J112500D01*
G01*
X113574500Y-80325001D01*
G75*
G02*
X113687000Y-80212501I112500J0D01*
G01*
X114937000Y-80212501D01*
G75*
G02*
X115049500Y-80325001I0J-112500D01*
G01*
X115049500Y-80550001D01*
G75*
G02*
X114937000Y-80662501I-112500J0D01*
G01*
G37*
G36*
G01*
X114937000Y-81312501D02*
X113687000Y-81312501D01*
G75*
G02*
X113574500Y-81200001I0J112500D01*
G01*
X113574500Y-80975001D01*
G75*
G02*
X113687000Y-80862501I112500J0D01*
G01*
X114937000Y-80862501D01*
G75*
G02*
X115049500Y-80975001I0J-112500D01*
G01*
X115049500Y-81200001D01*
G75*
G02*
X114937000Y-81312501I-112500J0D01*
G01*
G37*
G36*
G01*
X114937000Y-81962501D02*
X113687000Y-81962501D01*
G75*
G02*
X113574500Y-81850001I0J112500D01*
G01*
X113574500Y-81625001D01*
G75*
G02*
X113687000Y-81512501I112500J0D01*
G01*
X114937000Y-81512501D01*
G75*
G02*
X115049500Y-81625001I0J-112500D01*
G01*
X115049500Y-81850001D01*
G75*
G02*
X114937000Y-81962501I-112500J0D01*
G01*
G37*
G36*
G01*
X114937000Y-82612501D02*
X113687000Y-82612501D01*
G75*
G02*
X113574500Y-82500001I0J112500D01*
G01*
X113574500Y-82275001D01*
G75*
G02*
X113687000Y-82162501I112500J0D01*
G01*
X114937000Y-82162501D01*
G75*
G02*
X115049500Y-82275001I0J-112500D01*
G01*
X115049500Y-82500001D01*
G75*
G02*
X114937000Y-82612501I-112500J0D01*
G01*
G37*
G36*
G01*
X114937000Y-83262501D02*
X113687000Y-83262501D01*
G75*
G02*
X113574500Y-83150001I0J112500D01*
G01*
X113574500Y-82925001D01*
G75*
G02*
X113687000Y-82812501I112500J0D01*
G01*
X114937000Y-82812501D01*
G75*
G02*
X115049500Y-82925001I0J-112500D01*
G01*
X115049500Y-83150001D01*
G75*
G02*
X114937000Y-83262501I-112500J0D01*
G01*
G37*
G36*
G01*
X114937000Y-83912501D02*
X113687000Y-83912501D01*
G75*
G02*
X113574500Y-83800001I0J112500D01*
G01*
X113574500Y-83575001D01*
G75*
G02*
X113687000Y-83462501I112500J0D01*
G01*
X114937000Y-83462501D01*
G75*
G02*
X115049500Y-83575001I0J-112500D01*
G01*
X115049500Y-83800001D01*
G75*
G02*
X114937000Y-83912501I-112500J0D01*
G01*
G37*
G36*
G01*
X114937000Y-84562501D02*
X113687000Y-84562501D01*
G75*
G02*
X113574500Y-84450001I0J112500D01*
G01*
X113574500Y-84225001D01*
G75*
G02*
X113687000Y-84112501I112500J0D01*
G01*
X114937000Y-84112501D01*
G75*
G02*
X115049500Y-84225001I0J-112500D01*
G01*
X115049500Y-84450001D01*
G75*
G02*
X114937000Y-84562501I-112500J0D01*
G01*
G37*
G36*
G01*
X114937000Y-85212501D02*
X113687000Y-85212501D01*
G75*
G02*
X113574500Y-85100001I0J112500D01*
G01*
X113574500Y-84875001D01*
G75*
G02*
X113687000Y-84762501I112500J0D01*
G01*
X114937000Y-84762501D01*
G75*
G02*
X115049500Y-84875001I0J-112500D01*
G01*
X115049500Y-85100001D01*
G75*
G02*
X114937000Y-85212501I-112500J0D01*
G01*
G37*
G36*
G01*
X114937000Y-85862501D02*
X113687000Y-85862501D01*
G75*
G02*
X113574500Y-85750001I0J112500D01*
G01*
X113574500Y-85525001D01*
G75*
G02*
X113687000Y-85412501I112500J0D01*
G01*
X114937000Y-85412501D01*
G75*
G02*
X115049500Y-85525001I0J-112500D01*
G01*
X115049500Y-85750001D01*
G75*
G02*
X114937000Y-85862501I-112500J0D01*
G01*
G37*
G36*
G01*
X114937000Y-86512501D02*
X113687000Y-86512501D01*
G75*
G02*
X113574500Y-86400001I0J112500D01*
G01*
X113574500Y-86175001D01*
G75*
G02*
X113687000Y-86062501I112500J0D01*
G01*
X114937000Y-86062501D01*
G75*
G02*
X115049500Y-86175001I0J-112500D01*
G01*
X115049500Y-86400001D01*
G75*
G02*
X114937000Y-86512501I-112500J0D01*
G01*
G37*
G36*
G01*
X114937000Y-87162501D02*
X113687000Y-87162501D01*
G75*
G02*
X113574500Y-87050001I0J112500D01*
G01*
X113574500Y-86825001D01*
G75*
G02*
X113687000Y-86712501I112500J0D01*
G01*
X114937000Y-86712501D01*
G75*
G02*
X115049500Y-86825001I0J-112500D01*
G01*
X115049500Y-87050001D01*
G75*
G02*
X114937000Y-87162501I-112500J0D01*
G01*
G37*
G36*
G01*
X114937000Y-87812501D02*
X113687000Y-87812501D01*
G75*
G02*
X113574500Y-87700001I0J112500D01*
G01*
X113574500Y-87475001D01*
G75*
G02*
X113687000Y-87362501I112500J0D01*
G01*
X114937000Y-87362501D01*
G75*
G02*
X115049500Y-87475001I0J-112500D01*
G01*
X115049500Y-87700001D01*
G75*
G02*
X114937000Y-87812501I-112500J0D01*
G01*
G37*
G36*
G01*
X120813000Y-87812501D02*
X119563000Y-87812501D01*
G75*
G02*
X119450500Y-87700001I0J112500D01*
G01*
X119450500Y-87475001D01*
G75*
G02*
X119563000Y-87362501I112500J0D01*
G01*
X120813000Y-87362501D01*
G75*
G02*
X120925500Y-87475001I0J-112500D01*
G01*
X120925500Y-87700001D01*
G75*
G02*
X120813000Y-87812501I-112500J0D01*
G01*
G37*
G36*
G01*
X120813000Y-87162501D02*
X119563000Y-87162501D01*
G75*
G02*
X119450500Y-87050001I0J112500D01*
G01*
X119450500Y-86825001D01*
G75*
G02*
X119563000Y-86712501I112500J0D01*
G01*
X120813000Y-86712501D01*
G75*
G02*
X120925500Y-86825001I0J-112500D01*
G01*
X120925500Y-87050001D01*
G75*
G02*
X120813000Y-87162501I-112500J0D01*
G01*
G37*
G36*
G01*
X120813000Y-86512501D02*
X119563000Y-86512501D01*
G75*
G02*
X119450500Y-86400001I0J112500D01*
G01*
X119450500Y-86175001D01*
G75*
G02*
X119563000Y-86062501I112500J0D01*
G01*
X120813000Y-86062501D01*
G75*
G02*
X120925500Y-86175001I0J-112500D01*
G01*
X120925500Y-86400001D01*
G75*
G02*
X120813000Y-86512501I-112500J0D01*
G01*
G37*
G36*
G01*
X120813000Y-85862501D02*
X119563000Y-85862501D01*
G75*
G02*
X119450500Y-85750001I0J112500D01*
G01*
X119450500Y-85525001D01*
G75*
G02*
X119563000Y-85412501I112500J0D01*
G01*
X120813000Y-85412501D01*
G75*
G02*
X120925500Y-85525001I0J-112500D01*
G01*
X120925500Y-85750001D01*
G75*
G02*
X120813000Y-85862501I-112500J0D01*
G01*
G37*
G36*
G01*
X120813000Y-85212501D02*
X119563000Y-85212501D01*
G75*
G02*
X119450500Y-85100001I0J112500D01*
G01*
X119450500Y-84875001D01*
G75*
G02*
X119563000Y-84762501I112500J0D01*
G01*
X120813000Y-84762501D01*
G75*
G02*
X120925500Y-84875001I0J-112500D01*
G01*
X120925500Y-85100001D01*
G75*
G02*
X120813000Y-85212501I-112500J0D01*
G01*
G37*
G36*
G01*
X120813000Y-84562501D02*
X119563000Y-84562501D01*
G75*
G02*
X119450500Y-84450001I0J112500D01*
G01*
X119450500Y-84225001D01*
G75*
G02*
X119563000Y-84112501I112500J0D01*
G01*
X120813000Y-84112501D01*
G75*
G02*
X120925500Y-84225001I0J-112500D01*
G01*
X120925500Y-84450001D01*
G75*
G02*
X120813000Y-84562501I-112500J0D01*
G01*
G37*
G36*
G01*
X120813000Y-83912501D02*
X119563000Y-83912501D01*
G75*
G02*
X119450500Y-83800001I0J112500D01*
G01*
X119450500Y-83575001D01*
G75*
G02*
X119563000Y-83462501I112500J0D01*
G01*
X120813000Y-83462501D01*
G75*
G02*
X120925500Y-83575001I0J-112500D01*
G01*
X120925500Y-83800001D01*
G75*
G02*
X120813000Y-83912501I-112500J0D01*
G01*
G37*
G36*
G01*
X120813000Y-83262501D02*
X119563000Y-83262501D01*
G75*
G02*
X119450500Y-83150001I0J112500D01*
G01*
X119450500Y-82925001D01*
G75*
G02*
X119563000Y-82812501I112500J0D01*
G01*
X120813000Y-82812501D01*
G75*
G02*
X120925500Y-82925001I0J-112500D01*
G01*
X120925500Y-83150001D01*
G75*
G02*
X120813000Y-83262501I-112500J0D01*
G01*
G37*
G36*
G01*
X120813000Y-82612501D02*
X119563000Y-82612501D01*
G75*
G02*
X119450500Y-82500001I0J112500D01*
G01*
X119450500Y-82275001D01*
G75*
G02*
X119563000Y-82162501I112500J0D01*
G01*
X120813000Y-82162501D01*
G75*
G02*
X120925500Y-82275001I0J-112500D01*
G01*
X120925500Y-82500001D01*
G75*
G02*
X120813000Y-82612501I-112500J0D01*
G01*
G37*
G36*
G01*
X120813000Y-81962501D02*
X119563000Y-81962501D01*
G75*
G02*
X119450500Y-81850001I0J112500D01*
G01*
X119450500Y-81625001D01*
G75*
G02*
X119563000Y-81512501I112500J0D01*
G01*
X120813000Y-81512501D01*
G75*
G02*
X120925500Y-81625001I0J-112500D01*
G01*
X120925500Y-81850001D01*
G75*
G02*
X120813000Y-81962501I-112500J0D01*
G01*
G37*
G36*
G01*
X120813000Y-81312501D02*
X119563000Y-81312501D01*
G75*
G02*
X119450500Y-81200001I0J112500D01*
G01*
X119450500Y-80975001D01*
G75*
G02*
X119563000Y-80862501I112500J0D01*
G01*
X120813000Y-80862501D01*
G75*
G02*
X120925500Y-80975001I0J-112500D01*
G01*
X120925500Y-81200001D01*
G75*
G02*
X120813000Y-81312501I-112500J0D01*
G01*
G37*
G36*
G01*
X120813000Y-80662501D02*
X119563000Y-80662501D01*
G75*
G02*
X119450500Y-80550001I0J112500D01*
G01*
X119450500Y-80325001D01*
G75*
G02*
X119563000Y-80212501I112500J0D01*
G01*
X120813000Y-80212501D01*
G75*
G02*
X120925500Y-80325001I0J-112500D01*
G01*
X120925500Y-80550001D01*
G75*
G02*
X120813000Y-80662501I-112500J0D01*
G01*
G37*
G36*
G01*
X120813000Y-80012501D02*
X119563000Y-80012501D01*
G75*
G02*
X119450500Y-79900001I0J112500D01*
G01*
X119450500Y-79675001D01*
G75*
G02*
X119563000Y-79562501I112500J0D01*
G01*
X120813000Y-79562501D01*
G75*
G02*
X120925500Y-79675001I0J-112500D01*
G01*
X120925500Y-79900001D01*
G75*
G02*
X120813000Y-80012501I-112500J0D01*
G01*
G37*
G36*
G01*
X120813000Y-79362501D02*
X119563000Y-79362501D01*
G75*
G02*
X119450500Y-79250001I0J112500D01*
G01*
X119450500Y-79025001D01*
G75*
G02*
X119563000Y-78912501I112500J0D01*
G01*
X120813000Y-78912501D01*
G75*
G02*
X120925500Y-79025001I0J-112500D01*
G01*
X120925500Y-79250001D01*
G75*
G02*
X120813000Y-79362501I-112500J0D01*
G01*
G37*
D13*
X93094997Y-68075002D03*
D14*
X95634997Y-68075002D03*
D13*
X98174997Y-50075002D03*
D14*
X95634997Y-50075002D03*
X93094997Y-50075002D03*
M02*
