M48
; DRILL file KiCad 10.0.4-10.0.4~ubuntu22.04.1 date 2026-09-14T12:58:56
; FORMAT={-:-/ absolute / metric / decimal}
; #@! TF.CreationDate,2026-09-14T12:58:56+02:00
; #@! TF.GenerationSoftware,Kicad,Pcbnew,10.0.4-10.0.4~ubuntu22.04.1
; #@! TF.FileFunction,Plated,1,4,PTH
FMAT,2
METRIC
; #@! TA.AperFunction,Plated,PTH,ViaDrill
T1C0.400
; #@! TA.AperFunction,Plated,PTH,ViaDrill
T2C0.500
; #@! TA.AperFunction,Plated,PTH,ComponentDrill
T3C0.500
; #@! TA.AperFunction,Plated,PTH,ComponentDrill
T4C1.000
; #@! TA.AperFunction,Plated,PTH,ComponentDrill
T5C3.200
%
G90
G05
T1
X83.675Y-49.325
X83.675Y-53.575
X83.675Y-65.325
X83.675Y-68.825
X84.675Y-50.325
X84.925Y-53.575
X86.25Y-79.825
X86.25Y-81.955
X86.25Y-84.495
X86.25Y-87.035
X86.25Y-89.575
X86.25Y-100.545
X86.25Y-103.085
X86.25Y-105.625
X86.25Y-108.165
X86.25Y-110.705
X86.25Y-113.245
X86.25Y-115.785
X86.25Y-118.325
X86.75Y-97.325
X86.925Y-56.575
X87.925Y-52.575
X88.175Y-59.575
X88.175Y-62.075
X88.75Y-97.325
X89.0Y-79.825
X89.25Y-91.125
X89.25Y-101.575
X89.5Y-118.575
X90.05Y-114.925
X90.05Y-116.975
X90.175Y-56.575
X90.25Y-99.325
X91.35Y-118.325
X91.425Y-59.575
X91.5Y-90.825
X91.5Y-120.025
X91.75Y-79.825
X92.0Y-114.375
X92.5Y-73.575
X92.75Y-105.575
X92.75Y-107.575
X93.25Y-97.075
X93.25Y-118.325
X93.5Y-112.325
X93.5Y-113.575
X94.0Y-90.825
X94.425Y-54.075
X94.5Y-119.225
X94.63Y-73.575
X94.675Y-56.575
X95.25Y-98.825
X95.425Y-59.575
X95.425Y-62.075
X96.0Y-111.825
X96.25Y-119.075
X96.55Y-116.725
X96.75Y-88.825
X96.75Y-90.825
X97.17Y-73.575
X97.5Y-117.075
X97.55Y-120.175
X97.75Y-85.825
X98.0Y-98.825
X98.5Y-101.825
X98.5Y-117.825
X99.175Y-56.075
X99.175Y-59.575
X99.175Y-62.575
X99.25Y-118.825
X99.71Y-73.575
X99.8Y-120.175
X99.925Y-49.325
X100.0Y-101.825
X100.25Y-83.825
X100.35Y-116.775
X101.5Y-101.825
X102.05Y-115.775
X102.175Y-49.325
X102.175Y-53.325
X102.175Y-57.825
X102.175Y-62.075
X102.175Y-65.825
X102.25Y-73.575
X103.0Y-101.825
X103.5Y-114.325
X103.75Y-76.825
X103.75Y-74.575
X103.75Y-79.075
X103.75Y-81.325
X104.25Y-83.825
X104.5Y-101.825
X106.0Y-101.825
X106.25Y-114.325
X106.35Y-120.825
X106.35Y-122.825
X106.35Y-124.575
X106.7Y-105.3
X106.75Y-89.825
X108.25Y-83.325
X108.25Y-85.075
X108.25Y-100.575
X108.5Y-88.075
X108.5Y-89.825
X108.5Y-91.325
X109.5Y-115.325
X109.5Y-124.575
X110.0Y-73.575
X110.25Y-85.075
X110.5Y-88.075
X110.5Y-89.825
X110.75Y-91.325
X110.925Y-53.075
X111.6Y-75.825
X111.6Y-78.075
X111.925Y-48.575
X112.425Y-69.575
X112.5Y-79.987
X112.5Y-85.075
X112.5Y-88.075
X112.5Y-89.825
X112.675Y-64.575
X113.0Y-124.575
X113.25Y-106.075
X113.25Y-107.575
X113.25Y-104.575
X113.25Y-110.575
X113.25Y-114.575
X113.925Y-48.575
X114.0Y-73.575
X114.0Y-75.075
X114.175Y-69.575
X114.25Y-77.825
X114.45Y-89.775
X114.925Y-64.575
X114.925Y-67.075
X115.0Y-117.325
X115.25Y-120.575
X115.637Y-114.012
X115.675Y-68.275
X117.0Y-73.575
X117.0Y-77.825
X117.0Y-80.325
X117.0Y-81.575
X117.0Y-99.575
X117.0Y-102.075
X117.2Y-105.875
X117.325Y-58.325
X117.5Y-97.575
X118.0Y-104.975
X118.0Y-106.775
X118.175Y-54.325
X118.225Y-59.375
X118.425Y-51.175
X118.425Y-52.225
X118.5Y-80.325
X118.5Y-81.575
X118.5Y-84.587
X118.5Y-87.587
X118.75Y-75.075
X119.175Y-53.325
X119.25Y-117.325
X119.25Y-97.325
X119.375Y-56.175
X119.425Y-60.825
X119.425Y-61.825
X119.425Y-62.825
X119.425Y-63.825
X119.5Y-77.825
X119.875Y-67.925
X120.25Y-73.575
X120.25Y-89.325
X120.475Y-55.275
X120.475Y-56.875
X120.825Y-50.525
X121.0Y-97.325
X121.625Y-58.975
X122.737Y-59.113
X122.75Y-90.325
X122.75Y-97.325
X122.75Y-101.925
X123.375Y-65.425
X123.675Y-62.575
X124.425Y-63.325
X124.5Y-104.325
X124.8Y-109.325
X125.175Y-62.575
X125.175Y-64.075
X126.0Y-111.475
X126.025Y-51.775
X126.125Y-54.125
X126.275Y-49.025
X126.275Y-65.925
X126.4Y-56.425
X126.75Y-109.325
X126.775Y-59.05
X127.0Y-106.825
X128.025Y-65.925
X128.2Y-59.05
X128.7Y-115.875
X128.75Y-110.825
X128.75Y-113.075
X128.75Y-118.575
X128.755Y-121.075
X129.925Y-63.075
X129.925Y-64.075
X129.925Y-65.075
X129.925Y-66.075
X130.325Y-50.575
X131.075Y-55.175
X131.4Y-53.725
X131.4Y-56.525
X131.4Y-64.125
X131.4Y-66.925
X132.425Y-58.825
X132.875Y-62.925
X133.775Y-51.675
X133.925Y-54.575
X133.925Y-55.825
X133.925Y-65.075
X133.925Y-66.325
X134.175Y-58.825
X134.5Y-118.325
X134.75Y-73.575
X134.75Y-77.585
X134.75Y-82.665
X134.75Y-87.745
X134.75Y-92.825
X134.75Y-95.825
X135.175Y-54.575
X135.175Y-55.825
X135.175Y-65.075
X135.175Y-66.325
X136.175Y-58.825
X137.425Y-58.825
X137.8Y-65.725
X139.0Y-82.575
X139.0Y-87.825
X139.0Y-92.825
X139.0Y-100.575
X139.0Y-105.575
X139.0Y-109.575
X139.0Y-112.825
X139.0Y-118.325
X139.175Y-67.075
X139.925Y-58.825
X140.425Y-67.075
X140.925Y-58.825
X141.25Y-120.625
X141.675Y-62.575
X142.075Y-60.925
X142.175Y-50.075
X143.175Y-67.175
X143.425Y-51.575
X143.425Y-60.575
X143.425Y-62.475
X143.5Y-82.575
X143.5Y-87.825
X143.5Y-92.825
X143.75Y-95.825
X143.75Y-100.575
X143.75Y-105.575
X143.75Y-112.575
X144.425Y-61.575
X144.425Y-63.575
X144.425Y-67.175
X146.175Y-63.575
X148.0Y-73.575
X148.0Y-77.585
X148.0Y-82.665
X148.0Y-87.745
X148.0Y-92.825
X148.0Y-95.825
X148.0Y-100.585
X148.0Y-105.665
X148.0Y-110.745
X148.0Y-115.825
X148.0Y-119.075
X148.0Y-122.075
X149.175Y-52.625
X149.925Y-49.825
X149.925Y-62.575
X150.125Y-52.575
X150.675Y-63.325
X150.925Y-50.825
X151.675Y-56.325
X151.675Y-57.325
X151.675Y-58.325
X151.675Y-64.325
X151.675Y-65.575
X151.675Y-66.825
X151.675Y-68.075
X152.925Y-68.075
X153.5Y-106.575
X153.5Y-109.325
X153.5Y-111.825
X153.5Y-114.325
X154.425Y-61.075
X154.425Y-68.075
X155.925Y-61.075
X155.925Y-68.075
X157.425Y-53.325
X157.425Y-54.825
X157.425Y-56.325
X157.425Y-66.325
X157.475Y-68.075
X158.425Y-57.075
X158.925Y-53.325
X160.425Y-53.325
X160.425Y-57.075
X161.925Y-53.325
X161.925Y-57.825
X162.675Y-58.575
X163.425Y-53.325
X163.425Y-54.825
X163.425Y-56.325
X163.425Y-57.575
X163.575Y-61.975
X163.575Y-63.375
X163.575Y-64.525
X164.175Y-66.375
X164.175Y-69.325
X165.425Y-66.375
X165.425Y-69.325
X166.425Y-51.225
X166.675Y-66.375
X166.675Y-69.325
X166.75Y-80.225
X166.75Y-82.765
X166.75Y-85.305
X166.75Y-87.845
X166.75Y-90.385
X166.75Y-92.925
X166.75Y-95.465
X166.75Y-98.005
X166.75Y-100.545
X166.75Y-103.085
X166.75Y-105.625
X166.75Y-108.165
X166.75Y-110.705
X166.75Y-113.245
X166.75Y-115.785
X166.75Y-118.325
X167.925Y-66.375
X167.925Y-69.325
X168.625Y-51.225
X169.175Y-66.375
X169.175Y-68.575
T2
X138.075Y-55.175
T3
X85.85Y-75.575
X85.85Y-122.575
X86.553Y-73.878
X86.553Y-77.272
X86.553Y-120.878
X86.553Y-124.272
X88.25Y-73.175
X88.25Y-77.975
X88.25Y-120.175
X88.25Y-124.975
X89.947Y-73.878
X89.947Y-77.272
X89.947Y-120.878
X89.947Y-124.272
X90.65Y-75.575
X90.65Y-122.575
X163.85Y-75.575
X163.85Y-122.575
X164.553Y-73.878
X164.553Y-77.272
X164.553Y-120.878
X164.553Y-124.272
X166.25Y-73.175
X166.25Y-77.975
X166.25Y-120.175
X166.25Y-124.975
X167.947Y-73.878
X167.947Y-77.272
X167.947Y-120.878
X167.947Y-124.272
X168.65Y-75.575
X168.65Y-122.575
T4
X93.095Y-50.075
X93.095Y-68.075
X95.635Y-50.075
X95.635Y-68.075
X98.175Y-50.075
X98.75Y-124.075
X110.425Y-50.495
X110.425Y-55.575
X110.425Y-58.115
X110.425Y-60.655
X110.425Y-63.195
X110.425Y-65.735
X110.425Y-68.275
X112.965Y-50.495
X115.43Y-123.575
X117.97Y-123.575
X120.51Y-123.575
X123.05Y-123.575
X157.0Y-76.465
X157.0Y-81.545
X157.0Y-84.085
X157.0Y-86.625
X157.0Y-89.165
X157.0Y-91.705
X157.0Y-94.245
X157.0Y-99.325
X157.0Y-122.195
X159.345Y-50.075
X159.345Y-68.075
X159.54Y-76.465
X159.54Y-81.545
X159.54Y-84.085
X159.54Y-86.625
X159.54Y-89.165
X159.54Y-91.705
X159.54Y-94.245
X159.54Y-99.325
X159.54Y-104.405
X159.54Y-106.945
X159.54Y-109.485
X159.54Y-112.025
X159.54Y-114.565
X159.54Y-117.105
X159.54Y-122.195
X161.885Y-50.075
X161.885Y-68.075
X164.425Y-50.075
X167.425Y-58.825
T5
X88.25Y-75.575
X88.25Y-122.575
X166.25Y-75.575
X166.25Y-122.575
M30
