%TF.GenerationSoftware,KiCad,Pcbnew,10.0.4-10.0.4~ubuntu22.04.1*%
%TF.CreationDate,2026-09-14T12:58:56+02:00*%
%TF.ProjectId,3_in_1_Panel,335f696e-5f31-45f5-9061-6e656c2e6b69,rev?*%
%TF.SameCoordinates,PX72ade90PY75c75e0*%
%TF.FileFunction,Drillmap*%
%TF.FilePolarity,Positive*%
%FSLAX45Y45*%
G04 Gerber Fmt 4.5, Leading zero omitted, Abs format (unit mm)*
G04 Created by KiCad (PCBNEW 10.0.4-10.0.4~ubuntu22.04.1) date 2026-09-14 12:58:56*
%MOMM*%
%LPD*%
G01*
G04 APERTURE LIST*
%ADD10C,0.100000*%
%ADD11C,0.200000*%
%ADD12C,0.150000*%
%ADD13C,0.180000*%
G04 APERTURE END LIST*
D10*
X8267500Y-4982500D02*
X8267500Y-6807500D01*
X8267500Y-4982500D02*
G75*
G02*
X8467500Y-4782500I200000J0D01*
G01*
X8467500Y-7007500D02*
G75*
G02*
X8267500Y-6807500I0J200000D01*
G01*
X8467500Y-4782500D02*
X10142500Y-4782500D01*
X8475000Y-7557500D02*
G75*
G02*
X8825000Y-7207500I350000J0D01*
G01*
X8475000Y-12257500D02*
X8475000Y-7557500D01*
X8825000Y-12607500D02*
G75*
G02*
X8475000Y-12257500I0J350000D01*
G01*
X8825138Y-7207500D02*
X9114980Y-7207500D01*
X9115020Y-7007500D02*
X8467636Y-7007500D01*
X9765000Y-7007500D02*
X10143000Y-7007500D01*
X9765041Y-7207500D02*
X11604868Y-7207500D01*
X10142500Y-4782500D02*
G75*
G02*
X10342500Y-4982500I0J-200000D01*
G01*
X10342500Y-5582500D02*
X10342500Y-4982500D01*
X10342500Y-6182500D02*
X10342500Y-6807500D01*
X10342500Y-6182500D02*
G75*
G02*
X10642500Y-6182500I150000J0D01*
G01*
X10342500Y-6807500D02*
G75*
G02*
X10142500Y-7007500I-200000J0D01*
G01*
X10642499Y-4982500D02*
G75*
G02*
X10842499Y-4782499I200001J0D01*
G01*
X10642500Y-5582500D02*
G75*
G02*
X10342500Y-5582500I-150000J0D01*
G01*
X10642500Y-5582500D02*
X10642499Y-4982500D01*
X10642500Y-6182500D02*
X10642500Y-6808388D01*
X10842445Y-7007500D02*
X11605040Y-7007500D01*
X10842499Y-4782500D02*
X16767499Y-4782500D01*
X10842499Y-7007500D02*
G75*
G02*
X10642502Y-6808388I1J200000D01*
G01*
X12255029Y-7007500D02*
X15752459Y-7007500D01*
X12255054Y-7207500D02*
X15752465Y-7207500D01*
X16402500Y-7207500D02*
X16625000Y-7207500D01*
X16402595Y-7007500D02*
X16767037Y-7007499D01*
X16625000Y-7207500D02*
G75*
G02*
X16975000Y-7557500I0J-350000D01*
G01*
X16625000Y-12607500D02*
X8825000Y-12607500D01*
X16725000Y-8007500D02*
G75*
G02*
X16825000Y-7907500I100000J0D01*
G01*
X16725000Y-11832500D02*
X16725000Y-8007500D01*
X16767499Y-4782500D02*
G75*
G02*
X16967500Y-4982500I1J-200000D01*
G01*
X16825000Y-11932500D02*
G75*
G02*
X16725000Y-11832500I0J100000D01*
G01*
X16875000Y-7907500D02*
X16825000Y-7907500D01*
X16875000Y-11932500D02*
X16825000Y-11932500D01*
X16875000Y-11932500D02*
G75*
G02*
X16975000Y-12032500I0J-100000D01*
G01*
X16967499Y-4982500D02*
X16967499Y-6807500D01*
X16967499Y-6807500D02*
G75*
G02*
X16767499Y-7007499I-199999J0D01*
G01*
X16975000Y-7557500D02*
X16975000Y-7807500D01*
X16975000Y-7807500D02*
G75*
G02*
X16875000Y-7907500I-100000J0D01*
G01*
X16975000Y-12032500D02*
X16975000Y-12257500D01*
X16975000Y-12257500D02*
G75*
G02*
X16625000Y-12607500I-350000J0D01*
G01*
X9115000Y-7007500D02*
G75*
G02*
X9115000Y-7207500I0J-100000D01*
G01*
X9765000Y-7207500D02*
G75*
G02*
X9765000Y-7007500I0J100000D01*
G01*
X11605000Y-7007500D02*
G75*
G02*
X11605000Y-7207500I0J-100000D01*
G01*
X12255000Y-7207500D02*
G75*
G02*
X12255000Y-7007500I0J100000D01*
G01*
X15752500Y-7007500D02*
G75*
G02*
X15752500Y-7207500I0J-100000D01*
G01*
X16402500Y-7207500D02*
G75*
G02*
X16402500Y-7007500I0J100000D01*
G01*
D11*
D10*
X9160000Y-6957500D02*
X9210000Y-7007500D01*
X9210000Y-6957500D02*
X9160000Y-7007500D01*
X9160000Y-7207500D02*
X9210000Y-7257500D01*
X9210000Y-7207500D02*
X9160000Y-7257500D01*
X9245000Y-6957500D02*
X9295000Y-7007500D01*
X9295000Y-6957500D02*
X9245000Y-7007500D01*
X9245000Y-7207500D02*
X9295000Y-7257500D01*
X9295000Y-7207500D02*
X9245000Y-7257500D01*
X9330000Y-6957500D02*
X9380000Y-7007500D01*
X9380000Y-6957500D02*
X9330000Y-7007500D01*
X9330000Y-7207500D02*
X9380000Y-7257500D01*
X9380000Y-7207500D02*
X9330000Y-7257500D01*
X9415000Y-6957500D02*
X9465000Y-7007500D01*
X9465000Y-6957500D02*
X9415000Y-7007500D01*
X9415000Y-7207500D02*
X9465000Y-7257500D01*
X9465000Y-7207500D02*
X9415000Y-7257500D01*
X9500000Y-6957500D02*
X9550000Y-7007500D01*
X9550000Y-6957500D02*
X9500000Y-7007500D01*
X9500000Y-7207500D02*
X9550000Y-7257500D01*
X9550000Y-7207500D02*
X9500000Y-7257500D01*
X9585000Y-6957500D02*
X9635000Y-7007500D01*
X9635000Y-6957500D02*
X9585000Y-7007500D01*
X9585000Y-7207500D02*
X9635000Y-7257500D01*
X9635000Y-7207500D02*
X9585000Y-7257500D01*
X9670000Y-6957500D02*
X9720000Y-7007500D01*
X9720000Y-6957500D02*
X9670000Y-7007500D01*
X9670000Y-7207500D02*
X9720000Y-7257500D01*
X9720000Y-7207500D02*
X9670000Y-7257500D01*
X10317500Y-5705100D02*
X10367500Y-5755100D01*
X10367500Y-5705100D02*
X10317500Y-5755100D01*
X10317500Y-5782500D02*
X10367500Y-5832500D01*
X10367500Y-5782500D02*
X10317500Y-5832500D01*
X10317500Y-5857500D02*
X10367500Y-5907500D01*
X10367500Y-5857500D02*
X10317500Y-5907500D01*
X10317500Y-5932500D02*
X10367500Y-5982500D01*
X10367500Y-5932500D02*
X10317500Y-5982500D01*
X10317500Y-6008700D02*
X10367500Y-6058700D01*
X10367500Y-6008700D02*
X10317500Y-6058700D01*
X10617500Y-5705100D02*
X10667500Y-5755100D01*
X10667500Y-5705100D02*
X10617500Y-5755100D01*
X10617500Y-5782500D02*
X10667500Y-5832500D01*
X10667500Y-5782500D02*
X10617500Y-5832500D01*
X10617500Y-5857500D02*
X10667500Y-5907500D01*
X10667500Y-5857500D02*
X10617500Y-5907500D01*
X10617500Y-5933700D02*
X10667500Y-5983700D01*
X10667500Y-5933700D02*
X10617500Y-5983700D01*
X10617500Y-6008700D02*
X10667500Y-6058700D01*
X10667500Y-6008700D02*
X10617500Y-6058700D01*
X11650000Y-6957500D02*
X11700000Y-7007500D01*
X11700000Y-6957500D02*
X11650000Y-7007500D01*
X11650000Y-7207500D02*
X11700000Y-7257500D01*
X11700000Y-7207500D02*
X11650000Y-7257500D01*
X11735000Y-6957500D02*
X11785000Y-7007500D01*
X11785000Y-6957500D02*
X11735000Y-7007500D01*
X11735000Y-7207500D02*
X11785000Y-7257500D01*
X11785000Y-7207500D02*
X11735000Y-7257500D01*
X11820000Y-6957500D02*
X11870000Y-7007500D01*
X11870000Y-6957500D02*
X11820000Y-7007500D01*
X11820000Y-7207500D02*
X11870000Y-7257500D01*
X11870000Y-7207500D02*
X11820000Y-7257500D01*
X11905000Y-6957500D02*
X11955000Y-7007500D01*
X11955000Y-6957500D02*
X11905000Y-7007500D01*
X11905000Y-7207500D02*
X11955000Y-7257500D01*
X11955000Y-7207500D02*
X11905000Y-7257500D01*
X11990000Y-6957500D02*
X12040000Y-7007500D01*
X12040000Y-6957500D02*
X11990000Y-7007500D01*
X11990000Y-7207500D02*
X12040000Y-7257500D01*
X12040000Y-7207500D02*
X11990000Y-7257500D01*
X12075000Y-6957500D02*
X12125000Y-7007500D01*
X12125000Y-6957500D02*
X12075000Y-7007500D01*
X12075000Y-7207500D02*
X12125000Y-7257500D01*
X12125000Y-7207500D02*
X12075000Y-7257500D01*
X12160000Y-6957500D02*
X12210000Y-7007500D01*
X12210000Y-6957500D02*
X12160000Y-7007500D01*
X12160000Y-7207500D02*
X12210000Y-7257500D01*
X12210000Y-7207500D02*
X12160000Y-7257500D01*
X15797500Y-6957500D02*
X15847500Y-7007500D01*
X15847500Y-6957500D02*
X15797500Y-7007500D01*
X15797500Y-7207500D02*
X15847500Y-7257500D01*
X15847500Y-7207500D02*
X15797500Y-7257500D01*
X15882500Y-6957500D02*
X15932500Y-7007500D01*
X15932500Y-6957500D02*
X15882500Y-7007500D01*
X15882500Y-7207500D02*
X15932500Y-7257500D01*
X15932500Y-7207500D02*
X15882500Y-7257500D01*
X15967500Y-6957500D02*
X16017500Y-7007500D01*
X16017500Y-6957500D02*
X15967500Y-7007500D01*
X15967500Y-7207500D02*
X16017500Y-7257500D01*
X16017500Y-7207500D02*
X15967500Y-7257500D01*
X16052500Y-6957500D02*
X16102500Y-7007500D01*
X16102500Y-6957500D02*
X16052500Y-7007500D01*
X16052500Y-7207500D02*
X16102500Y-7257500D01*
X16102500Y-7207500D02*
X16052500Y-7257500D01*
X16137500Y-6957500D02*
X16187500Y-7007500D01*
X16187500Y-6957500D02*
X16137500Y-7007500D01*
X16137500Y-7207500D02*
X16187500Y-7257500D01*
X16187500Y-7207500D02*
X16137500Y-7257500D01*
X16222500Y-6957500D02*
X16272500Y-7007500D01*
X16272500Y-6957500D02*
X16222500Y-7007500D01*
X16222500Y-7207500D02*
X16272500Y-7257500D01*
X16272500Y-7207500D02*
X16222500Y-7257500D01*
X16307500Y-6957500D02*
X16357500Y-7007500D01*
X16357500Y-6957500D02*
X16307500Y-7007500D01*
X16307500Y-7207500D02*
X16357500Y-7257500D01*
X16357500Y-7207500D02*
X16307500Y-7257500D01*
D12*
X13957500Y-7760500D02*
G75*
G02*
X13807500Y-7760500I-75000J0D01*
G01*
X13807500Y-7760500D02*
G75*
G02*
X13957500Y-7760500I75000J0D01*
G01*
X14442500Y-7760500D02*
G75*
G02*
X14292500Y-7760500I-75000J0D01*
G01*
X14292500Y-7760500D02*
G75*
G02*
X14442500Y-7760500I75000J0D01*
G01*
D13*
X13852500Y-7367500D02*
X13852500Y-7547500D01*
X13762500Y-7457500D02*
X13942500Y-7457500D01*
X14397500Y-7367500D02*
X14397500Y-7547500D01*
X14307500Y-7457500D02*
X14487500Y-7457500D01*
D11*
X8523277Y-12923984D02*
X8523277Y-12723984D01*
X8523277Y-12723984D02*
X8570896Y-12723984D01*
X8570896Y-12723984D02*
X8599467Y-12733508D01*
X8599467Y-12733508D02*
X8618515Y-12752555D01*
X8618515Y-12752555D02*
X8628039Y-12771603D01*
X8628039Y-12771603D02*
X8637562Y-12809698D01*
X8637562Y-12809698D02*
X8637562Y-12838269D01*
X8637562Y-12838269D02*
X8628039Y-12876365D01*
X8628039Y-12876365D02*
X8618515Y-12895412D01*
X8618515Y-12895412D02*
X8599467Y-12914460D01*
X8599467Y-12914460D02*
X8570896Y-12923984D01*
X8570896Y-12923984D02*
X8523277Y-12923984D01*
X8723277Y-12923984D02*
X8723277Y-12790650D01*
X8723277Y-12828746D02*
X8732801Y-12809698D01*
X8732801Y-12809698D02*
X8742324Y-12800174D01*
X8742324Y-12800174D02*
X8761372Y-12790650D01*
X8761372Y-12790650D02*
X8780420Y-12790650D01*
X8847086Y-12923984D02*
X8847086Y-12790650D01*
X8847086Y-12723984D02*
X8837562Y-12733508D01*
X8837562Y-12733508D02*
X8847086Y-12743031D01*
X8847086Y-12743031D02*
X8856610Y-12733508D01*
X8856610Y-12733508D02*
X8847086Y-12723984D01*
X8847086Y-12723984D02*
X8847086Y-12743031D01*
X8970896Y-12923984D02*
X8951848Y-12914460D01*
X8951848Y-12914460D02*
X8942324Y-12895412D01*
X8942324Y-12895412D02*
X8942324Y-12723984D01*
X9075658Y-12923984D02*
X9056610Y-12914460D01*
X9056610Y-12914460D02*
X9047086Y-12895412D01*
X9047086Y-12895412D02*
X9047086Y-12723984D01*
X9304229Y-12923984D02*
X9304229Y-12723984D01*
X9304229Y-12723984D02*
X9370896Y-12866841D01*
X9370896Y-12866841D02*
X9437562Y-12723984D01*
X9437562Y-12723984D02*
X9437562Y-12923984D01*
X9618515Y-12923984D02*
X9618515Y-12819222D01*
X9618515Y-12819222D02*
X9608991Y-12800174D01*
X9608991Y-12800174D02*
X9589943Y-12790650D01*
X9589943Y-12790650D02*
X9551848Y-12790650D01*
X9551848Y-12790650D02*
X9532801Y-12800174D01*
X9618515Y-12914460D02*
X9599467Y-12923984D01*
X9599467Y-12923984D02*
X9551848Y-12923984D01*
X9551848Y-12923984D02*
X9532801Y-12914460D01*
X9532801Y-12914460D02*
X9523277Y-12895412D01*
X9523277Y-12895412D02*
X9523277Y-12876365D01*
X9523277Y-12876365D02*
X9532801Y-12857317D01*
X9532801Y-12857317D02*
X9551848Y-12847793D01*
X9551848Y-12847793D02*
X9599467Y-12847793D01*
X9599467Y-12847793D02*
X9618515Y-12838269D01*
X9713753Y-12790650D02*
X9713753Y-12990650D01*
X9713753Y-12800174D02*
X9732801Y-12790650D01*
X9732801Y-12790650D02*
X9770896Y-12790650D01*
X9770896Y-12790650D02*
X9789943Y-12800174D01*
X9789943Y-12800174D02*
X9799467Y-12809698D01*
X9799467Y-12809698D02*
X9808991Y-12828746D01*
X9808991Y-12828746D02*
X9808991Y-12885888D01*
X9808991Y-12885888D02*
X9799467Y-12904936D01*
X9799467Y-12904936D02*
X9789943Y-12914460D01*
X9789943Y-12914460D02*
X9770896Y-12923984D01*
X9770896Y-12923984D02*
X9732801Y-12923984D01*
X9732801Y-12923984D02*
X9713753Y-12914460D01*
X9894705Y-12904936D02*
X9904229Y-12914460D01*
X9904229Y-12914460D02*
X9894705Y-12923984D01*
X9894705Y-12923984D02*
X9885182Y-12914460D01*
X9885182Y-12914460D02*
X9894705Y-12904936D01*
X9894705Y-12904936D02*
X9894705Y-12923984D01*
X9894705Y-12800174D02*
X9904229Y-12809698D01*
X9904229Y-12809698D02*
X9894705Y-12819222D01*
X9894705Y-12819222D02*
X9885182Y-12809698D01*
X9885182Y-12809698D02*
X9894705Y-12800174D01*
X9894705Y-12800174D02*
X9894705Y-12819222D01*
D10*
X8212500Y-13227500D02*
X8262500Y-13277500D01*
X8262500Y-13227500D02*
X8212500Y-13277500D01*
D11*
X8561372Y-13143984D02*
X8580420Y-13143984D01*
X8580420Y-13143984D02*
X8599467Y-13153508D01*
X8599467Y-13153508D02*
X8608991Y-13163031D01*
X8608991Y-13163031D02*
X8618515Y-13182079D01*
X8618515Y-13182079D02*
X8628039Y-13220174D01*
X8628039Y-13220174D02*
X8628039Y-13267793D01*
X8628039Y-13267793D02*
X8618515Y-13305888D01*
X8618515Y-13305888D02*
X8608991Y-13324936D01*
X8608991Y-13324936D02*
X8599467Y-13334460D01*
X8599467Y-13334460D02*
X8580420Y-13343984D01*
X8580420Y-13343984D02*
X8561372Y-13343984D01*
X8561372Y-13343984D02*
X8542324Y-13334460D01*
X8542324Y-13334460D02*
X8532801Y-13324936D01*
X8532801Y-13324936D02*
X8523277Y-13305888D01*
X8523277Y-13305888D02*
X8513753Y-13267793D01*
X8513753Y-13267793D02*
X8513753Y-13220174D01*
X8513753Y-13220174D02*
X8523277Y-13182079D01*
X8523277Y-13182079D02*
X8532801Y-13163031D01*
X8532801Y-13163031D02*
X8542324Y-13153508D01*
X8542324Y-13153508D02*
X8561372Y-13143984D01*
X8723277Y-13334460D02*
X8723277Y-13343984D01*
X8723277Y-13343984D02*
X8713753Y-13363031D01*
X8713753Y-13363031D02*
X8704229Y-13372555D01*
X8904229Y-13143984D02*
X8808991Y-13143984D01*
X8808991Y-13143984D02*
X8799467Y-13239222D01*
X8799467Y-13239222D02*
X8808991Y-13229698D01*
X8808991Y-13229698D02*
X8828039Y-13220174D01*
X8828039Y-13220174D02*
X8875658Y-13220174D01*
X8875658Y-13220174D02*
X8894705Y-13229698D01*
X8894705Y-13229698D02*
X8904229Y-13239222D01*
X8904229Y-13239222D02*
X8913753Y-13258269D01*
X8913753Y-13258269D02*
X8913753Y-13305888D01*
X8913753Y-13305888D02*
X8904229Y-13324936D01*
X8904229Y-13324936D02*
X8894705Y-13334460D01*
X8894705Y-13334460D02*
X8875658Y-13343984D01*
X8875658Y-13343984D02*
X8828039Y-13343984D01*
X8828039Y-13343984D02*
X8808991Y-13334460D01*
X8808991Y-13334460D02*
X8799467Y-13324936D01*
X9037562Y-13143984D02*
X9056610Y-13143984D01*
X9056610Y-13143984D02*
X9075658Y-13153508D01*
X9075658Y-13153508D02*
X9085182Y-13163031D01*
X9085182Y-13163031D02*
X9094705Y-13182079D01*
X9094705Y-13182079D02*
X9104229Y-13220174D01*
X9104229Y-13220174D02*
X9104229Y-13267793D01*
X9104229Y-13267793D02*
X9094705Y-13305888D01*
X9094705Y-13305888D02*
X9085182Y-13324936D01*
X9085182Y-13324936D02*
X9075658Y-13334460D01*
X9075658Y-13334460D02*
X9056610Y-13343984D01*
X9056610Y-13343984D02*
X9037562Y-13343984D01*
X9037562Y-13343984D02*
X9018515Y-13334460D01*
X9018515Y-13334460D02*
X9008991Y-13324936D01*
X9008991Y-13324936D02*
X8999467Y-13305888D01*
X8999467Y-13305888D02*
X8989943Y-13267793D01*
X8989943Y-13267793D02*
X8989943Y-13220174D01*
X8989943Y-13220174D02*
X8999467Y-13182079D01*
X8999467Y-13182079D02*
X9008991Y-13163031D01*
X9008991Y-13163031D02*
X9018515Y-13153508D01*
X9018515Y-13153508D02*
X9037562Y-13143984D01*
X9228039Y-13143984D02*
X9247086Y-13143984D01*
X9247086Y-13143984D02*
X9266134Y-13153508D01*
X9266134Y-13153508D02*
X9275658Y-13163031D01*
X9275658Y-13163031D02*
X9285182Y-13182079D01*
X9285182Y-13182079D02*
X9294705Y-13220174D01*
X9294705Y-13220174D02*
X9294705Y-13267793D01*
X9294705Y-13267793D02*
X9285182Y-13305888D01*
X9285182Y-13305888D02*
X9275658Y-13324936D01*
X9275658Y-13324936D02*
X9266134Y-13334460D01*
X9266134Y-13334460D02*
X9247086Y-13343984D01*
X9247086Y-13343984D02*
X9228039Y-13343984D01*
X9228039Y-13343984D02*
X9208991Y-13334460D01*
X9208991Y-13334460D02*
X9199467Y-13324936D01*
X9199467Y-13324936D02*
X9189943Y-13305888D01*
X9189943Y-13305888D02*
X9180420Y-13267793D01*
X9180420Y-13267793D02*
X9180420Y-13220174D01*
X9180420Y-13220174D02*
X9189943Y-13182079D01*
X9189943Y-13182079D02*
X9199467Y-13163031D01*
X9199467Y-13163031D02*
X9208991Y-13153508D01*
X9208991Y-13153508D02*
X9228039Y-13143984D01*
X9380420Y-13343984D02*
X9380420Y-13210650D01*
X9380420Y-13229698D02*
X9389943Y-13220174D01*
X9389943Y-13220174D02*
X9408991Y-13210650D01*
X9408991Y-13210650D02*
X9437563Y-13210650D01*
X9437563Y-13210650D02*
X9456610Y-13220174D01*
X9456610Y-13220174D02*
X9466134Y-13239222D01*
X9466134Y-13239222D02*
X9466134Y-13343984D01*
X9466134Y-13239222D02*
X9475658Y-13220174D01*
X9475658Y-13220174D02*
X9494705Y-13210650D01*
X9494705Y-13210650D02*
X9523277Y-13210650D01*
X9523277Y-13210650D02*
X9542324Y-13220174D01*
X9542324Y-13220174D02*
X9551848Y-13239222D01*
X9551848Y-13239222D02*
X9551848Y-13343984D01*
X9647086Y-13343984D02*
X9647086Y-13210650D01*
X9647086Y-13229698D02*
X9656610Y-13220174D01*
X9656610Y-13220174D02*
X9675658Y-13210650D01*
X9675658Y-13210650D02*
X9704229Y-13210650D01*
X9704229Y-13210650D02*
X9723277Y-13220174D01*
X9723277Y-13220174D02*
X9732801Y-13239222D01*
X9732801Y-13239222D02*
X9732801Y-13343984D01*
X9732801Y-13239222D02*
X9742324Y-13220174D01*
X9742324Y-13220174D02*
X9761372Y-13210650D01*
X9761372Y-13210650D02*
X9789943Y-13210650D01*
X9789943Y-13210650D02*
X9808991Y-13220174D01*
X9808991Y-13220174D02*
X9818515Y-13239222D01*
X9818515Y-13239222D02*
X9818515Y-13343984D01*
X10208991Y-13134460D02*
X10037563Y-13391603D01*
X10466134Y-13143984D02*
X10485182Y-13143984D01*
X10485182Y-13143984D02*
X10504229Y-13153508D01*
X10504229Y-13153508D02*
X10513753Y-13163031D01*
X10513753Y-13163031D02*
X10523277Y-13182079D01*
X10523277Y-13182079D02*
X10532801Y-13220174D01*
X10532801Y-13220174D02*
X10532801Y-13267793D01*
X10532801Y-13267793D02*
X10523277Y-13305888D01*
X10523277Y-13305888D02*
X10513753Y-13324936D01*
X10513753Y-13324936D02*
X10504229Y-13334460D01*
X10504229Y-13334460D02*
X10485182Y-13343984D01*
X10485182Y-13343984D02*
X10466134Y-13343984D01*
X10466134Y-13343984D02*
X10447086Y-13334460D01*
X10447086Y-13334460D02*
X10437563Y-13324936D01*
X10437563Y-13324936D02*
X10428039Y-13305888D01*
X10428039Y-13305888D02*
X10418515Y-13267793D01*
X10418515Y-13267793D02*
X10418515Y-13220174D01*
X10418515Y-13220174D02*
X10428039Y-13182079D01*
X10428039Y-13182079D02*
X10437563Y-13163031D01*
X10437563Y-13163031D02*
X10447086Y-13153508D01*
X10447086Y-13153508D02*
X10466134Y-13143984D01*
X10628039Y-13334460D02*
X10628039Y-13343984D01*
X10628039Y-13343984D02*
X10618515Y-13363031D01*
X10618515Y-13363031D02*
X10608991Y-13372555D01*
X10751848Y-13143984D02*
X10770896Y-13143984D01*
X10770896Y-13143984D02*
X10789944Y-13153508D01*
X10789944Y-13153508D02*
X10799467Y-13163031D01*
X10799467Y-13163031D02*
X10808991Y-13182079D01*
X10808991Y-13182079D02*
X10818515Y-13220174D01*
X10818515Y-13220174D02*
X10818515Y-13267793D01*
X10818515Y-13267793D02*
X10808991Y-13305888D01*
X10808991Y-13305888D02*
X10799467Y-13324936D01*
X10799467Y-13324936D02*
X10789944Y-13334460D01*
X10789944Y-13334460D02*
X10770896Y-13343984D01*
X10770896Y-13343984D02*
X10751848Y-13343984D01*
X10751848Y-13343984D02*
X10732801Y-13334460D01*
X10732801Y-13334460D02*
X10723277Y-13324936D01*
X10723277Y-13324936D02*
X10713753Y-13305888D01*
X10713753Y-13305888D02*
X10704229Y-13267793D01*
X10704229Y-13267793D02*
X10704229Y-13220174D01*
X10704229Y-13220174D02*
X10713753Y-13182079D01*
X10713753Y-13182079D02*
X10723277Y-13163031D01*
X10723277Y-13163031D02*
X10732801Y-13153508D01*
X10732801Y-13153508D02*
X10751848Y-13143984D01*
X11008991Y-13343984D02*
X10894706Y-13343984D01*
X10951848Y-13343984D02*
X10951848Y-13143984D01*
X10951848Y-13143984D02*
X10932801Y-13172555D01*
X10932801Y-13172555D02*
X10913753Y-13191603D01*
X10913753Y-13191603D02*
X10894706Y-13201127D01*
X11104229Y-13343984D02*
X11142325Y-13343984D01*
X11142325Y-13343984D02*
X11161372Y-13334460D01*
X11161372Y-13334460D02*
X11170896Y-13324936D01*
X11170896Y-13324936D02*
X11189944Y-13296365D01*
X11189944Y-13296365D02*
X11199467Y-13258269D01*
X11199467Y-13258269D02*
X11199467Y-13182079D01*
X11199467Y-13182079D02*
X11189944Y-13163031D01*
X11189944Y-13163031D02*
X11180420Y-13153508D01*
X11180420Y-13153508D02*
X11161372Y-13143984D01*
X11161372Y-13143984D02*
X11123277Y-13143984D01*
X11123277Y-13143984D02*
X11104229Y-13153508D01*
X11104229Y-13153508D02*
X11094706Y-13163031D01*
X11094706Y-13163031D02*
X11085182Y-13182079D01*
X11085182Y-13182079D02*
X11085182Y-13229698D01*
X11085182Y-13229698D02*
X11094706Y-13248746D01*
X11094706Y-13248746D02*
X11104229Y-13258269D01*
X11104229Y-13258269D02*
X11123277Y-13267793D01*
X11123277Y-13267793D02*
X11161372Y-13267793D01*
X11161372Y-13267793D02*
X11180420Y-13258269D01*
X11180420Y-13258269D02*
X11189944Y-13248746D01*
X11189944Y-13248746D02*
X11199467Y-13229698D01*
X11266134Y-13143984D02*
X11399467Y-13143984D01*
X11399467Y-13143984D02*
X11313753Y-13343984D01*
X11466134Y-13143984D02*
X11466134Y-13182079D01*
X11542325Y-13143984D02*
X11542325Y-13182079D01*
X11837563Y-13420174D02*
X11828039Y-13410650D01*
X11828039Y-13410650D02*
X11808991Y-13382079D01*
X11808991Y-13382079D02*
X11799467Y-13363031D01*
X11799467Y-13363031D02*
X11789944Y-13334460D01*
X11789944Y-13334460D02*
X11780420Y-13286841D01*
X11780420Y-13286841D02*
X11780420Y-13248746D01*
X11780420Y-13248746D02*
X11789944Y-13201127D01*
X11789944Y-13201127D02*
X11799467Y-13172555D01*
X11799467Y-13172555D02*
X11808991Y-13153508D01*
X11808991Y-13153508D02*
X11828039Y-13124936D01*
X11828039Y-13124936D02*
X11837563Y-13115412D01*
X12008991Y-13143984D02*
X11913753Y-13143984D01*
X11913753Y-13143984D02*
X11904229Y-13239222D01*
X11904229Y-13239222D02*
X11913753Y-13229698D01*
X11913753Y-13229698D02*
X11932801Y-13220174D01*
X11932801Y-13220174D02*
X11980420Y-13220174D01*
X11980420Y-13220174D02*
X11999467Y-13229698D01*
X11999467Y-13229698D02*
X12008991Y-13239222D01*
X12008991Y-13239222D02*
X12018515Y-13258269D01*
X12018515Y-13258269D02*
X12018515Y-13305888D01*
X12018515Y-13305888D02*
X12008991Y-13324936D01*
X12008991Y-13324936D02*
X11999467Y-13334460D01*
X11999467Y-13334460D02*
X11980420Y-13343984D01*
X11980420Y-13343984D02*
X11932801Y-13343984D01*
X11932801Y-13343984D02*
X11913753Y-13334460D01*
X11913753Y-13334460D02*
X11904229Y-13324936D01*
X12094706Y-13163031D02*
X12104229Y-13153508D01*
X12104229Y-13153508D02*
X12123277Y-13143984D01*
X12123277Y-13143984D02*
X12170896Y-13143984D01*
X12170896Y-13143984D02*
X12189944Y-13153508D01*
X12189944Y-13153508D02*
X12199467Y-13163031D01*
X12199467Y-13163031D02*
X12208991Y-13182079D01*
X12208991Y-13182079D02*
X12208991Y-13201127D01*
X12208991Y-13201127D02*
X12199467Y-13229698D01*
X12199467Y-13229698D02*
X12085182Y-13343984D01*
X12085182Y-13343984D02*
X12208991Y-13343984D01*
X12447087Y-13343984D02*
X12447087Y-13143984D01*
X12532801Y-13343984D02*
X12532801Y-13239222D01*
X12532801Y-13239222D02*
X12523277Y-13220174D01*
X12523277Y-13220174D02*
X12504229Y-13210650D01*
X12504229Y-13210650D02*
X12475658Y-13210650D01*
X12475658Y-13210650D02*
X12456610Y-13220174D01*
X12456610Y-13220174D02*
X12447087Y-13229698D01*
X12656610Y-13343984D02*
X12637563Y-13334460D01*
X12637563Y-13334460D02*
X12628039Y-13324936D01*
X12628039Y-13324936D02*
X12618515Y-13305888D01*
X12618515Y-13305888D02*
X12618515Y-13248746D01*
X12618515Y-13248746D02*
X12628039Y-13229698D01*
X12628039Y-13229698D02*
X12637563Y-13220174D01*
X12637563Y-13220174D02*
X12656610Y-13210650D01*
X12656610Y-13210650D02*
X12685182Y-13210650D01*
X12685182Y-13210650D02*
X12704229Y-13220174D01*
X12704229Y-13220174D02*
X12713753Y-13229698D01*
X12713753Y-13229698D02*
X12723277Y-13248746D01*
X12723277Y-13248746D02*
X12723277Y-13305888D01*
X12723277Y-13305888D02*
X12713753Y-13324936D01*
X12713753Y-13324936D02*
X12704229Y-13334460D01*
X12704229Y-13334460D02*
X12685182Y-13343984D01*
X12685182Y-13343984D02*
X12656610Y-13343984D01*
X12837563Y-13343984D02*
X12818515Y-13334460D01*
X12818515Y-13334460D02*
X12808991Y-13315412D01*
X12808991Y-13315412D02*
X12808991Y-13143984D01*
X12989944Y-13334460D02*
X12970896Y-13343984D01*
X12970896Y-13343984D02*
X12932801Y-13343984D01*
X12932801Y-13343984D02*
X12913753Y-13334460D01*
X12913753Y-13334460D02*
X12904229Y-13315412D01*
X12904229Y-13315412D02*
X12904229Y-13239222D01*
X12904229Y-13239222D02*
X12913753Y-13220174D01*
X12913753Y-13220174D02*
X12932801Y-13210650D01*
X12932801Y-13210650D02*
X12970896Y-13210650D01*
X12970896Y-13210650D02*
X12989944Y-13220174D01*
X12989944Y-13220174D02*
X12999468Y-13239222D01*
X12999468Y-13239222D02*
X12999468Y-13258269D01*
X12999468Y-13258269D02*
X12904229Y-13277317D01*
X13075658Y-13334460D02*
X13094706Y-13343984D01*
X13094706Y-13343984D02*
X13132801Y-13343984D01*
X13132801Y-13343984D02*
X13151849Y-13334460D01*
X13151849Y-13334460D02*
X13161372Y-13315412D01*
X13161372Y-13315412D02*
X13161372Y-13305888D01*
X13161372Y-13305888D02*
X13151849Y-13286841D01*
X13151849Y-13286841D02*
X13132801Y-13277317D01*
X13132801Y-13277317D02*
X13104229Y-13277317D01*
X13104229Y-13277317D02*
X13085182Y-13267793D01*
X13085182Y-13267793D02*
X13075658Y-13248746D01*
X13075658Y-13248746D02*
X13075658Y-13239222D01*
X13075658Y-13239222D02*
X13085182Y-13220174D01*
X13085182Y-13220174D02*
X13104229Y-13210650D01*
X13104229Y-13210650D02*
X13132801Y-13210650D01*
X13132801Y-13210650D02*
X13151849Y-13220174D01*
X13228039Y-13420174D02*
X13237563Y-13410650D01*
X13237563Y-13410650D02*
X13256610Y-13382079D01*
X13256610Y-13382079D02*
X13266134Y-13363031D01*
X13266134Y-13363031D02*
X13275658Y-13334460D01*
X13275658Y-13334460D02*
X13285182Y-13286841D01*
X13285182Y-13286841D02*
X13285182Y-13248746D01*
X13285182Y-13248746D02*
X13275658Y-13201127D01*
X13275658Y-13201127D02*
X13266134Y-13172555D01*
X13266134Y-13172555D02*
X13256610Y-13153508D01*
X13256610Y-13153508D02*
X13237563Y-13124936D01*
X13237563Y-13124936D02*
X13228039Y-13115412D01*
X13589944Y-13420174D02*
X13580420Y-13410650D01*
X13580420Y-13410650D02*
X13561372Y-13382079D01*
X13561372Y-13382079D02*
X13551849Y-13363031D01*
X13551849Y-13363031D02*
X13542325Y-13334460D01*
X13542325Y-13334460D02*
X13532801Y-13286841D01*
X13532801Y-13286841D02*
X13532801Y-13248746D01*
X13532801Y-13248746D02*
X13542325Y-13201127D01*
X13542325Y-13201127D02*
X13551849Y-13172555D01*
X13551849Y-13172555D02*
X13561372Y-13153508D01*
X13561372Y-13153508D02*
X13580420Y-13124936D01*
X13580420Y-13124936D02*
X13589944Y-13115412D01*
X13666134Y-13210650D02*
X13666134Y-13343984D01*
X13666134Y-13229698D02*
X13675658Y-13220174D01*
X13675658Y-13220174D02*
X13694706Y-13210650D01*
X13694706Y-13210650D02*
X13723277Y-13210650D01*
X13723277Y-13210650D02*
X13742325Y-13220174D01*
X13742325Y-13220174D02*
X13751849Y-13239222D01*
X13751849Y-13239222D02*
X13751849Y-13343984D01*
X13875658Y-13343984D02*
X13856610Y-13334460D01*
X13856610Y-13334460D02*
X13847087Y-13324936D01*
X13847087Y-13324936D02*
X13837563Y-13305888D01*
X13837563Y-13305888D02*
X13837563Y-13248746D01*
X13837563Y-13248746D02*
X13847087Y-13229698D01*
X13847087Y-13229698D02*
X13856610Y-13220174D01*
X13856610Y-13220174D02*
X13875658Y-13210650D01*
X13875658Y-13210650D02*
X13904230Y-13210650D01*
X13904230Y-13210650D02*
X13923277Y-13220174D01*
X13923277Y-13220174D02*
X13932801Y-13229698D01*
X13932801Y-13229698D02*
X13942325Y-13248746D01*
X13942325Y-13248746D02*
X13942325Y-13305888D01*
X13942325Y-13305888D02*
X13932801Y-13324936D01*
X13932801Y-13324936D02*
X13923277Y-13334460D01*
X13923277Y-13334460D02*
X13904230Y-13343984D01*
X13904230Y-13343984D02*
X13875658Y-13343984D01*
X13999468Y-13210650D02*
X14075658Y-13210650D01*
X14028039Y-13143984D02*
X14028039Y-13315412D01*
X14028039Y-13315412D02*
X14037563Y-13334460D01*
X14037563Y-13334460D02*
X14056610Y-13343984D01*
X14056610Y-13343984D02*
X14075658Y-13343984D01*
X14294706Y-13210650D02*
X14294706Y-13410650D01*
X14294706Y-13220174D02*
X14313753Y-13210650D01*
X14313753Y-13210650D02*
X14351849Y-13210650D01*
X14351849Y-13210650D02*
X14370896Y-13220174D01*
X14370896Y-13220174D02*
X14380420Y-13229698D01*
X14380420Y-13229698D02*
X14389944Y-13248746D01*
X14389944Y-13248746D02*
X14389944Y-13305888D01*
X14389944Y-13305888D02*
X14380420Y-13324936D01*
X14380420Y-13324936D02*
X14370896Y-13334460D01*
X14370896Y-13334460D02*
X14351849Y-13343984D01*
X14351849Y-13343984D02*
X14313753Y-13343984D01*
X14313753Y-13343984D02*
X14294706Y-13334460D01*
X14504230Y-13343984D02*
X14485182Y-13334460D01*
X14485182Y-13334460D02*
X14475658Y-13315412D01*
X14475658Y-13315412D02*
X14475658Y-13143984D01*
X14666134Y-13343984D02*
X14666134Y-13239222D01*
X14666134Y-13239222D02*
X14656611Y-13220174D01*
X14656611Y-13220174D02*
X14637563Y-13210650D01*
X14637563Y-13210650D02*
X14599468Y-13210650D01*
X14599468Y-13210650D02*
X14580420Y-13220174D01*
X14666134Y-13334460D02*
X14647087Y-13343984D01*
X14647087Y-13343984D02*
X14599468Y-13343984D01*
X14599468Y-13343984D02*
X14580420Y-13334460D01*
X14580420Y-13334460D02*
X14570896Y-13315412D01*
X14570896Y-13315412D02*
X14570896Y-13296365D01*
X14570896Y-13296365D02*
X14580420Y-13277317D01*
X14580420Y-13277317D02*
X14599468Y-13267793D01*
X14599468Y-13267793D02*
X14647087Y-13267793D01*
X14647087Y-13267793D02*
X14666134Y-13258269D01*
X14732801Y-13210650D02*
X14808991Y-13210650D01*
X14761372Y-13143984D02*
X14761372Y-13315412D01*
X14761372Y-13315412D02*
X14770896Y-13334460D01*
X14770896Y-13334460D02*
X14789944Y-13343984D01*
X14789944Y-13343984D02*
X14808991Y-13343984D01*
X14951849Y-13334460D02*
X14932801Y-13343984D01*
X14932801Y-13343984D02*
X14894706Y-13343984D01*
X14894706Y-13343984D02*
X14875658Y-13334460D01*
X14875658Y-13334460D02*
X14866134Y-13315412D01*
X14866134Y-13315412D02*
X14866134Y-13239222D01*
X14866134Y-13239222D02*
X14875658Y-13220174D01*
X14875658Y-13220174D02*
X14894706Y-13210650D01*
X14894706Y-13210650D02*
X14932801Y-13210650D01*
X14932801Y-13210650D02*
X14951849Y-13220174D01*
X14951849Y-13220174D02*
X14961372Y-13239222D01*
X14961372Y-13239222D02*
X14961372Y-13258269D01*
X14961372Y-13258269D02*
X14866134Y-13277317D01*
X15132801Y-13343984D02*
X15132801Y-13143984D01*
X15132801Y-13334460D02*
X15113753Y-13343984D01*
X15113753Y-13343984D02*
X15075658Y-13343984D01*
X15075658Y-13343984D02*
X15056611Y-13334460D01*
X15056611Y-13334460D02*
X15047087Y-13324936D01*
X15047087Y-13324936D02*
X15037563Y-13305888D01*
X15037563Y-13305888D02*
X15037563Y-13248746D01*
X15037563Y-13248746D02*
X15047087Y-13229698D01*
X15047087Y-13229698D02*
X15056611Y-13220174D01*
X15056611Y-13220174D02*
X15075658Y-13210650D01*
X15075658Y-13210650D02*
X15113753Y-13210650D01*
X15113753Y-13210650D02*
X15132801Y-13220174D01*
X15208992Y-13420174D02*
X15218515Y-13410650D01*
X15218515Y-13410650D02*
X15237563Y-13382079D01*
X15237563Y-13382079D02*
X15247087Y-13363031D01*
X15247087Y-13363031D02*
X15256611Y-13334460D01*
X15256611Y-13334460D02*
X15266134Y-13286841D01*
X15266134Y-13286841D02*
X15266134Y-13248746D01*
X15266134Y-13248746D02*
X15256611Y-13201127D01*
X15256611Y-13201127D02*
X15247087Y-13172555D01*
X15247087Y-13172555D02*
X15237563Y-13153508D01*
X15237563Y-13153508D02*
X15218515Y-13124936D01*
X15218515Y-13124936D02*
X15208992Y-13115412D01*
D12*
X8262500Y-13516500D02*
G75*
G02*
X8112500Y-13516500I-75000J0D01*
G01*
X8112500Y-13516500D02*
G75*
G02*
X8262500Y-13516500I75000J0D01*
G01*
D11*
X8628039Y-13607984D02*
X8513753Y-13607984D01*
X8570896Y-13607984D02*
X8570896Y-13407984D01*
X8570896Y-13407984D02*
X8551848Y-13436555D01*
X8551848Y-13436555D02*
X8532801Y-13455603D01*
X8532801Y-13455603D02*
X8513753Y-13465127D01*
X8723277Y-13598460D02*
X8723277Y-13607984D01*
X8723277Y-13607984D02*
X8713753Y-13627031D01*
X8713753Y-13627031D02*
X8704229Y-13636555D01*
X8904229Y-13407984D02*
X8808991Y-13407984D01*
X8808991Y-13407984D02*
X8799467Y-13503222D01*
X8799467Y-13503222D02*
X8808991Y-13493698D01*
X8808991Y-13493698D02*
X8828039Y-13484174D01*
X8828039Y-13484174D02*
X8875658Y-13484174D01*
X8875658Y-13484174D02*
X8894705Y-13493698D01*
X8894705Y-13493698D02*
X8904229Y-13503222D01*
X8904229Y-13503222D02*
X8913753Y-13522269D01*
X8913753Y-13522269D02*
X8913753Y-13569888D01*
X8913753Y-13569888D02*
X8904229Y-13588936D01*
X8904229Y-13588936D02*
X8894705Y-13598460D01*
X8894705Y-13598460D02*
X8875658Y-13607984D01*
X8875658Y-13607984D02*
X8828039Y-13607984D01*
X8828039Y-13607984D02*
X8808991Y-13598460D01*
X8808991Y-13598460D02*
X8799467Y-13588936D01*
X9037562Y-13407984D02*
X9056610Y-13407984D01*
X9056610Y-13407984D02*
X9075658Y-13417508D01*
X9075658Y-13417508D02*
X9085182Y-13427031D01*
X9085182Y-13427031D02*
X9094705Y-13446079D01*
X9094705Y-13446079D02*
X9104229Y-13484174D01*
X9104229Y-13484174D02*
X9104229Y-13531793D01*
X9104229Y-13531793D02*
X9094705Y-13569888D01*
X9094705Y-13569888D02*
X9085182Y-13588936D01*
X9085182Y-13588936D02*
X9075658Y-13598460D01*
X9075658Y-13598460D02*
X9056610Y-13607984D01*
X9056610Y-13607984D02*
X9037562Y-13607984D01*
X9037562Y-13607984D02*
X9018515Y-13598460D01*
X9018515Y-13598460D02*
X9008991Y-13588936D01*
X9008991Y-13588936D02*
X8999467Y-13569888D01*
X8999467Y-13569888D02*
X8989943Y-13531793D01*
X8989943Y-13531793D02*
X8989943Y-13484174D01*
X8989943Y-13484174D02*
X8999467Y-13446079D01*
X8999467Y-13446079D02*
X9008991Y-13427031D01*
X9008991Y-13427031D02*
X9018515Y-13417508D01*
X9018515Y-13417508D02*
X9037562Y-13407984D01*
X9228039Y-13407984D02*
X9247086Y-13407984D01*
X9247086Y-13407984D02*
X9266134Y-13417508D01*
X9266134Y-13417508D02*
X9275658Y-13427031D01*
X9275658Y-13427031D02*
X9285182Y-13446079D01*
X9285182Y-13446079D02*
X9294705Y-13484174D01*
X9294705Y-13484174D02*
X9294705Y-13531793D01*
X9294705Y-13531793D02*
X9285182Y-13569888D01*
X9285182Y-13569888D02*
X9275658Y-13588936D01*
X9275658Y-13588936D02*
X9266134Y-13598460D01*
X9266134Y-13598460D02*
X9247086Y-13607984D01*
X9247086Y-13607984D02*
X9228039Y-13607984D01*
X9228039Y-13607984D02*
X9208991Y-13598460D01*
X9208991Y-13598460D02*
X9199467Y-13588936D01*
X9199467Y-13588936D02*
X9189943Y-13569888D01*
X9189943Y-13569888D02*
X9180420Y-13531793D01*
X9180420Y-13531793D02*
X9180420Y-13484174D01*
X9180420Y-13484174D02*
X9189943Y-13446079D01*
X9189943Y-13446079D02*
X9199467Y-13427031D01*
X9199467Y-13427031D02*
X9208991Y-13417508D01*
X9208991Y-13417508D02*
X9228039Y-13407984D01*
X9380420Y-13607984D02*
X9380420Y-13474650D01*
X9380420Y-13493698D02*
X9389943Y-13484174D01*
X9389943Y-13484174D02*
X9408991Y-13474650D01*
X9408991Y-13474650D02*
X9437563Y-13474650D01*
X9437563Y-13474650D02*
X9456610Y-13484174D01*
X9456610Y-13484174D02*
X9466134Y-13503222D01*
X9466134Y-13503222D02*
X9466134Y-13607984D01*
X9466134Y-13503222D02*
X9475658Y-13484174D01*
X9475658Y-13484174D02*
X9494705Y-13474650D01*
X9494705Y-13474650D02*
X9523277Y-13474650D01*
X9523277Y-13474650D02*
X9542324Y-13484174D01*
X9542324Y-13484174D02*
X9551848Y-13503222D01*
X9551848Y-13503222D02*
X9551848Y-13607984D01*
X9647086Y-13607984D02*
X9647086Y-13474650D01*
X9647086Y-13493698D02*
X9656610Y-13484174D01*
X9656610Y-13484174D02*
X9675658Y-13474650D01*
X9675658Y-13474650D02*
X9704229Y-13474650D01*
X9704229Y-13474650D02*
X9723277Y-13484174D01*
X9723277Y-13484174D02*
X9732801Y-13503222D01*
X9732801Y-13503222D02*
X9732801Y-13607984D01*
X9732801Y-13503222D02*
X9742324Y-13484174D01*
X9742324Y-13484174D02*
X9761372Y-13474650D01*
X9761372Y-13474650D02*
X9789943Y-13474650D01*
X9789943Y-13474650D02*
X9808991Y-13484174D01*
X9808991Y-13484174D02*
X9818515Y-13503222D01*
X9818515Y-13503222D02*
X9818515Y-13607984D01*
X10208991Y-13398460D02*
X10037563Y-13655603D01*
X10466134Y-13407984D02*
X10485182Y-13407984D01*
X10485182Y-13407984D02*
X10504229Y-13417508D01*
X10504229Y-13417508D02*
X10513753Y-13427031D01*
X10513753Y-13427031D02*
X10523277Y-13446079D01*
X10523277Y-13446079D02*
X10532801Y-13484174D01*
X10532801Y-13484174D02*
X10532801Y-13531793D01*
X10532801Y-13531793D02*
X10523277Y-13569888D01*
X10523277Y-13569888D02*
X10513753Y-13588936D01*
X10513753Y-13588936D02*
X10504229Y-13598460D01*
X10504229Y-13598460D02*
X10485182Y-13607984D01*
X10485182Y-13607984D02*
X10466134Y-13607984D01*
X10466134Y-13607984D02*
X10447086Y-13598460D01*
X10447086Y-13598460D02*
X10437563Y-13588936D01*
X10437563Y-13588936D02*
X10428039Y-13569888D01*
X10428039Y-13569888D02*
X10418515Y-13531793D01*
X10418515Y-13531793D02*
X10418515Y-13484174D01*
X10418515Y-13484174D02*
X10428039Y-13446079D01*
X10428039Y-13446079D02*
X10437563Y-13427031D01*
X10437563Y-13427031D02*
X10447086Y-13417508D01*
X10447086Y-13417508D02*
X10466134Y-13407984D01*
X10628039Y-13598460D02*
X10628039Y-13607984D01*
X10628039Y-13607984D02*
X10618515Y-13627031D01*
X10618515Y-13627031D02*
X10608991Y-13636555D01*
X10751848Y-13407984D02*
X10770896Y-13407984D01*
X10770896Y-13407984D02*
X10789944Y-13417508D01*
X10789944Y-13417508D02*
X10799467Y-13427031D01*
X10799467Y-13427031D02*
X10808991Y-13446079D01*
X10808991Y-13446079D02*
X10818515Y-13484174D01*
X10818515Y-13484174D02*
X10818515Y-13531793D01*
X10818515Y-13531793D02*
X10808991Y-13569888D01*
X10808991Y-13569888D02*
X10799467Y-13588936D01*
X10799467Y-13588936D02*
X10789944Y-13598460D01*
X10789944Y-13598460D02*
X10770896Y-13607984D01*
X10770896Y-13607984D02*
X10751848Y-13607984D01*
X10751848Y-13607984D02*
X10732801Y-13598460D01*
X10732801Y-13598460D02*
X10723277Y-13588936D01*
X10723277Y-13588936D02*
X10713753Y-13569888D01*
X10713753Y-13569888D02*
X10704229Y-13531793D01*
X10704229Y-13531793D02*
X10704229Y-13484174D01*
X10704229Y-13484174D02*
X10713753Y-13446079D01*
X10713753Y-13446079D02*
X10723277Y-13427031D01*
X10723277Y-13427031D02*
X10732801Y-13417508D01*
X10732801Y-13417508D02*
X10751848Y-13407984D01*
X10999467Y-13407984D02*
X10904229Y-13407984D01*
X10904229Y-13407984D02*
X10894706Y-13503222D01*
X10894706Y-13503222D02*
X10904229Y-13493698D01*
X10904229Y-13493698D02*
X10923277Y-13484174D01*
X10923277Y-13484174D02*
X10970896Y-13484174D01*
X10970896Y-13484174D02*
X10989944Y-13493698D01*
X10989944Y-13493698D02*
X10999467Y-13503222D01*
X10999467Y-13503222D02*
X11008991Y-13522269D01*
X11008991Y-13522269D02*
X11008991Y-13569888D01*
X11008991Y-13569888D02*
X10999467Y-13588936D01*
X10999467Y-13588936D02*
X10989944Y-13598460D01*
X10989944Y-13598460D02*
X10970896Y-13607984D01*
X10970896Y-13607984D02*
X10923277Y-13607984D01*
X10923277Y-13607984D02*
X10904229Y-13598460D01*
X10904229Y-13598460D02*
X10894706Y-13588936D01*
X11104229Y-13607984D02*
X11142325Y-13607984D01*
X11142325Y-13607984D02*
X11161372Y-13598460D01*
X11161372Y-13598460D02*
X11170896Y-13588936D01*
X11170896Y-13588936D02*
X11189944Y-13560365D01*
X11189944Y-13560365D02*
X11199467Y-13522269D01*
X11199467Y-13522269D02*
X11199467Y-13446079D01*
X11199467Y-13446079D02*
X11189944Y-13427031D01*
X11189944Y-13427031D02*
X11180420Y-13417508D01*
X11180420Y-13417508D02*
X11161372Y-13407984D01*
X11161372Y-13407984D02*
X11123277Y-13407984D01*
X11123277Y-13407984D02*
X11104229Y-13417508D01*
X11104229Y-13417508D02*
X11094706Y-13427031D01*
X11094706Y-13427031D02*
X11085182Y-13446079D01*
X11085182Y-13446079D02*
X11085182Y-13493698D01*
X11085182Y-13493698D02*
X11094706Y-13512746D01*
X11094706Y-13512746D02*
X11104229Y-13522269D01*
X11104229Y-13522269D02*
X11123277Y-13531793D01*
X11123277Y-13531793D02*
X11161372Y-13531793D01*
X11161372Y-13531793D02*
X11180420Y-13522269D01*
X11180420Y-13522269D02*
X11189944Y-13512746D01*
X11189944Y-13512746D02*
X11199467Y-13493698D01*
X11389944Y-13607984D02*
X11275658Y-13607984D01*
X11332801Y-13607984D02*
X11332801Y-13407984D01*
X11332801Y-13407984D02*
X11313753Y-13436555D01*
X11313753Y-13436555D02*
X11294705Y-13455603D01*
X11294705Y-13455603D02*
X11275658Y-13465127D01*
X11466134Y-13407984D02*
X11466134Y-13446079D01*
X11542325Y-13407984D02*
X11542325Y-13446079D01*
X11837563Y-13684174D02*
X11828039Y-13674650D01*
X11828039Y-13674650D02*
X11808991Y-13646079D01*
X11808991Y-13646079D02*
X11799467Y-13627031D01*
X11799467Y-13627031D02*
X11789944Y-13598460D01*
X11789944Y-13598460D02*
X11780420Y-13550841D01*
X11780420Y-13550841D02*
X11780420Y-13512746D01*
X11780420Y-13512746D02*
X11789944Y-13465127D01*
X11789944Y-13465127D02*
X11799467Y-13436555D01*
X11799467Y-13436555D02*
X11808991Y-13417508D01*
X11808991Y-13417508D02*
X11828039Y-13388936D01*
X11828039Y-13388936D02*
X11837563Y-13379412D01*
X11904229Y-13427031D02*
X11913753Y-13417508D01*
X11913753Y-13417508D02*
X11932801Y-13407984D01*
X11932801Y-13407984D02*
X11980420Y-13407984D01*
X11980420Y-13407984D02*
X11999467Y-13417508D01*
X11999467Y-13417508D02*
X12008991Y-13427031D01*
X12008991Y-13427031D02*
X12018515Y-13446079D01*
X12018515Y-13446079D02*
X12018515Y-13465127D01*
X12018515Y-13465127D02*
X12008991Y-13493698D01*
X12008991Y-13493698D02*
X11894706Y-13607984D01*
X11894706Y-13607984D02*
X12018515Y-13607984D01*
X12256610Y-13607984D02*
X12256610Y-13407984D01*
X12342325Y-13607984D02*
X12342325Y-13503222D01*
X12342325Y-13503222D02*
X12332801Y-13484174D01*
X12332801Y-13484174D02*
X12313753Y-13474650D01*
X12313753Y-13474650D02*
X12285182Y-13474650D01*
X12285182Y-13474650D02*
X12266134Y-13484174D01*
X12266134Y-13484174D02*
X12256610Y-13493698D01*
X12466134Y-13607984D02*
X12447087Y-13598460D01*
X12447087Y-13598460D02*
X12437563Y-13588936D01*
X12437563Y-13588936D02*
X12428039Y-13569888D01*
X12428039Y-13569888D02*
X12428039Y-13512746D01*
X12428039Y-13512746D02*
X12437563Y-13493698D01*
X12437563Y-13493698D02*
X12447087Y-13484174D01*
X12447087Y-13484174D02*
X12466134Y-13474650D01*
X12466134Y-13474650D02*
X12494706Y-13474650D01*
X12494706Y-13474650D02*
X12513753Y-13484174D01*
X12513753Y-13484174D02*
X12523277Y-13493698D01*
X12523277Y-13493698D02*
X12532801Y-13512746D01*
X12532801Y-13512746D02*
X12532801Y-13569888D01*
X12532801Y-13569888D02*
X12523277Y-13588936D01*
X12523277Y-13588936D02*
X12513753Y-13598460D01*
X12513753Y-13598460D02*
X12494706Y-13607984D01*
X12494706Y-13607984D02*
X12466134Y-13607984D01*
X12647087Y-13607984D02*
X12628039Y-13598460D01*
X12628039Y-13598460D02*
X12618515Y-13579412D01*
X12618515Y-13579412D02*
X12618515Y-13407984D01*
X12799468Y-13598460D02*
X12780420Y-13607984D01*
X12780420Y-13607984D02*
X12742325Y-13607984D01*
X12742325Y-13607984D02*
X12723277Y-13598460D01*
X12723277Y-13598460D02*
X12713753Y-13579412D01*
X12713753Y-13579412D02*
X12713753Y-13503222D01*
X12713753Y-13503222D02*
X12723277Y-13484174D01*
X12723277Y-13484174D02*
X12742325Y-13474650D01*
X12742325Y-13474650D02*
X12780420Y-13474650D01*
X12780420Y-13474650D02*
X12799468Y-13484174D01*
X12799468Y-13484174D02*
X12808991Y-13503222D01*
X12808991Y-13503222D02*
X12808991Y-13522269D01*
X12808991Y-13522269D02*
X12713753Y-13541317D01*
X12885182Y-13598460D02*
X12904229Y-13607984D01*
X12904229Y-13607984D02*
X12942325Y-13607984D01*
X12942325Y-13607984D02*
X12961372Y-13598460D01*
X12961372Y-13598460D02*
X12970896Y-13579412D01*
X12970896Y-13579412D02*
X12970896Y-13569888D01*
X12970896Y-13569888D02*
X12961372Y-13550841D01*
X12961372Y-13550841D02*
X12942325Y-13541317D01*
X12942325Y-13541317D02*
X12913753Y-13541317D01*
X12913753Y-13541317D02*
X12894706Y-13531793D01*
X12894706Y-13531793D02*
X12885182Y-13512746D01*
X12885182Y-13512746D02*
X12885182Y-13503222D01*
X12885182Y-13503222D02*
X12894706Y-13484174D01*
X12894706Y-13484174D02*
X12913753Y-13474650D01*
X12913753Y-13474650D02*
X12942325Y-13474650D01*
X12942325Y-13474650D02*
X12961372Y-13484174D01*
X13037563Y-13684174D02*
X13047087Y-13674650D01*
X13047087Y-13674650D02*
X13066134Y-13646079D01*
X13066134Y-13646079D02*
X13075658Y-13627031D01*
X13075658Y-13627031D02*
X13085182Y-13598460D01*
X13085182Y-13598460D02*
X13094706Y-13550841D01*
X13094706Y-13550841D02*
X13094706Y-13512746D01*
X13094706Y-13512746D02*
X13085182Y-13465127D01*
X13085182Y-13465127D02*
X13075658Y-13436555D01*
X13075658Y-13436555D02*
X13066134Y-13417508D01*
X13066134Y-13417508D02*
X13047087Y-13388936D01*
X13047087Y-13388936D02*
X13037563Y-13379412D01*
X13399468Y-13684174D02*
X13389944Y-13674650D01*
X13389944Y-13674650D02*
X13370896Y-13646079D01*
X13370896Y-13646079D02*
X13361372Y-13627031D01*
X13361372Y-13627031D02*
X13351849Y-13598460D01*
X13351849Y-13598460D02*
X13342325Y-13550841D01*
X13342325Y-13550841D02*
X13342325Y-13512746D01*
X13342325Y-13512746D02*
X13351849Y-13465127D01*
X13351849Y-13465127D02*
X13361372Y-13436555D01*
X13361372Y-13436555D02*
X13370896Y-13417508D01*
X13370896Y-13417508D02*
X13389944Y-13388936D01*
X13389944Y-13388936D02*
X13399468Y-13379412D01*
X13475658Y-13474650D02*
X13475658Y-13607984D01*
X13475658Y-13493698D02*
X13485182Y-13484174D01*
X13485182Y-13484174D02*
X13504229Y-13474650D01*
X13504229Y-13474650D02*
X13532801Y-13474650D01*
X13532801Y-13474650D02*
X13551849Y-13484174D01*
X13551849Y-13484174D02*
X13561372Y-13503222D01*
X13561372Y-13503222D02*
X13561372Y-13607984D01*
X13685182Y-13607984D02*
X13666134Y-13598460D01*
X13666134Y-13598460D02*
X13656610Y-13588936D01*
X13656610Y-13588936D02*
X13647087Y-13569888D01*
X13647087Y-13569888D02*
X13647087Y-13512746D01*
X13647087Y-13512746D02*
X13656610Y-13493698D01*
X13656610Y-13493698D02*
X13666134Y-13484174D01*
X13666134Y-13484174D02*
X13685182Y-13474650D01*
X13685182Y-13474650D02*
X13713753Y-13474650D01*
X13713753Y-13474650D02*
X13732801Y-13484174D01*
X13732801Y-13484174D02*
X13742325Y-13493698D01*
X13742325Y-13493698D02*
X13751849Y-13512746D01*
X13751849Y-13512746D02*
X13751849Y-13569888D01*
X13751849Y-13569888D02*
X13742325Y-13588936D01*
X13742325Y-13588936D02*
X13732801Y-13598460D01*
X13732801Y-13598460D02*
X13713753Y-13607984D01*
X13713753Y-13607984D02*
X13685182Y-13607984D01*
X13808991Y-13474650D02*
X13885182Y-13474650D01*
X13837563Y-13407984D02*
X13837563Y-13579412D01*
X13837563Y-13579412D02*
X13847087Y-13598460D01*
X13847087Y-13598460D02*
X13866134Y-13607984D01*
X13866134Y-13607984D02*
X13885182Y-13607984D01*
X14104230Y-13474650D02*
X14104230Y-13674650D01*
X14104230Y-13484174D02*
X14123277Y-13474650D01*
X14123277Y-13474650D02*
X14161372Y-13474650D01*
X14161372Y-13474650D02*
X14180420Y-13484174D01*
X14180420Y-13484174D02*
X14189944Y-13493698D01*
X14189944Y-13493698D02*
X14199468Y-13512746D01*
X14199468Y-13512746D02*
X14199468Y-13569888D01*
X14199468Y-13569888D02*
X14189944Y-13588936D01*
X14189944Y-13588936D02*
X14180420Y-13598460D01*
X14180420Y-13598460D02*
X14161372Y-13607984D01*
X14161372Y-13607984D02*
X14123277Y-13607984D01*
X14123277Y-13607984D02*
X14104230Y-13598460D01*
X14313753Y-13607984D02*
X14294706Y-13598460D01*
X14294706Y-13598460D02*
X14285182Y-13579412D01*
X14285182Y-13579412D02*
X14285182Y-13407984D01*
X14475658Y-13607984D02*
X14475658Y-13503222D01*
X14475658Y-13503222D02*
X14466134Y-13484174D01*
X14466134Y-13484174D02*
X14447087Y-13474650D01*
X14447087Y-13474650D02*
X14408991Y-13474650D01*
X14408991Y-13474650D02*
X14389944Y-13484174D01*
X14475658Y-13598460D02*
X14456611Y-13607984D01*
X14456611Y-13607984D02*
X14408991Y-13607984D01*
X14408991Y-13607984D02*
X14389944Y-13598460D01*
X14389944Y-13598460D02*
X14380420Y-13579412D01*
X14380420Y-13579412D02*
X14380420Y-13560365D01*
X14380420Y-13560365D02*
X14389944Y-13541317D01*
X14389944Y-13541317D02*
X14408991Y-13531793D01*
X14408991Y-13531793D02*
X14456611Y-13531793D01*
X14456611Y-13531793D02*
X14475658Y-13522269D01*
X14542325Y-13474650D02*
X14618515Y-13474650D01*
X14570896Y-13407984D02*
X14570896Y-13579412D01*
X14570896Y-13579412D02*
X14580420Y-13598460D01*
X14580420Y-13598460D02*
X14599468Y-13607984D01*
X14599468Y-13607984D02*
X14618515Y-13607984D01*
X14761372Y-13598460D02*
X14742325Y-13607984D01*
X14742325Y-13607984D02*
X14704230Y-13607984D01*
X14704230Y-13607984D02*
X14685182Y-13598460D01*
X14685182Y-13598460D02*
X14675658Y-13579412D01*
X14675658Y-13579412D02*
X14675658Y-13503222D01*
X14675658Y-13503222D02*
X14685182Y-13484174D01*
X14685182Y-13484174D02*
X14704230Y-13474650D01*
X14704230Y-13474650D02*
X14742325Y-13474650D01*
X14742325Y-13474650D02*
X14761372Y-13484174D01*
X14761372Y-13484174D02*
X14770896Y-13503222D01*
X14770896Y-13503222D02*
X14770896Y-13522269D01*
X14770896Y-13522269D02*
X14675658Y-13541317D01*
X14942325Y-13607984D02*
X14942325Y-13407984D01*
X14942325Y-13598460D02*
X14923277Y-13607984D01*
X14923277Y-13607984D02*
X14885182Y-13607984D01*
X14885182Y-13607984D02*
X14866134Y-13598460D01*
X14866134Y-13598460D02*
X14856611Y-13588936D01*
X14856611Y-13588936D02*
X14847087Y-13569888D01*
X14847087Y-13569888D02*
X14847087Y-13512746D01*
X14847087Y-13512746D02*
X14856611Y-13493698D01*
X14856611Y-13493698D02*
X14866134Y-13484174D01*
X14866134Y-13484174D02*
X14885182Y-13474650D01*
X14885182Y-13474650D02*
X14923277Y-13474650D01*
X14923277Y-13474650D02*
X14942325Y-13484174D01*
X15018515Y-13684174D02*
X15028039Y-13674650D01*
X15028039Y-13674650D02*
X15047087Y-13646079D01*
X15047087Y-13646079D02*
X15056611Y-13627031D01*
X15056611Y-13627031D02*
X15066134Y-13598460D01*
X15066134Y-13598460D02*
X15075658Y-13550841D01*
X15075658Y-13550841D02*
X15075658Y-13512746D01*
X15075658Y-13512746D02*
X15066134Y-13465127D01*
X15066134Y-13465127D02*
X15056611Y-13436555D01*
X15056611Y-13436555D02*
X15047087Y-13417508D01*
X15047087Y-13417508D02*
X15028039Y-13388936D01*
X15028039Y-13388936D02*
X15018515Y-13379412D01*
D13*
X8172500Y-13696500D02*
X8172500Y-13876500D01*
X8082500Y-13786500D02*
X8262500Y-13786500D01*
D11*
X8628039Y-13877984D02*
X8513753Y-13877984D01*
X8570896Y-13877984D02*
X8570896Y-13677984D01*
X8570896Y-13677984D02*
X8551848Y-13706555D01*
X8551848Y-13706555D02*
X8532801Y-13725603D01*
X8532801Y-13725603D02*
X8513753Y-13735127D01*
X8723277Y-13868460D02*
X8723277Y-13877984D01*
X8723277Y-13877984D02*
X8713753Y-13897031D01*
X8713753Y-13897031D02*
X8704229Y-13906555D01*
X8837562Y-13763698D02*
X8818515Y-13754174D01*
X8818515Y-13754174D02*
X8808991Y-13744650D01*
X8808991Y-13744650D02*
X8799467Y-13725603D01*
X8799467Y-13725603D02*
X8799467Y-13716079D01*
X8799467Y-13716079D02*
X8808991Y-13697031D01*
X8808991Y-13697031D02*
X8818515Y-13687508D01*
X8818515Y-13687508D02*
X8837562Y-13677984D01*
X8837562Y-13677984D02*
X8875658Y-13677984D01*
X8875658Y-13677984D02*
X8894705Y-13687508D01*
X8894705Y-13687508D02*
X8904229Y-13697031D01*
X8904229Y-13697031D02*
X8913753Y-13716079D01*
X8913753Y-13716079D02*
X8913753Y-13725603D01*
X8913753Y-13725603D02*
X8904229Y-13744650D01*
X8904229Y-13744650D02*
X8894705Y-13754174D01*
X8894705Y-13754174D02*
X8875658Y-13763698D01*
X8875658Y-13763698D02*
X8837562Y-13763698D01*
X8837562Y-13763698D02*
X8818515Y-13773222D01*
X8818515Y-13773222D02*
X8808991Y-13782746D01*
X8808991Y-13782746D02*
X8799467Y-13801793D01*
X8799467Y-13801793D02*
X8799467Y-13839888D01*
X8799467Y-13839888D02*
X8808991Y-13858936D01*
X8808991Y-13858936D02*
X8818515Y-13868460D01*
X8818515Y-13868460D02*
X8837562Y-13877984D01*
X8837562Y-13877984D02*
X8875658Y-13877984D01*
X8875658Y-13877984D02*
X8894705Y-13868460D01*
X8894705Y-13868460D02*
X8904229Y-13858936D01*
X8904229Y-13858936D02*
X8913753Y-13839888D01*
X8913753Y-13839888D02*
X8913753Y-13801793D01*
X8913753Y-13801793D02*
X8904229Y-13782746D01*
X8904229Y-13782746D02*
X8894705Y-13773222D01*
X8894705Y-13773222D02*
X8875658Y-13763698D01*
X9037562Y-13677984D02*
X9056610Y-13677984D01*
X9056610Y-13677984D02*
X9075658Y-13687508D01*
X9075658Y-13687508D02*
X9085182Y-13697031D01*
X9085182Y-13697031D02*
X9094705Y-13716079D01*
X9094705Y-13716079D02*
X9104229Y-13754174D01*
X9104229Y-13754174D02*
X9104229Y-13801793D01*
X9104229Y-13801793D02*
X9094705Y-13839888D01*
X9094705Y-13839888D02*
X9085182Y-13858936D01*
X9085182Y-13858936D02*
X9075658Y-13868460D01*
X9075658Y-13868460D02*
X9056610Y-13877984D01*
X9056610Y-13877984D02*
X9037562Y-13877984D01*
X9037562Y-13877984D02*
X9018515Y-13868460D01*
X9018515Y-13868460D02*
X9008991Y-13858936D01*
X9008991Y-13858936D02*
X8999467Y-13839888D01*
X8999467Y-13839888D02*
X8989943Y-13801793D01*
X8989943Y-13801793D02*
X8989943Y-13754174D01*
X8989943Y-13754174D02*
X8999467Y-13716079D01*
X8999467Y-13716079D02*
X9008991Y-13697031D01*
X9008991Y-13697031D02*
X9018515Y-13687508D01*
X9018515Y-13687508D02*
X9037562Y-13677984D01*
X9228039Y-13677984D02*
X9247086Y-13677984D01*
X9247086Y-13677984D02*
X9266134Y-13687508D01*
X9266134Y-13687508D02*
X9275658Y-13697031D01*
X9275658Y-13697031D02*
X9285182Y-13716079D01*
X9285182Y-13716079D02*
X9294705Y-13754174D01*
X9294705Y-13754174D02*
X9294705Y-13801793D01*
X9294705Y-13801793D02*
X9285182Y-13839888D01*
X9285182Y-13839888D02*
X9275658Y-13858936D01*
X9275658Y-13858936D02*
X9266134Y-13868460D01*
X9266134Y-13868460D02*
X9247086Y-13877984D01*
X9247086Y-13877984D02*
X9228039Y-13877984D01*
X9228039Y-13877984D02*
X9208991Y-13868460D01*
X9208991Y-13868460D02*
X9199467Y-13858936D01*
X9199467Y-13858936D02*
X9189943Y-13839888D01*
X9189943Y-13839888D02*
X9180420Y-13801793D01*
X9180420Y-13801793D02*
X9180420Y-13754174D01*
X9180420Y-13754174D02*
X9189943Y-13716079D01*
X9189943Y-13716079D02*
X9199467Y-13697031D01*
X9199467Y-13697031D02*
X9208991Y-13687508D01*
X9208991Y-13687508D02*
X9228039Y-13677984D01*
X9380420Y-13877984D02*
X9380420Y-13744650D01*
X9380420Y-13763698D02*
X9389943Y-13754174D01*
X9389943Y-13754174D02*
X9408991Y-13744650D01*
X9408991Y-13744650D02*
X9437563Y-13744650D01*
X9437563Y-13744650D02*
X9456610Y-13754174D01*
X9456610Y-13754174D02*
X9466134Y-13773222D01*
X9466134Y-13773222D02*
X9466134Y-13877984D01*
X9466134Y-13773222D02*
X9475658Y-13754174D01*
X9475658Y-13754174D02*
X9494705Y-13744650D01*
X9494705Y-13744650D02*
X9523277Y-13744650D01*
X9523277Y-13744650D02*
X9542324Y-13754174D01*
X9542324Y-13754174D02*
X9551848Y-13773222D01*
X9551848Y-13773222D02*
X9551848Y-13877984D01*
X9647086Y-13877984D02*
X9647086Y-13744650D01*
X9647086Y-13763698D02*
X9656610Y-13754174D01*
X9656610Y-13754174D02*
X9675658Y-13744650D01*
X9675658Y-13744650D02*
X9704229Y-13744650D01*
X9704229Y-13744650D02*
X9723277Y-13754174D01*
X9723277Y-13754174D02*
X9732801Y-13773222D01*
X9732801Y-13773222D02*
X9732801Y-13877984D01*
X9732801Y-13773222D02*
X9742324Y-13754174D01*
X9742324Y-13754174D02*
X9761372Y-13744650D01*
X9761372Y-13744650D02*
X9789943Y-13744650D01*
X9789943Y-13744650D02*
X9808991Y-13754174D01*
X9808991Y-13754174D02*
X9818515Y-13773222D01*
X9818515Y-13773222D02*
X9818515Y-13877984D01*
X10208991Y-13668460D02*
X10037563Y-13925603D01*
X10466134Y-13677984D02*
X10485182Y-13677984D01*
X10485182Y-13677984D02*
X10504229Y-13687508D01*
X10504229Y-13687508D02*
X10513753Y-13697031D01*
X10513753Y-13697031D02*
X10523277Y-13716079D01*
X10523277Y-13716079D02*
X10532801Y-13754174D01*
X10532801Y-13754174D02*
X10532801Y-13801793D01*
X10532801Y-13801793D02*
X10523277Y-13839888D01*
X10523277Y-13839888D02*
X10513753Y-13858936D01*
X10513753Y-13858936D02*
X10504229Y-13868460D01*
X10504229Y-13868460D02*
X10485182Y-13877984D01*
X10485182Y-13877984D02*
X10466134Y-13877984D01*
X10466134Y-13877984D02*
X10447086Y-13868460D01*
X10447086Y-13868460D02*
X10437563Y-13858936D01*
X10437563Y-13858936D02*
X10428039Y-13839888D01*
X10428039Y-13839888D02*
X10418515Y-13801793D01*
X10418515Y-13801793D02*
X10418515Y-13754174D01*
X10418515Y-13754174D02*
X10428039Y-13716079D01*
X10428039Y-13716079D02*
X10437563Y-13697031D01*
X10437563Y-13697031D02*
X10447086Y-13687508D01*
X10447086Y-13687508D02*
X10466134Y-13677984D01*
X10628039Y-13868460D02*
X10628039Y-13877984D01*
X10628039Y-13877984D02*
X10618515Y-13897031D01*
X10618515Y-13897031D02*
X10608991Y-13906555D01*
X10751848Y-13677984D02*
X10770896Y-13677984D01*
X10770896Y-13677984D02*
X10789944Y-13687508D01*
X10789944Y-13687508D02*
X10799467Y-13697031D01*
X10799467Y-13697031D02*
X10808991Y-13716079D01*
X10808991Y-13716079D02*
X10818515Y-13754174D01*
X10818515Y-13754174D02*
X10818515Y-13801793D01*
X10818515Y-13801793D02*
X10808991Y-13839888D01*
X10808991Y-13839888D02*
X10799467Y-13858936D01*
X10799467Y-13858936D02*
X10789944Y-13868460D01*
X10789944Y-13868460D02*
X10770896Y-13877984D01*
X10770896Y-13877984D02*
X10751848Y-13877984D01*
X10751848Y-13877984D02*
X10732801Y-13868460D01*
X10732801Y-13868460D02*
X10723277Y-13858936D01*
X10723277Y-13858936D02*
X10713753Y-13839888D01*
X10713753Y-13839888D02*
X10704229Y-13801793D01*
X10704229Y-13801793D02*
X10704229Y-13754174D01*
X10704229Y-13754174D02*
X10713753Y-13716079D01*
X10713753Y-13716079D02*
X10723277Y-13697031D01*
X10723277Y-13697031D02*
X10732801Y-13687508D01*
X10732801Y-13687508D02*
X10751848Y-13677984D01*
X10885182Y-13677984D02*
X11018515Y-13677984D01*
X11018515Y-13677984D02*
X10932801Y-13877984D01*
X11132801Y-13677984D02*
X11151848Y-13677984D01*
X11151848Y-13677984D02*
X11170896Y-13687508D01*
X11170896Y-13687508D02*
X11180420Y-13697031D01*
X11180420Y-13697031D02*
X11189944Y-13716079D01*
X11189944Y-13716079D02*
X11199467Y-13754174D01*
X11199467Y-13754174D02*
X11199467Y-13801793D01*
X11199467Y-13801793D02*
X11189944Y-13839888D01*
X11189944Y-13839888D02*
X11180420Y-13858936D01*
X11180420Y-13858936D02*
X11170896Y-13868460D01*
X11170896Y-13868460D02*
X11151848Y-13877984D01*
X11151848Y-13877984D02*
X11132801Y-13877984D01*
X11132801Y-13877984D02*
X11113753Y-13868460D01*
X11113753Y-13868460D02*
X11104229Y-13858936D01*
X11104229Y-13858936D02*
X11094706Y-13839888D01*
X11094706Y-13839888D02*
X11085182Y-13801793D01*
X11085182Y-13801793D02*
X11085182Y-13754174D01*
X11085182Y-13754174D02*
X11094706Y-13716079D01*
X11094706Y-13716079D02*
X11104229Y-13697031D01*
X11104229Y-13697031D02*
X11113753Y-13687508D01*
X11113753Y-13687508D02*
X11132801Y-13677984D01*
X11294705Y-13877984D02*
X11332801Y-13877984D01*
X11332801Y-13877984D02*
X11351848Y-13868460D01*
X11351848Y-13868460D02*
X11361372Y-13858936D01*
X11361372Y-13858936D02*
X11380420Y-13830365D01*
X11380420Y-13830365D02*
X11389944Y-13792269D01*
X11389944Y-13792269D02*
X11389944Y-13716079D01*
X11389944Y-13716079D02*
X11380420Y-13697031D01*
X11380420Y-13697031D02*
X11370896Y-13687508D01*
X11370896Y-13687508D02*
X11351848Y-13677984D01*
X11351848Y-13677984D02*
X11313753Y-13677984D01*
X11313753Y-13677984D02*
X11294705Y-13687508D01*
X11294705Y-13687508D02*
X11285182Y-13697031D01*
X11285182Y-13697031D02*
X11275658Y-13716079D01*
X11275658Y-13716079D02*
X11275658Y-13763698D01*
X11275658Y-13763698D02*
X11285182Y-13782746D01*
X11285182Y-13782746D02*
X11294705Y-13792269D01*
X11294705Y-13792269D02*
X11313753Y-13801793D01*
X11313753Y-13801793D02*
X11351848Y-13801793D01*
X11351848Y-13801793D02*
X11370896Y-13792269D01*
X11370896Y-13792269D02*
X11380420Y-13782746D01*
X11380420Y-13782746D02*
X11389944Y-13763698D01*
X11466134Y-13677984D02*
X11466134Y-13716079D01*
X11542325Y-13677984D02*
X11542325Y-13716079D01*
X11837563Y-13954174D02*
X11828039Y-13944650D01*
X11828039Y-13944650D02*
X11808991Y-13916079D01*
X11808991Y-13916079D02*
X11799467Y-13897031D01*
X11799467Y-13897031D02*
X11789944Y-13868460D01*
X11789944Y-13868460D02*
X11780420Y-13820841D01*
X11780420Y-13820841D02*
X11780420Y-13782746D01*
X11780420Y-13782746D02*
X11789944Y-13735127D01*
X11789944Y-13735127D02*
X11799467Y-13706555D01*
X11799467Y-13706555D02*
X11808991Y-13687508D01*
X11808991Y-13687508D02*
X11828039Y-13658936D01*
X11828039Y-13658936D02*
X11837563Y-13649412D01*
X11904229Y-13697031D02*
X11913753Y-13687508D01*
X11913753Y-13687508D02*
X11932801Y-13677984D01*
X11932801Y-13677984D02*
X11980420Y-13677984D01*
X11980420Y-13677984D02*
X11999467Y-13687508D01*
X11999467Y-13687508D02*
X12008991Y-13697031D01*
X12008991Y-13697031D02*
X12018515Y-13716079D01*
X12018515Y-13716079D02*
X12018515Y-13735127D01*
X12018515Y-13735127D02*
X12008991Y-13763698D01*
X12008991Y-13763698D02*
X11894706Y-13877984D01*
X11894706Y-13877984D02*
X12018515Y-13877984D01*
X12256610Y-13877984D02*
X12256610Y-13677984D01*
X12342325Y-13877984D02*
X12342325Y-13773222D01*
X12342325Y-13773222D02*
X12332801Y-13754174D01*
X12332801Y-13754174D02*
X12313753Y-13744650D01*
X12313753Y-13744650D02*
X12285182Y-13744650D01*
X12285182Y-13744650D02*
X12266134Y-13754174D01*
X12266134Y-13754174D02*
X12256610Y-13763698D01*
X12466134Y-13877984D02*
X12447087Y-13868460D01*
X12447087Y-13868460D02*
X12437563Y-13858936D01*
X12437563Y-13858936D02*
X12428039Y-13839888D01*
X12428039Y-13839888D02*
X12428039Y-13782746D01*
X12428039Y-13782746D02*
X12437563Y-13763698D01*
X12437563Y-13763698D02*
X12447087Y-13754174D01*
X12447087Y-13754174D02*
X12466134Y-13744650D01*
X12466134Y-13744650D02*
X12494706Y-13744650D01*
X12494706Y-13744650D02*
X12513753Y-13754174D01*
X12513753Y-13754174D02*
X12523277Y-13763698D01*
X12523277Y-13763698D02*
X12532801Y-13782746D01*
X12532801Y-13782746D02*
X12532801Y-13839888D01*
X12532801Y-13839888D02*
X12523277Y-13858936D01*
X12523277Y-13858936D02*
X12513753Y-13868460D01*
X12513753Y-13868460D02*
X12494706Y-13877984D01*
X12494706Y-13877984D02*
X12466134Y-13877984D01*
X12647087Y-13877984D02*
X12628039Y-13868460D01*
X12628039Y-13868460D02*
X12618515Y-13849412D01*
X12618515Y-13849412D02*
X12618515Y-13677984D01*
X12799468Y-13868460D02*
X12780420Y-13877984D01*
X12780420Y-13877984D02*
X12742325Y-13877984D01*
X12742325Y-13877984D02*
X12723277Y-13868460D01*
X12723277Y-13868460D02*
X12713753Y-13849412D01*
X12713753Y-13849412D02*
X12713753Y-13773222D01*
X12713753Y-13773222D02*
X12723277Y-13754174D01*
X12723277Y-13754174D02*
X12742325Y-13744650D01*
X12742325Y-13744650D02*
X12780420Y-13744650D01*
X12780420Y-13744650D02*
X12799468Y-13754174D01*
X12799468Y-13754174D02*
X12808991Y-13773222D01*
X12808991Y-13773222D02*
X12808991Y-13792269D01*
X12808991Y-13792269D02*
X12713753Y-13811317D01*
X12885182Y-13868460D02*
X12904229Y-13877984D01*
X12904229Y-13877984D02*
X12942325Y-13877984D01*
X12942325Y-13877984D02*
X12961372Y-13868460D01*
X12961372Y-13868460D02*
X12970896Y-13849412D01*
X12970896Y-13849412D02*
X12970896Y-13839888D01*
X12970896Y-13839888D02*
X12961372Y-13820841D01*
X12961372Y-13820841D02*
X12942325Y-13811317D01*
X12942325Y-13811317D02*
X12913753Y-13811317D01*
X12913753Y-13811317D02*
X12894706Y-13801793D01*
X12894706Y-13801793D02*
X12885182Y-13782746D01*
X12885182Y-13782746D02*
X12885182Y-13773222D01*
X12885182Y-13773222D02*
X12894706Y-13754174D01*
X12894706Y-13754174D02*
X12913753Y-13744650D01*
X12913753Y-13744650D02*
X12942325Y-13744650D01*
X12942325Y-13744650D02*
X12961372Y-13754174D01*
X13037563Y-13954174D02*
X13047087Y-13944650D01*
X13047087Y-13944650D02*
X13066134Y-13916079D01*
X13066134Y-13916079D02*
X13075658Y-13897031D01*
X13075658Y-13897031D02*
X13085182Y-13868460D01*
X13085182Y-13868460D02*
X13094706Y-13820841D01*
X13094706Y-13820841D02*
X13094706Y-13782746D01*
X13094706Y-13782746D02*
X13085182Y-13735127D01*
X13085182Y-13735127D02*
X13075658Y-13706555D01*
X13075658Y-13706555D02*
X13066134Y-13687508D01*
X13066134Y-13687508D02*
X13047087Y-13658936D01*
X13047087Y-13658936D02*
X13037563Y-13649412D01*
X13399468Y-13954174D02*
X13389944Y-13944650D01*
X13389944Y-13944650D02*
X13370896Y-13916079D01*
X13370896Y-13916079D02*
X13361372Y-13897031D01*
X13361372Y-13897031D02*
X13351849Y-13868460D01*
X13351849Y-13868460D02*
X13342325Y-13820841D01*
X13342325Y-13820841D02*
X13342325Y-13782746D01*
X13342325Y-13782746D02*
X13351849Y-13735127D01*
X13351849Y-13735127D02*
X13361372Y-13706555D01*
X13361372Y-13706555D02*
X13370896Y-13687508D01*
X13370896Y-13687508D02*
X13389944Y-13658936D01*
X13389944Y-13658936D02*
X13399468Y-13649412D01*
X13475658Y-13744650D02*
X13475658Y-13877984D01*
X13475658Y-13763698D02*
X13485182Y-13754174D01*
X13485182Y-13754174D02*
X13504229Y-13744650D01*
X13504229Y-13744650D02*
X13532801Y-13744650D01*
X13532801Y-13744650D02*
X13551849Y-13754174D01*
X13551849Y-13754174D02*
X13561372Y-13773222D01*
X13561372Y-13773222D02*
X13561372Y-13877984D01*
X13685182Y-13877984D02*
X13666134Y-13868460D01*
X13666134Y-13868460D02*
X13656610Y-13858936D01*
X13656610Y-13858936D02*
X13647087Y-13839888D01*
X13647087Y-13839888D02*
X13647087Y-13782746D01*
X13647087Y-13782746D02*
X13656610Y-13763698D01*
X13656610Y-13763698D02*
X13666134Y-13754174D01*
X13666134Y-13754174D02*
X13685182Y-13744650D01*
X13685182Y-13744650D02*
X13713753Y-13744650D01*
X13713753Y-13744650D02*
X13732801Y-13754174D01*
X13732801Y-13754174D02*
X13742325Y-13763698D01*
X13742325Y-13763698D02*
X13751849Y-13782746D01*
X13751849Y-13782746D02*
X13751849Y-13839888D01*
X13751849Y-13839888D02*
X13742325Y-13858936D01*
X13742325Y-13858936D02*
X13732801Y-13868460D01*
X13732801Y-13868460D02*
X13713753Y-13877984D01*
X13713753Y-13877984D02*
X13685182Y-13877984D01*
X13808991Y-13744650D02*
X13885182Y-13744650D01*
X13837563Y-13677984D02*
X13837563Y-13849412D01*
X13837563Y-13849412D02*
X13847087Y-13868460D01*
X13847087Y-13868460D02*
X13866134Y-13877984D01*
X13866134Y-13877984D02*
X13885182Y-13877984D01*
X14104230Y-13744650D02*
X14104230Y-13944650D01*
X14104230Y-13754174D02*
X14123277Y-13744650D01*
X14123277Y-13744650D02*
X14161372Y-13744650D01*
X14161372Y-13744650D02*
X14180420Y-13754174D01*
X14180420Y-13754174D02*
X14189944Y-13763698D01*
X14189944Y-13763698D02*
X14199468Y-13782746D01*
X14199468Y-13782746D02*
X14199468Y-13839888D01*
X14199468Y-13839888D02*
X14189944Y-13858936D01*
X14189944Y-13858936D02*
X14180420Y-13868460D01*
X14180420Y-13868460D02*
X14161372Y-13877984D01*
X14161372Y-13877984D02*
X14123277Y-13877984D01*
X14123277Y-13877984D02*
X14104230Y-13868460D01*
X14313753Y-13877984D02*
X14294706Y-13868460D01*
X14294706Y-13868460D02*
X14285182Y-13849412D01*
X14285182Y-13849412D02*
X14285182Y-13677984D01*
X14475658Y-13877984D02*
X14475658Y-13773222D01*
X14475658Y-13773222D02*
X14466134Y-13754174D01*
X14466134Y-13754174D02*
X14447087Y-13744650D01*
X14447087Y-13744650D02*
X14408991Y-13744650D01*
X14408991Y-13744650D02*
X14389944Y-13754174D01*
X14475658Y-13868460D02*
X14456611Y-13877984D01*
X14456611Y-13877984D02*
X14408991Y-13877984D01*
X14408991Y-13877984D02*
X14389944Y-13868460D01*
X14389944Y-13868460D02*
X14380420Y-13849412D01*
X14380420Y-13849412D02*
X14380420Y-13830365D01*
X14380420Y-13830365D02*
X14389944Y-13811317D01*
X14389944Y-13811317D02*
X14408991Y-13801793D01*
X14408991Y-13801793D02*
X14456611Y-13801793D01*
X14456611Y-13801793D02*
X14475658Y-13792269D01*
X14542325Y-13744650D02*
X14618515Y-13744650D01*
X14570896Y-13677984D02*
X14570896Y-13849412D01*
X14570896Y-13849412D02*
X14580420Y-13868460D01*
X14580420Y-13868460D02*
X14599468Y-13877984D01*
X14599468Y-13877984D02*
X14618515Y-13877984D01*
X14761372Y-13868460D02*
X14742325Y-13877984D01*
X14742325Y-13877984D02*
X14704230Y-13877984D01*
X14704230Y-13877984D02*
X14685182Y-13868460D01*
X14685182Y-13868460D02*
X14675658Y-13849412D01*
X14675658Y-13849412D02*
X14675658Y-13773222D01*
X14675658Y-13773222D02*
X14685182Y-13754174D01*
X14685182Y-13754174D02*
X14704230Y-13744650D01*
X14704230Y-13744650D02*
X14742325Y-13744650D01*
X14742325Y-13744650D02*
X14761372Y-13754174D01*
X14761372Y-13754174D02*
X14770896Y-13773222D01*
X14770896Y-13773222D02*
X14770896Y-13792269D01*
X14770896Y-13792269D02*
X14675658Y-13811317D01*
X14942325Y-13877984D02*
X14942325Y-13677984D01*
X14942325Y-13868460D02*
X14923277Y-13877984D01*
X14923277Y-13877984D02*
X14885182Y-13877984D01*
X14885182Y-13877984D02*
X14866134Y-13868460D01*
X14866134Y-13868460D02*
X14856611Y-13858936D01*
X14856611Y-13858936D02*
X14847087Y-13839888D01*
X14847087Y-13839888D02*
X14847087Y-13782746D01*
X14847087Y-13782746D02*
X14856611Y-13763698D01*
X14856611Y-13763698D02*
X14866134Y-13754174D01*
X14866134Y-13754174D02*
X14885182Y-13744650D01*
X14885182Y-13744650D02*
X14923277Y-13744650D01*
X14923277Y-13744650D02*
X14942325Y-13754174D01*
X15018515Y-13954174D02*
X15028039Y-13944650D01*
X15028039Y-13944650D02*
X15047087Y-13916079D01*
X15047087Y-13916079D02*
X15056611Y-13897031D01*
X15056611Y-13897031D02*
X15066134Y-13868460D01*
X15066134Y-13868460D02*
X15075658Y-13820841D01*
X15075658Y-13820841D02*
X15075658Y-13782746D01*
X15075658Y-13782746D02*
X15066134Y-13735127D01*
X15066134Y-13735127D02*
X15056611Y-13706555D01*
X15056611Y-13706555D02*
X15047087Y-13687508D01*
X15047087Y-13687508D02*
X15028039Y-13658936D01*
X15028039Y-13658936D02*
X15018515Y-13649412D01*
M02*
