M48
; DRILL file KiCad 10.0.4-10.0.4~ubuntu22.04.1 date 2026-09-14T12:58:56
; FORMAT={-:-/ absolute / metric / decimal}
; #@! TF.CreationDate,2026-09-14T12:58:56+02:00
; #@! TF.GenerationSoftware,Kicad,Pcbnew,10.0.4-10.0.4~ubuntu22.04.1
; #@! TF.FileFunction,NonPlated,1,4,NPTH
FMAT,2
METRIC
; #@! TA.AperFunction,NonPlated,NPTH,ComponentDrill
T1C0.500
; #@! TA.AperFunction,NonPlated,NPTH,ComponentDrill
T2C1.500
; #@! TA.AperFunction,NonPlated,NPTH,ComponentDrill
T3C1.800
%
G90
G05
T1
X91.85Y-69.825
X91.85Y-72.325
X92.7Y-69.825
X92.7Y-72.325
X93.55Y-69.825
X93.55Y-72.325
X94.4Y-69.825
X94.4Y-72.325
X95.25Y-69.825
X95.25Y-72.325
X96.1Y-69.825
X96.1Y-72.325
X96.95Y-69.825
X96.95Y-72.325
X103.425Y-57.301
X103.425Y-58.075
X103.425Y-58.825
X103.425Y-59.575
X103.425Y-60.337
X106.425Y-57.301
X106.425Y-58.075
X106.425Y-58.825
X106.425Y-59.587
X106.425Y-60.337
X116.75Y-69.825
X116.75Y-72.325
X117.6Y-69.825
X117.6Y-72.325
X118.45Y-69.825
X118.45Y-72.325
X119.3Y-69.825
X119.3Y-72.325
X120.15Y-69.825
X120.15Y-72.325
X121.0Y-69.825
X121.0Y-72.325
X121.85Y-69.825
X121.85Y-72.325
X158.225Y-69.825
X158.225Y-72.325
X159.075Y-69.825
X159.075Y-72.325
X159.925Y-69.825
X159.925Y-72.325
X160.775Y-69.825
X160.775Y-72.325
X161.625Y-69.825
X161.625Y-72.325
X162.475Y-69.825
X162.475Y-72.325
X163.325Y-69.825
X163.325Y-72.325
T2
X138.825Y-77.605
X143.675Y-77.605
T3
X138.525Y-74.575
X143.975Y-74.575
M30
