G04 #@! TF.GenerationSoftware,KiCad,Pcbnew,10.0.4-10.0.4~ubuntu22.04.1*
G04 #@! TF.CreationDate,2026-09-14T12:58:56+02:00*
G04 #@! TF.ProjectId,3_in_1_Panel,335f696e-5f31-45f5-9061-6e656c2e6b69,rev?*
G04 #@! TF.SameCoordinates,PX72ade90PY75c75e0*
G04 #@! TF.FileFunction,Copper,L4,Bot*
G04 #@! TF.FilePolarity,Positive*
%FSLAX46Y46*%
G04 Gerber Fmt 4.6, Leading zero omitted, Abs format (unit mm)*
G04 Created by KiCad (PCBNEW 10.0.4-10.0.4~ubuntu22.04.1) date 2026-09-14 12:58:56*
%MOMM*%
%LPD*%
G01*
G04 APERTURE LIST*
G04 #@! TA.AperFunction,ComponentPad*
%ADD10C,0.800000*%
G04 #@! TD*
G04 #@! TA.AperFunction,ComponentPad*
%ADD11C,6.400000*%
G04 #@! TD*
G04 #@! TA.AperFunction,ComponentPad*
%ADD12R,1.700000X1.700000*%
G04 #@! TD*
G04 #@! TA.AperFunction,ComponentPad*
%ADD13O,1.700000X1.700000*%
G04 #@! TD*
G04 #@! TA.AperFunction,SMDPad,CuDef*
%ADD14R,4.800000X4.900000*%
G04 #@! TD*
G04 #@! TA.AperFunction,SMDPad,CuDef*
%ADD15R,4.900000X4.800000*%
G04 #@! TD*
G04 #@! TA.AperFunction,ComponentPad*
%ADD16C,2.000000*%
G04 #@! TD*
G04 #@! TA.AperFunction,SMDPad,CuDef*
%ADD17C,1.000000*%
G04 #@! TD*
G04 #@! TA.AperFunction,ViaPad*
%ADD18C,0.800000*%
G04 #@! TD*
G04 #@! TA.AperFunction,ViaPad*
%ADD19C,1.000000*%
G04 #@! TD*
G04 #@! TA.AperFunction,Conductor*
%ADD20C,0.500000*%
G04 #@! TD*
G04 #@! TA.AperFunction,Conductor*
%ADD21C,1.500000*%
G04 #@! TD*
G04 #@! TA.AperFunction,Conductor*
%ADD22C,0.300000*%
G04 #@! TD*
G04 #@! TA.AperFunction,Conductor*
%ADD23C,1.000000*%
G04 #@! TD*
G04 #@! TA.AperFunction,Conductor*
%ADD24C,0.200000*%
G04 #@! TD*
G04 APERTURE END LIST*
D10*
X168650000Y-75575000D03*
X167947056Y-77272056D03*
X167947056Y-73877944D03*
X166250000Y-77975000D03*
D11*
X166250000Y-75575000D03*
D10*
X166250000Y-73175000D03*
X164552944Y-77272056D03*
X164552944Y-73877944D03*
X163850000Y-75575000D03*
D12*
X123050000Y-123575000D03*
D13*
X120510000Y-123575000D03*
X117970001Y-123575000D03*
X115430000Y-123575000D03*
D10*
X90650000Y-75575000D03*
X89947056Y-77272056D03*
X89947056Y-73877944D03*
X88250000Y-77975000D03*
D11*
X88250000Y-75575000D03*
D10*
X88250000Y-73175000D03*
X86552944Y-77272056D03*
X86552944Y-73877944D03*
X85850000Y-75575000D03*
X90650000Y-122575000D03*
X89947056Y-124272056D03*
X89947056Y-120877944D03*
X88250000Y-124975000D03*
D11*
X88250000Y-122575000D03*
D10*
X88250000Y-120175000D03*
X86552944Y-124272056D03*
X86552944Y-120877944D03*
X85850000Y-122575000D03*
X168650000Y-122575000D03*
X167947056Y-124272056D03*
X167947056Y-120877944D03*
X166250000Y-124975000D03*
D11*
X166250000Y-122575000D03*
D10*
X166250000Y-120175000D03*
X164552944Y-124272056D03*
X164552944Y-120877944D03*
X163850000Y-122575000D03*
D12*
X159540000Y-76465000D03*
D13*
X157000000Y-76465000D03*
D14*
X94500000Y-123250000D03*
X103000000Y-123250000D03*
D12*
X157000000Y-94245000D03*
D13*
X159540000Y-94245000D03*
X157000000Y-91705000D03*
X159540000Y-91705000D03*
X157000000Y-89165001D03*
X159540000Y-89165000D03*
X157000000Y-86625000D03*
X159540000Y-86625000D03*
X157000000Y-84085000D03*
X159540000Y-84085000D03*
X157000000Y-81545000D03*
X159540000Y-81545000D03*
D15*
X166950994Y-63075001D03*
X166950994Y-54575001D03*
D16*
X167424994Y-58825001D03*
D12*
X164424994Y-50075001D03*
D13*
X161884994Y-50075001D03*
X159344994Y-50075001D03*
D12*
X159540000Y-99325000D03*
D13*
X157000000Y-99325000D03*
D12*
X112964994Y-50495001D03*
D13*
X110424994Y-50495001D03*
D16*
X98750000Y-124075000D03*
D12*
X159540000Y-122195000D03*
D13*
X157000000Y-122195000D03*
D12*
X110424994Y-68275001D03*
D13*
X110424994Y-65735001D03*
X110424994Y-63195001D03*
X110424994Y-60655001D03*
X110424994Y-58115001D03*
X110424994Y-55575001D03*
D12*
X159344994Y-68075001D03*
D13*
X161884994Y-68075001D03*
D12*
X159540000Y-117105000D03*
D13*
X159540000Y-114565000D03*
X159540000Y-112025001D03*
X159540000Y-109485000D03*
X159540000Y-106945000D03*
X159540000Y-104405000D03*
D17*
X120200000Y-107925000D03*
D12*
X93094997Y-68075002D03*
D13*
X95634997Y-68075002D03*
D17*
X121056676Y-106075000D03*
X120050000Y-103975000D03*
X105000000Y-105275000D03*
D12*
X98174997Y-50075002D03*
D13*
X95634997Y-50075002D03*
X93094997Y-50075002D03*
D18*
X110750000Y-91325000D03*
X89250000Y-91125000D03*
X108500000Y-91325000D03*
X120474994Y-55275001D03*
X90050000Y-116975000D03*
X143500000Y-82575000D03*
X98500000Y-101825000D03*
X151674994Y-56325001D03*
X152924994Y-68075001D03*
X106250000Y-114325000D03*
X166750000Y-85305000D03*
X86250000Y-100545000D03*
X119424994Y-63825001D03*
X134750000Y-87745000D03*
X94500000Y-119225000D03*
X102174997Y-65825002D03*
X108250000Y-83325000D03*
X106350000Y-120824999D03*
X148000000Y-119075000D03*
X92750000Y-105575000D03*
X166750000Y-113245000D03*
X89000000Y-79825000D03*
X91499999Y-120025000D03*
X166750000Y-103085000D03*
X86250000Y-110705000D03*
X139000000Y-109575001D03*
X143500000Y-92825001D03*
X134174994Y-58825001D03*
X86250000Y-118325000D03*
X157424994Y-66325001D03*
X166750000Y-90385000D03*
X157424994Y-53325001D03*
X163424994Y-54825001D03*
X104250000Y-83825000D03*
X114924994Y-64575001D03*
X108500000Y-88075000D03*
X134750000Y-92825000D03*
X166750000Y-80225000D03*
X163424994Y-53325001D03*
X143424994Y-60575001D03*
X111600000Y-78075000D03*
X146174994Y-63575001D03*
X119424994Y-61825001D03*
X123674994Y-62575001D03*
X124800000Y-109325000D03*
X114000000Y-75075000D03*
X108250000Y-85075000D03*
X149924994Y-49825001D03*
X139000000Y-100575001D03*
X148000000Y-82665000D03*
X143174994Y-67175001D03*
X139000000Y-112825001D03*
X90174997Y-56575002D03*
X160424994Y-53325001D03*
X166750000Y-115785000D03*
X118500000Y-87587500D03*
X166750000Y-105625000D03*
X86250000Y-81955000D03*
X106350000Y-124575000D03*
X163574994Y-64525001D03*
X150924994Y-50825001D03*
X87924997Y-52575002D03*
X169174994Y-66375001D03*
X157474994Y-68075001D03*
X166750000Y-98005000D03*
X126000000Y-111475000D03*
X102174997Y-53325002D03*
X166750000Y-118325000D03*
X110000000Y-73575000D03*
X135174994Y-65075001D03*
X139174994Y-67075001D03*
X114450000Y-89775000D03*
X96550000Y-116725000D03*
X161924994Y-57825001D03*
X86250000Y-84495000D03*
X110250000Y-85074999D03*
X109500000Y-115325001D03*
X103750000Y-81325000D03*
X150674994Y-63325001D03*
X93250000Y-118325000D03*
X133924994Y-54575001D03*
X108500000Y-89825000D03*
X117000000Y-99575000D03*
X112500000Y-88075000D03*
X158924994Y-53325001D03*
X169174994Y-68575001D03*
X154424994Y-68075001D03*
X122750000Y-90325000D03*
X122750000Y-97325000D03*
X166674994Y-66375001D03*
X120250000Y-89325000D03*
X106350000Y-122825000D03*
X148000000Y-105665000D03*
X125174994Y-62575001D03*
X133924994Y-55825001D03*
X117000000Y-102075000D03*
X86250000Y-87035000D03*
X139924994Y-58825001D03*
X97549999Y-120175000D03*
X124424994Y-63325001D03*
X102250000Y-73575000D03*
X166750000Y-108165000D03*
X158424994Y-57075001D03*
X84924997Y-53575002D03*
X96750000Y-88824999D03*
X95250000Y-98825000D03*
X92750000Y-107575000D03*
X111600000Y-75825000D03*
X143750000Y-100575000D03*
X100000000Y-101825001D03*
X103750000Y-79075000D03*
X139000000Y-105574999D03*
X112500000Y-89825000D03*
X166674994Y-69325001D03*
X163574994Y-61975001D03*
X106000000Y-101825000D03*
X134500000Y-118324999D03*
X134750000Y-77585000D03*
X161924994Y-53325001D03*
X92000000Y-114375000D03*
X113250000Y-114575000D03*
X154424994Y-61075001D03*
X115250000Y-120575000D03*
X99800000Y-120175000D03*
X98500000Y-117825000D03*
X136174994Y-58825001D03*
X144424994Y-61575001D03*
X88174997Y-59575002D03*
X113000000Y-124575000D03*
X83674997Y-68825002D03*
X151674994Y-57325001D03*
X99174997Y-62575002D03*
X88174997Y-62075002D03*
X166424994Y-51225001D03*
X118500000Y-80325000D03*
X96250000Y-119075000D03*
X166750000Y-95465000D03*
X83674997Y-53575002D03*
X129924994Y-65075001D03*
X143500000Y-87825001D03*
X132424994Y-58825001D03*
X139000000Y-92825000D03*
X112500000Y-85075000D03*
X134750000Y-82665000D03*
X94674997Y-56575002D03*
X89500000Y-118575000D03*
X135174994Y-54575001D03*
X127000001Y-106825000D03*
X94000000Y-90825000D03*
X163574994Y-63375001D03*
X144424994Y-67175001D03*
X162674994Y-58575001D03*
X138999999Y-82575000D03*
X151674994Y-66825001D03*
X133924994Y-66325001D03*
X143750000Y-95825000D03*
X126750000Y-109325000D03*
X96000000Y-111824999D03*
X166750000Y-110705000D03*
X101500000Y-101825000D03*
X119424994Y-62825001D03*
X98000000Y-98825000D03*
X166750000Y-82765000D03*
X133924994Y-65075001D03*
X115000000Y-117325000D03*
X92500000Y-73575000D03*
X93500000Y-112325000D03*
X148000000Y-95824999D03*
X139000000Y-87825000D03*
X114250000Y-77825000D03*
X86924997Y-56575002D03*
X119250001Y-97325000D03*
X166750000Y-92925000D03*
X119424994Y-60825001D03*
X134750000Y-73575000D03*
X99710000Y-73575000D03*
X135174994Y-66325001D03*
X122750000Y-101925000D03*
X163424994Y-57575001D03*
X129924994Y-64075001D03*
X151674994Y-64325001D03*
X143750000Y-112575000D03*
X91350000Y-118325000D03*
X99174997Y-56075002D03*
X129924994Y-63075001D03*
X149924994Y-62575001D03*
X160424994Y-57075001D03*
X125174994Y-64075001D03*
X86250000Y-89575000D03*
X164174994Y-69325001D03*
X95424997Y-59575002D03*
X94424997Y-54075002D03*
X118500000Y-81575000D03*
X103500000Y-114325000D03*
X148000000Y-87745001D03*
X124500000Y-104325000D03*
X97500000Y-117075000D03*
X88750000Y-97325000D03*
X114000000Y-73575000D03*
X99250000Y-118825000D03*
X143424994Y-62475001D03*
X141674994Y-62575001D03*
X151674994Y-68075001D03*
X102174997Y-57825002D03*
X148000000Y-100585001D03*
X120250000Y-73575000D03*
X120824994Y-50525001D03*
X155924994Y-61075001D03*
X95424997Y-62075002D03*
X103750000Y-74575000D03*
X165424994Y-69325001D03*
X118174994Y-54325001D03*
X84674997Y-50325002D03*
X113250000Y-110575000D03*
X114924994Y-67075001D03*
X96750000Y-90825000D03*
X167924994Y-69325001D03*
X91499999Y-90825000D03*
X100250000Y-83825000D03*
X94630001Y-73575000D03*
X143424994Y-51575001D03*
X120999999Y-97325000D03*
X86250000Y-105625000D03*
X148000000Y-73574999D03*
X90050000Y-114925000D03*
X99924997Y-49325002D03*
X140424994Y-67075001D03*
X131074994Y-55175001D03*
X163424994Y-56325001D03*
X137424994Y-58825001D03*
X99174997Y-59575002D03*
X118750000Y-75075000D03*
X86250000Y-113245000D03*
X148000000Y-92825000D03*
X164174994Y-66375001D03*
X166750000Y-87845000D03*
X168624994Y-51225001D03*
X102050000Y-115775000D03*
X143750000Y-105575000D03*
X117000000Y-77825000D03*
X113249999Y-106075000D03*
X117000000Y-80325000D03*
X86250000Y-79825000D03*
X144424994Y-63575001D03*
X86250000Y-108165000D03*
X148000000Y-110745001D03*
X112424994Y-69575001D03*
X119500000Y-77825000D03*
X119174994Y-53325001D03*
X93250000Y-97075000D03*
X166750000Y-100545000D03*
X112674994Y-64575001D03*
X83674997Y-49325002D03*
X108250000Y-100575000D03*
X117000000Y-81575000D03*
X139000000Y-118325000D03*
X103749999Y-76825000D03*
X118500000Y-84587500D03*
X110924994Y-53075001D03*
X113250000Y-104575000D03*
X140924994Y-58825001D03*
X134750000Y-95825000D03*
X113249999Y-107575000D03*
X83674997Y-65325002D03*
X97750000Y-85825000D03*
X86250000Y-115785000D03*
X90249999Y-99325000D03*
X100349999Y-116775000D03*
X113924994Y-48575001D03*
X110500000Y-88075000D03*
X109500000Y-124575000D03*
X111924994Y-48575001D03*
X148000000Y-122074999D03*
X97170000Y-73575000D03*
X104500000Y-101825000D03*
X151674994Y-65575001D03*
X103000000Y-101825000D03*
X86250000Y-103085000D03*
X117000000Y-73575000D03*
X148000000Y-77585000D03*
X148000000Y-115825000D03*
X151674994Y-58325001D03*
X106750000Y-89825000D03*
X112500000Y-79987500D03*
X129924994Y-66075001D03*
X157424994Y-56325001D03*
X119250000Y-117325000D03*
X157424994Y-54825001D03*
X91424997Y-59575002D03*
X155924994Y-68075001D03*
X114174994Y-69575001D03*
X93500000Y-113575000D03*
X135174994Y-55825001D03*
X91750000Y-79824999D03*
X110500000Y-89825000D03*
X119374994Y-56175001D03*
X167924994Y-66375001D03*
X102174997Y-62075002D03*
X165424994Y-66375001D03*
X102174997Y-49325002D03*
X141250000Y-120625000D03*
X118224994Y-59375001D03*
X132874994Y-62925001D03*
X133774994Y-51675001D03*
X149174994Y-52625001D03*
X150124994Y-52575001D03*
X137799994Y-65725001D03*
X130324994Y-50575001D03*
X142174994Y-50075001D03*
X115674994Y-68275001D03*
X142074994Y-60925001D03*
X86750000Y-97325000D03*
X89250000Y-101575000D03*
D19*
X138074994Y-55175001D03*
D18*
X115637500Y-114012500D03*
X117500000Y-97575000D03*
X118000000Y-106775000D03*
X128700000Y-115875000D03*
X117200000Y-105875000D03*
X128750000Y-118575000D03*
X128755000Y-121075001D03*
X118000000Y-104975000D03*
X106700000Y-105300000D03*
X117324994Y-58325001D03*
X119874994Y-67925001D03*
X131399994Y-64125001D03*
X123374994Y-65425001D03*
X121624994Y-58975001D03*
X126024994Y-51775001D03*
X118424994Y-51175001D03*
X126274994Y-65925001D03*
X131399994Y-53725001D03*
X128024994Y-65925001D03*
X120474994Y-56875001D03*
X128199994Y-59050001D03*
X126774994Y-59050001D03*
X118424994Y-52225001D03*
X122737494Y-59112501D03*
X126274994Y-49025001D03*
X131399994Y-56525001D03*
X126399994Y-56425001D03*
X126124994Y-54125001D03*
X131399994Y-66925001D03*
X153500000Y-106575000D03*
X153500000Y-109325000D03*
X153500000Y-111825000D03*
X153500000Y-114325000D03*
X128750000Y-110825001D03*
X128750000Y-113075000D03*
D20*
X107187500Y-122275000D02*
X103712500Y-122275000D01*
X166362994Y-53575001D02*
X163286994Y-53575001D01*
X102187500Y-122275000D02*
X98712500Y-122275000D01*
X166624994Y-67013001D02*
X166624994Y-63937001D01*
X107037500Y-124825001D02*
X103562499Y-124825000D01*
X165474994Y-62113001D02*
X165474994Y-59037001D01*
D21*
X95634997Y-50075002D02*
X95634997Y-52015002D01*
D20*
X163436994Y-64425001D02*
X166512994Y-64425001D01*
X166650994Y-63375001D02*
X166950994Y-63075001D01*
X166624994Y-54063001D02*
X166624994Y-50987001D01*
X169124994Y-67313001D02*
X169124994Y-64237001D01*
X95634997Y-52015002D02*
X95624997Y-52025002D01*
X163436994Y-61775001D02*
X166512994Y-61775001D01*
X166462994Y-52425001D02*
X163386994Y-52425001D01*
X94500000Y-123050000D02*
X94500000Y-119225000D01*
X166262994Y-56075001D02*
X163186994Y-56075001D01*
X103000000Y-123250000D02*
X103000000Y-119775000D01*
X167924994Y-54163001D02*
X167924994Y-51087001D01*
X107037500Y-123575000D02*
X103562500Y-123575000D01*
X163574994Y-63375001D02*
X166650994Y-63375001D01*
X98337500Y-122275000D02*
X94862500Y-122275000D01*
X169124994Y-54363001D02*
X169124994Y-51287001D01*
X163436994Y-54825001D02*
X166512994Y-54825001D01*
X165474994Y-58663001D02*
X165474994Y-55587001D01*
X167924994Y-67113001D02*
X167924994Y-64037001D01*
X165474994Y-67013001D02*
X165474994Y-63937001D01*
D22*
X130547786Y-51625001D02*
X129874994Y-51625001D01*
X133774994Y-51675001D02*
X132624994Y-50525001D01*
X154574994Y-48575001D02*
X158124994Y-52125001D01*
X118224994Y-59375001D02*
X118224994Y-64475001D01*
X132874994Y-67675001D02*
X132874994Y-62925001D01*
X129224994Y-50125001D02*
X130774994Y-48575001D01*
X132624994Y-50525001D02*
X131647786Y-50525001D01*
X164374994Y-50075001D02*
X164424994Y-50075001D01*
X132074994Y-68475001D02*
X132874994Y-67675001D01*
X162324994Y-52125001D02*
X164374994Y-50075001D01*
X130774994Y-48575001D02*
X154574994Y-48575001D01*
X129224994Y-50975001D02*
X129224994Y-50125001D01*
X122224994Y-68475001D02*
X132074994Y-68475001D01*
X131647786Y-50525001D02*
X130547786Y-51625001D01*
X129874994Y-51625001D02*
X129224994Y-50975001D01*
X158124994Y-52125001D02*
X162324994Y-52125001D01*
X118224994Y-64475001D02*
X122224994Y-68475001D01*
D23*
X154424994Y-64325001D02*
X160674994Y-64325001D01*
X160674994Y-64325001D02*
X161884994Y-65535001D01*
X161884994Y-65535001D02*
X161884994Y-68075001D01*
X149174994Y-52625001D02*
X149424994Y-52875001D01*
X149424994Y-52875001D02*
X149424994Y-59325001D01*
X149174994Y-52625001D02*
X150074994Y-52625001D01*
X149424994Y-59325001D02*
X154424994Y-64325001D01*
D20*
X137924994Y-49525001D02*
X131374994Y-49525001D01*
X113974994Y-51505001D02*
X112964994Y-50495001D01*
X138674994Y-50275001D02*
X137924994Y-49525001D01*
X141924994Y-68875001D02*
X141424994Y-69375001D01*
X138674994Y-61525001D02*
X138674994Y-64825001D01*
X138724994Y-60925001D02*
X138674994Y-60975001D01*
X116624994Y-68275001D02*
X117224994Y-68275001D01*
X117224994Y-67675001D02*
X117224994Y-67725001D01*
X117224994Y-66725001D02*
X116124994Y-65625001D01*
X117224994Y-67725001D02*
X117774994Y-68275001D01*
X138674994Y-60175001D02*
X138674994Y-60975001D01*
X141924994Y-68825001D02*
X141924994Y-68875001D01*
X142174994Y-50075001D02*
X141624994Y-49525001D01*
X138674994Y-64825001D02*
X138674994Y-65725001D01*
X117774994Y-68275001D02*
X118124994Y-68275001D01*
X113974994Y-55375001D02*
X113974994Y-51505001D01*
X139424994Y-60925001D02*
X139274994Y-60925001D01*
X142424994Y-69375001D02*
X158044994Y-69375001D01*
X138674994Y-64850001D02*
X137799994Y-65725001D01*
X142074994Y-60925001D02*
X139424994Y-60925001D01*
X116124994Y-57525001D02*
X113974994Y-55375001D01*
X141924994Y-68825001D02*
X141924994Y-69375001D01*
X131374994Y-49525001D02*
X130324994Y-50575001D01*
X117224994Y-67675001D02*
X116624994Y-68275001D01*
X138674994Y-54325001D02*
X138674994Y-55825001D01*
X138674994Y-50325001D02*
X138674994Y-54325001D01*
X117224994Y-68275001D02*
X117224994Y-67675001D01*
X139424994Y-60925001D02*
X138724994Y-60925001D01*
X138674994Y-65725001D02*
X139474994Y-65725001D01*
X117224994Y-67675001D02*
X117224994Y-66725001D01*
X142074994Y-50175001D02*
X142174994Y-50075001D01*
X138674994Y-50325001D02*
X138674994Y-50275001D01*
X138674994Y-54575001D02*
X138674994Y-54325001D01*
X115674994Y-68275001D02*
X116624994Y-68275001D01*
X116124994Y-65625001D02*
X116124994Y-57525001D01*
X141224994Y-69375001D02*
X141424994Y-69375001D01*
X138074994Y-55175001D02*
X138674994Y-54575001D01*
X139474994Y-65725001D02*
X141274994Y-65725001D01*
X138174994Y-65725001D02*
X138674994Y-65725001D01*
X141274994Y-65725001D02*
X141924994Y-66375001D01*
X139424994Y-60925001D02*
X138674994Y-60175001D01*
X141624994Y-49525001D02*
X139424994Y-49525001D01*
X138074994Y-55225001D02*
X138674994Y-55825001D01*
X141924994Y-68575001D02*
X141924994Y-68825001D01*
X141924994Y-69375001D02*
X141974994Y-69375001D01*
X138674994Y-55825001D02*
X138674994Y-60175001D01*
X138674994Y-49525001D02*
X138674994Y-50325001D01*
X117224994Y-68275001D02*
X117774994Y-68275001D01*
X138674994Y-64925001D02*
X139474994Y-65725001D01*
X139424994Y-49525001D02*
X137924994Y-49525001D01*
X138074994Y-55175001D02*
X138074994Y-55225001D01*
X141424994Y-69375001D02*
X142424994Y-69375001D01*
X138674994Y-64575001D02*
X138674994Y-64850001D01*
X138674994Y-64825001D02*
X138674994Y-64925001D01*
X138674994Y-50275001D02*
X139424994Y-49525001D01*
X141924994Y-66375001D02*
X141924994Y-68575001D01*
X141924994Y-68575001D02*
X141924994Y-68875001D01*
X158044994Y-69375001D02*
X159424994Y-67995001D01*
X141924994Y-68875001D02*
X142424994Y-69375001D01*
X118124994Y-68275001D02*
X119224994Y-69375001D01*
X138674994Y-60975001D02*
X138674994Y-61525001D01*
X139274994Y-60925001D02*
X138674994Y-61525001D01*
X119224994Y-69375001D02*
X141224994Y-69375001D01*
X137799994Y-65725001D02*
X138174994Y-65725001D01*
D22*
X118000000Y-106775000D02*
X119050000Y-106775000D01*
X119050000Y-106775000D02*
X120200000Y-107925000D01*
X118000000Y-108874999D02*
X125000000Y-115875000D01*
X125000000Y-115875000D02*
X128700000Y-115875000D01*
X118000000Y-106775000D02*
X118000000Y-108874999D01*
X117150000Y-105925000D02*
X117150000Y-108875000D01*
X117200000Y-105875000D02*
X120856676Y-105875000D01*
X117200000Y-105875000D02*
X117150000Y-105925000D01*
X120856676Y-105875000D02*
X121056676Y-106075000D01*
X117150000Y-108875000D02*
X126850000Y-118575000D01*
X126850000Y-118575000D02*
X128750000Y-118575000D01*
X119050000Y-104975000D02*
X120050000Y-103975000D01*
X128500000Y-121075000D02*
X128755000Y-121075001D01*
X116349999Y-105522918D02*
X116350000Y-108925000D01*
X116897918Y-104974999D02*
X116349999Y-105522918D01*
X118000000Y-104975000D02*
X119050000Y-104975000D01*
X118000000Y-104975000D02*
X116897918Y-104974999D01*
X116350000Y-108925000D02*
X128500000Y-121075000D01*
X105000000Y-105275000D02*
X106675000Y-105275000D01*
X106675000Y-105275000D02*
X106700000Y-105300000D01*
X117287494Y-65337501D02*
X119874994Y-67925001D01*
X117287494Y-58375001D02*
X117287494Y-65337501D01*
D24*
X126749994Y-67875001D02*
X124299994Y-65425001D01*
X132224994Y-67525001D02*
X131874994Y-67875001D01*
X132224994Y-64875001D02*
X132224994Y-67525001D01*
X131474994Y-64125001D02*
X132224994Y-64875001D01*
X131874994Y-67875001D02*
X126749994Y-67875001D01*
X124299994Y-65425001D02*
X123374994Y-65425001D01*
X131399994Y-64125001D02*
X131474994Y-64125001D01*
D22*
X120124994Y-58975001D02*
X121624994Y-58975001D01*
X126024994Y-50425001D02*
X124424994Y-48825001D01*
X115574994Y-54425001D02*
X120124994Y-58975001D01*
X115574994Y-50325001D02*
X115574994Y-54425001D01*
X117074994Y-48825001D02*
X115574994Y-50325001D01*
X126024994Y-51775001D02*
X126024994Y-50425001D01*
X124424994Y-48825001D02*
X117074994Y-48825001D01*
D24*
X123074994Y-56500001D02*
X123074994Y-54325001D01*
X128549994Y-57975001D02*
X124549994Y-57975001D01*
X126274994Y-65925001D02*
X126274994Y-62725001D01*
X129199994Y-59800001D02*
X129199994Y-58625001D01*
D22*
X110674994Y-55825001D02*
X110424994Y-55575001D01*
D24*
X120324994Y-51575001D02*
X118824994Y-51575001D01*
X118824994Y-51575001D02*
X118424994Y-51175001D01*
X123074994Y-54325001D02*
X120324994Y-51575001D01*
X129199994Y-58625001D02*
X128549994Y-57975001D01*
X124549994Y-57975001D02*
X123074994Y-56500001D01*
X126274994Y-62725001D02*
X129199994Y-59800001D01*
X128024994Y-62975001D02*
X130449994Y-60550001D01*
X128024994Y-65925001D02*
X128024994Y-62975001D01*
X132174994Y-57050001D02*
X132174994Y-54500001D01*
X130449994Y-58775001D02*
X132174994Y-57050001D01*
X132174994Y-54500001D02*
X131399994Y-53725001D01*
X130449994Y-60550001D02*
X130449994Y-58775001D01*
X128199994Y-59075001D02*
X127174994Y-60100001D01*
X120524994Y-56825001D02*
X120474994Y-56875001D01*
X128199994Y-59050001D02*
X128199994Y-59075001D01*
X127174994Y-60100001D02*
X124924994Y-60100001D01*
X121649994Y-56825001D02*
X120524994Y-56825001D01*
X124924994Y-60100001D02*
X121649994Y-56825001D01*
X124349994Y-58475001D02*
X122624994Y-56750001D01*
X120174994Y-52075001D02*
X118574994Y-52075001D01*
X122624994Y-56750001D02*
X122624994Y-54525001D01*
X126199994Y-58475001D02*
X124349994Y-58475001D01*
X126774994Y-59050001D02*
X126199994Y-58475001D01*
X118574994Y-52075001D02*
X118424994Y-52225001D01*
X122624994Y-54525001D02*
X120174994Y-52075001D01*
D22*
X114974994Y-54709376D02*
X114974994Y-50025001D01*
X120090619Y-59825001D02*
X114974994Y-54709376D01*
X125424994Y-48175001D02*
X126274994Y-49025001D01*
X122737494Y-59112501D02*
X122024994Y-59825001D01*
X116824994Y-48175001D02*
X125424994Y-48175001D01*
X114974994Y-50025001D02*
X116824994Y-48175001D01*
X122024994Y-59825001D02*
X120090619Y-59825001D01*
D24*
X131299994Y-56425001D02*
X131399994Y-56525001D01*
X126399994Y-56425001D02*
X131299994Y-56425001D01*
X126049994Y-57250001D02*
X128849994Y-57250001D01*
X129899994Y-60150001D02*
X127124994Y-62925001D01*
X127724994Y-67325001D02*
X130174994Y-67325001D01*
X127124994Y-66725001D02*
X127724994Y-67325001D01*
X128849994Y-57250001D02*
X129899994Y-58300001D01*
X125574994Y-54675001D02*
X125574994Y-56775001D01*
X127124994Y-62925001D02*
X127124994Y-66725001D01*
X125574994Y-56775001D02*
X126049994Y-57250001D01*
X130174994Y-67325001D02*
X130574994Y-66925001D01*
X129899994Y-58300001D02*
X129899994Y-60150001D01*
X130574994Y-66925001D02*
X131399994Y-66925001D01*
X126124994Y-54125001D02*
X125574994Y-54675001D01*
D22*
X153500000Y-106575000D02*
X153550001Y-106525000D01*
X153550000Y-92615000D02*
X157000000Y-89165000D01*
X153550001Y-106525000D02*
X153550000Y-92615000D01*
X156950000Y-86625000D02*
X152650000Y-90925001D01*
X152650000Y-90925001D02*
X152650000Y-108475001D01*
X157000000Y-86625000D02*
X156950000Y-86625000D01*
X152650000Y-108475001D02*
X153500000Y-109325000D01*
X156940000Y-84085000D02*
X157000000Y-84085000D01*
X152050000Y-88974999D02*
X156940000Y-84085000D01*
X152050000Y-109077082D02*
X152050000Y-88974999D01*
X153500000Y-110527082D02*
X152050000Y-109077082D01*
X153500000Y-111825000D02*
X153500000Y-110527082D01*
X157000001Y-81545000D02*
X157000000Y-81575000D01*
X151450000Y-87125000D02*
X151450000Y-109325610D01*
X151450000Y-109325610D02*
X152650000Y-110525610D01*
X152650000Y-113475001D02*
X153500000Y-114325000D01*
X157000000Y-81575000D02*
X151450000Y-87125000D01*
X152650000Y-110525610D02*
X152650000Y-113475001D01*
X157200000Y-106745000D02*
X159540000Y-104405000D01*
X154500001Y-117225000D02*
X157200000Y-114525000D01*
X128750000Y-110825001D02*
X140300000Y-110825000D01*
X146700000Y-117225000D02*
X154500001Y-117225000D01*
X140300000Y-110825000D02*
X146700000Y-117225000D01*
X157200000Y-114525000D02*
X157200000Y-106745000D01*
X157800000Y-114825000D02*
X154800001Y-117825000D01*
X154800001Y-117825000D02*
X146050000Y-117825000D01*
X139650000Y-111425000D02*
X130400000Y-111425000D01*
X130400000Y-111425000D02*
X128750000Y-113075000D01*
X146050000Y-117825000D02*
X139650000Y-111425000D01*
X159540000Y-106945000D02*
X157800000Y-108685000D01*
X157800000Y-108685000D02*
X157800000Y-114825000D01*
G04 #@! TA.AperFunction,Conductor*
G36*
X91940463Y-48843956D02*
G01*
X92021245Y-48897932D01*
X92075221Y-48978714D01*
X92094175Y-49074002D01*
X92075221Y-49169290D01*
X92046621Y-49220360D01*
X91939947Y-49367184D01*
X91843438Y-49556594D01*
X91777750Y-49758761D01*
X91744497Y-49968705D01*
X91744497Y-50181298D01*
X91777750Y-50391242D01*
X91837457Y-50575002D01*
X91843440Y-50593414D01*
X91939946Y-50782818D01*
X92064893Y-50954794D01*
X92215205Y-51105106D01*
X92387181Y-51230053D01*
X92576585Y-51326559D01*
X92778754Y-51392248D01*
X92852598Y-51403943D01*
X92988700Y-51425501D01*
X92988707Y-51425501D01*
X92988710Y-51425502D01*
X92988713Y-51425502D01*
X93201281Y-51425502D01*
X93201284Y-51425502D01*
X93201287Y-51425501D01*
X93201293Y-51425501D01*
X93300473Y-51409791D01*
X93411240Y-51392248D01*
X93613409Y-51326559D01*
X93802813Y-51230053D01*
X93824241Y-51214484D01*
X93912469Y-51173808D01*
X94009549Y-51169992D01*
X94100700Y-51203617D01*
X94172044Y-51269565D01*
X94212721Y-51357794D01*
X94214852Y-51412008D01*
X94224997Y-51425002D01*
X95384996Y-51425002D01*
X95884998Y-51425002D01*
X97261127Y-51425002D01*
X97274455Y-51425359D01*
X97277107Y-51425500D01*
X97277124Y-51425502D01*
X99072869Y-51425501D01*
X99132480Y-51419093D01*
X99267328Y-51368798D01*
X99382543Y-51282548D01*
X99468793Y-51167333D01*
X99519088Y-51032485D01*
X99525497Y-50972875D01*
X99525496Y-49177130D01*
X99519088Y-49117519D01*
X99519087Y-49117518D01*
X99517423Y-49102030D01*
X99521282Y-49101615D01*
X99518858Y-49034236D01*
X99552786Y-48943198D01*
X99618971Y-48872074D01*
X99707336Y-48831691D01*
X99764662Y-48825002D01*
X102420102Y-48825002D01*
X102515390Y-48843956D01*
X102596172Y-48897932D01*
X102619427Y-48924768D01*
X102625326Y-48932649D01*
X102667259Y-49020285D01*
X102674997Y-49081876D01*
X102674997Y-68818125D01*
X102656043Y-68913413D01*
X102625331Y-68967346D01*
X102568916Y-69042707D01*
X102545652Y-69069556D01*
X102419551Y-69195657D01*
X102392702Y-69218921D01*
X102317341Y-69275336D01*
X102229700Y-69317267D01*
X102168120Y-69325002D01*
X97036022Y-69325002D01*
X97028360Y-69324500D01*
X97015892Y-69324500D01*
X96885184Y-69324500D01*
X96789896Y-69305546D01*
X96709114Y-69251570D01*
X96655138Y-69170788D01*
X96636184Y-69075500D01*
X96655138Y-68980212D01*
X96683738Y-68929142D01*
X96715306Y-68885692D01*
X96790048Y-68782818D01*
X96886554Y-68593414D01*
X96952243Y-68391245D01*
X96978375Y-68226255D01*
X96985496Y-68181298D01*
X96985497Y-68181286D01*
X96985497Y-67968717D01*
X96985496Y-67968705D01*
X96952243Y-67758761D01*
X96952243Y-67758759D01*
X96886554Y-67556590D01*
X96790048Y-67367186D01*
X96665101Y-67195210D01*
X96514789Y-67044898D01*
X96342813Y-66919951D01*
X96153409Y-66823445D01*
X96153406Y-66823444D01*
X96153404Y-66823443D01*
X95951237Y-66757755D01*
X95741293Y-66724502D01*
X95741284Y-66724502D01*
X95528710Y-66724502D01*
X95528700Y-66724502D01*
X95318756Y-66757755D01*
X95116589Y-66823443D01*
X94927179Y-66919952D01*
X94840854Y-66982671D01*
X94755205Y-67044898D01*
X94755203Y-67044899D01*
X94747290Y-67050649D01*
X94745627Y-67048361D01*
X94676811Y-67086836D01*
X94580321Y-67098186D01*
X94486832Y-67071748D01*
X94410578Y-67011545D01*
X94400157Y-66996411D01*
X94399466Y-66996929D01*
X94388793Y-66982672D01*
X94388793Y-66982671D01*
X94302543Y-66867456D01*
X94187328Y-66781206D01*
X94107114Y-66751288D01*
X94052478Y-66730910D01*
X93992870Y-66724502D01*
X92197131Y-66724502D01*
X92197127Y-66724502D01*
X92197125Y-66724503D01*
X92184311Y-66725880D01*
X92137516Y-66730910D01*
X92137512Y-66730911D01*
X92002667Y-66781205D01*
X91887452Y-66867455D01*
X91887450Y-66867457D01*
X91801201Y-66982671D01*
X91750905Y-67117520D01*
X91744497Y-67177125D01*
X91744497Y-68972867D01*
X91744498Y-68972871D01*
X91752571Y-69047974D01*
X91748711Y-69048388D01*
X91751136Y-69115768D01*
X91717208Y-69206806D01*
X91651023Y-69277930D01*
X91562658Y-69318313D01*
X91505332Y-69325002D01*
X83931874Y-69325002D01*
X83836586Y-69306048D01*
X83782653Y-69275336D01*
X83707292Y-69218921D01*
X83680443Y-69195657D01*
X83554341Y-69069555D01*
X83531076Y-69042705D01*
X83424208Y-68899945D01*
X83405006Y-68870067D01*
X83319539Y-68713545D01*
X83304783Y-68681232D01*
X83242461Y-68514141D01*
X83232456Y-68480070D01*
X83194545Y-68305798D01*
X83189491Y-68270645D01*
X83176133Y-68083866D01*
X83175499Y-68066103D01*
X83175499Y-59018187D01*
X83175499Y-49833869D01*
X83176131Y-49816163D01*
X83189494Y-49629341D01*
X83194545Y-49594210D01*
X83232457Y-49419936D01*
X83242459Y-49385870D01*
X83304790Y-49218755D01*
X83319535Y-49186469D01*
X83405008Y-49029936D01*
X83424215Y-49000052D01*
X83480564Y-48924780D01*
X83552842Y-48859857D01*
X83644463Y-48827536D01*
X83679897Y-48825002D01*
X91845175Y-48825002D01*
X91940463Y-48843956D01*
G37*
G04 #@! TD.AperFunction*
G04 #@! TA.AperFunction,Conductor*
G36*
X95884997Y-51233002D02*
G01*
X95384997Y-51166335D01*
X95384997Y-50508014D01*
X95442004Y-50540927D01*
X95569171Y-50575002D01*
X95700823Y-50575002D01*
X95827990Y-50540927D01*
X95884997Y-50508014D01*
X95884997Y-51233002D01*
G37*
G04 #@! TD.AperFunction*
G04 #@! TA.AperFunction,Conductor*
G36*
X160841371Y-114815000D02*
G01*
X159973012Y-114815000D01*
X160005925Y-114757993D01*
X160040000Y-114630826D01*
X160040000Y-114499174D01*
X160005925Y-114372007D01*
X159973012Y-114315000D01*
X160828680Y-114315000D01*
X160841371Y-114815000D01*
G37*
G04 #@! TD.AperFunction*
G04 #@! TA.AperFunction,Conductor*
G36*
X159074075Y-91512007D02*
G01*
X159040000Y-91639174D01*
X159040000Y-91770826D01*
X159074075Y-91897993D01*
X159106988Y-91955000D01*
X157433012Y-91955000D01*
X157465925Y-91897993D01*
X157500000Y-91770826D01*
X157500000Y-91639174D01*
X157465925Y-91512007D01*
X157433012Y-91455000D01*
X159106988Y-91455000D01*
X159074075Y-91512007D01*
G37*
G04 #@! TD.AperFunction*
G04 #@! TA.AperFunction,Conductor*
G36*
X160830050Y-91955000D02*
G01*
X159973012Y-91955000D01*
X160005925Y-91897993D01*
X160040000Y-91770826D01*
X160040000Y-91639174D01*
X160005925Y-91512007D01*
X159973012Y-91455000D01*
X160814975Y-91455000D01*
X160830050Y-91955000D01*
G37*
G04 #@! TD.AperFunction*
G04 #@! TA.AperFunction,Conductor*
G36*
X136996288Y-73093954D02*
G01*
X137077070Y-73147930D01*
X137131046Y-73228712D01*
X137150000Y-73324000D01*
X137150000Y-74284182D01*
X137146934Y-74323135D01*
X137124501Y-74464769D01*
X137124500Y-74464782D01*
X137124500Y-74685217D01*
X137124501Y-74685232D01*
X137158982Y-74902938D01*
X137158984Y-74902945D01*
X137158985Y-74902951D01*
X137227105Y-75112606D01*
X137227106Y-75112607D01*
X137227109Y-75112616D01*
X137327179Y-75309013D01*
X137327183Y-75309019D01*
X137327185Y-75309022D01*
X137450847Y-75479229D01*
X137456759Y-75487366D01*
X137527070Y-75557677D01*
X137581046Y-75638459D01*
X137600000Y-75733747D01*
X137600000Y-77325985D01*
X137596934Y-77364937D01*
X137574501Y-77506572D01*
X137574500Y-77506587D01*
X137574500Y-77703412D01*
X137574501Y-77703428D01*
X137605290Y-77897822D01*
X137662858Y-78075000D01*
X137666116Y-78085025D01*
X137755476Y-78260405D01*
X137755479Y-78260409D01*
X137755479Y-78260410D01*
X137798919Y-78320199D01*
X137871172Y-78419646D01*
X138010354Y-78558828D01*
X138169595Y-78674524D01*
X138344975Y-78763884D01*
X138532174Y-78824709D01*
X138710741Y-78852990D01*
X138770399Y-78875000D01*
X143650000Y-78875000D01*
X143775070Y-78875000D01*
X143804122Y-78856442D01*
X143855693Y-78842468D01*
X143967826Y-78824709D01*
X144155025Y-78763884D01*
X144330405Y-78674524D01*
X144489646Y-78558828D01*
X144628828Y-78419646D01*
X144744524Y-78260405D01*
X144833884Y-78085025D01*
X144894709Y-77897826D01*
X144925500Y-77703417D01*
X144925500Y-77506583D01*
X144903066Y-77364937D01*
X144900000Y-77325985D01*
X144900000Y-76358703D01*
X155649500Y-76358703D01*
X155649500Y-76571296D01*
X155682753Y-76781240D01*
X155742460Y-76965000D01*
X155748443Y-76983412D01*
X155844949Y-77172816D01*
X155969896Y-77344792D01*
X156120208Y-77495104D01*
X156292184Y-77620051D01*
X156481588Y-77716557D01*
X156683757Y-77782246D01*
X156757601Y-77793941D01*
X156893703Y-77815499D01*
X156893710Y-77815499D01*
X156893713Y-77815500D01*
X156893716Y-77815500D01*
X157106284Y-77815500D01*
X157106287Y-77815500D01*
X157106290Y-77815499D01*
X157106296Y-77815499D01*
X157205476Y-77799789D01*
X157316243Y-77782246D01*
X157518412Y-77716557D01*
X157707816Y-77620051D01*
X157879792Y-77495104D01*
X157879793Y-77495102D01*
X157887707Y-77489353D01*
X157889322Y-77491576D01*
X157958399Y-77452888D01*
X158054880Y-77441465D01*
X158148389Y-77467833D01*
X158224689Y-77527978D01*
X158235281Y-77543349D01*
X158235974Y-77542831D01*
X158332810Y-77672187D01*
X158332812Y-77672189D01*
X158447912Y-77758353D01*
X158582621Y-77808596D01*
X158582628Y-77808598D01*
X158642167Y-77814999D01*
X158642175Y-77815000D01*
X159289999Y-77815000D01*
X159290000Y-77814999D01*
X159290000Y-76898012D01*
X159347007Y-76930925D01*
X159474174Y-76965000D01*
X159605826Y-76965000D01*
X159732993Y-76930925D01*
X159790000Y-76898012D01*
X159790000Y-77814999D01*
X159790001Y-77815000D01*
X160437825Y-77815000D01*
X160437832Y-77814999D01*
X160497371Y-77808598D01*
X160497378Y-77808596D01*
X160632087Y-77758353D01*
X160747187Y-77672189D01*
X160747189Y-77672187D01*
X160833353Y-77557087D01*
X160883596Y-77422378D01*
X160883598Y-77422371D01*
X160889999Y-77362832D01*
X160890000Y-77362825D01*
X160890000Y-76715001D01*
X160889999Y-76715000D01*
X159973012Y-76715000D01*
X160005925Y-76657993D01*
X160040000Y-76530826D01*
X160040000Y-76399174D01*
X160005925Y-76272007D01*
X159973012Y-76215000D01*
X160889999Y-76215000D01*
X160890000Y-76214999D01*
X160890000Y-75567175D01*
X160889999Y-75567167D01*
X160883598Y-75507628D01*
X160883596Y-75507621D01*
X160833353Y-75372912D01*
X160747189Y-75257812D01*
X160747187Y-75257810D01*
X160632087Y-75171646D01*
X160497378Y-75121403D01*
X160497371Y-75121401D01*
X160437832Y-75115000D01*
X159790001Y-75115000D01*
X159790000Y-75115001D01*
X159790000Y-76031988D01*
X159732993Y-75999075D01*
X159605826Y-75965000D01*
X159474174Y-75965000D01*
X159347007Y-75999075D01*
X159290000Y-76031988D01*
X159290000Y-75115001D01*
X159289999Y-75115000D01*
X158642167Y-75115000D01*
X158582628Y-75121401D01*
X158582621Y-75121403D01*
X158447912Y-75171646D01*
X158332812Y-75257810D01*
X158332810Y-75257812D01*
X158235974Y-75387169D01*
X158232845Y-75384827D01*
X158191555Y-75434214D01*
X158105457Y-75479229D01*
X158008687Y-75487869D01*
X157915977Y-75458819D01*
X157888337Y-75439778D01*
X157887707Y-75440647D01*
X157879793Y-75434897D01*
X157879792Y-75434896D01*
X157707816Y-75309949D01*
X157518412Y-75213443D01*
X157518409Y-75213442D01*
X157518407Y-75213441D01*
X157316240Y-75147753D01*
X157106296Y-75114500D01*
X157106287Y-75114500D01*
X156893713Y-75114500D01*
X156893703Y-75114500D01*
X156683759Y-75147753D01*
X156481592Y-75213441D01*
X156292182Y-75309950D01*
X156120206Y-75434897D01*
X155969897Y-75585206D01*
X155844950Y-75757182D01*
X155748441Y-75946592D01*
X155682753Y-76148759D01*
X155649500Y-76358703D01*
X144900000Y-76358703D01*
X144900000Y-75733747D01*
X144918954Y-75638459D01*
X144972930Y-75557677D01*
X145043242Y-75487365D01*
X145172815Y-75309022D01*
X145221516Y-75213443D01*
X145272890Y-75112616D01*
X145272890Y-75112615D01*
X145272895Y-75112606D01*
X145341015Y-74902951D01*
X145375500Y-74685222D01*
X145375500Y-74464778D01*
X145353066Y-74323135D01*
X145350000Y-74284182D01*
X145350000Y-73324000D01*
X145368954Y-73228712D01*
X145422930Y-73147930D01*
X145503712Y-73093954D01*
X145599000Y-73075000D01*
X162301000Y-73075000D01*
X162396288Y-73093954D01*
X162477070Y-73147930D01*
X162531046Y-73228712D01*
X162550000Y-73324000D01*
X162550000Y-75376919D01*
X162549700Y-75389140D01*
X162549500Y-75393210D01*
X162549500Y-75756794D01*
X162582204Y-76088850D01*
X162585138Y-76118631D01*
X162604307Y-76214999D01*
X162656071Y-76475238D01*
X162656074Y-76475251D01*
X162761609Y-76823150D01*
X162761617Y-76823171D01*
X162900751Y-77159073D01*
X162900757Y-77159084D01*
X163072142Y-77479725D01*
X163072148Y-77479735D01*
X163258316Y-77758353D01*
X163274146Y-77782044D01*
X163504803Y-78063101D01*
X163761899Y-78320197D01*
X164042956Y-78550854D01*
X164042968Y-78550862D01*
X164345264Y-78752851D01*
X164345274Y-78752857D01*
X164573789Y-78875000D01*
X164665924Y-78924247D01*
X165001836Y-79063386D01*
X165001848Y-79063389D01*
X165001849Y-79063390D01*
X165349748Y-79168925D01*
X165349758Y-79168927D01*
X165349767Y-79168930D01*
X165706369Y-79239862D01*
X166068206Y-79275500D01*
X166068209Y-79275500D01*
X166431790Y-79275500D01*
X166431794Y-79275500D01*
X166431797Y-79275499D01*
X166435860Y-79275300D01*
X166448081Y-79275000D01*
X166588429Y-79275000D01*
X166683717Y-79293954D01*
X166764499Y-79347930D01*
X166818475Y-79428712D01*
X166837429Y-79524000D01*
X166827343Y-79594150D01*
X166800822Y-79684475D01*
X166780046Y-79755231D01*
X166749500Y-79967682D01*
X166749500Y-80009108D01*
X166749500Y-118259106D01*
X166749500Y-118324998D01*
X166749500Y-118432316D01*
X166772252Y-118590569D01*
X166767052Y-118687580D01*
X166725121Y-118775220D01*
X166652844Y-118840144D01*
X166561223Y-118872466D01*
X166525787Y-118875000D01*
X166448081Y-118875000D01*
X166435860Y-118874700D01*
X166431797Y-118874500D01*
X166431794Y-118874500D01*
X166068206Y-118874500D01*
X166068205Y-118874500D01*
X165706374Y-118910137D01*
X165349761Y-118981071D01*
X165349748Y-118981074D01*
X165001849Y-119086609D01*
X165001828Y-119086617D01*
X164665926Y-119225751D01*
X164665915Y-119225757D01*
X164345274Y-119397142D01*
X164345264Y-119397148D01*
X164042968Y-119599137D01*
X164042957Y-119599145D01*
X163761902Y-119829800D01*
X163504800Y-120086902D01*
X163274145Y-120367957D01*
X163274137Y-120367968D01*
X163072148Y-120670264D01*
X163072142Y-120670274D01*
X162900757Y-120990915D01*
X162900751Y-120990926D01*
X162761617Y-121326828D01*
X162761609Y-121326849D01*
X162656074Y-121674748D01*
X162656071Y-121674761D01*
X162585137Y-122031374D01*
X162549500Y-122393205D01*
X162549500Y-122756792D01*
X162549700Y-122760863D01*
X162550000Y-122773083D01*
X162550000Y-124826000D01*
X162531046Y-124921288D01*
X162477070Y-125002070D01*
X162396288Y-125056046D01*
X162301000Y-125075000D01*
X143400000Y-125075000D01*
X143397674Y-125075000D01*
X124536057Y-125075000D01*
X124440769Y-125056046D01*
X124359987Y-125002070D01*
X124306011Y-124921288D01*
X124287057Y-124826000D01*
X124306011Y-124730712D01*
X124336725Y-124676776D01*
X124343796Y-124667331D01*
X124394091Y-124532483D01*
X124400500Y-124472873D01*
X124400499Y-122677128D01*
X124394091Y-122617517D01*
X124343796Y-122482669D01*
X124257546Y-122367454D01*
X124142331Y-122281204D01*
X124045258Y-122244998D01*
X124007481Y-122230908D01*
X123947876Y-122224500D01*
X122352829Y-122224500D01*
X122282418Y-122210494D01*
X122160758Y-122223573D01*
X122134144Y-122224999D01*
X120632406Y-122224999D01*
X120619696Y-122224500D01*
X120616287Y-122224500D01*
X120403713Y-122224500D01*
X120400317Y-122224500D01*
X120387595Y-122224999D01*
X118092409Y-122224999D01*
X118079702Y-122224500D01*
X118076288Y-122224500D01*
X117863714Y-122224500D01*
X117860297Y-122224500D01*
X117847594Y-122224999D01*
X115699999Y-122224999D01*
X115680000Y-122244998D01*
X115680000Y-123141988D01*
X115622993Y-123109075D01*
X115495826Y-123075000D01*
X115364174Y-123075000D01*
X115237007Y-123109075D01*
X115180000Y-123141988D01*
X115180000Y-122247768D01*
X115179999Y-122247767D01*
X115113879Y-122258240D01*
X115113875Y-122258241D01*
X114911784Y-122323904D01*
X114911774Y-122323908D01*
X114722446Y-122420376D01*
X114550537Y-122545275D01*
X114400275Y-122695537D01*
X114275376Y-122867446D01*
X114178908Y-123056774D01*
X114178902Y-123056787D01*
X114113243Y-123258870D01*
X114102769Y-123325000D01*
X114996988Y-123325000D01*
X114964075Y-123382007D01*
X114930000Y-123509174D01*
X114930000Y-123640826D01*
X114964075Y-123767993D01*
X114996988Y-123825000D01*
X114099833Y-123825000D01*
X114100000Y-123827117D01*
X114100000Y-124826000D01*
X114081046Y-124921288D01*
X114027070Y-125002070D01*
X113946288Y-125056046D01*
X113851000Y-125075000D01*
X106149000Y-125075000D01*
X106053712Y-125056046D01*
X105972930Y-125002070D01*
X105918954Y-124921288D01*
X105900000Y-124826000D01*
X105900000Y-122088703D01*
X155649500Y-122088703D01*
X155649500Y-122301296D01*
X155682753Y-122511240D01*
X155742460Y-122695000D01*
X155748443Y-122713412D01*
X155844949Y-122902816D01*
X155969896Y-123074792D01*
X156120208Y-123225104D01*
X156292184Y-123350051D01*
X156481588Y-123446557D01*
X156683757Y-123512246D01*
X156757601Y-123523941D01*
X156893703Y-123545499D01*
X156893710Y-123545499D01*
X156893713Y-123545500D01*
X156893716Y-123545500D01*
X157106284Y-123545500D01*
X157106287Y-123545500D01*
X157106290Y-123545499D01*
X157106296Y-123545499D01*
X157205476Y-123529789D01*
X157316243Y-123512246D01*
X157518412Y-123446557D01*
X157707816Y-123350051D01*
X157879792Y-123225104D01*
X157879793Y-123225102D01*
X157887707Y-123219353D01*
X157889322Y-123221576D01*
X157958399Y-123182888D01*
X158054880Y-123171465D01*
X158148389Y-123197833D01*
X158224689Y-123257978D01*
X158235281Y-123273349D01*
X158235974Y-123272831D01*
X158332810Y-123402187D01*
X158332812Y-123402189D01*
X158447912Y-123488353D01*
X158582621Y-123538596D01*
X158582628Y-123538598D01*
X158642167Y-123544999D01*
X158642175Y-123545000D01*
X159289999Y-123545000D01*
X159290000Y-123544999D01*
X159290000Y-122628012D01*
X159347007Y-122660925D01*
X159474174Y-122695000D01*
X159605826Y-122695000D01*
X159732993Y-122660925D01*
X159790000Y-122628012D01*
X159790000Y-123544999D01*
X159790001Y-123545000D01*
X160437825Y-123545000D01*
X160437832Y-123544999D01*
X160497371Y-123538598D01*
X160497378Y-123538596D01*
X160632087Y-123488353D01*
X160747187Y-123402189D01*
X160747189Y-123402187D01*
X160833353Y-123287087D01*
X160883596Y-123152378D01*
X160883598Y-123152371D01*
X160889999Y-123092832D01*
X160890000Y-123092825D01*
X160890000Y-122445001D01*
X160889999Y-122445000D01*
X159973012Y-122445000D01*
X160005925Y-122387993D01*
X160040000Y-122260826D01*
X160040000Y-122129174D01*
X160005925Y-122002007D01*
X159973012Y-121945000D01*
X160889999Y-121945000D01*
X160890000Y-121944999D01*
X160890000Y-121297175D01*
X160889999Y-121297167D01*
X160883598Y-121237628D01*
X160883596Y-121237621D01*
X160833353Y-121102912D01*
X160747189Y-120987812D01*
X160747187Y-120987810D01*
X160632087Y-120901646D01*
X160497378Y-120851403D01*
X160497371Y-120851401D01*
X160437832Y-120845000D01*
X159790001Y-120845000D01*
X159790000Y-120845001D01*
X159790000Y-121761988D01*
X159732993Y-121729075D01*
X159605826Y-121695000D01*
X159474174Y-121695000D01*
X159347007Y-121729075D01*
X159290000Y-121761988D01*
X159290000Y-120845001D01*
X159289999Y-120845000D01*
X158642167Y-120845000D01*
X158582628Y-120851401D01*
X158582621Y-120851403D01*
X158447912Y-120901646D01*
X158332812Y-120987810D01*
X158332810Y-120987812D01*
X158235974Y-121117169D01*
X158232845Y-121114827D01*
X158191555Y-121164214D01*
X158105457Y-121209229D01*
X158008687Y-121217869D01*
X157915977Y-121188819D01*
X157888337Y-121169778D01*
X157887707Y-121170647D01*
X157879793Y-121164897D01*
X157879792Y-121164896D01*
X157707816Y-121039949D01*
X157518412Y-120943443D01*
X157518409Y-120943442D01*
X157518407Y-120943441D01*
X157316240Y-120877753D01*
X157106296Y-120844500D01*
X157106287Y-120844500D01*
X156893713Y-120844500D01*
X156893703Y-120844500D01*
X156683759Y-120877753D01*
X156481592Y-120943441D01*
X156292182Y-121039950D01*
X156120206Y-121164897D01*
X155969897Y-121315206D01*
X155844950Y-121487182D01*
X155748441Y-121676592D01*
X155682753Y-121878759D01*
X155649500Y-122088703D01*
X105900000Y-122088703D01*
X105900000Y-120752172D01*
X105899999Y-120752170D01*
X105895280Y-120708272D01*
X103176069Y-123427483D01*
X103095287Y-123481459D01*
X102999999Y-123500413D01*
X102904711Y-123481459D01*
X102823929Y-123427483D01*
X100104719Y-120708273D01*
X100100000Y-120752177D01*
X100100000Y-122712422D01*
X100081046Y-122807710D01*
X100027070Y-122888492D01*
X99946288Y-122942468D01*
X99851000Y-122961422D01*
X99755712Y-122942468D01*
X99704641Y-122913867D01*
X99536437Y-122791659D01*
X99468010Y-122756794D01*
X99325992Y-122684432D01*
X99325989Y-122684431D01*
X99325987Y-122684430D01*
X99201079Y-122643845D01*
X99101368Y-122611447D01*
X99101366Y-122611446D01*
X99101364Y-122611446D01*
X98868103Y-122574501D01*
X98868094Y-122574500D01*
X98868092Y-122574500D01*
X98631908Y-122574500D01*
X98631905Y-122574500D01*
X98631896Y-122574501D01*
X98398635Y-122611446D01*
X98174012Y-122684430D01*
X97963562Y-122791659D01*
X97795359Y-122913867D01*
X97707128Y-122954542D01*
X97610048Y-122958356D01*
X97518898Y-122924729D01*
X97447555Y-122858781D01*
X97406880Y-122770550D01*
X97400000Y-122712422D01*
X97400000Y-120752172D01*
X97399999Y-120752170D01*
X97395280Y-120708272D01*
X94676069Y-123427483D01*
X94595287Y-123481459D01*
X94499999Y-123500413D01*
X94404711Y-123481459D01*
X94323929Y-123427483D01*
X91593784Y-120697338D01*
X91568386Y-120700990D01*
X91551039Y-120696562D01*
X91533135Y-120696563D01*
X91504392Y-120684657D01*
X91474249Y-120676964D01*
X91459916Y-120666234D01*
X91443375Y-120659383D01*
X91421375Y-120637383D01*
X91396472Y-120618741D01*
X91374679Y-120590688D01*
X91249500Y-120403344D01*
X91225862Y-120367967D01*
X91225858Y-120367962D01*
X91225854Y-120367956D01*
X91193767Y-120328858D01*
X91932411Y-120328858D01*
X94499999Y-122896446D01*
X97067586Y-120328858D01*
X100432411Y-120328858D01*
X102999999Y-122896446D01*
X105567586Y-120328858D01*
X105507380Y-120306403D01*
X105507370Y-120306401D01*
X105447832Y-120300000D01*
X100552167Y-120300000D01*
X100492623Y-120306402D01*
X100492617Y-120306403D01*
X100432411Y-120328858D01*
X97067586Y-120328858D01*
X97007380Y-120306403D01*
X97007370Y-120306401D01*
X96947832Y-120300000D01*
X92052167Y-120300000D01*
X91992623Y-120306402D01*
X91992617Y-120306403D01*
X91932411Y-120328858D01*
X91193767Y-120328858D01*
X90995197Y-120086899D01*
X90738101Y-119829803D01*
X90457044Y-119599146D01*
X90457031Y-119599137D01*
X90154735Y-119397148D01*
X90154725Y-119397142D01*
X89834084Y-119225757D01*
X89834073Y-119225751D01*
X89498171Y-119086617D01*
X89498164Y-119086614D01*
X89498159Y-119086612D01*
X89498150Y-119086609D01*
X89150251Y-118981074D01*
X89150238Y-118981071D01*
X88875049Y-118926333D01*
X88793631Y-118910138D01*
X88793629Y-118910137D01*
X88793625Y-118910137D01*
X88431794Y-118874500D01*
X88068206Y-118874500D01*
X88068202Y-118874500D01*
X88064140Y-118874700D01*
X88051919Y-118875000D01*
X87869826Y-118875000D01*
X87866072Y-118874253D01*
X87858491Y-118875000D01*
X85999000Y-118875000D01*
X85903712Y-118856046D01*
X85822930Y-118802070D01*
X85768954Y-118721288D01*
X85750000Y-118626000D01*
X85750000Y-113923804D01*
X114737000Y-113923804D01*
X114737000Y-114101195D01*
X114771604Y-114275159D01*
X114771605Y-114275161D01*
X114771606Y-114275166D01*
X114828986Y-114413695D01*
X114839488Y-114439049D01*
X114879663Y-114499174D01*
X114938036Y-114586535D01*
X115063465Y-114711964D01*
X115210953Y-114810513D01*
X115374834Y-114878394D01*
X115548809Y-114913000D01*
X115726191Y-114913000D01*
X115900166Y-114878394D01*
X116064047Y-114810513D01*
X116211535Y-114711964D01*
X116336964Y-114586535D01*
X116435513Y-114439047D01*
X116503394Y-114275166D01*
X116538000Y-114101191D01*
X116538000Y-113923809D01*
X116503394Y-113749834D01*
X116435513Y-113585953D01*
X116336964Y-113438465D01*
X116211535Y-113313036D01*
X116211531Y-113313033D01*
X116064049Y-113214488D01*
X116064047Y-113214487D01*
X115900166Y-113146606D01*
X115900161Y-113146605D01*
X115900159Y-113146604D01*
X115726195Y-113112000D01*
X115726191Y-113112000D01*
X115548809Y-113112000D01*
X115548804Y-113112000D01*
X115374840Y-113146604D01*
X115374836Y-113146605D01*
X115374834Y-113146606D01*
X115265580Y-113191860D01*
X115210950Y-113214488D01*
X115063468Y-113313033D01*
X114938033Y-113438468D01*
X114839488Y-113585950D01*
X114771604Y-113749840D01*
X114737000Y-113923804D01*
X85750000Y-113923804D01*
X85750000Y-105176454D01*
X103999500Y-105176454D01*
X103999500Y-105373545D01*
X104037947Y-105566830D01*
X104037949Y-105566835D01*
X104113365Y-105748908D01*
X104113366Y-105748911D01*
X104113368Y-105748914D01*
X104222861Y-105912782D01*
X104362218Y-106052139D01*
X104526086Y-106161632D01*
X104708165Y-106237051D01*
X104708167Y-106237051D01*
X104708169Y-106237052D01*
X104896453Y-106274504D01*
X104901459Y-106275500D01*
X105098541Y-106275500D01*
X105291835Y-106237051D01*
X105473914Y-106161632D01*
X105637782Y-106052139D01*
X105691493Y-105998427D01*
X105772272Y-105944454D01*
X105867560Y-105925500D01*
X105948862Y-105925500D01*
X106044150Y-105944454D01*
X106115928Y-105992414D01*
X106116511Y-105991705D01*
X106123712Y-105997614D01*
X106124928Y-105998427D01*
X106125965Y-105999464D01*
X106273453Y-106098013D01*
X106437334Y-106165894D01*
X106611309Y-106200500D01*
X106788691Y-106200500D01*
X106962666Y-106165894D01*
X107126547Y-106098013D01*
X107274035Y-105999464D01*
X107399464Y-105874035D01*
X107498013Y-105726547D01*
X107565894Y-105562666D01*
X107586545Y-105458849D01*
X115699499Y-105458849D01*
X115699499Y-105488032D01*
X115699499Y-105488033D01*
X115699499Y-108989068D01*
X115699500Y-108989073D01*
X115721499Y-109099667D01*
X115724497Y-109114740D01*
X115773535Y-109233128D01*
X115844723Y-109339669D01*
X127886882Y-121381828D01*
X127940858Y-121462610D01*
X127956984Y-121501543D01*
X127956987Y-121501548D01*
X128055536Y-121649036D01*
X128180965Y-121774465D01*
X128328453Y-121873014D01*
X128492334Y-121940895D01*
X128666309Y-121975501D01*
X128843691Y-121975501D01*
X129017666Y-121940895D01*
X129181547Y-121873014D01*
X129329035Y-121774465D01*
X129454464Y-121649036D01*
X129553013Y-121501548D01*
X129620894Y-121337667D01*
X129655500Y-121163692D01*
X129655500Y-120986310D01*
X129652888Y-120973181D01*
X129648114Y-120926979D01*
X129627897Y-118804252D01*
X129632669Y-118753328D01*
X129650500Y-118663691D01*
X129650500Y-118486309D01*
X129628129Y-118373844D01*
X129623358Y-118327667D01*
X129600511Y-115928654D01*
X129600500Y-115926283D01*
X129600500Y-115786309D01*
X129600499Y-115786304D01*
X129565895Y-115612340D01*
X129565894Y-115612334D01*
X129498013Y-115448453D01*
X129399464Y-115300965D01*
X129274035Y-115175536D01*
X129210566Y-115133127D01*
X129126549Y-115076988D01*
X129126547Y-115076987D01*
X128962666Y-115009106D01*
X128962661Y-115009105D01*
X128962659Y-115009104D01*
X128788695Y-114974500D01*
X128788691Y-114974500D01*
X128611309Y-114974500D01*
X128611304Y-114974500D01*
X128437340Y-115009104D01*
X128437336Y-115009105D01*
X128437334Y-115009106D01*
X128384658Y-115030925D01*
X128273450Y-115076988D01*
X128115794Y-115182332D01*
X128113838Y-115179405D01*
X128049289Y-115213839D01*
X127977208Y-115224500D01*
X125372586Y-115224500D01*
X125277298Y-115205546D01*
X125196516Y-115151570D01*
X121272930Y-111227983D01*
X121218954Y-111147201D01*
X121200000Y-111051913D01*
X121200000Y-110736305D01*
X127849500Y-110736305D01*
X127849500Y-110920841D01*
X127849999Y-110930993D01*
X127849999Y-112969024D01*
X127849500Y-112979200D01*
X127849500Y-113163695D01*
X127884104Y-113337659D01*
X127884105Y-113337661D01*
X127884106Y-113337666D01*
X127951987Y-113501547D01*
X127951988Y-113501549D01*
X128019506Y-113602596D01*
X128050536Y-113649035D01*
X128175965Y-113774464D01*
X128323453Y-113873013D01*
X128487334Y-113940894D01*
X128661309Y-113975500D01*
X128838691Y-113975500D01*
X129012666Y-113940894D01*
X129176547Y-113873013D01*
X129324035Y-113774464D01*
X129449464Y-113649035D01*
X129548013Y-113501547D01*
X129615894Y-113337666D01*
X129647246Y-113180052D01*
X129652887Y-113151693D01*
X129656388Y-113152389D01*
X129677382Y-113082860D01*
X129721064Y-113023882D01*
X130596517Y-112148430D01*
X130677298Y-112094454D01*
X130772586Y-112075500D01*
X139277414Y-112075500D01*
X139372702Y-112094454D01*
X139453484Y-112148430D01*
X145635330Y-118330276D01*
X145741872Y-118401465D01*
X145781334Y-118417810D01*
X145860256Y-118450501D01*
X145985929Y-118475499D01*
X145985930Y-118475500D01*
X145985931Y-118475500D01*
X154864071Y-118475500D01*
X154864071Y-118475499D01*
X154989745Y-118450501D01*
X155005548Y-118443954D01*
X155100835Y-118425000D01*
X158473008Y-118425000D01*
X158560020Y-118440700D01*
X158582517Y-118449091D01*
X158582516Y-118449091D01*
X158588925Y-118449779D01*
X158642127Y-118455500D01*
X160437872Y-118455499D01*
X160497483Y-118449091D01*
X160632331Y-118398796D01*
X160747546Y-118312546D01*
X160833796Y-118197331D01*
X160884091Y-118062483D01*
X160890500Y-118002873D01*
X160890499Y-117370977D01*
X160900000Y-117323216D01*
X160900000Y-117125000D01*
X160900000Y-107225000D01*
X160900000Y-107161038D01*
X160887718Y-107120624D01*
X160889573Y-107057134D01*
X160890500Y-107051287D01*
X160890500Y-106838713D01*
X160889262Y-106830895D01*
X160893075Y-106733815D01*
X160900000Y-106718793D01*
X160900000Y-105061998D01*
X160885417Y-105051560D01*
X160834071Y-104969081D01*
X160818197Y-104873232D01*
X160830254Y-104804313D01*
X160857246Y-104721243D01*
X160890500Y-104511287D01*
X160890500Y-104298713D01*
X160890499Y-104298710D01*
X160890499Y-104298703D01*
X160860469Y-104109106D01*
X160857246Y-104088757D01*
X160791557Y-103886588D01*
X160695051Y-103697184D01*
X160570104Y-103525208D01*
X160419792Y-103374896D01*
X160247816Y-103249949D01*
X160058412Y-103153443D01*
X160058409Y-103153442D01*
X160058407Y-103153441D01*
X159856240Y-103087753D01*
X159646296Y-103054500D01*
X159646287Y-103054500D01*
X159433713Y-103054500D01*
X159433703Y-103054500D01*
X159223759Y-103087753D01*
X159021592Y-103153441D01*
X158832182Y-103249950D01*
X158660206Y-103374897D01*
X158509897Y-103525206D01*
X158384950Y-103697182D01*
X158288441Y-103886592D01*
X158222753Y-104088759D01*
X158189500Y-104298703D01*
X158189500Y-104511288D01*
X158213989Y-104665907D01*
X158210174Y-104762987D01*
X158169499Y-104851217D01*
X158144124Y-104880927D01*
X156694722Y-106330331D01*
X156694719Y-106330334D01*
X156658028Y-106385247D01*
X156658029Y-106385248D01*
X156623533Y-106436876D01*
X156574498Y-106555257D01*
X156549500Y-106680928D01*
X156549500Y-114152414D01*
X156530546Y-114247702D01*
X156476570Y-114328484D01*
X154303485Y-116501570D01*
X154222703Y-116555546D01*
X154127415Y-116574500D01*
X147072586Y-116574500D01*
X146977298Y-116555546D01*
X146896516Y-116501570D01*
X140714669Y-110319723D01*
X140608127Y-110248534D01*
X140512857Y-110209073D01*
X140489744Y-110199499D01*
X140489742Y-110199498D01*
X140489741Y-110199498D01*
X140364071Y-110174500D01*
X140364069Y-110174500D01*
X129472790Y-110174500D01*
X129377502Y-110155546D01*
X129335521Y-110130363D01*
X129334206Y-110132333D01*
X129176549Y-110026989D01*
X129170453Y-110024464D01*
X129012666Y-109959107D01*
X129012661Y-109959106D01*
X129012659Y-109959105D01*
X128838695Y-109924501D01*
X128838691Y-109924501D01*
X128661309Y-109924501D01*
X128661304Y-109924501D01*
X128487340Y-109959105D01*
X128487336Y-109959106D01*
X128487334Y-109959107D01*
X128381576Y-110002913D01*
X128323450Y-110026989D01*
X128175968Y-110125534D01*
X128050533Y-110250969D01*
X127951988Y-110398451D01*
X127884104Y-110562341D01*
X127849500Y-110736305D01*
X121200000Y-110736305D01*
X121200000Y-108040852D01*
X121200500Y-108030679D01*
X121200500Y-107826459D01*
X121200499Y-107826454D01*
X121162052Y-107633169D01*
X121162051Y-107633167D01*
X121162051Y-107633165D01*
X121086632Y-107451086D01*
X121080199Y-107441459D01*
X121043018Y-107351702D01*
X121043015Y-107254547D01*
X121080193Y-107164786D01*
X121148890Y-107096086D01*
X121238646Y-107058904D01*
X121348511Y-107037051D01*
X121530590Y-106961632D01*
X121694458Y-106852139D01*
X121833815Y-106712782D01*
X121943308Y-106548914D01*
X122018727Y-106366835D01*
X122057176Y-106173541D01*
X122057176Y-105976459D01*
X122036802Y-105874031D01*
X122018728Y-105783169D01*
X122018727Y-105783167D01*
X122018727Y-105783165D01*
X121943308Y-105601086D01*
X121833815Y-105437218D01*
X121694458Y-105297861D01*
X121530590Y-105188368D01*
X121530587Y-105188366D01*
X121530584Y-105188365D01*
X121348511Y-105112949D01*
X121348506Y-105112947D01*
X121155221Y-105074500D01*
X121155217Y-105074500D01*
X120966560Y-105074500D01*
X120871272Y-105055546D01*
X120790490Y-105001570D01*
X120736514Y-104920788D01*
X120717560Y-104825500D01*
X120736514Y-104730212D01*
X120790487Y-104649433D01*
X120827139Y-104612782D01*
X120936632Y-104448914D01*
X121012051Y-104266835D01*
X121050500Y-104073541D01*
X121050500Y-103876459D01*
X121012051Y-103683165D01*
X120936632Y-103501086D01*
X120827139Y-103337218D01*
X120687782Y-103197861D01*
X120523914Y-103088368D01*
X120523911Y-103088366D01*
X120523908Y-103088365D01*
X120341835Y-103012949D01*
X120341830Y-103012947D01*
X120148545Y-102974500D01*
X120148541Y-102974500D01*
X119951459Y-102974500D01*
X119951454Y-102974500D01*
X119758169Y-103012947D01*
X119758164Y-103012949D01*
X119576091Y-103088365D01*
X119576084Y-103088369D01*
X119412221Y-103197858D01*
X119272858Y-103337221D01*
X119163369Y-103501084D01*
X119163365Y-103501091D01*
X119087949Y-103683164D01*
X119087947Y-103683169D01*
X119049500Y-103876454D01*
X119049500Y-103952414D01*
X119030546Y-104047702D01*
X118976570Y-104128484D01*
X118976569Y-104128484D01*
X118871681Y-104233371D01*
X118790899Y-104287347D01*
X118695611Y-104306301D01*
X118600323Y-104287347D01*
X118557275Y-104264337D01*
X118426549Y-104176988D01*
X118426547Y-104176987D01*
X118262666Y-104109106D01*
X118262661Y-104109105D01*
X118262659Y-104109104D01*
X118088695Y-104074500D01*
X118088691Y-104074500D01*
X117911309Y-104074500D01*
X117911304Y-104074500D01*
X117737340Y-104109104D01*
X117737336Y-104109105D01*
X117737334Y-104109106D01*
X117628080Y-104154360D01*
X117573450Y-104176988D01*
X117415794Y-104282332D01*
X117413817Y-104279374D01*
X117349659Y-104313726D01*
X117277210Y-104324499D01*
X116833845Y-104324499D01*
X116733175Y-104344524D01*
X116733173Y-104344525D01*
X116708174Y-104349498D01*
X116708169Y-104349499D01*
X116589796Y-104398531D01*
X116589792Y-104398533D01*
X116589791Y-104398534D01*
X116514390Y-104448915D01*
X116483244Y-104469726D01*
X115844723Y-105108247D01*
X115820758Y-105144113D01*
X115795351Y-105182139D01*
X115773534Y-105214791D01*
X115724498Y-105333174D01*
X115699499Y-105458849D01*
X107586545Y-105458849D01*
X107600500Y-105388691D01*
X107600500Y-105211309D01*
X107565894Y-105037334D01*
X107498013Y-104873453D01*
X107399464Y-104725965D01*
X107274035Y-104600536D01*
X107140467Y-104511288D01*
X107126549Y-104501988D01*
X107126547Y-104501987D01*
X106962666Y-104434106D01*
X106962661Y-104434105D01*
X106962659Y-104434104D01*
X106788695Y-104399500D01*
X106788691Y-104399500D01*
X106611309Y-104399500D01*
X106611304Y-104399500D01*
X106437340Y-104434104D01*
X106437336Y-104434105D01*
X106437334Y-104434106D01*
X106273453Y-104501987D01*
X106273451Y-104501987D01*
X106273449Y-104501989D01*
X106152905Y-104582535D01*
X106063145Y-104619715D01*
X106014567Y-104624500D01*
X105867560Y-104624500D01*
X105772272Y-104605546D01*
X105691493Y-104551572D01*
X105637782Y-104497861D01*
X105595670Y-104469723D01*
X105490574Y-104399500D01*
X105473914Y-104388368D01*
X105473911Y-104388366D01*
X105473908Y-104388365D01*
X105291835Y-104312949D01*
X105291830Y-104312947D01*
X105098545Y-104274500D01*
X105098541Y-104274500D01*
X104901459Y-104274500D01*
X104901454Y-104274500D01*
X104708169Y-104312947D01*
X104708164Y-104312949D01*
X104526091Y-104388365D01*
X104526084Y-104388369D01*
X104362221Y-104497858D01*
X104222858Y-104637221D01*
X104113369Y-104801084D01*
X104113365Y-104801091D01*
X104037949Y-104983164D01*
X104037947Y-104983169D01*
X103999500Y-105176454D01*
X85750000Y-105176454D01*
X85750000Y-101486304D01*
X88349500Y-101486304D01*
X88349500Y-101663695D01*
X88384104Y-101837659D01*
X88384105Y-101837661D01*
X88384106Y-101837666D01*
X88451987Y-102001547D01*
X88550536Y-102149035D01*
X88675965Y-102274464D01*
X88823453Y-102373013D01*
X88987334Y-102440894D01*
X89161309Y-102475500D01*
X89338691Y-102475500D01*
X89512666Y-102440894D01*
X89676547Y-102373013D01*
X89824035Y-102274464D01*
X89949464Y-102149035D01*
X90048013Y-102001547D01*
X90115894Y-101837666D01*
X90150500Y-101663691D01*
X90150500Y-101486309D01*
X90115894Y-101312334D01*
X90048013Y-101148453D01*
X89949464Y-101000965D01*
X89824035Y-100875536D01*
X89824031Y-100875533D01*
X89676549Y-100776988D01*
X89676547Y-100776987D01*
X89512666Y-100709106D01*
X89512661Y-100709105D01*
X89512659Y-100709104D01*
X89338695Y-100674500D01*
X89338691Y-100674500D01*
X89161309Y-100674500D01*
X89161304Y-100674500D01*
X88987340Y-100709104D01*
X88987336Y-100709105D01*
X88987334Y-100709106D01*
X88878080Y-100754360D01*
X88823450Y-100776988D01*
X88675968Y-100875533D01*
X88550533Y-101000968D01*
X88451988Y-101148450D01*
X88384104Y-101312340D01*
X88349500Y-101486304D01*
X85750000Y-101486304D01*
X85750000Y-98199638D01*
X85768954Y-98104350D01*
X85822930Y-98023568D01*
X85903712Y-97969592D01*
X85999000Y-97950638D01*
X86094288Y-97969592D01*
X86165904Y-98017443D01*
X86166511Y-98016705D01*
X86174012Y-98022861D01*
X86175066Y-98023565D01*
X86175965Y-98024464D01*
X86323453Y-98123013D01*
X86487334Y-98190894D01*
X86661309Y-98225500D01*
X86838691Y-98225500D01*
X87012666Y-98190894D01*
X87176547Y-98123013D01*
X87324035Y-98024464D01*
X87449464Y-97899035D01*
X87548013Y-97751547D01*
X87615894Y-97587666D01*
X87636056Y-97486304D01*
X116599500Y-97486304D01*
X116599500Y-97663695D01*
X116634104Y-97837659D01*
X116634105Y-97837661D01*
X116634106Y-97837666D01*
X116693643Y-97981403D01*
X116701988Y-98001549D01*
X116800533Y-98149031D01*
X116800536Y-98149035D01*
X116925965Y-98274464D01*
X117073453Y-98373013D01*
X117237334Y-98440894D01*
X117411309Y-98475500D01*
X117588691Y-98475500D01*
X117762666Y-98440894D01*
X117926547Y-98373013D01*
X118074035Y-98274464D01*
X118199464Y-98149035D01*
X118298013Y-98001547D01*
X118365894Y-97837666D01*
X118400500Y-97663691D01*
X118400500Y-97486309D01*
X118365894Y-97312334D01*
X118298013Y-97148453D01*
X118199464Y-97000965D01*
X118074035Y-96875536D01*
X118074031Y-96875533D01*
X117926549Y-96776988D01*
X117926547Y-96776987D01*
X117762666Y-96709106D01*
X117762661Y-96709105D01*
X117762659Y-96709104D01*
X117588695Y-96674500D01*
X117588691Y-96674500D01*
X117411309Y-96674500D01*
X117411304Y-96674500D01*
X117237340Y-96709104D01*
X117237336Y-96709105D01*
X117237334Y-96709106D01*
X117136276Y-96750965D01*
X117073450Y-96776988D01*
X116925968Y-96875533D01*
X116800533Y-97000968D01*
X116701988Y-97148450D01*
X116634104Y-97312340D01*
X116599500Y-97486304D01*
X87636056Y-97486304D01*
X87650500Y-97413691D01*
X87650500Y-97236309D01*
X87615894Y-97062334D01*
X87548013Y-96898453D01*
X87449464Y-96750965D01*
X87324035Y-96625536D01*
X87204478Y-96545650D01*
X87176549Y-96526988D01*
X87176547Y-96526987D01*
X87012666Y-96459106D01*
X87012661Y-96459105D01*
X87012659Y-96459104D01*
X86838695Y-96424500D01*
X86838691Y-96424500D01*
X86661309Y-96424500D01*
X86661304Y-96424500D01*
X86487340Y-96459104D01*
X86487336Y-96459105D01*
X86487334Y-96459106D01*
X86378080Y-96504360D01*
X86323450Y-96526988D01*
X86175968Y-96625533D01*
X86175965Y-96625535D01*
X86175965Y-96625536D01*
X86175066Y-96626434D01*
X86174012Y-96627138D01*
X86166511Y-96633295D01*
X86165904Y-96632556D01*
X86094288Y-96680408D01*
X85999000Y-96699362D01*
X85903712Y-96680408D01*
X85822930Y-96626432D01*
X85768954Y-96545650D01*
X85750000Y-96450362D01*
X85750000Y-91036304D01*
X88349500Y-91036304D01*
X88349500Y-91213695D01*
X88384104Y-91387659D01*
X88384105Y-91387661D01*
X88384106Y-91387666D01*
X88438706Y-91519483D01*
X88451988Y-91551549D01*
X88510538Y-91639174D01*
X88550536Y-91699035D01*
X88675965Y-91824464D01*
X88823453Y-91923013D01*
X88987334Y-91990894D01*
X89161309Y-92025500D01*
X89338691Y-92025500D01*
X89512666Y-91990894D01*
X89676547Y-91923013D01*
X89824035Y-91824464D01*
X89949464Y-91699035D01*
X90048013Y-91551547D01*
X90115894Y-91387666D01*
X90146002Y-91236304D01*
X107599500Y-91236304D01*
X107599500Y-91413695D01*
X107634104Y-91587659D01*
X107634105Y-91587661D01*
X107634106Y-91587666D01*
X107680236Y-91699035D01*
X107701988Y-91751549D01*
X107800533Y-91899031D01*
X107800536Y-91899035D01*
X107925965Y-92024464D01*
X108073453Y-92123013D01*
X108237334Y-92190894D01*
X108411309Y-92225500D01*
X108595813Y-92225500D01*
X108606012Y-92224999D01*
X110634278Y-92224999D01*
X110682846Y-92229783D01*
X110747727Y-92242688D01*
X110765476Y-92233948D01*
X110829787Y-92225500D01*
X110838691Y-92225500D01*
X111012666Y-92190894D01*
X111176547Y-92123013D01*
X111324035Y-92024464D01*
X111449464Y-91899035D01*
X111548013Y-91751547D01*
X111615894Y-91587666D01*
X111650500Y-91413691D01*
X111650500Y-91236309D01*
X111615894Y-91062334D01*
X111548013Y-90898453D01*
X111449464Y-90750965D01*
X111324035Y-90625536D01*
X111212437Y-90550968D01*
X111176549Y-90526988D01*
X111176547Y-90526987D01*
X111012666Y-90459106D01*
X111012661Y-90459105D01*
X111012659Y-90459104D01*
X110838688Y-90424499D01*
X110830385Y-90423681D01*
X110765056Y-90403861D01*
X110682846Y-90420215D01*
X110634267Y-90425000D01*
X108606000Y-90425000D01*
X108595816Y-90424500D01*
X108588691Y-90424500D01*
X108411309Y-90424500D01*
X108411304Y-90424500D01*
X108237340Y-90459104D01*
X108237336Y-90459105D01*
X108237334Y-90459106D01*
X108154453Y-90493436D01*
X108073450Y-90526988D01*
X107925968Y-90625533D01*
X107800533Y-90750968D01*
X107701988Y-90898450D01*
X107634104Y-91062340D01*
X107599500Y-91236304D01*
X90146002Y-91236304D01*
X90150500Y-91213691D01*
X90150500Y-91036309D01*
X90115894Y-90862334D01*
X90048013Y-90698453D01*
X89949464Y-90550965D01*
X89824035Y-90425536D01*
X89822485Y-90424500D01*
X89676549Y-90326988D01*
X89659804Y-90320052D01*
X89512666Y-90259106D01*
X89512661Y-90259105D01*
X89512659Y-90259104D01*
X89338695Y-90224500D01*
X89338691Y-90224500D01*
X89161309Y-90224500D01*
X89161304Y-90224500D01*
X88987340Y-90259104D01*
X88987336Y-90259105D01*
X88987334Y-90259106D01*
X88915286Y-90288949D01*
X88823450Y-90326988D01*
X88675968Y-90425533D01*
X88550533Y-90550968D01*
X88451988Y-90698450D01*
X88384104Y-90862340D01*
X88349500Y-91036304D01*
X85750000Y-91036304D01*
X85750000Y-87060928D01*
X150799500Y-87060928D01*
X150799500Y-109389681D01*
X150807719Y-109431002D01*
X150821736Y-109501465D01*
X150824499Y-109515354D01*
X150824500Y-109515356D01*
X150873535Y-109633738D01*
X150944723Y-109740279D01*
X151926570Y-110722126D01*
X151980546Y-110802908D01*
X151999500Y-110898196D01*
X151999500Y-113539070D01*
X152021857Y-113651465D01*
X152021858Y-113651470D01*
X152021857Y-113651470D01*
X152024496Y-113664734D01*
X152024501Y-113664751D01*
X152073531Y-113783120D01*
X152073532Y-113783122D01*
X152073535Y-113783128D01*
X152144724Y-113889671D01*
X152356248Y-114101195D01*
X152528935Y-114273881D01*
X152582912Y-114354663D01*
X152594842Y-114402144D01*
X152597113Y-114401693D01*
X152634104Y-114587659D01*
X152634105Y-114587661D01*
X152634106Y-114587666D01*
X152698062Y-114742070D01*
X152701988Y-114751549D01*
X152793877Y-114889069D01*
X152800536Y-114899035D01*
X152925965Y-115024464D01*
X153073453Y-115123013D01*
X153237334Y-115190894D01*
X153411309Y-115225500D01*
X153588691Y-115225500D01*
X153762666Y-115190894D01*
X153926547Y-115123013D01*
X154074035Y-115024464D01*
X154199464Y-114899035D01*
X154298013Y-114751547D01*
X154365894Y-114587666D01*
X154400500Y-114413691D01*
X154400500Y-114236309D01*
X154400500Y-114229180D01*
X154400000Y-114218999D01*
X154400000Y-111931002D01*
X154400500Y-111920829D01*
X154400500Y-111729180D01*
X154400000Y-111718999D01*
X154400000Y-109431002D01*
X154400500Y-109420829D01*
X154400500Y-109229180D01*
X154400000Y-109218999D01*
X154400000Y-106681002D01*
X154400500Y-106670829D01*
X154400500Y-106486309D01*
X154400499Y-106486304D01*
X154390667Y-106436876D01*
X154365894Y-106312334D01*
X154298013Y-106148453D01*
X154264310Y-106098013D01*
X154242465Y-106065319D01*
X154205285Y-105975560D01*
X154200500Y-105926981D01*
X154200500Y-99218703D01*
X155649500Y-99218703D01*
X155649500Y-99431296D01*
X155682753Y-99641240D01*
X155742460Y-99825000D01*
X155748443Y-99843412D01*
X155844949Y-100032816D01*
X155969896Y-100204792D01*
X156120208Y-100355104D01*
X156292184Y-100480051D01*
X156481588Y-100576557D01*
X156683757Y-100642246D01*
X156757601Y-100653941D01*
X156893703Y-100675499D01*
X156893710Y-100675499D01*
X156893713Y-100675500D01*
X156893716Y-100675500D01*
X156923700Y-100675500D01*
X157004639Y-100691599D01*
X157090088Y-100678066D01*
X157129040Y-100675000D01*
X159289999Y-100675000D01*
X159290000Y-100674999D01*
X159290000Y-99758012D01*
X159347007Y-99790925D01*
X159474174Y-99825000D01*
X159605826Y-99825000D01*
X159732993Y-99790925D01*
X159790000Y-99758012D01*
X159790000Y-100674999D01*
X159790001Y-100675000D01*
X160437825Y-100675000D01*
X160437832Y-100674999D01*
X160497371Y-100668598D01*
X160497378Y-100668596D01*
X160632087Y-100618353D01*
X160747187Y-100532189D01*
X160747189Y-100532187D01*
X160833353Y-100417087D01*
X160883596Y-100282378D01*
X160883598Y-100282371D01*
X160889999Y-100222832D01*
X160890000Y-100222825D01*
X160890000Y-99575001D01*
X160889999Y-99575000D01*
X159973012Y-99575000D01*
X160005925Y-99517993D01*
X160040000Y-99390826D01*
X160040000Y-99259174D01*
X160005925Y-99132007D01*
X159973012Y-99075000D01*
X160889999Y-99075000D01*
X160890000Y-99074999D01*
X160890000Y-98427175D01*
X160889999Y-98427167D01*
X160883598Y-98367628D01*
X160883596Y-98367621D01*
X160833353Y-98232912D01*
X160747189Y-98117812D01*
X160747187Y-98117810D01*
X160632087Y-98031646D01*
X160497378Y-97981403D01*
X160497371Y-97981401D01*
X160437832Y-97975000D01*
X159790001Y-97975000D01*
X159790000Y-97975001D01*
X159790000Y-98891988D01*
X159732993Y-98859075D01*
X159605826Y-98825000D01*
X159474174Y-98825000D01*
X159347007Y-98859075D01*
X159290000Y-98891988D01*
X159290000Y-97975001D01*
X159289999Y-97975000D01*
X158700001Y-97975000D01*
X157122423Y-97975000D01*
X157109704Y-97974500D01*
X157106287Y-97974500D01*
X156893713Y-97974500D01*
X156893703Y-97974500D01*
X156683759Y-98007753D01*
X156481592Y-98073441D01*
X156481588Y-98073442D01*
X156481588Y-98073443D01*
X156394513Y-98117810D01*
X156292182Y-98169950D01*
X156120206Y-98294897D01*
X155969897Y-98445206D01*
X155844950Y-98617182D01*
X155748441Y-98806592D01*
X155682753Y-99008759D01*
X155649500Y-99218703D01*
X154200500Y-99218703D01*
X154200500Y-95824000D01*
X154219454Y-95728712D01*
X154273430Y-95647930D01*
X154354212Y-95593954D01*
X154449500Y-95575000D01*
X155959813Y-95575000D01*
X156026976Y-95587117D01*
X156027357Y-95585509D01*
X156042514Y-95589090D01*
X156042517Y-95589091D01*
X156102127Y-95595500D01*
X157897872Y-95595499D01*
X157957483Y-95589091D01*
X157957486Y-95589089D01*
X157972637Y-95585510D01*
X157973017Y-95587118D01*
X158040185Y-95575000D01*
X159284687Y-95575000D01*
X159323638Y-95578065D01*
X159370633Y-95585509D01*
X159433706Y-95595499D01*
X159433707Y-95595499D01*
X159433713Y-95595500D01*
X159433716Y-95595500D01*
X159646284Y-95595500D01*
X159646287Y-95595500D01*
X159646290Y-95595499D01*
X159646296Y-95595499D01*
X159756360Y-95578066D01*
X159856243Y-95562246D01*
X160058412Y-95496557D01*
X160247816Y-95400051D01*
X160419792Y-95275104D01*
X160570104Y-95124792D01*
X160695051Y-94952816D01*
X160791557Y-94763412D01*
X160857246Y-94561243D01*
X160869825Y-94481824D01*
X160900000Y-94400028D01*
X160900000Y-94275000D01*
X160900000Y-84325000D01*
X160900000Y-84263439D01*
X160889676Y-84211537D01*
X160890444Y-84191995D01*
X160890500Y-84191283D01*
X160890500Y-84066330D01*
X160899999Y-84018575D01*
X160899999Y-83825000D01*
X160900000Y-81525000D01*
X160899999Y-81525000D01*
X160899999Y-81472713D01*
X160894085Y-81448050D01*
X160892031Y-81448376D01*
X160857246Y-81228759D01*
X160857246Y-81228757D01*
X160791557Y-81026588D01*
X160695051Y-80837184D01*
X160570104Y-80665208D01*
X160419792Y-80514896D01*
X160247816Y-80389949D01*
X160058412Y-80293443D01*
X160058409Y-80293442D01*
X160058407Y-80293441D01*
X159856240Y-80227753D01*
X159646296Y-80194500D01*
X159646287Y-80194500D01*
X159433713Y-80194500D01*
X159433704Y-80194500D01*
X159260503Y-80221934D01*
X159221550Y-80225000D01*
X157799999Y-80225000D01*
X157762466Y-80255026D01*
X157676218Y-80299750D01*
X157579419Y-80308065D01*
X157528225Y-80294900D01*
X157527717Y-80296466D01*
X157316240Y-80227753D01*
X157106296Y-80194500D01*
X157106287Y-80194500D01*
X156893713Y-80194500D01*
X156893703Y-80194500D01*
X156683759Y-80227753D01*
X156481592Y-80293441D01*
X156481588Y-80293442D01*
X156481588Y-80293443D01*
X156475655Y-80296466D01*
X156292182Y-80389950D01*
X156120206Y-80514897D01*
X155969897Y-80665206D01*
X155844950Y-80837182D01*
X155748441Y-81026592D01*
X155682753Y-81228759D01*
X155649500Y-81438703D01*
X155649500Y-81651284D01*
X155649501Y-81651298D01*
X155678090Y-81831804D01*
X155674276Y-81928884D01*
X155633601Y-82017115D01*
X155608226Y-82046826D01*
X150944721Y-86710333D01*
X150874979Y-86814712D01*
X150874959Y-86814742D01*
X150873538Y-86816867D01*
X150873536Y-86816871D01*
X150824497Y-86935260D01*
X150799500Y-87060928D01*
X85750000Y-87060928D01*
X85750000Y-79524000D01*
X85768954Y-79428712D01*
X85822930Y-79347930D01*
X85903712Y-79293954D01*
X85999000Y-79275000D01*
X88051919Y-79275000D01*
X88064140Y-79275300D01*
X88068202Y-79275499D01*
X88068206Y-79275500D01*
X88068210Y-79275500D01*
X88431791Y-79275500D01*
X88431794Y-79275500D01*
X88793631Y-79239862D01*
X89150233Y-79168930D01*
X89150244Y-79168926D01*
X89150251Y-79168925D01*
X89376693Y-79100233D01*
X89498164Y-79063386D01*
X89834076Y-78924247D01*
X90134091Y-78763886D01*
X90154725Y-78752857D01*
X90154735Y-78752851D01*
X90314967Y-78645787D01*
X90457044Y-78550854D01*
X90738101Y-78320197D01*
X90995197Y-78063101D01*
X91225854Y-77782044D01*
X91427853Y-77479732D01*
X91442202Y-77452888D01*
X91517413Y-77312177D01*
X91599247Y-77159076D01*
X91738386Y-76823164D01*
X91814790Y-76571296D01*
X91843925Y-76475251D01*
X91843928Y-76475238D01*
X91843930Y-76475233D01*
X91914862Y-76118631D01*
X91950500Y-75756794D01*
X91950500Y-75393206D01*
X91950499Y-75393202D01*
X91950300Y-75389140D01*
X91950000Y-75376919D01*
X91950000Y-73324000D01*
X91968954Y-73228712D01*
X92022930Y-73147930D01*
X92103712Y-73093954D01*
X92198999Y-73075000D01*
X136901004Y-73075000D01*
X136996288Y-73093954D01*
G37*
G04 #@! TD.AperFunction*
G04 #@! TA.AperFunction,Conductor*
G36*
X114721282Y-48344455D02*
G01*
X114802064Y-48398431D01*
X114856040Y-48479213D01*
X114874994Y-48574501D01*
X114874994Y-48926001D01*
X114856040Y-49021289D01*
X114802064Y-49102071D01*
X114721282Y-49156047D01*
X114625994Y-49175001D01*
X114031993Y-49175001D01*
X113944978Y-49159302D01*
X113922477Y-49150909D01*
X113862867Y-49144501D01*
X112067128Y-49144501D01*
X112067124Y-49144501D01*
X112067122Y-49144502D01*
X112054308Y-49145879D01*
X112007513Y-49150909D01*
X112007508Y-49150910D01*
X111985011Y-49159302D01*
X111897996Y-49175001D01*
X110740251Y-49175001D01*
X110701296Y-49171935D01*
X110674994Y-49167768D01*
X110674994Y-50061989D01*
X110617987Y-50029076D01*
X110490820Y-49995001D01*
X110359168Y-49995001D01*
X110232001Y-50029076D01*
X110174994Y-50061989D01*
X110174994Y-49167769D01*
X110174993Y-49167768D01*
X110108873Y-49178241D01*
X110108869Y-49178242D01*
X109906778Y-49243905D01*
X109906768Y-49243909D01*
X109717440Y-49340377D01*
X109545531Y-49465276D01*
X109395269Y-49615538D01*
X109270370Y-49787447D01*
X109173902Y-49976775D01*
X109173896Y-49976788D01*
X109108237Y-50178871D01*
X109097763Y-50245001D01*
X109991982Y-50245001D01*
X109959069Y-50302008D01*
X109924994Y-50429175D01*
X109924994Y-50560827D01*
X109959069Y-50687994D01*
X109991982Y-50745001D01*
X109097764Y-50745001D01*
X109108237Y-50811130D01*
X109173896Y-51013213D01*
X109173902Y-51013226D01*
X109270370Y-51202554D01*
X109395269Y-51374463D01*
X109545531Y-51524725D01*
X109717440Y-51649624D01*
X109906768Y-51746092D01*
X109906781Y-51746098D01*
X110108864Y-51811757D01*
X110174994Y-51822231D01*
X110174994Y-50928013D01*
X110232001Y-50960926D01*
X110359168Y-50995001D01*
X110490820Y-50995001D01*
X110617987Y-50960926D01*
X110674994Y-50928013D01*
X110674994Y-51825167D01*
X110677106Y-51825001D01*
X111924807Y-51825001D01*
X111991970Y-51837118D01*
X111992351Y-51835510D01*
X112007508Y-51839091D01*
X112007511Y-51839092D01*
X112067121Y-51845501D01*
X112975495Y-51845500D01*
X113070782Y-51864454D01*
X113151563Y-51918430D01*
X113205540Y-51999212D01*
X113224494Y-52094500D01*
X113224494Y-55448921D01*
X113253335Y-55593912D01*
X113266008Y-55624508D01*
X113309910Y-55730496D01*
X113342807Y-55779730D01*
X113392042Y-55853417D01*
X114383627Y-56845001D01*
X115301564Y-57762938D01*
X115355540Y-57843720D01*
X115374494Y-57939008D01*
X115374494Y-65706057D01*
X115374994Y-65716230D01*
X115374994Y-67260102D01*
X115356040Y-67355390D01*
X115302064Y-67436172D01*
X115257815Y-67468990D01*
X115258618Y-67470192D01*
X115100962Y-67575534D01*
X114975527Y-67700969D01*
X114876982Y-67848451D01*
X114876981Y-67848454D01*
X114810436Y-68009111D01*
X114809098Y-68012341D01*
X114774494Y-68186305D01*
X114774494Y-68370830D01*
X114774994Y-68381003D01*
X114774994Y-69325500D01*
X114756040Y-69420788D01*
X114702064Y-69501570D01*
X114621282Y-69555546D01*
X114525994Y-69574500D01*
X112023994Y-69574500D01*
X111928706Y-69555546D01*
X111847924Y-69501570D01*
X111793948Y-69420788D01*
X111774994Y-69325500D01*
X111774994Y-69188870D01*
X111775351Y-69175541D01*
X111775491Y-69172893D01*
X111775494Y-69172874D01*
X111775493Y-67377129D01*
X111775492Y-67377125D01*
X111775351Y-67374485D01*
X111774994Y-67361154D01*
X111774994Y-66011659D01*
X111752225Y-65985001D01*
X110858006Y-65985001D01*
X110890919Y-65927994D01*
X110924994Y-65800827D01*
X110924994Y-65669175D01*
X110890919Y-65542008D01*
X110858006Y-65485001D01*
X111752225Y-65485001D01*
X111774994Y-65458341D01*
X111774994Y-63317425D01*
X111775494Y-63304701D01*
X111775494Y-63085311D01*
X111774994Y-63072577D01*
X111774994Y-60777425D01*
X111775494Y-60764701D01*
X111775494Y-60545311D01*
X111774994Y-60532577D01*
X111774994Y-58237425D01*
X111775494Y-58224701D01*
X111775494Y-58005311D01*
X111774994Y-57992577D01*
X111774994Y-55704029D01*
X111778059Y-55665078D01*
X111784484Y-55624508D01*
X111775494Y-55560075D01*
X111775494Y-55468716D01*
X111775493Y-55468704D01*
X111744582Y-55273546D01*
X111742240Y-55258758D01*
X111676551Y-55056589D01*
X111580045Y-54867185D01*
X111455098Y-54695209D01*
X111304786Y-54544897D01*
X111132810Y-54419950D01*
X110943406Y-54323444D01*
X110943403Y-54323443D01*
X110943401Y-54323442D01*
X110741234Y-54257754D01*
X110531290Y-54224501D01*
X110531281Y-54224501D01*
X110318707Y-54224501D01*
X110318697Y-54224501D01*
X110108753Y-54257754D01*
X109906586Y-54323442D01*
X109906582Y-54323443D01*
X109906582Y-54323444D01*
X109808259Y-54373542D01*
X109717176Y-54419951D01*
X109545200Y-54544898D01*
X109394891Y-54695207D01*
X109269944Y-54867183D01*
X109173435Y-55056593D01*
X109107747Y-55258760D01*
X109074494Y-55468704D01*
X109074494Y-55505249D01*
X109067236Y-55541734D01*
X109063400Y-55578747D01*
X109059417Y-55586107D01*
X109071928Y-55665094D01*
X109074994Y-55704047D01*
X109074994Y-57992577D01*
X109074494Y-58005311D01*
X109074494Y-58224701D01*
X109074994Y-58237425D01*
X109074994Y-60532577D01*
X109074494Y-60545311D01*
X109074494Y-60764701D01*
X109074994Y-60777425D01*
X109074994Y-63072577D01*
X109074494Y-63085311D01*
X109074494Y-63304701D01*
X109074994Y-63317425D01*
X109074994Y-65305332D01*
X109089825Y-65329339D01*
X109091954Y-65342477D01*
X109097716Y-65354480D01*
X109131207Y-65485001D01*
X109991982Y-65485001D01*
X109959069Y-65542008D01*
X109924994Y-65669175D01*
X109924994Y-65800827D01*
X109959069Y-65927994D01*
X109991982Y-65985001D01*
X109078166Y-65985001D01*
X109061850Y-65997863D01*
X109035436Y-66005312D01*
X109010696Y-66017188D01*
X108979250Y-66021157D01*
X108968343Y-66024234D01*
X108961397Y-66023411D01*
X108948809Y-66025001D01*
X107174495Y-66025001D01*
X107079207Y-66006047D01*
X106998425Y-65952071D01*
X106944449Y-65871289D01*
X106925495Y-65776001D01*
X106925495Y-61688164D01*
X106892910Y-61451083D01*
X106888230Y-61417036D01*
X106814393Y-61153509D01*
X106731074Y-60961689D01*
X106710496Y-60866739D01*
X106727821Y-60771141D01*
X106780410Y-60689450D01*
X106783333Y-60686476D01*
X106825495Y-60644315D01*
X106891387Y-60530187D01*
X106925495Y-60402893D01*
X106925495Y-60271109D01*
X106913283Y-60225534D01*
X106891388Y-60143818D01*
X106891387Y-60143817D01*
X106891387Y-60143815D01*
X106858294Y-60086496D01*
X106827066Y-59994503D01*
X106833420Y-59897556D01*
X106858292Y-59837507D01*
X106891387Y-59780187D01*
X106925495Y-59652893D01*
X106925495Y-59521109D01*
X106914554Y-59480278D01*
X106891388Y-59393818D01*
X106891387Y-59393817D01*
X106891387Y-59393815D01*
X106854830Y-59330497D01*
X106823602Y-59238503D01*
X106829956Y-59141556D01*
X106854829Y-59081506D01*
X106891387Y-59018187D01*
X106925495Y-58890893D01*
X106925495Y-58759109D01*
X106891387Y-58631815D01*
X106858294Y-58574496D01*
X106827066Y-58482503D01*
X106833420Y-58385556D01*
X106858292Y-58325507D01*
X106891387Y-58268187D01*
X106925495Y-58140893D01*
X106925495Y-58009109D01*
X106924477Y-58005311D01*
X106891388Y-57881818D01*
X106891387Y-57881817D01*
X106891387Y-57881815D01*
X106851366Y-57812497D01*
X106820138Y-57720503D01*
X106826492Y-57623556D01*
X106851365Y-57563506D01*
X106891387Y-57494187D01*
X106925495Y-57366893D01*
X106925495Y-57235109D01*
X106891387Y-57107815D01*
X106825495Y-56993687D01*
X106813154Y-56981346D01*
X106787023Y-56955214D01*
X106733047Y-56874432D01*
X106714094Y-56779144D01*
X106733049Y-56683856D01*
X106734669Y-56680035D01*
X106814393Y-56496493D01*
X106888230Y-56232966D01*
X106925495Y-55961839D01*
X106925495Y-55825001D01*
X106925495Y-55759109D01*
X106925495Y-55709583D01*
X106925494Y-55709577D01*
X106925494Y-49833899D01*
X106926128Y-49816136D01*
X106932684Y-49724467D01*
X106939487Y-49629353D01*
X106944540Y-49594207D01*
X106982449Y-49419938D01*
X106992455Y-49385863D01*
X107054778Y-49218767D01*
X107069536Y-49186453D01*
X107074624Y-49177135D01*
X107155003Y-49029932D01*
X107174199Y-49000062D01*
X107281078Y-48857288D01*
X107304330Y-48830453D01*
X107430446Y-48704337D01*
X107457281Y-48681085D01*
X107600055Y-48574206D01*
X107629925Y-48555010D01*
X107786449Y-48469541D01*
X107818760Y-48454785D01*
X107985856Y-48392462D01*
X108019931Y-48382456D01*
X108194200Y-48344547D01*
X108229346Y-48339494D01*
X108391152Y-48327921D01*
X108416131Y-48326135D01*
X108433894Y-48325501D01*
X108490886Y-48325501D01*
X114625994Y-48325501D01*
X114721282Y-48344455D01*
G37*
G04 #@! TD.AperFunction*
G04 #@! TA.AperFunction,Conductor*
G36*
X154297696Y-49244455D02*
G01*
X154378478Y-49298431D01*
X157619718Y-52539670D01*
X157619717Y-52539670D01*
X157710323Y-52630275D01*
X157710325Y-52630277D01*
X157816867Y-52701466D01*
X157816869Y-52701466D01*
X157816871Y-52701468D01*
X157851543Y-52715829D01*
X157935250Y-52750502D01*
X158060923Y-52775500D01*
X158060924Y-52775501D01*
X158060925Y-52775501D01*
X162389064Y-52775501D01*
X162389064Y-52775500D01*
X162514738Y-52750502D01*
X162633121Y-52701466D01*
X162644304Y-52693994D01*
X162739663Y-52630278D01*
X163332281Y-52037660D01*
X163617431Y-51752510D01*
X163698213Y-51698533D01*
X163793501Y-51679579D01*
X163888789Y-51698533D01*
X163969570Y-51752509D01*
X164023547Y-51833291D01*
X164042501Y-51928579D01*
X164026802Y-52015594D01*
X164007397Y-52067619D01*
X164007395Y-52067629D01*
X164000994Y-52127168D01*
X164000994Y-57022833D01*
X164007395Y-57082371D01*
X164007397Y-57082381D01*
X164029852Y-57142586D01*
X166524511Y-54647931D01*
X166605293Y-54593955D01*
X166700581Y-54575001D01*
X166703407Y-54575001D01*
X166798695Y-54593955D01*
X166879477Y-54647931D01*
X166933453Y-54728713D01*
X166952407Y-54824001D01*
X166933453Y-54919289D01*
X166879477Y-55000071D01*
X164409266Y-57470281D01*
X164453164Y-57475000D01*
X164453166Y-57475001D01*
X166062416Y-57475001D01*
X166157704Y-57493955D01*
X166238486Y-57547931D01*
X166292462Y-57628713D01*
X166311416Y-57724001D01*
X166292462Y-57819289D01*
X166263861Y-57870360D01*
X166141653Y-58038563D01*
X166034424Y-58249013D01*
X165961440Y-58473636D01*
X165924495Y-58706897D01*
X165924494Y-58706913D01*
X165924494Y-58943088D01*
X165924495Y-58943104D01*
X165961440Y-59176365D01*
X166032094Y-59393818D01*
X166034426Y-59400993D01*
X166084847Y-59499950D01*
X166141653Y-59611438D01*
X166263861Y-59779642D01*
X166304536Y-59867873D01*
X166308350Y-59964953D01*
X166274723Y-60056103D01*
X166208775Y-60127446D01*
X166120544Y-60168121D01*
X166062416Y-60175001D01*
X164453171Y-60175001D01*
X164409267Y-60179720D01*
X167128477Y-62898930D01*
X167182453Y-62979712D01*
X167201407Y-63075000D01*
X167182453Y-63170288D01*
X167128477Y-63251070D01*
X164409266Y-65970281D01*
X164453164Y-65975000D01*
X164453166Y-65975001D01*
X168925494Y-65975001D01*
X169020782Y-65993955D01*
X169101564Y-66047931D01*
X169155540Y-66128713D01*
X169174494Y-66224001D01*
X169174494Y-68066102D01*
X169173859Y-68083867D01*
X169160499Y-68270647D01*
X169155444Y-68305811D01*
X169117540Y-68480053D01*
X169107531Y-68514140D01*
X169045209Y-68681232D01*
X169030450Y-68713549D01*
X168944988Y-68870061D01*
X168925780Y-68899949D01*
X168818913Y-69042706D01*
X168795649Y-69069555D01*
X168669547Y-69195657D01*
X168642697Y-69218922D01*
X168499939Y-69325789D01*
X168470052Y-69344996D01*
X168313536Y-69430460D01*
X168281220Y-69445218D01*
X168114142Y-69507535D01*
X168080054Y-69517545D01*
X167905798Y-69555452D01*
X167870633Y-69560508D01*
X167684023Y-69573855D01*
X167666260Y-69574489D01*
X163960059Y-69574500D01*
X163923994Y-69574500D01*
X163828706Y-69555546D01*
X163747924Y-69501570D01*
X163693948Y-69420788D01*
X163674994Y-69325500D01*
X163674994Y-67325001D01*
X163674993Y-67325001D01*
X163639317Y-67574737D01*
X163607078Y-67666387D01*
X163542220Y-67738723D01*
X163454617Y-67780733D01*
X163357606Y-67786020D01*
X163265956Y-67753781D01*
X163193620Y-67688923D01*
X163156007Y-67616467D01*
X163136554Y-67556596D01*
X163136553Y-67556594D01*
X163136551Y-67556591D01*
X163136551Y-67556589D01*
X163040045Y-67367185D01*
X163037828Y-67364133D01*
X162933048Y-67219914D01*
X162892374Y-67131683D01*
X162885494Y-67073557D01*
X162885494Y-65436460D01*
X162885493Y-65436455D01*
X162870780Y-65362490D01*
X162855775Y-65287052D01*
X162847045Y-65243165D01*
X162808855Y-65150966D01*
X162771626Y-65061087D01*
X162662133Y-64897219D01*
X162607336Y-64842422D01*
X162522776Y-64757861D01*
X162522776Y-64757862D01*
X162522775Y-64757861D01*
X161452134Y-63687221D01*
X161452133Y-63687219D01*
X161312776Y-63547862D01*
X161257973Y-63511244D01*
X161148908Y-63438369D01*
X161148903Y-63438366D01*
X161059862Y-63401484D01*
X161020159Y-63385039D01*
X161002382Y-63377676D01*
X160966832Y-63362950D01*
X160966828Y-63362949D01*
X160870137Y-63343716D01*
X160773539Y-63324501D01*
X160773535Y-63324501D01*
X154942554Y-63324501D01*
X154847266Y-63305547D01*
X154766484Y-63251571D01*
X152142081Y-60627168D01*
X164000994Y-60627168D01*
X164000994Y-65522833D01*
X164007395Y-65582371D01*
X164007397Y-65582381D01*
X164029852Y-65642586D01*
X166597440Y-63075000D01*
X164029852Y-60507412D01*
X164007397Y-60567618D01*
X164007396Y-60567624D01*
X164000994Y-60627168D01*
X152142081Y-60627168D01*
X150498424Y-58983511D01*
X150444448Y-58902729D01*
X150425494Y-58807441D01*
X150425494Y-53726844D01*
X150444448Y-53631556D01*
X150498424Y-53550774D01*
X150539830Y-53520065D01*
X150538737Y-53518429D01*
X150548908Y-53511633D01*
X150712776Y-53402140D01*
X150852133Y-53262783D01*
X150961626Y-53098915D01*
X151037045Y-52916836D01*
X151075494Y-52723542D01*
X151075494Y-52526460D01*
X151054452Y-52420674D01*
X151037046Y-52333170D01*
X151037045Y-52333168D01*
X151037045Y-52333166D01*
X150961626Y-52151087D01*
X150852133Y-51987219D01*
X150712776Y-51847862D01*
X150699649Y-51839091D01*
X150603732Y-51775001D01*
X150548908Y-51738369D01*
X150548905Y-51738367D01*
X150548902Y-51738366D01*
X150366829Y-51662950D01*
X150366824Y-51662948D01*
X150173539Y-51624501D01*
X150173535Y-51624501D01*
X149076453Y-51624501D01*
X148979806Y-51643725D01*
X148925982Y-51654431D01*
X148883156Y-51662950D01*
X148861591Y-51671883D01*
X148855272Y-51674501D01*
X148701081Y-51738368D01*
X148701078Y-51738370D01*
X148537215Y-51847859D01*
X148397852Y-51987222D01*
X148288363Y-52151085D01*
X148288361Y-52151088D01*
X148246783Y-52251468D01*
X148246783Y-52251469D01*
X148212943Y-52333163D01*
X148195538Y-52420670D01*
X148195537Y-52420674D01*
X148174494Y-52526459D01*
X148174494Y-52723546D01*
X148212941Y-52916831D01*
X148212943Y-52916836D01*
X148288359Y-53098909D01*
X148288362Y-53098916D01*
X148382530Y-53239847D01*
X148419709Y-53329606D01*
X148424494Y-53378184D01*
X148424494Y-59423543D01*
X148435779Y-59480274D01*
X148435779Y-59480277D01*
X148462942Y-59616834D01*
X148462943Y-59616837D01*
X148465921Y-59624026D01*
X148465923Y-59624036D01*
X148465925Y-59624036D01*
X148538362Y-59798915D01*
X148564144Y-59837500D01*
X148638669Y-59949036D01*
X148647855Y-59962783D01*
X148787212Y-60102140D01*
X148787215Y-60102142D01*
X153647852Y-64962779D01*
X153647855Y-64962783D01*
X153787212Y-65102140D01*
X153951080Y-65211633D01*
X154079828Y-65264962D01*
X154133158Y-65287052D01*
X154229806Y-65306276D01*
X154326453Y-65325501D01*
X154326454Y-65325501D01*
X154523534Y-65325501D01*
X157725994Y-65325501D01*
X157821282Y-65344455D01*
X157902064Y-65398431D01*
X157956040Y-65479213D01*
X157974994Y-65574501D01*
X157974994Y-68280493D01*
X157956040Y-68375781D01*
X157902066Y-68456560D01*
X157807054Y-68551572D01*
X157726276Y-68605547D01*
X157630988Y-68624501D01*
X142924494Y-68624501D01*
X142829206Y-68605547D01*
X142748424Y-68551571D01*
X142694448Y-68470789D01*
X142675494Y-68375501D01*
X142675494Y-66301082D01*
X142675493Y-66301080D01*
X142675086Y-66299036D01*
X142646652Y-66156088D01*
X142590078Y-66019506D01*
X142552323Y-65963002D01*
X142552322Y-65963000D01*
X142552322Y-65962999D01*
X142552319Y-65962996D01*
X142507950Y-65896590D01*
X142507948Y-65896588D01*
X142507946Y-65896585D01*
X141753410Y-65142049D01*
X141753406Y-65142046D01*
X141753404Y-65142044D01*
X141753405Y-65142044D01*
X141679726Y-65092816D01*
X141679723Y-65092813D01*
X141679723Y-65092814D01*
X141630489Y-65059917D01*
X141493907Y-65003343D01*
X141493905Y-65003342D01*
X141348914Y-64974501D01*
X141348912Y-64974501D01*
X139889002Y-64974501D01*
X139793714Y-64955547D01*
X139712932Y-64901571D01*
X139498424Y-64687063D01*
X139444448Y-64606281D01*
X139425494Y-64510993D01*
X139425494Y-61939008D01*
X139444448Y-61843720D01*
X139498424Y-61762938D01*
X139512931Y-61748431D01*
X139593713Y-61694455D01*
X139689001Y-61675501D01*
X141501805Y-61675501D01*
X141597093Y-61694455D01*
X141640140Y-61717464D01*
X141648442Y-61723011D01*
X141648443Y-61723011D01*
X141648447Y-61723014D01*
X141812328Y-61790895D01*
X141986303Y-61825501D01*
X142163685Y-61825501D01*
X142337660Y-61790895D01*
X142501541Y-61723014D01*
X142649029Y-61624465D01*
X142774458Y-61499036D01*
X142873007Y-61351548D01*
X142940888Y-61187667D01*
X142975494Y-61013692D01*
X142975494Y-60836310D01*
X142940888Y-60662335D01*
X142873007Y-60498454D01*
X142774458Y-60350966D01*
X142649029Y-60225537D01*
X142634111Y-60215569D01*
X142501543Y-60126989D01*
X142501541Y-60126988D01*
X142337660Y-60059107D01*
X142337655Y-60059106D01*
X142337653Y-60059105D01*
X142163689Y-60024501D01*
X142163685Y-60024501D01*
X141986303Y-60024501D01*
X141986298Y-60024501D01*
X141812334Y-60059105D01*
X141812330Y-60059106D01*
X141812328Y-60059107D01*
X141648447Y-60126988D01*
X141648445Y-60126988D01*
X141648443Y-60126990D01*
X141648441Y-60126990D01*
X141640140Y-60132538D01*
X141550380Y-60169717D01*
X141501805Y-60174501D01*
X139839000Y-60174501D01*
X139743712Y-60155547D01*
X139662933Y-60101573D01*
X139498424Y-59937063D01*
X139444448Y-59856281D01*
X139425494Y-59760994D01*
X139425494Y-50689008D01*
X139444448Y-50593720D01*
X139498424Y-50512938D01*
X139662931Y-50348431D01*
X139743713Y-50294455D01*
X139839001Y-50275501D01*
X141116973Y-50275501D01*
X141212261Y-50294455D01*
X141293043Y-50348431D01*
X141347019Y-50429213D01*
X141376980Y-50501546D01*
X141376981Y-50501549D01*
X141443410Y-50600966D01*
X141475530Y-50649036D01*
X141600959Y-50774465D01*
X141748447Y-50873014D01*
X141912328Y-50940895D01*
X142086303Y-50975501D01*
X142263685Y-50975501D01*
X142437660Y-50940895D01*
X142601541Y-50873014D01*
X142749029Y-50774465D01*
X142874458Y-50649036D01*
X142973007Y-50501548D01*
X143040888Y-50337667D01*
X143075494Y-50163692D01*
X143075494Y-49986310D01*
X143040888Y-49812335D01*
X142973007Y-49648454D01*
X142949209Y-49612838D01*
X142912030Y-49523079D01*
X142912029Y-49425924D01*
X142949209Y-49336164D01*
X143017908Y-49267465D01*
X143107667Y-49230286D01*
X143156245Y-49225501D01*
X154202408Y-49225501D01*
X154297696Y-49244455D01*
G37*
G04 #@! TD.AperFunction*
G04 #@! TA.AperFunction,Conductor*
G36*
X124147696Y-49494455D02*
G01*
X124228478Y-49548431D01*
X125301564Y-50621517D01*
X125355540Y-50702299D01*
X125374494Y-50797587D01*
X125374494Y-51052209D01*
X125355540Y-51147497D01*
X125330388Y-51189500D01*
X125332326Y-51190795D01*
X125226982Y-51348451D01*
X125208582Y-51392873D01*
X125161139Y-51507414D01*
X125159098Y-51512341D01*
X125124494Y-51686305D01*
X125124494Y-51863696D01*
X125159098Y-52037660D01*
X125159099Y-52037662D01*
X125159100Y-52037667D01*
X125221814Y-52189073D01*
X125226982Y-52201550D01*
X125325527Y-52349032D01*
X125325530Y-52349036D01*
X125450959Y-52474465D01*
X125598447Y-52573014D01*
X125762328Y-52640895D01*
X125936303Y-52675501D01*
X126113685Y-52675501D01*
X126287660Y-52640895D01*
X126451541Y-52573014D01*
X126599029Y-52474465D01*
X126724458Y-52349036D01*
X126823007Y-52201548D01*
X126890888Y-52037667D01*
X126895279Y-52015594D01*
X126903270Y-51975422D01*
X126940450Y-51885663D01*
X127009149Y-51816964D01*
X127098909Y-51779785D01*
X127147485Y-51775001D01*
X129001908Y-51775001D01*
X129097196Y-51793955D01*
X129177977Y-51847931D01*
X129460325Y-52130278D01*
X129460329Y-52130282D01*
X129530906Y-52177437D01*
X129548309Y-52189066D01*
X129548311Y-52189067D01*
X129548314Y-52189070D01*
X129548315Y-52189070D01*
X129566867Y-52201466D01*
X129566869Y-52201466D01*
X129566871Y-52201468D01*
X129601543Y-52215829D01*
X129685250Y-52250502D01*
X129810923Y-52275500D01*
X129810924Y-52275501D01*
X129810925Y-52275501D01*
X130611856Y-52275501D01*
X130611856Y-52275500D01*
X130737530Y-52250502D01*
X130855913Y-52201466D01*
X130874465Y-52189070D01*
X130962455Y-52130278D01*
X131618232Y-51474501D01*
X131844303Y-51248431D01*
X131925084Y-51194455D01*
X132020372Y-51175501D01*
X132252408Y-51175501D01*
X132347696Y-51194455D01*
X132428478Y-51248431D01*
X132803930Y-51623883D01*
X132857906Y-51704665D01*
X132869844Y-51752144D01*
X132872107Y-51751694D01*
X132909098Y-51937660D01*
X132909099Y-51937662D01*
X132909100Y-51937667D01*
X132974062Y-52094500D01*
X132976982Y-52101550D01*
X133075527Y-52249032D01*
X133075530Y-52249036D01*
X133200959Y-52374465D01*
X133348447Y-52473014D01*
X133512328Y-52540895D01*
X133686303Y-52575501D01*
X133863685Y-52575501D01*
X134037660Y-52540895D01*
X134201541Y-52473014D01*
X134349029Y-52374465D01*
X134474458Y-52249036D01*
X134573007Y-52101548D01*
X134640888Y-51937667D01*
X134675494Y-51763692D01*
X134675494Y-51586310D01*
X134675494Y-51579181D01*
X134674994Y-51569000D01*
X134674994Y-50524501D01*
X134693948Y-50429213D01*
X134747924Y-50348431D01*
X134828706Y-50294455D01*
X134923994Y-50275501D01*
X137510987Y-50275501D01*
X137606275Y-50294455D01*
X137687056Y-50348431D01*
X137851563Y-50512937D01*
X137905540Y-50593718D01*
X137924494Y-50689006D01*
X137924494Y-53988030D01*
X137905540Y-54083318D01*
X137851564Y-54164100D01*
X137770782Y-54218076D01*
X137601082Y-54288368D01*
X137601078Y-54288370D01*
X137437215Y-54397859D01*
X137297852Y-54537222D01*
X137188363Y-54701085D01*
X137188359Y-54701092D01*
X137112943Y-54883165D01*
X137112941Y-54883170D01*
X137074494Y-55076455D01*
X137074494Y-55273546D01*
X137112941Y-55466831D01*
X137112943Y-55466836D01*
X137188359Y-55648909D01*
X137188360Y-55648912D01*
X137188362Y-55648915D01*
X137202978Y-55670789D01*
X137261990Y-55759108D01*
X137297855Y-55812783D01*
X137437212Y-55952140D01*
X137601080Y-56061633D01*
X137770785Y-56131926D01*
X137851562Y-56185899D01*
X137905539Y-56266680D01*
X137924494Y-56361968D01*
X137924494Y-64435993D01*
X137905540Y-64531281D01*
X137851564Y-64612063D01*
X137851563Y-64612063D01*
X137674613Y-64789012D01*
X137593832Y-64842988D01*
X137547133Y-64857155D01*
X137537334Y-64859104D01*
X137537328Y-64859106D01*
X137373452Y-64926985D01*
X137373445Y-64926988D01*
X137225962Y-65025534D01*
X137100527Y-65150969D01*
X137001982Y-65298451D01*
X137001981Y-65298454D01*
X136935755Y-65458341D01*
X136934098Y-65462341D01*
X136899494Y-65636305D01*
X136899494Y-65813696D01*
X136934098Y-65987660D01*
X136934099Y-65987662D01*
X136934100Y-65987667D01*
X136990763Y-66124465D01*
X137001982Y-66151550D01*
X137064223Y-66244699D01*
X137100530Y-66299036D01*
X137225959Y-66424465D01*
X137373447Y-66523014D01*
X137537328Y-66590895D01*
X137711303Y-66625501D01*
X137888685Y-66625501D01*
X138062660Y-66590895D01*
X138226541Y-66523014D01*
X138226545Y-66523011D01*
X138226546Y-66523011D01*
X138234848Y-66517464D01*
X138324608Y-66480285D01*
X138373183Y-66475501D01*
X138601076Y-66475501D01*
X139401076Y-66475501D01*
X139401077Y-66475501D01*
X139548912Y-66475501D01*
X140860986Y-66475501D01*
X140956274Y-66494455D01*
X141037056Y-66548431D01*
X141101564Y-66612939D01*
X141155540Y-66693721D01*
X141174494Y-66789009D01*
X141174494Y-68375501D01*
X141155540Y-68470789D01*
X141101564Y-68551571D01*
X141020782Y-68605547D01*
X140925494Y-68624501D01*
X133773994Y-68624501D01*
X133678706Y-68605547D01*
X133597924Y-68551571D01*
X133543948Y-68470789D01*
X133524994Y-68375501D01*
X133524994Y-67756381D01*
X133525494Y-67746208D01*
X133525494Y-63647792D01*
X133544448Y-63552504D01*
X133569639Y-63510528D01*
X133567662Y-63509207D01*
X133580373Y-63490183D01*
X133673007Y-63351548D01*
X133740888Y-63187667D01*
X133775494Y-63013692D01*
X133775494Y-62836310D01*
X133740888Y-62662335D01*
X133673007Y-62498454D01*
X133574458Y-62350966D01*
X133449029Y-62225537D01*
X133449025Y-62225534D01*
X133301543Y-62126989D01*
X133301541Y-62126988D01*
X133137660Y-62059107D01*
X133137655Y-62059106D01*
X133137653Y-62059105D01*
X132963689Y-62024501D01*
X132963685Y-62024501D01*
X132786303Y-62024501D01*
X132786298Y-62024501D01*
X132612334Y-62059105D01*
X132612330Y-62059106D01*
X132612328Y-62059107D01*
X132503074Y-62104361D01*
X132448444Y-62126989D01*
X132300962Y-62225534D01*
X132175527Y-62350969D01*
X132076982Y-62498451D01*
X132076981Y-62498454D01*
X132015890Y-62645944D01*
X132009098Y-62662341D01*
X131974494Y-62836305D01*
X131974494Y-62976001D01*
X131955540Y-63071289D01*
X131901564Y-63152071D01*
X131820782Y-63206047D01*
X131725494Y-63225001D01*
X131505994Y-63225001D01*
X131495810Y-63224501D01*
X131488685Y-63224501D01*
X131311303Y-63224501D01*
X131311298Y-63224501D01*
X131137334Y-63259105D01*
X131137330Y-63259106D01*
X131137328Y-63259107D01*
X131035493Y-63301288D01*
X130973444Y-63326989D01*
X130825962Y-63425534D01*
X130700527Y-63550969D01*
X130601982Y-63698451D01*
X130534098Y-63862341D01*
X130499494Y-64036305D01*
X130499494Y-64213694D01*
X130520209Y-64317831D01*
X130524994Y-64366410D01*
X130524994Y-66125650D01*
X130506040Y-66220938D01*
X130452064Y-66301720D01*
X130371282Y-66355696D01*
X130345857Y-66364327D01*
X130343206Y-66365425D01*
X130211195Y-66441642D01*
X130119196Y-66472871D01*
X130086696Y-66475001D01*
X129137141Y-66475001D01*
X129041853Y-66456047D01*
X128961071Y-66402071D01*
X128907095Y-66321289D01*
X128888141Y-66226001D01*
X128892926Y-66177423D01*
X128918683Y-66047931D01*
X128925494Y-66013692D01*
X128925494Y-65836310D01*
X128890888Y-65662335D01*
X128823007Y-65498454D01*
X128814018Y-65485001D01*
X128724459Y-65350967D01*
X128724456Y-65350963D01*
X128698422Y-65324929D01*
X128644447Y-65244147D01*
X128625494Y-65148862D01*
X128625494Y-63326875D01*
X128644448Y-63231587D01*
X128698422Y-63150807D01*
X130818707Y-61030522D01*
X130818710Y-61030521D01*
X130930514Y-60918717D01*
X130997125Y-60803343D01*
X131009571Y-60781786D01*
X131050495Y-60629058D01*
X131050495Y-60470944D01*
X131050495Y-60455684D01*
X131050494Y-60455666D01*
X131050494Y-59126875D01*
X131069448Y-59031587D01*
X131123422Y-58950807D01*
X132543707Y-57530522D01*
X132543710Y-57530521D01*
X132655514Y-57418717D01*
X132734571Y-57281785D01*
X132769092Y-57152950D01*
X132775494Y-57129059D01*
X132775494Y-56970944D01*
X132775494Y-54599137D01*
X132775495Y-54599124D01*
X132775495Y-54420944D01*
X132749369Y-54323442D01*
X132734571Y-54268217D01*
X132715543Y-54235260D01*
X132686431Y-54184836D01*
X132655514Y-54131285D01*
X132543709Y-54019480D01*
X132373424Y-53849194D01*
X132319448Y-53768413D01*
X132300494Y-53673125D01*
X132300494Y-53636310D01*
X132300493Y-53636305D01*
X132285862Y-53562752D01*
X132265888Y-53462335D01*
X132198007Y-53298454D01*
X132099458Y-53150966D01*
X131974029Y-53025537D01*
X131974025Y-53025534D01*
X131826543Y-52926989D01*
X131826541Y-52926988D01*
X131662660Y-52859107D01*
X131662655Y-52859106D01*
X131662653Y-52859105D01*
X131488689Y-52824501D01*
X131488685Y-52824501D01*
X131311303Y-52824501D01*
X131311298Y-52824501D01*
X131137334Y-52859105D01*
X131137330Y-52859106D01*
X131137328Y-52859107D01*
X131028074Y-52904361D01*
X130973444Y-52926989D01*
X130825962Y-53025534D01*
X130700527Y-53150969D01*
X130601982Y-53298451D01*
X130579354Y-53353081D01*
X130549344Y-53425534D01*
X130534098Y-53462341D01*
X130499494Y-53636305D01*
X130499494Y-53813696D01*
X130534098Y-53987660D01*
X130534099Y-53987662D01*
X130534100Y-53987667D01*
X130601981Y-54151548D01*
X130601982Y-54151550D01*
X130693402Y-54288369D01*
X130700530Y-54299036D01*
X130825959Y-54424465D01*
X130973447Y-54523014D01*
X131137328Y-54590895D01*
X131311303Y-54625501D01*
X131325494Y-54625501D01*
X131420782Y-54644455D01*
X131501564Y-54698431D01*
X131555540Y-54779213D01*
X131574494Y-54874501D01*
X131574494Y-55375501D01*
X131555540Y-55470789D01*
X131501564Y-55551571D01*
X131420782Y-55605547D01*
X131325494Y-55624501D01*
X131311298Y-55624501D01*
X131137334Y-55659105D01*
X131137330Y-55659106D01*
X131137328Y-55659107D01*
X131083778Y-55681288D01*
X130973444Y-55726989D01*
X130890312Y-55782537D01*
X130800552Y-55819717D01*
X130751975Y-55824501D01*
X127273994Y-55824501D01*
X127178706Y-55805547D01*
X127097924Y-55751571D01*
X127043948Y-55670789D01*
X127024994Y-55575501D01*
X127024994Y-54231003D01*
X127025494Y-54220830D01*
X127025494Y-54036310D01*
X127025493Y-54036305D01*
X126990889Y-53862341D01*
X126990888Y-53862335D01*
X126923007Y-53698454D01*
X126824458Y-53550966D01*
X126699029Y-53425537D01*
X126699025Y-53425534D01*
X126551543Y-53326989D01*
X126551541Y-53326988D01*
X126387660Y-53259107D01*
X126387655Y-53259106D01*
X126387653Y-53259105D01*
X126213689Y-53224501D01*
X126213685Y-53224501D01*
X126036303Y-53224501D01*
X126036298Y-53224501D01*
X125862334Y-53259105D01*
X125862330Y-53259106D01*
X125862328Y-53259107D01*
X125767342Y-53298451D01*
X125698444Y-53326989D01*
X125550962Y-53425534D01*
X125425527Y-53550969D01*
X125326982Y-53698451D01*
X125304354Y-53753081D01*
X125264544Y-53849194D01*
X125259098Y-53862341D01*
X125224494Y-54036305D01*
X125224494Y-54073125D01*
X125205540Y-54168413D01*
X125151565Y-54249193D01*
X125094474Y-54306284D01*
X125084537Y-54319235D01*
X125082651Y-54317788D01*
X125033760Y-54373542D01*
X124946625Y-54416515D01*
X124882173Y-54425001D01*
X123914537Y-54425001D01*
X123819249Y-54406047D01*
X123738467Y-54352071D01*
X123684491Y-54271289D01*
X123674021Y-54240445D01*
X123672632Y-54235261D01*
X123672632Y-54235260D01*
X123661705Y-54194481D01*
X123634571Y-54093216D01*
X123592000Y-54019481D01*
X123555514Y-53956285D01*
X123443710Y-53844481D01*
X123443707Y-53844479D01*
X120805515Y-51206287D01*
X120805514Y-51206285D01*
X120693710Y-51094481D01*
X120606900Y-51044362D01*
X120606897Y-51044359D01*
X120556778Y-51015423D01*
X120556775Y-51015422D01*
X120404051Y-50974500D01*
X120245937Y-50974500D01*
X120230676Y-50974500D01*
X120230660Y-50974501D01*
X119483015Y-50974501D01*
X119387727Y-50955547D01*
X119306945Y-50901571D01*
X119252969Y-50820789D01*
X119223007Y-50748455D01*
X119223006Y-50748452D01*
X119124460Y-50600969D01*
X119124458Y-50600966D01*
X118999029Y-50475537D01*
X118998375Y-50475100D01*
X118851543Y-50376989D01*
X118851541Y-50376988D01*
X118687660Y-50309107D01*
X118687655Y-50309106D01*
X118687653Y-50309105D01*
X118513689Y-50274501D01*
X118513685Y-50274501D01*
X118336303Y-50274501D01*
X118336298Y-50274501D01*
X118162334Y-50309105D01*
X118162330Y-50309106D01*
X118162328Y-50309107D01*
X118053074Y-50354361D01*
X117998444Y-50376989D01*
X117850962Y-50475534D01*
X117725527Y-50600969D01*
X117626982Y-50748451D01*
X117559098Y-50912341D01*
X117524494Y-51086305D01*
X117524494Y-51263696D01*
X117559098Y-51437660D01*
X117559099Y-51437662D01*
X117559100Y-51437667D01*
X117626981Y-51601548D01*
X117626982Y-51601550D01*
X117628293Y-51604714D01*
X117647246Y-51700002D01*
X117628293Y-51795288D01*
X117626982Y-51798451D01*
X117626981Y-51798454D01*
X117569321Y-51937660D01*
X117559098Y-51962341D01*
X117524494Y-52136305D01*
X117524494Y-52313696D01*
X117559098Y-52487660D01*
X117559099Y-52487662D01*
X117559100Y-52487667D01*
X117622569Y-52640896D01*
X117626982Y-52651550D01*
X117725527Y-52799032D01*
X117725530Y-52799036D01*
X117850959Y-52924465D01*
X117998447Y-53023014D01*
X118162328Y-53090895D01*
X118336303Y-53125501D01*
X118513685Y-53125501D01*
X118687660Y-53090895D01*
X118851541Y-53023014D01*
X118999029Y-52924465D01*
X119124458Y-52799036D01*
X119133060Y-52786163D01*
X119201759Y-52717464D01*
X119291519Y-52680285D01*
X119340095Y-52675501D01*
X119823119Y-52675501D01*
X119918407Y-52694455D01*
X119999189Y-52748431D01*
X121951564Y-54700806D01*
X122005540Y-54781588D01*
X122024494Y-54876876D01*
X122024494Y-55726001D01*
X122005540Y-55821289D01*
X121951564Y-55902071D01*
X121870782Y-55956047D01*
X121775494Y-55975001D01*
X120580994Y-55975001D01*
X120570810Y-55974501D01*
X120563685Y-55974501D01*
X120386303Y-55974501D01*
X120386298Y-55974501D01*
X120212334Y-56009105D01*
X120212330Y-56009106D01*
X120212328Y-56009107D01*
X120103074Y-56054361D01*
X120048444Y-56076989D01*
X119900962Y-56175534D01*
X119775527Y-56300969D01*
X119676982Y-56448451D01*
X119609098Y-56612340D01*
X119606664Y-56624580D01*
X119569484Y-56714339D01*
X119500785Y-56783038D01*
X119411025Y-56820217D01*
X119362449Y-56825001D01*
X118998080Y-56825001D01*
X118902792Y-56806047D01*
X118822010Y-56752071D01*
X116298424Y-54228485D01*
X116244448Y-54147703D01*
X116225494Y-54052415D01*
X116225494Y-50697587D01*
X116244448Y-50602299D01*
X116298424Y-50521517D01*
X117271510Y-49548431D01*
X117352292Y-49494455D01*
X117447580Y-49475501D01*
X124052408Y-49475501D01*
X124147696Y-49494455D01*
G37*
G04 #@! TD.AperFunction*
G04 #@! TA.AperFunction,Conductor*
G36*
X119687808Y-60343955D02*
G01*
X119730858Y-60366966D01*
X119751689Y-60380885D01*
X119751690Y-60380885D01*
X119751693Y-60380887D01*
X119782492Y-60401466D01*
X119900875Y-60450502D01*
X120026548Y-60475500D01*
X120026549Y-60475501D01*
X120026550Y-60475501D01*
X122089064Y-60475501D01*
X122089064Y-60475500D01*
X122214738Y-60450502D01*
X122333121Y-60401466D01*
X122334565Y-60400501D01*
X122334566Y-60400500D01*
X122334566Y-60400501D01*
X122334571Y-60400496D01*
X122384762Y-60366960D01*
X122474523Y-60329784D01*
X122523093Y-60325001D01*
X124197619Y-60325001D01*
X124292907Y-60343955D01*
X124373689Y-60397931D01*
X124444472Y-60468714D01*
X124444474Y-60468717D01*
X124556278Y-60580521D01*
X124693210Y-60659578D01*
X124805013Y-60689535D01*
X124845936Y-60700501D01*
X124845937Y-60700501D01*
X125425994Y-60700501D01*
X125521282Y-60719455D01*
X125602064Y-60773431D01*
X125656040Y-60854213D01*
X125674994Y-60949501D01*
X125674994Y-62625819D01*
X125674493Y-62633464D01*
X125674493Y-62824123D01*
X125674494Y-62824136D01*
X125674494Y-64326001D01*
X125655540Y-64421289D01*
X125601564Y-64502071D01*
X125520782Y-64556047D01*
X125425494Y-64575001D01*
X123725559Y-64575001D01*
X123650166Y-64560004D01*
X123649362Y-64562657D01*
X123637655Y-64559105D01*
X123463689Y-64524501D01*
X123463685Y-64524501D01*
X123286303Y-64524501D01*
X123286298Y-64524501D01*
X123112332Y-64559105D01*
X123100626Y-64562657D01*
X123099820Y-64560003D01*
X123024439Y-64575001D01*
X119348080Y-64575001D01*
X119252792Y-64556047D01*
X119172010Y-64502071D01*
X118948424Y-64278485D01*
X118894448Y-64197703D01*
X118875494Y-64102415D01*
X118875494Y-60574001D01*
X118894448Y-60478713D01*
X118948424Y-60397931D01*
X119029206Y-60343955D01*
X119124494Y-60325001D01*
X119592520Y-60325001D01*
X119687808Y-60343955D01*
G37*
G04 #@! TD.AperFunction*
G04 #@! TA.AperFunction,Conductor*
G36*
X167683860Y-48326135D02*
G01*
X167870638Y-48339493D01*
X167905791Y-48344547D01*
X168080061Y-48382457D01*
X168114128Y-48392461D01*
X168225723Y-48434083D01*
X168281224Y-48454784D01*
X168313541Y-48469543D01*
X168364843Y-48497556D01*
X168422490Y-48529034D01*
X168470053Y-48555005D01*
X168499938Y-48574211D01*
X168547662Y-48609936D01*
X168642698Y-48681079D01*
X168669548Y-48704344D01*
X168795649Y-48830445D01*
X168818914Y-48857295D01*
X168925781Y-49000053D01*
X168944989Y-49029941D01*
X169030452Y-49186457D01*
X169045209Y-49218771D01*
X169107527Y-49385850D01*
X169117537Y-49419939D01*
X169155444Y-49594195D01*
X169160500Y-49629361D01*
X169173858Y-49816135D01*
X169174492Y-49833898D01*
X169174492Y-51426001D01*
X169155538Y-51521289D01*
X169101562Y-51602071D01*
X169020780Y-51656047D01*
X168925492Y-51675001D01*
X165836191Y-51675001D01*
X165740903Y-51656047D01*
X165660121Y-51602071D01*
X165606145Y-51521289D01*
X165587191Y-51426001D01*
X165606145Y-51330713D01*
X165636854Y-51276784D01*
X165718790Y-51167332D01*
X165769085Y-51032484D01*
X165775494Y-50972874D01*
X165775493Y-49177129D01*
X165769085Y-49117518D01*
X165718790Y-48982670D01*
X165632540Y-48867455D01*
X165618969Y-48857296D01*
X165507480Y-48773835D01*
X165442557Y-48701557D01*
X165410235Y-48609936D01*
X165415436Y-48512920D01*
X165457367Y-48425280D01*
X165529645Y-48360357D01*
X165621266Y-48328035D01*
X165656701Y-48325501D01*
X167609103Y-48325501D01*
X167666097Y-48325501D01*
X167683860Y-48326135D01*
G37*
G04 #@! TD.AperFunction*
M02*
