G04 #@! TF.GenerationSoftware,KiCad,Pcbnew,10.0.4-10.0.4~ubuntu22.04.1*
G04 #@! TF.CreationDate,2026-09-14T12:58:56+02:00*
G04 #@! TF.ProjectId,3_in_1_Panel,335f696e-5f31-45f5-9061-6e656c2e6b69,rev?*
G04 #@! TF.SameCoordinates,PX72ade90PY75c75e0*
G04 #@! TF.FileFunction,Profile,NP*
%FSLAX46Y46*%
G04 Gerber Fmt 4.6, Leading zero omitted, Abs format (unit mm)*
G04 Created by KiCad (PCBNEW 10.0.4-10.0.4~ubuntu22.04.1) date 2026-09-14 12:58:56*
%MOMM*%
%LPD*%
G01*
G04 APERTURE LIST*
G04 #@! TA.AperFunction,Profile*
%ADD10C,0.100000*%
G04 #@! TD*
G04 APERTURE END LIST*
D10*
X82675000Y-49825000D02*
X82674999Y-68075001D01*
X82675000Y-49825000D02*
G75*
G02*
X84675000Y-47825000I2000000J0D01*
G01*
X84674997Y-70075001D02*
G75*
G02*
X82674999Y-68075001I3J2000001D01*
G01*
X84675000Y-47825002D02*
X101424997Y-47825001D01*
X84750000Y-75575000D02*
G75*
G02*
X88250000Y-72075000I3500000J0D01*
G01*
X84750000Y-122575000D02*
X84750000Y-75575000D01*
X88250000Y-126075000D02*
G75*
G02*
X84750000Y-122575000I0J3500000D01*
G01*
X88251382Y-72075000D02*
X91149801Y-72075000D01*
X91150202Y-70075000D02*
X84676358Y-70075001D01*
X97650000Y-70074999D02*
X101430000Y-70074999D01*
X97650414Y-72075000D02*
X116048678Y-72074999D01*
X101424997Y-47825001D02*
G75*
G02*
X103424999Y-49825001I3J-1999999D01*
G01*
X103424995Y-55825001D02*
X103424995Y-49825001D01*
X103424995Y-61825001D02*
X103424997Y-68075003D01*
X103424995Y-61825001D02*
G75*
G02*
X106424995Y-61825001I1500000J0D01*
G01*
X103424997Y-68075003D02*
G75*
G02*
X101424997Y-70074997I-1999997J3D01*
G01*
X106424994Y-49825001D02*
G75*
G02*
X108424994Y-47824994I2000006J1D01*
G01*
X106424995Y-55825001D02*
G75*
G02*
X103424995Y-55825001I-1500000J0D01*
G01*
X106424995Y-55825001D02*
X106424994Y-49825001D01*
X106424995Y-61825001D02*
X106424995Y-68083882D01*
X108424451Y-70075001D02*
X116050404Y-70075000D01*
X108424994Y-47825001D02*
X167674994Y-47825001D01*
X108424994Y-70075001D02*
G75*
G02*
X106425019Y-68083882I6J2000001D01*
G01*
X122550288Y-70075000D02*
X157524586Y-70075000D01*
X122550545Y-72074999D02*
X157524654Y-72075000D01*
X164025000Y-72075000D02*
X166250000Y-72075000D01*
X164025953Y-70075000D02*
X167670366Y-70074989D01*
X166250000Y-72075000D02*
G75*
G02*
X169750000Y-75575001I0J-3500000D01*
G01*
X166250000Y-126075000D02*
X88250000Y-126075000D01*
X167250000Y-80075000D02*
G75*
G02*
X168250000Y-79075000I1000000J0D01*
G01*
X167250000Y-118324999D02*
X167250000Y-80075000D01*
X167674994Y-47825001D02*
G75*
G02*
X169674999Y-49825001I6J-1999999D01*
G01*
X168250000Y-119325000D02*
G75*
G02*
X167250000Y-118324999I0J1000000D01*
G01*
X168750000Y-79075000D02*
X168250000Y-79075000D01*
X168750000Y-119325000D02*
X168250000Y-119325000D01*
X168750000Y-119325000D02*
G75*
G02*
X169750000Y-120325000I0J-1000000D01*
G01*
X169674992Y-49825001D02*
X169674994Y-68075003D01*
X169674994Y-68075003D02*
G75*
G02*
X167674994Y-70074994I-1999994J3D01*
G01*
X169750000Y-75575001D02*
X169750000Y-78074999D01*
X169750000Y-78074999D02*
G75*
G02*
X168750000Y-79075000I-1000000J-1D01*
G01*
X169750000Y-120325000D02*
X169750000Y-122575000D01*
X169750000Y-122575000D02*
G75*
G02*
X166250000Y-126075000I-3500000J0D01*
G01*
X91150000Y-70075000D02*
G75*
G02*
X91150000Y-72075000I0J-1000000D01*
G01*
X97650000Y-72075000D02*
G75*
G02*
X97650000Y-70075000I0J1000000D01*
G01*
X116050000Y-70075000D02*
G75*
G02*
X116050000Y-72075000I0J-1000000D01*
G01*
X122550000Y-72075000D02*
G75*
G02*
X122550000Y-70075000I0J1000000D01*
G01*
X157525000Y-70075000D02*
G75*
G02*
X157525000Y-72075000I0J-1000000D01*
G01*
X164025000Y-72075000D02*
G75*
G02*
X164025000Y-70075000I0J1000000D01*
G01*
M02*
