%TF.GenerationSoftware,KiCad,Pcbnew,7.0.10*%
%TF.CreationDate,2024-02-02T00:24:17+07:00*%
%TF.ProjectId,PICO_ADC_Test,5049434f-5f41-4444-935f-546573742e6b,R0.1*%
%TF.SameCoordinates,PX72ade90PY75c75e0*%
%TF.FileFunction,Soldermask,Top*%
%TF.FilePolarity,Negative*%
%FSLAX46Y46*%
G04 Gerber Fmt 4.6, Leading zero omitted, Abs format (unit mm)*
G04 Created by KiCad (PCBNEW 7.0.10) date 2024-02-02 00:24:17*
%MOMM*%
%LPD*%
G01*
G04 APERTURE LIST*
G04 Aperture macros list*
%AMRoundRect*
0 Rectangle with rounded corners*
0 $1 Rounding radius*
0 $2 $3 $4 $5 $6 $7 $8 $9 X,Y pos of 4 corners*
0 Add a 4 corners polygon primitive as box body*
4,1,4,$2,$3,$4,$5,$6,$7,$8,$9,$2,$3,0*
0 Add four circle primitives for the rounded corners*
1,1,$1+$1,$2,$3*
1,1,$1+$1,$4,$5*
1,1,$1+$1,$6,$7*
1,1,$1+$1,$8,$9*
0 Add four rect primitives between the rounded corners*
20,1,$1+$1,$2,$3,$4,$5,0*
20,1,$1+$1,$4,$5,$6,$7,0*
20,1,$1+$1,$6,$7,$8,$9,0*
20,1,$1+$1,$8,$9,$2,$3,0*%
%AMFreePoly0*
4,1,9,3.862500,-0.866500,0.737500,-0.866500,0.737500,-0.450000,-0.737500,-0.450000,-0.737500,0.450000,0.737500,0.450000,0.737500,0.866500,3.862500,0.866500,3.862500,-0.866500,3.862500,-0.866500,$1*%
G04 Aperture macros list end*
%ADD10RoundRect,0.250000X-0.325000X-0.650000X0.325000X-0.650000X0.325000X0.650000X-0.325000X0.650000X0*%
%ADD11RoundRect,0.250000X-0.650000X0.325000X-0.650000X-0.325000X0.650000X-0.325000X0.650000X0.325000X0*%
%ADD12RoundRect,0.250000X0.650000X-0.325000X0.650000X0.325000X-0.650000X0.325000X-0.650000X-0.325000X0*%
%ADD13RoundRect,0.250000X0.325000X0.650000X-0.325000X0.650000X-0.325000X-0.650000X0.325000X-0.650000X0*%
%ADD14RoundRect,0.110000X-0.110000X-0.650000X0.110000X-0.650000X0.110000X0.650000X-0.110000X0.650000X0*%
%ADD15RoundRect,0.250000X-0.625000X0.312500X-0.625000X-0.312500X0.625000X-0.312500X0.625000X0.312500X0*%
%ADD16RoundRect,0.250000X0.625000X-0.312500X0.625000X0.312500X-0.625000X0.312500X-0.625000X-0.312500X0*%
%ADD17RoundRect,0.250000X0.700000X-0.275000X0.700000X0.275000X-0.700000X0.275000X-0.700000X-0.275000X0*%
%ADD18R,0.850000X0.600000*%
%ADD19R,1.700000X1.700000*%
%ADD20O,1.700000X1.700000*%
%ADD21RoundRect,0.250000X0.312500X0.625000X-0.312500X0.625000X-0.312500X-0.625000X0.312500X-0.625000X0*%
%ADD22RoundRect,0.250000X-0.700000X0.275000X-0.700000X-0.275000X0.700000X-0.275000X0.700000X0.275000X0*%
%ADD23C,0.800000*%
%ADD24C,6.400000*%
%ADD25RoundRect,0.112500X0.587500X-0.112500X0.587500X0.112500X-0.587500X0.112500X-0.587500X-0.112500X0*%
%ADD26RoundRect,0.112500X-0.625000X0.112500X-0.625000X-0.112500X0.625000X-0.112500X0.625000X0.112500X0*%
%ADD27R,0.700000X2.350000*%
%ADD28R,1.600000X4.900000*%
%ADD29R,1.300000X0.900000*%
%ADD30FreePoly0,0.000000*%
%ADD31RoundRect,0.250000X-0.312500X-0.625000X0.312500X-0.625000X0.312500X0.625000X-0.312500X0.625000X0*%
%ADD32O,1.800000X1.800000*%
%ADD33O,1.500000X1.500000*%
%ADD34RoundRect,0.425000X1.325000X0.425000X-1.325000X0.425000X-1.325000X-0.425000X1.325000X-0.425000X0*%
%ADD35RoundRect,0.425000X-0.425000X1.325000X-0.425000X-1.325000X0.425000X-1.325000X0.425000X1.325000X0*%
G04 APERTURE END LIST*
D10*
%TO.C,C13*%
X61525000Y2500000D03*
X64475000Y2500000D03*
%TD*%
D11*
%TO.C,C9*%
X71000000Y18725000D03*
X71000000Y15775000D03*
%TD*%
D12*
%TO.C,C21*%
X78000000Y20525000D03*
X78000000Y23475000D03*
%TD*%
D13*
%TO.C,C26*%
X54112500Y40012500D03*
X51162500Y40012500D03*
%TD*%
%TO.C,C25*%
X54087500Y37662500D03*
X51137500Y37662500D03*
%TD*%
D14*
%TO.C,IC2*%
X70130000Y32965000D03*
X69490000Y32965000D03*
X68850000Y32965000D03*
X68210000Y32965000D03*
X67570000Y32965000D03*
X66930000Y32965000D03*
X66290000Y32965000D03*
X65650000Y32965000D03*
X65010000Y32965000D03*
X64370000Y32965000D03*
X64370000Y27535000D03*
X65010000Y27535000D03*
X65650000Y27535000D03*
X66290000Y27535000D03*
X66930000Y27535000D03*
X67570000Y27535000D03*
X68210000Y27535000D03*
X68850000Y27535000D03*
X69490000Y27535000D03*
X70130000Y27535000D03*
%TD*%
D12*
%TO.C,C3*%
X54500000Y20525000D03*
X54500000Y23475000D03*
%TD*%
D15*
%TO.C,R7*%
X64750000Y40462500D03*
X64750000Y37537500D03*
%TD*%
D12*
%TO.C,C7*%
X47500000Y20525000D03*
X47500000Y23475000D03*
%TD*%
D10*
%TO.C,C15*%
X61525000Y7000000D03*
X64475000Y7000000D03*
%TD*%
D15*
%TO.C,R1*%
X52250000Y23462500D03*
X52250000Y20537500D03*
%TD*%
D16*
%TO.C,R3*%
X73250000Y20537500D03*
X73250000Y23462500D03*
%TD*%
D17*
%TO.C,FB4*%
X83000000Y20425000D03*
X83000000Y23575000D03*
%TD*%
D18*
%TO.C,D1*%
X65300000Y46200000D03*
X65300000Y44300000D03*
X67700000Y45250000D03*
%TD*%
D12*
%TO.C,C20*%
X63750000Y13275000D03*
X63750000Y16225000D03*
%TD*%
D19*
%TO.C,J4*%
X46700000Y51500000D03*
D20*
X49240000Y51500000D03*
X51780000Y51500000D03*
X54320000Y51500000D03*
%TD*%
D17*
%TO.C,FB5*%
X78000000Y28700000D03*
X78000000Y31850000D03*
%TD*%
D12*
%TO.C,C8*%
X49750000Y20525000D03*
X49750000Y23475000D03*
%TD*%
D19*
%TO.C,J2*%
X10210000Y27250000D03*
D20*
X12750000Y27250000D03*
%TD*%
D21*
%TO.C,R9*%
X58712500Y25750000D03*
X55787500Y25750000D03*
%TD*%
D22*
%TO.C,FB3*%
X68500000Y23575000D03*
X68500000Y20425000D03*
%TD*%
D12*
%TO.C,C4*%
X56750000Y20525000D03*
X56750000Y23475000D03*
%TD*%
D22*
%TO.C,FB1*%
X66000000Y23575000D03*
X66000000Y20425000D03*
%TD*%
D11*
%TO.C,C23*%
X75750000Y31725000D03*
X75750000Y28775000D03*
%TD*%
D23*
%TO.C,REF\u002A\u002A*%
X79100000Y3500000D03*
X79802944Y5197056D03*
X79802944Y1802944D03*
X81500000Y5900000D03*
D24*
X81500000Y3500000D03*
D23*
X81500000Y1100000D03*
X83197056Y5197056D03*
X83197056Y1802944D03*
X83900000Y3500000D03*
%TD*%
D19*
%TO.C,J3*%
X10210000Y45030000D03*
D20*
X10210000Y42490000D03*
X10210000Y39950000D03*
X10210000Y37410000D03*
X10210000Y34870000D03*
X10210000Y32330000D03*
%TD*%
D13*
%TO.C,C17*%
X58725000Y28000000D03*
X55775000Y28000000D03*
%TD*%
D25*
%TO.C,IC3*%
X54250000Y35350000D03*
X54250000Y34700000D03*
X54250000Y34050000D03*
X54250000Y33400000D03*
X58650000Y33400000D03*
X58650000Y34050000D03*
X58650000Y34700000D03*
X58650000Y35350000D03*
%TD*%
D11*
%TO.C,C10*%
X58800000Y40450000D03*
X58800000Y37500000D03*
%TD*%
D23*
%TO.C,REF\u002A\u002A*%
X1100000Y3500000D03*
X1802944Y5197056D03*
X1802944Y1802944D03*
X3500000Y5900000D03*
D24*
X3500000Y3500000D03*
D23*
X3500000Y1100000D03*
X5197056Y5197056D03*
X5197056Y1802944D03*
X5900000Y3500000D03*
%TD*%
D11*
%TO.C,C5*%
X69500000Y40475000D03*
X69500000Y37525000D03*
%TD*%
D26*
%TO.C,IC1*%
X55438000Y7062500D03*
X55438000Y7712500D03*
X55438000Y8362500D03*
X55438000Y9012500D03*
X55438000Y9662500D03*
X55438000Y10312500D03*
X55438000Y10962500D03*
X55438000Y11612500D03*
X55438000Y12262500D03*
X55438000Y12912500D03*
X55438000Y13562500D03*
X55438000Y14212500D03*
X55438000Y14862500D03*
X55438000Y15512500D03*
X49562000Y15512500D03*
X49562000Y14862500D03*
X49562000Y14212500D03*
X49562000Y13562500D03*
X49562000Y12912500D03*
X49562000Y12262500D03*
X49562000Y11612500D03*
X49562000Y10962500D03*
X49562000Y10312500D03*
X49562000Y9662500D03*
X49562000Y9012500D03*
X49562000Y8362500D03*
X49562000Y7712500D03*
X49562000Y7062500D03*
%TD*%
D11*
%TO.C,C11*%
X61200000Y40450000D03*
X61200000Y37500000D03*
%TD*%
D27*
%TO.C,J1*%
X71000000Y52750000D03*
D28*
X75250000Y51175000D03*
X66750000Y51175000D03*
%TD*%
D12*
%TO.C,C6*%
X67000000Y37525000D03*
X67000000Y40475000D03*
%TD*%
D23*
%TO.C,REF\u002A\u002A*%
X1100000Y50500000D03*
X1802944Y52197056D03*
X1802944Y48802944D03*
X3500000Y52900000D03*
D24*
X3500000Y50500000D03*
D23*
X3500000Y48100000D03*
X5197056Y52197056D03*
X5197056Y48802944D03*
X5900000Y50500000D03*
%TD*%
D29*
%TO.C,U1*%
X69412500Y50000000D03*
D30*
X69500000Y48500000D03*
D29*
X69412500Y47000000D03*
%TD*%
D12*
%TO.C,C22*%
X80500000Y20525000D03*
X80500000Y23475000D03*
%TD*%
D11*
%TO.C,C24*%
X73500000Y31725000D03*
X73500000Y28775000D03*
%TD*%
D22*
%TO.C,FB2*%
X69500000Y45325000D03*
X69500000Y42175000D03*
%TD*%
D12*
%TO.C,C12*%
X72000000Y37525000D03*
X72000000Y40475000D03*
%TD*%
D19*
%TO.C,J5*%
X10210000Y50120000D03*
D20*
X12750000Y50120000D03*
%TD*%
D16*
%TO.C,R5*%
X61250000Y20537500D03*
X61250000Y23462500D03*
%TD*%
D31*
%TO.C,R10*%
X65787500Y13750000D03*
X68712500Y13750000D03*
%TD*%
D11*
%TO.C,C18*%
X61500000Y33225000D03*
X61500000Y30275000D03*
%TD*%
D10*
%TO.C,C16*%
X61525000Y9250000D03*
X64475000Y9250000D03*
%TD*%
D19*
%TO.C,J7*%
X10210000Y4390000D03*
D20*
X12750000Y4390000D03*
%TD*%
D16*
%TO.C,R6*%
X59000000Y20537500D03*
X59000000Y23462500D03*
%TD*%
D15*
%TO.C,R4*%
X63750000Y23462500D03*
X63750000Y20537500D03*
%TD*%
%TO.C,R8*%
X71000000Y23462500D03*
X71000000Y20537500D03*
%TD*%
D32*
%TO.C,U2*%
X31225000Y2500000D03*
D33*
X30925000Y5530000D03*
X26075000Y5530000D03*
D32*
X25775000Y2500000D03*
D34*
X38290000Y2370000D03*
X38290000Y4910000D03*
X38290000Y7450000D03*
X38290000Y9990000D03*
X38290000Y12530000D03*
X38290000Y15070000D03*
X38290000Y17610000D03*
X38290000Y20150000D03*
X38290000Y22690000D03*
X38290000Y25230000D03*
X38290000Y27770000D03*
X38290000Y30310000D03*
X38290000Y32850000D03*
X38290000Y35390000D03*
X38290000Y37930000D03*
X38290000Y40470000D03*
X38290000Y43010000D03*
X38290000Y45550000D03*
X38290000Y48090000D03*
X38290000Y50630000D03*
X18710000Y50630000D03*
X18710000Y48090000D03*
X18710000Y45550000D03*
X18710000Y43010000D03*
X18710000Y40470000D03*
X18710000Y37930000D03*
X18710000Y35390000D03*
X18710000Y32850000D03*
X18710000Y30310000D03*
X18710000Y27770000D03*
X18710000Y25230000D03*
X18710000Y22690000D03*
X18710000Y20150000D03*
X18710000Y17610000D03*
X18710000Y15070000D03*
X18710000Y12530000D03*
X18710000Y9990000D03*
X18710000Y7450000D03*
X18710000Y4910000D03*
X18710000Y2370000D03*
D35*
X31040000Y51300000D03*
X28500000Y51300000D03*
X25960000Y51300000D03*
%TD*%
D23*
%TO.C,REF\u002A\u002A*%
X79100000Y50500000D03*
X79802944Y52197056D03*
X79802944Y48802944D03*
X81500000Y52900000D03*
D24*
X81500000Y50500000D03*
D23*
X81500000Y48100000D03*
X83197056Y52197056D03*
X83197056Y48802944D03*
X83900000Y50500000D03*
%TD*%
D13*
%TO.C,C19*%
X58725000Y30500000D03*
X55775000Y30500000D03*
%TD*%
D10*
%TO.C,C14*%
X61525000Y4750000D03*
X64475000Y4750000D03*
%TD*%
D31*
%TO.C,R11*%
X65787500Y16000000D03*
X68712500Y16000000D03*
%TD*%
D10*
%TO.C,C2*%
X65775000Y18250000D03*
X68725000Y18250000D03*
%TD*%
D16*
%TO.C,R2*%
X75500000Y20537500D03*
X75500000Y23462500D03*
%TD*%
D19*
%TO.C,J6*%
X12750000Y22170000D03*
D20*
X10210000Y22170000D03*
X12750000Y19630000D03*
X10210000Y19630000D03*
X12750000Y17090000D03*
X10210000Y17090000D03*
X12750000Y14550000D03*
X10210000Y14550000D03*
X12750000Y12010000D03*
X10210000Y12010000D03*
X12750000Y9470000D03*
X10210000Y9470000D03*
%TD*%
D13*
%TO.C,C1*%
X74975000Y35500000D03*
X72025000Y35500000D03*
%TD*%
M02*
