%TF.GenerationSoftware,KiCad,Pcbnew,7.0.10*%
%TF.CreationDate,2024-02-02T00:24:17+07:00*%
%TF.ProjectId,PICO_ADC_Test,5049434f-5f41-4444-935f-546573742e6b,R0.1*%
%TF.SameCoordinates,PX72ade90PY75c75e0*%
%TF.FileFunction,Copper,L2,Inr*%
%TF.FilePolarity,Positive*%
%FSLAX46Y46*%
G04 Gerber Fmt 4.6, Leading zero omitted, Abs format (unit mm)*
G04 Created by KiCad (PCBNEW 7.0.10) date 2024-02-02 00:24:17*
%MOMM*%
%LPD*%
G01*
G04 APERTURE LIST*
%TA.AperFunction,ComponentPad*%
%ADD10R,1.700000X1.700000*%
%TD*%
%TA.AperFunction,ComponentPad*%
%ADD11O,1.700000X1.700000*%
%TD*%
%TA.AperFunction,ComponentPad*%
%ADD12C,0.800000*%
%TD*%
%TA.AperFunction,ComponentPad*%
%ADD13C,6.400000*%
%TD*%
%TA.AperFunction,ViaPad*%
%ADD14C,0.800000*%
%TD*%
G04 APERTURE END LIST*
D10*
%TO.N,+5V*%
%TO.C,J4*%
X46700000Y51500000D03*
D11*
%TO.N,SWCLK*%
X49240000Y51500000D03*
%TO.N,SWDIO*%
X51780000Y51500000D03*
%TO.N,GND*%
X54320000Y51500000D03*
%TD*%
D10*
%TO.N,GND*%
%TO.C,J2*%
X10210000Y27250000D03*
D11*
%TO.N,+5V*%
X12750000Y27250000D03*
%TD*%
D12*
%TO.N,N/C*%
%TO.C,REF\u002A\u002A*%
X79100000Y3500000D03*
X79802944Y5197056D03*
X79802944Y1802944D03*
X81500000Y5900000D03*
D13*
X81500000Y3500000D03*
D12*
X81500000Y1100000D03*
X83197056Y5197056D03*
X83197056Y1802944D03*
X83900000Y3500000D03*
%TD*%
D10*
%TO.N,+3.3V*%
%TO.C,J3*%
X10210000Y45030000D03*
D11*
%TO.N,GND*%
X10210000Y42490000D03*
%TO.N,GPIO17*%
X10210000Y39950000D03*
%TO.N,GPIO16*%
X10210000Y37410000D03*
%TO.N,GPIO12*%
X10210000Y34870000D03*
%TO.N,GPIO11*%
X10210000Y32330000D03*
%TD*%
D12*
%TO.N,N/C*%
%TO.C,REF\u002A\u002A*%
X1100000Y3500000D03*
X1802944Y5197056D03*
X1802944Y1802944D03*
X3500000Y5900000D03*
D13*
X3500000Y3500000D03*
D12*
X3500000Y1100000D03*
X5197056Y5197056D03*
X5197056Y1802944D03*
X5900000Y3500000D03*
%TD*%
%TO.N,N/C*%
%TO.C,REF\u002A\u002A*%
X1100000Y50500000D03*
X1802944Y52197056D03*
X1802944Y48802944D03*
X3500000Y52900000D03*
D13*
X3500000Y50500000D03*
D12*
X3500000Y48100000D03*
X5197056Y52197056D03*
X5197056Y48802944D03*
X5900000Y50500000D03*
%TD*%
D10*
%TO.N,GND*%
%TO.C,J5*%
X10210000Y50120000D03*
D11*
%TO.N,+5V*%
X12750000Y50120000D03*
%TD*%
D10*
%TO.N,GND*%
%TO.C,J7*%
X10210000Y4390000D03*
D11*
%TO.N,+5V*%
X12750000Y4390000D03*
%TD*%
D12*
%TO.N,N/C*%
%TO.C,REF\u002A\u002A*%
X79100000Y50500000D03*
X79802944Y52197056D03*
X79802944Y48802944D03*
X81500000Y52900000D03*
D13*
X81500000Y50500000D03*
D12*
X81500000Y48100000D03*
X83197056Y52197056D03*
X83197056Y48802944D03*
X83900000Y50500000D03*
%TD*%
D10*
%TO.N,+3.3V*%
%TO.C,J6*%
X12750000Y22170000D03*
D11*
X10210000Y22170000D03*
%TO.N,GND*%
X12750000Y19630000D03*
X10210000Y19630000D03*
%TO.N,GPIO21*%
X12750000Y17090000D03*
%TO.N,GPIO28*%
X10210000Y17090000D03*
%TO.N,GPIO20*%
X12750000Y14550000D03*
%TO.N,GPIO27*%
X10210000Y14550000D03*
%TO.N,GPIO19*%
X12750000Y12010000D03*
%TO.N,GPIO26*%
X10210000Y12010000D03*
%TO.N,GPIO18*%
X12750000Y9470000D03*
%TO.N,GPIO22*%
X10210000Y9470000D03*
%TD*%
D14*
%TO.N,GND*%
X59500000Y13000000D03*
X1500000Y10690000D03*
X83500000Y38630000D03*
X63500000Y42250000D03*
X56500000Y32500000D03*
X57250000Y16000000D03*
X83500000Y28470000D03*
X83500000Y41170000D03*
X21750000Y50000000D03*
X74500000Y26750000D03*
X52750000Y27500000D03*
X70040000Y1500000D03*
X59250000Y16000000D03*
X26000000Y28500000D03*
X1500000Y38630000D03*
X66000000Y7000000D03*
X30750000Y10500000D03*
X60250000Y52500000D03*
X63750000Y44250000D03*
X77750000Y48250000D03*
X49500000Y17250000D03*
X72580000Y1500000D03*
X30750000Y33500000D03*
X61250000Y17750000D03*
X45250000Y32250000D03*
X42750000Y34750000D03*
X74250000Y37500000D03*
X64000000Y52500000D03*
X55750000Y3000000D03*
X66750000Y29750000D03*
X83500000Y31010000D03*
X1500000Y33550000D03*
X1500000Y23390000D03*
X64000000Y50750000D03*
X83500000Y43710000D03*
X21750000Y1500000D03*
X74250000Y40500000D03*
X51250000Y9500000D03*
X71500000Y45750000D03*
X35250000Y46250000D03*
X83500000Y17500000D03*
X49500000Y1500000D03*
X73000000Y16750000D03*
X26250000Y20750000D03*
X52750000Y5750000D03*
X58150000Y6000000D03*
X69500000Y11750000D03*
X21750000Y20750000D03*
X35000000Y1500000D03*
X43000000Y37250000D03*
X66000000Y9250000D03*
X1500000Y46250000D03*
X83500000Y33550000D03*
X30750000Y46250000D03*
X51250000Y15512500D03*
X78250000Y18750000D03*
X77250000Y1500000D03*
X78000000Y7750000D03*
X76750000Y46500000D03*
X56750000Y52500000D03*
X30750000Y37500000D03*
X1500000Y31010000D03*
X63750000Y29750000D03*
X57250000Y7912500D03*
X54500000Y48500000D03*
X1500000Y13230000D03*
X58150000Y3750000D03*
X61500000Y11250000D03*
X81000000Y25250000D03*
X51000000Y3000000D03*
X1500000Y25930000D03*
X26000000Y23750000D03*
X50500000Y45250000D03*
X21750000Y38670000D03*
X1500000Y8150000D03*
X50250000Y5750000D03*
X71250000Y29750000D03*
X1500000Y20850000D03*
X75750000Y18750000D03*
X21750000Y47000000D03*
X68250000Y29750000D03*
X75120000Y1500000D03*
X56500000Y34000000D03*
X21750000Y33590000D03*
X66000000Y2500000D03*
X55300000Y17700000D03*
X21750000Y23750000D03*
X83500000Y36090000D03*
X61500000Y13000000D03*
X63750000Y46250000D03*
X57250000Y13000000D03*
X66250000Y42250000D03*
X77000000Y33500000D03*
X26250000Y10500000D03*
X48750000Y25250000D03*
X52750000Y30000000D03*
X30750000Y40750000D03*
X55500000Y5750000D03*
X83500000Y46250000D03*
X30750000Y28500000D03*
X35000000Y5510000D03*
X26000000Y40500000D03*
X76500000Y25000000D03*
X44950000Y37250000D03*
X51250000Y12512500D03*
X83500000Y14960000D03*
X1500000Y15770000D03*
X52750000Y1500000D03*
X64000000Y48750000D03*
X1500000Y36090000D03*
X50500000Y25250000D03*
X79500000Y27250000D03*
X65500000Y11750000D03*
X35000000Y15670000D03*
X73000000Y18750000D03*
X21750000Y5510000D03*
X69750000Y29750000D03*
X71500000Y42000000D03*
X60250000Y43250000D03*
X47000000Y29850000D03*
X47000000Y18250000D03*
X35000000Y10590000D03*
X21750000Y10590000D03*
X54750000Y45250000D03*
X83500000Y7750000D03*
X83500000Y12420000D03*
X52750000Y8250000D03*
X80250000Y46500000D03*
X56500000Y42500000D03*
X30750000Y15750000D03*
X21750000Y43750000D03*
X83500000Y9880000D03*
X21750000Y15670000D03*
X59750000Y1500000D03*
X55750000Y1500000D03*
X80750000Y7750000D03*
X77250000Y52500000D03*
X35000000Y20750000D03*
X30750000Y20750000D03*
X71750000Y26750000D03*
X47000000Y25250000D03*
X56500000Y38500000D03*
X1500000Y28470000D03*
X72000000Y13750000D03*
X66000000Y4750000D03*
X63000000Y17750000D03*
X1500000Y18310000D03*
X52750000Y9500000D03*
X57250000Y17750000D03*
X77000000Y35500000D03*
X73250000Y46500000D03*
X21750000Y28510000D03*
X1500000Y41170000D03*
X61250000Y16000000D03*
X67500000Y1500000D03*
X59250000Y17750000D03*
X1500000Y43710000D03*
X26250000Y15750000D03*
X51250000Y8250000D03*
X65250000Y29750000D03*
X61500000Y28500000D03*
X28500000Y48550000D03*
X56500000Y35500000D03*
X35000000Y23750000D03*
X26000000Y33500000D03*
X43750000Y39400000D03*
%TO.N,+3.3V*%
X54112500Y41937500D03*
X52250000Y25500000D03*
%TO.N,5VVGA*%
X59000000Y19250000D03*
X61250000Y19250000D03*
X80500000Y19050000D03*
%TO.N,+5V*%
X83000000Y25250000D03*
X80500000Y29500000D03*
%TO.N,GPIO21*%
X16250000Y34500000D03*
%TO.N,GPIO18*%
X16250000Y42250000D03*
%TO.N,GPIO19*%
X16250000Y39750000D03*
%TO.N,GPIO11*%
X41000000Y38750000D03*
%TO.N,GPIO12*%
X41000000Y41000000D03*
%TO.N,GPIO20*%
X16250000Y37250000D03*
%TO.N,CS*%
X41050000Y43800000D03*
X51750000Y34700000D03*
%TO.N,SCLK*%
X52550000Y33800000D03*
X41000000Y46500000D03*
%TO.N,MOSI*%
X51750000Y32900000D03*
X40995000Y49000000D03*
%TD*%
%TA.AperFunction,Conductor*%
%TO.N,GND*%
G36*
X12290507Y19839844D02*
G01*
X12250000Y19701889D01*
X12250000Y19558111D01*
X12290507Y19420156D01*
X12316314Y19380000D01*
X10643686Y19380000D01*
X10669493Y19420156D01*
X10710000Y19558111D01*
X10710000Y19701889D01*
X10669493Y19839844D01*
X10643686Y19880000D01*
X12316314Y19880000D01*
X12290507Y19839844D01*
G37*
%TD.AperFunction*%
%TA.AperFunction,Conductor*%
G36*
X45196288Y52981046D02*
G01*
X45277070Y52927070D01*
X45331046Y52846288D01*
X45350000Y52751000D01*
X45350000Y52413867D01*
X45349643Y52400536D01*
X45349500Y52397869D01*
X45349500Y50602135D01*
X45349500Y50602132D01*
X45349501Y50602128D01*
X45351486Y50583667D01*
X45355908Y50542520D01*
X45355909Y50542516D01*
X45385981Y50461890D01*
X45406204Y50407669D01*
X45492454Y50292454D01*
X45607669Y50206204D01*
X45742517Y50155909D01*
X45802127Y50149500D01*
X47597872Y50149501D01*
X47597879Y50149502D01*
X47600513Y50149643D01*
X47613846Y50150000D01*
X49101098Y50150000D01*
X49163279Y50137632D01*
X49229151Y50143394D01*
X49229207Y50143397D01*
X49239998Y50144342D01*
X49240000Y50144341D01*
X49293847Y50149053D01*
X49315548Y50150000D01*
X51704452Y50150000D01*
X51726152Y50149053D01*
X51745999Y50147316D01*
X51779997Y50144341D01*
X51780000Y50144341D01*
X51780003Y50144341D01*
X51814000Y50147316D01*
X51833847Y50149053D01*
X51855548Y50150000D01*
X54055165Y50150000D01*
X54070000Y50165287D01*
X54070000Y51064499D01*
X54177685Y51015320D01*
X54284237Y51000000D01*
X54355763Y51000000D01*
X54462315Y51015320D01*
X54570000Y51064499D01*
X54570000Y50169365D01*
X54783488Y50226569D01*
X54997576Y50326400D01*
X55191076Y50461890D01*
X55358110Y50628924D01*
X55493600Y50822424D01*
X55593433Y51036515D01*
X55593433Y51036517D01*
X55650636Y51249999D01*
X55650636Y51250000D01*
X54753686Y51250000D01*
X54779493Y51290156D01*
X54820000Y51428111D01*
X54820000Y51571889D01*
X54779493Y51709844D01*
X54753686Y51750000D01*
X55650636Y51750000D01*
X55654045Y51754444D01*
X55650000Y51785164D01*
X55650000Y52751000D01*
X55668954Y52846288D01*
X55722930Y52927070D01*
X55803712Y52981046D01*
X55899000Y53000000D01*
X77551000Y53000000D01*
X77646288Y52981046D01*
X77727070Y52927070D01*
X77781046Y52846288D01*
X77800000Y52751000D01*
X77800000Y50612959D01*
X77799659Y50599928D01*
X77794422Y50500000D01*
X77814722Y50112662D01*
X77814722Y50112657D01*
X77814723Y50112655D01*
X77854558Y49861142D01*
X77875398Y49729567D01*
X77975786Y49354914D01*
X78114786Y48992805D01*
X78290872Y48647216D01*
X78290875Y48647211D01*
X78502124Y48321915D01*
X78682233Y48099500D01*
X78746219Y48020484D01*
X79020484Y47746219D01*
X79020489Y47746215D01*
X79020490Y47746214D01*
X79321914Y47502125D01*
X79321916Y47502124D01*
X79647211Y47290875D01*
X79992806Y47114786D01*
X80354913Y46975786D01*
X80729567Y46875398D01*
X81112662Y46814722D01*
X81500000Y46794422D01*
X81599926Y46799659D01*
X81612957Y46800000D01*
X83751000Y46800000D01*
X83846288Y46781046D01*
X83927070Y46727070D01*
X83981046Y46646288D01*
X84000000Y46551000D01*
X84000000Y26399000D01*
X83981046Y26303712D01*
X83927070Y26222930D01*
X83846288Y26168954D01*
X83751000Y26150000D01*
X83112453Y26150000D01*
X83102917Y26150500D01*
X83094646Y26150500D01*
X82905354Y26150500D01*
X82720203Y26111146D01*
X82720189Y26111142D01*
X82547271Y26034153D01*
X82394126Y25922886D01*
X82267469Y25782220D01*
X82172822Y25618286D01*
X82114325Y25438256D01*
X82094540Y25250000D01*
X82114325Y25061745D01*
X82143573Y24971730D01*
X82172821Y24881716D01*
X82172822Y24881715D01*
X82267469Y24717781D01*
X82394126Y24577115D01*
X82394129Y24577112D01*
X82508984Y24493665D01*
X82547271Y24465848D01*
X82720189Y24388859D01*
X82720192Y24388858D01*
X82720197Y24388856D01*
X82905354Y24349500D01*
X83102917Y24349500D01*
X83112453Y24350000D01*
X83751000Y24350000D01*
X83846288Y24331046D01*
X83927070Y24277070D01*
X83981046Y24196288D01*
X84000000Y24101000D01*
X84000000Y7449000D01*
X83981046Y7353712D01*
X83927070Y7272930D01*
X83846288Y7218954D01*
X83751000Y7200000D01*
X81612957Y7200000D01*
X81599926Y7200341D01*
X81500000Y7205578D01*
X81112662Y7185278D01*
X81112656Y7185278D01*
X81112654Y7185277D01*
X80729571Y7124603D01*
X80354913Y7024214D01*
X79992804Y6885214D01*
X79647215Y6709128D01*
X79647210Y6709125D01*
X79321914Y6497876D01*
X79020490Y6253787D01*
X78746213Y5979510D01*
X78502124Y5678086D01*
X78290875Y5352790D01*
X78290872Y5352785D01*
X78114786Y5007196D01*
X77980601Y4657630D01*
X77975786Y4645087D01*
X77876548Y4274723D01*
X77875397Y4270429D01*
X77814723Y3887346D01*
X77814722Y3887338D01*
X77798736Y3582313D01*
X77794422Y3500000D01*
X77799659Y3400074D01*
X77800000Y3387043D01*
X77800000Y1249000D01*
X77781046Y1153712D01*
X77727070Y1072930D01*
X77646288Y1018954D01*
X77551000Y1000000D01*
X32849000Y1000000D01*
X32753712Y1018954D01*
X32672930Y1072930D01*
X32618954Y1153712D01*
X32600000Y1249000D01*
X32600000Y2193690D01*
X32607621Y2254821D01*
X32611132Y2268688D01*
X32611134Y2268695D01*
X32617675Y2347645D01*
X32618834Y2358638D01*
X32629298Y2440346D01*
X32628624Y2456209D01*
X32629251Y2487346D01*
X32630300Y2500000D01*
X32623455Y2582599D01*
X32622831Y2592574D01*
X32620760Y2641328D01*
X32619180Y2678532D01*
X32616616Y2690429D01*
X32611878Y2722320D01*
X32611134Y2731305D01*
X32589868Y2815277D01*
X32587862Y2823842D01*
X32568954Y2911581D01*
X32565799Y2919433D01*
X32555459Y2951159D01*
X32554158Y2956295D01*
X32554157Y2956300D01*
X32524427Y3024078D01*
X32517903Y3038952D01*
X32514887Y3046131D01*
X32480065Y3132787D01*
X32480064Y3132790D01*
X32477565Y3136848D01*
X32461570Y3167376D01*
X32460924Y3168849D01*
X32409550Y3247484D01*
X32405976Y3253119D01*
X32355073Y3335790D01*
X32355072Y3335792D01*
X32354369Y3336590D01*
X32340331Y3355049D01*
X32340304Y3355027D01*
X32333982Y3363150D01*
X32311987Y3387043D01*
X32267830Y3435010D01*
X32264149Y3439101D01*
X32212082Y3498261D01*
X32163356Y3582313D01*
X32150000Y3662768D01*
X32150000Y5237418D01*
X32158485Y5301866D01*
X32161207Y5312023D01*
X32161768Y5318437D01*
X32167064Y5352143D01*
X32167748Y5355144D01*
X32169191Y5361463D01*
X32172813Y5442132D01*
X32173510Y5452660D01*
X32180277Y5530000D01*
X32179388Y5540153D01*
X32178692Y5573020D01*
X32179290Y5586330D01*
X32168950Y5662654D01*
X32167647Y5674354D01*
X32166860Y5683354D01*
X32161207Y5747977D01*
X32157599Y5761439D01*
X32151366Y5792470D01*
X32149075Y5809387D01*
X32126429Y5879080D01*
X32122733Y5891560D01*
X32104576Y5959326D01*
X32104575Y5959330D01*
X32097090Y5975381D01*
X32085953Y6003654D01*
X32079517Y6023464D01*
X32046566Y6084697D01*
X32040170Y6097447D01*
X32012103Y6157636D01*
X32012099Y6157642D01*
X31999802Y6175204D01*
X31984498Y6200038D01*
X31972855Y6221675D01*
X31972852Y6221681D01*
X31931837Y6273112D01*
X31922544Y6285540D01*
X31886597Y6336879D01*
X31868768Y6354708D01*
X31850164Y6375526D01*
X31832508Y6397666D01*
X31822572Y6406347D01*
X31785786Y6438486D01*
X31773558Y6449918D01*
X31731876Y6491599D01*
X31731877Y6491599D01*
X31708162Y6508203D01*
X31687154Y6524658D01*
X31662996Y6545765D01*
X31662994Y6545767D01*
X31612952Y6575665D01*
X31597850Y6585445D01*
X31552639Y6617102D01*
X31552637Y6617103D01*
X31552635Y6617105D01*
X31522997Y6630925D01*
X31500523Y6642838D01*
X31469763Y6661216D01*
X31418690Y6680384D01*
X31400953Y6687835D01*
X31354332Y6709575D01*
X31319110Y6719013D01*
X31296073Y6726403D01*
X31259028Y6740306D01*
X31259019Y6740308D01*
X31209020Y6749383D01*
X31189054Y6753862D01*
X31142977Y6766207D01*
X31142976Y6766208D01*
X31142969Y6766209D01*
X31102928Y6769712D01*
X31080179Y6772764D01*
X31072984Y6774070D01*
X31037547Y6780500D01*
X31037544Y6780500D01*
X30990479Y6780500D01*
X30968780Y6781447D01*
X30941937Y6783796D01*
X30925000Y6785277D01*
X30924999Y6785277D01*
X30877284Y6781103D01*
X30870692Y6780667D01*
X30814936Y6775650D01*
X30814326Y6775596D01*
X30703864Y6765931D01*
X30700815Y6765378D01*
X30690544Y6762544D01*
X30677603Y6758972D01*
X30611365Y6750000D01*
X26386244Y6750000D01*
X26321801Y6758484D01*
X26296071Y6765378D01*
X26292977Y6766207D01*
X26292976Y6766208D01*
X26292973Y6766208D01*
X26252928Y6769712D01*
X26230179Y6772764D01*
X26222984Y6774070D01*
X26187547Y6780500D01*
X26187544Y6780500D01*
X26140479Y6780500D01*
X26118780Y6781447D01*
X26091937Y6783796D01*
X26075000Y6785277D01*
X26074999Y6785277D01*
X26027284Y6781103D01*
X26020692Y6780667D01*
X25964936Y6775650D01*
X25964326Y6775596D01*
X25853864Y6765931D01*
X25850815Y6765378D01*
X25747774Y6736941D01*
X25745980Y6736454D01*
X25645622Y6709564D01*
X25639250Y6707528D01*
X25633832Y6705495D01*
X25540888Y6660737D01*
X25538093Y6659413D01*
X25447355Y6617100D01*
X25440704Y6613260D01*
X25435593Y6610559D01*
X25431032Y6607833D01*
X25350606Y6549401D01*
X25347072Y6546880D01*
X25268123Y6491600D01*
X25259803Y6484617D01*
X25259432Y6485059D01*
X25257145Y6483105D01*
X25257343Y6482879D01*
X25248920Y6475520D01*
X25182782Y6406347D01*
X25178881Y6402358D01*
X25113402Y6336878D01*
X25106416Y6328552D01*
X25106229Y6328709D01*
X25099189Y6320126D01*
X25093369Y6312828D01*
X25071160Y6279182D01*
X25042707Y6236080D01*
X25038888Y6230463D01*
X24987900Y6157644D01*
X24985052Y6152710D01*
X24970504Y6126694D01*
X24969364Y6124968D01*
X24934687Y6043839D01*
X24931398Y6036477D01*
X24895423Y5959328D01*
X24895423Y5959326D01*
X24894725Y5956721D01*
X24883189Y5923354D01*
X24880897Y5917992D01*
X24862094Y5835615D01*
X24859855Y5826587D01*
X24838794Y5747981D01*
X24838791Y5747968D01*
X24838230Y5741550D01*
X24832940Y5707874D01*
X24830809Y5698536D01*
X24830807Y5698525D01*
X24827186Y5617885D01*
X24826490Y5607359D01*
X24819723Y5530000D01*
X24819723Y5529997D01*
X24820611Y5519838D01*
X24821307Y5487001D01*
X24820709Y5473681D01*
X24820710Y5473670D01*
X24831048Y5397344D01*
X24832353Y5385626D01*
X24838791Y5312030D01*
X24838793Y5312023D01*
X24841517Y5301855D01*
X24850000Y5237417D01*
X24850000Y3660169D01*
X24831046Y3564881D01*
X24784179Y3491508D01*
X24779567Y3486499D01*
X24768683Y3475395D01*
X24719883Y3428623D01*
X24701643Y3403962D01*
X24684653Y3383394D01*
X24666021Y3363154D01*
X24666017Y3363149D01*
X24628770Y3306138D01*
X24620515Y3294271D01*
X24578125Y3236954D01*
X24578115Y3236938D01*
X24565974Y3212859D01*
X24552102Y3188789D01*
X24539076Y3168850D01*
X24539075Y3168848D01*
X24510226Y3103082D01*
X24504541Y3091012D01*
X24470793Y3024078D01*
X24463976Y3001817D01*
X24453924Y2974724D01*
X24445843Y2956301D01*
X24427302Y2883091D01*
X24424010Y2871315D01*
X24400983Y2796123D01*
X24400983Y2796122D01*
X24398497Y2776710D01*
X24392898Y2747231D01*
X24388865Y2731307D01*
X24388865Y2731304D01*
X24382326Y2652391D01*
X24381160Y2641328D01*
X24370702Y2559662D01*
X24370702Y2559658D01*
X24371375Y2543781D01*
X24370750Y2512681D01*
X24369700Y2500001D01*
X24376541Y2417428D01*
X24377167Y2407440D01*
X24380819Y2321470D01*
X24383385Y2309565D01*
X24388120Y2277690D01*
X24388865Y2268695D01*
X24392380Y2254818D01*
X24400000Y2193689D01*
X24400000Y1249000D01*
X24381046Y1153712D01*
X24327070Y1072930D01*
X24246288Y1018954D01*
X24151000Y1000000D01*
X7449000Y1000000D01*
X7353712Y1018954D01*
X7272930Y1072930D01*
X7218954Y1153712D01*
X7200000Y1249000D01*
X7200000Y3387043D01*
X7200341Y3400074D01*
X7201837Y3428623D01*
X7205168Y3492168D01*
X8860000Y3492168D01*
X8866401Y3432629D01*
X8866403Y3432622D01*
X8916646Y3297913D01*
X9002810Y3182813D01*
X9002812Y3182811D01*
X9117912Y3096647D01*
X9252621Y3046404D01*
X9252628Y3046402D01*
X9312167Y3040001D01*
X9312175Y3040000D01*
X9959999Y3040000D01*
X9960000Y3040001D01*
X9960000Y3954499D01*
X10067685Y3905320D01*
X10174237Y3890000D01*
X10245763Y3890000D01*
X10352315Y3905320D01*
X10460000Y3954499D01*
X10460000Y3040001D01*
X10460001Y3040000D01*
X11107825Y3040000D01*
X11107832Y3040001D01*
X11182862Y3048067D01*
X11183012Y3046667D01*
X11211621Y3050000D01*
X12560154Y3050000D01*
X12581855Y3049053D01*
X12593115Y3048067D01*
X12749996Y3034341D01*
X12750000Y3034341D01*
X12750005Y3034341D01*
X12985401Y3054936D01*
X12985403Y3054937D01*
X12985408Y3054937D01*
X13213663Y3116097D01*
X13427830Y3215965D01*
X13621401Y3351505D01*
X13788495Y3518599D01*
X13924035Y3712170D01*
X14023903Y3926337D01*
X14085063Y4154592D01*
X14092911Y4244288D01*
X14105659Y4389995D01*
X14105659Y4390006D01*
X14085064Y4625402D01*
X14085063Y4625405D01*
X14085063Y4625408D01*
X14023903Y4853663D01*
X13973126Y4962554D01*
X13924038Y5067823D01*
X13924034Y5067831D01*
X13844839Y5180933D01*
X13788495Y5261401D01*
X13621401Y5428495D01*
X13556884Y5473670D01*
X13427830Y5564035D01*
X13213663Y5663903D01*
X13213660Y5663904D01*
X13141070Y5683354D01*
X12985408Y5725063D01*
X12985404Y5725064D01*
X12985402Y5725064D01*
X12967642Y5726618D01*
X12887426Y5750000D01*
X12750000Y5750000D01*
X11100000Y5750000D01*
X11070265Y5750000D01*
X11062952Y5746662D01*
X11005741Y5740000D01*
X10460001Y5740000D01*
X10460000Y5739999D01*
X10460000Y4825502D01*
X10352315Y4874680D01*
X10245763Y4890000D01*
X10174237Y4890000D01*
X10067685Y4874680D01*
X9960000Y4825502D01*
X9960000Y5739999D01*
X9959999Y5740000D01*
X9312167Y5740000D01*
X9252628Y5733599D01*
X9252621Y5733597D01*
X9117912Y5683354D01*
X9002812Y5597190D01*
X9002810Y5597188D01*
X8916646Y5482088D01*
X8866403Y5347379D01*
X8866401Y5347372D01*
X8860000Y5287833D01*
X8860000Y4640001D01*
X8860001Y4640000D01*
X9776314Y4640000D01*
X9750507Y4599844D01*
X9710000Y4461889D01*
X9710000Y4318111D01*
X9750507Y4180156D01*
X9776314Y4140000D01*
X8860001Y4140000D01*
X8860000Y4139999D01*
X8860000Y3492168D01*
X7205168Y3492168D01*
X7205578Y3500000D01*
X7185278Y3887338D01*
X7124602Y4270433D01*
X7024214Y4645087D01*
X6885214Y5007194D01*
X6709125Y5352789D01*
X6557458Y5586336D01*
X6497875Y5678086D01*
X6253786Y5979510D01*
X6253785Y5979511D01*
X6253781Y5979516D01*
X5979516Y6253781D01*
X5955648Y6273109D01*
X5678085Y6497876D01*
X5352789Y6709125D01*
X5352784Y6709128D01*
X5007195Y6885214D01*
X4826140Y6954714D01*
X4645087Y7024214D01*
X4270433Y7124602D01*
X4270429Y7124603D01*
X4270428Y7124603D01*
X3887344Y7185277D01*
X3887345Y7185277D01*
X3887343Y7185278D01*
X3887338Y7185278D01*
X3500000Y7205578D01*
X3499999Y7205578D01*
X3400074Y7200341D01*
X3387043Y7200000D01*
X1249000Y7200000D01*
X1153712Y7218954D01*
X1072930Y7272930D01*
X1018954Y7353712D01*
X1000000Y7449000D01*
X1000000Y12177500D01*
X8839684Y12177500D01*
X8849052Y12070439D01*
X8850000Y12048736D01*
X8850000Y11971277D01*
X8849052Y11949573D01*
X8841670Y11865214D01*
X8850000Y11816090D01*
X8850000Y9412599D01*
X8864573Y9353043D01*
X8874936Y9234599D01*
X8874937Y9234592D01*
X8936097Y9006337D01*
X9035965Y8792170D01*
X9171505Y8598599D01*
X9338599Y8431505D01*
X9532170Y8295965D01*
X9746337Y8196097D01*
X9974592Y8134937D01*
X9974595Y8134937D01*
X9974598Y8134936D01*
X10209995Y8114341D01*
X10210000Y8114341D01*
X10210005Y8114341D01*
X10445401Y8134936D01*
X10445402Y8134937D01*
X10445408Y8134937D01*
X10467449Y8140843D01*
X10469962Y8141516D01*
X10534405Y8150000D01*
X12425595Y8150000D01*
X12490038Y8141516D01*
X12493139Y8140686D01*
X12514592Y8134937D01*
X12514596Y8134937D01*
X12514598Y8134936D01*
X12749995Y8114341D01*
X12750000Y8114341D01*
X12750005Y8114341D01*
X12985401Y8134936D01*
X12985403Y8134937D01*
X12985408Y8134937D01*
X13213663Y8196097D01*
X13427830Y8295965D01*
X13621401Y8431505D01*
X13788495Y8598599D01*
X13924035Y8792170D01*
X14023903Y9006337D01*
X14085063Y9234592D01*
X14093406Y9329957D01*
X14112252Y9394613D01*
X14106606Y9459152D01*
X14106603Y9459209D01*
X14100948Y9523847D01*
X14100000Y9545550D01*
X14100000Y11934452D01*
X14100948Y11956156D01*
X14105659Y12009998D01*
X14105659Y12010004D01*
X14100948Y12063847D01*
X14100000Y12085550D01*
X14100000Y14474452D01*
X14100948Y14496156D01*
X14105659Y14549998D01*
X14105659Y14550004D01*
X14100948Y14603847D01*
X14100000Y14625550D01*
X14100000Y17014452D01*
X14100948Y17036156D01*
X14105659Y17089998D01*
X14105659Y17090004D01*
X14100948Y17143847D01*
X14100000Y17165550D01*
X14100000Y19250000D01*
X58094540Y19250000D01*
X58114325Y19061745D01*
X58143573Y18971730D01*
X58172821Y18881716D01*
X58267467Y18717784D01*
X58267469Y18717781D01*
X58394126Y18577115D01*
X58394129Y18577112D01*
X58495961Y18503127D01*
X58547271Y18465848D01*
X58720189Y18388859D01*
X58720192Y18388858D01*
X58720197Y18388856D01*
X58905354Y18349500D01*
X59094645Y18349500D01*
X59094646Y18349500D01*
X59279803Y18388856D01*
X59312793Y18403544D01*
X59452728Y18465848D01*
X59452728Y18465849D01*
X59452730Y18465849D01*
X59605871Y18577112D01*
X59732533Y18717784D01*
X59827179Y18881716D01*
X59885674Y19061744D01*
X59885674Y19061745D01*
X59888187Y19069478D01*
X59935660Y19154246D01*
X60011958Y19214393D01*
X60105465Y19240765D01*
X60201946Y19229345D01*
X60286714Y19181872D01*
X60346861Y19105574D01*
X60361813Y19069478D01*
X60422821Y18881716D01*
X60517469Y18717781D01*
X60644126Y18577115D01*
X60644129Y18577112D01*
X60745961Y18503127D01*
X60797271Y18465848D01*
X60970189Y18388859D01*
X60970192Y18388858D01*
X60970197Y18388856D01*
X61155354Y18349500D01*
X61344645Y18349500D01*
X61344646Y18349500D01*
X61529803Y18388856D01*
X61562793Y18403544D01*
X61702728Y18465848D01*
X61702728Y18465849D01*
X61702730Y18465849D01*
X61855871Y18577112D01*
X61982533Y18717784D01*
X62077179Y18881716D01*
X62131858Y19050000D01*
X79594540Y19050000D01*
X79614325Y18861745D01*
X79634779Y18798797D01*
X79672821Y18681716D01*
X79767467Y18517784D01*
X79767469Y18517781D01*
X79894126Y18377115D01*
X79894129Y18377112D01*
X79991440Y18306412D01*
X80047271Y18265848D01*
X80220189Y18188859D01*
X80220192Y18188858D01*
X80220197Y18188856D01*
X80405354Y18149500D01*
X80594645Y18149500D01*
X80594646Y18149500D01*
X80779803Y18188856D01*
X80864395Y18226519D01*
X80952728Y18265848D01*
X80952728Y18265849D01*
X80952730Y18265849D01*
X81105871Y18377112D01*
X81232533Y18517784D01*
X81327179Y18681716D01*
X81385674Y18861744D01*
X81405460Y19050000D01*
X81385674Y19238256D01*
X81327179Y19418284D01*
X81232533Y19582216D01*
X81232531Y19582219D01*
X81232530Y19582220D01*
X81105873Y19722886D01*
X81105872Y19722887D01*
X81105871Y19722888D01*
X81024207Y19782220D01*
X80952728Y19834153D01*
X80779810Y19911142D01*
X80779796Y19911146D01*
X80594646Y19950500D01*
X80405354Y19950500D01*
X80220203Y19911146D01*
X80220189Y19911142D01*
X80047271Y19834153D01*
X79894126Y19722886D01*
X79767469Y19582220D01*
X79673902Y19420156D01*
X79672821Y19418284D01*
X79660382Y19380000D01*
X79614325Y19238256D01*
X79594540Y19050000D01*
X62131858Y19050000D01*
X62135674Y19061744D01*
X62155460Y19250000D01*
X62135674Y19438256D01*
X62077179Y19618284D01*
X61982533Y19782216D01*
X61982531Y19782219D01*
X61982530Y19782220D01*
X61855873Y19922886D01*
X61855872Y19922887D01*
X61855871Y19922888D01*
X61779300Y19978520D01*
X61702728Y20034153D01*
X61529810Y20111142D01*
X61529796Y20111146D01*
X61344646Y20150500D01*
X61155354Y20150500D01*
X60970203Y20111146D01*
X60970189Y20111142D01*
X60797271Y20034153D01*
X60644126Y19922886D01*
X60517469Y19782220D01*
X60517467Y19782216D01*
X60422821Y19618284D01*
X60370190Y19456306D01*
X60361813Y19430522D01*
X60314340Y19345755D01*
X60238042Y19285608D01*
X60144535Y19259236D01*
X60048053Y19270656D01*
X59963286Y19318129D01*
X59903139Y19394427D01*
X59888187Y19430522D01*
X59885674Y19438256D01*
X59827179Y19618284D01*
X59732533Y19782216D01*
X59732531Y19782219D01*
X59732530Y19782220D01*
X59605873Y19922886D01*
X59605872Y19922887D01*
X59605871Y19922888D01*
X59529300Y19978520D01*
X59452728Y20034153D01*
X59279810Y20111142D01*
X59279796Y20111146D01*
X59094646Y20150500D01*
X58905354Y20150500D01*
X58720203Y20111146D01*
X58720189Y20111142D01*
X58547271Y20034153D01*
X58394126Y19922886D01*
X58267469Y19782220D01*
X58172822Y19618286D01*
X58114325Y19438256D01*
X58094540Y19250000D01*
X14100000Y19250000D01*
X14100000Y19354764D01*
X14080636Y19380000D01*
X13183686Y19380000D01*
X13209493Y19420156D01*
X13250000Y19558111D01*
X13250000Y19701889D01*
X13209493Y19839844D01*
X13183686Y19880000D01*
X14084714Y19880000D01*
X14100000Y19894834D01*
X14100000Y21256131D01*
X14100357Y21269460D01*
X14100497Y21272108D01*
X14100500Y21272127D01*
X14100499Y23067872D01*
X14094091Y23127483D01*
X14043796Y23262331D01*
X13957546Y23377546D01*
X13842331Y23463796D01*
X13735123Y23503782D01*
X13707481Y23514092D01*
X13647873Y23520500D01*
X11852134Y23520500D01*
X11852130Y23520500D01*
X11852128Y23520499D01*
X11828283Y23517936D01*
X11792514Y23514091D01*
X11777363Y23510510D01*
X11776982Y23512119D01*
X11709815Y23500000D01*
X10495908Y23500000D01*
X10452673Y23503782D01*
X10445401Y23505065D01*
X10210005Y23525659D01*
X10209995Y23525659D01*
X9974598Y23505065D01*
X9746335Y23443903D01*
X9746333Y23443902D01*
X9532177Y23344039D01*
X9532169Y23344035D01*
X9338600Y23208496D01*
X9171504Y23041400D01*
X9035965Y22847831D01*
X9035961Y22847823D01*
X8936098Y22633667D01*
X8936097Y22633665D01*
X8874935Y22405399D01*
X8874159Y22400999D01*
X8872864Y22397672D01*
X8872124Y22394907D01*
X8871820Y22394989D01*
X8850000Y22338890D01*
X8850000Y22200000D01*
X8850000Y19900000D01*
X8850001Y19900000D01*
X8870001Y19880000D01*
X9776314Y19880000D01*
X9750507Y19839844D01*
X9710000Y19701889D01*
X9710000Y19558111D01*
X9750507Y19420156D01*
X9776314Y19380000D01*
X8878244Y19380000D01*
X8865727Y19365727D01*
X8850000Y19350000D01*
X8850000Y12229357D01*
X8839684Y12177500D01*
X1000000Y12177500D01*
X1000000Y25500000D01*
X51344540Y25500000D01*
X51364325Y25311745D01*
X51384388Y25250000D01*
X51422821Y25131716D01*
X51517467Y24967784D01*
X51517469Y24967781D01*
X51594963Y24881716D01*
X51644129Y24827112D01*
X51758984Y24743665D01*
X51797271Y24715848D01*
X51970189Y24638859D01*
X51970192Y24638858D01*
X51970197Y24638856D01*
X52155354Y24599500D01*
X52344645Y24599500D01*
X52344646Y24599500D01*
X52529803Y24638856D01*
X52702730Y24715849D01*
X52855871Y24827112D01*
X52982533Y24967784D01*
X53077179Y25131716D01*
X53135674Y25311744D01*
X53155460Y25500000D01*
X53135674Y25688256D01*
X53077179Y25868284D01*
X52982533Y26032216D01*
X52982531Y26032219D01*
X52982530Y26032220D01*
X52855873Y26172886D01*
X52855872Y26172887D01*
X52855871Y26172888D01*
X52779300Y26228520D01*
X52702728Y26284153D01*
X52529810Y26361142D01*
X52529796Y26361146D01*
X52344646Y26400500D01*
X52155354Y26400500D01*
X51970203Y26361146D01*
X51970189Y26361142D01*
X51797271Y26284153D01*
X51644126Y26172886D01*
X51517469Y26032220D01*
X51422822Y25868286D01*
X51364325Y25688256D01*
X51344540Y25500000D01*
X1000000Y25500000D01*
X1000000Y26352168D01*
X8860000Y26352168D01*
X8866401Y26292629D01*
X8866403Y26292622D01*
X8916646Y26157913D01*
X9002810Y26042813D01*
X9002812Y26042811D01*
X9117912Y25956647D01*
X9252621Y25906404D01*
X9252628Y25906402D01*
X9312167Y25900001D01*
X9312175Y25900000D01*
X9959999Y25900000D01*
X9960000Y25900001D01*
X9960000Y26814499D01*
X10067685Y26765320D01*
X10174237Y26750000D01*
X10245763Y26750000D01*
X10352315Y26765320D01*
X10460000Y26814499D01*
X10460000Y25900001D01*
X10460001Y25900000D01*
X12674452Y25900000D01*
X12696152Y25899053D01*
X12715999Y25897316D01*
X12749997Y25894341D01*
X12750000Y25894341D01*
X12750005Y25894341D01*
X12985401Y25914936D01*
X12985403Y25914937D01*
X12985408Y25914937D01*
X13213663Y25976097D01*
X13427830Y26075965D01*
X13621401Y26211505D01*
X13788495Y26378599D01*
X13924035Y26572170D01*
X14023903Y26786337D01*
X14085063Y27014592D01*
X14087300Y27040156D01*
X14105659Y27249995D01*
X14105659Y27250006D01*
X14085064Y27485402D01*
X14085063Y27485405D01*
X14085063Y27485408D01*
X14023903Y27713663D01*
X13924035Y27927829D01*
X13788495Y28121401D01*
X13621401Y28288495D01*
X13544862Y28342088D01*
X13427830Y28424035D01*
X13356729Y28457190D01*
X13213663Y28523903D01*
X13213660Y28523904D01*
X12985401Y28585065D01*
X12750005Y28605659D01*
X12750004Y28605659D01*
X12750001Y28605659D01*
X12750000Y28605659D01*
X12718408Y28602896D01*
X12696140Y28600947D01*
X12674440Y28600000D01*
X10460001Y28600000D01*
X10460000Y28599999D01*
X10460000Y27685502D01*
X10352315Y27734680D01*
X10245763Y27750000D01*
X10174237Y27750000D01*
X10067685Y27734680D01*
X9960000Y27685502D01*
X9960000Y28599999D01*
X9959999Y28600000D01*
X9312167Y28600000D01*
X9252628Y28593599D01*
X9252621Y28593597D01*
X9117912Y28543354D01*
X9002812Y28457190D01*
X9002810Y28457188D01*
X8916646Y28342088D01*
X8866403Y28207379D01*
X8866401Y28207372D01*
X8860000Y28147833D01*
X8860000Y27500001D01*
X8860001Y27500000D01*
X9776314Y27500000D01*
X9750507Y27459844D01*
X9710000Y27321889D01*
X9710000Y27178111D01*
X9750507Y27040156D01*
X9776314Y27000000D01*
X8860001Y27000000D01*
X8860000Y26999999D01*
X8860000Y26352168D01*
X1000000Y26352168D01*
X1000000Y29500000D01*
X79594540Y29500000D01*
X79614325Y29311745D01*
X79643573Y29221730D01*
X79672821Y29131716D01*
X79672822Y29131715D01*
X79767469Y28967781D01*
X79894126Y28827115D01*
X79894129Y28827112D01*
X80008984Y28743665D01*
X80047271Y28715848D01*
X80220189Y28638859D01*
X80220192Y28638858D01*
X80220197Y28638856D01*
X80405354Y28599500D01*
X80594645Y28599500D01*
X80594646Y28599500D01*
X80779803Y28638856D01*
X80952730Y28715849D01*
X81105871Y28827112D01*
X81232533Y28967784D01*
X81327179Y29131716D01*
X81385674Y29311744D01*
X81405460Y29500000D01*
X81385674Y29688256D01*
X81327179Y29868284D01*
X81232533Y30032216D01*
X81232531Y30032219D01*
X81232530Y30032220D01*
X81105873Y30172886D01*
X81105872Y30172887D01*
X81105871Y30172888D01*
X81029300Y30228520D01*
X80952728Y30284153D01*
X80779810Y30361142D01*
X80779796Y30361146D01*
X80594646Y30400500D01*
X80405354Y30400500D01*
X80220203Y30361146D01*
X80220189Y30361142D01*
X80047271Y30284153D01*
X79894126Y30172886D01*
X79767469Y30032220D01*
X79672822Y29868286D01*
X79614325Y29688256D01*
X79594540Y29500000D01*
X1000000Y29500000D01*
X1000000Y32247010D01*
X8850000Y32247010D01*
X8850474Y32246292D01*
X8868000Y32173874D01*
X8873077Y32115849D01*
X8874937Y32094592D01*
X8936097Y31866337D01*
X9035965Y31652170D01*
X9171505Y31458599D01*
X9338599Y31291505D01*
X9532170Y31155965D01*
X9746337Y31056097D01*
X9974592Y30994937D01*
X9974595Y30994937D01*
X9974598Y30994936D01*
X10209995Y30974341D01*
X10210000Y30974341D01*
X10210005Y30974341D01*
X10445401Y30994936D01*
X10445403Y30994937D01*
X10445408Y30994937D01*
X10673663Y31056097D01*
X10887830Y31155965D01*
X11081401Y31291505D01*
X11248495Y31458599D01*
X11384035Y31652170D01*
X11483903Y31866337D01*
X11545063Y32094592D01*
X11552000Y32173874D01*
X11564359Y32315138D01*
X11566359Y32322001D01*
X11550948Y32498150D01*
X11550000Y32519852D01*
X11550000Y32900001D01*
X50844540Y32900001D01*
X50864325Y32711745D01*
X50893573Y32621730D01*
X50922821Y32531716D01*
X51017467Y32367784D01*
X51017469Y32367781D01*
X51126859Y32246292D01*
X51144129Y32227112D01*
X51258984Y32143665D01*
X51297271Y32115848D01*
X51470189Y32038859D01*
X51470192Y32038858D01*
X51470197Y32038856D01*
X51655354Y31999500D01*
X51844645Y31999500D01*
X51844646Y31999500D01*
X52029803Y32038856D01*
X52155003Y32094599D01*
X52202728Y32115848D01*
X52202728Y32115849D01*
X52202730Y32115849D01*
X52355871Y32227112D01*
X52482533Y32367784D01*
X52577179Y32531716D01*
X52635674Y32711744D01*
X52636743Y32721919D01*
X52665550Y32814700D01*
X52727673Y32889399D01*
X52813652Y32934638D01*
X52828156Y32938322D01*
X52829796Y32938855D01*
X52829803Y32938856D01*
X53002730Y33015849D01*
X53155871Y33127112D01*
X53282533Y33267784D01*
X53377179Y33431716D01*
X53435674Y33611744D01*
X53455460Y33800000D01*
X53435674Y33988256D01*
X53377179Y34168284D01*
X53282533Y34332216D01*
X53282531Y34332219D01*
X53282530Y34332220D01*
X53155873Y34472886D01*
X53155872Y34472887D01*
X53155871Y34472888D01*
X53079300Y34528520D01*
X53002728Y34584153D01*
X52829808Y34661142D01*
X52829806Y34661143D01*
X52829803Y34661144D01*
X52829799Y34661145D01*
X52817385Y34665179D01*
X52817929Y34666855D01*
X52743341Y34698902D01*
X52675548Y34768495D01*
X52639548Y34858734D01*
X52636745Y34878064D01*
X52635674Y34888256D01*
X52577179Y35068284D01*
X52482533Y35232216D01*
X52482531Y35232219D01*
X52482530Y35232220D01*
X52355873Y35372886D01*
X52355872Y35372887D01*
X52355871Y35372888D01*
X52279300Y35428520D01*
X52202728Y35484153D01*
X52029810Y35561142D01*
X52029796Y35561146D01*
X51844646Y35600500D01*
X51655354Y35600500D01*
X51470203Y35561146D01*
X51470189Y35561142D01*
X51297271Y35484153D01*
X51144126Y35372886D01*
X51017469Y35232220D01*
X50922822Y35068286D01*
X50864325Y34888256D01*
X50851739Y34768495D01*
X50844540Y34700000D01*
X50844725Y34698241D01*
X50848636Y34661029D01*
X50850000Y34635002D01*
X50850000Y32965000D01*
X50848636Y32938974D01*
X50844540Y32900002D01*
X50844540Y32900001D01*
X11550000Y32900001D01*
X11550000Y34500000D01*
X15344540Y34500000D01*
X15364325Y34311745D01*
X15393573Y34221730D01*
X15422821Y34131716D01*
X15422822Y34131715D01*
X15517469Y33967781D01*
X15644126Y33827115D01*
X15644129Y33827112D01*
X15681446Y33800000D01*
X15797271Y33715848D01*
X15970189Y33638859D01*
X15970192Y33638858D01*
X15970197Y33638856D01*
X16155354Y33599500D01*
X16344645Y33599500D01*
X16344646Y33599500D01*
X16529803Y33638856D01*
X16658071Y33695965D01*
X16702728Y33715848D01*
X16702728Y33715849D01*
X16702730Y33715849D01*
X16855871Y33827112D01*
X16982533Y33967784D01*
X17077179Y34131716D01*
X17135674Y34311744D01*
X17155460Y34500000D01*
X17135674Y34688256D01*
X17077179Y34868284D01*
X16982533Y35032216D01*
X16982531Y35032219D01*
X16982530Y35032220D01*
X16855873Y35172886D01*
X16855872Y35172887D01*
X16855871Y35172888D01*
X16774207Y35232220D01*
X16702728Y35284153D01*
X16529810Y35361142D01*
X16529796Y35361146D01*
X16344646Y35400500D01*
X16155354Y35400500D01*
X15970203Y35361146D01*
X15970189Y35361142D01*
X15797271Y35284153D01*
X15644126Y35172886D01*
X15517469Y35032220D01*
X15422822Y34868286D01*
X15364325Y34688256D01*
X15344540Y34500000D01*
X11550000Y34500000D01*
X11550000Y34680155D01*
X11550948Y34701858D01*
X11565659Y34869996D01*
X11565659Y34870005D01*
X11550948Y35038144D01*
X11550000Y35059847D01*
X11550000Y37220155D01*
X11550948Y37241858D01*
X11551660Y37250000D01*
X15344540Y37250000D01*
X15364325Y37061745D01*
X15393573Y36971730D01*
X15422821Y36881716D01*
X15517467Y36717784D01*
X15517469Y36717781D01*
X15644126Y36577115D01*
X15644129Y36577112D01*
X15697138Y36538599D01*
X15797271Y36465848D01*
X15970189Y36388859D01*
X15970192Y36388858D01*
X15970197Y36388856D01*
X16155354Y36349500D01*
X16344645Y36349500D01*
X16344646Y36349500D01*
X16529803Y36388856D01*
X16702730Y36465849D01*
X16855871Y36577112D01*
X16982533Y36717784D01*
X17077179Y36881716D01*
X17135674Y37061744D01*
X17155460Y37250000D01*
X17135674Y37438256D01*
X17077179Y37618284D01*
X16982533Y37782216D01*
X16982531Y37782219D01*
X16982530Y37782220D01*
X16855873Y37922886D01*
X16855872Y37922887D01*
X16855871Y37922888D01*
X16779300Y37978520D01*
X16702728Y38034153D01*
X16529810Y38111142D01*
X16529796Y38111146D01*
X16344646Y38150500D01*
X16155354Y38150500D01*
X15970203Y38111146D01*
X15970189Y38111142D01*
X15797271Y38034153D01*
X15644126Y37922886D01*
X15517469Y37782220D01*
X15517467Y37782216D01*
X15422821Y37618284D01*
X15409779Y37578144D01*
X15364325Y37438256D01*
X15344540Y37250000D01*
X11551660Y37250000D01*
X11565659Y37409996D01*
X11565659Y37410005D01*
X11550948Y37578144D01*
X11550000Y37599847D01*
X11550000Y38750000D01*
X40094540Y38750000D01*
X40114325Y38561745D01*
X40143573Y38471730D01*
X40172821Y38381716D01*
X40172822Y38381715D01*
X40267469Y38217781D01*
X40363486Y38111144D01*
X40394129Y38077112D01*
X40508984Y37993665D01*
X40547271Y37965848D01*
X40720189Y37888859D01*
X40720192Y37888858D01*
X40720197Y37888856D01*
X40905354Y37849500D01*
X41094645Y37849500D01*
X41094646Y37849500D01*
X41279803Y37888856D01*
X41452730Y37965849D01*
X41605871Y38077112D01*
X41732533Y38217784D01*
X41827179Y38381716D01*
X41885674Y38561744D01*
X41905460Y38750000D01*
X41885674Y38938256D01*
X41827179Y39118284D01*
X41732533Y39282216D01*
X41732531Y39282219D01*
X41732530Y39282220D01*
X41605873Y39422886D01*
X41605872Y39422887D01*
X41605871Y39422888D01*
X41518541Y39486337D01*
X41452728Y39534153D01*
X41279810Y39611142D01*
X41279796Y39611146D01*
X41184312Y39631441D01*
X41095047Y39669792D01*
X41027253Y39739384D01*
X41000385Y39806726D01*
X40969126Y39733965D01*
X40899534Y39666171D01*
X40815687Y39631441D01*
X40720203Y39611146D01*
X40720189Y39611142D01*
X40547271Y39534153D01*
X40394126Y39422886D01*
X40267469Y39282220D01*
X40172822Y39118286D01*
X40172821Y39118284D01*
X40159444Y39077115D01*
X40114325Y38938256D01*
X40094540Y38750000D01*
X11550000Y38750000D01*
X11550000Y39750000D01*
X15344540Y39750000D01*
X15364325Y39561745D01*
X15388827Y39486337D01*
X15422821Y39381716D01*
X15517467Y39217784D01*
X15517469Y39217781D01*
X15607057Y39118284D01*
X15644129Y39077112D01*
X15758984Y38993665D01*
X15797271Y38965848D01*
X15970189Y38888859D01*
X15970192Y38888858D01*
X15970197Y38888856D01*
X16155354Y38849500D01*
X16344645Y38849500D01*
X16344646Y38849500D01*
X16529803Y38888856D01*
X16702730Y38965849D01*
X16855871Y39077112D01*
X16982533Y39217784D01*
X17077179Y39381716D01*
X17135674Y39561744D01*
X17155460Y39750000D01*
X17135674Y39938256D01*
X17077179Y40118284D01*
X16982533Y40282216D01*
X16982531Y40282219D01*
X16982530Y40282220D01*
X16855873Y40422886D01*
X16855872Y40422887D01*
X16855871Y40422888D01*
X16779300Y40478520D01*
X16702728Y40534153D01*
X16529810Y40611142D01*
X16529796Y40611146D01*
X16344646Y40650500D01*
X16155354Y40650500D01*
X15970203Y40611146D01*
X15970189Y40611142D01*
X15797271Y40534153D01*
X15644126Y40422886D01*
X15517469Y40282220D01*
X15422980Y40118559D01*
X15422821Y40118284D01*
X15410449Y40080208D01*
X15364325Y39938256D01*
X15344540Y39750000D01*
X11550000Y39750000D01*
X11550000Y39760155D01*
X11550948Y39781858D01*
X11565659Y39949996D01*
X11565659Y39950005D01*
X11550948Y40118144D01*
X11550000Y40139847D01*
X11550000Y41000000D01*
X40094540Y41000000D01*
X40114325Y40811745D01*
X40143573Y40721730D01*
X40172821Y40631716D01*
X40229149Y40534153D01*
X40267469Y40467781D01*
X40394126Y40327115D01*
X40394129Y40327112D01*
X40508984Y40243665D01*
X40547271Y40215848D01*
X40720189Y40138859D01*
X40720192Y40138858D01*
X40720197Y40138856D01*
X40782475Y40125619D01*
X40815687Y40118559D01*
X40904953Y40080208D01*
X40972747Y40010616D01*
X40999613Y39943275D01*
X41030873Y40016034D01*
X41100465Y40083828D01*
X41184312Y40118559D01*
X41279803Y40138856D01*
X41452730Y40215849D01*
X41605871Y40327112D01*
X41732533Y40467784D01*
X41827179Y40631716D01*
X41885674Y40811744D01*
X41905460Y41000000D01*
X41885674Y41188256D01*
X41827179Y41368284D01*
X41732533Y41532216D01*
X41732531Y41532219D01*
X41732530Y41532220D01*
X41605873Y41672886D01*
X41605872Y41672887D01*
X41605871Y41672888D01*
X41500774Y41749245D01*
X41452728Y41784153D01*
X41279810Y41861142D01*
X41279796Y41861146D01*
X41094646Y41900500D01*
X40905354Y41900500D01*
X40720203Y41861146D01*
X40720189Y41861142D01*
X40547271Y41784153D01*
X40394126Y41672886D01*
X40267469Y41532220D01*
X40172822Y41368286D01*
X40114325Y41188256D01*
X40094540Y41000000D01*
X11550000Y41000000D01*
X11550000Y42227797D01*
X11540636Y42240000D01*
X10643686Y42240000D01*
X10650113Y42250000D01*
X15344540Y42250000D01*
X15364325Y42061745D01*
X15382659Y42005320D01*
X15422821Y41881716D01*
X15479149Y41784153D01*
X15517469Y41717781D01*
X15557893Y41672886D01*
X15644129Y41577112D01*
X15758984Y41493665D01*
X15797271Y41465848D01*
X15970189Y41388859D01*
X15970192Y41388858D01*
X15970197Y41388856D01*
X16155354Y41349500D01*
X16344645Y41349500D01*
X16344646Y41349500D01*
X16529803Y41388856D01*
X16566701Y41405284D01*
X16702728Y41465848D01*
X16702728Y41465849D01*
X16702730Y41465849D01*
X16855871Y41577112D01*
X16982533Y41717784D01*
X17077179Y41881716D01*
X17095304Y41937500D01*
X53207040Y41937500D01*
X53226825Y41749245D01*
X53237048Y41717784D01*
X53285321Y41569216D01*
X53379967Y41405284D01*
X53379969Y41405281D01*
X53506626Y41264615D01*
X53506629Y41264612D01*
X53621484Y41181165D01*
X53659771Y41153348D01*
X53832689Y41076359D01*
X53832692Y41076358D01*
X53832697Y41076356D01*
X54017854Y41037000D01*
X54207145Y41037000D01*
X54207146Y41037000D01*
X54392303Y41076356D01*
X54499391Y41124035D01*
X54565228Y41153348D01*
X54565228Y41153349D01*
X54565230Y41153349D01*
X54718371Y41264612D01*
X54845033Y41405284D01*
X54939679Y41569216D01*
X54998174Y41749244D01*
X55017960Y41937500D01*
X54998174Y42125756D01*
X54939679Y42305784D01*
X54845033Y42469716D01*
X54845031Y42469719D01*
X54845030Y42469720D01*
X54718373Y42610386D01*
X54718372Y42610387D01*
X54718371Y42610388D01*
X54595245Y42699844D01*
X54565228Y42721653D01*
X54392310Y42798642D01*
X54392296Y42798646D01*
X54207146Y42838000D01*
X54017854Y42838000D01*
X53832703Y42798646D01*
X53832689Y42798642D01*
X53659771Y42721653D01*
X53506626Y42610386D01*
X53379969Y42469720D01*
X53285322Y42305786D01*
X53226825Y42125756D01*
X53207040Y41937500D01*
X17095304Y41937500D01*
X17135674Y42061744D01*
X17155460Y42250000D01*
X17135674Y42438256D01*
X17077179Y42618284D01*
X16982533Y42782216D01*
X16982531Y42782219D01*
X16982530Y42782220D01*
X16855873Y42922886D01*
X16855872Y42922887D01*
X16855871Y42922888D01*
X16763499Y42990000D01*
X16702728Y43034153D01*
X16529810Y43111142D01*
X16529796Y43111146D01*
X16344646Y43150500D01*
X16155354Y43150500D01*
X15970203Y43111146D01*
X15970189Y43111142D01*
X15797271Y43034153D01*
X15644126Y42922886D01*
X15517469Y42782220D01*
X15422822Y42618286D01*
X15422821Y42618284D01*
X15420255Y42610386D01*
X15364325Y42438256D01*
X15344540Y42250000D01*
X10650113Y42250000D01*
X10669493Y42280156D01*
X10710000Y42418111D01*
X10710000Y42561889D01*
X10669493Y42699844D01*
X10643686Y42740000D01*
X11541756Y42740000D01*
X11550000Y42749401D01*
X11550000Y43800000D01*
X40144540Y43800000D01*
X40164325Y43611745D01*
X40193573Y43521730D01*
X40222821Y43431716D01*
X40222822Y43431715D01*
X40317469Y43267781D01*
X40423070Y43150500D01*
X40444129Y43127112D01*
X40558984Y43043665D01*
X40597271Y43015848D01*
X40770189Y42938859D01*
X40770192Y42938858D01*
X40770197Y42938856D01*
X40955354Y42899500D01*
X41144645Y42899500D01*
X41144646Y42899500D01*
X41329803Y42938856D01*
X41502730Y43015849D01*
X41655871Y43127112D01*
X41782533Y43267784D01*
X41877179Y43431716D01*
X41935674Y43611744D01*
X41955460Y43800000D01*
X41935674Y43988256D01*
X41877179Y44168284D01*
X41782533Y44332216D01*
X41782531Y44332219D01*
X41782530Y44332220D01*
X41655873Y44472886D01*
X41655872Y44472887D01*
X41655871Y44472888D01*
X41558150Y44543886D01*
X41502728Y44584153D01*
X41329810Y44661142D01*
X41329796Y44661146D01*
X41144646Y44700500D01*
X40955354Y44700500D01*
X40770203Y44661146D01*
X40770189Y44661142D01*
X40597271Y44584153D01*
X40444126Y44472886D01*
X40317469Y44332220D01*
X40222822Y44168286D01*
X40164325Y43988256D01*
X40144540Y43800000D01*
X11550000Y43800000D01*
X11550000Y44026184D01*
X11553581Y44056905D01*
X11552426Y44057029D01*
X11554268Y44074168D01*
X11560500Y44132127D01*
X11560499Y45927872D01*
X11554091Y45987483D01*
X11503796Y46122331D01*
X11417546Y46237546D01*
X11302331Y46323796D01*
X11222117Y46353714D01*
X11167481Y46374092D01*
X11107873Y46380500D01*
X9312134Y46380500D01*
X9312130Y46380500D01*
X9312128Y46380499D01*
X9299314Y46379122D01*
X9252519Y46374092D01*
X9252515Y46374091D01*
X9117670Y46323797D01*
X9002455Y46237547D01*
X9002453Y46237545D01*
X8916204Y46122331D01*
X8865908Y45987482D01*
X8859500Y45927877D01*
X8859500Y44591645D01*
X8850000Y44543886D01*
X8850000Y44350000D01*
X8850000Y42750000D01*
X8850001Y42750000D01*
X8860001Y42740000D01*
X9776314Y42740000D01*
X9750507Y42699844D01*
X9710000Y42561889D01*
X9710000Y42418111D01*
X9750507Y42280156D01*
X9776314Y42240000D01*
X8879364Y42240000D01*
X8854221Y42207234D01*
X8850000Y42202421D01*
X8850000Y32247010D01*
X1000000Y32247010D01*
X1000000Y46500000D01*
X40094540Y46500000D01*
X40114325Y46311745D01*
X40138435Y46237545D01*
X40172821Y46131716D01*
X40256095Y45987481D01*
X40267469Y45967781D01*
X40303409Y45927866D01*
X40394129Y45827112D01*
X40508984Y45743665D01*
X40547271Y45715848D01*
X40720189Y45638859D01*
X40720192Y45638858D01*
X40720197Y45638856D01*
X40905354Y45599500D01*
X41094645Y45599500D01*
X41094646Y45599500D01*
X41279803Y45638856D01*
X41452730Y45715849D01*
X41605871Y45827112D01*
X41732533Y45967784D01*
X41827179Y46131716D01*
X41885674Y46311744D01*
X41905460Y46500000D01*
X41885674Y46688256D01*
X41827179Y46868284D01*
X41732533Y47032216D01*
X41732531Y47032219D01*
X41732530Y47032220D01*
X41605873Y47172886D01*
X41605872Y47172887D01*
X41605871Y47172888D01*
X41529300Y47228520D01*
X41452728Y47284153D01*
X41279810Y47361142D01*
X41279796Y47361146D01*
X41094646Y47400500D01*
X40905354Y47400500D01*
X40720203Y47361146D01*
X40720189Y47361142D01*
X40547271Y47284153D01*
X40394126Y47172886D01*
X40267469Y47032220D01*
X40172822Y46868286D01*
X40114325Y46688256D01*
X40094540Y46500000D01*
X1000000Y46500000D01*
X1000000Y46551000D01*
X1018954Y46646288D01*
X1072930Y46727070D01*
X1153712Y46781046D01*
X1249000Y46800000D01*
X3387043Y46800000D01*
X3400074Y46799659D01*
X3500000Y46794422D01*
X3887338Y46814722D01*
X4270433Y46875398D01*
X4645087Y46975786D01*
X5007194Y47114786D01*
X5352789Y47290875D01*
X5678084Y47502124D01*
X5979516Y47746219D01*
X6253781Y48020484D01*
X6497876Y48321916D01*
X6709125Y48647211D01*
X6885214Y48992806D01*
X6973258Y49222168D01*
X8860000Y49222168D01*
X8866401Y49162629D01*
X8866403Y49162622D01*
X8916646Y49027913D01*
X9002810Y48912813D01*
X9002812Y48912811D01*
X9117912Y48826647D01*
X9252621Y48776404D01*
X9252628Y48776402D01*
X9312167Y48770001D01*
X9312175Y48770000D01*
X9959999Y48770000D01*
X9960000Y48770001D01*
X9960000Y49684499D01*
X10067685Y49635320D01*
X10174237Y49620000D01*
X10245763Y49620000D01*
X10352315Y49635320D01*
X10460000Y49684499D01*
X10460000Y48770001D01*
X10460001Y48770000D01*
X11107825Y48770000D01*
X11107832Y48770001D01*
X11167371Y48776402D01*
X11167381Y48776404D01*
X11188555Y48784301D01*
X11275570Y48800000D01*
X12425595Y48800000D01*
X12490038Y48791516D01*
X12493139Y48790686D01*
X12514592Y48784937D01*
X12514596Y48784937D01*
X12514598Y48784936D01*
X12749995Y48764341D01*
X12750000Y48764341D01*
X12750005Y48764341D01*
X12985401Y48784936D01*
X12985403Y48784937D01*
X12985408Y48784937D01*
X13213663Y48846097D01*
X13427830Y48945965D01*
X13505000Y49000000D01*
X40089540Y49000000D01*
X40109325Y48811745D01*
X40124728Y48764341D01*
X40167821Y48631716D01*
X40167822Y48631715D01*
X40262469Y48467781D01*
X40389126Y48327115D01*
X40389129Y48327112D01*
X40503984Y48243665D01*
X40542271Y48215848D01*
X40715189Y48138859D01*
X40715192Y48138858D01*
X40715197Y48138856D01*
X40900354Y48099500D01*
X41089645Y48099500D01*
X41089646Y48099500D01*
X41274803Y48138856D01*
X41447730Y48215849D01*
X41600871Y48327112D01*
X41727533Y48467784D01*
X41822179Y48631716D01*
X41880674Y48811744D01*
X41900460Y49000000D01*
X41880674Y49188256D01*
X41822179Y49368284D01*
X41727533Y49532216D01*
X41727531Y49532219D01*
X41727530Y49532220D01*
X41600873Y49672886D01*
X41600872Y49672887D01*
X41600871Y49672888D01*
X41522852Y49729572D01*
X41447728Y49784153D01*
X41274810Y49861142D01*
X41274796Y49861146D01*
X41089646Y49900500D01*
X40900354Y49900500D01*
X40715203Y49861146D01*
X40715189Y49861142D01*
X40542271Y49784153D01*
X40389126Y49672886D01*
X40262469Y49532220D01*
X40262467Y49532216D01*
X40167821Y49368284D01*
X40152651Y49321597D01*
X40109325Y49188256D01*
X40089540Y49000000D01*
X13505000Y49000000D01*
X13621401Y49081505D01*
X13788495Y49248599D01*
X13924035Y49442170D01*
X14023903Y49656337D01*
X14085063Y49884592D01*
X14087300Y49910156D01*
X14105659Y50119995D01*
X14105659Y50120006D01*
X14085064Y50355402D01*
X14085063Y50355405D01*
X14085063Y50355408D01*
X14023903Y50583663D01*
X13924035Y50797829D01*
X13906991Y50822170D01*
X13861360Y50887338D01*
X13788495Y50991401D01*
X13621401Y51158495D01*
X13544862Y51212088D01*
X13427830Y51294035D01*
X13356729Y51327190D01*
X13213663Y51393903D01*
X13213660Y51393904D01*
X12985401Y51455065D01*
X12750005Y51475659D01*
X12749995Y51475659D01*
X12514598Y51455065D01*
X12507327Y51453782D01*
X12464092Y51450000D01*
X11248758Y51450000D01*
X11182974Y51461869D01*
X11182537Y51460015D01*
X11167371Y51463599D01*
X11107832Y51470000D01*
X10460001Y51470000D01*
X10460000Y51469999D01*
X10460000Y50555502D01*
X10352315Y50604680D01*
X10245763Y50620000D01*
X10174237Y50620000D01*
X10067685Y50604680D01*
X9960000Y50555502D01*
X9960000Y51469999D01*
X9959999Y51470000D01*
X9312167Y51470000D01*
X9252628Y51463599D01*
X9252621Y51463597D01*
X9117912Y51413354D01*
X9002812Y51327190D01*
X9002810Y51327188D01*
X8916646Y51212088D01*
X8866403Y51077379D01*
X8866401Y51077372D01*
X8860000Y51017833D01*
X8860000Y50370001D01*
X8860001Y50370000D01*
X9776314Y50370000D01*
X9750507Y50329844D01*
X9710000Y50191889D01*
X9710000Y50048111D01*
X9750507Y49910156D01*
X9776314Y49870000D01*
X8860001Y49870000D01*
X8860000Y49869999D01*
X8860000Y49222168D01*
X6973258Y49222168D01*
X7024214Y49354913D01*
X7124602Y49729567D01*
X7185278Y50112662D01*
X7205578Y50500000D01*
X7200341Y50599928D01*
X7200000Y50612959D01*
X7200000Y52751000D01*
X7218954Y52846288D01*
X7272930Y52927070D01*
X7353712Y52981046D01*
X7449000Y53000000D01*
X45101000Y53000000D01*
X45196288Y52981046D01*
G37*
%TD.AperFunction*%
%TD*%
M02*
