%TF.GenerationSoftware,KiCad,Pcbnew,8.0.6*%
%TF.CreationDate,2024-11-18T23:24:10+07:00*%
%TF.ProjectId,MAX14866_PMOD,4d415831-3438-4363-965f-504d4f442e6b,rev?*%
%TF.SameCoordinates,Original*%
%TF.FileFunction,Paste,Top*%
%TF.FilePolarity,Positive*%
%FSLAX46Y46*%
G04 Gerber Fmt 4.6, Leading zero omitted, Abs format (unit mm)*
G04 Created by KiCad (PCBNEW 8.0.6) date 2024-11-18 23:24:10*
%MOMM*%
%LPD*%
G01*
G04 APERTURE LIST*
G04 Aperture macros list*
%AMRoundRect*
0 Rectangle with rounded corners*
0 $1 Rounding radius*
0 $2 $3 $4 $5 $6 $7 $8 $9 X,Y pos of 4 corners*
0 Add a 4 corners polygon primitive as box body*
4,1,4,$2,$3,$4,$5,$6,$7,$8,$9,$2,$3,0*
0 Add four circle primitives for the rounded corners*
1,1,$1+$1,$2,$3*
1,1,$1+$1,$4,$5*
1,1,$1+$1,$6,$7*
1,1,$1+$1,$8,$9*
0 Add four rect primitives between the rounded corners*
20,1,$1+$1,$2,$3,$4,$5,0*
20,1,$1+$1,$4,$5,$6,$7,0*
20,1,$1+$1,$6,$7,$8,$9,0*
20,1,$1+$1,$8,$9,$2,$3,0*%
G04 Aperture macros list end*
%ADD10C,0.000000*%
%ADD11R,0.700000X2.350000*%
%ADD12R,3.600000X4.875000*%
%ADD13R,3.500000X4.875000*%
%ADD14RoundRect,0.250000X-0.312500X-0.625000X0.312500X-0.625000X0.312500X0.625000X-0.312500X0.625000X0*%
%ADD15RoundRect,0.250000X0.625000X-0.312500X0.625000X0.312500X-0.625000X0.312500X-0.625000X-0.312500X0*%
%ADD16R,0.254000X0.812800*%
%ADD17R,0.812800X0.254000*%
%ADD18R,5.588000X5.588000*%
%ADD19RoundRect,0.250000X0.275000X0.700000X-0.275000X0.700000X-0.275000X-0.700000X0.275000X-0.700000X0*%
%ADD20RoundRect,0.250000X0.325000X0.650000X-0.325000X0.650000X-0.325000X-0.650000X0.325000X-0.650000X0*%
%ADD21R,0.300000X0.475000*%
%ADD22RoundRect,0.250000X0.650000X-0.325000X0.650000X0.325000X-0.650000X0.325000X-0.650000X-0.325000X0*%
%ADD23RoundRect,0.250000X-0.325000X-0.650000X0.325000X-0.650000X0.325000X0.650000X-0.325000X0.650000X0*%
G04 APERTURE END LIST*
D10*
%TO.C,U2*%
G36*
X16503000Y17247000D02*
G01*
X15306000Y17247000D01*
X15306000Y18444000D01*
X16503000Y18444000D01*
X16503000Y17247000D01*
G37*
G36*
X16503000Y15850000D02*
G01*
X15306000Y15850000D01*
X15306000Y17047000D01*
X16503000Y17047000D01*
X16503000Y15850000D01*
G37*
G36*
X16503000Y14453000D02*
G01*
X15306000Y14453000D01*
X15306000Y15650000D01*
X16503000Y15650000D01*
X16503000Y14453000D01*
G37*
G36*
X16503000Y13056000D02*
G01*
X15306000Y13056000D01*
X15306000Y14253000D01*
X16503000Y14253000D01*
X16503000Y13056000D01*
G37*
G36*
X17900000Y17247000D02*
G01*
X16703000Y17247000D01*
X16703000Y18444000D01*
X17900000Y18444000D01*
X17900000Y17247000D01*
G37*
G36*
X17900000Y15850000D02*
G01*
X16703000Y15850000D01*
X16703000Y17047000D01*
X17900000Y17047000D01*
X17900000Y15850000D01*
G37*
G36*
X17900000Y14453000D02*
G01*
X16703000Y14453000D01*
X16703000Y15650000D01*
X17900000Y15650000D01*
X17900000Y14453000D01*
G37*
G36*
X17900000Y13056000D02*
G01*
X16703000Y13056000D01*
X16703000Y14253000D01*
X17900000Y14253000D01*
X17900000Y13056000D01*
G37*
G36*
X19297000Y17247000D02*
G01*
X18100000Y17247000D01*
X18100000Y18444000D01*
X19297000Y18444000D01*
X19297000Y17247000D01*
G37*
G36*
X19297000Y15850000D02*
G01*
X18100000Y15850000D01*
X18100000Y17047000D01*
X19297000Y17047000D01*
X19297000Y15850000D01*
G37*
G36*
X19297000Y14453000D02*
G01*
X18100000Y14453000D01*
X18100000Y15650000D01*
X19297000Y15650000D01*
X19297000Y14453000D01*
G37*
G36*
X19297000Y13056000D02*
G01*
X18100000Y13056000D01*
X18100000Y14253000D01*
X19297000Y14253000D01*
X19297000Y13056000D01*
G37*
G36*
X20694000Y17247000D02*
G01*
X19497000Y17247000D01*
X19497000Y18444000D01*
X20694000Y18444000D01*
X20694000Y17247000D01*
G37*
G36*
X20694000Y15850000D02*
G01*
X19497000Y15850000D01*
X19497000Y17047000D01*
X20694000Y17047000D01*
X20694000Y15850000D01*
G37*
G36*
X20694000Y14453000D02*
G01*
X19497000Y14453000D01*
X19497000Y15650000D01*
X20694000Y15650000D01*
X20694000Y14453000D01*
G37*
G36*
X20694000Y13056000D02*
G01*
X19497000Y13056000D01*
X19497000Y14253000D01*
X20694000Y14253000D01*
X20694000Y13056000D01*
G37*
%TD*%
D11*
%TO.C,J3*%
X26750000Y1250000D03*
D12*
X23450000Y2812500D03*
D13*
X30000000Y2812500D03*
%TD*%
D14*
%TO.C,R3*%
X27287500Y21250000D03*
X30212500Y21250000D03*
%TD*%
D15*
%TO.C,R4*%
X48500000Y16537500D03*
X48500000Y19462500D03*
%TD*%
%TO.C,R5*%
X48500000Y11750000D03*
X48500000Y14675000D03*
%TD*%
D16*
%TO.C,U2*%
X20750000Y19204400D03*
X20250001Y19204400D03*
X19749999Y19204400D03*
X19250000Y19204400D03*
X18750001Y19204400D03*
X18250000Y19204400D03*
X17750000Y19204400D03*
X17249999Y19204400D03*
X16750000Y19204400D03*
X16250001Y19204400D03*
X15749999Y19204400D03*
X15250000Y19204400D03*
D17*
X14545600Y18500000D03*
X14545600Y18000001D03*
X14545600Y17499999D03*
X14545600Y17000000D03*
X14545600Y16500001D03*
X14545600Y16000000D03*
X14545600Y15500000D03*
X14545600Y14999999D03*
X14545600Y14500000D03*
X14545600Y14000001D03*
X14545600Y13499999D03*
X14545600Y13000000D03*
D16*
X15250000Y12295600D03*
X15749999Y12295600D03*
X16250001Y12295600D03*
X16750000Y12295600D03*
X17249999Y12295600D03*
X17750000Y12295600D03*
X18250000Y12295600D03*
X18750001Y12295600D03*
X19250000Y12295600D03*
X19749999Y12295600D03*
X20250001Y12295600D03*
X20750000Y12295600D03*
D17*
X21454400Y13000000D03*
X21454400Y13499999D03*
X21454400Y14000001D03*
X21454400Y14500000D03*
X21454400Y14999999D03*
X21454400Y15500000D03*
X21454400Y16000000D03*
X21454400Y16500001D03*
X21454400Y17000000D03*
X21454400Y17499999D03*
X21454400Y18000001D03*
X21454400Y18500000D03*
D18*
X18000000Y15750000D03*
%TD*%
D19*
%TO.C,L1*%
X54575000Y21750000D03*
X51425000Y21750000D03*
%TD*%
D20*
%TO.C,C3*%
X30179400Y15499999D03*
X27229400Y15499999D03*
%TD*%
D21*
%TO.C,IC1*%
X51000000Y17412000D03*
X51500000Y17412000D03*
X52000000Y17412000D03*
X52000000Y19088000D03*
X51500000Y19088000D03*
X51000000Y19088000D03*
%TD*%
D22*
%TO.C,C6*%
X46000000Y16525000D03*
X46000000Y19475000D03*
%TD*%
D11*
%TO.C,J1*%
X14250000Y1250000D03*
D12*
X10950000Y2812500D03*
D13*
X17500000Y2812500D03*
%TD*%
D14*
%TO.C,R2*%
X27287500Y19000000D03*
X30212500Y19000000D03*
%TD*%
%TO.C,R1*%
X27287500Y13000000D03*
X30212500Y13000000D03*
%TD*%
D23*
%TO.C,C5*%
X45525000Y21750000D03*
X48475000Y21750000D03*
%TD*%
D20*
%TO.C,C2*%
X30225000Y10500000D03*
X27275000Y10500000D03*
%TD*%
D22*
%TO.C,C4*%
X53500000Y11775000D03*
X53500000Y14725000D03*
%TD*%
M02*
