%TF.GenerationSoftware,KiCad,Pcbnew,8.0.6*%
%TF.CreationDate,2024-11-18T23:24:10+07:00*%
%TF.ProjectId,MAX14866_PMOD,4d415831-3438-4363-965f-504d4f442e6b,rev?*%
%TF.SameCoordinates,Original*%
%TF.FileFunction,Soldermask,Bot*%
%TF.FilePolarity,Negative*%
%FSLAX46Y46*%
G04 Gerber Fmt 4.6, Leading zero omitted, Abs format (unit mm)*
G04 Created by KiCad (PCBNEW 8.0.6) date 2024-11-18 23:24:10*
%MOMM*%
%LPD*%
G01*
G04 APERTURE LIST*
%ADD10C,2.000000*%
%ADD11R,3.500000X4.875000*%
%ADD12R,1.700000X1.700000*%
%ADD13O,1.700000X1.700000*%
G04 APERTURE END LIST*
D10*
%TO.C,REF\u002A\u002A*%
X26750000Y4250000D03*
%TD*%
D11*
%TO.C,J3*%
X23500000Y2812500D03*
X30000000Y2812500D03*
%TD*%
D12*
%TO.C,J7*%
X57710000Y3760000D03*
D13*
X60250000Y3760000D03*
%TD*%
D12*
%TO.C,J2*%
X57710000Y21540000D03*
D13*
X60250000Y21540000D03*
X57710000Y19000000D03*
X60250000Y19000000D03*
X57710000Y16460000D03*
X60250000Y16460000D03*
X57710000Y13920000D03*
X60250000Y13920000D03*
X57710000Y11380000D03*
X60250000Y11380000D03*
X57710000Y8840000D03*
X60250000Y8840000D03*
%TD*%
D12*
%TO.C,J6*%
X5300000Y3720000D03*
D13*
X2760000Y3720000D03*
%TD*%
D10*
%TO.C,REF\u002A\u002A*%
X14250000Y4250000D03*
%TD*%
D12*
%TO.C,J4*%
X5300000Y21500000D03*
D13*
X2760000Y21500000D03*
X5300000Y18960000D03*
X2760000Y18960000D03*
X5300000Y16420000D03*
X2760000Y16420000D03*
X5300000Y13880000D03*
X2760000Y13880000D03*
X5300000Y11340000D03*
X2760000Y11340000D03*
X5300000Y8800000D03*
X2760000Y8800000D03*
%TD*%
D11*
%TO.C,J1*%
X11000000Y2812500D03*
X17500000Y2812500D03*
%TD*%
D12*
%TO.C,J5*%
X53500000Y5040000D03*
D13*
X53500000Y2500000D03*
X50960000Y5040000D03*
X50960000Y2500000D03*
X48420000Y5040000D03*
X48420000Y2500000D03*
X45880000Y5040000D03*
X45880000Y2500000D03*
X43340000Y5040000D03*
X43340000Y2500000D03*
X40800000Y5040000D03*
X40800000Y2500000D03*
X38260000Y5040000D03*
X38260000Y2500000D03*
X35720000Y5040000D03*
X35720000Y2500000D03*
%TD*%
M02*
