%TF.GenerationSoftware,KiCad,Pcbnew,8.0.3-8.0.3-0~ubuntu22.04.1*%
%TF.CreationDate,2024-11-28T20:42:18+01:00*%
%TF.ProjectId,PICO_ADC_Test,5049434f-5f41-4444-935f-546573742e6b,R0.1*%
%TF.SameCoordinates,PX72ade90PY75c75e0*%
%TF.FileFunction,Component,L1,Top*%
%TF.FilePolarity,Positive*%
%FSLAX46Y46*%
G04 Gerber Fmt 4.6, Leading zero omitted, Abs format (unit mm)*
G04 Created by KiCad (PCBNEW 8.0.3-8.0.3-0~ubuntu22.04.1) date 2024-11-28 20:42:18*
%MOMM*%
%LPD*%
G01*
G04 APERTURE LIST*
%TA.AperFunction,ComponentMain*%
%ADD10C,0.300000*%
%TD*%
%TA.AperFunction,ComponentOutline,Courtyard*%
%ADD11C,0.100000*%
%TD*%
%TA.AperFunction,ComponentPin*%
%ADD12P,0.360000X4X0.000000*%
%TD*%
%TA.AperFunction,ComponentPin*%
%ADD13C,0.100000*%
%TD*%
%TA.AperFunction,ComponentOutline,Footprint*%
%ADD14C,0.100000*%
%TD*%
G04 APERTURE END LIST*
D10*
%TO.C,C13*%
%TO.CFtp,C_1206_3216Metric*%
%TO.CVal,100nF*%
%TO.CLbN,Capacitor_SMD*%
%TO.CMnt,SMD*%
%TO.CRot,0*%
X63000000Y2500000D03*
D11*
X65299999Y3649999D02*
X65299999Y1350001D01*
X60700001Y1350001D01*
X60700001Y3649999D01*
X65299999Y3649999D01*
D12*
%TO.P,C13,1*%
X61525000Y2500000D03*
D13*
%TO.P,C13,2*%
X64475000Y2500000D03*
%TD*%
D10*
%TO.C,C9*%
%TO.CFtp,C_1206_3216Metric*%
%TO.CVal,100nF*%
%TO.CLbN,Capacitor_SMD*%
%TO.CMnt,SMD*%
%TO.CRot,-90*%
X71000000Y17250000D03*
D11*
X72149999Y19549999D02*
X72149999Y14950001D01*
X69850001Y14950001D01*
X69850001Y19549999D01*
X72149999Y19549999D01*
D12*
%TO.P,C9,1*%
X71000000Y18725000D03*
D13*
%TO.P,C9,2*%
X71000000Y15775000D03*
%TD*%
D10*
%TO.C,C21*%
%TO.CFtp,C_1206_3216Metric*%
%TO.CVal,1nF*%
%TO.CLbN,Capacitor_SMD*%
%TO.CMnt,SMD*%
%TO.CRot,90*%
X78000000Y22000000D03*
D11*
X79149999Y24299999D02*
X79149999Y19700001D01*
X76850001Y19700001D01*
X76850001Y24299999D01*
X79149999Y24299999D01*
D12*
%TO.P,C21,1*%
X78000000Y20525000D03*
D13*
%TO.P,C21,2*%
X78000000Y23475000D03*
%TD*%
D10*
%TO.C,REF\u005Cu002A\u005Cu002A*%
%TO.CFtp,TestPoint_Loop_D1.80mm_Drill1.0mm_Beaded*%
%TO.CVal,TestPoint_Loop_D1.80mm_Drill1.0mm_Beaded*%
%TO.CLbN,TestPoint*%
%TO.CMnt,TH*%
%TO.CRot,0*%
X71000000Y52000000D03*
D11*
X71000000Y53802522D02*
X71268652Y53782390D01*
X71531303Y53722441D01*
X71782085Y53624018D01*
X71782085Y53624017D01*
X72015397Y53489314D01*
X72226026Y53321342D01*
X72409269Y53123854D01*
X72561030Y52901261D01*
X72677921Y52658536D01*
X72757329Y52401099D01*
X72797482Y52134703D01*
X72799999Y52000000D01*
X72797482Y51865297D01*
X72757329Y51598901D01*
X72677921Y51341464D01*
X72561030Y51098739D01*
X72409269Y50876146D01*
X72226026Y50678658D01*
X72015397Y50510686D01*
X71782085Y50375983D01*
X71531303Y50277559D01*
X71268652Y50217610D01*
X71000000Y50197477D01*
X70731348Y50217610D01*
X70468697Y50277559D01*
X70217914Y50375983D01*
X70217915Y50375983D01*
X69984603Y50510686D01*
X69773974Y50678658D01*
X69590731Y50876146D01*
X69438970Y51098739D01*
X69322079Y51341464D01*
X69242671Y51598901D01*
X69202518Y51865297D01*
X69202518Y52134703D01*
X69242671Y52401099D01*
X69322079Y52658536D01*
X69438970Y52901261D01*
X69590731Y53123854D01*
X69773974Y53321342D01*
X69984603Y53489314D01*
X70217915Y53624017D01*
X70217914Y53624018D01*
X70468697Y53722441D01*
X70731348Y53782390D01*
X71000000Y53802522D01*
D12*
%TO.P,REF\u005Cu002A\u005Cu002A,1*%
X71000000Y52000000D03*
%TD*%
D10*
%TO.C,C26*%
%TO.CFtp,C_1206_3216Metric*%
%TO.CVal,100nF*%
%TO.CLbN,Capacitor_SMD*%
%TO.CMnt,SMD*%
%TO.CRot,180*%
X52637500Y40012500D03*
D11*
X54937499Y41162499D02*
X54937499Y38862501D01*
X50337501Y38862501D01*
X50337501Y41162499D01*
X54937499Y41162499D01*
D12*
%TO.P,C26,1*%
X54112500Y40012500D03*
D13*
%TO.P,C26,2*%
X51162500Y40012500D03*
%TD*%
D10*
%TO.C,C25*%
%TO.CFtp,C_1206_3216Metric*%
%TO.CVal,10uF*%
%TO.CLbN,Capacitor_SMD*%
%TO.CMnt,SMD*%
%TO.CRot,180*%
X52612500Y37662500D03*
D11*
X54912499Y38812499D02*
X54912499Y36512501D01*
X50312501Y36512501D01*
X50312501Y38812499D01*
X54912499Y38812499D01*
D12*
%TO.P,C25,1*%
X54087500Y37662500D03*
D13*
%TO.P,C25,2*%
X51137500Y37662500D03*
%TD*%
D10*
%TO.C,IC2*%
%TO.CFtp,SOP64P600X175-20N*%
%TO.CVal,AD8331ARQZ*%
%TO.CLbN,PICO_ADC_Test*%
%TO.CMnt,SMD*%
%TO.CRot,-90*%
X67250000Y30250000D03*
D11*
X71879999Y33974999D02*
X71879999Y26525001D01*
X62620001Y26525001D01*
X62620001Y33974999D01*
X71879999Y33974999D01*
D12*
%TO.P,IC2,1,LMD*%
X70130000Y32965000D03*
D13*
%TO.P,IC2,2,INH*%
X69490000Y32965000D03*
%TO.P,IC2,3,VPSL*%
X68850000Y32965000D03*
%TO.P,IC2,4,LON*%
X68210000Y32965000D03*
%TO.P,IC2,5,LOP*%
X67570000Y32965000D03*
%TO.P,IC2,6,COML*%
X66930000Y32965000D03*
%TO.P,IC2,7,VIP*%
X66290000Y32965000D03*
%TO.P,IC2,8,VIN*%
X65650000Y32965000D03*
%TO.P,IC2,9,MODE*%
X65010000Y32965000D03*
%TO.P,IC2,10,GAIN*%
X64370000Y32965000D03*
%TO.P,IC2,11,VCM*%
X64370000Y27535000D03*
%TO.P,IC2,12,RCLMP*%
X65010000Y27535000D03*
%TO.P,IC2,13,HILO*%
X65650000Y27535000D03*
%TO.P,IC2,14,VPOS*%
X66290000Y27535000D03*
%TO.P,IC2,15,VOH*%
X66930000Y27535000D03*
%TO.P,IC2,16,VOL*%
X67570000Y27535000D03*
%TO.P,IC2,17,COMM_1*%
X68210000Y27535000D03*
%TO.P,IC2,18,ENBV*%
X68850000Y27535000D03*
%TO.P,IC2,19,ENBL*%
X69490000Y27535000D03*
%TO.P,IC2,20,COMM_2*%
X70130000Y27535000D03*
%TD*%
D10*
%TO.C,C3*%
%TO.CFtp,C_1206_3216Metric*%
%TO.CVal,4.7uF*%
%TO.CLbN,Capacitor_SMD*%
%TO.CMnt,SMD*%
%TO.CRot,90*%
X54500000Y22000000D03*
D11*
X55649999Y24299999D02*
X55649999Y19700001D01*
X53350001Y19700001D01*
X53350001Y24299999D01*
X55649999Y24299999D01*
D12*
%TO.P,C3,1*%
X54500000Y20525000D03*
D13*
%TO.P,C3,2*%
X54500000Y23475000D03*
%TD*%
D10*
%TO.C,R7*%
%TO.CFtp,R_1206_3216Metric*%
%TO.CVal,280R*%
%TO.CLbN,Resistor_SMD*%
%TO.CMnt,SMD*%
%TO.CRot,-90*%
X64750000Y39000000D03*
D11*
X65869999Y41279999D02*
X65869999Y36720001D01*
X63630001Y36720001D01*
X63630001Y41279999D01*
X65869999Y41279999D01*
D12*
%TO.P,R7,1*%
X64750000Y40462500D03*
D13*
%TO.P,R7,2*%
X64750000Y37537500D03*
%TD*%
D10*
%TO.C,C7*%
%TO.CFtp,C_1206_3216Metric*%
%TO.CVal,4.7uF*%
%TO.CLbN,Capacitor_SMD*%
%TO.CMnt,SMD*%
%TO.CRot,90*%
X47500000Y22000000D03*
D11*
X48649999Y24299999D02*
X48649999Y19700001D01*
X46350001Y19700001D01*
X46350001Y24299999D01*
X48649999Y24299999D01*
D12*
%TO.P,C7,1*%
X47500000Y20525000D03*
D13*
%TO.P,C7,2*%
X47500000Y23475000D03*
%TD*%
D10*
%TO.C,C15*%
%TO.CFtp,C_1206_3216Metric*%
%TO.CVal,100nF*%
%TO.CLbN,Capacitor_SMD*%
%TO.CMnt,SMD*%
%TO.CRot,0*%
X63000000Y7000000D03*
D11*
X65299999Y8149999D02*
X65299999Y5850001D01*
X60700001Y5850001D01*
X60700001Y8149999D01*
X65299999Y8149999D01*
D12*
%TO.P,C15,1*%
X61525000Y7000000D03*
D13*
%TO.P,C15,2*%
X64475000Y7000000D03*
%TD*%
D10*
%TO.C,R1*%
%TO.CFtp,R_1206_3216Metric*%
%TO.CVal,18R*%
%TO.CLbN,Resistor_SMD*%
%TO.CMnt,SMD*%
%TO.CRot,-90*%
X52250000Y22000000D03*
D11*
X53369999Y24279999D02*
X53369999Y19720001D01*
X51130001Y19720001D01*
X51130001Y24279999D01*
X53369999Y24279999D01*
D12*
%TO.P,R1,1*%
X52250000Y23462500D03*
D13*
%TO.P,R1,2*%
X52250000Y20537500D03*
%TD*%
D10*
%TO.C,R3*%
%TO.CFtp,R_1206_3216Metric*%
%TO.CVal,10K*%
%TO.CLbN,Resistor_SMD*%
%TO.CMnt,SMD*%
%TO.CRot,90*%
X73250000Y22000000D03*
D11*
X74369999Y24279999D02*
X74369999Y19720001D01*
X72130001Y19720001D01*
X72130001Y24279999D01*
X74369999Y24279999D01*
D12*
%TO.P,R3,1*%
X73250000Y20537500D03*
D13*
%TO.P,R3,2*%
X73250000Y23462500D03*
%TD*%
D10*
%TO.C,FB4*%
%TO.CFtp,L_1206_3216Metric*%
%TO.CVal,ILHB1206ER750V*%
%TO.CLbN,Inductor_SMD*%
%TO.CMnt,SMD*%
%TO.CRot,90*%
X83000000Y22000000D03*
D11*
X84199999Y24349999D02*
X84199999Y19650001D01*
X81800001Y19650001D01*
X81800001Y24349999D01*
X84199999Y24349999D01*
D12*
%TO.P,FB4,1*%
X83000000Y20425000D03*
D13*
%TO.P,FB4,2*%
X83000000Y23575000D03*
%TD*%
D10*
%TO.C,D1*%
%TO.CFtp,SOT95P240X120-3N*%
%TO.CVal,BAV99-7-F*%
%TO.CLbN,PICO_ADC_Test*%
%TO.CMnt,SMD*%
%TO.CRot,90*%
X75000000Y39500000D03*
D11*
X76749999Y41374999D02*
X76749999Y37625001D01*
X73250001Y37625001D01*
X73250001Y41374999D01*
X76749999Y41374999D01*
D12*
%TO.P,D1,1*%
X74050000Y38300000D03*
D13*
%TO.P,D1,2*%
X75950000Y38300000D03*
%TO.P,D1,3*%
X75000000Y40700000D03*
%TD*%
D10*
%TO.C,C20*%
%TO.CFtp,C_1206_3216Metric*%
%TO.CVal,50pF*%
%TO.CLbN,Capacitor_SMD*%
%TO.CMnt,SMD*%
%TO.CRot,90*%
X63750000Y14750000D03*
D11*
X64899999Y17049999D02*
X64899999Y12450001D01*
X62600001Y12450001D01*
X62600001Y17049999D01*
X64899999Y17049999D01*
D12*
%TO.P,C20,1*%
X63750000Y13275000D03*
D13*
%TO.P,C20,2*%
X63750000Y16225000D03*
%TD*%
D10*
%TO.C,J4*%
%TO.CFtp,PinHeader_1x04_P2.54mm_Vertical*%
%TO.CVal,61300411121*%
%TO.CLbN,Connector_PinHeader_2.54mm*%
%TO.CMnt,TH*%
%TO.CRot,90*%
X46700000Y51500000D03*
D11*
X56099999Y53299999D02*
X56099999Y49700001D01*
X44900001Y49700001D01*
X44900001Y53299999D01*
X56099999Y53299999D01*
D12*
%TO.P,J4,1,1*%
X46700000Y51500000D03*
D13*
%TO.P,J4,2,2*%
X49240000Y51500000D03*
%TO.P,J4,3,3*%
X51780000Y51500000D03*
%TO.P,J4,4,4*%
X54320000Y51500000D03*
%TD*%
D10*
%TO.C,FB5*%
%TO.CFtp,L_1206_3216Metric*%
%TO.CVal,ILHB1206ER750V*%
%TO.CLbN,Inductor_SMD*%
%TO.CMnt,SMD*%
%TO.CRot,90*%
X78000000Y30275000D03*
D11*
X79199999Y32624999D02*
X79199999Y27925001D01*
X76800001Y27925001D01*
X76800001Y32624999D01*
X79199999Y32624999D01*
D12*
%TO.P,FB5,1*%
X78000000Y28700000D03*
D13*
%TO.P,FB5,2*%
X78000000Y31850000D03*
%TD*%
D10*
%TO.C,C8*%
%TO.CFtp,C_1206_3216Metric*%
%TO.CVal,100nF*%
%TO.CLbN,Capacitor_SMD*%
%TO.CMnt,SMD*%
%TO.CRot,90*%
X49750000Y22000000D03*
D11*
X50899999Y24299999D02*
X50899999Y19700001D01*
X48600001Y19700001D01*
X48600001Y24299999D01*
X50899999Y24299999D01*
D12*
%TO.P,C8,1*%
X49750000Y20525000D03*
D13*
%TO.P,C8,2*%
X49750000Y23475000D03*
%TD*%
D10*
%TO.C,J2*%
%TO.CFtp,PinHeader_1x02_P2.54mm_Vertical*%
%TO.CVal,1-86479-3*%
%TO.CLbN,Connector_PinHeader_2.54mm*%
%TO.CMnt,TH*%
%TO.CRot,90*%
X10210000Y27250000D03*
D11*
X14559999Y29049999D02*
X14559999Y25450001D01*
X8410001Y25450001D01*
X8410001Y29049999D01*
X14559999Y29049999D01*
D12*
%TO.P,J2,1,Pin_1*%
X10210000Y27250000D03*
D13*
%TO.P,J2,2,Pin_2*%
X12750000Y27250000D03*
%TD*%
D10*
%TO.C,R9*%
%TO.CFtp,R_1206_3216Metric*%
%TO.CVal,12K*%
%TO.CLbN,Resistor_SMD*%
%TO.CMnt,SMD*%
%TO.CRot,180*%
X57250000Y25750000D03*
D11*
X59529999Y26869999D02*
X59529999Y24630001D01*
X54970001Y24630001D01*
X54970001Y26869999D01*
X59529999Y26869999D01*
D12*
%TO.P,R9,1*%
X58712500Y25750000D03*
D13*
%TO.P,R9,2*%
X55787500Y25750000D03*
%TD*%
D10*
%TO.C,FB3*%
%TO.CFtp,L_1206_3216Metric*%
%TO.CVal,ILHB1206ER750V*%
%TO.CLbN,Inductor_SMD*%
%TO.CMnt,SMD*%
%TO.CRot,-90*%
X68500000Y22000000D03*
D11*
X69699999Y24349999D02*
X69699999Y19650001D01*
X67300001Y19650001D01*
X67300001Y24349999D01*
X69699999Y24349999D01*
D12*
%TO.P,FB3,1*%
X68500000Y23575000D03*
D13*
%TO.P,FB3,2*%
X68500000Y20425000D03*
%TD*%
D10*
%TO.C,C4*%
%TO.CFtp,C_1206_3216Metric*%
%TO.CVal,100nF*%
%TO.CLbN,Capacitor_SMD*%
%TO.CMnt,SMD*%
%TO.CRot,90*%
X56750000Y22000000D03*
D11*
X57899999Y24299999D02*
X57899999Y19700001D01*
X55600001Y19700001D01*
X55600001Y24299999D01*
X57899999Y24299999D01*
D12*
%TO.P,C4,1*%
X56750000Y20525000D03*
D13*
%TO.P,C4,2*%
X56750000Y23475000D03*
%TD*%
D10*
%TO.C,FB1*%
%TO.CFtp,L_1206_3216Metric*%
%TO.CVal,ILHB1206ER750V*%
%TO.CLbN,Inductor_SMD*%
%TO.CMnt,SMD*%
%TO.CRot,-90*%
X66000000Y22000000D03*
D11*
X67199999Y24349999D02*
X67199999Y19650001D01*
X64800001Y19650001D01*
X64800001Y24349999D01*
X67199999Y24349999D01*
D12*
%TO.P,FB1,1*%
X66000000Y23575000D03*
D13*
%TO.P,FB1,2*%
X66000000Y20425000D03*
%TD*%
D10*
%TO.C,C23*%
%TO.CFtp,C_1206_3216Metric*%
%TO.CVal,1nF*%
%TO.CLbN,Capacitor_SMD*%
%TO.CMnt,SMD*%
%TO.CRot,-90*%
X75750000Y30250000D03*
D11*
X76899999Y32549999D02*
X76899999Y27950001D01*
X74600001Y27950001D01*
X74600001Y32549999D01*
X76899999Y32549999D01*
D12*
%TO.P,C23,1*%
X75750000Y31725000D03*
D13*
%TO.P,C23,2*%
X75750000Y28775000D03*
%TD*%
D10*
%TO.C,J3*%
%TO.CFtp,PinSocket_1x06_P2.54mm_Horizontal*%
%TO.CVal,61300611121*%
%TO.CLbN,Connector_PinSocket_2.54mm*%
%TO.CMnt,TH*%
%TO.CRot,0*%
X10210000Y45030000D03*
D11*
X11959999Y46829999D02*
X11959999Y30580001D01*
X-339999Y30580001D01*
X-339999Y46829999D01*
X11959999Y46829999D01*
D12*
%TO.P,J3,1,Pin_1*%
X10210000Y45030000D03*
D13*
%TO.P,J3,2,Pin_2*%
X10210000Y42490000D03*
%TO.P,J3,3,Pin_3*%
X10210000Y39950000D03*
%TO.P,J3,4,Pin_4*%
X10210000Y37410000D03*
%TO.P,J3,5,Pin_5*%
X10210000Y34870000D03*
%TO.P,J3,6,Pin_6*%
X10210000Y32330000D03*
%TD*%
D10*
%TO.C,C17*%
%TO.CFtp,C_1206_3216Metric*%
%TO.CVal,100nF*%
%TO.CLbN,Capacitor_SMD*%
%TO.CMnt,SMD*%
%TO.CRot,180*%
X57250000Y28000000D03*
D11*
X59549999Y29149999D02*
X59549999Y26850001D01*
X54950001Y26850001D01*
X54950001Y29149999D01*
X59549999Y29149999D01*
D12*
%TO.P,C17,1*%
X58725000Y28000000D03*
D13*
%TO.P,C17,2*%
X55775000Y28000000D03*
%TD*%
D10*
%TO.C,IC3*%
%TO.CFtp,MCP4812-EMS*%
%TO.CVal,MCP4812-E_MS*%
%TO.CLbN,PICO_ADC_Test*%
%TO.CMnt,SMD*%
%TO.CRot,0*%
X56450000Y34375000D03*
D11*
X59599999Y36124999D02*
X59599999Y32625001D01*
X53300001Y32625001D01*
X53300001Y36124999D01*
X59599999Y36124999D01*
D12*
%TO.P,IC3,1,VDD*%
X54250000Y35350000D03*
D13*
%TO.P,IC3,2,~{CS}*%
X54250000Y34700000D03*
%TO.P,IC3,3,SCK*%
X54250000Y34050000D03*
%TO.P,IC3,4,SDI*%
X54250000Y33400000D03*
%TO.P,IC3,5,~{LDAC}*%
X58650000Y33400000D03*
%TO.P,IC3,6,VOUTB*%
X58650000Y34050000D03*
%TO.P,IC3,7,VSS*%
X58650000Y34700000D03*
%TO.P,IC3,8,VOUTA*%
X58650000Y35350000D03*
%TD*%
D10*
%TO.C,C10*%
%TO.CFtp,C_1206_3216Metric*%
%TO.CVal,100nF*%
%TO.CLbN,Capacitor_SMD*%
%TO.CMnt,SMD*%
%TO.CRot,-90*%
X58800000Y38975000D03*
D11*
X59949999Y41274999D02*
X59949999Y36675001D01*
X57650001Y36675001D01*
X57650001Y41274999D01*
X59949999Y41274999D01*
D12*
%TO.P,C10,1*%
X58800000Y40450000D03*
D13*
%TO.P,C10,2*%
X58800000Y37500000D03*
%TD*%
D10*
%TO.C,C5*%
%TO.CFtp,C_1206_3216Metric*%
%TO.CVal,100nF*%
%TO.CLbN,Capacitor_SMD*%
%TO.CMnt,SMD*%
%TO.CRot,-90*%
X69500000Y39000000D03*
D11*
X70649999Y41299999D02*
X70649999Y36700001D01*
X68350001Y36700001D01*
X68350001Y41299999D01*
X70649999Y41299999D01*
D12*
%TO.P,C5,1*%
X69500000Y40475000D03*
D13*
%TO.P,C5,2*%
X69500000Y37525000D03*
%TD*%
D10*
%TO.C,IC1*%
%TO.CFtp,SOP65P640X120-28N*%
%TO.CVal,ADC10065CIMT_NOPB*%
%TO.CLbN,PICO_ADC_Test*%
%TO.CMnt,SMD*%
%TO.CRot,180*%
X52500000Y11287500D03*
D11*
X56424999Y16437499D02*
X56424999Y6137501D01*
X48575001Y6137501D01*
X48575001Y16437499D01*
X56424999Y16437499D01*
D12*
%TO.P,IC1,1,CLK*%
X55438000Y7062500D03*
D13*
%TO.P,IC1,2,VDDA_1*%
X55438000Y7712500D03*
%TO.P,IC1,3,VSSA_1*%
X55438000Y8362500D03*
%TO.P,IC1,4,VCOM*%
X55438000Y9012500D03*
%TO.P,IC1,5,IRS*%
X55438000Y9662500D03*
%TO.P,IC1,6,VREF*%
X55438000Y10312500D03*
%TO.P,IC1,7,VREFT*%
X55438000Y10962500D03*
%TO.P,IC1,8,VREFB*%
X55438000Y11612500D03*
%TO.P,IC1,9,VDDA_2*%
X55438000Y12262500D03*
%TO.P,IC1,10,VDDA_3*%
X55438000Y12912500D03*
%TO.P,IC1,11,VSSA_2*%
X55438000Y13562500D03*
%TO.P,IC1,12,VIN-*%
X55438000Y14212500D03*
%TO.P,IC1,13,VIN+*%
X55438000Y14862500D03*
%TO.P,IC1,14,VSSA_3*%
X55438000Y15512500D03*
%TO.P,IC1,15,DF*%
X49562000Y15512500D03*
%TO.P,IC1,16,D9*%
X49562000Y14862500D03*
%TO.P,IC1,17,D8*%
X49562000Y14212500D03*
%TO.P,IC1,18,D7*%
X49562000Y13562500D03*
%TO.P,IC1,19,D6*%
X49562000Y12912500D03*
%TO.P,IC1,20,D5*%
X49562000Y12262500D03*
%TO.P,IC1,21,VSSIO*%
X49562000Y11612500D03*
%TO.P,IC1,22,VDDIO*%
X49562000Y10962500D03*
%TO.P,IC1,23,D4*%
X49562000Y10312500D03*
%TO.P,IC1,24,D3*%
X49562000Y9662500D03*
%TO.P,IC1,25,D2*%
X49562000Y9012500D03*
%TO.P,IC1,26,D1*%
X49562000Y8362500D03*
%TO.P,IC1,27,D0*%
X49562000Y7712500D03*
%TO.P,IC1,28,STBY*%
X49562000Y7062500D03*
%TD*%
D10*
%TO.C,C11*%
%TO.CFtp,C_1206_3216Metric*%
%TO.CVal,100nF*%
%TO.CLbN,Capacitor_SMD*%
%TO.CMnt,SMD*%
%TO.CRot,-90*%
X61200000Y38975000D03*
D11*
X62349999Y41274999D02*
X62349999Y36675001D01*
X60050001Y36675001D01*
X60050001Y41274999D01*
X62349999Y41274999D01*
D12*
%TO.P,C11,1*%
X61200000Y40450000D03*
D13*
%TO.P,C11,2*%
X61200000Y37500000D03*
%TD*%
D10*
%TO.C,J1*%
%TO.CFtp,AMPHENOL_132357-11*%
%TO.CVal,AMPHENOL_132357-11*%
%TO.CLbN,PICO_ADC_Test*%
%TO.CMnt,Other*%
%TO.CRot,-90*%
X71000000Y52750000D03*
D14*
X77650000Y53925000D02*
X64350000Y53925000D01*
X64350000Y48725000D01*
X77650000Y48725000D01*
X77650000Y53925000D01*
D12*
%TO.P,J1,1,1*%
X71000000Y52750000D03*
D13*
%TO.P,J1,2,2*%
X75250000Y51175000D03*
X66750000Y51175000D03*
%TD*%
D10*
%TO.C,C6*%
%TO.CFtp,C_1206_3216Metric*%
%TO.CVal,18nF*%
%TO.CLbN,Capacitor_SMD*%
%TO.CMnt,SMD*%
%TO.CRot,90*%
X67000000Y39000000D03*
D11*
X68149999Y41299999D02*
X68149999Y36700001D01*
X65850001Y36700001D01*
X65850001Y41299999D01*
X68149999Y41299999D01*
D12*
%TO.P,C6,1*%
X67000000Y37525000D03*
D13*
%TO.P,C6,2*%
X67000000Y40475000D03*
%TD*%
D10*
%TO.C,U1*%
%TO.CFtp,SOT-89-3*%
%TO.CVal,MD0100N8-G*%
%TO.CLbN,Package_TO_SOT_SMD*%
%TO.CMnt,SMD*%
%TO.CRot,0*%
X76750000Y44250000D03*
D11*
X78999999Y46749999D02*
X78999999Y41750001D01*
X73900001Y41750001D01*
X73900001Y46749999D01*
X78999999Y46749999D01*
D12*
%TO.P,U1,1,A*%
X74800000Y45750000D03*
D13*
%TO.P,U1,2,COM*%
X74887500Y44250000D03*
%TO.P,U1,3,B*%
X74800000Y42750000D03*
%TD*%
D10*
%TO.C,C22*%
%TO.CFtp,C_1206_3216Metric*%
%TO.CVal,100nF*%
%TO.CLbN,Capacitor_SMD*%
%TO.CMnt,SMD*%
%TO.CRot,90*%
X80500000Y22000000D03*
D11*
X81649999Y24299999D02*
X81649999Y19700001D01*
X79350001Y19700001D01*
X79350001Y24299999D01*
X81649999Y24299999D01*
D12*
%TO.P,C22,1*%
X80500000Y20525000D03*
D13*
%TO.P,C22,2*%
X80500000Y23475000D03*
%TD*%
D10*
%TO.C,C24*%
%TO.CFtp,C_1206_3216Metric*%
%TO.CVal,100nF*%
%TO.CLbN,Capacitor_SMD*%
%TO.CMnt,SMD*%
%TO.CRot,-90*%
X73500000Y30250000D03*
D11*
X74649999Y32549999D02*
X74649999Y27950001D01*
X72350001Y27950001D01*
X72350001Y32549999D01*
X74649999Y32549999D01*
D12*
%TO.P,C24,1*%
X73500000Y31725000D03*
D13*
%TO.P,C24,2*%
X73500000Y28775000D03*
%TD*%
D10*
%TO.C,FB2*%
%TO.CFtp,L_1206_3216Metric*%
%TO.CVal,ILHB1206ER750V*%
%TO.CLbN,Inductor_SMD*%
%TO.CMnt,SMD*%
%TO.CRot,180*%
X70750000Y42750000D03*
D11*
X73099999Y43949999D02*
X73099999Y41550001D01*
X68400001Y41550001D01*
X68400001Y43949999D01*
X73099999Y43949999D01*
D12*
%TO.P,FB2,1*%
X72325000Y42750000D03*
D13*
%TO.P,FB2,2*%
X69175000Y42750000D03*
%TD*%
D10*
%TO.C,C12*%
%TO.CFtp,C_1206_3216Metric*%
%TO.CVal,22pF*%
%TO.CLbN,Capacitor_SMD*%
%TO.CMnt,SMD*%
%TO.CRot,90*%
X72000000Y39000000D03*
D11*
X73149999Y41299999D02*
X73149999Y36700001D01*
X70850001Y36700001D01*
X70850001Y41299999D01*
X73149999Y41299999D01*
D12*
%TO.P,C12,1*%
X72000000Y37525000D03*
D13*
%TO.P,C12,2*%
X72000000Y40475000D03*
%TD*%
D10*
%TO.C,J5*%
%TO.CFtp,PinHeader_1x02_P2.54mm_Vertical*%
%TO.CVal,1-86479-3*%
%TO.CLbN,Connector_PinHeader_2.54mm*%
%TO.CMnt,TH*%
%TO.CRot,90*%
X10210000Y50120000D03*
D11*
X14559999Y51919999D02*
X14559999Y48320001D01*
X8410001Y48320001D01*
X8410001Y51919999D01*
X14559999Y51919999D01*
D12*
%TO.P,J5,1,Pin_1*%
X10210000Y50120000D03*
D13*
%TO.P,J5,2,Pin_2*%
X12750000Y50120000D03*
%TD*%
D10*
%TO.C,R5*%
%TO.CFtp,R_1206_3216Metric*%
%TO.CVal,10K*%
%TO.CLbN,Resistor_SMD*%
%TO.CMnt,SMD*%
%TO.CRot,90*%
X61250000Y22000000D03*
D11*
X62369999Y24279999D02*
X62369999Y19720001D01*
X60130001Y19720001D01*
X60130001Y24279999D01*
X62369999Y24279999D01*
D12*
%TO.P,R5,1*%
X61250000Y20537500D03*
D13*
%TO.P,R5,2*%
X61250000Y23462500D03*
%TD*%
D10*
%TO.C,R10*%
%TO.CFtp,R_1206_3216Metric*%
%TO.CVal,18R*%
%TO.CLbN,Resistor_SMD*%
%TO.CMnt,SMD*%
%TO.CRot,0*%
X67250000Y13750000D03*
D11*
X69529999Y14869999D02*
X69529999Y12630001D01*
X64970001Y12630001D01*
X64970001Y14869999D01*
X69529999Y14869999D01*
D12*
%TO.P,R10,1*%
X65787500Y13750000D03*
D13*
%TO.P,R10,2*%
X68712500Y13750000D03*
%TD*%
D10*
%TO.C,C18*%
%TO.CFtp,C_1206_3216Metric*%
%TO.CVal,1nF*%
%TO.CLbN,Capacitor_SMD*%
%TO.CMnt,SMD*%
%TO.CRot,-90*%
X61500000Y31750000D03*
D11*
X62649999Y34049999D02*
X62649999Y29450001D01*
X60350001Y29450001D01*
X60350001Y34049999D01*
X62649999Y34049999D01*
D12*
%TO.P,C18,1*%
X61500000Y33225000D03*
D13*
%TO.P,C18,2*%
X61500000Y30275000D03*
%TD*%
D10*
%TO.C,C16*%
%TO.CFtp,C_1206_3216Metric*%
%TO.CVal,100nF*%
%TO.CLbN,Capacitor_SMD*%
%TO.CMnt,SMD*%
%TO.CRot,0*%
X63000000Y9250000D03*
D11*
X65299999Y10399999D02*
X65299999Y8100001D01*
X60700001Y8100001D01*
X60700001Y10399999D01*
X65299999Y10399999D01*
D12*
%TO.P,C16,1*%
X61525000Y9250000D03*
D13*
%TO.P,C16,2*%
X64475000Y9250000D03*
%TD*%
D10*
%TO.C,J7*%
%TO.CFtp,PinHeader_1x02_P2.54mm_Vertical*%
%TO.CVal,1-86479-3*%
%TO.CLbN,Connector_PinHeader_2.54mm*%
%TO.CMnt,TH*%
%TO.CRot,90*%
X10210000Y4390000D03*
D11*
X14559999Y6189999D02*
X14559999Y2590001D01*
X8410001Y2590001D01*
X8410001Y6189999D01*
X14559999Y6189999D01*
D12*
%TO.P,J7,1,Pin_1*%
X10210000Y4390000D03*
D13*
%TO.P,J7,2,Pin_2*%
X12750000Y4390000D03*
%TD*%
D10*
%TO.C,R6*%
%TO.CFtp,R_1206_3216Metric*%
%TO.CVal,10K*%
%TO.CLbN,Resistor_SMD*%
%TO.CMnt,SMD*%
%TO.CRot,90*%
X59000000Y22000000D03*
D11*
X60119999Y24279999D02*
X60119999Y19720001D01*
X57880001Y19720001D01*
X57880001Y24279999D01*
X60119999Y24279999D01*
D12*
%TO.P,R6,1*%
X59000000Y20537500D03*
D13*
%TO.P,R6,2*%
X59000000Y23462500D03*
%TD*%
D10*
%TO.C,R4*%
%TO.CFtp,R_1206_3216Metric*%
%TO.CVal,100R*%
%TO.CLbN,Resistor_SMD*%
%TO.CMnt,SMD*%
%TO.CRot,-90*%
X63750000Y22000000D03*
D11*
X64869999Y24279999D02*
X64869999Y19720001D01*
X62630001Y19720001D01*
X62630001Y24279999D01*
X64869999Y24279999D01*
D12*
%TO.P,R4,1*%
X63750000Y23462500D03*
D13*
%TO.P,R4,2*%
X63750000Y20537500D03*
%TD*%
D10*
%TO.C,R8*%
%TO.CFtp,R_1206_3216Metric*%
%TO.CVal,100R*%
%TO.CLbN,Resistor_SMD*%
%TO.CMnt,SMD*%
%TO.CRot,-90*%
X71000000Y22000000D03*
D11*
X72119999Y24279999D02*
X72119999Y19720001D01*
X69880001Y19720001D01*
X69880001Y24279999D01*
X72119999Y24279999D01*
D12*
%TO.P,R8,1*%
X71000000Y23462500D03*
D13*
%TO.P,R8,2*%
X71000000Y20537500D03*
%TD*%
D10*
%TO.C,U2*%
%TO.CFtp,RPi_Pico_SMD*%
%TO.CVal,Pico*%
%TO.CLbN,PICO_ADC_Test*%
%TO.CMnt,TH*%
%TO.CRot,180*%
X28500000Y26500000D03*
D11*
X39499999Y52499999D02*
X39499999Y500001D01*
X17500001Y500001D01*
X17500001Y52499999D01*
X39499999Y52499999D01*
D12*
%TO.P,U2,1,GPIO0*%
X37390000Y2370000D03*
D13*
%TO.P,U2,*%
X31225000Y2500000D03*
X30925000Y5530000D03*
X26075000Y5530000D03*
X25775000Y2500000D03*
%TO.P,U2,2,GPIO1*%
X37390000Y4910000D03*
%TO.P,U2,3,GND*%
X37390000Y7450000D03*
%TO.P,U2,4,GPIO2*%
X37390000Y9990000D03*
%TO.P,U2,5,GPIO3*%
X37390000Y12530000D03*
%TO.P,U2,6,GPIO4*%
X37390000Y15070000D03*
%TO.P,U2,7,GPIO5*%
X37390000Y17610000D03*
%TO.P,U2,8,GND*%
X37390000Y20150000D03*
%TO.P,U2,9,GPIO6*%
X37390000Y22690000D03*
%TO.P,U2,10,GPIO7*%
X37390000Y25230000D03*
%TO.P,U2,11,GPIO8*%
X37390000Y27770000D03*
%TO.P,U2,12,GPIO9*%
X37390000Y30310000D03*
%TO.P,U2,13,GND*%
X37390000Y32850000D03*
%TO.P,U2,14,GPIO10*%
X37390000Y35390000D03*
%TO.P,U2,15,GPIO11*%
X37390000Y37930000D03*
%TO.P,U2,16,GPIO12*%
X37390000Y40470000D03*
%TO.P,U2,17,GPIO13*%
X37390000Y43010000D03*
%TO.P,U2,18,GND*%
X37390000Y45550000D03*
%TO.P,U2,19,GPIO14*%
X37390000Y48090000D03*
%TO.P,U2,20,GPIO15*%
X37390000Y50630000D03*
%TO.P,U2,21,GPIO16*%
X19610000Y50630000D03*
%TO.P,U2,22,GPIO17*%
X19610000Y48090000D03*
%TO.P,U2,23,GND*%
X19610000Y45550000D03*
%TO.P,U2,24,GPIO18*%
X19610000Y43010000D03*
%TO.P,U2,25,GPIO19*%
X19610000Y40470000D03*
%TO.P,U2,26,GPIO20*%
X19610000Y37930000D03*
%TO.P,U2,27,GPIO21*%
X19610000Y35390000D03*
%TO.P,U2,28,GND*%
X19610000Y32850000D03*
%TO.P,U2,29,GPIO22*%
X19610000Y30310000D03*
%TO.P,U2,30,RUN*%
X19610000Y27770000D03*
%TO.P,U2,31,GPIO26_ADC0*%
X19610000Y25230000D03*
%TO.P,U2,32,GPIO27_ADC1*%
X19610000Y22690000D03*
%TO.P,U2,33,AGND*%
X19610000Y20150000D03*
%TO.P,U2,34,GPIO28_ADC2*%
X19610000Y17610000D03*
%TO.P,U2,35,ADC_VREF*%
X19610000Y15070000D03*
%TO.P,U2,36,3V3*%
X19610000Y12530000D03*
%TO.P,U2,37,3V3_EN*%
X19610000Y9990000D03*
%TO.P,U2,38,GND*%
X19610000Y7450000D03*
%TO.P,U2,39,VSYS*%
X19610000Y4910000D03*
%TO.P,U2,40,VBUS*%
X19610000Y2370000D03*
%TO.P,U2,41,SWCLK*%
X31040000Y50400000D03*
%TO.P,U2,42,GND*%
X28500000Y50400000D03*
%TO.P,U2,43,SWDIO*%
X25960000Y50400000D03*
%TD*%
D10*
%TO.C,C19*%
%TO.CFtp,C_1206_3216Metric*%
%TO.CVal,100nF*%
%TO.CLbN,Capacitor_SMD*%
%TO.CMnt,SMD*%
%TO.CRot,180*%
X57250000Y30500000D03*
D11*
X59549999Y31649999D02*
X59549999Y29350001D01*
X54950001Y29350001D01*
X54950001Y31649999D01*
X59549999Y31649999D01*
D12*
%TO.P,C19,1*%
X58725000Y30500000D03*
D13*
%TO.P,C19,2*%
X55775000Y30500000D03*
%TD*%
D10*
%TO.C,C14*%
%TO.CFtp,C_1206_3216Metric*%
%TO.CVal,100nF*%
%TO.CLbN,Capacitor_SMD*%
%TO.CMnt,SMD*%
%TO.CRot,0*%
X63000000Y4750000D03*
D11*
X65299999Y5899999D02*
X65299999Y3600001D01*
X60700001Y3600001D01*
X60700001Y5899999D01*
X65299999Y5899999D01*
D12*
%TO.P,C14,1*%
X61525000Y4750000D03*
D13*
%TO.P,C14,2*%
X64475000Y4750000D03*
%TD*%
D10*
%TO.C,R11*%
%TO.CFtp,R_1206_3216Metric*%
%TO.CVal,18R*%
%TO.CLbN,Resistor_SMD*%
%TO.CMnt,SMD*%
%TO.CRot,0*%
X67250000Y16000000D03*
D11*
X69529999Y17119999D02*
X69529999Y14880001D01*
X64970001Y14880001D01*
X64970001Y17119999D01*
X69529999Y17119999D01*
D12*
%TO.P,R11,1*%
X65787500Y16000000D03*
D13*
%TO.P,R11,2*%
X68712500Y16000000D03*
%TD*%
D10*
%TO.C,C2*%
%TO.CFtp,C_1206_3216Metric*%
%TO.CVal,100nF*%
%TO.CLbN,Capacitor_SMD*%
%TO.CMnt,SMD*%
%TO.CRot,0*%
X67250000Y18250000D03*
D11*
X69549999Y19399999D02*
X69549999Y17100001D01*
X64950001Y17100001D01*
X64950001Y19399999D01*
X69549999Y19399999D01*
D12*
%TO.P,C2,1*%
X65775000Y18250000D03*
D13*
%TO.P,C2,2*%
X68725000Y18250000D03*
%TD*%
D10*
%TO.C,R2*%
%TO.CFtp,R_1206_3216Metric*%
%TO.CVal,10K*%
%TO.CLbN,Resistor_SMD*%
%TO.CMnt,SMD*%
%TO.CRot,90*%
X75500000Y22000000D03*
D11*
X76619999Y24279999D02*
X76619999Y19720001D01*
X74380001Y19720001D01*
X74380001Y24279999D01*
X76619999Y24279999D01*
D12*
%TO.P,R2,1*%
X75500000Y20537500D03*
D13*
%TO.P,R2,2*%
X75500000Y23462500D03*
%TD*%
D10*
%TO.C,J6*%
%TO.CFtp,PinSocket_2x06_P2.54mm_Horizontal*%
%TO.CVal,90122-0126*%
%TO.CLbN,Connector_PinSocket_2.54mm*%
%TO.CMnt,TH*%
%TO.CRot,0*%
X12750000Y22170000D03*
D11*
X14549999Y23969999D02*
X14549999Y7720001D01*
X-299999Y7720001D01*
X-299999Y23969999D01*
X14549999Y23969999D01*
D12*
%TO.P,J6,1,1*%
X12750000Y22170000D03*
D13*
%TO.P,J6,2,2*%
X10210000Y22170000D03*
%TO.P,J6,3,3*%
X12750000Y19630000D03*
%TO.P,J6,4,4*%
X10210000Y19630000D03*
%TO.P,J6,5,5*%
X12750000Y17090000D03*
%TO.P,J6,6,6*%
X10210000Y17090000D03*
%TO.P,J6,7,7*%
X12750000Y14550000D03*
%TO.P,J6,8,8*%
X10210000Y14550000D03*
%TO.P,J6,9,9*%
X12750000Y12010000D03*
%TO.P,J6,10,10*%
X10210000Y12010000D03*
%TO.P,J6,11,11*%
X12750000Y9470000D03*
%TO.P,J6,12,12*%
X10210000Y9470000D03*
%TD*%
D10*
%TO.C,C1*%
%TO.CFtp,C_1206_3216Metric*%
%TO.CVal,100nF*%
%TO.CLbN,Capacitor_SMD*%
%TO.CMnt,SMD*%
%TO.CRot,180*%
X73500000Y35250000D03*
D11*
X75799999Y36399999D02*
X75799999Y34100001D01*
X71200001Y34100001D01*
X71200001Y36399999D01*
X75799999Y36399999D01*
D12*
%TO.P,C1,1*%
X74975000Y35250000D03*
D13*
%TO.P,C1,2*%
X72025000Y35250000D03*
%TD*%
M02*
