G04 #@! TF.GenerationSoftware,KiCad,Pcbnew,10.0.4-10.0.4~ubuntu22.04.1*
G04 #@! TF.CreationDate,2026-09-12T10:22:09+02:00*
G04 #@! TF.ProjectId,MAX14866_PMOD,4d415831-3438-4363-965f-504d4f442e6b,rev?*
G04 #@! TF.SameCoordinates,Original*
G04 #@! TF.FileFunction,Soldermask,Top*
G04 #@! TF.FilePolarity,Negative*
%FSLAX46Y46*%
G04 Gerber Fmt 4.6, Leading zero omitted, Abs format (unit mm)*
G04 Created by KiCad (PCBNEW 10.0.4-10.0.4~ubuntu22.04.1) date 2026-09-12 10:22:09*
%MOMM*%
%LPD*%
G01*
G04 APERTURE LIST*
%ADD10C,2.000000*%
%ADD11R,0.700000X2.350000*%
%ADD12R,3.600000X4.875000*%
%ADD13R,3.500000X4.875000*%
%ADD14R,1.700000X1.700000*%
%ADD15O,1.700000X1.700000*%
%ADD16R,0.254000X0.812800*%
%ADD17R,0.812800X0.254000*%
%ADD18R,5.588000X5.588000*%
G04 APERTURE END LIST*
D10*
X160750000Y-81500000D03*
D11*
X160750000Y-84500000D03*
D12*
X157450000Y-82937500D03*
D13*
X164000000Y-82937500D03*
G36*
G01*
X160725000Y-65125000D02*
X160725000Y-63875000D01*
G75*
G02*
X160975000Y-63625000I250000J0D01*
G01*
X161600000Y-63625000D01*
G75*
G02*
X161850000Y-63875000I0J-250000D01*
G01*
X161850000Y-65125000D01*
G75*
G02*
X161600000Y-65375000I-250000J0D01*
G01*
X160975000Y-65375000D01*
G75*
G02*
X160725000Y-65125000I0J250000D01*
G01*
G37*
G36*
G01*
X163650000Y-65125000D02*
X163650000Y-63875000D01*
G75*
G02*
X163900000Y-63625000I250000J0D01*
G01*
X164525000Y-63625000D01*
G75*
G02*
X164775000Y-63875000I0J-250000D01*
G01*
X164775000Y-65125000D01*
G75*
G02*
X164525000Y-65375000I-250000J0D01*
G01*
X163900000Y-65375000D01*
G75*
G02*
X163650000Y-65125000I0J250000D01*
G01*
G37*
D14*
X191710000Y-81990000D03*
D15*
X194250000Y-81990000D03*
D14*
X191710000Y-64210000D03*
D15*
X194250000Y-64210000D03*
X191710000Y-66750000D03*
X194250000Y-66750000D03*
X191710000Y-69290000D03*
X194250000Y-69290000D03*
X191710000Y-71830000D03*
X194250000Y-71830000D03*
X191710000Y-74370000D03*
X194250000Y-74370000D03*
X191710000Y-76910000D03*
X194250000Y-76910000D03*
D14*
X139300000Y-82030000D03*
D15*
X136760000Y-82030000D03*
D16*
X154750000Y-66545600D03*
X154250001Y-66545600D03*
X153749999Y-66545600D03*
X153250000Y-66545600D03*
X152750001Y-66545600D03*
X152250000Y-66545600D03*
X151750000Y-66545600D03*
X151249999Y-66545600D03*
X150750000Y-66545600D03*
X150250001Y-66545600D03*
X149749999Y-66545600D03*
X149250000Y-66545600D03*
D17*
X148545600Y-67250000D03*
X148545600Y-67749999D03*
X148545600Y-68250001D03*
X148545600Y-68750000D03*
X148545600Y-69249999D03*
X148545600Y-69750000D03*
X148545600Y-70250000D03*
X148545600Y-70750001D03*
X148545600Y-71250000D03*
X148545600Y-71749999D03*
X148545600Y-72250001D03*
X148545600Y-72750000D03*
D16*
X149250000Y-73454400D03*
X149749999Y-73454400D03*
X150250001Y-73454400D03*
X150750000Y-73454400D03*
X151249999Y-73454400D03*
X151750000Y-73454400D03*
X152250000Y-73454400D03*
X152750001Y-73454400D03*
X153250000Y-73454400D03*
X153749999Y-73454400D03*
X154250001Y-73454400D03*
X154750000Y-73454400D03*
D17*
X155454400Y-72750000D03*
X155454400Y-72250001D03*
X155454400Y-71749999D03*
X155454400Y-71250000D03*
X155454400Y-70750001D03*
X155454400Y-70250000D03*
X155454400Y-69750000D03*
X155454400Y-69249999D03*
X155454400Y-68750000D03*
X155454400Y-68250001D03*
X155454400Y-67749999D03*
X155454400Y-67250000D03*
D18*
X152000000Y-70000000D03*
D10*
X148250000Y-81500000D03*
G36*
G01*
X164754400Y-69600001D02*
X164754400Y-70900001D01*
G75*
G02*
X164504400Y-71150001I-250000J0D01*
G01*
X163854400Y-71150001D01*
G75*
G02*
X163604400Y-70900001I0J250000D01*
G01*
X163604400Y-69600001D01*
G75*
G02*
X163854400Y-69350001I250000J0D01*
G01*
X164504400Y-69350001D01*
G75*
G02*
X164754400Y-69600001I0J-250000D01*
G01*
G37*
G36*
G01*
X161804400Y-69600001D02*
X161804400Y-70900001D01*
G75*
G02*
X161554400Y-71150001I-250000J0D01*
G01*
X160904400Y-71150001D01*
G75*
G02*
X160654400Y-70900001I0J250000D01*
G01*
X160654400Y-69600001D01*
G75*
G02*
X160904400Y-69350001I250000J0D01*
G01*
X161554400Y-69350001D01*
G75*
G02*
X161804400Y-69600001I0J-250000D01*
G01*
G37*
D14*
X139300000Y-64250000D03*
D15*
X136760000Y-64250000D03*
X139300000Y-66790000D03*
X136760000Y-66790000D03*
X139300000Y-69330000D03*
X136760000Y-69330000D03*
X139300000Y-71870000D03*
X136760000Y-71870000D03*
X139300000Y-74410000D03*
X136760000Y-74410000D03*
X139300000Y-76950000D03*
X136760000Y-76950000D03*
D11*
X148250000Y-84500000D03*
D12*
X144950000Y-82937500D03*
D13*
X151500000Y-82937500D03*
G36*
G01*
X160725000Y-67375000D02*
X160725000Y-66125000D01*
G75*
G02*
X160975000Y-65875000I250000J0D01*
G01*
X161600000Y-65875000D01*
G75*
G02*
X161850000Y-66125000I0J-250000D01*
G01*
X161850000Y-67375000D01*
G75*
G02*
X161600000Y-67625000I-250000J0D01*
G01*
X160975000Y-67625000D01*
G75*
G02*
X160725000Y-67375000I0J250000D01*
G01*
G37*
G36*
G01*
X163650000Y-67375000D02*
X163650000Y-66125000D01*
G75*
G02*
X163900000Y-65875000I250000J0D01*
G01*
X164525000Y-65875000D01*
G75*
G02*
X164775000Y-66125000I0J-250000D01*
G01*
X164775000Y-67375000D01*
G75*
G02*
X164525000Y-67625000I-250000J0D01*
G01*
X163900000Y-67625000D01*
G75*
G02*
X163650000Y-67375000I0J250000D01*
G01*
G37*
G36*
G01*
X160725000Y-73375000D02*
X160725000Y-72125000D01*
G75*
G02*
X160975000Y-71875000I250000J0D01*
G01*
X161600000Y-71875000D01*
G75*
G02*
X161850000Y-72125000I0J-250000D01*
G01*
X161850000Y-73375000D01*
G75*
G02*
X161600000Y-73625000I-250000J0D01*
G01*
X160975000Y-73625000D01*
G75*
G02*
X160725000Y-73375000I0J250000D01*
G01*
G37*
G36*
G01*
X163650000Y-73375000D02*
X163650000Y-72125000D01*
G75*
G02*
X163900000Y-71875000I250000J0D01*
G01*
X164525000Y-71875000D01*
G75*
G02*
X164775000Y-72125000I0J-250000D01*
G01*
X164775000Y-73375000D01*
G75*
G02*
X164525000Y-73625000I-250000J0D01*
G01*
X163900000Y-73625000D01*
G75*
G02*
X163650000Y-73375000I0J250000D01*
G01*
G37*
G36*
G01*
X164800000Y-74600000D02*
X164800000Y-75900000D01*
G75*
G02*
X164550000Y-76150000I-250000J0D01*
G01*
X163900000Y-76150000D01*
G75*
G02*
X163650000Y-75900000I0J250000D01*
G01*
X163650000Y-74600000D01*
G75*
G02*
X163900000Y-74350000I250000J0D01*
G01*
X164550000Y-74350000D01*
G75*
G02*
X164800000Y-74600000I0J-250000D01*
G01*
G37*
G36*
G01*
X161850000Y-74600000D02*
X161850000Y-75900000D01*
G75*
G02*
X161600000Y-76150000I-250000J0D01*
G01*
X160950000Y-76150000D01*
G75*
G02*
X160700000Y-75900000I0J250000D01*
G01*
X160700000Y-74600000D01*
G75*
G02*
X160950000Y-74350000I250000J0D01*
G01*
X161600000Y-74350000D01*
G75*
G02*
X161850000Y-74600000I0J-250000D01*
G01*
G37*
D14*
X187500000Y-80710000D03*
D15*
X187500000Y-83250000D03*
X184960000Y-80710000D03*
X184960000Y-83250000D03*
X182420000Y-80710000D03*
X182420000Y-83250000D03*
X179880000Y-80710000D03*
X179880000Y-83250000D03*
X177340000Y-80710000D03*
X177340000Y-83250000D03*
X174800000Y-80710000D03*
X174800000Y-83250000D03*
X172260000Y-80710000D03*
X172260000Y-83250000D03*
X169720000Y-80710000D03*
X169720000Y-83250000D03*
M02*
