M48
; DRILL file KiCad 10.0.4-10.0.4~ubuntu22.04.1 date 2026-09-12T00:20:09
; FORMAT={-:-/ absolute / metric / decimal}
; #@! TF.CreationDate,2026-09-12T00:20:09+02:00
; #@! TF.GenerationSoftware,Kicad,Pcbnew,10.0.4-10.0.4~ubuntu22.04.1
; #@! TF.FileFunction,Plated,1,2,PTH
FMAT,2
METRIC
; #@! TA.AperFunction,Plated,PTH,ViaDrill
T1C0.300
; #@! TA.AperFunction,Plated,PTH,ComponentDrill
T2C1.000
%
G90
G05
T1
X135.0Y-80.0
X135.0Y-81.5
X135.0Y-83.0
X135.0Y-84.25
X137.5Y-79.25
X139.0Y-79.25
X141.75Y-64.0
X141.75Y-65.5
X141.75Y-67.0
X141.75Y-68.5
X141.75Y-69.75
X142.0Y-81.5
X142.0Y-83.0
X142.0Y-84.25
X143.75Y-64.0
X144.95Y-72.65
X145.2Y-66.05
X145.5Y-64.0
X145.5Y-68.0
X145.85Y-73.3
X146.25Y-69.0
X146.25Y-71.0
X146.75Y-66.5
X147.45Y-73.6
X147.75Y-64.0
X147.75Y-66.75
X147.9Y-74.45
X149.95Y-67.8
X150.0Y-68.7
X150.5Y-65.4
X150.55Y-74.65
X151.0Y-67.8
X151.0Y-68.7
X151.45Y-74.95
X151.5Y-65.25
X152.2Y-67.8
X152.2Y-68.7
X153.3Y-67.8
X153.3Y-68.7
X153.95Y-75.0
X154.0Y-65.25
X154.35Y-67.8
X154.35Y-68.7
X154.5Y-80.5
X154.5Y-81.75
X154.5Y-83.25
X154.5Y-84.45
X154.8Y-64.9
X154.95Y-75.05
X155.65Y-64.9
X156.25Y-66.15
X156.25Y-75.75
X156.6Y-63.9
X157.05Y-64.8
X157.15Y-73.25
X157.85Y-63.9
X158.6Y-66.25
X158.7Y-67.15
X159.2Y-63.9
X159.35Y-65.55
X159.35Y-67.75
X162.77Y-62.84
X163.75Y-78.0
X165.5Y-68.75
X165.8Y-64.3
X166.0Y-75.25
X166.75Y-75.75
X166.75Y-77.25
X166.75Y-81.75
X166.75Y-83.25
X166.75Y-84.45
X167.0Y-68.75
X167.1Y-64.3
X167.25Y-76.5
X167.75Y-80.25
X169.5Y-65.65
X170.0Y-73.1
X170.2Y-66.35
X170.25Y-78.0
X171.85Y-67.05
X172.25Y-68.75
X174.05Y-76.75
X174.15Y-64.3
X175.25Y-68.8
X175.9Y-64.3
X176.6Y-70.05
X177.05Y-71.7
X177.95Y-64.3
X178.25Y-68.8
X178.5Y-73.25
X179.95Y-63.9
X180.5Y-71.0
X180.5Y-74.75
X180.85Y-64.9
X182.35Y-66.5
X182.5Y-64.05
X183.65Y-67.95
X184.0Y-65.75
X184.3Y-74.0
X185.15Y-75.25
X185.65Y-67.8
X186.0Y-70.4
X186.15Y-75.25
X186.75Y-65.5
X187.2Y-71.45
X187.25Y-66.662
X187.4Y-67.9
X188.35Y-70.45
X189.15Y-64.0
X189.25Y-65.8
X189.45Y-67.5
X189.55Y-80.2
X190.0Y-84.0
X190.05Y-77.45
X193.0Y-84.0
X196.0Y-84.0
T2
X136.76Y-64.25
X136.76Y-66.79
X136.76Y-69.33
X136.76Y-71.87
X136.76Y-74.41
X136.76Y-76.95
X136.76Y-82.03
X139.3Y-64.25
X139.3Y-66.79
X139.3Y-69.33
X139.3Y-71.87
X139.3Y-74.41
X139.3Y-76.95
X139.3Y-82.03
X148.25Y-81.5
X160.75Y-81.5
X169.72Y-80.71
X169.72Y-83.25
X172.26Y-80.71
X172.26Y-83.25
X174.8Y-80.71
X174.8Y-83.25
X177.34Y-80.71
X177.34Y-83.25
X179.88Y-80.71
X179.88Y-83.25
X182.42Y-80.71
X182.42Y-83.25
X184.96Y-80.71
X184.96Y-83.25
X187.5Y-80.71
X187.5Y-83.25
X191.71Y-64.21
X191.71Y-66.75
X191.71Y-69.29
X191.71Y-71.83
X191.71Y-74.37
X191.71Y-76.91
X191.71Y-81.99
X194.25Y-64.21
X194.25Y-66.75
X194.25Y-69.29
X194.25Y-71.83
X194.25Y-74.37
X194.25Y-76.91
X194.25Y-81.99
M30
