G04 #@! TF.GenerationSoftware,KiCad,Pcbnew,10.0.4-10.0.4~ubuntu22.04.1*
G04 #@! TF.CreationDate,2026-09-12T00:20:09+02:00*
G04 #@! TF.ProjectId,MAX14866_PMOD,4d415831-3438-4363-965f-504d4f442e6b,rev?*
G04 #@! TF.SameCoordinates,Original*
G04 #@! TF.FileFunction,Soldermask,Bot*
G04 #@! TF.FilePolarity,Negative*
%FSLAX46Y46*%
G04 Gerber Fmt 4.6, Leading zero omitted, Abs format (unit mm)*
G04 Created by KiCad (PCBNEW 10.0.4-10.0.4~ubuntu22.04.1) date 2026-09-12 00:20:09*
%MOMM*%
%LPD*%
G01*
G04 APERTURE LIST*
%ADD10C,0.000000*%
%ADD11C,2.000000*%
%ADD12R,3.500000X4.875000*%
%ADD13R,1.700000X1.700000*%
%ADD14O,1.700000X1.700000*%
G04 APERTURE END LIST*
D10*
G36*
X165431310Y-64929547D02*
G01*
X165453581Y-64929650D01*
X165467731Y-64929814D01*
X165472821Y-64930040D01*
X165472823Y-64930043D01*
X165473944Y-64935159D01*
X165477049Y-64949798D01*
X165482083Y-64973699D01*
X165488991Y-65006599D01*
X165497719Y-65048235D01*
X165508212Y-65098344D01*
X165520414Y-65156665D01*
X165534272Y-65222934D01*
X165549729Y-65296889D01*
X165566733Y-65378268D01*
X165585227Y-65466808D01*
X165605157Y-65562245D01*
X165626468Y-65664319D01*
X165649105Y-65772765D01*
X165673014Y-65887322D01*
X165698139Y-66007727D01*
X165724427Y-66133717D01*
X165751821Y-66265030D01*
X165780268Y-66401404D01*
X165809713Y-66542575D01*
X165840100Y-66688281D01*
X165871374Y-66838260D01*
X165903482Y-66992249D01*
X165936369Y-67149985D01*
X165969979Y-67311206D01*
X166004257Y-67475649D01*
X166039149Y-67643052D01*
X166074601Y-67813152D01*
X166110557Y-67985687D01*
X166111305Y-67989277D01*
X166147252Y-68161756D01*
X166182698Y-68331791D01*
X166217589Y-68499119D01*
X166251869Y-68663479D01*
X166285483Y-68824607D01*
X166318377Y-68982242D01*
X166350496Y-69136121D01*
X166381784Y-69285981D01*
X166412187Y-69431560D01*
X166441650Y-69572596D01*
X166470118Y-69708826D01*
X166497536Y-69839988D01*
X166523849Y-69965820D01*
X166549002Y-70086058D01*
X166572941Y-70200440D01*
X166595610Y-70308705D01*
X166616954Y-70410590D01*
X166636919Y-70505831D01*
X166655449Y-70594168D01*
X166672490Y-70675337D01*
X166687986Y-70749075D01*
X166701884Y-70815121D01*
X166714127Y-70873213D01*
X166724661Y-70923087D01*
X166733431Y-70964481D01*
X166740383Y-70997133D01*
X166745460Y-71020780D01*
X166748609Y-71035160D01*
X166749774Y-71040011D01*
X166749792Y-71039996D01*
X166751195Y-71034645D01*
X166754581Y-71019983D01*
X166759853Y-70996456D01*
X166766915Y-70964510D01*
X166775671Y-70924591D01*
X166786023Y-70877145D01*
X166797876Y-70822619D01*
X166811133Y-70761457D01*
X166825697Y-70694108D01*
X166841472Y-70621015D01*
X166858362Y-70542627D01*
X166876270Y-70459388D01*
X166895099Y-70371745D01*
X166914753Y-70280144D01*
X166935136Y-70185031D01*
X166956152Y-70086852D01*
X166977702Y-69986053D01*
X167202904Y-68932123D01*
X167480202Y-68930873D01*
X167757500Y-68929623D01*
X167979807Y-69980188D01*
X167980277Y-69982408D01*
X168001582Y-70083038D01*
X168022356Y-70181050D01*
X168042501Y-70275997D01*
X168061923Y-70367430D01*
X168080525Y-70454903D01*
X168098211Y-70537966D01*
X168114886Y-70616171D01*
X168130453Y-70689071D01*
X168144818Y-70756217D01*
X168157884Y-70817161D01*
X168169554Y-70871456D01*
X168179734Y-70918653D01*
X168188328Y-70958303D01*
X168195239Y-70989960D01*
X168200372Y-71013175D01*
X168203631Y-71027500D01*
X168204920Y-71032487D01*
X168205466Y-71029460D01*
X168207165Y-71017024D01*
X168209951Y-70995323D01*
X168213780Y-70964726D01*
X168218606Y-70925605D01*
X168224387Y-70878330D01*
X168231076Y-70823273D01*
X168238631Y-70760805D01*
X168247006Y-70691296D01*
X168256156Y-70615117D01*
X168266038Y-70532640D01*
X168276608Y-70444236D01*
X168287820Y-70350274D01*
X168299630Y-70251128D01*
X168311994Y-70147166D01*
X168324867Y-70038761D01*
X168338205Y-69926284D01*
X168351963Y-69810104D01*
X168366098Y-69690594D01*
X168380564Y-69568125D01*
X168395317Y-69443066D01*
X168582906Y-67851910D01*
X168841688Y-67850615D01*
X169100471Y-67849320D01*
X169097604Y-67865618D01*
X169096953Y-67869811D01*
X169094856Y-67883667D01*
X169091376Y-67906797D01*
X169086565Y-67938862D01*
X169080473Y-67979520D01*
X169073151Y-68028430D01*
X169064651Y-68085252D01*
X169055022Y-68149645D01*
X169044316Y-68221268D01*
X169032584Y-68299780D01*
X169019877Y-68384840D01*
X169006246Y-68476109D01*
X168991740Y-68573244D01*
X168976413Y-68675905D01*
X168960313Y-68783751D01*
X168943493Y-68896442D01*
X168926003Y-69013636D01*
X168907894Y-69134993D01*
X168889216Y-69260172D01*
X168870022Y-69388832D01*
X168850361Y-69520633D01*
X168830285Y-69655233D01*
X168809845Y-69792292D01*
X168793790Y-69899948D01*
X168773585Y-70035430D01*
X168753771Y-70168289D01*
X168734400Y-70298178D01*
X168715523Y-70424750D01*
X168697192Y-70547661D01*
X168679459Y-70666563D01*
X168662374Y-70781111D01*
X168645991Y-70890958D01*
X168630359Y-70995758D01*
X168615532Y-71095166D01*
X168601561Y-71188835D01*
X168588496Y-71276418D01*
X168576391Y-71357571D01*
X168565296Y-71431946D01*
X168555263Y-71499197D01*
X168546344Y-71558979D01*
X168538591Y-71610946D01*
X168532054Y-71654750D01*
X168526786Y-71690046D01*
X168522839Y-71716488D01*
X168520263Y-71733730D01*
X168519111Y-71741426D01*
X168513270Y-71780184D01*
X168262040Y-71780184D01*
X168010810Y-71780184D01*
X168006225Y-71758929D01*
X168004727Y-71752060D01*
X168000311Y-71732151D01*
X167993975Y-71703858D01*
X167985836Y-71667700D01*
X167976014Y-71624195D01*
X167964625Y-71573861D01*
X167951789Y-71517216D01*
X167937624Y-71454778D01*
X167922248Y-71387066D01*
X167905778Y-71314597D01*
X167888335Y-71237890D01*
X167870034Y-71157464D01*
X167850996Y-71073835D01*
X167831338Y-70987523D01*
X167811179Y-70899045D01*
X167790636Y-70808921D01*
X167769828Y-70717667D01*
X167748873Y-70625802D01*
X167727890Y-70533845D01*
X167706996Y-70442313D01*
X167686311Y-70351724D01*
X167665951Y-70262598D01*
X167646036Y-70175452D01*
X167626684Y-70090804D01*
X167608013Y-70009172D01*
X167590140Y-69931075D01*
X167573186Y-69857031D01*
X167557267Y-69787557D01*
X167542502Y-69723173D01*
X167529009Y-69664396D01*
X167516907Y-69611745D01*
X167506313Y-69565737D01*
X167497346Y-69526891D01*
X167490125Y-69495726D01*
X167484767Y-69472758D01*
X167481391Y-69458507D01*
X167480114Y-69453491D01*
X167479665Y-69454762D01*
X167477175Y-69464381D01*
X167472620Y-69483050D01*
X167466104Y-69510314D01*
X167457734Y-69545718D01*
X167447612Y-69588808D01*
X167435845Y-69639128D01*
X167422536Y-69696225D01*
X167407791Y-69759643D01*
X167391715Y-69828927D01*
X167374411Y-69903624D01*
X167355985Y-69983278D01*
X167336542Y-70067435D01*
X167316186Y-70155640D01*
X167295023Y-70247439D01*
X167273156Y-70342376D01*
X167250690Y-70439997D01*
X167227732Y-70539847D01*
X167204384Y-70641472D01*
X167180752Y-70744416D01*
X167156940Y-70848226D01*
X167133054Y-70952447D01*
X167109198Y-71056623D01*
X167085477Y-71160301D01*
X167061996Y-71263024D01*
X167038859Y-71364340D01*
X167016171Y-71463793D01*
X166994037Y-71560928D01*
X166972562Y-71655291D01*
X166951850Y-71746427D01*
X166944184Y-71780184D01*
X166693067Y-71780184D01*
X166441949Y-71780184D01*
X165699629Y-68355759D01*
X164957308Y-64931335D01*
X165214442Y-64930040D01*
X165231022Y-64929959D01*
X165279805Y-64929753D01*
X165325165Y-64929609D01*
X165366162Y-64929527D01*
X165401857Y-64929506D01*
X165431310Y-64929547D01*
G37*
D11*
X160750000Y-81500000D03*
D12*
X157500000Y-82937500D03*
X164000000Y-82937500D03*
D13*
X191710000Y-81990000D03*
D14*
X194250000Y-81990000D03*
D13*
X191710000Y-64210000D03*
D14*
X194250000Y-64210000D03*
X191710000Y-66750000D03*
X194250000Y-66750000D03*
X191710000Y-69290000D03*
X194250000Y-69290000D03*
X191710000Y-71830000D03*
X194250000Y-71830000D03*
X191710000Y-74370000D03*
X194250000Y-74370000D03*
X191710000Y-76910000D03*
X194250000Y-76910000D03*
D13*
X139300000Y-82030000D03*
D14*
X136760000Y-82030000D03*
D11*
X148250000Y-81500000D03*
D13*
X139300000Y-64250000D03*
D14*
X136760000Y-64250000D03*
X139300000Y-66790000D03*
X136760000Y-66790000D03*
X139300000Y-69330000D03*
X136760000Y-69330000D03*
X139300000Y-71870000D03*
X136760000Y-71870000D03*
X139300000Y-74410000D03*
X136760000Y-74410000D03*
X139300000Y-76950000D03*
X136760000Y-76950000D03*
D12*
X145000000Y-82937500D03*
X151500000Y-82937500D03*
D13*
X187500000Y-80710000D03*
D14*
X187500000Y-83250000D03*
X184960000Y-80710000D03*
X184960000Y-83250000D03*
X182420000Y-80710000D03*
X182420000Y-83250000D03*
X179880000Y-80710000D03*
X179880000Y-83250000D03*
X177340000Y-80710000D03*
X177340000Y-83250000D03*
X174800000Y-80710000D03*
X174800000Y-83250000D03*
X172260000Y-80710000D03*
X172260000Y-83250000D03*
X169720000Y-80710000D03*
X169720000Y-83250000D03*
M02*
