G04 #@! TF.GenerationSoftware,KiCad,Pcbnew,10.0.4-10.0.4~ubuntu22.04.1*
G04 #@! TF.CreationDate,2026-09-12T10:18:38+02:00*
G04 #@! TF.ProjectId,MAX14866_PMOD,4d415831-3438-4363-965f-504d4f442e6b,rev?*
G04 #@! TF.SameCoordinates,Original*
G04 #@! TF.FileFunction,Legend,Top*
G04 #@! TF.FilePolarity,Positive*
%FSLAX46Y46*%
G04 Gerber Fmt 4.6, Leading zero omitted, Abs format (unit mm)*
G04 Created by KiCad (PCBNEW 10.0.4-10.0.4~ubuntu22.04.1) date 2026-09-12 10:18:38*
%MOMM*%
%LPD*%
G01*
G04 APERTURE LIST*
%ADD10C,0.100000*%
%ADD11C,0.200000*%
%ADD12C,0.150000*%
%ADD13C,0.120000*%
%ADD14C,0.152400*%
%ADD15C,0.000000*%
%ADD16C,2.000000*%
%ADD17R,0.700000X2.350000*%
%ADD18R,3.600000X4.875000*%
%ADD19R,3.500000X4.875000*%
%ADD20R,1.700000X1.700000*%
%ADD21O,1.700000X1.700000*%
%ADD22R,0.254000X0.812800*%
%ADD23R,0.812800X0.254000*%
%ADD24R,5.588000X5.588000*%
G04 APERTURE END LIST*
D10*
X154250000Y-63500000D02*
X155250000Y-63500000D01*
X154750000Y-64500000D01*
X154250000Y-63500000D01*
G36*
X154750000Y-64500000D02*
G01*
X154250000Y-63500000D01*
X155250000Y-63500000D01*
X154750000Y-64500000D01*
G37*
X192925000Y-79100000D02*
X193675000Y-78600000D01*
X147975000Y-76650000D02*
X148725000Y-77150000D01*
X147975000Y-76650000D02*
X148725000Y-76150000D01*
X150225000Y-76650000D02*
X147975000Y-76650000D01*
X192925000Y-79100000D02*
X193675000Y-79600000D01*
X195175000Y-79100000D02*
X192925000Y-79100000D01*
D11*
G36*
X143200912Y-75872261D02*
G01*
X143360328Y-76031676D01*
X143445863Y-76373813D01*
X143445863Y-77015861D01*
X143360328Y-77357998D01*
X143200913Y-77517414D01*
X143046066Y-77594838D01*
X142712328Y-77594838D01*
X142557480Y-77517414D01*
X142398064Y-77357998D01*
X142312530Y-77015861D01*
X142312530Y-76373814D01*
X142398064Y-76031677D01*
X142557479Y-75872262D01*
X142712328Y-75794838D01*
X143046066Y-75794838D01*
X143200912Y-75872261D01*
G37*
G36*
X147675688Y-78017060D02*
G01*
X141890308Y-78017060D01*
X141890308Y-76361504D01*
X142112530Y-76361504D01*
X142112530Y-77028171D01*
X142112865Y-77031573D01*
X142112648Y-77033032D01*
X142113727Y-77040329D01*
X142114451Y-77047680D01*
X142115015Y-77049043D01*
X142115516Y-77052425D01*
X142210754Y-77433376D01*
X142217349Y-77451837D01*
X142221775Y-77457811D01*
X142224621Y-77464680D01*
X142237057Y-77479833D01*
X142427533Y-77670310D01*
X142435199Y-77676602D01*
X142436932Y-77678600D01*
X142439940Y-77680493D01*
X142442686Y-77682747D01*
X142445126Y-77683757D01*
X142453523Y-77689043D01*
X142643999Y-77784281D01*
X142662307Y-77791287D01*
X142665890Y-77791541D01*
X142669211Y-77792917D01*
X142688720Y-77794838D01*
X143069673Y-77794838D01*
X143089182Y-77792917D01*
X143092502Y-77791541D01*
X143096086Y-77791287D01*
X143114394Y-77784281D01*
X143304871Y-77689043D01*
X143313268Y-77683757D01*
X143315707Y-77682747D01*
X143318451Y-77680494D01*
X143321461Y-77678600D01*
X143323193Y-77676602D01*
X143330860Y-77670310D01*
X143521336Y-77479834D01*
X143533772Y-77464680D01*
X143536616Y-77457812D01*
X143541044Y-77451837D01*
X143547639Y-77433377D01*
X143642877Y-77052425D01*
X143643377Y-77049043D01*
X143643942Y-77047680D01*
X143644665Y-77040329D01*
X143645745Y-77033032D01*
X143645527Y-77031573D01*
X143645863Y-77028171D01*
X143645863Y-76361504D01*
X143645527Y-76358101D01*
X143645745Y-76356643D01*
X143644665Y-76349345D01*
X143643942Y-76341995D01*
X143643377Y-76340631D01*
X143642877Y-76337250D01*
X143547639Y-75956298D01*
X143541044Y-75937838D01*
X143536617Y-75931863D01*
X143533772Y-75924995D01*
X143521336Y-75909842D01*
X143330860Y-75719365D01*
X143323193Y-75713073D01*
X143321461Y-75711076D01*
X143318449Y-75709180D01*
X143315706Y-75706929D01*
X143313269Y-75705919D01*
X143304871Y-75700633D01*
X143293281Y-75694838D01*
X144303006Y-75694838D01*
X144303006Y-77313885D01*
X144304927Y-77333394D01*
X144306302Y-77336714D01*
X144306557Y-77340298D01*
X144313563Y-77358606D01*
X144408801Y-77549083D01*
X144414085Y-77557477D01*
X144415096Y-77559918D01*
X144417350Y-77562664D01*
X144419244Y-77565673D01*
X144421240Y-77567404D01*
X144427533Y-77575071D01*
X144522771Y-77670311D01*
X144530439Y-77676604D01*
X144532170Y-77678600D01*
X144535177Y-77680493D01*
X144537924Y-77682747D01*
X144540364Y-77683757D01*
X144548761Y-77689043D01*
X144739237Y-77784281D01*
X144757545Y-77791287D01*
X144761128Y-77791541D01*
X144764449Y-77792917D01*
X144783958Y-77794838D01*
X145164911Y-77794838D01*
X145184420Y-77792917D01*
X145187740Y-77791541D01*
X145191324Y-77791287D01*
X145209632Y-77784281D01*
X145400109Y-77689043D01*
X145408506Y-77683757D01*
X145410945Y-77682747D01*
X145413689Y-77680494D01*
X145416699Y-77678600D01*
X145418431Y-77676602D01*
X145426098Y-77670310D01*
X145521336Y-77575071D01*
X145527628Y-77567404D01*
X145529625Y-77565673D01*
X145531518Y-77562665D01*
X145533773Y-77559918D01*
X145534784Y-77557476D01*
X145540068Y-77549082D01*
X145635306Y-77358606D01*
X145642312Y-77340298D01*
X145642566Y-77336714D01*
X145643942Y-77333394D01*
X145645863Y-77313885D01*
X145645863Y-75694838D01*
X145643942Y-75675329D01*
X146114451Y-75675329D01*
X146114451Y-75714347D01*
X146129383Y-75750395D01*
X146156973Y-75777985D01*
X146193021Y-75792917D01*
X146212530Y-75794838D01*
X146683958Y-75794838D01*
X146683958Y-77694838D01*
X146685879Y-77714347D01*
X146700811Y-77750395D01*
X146728401Y-77777985D01*
X146764449Y-77792917D01*
X146803467Y-77792917D01*
X146839515Y-77777985D01*
X146867105Y-77750395D01*
X146882037Y-77714347D01*
X146883958Y-77694838D01*
X146883958Y-75794838D01*
X147355387Y-75794838D01*
X147374896Y-75792917D01*
X147410944Y-75777985D01*
X147438534Y-75750395D01*
X147453466Y-75714347D01*
X147453466Y-75675329D01*
X147438534Y-75639281D01*
X147410944Y-75611691D01*
X147374896Y-75596759D01*
X147355387Y-75594838D01*
X146212530Y-75594838D01*
X146193021Y-75596759D01*
X146156973Y-75611691D01*
X146129383Y-75639281D01*
X146114451Y-75675329D01*
X145643942Y-75675329D01*
X145629010Y-75639281D01*
X145601420Y-75611691D01*
X145565372Y-75596759D01*
X145526354Y-75596759D01*
X145490306Y-75611691D01*
X145462716Y-75639281D01*
X145447784Y-75675329D01*
X145445863Y-75694838D01*
X145445863Y-77290277D01*
X145368439Y-77445124D01*
X145296151Y-77517414D01*
X145141304Y-77594838D01*
X144807566Y-77594838D01*
X144652717Y-77517414D01*
X144580430Y-77445126D01*
X144503006Y-77290278D01*
X144503006Y-75694838D01*
X144501085Y-75675329D01*
X144486153Y-75639281D01*
X144458563Y-75611691D01*
X144422515Y-75596759D01*
X144383497Y-75596759D01*
X144347449Y-75611691D01*
X144319859Y-75639281D01*
X144304927Y-75675329D01*
X144303006Y-75694838D01*
X143293281Y-75694838D01*
X143114394Y-75605395D01*
X143096086Y-75598389D01*
X143092502Y-75598134D01*
X143089182Y-75596759D01*
X143069673Y-75594838D01*
X142688720Y-75594838D01*
X142669211Y-75596759D01*
X142665890Y-75598134D01*
X142662307Y-75598389D01*
X142643999Y-75605395D01*
X142453523Y-75700633D01*
X142445124Y-75705919D01*
X142442687Y-75706929D01*
X142439944Y-75709180D01*
X142436932Y-75711076D01*
X142435198Y-75713074D01*
X142427534Y-75719365D01*
X142237057Y-75909841D01*
X142224621Y-75924995D01*
X142221775Y-75931863D01*
X142217349Y-75937838D01*
X142210754Y-75956299D01*
X142115516Y-76337250D01*
X142115015Y-76340631D01*
X142114451Y-76341995D01*
X142113727Y-76349345D01*
X142112648Y-76356643D01*
X142112865Y-76358101D01*
X142112530Y-76361504D01*
X141890308Y-76361504D01*
X141890308Y-75372616D01*
X147675688Y-75372616D01*
X147675688Y-78017060D01*
G37*
D10*
G36*
X182242534Y-78456881D02*
G01*
X182269154Y-78483502D01*
X182298342Y-78541877D01*
X182298342Y-78670652D01*
X182269155Y-78729026D01*
X182242535Y-78755647D01*
X182184159Y-78784836D01*
X182017288Y-78784836D01*
X181958913Y-78755648D01*
X181932292Y-78729028D01*
X181903104Y-78670651D01*
X181903104Y-78541877D01*
X181932293Y-78483500D01*
X181958913Y-78456880D01*
X182017288Y-78427693D01*
X182184158Y-78427693D01*
X182242534Y-78456881D01*
G37*
G36*
X182603104Y-77908748D02*
G01*
X182573916Y-77967122D01*
X182547296Y-77993743D01*
X182488920Y-78022932D01*
X182398241Y-78022932D01*
X182339865Y-77993743D01*
X182313244Y-77967123D01*
X182284057Y-77908748D01*
X182284057Y-77665789D01*
X182603104Y-77665789D01*
X182603104Y-77908748D01*
G37*
G36*
X182791993Y-78973725D02*
G01*
X181714215Y-78973725D01*
X181714215Y-78530074D01*
X181803104Y-78530074D01*
X181803104Y-78682455D01*
X181803592Y-78684911D01*
X181803230Y-78686000D01*
X181805346Y-78693727D01*
X181806910Y-78701589D01*
X181807721Y-78702400D01*
X181808383Y-78704816D01*
X181846479Y-78781007D01*
X181851392Y-78787338D01*
X181855845Y-78794001D01*
X181893939Y-78832096D01*
X181900605Y-78836550D01*
X181906934Y-78841462D01*
X181983124Y-78879557D01*
X181985539Y-78880218D01*
X181986351Y-78881030D01*
X181994212Y-78882593D01*
X182001940Y-78884710D01*
X182003028Y-78884347D01*
X182005485Y-78884836D01*
X182195961Y-78884836D01*
X182198417Y-78884347D01*
X182199505Y-78884710D01*
X182207229Y-78882594D01*
X182215095Y-78881030D01*
X182215906Y-78880218D01*
X182218321Y-78879557D01*
X182294513Y-78841462D01*
X182300844Y-78836548D01*
X182307507Y-78832096D01*
X182345602Y-78794002D01*
X182350061Y-78787327D01*
X182354968Y-78781006D01*
X182393064Y-78704815D01*
X182393725Y-78702399D01*
X182394536Y-78701589D01*
X182396099Y-78693728D01*
X182398216Y-78685999D01*
X182397853Y-78684911D01*
X182398342Y-78682455D01*
X182398342Y-78530074D01*
X182397853Y-78527617D01*
X182398216Y-78526529D01*
X182396099Y-78518801D01*
X182394536Y-78510940D01*
X182393724Y-78510128D01*
X182393063Y-78507713D01*
X182360047Y-78441682D01*
X182442097Y-78462195D01*
X182545059Y-78530834D01*
X182573917Y-78559693D01*
X182603104Y-78618067D01*
X182603104Y-78758646D01*
X182606910Y-78777780D01*
X182633970Y-78804840D01*
X182672238Y-78804840D01*
X182699298Y-78777780D01*
X182703104Y-78758646D01*
X182703104Y-78606265D01*
X182702615Y-78603808D01*
X182702978Y-78602721D01*
X182700861Y-78594991D01*
X182699298Y-78587131D01*
X182698487Y-78586320D01*
X182697826Y-78583905D01*
X182659730Y-78507714D01*
X182654823Y-78501392D01*
X182650364Y-78494718D01*
X182612269Y-78456624D01*
X182608155Y-78453875D01*
X182604649Y-78450376D01*
X182490363Y-78374186D01*
X182482473Y-78370928D01*
X182474755Y-78367282D01*
X182322374Y-78329186D01*
X182316256Y-78328888D01*
X182310247Y-78327693D01*
X182005485Y-78327693D01*
X182003027Y-78328181D01*
X182001939Y-78327819D01*
X181994209Y-78329935D01*
X181986351Y-78331499D01*
X181985539Y-78332310D01*
X181983123Y-78332972D01*
X181906934Y-78371068D01*
X181900605Y-78375979D01*
X181893939Y-78380434D01*
X181855845Y-78418529D01*
X181851392Y-78425191D01*
X181846479Y-78431523D01*
X181808383Y-78507713D01*
X181807721Y-78510128D01*
X181806910Y-78510940D01*
X181805346Y-78518801D01*
X181803230Y-78526529D01*
X181803592Y-78527617D01*
X181803104Y-78530074D01*
X181714215Y-78530074D01*
X181714215Y-78083747D01*
X181804288Y-78083747D01*
X181826233Y-78115098D01*
X181863919Y-78121748D01*
X181881777Y-78113894D01*
X182184057Y-77902298D01*
X182184057Y-77920551D01*
X182184545Y-77923007D01*
X182184183Y-77924096D01*
X182186299Y-77931823D01*
X182187863Y-77939685D01*
X182188674Y-77940496D01*
X182189336Y-77942912D01*
X182227431Y-78019102D01*
X182232346Y-78025436D01*
X182236797Y-78032096D01*
X182274891Y-78070191D01*
X182281557Y-78074645D01*
X182287886Y-78079557D01*
X182364077Y-78117653D01*
X182366492Y-78118314D01*
X182367304Y-78119126D01*
X182375165Y-78120689D01*
X182382893Y-78122806D01*
X182383981Y-78122443D01*
X182386438Y-78122932D01*
X182500723Y-78122932D01*
X182503179Y-78122443D01*
X182504268Y-78122806D01*
X182511995Y-78120689D01*
X182519857Y-78119126D01*
X182520668Y-78118314D01*
X182523084Y-78117653D01*
X182599275Y-78079557D01*
X182605606Y-78074643D01*
X182612269Y-78070191D01*
X182650364Y-78032097D01*
X182654818Y-78025430D01*
X182659730Y-78019102D01*
X182697825Y-77942912D01*
X182698486Y-77940496D01*
X182699298Y-77939685D01*
X182700861Y-77931823D01*
X182702978Y-77924096D01*
X182702615Y-77923007D01*
X182703104Y-77920551D01*
X182703104Y-77615789D01*
X182699298Y-77596655D01*
X182672238Y-77569595D01*
X182653104Y-77565789D01*
X181853104Y-77565789D01*
X181833970Y-77569595D01*
X181806910Y-77596655D01*
X181806910Y-77634923D01*
X181833970Y-77661983D01*
X181853104Y-77665789D01*
X182184057Y-77665789D01*
X182184057Y-77780232D01*
X181824431Y-78031970D01*
X181810938Y-78046061D01*
X181804288Y-78083747D01*
X181714215Y-78083747D01*
X181714215Y-77101416D01*
X181806910Y-77101416D01*
X181806910Y-77139684D01*
X181833970Y-77166744D01*
X181853104Y-77170550D01*
X182603104Y-77170550D01*
X182603104Y-77349122D01*
X182606910Y-77368256D01*
X182633970Y-77395316D01*
X182672238Y-77395316D01*
X182699298Y-77368256D01*
X182703104Y-77349122D01*
X182703104Y-76891979D01*
X182699298Y-76872845D01*
X182672238Y-76845785D01*
X182633970Y-76845785D01*
X182606910Y-76872845D01*
X182603104Y-76891979D01*
X182603104Y-77070550D01*
X181853104Y-77070550D01*
X181833970Y-77074356D01*
X181806910Y-77101416D01*
X181714215Y-77101416D01*
X181714215Y-76756896D01*
X182791993Y-76756896D01*
X182791993Y-78973725D01*
G37*
G36*
X177353104Y-77908748D02*
G01*
X177323916Y-77967122D01*
X177297296Y-77993743D01*
X177238920Y-78022932D01*
X177148241Y-78022932D01*
X177089865Y-77993743D01*
X177063244Y-77967123D01*
X177034057Y-77908748D01*
X177034057Y-77665789D01*
X177353104Y-77665789D01*
X177353104Y-77908748D01*
G37*
G36*
X177579963Y-79008015D02*
G01*
X176465399Y-79008015D01*
X176465399Y-78739512D01*
X176556910Y-78739512D01*
X176556910Y-78777780D01*
X176583970Y-78804840D01*
X176603104Y-78808646D01*
X176819771Y-78808646D01*
X176819771Y-78872932D01*
X176823577Y-78892066D01*
X176850637Y-78919126D01*
X176888905Y-78919126D01*
X176915965Y-78892066D01*
X176919771Y-78872932D01*
X176919771Y-78808646D01*
X177136438Y-78808646D01*
X177155572Y-78804840D01*
X177182632Y-78777780D01*
X177182632Y-78739512D01*
X177155572Y-78712452D01*
X177136438Y-78708646D01*
X176919771Y-78708646D01*
X176919771Y-78447064D01*
X177425388Y-78615604D01*
X177444744Y-78618044D01*
X177478972Y-78600930D01*
X177491074Y-78564626D01*
X177473960Y-78530397D01*
X177457011Y-78520736D01*
X176885582Y-78330259D01*
X176866227Y-78327819D01*
X176858867Y-78331499D01*
X176850637Y-78331499D01*
X176842407Y-78339728D01*
X176831998Y-78344933D01*
X176829395Y-78352740D01*
X176823577Y-78358559D01*
X176819771Y-78377693D01*
X176819771Y-78708646D01*
X176603104Y-78708646D01*
X176583970Y-78712452D01*
X176556910Y-78739512D01*
X176465399Y-78739512D01*
X176465399Y-78083747D01*
X176554288Y-78083747D01*
X176576233Y-78115098D01*
X176613919Y-78121748D01*
X176631777Y-78113894D01*
X176934057Y-77902298D01*
X176934057Y-77920551D01*
X176934545Y-77923007D01*
X176934183Y-77924096D01*
X176936299Y-77931823D01*
X176937863Y-77939685D01*
X176938674Y-77940496D01*
X176939336Y-77942912D01*
X176977431Y-78019102D01*
X176982346Y-78025436D01*
X176986797Y-78032096D01*
X177024891Y-78070191D01*
X177031557Y-78074645D01*
X177037886Y-78079557D01*
X177114077Y-78117653D01*
X177116492Y-78118314D01*
X177117304Y-78119126D01*
X177125165Y-78120689D01*
X177132893Y-78122806D01*
X177133981Y-78122443D01*
X177136438Y-78122932D01*
X177250723Y-78122932D01*
X177253179Y-78122443D01*
X177254268Y-78122806D01*
X177261995Y-78120689D01*
X177269857Y-78119126D01*
X177270668Y-78118314D01*
X177273084Y-78117653D01*
X177349275Y-78079557D01*
X177355606Y-78074643D01*
X177362269Y-78070191D01*
X177400364Y-78032097D01*
X177404818Y-78025430D01*
X177409730Y-78019102D01*
X177447825Y-77942912D01*
X177448486Y-77940496D01*
X177449298Y-77939685D01*
X177450861Y-77931823D01*
X177452978Y-77924096D01*
X177452615Y-77923007D01*
X177453104Y-77920551D01*
X177453104Y-77615789D01*
X177449298Y-77596655D01*
X177422238Y-77569595D01*
X177403104Y-77565789D01*
X176603104Y-77565789D01*
X176583970Y-77569595D01*
X176556910Y-77596655D01*
X176556910Y-77634923D01*
X176583970Y-77661983D01*
X176603104Y-77665789D01*
X176934057Y-77665789D01*
X176934057Y-77780232D01*
X176574431Y-78031970D01*
X176560938Y-78046061D01*
X176554288Y-78083747D01*
X176465399Y-78083747D01*
X176465399Y-77101416D01*
X176556910Y-77101416D01*
X176556910Y-77139684D01*
X176583970Y-77166744D01*
X176603104Y-77170550D01*
X177353104Y-77170550D01*
X177353104Y-77349122D01*
X177356910Y-77368256D01*
X177383970Y-77395316D01*
X177422238Y-77395316D01*
X177449298Y-77368256D01*
X177453104Y-77349122D01*
X177453104Y-76891979D01*
X177449298Y-76872845D01*
X177422238Y-76845785D01*
X177383970Y-76845785D01*
X177356910Y-76872845D01*
X177353104Y-76891979D01*
X177353104Y-77070550D01*
X176603104Y-77070550D01*
X176583970Y-77074356D01*
X176556910Y-77101416D01*
X176465399Y-77101416D01*
X176465399Y-76756896D01*
X177579963Y-76756896D01*
X177579963Y-79008015D01*
G37*
G36*
X185353104Y-77908748D02*
G01*
X185323916Y-77967122D01*
X185297296Y-77993743D01*
X185238920Y-78022932D01*
X185148241Y-78022932D01*
X185089865Y-77993743D01*
X185063244Y-77967123D01*
X185034057Y-77908748D01*
X185034057Y-77665789D01*
X185353104Y-77665789D01*
X185353104Y-77908748D01*
G37*
G36*
X185541993Y-79011817D02*
G01*
X184464219Y-79011817D01*
X184464219Y-78529464D01*
X184553108Y-78529464D01*
X184567320Y-78564996D01*
X184583408Y-78576031D01*
X185383408Y-78918889D01*
X185383820Y-78918976D01*
X185383970Y-78919126D01*
X185384528Y-78919126D01*
X185402494Y-78922928D01*
X185411999Y-78919126D01*
X185422238Y-78919126D01*
X185429063Y-78912300D01*
X185438025Y-78908716D01*
X185442057Y-78899306D01*
X185449298Y-78892066D01*
X185452881Y-78874052D01*
X185453100Y-78873542D01*
X185453021Y-78873346D01*
X185453104Y-78872932D01*
X185453104Y-78339598D01*
X185449298Y-78320464D01*
X185422238Y-78293404D01*
X185383970Y-78293404D01*
X185356910Y-78320464D01*
X185353104Y-78339598D01*
X185353104Y-78797105D01*
X184622800Y-78484117D01*
X184603714Y-78480078D01*
X184568182Y-78494290D01*
X184553108Y-78529464D01*
X184464219Y-78529464D01*
X184464219Y-78083747D01*
X184554288Y-78083747D01*
X184576233Y-78115098D01*
X184613919Y-78121748D01*
X184631777Y-78113894D01*
X184934057Y-77902298D01*
X184934057Y-77920551D01*
X184934545Y-77923007D01*
X184934183Y-77924096D01*
X184936299Y-77931823D01*
X184937863Y-77939685D01*
X184938674Y-77940496D01*
X184939336Y-77942912D01*
X184977431Y-78019102D01*
X184982346Y-78025436D01*
X184986797Y-78032096D01*
X185024891Y-78070191D01*
X185031557Y-78074645D01*
X185037886Y-78079557D01*
X185114077Y-78117653D01*
X185116492Y-78118314D01*
X185117304Y-78119126D01*
X185125165Y-78120689D01*
X185132893Y-78122806D01*
X185133981Y-78122443D01*
X185136438Y-78122932D01*
X185250723Y-78122932D01*
X185253179Y-78122443D01*
X185254268Y-78122806D01*
X185261995Y-78120689D01*
X185269857Y-78119126D01*
X185270668Y-78118314D01*
X185273084Y-78117653D01*
X185349275Y-78079557D01*
X185355606Y-78074643D01*
X185362269Y-78070191D01*
X185400364Y-78032097D01*
X185404818Y-78025430D01*
X185409730Y-78019102D01*
X185447825Y-77942912D01*
X185448486Y-77940496D01*
X185449298Y-77939685D01*
X185450861Y-77931823D01*
X185452978Y-77924096D01*
X185452615Y-77923007D01*
X185453104Y-77920551D01*
X185453104Y-77615789D01*
X185449298Y-77596655D01*
X185422238Y-77569595D01*
X185403104Y-77565789D01*
X184603104Y-77565789D01*
X184583970Y-77569595D01*
X184556910Y-77596655D01*
X184556910Y-77634923D01*
X184583970Y-77661983D01*
X184603104Y-77665789D01*
X184934057Y-77665789D01*
X184934057Y-77780232D01*
X184574431Y-78031970D01*
X184560938Y-78046061D01*
X184554288Y-78083747D01*
X184464219Y-78083747D01*
X184464219Y-77101416D01*
X184556910Y-77101416D01*
X184556910Y-77139684D01*
X184583970Y-77166744D01*
X184603104Y-77170550D01*
X185353104Y-77170550D01*
X185353104Y-77349122D01*
X185356910Y-77368256D01*
X185383970Y-77395316D01*
X185422238Y-77395316D01*
X185449298Y-77368256D01*
X185453104Y-77349122D01*
X185453104Y-76891979D01*
X185449298Y-76872845D01*
X185422238Y-76845785D01*
X185383970Y-76845785D01*
X185356910Y-76872845D01*
X185353104Y-76891979D01*
X185353104Y-77070550D01*
X184603104Y-77070550D01*
X184583970Y-77074356D01*
X184556910Y-77101416D01*
X184464219Y-77101416D01*
X184464219Y-76756896D01*
X185541993Y-76756896D01*
X185541993Y-79011817D01*
G37*
G36*
X169853104Y-77908748D02*
G01*
X169823916Y-77967122D01*
X169797296Y-77993743D01*
X169738920Y-78022932D01*
X169648241Y-78022932D01*
X169589865Y-77993743D01*
X169563244Y-77967123D01*
X169534057Y-77908748D01*
X169534057Y-77665789D01*
X169853104Y-77665789D01*
X169853104Y-77908748D01*
G37*
G36*
X170041993Y-78969919D02*
G01*
X168964215Y-78969919D01*
X168964215Y-78377693D01*
X169053104Y-78377693D01*
X169053104Y-78834836D01*
X169056910Y-78853970D01*
X169083970Y-78881030D01*
X169122238Y-78881030D01*
X169149298Y-78853970D01*
X169153104Y-78834836D01*
X169153104Y-78656265D01*
X169903104Y-78656265D01*
X169922238Y-78652459D01*
X169925878Y-78648818D01*
X169930926Y-78647809D01*
X169939002Y-78635694D01*
X169949298Y-78625399D01*
X169949298Y-78620251D01*
X169952153Y-78615969D01*
X169949298Y-78601693D01*
X169949298Y-78587131D01*
X169945657Y-78583490D01*
X169944648Y-78578443D01*
X169930839Y-78564663D01*
X169820673Y-78491218D01*
X169753720Y-78424265D01*
X169719254Y-78355333D01*
X169707293Y-78339921D01*
X169670989Y-78327819D01*
X169636761Y-78344933D01*
X169624659Y-78381237D01*
X169629812Y-78400053D01*
X169667907Y-78476245D01*
X169672816Y-78482570D01*
X169677273Y-78489240D01*
X169744299Y-78556265D01*
X169153104Y-78556265D01*
X169153104Y-78377693D01*
X169149298Y-78358559D01*
X169122238Y-78331499D01*
X169083970Y-78331499D01*
X169056910Y-78358559D01*
X169053104Y-78377693D01*
X168964215Y-78377693D01*
X168964215Y-78083747D01*
X169054288Y-78083747D01*
X169076233Y-78115098D01*
X169113919Y-78121748D01*
X169131777Y-78113894D01*
X169434057Y-77902298D01*
X169434057Y-77920551D01*
X169434545Y-77923007D01*
X169434183Y-77924096D01*
X169436299Y-77931823D01*
X169437863Y-77939685D01*
X169438674Y-77940496D01*
X169439336Y-77942912D01*
X169477431Y-78019102D01*
X169482346Y-78025436D01*
X169486797Y-78032096D01*
X169524891Y-78070191D01*
X169531557Y-78074645D01*
X169537886Y-78079557D01*
X169614077Y-78117653D01*
X169616492Y-78118314D01*
X169617304Y-78119126D01*
X169625165Y-78120689D01*
X169632893Y-78122806D01*
X169633981Y-78122443D01*
X169636438Y-78122932D01*
X169750723Y-78122932D01*
X169753179Y-78122443D01*
X169754268Y-78122806D01*
X169761995Y-78120689D01*
X169769857Y-78119126D01*
X169770668Y-78118314D01*
X169773084Y-78117653D01*
X169849275Y-78079557D01*
X169855606Y-78074643D01*
X169862269Y-78070191D01*
X169900364Y-78032097D01*
X169904818Y-78025430D01*
X169909730Y-78019102D01*
X169947825Y-77942912D01*
X169948486Y-77940496D01*
X169949298Y-77939685D01*
X169950861Y-77931823D01*
X169952978Y-77924096D01*
X169952615Y-77923007D01*
X169953104Y-77920551D01*
X169953104Y-77615789D01*
X169949298Y-77596655D01*
X169922238Y-77569595D01*
X169903104Y-77565789D01*
X169103104Y-77565789D01*
X169083970Y-77569595D01*
X169056910Y-77596655D01*
X169056910Y-77634923D01*
X169083970Y-77661983D01*
X169103104Y-77665789D01*
X169434057Y-77665789D01*
X169434057Y-77780232D01*
X169074431Y-78031970D01*
X169060938Y-78046061D01*
X169054288Y-78083747D01*
X168964215Y-78083747D01*
X168964215Y-77101416D01*
X169056910Y-77101416D01*
X169056910Y-77139684D01*
X169083970Y-77166744D01*
X169103104Y-77170550D01*
X169853104Y-77170550D01*
X169853104Y-77349122D01*
X169856910Y-77368256D01*
X169883970Y-77395316D01*
X169922238Y-77395316D01*
X169949298Y-77368256D01*
X169953104Y-77349122D01*
X169953104Y-76891979D01*
X169949298Y-76872845D01*
X169922238Y-76845785D01*
X169883970Y-76845785D01*
X169856910Y-76872845D01*
X169853104Y-76891979D01*
X169853104Y-77070550D01*
X169103104Y-77070550D01*
X169083970Y-77074356D01*
X169056910Y-77101416D01*
X168964215Y-77101416D01*
X168964215Y-76756896D01*
X170041993Y-76756896D01*
X170041993Y-78969919D01*
G37*
G36*
X174853104Y-77908748D02*
G01*
X174823916Y-77967122D01*
X174797296Y-77993743D01*
X174738920Y-78022932D01*
X174648241Y-78022932D01*
X174589865Y-77993743D01*
X174563244Y-77967123D01*
X174534057Y-77908748D01*
X174534057Y-77665789D01*
X174853104Y-77665789D01*
X174853104Y-77908748D01*
G37*
G36*
X175041993Y-78973725D02*
G01*
X173964215Y-78973725D01*
X173964215Y-78453884D01*
X174053104Y-78453884D01*
X174053104Y-78682455D01*
X174053592Y-78684911D01*
X174053230Y-78686000D01*
X174055346Y-78693727D01*
X174056910Y-78701589D01*
X174057721Y-78702400D01*
X174058383Y-78704816D01*
X174096479Y-78781007D01*
X174101392Y-78787338D01*
X174105845Y-78794001D01*
X174143939Y-78832096D01*
X174150605Y-78836550D01*
X174156934Y-78841462D01*
X174233124Y-78879557D01*
X174235539Y-78880218D01*
X174236351Y-78881030D01*
X174244212Y-78882593D01*
X174251940Y-78884710D01*
X174253028Y-78884347D01*
X174255485Y-78884836D01*
X174445961Y-78884836D01*
X174448417Y-78884347D01*
X174449505Y-78884710D01*
X174457229Y-78882594D01*
X174465095Y-78881030D01*
X174465906Y-78880218D01*
X174468321Y-78879557D01*
X174544513Y-78841462D01*
X174550844Y-78836548D01*
X174557507Y-78832096D01*
X174595602Y-78794002D01*
X174600061Y-78787327D01*
X174604968Y-78781006D01*
X174643064Y-78704815D01*
X174643725Y-78702399D01*
X174644536Y-78701589D01*
X174646099Y-78693728D01*
X174648216Y-78685999D01*
X174647853Y-78684911D01*
X174648342Y-78682455D01*
X174648342Y-78678358D01*
X174870179Y-78872465D01*
X174882501Y-78879561D01*
X174883970Y-78881030D01*
X174885052Y-78881030D01*
X174887085Y-78882201D01*
X174904647Y-78881030D01*
X174922238Y-78881030D01*
X174923494Y-78879773D01*
X174925269Y-78879655D01*
X174936861Y-78866407D01*
X174949298Y-78853970D01*
X174949755Y-78851670D01*
X174950469Y-78850855D01*
X174950330Y-78848778D01*
X174953104Y-78834836D01*
X174953104Y-78339598D01*
X174949298Y-78320464D01*
X174922238Y-78293404D01*
X174883970Y-78293404D01*
X174856910Y-78320464D01*
X174853104Y-78339598D01*
X174853104Y-78724647D01*
X174631267Y-78530541D01*
X174618946Y-78523446D01*
X174617476Y-78521976D01*
X174616393Y-78521976D01*
X174614361Y-78520806D01*
X174596807Y-78521976D01*
X174579208Y-78521976D01*
X174577951Y-78523232D01*
X174576177Y-78523351D01*
X174564588Y-78536595D01*
X174552148Y-78549036D01*
X174551690Y-78551336D01*
X174550978Y-78552151D01*
X174551116Y-78554223D01*
X174548342Y-78568170D01*
X174548342Y-78670652D01*
X174519155Y-78729026D01*
X174492535Y-78755647D01*
X174434159Y-78784836D01*
X174267288Y-78784836D01*
X174208913Y-78755648D01*
X174182292Y-78729028D01*
X174153104Y-78670651D01*
X174153104Y-78465687D01*
X174182292Y-78407310D01*
X174214650Y-78374954D01*
X174225489Y-78358733D01*
X174225489Y-78320464D01*
X174198429Y-78293404D01*
X174160160Y-78293404D01*
X174143939Y-78304243D01*
X174105845Y-78342338D01*
X174101392Y-78349000D01*
X174096479Y-78355332D01*
X174058383Y-78431523D01*
X174057721Y-78433938D01*
X174056910Y-78434750D01*
X174055346Y-78442611D01*
X174053230Y-78450339D01*
X174053592Y-78451427D01*
X174053104Y-78453884D01*
X173964215Y-78453884D01*
X173964215Y-78083747D01*
X174054288Y-78083747D01*
X174076233Y-78115098D01*
X174113919Y-78121748D01*
X174131777Y-78113894D01*
X174434057Y-77902298D01*
X174434057Y-77920551D01*
X174434545Y-77923007D01*
X174434183Y-77924096D01*
X174436299Y-77931823D01*
X174437863Y-77939685D01*
X174438674Y-77940496D01*
X174439336Y-77942912D01*
X174477431Y-78019102D01*
X174482346Y-78025436D01*
X174486797Y-78032096D01*
X174524891Y-78070191D01*
X174531557Y-78074645D01*
X174537886Y-78079557D01*
X174614077Y-78117653D01*
X174616492Y-78118314D01*
X174617304Y-78119126D01*
X174625165Y-78120689D01*
X174632893Y-78122806D01*
X174633981Y-78122443D01*
X174636438Y-78122932D01*
X174750723Y-78122932D01*
X174753179Y-78122443D01*
X174754268Y-78122806D01*
X174761995Y-78120689D01*
X174769857Y-78119126D01*
X174770668Y-78118314D01*
X174773084Y-78117653D01*
X174849275Y-78079557D01*
X174855606Y-78074643D01*
X174862269Y-78070191D01*
X174900364Y-78032097D01*
X174904818Y-78025430D01*
X174909730Y-78019102D01*
X174947825Y-77942912D01*
X174948486Y-77940496D01*
X174949298Y-77939685D01*
X174950861Y-77931823D01*
X174952978Y-77924096D01*
X174952615Y-77923007D01*
X174953104Y-77920551D01*
X174953104Y-77615789D01*
X174949298Y-77596655D01*
X174922238Y-77569595D01*
X174903104Y-77565789D01*
X174103104Y-77565789D01*
X174083970Y-77569595D01*
X174056910Y-77596655D01*
X174056910Y-77634923D01*
X174083970Y-77661983D01*
X174103104Y-77665789D01*
X174434057Y-77665789D01*
X174434057Y-77780232D01*
X174074431Y-78031970D01*
X174060938Y-78046061D01*
X174054288Y-78083747D01*
X173964215Y-78083747D01*
X173964215Y-77101416D01*
X174056910Y-77101416D01*
X174056910Y-77139684D01*
X174083970Y-77166744D01*
X174103104Y-77170550D01*
X174853104Y-77170550D01*
X174853104Y-77349122D01*
X174856910Y-77368256D01*
X174883970Y-77395316D01*
X174922238Y-77395316D01*
X174949298Y-77368256D01*
X174953104Y-77349122D01*
X174953104Y-76891979D01*
X174949298Y-76872845D01*
X174922238Y-76845785D01*
X174883970Y-76845785D01*
X174856910Y-76872845D01*
X174853104Y-76891979D01*
X174853104Y-77070550D01*
X174103104Y-77070550D01*
X174083970Y-77074356D01*
X174056910Y-77101416D01*
X173964215Y-77101416D01*
X173964215Y-76756896D01*
X175041993Y-76756896D01*
X175041993Y-78973725D01*
G37*
G36*
X187204439Y-78456881D02*
G01*
X187231059Y-78483502D01*
X187260247Y-78541877D01*
X187260247Y-78670652D01*
X187231060Y-78729026D01*
X187204440Y-78755647D01*
X187146064Y-78784836D01*
X187017288Y-78784836D01*
X186958913Y-78755648D01*
X186932292Y-78729028D01*
X186903104Y-78670651D01*
X186903104Y-78541877D01*
X186932293Y-78483500D01*
X186958913Y-78456880D01*
X187017288Y-78427693D01*
X187146063Y-78427693D01*
X187204439Y-78456881D01*
G37*
G36*
X187547296Y-78456881D02*
G01*
X187573916Y-78483502D01*
X187603104Y-78541877D01*
X187603104Y-78670652D01*
X187573917Y-78729026D01*
X187547297Y-78755647D01*
X187488921Y-78784836D01*
X187474431Y-78784836D01*
X187416056Y-78755648D01*
X187389434Y-78729027D01*
X187360247Y-78670652D01*
X187360247Y-78541877D01*
X187389433Y-78483503D01*
X187416056Y-78456880D01*
X187474431Y-78427693D01*
X187488920Y-78427693D01*
X187547296Y-78456881D01*
G37*
G36*
X187603104Y-77908748D02*
G01*
X187573916Y-77967122D01*
X187547296Y-77993743D01*
X187488920Y-78022932D01*
X187398241Y-78022932D01*
X187339865Y-77993743D01*
X187313244Y-77967123D01*
X187284057Y-77908748D01*
X187284057Y-77665789D01*
X187603104Y-77665789D01*
X187603104Y-77908748D01*
G37*
G36*
X187791993Y-78973725D02*
G01*
X186714215Y-78973725D01*
X186714215Y-78530074D01*
X186803104Y-78530074D01*
X186803104Y-78682455D01*
X186803592Y-78684911D01*
X186803230Y-78686000D01*
X186805346Y-78693727D01*
X186806910Y-78701589D01*
X186807721Y-78702400D01*
X186808383Y-78704816D01*
X186846479Y-78781007D01*
X186851392Y-78787338D01*
X186855845Y-78794001D01*
X186893939Y-78832096D01*
X186900605Y-78836550D01*
X186906934Y-78841462D01*
X186983124Y-78879557D01*
X186985539Y-78880218D01*
X186986351Y-78881030D01*
X186994212Y-78882593D01*
X187001940Y-78884710D01*
X187003028Y-78884347D01*
X187005485Y-78884836D01*
X187157866Y-78884836D01*
X187160322Y-78884347D01*
X187161410Y-78884710D01*
X187169134Y-78882594D01*
X187177000Y-78881030D01*
X187177811Y-78880218D01*
X187180226Y-78879557D01*
X187256418Y-78841462D01*
X187262749Y-78836548D01*
X187269412Y-78832096D01*
X187307507Y-78794002D01*
X187310247Y-78789901D01*
X187312987Y-78794002D01*
X187351083Y-78832097D01*
X187357748Y-78836550D01*
X187364077Y-78841462D01*
X187440267Y-78879557D01*
X187442682Y-78880218D01*
X187443494Y-78881030D01*
X187451355Y-78882593D01*
X187459083Y-78884710D01*
X187460171Y-78884347D01*
X187462628Y-78884836D01*
X187500723Y-78884836D01*
X187503179Y-78884347D01*
X187504267Y-78884710D01*
X187511991Y-78882594D01*
X187519857Y-78881030D01*
X187520668Y-78880218D01*
X187523083Y-78879557D01*
X187599275Y-78841462D01*
X187605606Y-78836548D01*
X187612269Y-78832096D01*
X187650364Y-78794002D01*
X187654823Y-78787327D01*
X187659730Y-78781006D01*
X187697826Y-78704815D01*
X187698487Y-78702399D01*
X187699298Y-78701589D01*
X187700861Y-78693728D01*
X187702978Y-78685999D01*
X187702615Y-78684911D01*
X187703104Y-78682455D01*
X187703104Y-78530074D01*
X187702615Y-78527617D01*
X187702978Y-78526529D01*
X187700861Y-78518801D01*
X187699298Y-78510940D01*
X187698486Y-78510128D01*
X187697825Y-78507713D01*
X187659730Y-78431523D01*
X187654818Y-78425194D01*
X187650364Y-78418528D01*
X187612269Y-78380434D01*
X187605606Y-78375981D01*
X187599275Y-78371068D01*
X187523084Y-78332972D01*
X187520668Y-78332310D01*
X187519857Y-78331499D01*
X187511995Y-78329935D01*
X187504268Y-78327819D01*
X187503179Y-78328181D01*
X187500723Y-78327693D01*
X187462628Y-78327693D01*
X187460170Y-78328181D01*
X187459082Y-78327819D01*
X187451352Y-78329935D01*
X187443494Y-78331499D01*
X187442682Y-78332310D01*
X187440266Y-78332972D01*
X187364077Y-78371068D01*
X187357748Y-78375979D01*
X187351083Y-78380433D01*
X187312987Y-78418528D01*
X187310247Y-78422628D01*
X187307507Y-78418528D01*
X187269412Y-78380434D01*
X187262749Y-78375981D01*
X187256418Y-78371068D01*
X187180227Y-78332972D01*
X187177811Y-78332310D01*
X187177000Y-78331499D01*
X187169138Y-78329935D01*
X187161411Y-78327819D01*
X187160322Y-78328181D01*
X187157866Y-78327693D01*
X187005485Y-78327693D01*
X187003027Y-78328181D01*
X187001939Y-78327819D01*
X186994209Y-78329935D01*
X186986351Y-78331499D01*
X186985539Y-78332310D01*
X186983123Y-78332972D01*
X186906934Y-78371068D01*
X186900605Y-78375979D01*
X186893939Y-78380434D01*
X186855845Y-78418529D01*
X186851392Y-78425191D01*
X186846479Y-78431523D01*
X186808383Y-78507713D01*
X186807721Y-78510128D01*
X186806910Y-78510940D01*
X186805346Y-78518801D01*
X186803230Y-78526529D01*
X186803592Y-78527617D01*
X186803104Y-78530074D01*
X186714215Y-78530074D01*
X186714215Y-78083747D01*
X186804288Y-78083747D01*
X186826233Y-78115098D01*
X186863919Y-78121748D01*
X186881777Y-78113894D01*
X187184057Y-77902298D01*
X187184057Y-77920551D01*
X187184545Y-77923007D01*
X187184183Y-77924096D01*
X187186299Y-77931823D01*
X187187863Y-77939685D01*
X187188674Y-77940496D01*
X187189336Y-77942912D01*
X187227431Y-78019102D01*
X187232346Y-78025436D01*
X187236797Y-78032096D01*
X187274891Y-78070191D01*
X187281557Y-78074645D01*
X187287886Y-78079557D01*
X187364077Y-78117653D01*
X187366492Y-78118314D01*
X187367304Y-78119126D01*
X187375165Y-78120689D01*
X187382893Y-78122806D01*
X187383981Y-78122443D01*
X187386438Y-78122932D01*
X187500723Y-78122932D01*
X187503179Y-78122443D01*
X187504268Y-78122806D01*
X187511995Y-78120689D01*
X187519857Y-78119126D01*
X187520668Y-78118314D01*
X187523084Y-78117653D01*
X187599275Y-78079557D01*
X187605606Y-78074643D01*
X187612269Y-78070191D01*
X187650364Y-78032097D01*
X187654818Y-78025430D01*
X187659730Y-78019102D01*
X187697825Y-77942912D01*
X187698486Y-77940496D01*
X187699298Y-77939685D01*
X187700861Y-77931823D01*
X187702978Y-77924096D01*
X187702615Y-77923007D01*
X187703104Y-77920551D01*
X187703104Y-77615789D01*
X187699298Y-77596655D01*
X187672238Y-77569595D01*
X187653104Y-77565789D01*
X186853104Y-77565789D01*
X186833970Y-77569595D01*
X186806910Y-77596655D01*
X186806910Y-77634923D01*
X186833970Y-77661983D01*
X186853104Y-77665789D01*
X187184057Y-77665789D01*
X187184057Y-77780232D01*
X186824431Y-78031970D01*
X186810938Y-78046061D01*
X186804288Y-78083747D01*
X186714215Y-78083747D01*
X186714215Y-77101416D01*
X186806910Y-77101416D01*
X186806910Y-77139684D01*
X186833970Y-77166744D01*
X186853104Y-77170550D01*
X187603104Y-77170550D01*
X187603104Y-77349122D01*
X187606910Y-77368256D01*
X187633970Y-77395316D01*
X187672238Y-77395316D01*
X187699298Y-77368256D01*
X187703104Y-77349122D01*
X187703104Y-76891979D01*
X187699298Y-76872845D01*
X187672238Y-76845785D01*
X187633970Y-76845785D01*
X187606910Y-76872845D01*
X187603104Y-76891979D01*
X187603104Y-77070550D01*
X186853104Y-77070550D01*
X186833970Y-77074356D01*
X186806910Y-77101416D01*
X186714215Y-77101416D01*
X186714215Y-76756896D01*
X187791993Y-76756896D01*
X187791993Y-78973725D01*
G37*
D11*
G36*
X192525228Y-80516816D02*
G01*
X189785546Y-80516816D01*
X189785546Y-78194838D01*
X190007768Y-78194838D01*
X190007768Y-80194838D01*
X190009689Y-80214347D01*
X190024621Y-80250395D01*
X190052211Y-80277985D01*
X190088259Y-80292917D01*
X190127277Y-80292917D01*
X190163325Y-80277985D01*
X190190915Y-80250395D01*
X190205847Y-80214347D01*
X190207768Y-80194838D01*
X190207768Y-78194838D01*
X190960149Y-78194838D01*
X190960149Y-80194838D01*
X190962070Y-80214347D01*
X190977002Y-80250395D01*
X191004592Y-80277985D01*
X191040640Y-80292917D01*
X191079658Y-80292917D01*
X191115706Y-80277985D01*
X191143296Y-80250395D01*
X191158228Y-80214347D01*
X191160149Y-80194838D01*
X191160149Y-78571394D01*
X192116182Y-80244452D01*
X192119100Y-80248562D01*
X192119859Y-80250395D01*
X192121725Y-80252261D01*
X192127529Y-80260437D01*
X192138043Y-80268579D01*
X192147449Y-80277985D01*
X192153339Y-80280424D01*
X192158378Y-80284327D01*
X192171206Y-80287825D01*
X192183497Y-80292917D01*
X192189872Y-80292917D01*
X192196021Y-80294594D01*
X192209212Y-80292917D01*
X192222515Y-80292917D01*
X192228406Y-80290476D01*
X192234728Y-80289673D01*
X192246273Y-80283075D01*
X192258563Y-80277985D01*
X192263070Y-80273477D01*
X192268605Y-80270315D01*
X192276747Y-80259800D01*
X192286153Y-80250395D01*
X192288592Y-80244504D01*
X192292495Y-80239466D01*
X192295993Y-80226638D01*
X192301085Y-80214347D01*
X192302067Y-80204367D01*
X192302762Y-80201822D01*
X192302511Y-80199855D01*
X192303006Y-80194838D01*
X192303006Y-78194838D01*
X192301085Y-78175329D01*
X192286153Y-78139281D01*
X192258563Y-78111691D01*
X192222515Y-78096759D01*
X192183497Y-78096759D01*
X192147449Y-78111691D01*
X192119859Y-78139281D01*
X192104927Y-78175329D01*
X192103006Y-78194838D01*
X192103006Y-79818281D01*
X191146973Y-78145224D01*
X191144054Y-78141113D01*
X191143296Y-78139281D01*
X191141429Y-78137414D01*
X191135626Y-78129239D01*
X191125111Y-78121096D01*
X191115706Y-78111691D01*
X191109815Y-78109251D01*
X191104777Y-78105349D01*
X191091948Y-78101850D01*
X191079658Y-78096759D01*
X191073283Y-78096759D01*
X191067134Y-78095082D01*
X191053941Y-78096759D01*
X191040640Y-78096759D01*
X191034751Y-78099198D01*
X191028427Y-78100002D01*
X191016877Y-78106602D01*
X191004592Y-78111691D01*
X191000084Y-78116198D01*
X190994550Y-78119361D01*
X190986407Y-78129875D01*
X190977002Y-78139281D01*
X190974562Y-78145171D01*
X190970660Y-78150210D01*
X190967161Y-78163038D01*
X190962070Y-78175329D01*
X190961087Y-78185306D01*
X190960393Y-78187853D01*
X190960643Y-78189820D01*
X190960149Y-78194838D01*
X190207768Y-78194838D01*
X190205847Y-78175329D01*
X190190915Y-78139281D01*
X190163325Y-78111691D01*
X190127277Y-78096759D01*
X190088259Y-78096759D01*
X190052211Y-78111691D01*
X190024621Y-78139281D01*
X190009689Y-78175329D01*
X190007768Y-78194838D01*
X189785546Y-78194838D01*
X189785546Y-77872860D01*
X192525228Y-77872860D01*
X192525228Y-80516816D01*
G37*
D10*
G36*
X172353104Y-77908748D02*
G01*
X172323916Y-77967122D01*
X172297296Y-77993743D01*
X172238920Y-78022932D01*
X172148241Y-78022932D01*
X172089865Y-77993743D01*
X172063244Y-77967123D01*
X172034057Y-77908748D01*
X172034057Y-77665789D01*
X172353104Y-77665789D01*
X172353104Y-77908748D01*
G37*
G36*
X172541993Y-78973725D02*
G01*
X171464215Y-78973725D01*
X171464215Y-78339598D01*
X171553104Y-78339598D01*
X171553104Y-78834836D01*
X171556910Y-78853970D01*
X171583970Y-78881030D01*
X171622238Y-78881030D01*
X171649298Y-78853970D01*
X171653104Y-78834836D01*
X171653104Y-78460308D01*
X172024892Y-78832096D01*
X172026973Y-78833486D01*
X172027487Y-78834514D01*
X172034452Y-78838484D01*
X172041113Y-78842935D01*
X172042261Y-78842935D01*
X172044436Y-78844175D01*
X172158722Y-78882270D01*
X172166670Y-78883272D01*
X172174533Y-78884836D01*
X172250723Y-78884836D01*
X172253179Y-78884347D01*
X172254267Y-78884710D01*
X172261991Y-78882594D01*
X172269857Y-78881030D01*
X172270668Y-78880218D01*
X172273083Y-78879557D01*
X172349275Y-78841462D01*
X172355606Y-78836548D01*
X172362269Y-78832096D01*
X172400364Y-78794002D01*
X172404823Y-78787327D01*
X172409730Y-78781006D01*
X172447826Y-78704815D01*
X172448487Y-78702399D01*
X172449298Y-78701589D01*
X172450861Y-78693728D01*
X172452978Y-78685999D01*
X172452615Y-78684911D01*
X172453104Y-78682455D01*
X172453104Y-78491979D01*
X172452615Y-78489522D01*
X172452978Y-78488434D01*
X172450861Y-78480706D01*
X172449298Y-78472845D01*
X172448486Y-78472033D01*
X172447825Y-78469618D01*
X172409730Y-78393428D01*
X172404818Y-78387099D01*
X172400365Y-78380434D01*
X172362270Y-78342338D01*
X172346049Y-78331499D01*
X172307780Y-78331499D01*
X172280720Y-78358558D01*
X172280720Y-78396827D01*
X172291558Y-78413048D01*
X172323916Y-78445407D01*
X172353104Y-78503782D01*
X172353104Y-78670652D01*
X172323917Y-78729026D01*
X172297297Y-78755647D01*
X172238921Y-78784836D01*
X172182646Y-78784836D01*
X172087255Y-78753039D01*
X171638459Y-78304243D01*
X171622238Y-78293404D01*
X171583970Y-78293404D01*
X171556910Y-78320464D01*
X171553104Y-78339598D01*
X171464215Y-78339598D01*
X171464215Y-78083747D01*
X171554288Y-78083747D01*
X171576233Y-78115098D01*
X171613919Y-78121748D01*
X171631777Y-78113894D01*
X171934057Y-77902298D01*
X171934057Y-77920551D01*
X171934545Y-77923007D01*
X171934183Y-77924096D01*
X171936299Y-77931823D01*
X171937863Y-77939685D01*
X171938674Y-77940496D01*
X171939336Y-77942912D01*
X171977431Y-78019102D01*
X171982346Y-78025436D01*
X171986797Y-78032096D01*
X172024891Y-78070191D01*
X172031557Y-78074645D01*
X172037886Y-78079557D01*
X172114077Y-78117653D01*
X172116492Y-78118314D01*
X172117304Y-78119126D01*
X172125165Y-78120689D01*
X172132893Y-78122806D01*
X172133981Y-78122443D01*
X172136438Y-78122932D01*
X172250723Y-78122932D01*
X172253179Y-78122443D01*
X172254268Y-78122806D01*
X172261995Y-78120689D01*
X172269857Y-78119126D01*
X172270668Y-78118314D01*
X172273084Y-78117653D01*
X172349275Y-78079557D01*
X172355606Y-78074643D01*
X172362269Y-78070191D01*
X172400364Y-78032097D01*
X172404818Y-78025430D01*
X172409730Y-78019102D01*
X172447825Y-77942912D01*
X172448486Y-77940496D01*
X172449298Y-77939685D01*
X172450861Y-77931823D01*
X172452978Y-77924096D01*
X172452615Y-77923007D01*
X172453104Y-77920551D01*
X172453104Y-77615789D01*
X172449298Y-77596655D01*
X172422238Y-77569595D01*
X172403104Y-77565789D01*
X171603104Y-77565789D01*
X171583970Y-77569595D01*
X171556910Y-77596655D01*
X171556910Y-77634923D01*
X171583970Y-77661983D01*
X171603104Y-77665789D01*
X171934057Y-77665789D01*
X171934057Y-77780232D01*
X171574431Y-78031970D01*
X171560938Y-78046061D01*
X171554288Y-78083747D01*
X171464215Y-78083747D01*
X171464215Y-77101416D01*
X171556910Y-77101416D01*
X171556910Y-77139684D01*
X171583970Y-77166744D01*
X171603104Y-77170550D01*
X172353104Y-77170550D01*
X172353104Y-77349122D01*
X172356910Y-77368256D01*
X172383970Y-77395316D01*
X172422238Y-77395316D01*
X172449298Y-77368256D01*
X172453104Y-77349122D01*
X172453104Y-76891979D01*
X172449298Y-76872845D01*
X172422238Y-76845785D01*
X172383970Y-76845785D01*
X172356910Y-76872845D01*
X172353104Y-76891979D01*
X172353104Y-77070550D01*
X171603104Y-77070550D01*
X171583970Y-77074356D01*
X171556910Y-77101416D01*
X171464215Y-77101416D01*
X171464215Y-76756896D01*
X172541993Y-76756896D01*
X172541993Y-78973725D01*
G37*
G36*
X179853104Y-77908748D02*
G01*
X179823916Y-77967122D01*
X179797296Y-77993743D01*
X179738920Y-78022932D01*
X179648241Y-78022932D01*
X179589865Y-77993743D01*
X179563244Y-77967123D01*
X179534057Y-77908748D01*
X179534057Y-77665789D01*
X179853104Y-77665789D01*
X179853104Y-77908748D01*
G37*
G36*
X180041993Y-78973725D02*
G01*
X178964215Y-78973725D01*
X178964215Y-78491979D01*
X179053104Y-78491979D01*
X179053104Y-78682455D01*
X179053592Y-78684911D01*
X179053230Y-78686000D01*
X179055346Y-78693727D01*
X179056910Y-78701589D01*
X179057721Y-78702400D01*
X179058383Y-78704816D01*
X179096479Y-78781007D01*
X179101392Y-78787338D01*
X179105845Y-78794001D01*
X179143939Y-78832096D01*
X179150605Y-78836550D01*
X179156934Y-78841462D01*
X179233124Y-78879557D01*
X179235539Y-78880218D01*
X179236351Y-78881030D01*
X179244212Y-78882593D01*
X179251940Y-78884710D01*
X179253028Y-78884347D01*
X179255485Y-78884836D01*
X179445961Y-78884836D01*
X179448417Y-78884347D01*
X179449505Y-78884710D01*
X179457229Y-78882594D01*
X179465095Y-78881030D01*
X179465906Y-78880218D01*
X179468321Y-78879557D01*
X179544513Y-78841462D01*
X179550844Y-78836548D01*
X179557507Y-78832096D01*
X179595602Y-78794002D01*
X179600061Y-78787327D01*
X179604968Y-78781006D01*
X179643064Y-78704815D01*
X179643725Y-78702399D01*
X179644536Y-78701589D01*
X179646099Y-78693728D01*
X179648216Y-78685999D01*
X179647853Y-78684911D01*
X179648342Y-78682455D01*
X179648342Y-78491979D01*
X179647853Y-78489522D01*
X179648216Y-78488434D01*
X179646099Y-78480706D01*
X179644536Y-78472845D01*
X179643724Y-78472033D01*
X179643063Y-78469618D01*
X179627492Y-78438476D01*
X179853104Y-78461038D01*
X179853104Y-78796741D01*
X179856910Y-78815875D01*
X179883970Y-78842935D01*
X179922238Y-78842935D01*
X179949298Y-78815875D01*
X179953104Y-78796741D01*
X179953104Y-78415789D01*
X179950724Y-78403828D01*
X179950973Y-78401347D01*
X179949993Y-78400149D01*
X179949298Y-78396655D01*
X179937398Y-78384755D01*
X179926740Y-78371728D01*
X179923331Y-78370688D01*
X179922238Y-78369595D01*
X179919746Y-78369595D01*
X179908079Y-78366037D01*
X179527127Y-78327941D01*
X179507710Y-78329824D01*
X179505663Y-78331499D01*
X179503018Y-78331499D01*
X179491116Y-78343400D01*
X179478091Y-78354057D01*
X179477827Y-78356688D01*
X179475958Y-78358558D01*
X179475958Y-78375385D01*
X179474283Y-78392135D01*
X179475958Y-78394182D01*
X179475958Y-78396827D01*
X179486796Y-78413048D01*
X179519154Y-78445407D01*
X179548342Y-78503782D01*
X179548342Y-78670652D01*
X179519155Y-78729026D01*
X179492535Y-78755647D01*
X179434159Y-78784836D01*
X179267288Y-78784836D01*
X179208913Y-78755648D01*
X179182292Y-78729028D01*
X179153104Y-78670651D01*
X179153104Y-78503782D01*
X179182292Y-78445406D01*
X179214651Y-78413048D01*
X179225489Y-78396827D01*
X179225488Y-78358558D01*
X179198429Y-78331499D01*
X179160160Y-78331500D01*
X179143939Y-78342338D01*
X179105844Y-78380434D01*
X179101388Y-78387102D01*
X179096479Y-78393428D01*
X179058383Y-78469618D01*
X179057721Y-78472033D01*
X179056910Y-78472845D01*
X179055346Y-78480706D01*
X179053230Y-78488434D01*
X179053592Y-78489522D01*
X179053104Y-78491979D01*
X178964215Y-78491979D01*
X178964215Y-78083747D01*
X179054288Y-78083747D01*
X179076233Y-78115098D01*
X179113919Y-78121748D01*
X179131777Y-78113894D01*
X179434057Y-77902298D01*
X179434057Y-77920551D01*
X179434545Y-77923007D01*
X179434183Y-77924096D01*
X179436299Y-77931823D01*
X179437863Y-77939685D01*
X179438674Y-77940496D01*
X179439336Y-77942912D01*
X179477431Y-78019102D01*
X179482346Y-78025436D01*
X179486797Y-78032096D01*
X179524891Y-78070191D01*
X179531557Y-78074645D01*
X179537886Y-78079557D01*
X179614077Y-78117653D01*
X179616492Y-78118314D01*
X179617304Y-78119126D01*
X179625165Y-78120689D01*
X179632893Y-78122806D01*
X179633981Y-78122443D01*
X179636438Y-78122932D01*
X179750723Y-78122932D01*
X179753179Y-78122443D01*
X179754268Y-78122806D01*
X179761995Y-78120689D01*
X179769857Y-78119126D01*
X179770668Y-78118314D01*
X179773084Y-78117653D01*
X179849275Y-78079557D01*
X179855606Y-78074643D01*
X179862269Y-78070191D01*
X179900364Y-78032097D01*
X179904818Y-78025430D01*
X179909730Y-78019102D01*
X179947825Y-77942912D01*
X179948486Y-77940496D01*
X179949298Y-77939685D01*
X179950861Y-77931823D01*
X179952978Y-77924096D01*
X179952615Y-77923007D01*
X179953104Y-77920551D01*
X179953104Y-77615789D01*
X179949298Y-77596655D01*
X179922238Y-77569595D01*
X179903104Y-77565789D01*
X179103104Y-77565789D01*
X179083970Y-77569595D01*
X179056910Y-77596655D01*
X179056910Y-77634923D01*
X179083970Y-77661983D01*
X179103104Y-77665789D01*
X179434057Y-77665789D01*
X179434057Y-77780232D01*
X179074431Y-78031970D01*
X179060938Y-78046061D01*
X179054288Y-78083747D01*
X178964215Y-78083747D01*
X178964215Y-77101416D01*
X179056910Y-77101416D01*
X179056910Y-77139684D01*
X179083970Y-77166744D01*
X179103104Y-77170550D01*
X179853104Y-77170550D01*
X179853104Y-77349122D01*
X179856910Y-77368256D01*
X179883970Y-77395316D01*
X179922238Y-77395316D01*
X179949298Y-77368256D01*
X179953104Y-77349122D01*
X179953104Y-76891979D01*
X179949298Y-76872845D01*
X179922238Y-76845785D01*
X179883970Y-76845785D01*
X179856910Y-76872845D01*
X179853104Y-76891979D01*
X179853104Y-77070550D01*
X179103104Y-77070550D01*
X179083970Y-77074356D01*
X179056910Y-77101416D01*
X178964215Y-77101416D01*
X178964215Y-76756896D01*
X180041993Y-76756896D01*
X180041993Y-78973725D01*
G37*
D12*
X164872493Y-78569819D02*
X164872493Y-79284104D01*
X164872493Y-79284104D02*
X164824874Y-79426961D01*
X164824874Y-79426961D02*
X164729636Y-79522200D01*
X164729636Y-79522200D02*
X164586779Y-79569819D01*
X164586779Y-79569819D02*
X164491541Y-79569819D01*
X165253446Y-78569819D02*
X165872493Y-78569819D01*
X165872493Y-78569819D02*
X165539160Y-78950771D01*
X165539160Y-78950771D02*
X165682017Y-78950771D01*
X165682017Y-78950771D02*
X165777255Y-78998390D01*
X165777255Y-78998390D02*
X165824874Y-79046009D01*
X165824874Y-79046009D02*
X165872493Y-79141247D01*
X165872493Y-79141247D02*
X165872493Y-79379342D01*
X165872493Y-79379342D02*
X165824874Y-79474580D01*
X165824874Y-79474580D02*
X165777255Y-79522200D01*
X165777255Y-79522200D02*
X165682017Y-79569819D01*
X165682017Y-79569819D02*
X165396303Y-79569819D01*
X165396303Y-79569819D02*
X165301065Y-79522200D01*
X165301065Y-79522200D02*
X165253446Y-79474580D01*
X165833333Y-64954819D02*
X165500000Y-64478628D01*
X165261905Y-64954819D02*
X165261905Y-63954819D01*
X165261905Y-63954819D02*
X165642857Y-63954819D01*
X165642857Y-63954819D02*
X165738095Y-64002438D01*
X165738095Y-64002438D02*
X165785714Y-64050057D01*
X165785714Y-64050057D02*
X165833333Y-64145295D01*
X165833333Y-64145295D02*
X165833333Y-64288152D01*
X165833333Y-64288152D02*
X165785714Y-64383390D01*
X165785714Y-64383390D02*
X165738095Y-64431009D01*
X165738095Y-64431009D02*
X165642857Y-64478628D01*
X165642857Y-64478628D02*
X165261905Y-64478628D01*
X166166667Y-63954819D02*
X166785714Y-63954819D01*
X166785714Y-63954819D02*
X166452381Y-64335771D01*
X166452381Y-64335771D02*
X166595238Y-64335771D01*
X166595238Y-64335771D02*
X166690476Y-64383390D01*
X166690476Y-64383390D02*
X166738095Y-64431009D01*
X166738095Y-64431009D02*
X166785714Y-64526247D01*
X166785714Y-64526247D02*
X166785714Y-64764342D01*
X166785714Y-64764342D02*
X166738095Y-64859580D01*
X166738095Y-64859580D02*
X166690476Y-64907200D01*
X166690476Y-64907200D02*
X166595238Y-64954819D01*
X166595238Y-64954819D02*
X166309524Y-64954819D01*
X166309524Y-64954819D02*
X166214286Y-64907200D01*
X166214286Y-64907200D02*
X166166667Y-64859580D01*
X192666666Y-84204819D02*
X192666666Y-84919104D01*
X192666666Y-84919104D02*
X192619047Y-85061961D01*
X192619047Y-85061961D02*
X192523809Y-85157200D01*
X192523809Y-85157200D02*
X192380952Y-85204819D01*
X192380952Y-85204819D02*
X192285714Y-85204819D01*
X193047619Y-84204819D02*
X193714285Y-84204819D01*
X193714285Y-84204819D02*
X193285714Y-85204819D01*
X188416666Y-68804819D02*
X188416666Y-69519104D01*
X188416666Y-69519104D02*
X188369047Y-69661961D01*
X188369047Y-69661961D02*
X188273809Y-69757200D01*
X188273809Y-69757200D02*
X188130952Y-69804819D01*
X188130952Y-69804819D02*
X188035714Y-69804819D01*
X188845238Y-68900057D02*
X188892857Y-68852438D01*
X188892857Y-68852438D02*
X188988095Y-68804819D01*
X188988095Y-68804819D02*
X189226190Y-68804819D01*
X189226190Y-68804819D02*
X189321428Y-68852438D01*
X189321428Y-68852438D02*
X189369047Y-68900057D01*
X189369047Y-68900057D02*
X189416666Y-68995295D01*
X189416666Y-68995295D02*
X189416666Y-69090533D01*
X189416666Y-69090533D02*
X189369047Y-69233390D01*
X189369047Y-69233390D02*
X188797619Y-69804819D01*
X188797619Y-69804819D02*
X189416666Y-69804819D01*
X137416666Y-83954819D02*
X137416666Y-84669104D01*
X137416666Y-84669104D02*
X137369047Y-84811961D01*
X137369047Y-84811961D02*
X137273809Y-84907200D01*
X137273809Y-84907200D02*
X137130952Y-84954819D01*
X137130952Y-84954819D02*
X137035714Y-84954819D01*
X138321428Y-83954819D02*
X138130952Y-83954819D01*
X138130952Y-83954819D02*
X138035714Y-84002438D01*
X138035714Y-84002438D02*
X137988095Y-84050057D01*
X137988095Y-84050057D02*
X137892857Y-84192914D01*
X137892857Y-84192914D02*
X137845238Y-84383390D01*
X137845238Y-84383390D02*
X137845238Y-84764342D01*
X137845238Y-84764342D02*
X137892857Y-84859580D01*
X137892857Y-84859580D02*
X137940476Y-84907200D01*
X137940476Y-84907200D02*
X138035714Y-84954819D01*
X138035714Y-84954819D02*
X138226190Y-84954819D01*
X138226190Y-84954819D02*
X138321428Y-84907200D01*
X138321428Y-84907200D02*
X138369047Y-84859580D01*
X138369047Y-84859580D02*
X138416666Y-84764342D01*
X138416666Y-84764342D02*
X138416666Y-84526247D01*
X138416666Y-84526247D02*
X138369047Y-84431009D01*
X138369047Y-84431009D02*
X138321428Y-84383390D01*
X138321428Y-84383390D02*
X138226190Y-84335771D01*
X138226190Y-84335771D02*
X138035714Y-84335771D01*
X138035714Y-84335771D02*
X137940476Y-84383390D01*
X137940476Y-84383390D02*
X137892857Y-84431009D01*
X137892857Y-84431009D02*
X137845238Y-84526247D01*
X152545180Y-69238095D02*
X151735657Y-69238095D01*
X151735657Y-69238095D02*
X151640419Y-69285714D01*
X151640419Y-69285714D02*
X151592800Y-69333333D01*
X151592800Y-69333333D02*
X151545180Y-69428571D01*
X151545180Y-69428571D02*
X151545180Y-69619047D01*
X151545180Y-69619047D02*
X151592800Y-69714285D01*
X151592800Y-69714285D02*
X151640419Y-69761904D01*
X151640419Y-69761904D02*
X151735657Y-69809523D01*
X151735657Y-69809523D02*
X152545180Y-69809523D01*
X152449942Y-70238095D02*
X152497561Y-70285714D01*
X152497561Y-70285714D02*
X152545180Y-70380952D01*
X152545180Y-70380952D02*
X152545180Y-70619047D01*
X152545180Y-70619047D02*
X152497561Y-70714285D01*
X152497561Y-70714285D02*
X152449942Y-70761904D01*
X152449942Y-70761904D02*
X152354704Y-70809523D01*
X152354704Y-70809523D02*
X152259466Y-70809523D01*
X152259466Y-70809523D02*
X152116609Y-70761904D01*
X152116609Y-70761904D02*
X151545180Y-70190476D01*
X151545180Y-70190476D02*
X151545180Y-70809523D01*
X155545180Y-65504200D02*
X155307085Y-65504200D01*
X155402323Y-65266105D02*
X155307085Y-65504200D01*
X155307085Y-65504200D02*
X155402323Y-65742295D01*
X155116609Y-65361343D02*
X155307085Y-65504200D01*
X155307085Y-65504200D02*
X155116609Y-65647057D01*
X154454819Y-65504199D02*
X154692914Y-65504199D01*
X154597676Y-65742294D02*
X154692914Y-65504199D01*
X154692914Y-65504199D02*
X154597676Y-65266104D01*
X154883390Y-65647056D02*
X154692914Y-65504199D01*
X154692914Y-65504199D02*
X154883390Y-65361342D01*
X165833333Y-70609580D02*
X165785714Y-70657200D01*
X165785714Y-70657200D02*
X165642857Y-70704819D01*
X165642857Y-70704819D02*
X165547619Y-70704819D01*
X165547619Y-70704819D02*
X165404762Y-70657200D01*
X165404762Y-70657200D02*
X165309524Y-70561961D01*
X165309524Y-70561961D02*
X165261905Y-70466723D01*
X165261905Y-70466723D02*
X165214286Y-70276247D01*
X165214286Y-70276247D02*
X165214286Y-70133390D01*
X165214286Y-70133390D02*
X165261905Y-69942914D01*
X165261905Y-69942914D02*
X165309524Y-69847676D01*
X165309524Y-69847676D02*
X165404762Y-69752438D01*
X165404762Y-69752438D02*
X165547619Y-69704819D01*
X165547619Y-69704819D02*
X165642857Y-69704819D01*
X165642857Y-69704819D02*
X165785714Y-69752438D01*
X165785714Y-69752438D02*
X165833333Y-69800057D01*
X166166667Y-69704819D02*
X166785714Y-69704819D01*
X166785714Y-69704819D02*
X166452381Y-70085771D01*
X166452381Y-70085771D02*
X166595238Y-70085771D01*
X166595238Y-70085771D02*
X166690476Y-70133390D01*
X166690476Y-70133390D02*
X166738095Y-70181009D01*
X166738095Y-70181009D02*
X166785714Y-70276247D01*
X166785714Y-70276247D02*
X166785714Y-70514342D01*
X166785714Y-70514342D02*
X166738095Y-70609580D01*
X166738095Y-70609580D02*
X166690476Y-70657200D01*
X166690476Y-70657200D02*
X166595238Y-70704819D01*
X166595238Y-70704819D02*
X166309524Y-70704819D01*
X166309524Y-70704819D02*
X166214286Y-70657200D01*
X166214286Y-70657200D02*
X166166667Y-70609580D01*
X137666666Y-78954819D02*
X137666666Y-79669104D01*
X137666666Y-79669104D02*
X137619047Y-79811961D01*
X137619047Y-79811961D02*
X137523809Y-79907200D01*
X137523809Y-79907200D02*
X137380952Y-79954819D01*
X137380952Y-79954819D02*
X137285714Y-79954819D01*
X138571428Y-79288152D02*
X138571428Y-79954819D01*
X138333333Y-78907200D02*
X138095238Y-79621485D01*
X138095238Y-79621485D02*
X138714285Y-79621485D01*
X152872493Y-78619819D02*
X152872493Y-79334104D01*
X152872493Y-79334104D02*
X152824874Y-79476961D01*
X152824874Y-79476961D02*
X152729636Y-79572200D01*
X152729636Y-79572200D02*
X152586779Y-79619819D01*
X152586779Y-79619819D02*
X152491541Y-79619819D01*
X153872493Y-79619819D02*
X153301065Y-79619819D01*
X153586779Y-79619819D02*
X153586779Y-78619819D01*
X153586779Y-78619819D02*
X153491541Y-78762676D01*
X153491541Y-78762676D02*
X153396303Y-78857914D01*
X153396303Y-78857914D02*
X153301065Y-78905533D01*
X165833333Y-67204819D02*
X165500000Y-66728628D01*
X165261905Y-67204819D02*
X165261905Y-66204819D01*
X165261905Y-66204819D02*
X165642857Y-66204819D01*
X165642857Y-66204819D02*
X165738095Y-66252438D01*
X165738095Y-66252438D02*
X165785714Y-66300057D01*
X165785714Y-66300057D02*
X165833333Y-66395295D01*
X165833333Y-66395295D02*
X165833333Y-66538152D01*
X165833333Y-66538152D02*
X165785714Y-66633390D01*
X165785714Y-66633390D02*
X165738095Y-66681009D01*
X165738095Y-66681009D02*
X165642857Y-66728628D01*
X165642857Y-66728628D02*
X165261905Y-66728628D01*
X166214286Y-66300057D02*
X166261905Y-66252438D01*
X166261905Y-66252438D02*
X166357143Y-66204819D01*
X166357143Y-66204819D02*
X166595238Y-66204819D01*
X166595238Y-66204819D02*
X166690476Y-66252438D01*
X166690476Y-66252438D02*
X166738095Y-66300057D01*
X166738095Y-66300057D02*
X166785714Y-66395295D01*
X166785714Y-66395295D02*
X166785714Y-66490533D01*
X166785714Y-66490533D02*
X166738095Y-66633390D01*
X166738095Y-66633390D02*
X166166667Y-67204819D01*
X166166667Y-67204819D02*
X166785714Y-67204819D01*
X165833333Y-73204819D02*
X165500000Y-72728628D01*
X165261905Y-73204819D02*
X165261905Y-72204819D01*
X165261905Y-72204819D02*
X165642857Y-72204819D01*
X165642857Y-72204819D02*
X165738095Y-72252438D01*
X165738095Y-72252438D02*
X165785714Y-72300057D01*
X165785714Y-72300057D02*
X165833333Y-72395295D01*
X165833333Y-72395295D02*
X165833333Y-72538152D01*
X165833333Y-72538152D02*
X165785714Y-72633390D01*
X165785714Y-72633390D02*
X165738095Y-72681009D01*
X165738095Y-72681009D02*
X165642857Y-72728628D01*
X165642857Y-72728628D02*
X165261905Y-72728628D01*
X166785714Y-73204819D02*
X166214286Y-73204819D01*
X166500000Y-73204819D02*
X166500000Y-72204819D01*
X166500000Y-72204819D02*
X166404762Y-72347676D01*
X166404762Y-72347676D02*
X166309524Y-72442914D01*
X166309524Y-72442914D02*
X166214286Y-72490533D01*
X165833333Y-75609580D02*
X165785714Y-75657200D01*
X165785714Y-75657200D02*
X165642857Y-75704819D01*
X165642857Y-75704819D02*
X165547619Y-75704819D01*
X165547619Y-75704819D02*
X165404762Y-75657200D01*
X165404762Y-75657200D02*
X165309524Y-75561961D01*
X165309524Y-75561961D02*
X165261905Y-75466723D01*
X165261905Y-75466723D02*
X165214286Y-75276247D01*
X165214286Y-75276247D02*
X165214286Y-75133390D01*
X165214286Y-75133390D02*
X165261905Y-74942914D01*
X165261905Y-74942914D02*
X165309524Y-74847676D01*
X165309524Y-74847676D02*
X165404762Y-74752438D01*
X165404762Y-74752438D02*
X165547619Y-74704819D01*
X165547619Y-74704819D02*
X165642857Y-74704819D01*
X165642857Y-74704819D02*
X165785714Y-74752438D01*
X165785714Y-74752438D02*
X165833333Y-74800057D01*
X166214286Y-74800057D02*
X166261905Y-74752438D01*
X166261905Y-74752438D02*
X166357143Y-74704819D01*
X166357143Y-74704819D02*
X166595238Y-74704819D01*
X166595238Y-74704819D02*
X166690476Y-74752438D01*
X166690476Y-74752438D02*
X166738095Y-74800057D01*
X166738095Y-74800057D02*
X166785714Y-74895295D01*
X166785714Y-74895295D02*
X166785714Y-74990533D01*
X166785714Y-74990533D02*
X166738095Y-75133390D01*
X166738095Y-75133390D02*
X166166667Y-75704819D01*
X166166667Y-75704819D02*
X166785714Y-75704819D01*
X190006666Y-83954819D02*
X190006666Y-84669104D01*
X190006666Y-84669104D02*
X189959047Y-84811961D01*
X189959047Y-84811961D02*
X189863809Y-84907200D01*
X189863809Y-84907200D02*
X189720952Y-84954819D01*
X189720952Y-84954819D02*
X189625714Y-84954819D01*
X190959047Y-83954819D02*
X190482857Y-83954819D01*
X190482857Y-83954819D02*
X190435238Y-84431009D01*
X190435238Y-84431009D02*
X190482857Y-84383390D01*
X190482857Y-84383390D02*
X190578095Y-84335771D01*
X190578095Y-84335771D02*
X190816190Y-84335771D01*
X190816190Y-84335771D02*
X190911428Y-84383390D01*
X190911428Y-84383390D02*
X190959047Y-84431009D01*
X190959047Y-84431009D02*
X191006666Y-84526247D01*
X191006666Y-84526247D02*
X191006666Y-84764342D01*
X191006666Y-84764342D02*
X190959047Y-84859580D01*
X190959047Y-84859580D02*
X190911428Y-84907200D01*
X190911428Y-84907200D02*
X190816190Y-84954819D01*
X190816190Y-84954819D02*
X190578095Y-84954819D01*
X190578095Y-84954819D02*
X190482857Y-84907200D01*
X190482857Y-84907200D02*
X190435238Y-84859580D01*
D13*
X162250000Y-81500000D02*
G75*
G02*
X159250000Y-81500000I-1500000J0D01*
G01*
X159250000Y-81500000D02*
G75*
G02*
X162250000Y-81500000I1500000J0D01*
G01*
D11*
X155990000Y-85775000D02*
X155990000Y-87425000D01*
X155990000Y-85775000D02*
X159612700Y-85775000D01*
X155990000Y-87425000D02*
X165510000Y-87425000D01*
X157656000Y-90881000D02*
X157656000Y-91019000D01*
X157656000Y-90881000D02*
X163844000Y-91441000D01*
X157656000Y-91019000D02*
X158035000Y-91230000D01*
X157656000Y-91019000D02*
X163844000Y-91579000D01*
X157656000Y-91441000D02*
X157656000Y-91579000D01*
X157656000Y-91441000D02*
X163844000Y-92001000D01*
X157656000Y-91579000D02*
X158035000Y-91790000D01*
X157656000Y-91579000D02*
X163844000Y-92139000D01*
X157656000Y-92001000D02*
X157656000Y-92139000D01*
X157656000Y-92001000D02*
X163844000Y-92561000D01*
X157656000Y-92139000D02*
X158035000Y-92350000D01*
X157656000Y-92139000D02*
X163844000Y-92699000D01*
X157656000Y-92561000D02*
X157656000Y-92699000D01*
X157656000Y-92561000D02*
X163844000Y-93121000D01*
X157656000Y-92699000D02*
X158035000Y-92910000D01*
X157656000Y-92699000D02*
X163844000Y-93259000D01*
X157656000Y-93121000D02*
X157656000Y-93259000D01*
X157656000Y-93121000D02*
X163844000Y-93681000D01*
X157656000Y-93259000D02*
X158035000Y-93470000D01*
X157656000Y-93259000D02*
X163844000Y-93819010D01*
X157656000Y-93681000D02*
X157656000Y-93819010D01*
X157656000Y-93681000D02*
X163844000Y-94241000D01*
X157656000Y-93819010D02*
X158035000Y-94030010D01*
X157656000Y-93819010D02*
X163844000Y-94379000D01*
X157656000Y-94241000D02*
X157656000Y-94379000D01*
X157656000Y-94241000D02*
X163415000Y-94590000D01*
X157656000Y-94379000D02*
X158035000Y-94590000D01*
X157656000Y-94379000D02*
X163415000Y-94590000D01*
X158035000Y-91230000D02*
X157656000Y-91441000D01*
X158035000Y-91230000D02*
X163465000Y-91790000D01*
X158035000Y-91790000D02*
X157656000Y-92001000D01*
X158035000Y-91790000D02*
X163465000Y-92350000D01*
X158035000Y-92350000D02*
X157656000Y-92561000D01*
X158035000Y-92350000D02*
X163465000Y-92910000D01*
X158035000Y-92910000D02*
X157656000Y-93121000D01*
X158035000Y-92910000D02*
X163465000Y-93470000D01*
X158035000Y-93470000D02*
X157656000Y-93681000D01*
X158035000Y-93470000D02*
X163465000Y-94030010D01*
X158035000Y-94030010D02*
X157656000Y-94241000D01*
X158035000Y-94030010D02*
X163415000Y-94590000D01*
X158035000Y-94590000D02*
X163415000Y-94590000D01*
X158037310Y-90670000D02*
X157656000Y-90881000D01*
X158037310Y-90670000D02*
X163465000Y-90670000D01*
X158037310Y-90670000D02*
X163465000Y-91230000D01*
X158037310Y-90670000D02*
X163844000Y-91019000D01*
X158085000Y-90670000D02*
X163844000Y-90881000D01*
X158085000Y-94590000D02*
X158085000Y-95305000D01*
X158085000Y-95305000D02*
X163415000Y-95305000D01*
X158302610Y-87425000D02*
X158302610Y-90295000D01*
X158302610Y-90295000D02*
X158085000Y-90670000D01*
X158302610Y-90295000D02*
X163203280Y-90295000D01*
X161887300Y-85775000D02*
X165510000Y-85775000D01*
X163203270Y-87425000D02*
X163203270Y-90295000D01*
X163203270Y-90295000D02*
X163415000Y-90670000D01*
X163415000Y-94590000D02*
X163415000Y-95305000D01*
X163465000Y-90670000D02*
X163844000Y-90881000D01*
X163465000Y-91230000D02*
X163844000Y-91441000D01*
X163465000Y-91790000D02*
X163844000Y-92001000D01*
X163465000Y-92350000D02*
X163844000Y-92561000D01*
X163465000Y-92910000D02*
X163844000Y-93121000D01*
X163465000Y-93470000D02*
X163844000Y-93681000D01*
X163465000Y-94030010D02*
X163844000Y-94241000D01*
X163844000Y-90881000D02*
X163844000Y-91019000D01*
X163844000Y-91019000D02*
X163465000Y-91230000D01*
X163844000Y-91441000D02*
X163844000Y-91579000D01*
X163844000Y-91579000D02*
X163465000Y-91790000D01*
X163844000Y-92001000D02*
X163844000Y-92139000D01*
X163844000Y-92139000D02*
X163465000Y-92350000D01*
X163844000Y-92561000D02*
X163844000Y-92699000D01*
X163844000Y-92699000D02*
X163465000Y-92910000D01*
X163844000Y-93121000D02*
X163844000Y-93259000D01*
X163844000Y-93259000D02*
X163465000Y-93470000D01*
X163844000Y-93681000D02*
X163844000Y-93819010D01*
X163844000Y-93819010D02*
X163465000Y-94030010D01*
X163844000Y-94241000D02*
X163844000Y-94379000D01*
X163844000Y-94379000D02*
X163415000Y-94590000D01*
X165510000Y-85775000D02*
X165510000Y-87425000D01*
D13*
X162022936Y-63590000D02*
X163477064Y-63590000D01*
X162022936Y-65410000D02*
X163477064Y-65410000D01*
X190440000Y-80720000D02*
X191710000Y-80720000D01*
X190440000Y-81990000D02*
X190440000Y-80720000D01*
X192820000Y-81610000D02*
X193207071Y-81610000D01*
X192820000Y-82370000D02*
X193207071Y-82370000D01*
X195292929Y-81610000D02*
X195690000Y-81610000D01*
X195292929Y-82370000D02*
X195690000Y-82370000D01*
X195690000Y-80660000D02*
X195690000Y-83320000D01*
X195690000Y-83320000D02*
X198350000Y-83320000D01*
X198350000Y-80660000D02*
X195690000Y-80660000D01*
X198350000Y-81610000D02*
X204350000Y-81610000D01*
X198350000Y-81670000D02*
X204350000Y-81670000D01*
X198350000Y-81790000D02*
X204350000Y-81790000D01*
X198350000Y-81910000D02*
X204350000Y-81910000D01*
X198350000Y-82030000D02*
X204350000Y-82030000D01*
X198350000Y-82150000D02*
X204350000Y-82150000D01*
X198350000Y-82270000D02*
X204350000Y-82270000D01*
X198350000Y-83320000D02*
X198350000Y-80660000D01*
X204350000Y-81610000D02*
X204350000Y-82370000D01*
X204350000Y-82370000D02*
X198350000Y-82370000D01*
X190440000Y-62940000D02*
X191710000Y-62940000D01*
X190440000Y-64210000D02*
X190440000Y-62940000D01*
X192752929Y-66370000D02*
X193207071Y-66370000D01*
X192752929Y-67130000D02*
X193207071Y-67130000D01*
X192752929Y-68910000D02*
X193207071Y-68910000D01*
X192752929Y-69670000D02*
X193207071Y-69670000D01*
X192752929Y-71450000D02*
X193207071Y-71450000D01*
X192752929Y-72210000D02*
X193207071Y-72210000D01*
X192752929Y-73990000D02*
X193207071Y-73990000D01*
X192752929Y-74750000D02*
X193207071Y-74750000D01*
X192752929Y-76530000D02*
X193207071Y-76530000D01*
X192752929Y-77290000D02*
X193207071Y-77290000D01*
X192820000Y-63830000D02*
X193207071Y-63830000D01*
X192820000Y-64590000D02*
X193207071Y-64590000D01*
X195292929Y-63830000D02*
X195690000Y-63830000D01*
X195292929Y-64590000D02*
X195690000Y-64590000D01*
X195292929Y-66370000D02*
X195690000Y-66370000D01*
X195292929Y-67130000D02*
X195690000Y-67130000D01*
X195292929Y-68910000D02*
X195690000Y-68910000D01*
X195292929Y-69670000D02*
X195690000Y-69670000D01*
X195292929Y-71450000D02*
X195690000Y-71450000D01*
X195292929Y-72210000D02*
X195690000Y-72210000D01*
X195292929Y-73990000D02*
X195690000Y-73990000D01*
X195292929Y-74750000D02*
X195690000Y-74750000D01*
X195292929Y-76530000D02*
X195690000Y-76530000D01*
X195292929Y-77290000D02*
X195690000Y-77290000D01*
X195690000Y-62880000D02*
X195690000Y-78240000D01*
X195690000Y-65480000D02*
X198350000Y-65480000D01*
X195690000Y-68020000D02*
X198350000Y-68020000D01*
X195690000Y-70560000D02*
X198350000Y-70560000D01*
X195690000Y-73100000D02*
X198350000Y-73100000D01*
X195690000Y-75640000D02*
X198350000Y-75640000D01*
X195690000Y-78240000D02*
X198350000Y-78240000D01*
X198350000Y-62880000D02*
X195690000Y-62880000D01*
X198350000Y-63830000D02*
X204350000Y-63830000D01*
X198350000Y-63890000D02*
X204350000Y-63890000D01*
X198350000Y-64010000D02*
X204350000Y-64010000D01*
X198350000Y-64130000D02*
X204350000Y-64130000D01*
X198350000Y-64250000D02*
X204350000Y-64250000D01*
X198350000Y-64370000D02*
X204350000Y-64370000D01*
X198350000Y-64490000D02*
X204350000Y-64490000D01*
X198350000Y-66370000D02*
X204350000Y-66370000D01*
X198350000Y-68910000D02*
X204350000Y-68910000D01*
X198350000Y-71450000D02*
X204350000Y-71450000D01*
X198350000Y-73990000D02*
X204350000Y-73990000D01*
X198350000Y-76530000D02*
X204350000Y-76530000D01*
X198350000Y-78240000D02*
X198350000Y-62880000D01*
X204350000Y-63830000D02*
X204350000Y-64590000D01*
X204350000Y-64590000D02*
X198350000Y-64590000D01*
X204350000Y-66370000D02*
X204350000Y-67130000D01*
X204350000Y-67130000D02*
X198350000Y-67130000D01*
X204350000Y-68910000D02*
X204350000Y-69670000D01*
X204350000Y-69670000D02*
X198350000Y-69670000D01*
X204350000Y-71450000D02*
X204350000Y-72210000D01*
X204350000Y-72210000D02*
X198350000Y-72210000D01*
X204350000Y-73990000D02*
X204350000Y-74750000D01*
X204350000Y-74750000D02*
X198350000Y-74750000D01*
X204350000Y-76530000D02*
X204350000Y-77290000D01*
X204350000Y-77290000D02*
X198350000Y-77290000D01*
X126670000Y-80700000D02*
X126670000Y-83360000D01*
X126670000Y-80700000D02*
X135300000Y-80700000D01*
X126670000Y-80820000D02*
X135300000Y-80820000D01*
X126670000Y-80935455D02*
X135300000Y-80935455D01*
X126670000Y-81050910D02*
X135300000Y-81050910D01*
X126670000Y-81166365D02*
X135300000Y-81166365D01*
X126670000Y-81281820D02*
X135300000Y-81281820D01*
X126670000Y-81397275D02*
X135300000Y-81397275D01*
X126670000Y-81512730D02*
X135300000Y-81512730D01*
X126670000Y-81628185D02*
X135300000Y-81628185D01*
X126670000Y-81743640D02*
X135300000Y-81743640D01*
X126670000Y-81859095D02*
X135300000Y-81859095D01*
X126670000Y-81974550D02*
X135300000Y-81974550D01*
X126670000Y-82090005D02*
X135300000Y-82090005D01*
X126670000Y-82205460D02*
X135300000Y-82205460D01*
X126670000Y-82320915D02*
X135300000Y-82320915D01*
X126670000Y-82436370D02*
X135300000Y-82436370D01*
X126670000Y-82551825D02*
X135300000Y-82551825D01*
X126670000Y-82667280D02*
X135300000Y-82667280D01*
X126670000Y-82782735D02*
X135300000Y-82782735D01*
X126670000Y-82898190D02*
X135300000Y-82898190D01*
X126670000Y-83013645D02*
X135300000Y-83013645D01*
X126670000Y-83129100D02*
X135300000Y-83129100D01*
X126670000Y-83244555D02*
X135300000Y-83244555D01*
X126670000Y-83360000D02*
X135300000Y-83360000D01*
X135300000Y-80700000D02*
X135300000Y-83360000D01*
X135300000Y-81670000D02*
X135710000Y-81670000D01*
X135300000Y-82390000D02*
X135710000Y-82390000D01*
X137810000Y-81670000D02*
X138190000Y-81670000D01*
X137810000Y-82390000D02*
X138190000Y-82390000D01*
X139300000Y-80700000D02*
X140410000Y-80700000D01*
X140410000Y-80700000D02*
X140410000Y-82030000D01*
D14*
X148317000Y-66317000D02*
X148317000Y-66790260D01*
X148317000Y-73209740D02*
X148317000Y-73683000D01*
X148317000Y-73683000D02*
X148790260Y-73683000D01*
X148790260Y-66317000D02*
X148317000Y-66317000D01*
X155209740Y-73683000D02*
X155683000Y-73683000D01*
X155683000Y-66317000D02*
X155209740Y-66317000D01*
X155683000Y-66790260D02*
X155683000Y-66317000D01*
X155683000Y-73683000D02*
X155683000Y-73209740D01*
D15*
G36*
X147885200Y-70940501D02*
G01*
X147631200Y-70940501D01*
X147631200Y-70559501D01*
X147885200Y-70559501D01*
X147885200Y-70940501D01*
G37*
G36*
X150440501Y-65885200D02*
G01*
X150059501Y-65885200D01*
X150059501Y-65631200D01*
X150440501Y-65631200D01*
X150440501Y-65885200D01*
G37*
G36*
X151940501Y-74368800D02*
G01*
X151559500Y-74368800D01*
X151559500Y-74114800D01*
X151940501Y-74114800D01*
X151940501Y-74368800D01*
G37*
G36*
X156368800Y-71440500D02*
G01*
X156114800Y-71440500D01*
X156114800Y-71059500D01*
X156368800Y-71059500D01*
X156368800Y-71440500D01*
G37*
D13*
X149750000Y-81500000D02*
G75*
G02*
X146750000Y-81500000I-1500000J0D01*
G01*
X146750000Y-81500000D02*
G75*
G02*
X149750000Y-81500000I1500000J0D01*
G01*
X163415652Y-69340001D02*
X161993148Y-69340001D01*
X163415652Y-71160001D02*
X161993148Y-71160001D01*
X126670000Y-62920000D02*
X126670000Y-78280000D01*
X126670000Y-62920000D02*
X135300000Y-62920000D01*
X126670000Y-63040000D02*
X135300000Y-63040000D01*
X126670000Y-63158095D02*
X135300000Y-63158095D01*
X126670000Y-63276190D02*
X135300000Y-63276190D01*
X126670000Y-63394285D02*
X135300000Y-63394285D01*
X126670000Y-63512380D02*
X135300000Y-63512380D01*
X126670000Y-63630475D02*
X135300000Y-63630475D01*
X126670000Y-63748570D02*
X135300000Y-63748570D01*
X126670000Y-63866665D02*
X135300000Y-63866665D01*
X126670000Y-63984760D02*
X135300000Y-63984760D01*
X126670000Y-64102855D02*
X135300000Y-64102855D01*
X126670000Y-64220950D02*
X135300000Y-64220950D01*
X126670000Y-64339045D02*
X135300000Y-64339045D01*
X126670000Y-64457140D02*
X135300000Y-64457140D01*
X126670000Y-64575235D02*
X135300000Y-64575235D01*
X126670000Y-64693330D02*
X135300000Y-64693330D01*
X126670000Y-64811425D02*
X135300000Y-64811425D01*
X126670000Y-64929520D02*
X135300000Y-64929520D01*
X126670000Y-65047615D02*
X135300000Y-65047615D01*
X126670000Y-65165710D02*
X135300000Y-65165710D01*
X126670000Y-65283805D02*
X135300000Y-65283805D01*
X126670000Y-65401900D02*
X135300000Y-65401900D01*
X126670000Y-65520000D02*
X135300000Y-65520000D01*
X126670000Y-68060000D02*
X135300000Y-68060000D01*
X126670000Y-70600000D02*
X135300000Y-70600000D01*
X126670000Y-73140000D02*
X135300000Y-73140000D01*
X126670000Y-75680000D02*
X135300000Y-75680000D01*
X126670000Y-78280000D02*
X135300000Y-78280000D01*
X135300000Y-62920000D02*
X135300000Y-78280000D01*
X135300000Y-63890000D02*
X135710000Y-63890000D01*
X135300000Y-64610000D02*
X135710000Y-64610000D01*
X135300000Y-66430000D02*
X135710000Y-66430000D01*
X135300000Y-67150000D02*
X135710000Y-67150000D01*
X135300000Y-68970000D02*
X135710000Y-68970000D01*
X135300000Y-69690000D02*
X135710000Y-69690000D01*
X135300000Y-71510000D02*
X135710000Y-71510000D01*
X135300000Y-72230000D02*
X135710000Y-72230000D01*
X135300000Y-74050000D02*
X135710000Y-74050000D01*
X135300000Y-74770000D02*
X135710000Y-74770000D01*
X135300000Y-76590000D02*
X135710000Y-76590000D01*
X135300000Y-77310000D02*
X135710000Y-77310000D01*
X137810000Y-63890000D02*
X138190000Y-63890000D01*
X137810000Y-64610000D02*
X138190000Y-64610000D01*
X137810000Y-66430000D02*
X138250000Y-66430000D01*
X137810000Y-67150000D02*
X138250000Y-67150000D01*
X137810000Y-68970000D02*
X138250000Y-68970000D01*
X137810000Y-69690000D02*
X138250000Y-69690000D01*
X137810000Y-71510000D02*
X138250000Y-71510000D01*
X137810000Y-72230000D02*
X138250000Y-72230000D01*
X137810000Y-74050000D02*
X138250000Y-74050000D01*
X137810000Y-74770000D02*
X138250000Y-74770000D01*
X137810000Y-76590000D02*
X138250000Y-76590000D01*
X137810000Y-77310000D02*
X138250000Y-77310000D01*
X139300000Y-62920000D02*
X140410000Y-62920000D01*
X140410000Y-62920000D02*
X140410000Y-64250000D01*
D11*
X143490000Y-85775000D02*
X143490000Y-87425000D01*
X143490000Y-85775000D02*
X147112700Y-85775000D01*
X143490000Y-87425000D02*
X153010000Y-87425000D01*
X145156000Y-90881000D02*
X145156000Y-91019000D01*
X145156000Y-90881000D02*
X151344000Y-91441000D01*
X145156000Y-91019000D02*
X145535000Y-91230000D01*
X145156000Y-91019000D02*
X151344000Y-91579000D01*
X145156000Y-91441000D02*
X145156000Y-91579000D01*
X145156000Y-91441000D02*
X151344000Y-92001000D01*
X145156000Y-91579000D02*
X145535000Y-91790000D01*
X145156000Y-91579000D02*
X151344000Y-92139000D01*
X145156000Y-92001000D02*
X145156000Y-92139000D01*
X145156000Y-92001000D02*
X151344000Y-92561000D01*
X145156000Y-92139000D02*
X145535000Y-92350000D01*
X145156000Y-92139000D02*
X151344000Y-92699000D01*
X145156000Y-92561000D02*
X145156000Y-92699000D01*
X145156000Y-92561000D02*
X151344000Y-93121000D01*
X145156000Y-92699000D02*
X145535000Y-92910000D01*
X145156000Y-92699000D02*
X151344000Y-93259000D01*
X145156000Y-93121000D02*
X145156000Y-93259000D01*
X145156000Y-93121000D02*
X151344000Y-93681000D01*
X145156000Y-93259000D02*
X145535000Y-93470000D01*
X145156000Y-93259000D02*
X151344000Y-93819010D01*
X145156000Y-93681000D02*
X145156000Y-93819010D01*
X145156000Y-93681000D02*
X151344000Y-94241000D01*
X145156000Y-93819010D02*
X145535000Y-94030010D01*
X145156000Y-93819010D02*
X151344000Y-94379000D01*
X145156000Y-94241000D02*
X145156000Y-94379000D01*
X145156000Y-94241000D02*
X150915000Y-94590000D01*
X145156000Y-94379000D02*
X145535000Y-94590000D01*
X145156000Y-94379000D02*
X150915000Y-94590000D01*
X145535000Y-91230000D02*
X145156000Y-91441000D01*
X145535000Y-91230000D02*
X150965000Y-91790000D01*
X145535000Y-91790000D02*
X145156000Y-92001000D01*
X145535000Y-91790000D02*
X150965000Y-92350000D01*
X145535000Y-92350000D02*
X145156000Y-92561000D01*
X145535000Y-92350000D02*
X150965000Y-92910000D01*
X145535000Y-92910000D02*
X145156000Y-93121000D01*
X145535000Y-92910000D02*
X150965000Y-93470000D01*
X145535000Y-93470000D02*
X145156000Y-93681000D01*
X145535000Y-93470000D02*
X150965000Y-94030010D01*
X145535000Y-94030010D02*
X145156000Y-94241000D01*
X145535000Y-94030010D02*
X150915000Y-94590000D01*
X145535000Y-94590000D02*
X150915000Y-94590000D01*
X145537310Y-90670000D02*
X145156000Y-90881000D01*
X145537310Y-90670000D02*
X150965000Y-90670000D01*
X145537310Y-90670000D02*
X150965000Y-91230000D01*
X145537310Y-90670000D02*
X151344000Y-91019000D01*
X145585000Y-90670000D02*
X151344000Y-90881000D01*
X145585000Y-94590000D02*
X145585000Y-95305000D01*
X145585000Y-95305000D02*
X150915000Y-95305000D01*
X145802610Y-87425000D02*
X145802610Y-90295000D01*
X145802610Y-90295000D02*
X145585000Y-90670000D01*
X145802610Y-90295000D02*
X150703280Y-90295000D01*
X149387300Y-85775000D02*
X153010000Y-85775000D01*
X150703270Y-87425000D02*
X150703270Y-90295000D01*
X150703270Y-90295000D02*
X150915000Y-90670000D01*
X150915000Y-94590000D02*
X150915000Y-95305000D01*
X150965000Y-90670000D02*
X151344000Y-90881000D01*
X150965000Y-91230000D02*
X151344000Y-91441000D01*
X150965000Y-91790000D02*
X151344000Y-92001000D01*
X150965000Y-92350000D02*
X151344000Y-92561000D01*
X150965000Y-92910000D02*
X151344000Y-93121000D01*
X150965000Y-93470000D02*
X151344000Y-93681000D01*
X150965000Y-94030010D02*
X151344000Y-94241000D01*
X151344000Y-90881000D02*
X151344000Y-91019000D01*
X151344000Y-91019000D02*
X150965000Y-91230000D01*
X151344000Y-91441000D02*
X151344000Y-91579000D01*
X151344000Y-91579000D02*
X150965000Y-91790000D01*
X151344000Y-92001000D02*
X151344000Y-92139000D01*
X151344000Y-92139000D02*
X150965000Y-92350000D01*
X151344000Y-92561000D02*
X151344000Y-92699000D01*
X151344000Y-92699000D02*
X150965000Y-92910000D01*
X151344000Y-93121000D02*
X151344000Y-93259000D01*
X151344000Y-93259000D02*
X150965000Y-93470000D01*
X151344000Y-93681000D02*
X151344000Y-93819010D01*
X151344000Y-93819010D02*
X150965000Y-94030010D01*
X151344000Y-94241000D02*
X151344000Y-94379000D01*
X151344000Y-94379000D02*
X150915000Y-94590000D01*
X153010000Y-85775000D02*
X153010000Y-87425000D01*
D13*
X162022936Y-65840000D02*
X163477064Y-65840000D01*
X162022936Y-67660000D02*
X163477064Y-67660000D01*
X162022936Y-71840000D02*
X163477064Y-71840000D01*
X162022936Y-73660000D02*
X163477064Y-73660000D01*
X163461252Y-74340000D02*
X162038748Y-74340000D01*
X163461252Y-76160000D02*
X162038748Y-76160000D01*
X168390000Y-79380000D02*
X168390000Y-84580000D01*
X186230000Y-79380000D02*
X168390000Y-79380000D01*
X186230000Y-79380000D02*
X186230000Y-81980000D01*
X186230000Y-81980000D02*
X188830000Y-81980000D01*
X187500000Y-79380000D02*
X188830000Y-79380000D01*
X188830000Y-79380000D02*
X188830000Y-80710000D01*
X188830000Y-81980000D02*
X188830000Y-84580000D01*
X188830000Y-84580000D02*
X168390000Y-84580000D01*
%LPC*%
D16*
X160750000Y-81500000D03*
D17*
X160750000Y-84500000D03*
D18*
X157450000Y-82937500D03*
D19*
X164000000Y-82937500D03*
G36*
G01*
X160725000Y-65125000D02*
X160725000Y-63875000D01*
G75*
G02*
X160975000Y-63625000I250000J0D01*
G01*
X161600000Y-63625000D01*
G75*
G02*
X161850000Y-63875000I0J-250000D01*
G01*
X161850000Y-65125000D01*
G75*
G02*
X161600000Y-65375000I-250000J0D01*
G01*
X160975000Y-65375000D01*
G75*
G02*
X160725000Y-65125000I0J250000D01*
G01*
G37*
G36*
G01*
X163650000Y-65125000D02*
X163650000Y-63875000D01*
G75*
G02*
X163900000Y-63625000I250000J0D01*
G01*
X164525000Y-63625000D01*
G75*
G02*
X164775000Y-63875000I0J-250000D01*
G01*
X164775000Y-65125000D01*
G75*
G02*
X164525000Y-65375000I-250000J0D01*
G01*
X163900000Y-65375000D01*
G75*
G02*
X163650000Y-65125000I0J250000D01*
G01*
G37*
D20*
X191710000Y-81990000D03*
D21*
X194250000Y-81990000D03*
D20*
X191710000Y-64210000D03*
D21*
X194250000Y-64210000D03*
X191710000Y-66750000D03*
X194250000Y-66750000D03*
X191710000Y-69290000D03*
X194250000Y-69290000D03*
X191710000Y-71830000D03*
X194250000Y-71830000D03*
X191710000Y-74370000D03*
X194250000Y-74370000D03*
X191710000Y-76910000D03*
X194250000Y-76910000D03*
D20*
X139300000Y-82030000D03*
D21*
X136760000Y-82030000D03*
D22*
X154750000Y-66545600D03*
X154250001Y-66545600D03*
X153749999Y-66545600D03*
X153250000Y-66545600D03*
X152750001Y-66545600D03*
X152250000Y-66545600D03*
X151750000Y-66545600D03*
X151249999Y-66545600D03*
X150750000Y-66545600D03*
X150250001Y-66545600D03*
X149749999Y-66545600D03*
X149250000Y-66545600D03*
D23*
X148545600Y-67250000D03*
X148545600Y-67749999D03*
X148545600Y-68250001D03*
X148545600Y-68750000D03*
X148545600Y-69249999D03*
X148545600Y-69750000D03*
X148545600Y-70250000D03*
X148545600Y-70750001D03*
X148545600Y-71250000D03*
X148545600Y-71749999D03*
X148545600Y-72250001D03*
X148545600Y-72750000D03*
D22*
X149250000Y-73454400D03*
X149749999Y-73454400D03*
X150250001Y-73454400D03*
X150750000Y-73454400D03*
X151249999Y-73454400D03*
X151750000Y-73454400D03*
X152250000Y-73454400D03*
X152750001Y-73454400D03*
X153250000Y-73454400D03*
X153749999Y-73454400D03*
X154250001Y-73454400D03*
X154750000Y-73454400D03*
D23*
X155454400Y-72750000D03*
X155454400Y-72250001D03*
X155454400Y-71749999D03*
X155454400Y-71250000D03*
X155454400Y-70750001D03*
X155454400Y-70250000D03*
X155454400Y-69750000D03*
X155454400Y-69249999D03*
X155454400Y-68750000D03*
X155454400Y-68250001D03*
X155454400Y-67749999D03*
X155454400Y-67250000D03*
D24*
X152000000Y-70000000D03*
D16*
X148250000Y-81500000D03*
G36*
G01*
X164754400Y-69600001D02*
X164754400Y-70900001D01*
G75*
G02*
X164504400Y-71150001I-250000J0D01*
G01*
X163854400Y-71150001D01*
G75*
G02*
X163604400Y-70900001I0J250000D01*
G01*
X163604400Y-69600001D01*
G75*
G02*
X163854400Y-69350001I250000J0D01*
G01*
X164504400Y-69350001D01*
G75*
G02*
X164754400Y-69600001I0J-250000D01*
G01*
G37*
G36*
G01*
X161804400Y-69600001D02*
X161804400Y-70900001D01*
G75*
G02*
X161554400Y-71150001I-250000J0D01*
G01*
X160904400Y-71150001D01*
G75*
G02*
X160654400Y-70900001I0J250000D01*
G01*
X160654400Y-69600001D01*
G75*
G02*
X160904400Y-69350001I250000J0D01*
G01*
X161554400Y-69350001D01*
G75*
G02*
X161804400Y-69600001I0J-250000D01*
G01*
G37*
D20*
X139300000Y-64250000D03*
D21*
X136760000Y-64250000D03*
X139300000Y-66790000D03*
X136760000Y-66790000D03*
X139300000Y-69330000D03*
X136760000Y-69330000D03*
X139300000Y-71870000D03*
X136760000Y-71870000D03*
X139300000Y-74410000D03*
X136760000Y-74410000D03*
X139300000Y-76950000D03*
X136760000Y-76950000D03*
D17*
X148250000Y-84500000D03*
D18*
X144950000Y-82937500D03*
D19*
X151500000Y-82937500D03*
G36*
G01*
X160725000Y-67375000D02*
X160725000Y-66125000D01*
G75*
G02*
X160975000Y-65875000I250000J0D01*
G01*
X161600000Y-65875000D01*
G75*
G02*
X161850000Y-66125000I0J-250000D01*
G01*
X161850000Y-67375000D01*
G75*
G02*
X161600000Y-67625000I-250000J0D01*
G01*
X160975000Y-67625000D01*
G75*
G02*
X160725000Y-67375000I0J250000D01*
G01*
G37*
G36*
G01*
X163650000Y-67375000D02*
X163650000Y-66125000D01*
G75*
G02*
X163900000Y-65875000I250000J0D01*
G01*
X164525000Y-65875000D01*
G75*
G02*
X164775000Y-66125000I0J-250000D01*
G01*
X164775000Y-67375000D01*
G75*
G02*
X164525000Y-67625000I-250000J0D01*
G01*
X163900000Y-67625000D01*
G75*
G02*
X163650000Y-67375000I0J250000D01*
G01*
G37*
G36*
G01*
X160725000Y-73375000D02*
X160725000Y-72125000D01*
G75*
G02*
X160975000Y-71875000I250000J0D01*
G01*
X161600000Y-71875000D01*
G75*
G02*
X161850000Y-72125000I0J-250000D01*
G01*
X161850000Y-73375000D01*
G75*
G02*
X161600000Y-73625000I-250000J0D01*
G01*
X160975000Y-73625000D01*
G75*
G02*
X160725000Y-73375000I0J250000D01*
G01*
G37*
G36*
G01*
X163650000Y-73375000D02*
X163650000Y-72125000D01*
G75*
G02*
X163900000Y-71875000I250000J0D01*
G01*
X164525000Y-71875000D01*
G75*
G02*
X164775000Y-72125000I0J-250000D01*
G01*
X164775000Y-73375000D01*
G75*
G02*
X164525000Y-73625000I-250000J0D01*
G01*
X163900000Y-73625000D01*
G75*
G02*
X163650000Y-73375000I0J250000D01*
G01*
G37*
G36*
G01*
X164800000Y-74600000D02*
X164800000Y-75900000D01*
G75*
G02*
X164550000Y-76150000I-250000J0D01*
G01*
X163900000Y-76150000D01*
G75*
G02*
X163650000Y-75900000I0J250000D01*
G01*
X163650000Y-74600000D01*
G75*
G02*
X163900000Y-74350000I250000J0D01*
G01*
X164550000Y-74350000D01*
G75*
G02*
X164800000Y-74600000I0J-250000D01*
G01*
G37*
G36*
G01*
X161850000Y-74600000D02*
X161850000Y-75900000D01*
G75*
G02*
X161600000Y-76150000I-250000J0D01*
G01*
X160950000Y-76150000D01*
G75*
G02*
X160700000Y-75900000I0J250000D01*
G01*
X160700000Y-74600000D01*
G75*
G02*
X160950000Y-74350000I250000J0D01*
G01*
X161600000Y-74350000D01*
G75*
G02*
X161850000Y-74600000I0J-250000D01*
G01*
G37*
D20*
X187500000Y-80710000D03*
D21*
X187500000Y-83250000D03*
X184960000Y-80710000D03*
X184960000Y-83250000D03*
X182420000Y-80710000D03*
X182420000Y-83250000D03*
X179880000Y-80710000D03*
X179880000Y-83250000D03*
X177340000Y-80710000D03*
X177340000Y-83250000D03*
X174800000Y-80710000D03*
X174800000Y-83250000D03*
X172260000Y-80710000D03*
X172260000Y-83250000D03*
X169720000Y-80710000D03*
X169720000Y-83250000D03*
%LPD*%
M02*
