%TF.GenerationSoftware,KiCad,Pcbnew,10.0.4-10.0.4~ubuntu22.04.1*%
%TF.CreationDate,2026-09-12T00:20:09+02:00*%
%TF.ProjectId,MAX14866_PMOD,4d415831-3438-4363-965f-504d4f442e6b,rev?*%
%TF.SameCoordinates,Original*%
%TF.FileFunction,Drillmap*%
%TF.FilePolarity,Positive*%
%FSLAX45Y45*%
G04 Gerber Fmt 4.5, Leading zero omitted, Abs format (unit mm)*
G04 Created by KiCad (PCBNEW 10.0.4-10.0.4~ubuntu22.04.1) date 2026-09-12 00:20:09*
%MOMM*%
%LPD*%
G01*
G04 APERTURE LIST*
%ADD10C,0.100000*%
%ADD11C,0.200000*%
G04 APERTURE END LIST*
D10*
X13400000Y-6325000D02*
G75*
G02*
X13500000Y-6225000I100000J0D01*
G01*
X13500000Y-8575000D02*
G75*
G02*
X13400000Y-8475000I0J100000D01*
G01*
X19700000Y-6325000D02*
X19700000Y-8475000D01*
X13400000Y-8475000D02*
X13400000Y-6325000D01*
X13500000Y-6225000D02*
X19600000Y-6225000D01*
X19600000Y-6225000D02*
G75*
G02*
X19700000Y-6325000I0J-100000D01*
G01*
X19700000Y-8475000D02*
G75*
G02*
X19600000Y-8575000I-100000J0D01*
G01*
X19600000Y-8575000D02*
X13500000Y-8575000D01*
D11*
X13655777Y-8891484D02*
X13655777Y-8691484D01*
X13655777Y-8691484D02*
X13703396Y-8691484D01*
X13703396Y-8691484D02*
X13731967Y-8701008D01*
X13731967Y-8701008D02*
X13751015Y-8720055D01*
X13751015Y-8720055D02*
X13760539Y-8739103D01*
X13760539Y-8739103D02*
X13770062Y-8777198D01*
X13770062Y-8777198D02*
X13770062Y-8805770D01*
X13770062Y-8805770D02*
X13760539Y-8843865D01*
X13760539Y-8843865D02*
X13751015Y-8862912D01*
X13751015Y-8862912D02*
X13731967Y-8881960D01*
X13731967Y-8881960D02*
X13703396Y-8891484D01*
X13703396Y-8891484D02*
X13655777Y-8891484D01*
X13855777Y-8891484D02*
X13855777Y-8758150D01*
X13855777Y-8796246D02*
X13865301Y-8777198D01*
X13865301Y-8777198D02*
X13874824Y-8767674D01*
X13874824Y-8767674D02*
X13893872Y-8758150D01*
X13893872Y-8758150D02*
X13912920Y-8758150D01*
X13979586Y-8891484D02*
X13979586Y-8758150D01*
X13979586Y-8691484D02*
X13970062Y-8701008D01*
X13970062Y-8701008D02*
X13979586Y-8710531D01*
X13979586Y-8710531D02*
X13989110Y-8701008D01*
X13989110Y-8701008D02*
X13979586Y-8691484D01*
X13979586Y-8691484D02*
X13979586Y-8710531D01*
X14103396Y-8891484D02*
X14084348Y-8881960D01*
X14084348Y-8881960D02*
X14074824Y-8862912D01*
X14074824Y-8862912D02*
X14074824Y-8691484D01*
X14208158Y-8891484D02*
X14189110Y-8881960D01*
X14189110Y-8881960D02*
X14179586Y-8862912D01*
X14179586Y-8862912D02*
X14179586Y-8691484D01*
X14436729Y-8891484D02*
X14436729Y-8691484D01*
X14436729Y-8691484D02*
X14503396Y-8834341D01*
X14503396Y-8834341D02*
X14570062Y-8691484D01*
X14570062Y-8691484D02*
X14570062Y-8891484D01*
X14751015Y-8891484D02*
X14751015Y-8786722D01*
X14751015Y-8786722D02*
X14741491Y-8767674D01*
X14741491Y-8767674D02*
X14722443Y-8758150D01*
X14722443Y-8758150D02*
X14684348Y-8758150D01*
X14684348Y-8758150D02*
X14665301Y-8767674D01*
X14751015Y-8881960D02*
X14731967Y-8891484D01*
X14731967Y-8891484D02*
X14684348Y-8891484D01*
X14684348Y-8891484D02*
X14665301Y-8881960D01*
X14665301Y-8881960D02*
X14655777Y-8862912D01*
X14655777Y-8862912D02*
X14655777Y-8843865D01*
X14655777Y-8843865D02*
X14665301Y-8824817D01*
X14665301Y-8824817D02*
X14684348Y-8815293D01*
X14684348Y-8815293D02*
X14731967Y-8815293D01*
X14731967Y-8815293D02*
X14751015Y-8805770D01*
X14846253Y-8758150D02*
X14846253Y-8958150D01*
X14846253Y-8767674D02*
X14865301Y-8758150D01*
X14865301Y-8758150D02*
X14903396Y-8758150D01*
X14903396Y-8758150D02*
X14922443Y-8767674D01*
X14922443Y-8767674D02*
X14931967Y-8777198D01*
X14931967Y-8777198D02*
X14941491Y-8796246D01*
X14941491Y-8796246D02*
X14941491Y-8853389D01*
X14941491Y-8853389D02*
X14931967Y-8872436D01*
X14931967Y-8872436D02*
X14922443Y-8881960D01*
X14922443Y-8881960D02*
X14903396Y-8891484D01*
X14903396Y-8891484D02*
X14865301Y-8891484D01*
X14865301Y-8891484D02*
X14846253Y-8881960D01*
X15027205Y-8872436D02*
X15036729Y-8881960D01*
X15036729Y-8881960D02*
X15027205Y-8891484D01*
X15027205Y-8891484D02*
X15017682Y-8881960D01*
X15017682Y-8881960D02*
X15027205Y-8872436D01*
X15027205Y-8872436D02*
X15027205Y-8891484D01*
X15027205Y-8767674D02*
X15036729Y-8777198D01*
X15036729Y-8777198D02*
X15027205Y-8786722D01*
X15027205Y-8786722D02*
X15017682Y-8777198D01*
X15017682Y-8777198D02*
X15027205Y-8767674D01*
X15027205Y-8767674D02*
X15027205Y-8786722D01*
M02*
