%TF.GenerationSoftware,KiCad,Pcbnew,8.0.3-8.0.3-0~ubuntu22.04.1*%
%TF.CreationDate,2024-11-28T20:40:16+01:00*%
%TF.ProjectId,PMOD-Pulser_update,504d4f44-2d50-4756-9c73-65725f757064,rev?*%
%TF.SameCoordinates,PX5e2ce30PY52bb330*%
%TF.FileFunction,Component,L1,Top*%
%TF.FilePolarity,Positive*%
%FSLAX46Y46*%
G04 Gerber Fmt 4.6, Leading zero omitted, Abs format (unit mm)*
G04 Created by KiCad (PCBNEW 8.0.3-8.0.3-0~ubuntu22.04.1) date 2024-11-28 20:40:16*
%MOMM*%
%LPD*%
G01*
G04 APERTURE LIST*
%TA.AperFunction,ComponentMain*%
%ADD10C,0.300000*%
%TD*%
%TA.AperFunction,ComponentOutline,Courtyard*%
%ADD11C,0.100000*%
%TD*%
%TA.AperFunction,ComponentPin*%
%ADD12P,0.360000X4X0.000000*%
%TD*%
%TA.AperFunction,ComponentPin*%
%ADD13C,0.100000*%
%TD*%
%TA.AperFunction,ComponentOutline,Footprint*%
%ADD14C,0.100000*%
%TD*%
G04 APERTURE END LIST*
D10*
%TO.C,J4*%
%TO.CFtp,PinHeader_1x03_P2.54mm_Vertical*%
%TO.CVal,Conn_01x03_Pin*%
%TO.CLbN,Connector_PinHeader_2.54mm*%
%TO.CMnt,TH*%
%TO.CRot,-90*%
X58000000Y20000000D03*
D11*
X59799999Y21799999D02*
X59799999Y18200001D01*
X51150001Y18200001D01*
X51150001Y21799999D01*
X59799999Y21799999D01*
D12*
%TO.P,J4,1,Pin_1*%
X58000000Y20000000D03*
D13*
%TO.P,J4,2,Pin_2*%
X55460000Y20000000D03*
%TO.P,J4,3,Pin_3*%
X52920000Y20000000D03*
%TD*%
D10*
%TO.C,REF\u005Cu002A\u005Cu002A*%
%TO.CFtp,TestPoint_Loop_D1.80mm_Drill1.0mm_Beaded*%
%TO.CVal,TestPoint_Loop_D1.80mm_Drill1.0mm_Beaded*%
%TO.CLbN,TestPoint*%
%TO.CMnt,TH*%
%TO.CRot,0*%
X61000000Y11250000D03*
D11*
X61000000Y13052522D02*
X61268652Y13032390D01*
X61531303Y12972441D01*
X61782085Y12874018D01*
X61782085Y12874017D01*
X62015397Y12739314D01*
X62226026Y12571342D01*
X62409269Y12373854D01*
X62561030Y12151261D01*
X62677921Y11908536D01*
X62757329Y11651099D01*
X62797482Y11384703D01*
X62799999Y11250000D01*
X62797482Y11115297D01*
X62757329Y10848901D01*
X62677921Y10591464D01*
X62561030Y10348739D01*
X62409269Y10126146D01*
X62226026Y9928658D01*
X62015397Y9760686D01*
X61782085Y9625983D01*
X61531303Y9527559D01*
X61268652Y9467610D01*
X61000000Y9447477D01*
X60731348Y9467610D01*
X60468697Y9527559D01*
X60217914Y9625983D01*
X60217915Y9625983D01*
X59984603Y9760686D01*
X59773974Y9928658D01*
X59590731Y10126146D01*
X59438970Y10348739D01*
X59322079Y10591464D01*
X59242671Y10848901D01*
X59202518Y11115297D01*
X59202518Y11384703D01*
X59242671Y11651099D01*
X59322079Y11908536D01*
X59438970Y12151261D01*
X59590731Y12373854D01*
X59773974Y12571342D01*
X59984603Y12739314D01*
X60217915Y12874017D01*
X60217914Y12874018D01*
X60468697Y12972441D01*
X60731348Y13032390D01*
X61000000Y13052522D01*
D12*
%TO.P,REF\u005Cu002A\u005Cu002A,1*%
X61000000Y11250000D03*
%TD*%
D10*
%TO.C,IC1*%
%TO.CFtp,SN74LVC2G04DBV*%
%TO.CVal,SN74LVC2G04DBVT*%
%TO.CLbN,PMOD_PULSER*%
%TO.CMnt,SMD*%
%TO.CRot,0*%
X16850000Y19550000D03*
D11*
X18949999Y21324999D02*
X18949999Y17775001D01*
X14750001Y17775001D01*
X14750001Y21324999D01*
X18949999Y21324999D01*
D12*
%TO.P,IC1,1,1A*%
X15600000Y20500000D03*
D13*
%TO.P,IC1,2,GND*%
X15600000Y19550000D03*
%TO.P,IC1,3,2A*%
X15600000Y18600000D03*
%TO.P,IC1,4,2Y*%
X18100000Y18600000D03*
%TO.P,IC1,5,VCC*%
X18100000Y19550000D03*
%TO.P,IC1,6,1Y*%
X18100000Y20500000D03*
%TD*%
D10*
%TO.C,C5*%
%TO.CFtp,C_1206_3216Metric*%
%TO.CVal,10nF*%
%TO.CLbN,Capacitor_SMD*%
%TO.CMnt,SMD*%
%TO.CRot,0*%
X34500000Y13250000D03*
D11*
X36799999Y14399999D02*
X36799999Y12100001D01*
X32200001Y12100001D01*
X32200001Y14399999D01*
X36799999Y14399999D01*
D12*
%TO.P,C5,1*%
X33025000Y13250000D03*
D13*
%TO.P,C5,2*%
X35975000Y13250000D03*
%TD*%
D10*
%TO.C,R3*%
%TO.CFtp,R_1206_3216Metric*%
%TO.CVal,10K*%
%TO.CLbN,Resistor_SMD*%
%TO.CMnt,SMD*%
%TO.CRot,0*%
X8750000Y15750000D03*
D11*
X11029999Y16869999D02*
X11029999Y14630001D01*
X6470001Y14630001D01*
X6470001Y16869999D01*
X11029999Y16869999D01*
D12*
%TO.P,R3,1*%
X7287500Y15750000D03*
D13*
%TO.P,R3,2*%
X10212500Y15750000D03*
%TD*%
D10*
%TO.C,C6*%
%TO.CFtp,C_1206_3216Metric*%
%TO.CVal,1uF*%
%TO.CLbN,Capacitor_SMD*%
%TO.CMnt,SMD*%
%TO.CRot,0*%
X47500000Y18000000D03*
D11*
X49799999Y19149999D02*
X49799999Y16850001D01*
X45200001Y16850001D01*
X45200001Y19149999D01*
X49799999Y19149999D01*
D12*
%TO.P,C6,1*%
X46025000Y18000000D03*
D13*
%TO.P,C6,2*%
X48975000Y18000000D03*
%TD*%
D10*
%TO.C,D2*%
%TO.CFtp,SOT-23*%
%TO.CVal,BAV99*%
%TO.CLbN,Package_TO_SOT_SMD*%
%TO.CMnt,SMD*%
%TO.CRot,180*%
X52937500Y7100000D03*
D11*
X54857499Y8799999D02*
X54857499Y5400001D01*
X51017501Y5400001D01*
X51017501Y8799999D01*
X54857499Y8799999D01*
D12*
%TO.P,D2,1,K*%
X53875000Y6150000D03*
D13*
%TO.P,D2,2,A*%
X53875000Y8050000D03*
%TO.P,D2,3,K*%
X52000000Y7100000D03*
%TD*%
D10*
%TO.C,C7*%
%TO.CFtp,C_1206_3216Metric*%
%TO.CVal,100nF*%
%TO.CLbN,Capacitor_SMD*%
%TO.CMnt,SMD*%
%TO.CRot,0*%
X47500000Y20250000D03*
D11*
X49799999Y21399999D02*
X49799999Y19100001D01*
X45200001Y19100001D01*
X45200001Y21399999D01*
X49799999Y21399999D01*
D12*
%TO.P,C7,1*%
X46025000Y20250000D03*
D13*
%TO.P,C7,2*%
X48975000Y20250000D03*
%TD*%
D10*
%TO.C,IC2*%
%TO.CFtp,MD1213*%
%TO.CVal,MD1213K6-G*%
%TO.CLbN,PMOD_PULSER*%
%TO.CMnt,SMD*%
%TO.CRot,0*%
X28150000Y14900000D03*
D11*
X30799999Y17549999D02*
X30799999Y12250001D01*
X25500001Y12250001D01*
X25500001Y17549999D01*
X30799999Y17549999D01*
D12*
%TO.P,IC2,1,INA*%
X26300000Y15700000D03*
D13*
%TO.P,IC2,2,VL*%
X26300000Y14900000D03*
%TO.P,IC2,3,INB*%
X26300000Y14100000D03*
%TO.P,IC2,4,GND_1*%
X27350000Y13050000D03*
%TO.P,IC2,5,VSS1*%
X28150000Y13050000D03*
%TO.P,IC2,6,VSS2*%
X28950000Y13050000D03*
%TO.P,IC2,7,OUTB*%
X30000000Y14100000D03*
%TO.P,IC2,8,VH*%
X30000000Y14900000D03*
%TO.P,IC2,9,OUTA*%
X30000000Y15700000D03*
%TO.P,IC2,10,VDD2*%
X28950000Y16750000D03*
%TO.P,IC2,11,VDD1*%
X28150000Y16750000D03*
%TO.P,IC2,12,OE*%
X27350000Y16750000D03*
%TO.P,IC2,13,GND_2*%
X28150000Y14900000D03*
%TD*%
D10*
%TO.C,D1*%
%TO.CFtp,SOT-23*%
%TO.CVal,BAV99*%
%TO.CLbN,Package_TO_SOT_SMD*%
%TO.CMnt,SMD*%
%TO.CRot,180*%
X52937500Y10500000D03*
D11*
X54857499Y12199999D02*
X54857499Y8800001D01*
X51017501Y8800001D01*
X51017501Y12199999D01*
X54857499Y12199999D01*
D12*
%TO.P,D1,1,K*%
X53875000Y9550000D03*
D13*
%TO.P,D1,2,A*%
X53875000Y11450000D03*
%TO.P,D1,3,K*%
X52000000Y10500000D03*
%TD*%
D10*
%TO.C,C15*%
%TO.CFtp,C_1206_3216Metric*%
%TO.CVal,100nF*%
%TO.CLbN,Capacitor_SMD*%
%TO.CMnt,SMD*%
%TO.CRot,90*%
X21650000Y19350000D03*
D11*
X22799999Y21649999D02*
X22799999Y17050001D01*
X20500001Y17050001D01*
X20500001Y21649999D01*
X22799999Y21649999D01*
D12*
%TO.P,C15,1*%
X21650000Y17875000D03*
D13*
%TO.P,C15,2*%
X21650000Y20825000D03*
%TD*%
D10*
%TO.C,C4*%
%TO.CFtp,C_1206_3216Metric*%
%TO.CVal,10nF*%
%TO.CLbN,Capacitor_SMD*%
%TO.CMnt,SMD*%
%TO.CRot,0*%
X34500000Y16750000D03*
D11*
X36799999Y17899999D02*
X36799999Y15600001D01*
X32200001Y15600001D01*
X32200001Y17899999D01*
X36799999Y17899999D01*
D12*
%TO.P,C4,1*%
X33025000Y16750000D03*
D13*
%TO.P,C4,2*%
X35975000Y16750000D03*
%TD*%
D10*
%TO.C,FB2*%
%TO.CFtp,L_1206_3216Metric*%
%TO.CVal,120Ohm 3 A*%
%TO.CLbN,Inductor_SMD*%
%TO.CMnt,SMD*%
%TO.CRot,180*%
X32450000Y9150000D03*
D11*
X34799999Y10349999D02*
X34799999Y7950001D01*
X30100001Y7950001D01*
X30100001Y10349999D01*
X34799999Y10349999D01*
D12*
%TO.P,FB2,1*%
X34025000Y9150000D03*
D13*
%TO.P,FB2,2*%
X30875000Y9150000D03*
%TD*%
D10*
%TO.C,FB1*%
%TO.CFtp,L_1206_3216Metric*%
%TO.CVal,120Ohm 3 A*%
%TO.CLbN,Inductor_SMD*%
%TO.CMnt,SMD*%
%TO.CRot,180*%
X32400000Y20150000D03*
D11*
X34749999Y21349999D02*
X34749999Y18950001D01*
X30050001Y18950001D01*
X30050001Y21349999D01*
X34749999Y21349999D01*
D12*
%TO.P,FB1,1*%
X33975000Y20150000D03*
D13*
%TO.P,FB1,2*%
X30825000Y20150000D03*
%TD*%
D10*
%TO.C,C14*%
%TO.CFtp,C_1206_3216Metric*%
%TO.CVal,100nF*%
%TO.CLbN,Capacitor_SMD*%
%TO.CMnt,SMD*%
%TO.CRot,90*%
X11250000Y3500000D03*
D11*
X12399999Y5799999D02*
X12399999Y1200001D01*
X10100001Y1200001D01*
X10100001Y5799999D01*
X12399999Y5799999D01*
D12*
%TO.P,C14,1*%
X11250000Y2025000D03*
D13*
%TO.P,C14,2*%
X11250000Y4975000D03*
%TD*%
D10*
%TO.C,J6*%
%TO.CFtp,PinHeader_1x02_P2.54mm_Vertical*%
%TO.CVal,Conn_01x02_Pin*%
%TO.CLbN,Connector_PinHeader_2.54mm*%
%TO.CMnt,TH*%
%TO.CRot,90*%
X52920000Y2000000D03*
D11*
X57269999Y3799999D02*
X57269999Y200001D01*
X51120001Y200001D01*
X51120001Y3799999D01*
X57269999Y3799999D01*
D12*
%TO.P,J6,1,Pin_1*%
X52920000Y2000000D03*
D13*
%TO.P,J6,2,Pin_2*%
X55460000Y2000000D03*
%TD*%
D10*
%TO.C,J1*%
%TO.CFtp,AMPHENOL_132357-11*%
%TO.CVal,AMPHENOL_132357-11*%
%TO.CLbN,PMOD_PULSER*%
%TO.CMnt,Other*%
%TO.CRot,180*%
X62101000Y11250000D03*
D14*
X63276000Y4600000D02*
X63276000Y17900000D01*
X58076000Y17900000D01*
X58076000Y4600000D01*
X63276000Y4600000D01*
D12*
%TO.P,J1,1,1*%
X62101000Y11250000D03*
D13*
%TO.P,J1,2,2*%
X60526000Y7000000D03*
X60526000Y15500000D03*
%TD*%
D10*
%TO.C,R2*%
%TO.CFtp,R_1206_3216Metric*%
%TO.CVal,10K*%
%TO.CLbN,Resistor_SMD*%
%TO.CMnt,SMD*%
%TO.CRot,0*%
X10650000Y20850000D03*
D11*
X12929999Y21969999D02*
X12929999Y19730001D01*
X8370001Y19730001D01*
X8370001Y21969999D01*
X12929999Y21969999D01*
D12*
%TO.P,R2,1*%
X9187500Y20850000D03*
D13*
%TO.P,R2,2*%
X12112500Y20850000D03*
%TD*%
D10*
%TO.C,R4*%
%TO.CFtp,R_1206_3216Metric*%
%TO.CVal,10K*%
%TO.CLbN,Resistor_SMD*%
%TO.CMnt,SMD*%
%TO.CRot,0*%
X8750000Y13500000D03*
D11*
X11029999Y14619999D02*
X11029999Y12380001D01*
X6470001Y12380001D01*
X6470001Y14619999D01*
X11029999Y14619999D01*
D12*
%TO.P,R4,1*%
X7287500Y13500000D03*
D13*
%TO.P,R4,2*%
X10212500Y13500000D03*
%TD*%
D10*
%TO.C,C9*%
%TO.CFtp,C_1206_3216Metric*%
%TO.CVal,10nF*%
%TO.CLbN,Capacitor_SMD*%
%TO.CMnt,SMD*%
%TO.CRot,0*%
X34750000Y5500000D03*
D11*
X37049999Y6649999D02*
X37049999Y4350001D01*
X32450001Y4350001D01*
X32450001Y6649999D01*
X37049999Y6649999D01*
D12*
%TO.P,C9,1*%
X33275000Y5500000D03*
D13*
%TO.P,C9,2*%
X36225000Y5500000D03*
%TD*%
D10*
%TO.C,J2*%
%TO.CFtp,PinHeader_2x01_P2.54mm_Horizontal*%
%TO.CVal,Conn_01x02*%
%TO.CLbN,Connector_PinHeader_2.54mm*%
%TO.CMnt,TH*%
%TO.CRot,180*%
X6540000Y19580000D03*
D11*
X8339999Y21379999D02*
X8339999Y17780001D01*
X-6559999Y17780001D01*
X-6559999Y21379999D01*
X8339999Y21379999D01*
D12*
%TO.P,J2,1,Pin_1*%
X6540000Y19580000D03*
D13*
%TO.P,J2,2,Pin_2*%
X4000000Y19580000D03*
%TD*%
D10*
%TO.C,C2*%
%TO.CFtp,C_1206_3216Metric*%
%TO.CVal,1uF*%
%TO.CLbN,Capacitor_SMD*%
%TO.CMnt,SMD*%
%TO.CRot,0*%
X40000000Y17750000D03*
D11*
X42299999Y18899999D02*
X42299999Y16600001D01*
X37700001Y16600001D01*
X37700001Y18899999D01*
X42299999Y18899999D01*
D12*
%TO.P,C2,1*%
X38525000Y17750000D03*
D13*
%TO.P,C2,2*%
X41475000Y17750000D03*
%TD*%
D10*
%TO.C,C16*%
%TO.CFtp,C_1206_3216Metric*%
%TO.CVal,100nF*%
%TO.CLbN,Capacitor_SMD*%
%TO.CMnt,SMD*%
%TO.CRot,-90*%
X21650000Y14200000D03*
D11*
X22799999Y16499999D02*
X22799999Y11900001D01*
X20500001Y11900001D01*
X20500001Y16499999D01*
X22799999Y16499999D01*
D12*
%TO.P,C16,1*%
X21650000Y15675000D03*
D13*
%TO.P,C16,2*%
X21650000Y12725000D03*
%TD*%
D10*
%TO.C,IC6*%
%TO.CFtp,SOIC127P600X175-8N*%
%TO.CVal,TC6320TG-G*%
%TO.CLbN,PMOD_PULSER*%
%TO.CMnt,SMD*%
%TO.CRot,0*%
X44500000Y5500000D03*
D11*
X48224999Y8249999D02*
X48224999Y2750001D01*
X40775001Y2750001D01*
X40775001Y8249999D01*
X48224999Y8249999D01*
D12*
%TO.P,IC6,1,SN*%
X41788000Y7405000D03*
D13*
%TO.P,IC6,2,GN*%
X41788000Y6135000D03*
%TO.P,IC6,3,SP*%
X41788000Y4865000D03*
%TO.P,IC6,4,GP*%
X41788000Y3595000D03*
%TO.P,IC6,5,DP_1*%
X47212000Y3595000D03*
%TO.P,IC6,6,DP_2*%
X47212000Y4865000D03*
%TO.P,IC6,7,DN_1*%
X47212000Y6135000D03*
%TO.P,IC6,8,DN_2*%
X47212000Y7405000D03*
%TD*%
D10*
%TO.C,IC3*%
%TO.CFtp,SOIC127P600X175-8N*%
%TO.CVal,TC6320TG-G*%
%TO.CLbN,PMOD_PULSER*%
%TO.CMnt,SMD*%
%TO.CRot,0*%
X44500000Y12250000D03*
D11*
X48224999Y14999999D02*
X48224999Y9500001D01*
X40775001Y9500001D01*
X40775001Y14999999D01*
X48224999Y14999999D01*
D12*
%TO.P,IC3,1,SN*%
X41788000Y14155000D03*
D13*
%TO.P,IC3,2,GN*%
X41788000Y12885000D03*
%TO.P,IC3,3,SP*%
X41788000Y11615000D03*
%TO.P,IC3,4,GP*%
X41788000Y10345000D03*
%TO.P,IC3,5,DP_1*%
X47212000Y10345000D03*
%TO.P,IC3,6,DP_2*%
X47212000Y11615000D03*
%TO.P,IC3,7,DN_1*%
X47212000Y12885000D03*
%TO.P,IC3,8,DN_2*%
X47212000Y14155000D03*
%TD*%
D10*
%TO.C,C8*%
%TO.CFtp,C_1206_3216Metric*%
%TO.CVal,100nF*%
%TO.CLbN,Capacitor_SMD*%
%TO.CMnt,SMD*%
%TO.CRot,0*%
X27700000Y9150000D03*
D11*
X29999999Y10299999D02*
X29999999Y8000001D01*
X25400001Y8000001D01*
X25400001Y10299999D01*
X29999999Y10299999D01*
D12*
%TO.P,C8,1*%
X26225000Y9150000D03*
D13*
%TO.P,C8,2*%
X29175000Y9150000D03*
%TD*%
D10*
%TO.C,H1*%
%TO.CFtp,SOIC127P780X190-14N*%
%TO.CVal,TC74VHC08F_EL\u002CK\u002CF_*%
%TO.CLbN,PMOD_PULSER*%
%TO.CMnt,SMD*%
%TO.CRot,90*%
X18250000Y5812000D03*
D11*
X23899999Y10486999D02*
X23899999Y1137001D01*
X12600001Y1137001D01*
X12600001Y10486999D01*
X23899999Y10486999D01*
D12*
%TO.P,H1,1,1A*%
X14440000Y2274000D03*
D13*
%TO.P,H1,2,1B*%
X15710000Y2274000D03*
%TO.P,H1,3,1Y*%
X16980000Y2274000D03*
%TO.P,H1,4,2A*%
X18250000Y2274000D03*
%TO.P,H1,5,2B*%
X19520000Y2274000D03*
%TO.P,H1,6,2Y*%
X20790000Y2274000D03*
%TO.P,H1,7,GND*%
X22060000Y2274000D03*
%TO.P,H1,8,3Y*%
X22060000Y9350000D03*
%TO.P,H1,9,3A*%
X20790000Y9350000D03*
%TO.P,H1,10,3B*%
X19520000Y9350000D03*
%TO.P,H1,11,4Y*%
X18250000Y9350000D03*
%TO.P,H1,12,4A*%
X16980000Y9350000D03*
%TO.P,H1,13,4B*%
X15710000Y9350000D03*
%TO.P,H1,14,VCC*%
X14440000Y9350000D03*
%TD*%
D10*
%TO.C,C3*%
%TO.CFtp,C_1206_3216Metric*%
%TO.CVal,100nF*%
%TO.CLbN,Capacitor_SMD*%
%TO.CMnt,SMD*%
%TO.CRot,0*%
X40000000Y20150000D03*
D11*
X42299999Y21299999D02*
X42299999Y19000001D01*
X37700001Y19000001D01*
X37700001Y21299999D01*
X42299999Y21299999D01*
D12*
%TO.P,C3,1*%
X38525000Y20150000D03*
D13*
%TO.P,C3,2*%
X41475000Y20150000D03*
%TD*%
D10*
%TO.C,R1*%
%TO.CFtp,R_1206_3216Metric*%
%TO.CVal,1K*%
%TO.CLbN,Resistor_SMD*%
%TO.CMnt,SMD*%
%TO.CRot,0*%
X8750000Y9500000D03*
D11*
X11029999Y10619999D02*
X11029999Y8380001D01*
X6470001Y8380001D01*
X6470001Y10619999D01*
X11029999Y10619999D01*
D12*
%TO.P,R1,1*%
X7287500Y9500000D03*
D13*
%TO.P,R1,2*%
X10212500Y9500000D03*
%TD*%
D10*
%TO.C,D3*%
%TO.CFtp,D_0805_2012Metric*%
%TO.CVal,Green LED*%
%TO.CLbN,Diode_SMD*%
%TO.CMnt,SMD*%
%TO.CRot,0*%
X8750000Y7250000D03*
D11*
X10429999Y8199999D02*
X10429999Y6300001D01*
X7070001Y6300001D01*
X7070001Y8199999D01*
X10429999Y8199999D01*
D12*
%TO.P,D3,1*%
X7812500Y7250000D03*
D13*
%TO.P,D3,2*%
X9687500Y7250000D03*
%TD*%
D10*
%TO.C,J3*%
%TO.CFtp,PinHeader_1x06_P2.54mm_Horizontal*%
%TO.CVal,61300611021*%
%TO.CLbN,Connector_PinHeader_2.54mm*%
%TO.CMnt,TH*%
%TO.CRot,180*%
X4000000Y1800000D03*
D11*
X5799999Y16299999D02*
X5799999Y1D01*
X-6549999Y1D01*
X-6549999Y16299999D01*
X5799999Y16299999D01*
D12*
%TO.P,J3,1,1*%
X4000000Y1800000D03*
D13*
%TO.P,J3,2,2*%
X4000000Y4340000D03*
%TO.P,J3,3,3*%
X4000000Y6880000D03*
%TO.P,J3,4,4*%
X4000000Y9420000D03*
%TO.P,J3,5,5*%
X4000000Y11960000D03*
%TO.P,J3,6,6*%
X4000000Y14500000D03*
%TD*%
D10*
%TO.C,C1*%
%TO.CFtp,C_1206_3216Metric*%
%TO.CVal,100nF*%
%TO.CLbN,Capacitor_SMD*%
%TO.CMnt,SMD*%
%TO.CRot,0*%
X27650000Y20150000D03*
D11*
X29949999Y21299999D02*
X29949999Y19000001D01*
X25350001Y19000001D01*
X25350001Y21299999D01*
X29949999Y21299999D01*
D12*
%TO.P,C1,1*%
X26175000Y20150000D03*
D13*
%TO.P,C1,2*%
X29125000Y20150000D03*
%TD*%
D10*
%TO.C,IC4*%
%TO.CFtp,SN74LVC2G04DBV*%
%TO.CVal,SN74LVC2G04DBVT*%
%TO.CLbN,PMOD_PULSER*%
%TO.CMnt,SMD*%
%TO.CRot,0*%
X16850000Y14800000D03*
D11*
X18949999Y16574999D02*
X18949999Y13025001D01*
X14750001Y13025001D01*
X14750001Y16574999D01*
X18949999Y16574999D01*
D12*
%TO.P,IC4,1,1A*%
X15600000Y15750000D03*
D13*
%TO.P,IC4,2,GND*%
X15600000Y14800000D03*
%TO.P,IC4,3,2A*%
X15600000Y13850000D03*
%TO.P,IC4,4,2Y*%
X18100000Y13850000D03*
%TO.P,IC4,5,VCC*%
X18100000Y14800000D03*
%TO.P,IC4,6,1Y*%
X18100000Y15750000D03*
%TD*%
D10*
%TO.C,IC5*%
%TO.CFtp,MD1213*%
%TO.CVal,MD1213K6-G*%
%TO.CLbN,PMOD_PULSER*%
%TO.CMnt,SMD*%
%TO.CRot,0*%
X28150000Y4400000D03*
D11*
X30799999Y7049999D02*
X30799999Y1750001D01*
X25500001Y1750001D01*
X25500001Y7049999D01*
X30799999Y7049999D01*
D12*
%TO.P,IC5,1,INA*%
X26300000Y5200000D03*
D13*
%TO.P,IC5,2,VL*%
X26300000Y4400000D03*
%TO.P,IC5,3,INB*%
X26300000Y3600000D03*
%TO.P,IC5,4,GND_1*%
X27350000Y2550000D03*
%TO.P,IC5,5,VSS1*%
X28150000Y2550000D03*
%TO.P,IC5,6,VSS2*%
X28950000Y2550000D03*
%TO.P,IC5,7,OUTB*%
X30000000Y3600000D03*
%TO.P,IC5,8,VH*%
X30000000Y4400000D03*
%TO.P,IC5,9,OUTA*%
X30000000Y5200000D03*
%TO.P,IC5,10,VDD2*%
X28950000Y6250000D03*
%TO.P,IC5,11,VDD1*%
X28150000Y6250000D03*
%TO.P,IC5,12,OE*%
X27350000Y6250000D03*
%TO.P,IC5,13,GND_2*%
X28150000Y4400000D03*
%TD*%
M02*
