M48
; DRILL file {KiCad 7.0.10} date Sun Feb 11 10:34:49 2024
; FORMAT={-:-/ absolute / metric / decimal}
; #@! TF.CreationDate,2024-02-11T10:34:49+07:00
; #@! TF.GenerationSoftware,Kicad,Pcbnew,7.0.10
; #@! TF.FileFunction,Plated,1,2,PTH
FMAT,2
METRIC
; #@! TA.AperFunction,Plated,PTH,ViaDrill
T1C0.400
; #@! TA.AperFunction,Plated,PTH,ComponentDrill
T2C1.000
%
G90
G05
T1
X1.0Y20.75
X1.0Y16.5
X1.0Y4.75
X1.0Y1.25
X2.0Y19.75
X2.25Y16.5
X4.25Y13.5
X5.25Y17.5
X5.5Y10.5
X5.5Y8.0
X7.5Y13.5
X8.75Y10.5
X11.75Y16.0
X12.0Y13.5
X12.75Y10.5
X12.75Y8.0
X16.5Y14.0
X16.5Y10.5
X16.5Y7.5
X17.25Y20.75
X19.5Y20.75
X19.5Y16.75
X19.5Y12.25
X19.5Y8.0
X19.5Y4.25
T2
X10.42Y20.0
X10.42Y2.0
X12.96Y20.0
X12.96Y2.0
X15.5Y20.0
M30
