%TF.GenerationSoftware,KiCad,Pcbnew,10.0.4-10.0.4~ubuntu22.04.1*%
%TF.CreationDate,2026-09-12T00:10:08+02:00*%
%TF.ProjectId,PICO_ADC_Test,5049434f-5f41-4444-935f-546573742e6b,R0.1*%
%TF.SameCoordinates,PX72ade90PY75c75e0*%
%TF.FileFunction,Drillmap*%
%TF.FilePolarity,Positive*%
%FSLAX45Y45*%
G04 Gerber Fmt 4.5, Leading zero omitted, Abs format (unit mm)*
G04 Created by KiCad (PCBNEW 10.0.4-10.0.4~ubuntu22.04.1) date 2026-09-12 00:10:08*
%MOMM*%
%LPD*%
G01*
G04 APERTURE LIST*
%ADD10C,0.100000*%
%ADD11C,0.200000*%
%ADD12C,0.150000*%
%ADD13C,0.180000*%
G04 APERTURE END LIST*
D10*
X12125000Y-11650000D02*
X12175000Y-11650000D01*
X12025000Y-7300000D02*
G75*
G02*
X12375000Y-6950000I350000J0D01*
G01*
X12125000Y-7625000D02*
X12175000Y-7625000D01*
X12025000Y-12000000D02*
X12025000Y-11750000D01*
X20525000Y-7300000D02*
X20525000Y-12000000D01*
X12375000Y-6950000D02*
X20175000Y-6950000D01*
X12275000Y-7725000D02*
X12275000Y-11550000D01*
X20175000Y-6950000D02*
G75*
G02*
X20525000Y-7300000I0J-350000D01*
G01*
X12375000Y-12350000D02*
G75*
G02*
X12025000Y-12000000I0J350000D01*
G01*
X12175000Y-7625000D02*
G75*
G02*
X12275000Y-7725000I0J-100000D01*
G01*
X20175000Y-12350000D02*
X12375000Y-12350000D01*
X12025000Y-11750000D02*
G75*
G02*
X12125000Y-11650000I100000J0D01*
G01*
X12125000Y-7625000D02*
G75*
G02*
X12025000Y-7525000I0J100000D01*
G01*
X12275000Y-11550000D02*
G75*
G02*
X12175000Y-11650000I-100000J0D01*
G01*
X20525000Y-12000000D02*
G75*
G02*
X20175000Y-12350000I-350000J0D01*
G01*
X12025000Y-7525000D02*
X12025000Y-7300000D01*
D11*
D12*
X14557500Y-11722000D02*
X14707500Y-11872000D01*
X14707500Y-11722000D02*
X14557500Y-11872000D01*
X15042500Y-11722000D02*
X15192500Y-11872000D01*
X15192500Y-11722000D02*
X15042500Y-11872000D01*
D13*
X14692500Y-12100000D02*
G75*
G02*
X14512500Y-12100000I-90000J0D01*
G01*
X14512500Y-12100000D02*
G75*
G02*
X14692500Y-12100000I90000J0D01*
G01*
X15237500Y-12100000D02*
G75*
G02*
X15057500Y-12100000I-90000J0D01*
G01*
X15057500Y-12100000D02*
G75*
G02*
X15237500Y-12100000I90000J0D01*
G01*
D11*
X12280777Y-12666484D02*
X12280777Y-12466484D01*
X12280777Y-12466484D02*
X12328396Y-12466484D01*
X12328396Y-12466484D02*
X12356967Y-12476008D01*
X12356967Y-12476008D02*
X12376015Y-12495055D01*
X12376015Y-12495055D02*
X12385539Y-12514103D01*
X12385539Y-12514103D02*
X12395062Y-12552198D01*
X12395062Y-12552198D02*
X12395062Y-12580769D01*
X12395062Y-12580769D02*
X12385539Y-12618865D01*
X12385539Y-12618865D02*
X12376015Y-12637912D01*
X12376015Y-12637912D02*
X12356967Y-12656960D01*
X12356967Y-12656960D02*
X12328396Y-12666484D01*
X12328396Y-12666484D02*
X12280777Y-12666484D01*
X12480777Y-12666484D02*
X12480777Y-12533150D01*
X12480777Y-12571246D02*
X12490301Y-12552198D01*
X12490301Y-12552198D02*
X12499824Y-12542674D01*
X12499824Y-12542674D02*
X12518872Y-12533150D01*
X12518872Y-12533150D02*
X12537920Y-12533150D01*
X12604586Y-12666484D02*
X12604586Y-12533150D01*
X12604586Y-12466484D02*
X12595062Y-12476008D01*
X12595062Y-12476008D02*
X12604586Y-12485531D01*
X12604586Y-12485531D02*
X12614110Y-12476008D01*
X12614110Y-12476008D02*
X12604586Y-12466484D01*
X12604586Y-12466484D02*
X12604586Y-12485531D01*
X12728396Y-12666484D02*
X12709348Y-12656960D01*
X12709348Y-12656960D02*
X12699824Y-12637912D01*
X12699824Y-12637912D02*
X12699824Y-12466484D01*
X12833158Y-12666484D02*
X12814110Y-12656960D01*
X12814110Y-12656960D02*
X12804586Y-12637912D01*
X12804586Y-12637912D02*
X12804586Y-12466484D01*
X13061729Y-12666484D02*
X13061729Y-12466484D01*
X13061729Y-12466484D02*
X13128396Y-12609341D01*
X13128396Y-12609341D02*
X13195062Y-12466484D01*
X13195062Y-12466484D02*
X13195062Y-12666484D01*
X13376015Y-12666484D02*
X13376015Y-12561722D01*
X13376015Y-12561722D02*
X13366491Y-12542674D01*
X13366491Y-12542674D02*
X13347443Y-12533150D01*
X13347443Y-12533150D02*
X13309348Y-12533150D01*
X13309348Y-12533150D02*
X13290301Y-12542674D01*
X13376015Y-12656960D02*
X13356967Y-12666484D01*
X13356967Y-12666484D02*
X13309348Y-12666484D01*
X13309348Y-12666484D02*
X13290301Y-12656960D01*
X13290301Y-12656960D02*
X13280777Y-12637912D01*
X13280777Y-12637912D02*
X13280777Y-12618865D01*
X13280777Y-12618865D02*
X13290301Y-12599817D01*
X13290301Y-12599817D02*
X13309348Y-12590293D01*
X13309348Y-12590293D02*
X13356967Y-12590293D01*
X13356967Y-12590293D02*
X13376015Y-12580769D01*
X13471253Y-12533150D02*
X13471253Y-12733150D01*
X13471253Y-12542674D02*
X13490301Y-12533150D01*
X13490301Y-12533150D02*
X13528396Y-12533150D01*
X13528396Y-12533150D02*
X13547443Y-12542674D01*
X13547443Y-12542674D02*
X13556967Y-12552198D01*
X13556967Y-12552198D02*
X13566491Y-12571246D01*
X13566491Y-12571246D02*
X13566491Y-12628388D01*
X13566491Y-12628388D02*
X13556967Y-12647436D01*
X13556967Y-12647436D02*
X13547443Y-12656960D01*
X13547443Y-12656960D02*
X13528396Y-12666484D01*
X13528396Y-12666484D02*
X13490301Y-12666484D01*
X13490301Y-12666484D02*
X13471253Y-12656960D01*
X13652205Y-12647436D02*
X13661729Y-12656960D01*
X13661729Y-12656960D02*
X13652205Y-12666484D01*
X13652205Y-12666484D02*
X13642682Y-12656960D01*
X13642682Y-12656960D02*
X13652205Y-12647436D01*
X13652205Y-12647436D02*
X13652205Y-12666484D01*
X13652205Y-12542674D02*
X13661729Y-12552198D01*
X13661729Y-12552198D02*
X13652205Y-12561722D01*
X13652205Y-12561722D02*
X13642682Y-12552198D01*
X13642682Y-12552198D02*
X13652205Y-12542674D01*
X13652205Y-12542674D02*
X13652205Y-12561722D01*
D12*
X11870000Y-12920000D02*
X12020000Y-13070000D01*
X12020000Y-12920000D02*
X11870000Y-13070000D01*
D11*
X12385539Y-13086484D02*
X12271253Y-13086484D01*
X12328396Y-13086484D02*
X12328396Y-12886484D01*
X12328396Y-12886484D02*
X12309348Y-12915055D01*
X12309348Y-12915055D02*
X12290301Y-12934103D01*
X12290301Y-12934103D02*
X12271253Y-12943627D01*
X12480777Y-13076960D02*
X12480777Y-13086484D01*
X12480777Y-13086484D02*
X12471253Y-13105531D01*
X12471253Y-13105531D02*
X12461729Y-13115055D01*
X12661729Y-12886484D02*
X12566491Y-12886484D01*
X12566491Y-12886484D02*
X12556967Y-12981722D01*
X12556967Y-12981722D02*
X12566491Y-12972198D01*
X12566491Y-12972198D02*
X12585539Y-12962674D01*
X12585539Y-12962674D02*
X12633158Y-12962674D01*
X12633158Y-12962674D02*
X12652205Y-12972198D01*
X12652205Y-12972198D02*
X12661729Y-12981722D01*
X12661729Y-12981722D02*
X12671253Y-13000769D01*
X12671253Y-13000769D02*
X12671253Y-13048388D01*
X12671253Y-13048388D02*
X12661729Y-13067436D01*
X12661729Y-13067436D02*
X12652205Y-13076960D01*
X12652205Y-13076960D02*
X12633158Y-13086484D01*
X12633158Y-13086484D02*
X12585539Y-13086484D01*
X12585539Y-13086484D02*
X12566491Y-13076960D01*
X12566491Y-13076960D02*
X12556967Y-13067436D01*
X12795062Y-12886484D02*
X12814110Y-12886484D01*
X12814110Y-12886484D02*
X12833158Y-12896008D01*
X12833158Y-12896008D02*
X12842682Y-12905531D01*
X12842682Y-12905531D02*
X12852205Y-12924579D01*
X12852205Y-12924579D02*
X12861729Y-12962674D01*
X12861729Y-12962674D02*
X12861729Y-13010293D01*
X12861729Y-13010293D02*
X12852205Y-13048388D01*
X12852205Y-13048388D02*
X12842682Y-13067436D01*
X12842682Y-13067436D02*
X12833158Y-13076960D01*
X12833158Y-13076960D02*
X12814110Y-13086484D01*
X12814110Y-13086484D02*
X12795062Y-13086484D01*
X12795062Y-13086484D02*
X12776015Y-13076960D01*
X12776015Y-13076960D02*
X12766491Y-13067436D01*
X12766491Y-13067436D02*
X12756967Y-13048388D01*
X12756967Y-13048388D02*
X12747443Y-13010293D01*
X12747443Y-13010293D02*
X12747443Y-12962674D01*
X12747443Y-12962674D02*
X12756967Y-12924579D01*
X12756967Y-12924579D02*
X12766491Y-12905531D01*
X12766491Y-12905531D02*
X12776015Y-12896008D01*
X12776015Y-12896008D02*
X12795062Y-12886484D01*
X12985539Y-12886484D02*
X13004586Y-12886484D01*
X13004586Y-12886484D02*
X13023634Y-12896008D01*
X13023634Y-12896008D02*
X13033158Y-12905531D01*
X13033158Y-12905531D02*
X13042682Y-12924579D01*
X13042682Y-12924579D02*
X13052205Y-12962674D01*
X13052205Y-12962674D02*
X13052205Y-13010293D01*
X13052205Y-13010293D02*
X13042682Y-13048388D01*
X13042682Y-13048388D02*
X13033158Y-13067436D01*
X13033158Y-13067436D02*
X13023634Y-13076960D01*
X13023634Y-13076960D02*
X13004586Y-13086484D01*
X13004586Y-13086484D02*
X12985539Y-13086484D01*
X12985539Y-13086484D02*
X12966491Y-13076960D01*
X12966491Y-13076960D02*
X12956967Y-13067436D01*
X12956967Y-13067436D02*
X12947443Y-13048388D01*
X12947443Y-13048388D02*
X12937920Y-13010293D01*
X12937920Y-13010293D02*
X12937920Y-12962674D01*
X12937920Y-12962674D02*
X12947443Y-12924579D01*
X12947443Y-12924579D02*
X12956967Y-12905531D01*
X12956967Y-12905531D02*
X12966491Y-12896008D01*
X12966491Y-12896008D02*
X12985539Y-12886484D01*
X13137920Y-13086484D02*
X13137920Y-12953150D01*
X13137920Y-12972198D02*
X13147443Y-12962674D01*
X13147443Y-12962674D02*
X13166491Y-12953150D01*
X13166491Y-12953150D02*
X13195063Y-12953150D01*
X13195063Y-12953150D02*
X13214110Y-12962674D01*
X13214110Y-12962674D02*
X13223634Y-12981722D01*
X13223634Y-12981722D02*
X13223634Y-13086484D01*
X13223634Y-12981722D02*
X13233158Y-12962674D01*
X13233158Y-12962674D02*
X13252205Y-12953150D01*
X13252205Y-12953150D02*
X13280777Y-12953150D01*
X13280777Y-12953150D02*
X13299824Y-12962674D01*
X13299824Y-12962674D02*
X13309348Y-12981722D01*
X13309348Y-12981722D02*
X13309348Y-13086484D01*
X13404586Y-13086484D02*
X13404586Y-12953150D01*
X13404586Y-12972198D02*
X13414110Y-12962674D01*
X13414110Y-12962674D02*
X13433158Y-12953150D01*
X13433158Y-12953150D02*
X13461729Y-12953150D01*
X13461729Y-12953150D02*
X13480777Y-12962674D01*
X13480777Y-12962674D02*
X13490301Y-12981722D01*
X13490301Y-12981722D02*
X13490301Y-13086484D01*
X13490301Y-12981722D02*
X13499824Y-12962674D01*
X13499824Y-12962674D02*
X13518872Y-12953150D01*
X13518872Y-12953150D02*
X13547443Y-12953150D01*
X13547443Y-12953150D02*
X13566491Y-12962674D01*
X13566491Y-12962674D02*
X13576015Y-12981722D01*
X13576015Y-12981722D02*
X13576015Y-13086484D01*
X13966491Y-12876960D02*
X13795063Y-13134103D01*
X14223634Y-12886484D02*
X14242682Y-12886484D01*
X14242682Y-12886484D02*
X14261729Y-12896008D01*
X14261729Y-12896008D02*
X14271253Y-12905531D01*
X14271253Y-12905531D02*
X14280777Y-12924579D01*
X14280777Y-12924579D02*
X14290301Y-12962674D01*
X14290301Y-12962674D02*
X14290301Y-13010293D01*
X14290301Y-13010293D02*
X14280777Y-13048388D01*
X14280777Y-13048388D02*
X14271253Y-13067436D01*
X14271253Y-13067436D02*
X14261729Y-13076960D01*
X14261729Y-13076960D02*
X14242682Y-13086484D01*
X14242682Y-13086484D02*
X14223634Y-13086484D01*
X14223634Y-13086484D02*
X14204586Y-13076960D01*
X14204586Y-13076960D02*
X14195063Y-13067436D01*
X14195063Y-13067436D02*
X14185539Y-13048388D01*
X14185539Y-13048388D02*
X14176015Y-13010293D01*
X14176015Y-13010293D02*
X14176015Y-12962674D01*
X14176015Y-12962674D02*
X14185539Y-12924579D01*
X14185539Y-12924579D02*
X14195063Y-12905531D01*
X14195063Y-12905531D02*
X14204586Y-12896008D01*
X14204586Y-12896008D02*
X14223634Y-12886484D01*
X14385539Y-13076960D02*
X14385539Y-13086484D01*
X14385539Y-13086484D02*
X14376015Y-13105531D01*
X14376015Y-13105531D02*
X14366491Y-13115055D01*
X14509348Y-12886484D02*
X14528396Y-12886484D01*
X14528396Y-12886484D02*
X14547444Y-12896008D01*
X14547444Y-12896008D02*
X14556967Y-12905531D01*
X14556967Y-12905531D02*
X14566491Y-12924579D01*
X14566491Y-12924579D02*
X14576015Y-12962674D01*
X14576015Y-12962674D02*
X14576015Y-13010293D01*
X14576015Y-13010293D02*
X14566491Y-13048388D01*
X14566491Y-13048388D02*
X14556967Y-13067436D01*
X14556967Y-13067436D02*
X14547444Y-13076960D01*
X14547444Y-13076960D02*
X14528396Y-13086484D01*
X14528396Y-13086484D02*
X14509348Y-13086484D01*
X14509348Y-13086484D02*
X14490301Y-13076960D01*
X14490301Y-13076960D02*
X14480777Y-13067436D01*
X14480777Y-13067436D02*
X14471253Y-13048388D01*
X14471253Y-13048388D02*
X14461729Y-13010293D01*
X14461729Y-13010293D02*
X14461729Y-12962674D01*
X14461729Y-12962674D02*
X14471253Y-12924579D01*
X14471253Y-12924579D02*
X14480777Y-12905531D01*
X14480777Y-12905531D02*
X14490301Y-12896008D01*
X14490301Y-12896008D02*
X14509348Y-12886484D01*
X14756967Y-12886484D02*
X14661729Y-12886484D01*
X14661729Y-12886484D02*
X14652206Y-12981722D01*
X14652206Y-12981722D02*
X14661729Y-12972198D01*
X14661729Y-12972198D02*
X14680777Y-12962674D01*
X14680777Y-12962674D02*
X14728396Y-12962674D01*
X14728396Y-12962674D02*
X14747444Y-12972198D01*
X14747444Y-12972198D02*
X14756967Y-12981722D01*
X14756967Y-12981722D02*
X14766491Y-13000769D01*
X14766491Y-13000769D02*
X14766491Y-13048388D01*
X14766491Y-13048388D02*
X14756967Y-13067436D01*
X14756967Y-13067436D02*
X14747444Y-13076960D01*
X14747444Y-13076960D02*
X14728396Y-13086484D01*
X14728396Y-13086484D02*
X14680777Y-13086484D01*
X14680777Y-13086484D02*
X14661729Y-13076960D01*
X14661729Y-13076960D02*
X14652206Y-13067436D01*
X14861729Y-13086484D02*
X14899825Y-13086484D01*
X14899825Y-13086484D02*
X14918872Y-13076960D01*
X14918872Y-13076960D02*
X14928396Y-13067436D01*
X14928396Y-13067436D02*
X14947444Y-13038865D01*
X14947444Y-13038865D02*
X14956967Y-13000769D01*
X14956967Y-13000769D02*
X14956967Y-12924579D01*
X14956967Y-12924579D02*
X14947444Y-12905531D01*
X14947444Y-12905531D02*
X14937920Y-12896008D01*
X14937920Y-12896008D02*
X14918872Y-12886484D01*
X14918872Y-12886484D02*
X14880777Y-12886484D01*
X14880777Y-12886484D02*
X14861729Y-12896008D01*
X14861729Y-12896008D02*
X14852206Y-12905531D01*
X14852206Y-12905531D02*
X14842682Y-12924579D01*
X14842682Y-12924579D02*
X14842682Y-12972198D01*
X14842682Y-12972198D02*
X14852206Y-12991246D01*
X14852206Y-12991246D02*
X14861729Y-13000769D01*
X14861729Y-13000769D02*
X14880777Y-13010293D01*
X14880777Y-13010293D02*
X14918872Y-13010293D01*
X14918872Y-13010293D02*
X14937920Y-13000769D01*
X14937920Y-13000769D02*
X14947444Y-12991246D01*
X14947444Y-12991246D02*
X14956967Y-12972198D01*
X15147444Y-13086484D02*
X15033158Y-13086484D01*
X15090301Y-13086484D02*
X15090301Y-12886484D01*
X15090301Y-12886484D02*
X15071253Y-12915055D01*
X15071253Y-12915055D02*
X15052206Y-12934103D01*
X15052206Y-12934103D02*
X15033158Y-12943627D01*
X15223634Y-12886484D02*
X15223634Y-12924579D01*
X15299825Y-12886484D02*
X15299825Y-12924579D01*
X15595063Y-13162674D02*
X15585539Y-13153150D01*
X15585539Y-13153150D02*
X15566491Y-13124579D01*
X15566491Y-13124579D02*
X15556968Y-13105531D01*
X15556968Y-13105531D02*
X15547444Y-13076960D01*
X15547444Y-13076960D02*
X15537920Y-13029341D01*
X15537920Y-13029341D02*
X15537920Y-12991246D01*
X15537920Y-12991246D02*
X15547444Y-12943627D01*
X15547444Y-12943627D02*
X15556968Y-12915055D01*
X15556968Y-12915055D02*
X15566491Y-12896008D01*
X15566491Y-12896008D02*
X15585539Y-12867436D01*
X15585539Y-12867436D02*
X15595063Y-12857912D01*
X15661729Y-12905531D02*
X15671253Y-12896008D01*
X15671253Y-12896008D02*
X15690301Y-12886484D01*
X15690301Y-12886484D02*
X15737920Y-12886484D01*
X15737920Y-12886484D02*
X15756968Y-12896008D01*
X15756968Y-12896008D02*
X15766491Y-12905531D01*
X15766491Y-12905531D02*
X15776015Y-12924579D01*
X15776015Y-12924579D02*
X15776015Y-12943627D01*
X15776015Y-12943627D02*
X15766491Y-12972198D01*
X15766491Y-12972198D02*
X15652206Y-13086484D01*
X15652206Y-13086484D02*
X15776015Y-13086484D01*
X16014110Y-13086484D02*
X16014110Y-12886484D01*
X16099825Y-13086484D02*
X16099825Y-12981722D01*
X16099825Y-12981722D02*
X16090301Y-12962674D01*
X16090301Y-12962674D02*
X16071253Y-12953150D01*
X16071253Y-12953150D02*
X16042682Y-12953150D01*
X16042682Y-12953150D02*
X16023634Y-12962674D01*
X16023634Y-12962674D02*
X16014110Y-12972198D01*
X16223634Y-13086484D02*
X16204587Y-13076960D01*
X16204587Y-13076960D02*
X16195063Y-13067436D01*
X16195063Y-13067436D02*
X16185539Y-13048388D01*
X16185539Y-13048388D02*
X16185539Y-12991246D01*
X16185539Y-12991246D02*
X16195063Y-12972198D01*
X16195063Y-12972198D02*
X16204587Y-12962674D01*
X16204587Y-12962674D02*
X16223634Y-12953150D01*
X16223634Y-12953150D02*
X16252206Y-12953150D01*
X16252206Y-12953150D02*
X16271253Y-12962674D01*
X16271253Y-12962674D02*
X16280777Y-12972198D01*
X16280777Y-12972198D02*
X16290301Y-12991246D01*
X16290301Y-12991246D02*
X16290301Y-13048388D01*
X16290301Y-13048388D02*
X16280777Y-13067436D01*
X16280777Y-13067436D02*
X16271253Y-13076960D01*
X16271253Y-13076960D02*
X16252206Y-13086484D01*
X16252206Y-13086484D02*
X16223634Y-13086484D01*
X16404587Y-13086484D02*
X16385539Y-13076960D01*
X16385539Y-13076960D02*
X16376015Y-13057912D01*
X16376015Y-13057912D02*
X16376015Y-12886484D01*
X16556968Y-13076960D02*
X16537920Y-13086484D01*
X16537920Y-13086484D02*
X16499825Y-13086484D01*
X16499825Y-13086484D02*
X16480777Y-13076960D01*
X16480777Y-13076960D02*
X16471253Y-13057912D01*
X16471253Y-13057912D02*
X16471253Y-12981722D01*
X16471253Y-12981722D02*
X16480777Y-12962674D01*
X16480777Y-12962674D02*
X16499825Y-12953150D01*
X16499825Y-12953150D02*
X16537920Y-12953150D01*
X16537920Y-12953150D02*
X16556968Y-12962674D01*
X16556968Y-12962674D02*
X16566491Y-12981722D01*
X16566491Y-12981722D02*
X16566491Y-13000769D01*
X16566491Y-13000769D02*
X16471253Y-13019817D01*
X16642682Y-13076960D02*
X16661730Y-13086484D01*
X16661730Y-13086484D02*
X16699825Y-13086484D01*
X16699825Y-13086484D02*
X16718872Y-13076960D01*
X16718872Y-13076960D02*
X16728396Y-13057912D01*
X16728396Y-13057912D02*
X16728396Y-13048388D01*
X16728396Y-13048388D02*
X16718872Y-13029341D01*
X16718872Y-13029341D02*
X16699825Y-13019817D01*
X16699825Y-13019817D02*
X16671253Y-13019817D01*
X16671253Y-13019817D02*
X16652206Y-13010293D01*
X16652206Y-13010293D02*
X16642682Y-12991246D01*
X16642682Y-12991246D02*
X16642682Y-12981722D01*
X16642682Y-12981722D02*
X16652206Y-12962674D01*
X16652206Y-12962674D02*
X16671253Y-12953150D01*
X16671253Y-12953150D02*
X16699825Y-12953150D01*
X16699825Y-12953150D02*
X16718872Y-12962674D01*
X16795063Y-13162674D02*
X16804587Y-13153150D01*
X16804587Y-13153150D02*
X16823634Y-13124579D01*
X16823634Y-13124579D02*
X16833158Y-13105531D01*
X16833158Y-13105531D02*
X16842682Y-13076960D01*
X16842682Y-13076960D02*
X16852206Y-13029341D01*
X16852206Y-13029341D02*
X16852206Y-12991246D01*
X16852206Y-12991246D02*
X16842682Y-12943627D01*
X16842682Y-12943627D02*
X16833158Y-12915055D01*
X16833158Y-12915055D02*
X16823634Y-12896008D01*
X16823634Y-12896008D02*
X16804587Y-12867436D01*
X16804587Y-12867436D02*
X16795063Y-12857912D01*
X17156968Y-13162674D02*
X17147444Y-13153150D01*
X17147444Y-13153150D02*
X17128396Y-13124579D01*
X17128396Y-13124579D02*
X17118873Y-13105531D01*
X17118873Y-13105531D02*
X17109349Y-13076960D01*
X17109349Y-13076960D02*
X17099825Y-13029341D01*
X17099825Y-13029341D02*
X17099825Y-12991246D01*
X17099825Y-12991246D02*
X17109349Y-12943627D01*
X17109349Y-12943627D02*
X17118873Y-12915055D01*
X17118873Y-12915055D02*
X17128396Y-12896008D01*
X17128396Y-12896008D02*
X17147444Y-12867436D01*
X17147444Y-12867436D02*
X17156968Y-12857912D01*
X17233158Y-12953150D02*
X17233158Y-13086484D01*
X17233158Y-12972198D02*
X17242682Y-12962674D01*
X17242682Y-12962674D02*
X17261730Y-12953150D01*
X17261730Y-12953150D02*
X17290301Y-12953150D01*
X17290301Y-12953150D02*
X17309349Y-12962674D01*
X17309349Y-12962674D02*
X17318873Y-12981722D01*
X17318873Y-12981722D02*
X17318873Y-13086484D01*
X17442682Y-13086484D02*
X17423634Y-13076960D01*
X17423634Y-13076960D02*
X17414111Y-13067436D01*
X17414111Y-13067436D02*
X17404587Y-13048388D01*
X17404587Y-13048388D02*
X17404587Y-12991246D01*
X17404587Y-12991246D02*
X17414111Y-12972198D01*
X17414111Y-12972198D02*
X17423634Y-12962674D01*
X17423634Y-12962674D02*
X17442682Y-12953150D01*
X17442682Y-12953150D02*
X17471254Y-12953150D01*
X17471254Y-12953150D02*
X17490301Y-12962674D01*
X17490301Y-12962674D02*
X17499825Y-12972198D01*
X17499825Y-12972198D02*
X17509349Y-12991246D01*
X17509349Y-12991246D02*
X17509349Y-13048388D01*
X17509349Y-13048388D02*
X17499825Y-13067436D01*
X17499825Y-13067436D02*
X17490301Y-13076960D01*
X17490301Y-13076960D02*
X17471254Y-13086484D01*
X17471254Y-13086484D02*
X17442682Y-13086484D01*
X17566492Y-12953150D02*
X17642682Y-12953150D01*
X17595063Y-12886484D02*
X17595063Y-13057912D01*
X17595063Y-13057912D02*
X17604587Y-13076960D01*
X17604587Y-13076960D02*
X17623634Y-13086484D01*
X17623634Y-13086484D02*
X17642682Y-13086484D01*
X17861730Y-12953150D02*
X17861730Y-13153150D01*
X17861730Y-12962674D02*
X17880777Y-12953150D01*
X17880777Y-12953150D02*
X17918873Y-12953150D01*
X17918873Y-12953150D02*
X17937920Y-12962674D01*
X17937920Y-12962674D02*
X17947444Y-12972198D01*
X17947444Y-12972198D02*
X17956968Y-12991246D01*
X17956968Y-12991246D02*
X17956968Y-13048388D01*
X17956968Y-13048388D02*
X17947444Y-13067436D01*
X17947444Y-13067436D02*
X17937920Y-13076960D01*
X17937920Y-13076960D02*
X17918873Y-13086484D01*
X17918873Y-13086484D02*
X17880777Y-13086484D01*
X17880777Y-13086484D02*
X17861730Y-13076960D01*
X18071254Y-13086484D02*
X18052206Y-13076960D01*
X18052206Y-13076960D02*
X18042682Y-13057912D01*
X18042682Y-13057912D02*
X18042682Y-12886484D01*
X18233158Y-13086484D02*
X18233158Y-12981722D01*
X18233158Y-12981722D02*
X18223635Y-12962674D01*
X18223635Y-12962674D02*
X18204587Y-12953150D01*
X18204587Y-12953150D02*
X18166492Y-12953150D01*
X18166492Y-12953150D02*
X18147444Y-12962674D01*
X18233158Y-13076960D02*
X18214111Y-13086484D01*
X18214111Y-13086484D02*
X18166492Y-13086484D01*
X18166492Y-13086484D02*
X18147444Y-13076960D01*
X18147444Y-13076960D02*
X18137920Y-13057912D01*
X18137920Y-13057912D02*
X18137920Y-13038865D01*
X18137920Y-13038865D02*
X18147444Y-13019817D01*
X18147444Y-13019817D02*
X18166492Y-13010293D01*
X18166492Y-13010293D02*
X18214111Y-13010293D01*
X18214111Y-13010293D02*
X18233158Y-13000769D01*
X18299825Y-12953150D02*
X18376015Y-12953150D01*
X18328396Y-12886484D02*
X18328396Y-13057912D01*
X18328396Y-13057912D02*
X18337920Y-13076960D01*
X18337920Y-13076960D02*
X18356968Y-13086484D01*
X18356968Y-13086484D02*
X18376015Y-13086484D01*
X18518873Y-13076960D02*
X18499825Y-13086484D01*
X18499825Y-13086484D02*
X18461730Y-13086484D01*
X18461730Y-13086484D02*
X18442682Y-13076960D01*
X18442682Y-13076960D02*
X18433158Y-13057912D01*
X18433158Y-13057912D02*
X18433158Y-12981722D01*
X18433158Y-12981722D02*
X18442682Y-12962674D01*
X18442682Y-12962674D02*
X18461730Y-12953150D01*
X18461730Y-12953150D02*
X18499825Y-12953150D01*
X18499825Y-12953150D02*
X18518873Y-12962674D01*
X18518873Y-12962674D02*
X18528396Y-12981722D01*
X18528396Y-12981722D02*
X18528396Y-13000769D01*
X18528396Y-13000769D02*
X18433158Y-13019817D01*
X18699825Y-13086484D02*
X18699825Y-12886484D01*
X18699825Y-13076960D02*
X18680777Y-13086484D01*
X18680777Y-13086484D02*
X18642682Y-13086484D01*
X18642682Y-13086484D02*
X18623635Y-13076960D01*
X18623635Y-13076960D02*
X18614111Y-13067436D01*
X18614111Y-13067436D02*
X18604587Y-13048388D01*
X18604587Y-13048388D02*
X18604587Y-12991246D01*
X18604587Y-12991246D02*
X18614111Y-12972198D01*
X18614111Y-12972198D02*
X18623635Y-12962674D01*
X18623635Y-12962674D02*
X18642682Y-12953150D01*
X18642682Y-12953150D02*
X18680777Y-12953150D01*
X18680777Y-12953150D02*
X18699825Y-12962674D01*
X18776016Y-13162674D02*
X18785539Y-13153150D01*
X18785539Y-13153150D02*
X18804587Y-13124579D01*
X18804587Y-13124579D02*
X18814111Y-13105531D01*
X18814111Y-13105531D02*
X18823635Y-13076960D01*
X18823635Y-13076960D02*
X18833158Y-13029341D01*
X18833158Y-13029341D02*
X18833158Y-12991246D01*
X18833158Y-12991246D02*
X18823635Y-12943627D01*
X18823635Y-12943627D02*
X18814111Y-12915055D01*
X18814111Y-12915055D02*
X18804587Y-12896008D01*
X18804587Y-12896008D02*
X18785539Y-12867436D01*
X18785539Y-12867436D02*
X18776016Y-12857912D01*
D13*
X12020000Y-13265000D02*
G75*
G02*
X11840000Y-13265000I-90000J0D01*
G01*
X11840000Y-13265000D02*
G75*
G02*
X12020000Y-13265000I90000J0D01*
G01*
D11*
X12385539Y-13356484D02*
X12271253Y-13356484D01*
X12328396Y-13356484D02*
X12328396Y-13156484D01*
X12328396Y-13156484D02*
X12309348Y-13185055D01*
X12309348Y-13185055D02*
X12290301Y-13204103D01*
X12290301Y-13204103D02*
X12271253Y-13213627D01*
X12480777Y-13346960D02*
X12480777Y-13356484D01*
X12480777Y-13356484D02*
X12471253Y-13375531D01*
X12471253Y-13375531D02*
X12461729Y-13385055D01*
X12595062Y-13242198D02*
X12576015Y-13232674D01*
X12576015Y-13232674D02*
X12566491Y-13223150D01*
X12566491Y-13223150D02*
X12556967Y-13204103D01*
X12556967Y-13204103D02*
X12556967Y-13194579D01*
X12556967Y-13194579D02*
X12566491Y-13175531D01*
X12566491Y-13175531D02*
X12576015Y-13166008D01*
X12576015Y-13166008D02*
X12595062Y-13156484D01*
X12595062Y-13156484D02*
X12633158Y-13156484D01*
X12633158Y-13156484D02*
X12652205Y-13166008D01*
X12652205Y-13166008D02*
X12661729Y-13175531D01*
X12661729Y-13175531D02*
X12671253Y-13194579D01*
X12671253Y-13194579D02*
X12671253Y-13204103D01*
X12671253Y-13204103D02*
X12661729Y-13223150D01*
X12661729Y-13223150D02*
X12652205Y-13232674D01*
X12652205Y-13232674D02*
X12633158Y-13242198D01*
X12633158Y-13242198D02*
X12595062Y-13242198D01*
X12595062Y-13242198D02*
X12576015Y-13251722D01*
X12576015Y-13251722D02*
X12566491Y-13261246D01*
X12566491Y-13261246D02*
X12556967Y-13280293D01*
X12556967Y-13280293D02*
X12556967Y-13318388D01*
X12556967Y-13318388D02*
X12566491Y-13337436D01*
X12566491Y-13337436D02*
X12576015Y-13346960D01*
X12576015Y-13346960D02*
X12595062Y-13356484D01*
X12595062Y-13356484D02*
X12633158Y-13356484D01*
X12633158Y-13356484D02*
X12652205Y-13346960D01*
X12652205Y-13346960D02*
X12661729Y-13337436D01*
X12661729Y-13337436D02*
X12671253Y-13318388D01*
X12671253Y-13318388D02*
X12671253Y-13280293D01*
X12671253Y-13280293D02*
X12661729Y-13261246D01*
X12661729Y-13261246D02*
X12652205Y-13251722D01*
X12652205Y-13251722D02*
X12633158Y-13242198D01*
X12795062Y-13156484D02*
X12814110Y-13156484D01*
X12814110Y-13156484D02*
X12833158Y-13166008D01*
X12833158Y-13166008D02*
X12842682Y-13175531D01*
X12842682Y-13175531D02*
X12852205Y-13194579D01*
X12852205Y-13194579D02*
X12861729Y-13232674D01*
X12861729Y-13232674D02*
X12861729Y-13280293D01*
X12861729Y-13280293D02*
X12852205Y-13318388D01*
X12852205Y-13318388D02*
X12842682Y-13337436D01*
X12842682Y-13337436D02*
X12833158Y-13346960D01*
X12833158Y-13346960D02*
X12814110Y-13356484D01*
X12814110Y-13356484D02*
X12795062Y-13356484D01*
X12795062Y-13356484D02*
X12776015Y-13346960D01*
X12776015Y-13346960D02*
X12766491Y-13337436D01*
X12766491Y-13337436D02*
X12756967Y-13318388D01*
X12756967Y-13318388D02*
X12747443Y-13280293D01*
X12747443Y-13280293D02*
X12747443Y-13232674D01*
X12747443Y-13232674D02*
X12756967Y-13194579D01*
X12756967Y-13194579D02*
X12766491Y-13175531D01*
X12766491Y-13175531D02*
X12776015Y-13166008D01*
X12776015Y-13166008D02*
X12795062Y-13156484D01*
X12985539Y-13156484D02*
X13004586Y-13156484D01*
X13004586Y-13156484D02*
X13023634Y-13166008D01*
X13023634Y-13166008D02*
X13033158Y-13175531D01*
X13033158Y-13175531D02*
X13042682Y-13194579D01*
X13042682Y-13194579D02*
X13052205Y-13232674D01*
X13052205Y-13232674D02*
X13052205Y-13280293D01*
X13052205Y-13280293D02*
X13042682Y-13318388D01*
X13042682Y-13318388D02*
X13033158Y-13337436D01*
X13033158Y-13337436D02*
X13023634Y-13346960D01*
X13023634Y-13346960D02*
X13004586Y-13356484D01*
X13004586Y-13356484D02*
X12985539Y-13356484D01*
X12985539Y-13356484D02*
X12966491Y-13346960D01*
X12966491Y-13346960D02*
X12956967Y-13337436D01*
X12956967Y-13337436D02*
X12947443Y-13318388D01*
X12947443Y-13318388D02*
X12937920Y-13280293D01*
X12937920Y-13280293D02*
X12937920Y-13232674D01*
X12937920Y-13232674D02*
X12947443Y-13194579D01*
X12947443Y-13194579D02*
X12956967Y-13175531D01*
X12956967Y-13175531D02*
X12966491Y-13166008D01*
X12966491Y-13166008D02*
X12985539Y-13156484D01*
X13137920Y-13356484D02*
X13137920Y-13223150D01*
X13137920Y-13242198D02*
X13147443Y-13232674D01*
X13147443Y-13232674D02*
X13166491Y-13223150D01*
X13166491Y-13223150D02*
X13195063Y-13223150D01*
X13195063Y-13223150D02*
X13214110Y-13232674D01*
X13214110Y-13232674D02*
X13223634Y-13251722D01*
X13223634Y-13251722D02*
X13223634Y-13356484D01*
X13223634Y-13251722D02*
X13233158Y-13232674D01*
X13233158Y-13232674D02*
X13252205Y-13223150D01*
X13252205Y-13223150D02*
X13280777Y-13223150D01*
X13280777Y-13223150D02*
X13299824Y-13232674D01*
X13299824Y-13232674D02*
X13309348Y-13251722D01*
X13309348Y-13251722D02*
X13309348Y-13356484D01*
X13404586Y-13356484D02*
X13404586Y-13223150D01*
X13404586Y-13242198D02*
X13414110Y-13232674D01*
X13414110Y-13232674D02*
X13433158Y-13223150D01*
X13433158Y-13223150D02*
X13461729Y-13223150D01*
X13461729Y-13223150D02*
X13480777Y-13232674D01*
X13480777Y-13232674D02*
X13490301Y-13251722D01*
X13490301Y-13251722D02*
X13490301Y-13356484D01*
X13490301Y-13251722D02*
X13499824Y-13232674D01*
X13499824Y-13232674D02*
X13518872Y-13223150D01*
X13518872Y-13223150D02*
X13547443Y-13223150D01*
X13547443Y-13223150D02*
X13566491Y-13232674D01*
X13566491Y-13232674D02*
X13576015Y-13251722D01*
X13576015Y-13251722D02*
X13576015Y-13356484D01*
X13966491Y-13146960D02*
X13795063Y-13404103D01*
X14223634Y-13156484D02*
X14242682Y-13156484D01*
X14242682Y-13156484D02*
X14261729Y-13166008D01*
X14261729Y-13166008D02*
X14271253Y-13175531D01*
X14271253Y-13175531D02*
X14280777Y-13194579D01*
X14280777Y-13194579D02*
X14290301Y-13232674D01*
X14290301Y-13232674D02*
X14290301Y-13280293D01*
X14290301Y-13280293D02*
X14280777Y-13318388D01*
X14280777Y-13318388D02*
X14271253Y-13337436D01*
X14271253Y-13337436D02*
X14261729Y-13346960D01*
X14261729Y-13346960D02*
X14242682Y-13356484D01*
X14242682Y-13356484D02*
X14223634Y-13356484D01*
X14223634Y-13356484D02*
X14204586Y-13346960D01*
X14204586Y-13346960D02*
X14195063Y-13337436D01*
X14195063Y-13337436D02*
X14185539Y-13318388D01*
X14185539Y-13318388D02*
X14176015Y-13280293D01*
X14176015Y-13280293D02*
X14176015Y-13232674D01*
X14176015Y-13232674D02*
X14185539Y-13194579D01*
X14185539Y-13194579D02*
X14195063Y-13175531D01*
X14195063Y-13175531D02*
X14204586Y-13166008D01*
X14204586Y-13166008D02*
X14223634Y-13156484D01*
X14385539Y-13346960D02*
X14385539Y-13356484D01*
X14385539Y-13356484D02*
X14376015Y-13375531D01*
X14376015Y-13375531D02*
X14366491Y-13385055D01*
X14509348Y-13156484D02*
X14528396Y-13156484D01*
X14528396Y-13156484D02*
X14547444Y-13166008D01*
X14547444Y-13166008D02*
X14556967Y-13175531D01*
X14556967Y-13175531D02*
X14566491Y-13194579D01*
X14566491Y-13194579D02*
X14576015Y-13232674D01*
X14576015Y-13232674D02*
X14576015Y-13280293D01*
X14576015Y-13280293D02*
X14566491Y-13318388D01*
X14566491Y-13318388D02*
X14556967Y-13337436D01*
X14556967Y-13337436D02*
X14547444Y-13346960D01*
X14547444Y-13346960D02*
X14528396Y-13356484D01*
X14528396Y-13356484D02*
X14509348Y-13356484D01*
X14509348Y-13356484D02*
X14490301Y-13346960D01*
X14490301Y-13346960D02*
X14480777Y-13337436D01*
X14480777Y-13337436D02*
X14471253Y-13318388D01*
X14471253Y-13318388D02*
X14461729Y-13280293D01*
X14461729Y-13280293D02*
X14461729Y-13232674D01*
X14461729Y-13232674D02*
X14471253Y-13194579D01*
X14471253Y-13194579D02*
X14480777Y-13175531D01*
X14480777Y-13175531D02*
X14490301Y-13166008D01*
X14490301Y-13166008D02*
X14509348Y-13156484D01*
X14642682Y-13156484D02*
X14776015Y-13156484D01*
X14776015Y-13156484D02*
X14690301Y-13356484D01*
X14890301Y-13156484D02*
X14909348Y-13156484D01*
X14909348Y-13156484D02*
X14928396Y-13166008D01*
X14928396Y-13166008D02*
X14937920Y-13175531D01*
X14937920Y-13175531D02*
X14947444Y-13194579D01*
X14947444Y-13194579D02*
X14956967Y-13232674D01*
X14956967Y-13232674D02*
X14956967Y-13280293D01*
X14956967Y-13280293D02*
X14947444Y-13318388D01*
X14947444Y-13318388D02*
X14937920Y-13337436D01*
X14937920Y-13337436D02*
X14928396Y-13346960D01*
X14928396Y-13346960D02*
X14909348Y-13356484D01*
X14909348Y-13356484D02*
X14890301Y-13356484D01*
X14890301Y-13356484D02*
X14871253Y-13346960D01*
X14871253Y-13346960D02*
X14861729Y-13337436D01*
X14861729Y-13337436D02*
X14852206Y-13318388D01*
X14852206Y-13318388D02*
X14842682Y-13280293D01*
X14842682Y-13280293D02*
X14842682Y-13232674D01*
X14842682Y-13232674D02*
X14852206Y-13194579D01*
X14852206Y-13194579D02*
X14861729Y-13175531D01*
X14861729Y-13175531D02*
X14871253Y-13166008D01*
X14871253Y-13166008D02*
X14890301Y-13156484D01*
X15052206Y-13356484D02*
X15090301Y-13356484D01*
X15090301Y-13356484D02*
X15109348Y-13346960D01*
X15109348Y-13346960D02*
X15118872Y-13337436D01*
X15118872Y-13337436D02*
X15137920Y-13308865D01*
X15137920Y-13308865D02*
X15147444Y-13270769D01*
X15147444Y-13270769D02*
X15147444Y-13194579D01*
X15147444Y-13194579D02*
X15137920Y-13175531D01*
X15137920Y-13175531D02*
X15128396Y-13166008D01*
X15128396Y-13166008D02*
X15109348Y-13156484D01*
X15109348Y-13156484D02*
X15071253Y-13156484D01*
X15071253Y-13156484D02*
X15052206Y-13166008D01*
X15052206Y-13166008D02*
X15042682Y-13175531D01*
X15042682Y-13175531D02*
X15033158Y-13194579D01*
X15033158Y-13194579D02*
X15033158Y-13242198D01*
X15033158Y-13242198D02*
X15042682Y-13261246D01*
X15042682Y-13261246D02*
X15052206Y-13270769D01*
X15052206Y-13270769D02*
X15071253Y-13280293D01*
X15071253Y-13280293D02*
X15109348Y-13280293D01*
X15109348Y-13280293D02*
X15128396Y-13270769D01*
X15128396Y-13270769D02*
X15137920Y-13261246D01*
X15137920Y-13261246D02*
X15147444Y-13242198D01*
X15223634Y-13156484D02*
X15223634Y-13194579D01*
X15299825Y-13156484D02*
X15299825Y-13194579D01*
X15595063Y-13432674D02*
X15585539Y-13423150D01*
X15585539Y-13423150D02*
X15566491Y-13394579D01*
X15566491Y-13394579D02*
X15556968Y-13375531D01*
X15556968Y-13375531D02*
X15547444Y-13346960D01*
X15547444Y-13346960D02*
X15537920Y-13299341D01*
X15537920Y-13299341D02*
X15537920Y-13261246D01*
X15537920Y-13261246D02*
X15547444Y-13213627D01*
X15547444Y-13213627D02*
X15556968Y-13185055D01*
X15556968Y-13185055D02*
X15566491Y-13166008D01*
X15566491Y-13166008D02*
X15585539Y-13137436D01*
X15585539Y-13137436D02*
X15595063Y-13127912D01*
X15661729Y-13175531D02*
X15671253Y-13166008D01*
X15671253Y-13166008D02*
X15690301Y-13156484D01*
X15690301Y-13156484D02*
X15737920Y-13156484D01*
X15737920Y-13156484D02*
X15756968Y-13166008D01*
X15756968Y-13166008D02*
X15766491Y-13175531D01*
X15766491Y-13175531D02*
X15776015Y-13194579D01*
X15776015Y-13194579D02*
X15776015Y-13213627D01*
X15776015Y-13213627D02*
X15766491Y-13242198D01*
X15766491Y-13242198D02*
X15652206Y-13356484D01*
X15652206Y-13356484D02*
X15776015Y-13356484D01*
X16014110Y-13356484D02*
X16014110Y-13156484D01*
X16099825Y-13356484D02*
X16099825Y-13251722D01*
X16099825Y-13251722D02*
X16090301Y-13232674D01*
X16090301Y-13232674D02*
X16071253Y-13223150D01*
X16071253Y-13223150D02*
X16042682Y-13223150D01*
X16042682Y-13223150D02*
X16023634Y-13232674D01*
X16023634Y-13232674D02*
X16014110Y-13242198D01*
X16223634Y-13356484D02*
X16204587Y-13346960D01*
X16204587Y-13346960D02*
X16195063Y-13337436D01*
X16195063Y-13337436D02*
X16185539Y-13318388D01*
X16185539Y-13318388D02*
X16185539Y-13261246D01*
X16185539Y-13261246D02*
X16195063Y-13242198D01*
X16195063Y-13242198D02*
X16204587Y-13232674D01*
X16204587Y-13232674D02*
X16223634Y-13223150D01*
X16223634Y-13223150D02*
X16252206Y-13223150D01*
X16252206Y-13223150D02*
X16271253Y-13232674D01*
X16271253Y-13232674D02*
X16280777Y-13242198D01*
X16280777Y-13242198D02*
X16290301Y-13261246D01*
X16290301Y-13261246D02*
X16290301Y-13318388D01*
X16290301Y-13318388D02*
X16280777Y-13337436D01*
X16280777Y-13337436D02*
X16271253Y-13346960D01*
X16271253Y-13346960D02*
X16252206Y-13356484D01*
X16252206Y-13356484D02*
X16223634Y-13356484D01*
X16404587Y-13356484D02*
X16385539Y-13346960D01*
X16385539Y-13346960D02*
X16376015Y-13327912D01*
X16376015Y-13327912D02*
X16376015Y-13156484D01*
X16556968Y-13346960D02*
X16537920Y-13356484D01*
X16537920Y-13356484D02*
X16499825Y-13356484D01*
X16499825Y-13356484D02*
X16480777Y-13346960D01*
X16480777Y-13346960D02*
X16471253Y-13327912D01*
X16471253Y-13327912D02*
X16471253Y-13251722D01*
X16471253Y-13251722D02*
X16480777Y-13232674D01*
X16480777Y-13232674D02*
X16499825Y-13223150D01*
X16499825Y-13223150D02*
X16537920Y-13223150D01*
X16537920Y-13223150D02*
X16556968Y-13232674D01*
X16556968Y-13232674D02*
X16566491Y-13251722D01*
X16566491Y-13251722D02*
X16566491Y-13270769D01*
X16566491Y-13270769D02*
X16471253Y-13289817D01*
X16642682Y-13346960D02*
X16661730Y-13356484D01*
X16661730Y-13356484D02*
X16699825Y-13356484D01*
X16699825Y-13356484D02*
X16718872Y-13346960D01*
X16718872Y-13346960D02*
X16728396Y-13327912D01*
X16728396Y-13327912D02*
X16728396Y-13318388D01*
X16728396Y-13318388D02*
X16718872Y-13299341D01*
X16718872Y-13299341D02*
X16699825Y-13289817D01*
X16699825Y-13289817D02*
X16671253Y-13289817D01*
X16671253Y-13289817D02*
X16652206Y-13280293D01*
X16652206Y-13280293D02*
X16642682Y-13261246D01*
X16642682Y-13261246D02*
X16642682Y-13251722D01*
X16642682Y-13251722D02*
X16652206Y-13232674D01*
X16652206Y-13232674D02*
X16671253Y-13223150D01*
X16671253Y-13223150D02*
X16699825Y-13223150D01*
X16699825Y-13223150D02*
X16718872Y-13232674D01*
X16795063Y-13432674D02*
X16804587Y-13423150D01*
X16804587Y-13423150D02*
X16823634Y-13394579D01*
X16823634Y-13394579D02*
X16833158Y-13375531D01*
X16833158Y-13375531D02*
X16842682Y-13346960D01*
X16842682Y-13346960D02*
X16852206Y-13299341D01*
X16852206Y-13299341D02*
X16852206Y-13261246D01*
X16852206Y-13261246D02*
X16842682Y-13213627D01*
X16842682Y-13213627D02*
X16833158Y-13185055D01*
X16833158Y-13185055D02*
X16823634Y-13166008D01*
X16823634Y-13166008D02*
X16804587Y-13137436D01*
X16804587Y-13137436D02*
X16795063Y-13127912D01*
X17156968Y-13432674D02*
X17147444Y-13423150D01*
X17147444Y-13423150D02*
X17128396Y-13394579D01*
X17128396Y-13394579D02*
X17118873Y-13375531D01*
X17118873Y-13375531D02*
X17109349Y-13346960D01*
X17109349Y-13346960D02*
X17099825Y-13299341D01*
X17099825Y-13299341D02*
X17099825Y-13261246D01*
X17099825Y-13261246D02*
X17109349Y-13213627D01*
X17109349Y-13213627D02*
X17118873Y-13185055D01*
X17118873Y-13185055D02*
X17128396Y-13166008D01*
X17128396Y-13166008D02*
X17147444Y-13137436D01*
X17147444Y-13137436D02*
X17156968Y-13127912D01*
X17233158Y-13223150D02*
X17233158Y-13356484D01*
X17233158Y-13242198D02*
X17242682Y-13232674D01*
X17242682Y-13232674D02*
X17261730Y-13223150D01*
X17261730Y-13223150D02*
X17290301Y-13223150D01*
X17290301Y-13223150D02*
X17309349Y-13232674D01*
X17309349Y-13232674D02*
X17318873Y-13251722D01*
X17318873Y-13251722D02*
X17318873Y-13356484D01*
X17442682Y-13356484D02*
X17423634Y-13346960D01*
X17423634Y-13346960D02*
X17414111Y-13337436D01*
X17414111Y-13337436D02*
X17404587Y-13318388D01*
X17404587Y-13318388D02*
X17404587Y-13261246D01*
X17404587Y-13261246D02*
X17414111Y-13242198D01*
X17414111Y-13242198D02*
X17423634Y-13232674D01*
X17423634Y-13232674D02*
X17442682Y-13223150D01*
X17442682Y-13223150D02*
X17471254Y-13223150D01*
X17471254Y-13223150D02*
X17490301Y-13232674D01*
X17490301Y-13232674D02*
X17499825Y-13242198D01*
X17499825Y-13242198D02*
X17509349Y-13261246D01*
X17509349Y-13261246D02*
X17509349Y-13318388D01*
X17509349Y-13318388D02*
X17499825Y-13337436D01*
X17499825Y-13337436D02*
X17490301Y-13346960D01*
X17490301Y-13346960D02*
X17471254Y-13356484D01*
X17471254Y-13356484D02*
X17442682Y-13356484D01*
X17566492Y-13223150D02*
X17642682Y-13223150D01*
X17595063Y-13156484D02*
X17595063Y-13327912D01*
X17595063Y-13327912D02*
X17604587Y-13346960D01*
X17604587Y-13346960D02*
X17623634Y-13356484D01*
X17623634Y-13356484D02*
X17642682Y-13356484D01*
X17861730Y-13223150D02*
X17861730Y-13423150D01*
X17861730Y-13232674D02*
X17880777Y-13223150D01*
X17880777Y-13223150D02*
X17918873Y-13223150D01*
X17918873Y-13223150D02*
X17937920Y-13232674D01*
X17937920Y-13232674D02*
X17947444Y-13242198D01*
X17947444Y-13242198D02*
X17956968Y-13261246D01*
X17956968Y-13261246D02*
X17956968Y-13318388D01*
X17956968Y-13318388D02*
X17947444Y-13337436D01*
X17947444Y-13337436D02*
X17937920Y-13346960D01*
X17937920Y-13346960D02*
X17918873Y-13356484D01*
X17918873Y-13356484D02*
X17880777Y-13356484D01*
X17880777Y-13356484D02*
X17861730Y-13346960D01*
X18071254Y-13356484D02*
X18052206Y-13346960D01*
X18052206Y-13346960D02*
X18042682Y-13327912D01*
X18042682Y-13327912D02*
X18042682Y-13156484D01*
X18233158Y-13356484D02*
X18233158Y-13251722D01*
X18233158Y-13251722D02*
X18223635Y-13232674D01*
X18223635Y-13232674D02*
X18204587Y-13223150D01*
X18204587Y-13223150D02*
X18166492Y-13223150D01*
X18166492Y-13223150D02*
X18147444Y-13232674D01*
X18233158Y-13346960D02*
X18214111Y-13356484D01*
X18214111Y-13356484D02*
X18166492Y-13356484D01*
X18166492Y-13356484D02*
X18147444Y-13346960D01*
X18147444Y-13346960D02*
X18137920Y-13327912D01*
X18137920Y-13327912D02*
X18137920Y-13308865D01*
X18137920Y-13308865D02*
X18147444Y-13289817D01*
X18147444Y-13289817D02*
X18166492Y-13280293D01*
X18166492Y-13280293D02*
X18214111Y-13280293D01*
X18214111Y-13280293D02*
X18233158Y-13270769D01*
X18299825Y-13223150D02*
X18376015Y-13223150D01*
X18328396Y-13156484D02*
X18328396Y-13327912D01*
X18328396Y-13327912D02*
X18337920Y-13346960D01*
X18337920Y-13346960D02*
X18356968Y-13356484D01*
X18356968Y-13356484D02*
X18376015Y-13356484D01*
X18518873Y-13346960D02*
X18499825Y-13356484D01*
X18499825Y-13356484D02*
X18461730Y-13356484D01*
X18461730Y-13356484D02*
X18442682Y-13346960D01*
X18442682Y-13346960D02*
X18433158Y-13327912D01*
X18433158Y-13327912D02*
X18433158Y-13251722D01*
X18433158Y-13251722D02*
X18442682Y-13232674D01*
X18442682Y-13232674D02*
X18461730Y-13223150D01*
X18461730Y-13223150D02*
X18499825Y-13223150D01*
X18499825Y-13223150D02*
X18518873Y-13232674D01*
X18518873Y-13232674D02*
X18528396Y-13251722D01*
X18528396Y-13251722D02*
X18528396Y-13270769D01*
X18528396Y-13270769D02*
X18433158Y-13289817D01*
X18699825Y-13356484D02*
X18699825Y-13156484D01*
X18699825Y-13346960D02*
X18680777Y-13356484D01*
X18680777Y-13356484D02*
X18642682Y-13356484D01*
X18642682Y-13356484D02*
X18623635Y-13346960D01*
X18623635Y-13346960D02*
X18614111Y-13337436D01*
X18614111Y-13337436D02*
X18604587Y-13318388D01*
X18604587Y-13318388D02*
X18604587Y-13261246D01*
X18604587Y-13261246D02*
X18614111Y-13242198D01*
X18614111Y-13242198D02*
X18623635Y-13232674D01*
X18623635Y-13232674D02*
X18642682Y-13223150D01*
X18642682Y-13223150D02*
X18680777Y-13223150D01*
X18680777Y-13223150D02*
X18699825Y-13232674D01*
X18776016Y-13432674D02*
X18785539Y-13423150D01*
X18785539Y-13423150D02*
X18804587Y-13394579D01*
X18804587Y-13394579D02*
X18814111Y-13375531D01*
X18814111Y-13375531D02*
X18823635Y-13346960D01*
X18823635Y-13346960D02*
X18833158Y-13299341D01*
X18833158Y-13299341D02*
X18833158Y-13261246D01*
X18833158Y-13261246D02*
X18823635Y-13213627D01*
X18823635Y-13213627D02*
X18814111Y-13185055D01*
X18814111Y-13185055D02*
X18804587Y-13166008D01*
X18804587Y-13166008D02*
X18785539Y-13137436D01*
X18785539Y-13137436D02*
X18776016Y-13127912D01*
M02*
