M48
; DRILL file KiCad 10.0.4-10.0.4~ubuntu22.04.1 date 2026-09-12T00:10:08
; FORMAT={-:-/ absolute / metric / decimal}
; #@! TF.CreationDate,2026-09-12T00:10:08+02:00
; #@! TF.GenerationSoftware,Kicad,Pcbnew,10.0.4-10.0.4~ubuntu22.04.1
; #@! TF.FileFunction,Plated,1,4,PTH
FMAT,2
METRIC
; #@! TA.AperFunction,Plated,PTH,ViaDrill
T1C0.400
; #@! TA.AperFunction,Plated,PTH,ComponentDrill
T2C0.500
; #@! TA.AperFunction,Plated,PTH,ComponentDrill
T3C1.000
; #@! TA.AperFunction,Plated,PTH,ComponentDrill
T4C3.200
%
G90
G05
T1
X123.25Y-77.25
X123.25Y-79.79
X123.25Y-82.33
X123.25Y-84.87
X123.25Y-87.41
X123.25Y-89.95
X123.25Y-92.49
X123.25Y-95.03
X123.25Y-97.57
X123.25Y-100.11
X123.25Y-102.65
X123.25Y-105.19
X123.25Y-107.73
X123.25Y-110.27
X123.25Y-112.81
X123.25Y-115.35
X136.5Y-81.25
X136.5Y-83.75
X136.5Y-86.25
X136.5Y-89.0
X142.0Y-73.5
X142.0Y-76.5
X142.0Y-79.75
X142.0Y-84.83
X142.0Y-89.91
X142.0Y-94.99
X142.0Y-99.75
X142.0Y-102.75
X142.0Y-107.83
X142.0Y-112.91
X142.0Y-117.99
X142.0Y-122.0
X146.25Y-83.0
X146.25Y-90.0
X146.25Y-95.0
X146.25Y-99.75
X146.5Y-102.75
X146.5Y-107.75
X146.5Y-113.0
X148.75Y-74.95
X151.0Y-77.25
X151.0Y-82.75
X151.0Y-86.0
X151.0Y-90.0
X151.0Y-95.0
X151.0Y-102.75
X151.0Y-107.75
X151.0Y-113.0
X155.25Y-99.75
X155.25Y-102.75
X155.25Y-107.83
X155.25Y-112.91
X155.25Y-117.99
X155.25Y-122.0
X155.5Y-77.25
X161.245Y-74.5
X161.25Y-77.0
X161.25Y-82.5
X161.25Y-84.75
X161.3Y-79.7
X163.0Y-88.75
X163.25Y-86.25
X164.0Y-84.1
X165.2Y-86.25
X165.5Y-91.25
X167.25Y-93.65
X167.25Y-98.25
X167.25Y-105.25
X169.0Y-98.25
X169.75Y-106.25
X169.75Y-122.0
X170.5Y-117.75
X170.75Y-78.25
X170.75Y-98.25
X171.25Y-120.5
X171.5Y-107.987
X171.5Y-110.987
X171.5Y-114.0
X171.5Y-115.25
X172.0Y-88.8
X172.0Y-90.6
X172.5Y-98.0
X172.8Y-89.7
X173.0Y-93.5
X173.0Y-96.0
X173.0Y-114.0
X173.0Y-115.25
X173.0Y-117.75
X173.0Y-122.0
X174.362Y-81.562
X174.75Y-75.0
X175.0Y-78.25
X175.55Y-105.8
X175.75Y-117.75
X176.0Y-120.5
X176.0Y-122.0
X176.75Y-81.0
X176.75Y-85.0
X176.75Y-88.0
X176.75Y-89.5
X176.75Y-91.0
X177.0Y-71.0
X177.5Y-105.75
X177.5Y-107.5
X177.5Y-110.5
X177.5Y-115.587
X178.4Y-117.5
X178.4Y-119.75
X179.25Y-104.25
X179.5Y-105.75
X179.5Y-107.5
X179.75Y-110.5
X180.0Y-122.0
X180.5Y-71.0
X180.5Y-80.25
X181.5Y-104.25
X181.5Y-105.75
X181.5Y-107.5
X181.75Y-95.0
X181.75Y-110.5
X181.75Y-112.25
X183.25Y-105.75
X183.3Y-90.275
X183.65Y-71.0
X183.65Y-72.75
X183.65Y-74.75
X183.75Y-81.25
X184.0Y-93.75
X185.5Y-93.75
X185.75Y-111.75
X186.25Y-114.25
X186.25Y-116.5
X186.25Y-118.75
X186.25Y-121.0
X186.5Y-81.25
X187.0Y-93.75
X187.75Y-122.0
X187.95Y-79.8
X188.5Y-93.75
X189.65Y-78.8
X189.75Y-111.75
X190.0Y-93.75
X190.2Y-75.4
X190.29Y-122.0
X190.75Y-76.75
X191.5Y-77.75
X191.5Y-93.75
X192.0Y-96.75
X192.25Y-109.75
X192.45Y-75.4
X192.5Y-78.5
X192.83Y-122.0
X193.25Y-104.75
X193.25Y-106.75
X193.45Y-78.85
X193.75Y-76.5
X194.0Y-83.75
X194.75Y-96.75
X195.37Y-122.0
X195.5Y-76.35
X196.0Y-104.75
X196.5Y-82.0
X196.5Y-83.25
X196.75Y-77.25
X196.75Y-98.5
X197.25Y-88.0
X197.25Y-90.0
X197.5Y-122.0
X198.0Y-81.2
X198.25Y-115.75
X198.5Y-75.55
X198.5Y-104.75
X198.65Y-77.25
X199.75Y-96.25
X199.95Y-78.6
X199.95Y-80.65
X200.5Y-77.0
X200.75Y-94.0
X200.75Y-104.45
X201.0Y-115.75
X201.25Y-98.25
X203.25Y-98.25
X203.75Y-77.25
X203.75Y-79.79
X203.75Y-82.33
X203.75Y-84.87
X203.75Y-87.41
X203.75Y-89.95
X203.75Y-92.49
X203.75Y-95.03
X203.75Y-106.0
X203.75Y-108.54
X203.75Y-111.08
X203.75Y-113.62
X203.75Y-115.75
T2
X121.35Y-73.0
X121.35Y-120.0
X122.053Y-71.303
X122.053Y-74.697
X122.053Y-118.303
X122.053Y-121.697
X123.75Y-70.6
X123.75Y-75.4
X123.75Y-117.6
X123.75Y-122.4
X125.447Y-71.303
X125.447Y-74.697
X125.447Y-118.303
X125.447Y-121.697
X126.15Y-73.0
X126.15Y-120.0
X199.35Y-73.0
X199.35Y-120.0
X200.053Y-71.303
X200.053Y-74.697
X200.053Y-118.303
X200.053Y-121.697
X201.75Y-70.6
X201.75Y-75.4
X201.75Y-117.6
X201.75Y-122.4
X203.447Y-71.303
X203.447Y-74.697
X203.447Y-118.303
X203.447Y-121.697
X204.15Y-73.0
X204.15Y-120.0
T3
X130.46Y-73.38
X130.46Y-78.47
X130.46Y-81.01
X130.46Y-83.55
X130.46Y-86.09
X130.46Y-88.63
X130.46Y-91.17
X130.46Y-96.25
X130.46Y-101.33
X130.46Y-103.87
X130.46Y-106.41
X130.46Y-108.95
X130.46Y-111.49
X130.46Y-114.03
X130.46Y-119.11
X133.0Y-73.38
X133.0Y-96.25
X133.0Y-101.33
X133.0Y-103.87
X133.0Y-106.41
X133.0Y-108.95
X133.0Y-111.49
X133.0Y-114.03
X133.0Y-119.11
X166.95Y-72.0
X169.49Y-72.0
X172.03Y-72.0
X174.57Y-72.0
X191.25Y-71.5
T4
X123.75Y-73.0
X123.75Y-120.0
X201.75Y-73.0
X201.75Y-120.0
M30
