G04 #@! TF.GenerationSoftware,KiCad,Pcbnew,10.0.4-10.0.4~ubuntu22.04.1*
G04 #@! TF.CreationDate,2026-09-12T00:10:08+02:00*
G04 #@! TF.ProjectId,PICO_ADC_Test,5049434f-5f41-4444-935f-546573742e6b,R0.1*
G04 #@! TF.SameCoordinates,PX72ade90PY75c75e0*
G04 #@! TF.FileFunction,Copper,L2,Inr*
G04 #@! TF.FilePolarity,Positive*
%FSLAX46Y46*%
G04 Gerber Fmt 4.6, Leading zero omitted, Abs format (unit mm)*
G04 Created by KiCad (PCBNEW 10.0.4-10.0.4~ubuntu22.04.1) date 2026-09-12 00:10:08*
%MOMM*%
%LPD*%
G01*
G04 APERTURE LIST*
G04 #@! TA.AperFunction,ComponentPad*
%ADD10C,2.000000*%
G04 #@! TD*
G04 #@! TA.AperFunction,ComponentPad*
%ADD11R,1.700000X1.700000*%
G04 #@! TD*
G04 #@! TA.AperFunction,ComponentPad*
%ADD12O,1.700000X1.700000*%
G04 #@! TD*
G04 #@! TA.AperFunction,ComponentPad*
%ADD13C,0.800000*%
G04 #@! TD*
G04 #@! TA.AperFunction,ComponentPad*
%ADD14C,6.400000*%
G04 #@! TD*
G04 #@! TA.AperFunction,ViaPad*
%ADD15C,0.800000*%
G04 #@! TD*
G04 APERTURE END LIST*
D10*
X191250000Y-71500000D03*
D11*
X166950000Y-72000000D03*
D12*
X169490000Y-72000000D03*
X172030000Y-72000000D03*
X174570000Y-72000000D03*
D11*
X130460000Y-96250000D03*
D12*
X133000000Y-96250000D03*
D13*
X199350000Y-120000000D03*
X200052944Y-118302944D03*
X200052944Y-121697056D03*
X201750000Y-117600000D03*
D14*
X201750000Y-120000000D03*
D13*
X201750000Y-122400000D03*
X203447056Y-118302944D03*
X203447056Y-121697056D03*
X204150000Y-120000000D03*
D11*
X130460000Y-78470000D03*
D12*
X130460000Y-81010000D03*
X130460000Y-83550000D03*
X130460000Y-86090000D03*
X130460000Y-88630000D03*
X130460000Y-91170000D03*
D13*
X121350000Y-120000000D03*
X122052944Y-118302944D03*
X122052944Y-121697056D03*
X123750000Y-117600000D03*
D14*
X123750000Y-120000000D03*
D13*
X123750000Y-122400000D03*
X125447056Y-118302944D03*
X125447056Y-121697056D03*
X126150000Y-120000000D03*
X121350000Y-73000000D03*
X122052944Y-71302944D03*
X122052944Y-74697056D03*
X123750000Y-70600000D03*
D14*
X123750000Y-73000000D03*
D13*
X123750000Y-75400000D03*
X125447056Y-71302944D03*
X125447056Y-74697056D03*
X126150000Y-73000000D03*
D11*
X130460000Y-73380000D03*
D12*
X133000000Y-73380000D03*
D11*
X130460000Y-119110000D03*
D12*
X133000000Y-119110000D03*
D13*
X199350000Y-73000000D03*
X200052944Y-71302944D03*
X200052944Y-74697056D03*
X201750000Y-70600000D03*
D14*
X201750000Y-73000000D03*
D13*
X201750000Y-75400000D03*
X203447056Y-71302944D03*
X203447056Y-74697056D03*
X204150000Y-73000000D03*
D11*
X133000000Y-101330000D03*
D12*
X130460000Y-101330000D03*
X133000000Y-103870000D03*
X130460000Y-103870000D03*
X133000000Y-106410000D03*
X130460000Y-106410000D03*
X133000000Y-108950000D03*
X130460000Y-108950000D03*
X133000000Y-111490000D03*
X130460000Y-111490000D03*
X133000000Y-114030000D03*
X130460000Y-114030000D03*
D15*
X179750000Y-110500000D03*
X123250000Y-112810000D03*
X203750000Y-84870000D03*
X183750000Y-81250000D03*
X176750000Y-91000000D03*
X193450000Y-78850000D03*
X177500000Y-107500000D03*
X203750000Y-95030000D03*
X203750000Y-82330000D03*
X142000000Y-73500000D03*
X194750000Y-96750000D03*
X173000000Y-96000000D03*
X190290000Y-122000000D03*
X179500000Y-107500000D03*
X146250000Y-95000000D03*
X123250000Y-84870000D03*
X186250000Y-116500000D03*
X151000000Y-113000000D03*
X180500000Y-71000000D03*
X198500000Y-75550000D03*
X169750000Y-106250000D03*
X194000000Y-83750000D03*
X192830000Y-122000000D03*
X151000000Y-90000000D03*
X181500000Y-105750000D03*
X165500000Y-91250000D03*
X163000000Y-88750000D03*
X183650000Y-71000000D03*
X176000000Y-120500000D03*
X187000000Y-93750000D03*
X203750000Y-92490000D03*
X123250000Y-89950000D03*
X123250000Y-100110000D03*
X183650000Y-72750000D03*
X203750000Y-79790000D03*
X142000000Y-122000000D03*
X171500000Y-114000000D03*
X196500000Y-83250000D03*
X155500000Y-77250000D03*
X203750000Y-106000000D03*
X169750000Y-122000000D03*
X193250000Y-106750000D03*
X146500000Y-102750000D03*
X173000000Y-117750000D03*
X178400000Y-117500000D03*
X189750000Y-111750000D03*
X196750000Y-77250000D03*
X142000000Y-102750000D03*
X155250000Y-122000000D03*
X163250000Y-86250000D03*
X186250000Y-114250000D03*
X123250000Y-77250000D03*
X203750000Y-89950000D03*
X151000000Y-77250000D03*
X171500000Y-107987500D03*
X198500000Y-104750000D03*
X197500000Y-122000000D03*
X187950000Y-79800000D03*
X198250000Y-115750000D03*
X177000000Y-71000000D03*
X192500000Y-78500000D03*
X151000000Y-86000000D03*
X123250000Y-92490000D03*
X184000000Y-93750000D03*
X177500000Y-115587500D03*
X174750000Y-75000000D03*
X123250000Y-110270000D03*
X178400000Y-119750000D03*
X181750000Y-112250000D03*
X201250000Y-98250000D03*
X171250000Y-120500000D03*
X123250000Y-97570000D03*
X146250000Y-99750000D03*
X170750000Y-78250000D03*
X142000000Y-84830000D03*
X123250000Y-115350000D03*
X170500000Y-117750000D03*
X191500000Y-93750000D03*
X123250000Y-102650000D03*
X196000000Y-104750000D03*
X189650000Y-78800000D03*
X195500000Y-76350000D03*
X142000000Y-76500000D03*
X188500000Y-93750000D03*
X198650000Y-77250000D03*
X195370000Y-122000000D03*
X176750000Y-89500000D03*
X142000000Y-89910000D03*
X186250000Y-121000000D03*
X175550000Y-105800000D03*
X142000000Y-99750000D03*
X203750000Y-87410000D03*
X181750000Y-110500000D03*
X177500000Y-110500000D03*
X186500000Y-81250000D03*
X197250000Y-90000000D03*
X146500000Y-113000000D03*
X169000000Y-98250000D03*
X173000000Y-93500000D03*
X151000000Y-82750000D03*
X175750000Y-117750000D03*
X190200000Y-75400000D03*
X203750000Y-77250000D03*
X151000000Y-95000000D03*
X199950000Y-80650000D03*
X155250000Y-117990000D03*
X146250000Y-83000000D03*
X196750000Y-98500000D03*
X165200000Y-86250000D03*
X171500000Y-110987500D03*
X203750000Y-108540000D03*
X123250000Y-107730000D03*
X173000000Y-122000000D03*
X183650000Y-74750000D03*
X193750000Y-76500000D03*
X123250000Y-87410000D03*
X170750000Y-98250000D03*
X199750000Y-96250000D03*
X185750000Y-111750000D03*
X155250000Y-107830000D03*
X193250000Y-104750000D03*
X142000000Y-117990000D03*
X190000000Y-93750000D03*
X180500000Y-80250000D03*
X199950000Y-78600000D03*
X167250000Y-93650000D03*
X167250000Y-105250000D03*
X155250000Y-112910000D03*
X142000000Y-112910000D03*
X175000000Y-78250000D03*
X203750000Y-115750000D03*
X203750000Y-111080000D03*
X173000000Y-115250000D03*
X200500000Y-77000000D03*
X176750000Y-81000000D03*
X151000000Y-107750000D03*
X142000000Y-79750000D03*
X203750000Y-113620000D03*
X142000000Y-107830000D03*
X180000000Y-122000000D03*
X176000000Y-122000000D03*
X201000000Y-115750000D03*
X196500000Y-82000000D03*
X155250000Y-102750000D03*
X151000000Y-102750000D03*
X192000000Y-96750000D03*
X190750000Y-76750000D03*
X167250000Y-98250000D03*
X198000000Y-81200000D03*
X176750000Y-85000000D03*
X123250000Y-95030000D03*
X192250000Y-109750000D03*
X186250000Y-118750000D03*
X183250000Y-105750000D03*
X123250000Y-105190000D03*
X173000000Y-114000000D03*
X177500000Y-105750000D03*
X197250000Y-88000000D03*
X142000000Y-94990000D03*
X123250000Y-82330000D03*
X181500000Y-107500000D03*
X187750000Y-122000000D03*
X179500000Y-105750000D03*
X192450000Y-75400000D03*
X123250000Y-79790000D03*
X146500000Y-107750000D03*
X171500000Y-115250000D03*
X185500000Y-93750000D03*
X181750000Y-95000000D03*
X148750000Y-74950000D03*
X176750000Y-88000000D03*
X155250000Y-99750000D03*
X191500000Y-77750000D03*
X146250000Y-90000000D03*
X164000000Y-84100000D03*
X174362500Y-81562500D03*
X172500000Y-98000000D03*
X183300000Y-90275000D03*
X179250000Y-104250000D03*
X181500000Y-104250000D03*
X200750000Y-104450000D03*
X203250000Y-98250000D03*
X200750000Y-94000000D03*
X136500000Y-89000000D03*
X136500000Y-81250000D03*
X136500000Y-83750000D03*
X161250000Y-84750000D03*
X161250000Y-82500000D03*
X136500000Y-86250000D03*
X161300000Y-79700000D03*
X172000000Y-88800000D03*
X172800000Y-89700000D03*
X161250000Y-77000000D03*
X172000000Y-90600000D03*
X161245000Y-74500000D03*
G04 #@! TA.AperFunction,Conductor*
G36*
X132534075Y-103677007D02*
G01*
X132500000Y-103804174D01*
X132500000Y-103935826D01*
X132534075Y-104062993D01*
X132566988Y-104120000D01*
X130893012Y-104120000D01*
X130925925Y-104062993D01*
X130960000Y-103935826D01*
X130960000Y-103804174D01*
X130925925Y-103677007D01*
X130893012Y-103620000D01*
X132566988Y-103620000D01*
X132534075Y-103677007D01*
G37*
G04 #@! TD.AperFunction*
G04 #@! TA.AperFunction,Conductor*
G36*
X165446288Y-70518954D02*
G01*
X165527070Y-70572930D01*
X165581046Y-70653712D01*
X165600000Y-70749000D01*
X165600000Y-71086133D01*
X165599643Y-71099464D01*
X165599500Y-71102131D01*
X165599500Y-72897865D01*
X165599501Y-72897869D01*
X165605908Y-72957480D01*
X165605909Y-72957484D01*
X165645547Y-73063759D01*
X165656204Y-73092331D01*
X165742454Y-73207546D01*
X165857669Y-73293796D01*
X165992517Y-73344091D01*
X166052127Y-73350500D01*
X167847872Y-73350499D01*
X167847879Y-73350498D01*
X167850513Y-73350357D01*
X167863846Y-73350000D01*
X169360969Y-73350000D01*
X169399914Y-73353064D01*
X169437532Y-73359021D01*
X169469055Y-73370649D01*
X169580083Y-73353065D01*
X169619034Y-73350000D01*
X171920556Y-73350000D01*
X171923713Y-73350500D01*
X172136287Y-73350500D01*
X172139444Y-73350000D01*
X174301901Y-73350000D01*
X174320000Y-73330344D01*
X174320000Y-72433012D01*
X174377007Y-72465925D01*
X174504174Y-72500000D01*
X174635826Y-72500000D01*
X174762993Y-72465925D01*
X174820000Y-72433012D01*
X174820000Y-73327229D01*
X174886129Y-73316756D01*
X175088212Y-73251097D01*
X175088225Y-73251091D01*
X175277553Y-73154623D01*
X175449462Y-73029724D01*
X175599724Y-72879462D01*
X175724623Y-72707553D01*
X175821091Y-72518225D01*
X175821097Y-72518212D01*
X175886756Y-72316129D01*
X175897230Y-72250000D01*
X175870779Y-72250000D01*
X175829760Y-72241840D01*
X175788358Y-72235963D01*
X175782343Y-72232409D01*
X175775491Y-72231046D01*
X175770455Y-72227681D01*
X175704827Y-72248480D01*
X175677357Y-72250000D01*
X175003012Y-72250000D01*
X175035925Y-72192993D01*
X175070000Y-72065826D01*
X175070000Y-71934174D01*
X175035925Y-71807007D01*
X175003012Y-71750000D01*
X175677135Y-71750000D01*
X175772423Y-71768954D01*
X175775453Y-71770978D01*
X175775491Y-71770954D01*
X175857010Y-71752381D01*
X175893122Y-71750381D01*
X175900000Y-71750190D01*
X175900000Y-70749000D01*
X175918954Y-70653712D01*
X175972930Y-70572930D01*
X176053712Y-70518954D01*
X176149000Y-70500000D01*
X189669144Y-70500000D01*
X189764432Y-70518954D01*
X189845214Y-70572930D01*
X189899190Y-70653712D01*
X189918144Y-70749000D01*
X189899190Y-70844288D01*
X189891004Y-70862044D01*
X189859434Y-70924003D01*
X189859430Y-70924012D01*
X189786446Y-71148635D01*
X189749501Y-71381896D01*
X189749500Y-71381912D01*
X189749500Y-71618087D01*
X189749501Y-71618103D01*
X189786446Y-71851364D01*
X189855130Y-72062754D01*
X189859432Y-72075992D01*
X189959683Y-72272747D01*
X189966659Y-72286437D01*
X190105478Y-72477504D01*
X190105480Y-72477506D01*
X190105483Y-72477510D01*
X190272490Y-72644517D01*
X190272493Y-72644519D01*
X190272495Y-72644521D01*
X190463562Y-72783340D01*
X190463564Y-72783341D01*
X190463567Y-72783343D01*
X190674008Y-72890568D01*
X190898632Y-72963553D01*
X191131908Y-73000500D01*
X191131912Y-73000500D01*
X191368088Y-73000500D01*
X191368092Y-73000500D01*
X191601368Y-72963553D01*
X191825992Y-72890568D01*
X192036433Y-72783343D01*
X192227510Y-72644517D01*
X192394517Y-72477510D01*
X192533343Y-72286433D01*
X192640568Y-72075992D01*
X192713553Y-71851368D01*
X192750500Y-71618092D01*
X192750500Y-71381908D01*
X192713553Y-71148632D01*
X192640568Y-70924008D01*
X192608996Y-70862044D01*
X192582624Y-70768537D01*
X192594043Y-70672055D01*
X192641514Y-70587288D01*
X192717812Y-70527140D01*
X192811319Y-70500768D01*
X192830856Y-70500000D01*
X197801000Y-70500000D01*
X197896288Y-70518954D01*
X197977070Y-70572930D01*
X198031046Y-70653712D01*
X198050000Y-70749000D01*
X198050000Y-72801919D01*
X198049700Y-72814140D01*
X198049500Y-72818210D01*
X198049500Y-73181794D01*
X198085137Y-73543625D01*
X198085137Y-73543629D01*
X198085138Y-73543631D01*
X198113657Y-73687007D01*
X198156071Y-73900238D01*
X198156074Y-73900251D01*
X198261609Y-74248150D01*
X198261612Y-74248159D01*
X198261614Y-74248164D01*
X198273903Y-74277832D01*
X198400751Y-74584073D01*
X198400757Y-74584084D01*
X198572142Y-74904725D01*
X198572148Y-74904735D01*
X198774137Y-75207031D01*
X198774146Y-75207044D01*
X199004803Y-75488101D01*
X199261899Y-75745197D01*
X199542956Y-75975854D01*
X199542968Y-75975862D01*
X199845264Y-76177851D01*
X199845274Y-76177857D01*
X200074786Y-76300533D01*
X200165924Y-76349247D01*
X200501836Y-76488386D01*
X200501848Y-76488389D01*
X200501849Y-76488390D01*
X200849748Y-76593925D01*
X200849758Y-76593927D01*
X200849767Y-76593930D01*
X201206369Y-76664862D01*
X201568206Y-76700500D01*
X201568209Y-76700500D01*
X201931790Y-76700500D01*
X201931794Y-76700500D01*
X201931797Y-76700499D01*
X201935860Y-76700300D01*
X201948081Y-76700000D01*
X204001000Y-76700000D01*
X204096288Y-76718954D01*
X204177070Y-76772930D01*
X204231046Y-76853712D01*
X204250000Y-76949000D01*
X204250000Y-97101000D01*
X204231046Y-97196288D01*
X204177070Y-97277070D01*
X204096288Y-97331046D01*
X204001000Y-97350000D01*
X203356000Y-97350000D01*
X203345816Y-97349500D01*
X203338691Y-97349500D01*
X203161309Y-97349500D01*
X203161304Y-97349500D01*
X202987340Y-97384104D01*
X202987336Y-97384105D01*
X202987334Y-97384106D01*
X202936773Y-97405049D01*
X202823450Y-97451988D01*
X202675968Y-97550533D01*
X202550533Y-97675968D01*
X202451988Y-97823450D01*
X202384104Y-97987340D01*
X202349500Y-98161304D01*
X202349500Y-98338695D01*
X202384104Y-98512659D01*
X202384105Y-98512661D01*
X202384106Y-98512666D01*
X202409526Y-98574035D01*
X202451988Y-98676549D01*
X202550533Y-98824031D01*
X202550536Y-98824035D01*
X202675965Y-98949464D01*
X202823453Y-99048013D01*
X202987334Y-99115894D01*
X203161309Y-99150500D01*
X203345816Y-99150500D01*
X203356000Y-99150000D01*
X204001000Y-99150000D01*
X204096288Y-99168954D01*
X204177070Y-99222930D01*
X204231046Y-99303712D01*
X204250000Y-99399000D01*
X204250000Y-116051000D01*
X204231046Y-116146288D01*
X204177070Y-116227070D01*
X204096288Y-116281046D01*
X204001000Y-116300000D01*
X201948081Y-116300000D01*
X201935860Y-116299700D01*
X201931797Y-116299500D01*
X201931794Y-116299500D01*
X201568206Y-116299500D01*
X201568205Y-116299500D01*
X201206374Y-116335137D01*
X200849761Y-116406071D01*
X200849748Y-116406074D01*
X200501849Y-116511609D01*
X200501828Y-116511617D01*
X200165926Y-116650751D01*
X200165915Y-116650757D01*
X199845274Y-116822142D01*
X199845264Y-116822148D01*
X199542968Y-117024137D01*
X199542957Y-117024145D01*
X199261902Y-117254800D01*
X199004800Y-117511902D01*
X198774145Y-117792957D01*
X198774137Y-117792968D01*
X198572148Y-118095264D01*
X198572142Y-118095274D01*
X198400757Y-118415915D01*
X198400751Y-118415926D01*
X198261617Y-118751828D01*
X198261609Y-118751849D01*
X198156074Y-119099748D01*
X198156071Y-119099761D01*
X198085137Y-119456374D01*
X198049500Y-119818205D01*
X198049500Y-120181792D01*
X198049700Y-120185863D01*
X198050000Y-120198083D01*
X198050000Y-122251000D01*
X198031046Y-122346288D01*
X197977070Y-122427070D01*
X197896288Y-122481046D01*
X197801000Y-122500000D01*
X153099000Y-122500000D01*
X153003712Y-122481046D01*
X152922930Y-122427070D01*
X152868954Y-122346288D01*
X152850000Y-122251000D01*
X152850000Y-121290816D01*
X152853066Y-121251863D01*
X152875499Y-121110230D01*
X152875500Y-121110219D01*
X152875500Y-120889782D01*
X152875500Y-120889778D01*
X152841015Y-120672049D01*
X152772895Y-120462394D01*
X152772891Y-120462386D01*
X152772890Y-120462383D01*
X152672820Y-120265986D01*
X152672816Y-120265981D01*
X152672815Y-120265978D01*
X152543242Y-120087635D01*
X152472930Y-120017323D01*
X152418954Y-119936541D01*
X152400000Y-119841253D01*
X152400000Y-118249013D01*
X152403066Y-118210060D01*
X152412162Y-118152628D01*
X152425500Y-118068417D01*
X152425500Y-117871583D01*
X152394709Y-117677174D01*
X152333884Y-117489975D01*
X152244524Y-117314595D01*
X152230133Y-117294788D01*
X152166030Y-117206558D01*
X152128828Y-117155354D01*
X151989646Y-117016172D01*
X151981333Y-117010132D01*
X151830410Y-116900479D01*
X151830407Y-116900477D01*
X151830405Y-116900476D01*
X151655025Y-116811116D01*
X151655024Y-116811115D01*
X151655023Y-116811115D01*
X151655017Y-116811113D01*
X151547928Y-116776318D01*
X151467826Y-116750291D01*
X151467824Y-116750290D01*
X151467822Y-116750290D01*
X151273428Y-116719501D01*
X151273419Y-116719500D01*
X151273417Y-116719500D01*
X151076583Y-116719500D01*
X151076580Y-116719500D01*
X151076572Y-116719501D01*
X150903369Y-116746934D01*
X150864417Y-116750000D01*
X146635583Y-116750000D01*
X146596631Y-116746934D01*
X146423427Y-116719501D01*
X146423420Y-116719500D01*
X146423417Y-116719500D01*
X146226583Y-116719500D01*
X146226580Y-116719500D01*
X146226571Y-116719501D01*
X146032177Y-116750290D01*
X145844982Y-116811113D01*
X145844976Y-116811115D01*
X145773294Y-116847639D01*
X145669595Y-116900476D01*
X145669592Y-116900477D01*
X145669590Y-116900479D01*
X145669589Y-116900479D01*
X145510357Y-117016169D01*
X145371169Y-117155357D01*
X145255479Y-117314589D01*
X145255479Y-117314590D01*
X145255477Y-117314592D01*
X145255476Y-117314595D01*
X145212602Y-117398740D01*
X145166115Y-117489976D01*
X145166113Y-117489982D01*
X145105290Y-117677177D01*
X145074501Y-117871571D01*
X145074500Y-117871587D01*
X145074500Y-118068412D01*
X145074501Y-118068425D01*
X145096934Y-118210060D01*
X145100000Y-118249013D01*
X145100000Y-119841253D01*
X145081046Y-119936541D01*
X145027070Y-120017323D01*
X144956759Y-120087633D01*
X144827184Y-120265979D01*
X144827179Y-120265986D01*
X144727109Y-120462383D01*
X144727105Y-120462392D01*
X144727105Y-120462394D01*
X144658985Y-120672049D01*
X144658984Y-120672052D01*
X144658984Y-120672054D01*
X144658982Y-120672061D01*
X144624501Y-120889767D01*
X144624500Y-120889782D01*
X144624500Y-121110230D01*
X144646934Y-121251863D01*
X144650000Y-121290816D01*
X144650000Y-122251000D01*
X144631046Y-122346288D01*
X144577070Y-122427070D01*
X144496288Y-122481046D01*
X144401000Y-122500000D01*
X127699000Y-122500000D01*
X127603712Y-122481046D01*
X127522930Y-122427070D01*
X127468954Y-122346288D01*
X127450000Y-122251000D01*
X127450000Y-120198083D01*
X127450300Y-120185863D01*
X127450500Y-120181792D01*
X127450500Y-119818209D01*
X127450500Y-119818206D01*
X127414862Y-119456369D01*
X127343930Y-119099767D01*
X127343927Y-119099757D01*
X127343925Y-119099748D01*
X127238390Y-118751849D01*
X127238389Y-118751848D01*
X127238386Y-118751836D01*
X127099247Y-118415924D01*
X127049515Y-118322881D01*
X127049514Y-118322878D01*
X126990337Y-118212167D01*
X129110000Y-118212167D01*
X129110000Y-118859999D01*
X129110001Y-118860000D01*
X130026988Y-118860000D01*
X129994075Y-118917007D01*
X129960000Y-119044174D01*
X129960000Y-119175826D01*
X129994075Y-119302993D01*
X130026988Y-119360000D01*
X129110001Y-119360000D01*
X129110000Y-119360001D01*
X129110000Y-120007832D01*
X129116401Y-120067371D01*
X129116403Y-120067378D01*
X129166646Y-120202087D01*
X129252810Y-120317187D01*
X129252812Y-120317189D01*
X129367912Y-120403353D01*
X129502621Y-120453596D01*
X129502628Y-120453598D01*
X129562167Y-120459999D01*
X129562175Y-120460000D01*
X130209999Y-120460000D01*
X130210000Y-120459999D01*
X130210000Y-119543012D01*
X130267007Y-119575925D01*
X130394174Y-119610000D01*
X130525826Y-119610000D01*
X130652993Y-119575925D01*
X130710000Y-119543012D01*
X130710000Y-120459999D01*
X130710001Y-120460000D01*
X131357825Y-120460000D01*
X131357832Y-120459999D01*
X131432862Y-120451933D01*
X131433012Y-120453333D01*
X131461621Y-120450000D01*
X132807824Y-120450000D01*
X132846774Y-120453065D01*
X132893713Y-120460500D01*
X132893716Y-120460500D01*
X133106284Y-120460500D01*
X133106287Y-120460500D01*
X133106290Y-120460499D01*
X133106296Y-120460499D01*
X133205476Y-120444789D01*
X133316243Y-120427246D01*
X133518412Y-120361557D01*
X133707816Y-120265051D01*
X133879792Y-120140104D01*
X134030104Y-119989792D01*
X134155051Y-119817816D01*
X134251557Y-119628412D01*
X134317246Y-119426243D01*
X134350500Y-119216287D01*
X134350500Y-119003713D01*
X134350499Y-119003710D01*
X134350499Y-119003703D01*
X134317246Y-118793759D01*
X134317246Y-118793757D01*
X134251557Y-118591588D01*
X134155051Y-118402184D01*
X134030104Y-118230208D01*
X133879792Y-118079896D01*
X133707816Y-117954949D01*
X133518412Y-117858443D01*
X133518409Y-117858442D01*
X133518407Y-117858441D01*
X133316240Y-117792753D01*
X133200534Y-117774427D01*
X133134322Y-117750000D01*
X133000000Y-117750000D01*
X131350000Y-117750000D01*
X131320265Y-117750000D01*
X131312952Y-117753338D01*
X131255741Y-117760000D01*
X130710001Y-117760000D01*
X130710000Y-117760001D01*
X130710000Y-118676988D01*
X130652993Y-118644075D01*
X130525826Y-118610000D01*
X130394174Y-118610000D01*
X130267007Y-118644075D01*
X130210000Y-118676988D01*
X130210000Y-117760001D01*
X130209999Y-117760000D01*
X129562167Y-117760000D01*
X129502628Y-117766401D01*
X129502621Y-117766403D01*
X129367912Y-117816646D01*
X129252812Y-117902810D01*
X129252810Y-117902812D01*
X129166646Y-118017912D01*
X129116403Y-118152621D01*
X129116401Y-118152628D01*
X129110000Y-118212167D01*
X126990337Y-118212167D01*
X126927857Y-118095275D01*
X126927851Y-118095264D01*
X126725862Y-117792968D01*
X126725854Y-117792956D01*
X126495197Y-117511899D01*
X126238101Y-117254803D01*
X125957044Y-117024146D01*
X125957031Y-117024137D01*
X125654735Y-116822148D01*
X125654725Y-116822142D01*
X125334084Y-116650757D01*
X125334073Y-116650751D01*
X124998171Y-116511617D01*
X124998164Y-116511614D01*
X124998159Y-116511612D01*
X124998150Y-116511609D01*
X124650251Y-116406074D01*
X124650238Y-116406071D01*
X124650233Y-116406070D01*
X124293631Y-116335138D01*
X124293629Y-116335137D01*
X124293625Y-116335137D01*
X123931794Y-116299500D01*
X123568206Y-116299500D01*
X123568202Y-116299500D01*
X123564140Y-116299700D01*
X123551919Y-116300000D01*
X122874679Y-116300000D01*
X122779391Y-116281046D01*
X122698609Y-116227070D01*
X122644633Y-116146288D01*
X122625679Y-116051000D01*
X122642835Y-115960175D01*
X122649671Y-115942724D01*
X122660225Y-115924445D01*
X122704682Y-115802300D01*
X122705775Y-115799511D01*
X122705934Y-115799262D01*
X122707564Y-115795071D01*
X122709256Y-115790987D01*
X122709258Y-115790973D01*
X122709557Y-115789991D01*
X122713848Y-115777116D01*
X122720101Y-115759938D01*
X122750500Y-115587532D01*
X122750500Y-115500000D01*
X122750500Y-115499500D01*
X122750500Y-111530414D01*
X129086262Y-111530414D01*
X129088804Y-111535096D01*
X129100000Y-111608923D01*
X129100000Y-114102243D01*
X129105932Y-114126946D01*
X129107969Y-114126624D01*
X129142753Y-114346240D01*
X129142754Y-114346243D01*
X129208443Y-114548412D01*
X129304949Y-114737816D01*
X129429896Y-114909792D01*
X129580208Y-115060104D01*
X129752184Y-115185051D01*
X129941588Y-115281557D01*
X130143757Y-115347246D01*
X130217601Y-115358941D01*
X130353703Y-115380499D01*
X130353710Y-115380499D01*
X130353713Y-115380500D01*
X130353716Y-115380500D01*
X130566284Y-115380500D01*
X130566287Y-115380500D01*
X130566291Y-115380499D01*
X130566295Y-115380499D01*
X130739497Y-115353066D01*
X130778450Y-115350000D01*
X132681550Y-115350000D01*
X132720503Y-115353066D01*
X132893704Y-115380499D01*
X132893709Y-115380499D01*
X132893713Y-115380500D01*
X132893716Y-115380500D01*
X133106284Y-115380500D01*
X133106287Y-115380500D01*
X133106290Y-115380499D01*
X133106296Y-115380499D01*
X133205476Y-115364789D01*
X133316243Y-115347246D01*
X133518412Y-115281557D01*
X133707816Y-115185051D01*
X133879792Y-115060104D01*
X134030104Y-114909792D01*
X134155051Y-114737816D01*
X134251557Y-114548412D01*
X134317246Y-114346243D01*
X134350500Y-114136287D01*
X134350500Y-113923713D01*
X134350500Y-113920310D01*
X134350000Y-113907576D01*
X134350000Y-111599443D01*
X134350500Y-111596287D01*
X134350500Y-111383713D01*
X134350000Y-111380556D01*
X134350000Y-109072424D01*
X134350500Y-109059700D01*
X134350500Y-108840310D01*
X134350000Y-108827576D01*
X134350000Y-106519443D01*
X134350500Y-106516287D01*
X134350500Y-106303713D01*
X134350000Y-106300556D01*
X134350000Y-104187072D01*
X134350000Y-104161304D01*
X178349500Y-104161304D01*
X178349500Y-104338695D01*
X178384104Y-104512659D01*
X178384105Y-104512661D01*
X178384106Y-104512666D01*
X178451987Y-104676547D01*
X178550536Y-104824035D01*
X178675965Y-104949464D01*
X178823453Y-105048013D01*
X178987334Y-105115894D01*
X179161309Y-105150500D01*
X179338691Y-105150500D01*
X179512666Y-105115894D01*
X179676547Y-105048013D01*
X179824035Y-104949464D01*
X179949464Y-104824035D01*
X180048013Y-104676547D01*
X180115894Y-104512666D01*
X180150500Y-104338691D01*
X180150500Y-104161309D01*
X180599500Y-104161309D01*
X180599500Y-104338691D01*
X180624000Y-104461860D01*
X180624000Y-104461861D01*
X180634104Y-104512659D01*
X180634105Y-104512661D01*
X180634106Y-104512666D01*
X180701987Y-104676547D01*
X180800536Y-104824035D01*
X180925965Y-104949464D01*
X181073453Y-105048013D01*
X181237334Y-105115894D01*
X181411309Y-105150500D01*
X181588691Y-105150500D01*
X181762666Y-105115894D01*
X181926547Y-105048013D01*
X182074035Y-104949464D01*
X182199464Y-104824035D01*
X182298013Y-104676547D01*
X182365894Y-104512666D01*
X182396002Y-104361304D01*
X199849500Y-104361304D01*
X199849500Y-104538695D01*
X199884104Y-104712659D01*
X199884105Y-104712661D01*
X199884106Y-104712666D01*
X199951987Y-104876547D01*
X200050536Y-105024035D01*
X200175965Y-105149464D01*
X200323453Y-105248013D01*
X200487334Y-105315894D01*
X200661309Y-105350500D01*
X200838691Y-105350500D01*
X201012666Y-105315894D01*
X201176547Y-105248013D01*
X201324035Y-105149464D01*
X201449464Y-105024035D01*
X201548013Y-104876547D01*
X201615894Y-104712666D01*
X201650500Y-104538691D01*
X201650500Y-104361309D01*
X201615894Y-104187334D01*
X201548013Y-104023453D01*
X201449464Y-103875965D01*
X201324035Y-103750536D01*
X201212437Y-103675968D01*
X201176549Y-103651988D01*
X201176547Y-103651987D01*
X201012666Y-103584106D01*
X201012661Y-103584105D01*
X201012659Y-103584104D01*
X200838695Y-103549500D01*
X200838691Y-103549500D01*
X200661309Y-103549500D01*
X200661304Y-103549500D01*
X200487340Y-103584104D01*
X200487336Y-103584105D01*
X200487334Y-103584106D01*
X200378080Y-103629360D01*
X200323450Y-103651988D01*
X200175968Y-103750533D01*
X200050533Y-103875968D01*
X199951988Y-104023450D01*
X199951987Y-104023453D01*
X199899571Y-104149999D01*
X199884104Y-104187340D01*
X199849500Y-104361304D01*
X182396002Y-104361304D01*
X182400500Y-104338691D01*
X182400500Y-104161309D01*
X182365894Y-103987334D01*
X182298013Y-103823453D01*
X182199464Y-103675965D01*
X182074035Y-103550536D01*
X182072485Y-103549500D01*
X181926549Y-103451988D01*
X181926547Y-103451987D01*
X181762666Y-103384106D01*
X181762661Y-103384105D01*
X181762659Y-103384104D01*
X181588695Y-103349500D01*
X181588691Y-103349500D01*
X181411309Y-103349500D01*
X181411304Y-103349500D01*
X181237340Y-103384104D01*
X181237336Y-103384105D01*
X181237334Y-103384106D01*
X181128080Y-103429360D01*
X181073450Y-103451988D01*
X180925968Y-103550533D01*
X180800533Y-103675968D01*
X180701988Y-103823450D01*
X180634104Y-103987340D01*
X180624000Y-104038137D01*
X180624000Y-104038139D01*
X180599500Y-104161309D01*
X180150500Y-104161309D01*
X180126000Y-104038139D01*
X180126000Y-104038137D01*
X180115895Y-103987340D01*
X180115894Y-103987334D01*
X180048013Y-103823453D01*
X179949464Y-103675965D01*
X179824035Y-103550536D01*
X179822485Y-103549500D01*
X179676549Y-103451988D01*
X179676547Y-103451987D01*
X179512666Y-103384106D01*
X179512661Y-103384105D01*
X179512659Y-103384104D01*
X179338695Y-103349500D01*
X179338691Y-103349500D01*
X179161309Y-103349500D01*
X179161304Y-103349500D01*
X178987340Y-103384104D01*
X178987336Y-103384105D01*
X178987334Y-103384106D01*
X178878080Y-103429360D01*
X178823450Y-103451988D01*
X178675968Y-103550533D01*
X178550533Y-103675968D01*
X178451988Y-103823450D01*
X178384104Y-103987340D01*
X178349500Y-104161304D01*
X134350000Y-104161304D01*
X134350000Y-104150000D01*
X134338416Y-104150000D01*
X134330086Y-104123343D01*
X134327231Y-104120000D01*
X133433012Y-104120000D01*
X133465925Y-104062993D01*
X133500000Y-103935826D01*
X133500000Y-103804174D01*
X133465925Y-103677007D01*
X133433012Y-103620000D01*
X134330345Y-103620000D01*
X134350000Y-103601900D01*
X134350000Y-102243869D01*
X134350357Y-102230540D01*
X134350497Y-102227892D01*
X134350500Y-102227873D01*
X134350499Y-100432128D01*
X134344091Y-100372517D01*
X134293796Y-100237669D01*
X134207546Y-100122454D01*
X134092331Y-100036204D01*
X133987043Y-99996934D01*
X133957481Y-99985908D01*
X133897873Y-99979500D01*
X132102134Y-99979500D01*
X132102130Y-99979500D01*
X132102128Y-99979501D01*
X132078283Y-99982064D01*
X132042514Y-99985909D01*
X132027363Y-99989490D01*
X132026982Y-99987881D01*
X131959815Y-100000000D01*
X130715313Y-100000000D01*
X130676361Y-99996934D01*
X130658511Y-99994106D01*
X130566293Y-99979500D01*
X130566287Y-99979500D01*
X130353713Y-99979500D01*
X130353703Y-99979500D01*
X130143759Y-100012753D01*
X129941592Y-100078441D01*
X129752182Y-100174950D01*
X129580206Y-100299897D01*
X129429897Y-100450206D01*
X129304950Y-100622182D01*
X129208441Y-100811592D01*
X129142753Y-101013759D01*
X129129951Y-101094587D01*
X129100000Y-101175772D01*
X129100000Y-101300000D01*
X129100000Y-103600000D01*
X129100001Y-103600000D01*
X129120001Y-103620000D01*
X130026988Y-103620000D01*
X129994075Y-103677007D01*
X129960000Y-103804174D01*
X129960000Y-103935826D01*
X129994075Y-104062993D01*
X130026988Y-104120000D01*
X129129999Y-104120000D01*
X129100000Y-104149999D01*
X129100000Y-111424086D01*
X129096934Y-111463039D01*
X129086262Y-111530414D01*
X122750500Y-111530414D01*
X122750500Y-97911304D01*
X171599500Y-97911304D01*
X171599500Y-98088695D01*
X171634104Y-98262659D01*
X171634105Y-98262661D01*
X171634106Y-98262666D01*
X171665598Y-98338695D01*
X171701988Y-98426549D01*
X171759530Y-98512666D01*
X171800536Y-98574035D01*
X171925965Y-98699464D01*
X172073453Y-98798013D01*
X172237334Y-98865894D01*
X172411309Y-98900500D01*
X172588691Y-98900500D01*
X172762666Y-98865894D01*
X172926547Y-98798013D01*
X173074035Y-98699464D01*
X173199464Y-98574035D01*
X173298013Y-98426547D01*
X173365894Y-98262666D01*
X173400500Y-98088691D01*
X173400500Y-97911309D01*
X173365894Y-97737334D01*
X173298013Y-97573453D01*
X173199464Y-97425965D01*
X173074035Y-97300536D01*
X173038916Y-97277070D01*
X172926549Y-97201988D01*
X172912788Y-97196288D01*
X172762666Y-97134106D01*
X172762661Y-97134105D01*
X172762659Y-97134104D01*
X172588695Y-97099500D01*
X172588691Y-97099500D01*
X172411309Y-97099500D01*
X172411304Y-97099500D01*
X172237340Y-97134104D01*
X172237336Y-97134105D01*
X172237334Y-97134106D01*
X172128080Y-97179360D01*
X172073450Y-97201988D01*
X171925968Y-97300533D01*
X171800533Y-97425968D01*
X171701988Y-97573450D01*
X171693643Y-97593598D01*
X171659525Y-97675968D01*
X171634104Y-97737340D01*
X171599500Y-97911304D01*
X122750500Y-97911304D01*
X122750500Y-95352167D01*
X129110000Y-95352167D01*
X129110000Y-95999999D01*
X129110001Y-96000000D01*
X130026988Y-96000000D01*
X129994075Y-96057007D01*
X129960000Y-96184174D01*
X129960000Y-96315826D01*
X129994075Y-96442993D01*
X130026988Y-96500000D01*
X129110001Y-96500000D01*
X129110000Y-96500001D01*
X129110000Y-97147832D01*
X129116401Y-97207371D01*
X129116403Y-97207378D01*
X129166646Y-97342087D01*
X129252810Y-97457187D01*
X129252812Y-97457189D01*
X129367912Y-97543353D01*
X129502621Y-97593596D01*
X129502628Y-97593598D01*
X129562167Y-97599999D01*
X129562175Y-97600000D01*
X130209999Y-97600000D01*
X130210000Y-97599999D01*
X130210000Y-96683012D01*
X130267007Y-96715925D01*
X130394174Y-96750000D01*
X130525826Y-96750000D01*
X130652993Y-96715925D01*
X130710000Y-96683012D01*
X130710000Y-97599999D01*
X130710001Y-97600000D01*
X132877577Y-97600000D01*
X132890296Y-97600500D01*
X132893713Y-97600500D01*
X133106284Y-97600500D01*
X133106287Y-97600500D01*
X133106290Y-97600499D01*
X133106296Y-97600499D01*
X133205476Y-97584789D01*
X133316243Y-97567246D01*
X133518412Y-97501557D01*
X133707816Y-97405051D01*
X133879792Y-97280104D01*
X134030104Y-97129792D01*
X134155051Y-96957816D01*
X134251557Y-96768412D01*
X134317246Y-96566243D01*
X134350500Y-96356287D01*
X134350500Y-96143713D01*
X134350499Y-96143710D01*
X134350499Y-96143703D01*
X134317246Y-95933759D01*
X134317246Y-95933757D01*
X134251557Y-95731588D01*
X134155051Y-95542184D01*
X134030104Y-95370208D01*
X133879792Y-95219896D01*
X133707816Y-95094949D01*
X133518412Y-94998443D01*
X133518409Y-94998442D01*
X133518407Y-94998441D01*
X133316240Y-94932753D01*
X133106296Y-94899500D01*
X133106287Y-94899500D01*
X132893713Y-94899500D01*
X132890296Y-94899500D01*
X132877577Y-94900000D01*
X130710001Y-94900000D01*
X130710000Y-94900001D01*
X130710000Y-95816988D01*
X130652993Y-95784075D01*
X130525826Y-95750000D01*
X130394174Y-95750000D01*
X130267007Y-95784075D01*
X130210000Y-95816988D01*
X130210000Y-94900001D01*
X130209999Y-94900000D01*
X129562167Y-94900000D01*
X129502628Y-94906401D01*
X129502621Y-94906403D01*
X129367912Y-94956646D01*
X129252812Y-95042810D01*
X129252810Y-95042812D01*
X129166646Y-95157912D01*
X129116403Y-95292621D01*
X129116401Y-95292628D01*
X129110000Y-95352167D01*
X122750500Y-95352167D01*
X122750500Y-93911304D01*
X199849500Y-93911304D01*
X199849500Y-94088695D01*
X199884104Y-94262659D01*
X199884105Y-94262661D01*
X199884106Y-94262666D01*
X199951987Y-94426547D01*
X200050536Y-94574035D01*
X200175965Y-94699464D01*
X200323453Y-94798013D01*
X200487334Y-94865894D01*
X200661309Y-94900500D01*
X200838691Y-94900500D01*
X201012666Y-94865894D01*
X201176547Y-94798013D01*
X201324035Y-94699464D01*
X201449464Y-94574035D01*
X201548013Y-94426547D01*
X201615894Y-94262666D01*
X201650500Y-94088691D01*
X201650500Y-93911309D01*
X201615894Y-93737334D01*
X201548013Y-93573453D01*
X201449464Y-93425965D01*
X201324035Y-93300536D01*
X201324031Y-93300533D01*
X201176549Y-93201988D01*
X201176547Y-93201987D01*
X201012666Y-93134106D01*
X201012661Y-93134105D01*
X201012659Y-93134104D01*
X200838695Y-93099500D01*
X200838691Y-93099500D01*
X200661309Y-93099500D01*
X200661304Y-93099500D01*
X200487340Y-93134104D01*
X200487336Y-93134105D01*
X200487334Y-93134106D01*
X200378080Y-93179360D01*
X200323450Y-93201988D01*
X200175968Y-93300533D01*
X200050533Y-93425968D01*
X199951988Y-93573450D01*
X199884104Y-93737340D01*
X199849500Y-93911304D01*
X122750500Y-93911304D01*
X122750500Y-78956860D01*
X129100000Y-78956860D01*
X129100000Y-79150000D01*
X129100000Y-80750000D01*
X129100001Y-80750000D01*
X129110001Y-80760000D01*
X130026988Y-80760000D01*
X129994075Y-80817007D01*
X129960000Y-80944174D01*
X129960000Y-81075826D01*
X129994075Y-81202993D01*
X130026988Y-81260000D01*
X129132768Y-81260000D01*
X129100000Y-81298365D01*
X129100000Y-91256378D01*
X129114660Y-91308870D01*
X129142753Y-91486240D01*
X129142754Y-91486243D01*
X129208443Y-91688412D01*
X129304949Y-91877816D01*
X129429896Y-92049792D01*
X129580208Y-92200104D01*
X129752184Y-92325051D01*
X129941588Y-92421557D01*
X130143757Y-92487246D01*
X130217601Y-92498941D01*
X130353703Y-92520499D01*
X130353710Y-92520499D01*
X130353713Y-92520500D01*
X130353716Y-92520500D01*
X130566284Y-92520500D01*
X130566287Y-92520500D01*
X130566290Y-92520499D01*
X130566296Y-92520499D01*
X130665476Y-92504789D01*
X130776243Y-92487246D01*
X130978412Y-92421557D01*
X131167816Y-92325051D01*
X131339792Y-92200104D01*
X131490104Y-92049792D01*
X131615051Y-91877816D01*
X131711557Y-91688412D01*
X131777246Y-91486243D01*
X131794789Y-91375476D01*
X131810499Y-91276296D01*
X131810500Y-91276284D01*
X131810500Y-91063715D01*
X131810499Y-91063706D01*
X131803066Y-91016777D01*
X131800000Y-90977823D01*
X131800000Y-88911304D01*
X135599500Y-88911304D01*
X135599500Y-89088695D01*
X135634104Y-89262659D01*
X135634105Y-89262661D01*
X135634106Y-89262666D01*
X135665234Y-89337816D01*
X135701988Y-89426549D01*
X135750709Y-89499464D01*
X135800536Y-89574035D01*
X135925965Y-89699464D01*
X136073453Y-89798013D01*
X136237334Y-89865894D01*
X136411309Y-89900500D01*
X136588691Y-89900500D01*
X136762666Y-89865894D01*
X136926547Y-89798013D01*
X137074035Y-89699464D01*
X137199464Y-89574035D01*
X137298013Y-89426547D01*
X137365894Y-89262666D01*
X137400500Y-89088691D01*
X137400500Y-88911309D01*
X137365894Y-88737334D01*
X137355114Y-88711309D01*
X171099500Y-88711309D01*
X171099500Y-88888691D01*
X171099964Y-88891024D01*
X171099999Y-88905400D01*
X171099976Y-88905516D01*
X171100000Y-88906002D01*
X171100000Y-90493999D01*
X171099500Y-90504180D01*
X171099500Y-90688695D01*
X171134104Y-90862659D01*
X171134105Y-90862661D01*
X171134106Y-90862666D01*
X171180414Y-90974464D01*
X171201988Y-91026549D01*
X171278392Y-91140895D01*
X171300536Y-91174035D01*
X171425965Y-91299464D01*
X171573453Y-91398013D01*
X171737334Y-91465894D01*
X171911309Y-91500500D01*
X172088691Y-91500500D01*
X172262666Y-91465894D01*
X172426547Y-91398013D01*
X172574035Y-91299464D01*
X172699464Y-91174035D01*
X172798013Y-91026547D01*
X172865894Y-90862666D01*
X172886965Y-90756733D01*
X172924144Y-90666977D01*
X172992843Y-90598278D01*
X173051373Y-90570595D01*
X173051365Y-90570574D01*
X173051801Y-90570393D01*
X173058904Y-90567034D01*
X173062649Y-90565897D01*
X173062666Y-90565894D01*
X173226547Y-90498013D01*
X173374035Y-90399464D01*
X173499464Y-90274035D01*
X173558084Y-90186304D01*
X182399500Y-90186304D01*
X182399500Y-90363695D01*
X182434104Y-90537659D01*
X182434105Y-90537661D01*
X182434106Y-90537666D01*
X182501987Y-90701547D01*
X182600536Y-90849035D01*
X182725965Y-90974464D01*
X182873453Y-91073013D01*
X183037334Y-91140894D01*
X183211309Y-91175500D01*
X183388691Y-91175500D01*
X183562666Y-91140894D01*
X183726547Y-91073013D01*
X183874035Y-90974464D01*
X183999464Y-90849035D01*
X184098013Y-90701547D01*
X184165894Y-90537666D01*
X184200500Y-90363691D01*
X184200500Y-90186309D01*
X184165894Y-90012334D01*
X184098013Y-89848453D01*
X183999464Y-89700965D01*
X183874035Y-89575536D01*
X183760186Y-89499464D01*
X183726549Y-89476988D01*
X183726547Y-89476987D01*
X183562666Y-89409106D01*
X183562661Y-89409105D01*
X183562659Y-89409104D01*
X183388695Y-89374500D01*
X183388691Y-89374500D01*
X183211309Y-89374500D01*
X183211304Y-89374500D01*
X183037340Y-89409104D01*
X183037336Y-89409105D01*
X183037334Y-89409106D01*
X182928080Y-89454360D01*
X182873450Y-89476988D01*
X182725968Y-89575533D01*
X182600533Y-89700968D01*
X182501988Y-89848450D01*
X182434104Y-90012340D01*
X182399500Y-90186304D01*
X173558084Y-90186304D01*
X173598013Y-90126547D01*
X173665894Y-89962666D01*
X173700500Y-89788691D01*
X173700500Y-89611309D01*
X173665894Y-89437334D01*
X173598013Y-89273453D01*
X173499464Y-89125965D01*
X173374035Y-89000536D01*
X173374031Y-89000533D01*
X173226549Y-88901988D01*
X173194447Y-88888691D01*
X173062666Y-88834106D01*
X173062664Y-88834105D01*
X173062653Y-88834101D01*
X173058890Y-88832960D01*
X173055424Y-88831107D01*
X173051365Y-88829426D01*
X173051530Y-88829026D01*
X172973209Y-88787159D01*
X172911577Y-88712055D01*
X172886965Y-88643267D01*
X172865894Y-88537334D01*
X172798013Y-88373453D01*
X172699464Y-88225965D01*
X172574035Y-88100536D01*
X172572485Y-88099500D01*
X172426549Y-88001988D01*
X172426547Y-88001987D01*
X172262666Y-87934106D01*
X172262661Y-87934105D01*
X172262659Y-87934104D01*
X172088695Y-87899500D01*
X172088691Y-87899500D01*
X171911309Y-87899500D01*
X171911304Y-87899500D01*
X171737340Y-87934104D01*
X171737336Y-87934105D01*
X171737334Y-87934106D01*
X171628080Y-87979360D01*
X171573450Y-88001988D01*
X171425968Y-88100533D01*
X171300533Y-88225968D01*
X171201988Y-88373450D01*
X171201987Y-88373453D01*
X171139748Y-88523715D01*
X171134104Y-88537340D01*
X171099529Y-88711157D01*
X171099529Y-88711163D01*
X171099500Y-88711309D01*
X137355114Y-88711309D01*
X137298013Y-88573453D01*
X137199464Y-88425965D01*
X137074035Y-88300536D01*
X136962437Y-88225968D01*
X136926549Y-88201988D01*
X136926547Y-88201987D01*
X136762666Y-88134106D01*
X136762661Y-88134105D01*
X136762659Y-88134104D01*
X136588695Y-88099500D01*
X136588691Y-88099500D01*
X136411309Y-88099500D01*
X136411304Y-88099500D01*
X136237340Y-88134104D01*
X136237336Y-88134105D01*
X136237334Y-88134106D01*
X136128080Y-88179360D01*
X136073450Y-88201988D01*
X135925968Y-88300533D01*
X135800533Y-88425968D01*
X135701988Y-88573450D01*
X135701987Y-88573453D01*
X135634539Y-88736291D01*
X135634104Y-88737340D01*
X135599500Y-88911304D01*
X131800000Y-88911304D01*
X131800000Y-88822176D01*
X131803066Y-88783221D01*
X131810500Y-88736287D01*
X131810500Y-88523713D01*
X131803065Y-88476776D01*
X131800000Y-88437823D01*
X131800000Y-86282176D01*
X131800771Y-86262594D01*
X131801538Y-86252869D01*
X131810500Y-86196287D01*
X131810500Y-86161304D01*
X135599500Y-86161304D01*
X135599500Y-86338695D01*
X135634104Y-86512659D01*
X135634105Y-86512661D01*
X135634106Y-86512666D01*
X135701987Y-86676547D01*
X135800536Y-86824035D01*
X135925965Y-86949464D01*
X136073453Y-87048013D01*
X136237334Y-87115894D01*
X136411309Y-87150500D01*
X136588691Y-87150500D01*
X136762666Y-87115894D01*
X136926547Y-87048013D01*
X137074035Y-86949464D01*
X137199464Y-86824035D01*
X137298013Y-86676547D01*
X137365894Y-86512666D01*
X137400500Y-86338691D01*
X137400500Y-86161309D01*
X137365894Y-85987334D01*
X137298013Y-85823453D01*
X137199464Y-85675965D01*
X137074035Y-85550536D01*
X137074031Y-85550533D01*
X136926549Y-85451988D01*
X136926547Y-85451987D01*
X136762666Y-85384106D01*
X136762661Y-85384105D01*
X136762659Y-85384104D01*
X136588695Y-85349500D01*
X136588691Y-85349500D01*
X136411309Y-85349500D01*
X136411304Y-85349500D01*
X136237340Y-85384104D01*
X136237336Y-85384105D01*
X136237334Y-85384106D01*
X136128080Y-85429360D01*
X136073450Y-85451988D01*
X135925968Y-85550533D01*
X135800533Y-85675968D01*
X135701988Y-85823450D01*
X135634104Y-85987340D01*
X135599500Y-86161304D01*
X131810500Y-86161304D01*
X131810500Y-85983713D01*
X131803065Y-85936776D01*
X131800000Y-85897823D01*
X131800000Y-84661304D01*
X160349500Y-84661304D01*
X160349500Y-84838695D01*
X160384104Y-85012659D01*
X160384105Y-85012661D01*
X160384106Y-85012666D01*
X160451987Y-85176547D01*
X160451988Y-85176549D01*
X160550533Y-85324031D01*
X160550536Y-85324035D01*
X160675965Y-85449464D01*
X160823453Y-85548013D01*
X160987334Y-85615894D01*
X161161309Y-85650500D01*
X161338691Y-85650500D01*
X161512666Y-85615894D01*
X161676547Y-85548013D01*
X161824035Y-85449464D01*
X161949464Y-85324035D01*
X162048013Y-85176547D01*
X162115894Y-85012666D01*
X162150500Y-84838691D01*
X162150500Y-84661309D01*
X162115894Y-84487334D01*
X162048013Y-84323453D01*
X161949464Y-84175965D01*
X161824035Y-84050536D01*
X161767359Y-84012666D01*
X161676549Y-83951988D01*
X161676547Y-83951987D01*
X161512666Y-83884106D01*
X161512661Y-83884105D01*
X161512659Y-83884104D01*
X161461862Y-83874000D01*
X161461860Y-83874000D01*
X161338691Y-83849500D01*
X161161309Y-83849500D01*
X161038140Y-83874000D01*
X161038138Y-83874000D01*
X160987340Y-83884104D01*
X160987336Y-83884105D01*
X160987334Y-83884106D01*
X160878080Y-83929360D01*
X160823450Y-83951988D01*
X160675968Y-84050533D01*
X160550533Y-84175968D01*
X160451988Y-84323450D01*
X160451746Y-84324035D01*
X160399792Y-84449466D01*
X160384104Y-84487340D01*
X160349500Y-84661304D01*
X131800000Y-84661304D01*
X131800000Y-83742176D01*
X131801569Y-83714270D01*
X131802193Y-83708729D01*
X131809705Y-83661304D01*
X135599500Y-83661304D01*
X135599500Y-83838695D01*
X135634104Y-84012659D01*
X135634105Y-84012661D01*
X135634106Y-84012666D01*
X135701746Y-84175965D01*
X135701988Y-84176549D01*
X135800145Y-84323450D01*
X135800536Y-84324035D01*
X135925965Y-84449464D01*
X136073453Y-84548013D01*
X136237334Y-84615894D01*
X136411309Y-84650500D01*
X136588691Y-84650500D01*
X136762666Y-84615894D01*
X136926547Y-84548013D01*
X137074035Y-84449464D01*
X137199464Y-84324035D01*
X137298013Y-84176547D01*
X137365894Y-84012666D01*
X137400500Y-83838691D01*
X137400500Y-83661309D01*
X137365894Y-83487334D01*
X137298013Y-83323453D01*
X137199464Y-83175965D01*
X137074035Y-83050536D01*
X137045678Y-83031588D01*
X136926549Y-82951988D01*
X136926547Y-82951987D01*
X136762666Y-82884106D01*
X136762661Y-82884105D01*
X136762659Y-82884104D01*
X136588695Y-82849500D01*
X136588691Y-82849500D01*
X136411309Y-82849500D01*
X136411304Y-82849500D01*
X136237340Y-82884104D01*
X136237336Y-82884105D01*
X136237334Y-82884106D01*
X136128080Y-82929360D01*
X136073450Y-82951988D01*
X135925968Y-83050533D01*
X135800533Y-83175968D01*
X135701988Y-83323450D01*
X135684407Y-83365895D01*
X135652174Y-83443715D01*
X135634104Y-83487340D01*
X135599500Y-83661304D01*
X131809705Y-83661304D01*
X131810500Y-83656287D01*
X131810500Y-83443713D01*
X131803065Y-83396776D01*
X131800000Y-83357823D01*
X131800000Y-82411304D01*
X160349500Y-82411304D01*
X160349500Y-82588695D01*
X160384104Y-82762659D01*
X160384105Y-82762661D01*
X160384106Y-82762666D01*
X160434407Y-82884104D01*
X160451988Y-82926549D01*
X160534832Y-83050533D01*
X160550536Y-83074035D01*
X160675965Y-83199464D01*
X160823453Y-83298013D01*
X160987334Y-83365894D01*
X161004138Y-83369236D01*
X161038138Y-83376000D01*
X161038140Y-83376000D01*
X161161309Y-83400500D01*
X161338691Y-83400500D01*
X161461860Y-83376000D01*
X161461862Y-83376000D01*
X161487234Y-83370952D01*
X161512666Y-83365894D01*
X161676547Y-83298013D01*
X161824035Y-83199464D01*
X161949464Y-83074035D01*
X162048013Y-82926547D01*
X162115894Y-82762666D01*
X162150500Y-82588691D01*
X162150500Y-82411309D01*
X162115894Y-82237334D01*
X162048013Y-82073453D01*
X161949464Y-81925965D01*
X161824035Y-81800536D01*
X161824031Y-81800533D01*
X161676549Y-81701988D01*
X161676547Y-81701987D01*
X161651521Y-81691621D01*
X161651520Y-81691620D01*
X161512666Y-81634106D01*
X161512661Y-81634104D01*
X161338695Y-81599500D01*
X161338691Y-81599500D01*
X161161309Y-81599500D01*
X161161304Y-81599500D01*
X160987340Y-81634104D01*
X160987336Y-81634105D01*
X160987334Y-81634106D01*
X160878080Y-81679360D01*
X160823450Y-81701988D01*
X160675968Y-81800533D01*
X160550533Y-81925968D01*
X160451988Y-82073450D01*
X160434407Y-82115895D01*
X160386004Y-82232754D01*
X160384104Y-82237340D01*
X160349500Y-82411304D01*
X131800000Y-82411304D01*
X131800000Y-81274949D01*
X131787232Y-81260000D01*
X130893012Y-81260000D01*
X130925925Y-81202993D01*
X130937096Y-81161304D01*
X135599500Y-81161304D01*
X135599500Y-81338695D01*
X135634104Y-81512659D01*
X135634105Y-81512661D01*
X135634106Y-81512666D01*
X135691486Y-81651195D01*
X135701988Y-81676549D01*
X135718986Y-81701988D01*
X135800536Y-81824035D01*
X135925965Y-81949464D01*
X136073453Y-82048013D01*
X136237334Y-82115894D01*
X136411309Y-82150500D01*
X136588691Y-82150500D01*
X136762666Y-82115894D01*
X136926547Y-82048013D01*
X137074035Y-81949464D01*
X137199464Y-81824035D01*
X137298013Y-81676547D01*
X137365894Y-81512666D01*
X137373624Y-81473804D01*
X173462000Y-81473804D01*
X173462000Y-81651195D01*
X173496604Y-81825159D01*
X173496605Y-81825161D01*
X173496606Y-81825166D01*
X173564487Y-81989047D01*
X173564488Y-81989049D01*
X173663033Y-82136531D01*
X173663036Y-82136535D01*
X173788465Y-82261964D01*
X173935953Y-82360513D01*
X174099834Y-82428394D01*
X174273809Y-82463000D01*
X174451191Y-82463000D01*
X174625166Y-82428394D01*
X174789047Y-82360513D01*
X174936535Y-82261964D01*
X175061964Y-82136535D01*
X175160513Y-81989047D01*
X175228394Y-81825166D01*
X175263000Y-81651191D01*
X175263000Y-81473809D01*
X175228394Y-81299834D01*
X175160513Y-81135953D01*
X175061964Y-80988465D01*
X174936535Y-80863036D01*
X174936531Y-80863033D01*
X174789049Y-80764488D01*
X174778214Y-80760000D01*
X174625166Y-80696606D01*
X174625161Y-80696605D01*
X174625159Y-80696604D01*
X174451195Y-80662000D01*
X174451191Y-80662000D01*
X174273809Y-80662000D01*
X174273804Y-80662000D01*
X174099840Y-80696604D01*
X174099836Y-80696605D01*
X174099834Y-80696606D01*
X173990580Y-80741860D01*
X173935950Y-80764488D01*
X173788468Y-80863033D01*
X173663033Y-80988468D01*
X173564488Y-81135950D01*
X173564487Y-81135953D01*
X173497215Y-81298365D01*
X173496604Y-81299840D01*
X173462000Y-81473804D01*
X137373624Y-81473804D01*
X137400500Y-81338691D01*
X137400500Y-81161309D01*
X137365894Y-80987334D01*
X137298013Y-80823453D01*
X137199464Y-80675965D01*
X137074035Y-80550536D01*
X137074031Y-80550533D01*
X136926549Y-80451988D01*
X136926547Y-80451987D01*
X136762666Y-80384106D01*
X136762661Y-80384105D01*
X136762659Y-80384104D01*
X136588695Y-80349500D01*
X136588691Y-80349500D01*
X136411309Y-80349500D01*
X136411304Y-80349500D01*
X136237340Y-80384104D01*
X136237336Y-80384105D01*
X136237334Y-80384106D01*
X136128080Y-80429360D01*
X136073450Y-80451988D01*
X135925968Y-80550533D01*
X135800533Y-80675968D01*
X135701988Y-80823450D01*
X135701987Y-80823453D01*
X135651984Y-80944174D01*
X135634104Y-80987340D01*
X135599500Y-81161304D01*
X130937096Y-81161304D01*
X130960000Y-81075826D01*
X130960000Y-80944174D01*
X130925925Y-80817007D01*
X130893012Y-80760000D01*
X131787231Y-80760000D01*
X131795772Y-80750000D01*
X131800000Y-80750000D01*
X131800000Y-79611304D01*
X160399500Y-79611304D01*
X160399500Y-79788695D01*
X160434104Y-79962659D01*
X160434105Y-79962661D01*
X160434106Y-79962666D01*
X160501987Y-80126547D01*
X160600536Y-80274035D01*
X160725965Y-80399464D01*
X160873453Y-80498013D01*
X161037334Y-80565894D01*
X161211309Y-80600500D01*
X161388691Y-80600500D01*
X161562666Y-80565894D01*
X161726547Y-80498013D01*
X161874035Y-80399464D01*
X161999464Y-80274035D01*
X162098013Y-80126547D01*
X162165894Y-79962666D01*
X162200500Y-79788691D01*
X162200500Y-79611309D01*
X162165894Y-79437334D01*
X162098013Y-79273453D01*
X161999464Y-79125965D01*
X161874035Y-79000536D01*
X161801793Y-78952265D01*
X161726549Y-78901988D01*
X161726547Y-78901987D01*
X161562666Y-78834106D01*
X161562661Y-78834105D01*
X161562659Y-78834104D01*
X161388695Y-78799500D01*
X161388691Y-78799500D01*
X161211309Y-78799500D01*
X161211304Y-78799500D01*
X161037340Y-78834104D01*
X161037336Y-78834105D01*
X161037334Y-78834106D01*
X160928080Y-78879360D01*
X160873450Y-78901988D01*
X160725968Y-79000533D01*
X160600533Y-79125968D01*
X160501988Y-79273450D01*
X160501987Y-79273453D01*
X160438187Y-79427483D01*
X160434104Y-79437340D01*
X160399500Y-79611304D01*
X131800000Y-79611304D01*
X131800000Y-79473816D01*
X131803581Y-79443095D01*
X131802426Y-79442971D01*
X131804268Y-79425832D01*
X131810500Y-79367873D01*
X131810499Y-77572128D01*
X131804091Y-77512517D01*
X131753796Y-77377669D01*
X131667546Y-77262454D01*
X131552331Y-77176204D01*
X131426548Y-77129290D01*
X131417481Y-77125908D01*
X131357873Y-77119500D01*
X129562134Y-77119500D01*
X129562130Y-77119500D01*
X129562128Y-77119501D01*
X129549314Y-77120878D01*
X129502519Y-77125908D01*
X129502515Y-77125909D01*
X129367670Y-77176203D01*
X129252455Y-77262453D01*
X129252453Y-77262455D01*
X129166204Y-77377669D01*
X129115908Y-77512518D01*
X129109500Y-77572123D01*
X129109500Y-78908355D01*
X129100765Y-78952265D01*
X129100000Y-78956860D01*
X122750500Y-78956860D01*
X122750500Y-77249793D01*
X122750500Y-77162468D01*
X122750500Y-77162466D01*
X122720485Y-76992237D01*
X122722251Y-76911304D01*
X160349500Y-76911304D01*
X160349500Y-77088695D01*
X160384104Y-77262659D01*
X160384105Y-77262661D01*
X160384106Y-77262666D01*
X160431742Y-77377670D01*
X160451988Y-77426549D01*
X160550533Y-77574031D01*
X160550536Y-77574035D01*
X160675965Y-77699464D01*
X160823453Y-77798013D01*
X160987334Y-77865894D01*
X161161309Y-77900500D01*
X161338691Y-77900500D01*
X161512666Y-77865894D01*
X161676547Y-77798013D01*
X161824035Y-77699464D01*
X161949464Y-77574035D01*
X162048013Y-77426547D01*
X162115894Y-77262666D01*
X162150500Y-77088691D01*
X162150500Y-76911309D01*
X162115894Y-76737334D01*
X162048013Y-76573453D01*
X161949464Y-76425965D01*
X161824035Y-76300536D01*
X161793150Y-76279899D01*
X161676549Y-76201988D01*
X161676547Y-76201987D01*
X161512666Y-76134106D01*
X161512661Y-76134105D01*
X161512659Y-76134104D01*
X161338695Y-76099500D01*
X161338691Y-76099500D01*
X161161309Y-76099500D01*
X161161304Y-76099500D01*
X160987340Y-76134104D01*
X160987336Y-76134105D01*
X160987334Y-76134106D01*
X160881723Y-76177851D01*
X160823450Y-76201988D01*
X160675968Y-76300533D01*
X160550533Y-76425968D01*
X160451988Y-76573450D01*
X160451987Y-76573453D01*
X160391720Y-76718954D01*
X160384104Y-76737340D01*
X160349500Y-76911304D01*
X122722251Y-76911304D01*
X122722605Y-76895105D01*
X122761734Y-76806178D01*
X122831916Y-76738995D01*
X122922465Y-76703783D01*
X122965702Y-76700000D01*
X123551919Y-76700000D01*
X123564140Y-76700300D01*
X123568202Y-76700499D01*
X123568206Y-76700500D01*
X123568210Y-76700500D01*
X123931791Y-76700500D01*
X123931794Y-76700500D01*
X124293631Y-76664862D01*
X124650233Y-76593930D01*
X124650244Y-76593926D01*
X124650251Y-76593925D01*
X124876693Y-76525233D01*
X124998164Y-76488386D01*
X125334076Y-76349247D01*
X125609579Y-76201988D01*
X125654725Y-76177857D01*
X125654735Y-76177851D01*
X125812116Y-76072692D01*
X125957044Y-75975854D01*
X126238101Y-75745197D01*
X126495197Y-75488101D01*
X126725854Y-75207044D01*
X126927853Y-74904732D01*
X127099247Y-74584076D01*
X127238386Y-74248164D01*
X127291385Y-74073450D01*
X127343925Y-73900251D01*
X127343928Y-73900238D01*
X127343930Y-73900233D01*
X127414862Y-73543631D01*
X127450500Y-73181794D01*
X127450500Y-72818206D01*
X127450499Y-72818202D01*
X127450300Y-72814140D01*
X127450000Y-72801919D01*
X127450000Y-72482167D01*
X129110000Y-72482167D01*
X129110000Y-73129999D01*
X129110001Y-73130000D01*
X130026988Y-73130000D01*
X129994075Y-73187007D01*
X129960000Y-73314174D01*
X129960000Y-73445826D01*
X129994075Y-73572993D01*
X130026988Y-73630000D01*
X129110001Y-73630000D01*
X129110000Y-73630001D01*
X129110000Y-74277832D01*
X129116401Y-74337371D01*
X129116403Y-74337378D01*
X129166646Y-74472087D01*
X129252810Y-74587187D01*
X129252812Y-74587189D01*
X129367912Y-74673353D01*
X129502621Y-74723596D01*
X129502628Y-74723598D01*
X129562167Y-74729999D01*
X129562175Y-74730000D01*
X130209999Y-74730000D01*
X130210000Y-74729999D01*
X130210000Y-73813012D01*
X130267007Y-73845925D01*
X130394174Y-73880000D01*
X130525826Y-73880000D01*
X130652993Y-73845925D01*
X130710000Y-73813012D01*
X130710000Y-74729999D01*
X130710001Y-74730000D01*
X131357825Y-74730000D01*
X131357832Y-74729999D01*
X131417371Y-74723598D01*
X131417381Y-74723596D01*
X131438555Y-74715699D01*
X131525570Y-74700000D01*
X132681550Y-74700000D01*
X132720503Y-74703066D01*
X132893704Y-74730499D01*
X132893709Y-74730499D01*
X132893713Y-74730500D01*
X132893716Y-74730500D01*
X133106284Y-74730500D01*
X133106287Y-74730500D01*
X133106290Y-74730499D01*
X133106296Y-74730499D01*
X133205476Y-74714789D01*
X133316243Y-74697246D01*
X133518412Y-74631557D01*
X133707816Y-74535051D01*
X133878140Y-74411304D01*
X160344500Y-74411304D01*
X160344500Y-74588695D01*
X160379104Y-74762659D01*
X160379105Y-74762661D01*
X160379106Y-74762666D01*
X160446987Y-74926547D01*
X160545536Y-75074035D01*
X160670965Y-75199464D01*
X160818453Y-75298013D01*
X160982334Y-75365894D01*
X161156309Y-75400500D01*
X161333691Y-75400500D01*
X161507666Y-75365894D01*
X161671547Y-75298013D01*
X161819035Y-75199464D01*
X161944464Y-75074035D01*
X162043013Y-74926547D01*
X162110894Y-74762666D01*
X162145500Y-74588691D01*
X162145500Y-74411309D01*
X162110894Y-74237334D01*
X162043013Y-74073453D01*
X161944464Y-73925965D01*
X161819035Y-73800536D01*
X161819031Y-73800533D01*
X161671549Y-73701988D01*
X161671547Y-73701987D01*
X161507666Y-73634106D01*
X161507661Y-73634105D01*
X161507659Y-73634104D01*
X161333695Y-73599500D01*
X161333691Y-73599500D01*
X161156309Y-73599500D01*
X161156304Y-73599500D01*
X160982340Y-73634104D01*
X160982336Y-73634105D01*
X160982334Y-73634106D01*
X160873080Y-73679360D01*
X160818450Y-73701988D01*
X160670968Y-73800533D01*
X160545533Y-73925968D01*
X160446988Y-74073450D01*
X160379104Y-74237340D01*
X160344500Y-74411304D01*
X133878140Y-74411304D01*
X133879792Y-74410104D01*
X134030104Y-74259792D01*
X134155051Y-74087816D01*
X134251557Y-73898412D01*
X134317246Y-73696243D01*
X134341418Y-73543631D01*
X134350499Y-73486296D01*
X134350500Y-73486284D01*
X134350500Y-73273715D01*
X134350499Y-73273703D01*
X134317246Y-73063759D01*
X134317246Y-73063757D01*
X134251557Y-72861588D01*
X134155051Y-72672184D01*
X134030104Y-72500208D01*
X133879792Y-72349896D01*
X133707816Y-72224949D01*
X133518412Y-72128443D01*
X133518409Y-72128442D01*
X133518407Y-72128441D01*
X133316240Y-72062753D01*
X133106296Y-72029500D01*
X133106287Y-72029500D01*
X132893713Y-72029500D01*
X132893706Y-72029500D01*
X132799301Y-72044453D01*
X132783638Y-72046934D01*
X132744687Y-72050000D01*
X131498758Y-72050000D01*
X131432974Y-72038131D01*
X131432537Y-72039985D01*
X131417371Y-72036401D01*
X131357832Y-72030000D01*
X130710001Y-72030000D01*
X130710000Y-72030001D01*
X130710000Y-72946988D01*
X130652993Y-72914075D01*
X130525826Y-72880000D01*
X130394174Y-72880000D01*
X130267007Y-72914075D01*
X130210000Y-72946988D01*
X130210000Y-72030001D01*
X130209999Y-72030000D01*
X129562167Y-72030000D01*
X129502628Y-72036401D01*
X129502621Y-72036403D01*
X129367912Y-72086646D01*
X129252812Y-72172810D01*
X129252810Y-72172812D01*
X129166646Y-72287912D01*
X129116403Y-72422621D01*
X129116401Y-72422628D01*
X129110000Y-72482167D01*
X127450000Y-72482167D01*
X127450000Y-70749000D01*
X127468954Y-70653712D01*
X127522930Y-70572930D01*
X127603712Y-70518954D01*
X127699000Y-70500000D01*
X165351000Y-70500000D01*
X165446288Y-70518954D01*
G37*
G04 #@! TD.AperFunction*
M02*
