G04 #@! TF.GenerationSoftware,KiCad,Pcbnew,10.0.4-10.0.4~ubuntu22.04.1*
G04 #@! TF.CreationDate,2026-09-12T00:10:08+02:00*
G04 #@! TF.ProjectId,PICO_ADC_Test,5049434f-5f41-4444-935f-546573742e6b,R0.1*
G04 #@! TF.SameCoordinates,PX72ade90PY75c75e0*
G04 #@! TF.FileFunction,Copper,L4,Bot*
G04 #@! TF.FilePolarity,Positive*
%FSLAX46Y46*%
G04 Gerber Fmt 4.6, Leading zero omitted, Abs format (unit mm)*
G04 Created by KiCad (PCBNEW 10.0.4-10.0.4~ubuntu22.04.1) date 2026-09-12 00:10:08*
%MOMM*%
%LPD*%
G01*
G04 APERTURE LIST*
G04 #@! TA.AperFunction,ComponentPad*
%ADD10C,2.000000*%
G04 #@! TD*
G04 #@! TA.AperFunction,ComponentPad*
%ADD11R,1.700000X1.700000*%
G04 #@! TD*
G04 #@! TA.AperFunction,ComponentPad*
%ADD12O,1.700000X1.700000*%
G04 #@! TD*
G04 #@! TA.AperFunction,ComponentPad*
%ADD13C,0.800000*%
G04 #@! TD*
G04 #@! TA.AperFunction,ComponentPad*
%ADD14C,6.400000*%
G04 #@! TD*
G04 #@! TA.AperFunction,SMDPad,CuDef*
%ADD15R,4.800000X4.900000*%
G04 #@! TD*
G04 #@! TA.AperFunction,SMDPad,CuDef*
%ADD16C,1.000000*%
G04 #@! TD*
G04 #@! TA.AperFunction,ViaPad*
%ADD17C,0.800000*%
G04 #@! TD*
G04 #@! TA.AperFunction,Conductor*
%ADD18C,0.500000*%
G04 #@! TD*
G04 #@! TA.AperFunction,Conductor*
%ADD19C,0.300000*%
G04 #@! TD*
G04 APERTURE END LIST*
D10*
X191250000Y-71500000D03*
D11*
X166950000Y-72000000D03*
D12*
X169490000Y-72000000D03*
X172030000Y-72000000D03*
X174570000Y-72000000D03*
D11*
X130460000Y-96250000D03*
D12*
X133000000Y-96250000D03*
D13*
X199350000Y-120000000D03*
X200052944Y-118302944D03*
X200052944Y-121697056D03*
X201750000Y-117600000D03*
D14*
X201750000Y-120000000D03*
D13*
X201750000Y-122400000D03*
X203447056Y-118302944D03*
X203447056Y-121697056D03*
X204150000Y-120000000D03*
D11*
X130460000Y-78470000D03*
D12*
X130460000Y-81010000D03*
X130460000Y-83550000D03*
X130460000Y-86090000D03*
X130460000Y-88630000D03*
X130460000Y-91170000D03*
D13*
X121350000Y-120000000D03*
X122052944Y-118302944D03*
X122052944Y-121697056D03*
X123750000Y-117600000D03*
D14*
X123750000Y-120000000D03*
D13*
X123750000Y-122400000D03*
X125447056Y-118302944D03*
X125447056Y-121697056D03*
X126150000Y-120000000D03*
D15*
X195500000Y-72325000D03*
X187000000Y-72325000D03*
D13*
X121350000Y-73000000D03*
X122052944Y-71302944D03*
X122052944Y-74697056D03*
X123750000Y-70600000D03*
D14*
X123750000Y-73000000D03*
D13*
X123750000Y-75400000D03*
X125447056Y-71302944D03*
X125447056Y-74697056D03*
X126150000Y-73000000D03*
D11*
X130460000Y-73380000D03*
D12*
X133000000Y-73380000D03*
D11*
X130460000Y-119110000D03*
D12*
X133000000Y-119110000D03*
D13*
X199350000Y-73000000D03*
X200052944Y-71302944D03*
X200052944Y-74697056D03*
X201750000Y-70600000D03*
D14*
X201750000Y-73000000D03*
D13*
X201750000Y-75400000D03*
X203447056Y-71302944D03*
X203447056Y-74697056D03*
X204150000Y-73000000D03*
D11*
X133000000Y-101330000D03*
D12*
X130460000Y-101330000D03*
X133000000Y-103870000D03*
X130460000Y-103870000D03*
X133000000Y-106410000D03*
X130460000Y-106410000D03*
X133000000Y-108950000D03*
X130460000Y-108950000D03*
X133000000Y-111490000D03*
X130460000Y-111490000D03*
X133000000Y-114030000D03*
X130460000Y-114030000D03*
D16*
X168943324Y-89500000D03*
X169800000Y-87650000D03*
X169950000Y-91600000D03*
X185000000Y-90300000D03*
D17*
X179750000Y-110500000D03*
X123250000Y-112810000D03*
X203750000Y-84870000D03*
X183750000Y-81250000D03*
X176750000Y-91000000D03*
X193450000Y-78850000D03*
X177500000Y-107500000D03*
X203750000Y-95030000D03*
X203750000Y-82330000D03*
X142000000Y-73500000D03*
X194750000Y-96750000D03*
X173000000Y-96000000D03*
X190290000Y-122000000D03*
X179500000Y-107500000D03*
X146250000Y-95000000D03*
X123250000Y-84870000D03*
X186250000Y-116500000D03*
X151000000Y-113000000D03*
X180500000Y-71000000D03*
X198500000Y-75550000D03*
X169750000Y-106250000D03*
X194000000Y-83750000D03*
X192830000Y-122000000D03*
X151000000Y-90000000D03*
X181500000Y-105750000D03*
X165500000Y-91250000D03*
X163000000Y-88750000D03*
X183650000Y-71000000D03*
X176000000Y-120500000D03*
X187000000Y-93750000D03*
X203750000Y-92490000D03*
X123250000Y-89950000D03*
X123250000Y-100110000D03*
X183650000Y-72750000D03*
X203750000Y-79790000D03*
X142000000Y-122000000D03*
X171500000Y-114000000D03*
X196500000Y-83250000D03*
X155500000Y-77250000D03*
X203750000Y-106000000D03*
X169750000Y-122000000D03*
X193250000Y-106750000D03*
X146500000Y-102750000D03*
X173000000Y-117750000D03*
X178400000Y-117500000D03*
X189750000Y-111750000D03*
X196750000Y-77250000D03*
X142000000Y-102750000D03*
X155250000Y-122000000D03*
X163250000Y-86250000D03*
X186250000Y-114250000D03*
X123250000Y-77250000D03*
X203750000Y-89950000D03*
X151000000Y-77250000D03*
X171500000Y-107987500D03*
X198500000Y-104750000D03*
X197500000Y-122000000D03*
X187950000Y-79800000D03*
X198250000Y-115750000D03*
X177000000Y-71000000D03*
X192500000Y-78500000D03*
X151000000Y-86000000D03*
X123250000Y-92490000D03*
X184000000Y-93750000D03*
X177500000Y-115587500D03*
X174750000Y-75000000D03*
X123250000Y-110270000D03*
X178400000Y-119750000D03*
X181750000Y-112250000D03*
X201250000Y-98250000D03*
X171250000Y-120500000D03*
X123250000Y-97570000D03*
X146250000Y-99750000D03*
X170750000Y-78250000D03*
X142000000Y-84830000D03*
X123250000Y-115350000D03*
X170500000Y-117750000D03*
X191500000Y-93750000D03*
X123250000Y-102650000D03*
X196000000Y-104750000D03*
X189650000Y-78800000D03*
X195500000Y-76350000D03*
X142000000Y-76500000D03*
X188500000Y-93750000D03*
X198650000Y-77250000D03*
X195370000Y-122000000D03*
X176750000Y-89500000D03*
X142000000Y-89910000D03*
X186250000Y-121000000D03*
X175550000Y-105800000D03*
X142000000Y-99750000D03*
X203750000Y-87410000D03*
X181750000Y-110500000D03*
X177500000Y-110500000D03*
X186500000Y-81250000D03*
X197250000Y-90000000D03*
X146500000Y-113000000D03*
X169000000Y-98250000D03*
X173000000Y-93500000D03*
X151000000Y-82750000D03*
X175750000Y-117750000D03*
X190200000Y-75400000D03*
X203750000Y-77250000D03*
X151000000Y-95000000D03*
X199950000Y-80650000D03*
X155250000Y-117990000D03*
X146250000Y-83000000D03*
X196750000Y-98500000D03*
X165200000Y-86250000D03*
X171500000Y-110987500D03*
X203750000Y-108540000D03*
X123250000Y-107730000D03*
X173000000Y-122000000D03*
X183650000Y-74750000D03*
X193750000Y-76500000D03*
X123250000Y-87410000D03*
X170750000Y-98250000D03*
X199750000Y-96250000D03*
X185750000Y-111750000D03*
X155250000Y-107830000D03*
X193250000Y-104750000D03*
X142000000Y-117990000D03*
X190000000Y-93750000D03*
X180500000Y-80250000D03*
X199950000Y-78600000D03*
X167250000Y-93650000D03*
X167250000Y-105250000D03*
X155250000Y-112910000D03*
X142000000Y-112910000D03*
X175000000Y-78250000D03*
X203750000Y-115750000D03*
X203750000Y-111080000D03*
X173000000Y-115250000D03*
X200500000Y-77000000D03*
X176750000Y-81000000D03*
X151000000Y-107750000D03*
X142000000Y-79750000D03*
X203750000Y-113620000D03*
X142000000Y-107830000D03*
X180000000Y-122000000D03*
X176000000Y-122000000D03*
X201000000Y-115750000D03*
X196500000Y-82000000D03*
X155250000Y-102750000D03*
X151000000Y-102750000D03*
X192000000Y-96750000D03*
X190750000Y-76750000D03*
X167250000Y-98250000D03*
X198000000Y-81200000D03*
X176750000Y-85000000D03*
X123250000Y-95030000D03*
X192250000Y-109750000D03*
X186250000Y-118750000D03*
X183250000Y-105750000D03*
X123250000Y-105190000D03*
X173000000Y-114000000D03*
X177500000Y-105750000D03*
X197250000Y-88000000D03*
X142000000Y-94990000D03*
X123250000Y-82330000D03*
X181500000Y-107500000D03*
X187750000Y-122000000D03*
X179500000Y-105750000D03*
X192450000Y-75400000D03*
X123250000Y-79790000D03*
X146500000Y-107750000D03*
X171500000Y-115250000D03*
X185500000Y-93750000D03*
X181750000Y-95000000D03*
X148750000Y-74950000D03*
X176750000Y-88000000D03*
X155250000Y-99750000D03*
X191500000Y-77750000D03*
X146250000Y-90000000D03*
X164000000Y-84100000D03*
X174362500Y-81562500D03*
X172500000Y-98000000D03*
X183300000Y-90275000D03*
X179250000Y-104250000D03*
X181500000Y-104250000D03*
X200750000Y-104450000D03*
X203250000Y-98250000D03*
X200750000Y-94000000D03*
X136500000Y-89000000D03*
X136500000Y-81250000D03*
X136500000Y-83750000D03*
X161250000Y-84750000D03*
X161250000Y-82500000D03*
X136500000Y-86250000D03*
X161300000Y-79700000D03*
X172000000Y-88800000D03*
X172800000Y-89700000D03*
X161250000Y-77000000D03*
X172000000Y-90600000D03*
X161245000Y-74500000D03*
D18*
X182962500Y-72000000D02*
X186437500Y-72000000D01*
X195500000Y-72525000D02*
X195500000Y-76350000D01*
X182962500Y-70750000D02*
X186437500Y-70750000D01*
X187812500Y-73300000D02*
X191287500Y-73300000D01*
X187000000Y-72325000D02*
X187000000Y-75800000D01*
X191662500Y-73300000D02*
X195137500Y-73300000D01*
X182812500Y-73300000D02*
X186287500Y-73300000D01*
D19*
X185000000Y-90300000D02*
X183325000Y-90300000D01*
X183325000Y-90300000D02*
X183300000Y-90275000D01*
X136450000Y-102960000D02*
X133000000Y-106410000D01*
X136450000Y-89050000D02*
X136450000Y-102960000D01*
X136500000Y-89000000D02*
X136450000Y-89050000D01*
X137350000Y-85049390D02*
X137350000Y-82100000D01*
X133000000Y-114030000D02*
X133000000Y-114000000D01*
X138550000Y-86249390D02*
X137350000Y-85049390D01*
X133000000Y-114000000D02*
X138550000Y-108450000D01*
X138550000Y-108450000D02*
X138550000Y-86249390D01*
X137350000Y-82100000D02*
X136500000Y-81250000D01*
X137950000Y-106600000D02*
X133060000Y-111490000D01*
X133060000Y-111490000D02*
X133000000Y-111490000D01*
X136500000Y-85047918D02*
X137950000Y-86497918D01*
X137950000Y-86497918D02*
X137950000Y-106600000D01*
X136500000Y-83750000D02*
X136500000Y-85047918D01*
X149700000Y-84750000D02*
X143300000Y-78350000D01*
X132800000Y-81050000D02*
X132800000Y-88830000D01*
X132800000Y-88830000D02*
X130460000Y-91170000D01*
X161250000Y-84750000D02*
X149700000Y-84750000D01*
X143300000Y-78350000D02*
X135500000Y-78350000D01*
X135500000Y-78350000D02*
X132800000Y-81050000D01*
X150350000Y-84150000D02*
X159600000Y-84150000D01*
X132200000Y-80750000D02*
X135200000Y-77750000D01*
X132200000Y-86890000D02*
X132200000Y-80750000D01*
X143950000Y-77750000D02*
X150350000Y-84150000D01*
X159600000Y-84150000D02*
X161250000Y-82500000D01*
X135200000Y-77750000D02*
X143950000Y-77750000D01*
X130460000Y-88630000D02*
X132200000Y-86890000D01*
X133050000Y-108950000D02*
X137350000Y-104650000D01*
X133000000Y-108950000D02*
X133050000Y-108950000D01*
X137350000Y-87100000D02*
X136500000Y-86250000D01*
X137350000Y-104650000D02*
X137350000Y-87100000D01*
X172000000Y-86700000D02*
X165000000Y-79700000D01*
X165000000Y-79700000D02*
X161300000Y-79700000D01*
X172000000Y-88800000D02*
X172000000Y-86700000D01*
X172000000Y-88800000D02*
X170950000Y-88800000D01*
X170950000Y-88800000D02*
X169800000Y-87650000D01*
X172850000Y-89650000D02*
X172850000Y-86700000D01*
X172800000Y-89700000D02*
X169143324Y-89700000D01*
X172850000Y-86700000D02*
X163150000Y-77000000D01*
X172800000Y-89700000D02*
X172850000Y-89650000D01*
X163150000Y-77000000D02*
X161250000Y-77000000D01*
X169143324Y-89700000D02*
X168943324Y-89500000D01*
X173650000Y-86650000D02*
X161500000Y-74500000D01*
X172000000Y-90600000D02*
X173102082Y-90600000D01*
X170950000Y-90600000D02*
X169950000Y-91600000D01*
X161500000Y-74500000D02*
X161245000Y-74500000D01*
X172000000Y-90600000D02*
X170950000Y-90600000D01*
X173102082Y-90600000D02*
X173650000Y-90052082D01*
X173650000Y-90052082D02*
X173650000Y-86650000D01*
G04 #@! TA.AperFunction,Conductor*
G36*
X129994075Y-103677007D02*
G01*
X129960000Y-103804174D01*
X129960000Y-103935826D01*
X129994075Y-104062993D01*
X130026988Y-104120000D01*
X129185025Y-104120000D01*
X129169950Y-103620000D01*
X130026988Y-103620000D01*
X129994075Y-103677007D01*
G37*
G04 #@! TD.AperFunction*
G04 #@! TA.AperFunction,Conductor*
G36*
X132534075Y-103677007D02*
G01*
X132500000Y-103804174D01*
X132500000Y-103935826D01*
X132534075Y-104062993D01*
X132566988Y-104120000D01*
X130893012Y-104120000D01*
X130925925Y-104062993D01*
X130960000Y-103935826D01*
X130960000Y-103804174D01*
X130925925Y-103677007D01*
X130893012Y-103620000D01*
X132566988Y-103620000D01*
X132534075Y-103677007D01*
G37*
G04 #@! TD.AperFunction*
G04 #@! TA.AperFunction,Conductor*
G36*
X129994075Y-80817007D02*
G01*
X129960000Y-80944174D01*
X129960000Y-81075826D01*
X129994075Y-81202993D01*
X130026988Y-81260000D01*
X129171320Y-81260000D01*
X129158629Y-80760000D01*
X130026988Y-80760000D01*
X129994075Y-80817007D01*
G37*
G04 #@! TD.AperFunction*
G04 #@! TA.AperFunction,Conductor*
G36*
X165494459Y-70506070D02*
G01*
X165525527Y-70507736D01*
X165541674Y-70515461D01*
X165559231Y-70518954D01*
X165585101Y-70536239D01*
X165613167Y-70549668D01*
X165625127Y-70562984D01*
X165640013Y-70572930D01*
X165657299Y-70598802D01*
X165678089Y-70621947D01*
X165684043Y-70638827D01*
X165693989Y-70653712D01*
X165700058Y-70684227D01*
X165710409Y-70713568D01*
X165709450Y-70731442D01*
X165712943Y-70749000D01*
X165706872Y-70779516D01*
X165705207Y-70810584D01*
X165697481Y-70826731D01*
X165693989Y-70844288D01*
X165663275Y-70898224D01*
X165656204Y-70907668D01*
X165605908Y-71042518D01*
X165599500Y-71102123D01*
X165599500Y-72897865D01*
X165599501Y-72897869D01*
X165605908Y-72957480D01*
X165605909Y-72957484D01*
X165645547Y-73063759D01*
X165656204Y-73092331D01*
X165742454Y-73207546D01*
X165857669Y-73293796D01*
X165992517Y-73344091D01*
X166052127Y-73350500D01*
X167847872Y-73350499D01*
X167852227Y-73350030D01*
X167865272Y-73350001D01*
X167865389Y-73350024D01*
X167865840Y-73350000D01*
X169367577Y-73350000D01*
X169380296Y-73350500D01*
X169383713Y-73350500D01*
X169599704Y-73350500D01*
X169612423Y-73350000D01*
X171920556Y-73350000D01*
X171923713Y-73350500D01*
X172136287Y-73350500D01*
X172139444Y-73350000D01*
X174299999Y-73350000D01*
X174300000Y-73350000D01*
X174300000Y-73349999D01*
X174320000Y-73329999D01*
X174320000Y-72433012D01*
X174377007Y-72465925D01*
X174504174Y-72500000D01*
X174635826Y-72500000D01*
X174762993Y-72465925D01*
X174820000Y-72433012D01*
X174820000Y-73327229D01*
X174886129Y-73316756D01*
X175088212Y-73251097D01*
X175088225Y-73251091D01*
X175277553Y-73154623D01*
X175449462Y-73029724D01*
X175599724Y-72879462D01*
X175724623Y-72707553D01*
X175821091Y-72518225D01*
X175821097Y-72518212D01*
X175886756Y-72316129D01*
X175897230Y-72250000D01*
X175003012Y-72250000D01*
X175035925Y-72192993D01*
X175070000Y-72065826D01*
X175070000Y-71934174D01*
X175035925Y-71807007D01*
X175003012Y-71750000D01*
X175900000Y-71750000D01*
X175900000Y-70749000D01*
X175918954Y-70653712D01*
X175972930Y-70572930D01*
X176053712Y-70518954D01*
X176149000Y-70500000D01*
X183851000Y-70500000D01*
X183946288Y-70518954D01*
X184027070Y-70572930D01*
X184081046Y-70653712D01*
X184100000Y-70749000D01*
X184100000Y-74822822D01*
X184104719Y-74866726D01*
X186647154Y-72324293D01*
X186647192Y-72324266D01*
X186647217Y-72324231D01*
X186687398Y-72297402D01*
X186727936Y-72270317D01*
X186727978Y-72270308D01*
X186728017Y-72270283D01*
X186776181Y-72260720D01*
X186823224Y-72251363D01*
X186823267Y-72251371D01*
X186823312Y-72251363D01*
X186870702Y-72260807D01*
X186918512Y-72270317D01*
X186918549Y-72270342D01*
X186918594Y-72270351D01*
X186958227Y-72296853D01*
X186999294Y-72324293D01*
X186999356Y-72324356D01*
X186999999Y-72324999D01*
X187000643Y-72324356D01*
X187081405Y-72270351D01*
X187176687Y-72251363D01*
X187271982Y-72270283D01*
X187352782Y-72324231D01*
X187352845Y-72324293D01*
X189895280Y-74866727D01*
X189899999Y-74822829D01*
X189900000Y-74822827D01*
X189900000Y-72862577D01*
X189918954Y-72767289D01*
X189972930Y-72686507D01*
X190053712Y-72632531D01*
X190149000Y-72613577D01*
X190244288Y-72632531D01*
X190295356Y-72661130D01*
X190463567Y-72783343D01*
X190674008Y-72890568D01*
X190898632Y-72963553D01*
X191131908Y-73000500D01*
X191131912Y-73000500D01*
X191368088Y-73000500D01*
X191368092Y-73000500D01*
X191601368Y-72963553D01*
X191825992Y-72890568D01*
X192036433Y-72783343D01*
X192204642Y-72661131D01*
X192292871Y-72620457D01*
X192389951Y-72616642D01*
X192481101Y-72650269D01*
X192552445Y-72716218D01*
X192593120Y-72804448D01*
X192600000Y-72862577D01*
X192600000Y-74822822D01*
X192604719Y-74866726D01*
X195147154Y-72324293D01*
X195147192Y-72324266D01*
X195147217Y-72324231D01*
X195187398Y-72297402D01*
X195227936Y-72270317D01*
X195227978Y-72270308D01*
X195228017Y-72270283D01*
X195276181Y-72260720D01*
X195323224Y-72251363D01*
X195323267Y-72251371D01*
X195323312Y-72251363D01*
X195370702Y-72260807D01*
X195418512Y-72270317D01*
X195418549Y-72270342D01*
X195418594Y-72270351D01*
X195458227Y-72296853D01*
X195499294Y-72324293D01*
X195499356Y-72324356D01*
X195499999Y-72324999D01*
X195500643Y-72324356D01*
X195581405Y-72270351D01*
X195676687Y-72251363D01*
X195771982Y-72270283D01*
X195852782Y-72324231D01*
X195852845Y-72324293D01*
X198406213Y-74877660D01*
X198431613Y-74874008D01*
X198525750Y-74898035D01*
X198603527Y-74956258D01*
X198625322Y-74984314D01*
X198774146Y-75207044D01*
X199004803Y-75488101D01*
X199261899Y-75745197D01*
X199542956Y-75975854D01*
X199542968Y-75975862D01*
X199845264Y-76177851D01*
X199845274Y-76177857D01*
X200165915Y-76349242D01*
X200165926Y-76349248D01*
X200233106Y-76377074D01*
X200501836Y-76488386D01*
X200501848Y-76488389D01*
X200501849Y-76488390D01*
X200849748Y-76593925D01*
X200849758Y-76593927D01*
X200849767Y-76593930D01*
X201206369Y-76664862D01*
X201568206Y-76700500D01*
X201568209Y-76700500D01*
X201931790Y-76700500D01*
X201931794Y-76700500D01*
X201931797Y-76700499D01*
X201935860Y-76700300D01*
X201948081Y-76700000D01*
X202130172Y-76700000D01*
X202133922Y-76700745D01*
X202141497Y-76700000D01*
X204001000Y-76700000D01*
X204096288Y-76718954D01*
X204177070Y-76772930D01*
X204231046Y-76853712D01*
X204250000Y-76949000D01*
X204250000Y-97375362D01*
X204231046Y-97470650D01*
X204177070Y-97551432D01*
X204096288Y-97605408D01*
X204001000Y-97624362D01*
X203905712Y-97605408D01*
X203834095Y-97557556D01*
X203833489Y-97558295D01*
X203825987Y-97552138D01*
X203824933Y-97551434D01*
X203824035Y-97550536D01*
X203750735Y-97501558D01*
X203676549Y-97451988D01*
X203676547Y-97451987D01*
X203512666Y-97384106D01*
X203512661Y-97384105D01*
X203512659Y-97384104D01*
X203338695Y-97349500D01*
X203338691Y-97349500D01*
X203161309Y-97349500D01*
X203161304Y-97349500D01*
X202987340Y-97384104D01*
X202987336Y-97384105D01*
X202987334Y-97384106D01*
X202936773Y-97405049D01*
X202823450Y-97451988D01*
X202675968Y-97550533D01*
X202550533Y-97675968D01*
X202451988Y-97823450D01*
X202384104Y-97987340D01*
X202349500Y-98161304D01*
X202349500Y-98338695D01*
X202384104Y-98512659D01*
X202384105Y-98512661D01*
X202384106Y-98512666D01*
X202409526Y-98574035D01*
X202451988Y-98676549D01*
X202550533Y-98824031D01*
X202550536Y-98824035D01*
X202675965Y-98949464D01*
X202823453Y-99048013D01*
X202987334Y-99115894D01*
X203161309Y-99150500D01*
X203338691Y-99150500D01*
X203512666Y-99115894D01*
X203676547Y-99048013D01*
X203824035Y-98949464D01*
X203824933Y-98948565D01*
X203825987Y-98947861D01*
X203833489Y-98941705D01*
X203834095Y-98942443D01*
X203905712Y-98894592D01*
X204001000Y-98875638D01*
X204096288Y-98894592D01*
X204177070Y-98948568D01*
X204231046Y-99029350D01*
X204250000Y-99124638D01*
X204250000Y-116051000D01*
X204231046Y-116146288D01*
X204177070Y-116227070D01*
X204096288Y-116281046D01*
X204001000Y-116300000D01*
X201948081Y-116300000D01*
X201935860Y-116299700D01*
X201931797Y-116299500D01*
X201931794Y-116299500D01*
X201568206Y-116299500D01*
X201568205Y-116299500D01*
X201206374Y-116335137D01*
X200849761Y-116406071D01*
X200849748Y-116406074D01*
X200501849Y-116511609D01*
X200501828Y-116511617D01*
X200165926Y-116650751D01*
X200165915Y-116650757D01*
X199845274Y-116822142D01*
X199845264Y-116822148D01*
X199542968Y-117024137D01*
X199542957Y-117024145D01*
X199261902Y-117254800D01*
X199004800Y-117511902D01*
X198774145Y-117792957D01*
X198774137Y-117792968D01*
X198572148Y-118095264D01*
X198572142Y-118095274D01*
X198400757Y-118415915D01*
X198400751Y-118415926D01*
X198261617Y-118751828D01*
X198261609Y-118751849D01*
X198156074Y-119099748D01*
X198156071Y-119099761D01*
X198085137Y-119456374D01*
X198049500Y-119818205D01*
X198049500Y-120181792D01*
X198049700Y-120185863D01*
X198050000Y-120198083D01*
X198050000Y-122251000D01*
X198031046Y-122346288D01*
X197977070Y-122427070D01*
X197896288Y-122481046D01*
X197801000Y-122500000D01*
X153099000Y-122500000D01*
X153003712Y-122481046D01*
X152922930Y-122427070D01*
X152868954Y-122346288D01*
X152850000Y-122251000D01*
X152850000Y-121290816D01*
X152853066Y-121251863D01*
X152875499Y-121110230D01*
X152875500Y-121110219D01*
X152875500Y-120889782D01*
X152875500Y-120889778D01*
X152841015Y-120672049D01*
X152772895Y-120462394D01*
X152772891Y-120462386D01*
X152772890Y-120462383D01*
X152672820Y-120265986D01*
X152672816Y-120265981D01*
X152672815Y-120265978D01*
X152543242Y-120087635D01*
X152472930Y-120017323D01*
X152418954Y-119936541D01*
X152400000Y-119841253D01*
X152400000Y-118249013D01*
X152403066Y-118210060D01*
X152412162Y-118152628D01*
X152425500Y-118068417D01*
X152425500Y-117871583D01*
X152394709Y-117677174D01*
X152333884Y-117489975D01*
X152244524Y-117314595D01*
X152128828Y-117155354D01*
X151989646Y-117016172D01*
X151989642Y-117016169D01*
X151830410Y-116900479D01*
X151830407Y-116900477D01*
X151830405Y-116900476D01*
X151655025Y-116811116D01*
X151655024Y-116811115D01*
X151655023Y-116811115D01*
X151655017Y-116811113D01*
X151493312Y-116758572D01*
X151467826Y-116750291D01*
X151467824Y-116750290D01*
X151467822Y-116750290D01*
X151289262Y-116722009D01*
X151229602Y-116700000D01*
X151200000Y-116700000D01*
X146350000Y-116700000D01*
X146224926Y-116700000D01*
X146195871Y-116718559D01*
X146144297Y-116732532D01*
X146032177Y-116750290D01*
X145844982Y-116811113D01*
X145844976Y-116811115D01*
X145823325Y-116822147D01*
X145669595Y-116900476D01*
X145669592Y-116900477D01*
X145669590Y-116900479D01*
X145669589Y-116900479D01*
X145510357Y-117016169D01*
X145371169Y-117155357D01*
X145255479Y-117314589D01*
X145255479Y-117314590D01*
X145255477Y-117314592D01*
X145255476Y-117314595D01*
X145212602Y-117398740D01*
X145166115Y-117489976D01*
X145166113Y-117489982D01*
X145105290Y-117677177D01*
X145074501Y-117871571D01*
X145074500Y-117871587D01*
X145074500Y-118068412D01*
X145074501Y-118068425D01*
X145096934Y-118210060D01*
X145100000Y-118249013D01*
X145100000Y-119841253D01*
X145081046Y-119936541D01*
X145027070Y-120017323D01*
X144956759Y-120087633D01*
X144827184Y-120265979D01*
X144827179Y-120265986D01*
X144727109Y-120462383D01*
X144727105Y-120462392D01*
X144727105Y-120462394D01*
X144658985Y-120672049D01*
X144658984Y-120672052D01*
X144658984Y-120672054D01*
X144658982Y-120672061D01*
X144624501Y-120889767D01*
X144624500Y-120889782D01*
X144624500Y-121110230D01*
X144646934Y-121251863D01*
X144650000Y-121290816D01*
X144650000Y-122251000D01*
X144631046Y-122346288D01*
X144577070Y-122427070D01*
X144496288Y-122481046D01*
X144401000Y-122500000D01*
X127699000Y-122500000D01*
X127603712Y-122481046D01*
X127522930Y-122427070D01*
X127468954Y-122346288D01*
X127450000Y-122251000D01*
X127450000Y-120198083D01*
X127450300Y-120185863D01*
X127450500Y-120181792D01*
X127450500Y-119818209D01*
X127450500Y-119818206D01*
X127414862Y-119456369D01*
X127343930Y-119099767D01*
X127343927Y-119099757D01*
X127343925Y-119099748D01*
X127238390Y-118751849D01*
X127238389Y-118751848D01*
X127238386Y-118751836D01*
X127099247Y-118415924D01*
X127049515Y-118322881D01*
X127049514Y-118322878D01*
X126990337Y-118212167D01*
X129110000Y-118212167D01*
X129110000Y-118859999D01*
X129110001Y-118860000D01*
X130026988Y-118860000D01*
X129994075Y-118917007D01*
X129960000Y-119044174D01*
X129960000Y-119175826D01*
X129994075Y-119302993D01*
X130026988Y-119360000D01*
X129110001Y-119360000D01*
X129110000Y-119360001D01*
X129110000Y-120007832D01*
X129116401Y-120067371D01*
X129116403Y-120067378D01*
X129166646Y-120202087D01*
X129252810Y-120317187D01*
X129252812Y-120317189D01*
X129367912Y-120403353D01*
X129502621Y-120453596D01*
X129502628Y-120453598D01*
X129562167Y-120459999D01*
X129562175Y-120460000D01*
X130209999Y-120460000D01*
X130210000Y-120459999D01*
X130210000Y-119543012D01*
X130267007Y-119575925D01*
X130394174Y-119610000D01*
X130525826Y-119610000D01*
X130652993Y-119575925D01*
X130710000Y-119543012D01*
X130710000Y-120459999D01*
X130710001Y-120460000D01*
X131357825Y-120460000D01*
X131357832Y-120459999D01*
X131417371Y-120453598D01*
X131417378Y-120453596D01*
X131552087Y-120403353D01*
X131667187Y-120317189D01*
X131667189Y-120317187D01*
X131764026Y-120187831D01*
X131767159Y-120190176D01*
X131808346Y-120140864D01*
X131894421Y-120095806D01*
X131991187Y-120087117D01*
X132083912Y-120116120D01*
X132111659Y-120135225D01*
X132112293Y-120134353D01*
X132120206Y-120140102D01*
X132120208Y-120140104D01*
X132292184Y-120265051D01*
X132481588Y-120361557D01*
X132683757Y-120427246D01*
X132757601Y-120438941D01*
X132893703Y-120460499D01*
X132893710Y-120460499D01*
X132893713Y-120460500D01*
X132893716Y-120460500D01*
X133106284Y-120460500D01*
X133106287Y-120460500D01*
X133106290Y-120460499D01*
X133106296Y-120460499D01*
X133205476Y-120444789D01*
X133316243Y-120427246D01*
X133518412Y-120361557D01*
X133707816Y-120265051D01*
X133879792Y-120140104D01*
X134030104Y-119989792D01*
X134155051Y-119817816D01*
X134251557Y-119628412D01*
X134317246Y-119426243D01*
X134350500Y-119216287D01*
X134350500Y-119003713D01*
X134350499Y-119003710D01*
X134350499Y-119003703D01*
X134317246Y-118793759D01*
X134317246Y-118793757D01*
X134251557Y-118591588D01*
X134155051Y-118402184D01*
X134030104Y-118230208D01*
X133879792Y-118079896D01*
X133707816Y-117954949D01*
X133518412Y-117858443D01*
X133518409Y-117858442D01*
X133518407Y-117858441D01*
X133316240Y-117792753D01*
X133106296Y-117759500D01*
X133106287Y-117759500D01*
X132893713Y-117759500D01*
X132893703Y-117759500D01*
X132683759Y-117792753D01*
X132481592Y-117858441D01*
X132292182Y-117954950D01*
X132205522Y-118017912D01*
X132120208Y-118079896D01*
X132120206Y-118079897D01*
X132112293Y-118085647D01*
X132110691Y-118083443D01*
X132041403Y-118122175D01*
X131944912Y-118133518D01*
X131851426Y-118107072D01*
X131775176Y-118046864D01*
X131764708Y-118031657D01*
X131764026Y-118032169D01*
X131667189Y-117902812D01*
X131667187Y-117902810D01*
X131552087Y-117816646D01*
X131417378Y-117766403D01*
X131417371Y-117766401D01*
X131357832Y-117760000D01*
X130710001Y-117760000D01*
X130710000Y-117760001D01*
X130710000Y-118676988D01*
X130652993Y-118644075D01*
X130525826Y-118610000D01*
X130394174Y-118610000D01*
X130267007Y-118644075D01*
X130210000Y-118676988D01*
X130210000Y-117760001D01*
X130209999Y-117760000D01*
X129562167Y-117760000D01*
X129502628Y-117766401D01*
X129502621Y-117766403D01*
X129367912Y-117816646D01*
X129252812Y-117902810D01*
X129252810Y-117902812D01*
X129166646Y-118017912D01*
X129116403Y-118152621D01*
X129116401Y-118152628D01*
X129110000Y-118212167D01*
X126990337Y-118212167D01*
X126927857Y-118095275D01*
X126927851Y-118095264D01*
X126725862Y-117792968D01*
X126725854Y-117792956D01*
X126495197Y-117511899D01*
X126238101Y-117254803D01*
X125957044Y-117024146D01*
X125957031Y-117024137D01*
X125654735Y-116822148D01*
X125654725Y-116822142D01*
X125334084Y-116650757D01*
X125334073Y-116650751D01*
X124998171Y-116511617D01*
X124998164Y-116511614D01*
X124998159Y-116511612D01*
X124998150Y-116511609D01*
X124650251Y-116406074D01*
X124650238Y-116406071D01*
X124650233Y-116406070D01*
X124293631Y-116335138D01*
X124293629Y-116335137D01*
X124293625Y-116335137D01*
X123931794Y-116299500D01*
X123568206Y-116299500D01*
X123568202Y-116299500D01*
X123564140Y-116299700D01*
X123551919Y-116300000D01*
X122874679Y-116300000D01*
X122779391Y-116281046D01*
X122698609Y-116227070D01*
X122644633Y-116146288D01*
X122625679Y-116051000D01*
X122642835Y-115960175D01*
X122649671Y-115942724D01*
X122660225Y-115924445D01*
X122704682Y-115802300D01*
X122705775Y-115799511D01*
X122705934Y-115799262D01*
X122707564Y-115795071D01*
X122709256Y-115790987D01*
X122709258Y-115790973D01*
X122709557Y-115789991D01*
X122713848Y-115777116D01*
X122720101Y-115759938D01*
X122750500Y-115587532D01*
X122750500Y-115500000D01*
X122750500Y-115499500D01*
X122750500Y-101174964D01*
X129100000Y-101174964D01*
X129100000Y-101300000D01*
X129100000Y-104120001D01*
X129100000Y-111311564D01*
X129110323Y-111363462D01*
X129110319Y-111364873D01*
X129110238Y-111379049D01*
X129109500Y-111383713D01*
X129109500Y-111509374D01*
X129109496Y-111510080D01*
X129100000Y-111556443D01*
X129100000Y-114102243D01*
X129105932Y-114126946D01*
X129107969Y-114126624D01*
X129142753Y-114346240D01*
X129142754Y-114346243D01*
X129208443Y-114548412D01*
X129304949Y-114737816D01*
X129429896Y-114909792D01*
X129580208Y-115060104D01*
X129752184Y-115185051D01*
X129941588Y-115281557D01*
X130143757Y-115347246D01*
X130217601Y-115358941D01*
X130353703Y-115380499D01*
X130353710Y-115380499D01*
X130353713Y-115380500D01*
X130353716Y-115380500D01*
X130566284Y-115380500D01*
X130566287Y-115380500D01*
X130566291Y-115380499D01*
X130566295Y-115380499D01*
X130739497Y-115353066D01*
X130778450Y-115350000D01*
X132200000Y-115350000D01*
X132237530Y-115319975D01*
X132323775Y-115275250D01*
X132420573Y-115266934D01*
X132471773Y-115280101D01*
X132472283Y-115278534D01*
X132551857Y-115304388D01*
X132683757Y-115347246D01*
X132757601Y-115358941D01*
X132893703Y-115380499D01*
X132893710Y-115380499D01*
X132893713Y-115380500D01*
X132893716Y-115380500D01*
X133106284Y-115380500D01*
X133106287Y-115380500D01*
X133106290Y-115380499D01*
X133106296Y-115380499D01*
X133205476Y-115364789D01*
X133316243Y-115347246D01*
X133518412Y-115281557D01*
X133707816Y-115185051D01*
X133879792Y-115060104D01*
X134030104Y-114909792D01*
X134155051Y-114737816D01*
X134251557Y-114548412D01*
X134317246Y-114346243D01*
X134350500Y-114136287D01*
X134350500Y-113923713D01*
X134347201Y-113902887D01*
X134321909Y-113743193D01*
X134325723Y-113646113D01*
X134366398Y-113557883D01*
X134391767Y-113528177D01*
X139055276Y-108864670D01*
X139126465Y-108758127D01*
X139175501Y-108639744D01*
X139176692Y-108633757D01*
X139200500Y-108514069D01*
X139200500Y-104161304D01*
X178349500Y-104161304D01*
X178349500Y-104338695D01*
X178384104Y-104512659D01*
X178384105Y-104512661D01*
X178384106Y-104512666D01*
X178451987Y-104676547D01*
X178550536Y-104824035D01*
X178675965Y-104949464D01*
X178823453Y-105048013D01*
X178987334Y-105115894D01*
X179059369Y-105130222D01*
X179159347Y-105150110D01*
X179159348Y-105150109D01*
X179161309Y-105150500D01*
X179338691Y-105150500D01*
X179341139Y-105150013D01*
X179365593Y-105150000D01*
X179365637Y-105150008D01*
X179365726Y-105150000D01*
X181394000Y-105150000D01*
X181404184Y-105150500D01*
X181411309Y-105150500D01*
X181588691Y-105150500D01*
X181762666Y-105115894D01*
X181926547Y-105048013D01*
X182074035Y-104949464D01*
X182199464Y-104824035D01*
X182298013Y-104676547D01*
X182365894Y-104512666D01*
X182396002Y-104361304D01*
X199849500Y-104361304D01*
X199849500Y-104538695D01*
X199884104Y-104712659D01*
X199884105Y-104712661D01*
X199884106Y-104712666D01*
X199951987Y-104876547D01*
X200050536Y-105024035D01*
X200175965Y-105149464D01*
X200323453Y-105248013D01*
X200487334Y-105315894D01*
X200661309Y-105350500D01*
X200838691Y-105350500D01*
X201012666Y-105315894D01*
X201176547Y-105248013D01*
X201324035Y-105149464D01*
X201449464Y-105024035D01*
X201548013Y-104876547D01*
X201615894Y-104712666D01*
X201650500Y-104538691D01*
X201650500Y-104361309D01*
X201615894Y-104187334D01*
X201548013Y-104023453D01*
X201449464Y-103875965D01*
X201324035Y-103750536D01*
X201324031Y-103750533D01*
X201176549Y-103651988D01*
X201176547Y-103651987D01*
X201012666Y-103584106D01*
X201012661Y-103584105D01*
X201012659Y-103584104D01*
X200838695Y-103549500D01*
X200838691Y-103549500D01*
X200661309Y-103549500D01*
X200661304Y-103549500D01*
X200487340Y-103584104D01*
X200487336Y-103584105D01*
X200487334Y-103584106D01*
X200378080Y-103629360D01*
X200323450Y-103651988D01*
X200175968Y-103750533D01*
X200050533Y-103875968D01*
X199951988Y-104023450D01*
X199938707Y-104055515D01*
X199911997Y-104120000D01*
X199884104Y-104187340D01*
X199849500Y-104361304D01*
X182396002Y-104361304D01*
X182400500Y-104338691D01*
X182400500Y-104161309D01*
X182365894Y-103987334D01*
X182298013Y-103823453D01*
X182199464Y-103675965D01*
X182074035Y-103550536D01*
X182072485Y-103549500D01*
X181926549Y-103451988D01*
X181926547Y-103451987D01*
X181762666Y-103384106D01*
X181762661Y-103384105D01*
X181762659Y-103384104D01*
X181588695Y-103349500D01*
X181588691Y-103349500D01*
X181411309Y-103349500D01*
X181404184Y-103349500D01*
X181394000Y-103350000D01*
X179365732Y-103350000D01*
X179365095Y-103349999D01*
X179340888Y-103349937D01*
X179338691Y-103349500D01*
X179161309Y-103349500D01*
X179161304Y-103349500D01*
X178987340Y-103384104D01*
X178987336Y-103384105D01*
X178987334Y-103384106D01*
X178878080Y-103429360D01*
X178823450Y-103451988D01*
X178675968Y-103550533D01*
X178550533Y-103675968D01*
X178451988Y-103823450D01*
X178451987Y-103823453D01*
X178386074Y-103982585D01*
X178384104Y-103987340D01*
X178349500Y-104161304D01*
X139200500Y-104161304D01*
X139200500Y-97911304D01*
X171599500Y-97911304D01*
X171599500Y-98088695D01*
X171634104Y-98262659D01*
X171634105Y-98262661D01*
X171634106Y-98262666D01*
X171665598Y-98338695D01*
X171701988Y-98426549D01*
X171759530Y-98512666D01*
X171800536Y-98574035D01*
X171925965Y-98699464D01*
X172073453Y-98798013D01*
X172237334Y-98865894D01*
X172411309Y-98900500D01*
X172588691Y-98900500D01*
X172762666Y-98865894D01*
X172926547Y-98798013D01*
X173074035Y-98699464D01*
X173199464Y-98574035D01*
X173298013Y-98426547D01*
X173365894Y-98262666D01*
X173400500Y-98088691D01*
X173400500Y-97911309D01*
X173365894Y-97737334D01*
X173298013Y-97573453D01*
X173199464Y-97425965D01*
X173074035Y-97300536D01*
X173043454Y-97280102D01*
X172926549Y-97201988D01*
X172926547Y-97201987D01*
X172762666Y-97134106D01*
X172762661Y-97134105D01*
X172762659Y-97134104D01*
X172588695Y-97099500D01*
X172588691Y-97099500D01*
X172411309Y-97099500D01*
X172411304Y-97099500D01*
X172237340Y-97134104D01*
X172237336Y-97134105D01*
X172237334Y-97134106D01*
X172128080Y-97179360D01*
X172073450Y-97201988D01*
X171925968Y-97300533D01*
X171800533Y-97425968D01*
X171701988Y-97573450D01*
X171693643Y-97593598D01*
X171659525Y-97675968D01*
X171634104Y-97737340D01*
X171599500Y-97911304D01*
X139200500Y-97911304D01*
X139200500Y-93911304D01*
X199849500Y-93911304D01*
X199849500Y-94088695D01*
X199884104Y-94262659D01*
X199884105Y-94262661D01*
X199884106Y-94262666D01*
X199951987Y-94426547D01*
X200050536Y-94574035D01*
X200175965Y-94699464D01*
X200323453Y-94798013D01*
X200487334Y-94865894D01*
X200661309Y-94900500D01*
X200838691Y-94900500D01*
X201012666Y-94865894D01*
X201176547Y-94798013D01*
X201324035Y-94699464D01*
X201449464Y-94574035D01*
X201548013Y-94426547D01*
X201615894Y-94262666D01*
X201650500Y-94088691D01*
X201650500Y-93911309D01*
X201615894Y-93737334D01*
X201548013Y-93573453D01*
X201449464Y-93425965D01*
X201324035Y-93300536D01*
X201324031Y-93300533D01*
X201176549Y-93201988D01*
X201176547Y-93201987D01*
X201012666Y-93134106D01*
X201012661Y-93134105D01*
X201012659Y-93134104D01*
X200838695Y-93099500D01*
X200838691Y-93099500D01*
X200661309Y-93099500D01*
X200661304Y-93099500D01*
X200487340Y-93134104D01*
X200487336Y-93134105D01*
X200487334Y-93134106D01*
X200378080Y-93179360D01*
X200323450Y-93201988D01*
X200175968Y-93300533D01*
X200050533Y-93425968D01*
X199951988Y-93573450D01*
X199884104Y-93737340D01*
X199849500Y-93911304D01*
X139200500Y-93911304D01*
X139200500Y-86185321D01*
X139175501Y-86059646D01*
X139126465Y-85941263D01*
X139055276Y-85834720D01*
X138073430Y-84852874D01*
X138019454Y-84772092D01*
X138000500Y-84676804D01*
X138000500Y-82035930D01*
X138000499Y-82035928D01*
X137983970Y-81952834D01*
X137975501Y-81910256D01*
X137940775Y-81826420D01*
X137926466Y-81791874D01*
X137855277Y-81685331D01*
X137471063Y-81301117D01*
X137417087Y-81220335D01*
X137405216Y-81172843D01*
X137402887Y-81173307D01*
X137370204Y-81009000D01*
X137365894Y-80987334D01*
X137298013Y-80823453D01*
X137199464Y-80675965D01*
X137074035Y-80550536D01*
X137074031Y-80550533D01*
X136926549Y-80451988D01*
X136902129Y-80441873D01*
X136762666Y-80384106D01*
X136762661Y-80384105D01*
X136762659Y-80384104D01*
X136588695Y-80349500D01*
X136588691Y-80349500D01*
X136411309Y-80349500D01*
X136411304Y-80349500D01*
X136237340Y-80384104D01*
X136237336Y-80384105D01*
X136237334Y-80384106D01*
X136139816Y-80424499D01*
X136073450Y-80451988D01*
X135925968Y-80550533D01*
X135800533Y-80675968D01*
X135701988Y-80823450D01*
X135685593Y-80863033D01*
X135651984Y-80944174D01*
X135634104Y-80987340D01*
X135599500Y-81161304D01*
X135599500Y-81345829D01*
X135600000Y-81356002D01*
X135600000Y-83658795D01*
X135599500Y-83661309D01*
X135599500Y-83838691D01*
X135600000Y-83841204D01*
X135600000Y-86143999D01*
X135599500Y-86154180D01*
X135599500Y-86345829D01*
X135600000Y-86356002D01*
X135600000Y-88893999D01*
X135599500Y-88904180D01*
X135599500Y-89088695D01*
X135634104Y-89262659D01*
X135634105Y-89262661D01*
X135634106Y-89262666D01*
X135665234Y-89337816D01*
X135701988Y-89426550D01*
X135757535Y-89509679D01*
X135794715Y-89599438D01*
X135799500Y-89648018D01*
X135799500Y-99751000D01*
X135780546Y-99846288D01*
X135726570Y-99927070D01*
X135645788Y-99981046D01*
X135550500Y-100000000D01*
X134040187Y-100000000D01*
X133973023Y-99987882D01*
X133972643Y-99989491D01*
X133957485Y-99985909D01*
X133897873Y-99979500D01*
X132102134Y-99979500D01*
X132102130Y-99979500D01*
X132102128Y-99979501D01*
X132078283Y-99982064D01*
X132042514Y-99985909D01*
X132027363Y-99989490D01*
X132026982Y-99987881D01*
X131959815Y-100000000D01*
X130715313Y-100000000D01*
X130676361Y-99996934D01*
X130658511Y-99994106D01*
X130566293Y-99979500D01*
X130566287Y-99979500D01*
X130353713Y-99979500D01*
X130353703Y-99979500D01*
X130143759Y-100012753D01*
X129941592Y-100078441D01*
X129752182Y-100174950D01*
X129580206Y-100299897D01*
X129429897Y-100450206D01*
X129304950Y-100622182D01*
X129208441Y-100811592D01*
X129142753Y-101013757D01*
X129130174Y-101093178D01*
X129120656Y-101118976D01*
X129115699Y-101146026D01*
X129104002Y-101164117D01*
X129100000Y-101174964D01*
X122750500Y-101174964D01*
X122750500Y-95352167D01*
X129110000Y-95352167D01*
X129110000Y-95999999D01*
X129110001Y-96000000D01*
X130026988Y-96000000D01*
X129994075Y-96057007D01*
X129960000Y-96184174D01*
X129960000Y-96315826D01*
X129994075Y-96442993D01*
X130026988Y-96500000D01*
X129110001Y-96500000D01*
X129110000Y-96500001D01*
X129110000Y-97147832D01*
X129116401Y-97207371D01*
X129116403Y-97207378D01*
X129166646Y-97342087D01*
X129252810Y-97457187D01*
X129252812Y-97457189D01*
X129367912Y-97543353D01*
X129502621Y-97593596D01*
X129502628Y-97593598D01*
X129562167Y-97599999D01*
X129562175Y-97600000D01*
X130209999Y-97600000D01*
X130210000Y-97599999D01*
X130210000Y-96683012D01*
X130267007Y-96715925D01*
X130394174Y-96750000D01*
X130525826Y-96750000D01*
X130652993Y-96715925D01*
X130710000Y-96683012D01*
X130710000Y-97599999D01*
X130710001Y-97600000D01*
X132877577Y-97600000D01*
X132890296Y-97600500D01*
X132893713Y-97600500D01*
X133106284Y-97600500D01*
X133106287Y-97600500D01*
X133106290Y-97600499D01*
X133106296Y-97600499D01*
X133205476Y-97584789D01*
X133316243Y-97567246D01*
X133518412Y-97501557D01*
X133707816Y-97405051D01*
X133879792Y-97280104D01*
X134030104Y-97129792D01*
X134155051Y-96957816D01*
X134251557Y-96768412D01*
X134317246Y-96566243D01*
X134350500Y-96356287D01*
X134350500Y-96143713D01*
X134350499Y-96143710D01*
X134350499Y-96143703D01*
X134317246Y-95933759D01*
X134317246Y-95933757D01*
X134251557Y-95731588D01*
X134155051Y-95542184D01*
X134030104Y-95370208D01*
X133879792Y-95219896D01*
X133707816Y-95094949D01*
X133518412Y-94998443D01*
X133518409Y-94998442D01*
X133518407Y-94998441D01*
X133316240Y-94932753D01*
X133106296Y-94899500D01*
X133106287Y-94899500D01*
X132893713Y-94899500D01*
X132890859Y-94899952D01*
X132871559Y-94899999D01*
X132871389Y-94899965D01*
X132870953Y-94900000D01*
X130710001Y-94900000D01*
X130710000Y-94900001D01*
X130710000Y-95816988D01*
X130652993Y-95784075D01*
X130525826Y-95750000D01*
X130394174Y-95750000D01*
X130267007Y-95784075D01*
X130210000Y-95816988D01*
X130210000Y-94900001D01*
X130209999Y-94900000D01*
X129562167Y-94900000D01*
X129502628Y-94906401D01*
X129502621Y-94906403D01*
X129367912Y-94956646D01*
X129252812Y-95042810D01*
X129252810Y-95042812D01*
X129166646Y-95157912D01*
X129116403Y-95292621D01*
X129116401Y-95292628D01*
X129110000Y-95352167D01*
X122750500Y-95352167D01*
X122750500Y-78251895D01*
X129100000Y-78251895D01*
X129100000Y-78450000D01*
X129100000Y-88350000D01*
X129100000Y-88413967D01*
X129112280Y-88454375D01*
X129113492Y-88478654D01*
X129113512Y-88498381D01*
X129109500Y-88523713D01*
X129109500Y-88736287D01*
X129113783Y-88763329D01*
X129113803Y-88782802D01*
X129108079Y-88811728D01*
X129106921Y-88841192D01*
X129100000Y-88856203D01*
X129100000Y-90513000D01*
X129114580Y-90523437D01*
X129165926Y-90605915D01*
X129181802Y-90701764D01*
X129169744Y-90770690D01*
X129142753Y-90853759D01*
X129109500Y-91063703D01*
X129109500Y-91276296D01*
X129142753Y-91486240D01*
X129187054Y-91622586D01*
X129208443Y-91688412D01*
X129304949Y-91877816D01*
X129429896Y-92049792D01*
X129580208Y-92200104D01*
X129752184Y-92325051D01*
X129941588Y-92421557D01*
X130143757Y-92487246D01*
X130217601Y-92498941D01*
X130353703Y-92520499D01*
X130353710Y-92520499D01*
X130353713Y-92520500D01*
X130353716Y-92520500D01*
X130566284Y-92520500D01*
X130566287Y-92520500D01*
X130566290Y-92520499D01*
X130566296Y-92520499D01*
X130665476Y-92504789D01*
X130776243Y-92487246D01*
X130978412Y-92421557D01*
X131167816Y-92325051D01*
X131339792Y-92200104D01*
X131490104Y-92049792D01*
X131615051Y-91877816D01*
X131711557Y-91688412D01*
X131777246Y-91486243D01*
X131800151Y-91341629D01*
X131810499Y-91276296D01*
X131810500Y-91276284D01*
X131810500Y-91063715D01*
X131810499Y-91063706D01*
X131797729Y-90983080D01*
X131786010Y-90909091D01*
X131789824Y-90812014D01*
X131830498Y-90723783D01*
X131855875Y-90694070D01*
X132534997Y-90014949D01*
X133305277Y-89244669D01*
X133376465Y-89138127D01*
X133388891Y-89108127D01*
X133425501Y-89019744D01*
X133450500Y-88894069D01*
X133450500Y-81422586D01*
X133469454Y-81327298D01*
X133523430Y-81246516D01*
X135696516Y-79073430D01*
X135777298Y-79019454D01*
X135872586Y-79000500D01*
X142927414Y-79000500D01*
X143022702Y-79019454D01*
X143103484Y-79073430D01*
X149285331Y-85255277D01*
X149343456Y-85294114D01*
X149391873Y-85326465D01*
X149391875Y-85326465D01*
X149391877Y-85326467D01*
X149426549Y-85340828D01*
X149510256Y-85375501D01*
X149635929Y-85400499D01*
X149635930Y-85400500D01*
X149635931Y-85400500D01*
X160527208Y-85400500D01*
X160622496Y-85419454D01*
X160664499Y-85444605D01*
X160665794Y-85442668D01*
X160675965Y-85449464D01*
X160823453Y-85548013D01*
X160987334Y-85615894D01*
X161161309Y-85650500D01*
X161338691Y-85650500D01*
X161512666Y-85615894D01*
X161676547Y-85548013D01*
X161824035Y-85449464D01*
X161949464Y-85324035D01*
X162048013Y-85176547D01*
X162115894Y-85012666D01*
X162150500Y-84838691D01*
X162150500Y-84661309D01*
X162150500Y-84654180D01*
X162150000Y-84643999D01*
X162150000Y-82606002D01*
X162150500Y-82595829D01*
X162150500Y-82411309D01*
X162150499Y-82411304D01*
X162127666Y-82296516D01*
X162115894Y-82237334D01*
X162048013Y-82073453D01*
X161949464Y-81925965D01*
X161824035Y-81800536D01*
X161824031Y-81800533D01*
X161676549Y-81701988D01*
X161636335Y-81685331D01*
X161512666Y-81634106D01*
X161512661Y-81634105D01*
X161512659Y-81634104D01*
X161338695Y-81599500D01*
X161338691Y-81599500D01*
X161161309Y-81599500D01*
X161161304Y-81599500D01*
X160987340Y-81634104D01*
X160987336Y-81634105D01*
X160987334Y-81634106D01*
X160884871Y-81676547D01*
X160823450Y-81701988D01*
X160675968Y-81800533D01*
X160550533Y-81925968D01*
X160451988Y-82073450D01*
X160434407Y-82115895D01*
X160386004Y-82232754D01*
X160384104Y-82237340D01*
X160347113Y-82423307D01*
X160343692Y-82422626D01*
X160322215Y-82492889D01*
X160278936Y-82551116D01*
X159403484Y-83426569D01*
X159322702Y-83480546D01*
X159227414Y-83499500D01*
X150722586Y-83499500D01*
X150627298Y-83480546D01*
X150546516Y-83426570D01*
X144364669Y-77244723D01*
X144258127Y-77173534D01*
X144143148Y-77125909D01*
X144139744Y-77124499D01*
X144139742Y-77124498D01*
X144139741Y-77124498D01*
X144014071Y-77099500D01*
X144014069Y-77099500D01*
X135135931Y-77099500D01*
X135135928Y-77099500D01*
X135010257Y-77124498D01*
X134994450Y-77131046D01*
X134899162Y-77150000D01*
X131526999Y-77150000D01*
X131439984Y-77134301D01*
X131417483Y-77125908D01*
X131357873Y-77119500D01*
X129562134Y-77119500D01*
X129562130Y-77119500D01*
X129562128Y-77119501D01*
X129549314Y-77120878D01*
X129502519Y-77125908D01*
X129502515Y-77125909D01*
X129367670Y-77176203D01*
X129252455Y-77262453D01*
X129252453Y-77262455D01*
X129166204Y-77377669D01*
X129115908Y-77512518D01*
X129109500Y-77572123D01*
X129109500Y-78204018D01*
X129100329Y-78250120D01*
X129100000Y-78251895D01*
X122750500Y-78251895D01*
X122750500Y-77249793D01*
X122750500Y-77162468D01*
X122744054Y-77125908D01*
X122720485Y-76992237D01*
X122722605Y-76895105D01*
X122761734Y-76806178D01*
X122831916Y-76738995D01*
X122922465Y-76703783D01*
X122965702Y-76700000D01*
X123551919Y-76700000D01*
X123564140Y-76700300D01*
X123568202Y-76700499D01*
X123568206Y-76700500D01*
X123568210Y-76700500D01*
X123931791Y-76700500D01*
X123931794Y-76700500D01*
X124293631Y-76664862D01*
X124650233Y-76593930D01*
X124650244Y-76593926D01*
X124650251Y-76593925D01*
X124876693Y-76525233D01*
X124998164Y-76488386D01*
X125334076Y-76349247D01*
X125609579Y-76201988D01*
X125654725Y-76177857D01*
X125654735Y-76177851D01*
X125694784Y-76151091D01*
X125957044Y-75975854D01*
X126238101Y-75745197D01*
X126495197Y-75488101D01*
X126725854Y-75207044D01*
X126927853Y-74904732D01*
X127099247Y-74584076D01*
X127238386Y-74248164D01*
X127291385Y-74073450D01*
X127343925Y-73900251D01*
X127343928Y-73900238D01*
X127343930Y-73900233D01*
X127414862Y-73543631D01*
X127450500Y-73181794D01*
X127450500Y-72818206D01*
X127450499Y-72818202D01*
X127450300Y-72814140D01*
X127450000Y-72801919D01*
X127450000Y-72482167D01*
X129110000Y-72482167D01*
X129110000Y-73129999D01*
X129110001Y-73130000D01*
X130026988Y-73130000D01*
X129994075Y-73187007D01*
X129960000Y-73314174D01*
X129960000Y-73445826D01*
X129994075Y-73572993D01*
X130026988Y-73630000D01*
X129110001Y-73630000D01*
X129110000Y-73630001D01*
X129110000Y-74277832D01*
X129116401Y-74337371D01*
X129116403Y-74337378D01*
X129166646Y-74472087D01*
X129252810Y-74587187D01*
X129252812Y-74587189D01*
X129367912Y-74673353D01*
X129502621Y-74723596D01*
X129502628Y-74723598D01*
X129562167Y-74729999D01*
X129562175Y-74730000D01*
X130209999Y-74730000D01*
X130210000Y-74729999D01*
X130210000Y-73813012D01*
X130267007Y-73845925D01*
X130394174Y-73880000D01*
X130525826Y-73880000D01*
X130652993Y-73845925D01*
X130710000Y-73813012D01*
X130710000Y-74729999D01*
X130710001Y-74730000D01*
X131357825Y-74730000D01*
X131357832Y-74729999D01*
X131417371Y-74723598D01*
X131417378Y-74723596D01*
X131552087Y-74673353D01*
X131667187Y-74587189D01*
X131667189Y-74587187D01*
X131764026Y-74457831D01*
X131767159Y-74460176D01*
X131808346Y-74410864D01*
X131894421Y-74365806D01*
X131991187Y-74357117D01*
X132083912Y-74386120D01*
X132111659Y-74405225D01*
X132112293Y-74404353D01*
X132120206Y-74410102D01*
X132120208Y-74410104D01*
X132292184Y-74535051D01*
X132481588Y-74631557D01*
X132683757Y-74697246D01*
X132757601Y-74708941D01*
X132893703Y-74730499D01*
X132893710Y-74730499D01*
X132893713Y-74730500D01*
X132893716Y-74730500D01*
X133106284Y-74730500D01*
X133106287Y-74730500D01*
X133106290Y-74730499D01*
X133106296Y-74730499D01*
X133205476Y-74714789D01*
X133316243Y-74697246D01*
X133518412Y-74631557D01*
X133707816Y-74535051D01*
X133878133Y-74411309D01*
X160344500Y-74411309D01*
X160344500Y-74588691D01*
X160351175Y-74622249D01*
X160351788Y-74643072D01*
X160351530Y-74644598D01*
X160351885Y-74648026D01*
X160372102Y-76770728D01*
X160367329Y-76821675D01*
X160360957Y-76853712D01*
X160349500Y-76911309D01*
X160349500Y-77088691D01*
X160361695Y-77150000D01*
X160371868Y-77201143D01*
X160376641Y-77247349D01*
X160399489Y-79646345D01*
X160399500Y-79648716D01*
X160399500Y-79788695D01*
X160434104Y-79962659D01*
X160434105Y-79962661D01*
X160434106Y-79962666D01*
X160501987Y-80126547D01*
X160600536Y-80274035D01*
X160725965Y-80399464D01*
X160873453Y-80498013D01*
X161037334Y-80565894D01*
X161211309Y-80600500D01*
X161388691Y-80600500D01*
X161562666Y-80565894D01*
X161726547Y-80498013D01*
X161874035Y-80399464D01*
X161874034Y-80399464D01*
X161884206Y-80392668D01*
X161886161Y-80395594D01*
X161950711Y-80361161D01*
X162022792Y-80350500D01*
X164627414Y-80350500D01*
X164722702Y-80369454D01*
X164803484Y-80423430D01*
X168727070Y-84347016D01*
X168781046Y-84427798D01*
X168800000Y-84523086D01*
X168800000Y-87534149D01*
X168799500Y-87544330D01*
X168799500Y-87748545D01*
X168837947Y-87941830D01*
X168837949Y-87941835D01*
X168913365Y-88123908D01*
X168913366Y-88123910D01*
X168913368Y-88123914D01*
X168919801Y-88133541D01*
X168956982Y-88223300D01*
X168956983Y-88320455D01*
X168919805Y-88410215D01*
X168851107Y-88478915D01*
X168761348Y-88516096D01*
X168761346Y-88516096D01*
X168651491Y-88537948D01*
X168651488Y-88537949D01*
X168469415Y-88613365D01*
X168469408Y-88613369D01*
X168305545Y-88722858D01*
X168166182Y-88862221D01*
X168056693Y-89026084D01*
X168056689Y-89026091D01*
X167981273Y-89208164D01*
X167981271Y-89208169D01*
X167942824Y-89401454D01*
X167942824Y-89598545D01*
X167981271Y-89791830D01*
X167981273Y-89791835D01*
X168056689Y-89973908D01*
X168056690Y-89973911D01*
X168056692Y-89973914D01*
X168084111Y-90014949D01*
X168157977Y-90125499D01*
X168166185Y-90137782D01*
X168305542Y-90277139D01*
X168469410Y-90386632D01*
X168651489Y-90462051D01*
X168651491Y-90462051D01*
X168651493Y-90462052D01*
X168839777Y-90499504D01*
X168844783Y-90500500D01*
X169033440Y-90500500D01*
X169128728Y-90519454D01*
X169209510Y-90573430D01*
X169263486Y-90654212D01*
X169282440Y-90749500D01*
X169263486Y-90844788D01*
X169209512Y-90925566D01*
X169184579Y-90950500D01*
X169172858Y-90962221D01*
X169063369Y-91126084D01*
X169063365Y-91126091D01*
X168987949Y-91308164D01*
X168987947Y-91308169D01*
X168949500Y-91501454D01*
X168949500Y-91698545D01*
X168987947Y-91891830D01*
X168987949Y-91891835D01*
X169063365Y-92073908D01*
X169063366Y-92073911D01*
X169063368Y-92073914D01*
X169172861Y-92237782D01*
X169312218Y-92377139D01*
X169476086Y-92486632D01*
X169658165Y-92562051D01*
X169658167Y-92562051D01*
X169658169Y-92562052D01*
X169846453Y-92599504D01*
X169851459Y-92600500D01*
X170048541Y-92600500D01*
X170241835Y-92562051D01*
X170423914Y-92486632D01*
X170587782Y-92377139D01*
X170727139Y-92237782D01*
X170836632Y-92073914D01*
X170912051Y-91891835D01*
X170950500Y-91698541D01*
X170950500Y-91622586D01*
X170969454Y-91527298D01*
X171023430Y-91446517D01*
X171128317Y-91341629D01*
X171209098Y-91287652D01*
X171304386Y-91268698D01*
X171399674Y-91287652D01*
X171442719Y-91310659D01*
X171573453Y-91398013D01*
X171737334Y-91465894D01*
X171911309Y-91500500D01*
X172088691Y-91500500D01*
X172262666Y-91465894D01*
X172426547Y-91398013D01*
X172574035Y-91299464D01*
X172574034Y-91299464D01*
X172584206Y-91292668D01*
X172586161Y-91295594D01*
X172650711Y-91261161D01*
X172722792Y-91250500D01*
X173166152Y-91250500D01*
X173166152Y-91250499D01*
X173291826Y-91225501D01*
X173410209Y-91176465D01*
X173458626Y-91144114D01*
X173516751Y-91105277D01*
X174155277Y-90466751D01*
X174226465Y-90360209D01*
X174275501Y-90241826D01*
X174276674Y-90235931D01*
X174286546Y-90186304D01*
X182399500Y-90186304D01*
X182399500Y-90363695D01*
X182434104Y-90537659D01*
X182434105Y-90537661D01*
X182434106Y-90537666D01*
X182498890Y-90694070D01*
X182501988Y-90701549D01*
X182534028Y-90749500D01*
X182600536Y-90849035D01*
X182725965Y-90974464D01*
X182873453Y-91073013D01*
X183037334Y-91140894D01*
X183211309Y-91175500D01*
X183388691Y-91175500D01*
X183562666Y-91140894D01*
X183726547Y-91073013D01*
X183847095Y-90992465D01*
X183869751Y-90983080D01*
X183890145Y-90969454D01*
X183914199Y-90964669D01*
X183936855Y-90955285D01*
X183985433Y-90950500D01*
X184132440Y-90950500D01*
X184227728Y-90969454D01*
X184308506Y-91023427D01*
X184362218Y-91077139D01*
X184526086Y-91186632D01*
X184708165Y-91262051D01*
X184708167Y-91262051D01*
X184708169Y-91262052D01*
X184836868Y-91287652D01*
X184901459Y-91300500D01*
X185098541Y-91300500D01*
X185291835Y-91262051D01*
X185473914Y-91186632D01*
X185637782Y-91077139D01*
X185777139Y-90937782D01*
X185886632Y-90773914D01*
X185962051Y-90591835D01*
X186000500Y-90398541D01*
X186000500Y-90201459D01*
X185987833Y-90137778D01*
X185962052Y-90008169D01*
X185962051Y-90008167D01*
X185962051Y-90008165D01*
X185886632Y-89826086D01*
X185777139Y-89662218D01*
X185637782Y-89522861D01*
X185473914Y-89413368D01*
X185473911Y-89413366D01*
X185473908Y-89413365D01*
X185291835Y-89337949D01*
X185291830Y-89337947D01*
X185098545Y-89299500D01*
X185098541Y-89299500D01*
X184901459Y-89299500D01*
X184901454Y-89299500D01*
X184708169Y-89337947D01*
X184708164Y-89337949D01*
X184526091Y-89413365D01*
X184526084Y-89413369D01*
X184362221Y-89522858D01*
X184362218Y-89522860D01*
X184362218Y-89522861D01*
X184308506Y-89576572D01*
X184227728Y-89630546D01*
X184132440Y-89649500D01*
X184051138Y-89649500D01*
X183955850Y-89630546D01*
X183884071Y-89582585D01*
X183883489Y-89583295D01*
X183876287Y-89577385D01*
X183875071Y-89576572D01*
X183874035Y-89575536D01*
X183874031Y-89575533D01*
X183726549Y-89476988D01*
X183726547Y-89476987D01*
X183562666Y-89409106D01*
X183562661Y-89409105D01*
X183562659Y-89409104D01*
X183388695Y-89374500D01*
X183388691Y-89374500D01*
X183211309Y-89374500D01*
X183211304Y-89374500D01*
X183037340Y-89409104D01*
X183037336Y-89409105D01*
X183037334Y-89409106D01*
X182928080Y-89454360D01*
X182873450Y-89476988D01*
X182725968Y-89575533D01*
X182600533Y-89700968D01*
X182501988Y-89848450D01*
X182501987Y-89848453D01*
X182435832Y-90008169D01*
X182434104Y-90012340D01*
X182399500Y-90186304D01*
X174286546Y-90186304D01*
X174300500Y-90116151D01*
X174300500Y-86585931D01*
X174275501Y-86460256D01*
X174226465Y-86341873D01*
X174207530Y-86313534D01*
X174155277Y-86235331D01*
X169393750Y-81473804D01*
X173462000Y-81473804D01*
X173462000Y-81651195D01*
X173496604Y-81825159D01*
X173496605Y-81825161D01*
X173496606Y-81825166D01*
X173564487Y-81989047D01*
X173564488Y-81989049D01*
X173663033Y-82136531D01*
X173663036Y-82136535D01*
X173788465Y-82261964D01*
X173935953Y-82360513D01*
X174099834Y-82428394D01*
X174273809Y-82463000D01*
X174451191Y-82463000D01*
X174625166Y-82428394D01*
X174789047Y-82360513D01*
X174936535Y-82261964D01*
X175061964Y-82136535D01*
X175160513Y-81989047D01*
X175228394Y-81825166D01*
X175263000Y-81651191D01*
X175263000Y-81473809D01*
X175228394Y-81299834D01*
X175160513Y-81135953D01*
X175061964Y-80988465D01*
X174936535Y-80863036D01*
X174936531Y-80863033D01*
X174789049Y-80764488D01*
X174778214Y-80760000D01*
X174625166Y-80696606D01*
X174625161Y-80696605D01*
X174625159Y-80696604D01*
X174451195Y-80662000D01*
X174451191Y-80662000D01*
X174273809Y-80662000D01*
X174273804Y-80662000D01*
X174099840Y-80696604D01*
X174099836Y-80696605D01*
X174099834Y-80696606D01*
X173990580Y-80741860D01*
X173935950Y-80764488D01*
X173788468Y-80863033D01*
X173663033Y-80988468D01*
X173564488Y-81135950D01*
X173564487Y-81135953D01*
X173525303Y-81230554D01*
X173496604Y-81299840D01*
X173462000Y-81473804D01*
X169393750Y-81473804D01*
X163166086Y-75246140D01*
X184432411Y-75246140D01*
X184492624Y-75268598D01*
X184552167Y-75274999D01*
X184552175Y-75275000D01*
X189447825Y-75275000D01*
X189447832Y-75274999D01*
X189507371Y-75268598D01*
X189507382Y-75268595D01*
X189567587Y-75246140D01*
X192932411Y-75246140D01*
X192992624Y-75268598D01*
X193052167Y-75274999D01*
X193052175Y-75275000D01*
X197947825Y-75275000D01*
X197947832Y-75274999D01*
X198007371Y-75268598D01*
X198007382Y-75268595D01*
X198067587Y-75246140D01*
X195499999Y-72678552D01*
X192932411Y-75246140D01*
X189567587Y-75246140D01*
X186999999Y-72678552D01*
X184432411Y-75246140D01*
X163166086Y-75246140D01*
X162113115Y-74193169D01*
X162059140Y-74112389D01*
X162043013Y-74073453D01*
X161944464Y-73925965D01*
X161819035Y-73800536D01*
X161819031Y-73800533D01*
X161671549Y-73701988D01*
X161671547Y-73701987D01*
X161507666Y-73634106D01*
X161507661Y-73634105D01*
X161507659Y-73634104D01*
X161333695Y-73599500D01*
X161333691Y-73599500D01*
X161156309Y-73599500D01*
X161156304Y-73599500D01*
X160982340Y-73634104D01*
X160982336Y-73634105D01*
X160982334Y-73634106D01*
X160873080Y-73679360D01*
X160818450Y-73701988D01*
X160670968Y-73800533D01*
X160545533Y-73925968D01*
X160446988Y-74073450D01*
X160379104Y-74237340D01*
X160344907Y-74409259D01*
X160344907Y-74409262D01*
X160344500Y-74411309D01*
X133878133Y-74411309D01*
X133879792Y-74410104D01*
X134030104Y-74259792D01*
X134155051Y-74087816D01*
X134251557Y-73898412D01*
X134317246Y-73696243D01*
X134341418Y-73543631D01*
X134350499Y-73486296D01*
X134350500Y-73486284D01*
X134350500Y-73273715D01*
X134350499Y-73273703D01*
X134317246Y-73063759D01*
X134317246Y-73063757D01*
X134251557Y-72861588D01*
X134155051Y-72672184D01*
X134030104Y-72500208D01*
X133879792Y-72349896D01*
X133707816Y-72224949D01*
X133518412Y-72128443D01*
X133518409Y-72128442D01*
X133518407Y-72128441D01*
X133316240Y-72062753D01*
X133106296Y-72029500D01*
X133106287Y-72029500D01*
X132893713Y-72029500D01*
X132893703Y-72029500D01*
X132683759Y-72062753D01*
X132481592Y-72128441D01*
X132292182Y-72224950D01*
X132229752Y-72270308D01*
X132120208Y-72349896D01*
X132120206Y-72349897D01*
X132112293Y-72355647D01*
X132110691Y-72353443D01*
X132041403Y-72392175D01*
X131944912Y-72403518D01*
X131851426Y-72377072D01*
X131775176Y-72316864D01*
X131764708Y-72301657D01*
X131764026Y-72302169D01*
X131667189Y-72172812D01*
X131667187Y-72172810D01*
X131552087Y-72086646D01*
X131417378Y-72036403D01*
X131417371Y-72036401D01*
X131357832Y-72030000D01*
X130710001Y-72030000D01*
X130710000Y-72030001D01*
X130710000Y-72946988D01*
X130652993Y-72914075D01*
X130525826Y-72880000D01*
X130394174Y-72880000D01*
X130267007Y-72914075D01*
X130210000Y-72946988D01*
X130210000Y-72030001D01*
X130209999Y-72030000D01*
X129562167Y-72030000D01*
X129502628Y-72036401D01*
X129502621Y-72036403D01*
X129367912Y-72086646D01*
X129252812Y-72172810D01*
X129252810Y-72172812D01*
X129166646Y-72287912D01*
X129116403Y-72422621D01*
X129116401Y-72422628D01*
X129110000Y-72482167D01*
X127450000Y-72482167D01*
X127450000Y-70749000D01*
X127468954Y-70653712D01*
X127522930Y-70572930D01*
X127603712Y-70518954D01*
X127699000Y-70500000D01*
X165463943Y-70500000D01*
X165494459Y-70506070D01*
G37*
G04 #@! TD.AperFunction*
M02*
