%TF.GenerationSoftware,KiCad,Pcbnew,10.0.4-10.0.4~ubuntu22.04.1*%
%TF.CreationDate,2026-09-12T00:10:08+02:00*%
%TF.ProjectId,PICO_ADC_Test,5049434f-5f41-4444-935f-546573742e6b,R0.1*%
%TF.SameCoordinates,PX72ade90PY75c75e0*%
%TF.FileFunction,Drillmap*%
%TF.FilePolarity,Positive*%
%FSLAX45Y45*%
G04 Gerber Fmt 4.5, Leading zero omitted, Abs format (unit mm)*
G04 Created by KiCad (PCBNEW 10.0.4-10.0.4~ubuntu22.04.1) date 2026-09-12 00:10:08*
%MOMM*%
%LPD*%
G01*
G04 APERTURE LIST*
%ADD10C,0.100000*%
%ADD11C,0.200000*%
%ADD12C,0.320000*%
G04 APERTURE END LIST*
D10*
X12125000Y-11650000D02*
X12175000Y-11650000D01*
X12025000Y-7300000D02*
G75*
G02*
X12375000Y-6950000I350000J0D01*
G01*
X12125000Y-7625000D02*
X12175000Y-7625000D01*
X12025000Y-12000000D02*
X12025000Y-11750000D01*
X20525000Y-7300000D02*
X20525000Y-12000000D01*
X12375000Y-6950000D02*
X20175000Y-6950000D01*
X12275000Y-7725000D02*
X12275000Y-11550000D01*
X20175000Y-6950000D02*
G75*
G02*
X20525000Y-7300000I0J-350000D01*
G01*
X12375000Y-12350000D02*
G75*
G02*
X12025000Y-12000000I0J350000D01*
G01*
X12175000Y-7625000D02*
G75*
G02*
X12275000Y-7725000I0J-100000D01*
G01*
X20175000Y-12350000D02*
X12375000Y-12350000D01*
X12025000Y-11750000D02*
G75*
G02*
X12125000Y-11650000I100000J0D01*
G01*
X12125000Y-7625000D02*
G75*
G02*
X12025000Y-7525000I0J100000D01*
G01*
X12275000Y-11550000D02*
G75*
G02*
X12175000Y-11650000I-100000J0D01*
G01*
X20525000Y-12000000D02*
G75*
G02*
X20175000Y-12350000I-350000J0D01*
G01*
X12025000Y-7525000D02*
X12025000Y-7300000D01*
D11*
D10*
X12305000Y-7705000D02*
X12345000Y-7745000D01*
X12345000Y-7705000D02*
X12305000Y-7745000D01*
X12305000Y-7959000D02*
X12345000Y-7999000D01*
X12345000Y-7959000D02*
X12305000Y-7999000D01*
X12305000Y-8213000D02*
X12345000Y-8253000D01*
X12345000Y-8213000D02*
X12305000Y-8253000D01*
X12305000Y-8467000D02*
X12345000Y-8507000D01*
X12345000Y-8467000D02*
X12305000Y-8507000D01*
X12305000Y-8721000D02*
X12345000Y-8761000D01*
X12345000Y-8721000D02*
X12305000Y-8761000D01*
X12305000Y-8975000D02*
X12345000Y-9015000D01*
X12345000Y-8975000D02*
X12305000Y-9015000D01*
X12305000Y-9229000D02*
X12345000Y-9269000D01*
X12345000Y-9229000D02*
X12305000Y-9269000D01*
X12305000Y-9483000D02*
X12345000Y-9523000D01*
X12345000Y-9483000D02*
X12305000Y-9523000D01*
X12305000Y-9737000D02*
X12345000Y-9777000D01*
X12345000Y-9737000D02*
X12305000Y-9777000D01*
X12305000Y-9991000D02*
X12345000Y-10031000D01*
X12345000Y-9991000D02*
X12305000Y-10031000D01*
X12305000Y-10245000D02*
X12345000Y-10285000D01*
X12345000Y-10245000D02*
X12305000Y-10285000D01*
X12305000Y-10499000D02*
X12345000Y-10539000D01*
X12345000Y-10499000D02*
X12305000Y-10539000D01*
X12305000Y-10753000D02*
X12345000Y-10793000D01*
X12345000Y-10753000D02*
X12305000Y-10793000D01*
X12305000Y-11007000D02*
X12345000Y-11047000D01*
X12345000Y-11007000D02*
X12305000Y-11047000D01*
X12305000Y-11261000D02*
X12345000Y-11301000D01*
X12345000Y-11261000D02*
X12305000Y-11301000D01*
X12305000Y-11515000D02*
X12345000Y-11555000D01*
X12345000Y-11515000D02*
X12305000Y-11555000D01*
X13630000Y-8105000D02*
X13670000Y-8145000D01*
X13670000Y-8105000D02*
X13630000Y-8145000D01*
X13630000Y-8355000D02*
X13670000Y-8395000D01*
X13670000Y-8355000D02*
X13630000Y-8395000D01*
X13630000Y-8605000D02*
X13670000Y-8645000D01*
X13670000Y-8605000D02*
X13630000Y-8645000D01*
X13630000Y-8880000D02*
X13670000Y-8920000D01*
X13670000Y-8880000D02*
X13630000Y-8920000D01*
X14180000Y-7330000D02*
X14220000Y-7370000D01*
X14220000Y-7330000D02*
X14180000Y-7370000D01*
X14180000Y-7630000D02*
X14220000Y-7670000D01*
X14220000Y-7630000D02*
X14180000Y-7670000D01*
X14180000Y-7955000D02*
X14220000Y-7995000D01*
X14220000Y-7955000D02*
X14180000Y-7995000D01*
X14180000Y-8463000D02*
X14220000Y-8503000D01*
X14220000Y-8463000D02*
X14180000Y-8503000D01*
X14180000Y-8971000D02*
X14220000Y-9011000D01*
X14220000Y-8971000D02*
X14180000Y-9011000D01*
X14180000Y-9479000D02*
X14220000Y-9519000D01*
X14220000Y-9479000D02*
X14180000Y-9519000D01*
X14180000Y-9955000D02*
X14220000Y-9995000D01*
X14220000Y-9955000D02*
X14180000Y-9995000D01*
X14180000Y-10255000D02*
X14220000Y-10295000D01*
X14220000Y-10255000D02*
X14180000Y-10295000D01*
X14180000Y-10763000D02*
X14220000Y-10803000D01*
X14220000Y-10763000D02*
X14180000Y-10803000D01*
X14180000Y-11271000D02*
X14220000Y-11311000D01*
X14220000Y-11271000D02*
X14180000Y-11311000D01*
X14180000Y-11779000D02*
X14220000Y-11819000D01*
X14220000Y-11779000D02*
X14180000Y-11819000D01*
X14180000Y-12180000D02*
X14220000Y-12220000D01*
X14220000Y-12180000D02*
X14180000Y-12220000D01*
X14605000Y-8280000D02*
X14645000Y-8320000D01*
X14645000Y-8280000D02*
X14605000Y-8320000D01*
X14605000Y-8980000D02*
X14645000Y-9020000D01*
X14645000Y-8980000D02*
X14605000Y-9020000D01*
X14605000Y-9480000D02*
X14645000Y-9520000D01*
X14645000Y-9480000D02*
X14605000Y-9520000D01*
X14605000Y-9955000D02*
X14645000Y-9995000D01*
X14645000Y-9955000D02*
X14605000Y-9995000D01*
X14630000Y-10255000D02*
X14670000Y-10295000D01*
X14670000Y-10255000D02*
X14630000Y-10295000D01*
X14630000Y-10755000D02*
X14670000Y-10795000D01*
X14670000Y-10755000D02*
X14630000Y-10795000D01*
X14630000Y-11280000D02*
X14670000Y-11320000D01*
X14670000Y-11280000D02*
X14630000Y-11320000D01*
X14855000Y-7475000D02*
X14895000Y-7515000D01*
X14895000Y-7475000D02*
X14855000Y-7515000D01*
X15080000Y-7705000D02*
X15120000Y-7745000D01*
X15120000Y-7705000D02*
X15080000Y-7745000D01*
X15080000Y-8255000D02*
X15120000Y-8295000D01*
X15120000Y-8255000D02*
X15080000Y-8295000D01*
X15080000Y-8580000D02*
X15120000Y-8620000D01*
X15120000Y-8580000D02*
X15080000Y-8620000D01*
X15080000Y-8980000D02*
X15120000Y-9020000D01*
X15120000Y-8980000D02*
X15080000Y-9020000D01*
X15080000Y-9480000D02*
X15120000Y-9520000D01*
X15120000Y-9480000D02*
X15080000Y-9520000D01*
X15080000Y-10255000D02*
X15120000Y-10295000D01*
X15120000Y-10255000D02*
X15080000Y-10295000D01*
X15080000Y-10755000D02*
X15120000Y-10795000D01*
X15120000Y-10755000D02*
X15080000Y-10795000D01*
X15080000Y-11280000D02*
X15120000Y-11320000D01*
X15120000Y-11280000D02*
X15080000Y-11320000D01*
X15505000Y-9955000D02*
X15545000Y-9995000D01*
X15545000Y-9955000D02*
X15505000Y-9995000D01*
X15505000Y-10255000D02*
X15545000Y-10295000D01*
X15545000Y-10255000D02*
X15505000Y-10295000D01*
X15505000Y-10763000D02*
X15545000Y-10803000D01*
X15545000Y-10763000D02*
X15505000Y-10803000D01*
X15505000Y-11271000D02*
X15545000Y-11311000D01*
X15545000Y-11271000D02*
X15505000Y-11311000D01*
X15505000Y-11779000D02*
X15545000Y-11819000D01*
X15545000Y-11779000D02*
X15505000Y-11819000D01*
X15505000Y-12180000D02*
X15545000Y-12220000D01*
X15545000Y-12180000D02*
X15505000Y-12220000D01*
X15530000Y-7705000D02*
X15570000Y-7745000D01*
X15570000Y-7705000D02*
X15530000Y-7745000D01*
X16104500Y-7430000D02*
X16144500Y-7470000D01*
X16144500Y-7430000D02*
X16104500Y-7470000D01*
X16105000Y-7680000D02*
X16145000Y-7720000D01*
X16145000Y-7680000D02*
X16105000Y-7720000D01*
X16105000Y-8230000D02*
X16145000Y-8270000D01*
X16145000Y-8230000D02*
X16105000Y-8270000D01*
X16105000Y-8455000D02*
X16145000Y-8495000D01*
X16145000Y-8455000D02*
X16105000Y-8495000D01*
X16110000Y-7950000D02*
X16150000Y-7990000D01*
X16150000Y-7950000D02*
X16110000Y-7990000D01*
X16280000Y-8855000D02*
X16320000Y-8895000D01*
X16320000Y-8855000D02*
X16280000Y-8895000D01*
X16305000Y-8605000D02*
X16345000Y-8645000D01*
X16345000Y-8605000D02*
X16305000Y-8645000D01*
X16380000Y-8390000D02*
X16420000Y-8430000D01*
X16420000Y-8390000D02*
X16380000Y-8430000D01*
X16500000Y-8605000D02*
X16540000Y-8645000D01*
X16540000Y-8605000D02*
X16500000Y-8645000D01*
X16530000Y-9105000D02*
X16570000Y-9145000D01*
X16570000Y-9105000D02*
X16530000Y-9145000D01*
X16705000Y-9345000D02*
X16745000Y-9385000D01*
X16745000Y-9345000D02*
X16705000Y-9385000D01*
X16705000Y-9805000D02*
X16745000Y-9845000D01*
X16745000Y-9805000D02*
X16705000Y-9845000D01*
X16705000Y-10505000D02*
X16745000Y-10545000D01*
X16745000Y-10505000D02*
X16705000Y-10545000D01*
X16880000Y-9805000D02*
X16920000Y-9845000D01*
X16920000Y-9805000D02*
X16880000Y-9845000D01*
X16955000Y-10605000D02*
X16995000Y-10645000D01*
X16995000Y-10605000D02*
X16955000Y-10645000D01*
X16955000Y-12180000D02*
X16995000Y-12220000D01*
X16995000Y-12180000D02*
X16955000Y-12220000D01*
X17030000Y-11755000D02*
X17070000Y-11795000D01*
X17070000Y-11755000D02*
X17030000Y-11795000D01*
X17055000Y-7805000D02*
X17095000Y-7845000D01*
X17095000Y-7805000D02*
X17055000Y-7845000D01*
X17055000Y-9805000D02*
X17095000Y-9845000D01*
X17095000Y-9805000D02*
X17055000Y-9845000D01*
X17105000Y-12030000D02*
X17145000Y-12070000D01*
X17145000Y-12030000D02*
X17105000Y-12070000D01*
X17130000Y-10778750D02*
X17170000Y-10818750D01*
X17170000Y-10778750D02*
X17130000Y-10818750D01*
X17130000Y-11078750D02*
X17170000Y-11118750D01*
X17170000Y-11078750D02*
X17130000Y-11118750D01*
X17130000Y-11380000D02*
X17170000Y-11420000D01*
X17170000Y-11380000D02*
X17130000Y-11420000D01*
X17130000Y-11505000D02*
X17170000Y-11545000D01*
X17170000Y-11505000D02*
X17130000Y-11545000D01*
X17180000Y-8860000D02*
X17220000Y-8900000D01*
X17220000Y-8860000D02*
X17180000Y-8900000D01*
X17180000Y-9040000D02*
X17220000Y-9080000D01*
X17220000Y-9040000D02*
X17180000Y-9080000D01*
X17230000Y-9780000D02*
X17270000Y-9820000D01*
X17270000Y-9780000D02*
X17230000Y-9820000D01*
X17260000Y-8950000D02*
X17300000Y-8990000D01*
X17300000Y-8950000D02*
X17260000Y-8990000D01*
X17280000Y-9330000D02*
X17320000Y-9370000D01*
X17320000Y-9330000D02*
X17280000Y-9370000D01*
X17280000Y-9580000D02*
X17320000Y-9620000D01*
X17320000Y-9580000D02*
X17280000Y-9620000D01*
X17280000Y-11380000D02*
X17320000Y-11420000D01*
X17320000Y-11380000D02*
X17280000Y-11420000D01*
X17280000Y-11505000D02*
X17320000Y-11545000D01*
X17320000Y-11505000D02*
X17280000Y-11545000D01*
X17280000Y-11755000D02*
X17320000Y-11795000D01*
X17320000Y-11755000D02*
X17280000Y-11795000D01*
X17280000Y-12180000D02*
X17320000Y-12220000D01*
X17320000Y-12180000D02*
X17280000Y-12220000D01*
X17416250Y-8136250D02*
X17456250Y-8176250D01*
X17456250Y-8136250D02*
X17416250Y-8176250D01*
X17455000Y-7480000D02*
X17495000Y-7520000D01*
X17495000Y-7480000D02*
X17455000Y-7520000D01*
X17480000Y-7805000D02*
X17520000Y-7845000D01*
X17520000Y-7805000D02*
X17480000Y-7845000D01*
X17535000Y-10560000D02*
X17575000Y-10600000D01*
X17575000Y-10560000D02*
X17535000Y-10600000D01*
X17555000Y-11755000D02*
X17595000Y-11795000D01*
X17595000Y-11755000D02*
X17555000Y-11795000D01*
X17580000Y-12030000D02*
X17620000Y-12070000D01*
X17620000Y-12030000D02*
X17580000Y-12070000D01*
X17580000Y-12180000D02*
X17620000Y-12220000D01*
X17620000Y-12180000D02*
X17580000Y-12220000D01*
X17655000Y-8080000D02*
X17695000Y-8120000D01*
X17695000Y-8080000D02*
X17655000Y-8120000D01*
X17655000Y-8480000D02*
X17695000Y-8520000D01*
X17695000Y-8480000D02*
X17655000Y-8520000D01*
X17655000Y-8780000D02*
X17695000Y-8820000D01*
X17695000Y-8780000D02*
X17655000Y-8820000D01*
X17655000Y-8930000D02*
X17695000Y-8970000D01*
X17695000Y-8930000D02*
X17655000Y-8970000D01*
X17655000Y-9080000D02*
X17695000Y-9120000D01*
X17695000Y-9080000D02*
X17655000Y-9120000D01*
X17680000Y-7080000D02*
X17720000Y-7120000D01*
X17720000Y-7080000D02*
X17680000Y-7120000D01*
X17730000Y-10555000D02*
X17770000Y-10595000D01*
X17770000Y-10555000D02*
X17730000Y-10595000D01*
X17730000Y-10730000D02*
X17770000Y-10770000D01*
X17770000Y-10730000D02*
X17730000Y-10770000D01*
X17730000Y-11030000D02*
X17770000Y-11070000D01*
X17770000Y-11030000D02*
X17730000Y-11070000D01*
X17730000Y-11538750D02*
X17770000Y-11578750D01*
X17770000Y-11538750D02*
X17730000Y-11578750D01*
X17820000Y-11730000D02*
X17860000Y-11770000D01*
X17860000Y-11730000D02*
X17820000Y-11770000D01*
X17820000Y-11955000D02*
X17860000Y-11995000D01*
X17860000Y-11955000D02*
X17820000Y-11995000D01*
X17905000Y-10405000D02*
X17945000Y-10445000D01*
X17945000Y-10405000D02*
X17905000Y-10445000D01*
X17930000Y-10555000D02*
X17970000Y-10595000D01*
X17970000Y-10555000D02*
X17930000Y-10595000D01*
X17930000Y-10730000D02*
X17970000Y-10770000D01*
X17970000Y-10730000D02*
X17930000Y-10770000D01*
X17955000Y-11030000D02*
X17995000Y-11070000D01*
X17995000Y-11030000D02*
X17955000Y-11070000D01*
X17980000Y-12180000D02*
X18020000Y-12220000D01*
X18020000Y-12180000D02*
X17980000Y-12220000D01*
X18030000Y-7080000D02*
X18070000Y-7120000D01*
X18070000Y-7080000D02*
X18030000Y-7120000D01*
X18030000Y-8005000D02*
X18070000Y-8045000D01*
X18070000Y-8005000D02*
X18030000Y-8045000D01*
X18130000Y-10405000D02*
X18170000Y-10445000D01*
X18170000Y-10405000D02*
X18130000Y-10445000D01*
X18130000Y-10555000D02*
X18170000Y-10595000D01*
X18170000Y-10555000D02*
X18130000Y-10595000D01*
X18130000Y-10730000D02*
X18170000Y-10770000D01*
X18170000Y-10730000D02*
X18130000Y-10770000D01*
X18155000Y-9480000D02*
X18195000Y-9520000D01*
X18195000Y-9480000D02*
X18155000Y-9520000D01*
X18155000Y-11030000D02*
X18195000Y-11070000D01*
X18195000Y-11030000D02*
X18155000Y-11070000D01*
X18155000Y-11205000D02*
X18195000Y-11245000D01*
X18195000Y-11205000D02*
X18155000Y-11245000D01*
X18305000Y-10555000D02*
X18345000Y-10595000D01*
X18345000Y-10555000D02*
X18305000Y-10595000D01*
X18310000Y-9007500D02*
X18350000Y-9047500D01*
X18350000Y-9007500D02*
X18310000Y-9047500D01*
X18345000Y-7080000D02*
X18385000Y-7120000D01*
X18385000Y-7080000D02*
X18345000Y-7120000D01*
X18345000Y-7255000D02*
X18385000Y-7295000D01*
X18385000Y-7255000D02*
X18345000Y-7295000D01*
X18345000Y-7455000D02*
X18385000Y-7495000D01*
X18385000Y-7455000D02*
X18345000Y-7495000D01*
X18355000Y-8105000D02*
X18395000Y-8145000D01*
X18395000Y-8105000D02*
X18355000Y-8145000D01*
X18380000Y-9355000D02*
X18420000Y-9395000D01*
X18420000Y-9355000D02*
X18380000Y-9395000D01*
X18530000Y-9355000D02*
X18570000Y-9395000D01*
X18570000Y-9355000D02*
X18530000Y-9395000D01*
X18555000Y-11155000D02*
X18595000Y-11195000D01*
X18595000Y-11155000D02*
X18555000Y-11195000D01*
X18605000Y-11405000D02*
X18645000Y-11445000D01*
X18645000Y-11405000D02*
X18605000Y-11445000D01*
X18605000Y-11630000D02*
X18645000Y-11670000D01*
X18645000Y-11630000D02*
X18605000Y-11670000D01*
X18605000Y-11855000D02*
X18645000Y-11895000D01*
X18645000Y-11855000D02*
X18605000Y-11895000D01*
X18605000Y-12080000D02*
X18645000Y-12120000D01*
X18645000Y-12080000D02*
X18605000Y-12120000D01*
X18630000Y-8105000D02*
X18670000Y-8145000D01*
X18670000Y-8105000D02*
X18630000Y-8145000D01*
X18680000Y-9355000D02*
X18720000Y-9395000D01*
X18720000Y-9355000D02*
X18680000Y-9395000D01*
X18755000Y-12180000D02*
X18795000Y-12220000D01*
X18795000Y-12180000D02*
X18755000Y-12220000D01*
X18775000Y-7960000D02*
X18815000Y-8000000D01*
X18815000Y-7960000D02*
X18775000Y-8000000D01*
X18830000Y-9355000D02*
X18870000Y-9395000D01*
X18870000Y-9355000D02*
X18830000Y-9395000D01*
X18945000Y-7860000D02*
X18985000Y-7900000D01*
X18985000Y-7860000D02*
X18945000Y-7900000D01*
X18955000Y-11155000D02*
X18995000Y-11195000D01*
X18995000Y-11155000D02*
X18955000Y-11195000D01*
X18980000Y-9355000D02*
X19020000Y-9395000D01*
X19020000Y-9355000D02*
X18980000Y-9395000D01*
X19000000Y-7520000D02*
X19040000Y-7560000D01*
X19040000Y-7520000D02*
X19000000Y-7560000D01*
X19009000Y-12180000D02*
X19049000Y-12220000D01*
X19049000Y-12180000D02*
X19009000Y-12220000D01*
X19055000Y-7655000D02*
X19095000Y-7695000D01*
X19095000Y-7655000D02*
X19055000Y-7695000D01*
X19130000Y-7755000D02*
X19170000Y-7795000D01*
X19170000Y-7755000D02*
X19130000Y-7795000D01*
X19130000Y-9355000D02*
X19170000Y-9395000D01*
X19170000Y-9355000D02*
X19130000Y-9395000D01*
X19180000Y-9655000D02*
X19220000Y-9695000D01*
X19220000Y-9655000D02*
X19180000Y-9695000D01*
X19205000Y-10955000D02*
X19245000Y-10995000D01*
X19245000Y-10955000D02*
X19205000Y-10995000D01*
X19225000Y-7520000D02*
X19265000Y-7560000D01*
X19265000Y-7520000D02*
X19225000Y-7560000D01*
X19230000Y-7830000D02*
X19270000Y-7870000D01*
X19270000Y-7830000D02*
X19230000Y-7870000D01*
X19263000Y-12180000D02*
X19303000Y-12220000D01*
X19303000Y-12180000D02*
X19263000Y-12220000D01*
X19305000Y-10455000D02*
X19345000Y-10495000D01*
X19345000Y-10455000D02*
X19305000Y-10495000D01*
X19305000Y-10655000D02*
X19345000Y-10695000D01*
X19345000Y-10655000D02*
X19305000Y-10695000D01*
X19325000Y-7865000D02*
X19365000Y-7905000D01*
X19365000Y-7865000D02*
X19325000Y-7905000D01*
X19355000Y-7630000D02*
X19395000Y-7670000D01*
X19395000Y-7630000D02*
X19355000Y-7670000D01*
X19380000Y-8355000D02*
X19420000Y-8395000D01*
X19420000Y-8355000D02*
X19380000Y-8395000D01*
X19455000Y-9655000D02*
X19495000Y-9695000D01*
X19495000Y-9655000D02*
X19455000Y-9695000D01*
X19517000Y-12180000D02*
X19557000Y-12220000D01*
X19557000Y-12180000D02*
X19517000Y-12220000D01*
X19530000Y-7615000D02*
X19570000Y-7655000D01*
X19570000Y-7615000D02*
X19530000Y-7655000D01*
X19580000Y-10455000D02*
X19620000Y-10495000D01*
X19620000Y-10455000D02*
X19580000Y-10495000D01*
X19630000Y-8180000D02*
X19670000Y-8220000D01*
X19670000Y-8180000D02*
X19630000Y-8220000D01*
X19630000Y-8305000D02*
X19670000Y-8345000D01*
X19670000Y-8305000D02*
X19630000Y-8345000D01*
X19655000Y-7705000D02*
X19695000Y-7745000D01*
X19695000Y-7705000D02*
X19655000Y-7745000D01*
X19655000Y-9830000D02*
X19695000Y-9870000D01*
X19695000Y-9830000D02*
X19655000Y-9870000D01*
X19705000Y-8780000D02*
X19745000Y-8820000D01*
X19745000Y-8780000D02*
X19705000Y-8820000D01*
X19705000Y-8980000D02*
X19745000Y-9020000D01*
X19745000Y-8980000D02*
X19705000Y-9020000D01*
X19730000Y-12180000D02*
X19770000Y-12220000D01*
X19770000Y-12180000D02*
X19730000Y-12220000D01*
X19780000Y-8100000D02*
X19820000Y-8140000D01*
X19820000Y-8100000D02*
X19780000Y-8140000D01*
X19805000Y-11555000D02*
X19845000Y-11595000D01*
X19845000Y-11555000D02*
X19805000Y-11595000D01*
X19830000Y-7535000D02*
X19870000Y-7575000D01*
X19870000Y-7535000D02*
X19830000Y-7575000D01*
X19830000Y-10455000D02*
X19870000Y-10495000D01*
X19870000Y-10455000D02*
X19830000Y-10495000D01*
X19845000Y-7705000D02*
X19885000Y-7745000D01*
X19885000Y-7705000D02*
X19845000Y-7745000D01*
X19955000Y-9605000D02*
X19995000Y-9645000D01*
X19995000Y-9605000D02*
X19955000Y-9645000D01*
X19975000Y-7840000D02*
X20015000Y-7880000D01*
X20015000Y-7840000D02*
X19975000Y-7880000D01*
X19975000Y-8045000D02*
X20015000Y-8085000D01*
X20015000Y-8045000D02*
X19975000Y-8085000D01*
X20030000Y-7680000D02*
X20070000Y-7720000D01*
X20070000Y-7680000D02*
X20030000Y-7720000D01*
X20055000Y-9380000D02*
X20095000Y-9420000D01*
X20095000Y-9380000D02*
X20055000Y-9420000D01*
X20055000Y-10425000D02*
X20095000Y-10465000D01*
X20095000Y-10425000D02*
X20055000Y-10465000D01*
X20080000Y-11555000D02*
X20120000Y-11595000D01*
X20120000Y-11555000D02*
X20080000Y-11595000D01*
X20105000Y-9805000D02*
X20145000Y-9845000D01*
X20145000Y-9805000D02*
X20105000Y-9845000D01*
X20305000Y-9805000D02*
X20345000Y-9845000D01*
X20345000Y-9805000D02*
X20305000Y-9845000D01*
X20355000Y-7705000D02*
X20395000Y-7745000D01*
X20395000Y-7705000D02*
X20355000Y-7745000D01*
X20355000Y-7959000D02*
X20395000Y-7999000D01*
X20395000Y-7959000D02*
X20355000Y-7999000D01*
X20355000Y-8213000D02*
X20395000Y-8253000D01*
X20395000Y-8213000D02*
X20355000Y-8253000D01*
X20355000Y-8467000D02*
X20395000Y-8507000D01*
X20395000Y-8467000D02*
X20355000Y-8507000D01*
X20355000Y-8721000D02*
X20395000Y-8761000D01*
X20395000Y-8721000D02*
X20355000Y-8761000D01*
X20355000Y-8975000D02*
X20395000Y-9015000D01*
X20395000Y-8975000D02*
X20355000Y-9015000D01*
X20355000Y-9229000D02*
X20395000Y-9269000D01*
X20395000Y-9229000D02*
X20355000Y-9269000D01*
X20355000Y-9483000D02*
X20395000Y-9523000D01*
X20395000Y-9483000D02*
X20355000Y-9523000D01*
X20355000Y-10580000D02*
X20395000Y-10620000D01*
X20395000Y-10580000D02*
X20355000Y-10620000D01*
X20355000Y-10834000D02*
X20395000Y-10874000D01*
X20395000Y-10834000D02*
X20355000Y-10874000D01*
X20355000Y-11088000D02*
X20395000Y-11128000D01*
X20395000Y-11088000D02*
X20355000Y-11128000D01*
X20355000Y-11342000D02*
X20395000Y-11382000D01*
X20395000Y-11342000D02*
X20355000Y-11382000D01*
X20355000Y-11555000D02*
X20395000Y-11595000D01*
X20395000Y-11555000D02*
X20355000Y-11595000D01*
X12160000Y-7300000D02*
G75*
G02*
X12110000Y-7300000I-25000J0D01*
G01*
X12110000Y-7300000D02*
G75*
G02*
X12160000Y-7300000I25000J0D01*
G01*
X12160000Y-12000000D02*
G75*
G02*
X12110000Y-12000000I-25000J0D01*
G01*
X12110000Y-12000000D02*
G75*
G02*
X12160000Y-12000000I25000J0D01*
G01*
X12230294Y-7130294D02*
G75*
G02*
X12180294Y-7130294I-25000J0D01*
G01*
X12180294Y-7130294D02*
G75*
G02*
X12230294Y-7130294I25000J0D01*
G01*
X12230294Y-7469706D02*
G75*
G02*
X12180294Y-7469706I-25000J0D01*
G01*
X12180294Y-7469706D02*
G75*
G02*
X12230294Y-7469706I25000J0D01*
G01*
X12230294Y-11830294D02*
G75*
G02*
X12180294Y-11830294I-25000J0D01*
G01*
X12180294Y-11830294D02*
G75*
G02*
X12230294Y-11830294I25000J0D01*
G01*
X12230294Y-12169706D02*
G75*
G02*
X12180294Y-12169706I-25000J0D01*
G01*
X12180294Y-12169706D02*
G75*
G02*
X12230294Y-12169706I25000J0D01*
G01*
X12400000Y-7060000D02*
G75*
G02*
X12350000Y-7060000I-25000J0D01*
G01*
X12350000Y-7060000D02*
G75*
G02*
X12400000Y-7060000I25000J0D01*
G01*
X12400000Y-7540000D02*
G75*
G02*
X12350000Y-7540000I-25000J0D01*
G01*
X12350000Y-7540000D02*
G75*
G02*
X12400000Y-7540000I25000J0D01*
G01*
X12400000Y-11760000D02*
G75*
G02*
X12350000Y-11760000I-25000J0D01*
G01*
X12350000Y-11760000D02*
G75*
G02*
X12400000Y-11760000I25000J0D01*
G01*
X12400000Y-12240000D02*
G75*
G02*
X12350000Y-12240000I-25000J0D01*
G01*
X12350000Y-12240000D02*
G75*
G02*
X12400000Y-12240000I25000J0D01*
G01*
X12569706Y-7130294D02*
G75*
G02*
X12519706Y-7130294I-25000J0D01*
G01*
X12519706Y-7130294D02*
G75*
G02*
X12569706Y-7130294I25000J0D01*
G01*
X12569706Y-7469706D02*
G75*
G02*
X12519706Y-7469706I-25000J0D01*
G01*
X12519706Y-7469706D02*
G75*
G02*
X12569706Y-7469706I25000J0D01*
G01*
X12569706Y-11830294D02*
G75*
G02*
X12519706Y-11830294I-25000J0D01*
G01*
X12519706Y-11830294D02*
G75*
G02*
X12569706Y-11830294I25000J0D01*
G01*
X12569706Y-12169706D02*
G75*
G02*
X12519706Y-12169706I-25000J0D01*
G01*
X12519706Y-12169706D02*
G75*
G02*
X12569706Y-12169706I25000J0D01*
G01*
X12640000Y-7300000D02*
G75*
G02*
X12590000Y-7300000I-25000J0D01*
G01*
X12590000Y-7300000D02*
G75*
G02*
X12640000Y-7300000I25000J0D01*
G01*
X12640000Y-12000000D02*
G75*
G02*
X12590000Y-12000000I-25000J0D01*
G01*
X12590000Y-12000000D02*
G75*
G02*
X12640000Y-12000000I25000J0D01*
G01*
X19960000Y-7300000D02*
G75*
G02*
X19910000Y-7300000I-25000J0D01*
G01*
X19910000Y-7300000D02*
G75*
G02*
X19960000Y-7300000I25000J0D01*
G01*
X19960000Y-12000000D02*
G75*
G02*
X19910000Y-12000000I-25000J0D01*
G01*
X19910000Y-12000000D02*
G75*
G02*
X19960000Y-12000000I25000J0D01*
G01*
X20030294Y-7130294D02*
G75*
G02*
X19980294Y-7130294I-25000J0D01*
G01*
X19980294Y-7130294D02*
G75*
G02*
X20030294Y-7130294I25000J0D01*
G01*
X20030294Y-7469706D02*
G75*
G02*
X19980294Y-7469706I-25000J0D01*
G01*
X19980294Y-7469706D02*
G75*
G02*
X20030294Y-7469706I25000J0D01*
G01*
X20030294Y-11830294D02*
G75*
G02*
X19980294Y-11830294I-25000J0D01*
G01*
X19980294Y-11830294D02*
G75*
G02*
X20030294Y-11830294I25000J0D01*
G01*
X20030294Y-12169706D02*
G75*
G02*
X19980294Y-12169706I-25000J0D01*
G01*
X19980294Y-12169706D02*
G75*
G02*
X20030294Y-12169706I25000J0D01*
G01*
X20200000Y-7060000D02*
G75*
G02*
X20150000Y-7060000I-25000J0D01*
G01*
X20150000Y-7060000D02*
G75*
G02*
X20200000Y-7060000I25000J0D01*
G01*
X20200000Y-7540000D02*
G75*
G02*
X20150000Y-7540000I-25000J0D01*
G01*
X20150000Y-7540000D02*
G75*
G02*
X20200000Y-7540000I25000J0D01*
G01*
X20200000Y-11760000D02*
G75*
G02*
X20150000Y-11760000I-25000J0D01*
G01*
X20150000Y-11760000D02*
G75*
G02*
X20200000Y-11760000I25000J0D01*
G01*
X20200000Y-12240000D02*
G75*
G02*
X20150000Y-12240000I-25000J0D01*
G01*
X20150000Y-12240000D02*
G75*
G02*
X20200000Y-12240000I25000J0D01*
G01*
X20369706Y-7130294D02*
G75*
G02*
X20319706Y-7130294I-25000J0D01*
G01*
X20319706Y-7130294D02*
G75*
G02*
X20369706Y-7130294I25000J0D01*
G01*
X20369706Y-7469706D02*
G75*
G02*
X20319706Y-7469706I-25000J0D01*
G01*
X20319706Y-7469706D02*
G75*
G02*
X20369706Y-7469706I25000J0D01*
G01*
X20369706Y-11830294D02*
G75*
G02*
X20319706Y-11830294I-25000J0D01*
G01*
X20319706Y-11830294D02*
G75*
G02*
X20369706Y-11830294I25000J0D01*
G01*
X20369706Y-12169706D02*
G75*
G02*
X20319706Y-12169706I-25000J0D01*
G01*
X20319706Y-12169706D02*
G75*
G02*
X20369706Y-12169706I25000J0D01*
G01*
X20440000Y-7300000D02*
G75*
G02*
X20390000Y-7300000I-25000J0D01*
G01*
X20390000Y-7300000D02*
G75*
G02*
X20440000Y-7300000I25000J0D01*
G01*
X20440000Y-12000000D02*
G75*
G02*
X20390000Y-12000000I-25000J0D01*
G01*
X20390000Y-12000000D02*
G75*
G02*
X20440000Y-12000000I25000J0D01*
G01*
X13046000Y-7288000D02*
X13046000Y-7388000D01*
X12996000Y-7338000D02*
X13096000Y-7338000D01*
X13046000Y-7797000D02*
X13046000Y-7897000D01*
X12996000Y-7847000D02*
X13096000Y-7847000D01*
X13046000Y-8051000D02*
X13046000Y-8151000D01*
X12996000Y-8101000D02*
X13096000Y-8101000D01*
X13046000Y-8305000D02*
X13046000Y-8405000D01*
X12996000Y-8355000D02*
X13096000Y-8355000D01*
X13046000Y-8559000D02*
X13046000Y-8659000D01*
X12996000Y-8609000D02*
X13096000Y-8609000D01*
X13046000Y-8813000D02*
X13046000Y-8913000D01*
X12996000Y-8863000D02*
X13096000Y-8863000D01*
X13046000Y-9067000D02*
X13046000Y-9167000D01*
X12996000Y-9117000D02*
X13096000Y-9117000D01*
X13046000Y-9575000D02*
X13046000Y-9675000D01*
X12996000Y-9625000D02*
X13096000Y-9625000D01*
X13046000Y-10083000D02*
X13046000Y-10183000D01*
X12996000Y-10133000D02*
X13096000Y-10133000D01*
X13046000Y-10337000D02*
X13046000Y-10437000D01*
X12996000Y-10387000D02*
X13096000Y-10387000D01*
X13046000Y-10591000D02*
X13046000Y-10691000D01*
X12996000Y-10641000D02*
X13096000Y-10641000D01*
X13046000Y-10845000D02*
X13046000Y-10945000D01*
X12996000Y-10895000D02*
X13096000Y-10895000D01*
X13046000Y-11099000D02*
X13046000Y-11199000D01*
X12996000Y-11149000D02*
X13096000Y-11149000D01*
X13046000Y-11353000D02*
X13046000Y-11453000D01*
X12996000Y-11403000D02*
X13096000Y-11403000D01*
X13046000Y-11861000D02*
X13046000Y-11961000D01*
X12996000Y-11911000D02*
X13096000Y-11911000D01*
X13300000Y-7288000D02*
X13300000Y-7388000D01*
X13250000Y-7338000D02*
X13350000Y-7338000D01*
X13300000Y-9575000D02*
X13300000Y-9675000D01*
X13250000Y-9625000D02*
X13350000Y-9625000D01*
X13300000Y-10083000D02*
X13300000Y-10183000D01*
X13250000Y-10133000D02*
X13350000Y-10133000D01*
X13300000Y-10337000D02*
X13300000Y-10437000D01*
X13250000Y-10387000D02*
X13350000Y-10387000D01*
X13300000Y-10591000D02*
X13300000Y-10691000D01*
X13250000Y-10641000D02*
X13350000Y-10641000D01*
X13300000Y-10845000D02*
X13300000Y-10945000D01*
X13250000Y-10895000D02*
X13350000Y-10895000D01*
X13300000Y-11099000D02*
X13300000Y-11199000D01*
X13250000Y-11149000D02*
X13350000Y-11149000D01*
X13300000Y-11353000D02*
X13300000Y-11453000D01*
X13250000Y-11403000D02*
X13350000Y-11403000D01*
X13300000Y-11861000D02*
X13300000Y-11961000D01*
X13250000Y-11911000D02*
X13350000Y-11911000D01*
X16695000Y-7150000D02*
X16695000Y-7250000D01*
X16645000Y-7200000D02*
X16745000Y-7200000D01*
X16949000Y-7150000D02*
X16949000Y-7250000D01*
X16899000Y-7200000D02*
X16999000Y-7200000D01*
X17203000Y-7150000D02*
X17203000Y-7250000D01*
X17153000Y-7200000D02*
X17253000Y-7200000D01*
X17457000Y-7150000D02*
X17457000Y-7250000D01*
X17407000Y-7200000D02*
X17507000Y-7200000D01*
X19125000Y-7100000D02*
X19125000Y-7200000D01*
X19075000Y-7150000D02*
X19175000Y-7150000D01*
D12*
X12488138Y-7413138D02*
X12488138Y-7186862D01*
X12261862Y-7186862D01*
X12261862Y-7413138D01*
X12488138Y-7413138D01*
X12488138Y-12113138D02*
X12488138Y-11886862D01*
X12261862Y-11886862D01*
X12261862Y-12113138D01*
X12488138Y-12113138D01*
X20288138Y-7413138D02*
X20288138Y-7186862D01*
X20061862Y-7186862D01*
X20061862Y-7413138D01*
X20288138Y-7413138D01*
X20288138Y-12113138D02*
X20288138Y-11886862D01*
X20061862Y-11886862D01*
X20061862Y-12113138D01*
X20288138Y-12113138D01*
D11*
X12280777Y-12666484D02*
X12280777Y-12466484D01*
X12280777Y-12466484D02*
X12328396Y-12466484D01*
X12328396Y-12466484D02*
X12356967Y-12476008D01*
X12356967Y-12476008D02*
X12376015Y-12495055D01*
X12376015Y-12495055D02*
X12385539Y-12514103D01*
X12385539Y-12514103D02*
X12395062Y-12552198D01*
X12395062Y-12552198D02*
X12395062Y-12580769D01*
X12395062Y-12580769D02*
X12385539Y-12618865D01*
X12385539Y-12618865D02*
X12376015Y-12637912D01*
X12376015Y-12637912D02*
X12356967Y-12656960D01*
X12356967Y-12656960D02*
X12328396Y-12666484D01*
X12328396Y-12666484D02*
X12280777Y-12666484D01*
X12480777Y-12666484D02*
X12480777Y-12533150D01*
X12480777Y-12571246D02*
X12490301Y-12552198D01*
X12490301Y-12552198D02*
X12499824Y-12542674D01*
X12499824Y-12542674D02*
X12518872Y-12533150D01*
X12518872Y-12533150D02*
X12537920Y-12533150D01*
X12604586Y-12666484D02*
X12604586Y-12533150D01*
X12604586Y-12466484D02*
X12595062Y-12476008D01*
X12595062Y-12476008D02*
X12604586Y-12485531D01*
X12604586Y-12485531D02*
X12614110Y-12476008D01*
X12614110Y-12476008D02*
X12604586Y-12466484D01*
X12604586Y-12466484D02*
X12604586Y-12485531D01*
X12728396Y-12666484D02*
X12709348Y-12656960D01*
X12709348Y-12656960D02*
X12699824Y-12637912D01*
X12699824Y-12637912D02*
X12699824Y-12466484D01*
X12833158Y-12666484D02*
X12814110Y-12656960D01*
X12814110Y-12656960D02*
X12804586Y-12637912D01*
X12804586Y-12637912D02*
X12804586Y-12466484D01*
X13061729Y-12666484D02*
X13061729Y-12466484D01*
X13061729Y-12466484D02*
X13128396Y-12609341D01*
X13128396Y-12609341D02*
X13195062Y-12466484D01*
X13195062Y-12466484D02*
X13195062Y-12666484D01*
X13376015Y-12666484D02*
X13376015Y-12561722D01*
X13376015Y-12561722D02*
X13366491Y-12542674D01*
X13366491Y-12542674D02*
X13347443Y-12533150D01*
X13347443Y-12533150D02*
X13309348Y-12533150D01*
X13309348Y-12533150D02*
X13290301Y-12542674D01*
X13376015Y-12656960D02*
X13356967Y-12666484D01*
X13356967Y-12666484D02*
X13309348Y-12666484D01*
X13309348Y-12666484D02*
X13290301Y-12656960D01*
X13290301Y-12656960D02*
X13280777Y-12637912D01*
X13280777Y-12637912D02*
X13280777Y-12618865D01*
X13280777Y-12618865D02*
X13290301Y-12599817D01*
X13290301Y-12599817D02*
X13309348Y-12590293D01*
X13309348Y-12590293D02*
X13356967Y-12590293D01*
X13356967Y-12590293D02*
X13376015Y-12580769D01*
X13471253Y-12533150D02*
X13471253Y-12733150D01*
X13471253Y-12542674D02*
X13490301Y-12533150D01*
X13490301Y-12533150D02*
X13528396Y-12533150D01*
X13528396Y-12533150D02*
X13547443Y-12542674D01*
X13547443Y-12542674D02*
X13556967Y-12552198D01*
X13556967Y-12552198D02*
X13566491Y-12571246D01*
X13566491Y-12571246D02*
X13566491Y-12628388D01*
X13566491Y-12628388D02*
X13556967Y-12647436D01*
X13556967Y-12647436D02*
X13547443Y-12656960D01*
X13547443Y-12656960D02*
X13528396Y-12666484D01*
X13528396Y-12666484D02*
X13490301Y-12666484D01*
X13490301Y-12666484D02*
X13471253Y-12656960D01*
X13652205Y-12647436D02*
X13661729Y-12656960D01*
X13661729Y-12656960D02*
X13652205Y-12666484D01*
X13652205Y-12666484D02*
X13642682Y-12656960D01*
X13642682Y-12656960D02*
X13652205Y-12647436D01*
X13652205Y-12647436D02*
X13652205Y-12666484D01*
X13652205Y-12542674D02*
X13661729Y-12552198D01*
X13661729Y-12552198D02*
X13652205Y-12561722D01*
X13652205Y-12561722D02*
X13642682Y-12552198D01*
X13642682Y-12552198D02*
X13652205Y-12542674D01*
X13652205Y-12542674D02*
X13652205Y-12561722D01*
D10*
X11980000Y-12975000D02*
X12020000Y-13015000D01*
X12020000Y-12975000D02*
X11980000Y-13015000D01*
D11*
X12318872Y-12886484D02*
X12337920Y-12886484D01*
X12337920Y-12886484D02*
X12356967Y-12896008D01*
X12356967Y-12896008D02*
X12366491Y-12905531D01*
X12366491Y-12905531D02*
X12376015Y-12924579D01*
X12376015Y-12924579D02*
X12385539Y-12962674D01*
X12385539Y-12962674D02*
X12385539Y-13010293D01*
X12385539Y-13010293D02*
X12376015Y-13048388D01*
X12376015Y-13048388D02*
X12366491Y-13067436D01*
X12366491Y-13067436D02*
X12356967Y-13076960D01*
X12356967Y-13076960D02*
X12337920Y-13086484D01*
X12337920Y-13086484D02*
X12318872Y-13086484D01*
X12318872Y-13086484D02*
X12299824Y-13076960D01*
X12299824Y-13076960D02*
X12290301Y-13067436D01*
X12290301Y-13067436D02*
X12280777Y-13048388D01*
X12280777Y-13048388D02*
X12271253Y-13010293D01*
X12271253Y-13010293D02*
X12271253Y-12962674D01*
X12271253Y-12962674D02*
X12280777Y-12924579D01*
X12280777Y-12924579D02*
X12290301Y-12905531D01*
X12290301Y-12905531D02*
X12299824Y-12896008D01*
X12299824Y-12896008D02*
X12318872Y-12886484D01*
X12480777Y-13076960D02*
X12480777Y-13086484D01*
X12480777Y-13086484D02*
X12471253Y-13105531D01*
X12471253Y-13105531D02*
X12461729Y-13115055D01*
X12652205Y-12953150D02*
X12652205Y-13086484D01*
X12604586Y-12876960D02*
X12556967Y-13019817D01*
X12556967Y-13019817D02*
X12680777Y-13019817D01*
X12795062Y-12886484D02*
X12814110Y-12886484D01*
X12814110Y-12886484D02*
X12833158Y-12896008D01*
X12833158Y-12896008D02*
X12842682Y-12905531D01*
X12842682Y-12905531D02*
X12852205Y-12924579D01*
X12852205Y-12924579D02*
X12861729Y-12962674D01*
X12861729Y-12962674D02*
X12861729Y-13010293D01*
X12861729Y-13010293D02*
X12852205Y-13048388D01*
X12852205Y-13048388D02*
X12842682Y-13067436D01*
X12842682Y-13067436D02*
X12833158Y-13076960D01*
X12833158Y-13076960D02*
X12814110Y-13086484D01*
X12814110Y-13086484D02*
X12795062Y-13086484D01*
X12795062Y-13086484D02*
X12776015Y-13076960D01*
X12776015Y-13076960D02*
X12766491Y-13067436D01*
X12766491Y-13067436D02*
X12756967Y-13048388D01*
X12756967Y-13048388D02*
X12747443Y-13010293D01*
X12747443Y-13010293D02*
X12747443Y-12962674D01*
X12747443Y-12962674D02*
X12756967Y-12924579D01*
X12756967Y-12924579D02*
X12766491Y-12905531D01*
X12766491Y-12905531D02*
X12776015Y-12896008D01*
X12776015Y-12896008D02*
X12795062Y-12886484D01*
X12985539Y-12886484D02*
X13004586Y-12886484D01*
X13004586Y-12886484D02*
X13023634Y-12896008D01*
X13023634Y-12896008D02*
X13033158Y-12905531D01*
X13033158Y-12905531D02*
X13042682Y-12924579D01*
X13042682Y-12924579D02*
X13052205Y-12962674D01*
X13052205Y-12962674D02*
X13052205Y-13010293D01*
X13052205Y-13010293D02*
X13042682Y-13048388D01*
X13042682Y-13048388D02*
X13033158Y-13067436D01*
X13033158Y-13067436D02*
X13023634Y-13076960D01*
X13023634Y-13076960D02*
X13004586Y-13086484D01*
X13004586Y-13086484D02*
X12985539Y-13086484D01*
X12985539Y-13086484D02*
X12966491Y-13076960D01*
X12966491Y-13076960D02*
X12956967Y-13067436D01*
X12956967Y-13067436D02*
X12947443Y-13048388D01*
X12947443Y-13048388D02*
X12937920Y-13010293D01*
X12937920Y-13010293D02*
X12937920Y-12962674D01*
X12937920Y-12962674D02*
X12947443Y-12924579D01*
X12947443Y-12924579D02*
X12956967Y-12905531D01*
X12956967Y-12905531D02*
X12966491Y-12896008D01*
X12966491Y-12896008D02*
X12985539Y-12886484D01*
X13137920Y-13086484D02*
X13137920Y-12953150D01*
X13137920Y-12972198D02*
X13147443Y-12962674D01*
X13147443Y-12962674D02*
X13166491Y-12953150D01*
X13166491Y-12953150D02*
X13195063Y-12953150D01*
X13195063Y-12953150D02*
X13214110Y-12962674D01*
X13214110Y-12962674D02*
X13223634Y-12981722D01*
X13223634Y-12981722D02*
X13223634Y-13086484D01*
X13223634Y-12981722D02*
X13233158Y-12962674D01*
X13233158Y-12962674D02*
X13252205Y-12953150D01*
X13252205Y-12953150D02*
X13280777Y-12953150D01*
X13280777Y-12953150D02*
X13299824Y-12962674D01*
X13299824Y-12962674D02*
X13309348Y-12981722D01*
X13309348Y-12981722D02*
X13309348Y-13086484D01*
X13404586Y-13086484D02*
X13404586Y-12953150D01*
X13404586Y-12972198D02*
X13414110Y-12962674D01*
X13414110Y-12962674D02*
X13433158Y-12953150D01*
X13433158Y-12953150D02*
X13461729Y-12953150D01*
X13461729Y-12953150D02*
X13480777Y-12962674D01*
X13480777Y-12962674D02*
X13490301Y-12981722D01*
X13490301Y-12981722D02*
X13490301Y-13086484D01*
X13490301Y-12981722D02*
X13499824Y-12962674D01*
X13499824Y-12962674D02*
X13518872Y-12953150D01*
X13518872Y-12953150D02*
X13547443Y-12953150D01*
X13547443Y-12953150D02*
X13566491Y-12962674D01*
X13566491Y-12962674D02*
X13576015Y-12981722D01*
X13576015Y-12981722D02*
X13576015Y-13086484D01*
X13966491Y-12876960D02*
X13795063Y-13134103D01*
X14223634Y-12886484D02*
X14242682Y-12886484D01*
X14242682Y-12886484D02*
X14261729Y-12896008D01*
X14261729Y-12896008D02*
X14271253Y-12905531D01*
X14271253Y-12905531D02*
X14280777Y-12924579D01*
X14280777Y-12924579D02*
X14290301Y-12962674D01*
X14290301Y-12962674D02*
X14290301Y-13010293D01*
X14290301Y-13010293D02*
X14280777Y-13048388D01*
X14280777Y-13048388D02*
X14271253Y-13067436D01*
X14271253Y-13067436D02*
X14261729Y-13076960D01*
X14261729Y-13076960D02*
X14242682Y-13086484D01*
X14242682Y-13086484D02*
X14223634Y-13086484D01*
X14223634Y-13086484D02*
X14204586Y-13076960D01*
X14204586Y-13076960D02*
X14195063Y-13067436D01*
X14195063Y-13067436D02*
X14185539Y-13048388D01*
X14185539Y-13048388D02*
X14176015Y-13010293D01*
X14176015Y-13010293D02*
X14176015Y-12962674D01*
X14176015Y-12962674D02*
X14185539Y-12924579D01*
X14185539Y-12924579D02*
X14195063Y-12905531D01*
X14195063Y-12905531D02*
X14204586Y-12896008D01*
X14204586Y-12896008D02*
X14223634Y-12886484D01*
X14385539Y-13076960D02*
X14385539Y-13086484D01*
X14385539Y-13086484D02*
X14376015Y-13105531D01*
X14376015Y-13105531D02*
X14366491Y-13115055D01*
X14509348Y-12886484D02*
X14528396Y-12886484D01*
X14528396Y-12886484D02*
X14547444Y-12896008D01*
X14547444Y-12896008D02*
X14556967Y-12905531D01*
X14556967Y-12905531D02*
X14566491Y-12924579D01*
X14566491Y-12924579D02*
X14576015Y-12962674D01*
X14576015Y-12962674D02*
X14576015Y-13010293D01*
X14576015Y-13010293D02*
X14566491Y-13048388D01*
X14566491Y-13048388D02*
X14556967Y-13067436D01*
X14556967Y-13067436D02*
X14547444Y-13076960D01*
X14547444Y-13076960D02*
X14528396Y-13086484D01*
X14528396Y-13086484D02*
X14509348Y-13086484D01*
X14509348Y-13086484D02*
X14490301Y-13076960D01*
X14490301Y-13076960D02*
X14480777Y-13067436D01*
X14480777Y-13067436D02*
X14471253Y-13048388D01*
X14471253Y-13048388D02*
X14461729Y-13010293D01*
X14461729Y-13010293D02*
X14461729Y-12962674D01*
X14461729Y-12962674D02*
X14471253Y-12924579D01*
X14471253Y-12924579D02*
X14480777Y-12905531D01*
X14480777Y-12905531D02*
X14490301Y-12896008D01*
X14490301Y-12896008D02*
X14509348Y-12886484D01*
X14766491Y-13086484D02*
X14652206Y-13086484D01*
X14709348Y-13086484D02*
X14709348Y-12886484D01*
X14709348Y-12886484D02*
X14690301Y-12915055D01*
X14690301Y-12915055D02*
X14671253Y-12934103D01*
X14671253Y-12934103D02*
X14652206Y-12943627D01*
X14947444Y-12886484D02*
X14852206Y-12886484D01*
X14852206Y-12886484D02*
X14842682Y-12981722D01*
X14842682Y-12981722D02*
X14852206Y-12972198D01*
X14852206Y-12972198D02*
X14871253Y-12962674D01*
X14871253Y-12962674D02*
X14918872Y-12962674D01*
X14918872Y-12962674D02*
X14937920Y-12972198D01*
X14937920Y-12972198D02*
X14947444Y-12981722D01*
X14947444Y-12981722D02*
X14956967Y-13000769D01*
X14956967Y-13000769D02*
X14956967Y-13048388D01*
X14956967Y-13048388D02*
X14947444Y-13067436D01*
X14947444Y-13067436D02*
X14937920Y-13076960D01*
X14937920Y-13076960D02*
X14918872Y-13086484D01*
X14918872Y-13086484D02*
X14871253Y-13086484D01*
X14871253Y-13086484D02*
X14852206Y-13076960D01*
X14852206Y-13076960D02*
X14842682Y-13067436D01*
X15023634Y-12886484D02*
X15156967Y-12886484D01*
X15156967Y-12886484D02*
X15071253Y-13086484D01*
X15223634Y-12886484D02*
X15223634Y-12924579D01*
X15299825Y-12886484D02*
X15299825Y-12924579D01*
X15595063Y-13162674D02*
X15585539Y-13153150D01*
X15585539Y-13153150D02*
X15566491Y-13124579D01*
X15566491Y-13124579D02*
X15556968Y-13105531D01*
X15556968Y-13105531D02*
X15547444Y-13076960D01*
X15547444Y-13076960D02*
X15537920Y-13029341D01*
X15537920Y-13029341D02*
X15537920Y-12991246D01*
X15537920Y-12991246D02*
X15547444Y-12943627D01*
X15547444Y-12943627D02*
X15556968Y-12915055D01*
X15556968Y-12915055D02*
X15566491Y-12896008D01*
X15566491Y-12896008D02*
X15585539Y-12867436D01*
X15585539Y-12867436D02*
X15595063Y-12857912D01*
X15776015Y-13086484D02*
X15661729Y-13086484D01*
X15718872Y-13086484D02*
X15718872Y-12886484D01*
X15718872Y-12886484D02*
X15699825Y-12915055D01*
X15699825Y-12915055D02*
X15680777Y-12934103D01*
X15680777Y-12934103D02*
X15661729Y-12943627D01*
X15871253Y-13086484D02*
X15909348Y-13086484D01*
X15909348Y-13086484D02*
X15928396Y-13076960D01*
X15928396Y-13076960D02*
X15937920Y-13067436D01*
X15937920Y-13067436D02*
X15956968Y-13038865D01*
X15956968Y-13038865D02*
X15966491Y-13000769D01*
X15966491Y-13000769D02*
X15966491Y-12924579D01*
X15966491Y-12924579D02*
X15956968Y-12905531D01*
X15956968Y-12905531D02*
X15947444Y-12896008D01*
X15947444Y-12896008D02*
X15928396Y-12886484D01*
X15928396Y-12886484D02*
X15890301Y-12886484D01*
X15890301Y-12886484D02*
X15871253Y-12896008D01*
X15871253Y-12896008D02*
X15861729Y-12905531D01*
X15861729Y-12905531D02*
X15852206Y-12924579D01*
X15852206Y-12924579D02*
X15852206Y-12972198D01*
X15852206Y-12972198D02*
X15861729Y-12991246D01*
X15861729Y-12991246D02*
X15871253Y-13000769D01*
X15871253Y-13000769D02*
X15890301Y-13010293D01*
X15890301Y-13010293D02*
X15928396Y-13010293D01*
X15928396Y-13010293D02*
X15947444Y-13000769D01*
X15947444Y-13000769D02*
X15956968Y-12991246D01*
X15956968Y-12991246D02*
X15966491Y-12972198D01*
X16147444Y-12886484D02*
X16052206Y-12886484D01*
X16052206Y-12886484D02*
X16042682Y-12981722D01*
X16042682Y-12981722D02*
X16052206Y-12972198D01*
X16052206Y-12972198D02*
X16071253Y-12962674D01*
X16071253Y-12962674D02*
X16118872Y-12962674D01*
X16118872Y-12962674D02*
X16137920Y-12972198D01*
X16137920Y-12972198D02*
X16147444Y-12981722D01*
X16147444Y-12981722D02*
X16156968Y-13000769D01*
X16156968Y-13000769D02*
X16156968Y-13048388D01*
X16156968Y-13048388D02*
X16147444Y-13067436D01*
X16147444Y-13067436D02*
X16137920Y-13076960D01*
X16137920Y-13076960D02*
X16118872Y-13086484D01*
X16118872Y-13086484D02*
X16071253Y-13086484D01*
X16071253Y-13086484D02*
X16052206Y-13076960D01*
X16052206Y-13076960D02*
X16042682Y-13067436D01*
X16395063Y-13086484D02*
X16395063Y-12886484D01*
X16480777Y-13086484D02*
X16480777Y-12981722D01*
X16480777Y-12981722D02*
X16471253Y-12962674D01*
X16471253Y-12962674D02*
X16452206Y-12953150D01*
X16452206Y-12953150D02*
X16423634Y-12953150D01*
X16423634Y-12953150D02*
X16404587Y-12962674D01*
X16404587Y-12962674D02*
X16395063Y-12972198D01*
X16604587Y-13086484D02*
X16585539Y-13076960D01*
X16585539Y-13076960D02*
X16576015Y-13067436D01*
X16576015Y-13067436D02*
X16566491Y-13048388D01*
X16566491Y-13048388D02*
X16566491Y-12991246D01*
X16566491Y-12991246D02*
X16576015Y-12972198D01*
X16576015Y-12972198D02*
X16585539Y-12962674D01*
X16585539Y-12962674D02*
X16604587Y-12953150D01*
X16604587Y-12953150D02*
X16633158Y-12953150D01*
X16633158Y-12953150D02*
X16652206Y-12962674D01*
X16652206Y-12962674D02*
X16661730Y-12972198D01*
X16661730Y-12972198D02*
X16671253Y-12991246D01*
X16671253Y-12991246D02*
X16671253Y-13048388D01*
X16671253Y-13048388D02*
X16661730Y-13067436D01*
X16661730Y-13067436D02*
X16652206Y-13076960D01*
X16652206Y-13076960D02*
X16633158Y-13086484D01*
X16633158Y-13086484D02*
X16604587Y-13086484D01*
X16785539Y-13086484D02*
X16766491Y-13076960D01*
X16766491Y-13076960D02*
X16756968Y-13057912D01*
X16756968Y-13057912D02*
X16756968Y-12886484D01*
X16937920Y-13076960D02*
X16918873Y-13086484D01*
X16918873Y-13086484D02*
X16880777Y-13086484D01*
X16880777Y-13086484D02*
X16861730Y-13076960D01*
X16861730Y-13076960D02*
X16852206Y-13057912D01*
X16852206Y-13057912D02*
X16852206Y-12981722D01*
X16852206Y-12981722D02*
X16861730Y-12962674D01*
X16861730Y-12962674D02*
X16880777Y-12953150D01*
X16880777Y-12953150D02*
X16918873Y-12953150D01*
X16918873Y-12953150D02*
X16937920Y-12962674D01*
X16937920Y-12962674D02*
X16947444Y-12981722D01*
X16947444Y-12981722D02*
X16947444Y-13000769D01*
X16947444Y-13000769D02*
X16852206Y-13019817D01*
X17023634Y-13076960D02*
X17042682Y-13086484D01*
X17042682Y-13086484D02*
X17080777Y-13086484D01*
X17080777Y-13086484D02*
X17099825Y-13076960D01*
X17099825Y-13076960D02*
X17109349Y-13057912D01*
X17109349Y-13057912D02*
X17109349Y-13048388D01*
X17109349Y-13048388D02*
X17099825Y-13029341D01*
X17099825Y-13029341D02*
X17080777Y-13019817D01*
X17080777Y-13019817D02*
X17052206Y-13019817D01*
X17052206Y-13019817D02*
X17033158Y-13010293D01*
X17033158Y-13010293D02*
X17023634Y-12991246D01*
X17023634Y-12991246D02*
X17023634Y-12981722D01*
X17023634Y-12981722D02*
X17033158Y-12962674D01*
X17033158Y-12962674D02*
X17052206Y-12953150D01*
X17052206Y-12953150D02*
X17080777Y-12953150D01*
X17080777Y-12953150D02*
X17099825Y-12962674D01*
X17176015Y-13162674D02*
X17185539Y-13153150D01*
X17185539Y-13153150D02*
X17204587Y-13124579D01*
X17204587Y-13124579D02*
X17214111Y-13105531D01*
X17214111Y-13105531D02*
X17223634Y-13076960D01*
X17223634Y-13076960D02*
X17233158Y-13029341D01*
X17233158Y-13029341D02*
X17233158Y-12991246D01*
X17233158Y-12991246D02*
X17223634Y-12943627D01*
X17223634Y-12943627D02*
X17214111Y-12915055D01*
X17214111Y-12915055D02*
X17204587Y-12896008D01*
X17204587Y-12896008D02*
X17185539Y-12867436D01*
X17185539Y-12867436D02*
X17176015Y-12857912D01*
D10*
X12020000Y-13259000D02*
G75*
G02*
X11970000Y-13259000I-25000J0D01*
G01*
X11970000Y-13259000D02*
G75*
G02*
X12020000Y-13259000I25000J0D01*
G01*
D11*
X12318872Y-13150484D02*
X12337920Y-13150484D01*
X12337920Y-13150484D02*
X12356967Y-13160008D01*
X12356967Y-13160008D02*
X12366491Y-13169531D01*
X12366491Y-13169531D02*
X12376015Y-13188579D01*
X12376015Y-13188579D02*
X12385539Y-13226674D01*
X12385539Y-13226674D02*
X12385539Y-13274293D01*
X12385539Y-13274293D02*
X12376015Y-13312388D01*
X12376015Y-13312388D02*
X12366491Y-13331436D01*
X12366491Y-13331436D02*
X12356967Y-13340960D01*
X12356967Y-13340960D02*
X12337920Y-13350484D01*
X12337920Y-13350484D02*
X12318872Y-13350484D01*
X12318872Y-13350484D02*
X12299824Y-13340960D01*
X12299824Y-13340960D02*
X12290301Y-13331436D01*
X12290301Y-13331436D02*
X12280777Y-13312388D01*
X12280777Y-13312388D02*
X12271253Y-13274293D01*
X12271253Y-13274293D02*
X12271253Y-13226674D01*
X12271253Y-13226674D02*
X12280777Y-13188579D01*
X12280777Y-13188579D02*
X12290301Y-13169531D01*
X12290301Y-13169531D02*
X12299824Y-13160008D01*
X12299824Y-13160008D02*
X12318872Y-13150484D01*
X12480777Y-13340960D02*
X12480777Y-13350484D01*
X12480777Y-13350484D02*
X12471253Y-13369531D01*
X12471253Y-13369531D02*
X12461729Y-13379055D01*
X12661729Y-13150484D02*
X12566491Y-13150484D01*
X12566491Y-13150484D02*
X12556967Y-13245722D01*
X12556967Y-13245722D02*
X12566491Y-13236198D01*
X12566491Y-13236198D02*
X12585539Y-13226674D01*
X12585539Y-13226674D02*
X12633158Y-13226674D01*
X12633158Y-13226674D02*
X12652205Y-13236198D01*
X12652205Y-13236198D02*
X12661729Y-13245722D01*
X12661729Y-13245722D02*
X12671253Y-13264769D01*
X12671253Y-13264769D02*
X12671253Y-13312388D01*
X12671253Y-13312388D02*
X12661729Y-13331436D01*
X12661729Y-13331436D02*
X12652205Y-13340960D01*
X12652205Y-13340960D02*
X12633158Y-13350484D01*
X12633158Y-13350484D02*
X12585539Y-13350484D01*
X12585539Y-13350484D02*
X12566491Y-13340960D01*
X12566491Y-13340960D02*
X12556967Y-13331436D01*
X12795062Y-13150484D02*
X12814110Y-13150484D01*
X12814110Y-13150484D02*
X12833158Y-13160008D01*
X12833158Y-13160008D02*
X12842682Y-13169531D01*
X12842682Y-13169531D02*
X12852205Y-13188579D01*
X12852205Y-13188579D02*
X12861729Y-13226674D01*
X12861729Y-13226674D02*
X12861729Y-13274293D01*
X12861729Y-13274293D02*
X12852205Y-13312388D01*
X12852205Y-13312388D02*
X12842682Y-13331436D01*
X12842682Y-13331436D02*
X12833158Y-13340960D01*
X12833158Y-13340960D02*
X12814110Y-13350484D01*
X12814110Y-13350484D02*
X12795062Y-13350484D01*
X12795062Y-13350484D02*
X12776015Y-13340960D01*
X12776015Y-13340960D02*
X12766491Y-13331436D01*
X12766491Y-13331436D02*
X12756967Y-13312388D01*
X12756967Y-13312388D02*
X12747443Y-13274293D01*
X12747443Y-13274293D02*
X12747443Y-13226674D01*
X12747443Y-13226674D02*
X12756967Y-13188579D01*
X12756967Y-13188579D02*
X12766491Y-13169531D01*
X12766491Y-13169531D02*
X12776015Y-13160008D01*
X12776015Y-13160008D02*
X12795062Y-13150484D01*
X12985539Y-13150484D02*
X13004586Y-13150484D01*
X13004586Y-13150484D02*
X13023634Y-13160008D01*
X13023634Y-13160008D02*
X13033158Y-13169531D01*
X13033158Y-13169531D02*
X13042682Y-13188579D01*
X13042682Y-13188579D02*
X13052205Y-13226674D01*
X13052205Y-13226674D02*
X13052205Y-13274293D01*
X13052205Y-13274293D02*
X13042682Y-13312388D01*
X13042682Y-13312388D02*
X13033158Y-13331436D01*
X13033158Y-13331436D02*
X13023634Y-13340960D01*
X13023634Y-13340960D02*
X13004586Y-13350484D01*
X13004586Y-13350484D02*
X12985539Y-13350484D01*
X12985539Y-13350484D02*
X12966491Y-13340960D01*
X12966491Y-13340960D02*
X12956967Y-13331436D01*
X12956967Y-13331436D02*
X12947443Y-13312388D01*
X12947443Y-13312388D02*
X12937920Y-13274293D01*
X12937920Y-13274293D02*
X12937920Y-13226674D01*
X12937920Y-13226674D02*
X12947443Y-13188579D01*
X12947443Y-13188579D02*
X12956967Y-13169531D01*
X12956967Y-13169531D02*
X12966491Y-13160008D01*
X12966491Y-13160008D02*
X12985539Y-13150484D01*
X13137920Y-13350484D02*
X13137920Y-13217150D01*
X13137920Y-13236198D02*
X13147443Y-13226674D01*
X13147443Y-13226674D02*
X13166491Y-13217150D01*
X13166491Y-13217150D02*
X13195063Y-13217150D01*
X13195063Y-13217150D02*
X13214110Y-13226674D01*
X13214110Y-13226674D02*
X13223634Y-13245722D01*
X13223634Y-13245722D02*
X13223634Y-13350484D01*
X13223634Y-13245722D02*
X13233158Y-13226674D01*
X13233158Y-13226674D02*
X13252205Y-13217150D01*
X13252205Y-13217150D02*
X13280777Y-13217150D01*
X13280777Y-13217150D02*
X13299824Y-13226674D01*
X13299824Y-13226674D02*
X13309348Y-13245722D01*
X13309348Y-13245722D02*
X13309348Y-13350484D01*
X13404586Y-13350484D02*
X13404586Y-13217150D01*
X13404586Y-13236198D02*
X13414110Y-13226674D01*
X13414110Y-13226674D02*
X13433158Y-13217150D01*
X13433158Y-13217150D02*
X13461729Y-13217150D01*
X13461729Y-13217150D02*
X13480777Y-13226674D01*
X13480777Y-13226674D02*
X13490301Y-13245722D01*
X13490301Y-13245722D02*
X13490301Y-13350484D01*
X13490301Y-13245722D02*
X13499824Y-13226674D01*
X13499824Y-13226674D02*
X13518872Y-13217150D01*
X13518872Y-13217150D02*
X13547443Y-13217150D01*
X13547443Y-13217150D02*
X13566491Y-13226674D01*
X13566491Y-13226674D02*
X13576015Y-13245722D01*
X13576015Y-13245722D02*
X13576015Y-13350484D01*
X13966491Y-13140960D02*
X13795063Y-13398103D01*
X14223634Y-13150484D02*
X14242682Y-13150484D01*
X14242682Y-13150484D02*
X14261729Y-13160008D01*
X14261729Y-13160008D02*
X14271253Y-13169531D01*
X14271253Y-13169531D02*
X14280777Y-13188579D01*
X14280777Y-13188579D02*
X14290301Y-13226674D01*
X14290301Y-13226674D02*
X14290301Y-13274293D01*
X14290301Y-13274293D02*
X14280777Y-13312388D01*
X14280777Y-13312388D02*
X14271253Y-13331436D01*
X14271253Y-13331436D02*
X14261729Y-13340960D01*
X14261729Y-13340960D02*
X14242682Y-13350484D01*
X14242682Y-13350484D02*
X14223634Y-13350484D01*
X14223634Y-13350484D02*
X14204586Y-13340960D01*
X14204586Y-13340960D02*
X14195063Y-13331436D01*
X14195063Y-13331436D02*
X14185539Y-13312388D01*
X14185539Y-13312388D02*
X14176015Y-13274293D01*
X14176015Y-13274293D02*
X14176015Y-13226674D01*
X14176015Y-13226674D02*
X14185539Y-13188579D01*
X14185539Y-13188579D02*
X14195063Y-13169531D01*
X14195063Y-13169531D02*
X14204586Y-13160008D01*
X14204586Y-13160008D02*
X14223634Y-13150484D01*
X14385539Y-13340960D02*
X14385539Y-13350484D01*
X14385539Y-13350484D02*
X14376015Y-13369531D01*
X14376015Y-13369531D02*
X14366491Y-13379055D01*
X14509348Y-13150484D02*
X14528396Y-13150484D01*
X14528396Y-13150484D02*
X14547444Y-13160008D01*
X14547444Y-13160008D02*
X14556967Y-13169531D01*
X14556967Y-13169531D02*
X14566491Y-13188579D01*
X14566491Y-13188579D02*
X14576015Y-13226674D01*
X14576015Y-13226674D02*
X14576015Y-13274293D01*
X14576015Y-13274293D02*
X14566491Y-13312388D01*
X14566491Y-13312388D02*
X14556967Y-13331436D01*
X14556967Y-13331436D02*
X14547444Y-13340960D01*
X14547444Y-13340960D02*
X14528396Y-13350484D01*
X14528396Y-13350484D02*
X14509348Y-13350484D01*
X14509348Y-13350484D02*
X14490301Y-13340960D01*
X14490301Y-13340960D02*
X14480777Y-13331436D01*
X14480777Y-13331436D02*
X14471253Y-13312388D01*
X14471253Y-13312388D02*
X14461729Y-13274293D01*
X14461729Y-13274293D02*
X14461729Y-13226674D01*
X14461729Y-13226674D02*
X14471253Y-13188579D01*
X14471253Y-13188579D02*
X14480777Y-13169531D01*
X14480777Y-13169531D02*
X14490301Y-13160008D01*
X14490301Y-13160008D02*
X14509348Y-13150484D01*
X14766491Y-13350484D02*
X14652206Y-13350484D01*
X14709348Y-13350484D02*
X14709348Y-13150484D01*
X14709348Y-13150484D02*
X14690301Y-13179055D01*
X14690301Y-13179055D02*
X14671253Y-13198103D01*
X14671253Y-13198103D02*
X14652206Y-13207627D01*
X14861729Y-13350484D02*
X14899825Y-13350484D01*
X14899825Y-13350484D02*
X14918872Y-13340960D01*
X14918872Y-13340960D02*
X14928396Y-13331436D01*
X14928396Y-13331436D02*
X14947444Y-13302865D01*
X14947444Y-13302865D02*
X14956967Y-13264769D01*
X14956967Y-13264769D02*
X14956967Y-13188579D01*
X14956967Y-13188579D02*
X14947444Y-13169531D01*
X14947444Y-13169531D02*
X14937920Y-13160008D01*
X14937920Y-13160008D02*
X14918872Y-13150484D01*
X14918872Y-13150484D02*
X14880777Y-13150484D01*
X14880777Y-13150484D02*
X14861729Y-13160008D01*
X14861729Y-13160008D02*
X14852206Y-13169531D01*
X14852206Y-13169531D02*
X14842682Y-13188579D01*
X14842682Y-13188579D02*
X14842682Y-13236198D01*
X14842682Y-13236198D02*
X14852206Y-13255246D01*
X14852206Y-13255246D02*
X14861729Y-13264769D01*
X14861729Y-13264769D02*
X14880777Y-13274293D01*
X14880777Y-13274293D02*
X14918872Y-13274293D01*
X14918872Y-13274293D02*
X14937920Y-13264769D01*
X14937920Y-13264769D02*
X14947444Y-13255246D01*
X14947444Y-13255246D02*
X14956967Y-13236198D01*
X15023634Y-13150484D02*
X15156967Y-13150484D01*
X15156967Y-13150484D02*
X15071253Y-13350484D01*
X15223634Y-13150484D02*
X15223634Y-13188579D01*
X15299825Y-13150484D02*
X15299825Y-13188579D01*
X15595063Y-13426674D02*
X15585539Y-13417150D01*
X15585539Y-13417150D02*
X15566491Y-13388579D01*
X15566491Y-13388579D02*
X15556968Y-13369531D01*
X15556968Y-13369531D02*
X15547444Y-13340960D01*
X15547444Y-13340960D02*
X15537920Y-13293341D01*
X15537920Y-13293341D02*
X15537920Y-13255246D01*
X15537920Y-13255246D02*
X15547444Y-13207627D01*
X15547444Y-13207627D02*
X15556968Y-13179055D01*
X15556968Y-13179055D02*
X15566491Y-13160008D01*
X15566491Y-13160008D02*
X15585539Y-13131436D01*
X15585539Y-13131436D02*
X15595063Y-13121912D01*
X15652206Y-13150484D02*
X15776015Y-13150484D01*
X15776015Y-13150484D02*
X15709348Y-13226674D01*
X15709348Y-13226674D02*
X15737920Y-13226674D01*
X15737920Y-13226674D02*
X15756968Y-13236198D01*
X15756968Y-13236198D02*
X15766491Y-13245722D01*
X15766491Y-13245722D02*
X15776015Y-13264769D01*
X15776015Y-13264769D02*
X15776015Y-13312388D01*
X15776015Y-13312388D02*
X15766491Y-13331436D01*
X15766491Y-13331436D02*
X15756968Y-13340960D01*
X15756968Y-13340960D02*
X15737920Y-13350484D01*
X15737920Y-13350484D02*
X15680777Y-13350484D01*
X15680777Y-13350484D02*
X15661729Y-13340960D01*
X15661729Y-13340960D02*
X15652206Y-13331436D01*
X15852206Y-13169531D02*
X15861729Y-13160008D01*
X15861729Y-13160008D02*
X15880777Y-13150484D01*
X15880777Y-13150484D02*
X15928396Y-13150484D01*
X15928396Y-13150484D02*
X15947444Y-13160008D01*
X15947444Y-13160008D02*
X15956968Y-13169531D01*
X15956968Y-13169531D02*
X15966491Y-13188579D01*
X15966491Y-13188579D02*
X15966491Y-13207627D01*
X15966491Y-13207627D02*
X15956968Y-13236198D01*
X15956968Y-13236198D02*
X15842682Y-13350484D01*
X15842682Y-13350484D02*
X15966491Y-13350484D01*
X16204587Y-13350484D02*
X16204587Y-13150484D01*
X16290301Y-13350484D02*
X16290301Y-13245722D01*
X16290301Y-13245722D02*
X16280777Y-13226674D01*
X16280777Y-13226674D02*
X16261730Y-13217150D01*
X16261730Y-13217150D02*
X16233158Y-13217150D01*
X16233158Y-13217150D02*
X16214110Y-13226674D01*
X16214110Y-13226674D02*
X16204587Y-13236198D01*
X16414110Y-13350484D02*
X16395063Y-13340960D01*
X16395063Y-13340960D02*
X16385539Y-13331436D01*
X16385539Y-13331436D02*
X16376015Y-13312388D01*
X16376015Y-13312388D02*
X16376015Y-13255246D01*
X16376015Y-13255246D02*
X16385539Y-13236198D01*
X16385539Y-13236198D02*
X16395063Y-13226674D01*
X16395063Y-13226674D02*
X16414110Y-13217150D01*
X16414110Y-13217150D02*
X16442682Y-13217150D01*
X16442682Y-13217150D02*
X16461730Y-13226674D01*
X16461730Y-13226674D02*
X16471253Y-13236198D01*
X16471253Y-13236198D02*
X16480777Y-13255246D01*
X16480777Y-13255246D02*
X16480777Y-13312388D01*
X16480777Y-13312388D02*
X16471253Y-13331436D01*
X16471253Y-13331436D02*
X16461730Y-13340960D01*
X16461730Y-13340960D02*
X16442682Y-13350484D01*
X16442682Y-13350484D02*
X16414110Y-13350484D01*
X16595063Y-13350484D02*
X16576015Y-13340960D01*
X16576015Y-13340960D02*
X16566491Y-13321912D01*
X16566491Y-13321912D02*
X16566491Y-13150484D01*
X16747444Y-13340960D02*
X16728396Y-13350484D01*
X16728396Y-13350484D02*
X16690301Y-13350484D01*
X16690301Y-13350484D02*
X16671253Y-13340960D01*
X16671253Y-13340960D02*
X16661730Y-13321912D01*
X16661730Y-13321912D02*
X16661730Y-13245722D01*
X16661730Y-13245722D02*
X16671253Y-13226674D01*
X16671253Y-13226674D02*
X16690301Y-13217150D01*
X16690301Y-13217150D02*
X16728396Y-13217150D01*
X16728396Y-13217150D02*
X16747444Y-13226674D01*
X16747444Y-13226674D02*
X16756968Y-13245722D01*
X16756968Y-13245722D02*
X16756968Y-13264769D01*
X16756968Y-13264769D02*
X16661730Y-13283817D01*
X16833158Y-13340960D02*
X16852206Y-13350484D01*
X16852206Y-13350484D02*
X16890301Y-13350484D01*
X16890301Y-13350484D02*
X16909349Y-13340960D01*
X16909349Y-13340960D02*
X16918873Y-13321912D01*
X16918873Y-13321912D02*
X16918873Y-13312388D01*
X16918873Y-13312388D02*
X16909349Y-13293341D01*
X16909349Y-13293341D02*
X16890301Y-13283817D01*
X16890301Y-13283817D02*
X16861730Y-13283817D01*
X16861730Y-13283817D02*
X16842682Y-13274293D01*
X16842682Y-13274293D02*
X16833158Y-13255246D01*
X16833158Y-13255246D02*
X16833158Y-13245722D01*
X16833158Y-13245722D02*
X16842682Y-13226674D01*
X16842682Y-13226674D02*
X16861730Y-13217150D01*
X16861730Y-13217150D02*
X16890301Y-13217150D01*
X16890301Y-13217150D02*
X16909349Y-13226674D01*
X16985539Y-13426674D02*
X16995063Y-13417150D01*
X16995063Y-13417150D02*
X17014111Y-13388579D01*
X17014111Y-13388579D02*
X17023634Y-13369531D01*
X17023634Y-13369531D02*
X17033158Y-13340960D01*
X17033158Y-13340960D02*
X17042682Y-13293341D01*
X17042682Y-13293341D02*
X17042682Y-13255246D01*
X17042682Y-13255246D02*
X17033158Y-13207627D01*
X17033158Y-13207627D02*
X17023634Y-13179055D01*
X17023634Y-13179055D02*
X17014111Y-13160008D01*
X17014111Y-13160008D02*
X16995063Y-13131436D01*
X16995063Y-13131436D02*
X16985539Y-13121912D01*
D10*
X11970000Y-13473000D02*
X11970000Y-13573000D01*
X11920000Y-13523000D02*
X12020000Y-13523000D01*
D11*
X12385539Y-13614484D02*
X12271253Y-13614484D01*
X12328396Y-13614484D02*
X12328396Y-13414484D01*
X12328396Y-13414484D02*
X12309348Y-13443055D01*
X12309348Y-13443055D02*
X12290301Y-13462103D01*
X12290301Y-13462103D02*
X12271253Y-13471627D01*
X12480777Y-13604960D02*
X12480777Y-13614484D01*
X12480777Y-13614484D02*
X12471253Y-13633531D01*
X12471253Y-13633531D02*
X12461729Y-13643055D01*
X12604586Y-13414484D02*
X12623634Y-13414484D01*
X12623634Y-13414484D02*
X12642682Y-13424008D01*
X12642682Y-13424008D02*
X12652205Y-13433531D01*
X12652205Y-13433531D02*
X12661729Y-13452579D01*
X12661729Y-13452579D02*
X12671253Y-13490674D01*
X12671253Y-13490674D02*
X12671253Y-13538293D01*
X12671253Y-13538293D02*
X12661729Y-13576388D01*
X12661729Y-13576388D02*
X12652205Y-13595436D01*
X12652205Y-13595436D02*
X12642682Y-13604960D01*
X12642682Y-13604960D02*
X12623634Y-13614484D01*
X12623634Y-13614484D02*
X12604586Y-13614484D01*
X12604586Y-13614484D02*
X12585539Y-13604960D01*
X12585539Y-13604960D02*
X12576015Y-13595436D01*
X12576015Y-13595436D02*
X12566491Y-13576388D01*
X12566491Y-13576388D02*
X12556967Y-13538293D01*
X12556967Y-13538293D02*
X12556967Y-13490674D01*
X12556967Y-13490674D02*
X12566491Y-13452579D01*
X12566491Y-13452579D02*
X12576015Y-13433531D01*
X12576015Y-13433531D02*
X12585539Y-13424008D01*
X12585539Y-13424008D02*
X12604586Y-13414484D01*
X12795062Y-13414484D02*
X12814110Y-13414484D01*
X12814110Y-13414484D02*
X12833158Y-13424008D01*
X12833158Y-13424008D02*
X12842682Y-13433531D01*
X12842682Y-13433531D02*
X12852205Y-13452579D01*
X12852205Y-13452579D02*
X12861729Y-13490674D01*
X12861729Y-13490674D02*
X12861729Y-13538293D01*
X12861729Y-13538293D02*
X12852205Y-13576388D01*
X12852205Y-13576388D02*
X12842682Y-13595436D01*
X12842682Y-13595436D02*
X12833158Y-13604960D01*
X12833158Y-13604960D02*
X12814110Y-13614484D01*
X12814110Y-13614484D02*
X12795062Y-13614484D01*
X12795062Y-13614484D02*
X12776015Y-13604960D01*
X12776015Y-13604960D02*
X12766491Y-13595436D01*
X12766491Y-13595436D02*
X12756967Y-13576388D01*
X12756967Y-13576388D02*
X12747443Y-13538293D01*
X12747443Y-13538293D02*
X12747443Y-13490674D01*
X12747443Y-13490674D02*
X12756967Y-13452579D01*
X12756967Y-13452579D02*
X12766491Y-13433531D01*
X12766491Y-13433531D02*
X12776015Y-13424008D01*
X12776015Y-13424008D02*
X12795062Y-13414484D01*
X12985539Y-13414484D02*
X13004586Y-13414484D01*
X13004586Y-13414484D02*
X13023634Y-13424008D01*
X13023634Y-13424008D02*
X13033158Y-13433531D01*
X13033158Y-13433531D02*
X13042682Y-13452579D01*
X13042682Y-13452579D02*
X13052205Y-13490674D01*
X13052205Y-13490674D02*
X13052205Y-13538293D01*
X13052205Y-13538293D02*
X13042682Y-13576388D01*
X13042682Y-13576388D02*
X13033158Y-13595436D01*
X13033158Y-13595436D02*
X13023634Y-13604960D01*
X13023634Y-13604960D02*
X13004586Y-13614484D01*
X13004586Y-13614484D02*
X12985539Y-13614484D01*
X12985539Y-13614484D02*
X12966491Y-13604960D01*
X12966491Y-13604960D02*
X12956967Y-13595436D01*
X12956967Y-13595436D02*
X12947443Y-13576388D01*
X12947443Y-13576388D02*
X12937920Y-13538293D01*
X12937920Y-13538293D02*
X12937920Y-13490674D01*
X12937920Y-13490674D02*
X12947443Y-13452579D01*
X12947443Y-13452579D02*
X12956967Y-13433531D01*
X12956967Y-13433531D02*
X12966491Y-13424008D01*
X12966491Y-13424008D02*
X12985539Y-13414484D01*
X13137920Y-13614484D02*
X13137920Y-13481150D01*
X13137920Y-13500198D02*
X13147443Y-13490674D01*
X13147443Y-13490674D02*
X13166491Y-13481150D01*
X13166491Y-13481150D02*
X13195063Y-13481150D01*
X13195063Y-13481150D02*
X13214110Y-13490674D01*
X13214110Y-13490674D02*
X13223634Y-13509722D01*
X13223634Y-13509722D02*
X13223634Y-13614484D01*
X13223634Y-13509722D02*
X13233158Y-13490674D01*
X13233158Y-13490674D02*
X13252205Y-13481150D01*
X13252205Y-13481150D02*
X13280777Y-13481150D01*
X13280777Y-13481150D02*
X13299824Y-13490674D01*
X13299824Y-13490674D02*
X13309348Y-13509722D01*
X13309348Y-13509722D02*
X13309348Y-13614484D01*
X13404586Y-13614484D02*
X13404586Y-13481150D01*
X13404586Y-13500198D02*
X13414110Y-13490674D01*
X13414110Y-13490674D02*
X13433158Y-13481150D01*
X13433158Y-13481150D02*
X13461729Y-13481150D01*
X13461729Y-13481150D02*
X13480777Y-13490674D01*
X13480777Y-13490674D02*
X13490301Y-13509722D01*
X13490301Y-13509722D02*
X13490301Y-13614484D01*
X13490301Y-13509722D02*
X13499824Y-13490674D01*
X13499824Y-13490674D02*
X13518872Y-13481150D01*
X13518872Y-13481150D02*
X13547443Y-13481150D01*
X13547443Y-13481150D02*
X13566491Y-13490674D01*
X13566491Y-13490674D02*
X13576015Y-13509722D01*
X13576015Y-13509722D02*
X13576015Y-13614484D01*
X13966491Y-13404960D02*
X13795063Y-13662103D01*
X14223634Y-13414484D02*
X14242682Y-13414484D01*
X14242682Y-13414484D02*
X14261729Y-13424008D01*
X14261729Y-13424008D02*
X14271253Y-13433531D01*
X14271253Y-13433531D02*
X14280777Y-13452579D01*
X14280777Y-13452579D02*
X14290301Y-13490674D01*
X14290301Y-13490674D02*
X14290301Y-13538293D01*
X14290301Y-13538293D02*
X14280777Y-13576388D01*
X14280777Y-13576388D02*
X14271253Y-13595436D01*
X14271253Y-13595436D02*
X14261729Y-13604960D01*
X14261729Y-13604960D02*
X14242682Y-13614484D01*
X14242682Y-13614484D02*
X14223634Y-13614484D01*
X14223634Y-13614484D02*
X14204586Y-13604960D01*
X14204586Y-13604960D02*
X14195063Y-13595436D01*
X14195063Y-13595436D02*
X14185539Y-13576388D01*
X14185539Y-13576388D02*
X14176015Y-13538293D01*
X14176015Y-13538293D02*
X14176015Y-13490674D01*
X14176015Y-13490674D02*
X14185539Y-13452579D01*
X14185539Y-13452579D02*
X14195063Y-13433531D01*
X14195063Y-13433531D02*
X14204586Y-13424008D01*
X14204586Y-13424008D02*
X14223634Y-13414484D01*
X14385539Y-13604960D02*
X14385539Y-13614484D01*
X14385539Y-13614484D02*
X14376015Y-13633531D01*
X14376015Y-13633531D02*
X14366491Y-13643055D01*
X14509348Y-13414484D02*
X14528396Y-13414484D01*
X14528396Y-13414484D02*
X14547444Y-13424008D01*
X14547444Y-13424008D02*
X14556967Y-13433531D01*
X14556967Y-13433531D02*
X14566491Y-13452579D01*
X14566491Y-13452579D02*
X14576015Y-13490674D01*
X14576015Y-13490674D02*
X14576015Y-13538293D01*
X14576015Y-13538293D02*
X14566491Y-13576388D01*
X14566491Y-13576388D02*
X14556967Y-13595436D01*
X14556967Y-13595436D02*
X14547444Y-13604960D01*
X14547444Y-13604960D02*
X14528396Y-13614484D01*
X14528396Y-13614484D02*
X14509348Y-13614484D01*
X14509348Y-13614484D02*
X14490301Y-13604960D01*
X14490301Y-13604960D02*
X14480777Y-13595436D01*
X14480777Y-13595436D02*
X14471253Y-13576388D01*
X14471253Y-13576388D02*
X14461729Y-13538293D01*
X14461729Y-13538293D02*
X14461729Y-13490674D01*
X14461729Y-13490674D02*
X14471253Y-13452579D01*
X14471253Y-13452579D02*
X14480777Y-13433531D01*
X14480777Y-13433531D02*
X14490301Y-13424008D01*
X14490301Y-13424008D02*
X14509348Y-13414484D01*
X14642682Y-13414484D02*
X14766491Y-13414484D01*
X14766491Y-13414484D02*
X14699825Y-13490674D01*
X14699825Y-13490674D02*
X14728396Y-13490674D01*
X14728396Y-13490674D02*
X14747444Y-13500198D01*
X14747444Y-13500198D02*
X14756967Y-13509722D01*
X14756967Y-13509722D02*
X14766491Y-13528769D01*
X14766491Y-13528769D02*
X14766491Y-13576388D01*
X14766491Y-13576388D02*
X14756967Y-13595436D01*
X14756967Y-13595436D02*
X14747444Y-13604960D01*
X14747444Y-13604960D02*
X14728396Y-13614484D01*
X14728396Y-13614484D02*
X14671253Y-13614484D01*
X14671253Y-13614484D02*
X14652206Y-13604960D01*
X14652206Y-13604960D02*
X14642682Y-13595436D01*
X14861729Y-13614484D02*
X14899825Y-13614484D01*
X14899825Y-13614484D02*
X14918872Y-13604960D01*
X14918872Y-13604960D02*
X14928396Y-13595436D01*
X14928396Y-13595436D02*
X14947444Y-13566865D01*
X14947444Y-13566865D02*
X14956967Y-13528769D01*
X14956967Y-13528769D02*
X14956967Y-13452579D01*
X14956967Y-13452579D02*
X14947444Y-13433531D01*
X14947444Y-13433531D02*
X14937920Y-13424008D01*
X14937920Y-13424008D02*
X14918872Y-13414484D01*
X14918872Y-13414484D02*
X14880777Y-13414484D01*
X14880777Y-13414484D02*
X14861729Y-13424008D01*
X14861729Y-13424008D02*
X14852206Y-13433531D01*
X14852206Y-13433531D02*
X14842682Y-13452579D01*
X14842682Y-13452579D02*
X14842682Y-13500198D01*
X14842682Y-13500198D02*
X14852206Y-13519246D01*
X14852206Y-13519246D02*
X14861729Y-13528769D01*
X14861729Y-13528769D02*
X14880777Y-13538293D01*
X14880777Y-13538293D02*
X14918872Y-13538293D01*
X14918872Y-13538293D02*
X14937920Y-13528769D01*
X14937920Y-13528769D02*
X14947444Y-13519246D01*
X14947444Y-13519246D02*
X14956967Y-13500198D01*
X15128396Y-13481150D02*
X15128396Y-13614484D01*
X15080777Y-13404960D02*
X15033158Y-13547817D01*
X15033158Y-13547817D02*
X15156967Y-13547817D01*
X15223634Y-13414484D02*
X15223634Y-13452579D01*
X15299825Y-13414484D02*
X15299825Y-13452579D01*
X15595063Y-13690674D02*
X15585539Y-13681150D01*
X15585539Y-13681150D02*
X15566491Y-13652579D01*
X15566491Y-13652579D02*
X15556968Y-13633531D01*
X15556968Y-13633531D02*
X15547444Y-13604960D01*
X15547444Y-13604960D02*
X15537920Y-13557341D01*
X15537920Y-13557341D02*
X15537920Y-13519246D01*
X15537920Y-13519246D02*
X15547444Y-13471627D01*
X15547444Y-13471627D02*
X15556968Y-13443055D01*
X15556968Y-13443055D02*
X15566491Y-13424008D01*
X15566491Y-13424008D02*
X15585539Y-13395436D01*
X15585539Y-13395436D02*
X15595063Y-13385912D01*
X15661729Y-13433531D02*
X15671253Y-13424008D01*
X15671253Y-13424008D02*
X15690301Y-13414484D01*
X15690301Y-13414484D02*
X15737920Y-13414484D01*
X15737920Y-13414484D02*
X15756968Y-13424008D01*
X15756968Y-13424008D02*
X15766491Y-13433531D01*
X15766491Y-13433531D02*
X15776015Y-13452579D01*
X15776015Y-13452579D02*
X15776015Y-13471627D01*
X15776015Y-13471627D02*
X15766491Y-13500198D01*
X15766491Y-13500198D02*
X15652206Y-13614484D01*
X15652206Y-13614484D02*
X15776015Y-13614484D01*
X15871253Y-13614484D02*
X15909348Y-13614484D01*
X15909348Y-13614484D02*
X15928396Y-13604960D01*
X15928396Y-13604960D02*
X15937920Y-13595436D01*
X15937920Y-13595436D02*
X15956968Y-13566865D01*
X15956968Y-13566865D02*
X15966491Y-13528769D01*
X15966491Y-13528769D02*
X15966491Y-13452579D01*
X15966491Y-13452579D02*
X15956968Y-13433531D01*
X15956968Y-13433531D02*
X15947444Y-13424008D01*
X15947444Y-13424008D02*
X15928396Y-13414484D01*
X15928396Y-13414484D02*
X15890301Y-13414484D01*
X15890301Y-13414484D02*
X15871253Y-13424008D01*
X15871253Y-13424008D02*
X15861729Y-13433531D01*
X15861729Y-13433531D02*
X15852206Y-13452579D01*
X15852206Y-13452579D02*
X15852206Y-13500198D01*
X15852206Y-13500198D02*
X15861729Y-13519246D01*
X15861729Y-13519246D02*
X15871253Y-13528769D01*
X15871253Y-13528769D02*
X15890301Y-13538293D01*
X15890301Y-13538293D02*
X15928396Y-13538293D01*
X15928396Y-13538293D02*
X15947444Y-13528769D01*
X15947444Y-13528769D02*
X15956968Y-13519246D01*
X15956968Y-13519246D02*
X15966491Y-13500198D01*
X16204587Y-13614484D02*
X16204587Y-13414484D01*
X16290301Y-13614484D02*
X16290301Y-13509722D01*
X16290301Y-13509722D02*
X16280777Y-13490674D01*
X16280777Y-13490674D02*
X16261730Y-13481150D01*
X16261730Y-13481150D02*
X16233158Y-13481150D01*
X16233158Y-13481150D02*
X16214110Y-13490674D01*
X16214110Y-13490674D02*
X16204587Y-13500198D01*
X16414110Y-13614484D02*
X16395063Y-13604960D01*
X16395063Y-13604960D02*
X16385539Y-13595436D01*
X16385539Y-13595436D02*
X16376015Y-13576388D01*
X16376015Y-13576388D02*
X16376015Y-13519246D01*
X16376015Y-13519246D02*
X16385539Y-13500198D01*
X16385539Y-13500198D02*
X16395063Y-13490674D01*
X16395063Y-13490674D02*
X16414110Y-13481150D01*
X16414110Y-13481150D02*
X16442682Y-13481150D01*
X16442682Y-13481150D02*
X16461730Y-13490674D01*
X16461730Y-13490674D02*
X16471253Y-13500198D01*
X16471253Y-13500198D02*
X16480777Y-13519246D01*
X16480777Y-13519246D02*
X16480777Y-13576388D01*
X16480777Y-13576388D02*
X16471253Y-13595436D01*
X16471253Y-13595436D02*
X16461730Y-13604960D01*
X16461730Y-13604960D02*
X16442682Y-13614484D01*
X16442682Y-13614484D02*
X16414110Y-13614484D01*
X16595063Y-13614484D02*
X16576015Y-13604960D01*
X16576015Y-13604960D02*
X16566491Y-13585912D01*
X16566491Y-13585912D02*
X16566491Y-13414484D01*
X16747444Y-13604960D02*
X16728396Y-13614484D01*
X16728396Y-13614484D02*
X16690301Y-13614484D01*
X16690301Y-13614484D02*
X16671253Y-13604960D01*
X16671253Y-13604960D02*
X16661730Y-13585912D01*
X16661730Y-13585912D02*
X16661730Y-13509722D01*
X16661730Y-13509722D02*
X16671253Y-13490674D01*
X16671253Y-13490674D02*
X16690301Y-13481150D01*
X16690301Y-13481150D02*
X16728396Y-13481150D01*
X16728396Y-13481150D02*
X16747444Y-13490674D01*
X16747444Y-13490674D02*
X16756968Y-13509722D01*
X16756968Y-13509722D02*
X16756968Y-13528769D01*
X16756968Y-13528769D02*
X16661730Y-13547817D01*
X16833158Y-13604960D02*
X16852206Y-13614484D01*
X16852206Y-13614484D02*
X16890301Y-13614484D01*
X16890301Y-13614484D02*
X16909349Y-13604960D01*
X16909349Y-13604960D02*
X16918873Y-13585912D01*
X16918873Y-13585912D02*
X16918873Y-13576388D01*
X16918873Y-13576388D02*
X16909349Y-13557341D01*
X16909349Y-13557341D02*
X16890301Y-13547817D01*
X16890301Y-13547817D02*
X16861730Y-13547817D01*
X16861730Y-13547817D02*
X16842682Y-13538293D01*
X16842682Y-13538293D02*
X16833158Y-13519246D01*
X16833158Y-13519246D02*
X16833158Y-13509722D01*
X16833158Y-13509722D02*
X16842682Y-13490674D01*
X16842682Y-13490674D02*
X16861730Y-13481150D01*
X16861730Y-13481150D02*
X16890301Y-13481150D01*
X16890301Y-13481150D02*
X16909349Y-13490674D01*
X16985539Y-13690674D02*
X16995063Y-13681150D01*
X16995063Y-13681150D02*
X17014111Y-13652579D01*
X17014111Y-13652579D02*
X17023634Y-13633531D01*
X17023634Y-13633531D02*
X17033158Y-13604960D01*
X17033158Y-13604960D02*
X17042682Y-13557341D01*
X17042682Y-13557341D02*
X17042682Y-13519246D01*
X17042682Y-13519246D02*
X17033158Y-13471627D01*
X17033158Y-13471627D02*
X17023634Y-13443055D01*
X17023634Y-13443055D02*
X17014111Y-13424008D01*
X17014111Y-13424008D02*
X16995063Y-13395436D01*
X16995063Y-13395436D02*
X16985539Y-13385912D01*
X11990711Y-13857711D02*
X11990711Y-13716289D01*
X11849289Y-13716289D01*
X11849289Y-13857711D01*
X11990711Y-13857711D01*
X12261729Y-13678484D02*
X12385539Y-13678484D01*
X12385539Y-13678484D02*
X12318872Y-13754674D01*
X12318872Y-13754674D02*
X12347443Y-13754674D01*
X12347443Y-13754674D02*
X12366491Y-13764198D01*
X12366491Y-13764198D02*
X12376015Y-13773722D01*
X12376015Y-13773722D02*
X12385539Y-13792769D01*
X12385539Y-13792769D02*
X12385539Y-13840388D01*
X12385539Y-13840388D02*
X12376015Y-13859436D01*
X12376015Y-13859436D02*
X12366491Y-13868960D01*
X12366491Y-13868960D02*
X12347443Y-13878484D01*
X12347443Y-13878484D02*
X12290301Y-13878484D01*
X12290301Y-13878484D02*
X12271253Y-13868960D01*
X12271253Y-13868960D02*
X12261729Y-13859436D01*
X12480777Y-13868960D02*
X12480777Y-13878484D01*
X12480777Y-13878484D02*
X12471253Y-13897531D01*
X12471253Y-13897531D02*
X12461729Y-13907055D01*
X12556967Y-13697531D02*
X12566491Y-13688008D01*
X12566491Y-13688008D02*
X12585539Y-13678484D01*
X12585539Y-13678484D02*
X12633158Y-13678484D01*
X12633158Y-13678484D02*
X12652205Y-13688008D01*
X12652205Y-13688008D02*
X12661729Y-13697531D01*
X12661729Y-13697531D02*
X12671253Y-13716579D01*
X12671253Y-13716579D02*
X12671253Y-13735627D01*
X12671253Y-13735627D02*
X12661729Y-13764198D01*
X12661729Y-13764198D02*
X12547443Y-13878484D01*
X12547443Y-13878484D02*
X12671253Y-13878484D01*
X12795062Y-13678484D02*
X12814110Y-13678484D01*
X12814110Y-13678484D02*
X12833158Y-13688008D01*
X12833158Y-13688008D02*
X12842682Y-13697531D01*
X12842682Y-13697531D02*
X12852205Y-13716579D01*
X12852205Y-13716579D02*
X12861729Y-13754674D01*
X12861729Y-13754674D02*
X12861729Y-13802293D01*
X12861729Y-13802293D02*
X12852205Y-13840388D01*
X12852205Y-13840388D02*
X12842682Y-13859436D01*
X12842682Y-13859436D02*
X12833158Y-13868960D01*
X12833158Y-13868960D02*
X12814110Y-13878484D01*
X12814110Y-13878484D02*
X12795062Y-13878484D01*
X12795062Y-13878484D02*
X12776015Y-13868960D01*
X12776015Y-13868960D02*
X12766491Y-13859436D01*
X12766491Y-13859436D02*
X12756967Y-13840388D01*
X12756967Y-13840388D02*
X12747443Y-13802293D01*
X12747443Y-13802293D02*
X12747443Y-13754674D01*
X12747443Y-13754674D02*
X12756967Y-13716579D01*
X12756967Y-13716579D02*
X12766491Y-13697531D01*
X12766491Y-13697531D02*
X12776015Y-13688008D01*
X12776015Y-13688008D02*
X12795062Y-13678484D01*
X12985539Y-13678484D02*
X13004586Y-13678484D01*
X13004586Y-13678484D02*
X13023634Y-13688008D01*
X13023634Y-13688008D02*
X13033158Y-13697531D01*
X13033158Y-13697531D02*
X13042682Y-13716579D01*
X13042682Y-13716579D02*
X13052205Y-13754674D01*
X13052205Y-13754674D02*
X13052205Y-13802293D01*
X13052205Y-13802293D02*
X13042682Y-13840388D01*
X13042682Y-13840388D02*
X13033158Y-13859436D01*
X13033158Y-13859436D02*
X13023634Y-13868960D01*
X13023634Y-13868960D02*
X13004586Y-13878484D01*
X13004586Y-13878484D02*
X12985539Y-13878484D01*
X12985539Y-13878484D02*
X12966491Y-13868960D01*
X12966491Y-13868960D02*
X12956967Y-13859436D01*
X12956967Y-13859436D02*
X12947443Y-13840388D01*
X12947443Y-13840388D02*
X12937920Y-13802293D01*
X12937920Y-13802293D02*
X12937920Y-13754674D01*
X12937920Y-13754674D02*
X12947443Y-13716579D01*
X12947443Y-13716579D02*
X12956967Y-13697531D01*
X12956967Y-13697531D02*
X12966491Y-13688008D01*
X12966491Y-13688008D02*
X12985539Y-13678484D01*
X13137920Y-13878484D02*
X13137920Y-13745150D01*
X13137920Y-13764198D02*
X13147443Y-13754674D01*
X13147443Y-13754674D02*
X13166491Y-13745150D01*
X13166491Y-13745150D02*
X13195063Y-13745150D01*
X13195063Y-13745150D02*
X13214110Y-13754674D01*
X13214110Y-13754674D02*
X13223634Y-13773722D01*
X13223634Y-13773722D02*
X13223634Y-13878484D01*
X13223634Y-13773722D02*
X13233158Y-13754674D01*
X13233158Y-13754674D02*
X13252205Y-13745150D01*
X13252205Y-13745150D02*
X13280777Y-13745150D01*
X13280777Y-13745150D02*
X13299824Y-13754674D01*
X13299824Y-13754674D02*
X13309348Y-13773722D01*
X13309348Y-13773722D02*
X13309348Y-13878484D01*
X13404586Y-13878484D02*
X13404586Y-13745150D01*
X13404586Y-13764198D02*
X13414110Y-13754674D01*
X13414110Y-13754674D02*
X13433158Y-13745150D01*
X13433158Y-13745150D02*
X13461729Y-13745150D01*
X13461729Y-13745150D02*
X13480777Y-13754674D01*
X13480777Y-13754674D02*
X13490301Y-13773722D01*
X13490301Y-13773722D02*
X13490301Y-13878484D01*
X13490301Y-13773722D02*
X13499824Y-13754674D01*
X13499824Y-13754674D02*
X13518872Y-13745150D01*
X13518872Y-13745150D02*
X13547443Y-13745150D01*
X13547443Y-13745150D02*
X13566491Y-13754674D01*
X13566491Y-13754674D02*
X13576015Y-13773722D01*
X13576015Y-13773722D02*
X13576015Y-13878484D01*
X13966491Y-13668960D02*
X13795063Y-13926103D01*
X14223634Y-13678484D02*
X14242682Y-13678484D01*
X14242682Y-13678484D02*
X14261729Y-13688008D01*
X14261729Y-13688008D02*
X14271253Y-13697531D01*
X14271253Y-13697531D02*
X14280777Y-13716579D01*
X14280777Y-13716579D02*
X14290301Y-13754674D01*
X14290301Y-13754674D02*
X14290301Y-13802293D01*
X14290301Y-13802293D02*
X14280777Y-13840388D01*
X14280777Y-13840388D02*
X14271253Y-13859436D01*
X14271253Y-13859436D02*
X14261729Y-13868960D01*
X14261729Y-13868960D02*
X14242682Y-13878484D01*
X14242682Y-13878484D02*
X14223634Y-13878484D01*
X14223634Y-13878484D02*
X14204586Y-13868960D01*
X14204586Y-13868960D02*
X14195063Y-13859436D01*
X14195063Y-13859436D02*
X14185539Y-13840388D01*
X14185539Y-13840388D02*
X14176015Y-13802293D01*
X14176015Y-13802293D02*
X14176015Y-13754674D01*
X14176015Y-13754674D02*
X14185539Y-13716579D01*
X14185539Y-13716579D02*
X14195063Y-13697531D01*
X14195063Y-13697531D02*
X14204586Y-13688008D01*
X14204586Y-13688008D02*
X14223634Y-13678484D01*
X14385539Y-13868960D02*
X14385539Y-13878484D01*
X14385539Y-13878484D02*
X14376015Y-13897531D01*
X14376015Y-13897531D02*
X14366491Y-13907055D01*
X14576015Y-13878484D02*
X14461729Y-13878484D01*
X14518872Y-13878484D02*
X14518872Y-13678484D01*
X14518872Y-13678484D02*
X14499825Y-13707055D01*
X14499825Y-13707055D02*
X14480777Y-13726103D01*
X14480777Y-13726103D02*
X14461729Y-13735627D01*
X14652206Y-13697531D02*
X14661729Y-13688008D01*
X14661729Y-13688008D02*
X14680777Y-13678484D01*
X14680777Y-13678484D02*
X14728396Y-13678484D01*
X14728396Y-13678484D02*
X14747444Y-13688008D01*
X14747444Y-13688008D02*
X14756967Y-13697531D01*
X14756967Y-13697531D02*
X14766491Y-13716579D01*
X14766491Y-13716579D02*
X14766491Y-13735627D01*
X14766491Y-13735627D02*
X14756967Y-13764198D01*
X14756967Y-13764198D02*
X14642682Y-13878484D01*
X14642682Y-13878484D02*
X14766491Y-13878484D01*
X14937920Y-13678484D02*
X14899825Y-13678484D01*
X14899825Y-13678484D02*
X14880777Y-13688008D01*
X14880777Y-13688008D02*
X14871253Y-13697531D01*
X14871253Y-13697531D02*
X14852206Y-13726103D01*
X14852206Y-13726103D02*
X14842682Y-13764198D01*
X14842682Y-13764198D02*
X14842682Y-13840388D01*
X14842682Y-13840388D02*
X14852206Y-13859436D01*
X14852206Y-13859436D02*
X14861729Y-13868960D01*
X14861729Y-13868960D02*
X14880777Y-13878484D01*
X14880777Y-13878484D02*
X14918872Y-13878484D01*
X14918872Y-13878484D02*
X14937920Y-13868960D01*
X14937920Y-13868960D02*
X14947444Y-13859436D01*
X14947444Y-13859436D02*
X14956967Y-13840388D01*
X14956967Y-13840388D02*
X14956967Y-13792769D01*
X14956967Y-13792769D02*
X14947444Y-13773722D01*
X14947444Y-13773722D02*
X14937920Y-13764198D01*
X14937920Y-13764198D02*
X14918872Y-13754674D01*
X14918872Y-13754674D02*
X14880777Y-13754674D01*
X14880777Y-13754674D02*
X14861729Y-13764198D01*
X14861729Y-13764198D02*
X14852206Y-13773722D01*
X14852206Y-13773722D02*
X14842682Y-13792769D01*
X15080777Y-13678484D02*
X15099825Y-13678484D01*
X15099825Y-13678484D02*
X15118872Y-13688008D01*
X15118872Y-13688008D02*
X15128396Y-13697531D01*
X15128396Y-13697531D02*
X15137920Y-13716579D01*
X15137920Y-13716579D02*
X15147444Y-13754674D01*
X15147444Y-13754674D02*
X15147444Y-13802293D01*
X15147444Y-13802293D02*
X15137920Y-13840388D01*
X15137920Y-13840388D02*
X15128396Y-13859436D01*
X15128396Y-13859436D02*
X15118872Y-13868960D01*
X15118872Y-13868960D02*
X15099825Y-13878484D01*
X15099825Y-13878484D02*
X15080777Y-13878484D01*
X15080777Y-13878484D02*
X15061729Y-13868960D01*
X15061729Y-13868960D02*
X15052206Y-13859436D01*
X15052206Y-13859436D02*
X15042682Y-13840388D01*
X15042682Y-13840388D02*
X15033158Y-13802293D01*
X15033158Y-13802293D02*
X15033158Y-13754674D01*
X15033158Y-13754674D02*
X15042682Y-13716579D01*
X15042682Y-13716579D02*
X15052206Y-13697531D01*
X15052206Y-13697531D02*
X15061729Y-13688008D01*
X15061729Y-13688008D02*
X15080777Y-13678484D01*
X15223634Y-13678484D02*
X15223634Y-13716579D01*
X15299825Y-13678484D02*
X15299825Y-13716579D01*
X15595063Y-13954674D02*
X15585539Y-13945150D01*
X15585539Y-13945150D02*
X15566491Y-13916579D01*
X15566491Y-13916579D02*
X15556968Y-13897531D01*
X15556968Y-13897531D02*
X15547444Y-13868960D01*
X15547444Y-13868960D02*
X15537920Y-13821341D01*
X15537920Y-13821341D02*
X15537920Y-13783246D01*
X15537920Y-13783246D02*
X15547444Y-13735627D01*
X15547444Y-13735627D02*
X15556968Y-13707055D01*
X15556968Y-13707055D02*
X15566491Y-13688008D01*
X15566491Y-13688008D02*
X15585539Y-13659436D01*
X15585539Y-13659436D02*
X15595063Y-13649912D01*
X15756968Y-13745150D02*
X15756968Y-13878484D01*
X15709348Y-13668960D02*
X15661729Y-13811817D01*
X15661729Y-13811817D02*
X15785539Y-13811817D01*
X16014110Y-13878484D02*
X16014110Y-13678484D01*
X16099825Y-13878484D02*
X16099825Y-13773722D01*
X16099825Y-13773722D02*
X16090301Y-13754674D01*
X16090301Y-13754674D02*
X16071253Y-13745150D01*
X16071253Y-13745150D02*
X16042682Y-13745150D01*
X16042682Y-13745150D02*
X16023634Y-13754674D01*
X16023634Y-13754674D02*
X16014110Y-13764198D01*
X16223634Y-13878484D02*
X16204587Y-13868960D01*
X16204587Y-13868960D02*
X16195063Y-13859436D01*
X16195063Y-13859436D02*
X16185539Y-13840388D01*
X16185539Y-13840388D02*
X16185539Y-13783246D01*
X16185539Y-13783246D02*
X16195063Y-13764198D01*
X16195063Y-13764198D02*
X16204587Y-13754674D01*
X16204587Y-13754674D02*
X16223634Y-13745150D01*
X16223634Y-13745150D02*
X16252206Y-13745150D01*
X16252206Y-13745150D02*
X16271253Y-13754674D01*
X16271253Y-13754674D02*
X16280777Y-13764198D01*
X16280777Y-13764198D02*
X16290301Y-13783246D01*
X16290301Y-13783246D02*
X16290301Y-13840388D01*
X16290301Y-13840388D02*
X16280777Y-13859436D01*
X16280777Y-13859436D02*
X16271253Y-13868960D01*
X16271253Y-13868960D02*
X16252206Y-13878484D01*
X16252206Y-13878484D02*
X16223634Y-13878484D01*
X16404587Y-13878484D02*
X16385539Y-13868960D01*
X16385539Y-13868960D02*
X16376015Y-13849912D01*
X16376015Y-13849912D02*
X16376015Y-13678484D01*
X16556968Y-13868960D02*
X16537920Y-13878484D01*
X16537920Y-13878484D02*
X16499825Y-13878484D01*
X16499825Y-13878484D02*
X16480777Y-13868960D01*
X16480777Y-13868960D02*
X16471253Y-13849912D01*
X16471253Y-13849912D02*
X16471253Y-13773722D01*
X16471253Y-13773722D02*
X16480777Y-13754674D01*
X16480777Y-13754674D02*
X16499825Y-13745150D01*
X16499825Y-13745150D02*
X16537920Y-13745150D01*
X16537920Y-13745150D02*
X16556968Y-13754674D01*
X16556968Y-13754674D02*
X16566491Y-13773722D01*
X16566491Y-13773722D02*
X16566491Y-13792769D01*
X16566491Y-13792769D02*
X16471253Y-13811817D01*
X16642682Y-13868960D02*
X16661730Y-13878484D01*
X16661730Y-13878484D02*
X16699825Y-13878484D01*
X16699825Y-13878484D02*
X16718872Y-13868960D01*
X16718872Y-13868960D02*
X16728396Y-13849912D01*
X16728396Y-13849912D02*
X16728396Y-13840388D01*
X16728396Y-13840388D02*
X16718872Y-13821341D01*
X16718872Y-13821341D02*
X16699825Y-13811817D01*
X16699825Y-13811817D02*
X16671253Y-13811817D01*
X16671253Y-13811817D02*
X16652206Y-13802293D01*
X16652206Y-13802293D02*
X16642682Y-13783246D01*
X16642682Y-13783246D02*
X16642682Y-13773722D01*
X16642682Y-13773722D02*
X16652206Y-13754674D01*
X16652206Y-13754674D02*
X16671253Y-13745150D01*
X16671253Y-13745150D02*
X16699825Y-13745150D01*
X16699825Y-13745150D02*
X16718872Y-13754674D01*
X16795063Y-13954674D02*
X16804587Y-13945150D01*
X16804587Y-13945150D02*
X16823634Y-13916579D01*
X16823634Y-13916579D02*
X16833158Y-13897531D01*
X16833158Y-13897531D02*
X16842682Y-13868960D01*
X16842682Y-13868960D02*
X16852206Y-13821341D01*
X16852206Y-13821341D02*
X16852206Y-13783246D01*
X16852206Y-13783246D02*
X16842682Y-13735627D01*
X16842682Y-13735627D02*
X16833158Y-13707055D01*
X16833158Y-13707055D02*
X16823634Y-13688008D01*
X16823634Y-13688008D02*
X16804587Y-13659436D01*
X16804587Y-13659436D02*
X16795063Y-13649912D01*
M02*
