M48
; DRILL file {KiCad 8.0.6} date 2024-11-11T23:30:30+0700
; FORMAT={-:-/ absolute / inch / decimal}
; #@! TF.CreationDate,2024-11-11T23:30:30+07:00
; #@! TF.GenerationSoftware,Kicad,Pcbnew,8.0.6
; #@! TF.FileFunction,Plated,1,2,PTH
FMAT,2
INCH
; #@! TA.AperFunction,Plated,PTH,ViaDrill
T1C0.0157
; #@! TA.AperFunction,Plated,PTH,ViaDrill
T2C0.0197
; #@! TA.AperFunction,Plated,PTH,ComponentDrill
T3C0.0394
%
G90
G05
T1
X0.0394Y0.8169
X0.0394Y0.6496
X0.0394Y0.187
X0.0394Y0.0492
X0.0787Y0.7776
X0.0886Y0.6496
X0.1673Y0.5315
X0.2067Y0.689
X0.2165Y0.4134
X0.2165Y0.315
X0.2953Y0.5315
X0.3445Y0.4134
X0.4626Y0.6299
X0.4724Y0.5315
X0.502Y0.4134
X0.502Y0.315
X0.6496Y0.5512
X0.6496Y0.4134
X0.6496Y0.2953
X0.6791Y0.8169
X0.7677Y0.8169
X0.7677Y0.6594
X0.7677Y0.4823
X0.7677Y0.315
X0.7677Y0.1673
X1.1122Y0.6693
X1.1516Y0.8465
X1.1713Y0.0197
X1.1811Y0.2165
X1.2303Y0.8465
X1.2402Y0.0197
X1.2697Y0.2165
X1.2697Y0.1181
X1.2992Y0.0709
X1.3642Y0.4626
X1.3976Y0.6201
X1.3996Y0.4213
X1.4075Y0.7441
X1.4075Y0.7028
X1.437Y0.6594
X1.4449Y0.5472
X1.4469Y0.3642
X1.4469Y0.3248
X1.4469Y0.2854
X1.4469Y0.2461
X1.4646Y0.0846
X1.4882Y0.5827
X1.4882Y0.5197
X1.502Y0.7697
X1.5335Y0.437
X1.5773Y0.4316
X1.6024Y0.1831
X1.6142Y0.2953
X1.6437Y0.2657
X1.6732Y0.2953
X1.6732Y0.2362
X1.7067Y0.7205
X1.7106Y0.628
X1.7165Y0.8287
X1.7165Y0.1634
X1.7215Y0.5374
X1.7362Y0.4341
X1.7854Y0.1634
X1.7923Y0.4341
X1.8602Y0.2756
X1.8602Y0.2362
X1.8602Y0.1969
X1.8602Y0.1575
X1.876Y0.7677
X1.9055Y0.5866
X1.9183Y0.6437
X1.9183Y0.5335
X1.9183Y0.2343
X1.9183Y0.124
X1.9587Y0.4429
X1.9764Y0.2815
X2.0118Y0.7244
X2.0177Y0.6102
X2.0177Y0.561
X2.0177Y0.1969
X2.0177Y0.1476
X2.0276Y0.4429
X2.0669Y0.6102
X2.0669Y0.561
X2.0669Y0.1969
X2.0669Y0.1476
X2.1063Y0.4429
X2.1555Y0.4429
X2.1703Y0.1713
X2.2244Y0.1181
X2.2539Y0.4429
X2.2736Y0.1181
X2.2933Y0.4429
X2.3228Y0.2953
X2.3386Y0.3602
X2.3425Y0.7874
X2.3819Y0.1142
X2.3917Y0.7283
X2.3917Y0.374
X2.3917Y0.2992
X2.4311Y0.3346
X2.4311Y0.2559
X2.4311Y0.1142
X2.5Y0.2559
X2.6181Y0.687
X2.6476Y0.7972
X2.6476Y0.2953
X2.6555Y0.689
X2.6772Y0.2657
X2.687Y0.7579
X2.7165Y0.5413
X2.7165Y0.502
X2.7165Y0.4626
X2.7165Y0.2264
X2.7165Y0.1772
X2.7165Y0.128
X2.7165Y0.0787
X2.7657Y0.0787
X2.8248Y0.3543
X2.8248Y0.0787
X2.8839Y0.3543
X2.8839Y0.0787
X2.9429Y0.6594
X2.9429Y0.6004
X2.9429Y0.5413
X2.9429Y0.1476
X2.9449Y0.0787
X2.9823Y0.5118
X3.002Y0.6594
X3.061Y0.6594
X3.061Y0.5118
X3.1201Y0.6594
X3.1201Y0.4823
X3.1496Y0.4528
X3.1791Y0.6594
X3.1791Y0.6004
X3.1791Y0.5413
X3.1791Y0.4921
X3.185Y0.3189
X3.185Y0.2638
X3.185Y0.2185
X3.2087Y0.1457
X3.2087Y0.0295
X3.2579Y0.1457
X3.2579Y0.0295
X3.2972Y0.7421
X3.3071Y0.1457
X3.3071Y0.0295
X3.3563Y0.1457
X3.3563Y0.0295
X3.3839Y0.7421
X3.4055Y0.1457
X3.4055Y0.0591
T2
X2.1811Y0.5866
T3
X0.4102Y0.7874
X0.4102Y0.0787
X0.5102Y0.7874
X0.5102Y0.0787
X0.6102Y0.7874
X1.0925Y0.7709
X1.0925Y0.5709
X1.0925Y0.4709
X1.0925Y0.3709
X1.0925Y0.2709
X1.0925Y0.1709
X1.0925Y0.0709
X1.1925Y0.7709
X3.0185Y0.7874
X3.0185Y0.0787
X3.1185Y0.7874
X3.1185Y0.0787
X3.2185Y0.7874
X3.3366Y0.4429
M30
