%TF.GenerationSoftware,KiCad,Pcbnew,8.0.6*%
%TF.CreationDate,2024-11-11T23:30:30+07:00*%
%TF.ProjectId,panel,70616e65-6c2e-46b6-9963-61645f706362,rev?*%
%TF.SameCoordinates,PX6b0cc90PY5b8d800*%
%TF.FileFunction,Legend,Bot*%
%TF.FilePolarity,Positive*%
%FSLAX46Y46*%
G04 Gerber Fmt 4.6, Leading zero omitted, Abs format (unit mm)*
G04 Created by KiCad (PCBNEW 8.0.6) date 2024-11-11 23:30:30*
%MOMM*%
%LPD*%
G01*
G04 APERTURE LIST*
%ADD10C,0.150000*%
%ADD11C,0.200000*%
%ADD12C,0.000000*%
%ADD13C,0.120000*%
%ADD14R,1.700000X1.700000*%
%ADD15O,1.700000X1.700000*%
%ADD16C,2.000000*%
%ADD17C,0.500000*%
%ADD18R,4.900000X4.800000*%
G04 APERTURE END LIST*
D10*
G36*
X26843399Y1223816D02*
G01*
X24117651Y1223816D01*
X24117651Y2178325D01*
X24206540Y2178325D01*
X24209800Y2163988D01*
X24476466Y1363988D01*
X24482460Y1350562D01*
X24485971Y1346514D01*
X24488367Y1341722D01*
X24495471Y1335560D01*
X24501634Y1328455D01*
X24506426Y1326059D01*
X24510474Y1322548D01*
X24519393Y1319575D01*
X24527807Y1315368D01*
X24533154Y1314989D01*
X24538237Y1313294D01*
X24547614Y1313961D01*
X24556997Y1313294D01*
X24562082Y1314990D01*
X24567427Y1315369D01*
X24575836Y1319574D01*
X24584760Y1322548D01*
X24588808Y1326060D01*
X24593600Y1328455D01*
X24599759Y1335558D01*
X24606867Y1341721D01*
X24609264Y1346516D01*
X24612774Y1350562D01*
X24618768Y1363988D01*
X24740959Y1730562D01*
X24967856Y1730562D01*
X24967856Y1540086D01*
X24969297Y1525454D01*
X24970328Y1522965D01*
X24970519Y1520277D01*
X24975774Y1506545D01*
X25013869Y1430355D01*
X25017832Y1424059D01*
X25018590Y1422229D01*
X25020279Y1420171D01*
X25021701Y1417912D01*
X25023199Y1416613D01*
X25027917Y1410864D01*
X25066012Y1372768D01*
X25071763Y1368048D01*
X25073062Y1366550D01*
X25075317Y1365131D01*
X25077377Y1363440D01*
X25079207Y1362682D01*
X25085505Y1358718D01*
X25161696Y1320623D01*
X25175428Y1315368D01*
X25178115Y1315178D01*
X25180605Y1314146D01*
X25195237Y1312705D01*
X25423808Y1312705D01*
X25438440Y1314146D01*
X25440929Y1315178D01*
X25443617Y1315368D01*
X25457349Y1320623D01*
X25533540Y1358718D01*
X25539839Y1362683D01*
X25541667Y1363440D01*
X25543723Y1365128D01*
X25545983Y1366550D01*
X25547283Y1368050D01*
X25553033Y1372768D01*
X25591128Y1410864D01*
X25600455Y1422229D01*
X25607994Y1440430D01*
X25731201Y1440430D01*
X25731201Y1411168D01*
X25737034Y1397086D01*
X25742400Y1384132D01*
X25751727Y1372767D01*
X25789822Y1334672D01*
X25801187Y1325345D01*
X25828223Y1314146D01*
X25857487Y1314146D01*
X25877771Y1322548D01*
X25884522Y1325344D01*
X25895887Y1334671D01*
X25933983Y1372766D01*
X25943311Y1384131D01*
X25943312Y1384132D01*
X25954510Y1411168D01*
X25954510Y1440431D01*
X25943312Y1467468D01*
X25933984Y1478833D01*
X25895888Y1516929D01*
X25884523Y1526256D01*
X25884522Y1526257D01*
X25873323Y1530896D01*
X25857487Y1537455D01*
X25857485Y1537455D01*
X25828222Y1537455D01*
X25801186Y1526256D01*
X25789821Y1516928D01*
X25751726Y1478832D01*
X25742399Y1467467D01*
X25742010Y1466527D01*
X25731329Y1440738D01*
X25731201Y1440430D01*
X25607994Y1440430D01*
X25611653Y1449265D01*
X25611653Y1478528D01*
X25600454Y1505564D01*
X25579761Y1526257D01*
X25552724Y1537455D01*
X25523461Y1537455D01*
X25496425Y1526256D01*
X25485060Y1516928D01*
X25455571Y1487439D01*
X25406103Y1462705D01*
X25212942Y1462705D01*
X25163473Y1487439D01*
X25142590Y1508323D01*
X25117856Y1557791D01*
X25117856Y1712858D01*
X25126708Y1730562D01*
X26110713Y1730562D01*
X26110713Y1540086D01*
X26112154Y1525454D01*
X26113185Y1522965D01*
X26113376Y1520277D01*
X26118631Y1506545D01*
X26156726Y1430355D01*
X26160689Y1424059D01*
X26161447Y1422229D01*
X26163136Y1420171D01*
X26164558Y1417912D01*
X26166056Y1416613D01*
X26170774Y1410864D01*
X26208869Y1372768D01*
X26214620Y1368048D01*
X26215919Y1366550D01*
X26218174Y1365131D01*
X26220234Y1363440D01*
X26222064Y1362682D01*
X26228362Y1358718D01*
X26304553Y1320623D01*
X26318285Y1315368D01*
X26320972Y1315178D01*
X26323462Y1314146D01*
X26338094Y1312705D01*
X26566665Y1312705D01*
X26581297Y1314146D01*
X26583786Y1315178D01*
X26586474Y1315368D01*
X26600206Y1320623D01*
X26676397Y1358718D01*
X26682696Y1362683D01*
X26684524Y1363440D01*
X26686580Y1365128D01*
X26688840Y1366550D01*
X26690140Y1368050D01*
X26695890Y1372768D01*
X26733985Y1410864D01*
X26743312Y1422229D01*
X26754510Y1449265D01*
X26754510Y1478528D01*
X26743311Y1505564D01*
X26722618Y1526257D01*
X26695581Y1537455D01*
X26666318Y1537455D01*
X26639282Y1526256D01*
X26627917Y1516928D01*
X26598428Y1487439D01*
X26548960Y1462705D01*
X26355799Y1462705D01*
X26306330Y1487439D01*
X26285447Y1508323D01*
X26260713Y1557791D01*
X26260713Y1712858D01*
X26285447Y1762327D01*
X26306329Y1783209D01*
X26355799Y1807943D01*
X26452379Y1807943D01*
X26460111Y1808705D01*
X26462085Y1808573D01*
X26463444Y1809033D01*
X26467011Y1809384D01*
X26478262Y1814045D01*
X26489806Y1817949D01*
X26491710Y1819615D01*
X26494047Y1820583D01*
X26502657Y1829194D01*
X26511830Y1837219D01*
X26512952Y1839489D01*
X26514739Y1841275D01*
X26519397Y1852523D01*
X26524802Y1863450D01*
X26524970Y1865975D01*
X26525938Y1868311D01*
X26525938Y1880487D01*
X26526749Y1892649D01*
X26525938Y1895047D01*
X26525938Y1897575D01*
X26521277Y1908827D01*
X26517373Y1920370D01*
X26515287Y1923288D01*
X26514739Y1924611D01*
X26513343Y1926007D01*
X26508823Y1932330D01*
X26350995Y2112705D01*
X26680951Y2112705D01*
X26695583Y2114146D01*
X26722619Y2125345D01*
X26743311Y2146037D01*
X26754510Y2173073D01*
X26754510Y2202337D01*
X26743311Y2229373D01*
X26722619Y2250065D01*
X26695583Y2261264D01*
X26680951Y2262705D01*
X26185713Y2262705D01*
X26177974Y2261943D01*
X26176007Y2262074D01*
X26174651Y2261616D01*
X26171081Y2261264D01*
X26159823Y2256601D01*
X26148286Y2252699D01*
X26146381Y2251034D01*
X26144045Y2250065D01*
X26135434Y2241455D01*
X26126262Y2233429D01*
X26125139Y2231160D01*
X26123353Y2229373D01*
X26118692Y2218123D01*
X26113290Y2207197D01*
X26113121Y2204674D01*
X26112154Y2202337D01*
X26112154Y2190153D01*
X26111344Y2177999D01*
X26112154Y2175604D01*
X26112154Y2173073D01*
X26116817Y2161816D01*
X26120719Y2150278D01*
X26122804Y2147361D01*
X26123353Y2146037D01*
X26124748Y2144642D01*
X26129270Y2138317D01*
X26297229Y1946364D01*
X26228362Y1911930D01*
X26222062Y1907966D01*
X26220235Y1907208D01*
X26218178Y1905520D01*
X26215919Y1904098D01*
X26214619Y1902600D01*
X26208870Y1897881D01*
X26170775Y1859786D01*
X26166056Y1854037D01*
X26164558Y1852737D01*
X26163136Y1850478D01*
X26161448Y1848421D01*
X26160690Y1846594D01*
X26156726Y1840294D01*
X26118631Y1764103D01*
X26113376Y1750371D01*
X26113185Y1747684D01*
X26112154Y1745194D01*
X26110713Y1730562D01*
X25126708Y1730562D01*
X25142590Y1762327D01*
X25163472Y1783209D01*
X25212942Y1807943D01*
X25309522Y1807943D01*
X25317254Y1808705D01*
X25319228Y1808573D01*
X25320587Y1809033D01*
X25324154Y1809384D01*
X25335405Y1814045D01*
X25346949Y1817949D01*
X25348853Y1819615D01*
X25351190Y1820583D01*
X25359800Y1829194D01*
X25368973Y1837219D01*
X25370095Y1839489D01*
X25371882Y1841275D01*
X25376540Y1852523D01*
X25381945Y1863450D01*
X25382113Y1865975D01*
X25383081Y1868311D01*
X25383081Y1880487D01*
X25383892Y1892649D01*
X25383081Y1895047D01*
X25383081Y1897575D01*
X25378420Y1908827D01*
X25374516Y1920370D01*
X25372430Y1923288D01*
X25371882Y1924611D01*
X25370486Y1926007D01*
X25365966Y1932330D01*
X25208138Y2112705D01*
X25538094Y2112705D01*
X25552726Y2114146D01*
X25579762Y2125345D01*
X25600454Y2146037D01*
X25611653Y2173073D01*
X25611653Y2202337D01*
X25600454Y2229373D01*
X25579762Y2250065D01*
X25552726Y2261264D01*
X25538094Y2262705D01*
X25042856Y2262705D01*
X25035117Y2261943D01*
X25033150Y2262074D01*
X25031794Y2261616D01*
X25028224Y2261264D01*
X25016966Y2256601D01*
X25005429Y2252699D01*
X25003524Y2251034D01*
X25001188Y2250065D01*
X24992577Y2241455D01*
X24983405Y2233429D01*
X24982282Y2231160D01*
X24980496Y2229373D01*
X24975835Y2218123D01*
X24970433Y2207197D01*
X24970264Y2204674D01*
X24969297Y2202337D01*
X24969297Y2190153D01*
X24968487Y2177999D01*
X24969297Y2175604D01*
X24969297Y2173073D01*
X24973960Y2161816D01*
X24977862Y2150278D01*
X24979947Y2147361D01*
X24980496Y2146037D01*
X24981891Y2144642D01*
X24986413Y2138317D01*
X25154372Y1946364D01*
X25085505Y1911930D01*
X25079205Y1907966D01*
X25077378Y1907208D01*
X25075321Y1905520D01*
X25073062Y1904098D01*
X25071762Y1902600D01*
X25066013Y1897881D01*
X25027918Y1859786D01*
X25023199Y1854037D01*
X25021701Y1852737D01*
X25020279Y1850478D01*
X25018591Y1848421D01*
X25017833Y1846594D01*
X25013869Y1840294D01*
X24975774Y1764103D01*
X24970519Y1750371D01*
X24970328Y1747684D01*
X24969297Y1745194D01*
X24967856Y1730562D01*
X24740959Y1730562D01*
X24885435Y2163988D01*
X24888695Y2178325D01*
X24886620Y2207515D01*
X24873534Y2233688D01*
X24851427Y2252862D01*
X24823664Y2262116D01*
X24794474Y2260041D01*
X24768301Y2246955D01*
X24749127Y2224847D01*
X24743133Y2211422D01*
X24547617Y1624876D01*
X24352102Y2211422D01*
X24346108Y2224847D01*
X24326934Y2246955D01*
X24300761Y2260041D01*
X24271571Y2262116D01*
X24243809Y2252862D01*
X24221701Y2233688D01*
X24208615Y2207515D01*
X24206540Y2178325D01*
X24117651Y2178325D01*
X24117651Y2351594D01*
X26843399Y2351594D01*
X26843399Y1223816D01*
G37*
D11*
X69380325Y1299448D02*
X69380325Y299448D01*
X69380325Y1251829D02*
X69285087Y1299448D01*
X69285087Y1299448D02*
X69094611Y1299448D01*
X69094611Y1299448D02*
X68999373Y1251829D01*
X68999373Y1251829D02*
X68951754Y1204210D01*
X68951754Y1204210D02*
X68904135Y1108972D01*
X68904135Y1108972D02*
X68904135Y823258D01*
X68904135Y823258D02*
X68951754Y728020D01*
X68951754Y728020D02*
X68999373Y680400D01*
X68999373Y680400D02*
X69094611Y632781D01*
X69094611Y632781D02*
X69285087Y632781D01*
X69285087Y632781D02*
X69380325Y680400D01*
X68475563Y632781D02*
X68475563Y1299448D01*
X68475563Y1632781D02*
X68523182Y1585162D01*
X68523182Y1585162D02*
X68475563Y1537543D01*
X68475563Y1537543D02*
X68427944Y1585162D01*
X68427944Y1585162D02*
X68475563Y1632781D01*
X68475563Y1632781D02*
X68475563Y1537543D01*
X67570802Y680400D02*
X67666040Y632781D01*
X67666040Y632781D02*
X67856516Y632781D01*
X67856516Y632781D02*
X67951754Y680400D01*
X67951754Y680400D02*
X67999373Y728020D01*
X67999373Y728020D02*
X68046992Y823258D01*
X68046992Y823258D02*
X68046992Y1108972D01*
X68046992Y1108972D02*
X67999373Y1204210D01*
X67999373Y1204210D02*
X67951754Y1251829D01*
X67951754Y1251829D02*
X67856516Y1299448D01*
X67856516Y1299448D02*
X67666040Y1299448D01*
X67666040Y1299448D02*
X67570802Y1251829D01*
X66951754Y1632781D02*
X66856516Y1632781D01*
X66856516Y1632781D02*
X66761278Y1585162D01*
X66761278Y1585162D02*
X66713659Y1537543D01*
X66713659Y1537543D02*
X66666040Y1442305D01*
X66666040Y1442305D02*
X66618421Y1251829D01*
X66618421Y1251829D02*
X66618421Y1013734D01*
X66618421Y1013734D02*
X66666040Y823258D01*
X66666040Y823258D02*
X66713659Y728020D01*
X66713659Y728020D02*
X66761278Y680400D01*
X66761278Y680400D02*
X66856516Y632781D01*
X66856516Y632781D02*
X66951754Y632781D01*
X66951754Y632781D02*
X67046992Y680400D01*
X67046992Y680400D02*
X67094611Y728020D01*
X67094611Y728020D02*
X67142230Y823258D01*
X67142230Y823258D02*
X67189849Y1013734D01*
X67189849Y1013734D02*
X67189849Y1251829D01*
X67189849Y1251829D02*
X67142230Y1442305D01*
X67142230Y1442305D02*
X67094611Y1537543D01*
X67094611Y1537543D02*
X67046992Y1585162D01*
X67046992Y1585162D02*
X66951754Y1632781D01*
X66189849Y632781D02*
X66189849Y1299448D01*
X66189849Y1108972D02*
X66142230Y1204210D01*
X66142230Y1204210D02*
X66094611Y1251829D01*
X66094611Y1251829D02*
X65999373Y1299448D01*
X65999373Y1299448D02*
X65904135Y1299448D01*
X65570801Y632781D02*
X65570801Y1299448D01*
X65570801Y1632781D02*
X65618420Y1585162D01*
X65618420Y1585162D02*
X65570801Y1537543D01*
X65570801Y1537543D02*
X65523182Y1585162D01*
X65523182Y1585162D02*
X65570801Y1632781D01*
X65570801Y1632781D02*
X65570801Y1537543D01*
X64666040Y680400D02*
X64761278Y632781D01*
X64761278Y632781D02*
X64951754Y632781D01*
X64951754Y632781D02*
X65046992Y680400D01*
X65046992Y680400D02*
X65094611Y728020D01*
X65094611Y728020D02*
X65142230Y823258D01*
X65142230Y823258D02*
X65142230Y1108972D01*
X65142230Y1108972D02*
X65094611Y1204210D01*
X65094611Y1204210D02*
X65046992Y1251829D01*
X65046992Y1251829D02*
X64951754Y1299448D01*
X64951754Y1299448D02*
X64761278Y1299448D01*
X64761278Y1299448D02*
X64666040Y1251829D01*
X64237468Y632781D02*
X64237468Y1632781D01*
X64142230Y1013734D02*
X63856516Y632781D01*
X63856516Y1299448D02*
X64237468Y918496D01*
X62666039Y1299448D02*
X62666039Y299448D01*
X62666039Y1251829D02*
X62570801Y1299448D01*
X62570801Y1299448D02*
X62380325Y1299448D01*
X62380325Y1299448D02*
X62285087Y1251829D01*
X62285087Y1251829D02*
X62237468Y1204210D01*
X62237468Y1204210D02*
X62189849Y1108972D01*
X62189849Y1108972D02*
X62189849Y823258D01*
X62189849Y823258D02*
X62237468Y728020D01*
X62237468Y728020D02*
X62285087Y680400D01*
X62285087Y680400D02*
X62380325Y632781D01*
X62380325Y632781D02*
X62570801Y632781D01*
X62570801Y632781D02*
X62666039Y680400D01*
X61332706Y1299448D02*
X61332706Y632781D01*
X61761277Y1299448D02*
X61761277Y775639D01*
X61761277Y775639D02*
X61713658Y680400D01*
X61713658Y680400D02*
X61618420Y632781D01*
X61618420Y632781D02*
X61475563Y632781D01*
X61475563Y632781D02*
X61380325Y680400D01*
X61380325Y680400D02*
X61332706Y728020D01*
X60713658Y632781D02*
X60808896Y680400D01*
X60808896Y680400D02*
X60856515Y775639D01*
X60856515Y775639D02*
X60856515Y1632781D01*
X60380324Y680400D02*
X60285086Y632781D01*
X60285086Y632781D02*
X60094610Y632781D01*
X60094610Y632781D02*
X59999372Y680400D01*
X59999372Y680400D02*
X59951753Y775639D01*
X59951753Y775639D02*
X59951753Y823258D01*
X59951753Y823258D02*
X59999372Y918496D01*
X59999372Y918496D02*
X60094610Y966115D01*
X60094610Y966115D02*
X60237467Y966115D01*
X60237467Y966115D02*
X60332705Y1013734D01*
X60332705Y1013734D02*
X60380324Y1108972D01*
X60380324Y1108972D02*
X60380324Y1156591D01*
X60380324Y1156591D02*
X60332705Y1251829D01*
X60332705Y1251829D02*
X60237467Y1299448D01*
X60237467Y1299448D02*
X60094610Y1299448D01*
X60094610Y1299448D02*
X59999372Y1251829D01*
X59142229Y680400D02*
X59237467Y632781D01*
X59237467Y632781D02*
X59427943Y632781D01*
X59427943Y632781D02*
X59523181Y680400D01*
X59523181Y680400D02*
X59570800Y775639D01*
X59570800Y775639D02*
X59570800Y1156591D01*
X59570800Y1156591D02*
X59523181Y1251829D01*
X59523181Y1251829D02*
X59427943Y1299448D01*
X59427943Y1299448D02*
X59237467Y1299448D01*
X59237467Y1299448D02*
X59142229Y1251829D01*
X59142229Y1251829D02*
X59094610Y1156591D01*
X59094610Y1156591D02*
X59094610Y1061353D01*
X59094610Y1061353D02*
X59570800Y966115D01*
X58666038Y632781D02*
X58666038Y1299448D01*
X58666038Y1108972D02*
X58618419Y1204210D01*
X58618419Y1204210D02*
X58570800Y1251829D01*
X58570800Y1251829D02*
X58475562Y1299448D01*
X58475562Y1299448D02*
X58380324Y1299448D01*
X57380323Y1299448D02*
X57142228Y632781D01*
X57142228Y632781D02*
X56904133Y1299448D01*
X56570799Y1537543D02*
X56523180Y1585162D01*
X56523180Y1585162D02*
X56427942Y1632781D01*
X56427942Y1632781D02*
X56189847Y1632781D01*
X56189847Y1632781D02*
X56094609Y1585162D01*
X56094609Y1585162D02*
X56046990Y1537543D01*
X56046990Y1537543D02*
X55999371Y1442305D01*
X55999371Y1442305D02*
X55999371Y1347067D01*
X55999371Y1347067D02*
X56046990Y1204210D01*
X56046990Y1204210D02*
X56618418Y632781D01*
X56618418Y632781D02*
X55999371Y632781D01*
X55570799Y728020D02*
X55523180Y680400D01*
X55523180Y680400D02*
X55570799Y632781D01*
X55570799Y632781D02*
X55618418Y680400D01*
X55618418Y680400D02*
X55570799Y728020D01*
X55570799Y728020D02*
X55570799Y632781D01*
X54904133Y1632781D02*
X54808895Y1632781D01*
X54808895Y1632781D02*
X54713657Y1585162D01*
X54713657Y1585162D02*
X54666038Y1537543D01*
X54666038Y1537543D02*
X54618419Y1442305D01*
X54618419Y1442305D02*
X54570800Y1251829D01*
X54570800Y1251829D02*
X54570800Y1013734D01*
X54570800Y1013734D02*
X54618419Y823258D01*
X54618419Y823258D02*
X54666038Y728020D01*
X54666038Y728020D02*
X54713657Y680400D01*
X54713657Y680400D02*
X54808895Y632781D01*
X54808895Y632781D02*
X54904133Y632781D01*
X54904133Y632781D02*
X54999371Y680400D01*
X54999371Y680400D02*
X55046990Y728020D01*
X55046990Y728020D02*
X55094609Y823258D01*
X55094609Y823258D02*
X55142228Y1013734D01*
X55142228Y1013734D02*
X55142228Y1251829D01*
X55142228Y1251829D02*
X55094609Y1442305D01*
X55094609Y1442305D02*
X55046990Y1537543D01*
X55046990Y1537543D02*
X54999371Y1585162D01*
X54999371Y1585162D02*
X54904133Y1632781D01*
X54094609Y680400D02*
X54094609Y632781D01*
X54094609Y632781D02*
X54142228Y537543D01*
X54142228Y537543D02*
X54189847Y489924D01*
X52380324Y632781D02*
X52951752Y632781D01*
X52666038Y632781D02*
X52666038Y1632781D01*
X52666038Y1632781D02*
X52761276Y1489924D01*
X52761276Y1489924D02*
X52856514Y1394686D01*
X52856514Y1394686D02*
X52951752Y1347067D01*
X51761276Y1632781D02*
X51666038Y1632781D01*
X51666038Y1632781D02*
X51570800Y1585162D01*
X51570800Y1585162D02*
X51523181Y1537543D01*
X51523181Y1537543D02*
X51475562Y1442305D01*
X51475562Y1442305D02*
X51427943Y1251829D01*
X51427943Y1251829D02*
X51427943Y1013734D01*
X51427943Y1013734D02*
X51475562Y823258D01*
X51475562Y823258D02*
X51523181Y728020D01*
X51523181Y728020D02*
X51570800Y680400D01*
X51570800Y680400D02*
X51666038Y632781D01*
X51666038Y632781D02*
X51761276Y632781D01*
X51761276Y632781D02*
X51856514Y680400D01*
X51856514Y680400D02*
X51904133Y728020D01*
X51904133Y728020D02*
X51951752Y823258D01*
X51951752Y823258D02*
X51999371Y1013734D01*
X51999371Y1013734D02*
X51999371Y1251829D01*
X51999371Y1251829D02*
X51951752Y1442305D01*
X51951752Y1442305D02*
X51904133Y1537543D01*
X51904133Y1537543D02*
X51856514Y1585162D01*
X51856514Y1585162D02*
X51761276Y1632781D01*
X50285086Y1680400D02*
X51142228Y394686D01*
X49999371Y1537543D02*
X49951752Y1585162D01*
X49951752Y1585162D02*
X49856514Y1632781D01*
X49856514Y1632781D02*
X49618419Y1632781D01*
X49618419Y1632781D02*
X49523181Y1585162D01*
X49523181Y1585162D02*
X49475562Y1537543D01*
X49475562Y1537543D02*
X49427943Y1442305D01*
X49427943Y1442305D02*
X49427943Y1347067D01*
X49427943Y1347067D02*
X49475562Y1204210D01*
X49475562Y1204210D02*
X50046990Y632781D01*
X50046990Y632781D02*
X49427943Y632781D01*
X48808895Y1632781D02*
X48713657Y1632781D01*
X48713657Y1632781D02*
X48618419Y1585162D01*
X48618419Y1585162D02*
X48570800Y1537543D01*
X48570800Y1537543D02*
X48523181Y1442305D01*
X48523181Y1442305D02*
X48475562Y1251829D01*
X48475562Y1251829D02*
X48475562Y1013734D01*
X48475562Y1013734D02*
X48523181Y823258D01*
X48523181Y823258D02*
X48570800Y728020D01*
X48570800Y728020D02*
X48618419Y680400D01*
X48618419Y680400D02*
X48713657Y632781D01*
X48713657Y632781D02*
X48808895Y632781D01*
X48808895Y632781D02*
X48904133Y680400D01*
X48904133Y680400D02*
X48951752Y728020D01*
X48951752Y728020D02*
X48999371Y823258D01*
X48999371Y823258D02*
X49046990Y1013734D01*
X49046990Y1013734D02*
X49046990Y1251829D01*
X49046990Y1251829D02*
X48999371Y1442305D01*
X48999371Y1442305D02*
X48951752Y1537543D01*
X48951752Y1537543D02*
X48904133Y1585162D01*
X48904133Y1585162D02*
X48808895Y1632781D01*
X48094609Y1537543D02*
X48046990Y1585162D01*
X48046990Y1585162D02*
X47951752Y1632781D01*
X47951752Y1632781D02*
X47713657Y1632781D01*
X47713657Y1632781D02*
X47618419Y1585162D01*
X47618419Y1585162D02*
X47570800Y1537543D01*
X47570800Y1537543D02*
X47523181Y1442305D01*
X47523181Y1442305D02*
X47523181Y1347067D01*
X47523181Y1347067D02*
X47570800Y1204210D01*
X47570800Y1204210D02*
X48142228Y632781D01*
X48142228Y632781D02*
X47523181Y632781D01*
X46666038Y1299448D02*
X46666038Y632781D01*
X46904133Y1680400D02*
X47142228Y966115D01*
X47142228Y966115D02*
X46523181Y966115D01*
X46094609Y680400D02*
X46094609Y632781D01*
X46094609Y632781D02*
X46142228Y537543D01*
X46142228Y537543D02*
X46189847Y489924D01*
X44618419Y251829D02*
X44666038Y299448D01*
X44666038Y299448D02*
X44761276Y442305D01*
X44761276Y442305D02*
X44808895Y537543D01*
X44808895Y537543D02*
X44856514Y680400D01*
X44856514Y680400D02*
X44904133Y918496D01*
X44904133Y918496D02*
X44904133Y1108972D01*
X44904133Y1108972D02*
X44856514Y1347067D01*
X44856514Y1347067D02*
X44808895Y1489924D01*
X44808895Y1489924D02*
X44761276Y1585162D01*
X44761276Y1585162D02*
X44666038Y1728020D01*
X44666038Y1728020D02*
X44618419Y1775639D01*
X43808895Y680400D02*
X43904133Y632781D01*
X43904133Y632781D02*
X44094609Y632781D01*
X44094609Y632781D02*
X44189847Y680400D01*
X44189847Y680400D02*
X44237466Y728020D01*
X44237466Y728020D02*
X44285085Y823258D01*
X44285085Y823258D02*
X44285085Y1108972D01*
X44285085Y1108972D02*
X44237466Y1204210D01*
X44237466Y1204210D02*
X44189847Y1251829D01*
X44189847Y1251829D02*
X44094609Y1299448D01*
X44094609Y1299448D02*
X43904133Y1299448D01*
X43904133Y1299448D02*
X43808895Y1251829D01*
X43475561Y251829D02*
X43427942Y299448D01*
X43427942Y299448D02*
X43332704Y442305D01*
X43332704Y442305D02*
X43285085Y537543D01*
X43285085Y537543D02*
X43237466Y680400D01*
X43237466Y680400D02*
X43189847Y918496D01*
X43189847Y918496D02*
X43189847Y1108972D01*
X43189847Y1108972D02*
X43237466Y1347067D01*
X43237466Y1347067D02*
X43285085Y1489924D01*
X43285085Y1489924D02*
X43332704Y1585162D01*
X43332704Y1585162D02*
X43427942Y1728020D01*
X43427942Y1728020D02*
X43475561Y1775639D01*
X42713656Y632781D02*
X42713656Y1632781D01*
X42618418Y1013734D02*
X42332704Y632781D01*
X42332704Y1299448D02*
X42713656Y918496D01*
X41523180Y680400D02*
X41618418Y632781D01*
X41618418Y632781D02*
X41808894Y632781D01*
X41808894Y632781D02*
X41904132Y680400D01*
X41904132Y680400D02*
X41951751Y775639D01*
X41951751Y775639D02*
X41951751Y1156591D01*
X41951751Y1156591D02*
X41904132Y1251829D01*
X41904132Y1251829D02*
X41808894Y1299448D01*
X41808894Y1299448D02*
X41618418Y1299448D01*
X41618418Y1299448D02*
X41523180Y1251829D01*
X41523180Y1251829D02*
X41475561Y1156591D01*
X41475561Y1156591D02*
X41475561Y1061353D01*
X41475561Y1061353D02*
X41951751Y966115D01*
X40904132Y632781D02*
X40999370Y680400D01*
X40999370Y680400D02*
X41046989Y775639D01*
X41046989Y775639D02*
X41046989Y1632781D01*
X40094608Y1299448D02*
X40094608Y632781D01*
X40523179Y1299448D02*
X40523179Y775639D01*
X40523179Y775639D02*
X40475560Y680400D01*
X40475560Y680400D02*
X40380322Y632781D01*
X40380322Y632781D02*
X40237465Y632781D01*
X40237465Y632781D02*
X40142227Y680400D01*
X40142227Y680400D02*
X40094608Y728020D01*
X39094608Y632781D02*
X39666036Y632781D01*
X39380322Y632781D02*
X39380322Y1632781D01*
X39380322Y1632781D02*
X39475560Y1489924D01*
X39475560Y1489924D02*
X39570798Y1394686D01*
X39570798Y1394686D02*
X39666036Y1347067D01*
X38713655Y1537543D02*
X38666036Y1585162D01*
X38666036Y1585162D02*
X38570798Y1632781D01*
X38570798Y1632781D02*
X38332703Y1632781D01*
X38332703Y1632781D02*
X38237465Y1585162D01*
X38237465Y1585162D02*
X38189846Y1537543D01*
X38189846Y1537543D02*
X38142227Y1442305D01*
X38142227Y1442305D02*
X38142227Y1347067D01*
X38142227Y1347067D02*
X38189846Y1204210D01*
X38189846Y1204210D02*
X38761274Y632781D01*
X38761274Y632781D02*
X38142227Y632781D01*
X37285084Y1299448D02*
X37285084Y632781D01*
X37523179Y1680400D02*
X37761274Y966115D01*
X37761274Y966115D02*
X37142227Y966115D01*
D10*
G36*
X26663093Y16620181D02*
G01*
X26512168Y16620181D01*
X26397655Y16658352D01*
X26323542Y16732466D01*
X26285048Y16809453D01*
X26241665Y16982987D01*
X26241665Y17107376D01*
X26285048Y17280910D01*
X26323542Y17357897D01*
X26397655Y17432010D01*
X26512168Y17470181D01*
X26663093Y17470181D01*
X26663093Y16620181D01*
G37*
G36*
X29019442Y16359070D02*
G01*
X25980554Y16359070D01*
X25980554Y17116610D01*
X26091665Y17116610D01*
X26091665Y16973753D01*
X26091916Y16971200D01*
X26091754Y16970107D01*
X26092563Y16964634D01*
X26093106Y16959121D01*
X26093528Y16958100D01*
X26093904Y16955563D01*
X26141523Y16765087D01*
X26141908Y16764008D01*
X26141947Y16763468D01*
X26144274Y16757387D01*
X26146470Y16751241D01*
X26146792Y16750806D01*
X26147202Y16749736D01*
X26194821Y16654498D01*
X26198784Y16648202D01*
X26199542Y16646372D01*
X26201231Y16644314D01*
X26202653Y16642055D01*
X26204151Y16640756D01*
X26208870Y16635006D01*
X26304108Y16539767D01*
X26315473Y16530439D01*
X26317963Y16529408D01*
X26319998Y16527643D01*
X26333424Y16521649D01*
X26476280Y16474030D01*
X26483535Y16472381D01*
X26485366Y16471622D01*
X26488019Y16471361D01*
X26490617Y16470770D01*
X26492591Y16470911D01*
X26499998Y16470181D01*
X26738093Y16470181D01*
X26752725Y16471622D01*
X26779761Y16482821D01*
X26800453Y16503513D01*
X26811652Y16530549D01*
X26813093Y16545181D01*
X26813093Y17545181D01*
X27139284Y17545181D01*
X27139284Y16545181D01*
X27139654Y16541418D01*
X27139467Y16539942D01*
X27139988Y16538032D01*
X27140725Y16530549D01*
X27144542Y16521334D01*
X27147167Y16511710D01*
X27150094Y16507930D01*
X27151924Y16503513D01*
X27158974Y16496463D01*
X27165084Y16488573D01*
X27169237Y16486200D01*
X27172616Y16482821D01*
X27181828Y16479005D01*
X27190493Y16474054D01*
X27195236Y16473452D01*
X27199652Y16471622D01*
X27209626Y16471622D01*
X27219523Y16470364D01*
X27224135Y16471622D01*
X27228916Y16471622D01*
X27238131Y16475440D01*
X27247755Y16478064D01*
X27251535Y16480992D01*
X27255952Y16482821D01*
X27263002Y16489872D01*
X27270892Y16495981D01*
X27275244Y16502114D01*
X27276644Y16503513D01*
X27277213Y16504888D01*
X27279402Y16507971D01*
X27710712Y17262765D01*
X27710712Y16545181D01*
X27712153Y16530549D01*
X27723352Y16503513D01*
X27744044Y16482821D01*
X27771080Y16471622D01*
X27800344Y16471622D01*
X27827380Y16482821D01*
X27848072Y16503513D01*
X27859271Y16530549D01*
X27860712Y16545181D01*
X27860712Y16973753D01*
X28139284Y16973753D01*
X28139284Y16640420D01*
X28140725Y16625788D01*
X28144642Y16616332D01*
X28151923Y16598753D01*
X28161250Y16587388D01*
X28208869Y16539768D01*
X28220235Y16530440D01*
X28222723Y16529410D01*
X28224760Y16527643D01*
X28238186Y16521649D01*
X28381042Y16474030D01*
X28388297Y16472381D01*
X28390128Y16471622D01*
X28392781Y16471361D01*
X28395379Y16470770D01*
X28397353Y16470911D01*
X28404760Y16470181D01*
X28499998Y16470181D01*
X28507403Y16470911D01*
X28509378Y16470770D01*
X28511975Y16471361D01*
X28514630Y16471622D01*
X28516461Y16472381D01*
X28523715Y16474030D01*
X28666572Y16521649D01*
X28679997Y16527643D01*
X28682032Y16529409D01*
X28684523Y16530440D01*
X28695888Y16539767D01*
X28791127Y16635007D01*
X28795844Y16640756D01*
X28797343Y16642055D01*
X28798764Y16644314D01*
X28800454Y16646372D01*
X28801211Y16648202D01*
X28805175Y16654498D01*
X28852794Y16749736D01*
X28853203Y16750806D01*
X28853526Y16751241D01*
X28855718Y16757378D01*
X28858049Y16763467D01*
X28858087Y16764008D01*
X28858473Y16765087D01*
X28906092Y16955563D01*
X28906467Y16958100D01*
X28906890Y16959121D01*
X28907432Y16964634D01*
X28908242Y16970107D01*
X28908079Y16971200D01*
X28908331Y16973753D01*
X28908331Y17116610D01*
X28908079Y17119164D01*
X28908242Y17120256D01*
X28907432Y17125730D01*
X28906890Y17131242D01*
X28906467Y17132264D01*
X28906092Y17134800D01*
X28858473Y17325276D01*
X28858087Y17326356D01*
X28858049Y17326896D01*
X28855718Y17332986D01*
X28853526Y17339122D01*
X28853203Y17339558D01*
X28852794Y17340627D01*
X28805175Y17435865D01*
X28801212Y17442160D01*
X28800454Y17443992D01*
X28798762Y17446054D01*
X28797343Y17448308D01*
X28795846Y17449607D01*
X28791126Y17455357D01*
X28695888Y17550595D01*
X28684523Y17559922D01*
X28682032Y17560954D01*
X28679997Y17562719D01*
X28666572Y17568713D01*
X28523715Y17616332D01*
X28516461Y17617982D01*
X28514630Y17618740D01*
X28511975Y17619002D01*
X28509378Y17619592D01*
X28507403Y17619452D01*
X28499998Y17620181D01*
X28357141Y17620181D01*
X28342509Y17618740D01*
X28340020Y17617710D01*
X28337331Y17617518D01*
X28323600Y17612263D01*
X28228362Y17564644D01*
X28215919Y17556812D01*
X28196746Y17534704D01*
X28187492Y17506943D01*
X28189566Y17477753D01*
X28202653Y17451578D01*
X28224761Y17432405D01*
X28252522Y17423151D01*
X28281712Y17425225D01*
X28295444Y17430480D01*
X28374846Y17470181D01*
X28487828Y17470181D01*
X28602341Y17432010D01*
X28676454Y17357897D01*
X28714947Y17280910D01*
X28758331Y17107376D01*
X28758331Y16982987D01*
X28714947Y16809453D01*
X28676453Y16732466D01*
X28602341Y16658353D01*
X28487828Y16620181D01*
X28416930Y16620181D01*
X28302417Y16658352D01*
X28289284Y16671486D01*
X28289284Y16898753D01*
X28404760Y16898753D01*
X28419392Y16900194D01*
X28446428Y16911393D01*
X28467120Y16932085D01*
X28478319Y16959121D01*
X28478319Y16988385D01*
X28467120Y17015421D01*
X28446428Y17036113D01*
X28419392Y17047312D01*
X28404760Y17048753D01*
X28214284Y17048753D01*
X28199652Y17047312D01*
X28172616Y17036113D01*
X28151924Y17015421D01*
X28140725Y16988385D01*
X28139284Y16973753D01*
X27860712Y16973753D01*
X27860712Y17545181D01*
X27860341Y17548945D01*
X27860529Y17550420D01*
X27860007Y17552331D01*
X27859271Y17559813D01*
X27855453Y17569029D01*
X27852829Y17578652D01*
X27849901Y17582433D01*
X27848072Y17586849D01*
X27841021Y17593900D01*
X27834912Y17601789D01*
X27830758Y17604163D01*
X27827380Y17607541D01*
X27818167Y17611358D01*
X27809503Y17616308D01*
X27804759Y17616911D01*
X27800344Y17618740D01*
X27790370Y17618740D01*
X27780473Y17619998D01*
X27775861Y17618740D01*
X27771080Y17618740D01*
X27761863Y17614923D01*
X27752242Y17612298D01*
X27748462Y17609372D01*
X27744044Y17607541D01*
X27736992Y17600490D01*
X27729104Y17594381D01*
X27724749Y17588247D01*
X27723352Y17586849D01*
X27722783Y17585477D01*
X27720594Y17582392D01*
X27289284Y16827598D01*
X27289284Y17545181D01*
X27287843Y17559813D01*
X27276644Y17586849D01*
X27255952Y17607541D01*
X27228916Y17618740D01*
X27199652Y17618740D01*
X27172616Y17607541D01*
X27151924Y17586849D01*
X27140725Y17559813D01*
X27139284Y17545181D01*
X26813093Y17545181D01*
X26811652Y17559813D01*
X26800453Y17586849D01*
X26779761Y17607541D01*
X26752725Y17618740D01*
X26738093Y17620181D01*
X26499998Y17620181D01*
X26492591Y17619452D01*
X26490617Y17619592D01*
X26488019Y17619002D01*
X26485366Y17618740D01*
X26483535Y17617982D01*
X26476280Y17616332D01*
X26333424Y17568713D01*
X26319998Y17562719D01*
X26317963Y17560955D01*
X26315473Y17559923D01*
X26304108Y17550595D01*
X26208870Y17455357D01*
X26204151Y17449608D01*
X26202653Y17448308D01*
X26201231Y17446049D01*
X26199543Y17443992D01*
X26198785Y17442165D01*
X26194821Y17435865D01*
X26147202Y17340627D01*
X26146792Y17339558D01*
X26146470Y17339122D01*
X26144274Y17332977D01*
X26141947Y17326895D01*
X26141908Y17326356D01*
X26141523Y17325276D01*
X26093904Y17134800D01*
X26093528Y17132264D01*
X26093106Y17131242D01*
X26092563Y17125730D01*
X26091754Y17120256D01*
X26091916Y17119164D01*
X26091665Y17116610D01*
X25980554Y17116610D01*
X25980554Y17731292D01*
X29019442Y17731292D01*
X29019442Y16359070D01*
G37*
G36*
X26379760Y14593658D02*
G01*
X26167703Y14593658D01*
X26118235Y14618392D01*
X26097352Y14639275D01*
X26072617Y14688745D01*
X26072617Y14767619D01*
X26097352Y14817089D01*
X26118235Y14837971D01*
X26167703Y14862705D01*
X26379760Y14862705D01*
X26379760Y14593658D01*
G37*
G36*
X26618649Y13975257D02*
G01*
X24882789Y13975257D01*
X24882789Y14457099D01*
X24971678Y14457099D01*
X24971678Y14427835D01*
X24982877Y14400799D01*
X25003569Y14380107D01*
X25030605Y14368908D01*
X25045237Y14367467D01*
X25274998Y14367467D01*
X25274998Y14137705D01*
X25276439Y14123073D01*
X25287638Y14096037D01*
X25308330Y14075345D01*
X25335366Y14064146D01*
X25364630Y14064146D01*
X25391666Y14075345D01*
X25412358Y14096037D01*
X25423557Y14123073D01*
X25424998Y14137705D01*
X25424998Y14367467D01*
X25654760Y14367467D01*
X25669392Y14368908D01*
X25696428Y14380107D01*
X25717120Y14400799D01*
X25728319Y14427835D01*
X25728319Y14457099D01*
X25717120Y14484135D01*
X25696428Y14504827D01*
X25669392Y14516026D01*
X25654760Y14517467D01*
X25424998Y14517467D01*
X25424998Y14747229D01*
X25423557Y14761861D01*
X25413838Y14785324D01*
X25922617Y14785324D01*
X25922617Y14671039D01*
X25924058Y14656407D01*
X25925088Y14653919D01*
X25925280Y14651229D01*
X25930535Y14637498D01*
X25968631Y14561307D01*
X25972594Y14555011D01*
X25973353Y14553180D01*
X25975044Y14551119D01*
X25976464Y14548864D01*
X25977959Y14547568D01*
X25982680Y14541815D01*
X26020775Y14503720D01*
X26026524Y14499002D01*
X26027824Y14497503D01*
X26030083Y14496082D01*
X26032140Y14494393D01*
X26033967Y14493636D01*
X26040267Y14489671D01*
X26116457Y14451576D01*
X26130189Y14446321D01*
X26132876Y14446131D01*
X26135366Y14445099D01*
X26149998Y14443658D01*
X26379760Y14443658D01*
X26379760Y14137705D01*
X26381201Y14123073D01*
X26392400Y14096037D01*
X26413092Y14075345D01*
X26440128Y14064146D01*
X26469392Y14064146D01*
X26496428Y14075345D01*
X26517120Y14096037D01*
X26528319Y14123073D01*
X26529760Y14137705D01*
X26529760Y14937705D01*
X26528319Y14952337D01*
X26517120Y14979373D01*
X26496428Y15000065D01*
X26469392Y15011264D01*
X26454760Y15012705D01*
X26149998Y15012705D01*
X26135366Y15011264D01*
X26132876Y15010233D01*
X26130189Y15010042D01*
X26116457Y15004787D01*
X26040267Y14966692D01*
X26033967Y14962728D01*
X26032140Y14961970D01*
X26030083Y14960282D01*
X26027824Y14958860D01*
X26026524Y14957362D01*
X26020775Y14952643D01*
X25982680Y14914548D01*
X25977959Y14908796D01*
X25976464Y14907499D01*
X25975044Y14905245D01*
X25973353Y14903183D01*
X25972594Y14901353D01*
X25968631Y14895056D01*
X25930535Y14818865D01*
X25925280Y14805134D01*
X25925088Y14802445D01*
X25924058Y14799956D01*
X25922617Y14785324D01*
X25413838Y14785324D01*
X25412358Y14788897D01*
X25391666Y14809589D01*
X25364630Y14820788D01*
X25335366Y14820788D01*
X25308330Y14809589D01*
X25287638Y14788897D01*
X25276439Y14761861D01*
X25274998Y14747229D01*
X25274998Y14517467D01*
X25045237Y14517467D01*
X25030605Y14516026D01*
X25003569Y14504827D01*
X24982877Y14484135D01*
X24971678Y14457099D01*
X24882789Y14457099D01*
X24882789Y15101594D01*
X26618649Y15101594D01*
X26618649Y13975257D01*
G37*
G36*
X31150045Y16359070D02*
G01*
X29254953Y16359070D01*
X29254953Y17535801D01*
X29366064Y17535801D01*
X29369324Y17521464D01*
X29702657Y16521464D01*
X29708651Y16508039D01*
X29712161Y16503992D01*
X29714558Y16499198D01*
X29721666Y16493033D01*
X29727825Y16485932D01*
X29732614Y16483538D01*
X29736665Y16480024D01*
X29745590Y16477050D01*
X29753998Y16472845D01*
X29759342Y16472466D01*
X29764428Y16470770D01*
X29773808Y16471437D01*
X29783188Y16470770D01*
X29788273Y16472466D01*
X29793618Y16472845D01*
X29802028Y16477051D01*
X29810950Y16480024D01*
X29814997Y16483535D01*
X29819791Y16485931D01*
X29825954Y16493037D01*
X29833058Y16499198D01*
X29835453Y16503990D01*
X29838965Y16508038D01*
X29844959Y16521464D01*
X29995722Y16973753D01*
X30317856Y16973753D01*
X30317856Y16735658D01*
X30319297Y16721026D01*
X30320328Y16718537D01*
X30320519Y16715849D01*
X30325774Y16702117D01*
X30373393Y16606879D01*
X30377356Y16600583D01*
X30378114Y16598753D01*
X30379803Y16596695D01*
X30381225Y16594436D01*
X30382723Y16593137D01*
X30387441Y16587388D01*
X30435060Y16539768D01*
X30440809Y16535050D01*
X30442110Y16533550D01*
X30444369Y16532128D01*
X30446426Y16530440D01*
X30448253Y16529683D01*
X30454553Y16525718D01*
X30549791Y16478099D01*
X30563522Y16472844D01*
X30566211Y16472653D01*
X30568700Y16471622D01*
X30583332Y16470181D01*
X30821427Y16470181D01*
X30836059Y16471622D01*
X30838548Y16472654D01*
X30841236Y16472844D01*
X30854968Y16478099D01*
X30950206Y16525718D01*
X30956505Y16529683D01*
X30958333Y16530440D01*
X30960389Y16532128D01*
X30962649Y16533550D01*
X30963949Y16535050D01*
X30969699Y16539768D01*
X31017317Y16587387D01*
X31026645Y16598753D01*
X31037843Y16625789D01*
X31037843Y16655052D01*
X31026644Y16682088D01*
X31005951Y16702781D01*
X30978915Y16713979D01*
X30949652Y16713979D01*
X30922616Y16702780D01*
X30911250Y16693452D01*
X30872237Y16654439D01*
X30803722Y16620181D01*
X30601037Y16620181D01*
X30532521Y16654439D01*
X30502114Y16684847D01*
X30467856Y16753363D01*
X30467856Y16956048D01*
X30502114Y17024564D01*
X30532521Y17054971D01*
X30601037Y17089229D01*
X30803722Y17089229D01*
X30872238Y17054971D01*
X30911251Y17015958D01*
X30922616Y17006631D01*
X30926104Y17005186D01*
X30929028Y17002794D01*
X30939525Y16999627D01*
X30949652Y16995432D01*
X30953428Y16995432D01*
X30957044Y16994341D01*
X30967954Y16995432D01*
X30978915Y16995432D01*
X30982403Y16996878D01*
X30986163Y16997253D01*
X30995826Y17002438D01*
X31005951Y17006631D01*
X31008621Y17009302D01*
X31011950Y17011087D01*
X31018895Y17019576D01*
X31026644Y17027324D01*
X31028088Y17030811D01*
X31030481Y17033735D01*
X31033649Y17044236D01*
X31037843Y17054360D01*
X31037843Y17058136D01*
X31038934Y17061751D01*
X31038912Y17076454D01*
X30991293Y17552644D01*
X30990224Y17557977D01*
X30990224Y17559813D01*
X30989510Y17561536D01*
X30988403Y17567060D01*
X30983220Y17576720D01*
X30979025Y17586849D01*
X30976353Y17589521D01*
X30974569Y17592847D01*
X30966086Y17599788D01*
X30958333Y17607541D01*
X30954844Y17608987D01*
X30951921Y17611378D01*
X30941423Y17614546D01*
X30931297Y17618740D01*
X30925691Y17619293D01*
X30923905Y17619831D01*
X30922076Y17619649D01*
X30916665Y17620181D01*
X30440475Y17620181D01*
X30425843Y17618740D01*
X30398807Y17607541D01*
X30378115Y17586849D01*
X30366916Y17559813D01*
X30366916Y17530549D01*
X30378115Y17503513D01*
X30398807Y17482821D01*
X30425843Y17471622D01*
X30440475Y17470181D01*
X30848791Y17470181D01*
X30873609Y17221991D01*
X30854968Y17231311D01*
X30841236Y17236566D01*
X30838548Y17236757D01*
X30836059Y17237788D01*
X30821427Y17239229D01*
X30583332Y17239229D01*
X30568700Y17237788D01*
X30566211Y17236758D01*
X30563522Y17236566D01*
X30549791Y17231311D01*
X30454553Y17183692D01*
X30448253Y17179728D01*
X30446426Y17178970D01*
X30444369Y17177282D01*
X30442110Y17175860D01*
X30440810Y17174362D01*
X30435061Y17169643D01*
X30387442Y17122024D01*
X30382723Y17116275D01*
X30381225Y17114975D01*
X30379803Y17112716D01*
X30378115Y17110659D01*
X30377357Y17108832D01*
X30373393Y17102532D01*
X30325774Y17007294D01*
X30320519Y16993562D01*
X30320328Y16990875D01*
X30319297Y16988385D01*
X30317856Y16973753D01*
X29995722Y16973753D01*
X30178292Y17521464D01*
X30181552Y17535800D01*
X30179477Y17564990D01*
X30166391Y17591164D01*
X30144283Y17610338D01*
X30116521Y17619592D01*
X30087331Y17617517D01*
X30061158Y17604430D01*
X30041984Y17582323D01*
X30035990Y17568898D01*
X29773808Y16782352D01*
X29511626Y17568898D01*
X29505632Y17582324D01*
X29486458Y17604431D01*
X29460285Y17617517D01*
X29431095Y17619592D01*
X29403332Y17610338D01*
X29381225Y17591164D01*
X29368139Y17564991D01*
X29366064Y17535801D01*
X29254953Y17535801D01*
X29254953Y17731292D01*
X31150045Y17731292D01*
X31150045Y16359070D01*
G37*
G36*
X25688904Y9571305D02*
G01*
X25709787Y9550422D01*
X25734523Y9500953D01*
X25734523Y9307792D01*
X25709787Y9258322D01*
X25688904Y9237439D01*
X25639437Y9212705D01*
X25522466Y9212705D01*
X25503570Y9222153D01*
X25503570Y9586591D01*
X25522466Y9596039D01*
X25639436Y9596039D01*
X25688904Y9571305D01*
G37*
G36*
X26496427Y9593658D02*
G01*
X26284370Y9593658D01*
X26234902Y9618392D01*
X26214019Y9639275D01*
X26189284Y9688745D01*
X26189284Y9767619D01*
X26214019Y9817089D01*
X26234902Y9837971D01*
X26284370Y9862705D01*
X26496427Y9862705D01*
X26496427Y9593658D01*
G37*
G36*
X26735316Y8973816D02*
G01*
X25264681Y8973816D01*
X25264681Y9937705D01*
X25353570Y9937705D01*
X25353570Y9137705D01*
X25355011Y9123073D01*
X25366210Y9096037D01*
X25386902Y9075345D01*
X25413938Y9064146D01*
X25443202Y9064146D01*
X25465609Y9073428D01*
X25471220Y9070623D01*
X25484952Y9065368D01*
X25487639Y9065178D01*
X25490129Y9064146D01*
X25504761Y9062705D01*
X25657142Y9062705D01*
X25671774Y9064146D01*
X25674263Y9065178D01*
X25676951Y9065368D01*
X25690683Y9070623D01*
X25766873Y9108718D01*
X25773172Y9112683D01*
X25775000Y9113440D01*
X25777056Y9115128D01*
X25779316Y9116550D01*
X25780616Y9118050D01*
X25786366Y9122768D01*
X25824461Y9160864D01*
X25829181Y9166616D01*
X25830676Y9167912D01*
X25832095Y9170167D01*
X25833788Y9172229D01*
X25834546Y9174060D01*
X25838509Y9180354D01*
X25876604Y9256544D01*
X25881859Y9270276D01*
X25882049Y9272963D01*
X25883082Y9275454D01*
X25884523Y9290086D01*
X25884523Y9518658D01*
X25883082Y9533290D01*
X25882049Y9535782D01*
X25881859Y9538468D01*
X25876604Y9552200D01*
X25838509Y9628390D01*
X25834544Y9634688D01*
X25833787Y9636516D01*
X25832095Y9638577D01*
X25830676Y9640832D01*
X25829180Y9642129D01*
X25824460Y9647881D01*
X25786365Y9685976D01*
X25780612Y9690697D01*
X25779316Y9692192D01*
X25777061Y9693612D01*
X25775000Y9695303D01*
X25773169Y9696062D01*
X25766873Y9700025D01*
X25690684Y9738121D01*
X25676952Y9743376D01*
X25674262Y9743568D01*
X25671774Y9744598D01*
X25657142Y9746039D01*
X25504761Y9746039D01*
X25503570Y9745922D01*
X25503570Y9785324D01*
X26039284Y9785324D01*
X26039284Y9671039D01*
X26040725Y9656407D01*
X26041755Y9653919D01*
X26041947Y9651229D01*
X26047202Y9637498D01*
X26085298Y9561307D01*
X26089261Y9555011D01*
X26090020Y9553180D01*
X26091711Y9551119D01*
X26093131Y9548864D01*
X26094626Y9547568D01*
X26099347Y9541815D01*
X26137442Y9503720D01*
X26143191Y9499002D01*
X26144491Y9497503D01*
X26146750Y9496082D01*
X26148807Y9494393D01*
X26150634Y9493636D01*
X26156934Y9489671D01*
X26233124Y9451576D01*
X26246856Y9446321D01*
X26249543Y9446131D01*
X26252033Y9445099D01*
X26266665Y9443658D01*
X26496427Y9443658D01*
X26496427Y9137705D01*
X26497868Y9123073D01*
X26509067Y9096037D01*
X26529759Y9075345D01*
X26556795Y9064146D01*
X26586059Y9064146D01*
X26613095Y9075345D01*
X26633787Y9096037D01*
X26644986Y9123073D01*
X26646427Y9137705D01*
X26646427Y9937705D01*
X26644986Y9952337D01*
X26633787Y9979373D01*
X26613095Y10000065D01*
X26586059Y10011264D01*
X26571427Y10012705D01*
X26266665Y10012705D01*
X26252033Y10011264D01*
X26249543Y10010233D01*
X26246856Y10010042D01*
X26233124Y10004787D01*
X26156934Y9966692D01*
X26150634Y9962728D01*
X26148807Y9961970D01*
X26146750Y9960282D01*
X26144491Y9958860D01*
X26143191Y9957362D01*
X26137442Y9952643D01*
X26099347Y9914548D01*
X26094626Y9908796D01*
X26093131Y9907499D01*
X26091711Y9905245D01*
X26090020Y9903183D01*
X26089261Y9901353D01*
X26085298Y9895056D01*
X26047202Y9818865D01*
X26041947Y9805134D01*
X26041755Y9802445D01*
X26040725Y9799956D01*
X26039284Y9785324D01*
X25503570Y9785324D01*
X25503570Y9937705D01*
X25502129Y9952337D01*
X25490930Y9979373D01*
X25470238Y10000065D01*
X25443202Y10011264D01*
X25413938Y10011264D01*
X25386902Y10000065D01*
X25366210Y9979373D01*
X25355011Y9952337D01*
X25353570Y9937705D01*
X25264681Y9937705D01*
X25264681Y10101594D01*
X26735316Y10101594D01*
X26735316Y8973816D01*
G37*
G36*
X26469857Y7337971D02*
G01*
X26522751Y7285077D01*
X26553570Y7161804D01*
X26553570Y6913608D01*
X26522751Y6790334D01*
X26469856Y6737440D01*
X26420388Y6712705D01*
X26303417Y6712705D01*
X26253949Y6737439D01*
X26201053Y6790335D01*
X26170236Y6913606D01*
X26170236Y7161806D01*
X26201053Y7285077D01*
X26253948Y7337971D01*
X26303417Y7362705D01*
X26420388Y7362705D01*
X26469857Y7337971D01*
G37*
G36*
X26792459Y6473816D02*
G01*
X25208979Y6473816D01*
X25208979Y7452337D01*
X25297868Y7452337D01*
X25297868Y7423073D01*
X25309067Y7396037D01*
X25329759Y7375345D01*
X25356795Y7364146D01*
X25371427Y7362705D01*
X25677379Y7362705D01*
X25677379Y7131753D01*
X25485713Y7131753D01*
X25471081Y7130312D01*
X25444045Y7119113D01*
X25423353Y7098421D01*
X25412154Y7071385D01*
X25412154Y7042121D01*
X25423353Y7015085D01*
X25444045Y6994393D01*
X25471081Y6983194D01*
X25485713Y6981753D01*
X25677379Y6981753D01*
X25677379Y6712705D01*
X25371427Y6712705D01*
X25356795Y6711264D01*
X25329759Y6700065D01*
X25309067Y6679373D01*
X25297868Y6652337D01*
X25297868Y6623073D01*
X25309067Y6596037D01*
X25329759Y6575345D01*
X25356795Y6564146D01*
X25371427Y6562705D01*
X25752379Y6562705D01*
X25767011Y6564146D01*
X25794047Y6575345D01*
X25814739Y6596037D01*
X25825938Y6623073D01*
X25827379Y6637705D01*
X25827379Y7171039D01*
X26020236Y7171039D01*
X26020236Y6904372D01*
X26020487Y6901819D01*
X26020325Y6900727D01*
X26021133Y6895255D01*
X26021677Y6889740D01*
X26022100Y6888719D01*
X26022475Y6886182D01*
X26060570Y6733801D01*
X26065517Y6719955D01*
X26068837Y6715474D01*
X26070971Y6710323D01*
X26080298Y6698958D01*
X26156489Y6622767D01*
X26162238Y6618049D01*
X26163538Y6616550D01*
X26165797Y6615129D01*
X26167854Y6613440D01*
X26169681Y6612683D01*
X26175981Y6608718D01*
X26252171Y6570623D01*
X26265903Y6565368D01*
X26268590Y6565178D01*
X26271080Y6564146D01*
X26285712Y6562705D01*
X26438093Y6562705D01*
X26452725Y6564146D01*
X26455214Y6565178D01*
X26457902Y6565368D01*
X26471634Y6570623D01*
X26547825Y6608718D01*
X26554124Y6612683D01*
X26555952Y6613440D01*
X26558008Y6615129D01*
X26560268Y6616550D01*
X26561567Y6618049D01*
X26567317Y6622767D01*
X26643508Y6698959D01*
X26652835Y6710324D01*
X26654968Y6715475D01*
X26658288Y6719955D01*
X26663235Y6733800D01*
X26701331Y6886182D01*
X26701706Y6888719D01*
X26702129Y6889740D01*
X26702671Y6895253D01*
X26703481Y6900726D01*
X26703318Y6901819D01*
X26703570Y6904372D01*
X26703570Y7171039D01*
X26703318Y7173593D01*
X26703481Y7174685D01*
X26702671Y7180159D01*
X26702129Y7185671D01*
X26701706Y7186693D01*
X26701331Y7189229D01*
X26663235Y7341611D01*
X26658288Y7355456D01*
X26654969Y7359936D01*
X26652835Y7365088D01*
X26643507Y7376453D01*
X26567317Y7452643D01*
X26561567Y7457362D01*
X26560268Y7458860D01*
X26558008Y7460282D01*
X26555952Y7461970D01*
X26554124Y7462728D01*
X26547825Y7466692D01*
X26471634Y7504787D01*
X26457902Y7510042D01*
X26455214Y7510233D01*
X26452725Y7511264D01*
X26438093Y7512705D01*
X26285712Y7512705D01*
X26271080Y7511264D01*
X26268590Y7510233D01*
X26265903Y7510042D01*
X26252171Y7504787D01*
X26175981Y7466692D01*
X26169684Y7462729D01*
X26167855Y7461971D01*
X26165796Y7460282D01*
X26163538Y7458860D01*
X26162238Y7457362D01*
X26156490Y7452644D01*
X26080298Y7376453D01*
X26070971Y7365088D01*
X26068837Y7359938D01*
X26065517Y7355456D01*
X26060570Y7341610D01*
X26022475Y7189229D01*
X26022100Y7186693D01*
X26021677Y7185671D01*
X26021133Y7180157D01*
X26020325Y7174684D01*
X26020487Y7173593D01*
X26020236Y7171039D01*
X25827379Y7171039D01*
X25827379Y7437705D01*
X25825938Y7452337D01*
X25814739Y7479373D01*
X25794047Y7500065D01*
X25767011Y7511264D01*
X25752379Y7512705D01*
X25371427Y7512705D01*
X25356795Y7511264D01*
X25329759Y7500065D01*
X25309067Y7479373D01*
X25297868Y7452337D01*
X25208979Y7452337D01*
X25208979Y7601594D01*
X26792459Y7601594D01*
X26792459Y6473816D01*
G37*
G36*
X26379760Y12093658D02*
G01*
X26167703Y12093658D01*
X26118235Y12118392D01*
X26097352Y12139275D01*
X26072617Y12188745D01*
X26072617Y12267619D01*
X26097352Y12317089D01*
X26118235Y12337971D01*
X26167703Y12362705D01*
X26379760Y12362705D01*
X26379760Y12093658D01*
G37*
G36*
X26618649Y11475257D02*
G01*
X24882789Y11475257D01*
X24882789Y11957099D01*
X24971678Y11957099D01*
X24971678Y11927835D01*
X24982877Y11900799D01*
X25003569Y11880107D01*
X25030605Y11868908D01*
X25045237Y11867467D01*
X25654760Y11867467D01*
X25669392Y11868908D01*
X25696428Y11880107D01*
X25717120Y11900799D01*
X25728319Y11927835D01*
X25728319Y11957099D01*
X25717120Y11984135D01*
X25696428Y12004827D01*
X25669392Y12016026D01*
X25654760Y12017467D01*
X25045237Y12017467D01*
X25030605Y12016026D01*
X25003569Y12004827D01*
X24982877Y11984135D01*
X24971678Y11957099D01*
X24882789Y11957099D01*
X24882789Y12285324D01*
X25922617Y12285324D01*
X25922617Y12171039D01*
X25924058Y12156407D01*
X25925088Y12153919D01*
X25925280Y12151229D01*
X25930535Y12137498D01*
X25968631Y12061307D01*
X25972594Y12055011D01*
X25973353Y12053180D01*
X25975044Y12051119D01*
X25976464Y12048864D01*
X25977959Y12047568D01*
X25982680Y12041815D01*
X26020775Y12003720D01*
X26026524Y11999002D01*
X26027824Y11997503D01*
X26030083Y11996082D01*
X26032140Y11994393D01*
X26033967Y11993636D01*
X26040267Y11989671D01*
X26116457Y11951576D01*
X26130189Y11946321D01*
X26132876Y11946131D01*
X26135366Y11945099D01*
X26149998Y11943658D01*
X26379760Y11943658D01*
X26379760Y11637705D01*
X26381201Y11623073D01*
X26392400Y11596037D01*
X26413092Y11575345D01*
X26440128Y11564146D01*
X26469392Y11564146D01*
X26496428Y11575345D01*
X26517120Y11596037D01*
X26528319Y11623073D01*
X26529760Y11637705D01*
X26529760Y12437705D01*
X26528319Y12452337D01*
X26517120Y12479373D01*
X26496428Y12500065D01*
X26469392Y12511264D01*
X26454760Y12512705D01*
X26149998Y12512705D01*
X26135366Y12511264D01*
X26132876Y12510233D01*
X26130189Y12510042D01*
X26116457Y12504787D01*
X26040267Y12466692D01*
X26033967Y12462728D01*
X26032140Y12461970D01*
X26030083Y12460282D01*
X26027824Y12458860D01*
X26026524Y12457362D01*
X26020775Y12452643D01*
X25982680Y12414548D01*
X25977959Y12408796D01*
X25976464Y12407499D01*
X25975044Y12405245D01*
X25973353Y12403183D01*
X25972594Y12401353D01*
X25968631Y12395056D01*
X25930535Y12318865D01*
X25925280Y12305134D01*
X25925088Y12302445D01*
X25924058Y12299956D01*
X25922617Y12285324D01*
X24882789Y12285324D01*
X24882789Y12601594D01*
X26618649Y12601594D01*
X26618649Y11475257D01*
G37*
G36*
X24815474Y4212705D02*
G01*
X24712168Y4212705D01*
X24626226Y4241352D01*
X24571161Y4296418D01*
X24542191Y4354358D01*
X24508331Y4489798D01*
X24508331Y4585613D01*
X24542191Y4721054D01*
X24571161Y4778994D01*
X24626225Y4834058D01*
X24712168Y4862705D01*
X24815474Y4862705D01*
X24815474Y4212705D01*
G37*
G36*
X26730554Y3973816D02*
G01*
X24269442Y3973816D01*
X24269442Y4594848D01*
X24358331Y4594848D01*
X24358331Y4480562D01*
X24358582Y4478009D01*
X24358420Y4476916D01*
X24359229Y4471442D01*
X24359772Y4465930D01*
X24360194Y4464910D01*
X24360570Y4462371D01*
X24398666Y4309990D01*
X24399051Y4308911D01*
X24399090Y4308372D01*
X24401414Y4302297D01*
X24403613Y4296145D01*
X24403935Y4295710D01*
X24404345Y4294640D01*
X24442440Y4218450D01*
X24446403Y4212154D01*
X24447161Y4210324D01*
X24448850Y4208266D01*
X24450272Y4206007D01*
X24451770Y4204708D01*
X24456489Y4198958D01*
X24532679Y4122767D01*
X24544044Y4113440D01*
X24546534Y4112409D01*
X24548570Y4110643D01*
X24561995Y4104649D01*
X24676281Y4066554D01*
X24683534Y4064905D01*
X24685366Y4064146D01*
X24688020Y4063885D01*
X24690618Y4063294D01*
X24692592Y4063435D01*
X24699998Y4062705D01*
X24890474Y4062705D01*
X24905106Y4064146D01*
X24932142Y4075345D01*
X24952834Y4096037D01*
X24964033Y4123073D01*
X24965474Y4137705D01*
X24965474Y4937705D01*
X25196426Y4937705D01*
X25196426Y4137705D01*
X25196796Y4133942D01*
X25196609Y4132466D01*
X25197130Y4130556D01*
X25197867Y4123073D01*
X25201684Y4113858D01*
X25204309Y4104234D01*
X25207236Y4100454D01*
X25209066Y4096037D01*
X25216116Y4088987D01*
X25222226Y4081097D01*
X25226379Y4078724D01*
X25229758Y4075345D01*
X25238970Y4071529D01*
X25247635Y4066578D01*
X25252378Y4065976D01*
X25256794Y4064146D01*
X25266768Y4064146D01*
X25276665Y4062888D01*
X25281277Y4064146D01*
X25286058Y4064146D01*
X25295273Y4067964D01*
X25304897Y4070588D01*
X25308677Y4073516D01*
X25313094Y4075345D01*
X25320144Y4082396D01*
X25328034Y4088505D01*
X25332386Y4094638D01*
X25333786Y4096037D01*
X25334355Y4097412D01*
X25336544Y4100495D01*
X25653569Y4655289D01*
X25653569Y4137705D01*
X25655010Y4123073D01*
X25666209Y4096037D01*
X25686901Y4075345D01*
X25713937Y4064146D01*
X25743201Y4064146D01*
X25770237Y4075345D01*
X25790929Y4096037D01*
X25802128Y4123073D01*
X25803569Y4137705D01*
X25803569Y4480562D01*
X25996426Y4480562D01*
X25996426Y4213896D01*
X25997867Y4199264D01*
X25997994Y4198958D01*
X26009066Y4172228D01*
X26018393Y4160863D01*
X26056489Y4122767D01*
X26067854Y4113439D01*
X26070344Y4112408D01*
X26072379Y4110643D01*
X26085805Y4104649D01*
X26200090Y4066554D01*
X26207343Y4064905D01*
X26209175Y4064146D01*
X26211829Y4063885D01*
X26214427Y4063294D01*
X26216401Y4063435D01*
X26223807Y4062705D01*
X26299998Y4062705D01*
X26307403Y4063435D01*
X26309378Y4063294D01*
X26311975Y4063885D01*
X26314630Y4064146D01*
X26316461Y4064905D01*
X26323715Y4066554D01*
X26438001Y4104649D01*
X26451426Y4110643D01*
X26453461Y4112409D01*
X26455952Y4113440D01*
X26467317Y4122767D01*
X26543508Y4198959D01*
X26548225Y4204708D01*
X26549724Y4206007D01*
X26551145Y4208266D01*
X26552835Y4210324D01*
X26553592Y4212154D01*
X26557556Y4218450D01*
X26595651Y4294640D01*
X26596060Y4295710D01*
X26596383Y4296145D01*
X26598581Y4302297D01*
X26600906Y4308372D01*
X26600944Y4308911D01*
X26601330Y4309990D01*
X26639426Y4462372D01*
X26639801Y4464909D01*
X26640224Y4465930D01*
X26640766Y4471443D01*
X26641576Y4476916D01*
X26641413Y4478009D01*
X26641665Y4480562D01*
X26641665Y4594848D01*
X26641413Y4597402D01*
X26641576Y4598494D01*
X26640766Y4603968D01*
X26640224Y4609480D01*
X26639801Y4610502D01*
X26639426Y4613038D01*
X26601330Y4765420D01*
X26600944Y4766500D01*
X26600906Y4767038D01*
X26598581Y4773114D01*
X26596383Y4779265D01*
X26596060Y4779701D01*
X26595651Y4780770D01*
X26557556Y4856961D01*
X26553593Y4863256D01*
X26552835Y4865088D01*
X26551143Y4867150D01*
X26549724Y4869404D01*
X26548227Y4870703D01*
X26543507Y4876453D01*
X26467317Y4952643D01*
X26455952Y4961970D01*
X26453461Y4963002D01*
X26451426Y4964767D01*
X26438001Y4970761D01*
X26323715Y5008856D01*
X26316461Y5010506D01*
X26314630Y5011264D01*
X26311975Y5011526D01*
X26309378Y5012116D01*
X26307403Y5011976D01*
X26299998Y5012705D01*
X26185712Y5012705D01*
X26171080Y5011264D01*
X26168590Y5010233D01*
X26165903Y5010042D01*
X26152171Y5004787D01*
X26075981Y4966692D01*
X26063538Y4958860D01*
X26044365Y4936752D01*
X26035111Y4908991D01*
X26037185Y4879801D01*
X26050272Y4853626D01*
X26072380Y4834453D01*
X26100141Y4825199D01*
X26129331Y4827273D01*
X26143063Y4832528D01*
X26203417Y4862705D01*
X26287828Y4862705D01*
X26373770Y4834058D01*
X26428834Y4778994D01*
X26457804Y4721055D01*
X26491665Y4585613D01*
X26491665Y4489798D01*
X26457804Y4354357D01*
X26428834Y4296418D01*
X26373769Y4241352D01*
X26287828Y4212705D01*
X26235977Y4212705D01*
X26150036Y4241352D01*
X26146426Y4244962D01*
X26146426Y4405562D01*
X26223807Y4405562D01*
X26238439Y4407003D01*
X26265475Y4418202D01*
X26286167Y4438894D01*
X26297366Y4465930D01*
X26297366Y4495194D01*
X26286167Y4522230D01*
X26265475Y4542922D01*
X26238439Y4554121D01*
X26223807Y4555562D01*
X26071426Y4555562D01*
X26056794Y4554121D01*
X26029758Y4542922D01*
X26009066Y4522230D01*
X25997867Y4495194D01*
X25996426Y4480562D01*
X25803569Y4480562D01*
X25803569Y4937705D01*
X25803198Y4941469D01*
X25803386Y4942944D01*
X25802864Y4944855D01*
X25802128Y4952337D01*
X25798310Y4961553D01*
X25795686Y4971176D01*
X25792758Y4974957D01*
X25790929Y4979373D01*
X25783878Y4986424D01*
X25777769Y4994313D01*
X25773615Y4996687D01*
X25770237Y5000065D01*
X25761024Y5003882D01*
X25752360Y5008832D01*
X25747616Y5009435D01*
X25743201Y5011264D01*
X25733227Y5011264D01*
X25723330Y5012522D01*
X25718718Y5011264D01*
X25713937Y5011264D01*
X25704720Y5007447D01*
X25695099Y5004822D01*
X25691319Y5001896D01*
X25686901Y5000065D01*
X25679849Y4993014D01*
X25671961Y4986905D01*
X25667608Y4980773D01*
X25666209Y4979373D01*
X25665639Y4977999D01*
X25663451Y4974915D01*
X25346426Y4420122D01*
X25346426Y4937705D01*
X25344985Y4952337D01*
X25333786Y4979373D01*
X25313094Y5000065D01*
X25286058Y5011264D01*
X25256794Y5011264D01*
X25229758Y5000065D01*
X25209066Y4979373D01*
X25197867Y4952337D01*
X25196426Y4937705D01*
X24965474Y4937705D01*
X24964033Y4952337D01*
X24952834Y4979373D01*
X24932142Y5000065D01*
X24905106Y5011264D01*
X24890474Y5012705D01*
X24699998Y5012705D01*
X24692592Y5011976D01*
X24690618Y5012116D01*
X24688020Y5011526D01*
X24685366Y5011264D01*
X24683534Y5010506D01*
X24676281Y5008856D01*
X24561995Y4970761D01*
X24548570Y4964767D01*
X24546536Y4963004D01*
X24544044Y4961971D01*
X24532679Y4952643D01*
X24456489Y4876453D01*
X24451770Y4870704D01*
X24450272Y4869404D01*
X24448850Y4867145D01*
X24447162Y4865088D01*
X24446404Y4863261D01*
X24442440Y4856961D01*
X24404345Y4780770D01*
X24403935Y4779701D01*
X24403613Y4779265D01*
X24401414Y4773114D01*
X24399090Y4767038D01*
X24399051Y4766500D01*
X24398666Y4765420D01*
X24360570Y4613039D01*
X24360194Y4610501D01*
X24359772Y4609480D01*
X24359229Y4603969D01*
X24358420Y4598494D01*
X24358582Y4597402D01*
X24358331Y4594848D01*
X24269442Y4594848D01*
X24269442Y5101594D01*
X26730554Y5101594D01*
X26730554Y3973816D01*
G37*
X15841794Y5380180D02*
X16175127Y5856371D01*
X16413222Y5380180D02*
X16413222Y6380180D01*
X16413222Y6380180D02*
X16032270Y6380180D01*
X16032270Y6380180D02*
X15937032Y6332561D01*
X15937032Y6332561D02*
X15889413Y6284942D01*
X15889413Y6284942D02*
X15841794Y6189704D01*
X15841794Y6189704D02*
X15841794Y6046847D01*
X15841794Y6046847D02*
X15889413Y5951609D01*
X15889413Y5951609D02*
X15937032Y5903990D01*
X15937032Y5903990D02*
X16032270Y5856371D01*
X16032270Y5856371D02*
X16413222Y5856371D01*
X15460841Y6284942D02*
X15413222Y6332561D01*
X15413222Y6332561D02*
X15317984Y6380180D01*
X15317984Y6380180D02*
X15079889Y6380180D01*
X15079889Y6380180D02*
X14984651Y6332561D01*
X14984651Y6332561D02*
X14937032Y6284942D01*
X14937032Y6284942D02*
X14889413Y6189704D01*
X14889413Y6189704D02*
X14889413Y6094466D01*
X14889413Y6094466D02*
X14937032Y5951609D01*
X14937032Y5951609D02*
X15508460Y5380180D01*
X15508460Y5380180D02*
X14889413Y5380180D01*
X14460841Y5380180D02*
X14460841Y6380180D01*
X14460841Y6380180D02*
X14222746Y6380180D01*
X14222746Y6380180D02*
X14079889Y6332561D01*
X14079889Y6332561D02*
X13984651Y6237323D01*
X13984651Y6237323D02*
X13937032Y6142085D01*
X13937032Y6142085D02*
X13889413Y5951609D01*
X13889413Y5951609D02*
X13889413Y5808752D01*
X13889413Y5808752D02*
X13937032Y5618276D01*
X13937032Y5618276D02*
X13984651Y5523038D01*
X13984651Y5523038D02*
X14079889Y5427799D01*
X14079889Y5427799D02*
X14222746Y5380180D01*
X14222746Y5380180D02*
X14460841Y5380180D01*
X13460841Y5761133D02*
X12698937Y5761133D01*
X12032270Y6380180D02*
X11937032Y6380180D01*
X11937032Y6380180D02*
X11841794Y6332561D01*
X11841794Y6332561D02*
X11794175Y6284942D01*
X11794175Y6284942D02*
X11746556Y6189704D01*
X11746556Y6189704D02*
X11698937Y5999228D01*
X11698937Y5999228D02*
X11698937Y5761133D01*
X11698937Y5761133D02*
X11746556Y5570657D01*
X11746556Y5570657D02*
X11794175Y5475419D01*
X11794175Y5475419D02*
X11841794Y5427799D01*
X11841794Y5427799D02*
X11937032Y5380180D01*
X11937032Y5380180D02*
X12032270Y5380180D01*
X12032270Y5380180D02*
X12127508Y5427799D01*
X12127508Y5427799D02*
X12175127Y5475419D01*
X12175127Y5475419D02*
X12222746Y5570657D01*
X12222746Y5570657D02*
X12270365Y5761133D01*
X12270365Y5761133D02*
X12270365Y5999228D01*
X12270365Y5999228D02*
X12222746Y6189704D01*
X12222746Y6189704D02*
X12175127Y6284942D01*
X12175127Y6284942D02*
X12127508Y6332561D01*
X12127508Y6332561D02*
X12032270Y6380180D01*
X10794175Y6380180D02*
X11270365Y6380180D01*
X11270365Y6380180D02*
X11317984Y5903990D01*
X11317984Y5903990D02*
X11270365Y5951609D01*
X11270365Y5951609D02*
X11175127Y5999228D01*
X11175127Y5999228D02*
X10937032Y5999228D01*
X10937032Y5999228D02*
X10841794Y5951609D01*
X10841794Y5951609D02*
X10794175Y5903990D01*
X10794175Y5903990D02*
X10746556Y5808752D01*
X10746556Y5808752D02*
X10746556Y5570657D01*
X10746556Y5570657D02*
X10794175Y5475419D01*
X10794175Y5475419D02*
X10841794Y5427799D01*
X10841794Y5427799D02*
X10937032Y5380180D01*
X10937032Y5380180D02*
X11175127Y5380180D01*
X11175127Y5380180D02*
X11270365Y5427799D01*
X11270365Y5427799D02*
X11317984Y5475419D01*
X10365603Y6284942D02*
X10317984Y6332561D01*
X10317984Y6332561D02*
X10222746Y6380180D01*
X10222746Y6380180D02*
X9984651Y6380180D01*
X9984651Y6380180D02*
X9889413Y6332561D01*
X9889413Y6332561D02*
X9841794Y6284942D01*
X9841794Y6284942D02*
X9794175Y6189704D01*
X9794175Y6189704D02*
X9794175Y6094466D01*
X9794175Y6094466D02*
X9841794Y5951609D01*
X9841794Y5951609D02*
X10413222Y5380180D01*
X10413222Y5380180D02*
X9794175Y5380180D01*
X8937032Y6046847D02*
X8937032Y5380180D01*
X9175127Y6427799D02*
X9413222Y5713514D01*
X9413222Y5713514D02*
X8794175Y5713514D01*
X7698937Y6427799D02*
X8556079Y5142085D01*
X7365603Y5380180D02*
X7365603Y6380180D01*
X7365603Y6380180D02*
X6984651Y6380180D01*
X6984651Y6380180D02*
X6889413Y6332561D01*
X6889413Y6332561D02*
X6841794Y6284942D01*
X6841794Y6284942D02*
X6794175Y6189704D01*
X6794175Y6189704D02*
X6794175Y6046847D01*
X6794175Y6046847D02*
X6841794Y5951609D01*
X6841794Y5951609D02*
X6889413Y5903990D01*
X6889413Y5903990D02*
X6984651Y5856371D01*
X6984651Y5856371D02*
X7365603Y5856371D01*
X13266668Y18187704D02*
X13266668Y17616276D01*
X13266668Y17616276D02*
X13304763Y17501990D01*
X13304763Y17501990D02*
X13380954Y17425799D01*
X13380954Y17425799D02*
X13495239Y17387704D01*
X13495239Y17387704D02*
X13571430Y17387704D01*
X12504763Y18187704D02*
X12885715Y18187704D01*
X12885715Y18187704D02*
X12923811Y17806752D01*
X12923811Y17806752D02*
X12885715Y17844847D01*
X12885715Y17844847D02*
X12809525Y17882942D01*
X12809525Y17882942D02*
X12619049Y17882942D01*
X12619049Y17882942D02*
X12542858Y17844847D01*
X12542858Y17844847D02*
X12504763Y17806752D01*
X12504763Y17806752D02*
X12466668Y17730561D01*
X12466668Y17730561D02*
X12466668Y17540085D01*
X12466668Y17540085D02*
X12504763Y17463895D01*
X12504763Y17463895D02*
X12542858Y17425799D01*
X12542858Y17425799D02*
X12619049Y17387704D01*
X12619049Y17387704D02*
X12809525Y17387704D01*
X12809525Y17387704D02*
X12885715Y17425799D01*
X12885715Y17425799D02*
X12923811Y17463895D01*
X12016668Y4687704D02*
X12016668Y4116276D01*
X12016668Y4116276D02*
X12054763Y4001990D01*
X12054763Y4001990D02*
X12130954Y3925799D01*
X12130954Y3925799D02*
X12245239Y3887704D01*
X12245239Y3887704D02*
X12321430Y3887704D01*
X11711906Y4687704D02*
X11178572Y4687704D01*
X11178572Y4687704D02*
X11521430Y3887704D01*
D12*
%TO.C,G\u002A\u002A\u002A*%
G36*
X69569999Y5856585D02*
G01*
X69569999Y4653849D01*
X69407499Y4653849D01*
X69244999Y4653849D01*
X69244999Y5228962D01*
X69244999Y5804075D01*
X68752499Y5804075D01*
X68259999Y5804075D01*
X68259999Y5941602D01*
X68259999Y6079129D01*
X68752499Y6079129D01*
X69244999Y6079129D01*
X69244999Y6431676D01*
X69244999Y6784224D01*
X68701249Y6785496D01*
X68157499Y6786769D01*
X68156169Y6923045D01*
X68154839Y7059322D01*
X68862419Y7059322D01*
X69569999Y7059322D01*
X69569999Y5856585D01*
G37*
G36*
X59944999Y12692931D02*
G01*
X59944999Y11885272D01*
X60672499Y11885272D01*
X61399999Y11885272D01*
X61399999Y12692931D01*
X61399999Y13500590D01*
X61667499Y13500590D01*
X61934999Y13500590D01*
X61934999Y11535203D01*
X61934999Y9569816D01*
X61667499Y9569816D01*
X61399999Y9569816D01*
X61399999Y10505001D01*
X61399999Y11440185D01*
X60672499Y11440185D01*
X59944999Y11440185D01*
X59944999Y10505001D01*
X59944999Y9569816D01*
X59677499Y9569816D01*
X59409999Y9569816D01*
X59409999Y11535203D01*
X59409999Y13500590D01*
X59677499Y13500590D01*
X59944999Y13500590D01*
X59944999Y12692931D01*
G37*
G36*
X65035007Y6072298D02*
G01*
X65073655Y6058834D01*
X65109015Y6038249D01*
X65139945Y6011109D01*
X65165301Y5977986D01*
X65183941Y5939446D01*
X65194720Y5896060D01*
X65196984Y5870399D01*
X65194239Y5825620D01*
X65183317Y5783708D01*
X65164932Y5745721D01*
X65139802Y5712718D01*
X65108642Y5685758D01*
X65072169Y5665898D01*
X65031097Y5654197D01*
X64992293Y5650312D01*
X64945619Y5653595D01*
X64902619Y5666135D01*
X64863440Y5687884D01*
X64828228Y5718797D01*
X64826344Y5720838D01*
X64800329Y5756298D01*
X64782894Y5795109D01*
X64773824Y5835969D01*
X64772906Y5877575D01*
X64779923Y5918625D01*
X64794660Y5957814D01*
X64816904Y5993841D01*
X64846438Y6025402D01*
X64883049Y6051194D01*
X64910773Y6064262D01*
X64952423Y6075580D01*
X64994216Y6078069D01*
X65035007Y6072298D01*
G37*
G36*
X59076107Y6073974D02*
G01*
X59114258Y6061685D01*
X59150746Y6041050D01*
X59184589Y6011582D01*
X59207897Y5982235D01*
X59228536Y5942471D01*
X59240405Y5899497D01*
X59243329Y5854486D01*
X59237132Y5808612D01*
X59221640Y5763050D01*
X59205940Y5736247D01*
X59180147Y5707457D01*
X59148466Y5683107D01*
X59113061Y5664814D01*
X59076097Y5654197D01*
X59050242Y5650869D01*
X59008521Y5650881D01*
X58970454Y5658519D01*
X58952839Y5664786D01*
X58912526Y5685914D01*
X58878258Y5714033D01*
X58850910Y5748142D01*
X58831358Y5787239D01*
X58820475Y5830321D01*
X58818848Y5845284D01*
X58819697Y5889596D01*
X58828690Y5930444D01*
X58844845Y5967342D01*
X58867182Y5999800D01*
X58894720Y6027329D01*
X58926479Y6049443D01*
X58961478Y6065653D01*
X58998736Y6075470D01*
X59037272Y6078407D01*
X59076107Y6073974D01*
G37*
G36*
X61050736Y6075948D02*
G01*
X61090593Y6065283D01*
X61127085Y6047141D01*
X61159316Y6022360D01*
X61186390Y5991780D01*
X61207413Y5956237D01*
X61221489Y5916571D01*
X61227724Y5873619D01*
X61225221Y5828219D01*
X61225109Y5827499D01*
X61214576Y5784150D01*
X61197194Y5746976D01*
X61172124Y5714174D01*
X61158674Y5701432D01*
X61128601Y5680189D01*
X61095100Y5663789D01*
X61062028Y5654331D01*
X61016902Y5650435D01*
X60970418Y5655025D01*
X60927567Y5668794D01*
X60888714Y5691619D01*
X60854222Y5723380D01*
X60842400Y5737926D01*
X60820663Y5774836D01*
X60807502Y5814151D01*
X60802536Y5854676D01*
X60805383Y5895213D01*
X60815662Y5934566D01*
X60832991Y5971538D01*
X60856990Y6004932D01*
X60887277Y6033551D01*
X60923470Y6056198D01*
X60965189Y6071677D01*
X61008407Y6078300D01*
X61050736Y6075948D01*
G37*
G36*
X63063259Y6069582D02*
G01*
X63101382Y6053404D01*
X63136197Y6029358D01*
X63166537Y5997625D01*
X63191235Y5958384D01*
X63202452Y5930196D01*
X63210899Y5888318D01*
X63211592Y5844453D01*
X63204550Y5801071D01*
X63189791Y5760643D01*
X63179044Y5741936D01*
X63153189Y5710827D01*
X63120991Y5684780D01*
X63084582Y5665377D01*
X63046097Y5654197D01*
X63017534Y5650647D01*
X62976982Y5651088D01*
X62939064Y5658927D01*
X62924016Y5664151D01*
X62884398Y5684249D01*
X62851081Y5710756D01*
X62824370Y5742488D01*
X62804571Y5778260D01*
X62791989Y5816889D01*
X62786931Y5857190D01*
X62789702Y5897978D01*
X62800608Y5938069D01*
X62819955Y5976280D01*
X62848049Y6011425D01*
X62863820Y6026150D01*
X62900997Y6052014D01*
X62940696Y6069108D01*
X62981749Y6077614D01*
X63022992Y6077712D01*
X63063259Y6069582D01*
G37*
G36*
X54065471Y15435968D02*
G01*
X54120564Y15435935D01*
X54172278Y15435868D01*
X54219785Y15435771D01*
X54262258Y15435646D01*
X54298869Y15435497D01*
X54328790Y15435327D01*
X54351194Y15435139D01*
X54365253Y15434936D01*
X54370140Y15434721D01*
X54370145Y15434383D01*
X54370181Y15426871D01*
X54370237Y15409751D01*
X54370313Y15383337D01*
X54370408Y15347944D01*
X54370521Y15303889D01*
X54370652Y15251488D01*
X54370800Y15191055D01*
X54370965Y15122907D01*
X54371145Y15047359D01*
X54371340Y14964727D01*
X54371549Y14875326D01*
X54371772Y14779473D01*
X54372008Y14677483D01*
X54372256Y14569671D01*
X54372515Y14456353D01*
X54372785Y14337846D01*
X54373065Y14214464D01*
X54373355Y14086524D01*
X54373653Y13954340D01*
X54373960Y13818229D01*
X54374274Y13678506D01*
X54374594Y13535488D01*
X54374920Y13389489D01*
X54375252Y13240825D01*
X54375588Y13089812D01*
X54375928Y12936766D01*
X54376271Y12782002D01*
X54376616Y12625836D01*
X54376963Y12468584D01*
X54377312Y12310561D01*
X54377660Y12152084D01*
X54378009Y11993467D01*
X54378356Y11835026D01*
X54378702Y11677077D01*
X54379045Y11519936D01*
X54379385Y11363918D01*
X54379722Y11209340D01*
X54380054Y11056516D01*
X54380380Y10905762D01*
X54380701Y10757395D01*
X54381016Y10611729D01*
X54381323Y10469081D01*
X54381622Y10329766D01*
X54381912Y10194099D01*
X54382193Y10062397D01*
X54382464Y9934975D01*
X54382725Y9812149D01*
X54382973Y9694234D01*
X54383210Y9581546D01*
X54383434Y9474401D01*
X54383645Y9373115D01*
X54383841Y9278002D01*
X54384022Y9189380D01*
X54384188Y9107563D01*
X54384338Y9032867D01*
X54384470Y8965607D01*
X54384585Y8906101D01*
X54384681Y8854662D01*
X54384759Y8811607D01*
X54384817Y8777252D01*
X54384854Y8751912D01*
X54384870Y8735902D01*
X54384999Y8459598D01*
X61999999Y8459598D01*
X69614999Y8459598D01*
X69614999Y11610218D01*
X69614999Y14760838D01*
X63137499Y14760838D01*
X56659999Y14760838D01*
X56659999Y15098405D01*
X56659999Y15435971D01*
X63474999Y15435971D01*
X70289999Y15435971D01*
X70289999Y11612719D01*
X70289999Y7789466D01*
X62002499Y7789466D01*
X53714999Y7789466D01*
X53714999Y11612719D01*
X53714999Y15435971D01*
X54042499Y15435971D01*
X54065471Y15435968D01*
G37*
G36*
X57229893Y7096640D02*
G01*
X57326630Y7085637D01*
X57423667Y7067061D01*
X57522221Y7040663D01*
X57623509Y7006198D01*
X57728749Y6963418D01*
X57774999Y6943211D01*
X57774999Y6781223D01*
X57774969Y6756919D01*
X57774794Y6719751D01*
X57774483Y6686702D01*
X57774054Y6658950D01*
X57773529Y6637671D01*
X57772926Y6624040D01*
X57772267Y6619236D01*
X57770787Y6619753D01*
X57762259Y6624037D01*
X57748182Y6631718D01*
X57730665Y6641659D01*
X57719390Y6648010D01*
X57689140Y6664113D01*
X57653528Y6682119D01*
X57614910Y6700911D01*
X57575641Y6719373D01*
X57538079Y6736389D01*
X57504580Y6750842D01*
X57477499Y6761615D01*
X57455376Y6769444D01*
X57401982Y6785978D01*
X57345135Y6800839D01*
X57288923Y6813010D01*
X57237435Y6821470D01*
X57233507Y6821977D01*
X57153687Y6828567D01*
X57079242Y6827453D01*
X57010398Y6818728D01*
X56947379Y6802484D01*
X56890411Y6778814D01*
X56839722Y6747811D01*
X56795535Y6709568D01*
X56758077Y6664178D01*
X56727573Y6611734D01*
X56712348Y6577018D01*
X56699614Y6538419D01*
X56690933Y6497428D01*
X56685338Y6450354D01*
X56683276Y6405568D01*
X56687625Y6331919D01*
X56701697Y6258543D01*
X56725554Y6185212D01*
X56759264Y6111702D01*
X56802888Y6037785D01*
X56818303Y6014589D01*
X56834193Y5991424D01*
X56850857Y5967964D01*
X56868617Y5943846D01*
X56887795Y5918703D01*
X56908716Y5892171D01*
X56931702Y5863885D01*
X56957075Y5833480D01*
X56985160Y5800591D01*
X57016280Y5764852D01*
X57050756Y5725900D01*
X57088913Y5683369D01*
X57131074Y5636893D01*
X57177561Y5586109D01*
X57228698Y5530651D01*
X57284807Y5470153D01*
X57346212Y5404251D01*
X57413235Y5332581D01*
X57486201Y5254776D01*
X57565431Y5170473D01*
X57651249Y5079305D01*
X57794999Y4926691D01*
X57794999Y4793604D01*
X57794884Y4758858D01*
X57794549Y4726569D01*
X57794027Y4698915D01*
X57793351Y4677238D01*
X57792553Y4662880D01*
X57791666Y4657183D01*
X57786366Y4656795D01*
X57771625Y4656421D01*
X57748002Y4656061D01*
X57716054Y4655720D01*
X57676341Y4655399D01*
X57629421Y4655101D01*
X57575854Y4654828D01*
X57516197Y4654584D01*
X57451009Y4654370D01*
X57380850Y4654189D01*
X57306277Y4654044D01*
X57227850Y4653937D01*
X57146127Y4653871D01*
X57061666Y4653849D01*
X56334999Y4653849D01*
X56334999Y4791354D01*
X56334999Y4928859D01*
X56885700Y4930131D01*
X57436401Y4931403D01*
X57329450Y5044102D01*
X57256120Y5121451D01*
X57172719Y5209649D01*
X57095820Y5291245D01*
X57025148Y5366538D01*
X56960430Y5435827D01*
X56901393Y5499409D01*
X56847762Y5557583D01*
X56799264Y5610648D01*
X56755626Y5658901D01*
X56716574Y5702640D01*
X56681834Y5742165D01*
X56651133Y5777774D01*
X56624196Y5809764D01*
X56600751Y5838434D01*
X56549866Y5904900D01*
X56493378Y5988311D01*
X56446251Y6070216D01*
X56408581Y6150430D01*
X56380464Y6228765D01*
X56361995Y6305035D01*
X56361870Y6305725D01*
X56357175Y6341659D01*
X56354372Y6384104D01*
X56353460Y6429822D01*
X56354439Y6475573D01*
X56357307Y6518120D01*
X56362064Y6554223D01*
X56380177Y6629385D01*
X56407198Y6701538D01*
X56442431Y6768733D01*
X56485473Y6830658D01*
X56535920Y6886997D01*
X56593369Y6937438D01*
X56657416Y6981668D01*
X56727658Y7019371D01*
X56803690Y7050235D01*
X56885111Y7073946D01*
X56971515Y7090190D01*
X57062499Y7098653D01*
X57132238Y7100316D01*
X57229893Y7096640D01*
G37*
G36*
X65760229Y5794705D02*
G01*
X65758690Y5718587D01*
X65755355Y5648679D01*
X65751574Y5596745D01*
X65739163Y5476854D01*
X65722092Y5365424D01*
X65700264Y5262131D01*
X65673580Y5166648D01*
X65641941Y5078650D01*
X65605250Y4997811D01*
X65563408Y4923807D01*
X65516317Y4856310D01*
X65478745Y4811932D01*
X65422225Y4758164D01*
X65360027Y4712529D01*
X65292426Y4675176D01*
X65219703Y4646251D01*
X65142135Y4625903D01*
X65059999Y4614279D01*
X65049902Y4613433D01*
X65027238Y4611657D01*
X65007818Y4610292D01*
X64994999Y4609579D01*
X64983367Y4609569D01*
X64959552Y4610687D01*
X64930591Y4612910D01*
X64899319Y4615954D01*
X64868573Y4619532D01*
X64841188Y4623362D01*
X64819999Y4627157D01*
X64793589Y4633370D01*
X64717855Y4657702D01*
X64647283Y4690566D01*
X64581893Y4731924D01*
X64521708Y4781738D01*
X64466747Y4839970D01*
X64417031Y4906581D01*
X64372583Y4981533D01*
X64333422Y5064788D01*
X64299571Y5156308D01*
X64271049Y5256055D01*
X64247877Y5363989D01*
X64230078Y5480074D01*
X64217671Y5604271D01*
X64210678Y5736541D01*
X64210004Y5760058D01*
X64209234Y5859191D01*
X64534215Y5859191D01*
X64534592Y5789335D01*
X64535851Y5721374D01*
X64537991Y5657323D01*
X64541011Y5599201D01*
X64544912Y5549025D01*
X64554761Y5462092D01*
X64570381Y5363490D01*
X64589896Y5274015D01*
X64613338Y5193604D01*
X64640738Y5122199D01*
X64672127Y5059738D01*
X64707536Y5006160D01*
X64746997Y4961406D01*
X64790540Y4925414D01*
X64838197Y4898124D01*
X64889999Y4879476D01*
X64905921Y4875577D01*
X64964936Y4867085D01*
X65022498Y4868071D01*
X65077854Y4878346D01*
X65130252Y4897720D01*
X65178940Y4926007D01*
X65223166Y4963017D01*
X65226019Y4965868D01*
X65263652Y5009327D01*
X65297343Y5059907D01*
X65327180Y5117900D01*
X65353254Y5183601D01*
X65375656Y5257302D01*
X65394475Y5339298D01*
X65409801Y5429881D01*
X65421725Y5529346D01*
X65430336Y5637985D01*
X65431649Y5664856D01*
X65432811Y5703473D01*
X65433574Y5748115D01*
X65433953Y5797181D01*
X65433964Y5849067D01*
X65433624Y5902172D01*
X65432949Y5954892D01*
X65431954Y6005626D01*
X65430657Y6052771D01*
X65429073Y6094724D01*
X65427219Y6129882D01*
X65425110Y6156645D01*
X65420474Y6199226D01*
X65406460Y6300685D01*
X65389144Y6392910D01*
X65368444Y6476078D01*
X65344280Y6550366D01*
X65316572Y6615949D01*
X65285238Y6673004D01*
X65250199Y6721708D01*
X65211372Y6762236D01*
X65168679Y6794766D01*
X65122037Y6819473D01*
X65094407Y6829483D01*
X65045166Y6840304D01*
X64992739Y6844437D01*
X64939734Y6841907D01*
X64888759Y6832738D01*
X64842422Y6816952D01*
X64797759Y6792611D01*
X64753774Y6758022D01*
X64713812Y6714601D01*
X64677852Y6662299D01*
X64645871Y6601064D01*
X64617847Y6530847D01*
X64593755Y6451596D01*
X64573574Y6363263D01*
X64557280Y6265796D01*
X64544851Y6159145D01*
X64541517Y6117203D01*
X64538369Y6059946D01*
X64536102Y5996513D01*
X64534718Y5928923D01*
X64534215Y5859191D01*
X64209234Y5859191D01*
X64208884Y5904228D01*
X64213176Y6040460D01*
X64222861Y6168707D01*
X64237925Y6288922D01*
X64258348Y6401059D01*
X64284115Y6505070D01*
X64315209Y6600907D01*
X64351612Y6688526D01*
X64393308Y6767877D01*
X64440279Y6838914D01*
X64492509Y6901591D01*
X64549981Y6955859D01*
X64612678Y7001673D01*
X64680582Y7038985D01*
X64687925Y7042367D01*
X64754645Y7067894D01*
X64825672Y7085886D01*
X64901965Y7096535D01*
X64984484Y7100034D01*
X65000246Y7099912D01*
X65084284Y7094786D01*
X65162427Y7081957D01*
X65235348Y7061195D01*
X65303721Y7032272D01*
X65368221Y6994959D01*
X65429521Y6949028D01*
X65458769Y6922503D01*
X65507378Y6868909D01*
X65552410Y6806746D01*
X65593597Y6736601D01*
X65630670Y6659059D01*
X65663360Y6574709D01*
X65691400Y6484136D01*
X65714521Y6387927D01*
X65732454Y6286670D01*
X65736109Y6260188D01*
X65743710Y6192424D01*
X65749982Y6117836D01*
X65754848Y6038599D01*
X65758230Y5956883D01*
X65760050Y5874861D01*
X65760108Y5849067D01*
X65760229Y5794705D01*
G37*
G36*
X61787775Y5810068D02*
G01*
X61787120Y5754806D01*
X61786094Y5701918D01*
X61784704Y5652899D01*
X61782956Y5609247D01*
X61780856Y5572456D01*
X61778410Y5544024D01*
X61772534Y5494641D01*
X61755274Y5380871D01*
X61733709Y5275773D01*
X61707726Y5179041D01*
X61677212Y5090369D01*
X61642055Y5009453D01*
X61602142Y4935988D01*
X61557362Y4869667D01*
X61507600Y4810187D01*
X61506104Y4808587D01*
X61450840Y4756888D01*
X61389128Y4712345D01*
X61321930Y4675415D01*
X61250210Y4646556D01*
X61174930Y4626227D01*
X61097053Y4614885D01*
X61073805Y4612933D01*
X61049392Y4611073D01*
X61030016Y4610056D01*
X61012859Y4609870D01*
X60995102Y4610500D01*
X60973929Y4611933D01*
X60946522Y4614155D01*
X60883781Y4621840D01*
X60804014Y4639593D01*
X60729495Y4665861D01*
X60660224Y4700641D01*
X60596203Y4743935D01*
X60537430Y4795742D01*
X60483906Y4856062D01*
X60435632Y4924894D01*
X60392606Y5002239D01*
X60354830Y5088097D01*
X60322303Y5182467D01*
X60295025Y5285349D01*
X60272997Y5396743D01*
X60256219Y5516650D01*
X60244690Y5645068D01*
X60242895Y5680242D01*
X60241633Y5723697D01*
X60240924Y5772999D01*
X60240743Y5826388D01*
X60240917Y5856474D01*
X60565178Y5856474D01*
X60565356Y5801811D01*
X60565941Y5749153D01*
X60566933Y5700499D01*
X60568333Y5657845D01*
X60570140Y5623187D01*
X60573415Y5579311D01*
X60584799Y5470139D01*
X60600192Y5370115D01*
X60619599Y5279229D01*
X60643028Y5197465D01*
X60670483Y5124813D01*
X60701971Y5061259D01*
X60737498Y5006790D01*
X60777069Y4961394D01*
X60820692Y4925057D01*
X60868371Y4897768D01*
X60920113Y4879514D01*
X60931045Y4876867D01*
X60991702Y4867647D01*
X61050250Y4867990D01*
X61106153Y4877711D01*
X61158873Y4896628D01*
X61207872Y4924557D01*
X61252614Y4961314D01*
X61292561Y5006715D01*
X61296668Y5012251D01*
X61329612Y5062998D01*
X61358801Y5120226D01*
X61384305Y5184270D01*
X61406192Y5255466D01*
X61424531Y5334148D01*
X61439390Y5420652D01*
X61450838Y5515312D01*
X61458943Y5618464D01*
X61463774Y5730443D01*
X61465400Y5851584D01*
X61465023Y5920750D01*
X61462976Y6014024D01*
X61459055Y6099375D01*
X61453145Y6177954D01*
X61445137Y6250909D01*
X61434918Y6319388D01*
X61422376Y6384542D01*
X61407400Y6447517D01*
X61395745Y6489151D01*
X61370019Y6563825D01*
X61340374Y6629469D01*
X61306690Y6686247D01*
X61268848Y6734323D01*
X61226728Y6773862D01*
X61180209Y6805026D01*
X61129173Y6827980D01*
X61124044Y6829700D01*
X61090504Y6837652D01*
X61051479Y6842572D01*
X61010456Y6844289D01*
X60970922Y6842632D01*
X60936363Y6837430D01*
X60893935Y6824855D01*
X60844010Y6801380D01*
X60798289Y6769396D01*
X60756737Y6728829D01*
X60719318Y6679609D01*
X60685997Y6621664D01*
X60656740Y6554920D01*
X60631511Y6479307D01*
X60610275Y6394752D01*
X60592997Y6301183D01*
X60579641Y6198529D01*
X60570174Y6086716D01*
X60568535Y6055247D01*
X60567086Y6012529D01*
X60566043Y5963830D01*
X60565407Y5911146D01*
X60565178Y5856474D01*
X60240917Y5856474D01*
X60241065Y5882102D01*
X60241864Y5938381D01*
X60243116Y5993465D01*
X60244794Y6045594D01*
X60246875Y6093008D01*
X60249333Y6133945D01*
X60252143Y6166647D01*
X60259388Y6228219D01*
X60276005Y6336656D01*
X60296738Y6436783D01*
X60321736Y6529187D01*
X60351148Y6614458D01*
X60385122Y6693185D01*
X60419240Y6758296D01*
X60465590Y6830824D01*
X60516622Y6894542D01*
X60572450Y6949522D01*
X60633188Y6995838D01*
X60698949Y7033563D01*
X60769845Y7062770D01*
X60845991Y7083533D01*
X60927499Y7095924D01*
X61014484Y7100018D01*
X61078470Y7097931D01*
X61158578Y7088581D01*
X61233144Y7071519D01*
X61302900Y7046521D01*
X61368573Y7013361D01*
X61430893Y6971817D01*
X61431654Y6971243D01*
X61487207Y6923882D01*
X61537944Y6869211D01*
X61583952Y6807026D01*
X61625317Y6737122D01*
X61662126Y6659294D01*
X61694465Y6573337D01*
X61722421Y6479049D01*
X61746081Y6376223D01*
X61765530Y6264655D01*
X61780855Y6144142D01*
X61781487Y6137705D01*
X61783594Y6107715D01*
X61785287Y6069626D01*
X61786574Y6024935D01*
X61787460Y5975137D01*
X61787952Y5921730D01*
X61788055Y5866208D01*
X61787982Y5851584D01*
X61787775Y5810068D01*
G37*
G36*
X63774235Y5876090D02*
G01*
X63773849Y5820835D01*
X63773015Y5765343D01*
X63771759Y5711319D01*
X63770104Y5660469D01*
X63768075Y5614500D01*
X63765694Y5575116D01*
X63762988Y5544024D01*
X63758430Y5504628D01*
X63741577Y5389916D01*
X63720259Y5283779D01*
X63694366Y5185877D01*
X63663788Y5095876D01*
X63628414Y5013436D01*
X63588136Y4938220D01*
X63542842Y4869892D01*
X63495397Y4812675D01*
X63438726Y4759088D01*
X63376213Y4713365D01*
X63308345Y4675772D01*
X63235612Y4646579D01*
X63158500Y4626053D01*
X63077499Y4614463D01*
X63069987Y4613827D01*
X63041898Y4611582D01*
X63019988Y4610261D01*
X63001175Y4609854D01*
X62982377Y4610351D01*
X62960512Y4611743D01*
X62932499Y4614022D01*
X62867886Y4621959D01*
X62789607Y4639182D01*
X62716977Y4664419D01*
X62649574Y4697853D01*
X62586974Y4739669D01*
X62528754Y4790052D01*
X62487250Y4834213D01*
X62439476Y4896125D01*
X62396594Y4965319D01*
X62358506Y5042051D01*
X62325113Y5126578D01*
X62296316Y5219157D01*
X62272016Y5320044D01*
X62252115Y5429494D01*
X62236512Y5547765D01*
X62235829Y5554471D01*
X62233578Y5584444D01*
X62231656Y5622415D01*
X62230067Y5666884D01*
X62228820Y5716352D01*
X62227920Y5769320D01*
X62227431Y5818595D01*
X62549265Y5818595D01*
X62549953Y5747574D01*
X62551859Y5680831D01*
X62555032Y5620205D01*
X62558442Y5574792D01*
X62569864Y5466231D01*
X62585300Y5366804D01*
X62604759Y5276489D01*
X62628254Y5195262D01*
X62655795Y5123098D01*
X62687394Y5059974D01*
X62723062Y5005866D01*
X62762811Y4960750D01*
X62806652Y4924603D01*
X62854596Y4897401D01*
X62906654Y4879119D01*
X62917676Y4876460D01*
X62977239Y4867554D01*
X63035147Y4868032D01*
X63090673Y4877713D01*
X63143089Y4896419D01*
X63191669Y4923970D01*
X63235685Y4960187D01*
X63268600Y4996166D01*
X63302984Y5043952D01*
X63333519Y5098702D01*
X63360324Y5160783D01*
X63383522Y5230563D01*
X63403230Y5308411D01*
X63419570Y5394693D01*
X63432661Y5489778D01*
X63442623Y5594034D01*
X63442642Y5594272D01*
X63444957Y5631761D01*
X63446829Y5677238D01*
X63448249Y5728716D01*
X63449209Y5784205D01*
X63449699Y5841716D01*
X63449712Y5899260D01*
X63449237Y5954847D01*
X63448267Y6006490D01*
X63446792Y6052198D01*
X63444805Y6089984D01*
X63437605Y6176960D01*
X63424951Y6281322D01*
X63408492Y6376554D01*
X63388186Y6462740D01*
X63363995Y6539963D01*
X63335876Y6608308D01*
X63303789Y6667857D01*
X63267693Y6718696D01*
X63227548Y6760908D01*
X63183312Y6794576D01*
X63134946Y6819785D01*
X63082409Y6836618D01*
X63056444Y6840947D01*
X63021196Y6843585D01*
X62983758Y6843768D01*
X62948092Y6841490D01*
X62918158Y6836750D01*
X62865815Y6819969D01*
X62816669Y6794259D01*
X62771746Y6759806D01*
X62731009Y6716555D01*
X62694426Y6664451D01*
X62661963Y6603437D01*
X62633585Y6533457D01*
X62609258Y6454456D01*
X62588949Y6366378D01*
X62572623Y6269167D01*
X62567921Y6231525D01*
X62562349Y6173474D01*
X62557695Y6108661D01*
X62554010Y6038927D01*
X62551344Y5966111D01*
X62549745Y5892054D01*
X62549265Y5818595D01*
X62227431Y5818595D01*
X62227374Y5824288D01*
X62227188Y5879758D01*
X62227368Y5934229D01*
X62227921Y5986203D01*
X62228854Y6034181D01*
X62230172Y6076663D01*
X62231883Y6112149D01*
X62233991Y6139141D01*
X62240502Y6196514D01*
X62257708Y6314043D01*
X62279256Y6422750D01*
X62305231Y6522801D01*
X62335717Y6614364D01*
X62370797Y6697608D01*
X62410558Y6772700D01*
X62455082Y6839808D01*
X62504453Y6899099D01*
X62558757Y6950741D01*
X62618078Y6994902D01*
X62682499Y7031750D01*
X62728018Y7052338D01*
X62789924Y7073827D01*
X62854538Y7088666D01*
X62923759Y7097266D01*
X62999484Y7100034D01*
X63071890Y7097364D01*
X63152291Y7087148D01*
X63227023Y7069086D01*
X63296623Y7042971D01*
X63361628Y7008596D01*
X63422574Y6965752D01*
X63479999Y6914232D01*
X63480606Y6913624D01*
X63533764Y6853409D01*
X63581669Y6784790D01*
X63624326Y6707750D01*
X63661741Y6622273D01*
X63693920Y6528341D01*
X63720868Y6425938D01*
X63742592Y6315046D01*
X63759097Y6195650D01*
X63770389Y6067731D01*
X63770828Y6060623D01*
X63772470Y6023375D01*
X63773570Y5979066D01*
X63774150Y5929403D01*
X63774198Y5899260D01*
X63774235Y5876090D01*
G37*
G36*
X67729999Y5856585D02*
G01*
X67729999Y4653849D01*
X67567499Y4653849D01*
X67404999Y4653849D01*
X67404999Y5163949D01*
X67404999Y5674050D01*
X67245529Y5674050D01*
X67196671Y5673917D01*
X67144893Y5673337D01*
X67100989Y5672208D01*
X67063792Y5670432D01*
X67032134Y5667913D01*
X67004849Y5664553D01*
X66980770Y5660255D01*
X66958729Y5654923D01*
X66937559Y5648459D01*
X66899844Y5633812D01*
X66862541Y5614129D01*
X66828029Y5589569D01*
X66795276Y5559164D01*
X66763250Y5521946D01*
X66730917Y5476947D01*
X66697246Y5423200D01*
X66695351Y5420006D01*
X66687295Y5406358D01*
X66679806Y5393470D01*
X66672539Y5380642D01*
X66665150Y5367173D01*
X66657292Y5352364D01*
X66648621Y5335513D01*
X66638791Y5315920D01*
X66627457Y5292884D01*
X66614274Y5265706D01*
X66598896Y5233685D01*
X66580978Y5196119D01*
X66560175Y5152310D01*
X66536141Y5101556D01*
X66508532Y5043157D01*
X66477002Y4976412D01*
X66325829Y4656349D01*
X66152914Y4655034D01*
X66119014Y4654822D01*
X66081280Y4654703D01*
X66047854Y4654724D01*
X66019875Y4654879D01*
X65998481Y4655162D01*
X65984810Y4655564D01*
X65979999Y4656080D01*
X65981358Y4659094D01*
X65986818Y4670426D01*
X65996158Y4689548D01*
X66009058Y4715812D01*
X66025197Y4748566D01*
X66044252Y4787160D01*
X66065904Y4830944D01*
X66089830Y4879268D01*
X66115710Y4931481D01*
X66143222Y4986932D01*
X66172045Y5044971D01*
X66174307Y5049525D01*
X66214710Y5130634D01*
X66251134Y5203325D01*
X66283891Y5268175D01*
X66313293Y5325763D01*
X66339653Y5376664D01*
X66363281Y5421458D01*
X66384491Y5460721D01*
X66403592Y5495032D01*
X66420898Y5524968D01*
X66436721Y5551107D01*
X66451371Y5574026D01*
X66465161Y5594304D01*
X66478403Y5612517D01*
X66487775Y5624582D01*
X66531820Y5672719D01*
X66580990Y5714128D01*
X66633863Y5747730D01*
X66689019Y5772447D01*
X66689370Y5772572D01*
X66707125Y5778934D01*
X66721710Y5784210D01*
X66729999Y5787269D01*
X66728768Y5789267D01*
X66719443Y5792865D01*
X66703482Y5797486D01*
X66682499Y5802610D01*
X66628030Y5817097D01*
X66556555Y5843747D01*
X66492043Y5877537D01*
X66434425Y5918512D01*
X66383637Y5966713D01*
X66339611Y6022182D01*
X66338007Y6024555D01*
X66323213Y6049410D01*
X66307518Y6080161D01*
X66292455Y6113444D01*
X66279556Y6145894D01*
X66270355Y6174148D01*
X66267834Y6183675D01*
X66253092Y6259293D01*
X66246228Y6338591D01*
X66246730Y6383467D01*
X66586493Y6383467D01*
X66587577Y6317289D01*
X66595886Y6252375D01*
X66611355Y6190676D01*
X66633919Y6134140D01*
X66642505Y6118357D01*
X66667958Y6082467D01*
X66699739Y6048402D01*
X66735402Y6018610D01*
X66772499Y5995537D01*
X66809965Y5978181D01*
X66848494Y5964563D01*
X66890130Y5954372D01*
X66938270Y5946607D01*
X66942670Y5946053D01*
X66962697Y5944034D01*
X66986619Y5942406D01*
X67015454Y5941138D01*
X67050217Y5940204D01*
X67091928Y5939572D01*
X67141601Y5939214D01*
X67200256Y5939102D01*
X67404999Y5939102D01*
X67404999Y6366686D01*
X67404999Y6794270D01*
X67207671Y6794270D01*
X67160975Y6794182D01*
X67105838Y6793736D01*
X67058720Y6792831D01*
X67018488Y6791375D01*
X66984004Y6789275D01*
X66954135Y6786439D01*
X66927746Y6782775D01*
X66903701Y6778192D01*
X66880866Y6772596D01*
X66858106Y6765897D01*
X66844274Y6761381D01*
X66800875Y6744435D01*
X66763862Y6724669D01*
X66730435Y6700409D01*
X66697797Y6669979D01*
X66676979Y6647495D01*
X66653707Y6617803D01*
X66635454Y6587374D01*
X66620048Y6552935D01*
X66606257Y6511824D01*
X66592698Y6448962D01*
X66586493Y6383467D01*
X66246730Y6383467D01*
X66247134Y6419519D01*
X66255703Y6500024D01*
X66271827Y6578054D01*
X66295399Y6651557D01*
X66322427Y6711605D01*
X66360934Y6775202D01*
X66407161Y6832513D01*
X66461033Y6883486D01*
X66522478Y6928069D01*
X66591420Y6966209D01*
X66667787Y6997852D01*
X66751505Y7022948D01*
X66842499Y7041443D01*
X66851448Y7042839D01*
X66874011Y7045984D01*
X66897858Y7048718D01*
X66923782Y7051069D01*
X66952573Y7053062D01*
X66985026Y7054724D01*
X67021932Y7056081D01*
X67064083Y7057158D01*
X67112271Y7057983D01*
X67167290Y7058581D01*
X67229931Y7058979D01*
X67300987Y7059202D01*
X67381249Y7059278D01*
X67729999Y7059322D01*
X67729999Y6366686D01*
X67729999Y5856585D01*
G37*
G36*
X59806127Y5866750D02*
G01*
X59805456Y5780328D01*
X59803020Y5696069D01*
X59798818Y5616469D01*
X59792849Y5544024D01*
X59778094Y5426552D01*
X59757674Y5313919D01*
X59731954Y5209500D01*
X59700961Y5113336D01*
X59664726Y5025467D01*
X59623277Y4945931D01*
X59576644Y4874768D01*
X59524855Y4812019D01*
X59467941Y4757722D01*
X59405929Y4711918D01*
X59338850Y4674645D01*
X59266733Y4645943D01*
X59189606Y4625853D01*
X59107499Y4614413D01*
X59099885Y4613776D01*
X59071752Y4611553D01*
X59049886Y4610243D01*
X59031282Y4609834D01*
X59012936Y4610317D01*
X58991843Y4611680D01*
X58964999Y4613914D01*
X58962158Y4614165D01*
X58883208Y4624673D01*
X58810988Y4641667D01*
X58744304Y4665573D01*
X58681962Y4696816D01*
X58622765Y4735822D01*
X58587284Y4764194D01*
X58536617Y4813185D01*
X58490247Y4869302D01*
X58447479Y4933420D01*
X58407614Y5006418D01*
X58407185Y5007282D01*
X58377493Y5071855D01*
X58351558Y5138726D01*
X58329056Y5209151D01*
X58309663Y5284388D01*
X58293053Y5365691D01*
X58278903Y5454318D01*
X58266888Y5551525D01*
X58264514Y5577975D01*
X58262055Y5616774D01*
X58259967Y5662322D01*
X58258276Y5712868D01*
X58257006Y5766659D01*
X58256183Y5821943D01*
X58255831Y5876967D01*
X58255847Y5882670D01*
X58581129Y5882670D01*
X58581542Y5761884D01*
X58585115Y5650108D01*
X58591907Y5546941D01*
X58601975Y5451987D01*
X58615380Y5364845D01*
X58632178Y5285118D01*
X58652429Y5212406D01*
X58676192Y5146311D01*
X58703525Y5086434D01*
X58719869Y5056756D01*
X58755333Y5004554D01*
X58795099Y4960274D01*
X58838657Y4924370D01*
X58885498Y4897298D01*
X58935113Y4879514D01*
X58988840Y4869356D01*
X59047943Y4866836D01*
X59104432Y4873750D01*
X59157899Y4889889D01*
X59207937Y4915041D01*
X59254137Y4948997D01*
X59296091Y4991546D01*
X59333392Y5042477D01*
X59365632Y5101581D01*
X59390336Y5160690D01*
X59414468Y5234503D01*
X59434989Y5316752D01*
X59451951Y5407680D01*
X59465405Y5507528D01*
X59475403Y5616538D01*
X59476663Y5637209D01*
X59478205Y5674770D01*
X59479377Y5719183D01*
X59480179Y5768578D01*
X59480610Y5821081D01*
X59480670Y5874824D01*
X59480361Y5927935D01*
X59479680Y5978542D01*
X59478629Y6024774D01*
X59477207Y6064762D01*
X59475415Y6096633D01*
X59469154Y6169932D01*
X59456416Y6275218D01*
X59439894Y6371343D01*
X59419550Y6458383D01*
X59395350Y6536411D01*
X59367257Y6605500D01*
X59335234Y6665726D01*
X59299247Y6717163D01*
X59259258Y6759883D01*
X59215232Y6793961D01*
X59167132Y6819472D01*
X59114924Y6836489D01*
X59114914Y6836491D01*
X59085320Y6841271D01*
X59049853Y6843651D01*
X59012348Y6843632D01*
X58976639Y6841217D01*
X58946560Y6836406D01*
X58905242Y6823853D01*
X58855325Y6799520D01*
X58809501Y6766115D01*
X58767796Y6723677D01*
X58730236Y6672248D01*
X58696844Y6611869D01*
X58667646Y6542581D01*
X58642668Y6464424D01*
X58621935Y6377440D01*
X58605471Y6281669D01*
X58605226Y6279952D01*
X58599950Y6241734D01*
X58595590Y6206864D01*
X58592037Y6173673D01*
X58589182Y6140491D01*
X58586914Y6105652D01*
X58585126Y6067485D01*
X58583708Y6024322D01*
X58582550Y5974495D01*
X58581543Y5916335D01*
X58581129Y5882670D01*
X58255847Y5882670D01*
X58255976Y5929980D01*
X58256643Y5979229D01*
X58257856Y6022963D01*
X58259640Y6059428D01*
X58260383Y6070612D01*
X58269724Y6177086D01*
X58282787Y6279081D01*
X58299375Y6375570D01*
X58319287Y6465523D01*
X58342327Y6547911D01*
X58368293Y6621706D01*
X58369970Y6625921D01*
X58408505Y6711720D01*
X58452037Y6788876D01*
X58500628Y6857444D01*
X58554343Y6917480D01*
X58613244Y6969041D01*
X58677396Y7012181D01*
X58746861Y7046956D01*
X58821702Y7073423D01*
X58901984Y7091637D01*
X58935181Y7095922D01*
X58979020Y7098924D01*
X59026623Y7099996D01*
X59074789Y7099138D01*
X59120315Y7096351D01*
X59159999Y7091634D01*
X59188898Y7086395D01*
X59265497Y7066010D01*
X59337941Y7037056D01*
X59405490Y6999922D01*
X59467400Y6954992D01*
X59522933Y6902653D01*
X59571155Y6844965D01*
X59618761Y6773850D01*
X59661064Y6694314D01*
X59698049Y6606393D01*
X59729702Y6510127D01*
X59756009Y6405556D01*
X59776956Y6292716D01*
X59792528Y6171648D01*
X59797566Y6114036D01*
X59802181Y6036100D01*
X59805035Y5952840D01*
X59806025Y5874824D01*
X59806127Y5866750D01*
G37*
G36*
X55240722Y7096536D02*
G01*
X55352461Y7085293D01*
X55469999Y7066395D01*
X55492208Y7062069D01*
X55527798Y7054746D01*
X55566495Y7046426D01*
X55606148Y7037597D01*
X55644603Y7028750D01*
X55679707Y7020374D01*
X55709307Y7012958D01*
X55731249Y7006992D01*
X55759999Y6998601D01*
X55759999Y6851427D01*
X55759990Y6839855D01*
X55759825Y6803563D01*
X55759477Y6771103D01*
X55758974Y6743707D01*
X55758342Y6722610D01*
X55757608Y6709048D01*
X55756799Y6704252D01*
X55756175Y6704360D01*
X55748397Y6706673D01*
X55733485Y6711543D01*
X55713270Y6718363D01*
X55689582Y6726527D01*
X55656220Y6737856D01*
X55544160Y6771764D01*
X55434893Y6798433D01*
X55329999Y6817464D01*
X55308044Y6820208D01*
X55271094Y6823340D01*
X55229791Y6825486D01*
X55186179Y6826647D01*
X55142301Y6826820D01*
X55100201Y6826004D01*
X55061922Y6824200D01*
X55029507Y6821406D01*
X55004999Y6817620D01*
X54948228Y6802615D01*
X54889622Y6779706D01*
X54838866Y6750787D01*
X54795769Y6715697D01*
X54760138Y6674274D01*
X54731780Y6626359D01*
X54710502Y6571789D01*
X54710488Y6571742D01*
X54705775Y6555388D01*
X54702434Y6540451D01*
X54700234Y6524647D01*
X54698945Y6505693D01*
X54698339Y6481306D01*
X54698185Y6449202D01*
X54698193Y6438493D01*
X54698404Y6409681D01*
X54699082Y6388013D01*
X54700462Y6371310D01*
X54702781Y6357390D01*
X54706276Y6344073D01*
X54711181Y6329179D01*
X54719371Y6306950D01*
X54732645Y6277575D01*
X54748291Y6251864D01*
X54768286Y6226737D01*
X54794606Y6199113D01*
X54829200Y6168196D01*
X54867056Y6141916D01*
X54908927Y6120467D01*
X54956749Y6102862D01*
X55012457Y6088115D01*
X55022494Y6085967D01*
X55035920Y6083576D01*
X55050664Y6081635D01*
X55067966Y6080073D01*
X55089065Y6078821D01*
X55115203Y6077808D01*
X55147619Y6076965D01*
X55187554Y6076221D01*
X55236249Y6075508D01*
X55414999Y6073095D01*
X55414999Y5941766D01*
X55414999Y5810436D01*
X55248749Y5807735D01*
X55204742Y5806920D01*
X55157676Y5805684D01*
X55118088Y5804077D01*
X55084578Y5801957D01*
X55055745Y5799187D01*
X55030190Y5795624D01*
X55006513Y5791130D01*
X54983312Y5785564D01*
X54959189Y5778786D01*
X54911166Y5761706D01*
X54852992Y5732788D01*
X54799759Y5696833D01*
X54752574Y5654731D01*
X54712547Y5607370D01*
X54680786Y5555638D01*
X54678912Y5551728D01*
X54671899Y5534826D01*
X54663972Y5513225D01*
X54656512Y5490625D01*
X54655180Y5486299D01*
X54650820Y5471334D01*
X54647632Y5457904D01*
X54645438Y5444087D01*
X54644055Y5427959D01*
X54643304Y5407598D01*
X54643005Y5381081D01*
X54642975Y5346485D01*
X54642988Y5337978D01*
X54643142Y5305290D01*
X54643594Y5280237D01*
X54644530Y5260881D01*
X54646135Y5245286D01*
X54648594Y5231516D01*
X54652092Y5217634D01*
X54656814Y5201703D01*
X54658196Y5197314D01*
X54667735Y5170532D01*
X54679129Y5142700D01*
X54690203Y5119187D01*
X54703377Y5095832D01*
X54738513Y5047278D01*
X54780997Y5004950D01*
X54831013Y4968724D01*
X54888750Y4938478D01*
X54954393Y4914087D01*
X55028130Y4895427D01*
X55050107Y4891968D01*
X55084627Y4888757D01*
X55125314Y4886711D01*
X55170090Y4885815D01*
X55216874Y4886053D01*
X55263586Y4887411D01*
X55308148Y4889873D01*
X55348479Y4893423D01*
X55382499Y4898047D01*
X55399362Y4901032D01*
X55502925Y4923833D01*
X55605300Y4953832D01*
X55703945Y4990204D01*
X55796319Y5032126D01*
X55830138Y5049122D01*
X55828819Y4888204D01*
X55827499Y4727287D01*
X55792499Y4715252D01*
X55774568Y4709244D01*
X55699130Y4686839D01*
X55616836Y4666447D01*
X55530105Y4648533D01*
X55441359Y4633563D01*
X55353017Y4622003D01*
X55267499Y4614317D01*
X55169301Y4610468D01*
X55064331Y4613034D01*
X54965342Y4622850D01*
X54872514Y4639862D01*
X54786031Y4664021D01*
X54706074Y4695274D01*
X54632823Y4733569D01*
X54566461Y4778854D01*
X54507169Y4831078D01*
X54484558Y4854673D01*
X54437399Y4912126D01*
X54398595Y4972773D01*
X54367906Y5037288D01*
X54345087Y5106345D01*
X54329897Y5180619D01*
X54322093Y5260783D01*
X54321433Y5347511D01*
X54324010Y5397932D01*
X54329682Y5451055D01*
X54338619Y5498852D01*
X54351285Y5543706D01*
X54368141Y5587998D01*
X54398024Y5649163D01*
X54437145Y5710047D01*
X54483078Y5764320D01*
X54536202Y5812317D01*
X54596895Y5854376D01*
X54665534Y5890836D01*
X54742499Y5922034D01*
X54746920Y5923608D01*
X54767921Y5931543D01*
X54783934Y5938354D01*
X54793460Y5943362D01*
X54794999Y5945884D01*
X54791730Y5947010D01*
X54779767Y5951018D01*
X54762192Y5956843D01*
X54741519Y5963648D01*
X54712340Y5974001D01*
X54647730Y6002893D01*
X54588550Y6037901D01*
X54535813Y6078293D01*
X54490531Y6123333D01*
X54453718Y6172288D01*
X54438683Y6197280D01*
X54412743Y6250295D01*
X54394144Y6305400D01*
X54382259Y6364692D01*
X54376460Y6430267D01*
X54376545Y6503637D01*
X54384311Y6578140D01*
X54400282Y6648173D01*
X54424678Y6714680D01*
X54457719Y6778605D01*
X54467224Y6793975D01*
X54510510Y6852347D01*
X54561827Y6905625D01*
X54620459Y6953337D01*
X54685686Y6995009D01*
X54756789Y7030169D01*
X54833052Y7058343D01*
X54913754Y7079057D01*
X54941734Y7084311D01*
X55035213Y7096048D01*
X55134924Y7100122D01*
X55240722Y7096536D01*
G37*
G36*
X68471848Y11488564D02*
G01*
X68471512Y11430136D01*
X68470916Y11374251D01*
X68470062Y11322358D01*
X68468948Y11275908D01*
X68467576Y11236352D01*
X68465944Y11205138D01*
X68465372Y11196592D01*
X68455507Y11069068D01*
X68443648Y10950243D01*
X68429610Y10839046D01*
X68413208Y10734404D01*
X68394257Y10635247D01*
X68372574Y10540504D01*
X68347972Y10449103D01*
X68320268Y10359972D01*
X68286031Y10265077D01*
X68238939Y10156032D01*
X68186301Y10055308D01*
X68128113Y9962903D01*
X68064371Y9878813D01*
X67995069Y9803034D01*
X67920205Y9735563D01*
X67839772Y9676396D01*
X67753767Y9625530D01*
X67662186Y9582960D01*
X67565022Y9548684D01*
X67462273Y9522697D01*
X67353934Y9504997D01*
X67239999Y9495579D01*
X67186455Y9494001D01*
X67080558Y9495906D01*
X66977721Y9504437D01*
X66879187Y9519429D01*
X66786199Y9540714D01*
X66699999Y9568126D01*
X66676501Y9577105D01*
X66584712Y9618463D01*
X66498485Y9667803D01*
X66417779Y9725182D01*
X66342555Y9790654D01*
X66272771Y9864277D01*
X66208385Y9946106D01*
X66149358Y10036196D01*
X66095647Y10134604D01*
X66047213Y10241384D01*
X66004014Y10356594D01*
X65966009Y10480287D01*
X65933158Y10612522D01*
X65924498Y10653008D01*
X65900555Y10783551D01*
X65880870Y10921731D01*
X65865529Y11066439D01*
X65854619Y11216567D01*
X65848226Y11371006D01*
X65846762Y11499990D01*
X66402674Y11499990D01*
X66402870Y11437447D01*
X66403301Y11376857D01*
X66403966Y11319560D01*
X66404866Y11266898D01*
X66406000Y11220210D01*
X66407370Y11180840D01*
X66408974Y11150128D01*
X66417272Y11039861D01*
X66429254Y10916309D01*
X66443524Y10801888D01*
X66460160Y10696252D01*
X66479238Y10599053D01*
X66500836Y10509942D01*
X66525031Y10428574D01*
X66551900Y10354600D01*
X66581521Y10287673D01*
X66613970Y10227446D01*
X66646354Y10177831D01*
X66694268Y10118257D01*
X66747261Y10066303D01*
X66804505Y10022857D01*
X66855438Y9992431D01*
X66913833Y9965526D01*
X66975266Y9945884D01*
X67042499Y9932455D01*
X67049726Y9931449D01*
X67085129Y9928086D01*
X67126209Y9926141D01*
X67169852Y9925613D01*
X67212942Y9926501D01*
X67252363Y9928804D01*
X67284999Y9932521D01*
X67285609Y9932617D01*
X67312582Y9937783D01*
X67342434Y9944836D01*
X67368813Y9952278D01*
X67407918Y9966028D01*
X67471025Y9994754D01*
X67529309Y10030214D01*
X67582918Y10072656D01*
X67632001Y10122330D01*
X67676707Y10179487D01*
X67717185Y10244375D01*
X67753583Y10317245D01*
X67786050Y10398346D01*
X67814735Y10487928D01*
X67839787Y10586242D01*
X67861353Y10693536D01*
X67879584Y10810061D01*
X67883583Y10840072D01*
X67891399Y10904920D01*
X67898061Y10970215D01*
X67903655Y11037320D01*
X67908262Y11107598D01*
X67911966Y11182410D01*
X67914850Y11263121D01*
X67916997Y11351092D01*
X67918490Y11447686D01*
X67919117Y11544802D01*
X67917681Y11704380D01*
X67913048Y11854643D01*
X67905201Y11995700D01*
X67894123Y12127660D01*
X67879795Y12250631D01*
X67862201Y12364722D01*
X67841322Y12470041D01*
X67817141Y12566698D01*
X67789640Y12654801D01*
X67758801Y12734459D01*
X67724607Y12805780D01*
X67687039Y12868873D01*
X67657340Y12909175D01*
X67617980Y12953825D01*
X67574585Y12995573D01*
X67529483Y13032201D01*
X67484999Y13061491D01*
X67482661Y13062823D01*
X67422464Y13091658D01*
X67356069Y13114008D01*
X67285049Y13129606D01*
X67210981Y13138186D01*
X67135439Y13139483D01*
X67059999Y13133230D01*
X67023542Y13127337D01*
X66947634Y13108245D01*
X66876998Y13080658D01*
X66811676Y13044607D01*
X66751711Y13000120D01*
X66697144Y12947227D01*
X66648019Y12885958D01*
X66604378Y12816342D01*
X66590663Y12790573D01*
X66559444Y12723185D01*
X66531153Y12648768D01*
X66505718Y12566986D01*
X66483068Y12477502D01*
X66463129Y12379980D01*
X66445831Y12274083D01*
X66431102Y12159474D01*
X66418868Y12035817D01*
X66409059Y11902776D01*
X66407846Y11879775D01*
X66406407Y11841124D01*
X66405200Y11795036D01*
X66404228Y11742852D01*
X66403489Y11685915D01*
X66402983Y11625564D01*
X66402711Y11563142D01*
X66402674Y11499990D01*
X65846762Y11499990D01*
X65846437Y11528650D01*
X65849337Y11688391D01*
X65853330Y11788911D01*
X65861221Y11924966D01*
X65871785Y12052675D01*
X65885140Y12172827D01*
X65901403Y12286215D01*
X65920691Y12393628D01*
X65943124Y12495857D01*
X65968816Y12593694D01*
X65997888Y12687930D01*
X66037415Y12796751D01*
X66084862Y12905766D01*
X66137410Y13006236D01*
X66195151Y13098243D01*
X66258177Y13181869D01*
X66326580Y13257199D01*
X66400451Y13324314D01*
X66479883Y13383298D01*
X66564966Y13434233D01*
X66655793Y13477202D01*
X66752456Y13512288D01*
X66855047Y13539575D01*
X66963657Y13559143D01*
X66965411Y13559385D01*
X66992791Y13562208D01*
X67027634Y13564476D01*
X67068002Y13566177D01*
X67111958Y13567302D01*
X67157563Y13567838D01*
X67202879Y13567775D01*
X67245969Y13567102D01*
X67284894Y13565807D01*
X67317717Y13563880D01*
X67342499Y13561309D01*
X67368231Y13557440D01*
X67467369Y13539052D01*
X67558632Y13516014D01*
X67643037Y13487849D01*
X67721602Y13454078D01*
X67795342Y13414224D01*
X67865275Y13367808D01*
X67932418Y13314354D01*
X67997786Y13253384D01*
X68018601Y13232107D01*
X68066310Y13179222D01*
X68109314Y13124803D01*
X68149093Y13066752D01*
X68187127Y13002970D01*
X68224895Y12931359D01*
X68243395Y12893177D01*
X68282177Y12804073D01*
X68317134Y12710066D01*
X68348397Y12610567D01*
X68376101Y12504987D01*
X68400379Y12392737D01*
X68421362Y12273229D01*
X68439185Y12145874D01*
X68453981Y12010083D01*
X68465882Y11865268D01*
X68466972Y11846933D01*
X68468443Y11811313D01*
X68469656Y11768084D01*
X68470611Y11718697D01*
X68471308Y11664601D01*
X68471746Y11607246D01*
X68471926Y11548084D01*
X68471922Y11544802D01*
X68471848Y11488564D01*
G37*
G36*
X55381309Y16420453D02*
G01*
X55403580Y16420350D01*
X55417730Y16420186D01*
X55422820Y16419960D01*
X55422822Y16419957D01*
X55423943Y16414841D01*
X55427048Y16400202D01*
X55432082Y16376301D01*
X55438990Y16343401D01*
X55447718Y16301765D01*
X55458211Y16251656D01*
X55470413Y16193335D01*
X55484271Y16127066D01*
X55499728Y16053111D01*
X55516732Y15971732D01*
X55535226Y15883192D01*
X55555156Y15787755D01*
X55576467Y15685681D01*
X55599104Y15577235D01*
X55623013Y15462678D01*
X55648138Y15342273D01*
X55674426Y15216283D01*
X55701820Y15084970D01*
X55730267Y14948596D01*
X55759712Y14807425D01*
X55790099Y14661719D01*
X55821373Y14511740D01*
X55853481Y14357751D01*
X55886368Y14200015D01*
X55919978Y14038794D01*
X55954256Y13874351D01*
X55989148Y13706948D01*
X56024600Y13536848D01*
X56060556Y13364313D01*
X56061304Y13360723D01*
X56097251Y13188244D01*
X56132697Y13018209D01*
X56167588Y12850881D01*
X56201868Y12686521D01*
X56235482Y12525393D01*
X56268376Y12367758D01*
X56300495Y12213879D01*
X56331783Y12064019D01*
X56362186Y11918440D01*
X56391649Y11777404D01*
X56420117Y11641174D01*
X56447535Y11510012D01*
X56473848Y11384180D01*
X56499001Y11263942D01*
X56522940Y11149560D01*
X56545609Y11041295D01*
X56566953Y10939410D01*
X56586918Y10844169D01*
X56605448Y10755832D01*
X56622489Y10674663D01*
X56637985Y10600925D01*
X56651883Y10534879D01*
X56664126Y10476787D01*
X56674660Y10426913D01*
X56683430Y10385519D01*
X56690382Y10352867D01*
X56695459Y10329220D01*
X56698608Y10314840D01*
X56699773Y10309989D01*
X56699791Y10310004D01*
X56701194Y10315355D01*
X56704580Y10330017D01*
X56709852Y10353544D01*
X56716914Y10385490D01*
X56725670Y10425409D01*
X56736022Y10472855D01*
X56747875Y10527381D01*
X56761132Y10588543D01*
X56775696Y10655892D01*
X56791471Y10728985D01*
X56808361Y10807373D01*
X56826269Y10890612D01*
X56845098Y10978255D01*
X56864752Y11069856D01*
X56885135Y11164969D01*
X56906151Y11263148D01*
X56927701Y11363947D01*
X57152903Y12417877D01*
X57430201Y12419127D01*
X57707499Y12420377D01*
X57929806Y11369812D01*
X57930276Y11367592D01*
X57951581Y11266962D01*
X57972355Y11168950D01*
X57992500Y11074003D01*
X58011922Y10982570D01*
X58030524Y10895097D01*
X58048210Y10812034D01*
X58064885Y10733829D01*
X58080452Y10660929D01*
X58094817Y10593783D01*
X58107883Y10532839D01*
X58119553Y10478544D01*
X58129733Y10431347D01*
X58138327Y10391697D01*
X58145238Y10360040D01*
X58150371Y10336825D01*
X58153630Y10322500D01*
X58154919Y10317513D01*
X58155465Y10320540D01*
X58157164Y10332976D01*
X58159950Y10354677D01*
X58163779Y10385274D01*
X58168605Y10424395D01*
X58174386Y10471670D01*
X58181075Y10526727D01*
X58188630Y10589195D01*
X58197005Y10658704D01*
X58206155Y10734883D01*
X58216037Y10817360D01*
X58226607Y10905764D01*
X58237819Y10999726D01*
X58249629Y11098872D01*
X58261993Y11202834D01*
X58274866Y11311239D01*
X58288204Y11423716D01*
X58301962Y11539896D01*
X58316097Y11659406D01*
X58330563Y11781875D01*
X58345316Y11906934D01*
X58532905Y13498090D01*
X58791687Y13499385D01*
X59050470Y13500680D01*
X59047603Y13484382D01*
X59046952Y13480189D01*
X59044855Y13466333D01*
X59041375Y13443203D01*
X59036564Y13411138D01*
X59030472Y13370480D01*
X59023150Y13321570D01*
X59014650Y13264748D01*
X59005021Y13200355D01*
X58994315Y13128732D01*
X58982583Y13050220D01*
X58969876Y12965160D01*
X58956245Y12873891D01*
X58941739Y12776756D01*
X58926412Y12674095D01*
X58910312Y12566249D01*
X58893492Y12453558D01*
X58876002Y12336364D01*
X58857893Y12215007D01*
X58839215Y12089828D01*
X58820021Y11961168D01*
X58800360Y11829367D01*
X58780284Y11694767D01*
X58759844Y11557708D01*
X58743789Y11450052D01*
X58723584Y11314570D01*
X58703770Y11181711D01*
X58684399Y11051822D01*
X58665522Y10925250D01*
X58647191Y10802339D01*
X58629458Y10683437D01*
X58612373Y10568889D01*
X58595990Y10459042D01*
X58580358Y10354242D01*
X58565531Y10254834D01*
X58551560Y10161165D01*
X58538495Y10073582D01*
X58526390Y9992429D01*
X58515295Y9918054D01*
X58505262Y9850803D01*
X58496343Y9791021D01*
X58488590Y9739054D01*
X58482053Y9695250D01*
X58476785Y9659954D01*
X58472838Y9633512D01*
X58470262Y9616270D01*
X58469110Y9608574D01*
X58463269Y9569816D01*
X58212039Y9569816D01*
X57960809Y9569816D01*
X57956224Y9591071D01*
X57954726Y9597940D01*
X57950310Y9617849D01*
X57943974Y9646142D01*
X57935835Y9682300D01*
X57926013Y9725805D01*
X57914624Y9776139D01*
X57901788Y9832784D01*
X57887623Y9895222D01*
X57872247Y9962934D01*
X57855777Y10035403D01*
X57838334Y10112110D01*
X57820033Y10192536D01*
X57800995Y10276165D01*
X57781337Y10362477D01*
X57761178Y10450955D01*
X57740635Y10541079D01*
X57719827Y10632333D01*
X57698872Y10724198D01*
X57677889Y10816155D01*
X57656995Y10907687D01*
X57636310Y10998276D01*
X57615950Y11087402D01*
X57596035Y11174548D01*
X57576683Y11259196D01*
X57558012Y11340828D01*
X57540139Y11418925D01*
X57523185Y11492969D01*
X57507266Y11562443D01*
X57492501Y11626827D01*
X57479008Y11685604D01*
X57466906Y11738255D01*
X57456312Y11784263D01*
X57447345Y11823109D01*
X57440124Y11854274D01*
X57434766Y11877242D01*
X57431390Y11891493D01*
X57430113Y11896509D01*
X57429664Y11895238D01*
X57427174Y11885619D01*
X57422619Y11866950D01*
X57416103Y11839686D01*
X57407733Y11804282D01*
X57397611Y11761192D01*
X57385844Y11710872D01*
X57372535Y11653775D01*
X57357790Y11590357D01*
X57341714Y11521073D01*
X57324410Y11446376D01*
X57305984Y11366722D01*
X57286541Y11282565D01*
X57266185Y11194360D01*
X57245022Y11102561D01*
X57223155Y11007624D01*
X57200689Y10910003D01*
X57177731Y10810153D01*
X57154383Y10708528D01*
X57130751Y10605584D01*
X57106939Y10501774D01*
X57083053Y10397553D01*
X57059197Y10293377D01*
X57035476Y10189699D01*
X57011995Y10086976D01*
X56988858Y9985660D01*
X56966170Y9886207D01*
X56944036Y9789072D01*
X56922561Y9694709D01*
X56901849Y9603573D01*
X56894183Y9569816D01*
X56643066Y9569816D01*
X56391948Y9569816D01*
X55649628Y12994241D01*
X54907307Y16418665D01*
X55164441Y16419960D01*
X55181021Y16420041D01*
X55229804Y16420247D01*
X55275164Y16420391D01*
X55316161Y16420473D01*
X55351856Y16420494D01*
X55381309Y16420453D01*
G37*
G36*
X63965071Y13566918D02*
G01*
X64087267Y13557751D01*
X64204352Y13540727D01*
X64316136Y13515918D01*
X64422428Y13483398D01*
X64523038Y13443239D01*
X64617774Y13395516D01*
X64706445Y13340302D01*
X64788862Y13277670D01*
X64864832Y13207693D01*
X64934166Y13130444D01*
X64996672Y13045998D01*
X65018003Y13012531D01*
X65061847Y12931069D01*
X65098753Y12843158D01*
X65128463Y12749558D01*
X65150719Y12651027D01*
X65165265Y12548327D01*
X65166506Y12534170D01*
X65168504Y12496793D01*
X65169421Y12453893D01*
X65169319Y12407687D01*
X65168259Y12360387D01*
X65166304Y12314210D01*
X65163515Y12271370D01*
X65159954Y12234081D01*
X65155682Y12204558D01*
X65150634Y12178770D01*
X65127525Y12086556D01*
X65097559Y12001035D01*
X65060407Y11921769D01*
X65015743Y11848319D01*
X64963239Y11780249D01*
X64902567Y11717120D01*
X64833400Y11658495D01*
X64755410Y11603935D01*
X64668270Y11553004D01*
X64631011Y11533616D01*
X64587331Y11512503D01*
X64542307Y11492600D01*
X64494991Y11473594D01*
X64444435Y11455174D01*
X64389692Y11437028D01*
X64329815Y11418843D01*
X64263857Y11400308D01*
X64190869Y11381110D01*
X64109905Y11360937D01*
X64020017Y11339477D01*
X63992843Y11333098D01*
X63930884Y11318506D01*
X63877384Y11305809D01*
X63831422Y11294761D01*
X63792078Y11285118D01*
X63758429Y11276636D01*
X63729556Y11269069D01*
X63704536Y11262172D01*
X63682448Y11255702D01*
X63662372Y11249412D01*
X63643386Y11243058D01*
X63624569Y11236395D01*
X63604999Y11229179D01*
X63575265Y11217713D01*
X63499315Y11184655D01*
X63432505Y11149363D01*
X63374296Y11111361D01*
X63324146Y11070167D01*
X63281518Y11025304D01*
X63245871Y10976292D01*
X63216665Y10922653D01*
X63193360Y10863908D01*
X63176774Y10804627D01*
X63163538Y10731182D01*
X63156695Y10653887D01*
X63156535Y10575014D01*
X63157659Y10553540D01*
X63166411Y10473781D01*
X63182339Y10400366D01*
X63205764Y10332485D01*
X63237010Y10269328D01*
X63276399Y10210084D01*
X63324254Y10153943D01*
X63374738Y10106484D01*
X63438082Y10059451D01*
X63506836Y10020335D01*
X63571185Y9992404D01*
X63653192Y9965482D01*
X63741200Y9944957D01*
X63834292Y9930836D01*
X63931552Y9923127D01*
X64032061Y9921838D01*
X64134904Y9926974D01*
X64239163Y9938545D01*
X64343921Y9956557D01*
X64448261Y9981018D01*
X64551265Y10011935D01*
X64607035Y10031712D01*
X64692096Y10065571D01*
X64780260Y10104656D01*
X64869190Y10147864D01*
X64956548Y10194096D01*
X65039999Y10242249D01*
X65058453Y10253393D01*
X65080528Y10266723D01*
X65098512Y10277583D01*
X65110916Y10285072D01*
X65116249Y10288291D01*
X65116761Y10285961D01*
X65117424Y10274745D01*
X65118036Y10255057D01*
X65118587Y10227779D01*
X65119064Y10193793D01*
X65119456Y10153981D01*
X65119750Y10109224D01*
X65119935Y10060406D01*
X65119999Y10008406D01*
X65119999Y9726264D01*
X65047169Y9697975D01*
X64959911Y9665472D01*
X64796399Y9612008D01*
X64632832Y9568182D01*
X64469529Y9534067D01*
X64306812Y9509734D01*
X64144999Y9495256D01*
X64141022Y9495021D01*
X64114547Y9493488D01*
X64090551Y9492143D01*
X64071535Y9491122D01*
X64059999Y9490565D01*
X64051958Y9490545D01*
X64034777Y9490867D01*
X64010506Y9491513D01*
X63980687Y9492436D01*
X63946862Y9493593D01*
X63910572Y9494937D01*
X63886397Y9495957D01*
X63770864Y9503576D01*
X63663289Y9515562D01*
X63562708Y9532125D01*
X63468157Y9553478D01*
X63378672Y9579832D01*
X63293288Y9611399D01*
X63211041Y9648390D01*
X63132295Y9690885D01*
X63050272Y9744837D01*
X62975900Y9805028D01*
X62908947Y9871649D01*
X62849178Y9944890D01*
X62828727Y9973830D01*
X62782677Y10048936D01*
X62743790Y10128417D01*
X62711808Y10213017D01*
X62686470Y10303480D01*
X62667521Y10400551D01*
X62654699Y10504975D01*
X62653413Y10521309D01*
X62651324Y10566053D01*
X62650583Y10616579D01*
X62651115Y10670264D01*
X62652850Y10724483D01*
X62655716Y10776614D01*
X62659640Y10824032D01*
X62664550Y10864114D01*
X62669580Y10895044D01*
X62691150Y10995352D01*
X62719894Y11088995D01*
X62756035Y11176276D01*
X62799797Y11257499D01*
X62851406Y11332966D01*
X62911086Y11402980D01*
X62979061Y11467845D01*
X63055555Y11527864D01*
X63140793Y11583340D01*
X63234999Y11634576D01*
X63242894Y11638492D01*
X63290010Y11661069D01*
X63336393Y11681763D01*
X63383221Y11700960D01*
X63431672Y11719041D01*
X63482926Y11736390D01*
X63538161Y11753391D01*
X63598558Y11770426D01*
X63665293Y11787879D01*
X63739548Y11806134D01*
X63822499Y11825573D01*
X63882990Y11839581D01*
X63953136Y11856175D01*
X64015174Y11871338D01*
X64070065Y11885349D01*
X64118771Y11898488D01*
X64162252Y11911036D01*
X64201468Y11923270D01*
X64237382Y11935471D01*
X64270954Y11947919D01*
X64303145Y11960893D01*
X64334915Y11974673D01*
X64393526Y12003159D01*
X64453195Y12038402D01*
X64504163Y12076535D01*
X64547067Y12118284D01*
X64582542Y12164377D01*
X64611224Y12215541D01*
X64633748Y12272503D01*
X64650750Y12335990D01*
X64652863Y12346809D01*
X64657741Y12382410D01*
X64661056Y12423740D01*
X64662784Y12468202D01*
X64662902Y12513198D01*
X64661387Y12556131D01*
X64658215Y12594404D01*
X64653362Y12625418D01*
X64637642Y12685215D01*
X64611406Y12753534D01*
X64577185Y12816623D01*
X64534567Y12875117D01*
X64483143Y12929646D01*
X64422499Y12980845D01*
X64405010Y12993675D01*
X64338799Y13034700D01*
X64265757Y13068929D01*
X64185746Y13096404D01*
X64098625Y13117166D01*
X64004256Y13131259D01*
X63902499Y13138724D01*
X63889163Y13139184D01*
X63772977Y13137741D01*
X63655123Y13126682D01*
X63536061Y13106136D01*
X63416250Y13076235D01*
X63296149Y13037109D01*
X63176220Y12988887D01*
X63056919Y12931700D01*
X62938708Y12865677D01*
X62932289Y12861841D01*
X62911459Y12849519D01*
X62894289Y12839556D01*
X62882411Y12832889D01*
X62877458Y12830458D01*
X62877226Y12831646D01*
X62876773Y12841070D01*
X62876353Y12859130D01*
X62875975Y12884910D01*
X62875646Y12917493D01*
X62875376Y12955964D01*
X62875172Y12999405D01*
X62875044Y13046902D01*
X62874999Y13097538D01*
X62874999Y13364618D01*
X62916249Y13379515D01*
X63009219Y13411541D01*
X63122230Y13446601D01*
X63236163Y13477955D01*
X63349212Y13505173D01*
X63459572Y13527826D01*
X63565437Y13545483D01*
X63664999Y13557716D01*
X63706113Y13561383D01*
X63837956Y13568153D01*
X63965071Y13566918D01*
G37*
G36*
X38871921Y8035321D02*
G01*
X38871921Y7847636D01*
X38684236Y7847636D01*
X38496551Y7847636D01*
X38496551Y8035321D01*
X38496551Y8223005D01*
X38684236Y8223005D01*
X38871921Y8223005D01*
X38871921Y8035321D01*
G37*
G36*
X39222265Y9887143D02*
G01*
X39222265Y9699459D01*
X39047093Y9699459D01*
X38871921Y9699459D01*
X38871921Y9887143D01*
X38871921Y10074828D01*
X39047093Y10074828D01*
X39222265Y10074828D01*
X39222265Y9887143D01*
G37*
G36*
X41824827Y13966158D02*
G01*
X41824827Y13778473D01*
X41637142Y13778473D01*
X41449458Y13778473D01*
X41449458Y13966158D01*
X41449458Y14153843D01*
X41637142Y14153843D01*
X41824827Y14153843D01*
X41824827Y13966158D01*
G37*
G36*
X41824827Y7659951D02*
G01*
X41824827Y7472266D01*
X41637142Y7472266D01*
X41449458Y7472266D01*
X41449458Y7659951D01*
X41449458Y7847636D01*
X41637142Y7847636D01*
X41824827Y7847636D01*
X41824827Y7659951D01*
G37*
G36*
X43301280Y12489705D02*
G01*
X43301280Y12302020D01*
X43126108Y12302020D01*
X42950935Y12302020D01*
X42950935Y12489705D01*
X42950935Y12677390D01*
X43126108Y12677390D01*
X43301280Y12677390D01*
X43301280Y12489705D01*
G37*
G36*
X43301280Y6183498D02*
G01*
X43301280Y5995813D01*
X43126108Y5995813D01*
X42950935Y5995813D01*
X42950935Y6183498D01*
X42950935Y6371183D01*
X43126108Y6371183D01*
X43301280Y6371183D01*
X43301280Y6183498D01*
G37*
G36*
X45153103Y11013252D02*
G01*
X45153103Y10825567D01*
X44977930Y10825567D01*
X44802758Y10825567D01*
X44802758Y11013252D01*
X44802758Y11200936D01*
X44977930Y11200936D01*
X45153103Y11200936D01*
X45153103Y11013252D01*
G37*
G36*
X45528472Y9336601D02*
G01*
X45528472Y8973744D01*
X45340788Y8973744D01*
X45153103Y8973744D01*
X45153103Y9336601D01*
X45153103Y9699459D01*
X45340788Y9699459D01*
X45528472Y9699459D01*
X45528472Y9336601D01*
G37*
G36*
X45903842Y11376109D02*
G01*
X45903842Y11200936D01*
X45716157Y11200936D01*
X45528472Y11200936D01*
X45528472Y11376109D01*
X45528472Y11551281D01*
X45716157Y11551281D01*
X45903842Y11551281D01*
X45903842Y11376109D01*
G37*
G36*
X45903842Y10262513D02*
G01*
X45903842Y9699459D01*
X45716157Y9699459D01*
X45528472Y9699459D01*
X45528472Y10262513D01*
X45528472Y10825567D01*
X45716157Y10825567D01*
X45903842Y10825567D01*
X45903842Y10262513D01*
G37*
G36*
X38121182Y6558867D02*
G01*
X38121182Y6371183D01*
X38308866Y6371183D01*
X38496551Y6371183D01*
X38496551Y6183498D01*
X38496551Y5995813D01*
X38121182Y5995813D01*
X37745812Y5995813D01*
X37745812Y6371183D01*
X37745812Y6746552D01*
X37933497Y6746552D01*
X38121182Y6746552D01*
X38121182Y6558867D01*
G37*
G36*
X41449458Y13415616D02*
G01*
X41449458Y13052759D01*
X41086600Y13052759D01*
X40723743Y13052759D01*
X40723743Y13227931D01*
X40723743Y13403104D01*
X40898916Y13403104D01*
X41074088Y13403104D01*
X41074088Y13590789D01*
X41074088Y13778473D01*
X41261773Y13778473D01*
X41449458Y13778473D01*
X41449458Y13415616D01*
G37*
G36*
X38684236Y7472266D02*
G01*
X38871921Y7472266D01*
X38871921Y7297094D01*
X38871921Y7121922D01*
X38684236Y7121922D01*
X38496551Y7121922D01*
X38496551Y7297094D01*
X38496551Y7472266D01*
X38684236Y7472266D01*
G37*
G36*
X38496551Y7659951D02*
G01*
X38496551Y7472266D01*
X38308866Y7472266D01*
X38121182Y7472266D01*
X38121182Y7659951D01*
X38121182Y7847636D01*
X38308866Y7847636D01*
X38496551Y7847636D01*
X38496551Y7659951D01*
G37*
G36*
X39597635Y6934237D02*
G01*
X39597635Y6746552D01*
X39785320Y6746552D01*
X39973004Y6746552D01*
X39973004Y6558867D01*
X39973004Y6371183D01*
X39422462Y6371183D01*
X38871921Y6371183D01*
X38871921Y6558867D01*
X38871921Y6746552D01*
X39047093Y6746552D01*
X39222265Y6746552D01*
X39222265Y6934237D01*
X39222265Y7121922D01*
X39409950Y7121922D01*
X39597635Y7121922D01*
X39597635Y6934237D01*
G37*
G36*
X39597635Y12677390D02*
G01*
X38671724Y12677390D01*
X37745812Y12677390D01*
X37745812Y13603301D01*
X37745812Y14153843D01*
X38121182Y14153843D01*
X38121182Y13603301D01*
X38121182Y13052759D01*
X38671724Y13052759D01*
X39222265Y13052759D01*
X39222265Y13603301D01*
X39222265Y14153843D01*
X38671724Y14153843D01*
X38121182Y14153843D01*
X37745812Y14153843D01*
X37745812Y14529212D01*
X38671724Y14529212D01*
X39597635Y14529212D01*
X39597635Y13603301D01*
X39597635Y12677390D01*
G37*
G36*
X40348374Y7472266D02*
G01*
X39785320Y7472266D01*
X39222265Y7472266D01*
X39222265Y8035321D01*
X39222265Y8223005D01*
X39597635Y8223005D01*
X39597635Y8035321D01*
X39597635Y7847636D01*
X39785320Y7847636D01*
X39973004Y7847636D01*
X39973004Y8035321D01*
X39973004Y8223005D01*
X39785320Y8223005D01*
X39597635Y8223005D01*
X39222265Y8223005D01*
X39222265Y8598375D01*
X39785320Y8598375D01*
X40348374Y8598375D01*
X40348374Y8035321D01*
X40348374Y7472266D01*
G37*
G36*
X46279211Y12677390D02*
G01*
X45353300Y12677390D01*
X44427389Y12677390D01*
X44427389Y13603301D01*
X44427389Y14153843D01*
X44802758Y14153843D01*
X44802758Y13603301D01*
X44802758Y13052759D01*
X45353300Y13052759D01*
X45903842Y13052759D01*
X45903842Y13603301D01*
X45903842Y14153843D01*
X45353300Y14153843D01*
X44802758Y14153843D01*
X44427389Y14153843D01*
X44427389Y14529212D01*
X45353300Y14529212D01*
X46279211Y14529212D01*
X46279211Y13603301D01*
X46279211Y12677390D01*
G37*
G36*
X46279211Y5995813D02*
G01*
X45353300Y5995813D01*
X44427389Y5995813D01*
X44427389Y6921725D01*
X44427389Y7472266D01*
X44802758Y7472266D01*
X44802758Y6921725D01*
X44802758Y6371183D01*
X45353300Y6371183D01*
X45903842Y6371183D01*
X45903842Y6921725D01*
X45903842Y7472266D01*
X45353300Y7472266D01*
X44802758Y7472266D01*
X44427389Y7472266D01*
X44427389Y7847636D01*
X45353300Y7847636D01*
X46279211Y7847636D01*
X46279211Y6921725D01*
X46279211Y5995813D01*
G37*
G36*
X40160689Y9699459D02*
G01*
X40348374Y9699459D01*
X40348374Y9511774D01*
X40348374Y9324089D01*
X40711231Y9324089D01*
X41074088Y9324089D01*
X41074088Y9148917D01*
X41074088Y8973744D01*
X40523546Y8973744D01*
X39973004Y8973744D01*
X39973004Y9336601D01*
X39973004Y9699459D01*
X40160689Y9699459D01*
G37*
G36*
X39973004Y9887143D02*
G01*
X39973004Y9699459D01*
X39785320Y9699459D01*
X39597635Y9699459D01*
X39597635Y9887143D01*
X39597635Y10074828D01*
X39785320Y10074828D01*
X39973004Y10074828D01*
X39973004Y9887143D01*
G37*
G36*
X41824827Y12489705D02*
G01*
X41824827Y12302020D01*
X42012512Y12302020D01*
X42200196Y12302020D01*
X42200196Y12489705D01*
X42200196Y12677390D01*
X42387881Y12677390D01*
X42575566Y12677390D01*
X42575566Y12489705D01*
X42575566Y12302020D01*
X42387881Y12302020D01*
X42200196Y12302020D01*
X42200196Y12114335D01*
X42200196Y11926651D01*
X41824827Y11926651D01*
X41449458Y11926651D01*
X41449458Y12302020D01*
X41449458Y12677390D01*
X41637142Y12677390D01*
X41824827Y12677390D01*
X41824827Y12489705D01*
G37*
G36*
X43313792Y11551281D02*
G01*
X43676650Y11551281D01*
X43676650Y11376109D01*
X43676650Y11200936D01*
X43488965Y11200936D01*
X43301280Y11200936D01*
X43301280Y10825567D01*
X43301280Y10450197D01*
X42938423Y10450197D01*
X42575566Y10450197D01*
X42575566Y10637882D01*
X42575566Y10825567D01*
X42763251Y10825567D01*
X42950935Y10825567D01*
X42950935Y11188424D01*
X42950935Y11551281D01*
X43313792Y11551281D01*
G37*
G36*
X42950935Y11738966D02*
G01*
X42950935Y11551281D01*
X42763251Y11551281D01*
X42575566Y11551281D01*
X42575566Y11738966D01*
X42575566Y11926651D01*
X42763251Y11926651D01*
X42950935Y11926651D01*
X42950935Y11738966D01*
G37*
G36*
X43301280Y7297094D02*
G01*
X43301280Y7121922D01*
X43126108Y7121922D01*
X42950935Y7121922D01*
X42950935Y6934237D01*
X42950935Y6746552D01*
X42763251Y6746552D01*
X42575566Y6746552D01*
X42575566Y6558867D01*
X42575566Y6371183D01*
X42387881Y6371183D01*
X42200196Y6371183D01*
X42200196Y6558867D01*
X42200196Y6746552D01*
X42012512Y6746552D01*
X41824827Y6746552D01*
X41824827Y6371183D01*
X41824827Y5995813D01*
X41449458Y5995813D01*
X41074088Y5995813D01*
X41074088Y6371183D01*
X41074088Y6746552D01*
X40711231Y6746552D01*
X40348374Y6746552D01*
X40348374Y6934237D01*
X40348374Y7121922D01*
X40711231Y7121922D01*
X41074088Y7121922D01*
X41074088Y6934237D01*
X41074088Y6746552D01*
X41261773Y6746552D01*
X41449458Y6746552D01*
X41449458Y6934237D01*
X41449458Y7121922D01*
X41824827Y7121922D01*
X42200196Y7121922D01*
X42200196Y6934237D01*
X42200196Y6746552D01*
X42387881Y6746552D01*
X42575566Y6746552D01*
X42575566Y7109409D01*
X42575566Y7472266D01*
X42938423Y7472266D01*
X43301280Y7472266D01*
X43301280Y7297094D01*
G37*
G36*
X41449458Y7297094D02*
G01*
X41449458Y7121922D01*
X41261773Y7121922D01*
X41074088Y7121922D01*
X41074088Y7297094D01*
X41074088Y7472266D01*
X41261773Y7472266D01*
X41449458Y7472266D01*
X41449458Y7297094D01*
G37*
G36*
X47004925Y11926651D02*
G01*
X47004925Y10250000D01*
X47004925Y6921725D01*
X47004925Y5245074D01*
X41999999Y5245074D01*
X36995073Y5245074D01*
X36995073Y10250000D01*
X36995073Y11200936D01*
X37370443Y11200936D01*
X37370443Y10637882D01*
X37370443Y10074828D01*
X37558127Y10074828D01*
X37745812Y10074828D01*
X37745812Y9887143D01*
X37745812Y9699459D01*
X37558127Y9699459D01*
X37370443Y9699459D01*
X37370443Y9336601D01*
X37370443Y8973744D01*
X37558127Y8973744D01*
X37745812Y8973744D01*
X37745812Y9148917D01*
X37745812Y9324089D01*
X37933497Y9324089D01*
X38121182Y9324089D01*
X38121182Y9699459D01*
X38121182Y10074828D01*
X38308866Y10074828D01*
X38496551Y10074828D01*
X38496551Y9699459D01*
X38496551Y9324089D01*
X38684236Y9324089D01*
X38871921Y9324089D01*
X38871921Y8961232D01*
X38871921Y8598375D01*
X38684236Y8598375D01*
X38496551Y8598375D01*
X38496551Y8786060D01*
X38496551Y8973744D01*
X38308866Y8973744D01*
X38121182Y8973744D01*
X38121182Y8786060D01*
X38121182Y8598375D01*
X38308866Y8598375D01*
X38496551Y8598375D01*
X38496551Y8410690D01*
X38496551Y8223005D01*
X37933497Y8223005D01*
X37370443Y8223005D01*
X37370443Y8035321D01*
X37370443Y7847636D01*
X37558127Y7847636D01*
X37745812Y7847636D01*
X37745812Y7659951D01*
X37745812Y7472266D01*
X37933497Y7472266D01*
X38121182Y7472266D01*
X38121182Y7297094D01*
X38121182Y7121922D01*
X37745812Y7121922D01*
X37370443Y7121922D01*
X37370443Y6371183D01*
X37370443Y5620444D01*
X38484039Y5620444D01*
X39597635Y5620444D01*
X39597635Y5808128D01*
X39597635Y5995813D01*
X39785320Y5995813D01*
X39973004Y5995813D01*
X39973004Y6183498D01*
X39973004Y6371183D01*
X40160689Y6371183D01*
X40348374Y6371183D01*
X40348374Y6183498D01*
X40348374Y5995813D01*
X40711231Y5995813D01*
X41074088Y5995813D01*
X41074088Y5808128D01*
X41074088Y5620444D01*
X41449458Y5620444D01*
X41824827Y5620444D01*
X41824827Y5808128D01*
X41824827Y5995813D01*
X42200196Y5995813D01*
X42575566Y5995813D01*
X42575566Y5808128D01*
X42575566Y5620444D01*
X43126108Y5620444D01*
X43676650Y5620444D01*
X43676650Y6546355D01*
X43676650Y6921725D01*
X44052019Y6921725D01*
X44052019Y5620444D01*
X45353300Y5620444D01*
X46654581Y5620444D01*
X46654581Y6921725D01*
X46654581Y8223005D01*
X45353300Y8223005D01*
X44052019Y8223005D01*
X44052019Y7472266D01*
X44052019Y6921725D01*
X43676650Y6921725D01*
X43676650Y7472266D01*
X43488965Y7472266D01*
X43301280Y7472266D01*
X43301280Y7659951D01*
X43301280Y7847636D01*
X42938423Y7847636D01*
X42575566Y7847636D01*
X42575566Y7659951D01*
X42575566Y7472266D01*
X42387881Y7472266D01*
X42200196Y7472266D01*
X42200196Y7659951D01*
X42200196Y7847636D01*
X42012512Y7847636D01*
X41824827Y7847636D01*
X41824827Y8035321D01*
X41824827Y8223005D01*
X41637142Y8223005D01*
X41449458Y8223005D01*
X41449458Y8035321D01*
X41449458Y7847636D01*
X41261773Y7847636D01*
X41074088Y7847636D01*
X41074088Y7659951D01*
X41074088Y7472266D01*
X40898916Y7472266D01*
X40723743Y7472266D01*
X40723743Y7847636D01*
X40723743Y8223005D01*
X40898916Y8223005D01*
X41074088Y8223005D01*
X41074088Y8410690D01*
X41074088Y8598375D01*
X41637142Y8598375D01*
X42200196Y8598375D01*
X42200196Y8410690D01*
X42200196Y8223005D01*
X42387881Y8223005D01*
X42575566Y8223005D01*
X42575566Y8410690D01*
X42950935Y8410690D01*
X42950935Y8223005D01*
X43126108Y8223005D01*
X43301280Y8223005D01*
X43301280Y8035321D01*
X43301280Y7847636D01*
X43488965Y7847636D01*
X43676650Y7847636D01*
X43676650Y8223005D01*
X43676650Y8598375D01*
X43313792Y8598375D01*
X42950935Y8598375D01*
X42950935Y8410690D01*
X42575566Y8410690D01*
X42575566Y8598375D01*
X42387881Y8598375D01*
X42200196Y8598375D01*
X42200196Y8786060D01*
X42200196Y8973744D01*
X42387881Y8973744D01*
X42575566Y8973744D01*
X42575566Y9148917D01*
X42575566Y9324089D01*
X42200196Y9324089D01*
X41824827Y9324089D01*
X41824827Y9148917D01*
X41824827Y8973744D01*
X41637142Y8973744D01*
X41449458Y8973744D01*
X41449458Y9148917D01*
X41449458Y9324089D01*
X41261773Y9324089D01*
X41074088Y9324089D01*
X41074088Y9511774D01*
X41074088Y9699459D01*
X40898916Y9699459D01*
X40723743Y9699459D01*
X40723743Y9887143D01*
X40723743Y10074828D01*
X40348374Y10074828D01*
X39973004Y10074828D01*
X39973004Y10262513D01*
X39973004Y10450197D01*
X39785320Y10450197D01*
X39597635Y10450197D01*
X39597635Y11188424D01*
X39597635Y11200936D01*
X39973004Y11200936D01*
X39973004Y11013252D01*
X39973004Y10825567D01*
X40523546Y10825567D01*
X41074088Y10825567D01*
X41074088Y11013252D01*
X41074088Y11200936D01*
X40523546Y11200936D01*
X39973004Y11200936D01*
X39597635Y11200936D01*
X39597635Y11926651D01*
X39973004Y11926651D01*
X39973004Y11738966D01*
X39973004Y11551281D01*
X40160689Y11551281D01*
X40348374Y11551281D01*
X40348374Y11738966D01*
X40348374Y11926651D01*
X40160689Y11926651D01*
X39973004Y11926651D01*
X39597635Y11926651D01*
X39409950Y11926651D01*
X39222265Y11926651D01*
X39222265Y11738966D01*
X39222265Y11188424D01*
X39222265Y11013252D01*
X39222265Y10450197D01*
X39047093Y10450197D01*
X38871921Y10450197D01*
X38871921Y10262513D01*
X38871921Y10074828D01*
X38684236Y10074828D01*
X38496551Y10074828D01*
X38496551Y10262513D01*
X38496551Y10450197D01*
X38121182Y10450197D01*
X37745812Y10450197D01*
X37745812Y10637882D01*
X37745812Y10825567D01*
X37933497Y10825567D01*
X38121182Y10825567D01*
X38121182Y11200936D01*
X38496551Y11200936D01*
X38496551Y11013252D01*
X38496551Y10825567D01*
X38684236Y10825567D01*
X38871921Y10825567D01*
X38871921Y11013252D01*
X38871921Y11200936D01*
X38684236Y11200936D01*
X38496551Y11200936D01*
X38121182Y11200936D01*
X38121182Y11376109D01*
X38121182Y11926651D01*
X38496551Y11926651D01*
X38496551Y11738966D01*
X38496551Y11551281D01*
X38684236Y11551281D01*
X38871921Y11551281D01*
X38871921Y11738966D01*
X38871921Y11926651D01*
X38684236Y11926651D01*
X38496551Y11926651D01*
X38121182Y11926651D01*
X37933497Y11926651D01*
X37745812Y11926651D01*
X37745812Y11563793D01*
X37745812Y11200936D01*
X37558127Y11200936D01*
X37370443Y11200936D01*
X36995073Y11200936D01*
X36995073Y14904582D01*
X37370443Y14904582D01*
X37370443Y13603301D01*
X37370443Y12302020D01*
X38671724Y12302020D01*
X39973004Y12302020D01*
X39973004Y13403104D01*
X40348374Y13403104D01*
X40348374Y13227931D01*
X40348374Y13052759D01*
X40536059Y13052759D01*
X40723743Y13052759D01*
X40723743Y12865074D01*
X40723743Y12677390D01*
X40536059Y12677390D01*
X40348374Y12677390D01*
X40348374Y12302020D01*
X40348374Y11926651D01*
X40536059Y11926651D01*
X40723743Y11926651D01*
X40723743Y12302020D01*
X40723743Y12677390D01*
X40898916Y12677390D01*
X41074088Y12677390D01*
X41074088Y12302020D01*
X41074088Y11939163D01*
X41074088Y11738966D01*
X41074088Y11200936D01*
X41261773Y11200936D01*
X41449458Y11200936D01*
X41449458Y11376109D01*
X41449458Y11551281D01*
X41637142Y11551281D01*
X41824827Y11551281D01*
X41824827Y11376109D01*
X41824827Y11200936D01*
X42012512Y11200936D01*
X42200196Y11200936D01*
X42200196Y11376109D01*
X42200196Y11551281D01*
X42387881Y11551281D01*
X42575566Y11551281D01*
X42575566Y11188424D01*
X42575566Y11013252D01*
X42575566Y10825567D01*
X42200196Y10825567D01*
X41824827Y10825567D01*
X41824827Y10637882D01*
X41824827Y10450197D01*
X41449458Y10450197D01*
X41074088Y10450197D01*
X41074088Y10262513D01*
X41074088Y10074828D01*
X41261773Y10074828D01*
X41449458Y10074828D01*
X41449458Y9887143D01*
X41449458Y9699459D01*
X41637142Y9699459D01*
X41824827Y9699459D01*
X41824827Y9887143D01*
X41824827Y10074828D01*
X42012512Y10074828D01*
X42200196Y10074828D01*
X42200196Y9887143D01*
X42200196Y9699459D01*
X42387881Y9699459D01*
X42575566Y9699459D01*
X42575566Y9887143D01*
X42575566Y10074828D01*
X42938423Y10074828D01*
X43301280Y10074828D01*
X43301280Y10262513D01*
X43301280Y10450197D01*
X43488965Y10450197D01*
X43676650Y10450197D01*
X43676650Y10637882D01*
X43676650Y10825567D01*
X44052019Y10825567D01*
X44427389Y10825567D01*
X44427389Y10637882D01*
X44427389Y10450197D01*
X44239704Y10450197D01*
X44052019Y10450197D01*
X44052019Y10262513D01*
X44052019Y10074828D01*
X44239704Y10074828D01*
X44427389Y10074828D01*
X44427389Y10262513D01*
X44427389Y10450197D01*
X44790246Y10450197D01*
X45153103Y10450197D01*
X45153103Y10262513D01*
X45153103Y10074828D01*
X44977930Y10074828D01*
X44802758Y10074828D01*
X44802758Y9887143D01*
X44802758Y9699459D01*
X44052019Y9699459D01*
X43301280Y9699459D01*
X43301280Y9511774D01*
X43301280Y9324089D01*
X43126108Y9324089D01*
X42950935Y9324089D01*
X42950935Y9148917D01*
X42950935Y8973744D01*
X43126108Y8973744D01*
X43301280Y8973744D01*
X43301280Y9148917D01*
X43301280Y9324089D01*
X43864334Y9324089D01*
X44427389Y9324089D01*
X44427389Y9148917D01*
X44427389Y8973744D01*
X44052019Y8973744D01*
X43676650Y8973744D01*
X43676650Y8786060D01*
X43676650Y8598375D01*
X44602561Y8598375D01*
X45528472Y8598375D01*
X45528472Y8786060D01*
X45528472Y8973744D01*
X45716157Y8973744D01*
X45903842Y8973744D01*
X45903842Y9336601D01*
X45903842Y9699459D01*
X46091526Y9699459D01*
X46279211Y9699459D01*
X46279211Y9148917D01*
X46279211Y8598375D01*
X46466896Y8598375D01*
X46654581Y8598375D01*
X46654581Y9336601D01*
X46654581Y10074828D01*
X46466896Y10074828D01*
X46279211Y10074828D01*
X46279211Y10262513D01*
X46279211Y10450197D01*
X46466896Y10450197D01*
X46654581Y10450197D01*
X46654581Y11188424D01*
X46654581Y11926651D01*
X45728669Y11926651D01*
X44802758Y11926651D01*
X44802758Y11563793D01*
X44802758Y11200936D01*
X44427389Y11200936D01*
X44052019Y11200936D01*
X44052019Y11376109D01*
X44052019Y11551281D01*
X44239704Y11551281D01*
X44427389Y11551281D01*
X44427389Y11738966D01*
X44427389Y11926651D01*
X43864334Y11926651D01*
X43301280Y11926651D01*
X43301280Y12114335D01*
X43301280Y12302020D01*
X43488965Y12302020D01*
X43676650Y12302020D01*
X43676650Y12677390D01*
X43676650Y13052759D01*
X43488965Y13052759D01*
X43301280Y13052759D01*
X43301280Y13227931D01*
X43301280Y13403104D01*
X43488965Y13403104D01*
X43676650Y13403104D01*
X43676650Y13590789D01*
X43676650Y13603301D01*
X44052019Y13603301D01*
X44052019Y12302020D01*
X45353300Y12302020D01*
X46654581Y12302020D01*
X46654581Y13603301D01*
X46654581Y14904582D01*
X45353300Y14904582D01*
X44052019Y14904582D01*
X44052019Y14341527D01*
X44052019Y13603301D01*
X43676650Y13603301D01*
X43676650Y13778473D01*
X43126108Y13778473D01*
X42575566Y13778473D01*
X42575566Y13590789D01*
X42575566Y13403104D01*
X42763251Y13403104D01*
X42950935Y13403104D01*
X42950935Y13040247D01*
X42950935Y12677390D01*
X42763251Y12677390D01*
X42575566Y12677390D01*
X42575566Y12865074D01*
X42575566Y13052759D01*
X42200196Y13052759D01*
X41824827Y13052759D01*
X41824827Y13227931D01*
X41824827Y13403104D01*
X42012512Y13403104D01*
X42200196Y13403104D01*
X42200196Y13778473D01*
X42200196Y14153843D01*
X42012512Y14153843D01*
X41824827Y14153843D01*
X41824827Y14341527D01*
X41824827Y14529212D01*
X41637142Y14529212D01*
X41449458Y14529212D01*
X41449458Y14341527D01*
X41449458Y14153843D01*
X41261773Y14153843D01*
X41074088Y14153843D01*
X41074088Y14341527D01*
X41074088Y14529212D01*
X40898916Y14529212D01*
X40723743Y14529212D01*
X40723743Y14716897D01*
X41824827Y14716897D01*
X41824827Y14529212D01*
X42012512Y14529212D01*
X42200196Y14529212D01*
X42575566Y14529212D01*
X42575566Y14153843D01*
X42763251Y14153843D01*
X42950935Y14153843D01*
X42950935Y14529212D01*
X43301280Y14529212D01*
X43301280Y14341527D01*
X43301280Y14153843D01*
X43488965Y14153843D01*
X43676650Y14153843D01*
X43676650Y14341527D01*
X43676650Y14529212D01*
X43488965Y14529212D01*
X43301280Y14529212D01*
X42950935Y14529212D01*
X42950935Y14904582D01*
X42763251Y14904582D01*
X42575566Y14904582D01*
X42575566Y14716897D01*
X42575566Y14529212D01*
X42200196Y14529212D01*
X42200196Y14716897D01*
X42200196Y14904582D01*
X42012512Y14904582D01*
X41824827Y14904582D01*
X41824827Y14716897D01*
X40723743Y14716897D01*
X40723743Y14904582D01*
X40536059Y14904582D01*
X40348374Y14904582D01*
X40348374Y14529212D01*
X40348374Y14153843D01*
X40711231Y14153843D01*
X41074088Y14153843D01*
X41074088Y13966158D01*
X41074088Y13778473D01*
X40898916Y13778473D01*
X40723743Y13778473D01*
X40723743Y13603301D01*
X40723743Y13590789D01*
X40723743Y13403104D01*
X40536059Y13403104D01*
X40348374Y13403104D01*
X39973004Y13403104D01*
X39973004Y13603301D01*
X39973004Y14904582D01*
X38671724Y14904582D01*
X37370443Y14904582D01*
X36995073Y14904582D01*
X36995073Y15254926D01*
X41999999Y15254926D01*
X47004925Y15254926D01*
X47004925Y13603301D01*
X47004925Y11926651D01*
G37*
G36*
X7621924Y9785320D02*
G01*
X7621924Y9597635D01*
X7434239Y9597635D01*
X7246554Y9597635D01*
X7246554Y9785320D01*
X7246554Y9973004D01*
X7434239Y9973004D01*
X7621924Y9973004D01*
X7621924Y9785320D01*
G37*
G36*
X7972268Y11637142D02*
G01*
X7972268Y11449458D01*
X7797096Y11449458D01*
X7621924Y11449458D01*
X7621924Y11637142D01*
X7621924Y11824827D01*
X7797096Y11824827D01*
X7972268Y11824827D01*
X7972268Y11637142D01*
G37*
G36*
X10574830Y15716157D02*
G01*
X10574830Y15528472D01*
X10387145Y15528472D01*
X10199461Y15528472D01*
X10199461Y15716157D01*
X10199461Y15903842D01*
X10387145Y15903842D01*
X10574830Y15903842D01*
X10574830Y15716157D01*
G37*
G36*
X10574830Y9409950D02*
G01*
X10574830Y9222265D01*
X10387145Y9222265D01*
X10199461Y9222265D01*
X10199461Y9409950D01*
X10199461Y9597635D01*
X10387145Y9597635D01*
X10574830Y9597635D01*
X10574830Y9409950D01*
G37*
G36*
X12051283Y14239704D02*
G01*
X12051283Y14052019D01*
X11876111Y14052019D01*
X11700938Y14052019D01*
X11700938Y14239704D01*
X11700938Y14427389D01*
X11876111Y14427389D01*
X12051283Y14427389D01*
X12051283Y14239704D01*
G37*
G36*
X12051283Y7933497D02*
G01*
X12051283Y7745812D01*
X11876111Y7745812D01*
X11700938Y7745812D01*
X11700938Y7933497D01*
X11700938Y8121182D01*
X11876111Y8121182D01*
X12051283Y8121182D01*
X12051283Y7933497D01*
G37*
G36*
X13903106Y12763251D02*
G01*
X13903106Y12575566D01*
X13727933Y12575566D01*
X13552761Y12575566D01*
X13552761Y12763251D01*
X13552761Y12950935D01*
X13727933Y12950935D01*
X13903106Y12950935D01*
X13903106Y12763251D01*
G37*
G36*
X14278475Y11086600D02*
G01*
X14278475Y10723743D01*
X14090791Y10723743D01*
X13903106Y10723743D01*
X13903106Y11086600D01*
X13903106Y11449458D01*
X14090791Y11449458D01*
X14278475Y11449458D01*
X14278475Y11086600D01*
G37*
G36*
X14653845Y13126108D02*
G01*
X14653845Y12950935D01*
X14466160Y12950935D01*
X14278475Y12950935D01*
X14278475Y13126108D01*
X14278475Y13301280D01*
X14466160Y13301280D01*
X14653845Y13301280D01*
X14653845Y13126108D01*
G37*
G36*
X14653845Y12012512D02*
G01*
X14653845Y11449458D01*
X14466160Y11449458D01*
X14278475Y11449458D01*
X14278475Y12012512D01*
X14278475Y12575566D01*
X14466160Y12575566D01*
X14653845Y12575566D01*
X14653845Y12012512D01*
G37*
G36*
X6871185Y8308866D02*
G01*
X6871185Y8121182D01*
X7058869Y8121182D01*
X7246554Y8121182D01*
X7246554Y7933497D01*
X7246554Y7745812D01*
X6871185Y7745812D01*
X6495815Y7745812D01*
X6495815Y8121182D01*
X6495815Y8496551D01*
X6683500Y8496551D01*
X6871185Y8496551D01*
X6871185Y8308866D01*
G37*
G36*
X10199461Y15165615D02*
G01*
X10199461Y14802758D01*
X9836603Y14802758D01*
X9473746Y14802758D01*
X9473746Y14977930D01*
X9473746Y15153103D01*
X9648919Y15153103D01*
X9824091Y15153103D01*
X9824091Y15340788D01*
X9824091Y15528472D01*
X10011776Y15528472D01*
X10199461Y15528472D01*
X10199461Y15165615D01*
G37*
G36*
X7434239Y9222265D02*
G01*
X7621924Y9222265D01*
X7621924Y9047093D01*
X7621924Y8871921D01*
X7434239Y8871921D01*
X7246554Y8871921D01*
X7246554Y9047093D01*
X7246554Y9222265D01*
X7434239Y9222265D01*
G37*
G36*
X7246554Y9409950D02*
G01*
X7246554Y9222265D01*
X7058869Y9222265D01*
X6871185Y9222265D01*
X6871185Y9409950D01*
X6871185Y9597635D01*
X7058869Y9597635D01*
X7246554Y9597635D01*
X7246554Y9409950D01*
G37*
G36*
X8347638Y8684236D02*
G01*
X8347638Y8496551D01*
X8535323Y8496551D01*
X8723007Y8496551D01*
X8723007Y8308866D01*
X8723007Y8121182D01*
X8172465Y8121182D01*
X7621924Y8121182D01*
X7621924Y8308866D01*
X7621924Y8496551D01*
X7797096Y8496551D01*
X7972268Y8496551D01*
X7972268Y8684236D01*
X7972268Y8871921D01*
X8159953Y8871921D01*
X8347638Y8871921D01*
X8347638Y8684236D01*
G37*
G36*
X8347638Y14427389D02*
G01*
X7421727Y14427389D01*
X6495815Y14427389D01*
X6495815Y15353300D01*
X6495815Y15903842D01*
X6871185Y15903842D01*
X6871185Y15353300D01*
X6871185Y14802758D01*
X7421727Y14802758D01*
X7972268Y14802758D01*
X7972268Y15353300D01*
X7972268Y15903842D01*
X7421727Y15903842D01*
X6871185Y15903842D01*
X6495815Y15903842D01*
X6495815Y16279211D01*
X7421727Y16279211D01*
X8347638Y16279211D01*
X8347638Y15353300D01*
X8347638Y14427389D01*
G37*
G36*
X9098377Y9222265D02*
G01*
X8535323Y9222265D01*
X7972268Y9222265D01*
X7972268Y9785320D01*
X7972268Y9973004D01*
X8347638Y9973004D01*
X8347638Y9785320D01*
X8347638Y9597635D01*
X8535323Y9597635D01*
X8723007Y9597635D01*
X8723007Y9785320D01*
X8723007Y9973004D01*
X8535323Y9973004D01*
X8347638Y9973004D01*
X7972268Y9973004D01*
X7972268Y10348374D01*
X8535323Y10348374D01*
X9098377Y10348374D01*
X9098377Y9785320D01*
X9098377Y9222265D01*
G37*
G36*
X15029214Y14427389D02*
G01*
X14103303Y14427389D01*
X13177392Y14427389D01*
X13177392Y15353300D01*
X13177392Y15903842D01*
X13552761Y15903842D01*
X13552761Y15353300D01*
X13552761Y14802758D01*
X14103303Y14802758D01*
X14653845Y14802758D01*
X14653845Y15353300D01*
X14653845Y15903842D01*
X14103303Y15903842D01*
X13552761Y15903842D01*
X13177392Y15903842D01*
X13177392Y16279211D01*
X14103303Y16279211D01*
X15029214Y16279211D01*
X15029214Y15353300D01*
X15029214Y14427389D01*
G37*
G36*
X15029214Y7745812D02*
G01*
X14103303Y7745812D01*
X13177392Y7745812D01*
X13177392Y8671724D01*
X13177392Y9222265D01*
X13552761Y9222265D01*
X13552761Y8671724D01*
X13552761Y8121182D01*
X14103303Y8121182D01*
X14653845Y8121182D01*
X14653845Y8671724D01*
X14653845Y9222265D01*
X14103303Y9222265D01*
X13552761Y9222265D01*
X13177392Y9222265D01*
X13177392Y9597635D01*
X14103303Y9597635D01*
X15029214Y9597635D01*
X15029214Y8671724D01*
X15029214Y7745812D01*
G37*
G36*
X8910692Y11449458D02*
G01*
X9098377Y11449458D01*
X9098377Y11261773D01*
X9098377Y11074088D01*
X9461234Y11074088D01*
X9824091Y11074088D01*
X9824091Y10898916D01*
X9824091Y10723743D01*
X9273549Y10723743D01*
X8723007Y10723743D01*
X8723007Y11086600D01*
X8723007Y11449458D01*
X8910692Y11449458D01*
G37*
G36*
X8723007Y11637142D02*
G01*
X8723007Y11449458D01*
X8535323Y11449458D01*
X8347638Y11449458D01*
X8347638Y11637142D01*
X8347638Y11824827D01*
X8535323Y11824827D01*
X8723007Y11824827D01*
X8723007Y11637142D01*
G37*
G36*
X10574830Y14239704D02*
G01*
X10574830Y14052019D01*
X10762515Y14052019D01*
X10950199Y14052019D01*
X10950199Y14239704D01*
X10950199Y14427389D01*
X11137884Y14427389D01*
X11325569Y14427389D01*
X11325569Y14239704D01*
X11325569Y14052019D01*
X11137884Y14052019D01*
X10950199Y14052019D01*
X10950199Y13864334D01*
X10950199Y13676650D01*
X10574830Y13676650D01*
X10199461Y13676650D01*
X10199461Y14052019D01*
X10199461Y14427389D01*
X10387145Y14427389D01*
X10574830Y14427389D01*
X10574830Y14239704D01*
G37*
G36*
X12063795Y13301280D02*
G01*
X12426653Y13301280D01*
X12426653Y13126108D01*
X12426653Y12950935D01*
X12238968Y12950935D01*
X12051283Y12950935D01*
X12051283Y12575566D01*
X12051283Y12200196D01*
X11688426Y12200196D01*
X11325569Y12200196D01*
X11325569Y12387881D01*
X11325569Y12575566D01*
X11513254Y12575566D01*
X11700938Y12575566D01*
X11700938Y12938423D01*
X11700938Y13301280D01*
X12063795Y13301280D01*
G37*
G36*
X11700938Y13488965D02*
G01*
X11700938Y13301280D01*
X11513254Y13301280D01*
X11325569Y13301280D01*
X11325569Y13488965D01*
X11325569Y13676650D01*
X11513254Y13676650D01*
X11700938Y13676650D01*
X11700938Y13488965D01*
G37*
G36*
X12051283Y9047093D02*
G01*
X12051283Y8871921D01*
X11876111Y8871921D01*
X11700938Y8871921D01*
X11700938Y8684236D01*
X11700938Y8496551D01*
X11513254Y8496551D01*
X11325569Y8496551D01*
X11325569Y8308866D01*
X11325569Y8121182D01*
X11137884Y8121182D01*
X10950199Y8121182D01*
X10950199Y8308866D01*
X10950199Y8496551D01*
X10762515Y8496551D01*
X10574830Y8496551D01*
X10574830Y8121182D01*
X10574830Y7745812D01*
X10199461Y7745812D01*
X9824091Y7745812D01*
X9824091Y8121182D01*
X9824091Y8496551D01*
X9461234Y8496551D01*
X9098377Y8496551D01*
X9098377Y8684236D01*
X9098377Y8871921D01*
X9461234Y8871921D01*
X9824091Y8871921D01*
X9824091Y8684236D01*
X9824091Y8496551D01*
X10011776Y8496551D01*
X10199461Y8496551D01*
X10199461Y8684236D01*
X10199461Y8871921D01*
X10574830Y8871921D01*
X10950199Y8871921D01*
X10950199Y8684236D01*
X10950199Y8496551D01*
X11137884Y8496551D01*
X11325569Y8496551D01*
X11325569Y8859408D01*
X11325569Y9222265D01*
X11688426Y9222265D01*
X12051283Y9222265D01*
X12051283Y9047093D01*
G37*
G36*
X10199461Y9047093D02*
G01*
X10199461Y8871921D01*
X10011776Y8871921D01*
X9824091Y8871921D01*
X9824091Y9047093D01*
X9824091Y9222265D01*
X10011776Y9222265D01*
X10199461Y9222265D01*
X10199461Y9047093D01*
G37*
G36*
X15754928Y13676650D02*
G01*
X15754928Y11999999D01*
X15754928Y8671724D01*
X15754928Y6995073D01*
X10750002Y6995073D01*
X5745076Y6995073D01*
X5745076Y11999999D01*
X5745076Y12950935D01*
X6120446Y12950935D01*
X6120446Y12387881D01*
X6120446Y11824827D01*
X6308130Y11824827D01*
X6495815Y11824827D01*
X6495815Y11637142D01*
X6495815Y11449458D01*
X6308130Y11449458D01*
X6120446Y11449458D01*
X6120446Y11086600D01*
X6120446Y10723743D01*
X6308130Y10723743D01*
X6495815Y10723743D01*
X6495815Y10898916D01*
X6495815Y11074088D01*
X6683500Y11074088D01*
X6871185Y11074088D01*
X6871185Y11449458D01*
X6871185Y11824827D01*
X7058869Y11824827D01*
X7246554Y11824827D01*
X7246554Y11449458D01*
X7246554Y11074088D01*
X7434239Y11074088D01*
X7621924Y11074088D01*
X7621924Y10711231D01*
X7621924Y10348374D01*
X7434239Y10348374D01*
X7246554Y10348374D01*
X7246554Y10536059D01*
X7246554Y10723743D01*
X7058869Y10723743D01*
X6871185Y10723743D01*
X6871185Y10536059D01*
X6871185Y10348374D01*
X7058869Y10348374D01*
X7246554Y10348374D01*
X7246554Y10160689D01*
X7246554Y9973004D01*
X6683500Y9973004D01*
X6120446Y9973004D01*
X6120446Y9785320D01*
X6120446Y9597635D01*
X6308130Y9597635D01*
X6495815Y9597635D01*
X6495815Y9409950D01*
X6495815Y9222265D01*
X6683500Y9222265D01*
X6871185Y9222265D01*
X6871185Y9047093D01*
X6871185Y8871921D01*
X6495815Y8871921D01*
X6120446Y8871921D01*
X6120446Y8121182D01*
X6120446Y7370443D01*
X7234042Y7370443D01*
X8347638Y7370443D01*
X8347638Y7558127D01*
X8347638Y7745812D01*
X8535323Y7745812D01*
X8723007Y7745812D01*
X8723007Y7933497D01*
X8723007Y8121182D01*
X8910692Y8121182D01*
X9098377Y8121182D01*
X9098377Y7933497D01*
X9098377Y7745812D01*
X9461234Y7745812D01*
X9824091Y7745812D01*
X9824091Y7558127D01*
X9824091Y7370443D01*
X10199461Y7370443D01*
X10574830Y7370443D01*
X10574830Y7558127D01*
X10574830Y7745812D01*
X10950199Y7745812D01*
X11325569Y7745812D01*
X11325569Y7558127D01*
X11325569Y7370443D01*
X11876111Y7370443D01*
X12426653Y7370443D01*
X12426653Y8296354D01*
X12426653Y8671724D01*
X12802022Y8671724D01*
X12802022Y7370443D01*
X14103303Y7370443D01*
X15404584Y7370443D01*
X15404584Y8671724D01*
X15404584Y9973004D01*
X14103303Y9973004D01*
X12802022Y9973004D01*
X12802022Y9222265D01*
X12802022Y8671724D01*
X12426653Y8671724D01*
X12426653Y9222265D01*
X12238968Y9222265D01*
X12051283Y9222265D01*
X12051283Y9409950D01*
X12051283Y9597635D01*
X11688426Y9597635D01*
X11325569Y9597635D01*
X11325569Y9409950D01*
X11325569Y9222265D01*
X11137884Y9222265D01*
X10950199Y9222265D01*
X10950199Y9409950D01*
X10950199Y9597635D01*
X10762515Y9597635D01*
X10574830Y9597635D01*
X10574830Y9785320D01*
X10574830Y9973004D01*
X10387145Y9973004D01*
X10199461Y9973004D01*
X10199461Y9785320D01*
X10199461Y9597635D01*
X10011776Y9597635D01*
X9824091Y9597635D01*
X9824091Y9409950D01*
X9824091Y9222265D01*
X9648919Y9222265D01*
X9473746Y9222265D01*
X9473746Y9597635D01*
X9473746Y9973004D01*
X9648919Y9973004D01*
X9824091Y9973004D01*
X9824091Y10160689D01*
X9824091Y10348374D01*
X10387145Y10348374D01*
X10950199Y10348374D01*
X10950199Y10160689D01*
X10950199Y9973004D01*
X11137884Y9973004D01*
X11325569Y9973004D01*
X11325569Y10160689D01*
X11700938Y10160689D01*
X11700938Y9973004D01*
X11876111Y9973004D01*
X12051283Y9973004D01*
X12051283Y9785320D01*
X12051283Y9597635D01*
X12238968Y9597635D01*
X12426653Y9597635D01*
X12426653Y9973004D01*
X12426653Y10348374D01*
X12063795Y10348374D01*
X11700938Y10348374D01*
X11700938Y10160689D01*
X11325569Y10160689D01*
X11325569Y10348374D01*
X11137884Y10348374D01*
X10950199Y10348374D01*
X10950199Y10536059D01*
X10950199Y10723743D01*
X11137884Y10723743D01*
X11325569Y10723743D01*
X11325569Y10898916D01*
X11325569Y11074088D01*
X10950199Y11074088D01*
X10574830Y11074088D01*
X10574830Y10898916D01*
X10574830Y10723743D01*
X10387145Y10723743D01*
X10199461Y10723743D01*
X10199461Y10898916D01*
X10199461Y11074088D01*
X10011776Y11074088D01*
X9824091Y11074088D01*
X9824091Y11261773D01*
X9824091Y11449458D01*
X9648919Y11449458D01*
X9473746Y11449458D01*
X9473746Y11637142D01*
X9473746Y11824827D01*
X9098377Y11824827D01*
X8723007Y11824827D01*
X8723007Y12012512D01*
X8723007Y12200196D01*
X8535323Y12200196D01*
X8347638Y12200196D01*
X8347638Y12938423D01*
X8347638Y12950935D01*
X8723007Y12950935D01*
X8723007Y12763251D01*
X8723007Y12575566D01*
X9273549Y12575566D01*
X9824091Y12575566D01*
X9824091Y12763251D01*
X9824091Y12950935D01*
X9273549Y12950935D01*
X8723007Y12950935D01*
X8347638Y12950935D01*
X8347638Y13676650D01*
X8723007Y13676650D01*
X8723007Y13488965D01*
X8723007Y13301280D01*
X8910692Y13301280D01*
X9098377Y13301280D01*
X9098377Y13488965D01*
X9098377Y13676650D01*
X8910692Y13676650D01*
X8723007Y13676650D01*
X8347638Y13676650D01*
X8159953Y13676650D01*
X7972268Y13676650D01*
X7972268Y13488965D01*
X7972268Y12938423D01*
X7972268Y12763251D01*
X7972268Y12200196D01*
X7797096Y12200196D01*
X7621924Y12200196D01*
X7621924Y12012512D01*
X7621924Y11824827D01*
X7434239Y11824827D01*
X7246554Y11824827D01*
X7246554Y12012512D01*
X7246554Y12200196D01*
X6871185Y12200196D01*
X6495815Y12200196D01*
X6495815Y12387881D01*
X6495815Y12575566D01*
X6683500Y12575566D01*
X6871185Y12575566D01*
X6871185Y12950935D01*
X7246554Y12950935D01*
X7246554Y12763251D01*
X7246554Y12575566D01*
X7434239Y12575566D01*
X7621924Y12575566D01*
X7621924Y12763251D01*
X7621924Y12950935D01*
X7434239Y12950935D01*
X7246554Y12950935D01*
X6871185Y12950935D01*
X6871185Y13126108D01*
X6871185Y13676650D01*
X7246554Y13676650D01*
X7246554Y13488965D01*
X7246554Y13301280D01*
X7434239Y13301280D01*
X7621924Y13301280D01*
X7621924Y13488965D01*
X7621924Y13676650D01*
X7434239Y13676650D01*
X7246554Y13676650D01*
X6871185Y13676650D01*
X6683500Y13676650D01*
X6495815Y13676650D01*
X6495815Y13313792D01*
X6495815Y12950935D01*
X6308130Y12950935D01*
X6120446Y12950935D01*
X5745076Y12950935D01*
X5745076Y16654581D01*
X6120446Y16654581D01*
X6120446Y15353300D01*
X6120446Y14052019D01*
X7421727Y14052019D01*
X8723007Y14052019D01*
X8723007Y15153103D01*
X9098377Y15153103D01*
X9098377Y14977930D01*
X9098377Y14802758D01*
X9286062Y14802758D01*
X9473746Y14802758D01*
X9473746Y14615073D01*
X9473746Y14427389D01*
X9286062Y14427389D01*
X9098377Y14427389D01*
X9098377Y14052019D01*
X9098377Y13676650D01*
X9286062Y13676650D01*
X9473746Y13676650D01*
X9473746Y14052019D01*
X9473746Y14427389D01*
X9648919Y14427389D01*
X9824091Y14427389D01*
X9824091Y14052019D01*
X9824091Y13689162D01*
X9824091Y13488965D01*
X9824091Y12950935D01*
X10011776Y12950935D01*
X10199461Y12950935D01*
X10199461Y13126108D01*
X10199461Y13301280D01*
X10387145Y13301280D01*
X10574830Y13301280D01*
X10574830Y13126108D01*
X10574830Y12950935D01*
X10762515Y12950935D01*
X10950199Y12950935D01*
X10950199Y13126108D01*
X10950199Y13301280D01*
X11137884Y13301280D01*
X11325569Y13301280D01*
X11325569Y12938423D01*
X11325569Y12763251D01*
X11325569Y12575566D01*
X10950199Y12575566D01*
X10574830Y12575566D01*
X10574830Y12387881D01*
X10574830Y12200196D01*
X10199461Y12200196D01*
X9824091Y12200196D01*
X9824091Y12012512D01*
X9824091Y11824827D01*
X10011776Y11824827D01*
X10199461Y11824827D01*
X10199461Y11637142D01*
X10199461Y11449458D01*
X10387145Y11449458D01*
X10574830Y11449458D01*
X10574830Y11637142D01*
X10574830Y11824827D01*
X10762515Y11824827D01*
X10950199Y11824827D01*
X10950199Y11637142D01*
X10950199Y11449458D01*
X11137884Y11449458D01*
X11325569Y11449458D01*
X11325569Y11637142D01*
X11325569Y11824827D01*
X11688426Y11824827D01*
X12051283Y11824827D01*
X12051283Y12012512D01*
X12051283Y12200196D01*
X12238968Y12200196D01*
X12426653Y12200196D01*
X12426653Y12387881D01*
X12426653Y12575566D01*
X12802022Y12575566D01*
X13177392Y12575566D01*
X13177392Y12387881D01*
X13177392Y12200196D01*
X12989707Y12200196D01*
X12802022Y12200196D01*
X12802022Y12012512D01*
X12802022Y11824827D01*
X12989707Y11824827D01*
X13177392Y11824827D01*
X13177392Y12012512D01*
X13177392Y12200196D01*
X13540249Y12200196D01*
X13903106Y12200196D01*
X13903106Y12012512D01*
X13903106Y11824827D01*
X13727933Y11824827D01*
X13552761Y11824827D01*
X13552761Y11637142D01*
X13552761Y11449458D01*
X12802022Y11449458D01*
X12051283Y11449458D01*
X12051283Y11261773D01*
X12051283Y11074088D01*
X11876111Y11074088D01*
X11700938Y11074088D01*
X11700938Y10898916D01*
X11700938Y10723743D01*
X11876111Y10723743D01*
X12051283Y10723743D01*
X12051283Y10898916D01*
X12051283Y11074088D01*
X12614337Y11074088D01*
X13177392Y11074088D01*
X13177392Y10898916D01*
X13177392Y10723743D01*
X12802022Y10723743D01*
X12426653Y10723743D01*
X12426653Y10536059D01*
X12426653Y10348374D01*
X13352564Y10348374D01*
X14278475Y10348374D01*
X14278475Y10536059D01*
X14278475Y10723743D01*
X14466160Y10723743D01*
X14653845Y10723743D01*
X14653845Y11086600D01*
X14653845Y11449458D01*
X14841529Y11449458D01*
X15029214Y11449458D01*
X15029214Y10898916D01*
X15029214Y10348374D01*
X15216899Y10348374D01*
X15404584Y10348374D01*
X15404584Y11086600D01*
X15404584Y11824827D01*
X15216899Y11824827D01*
X15029214Y11824827D01*
X15029214Y12012512D01*
X15029214Y12200196D01*
X15216899Y12200196D01*
X15404584Y12200196D01*
X15404584Y12938423D01*
X15404584Y13676650D01*
X14478672Y13676650D01*
X13552761Y13676650D01*
X13552761Y13313792D01*
X13552761Y12950935D01*
X13177392Y12950935D01*
X12802022Y12950935D01*
X12802022Y13126108D01*
X12802022Y13301280D01*
X12989707Y13301280D01*
X13177392Y13301280D01*
X13177392Y13488965D01*
X13177392Y13676650D01*
X12614337Y13676650D01*
X12051283Y13676650D01*
X12051283Y13864334D01*
X12051283Y14052019D01*
X12238968Y14052019D01*
X12426653Y14052019D01*
X12426653Y14427389D01*
X12426653Y14802758D01*
X12238968Y14802758D01*
X12051283Y14802758D01*
X12051283Y14977930D01*
X12051283Y15153103D01*
X12238968Y15153103D01*
X12426653Y15153103D01*
X12426653Y15340788D01*
X12426653Y15353300D01*
X12802022Y15353300D01*
X12802022Y14052019D01*
X14103303Y14052019D01*
X15404584Y14052019D01*
X15404584Y15353300D01*
X15404584Y16654581D01*
X14103303Y16654581D01*
X12802022Y16654581D01*
X12802022Y16091526D01*
X12802022Y15353300D01*
X12426653Y15353300D01*
X12426653Y15528472D01*
X11876111Y15528472D01*
X11325569Y15528472D01*
X11325569Y15340788D01*
X11325569Y15153103D01*
X11513254Y15153103D01*
X11700938Y15153103D01*
X11700938Y14790246D01*
X11700938Y14427389D01*
X11513254Y14427389D01*
X11325569Y14427389D01*
X11325569Y14615073D01*
X11325569Y14802758D01*
X10950199Y14802758D01*
X10574830Y14802758D01*
X10574830Y14977930D01*
X10574830Y15153103D01*
X10762515Y15153103D01*
X10950199Y15153103D01*
X10950199Y15528472D01*
X10950199Y15903842D01*
X10762515Y15903842D01*
X10574830Y15903842D01*
X10574830Y16091526D01*
X10574830Y16279211D01*
X10387145Y16279211D01*
X10199461Y16279211D01*
X10199461Y16091526D01*
X10199461Y15903842D01*
X10011776Y15903842D01*
X9824091Y15903842D01*
X9824091Y16091526D01*
X9824091Y16279211D01*
X9648919Y16279211D01*
X9473746Y16279211D01*
X9473746Y16466896D01*
X10574830Y16466896D01*
X10574830Y16279211D01*
X10762515Y16279211D01*
X10950199Y16279211D01*
X11325569Y16279211D01*
X11325569Y15903842D01*
X11513254Y15903842D01*
X11700938Y15903842D01*
X11700938Y16279211D01*
X12051283Y16279211D01*
X12051283Y16091526D01*
X12051283Y15903842D01*
X12238968Y15903842D01*
X12426653Y15903842D01*
X12426653Y16091526D01*
X12426653Y16279211D01*
X12238968Y16279211D01*
X12051283Y16279211D01*
X11700938Y16279211D01*
X11700938Y16654581D01*
X11513254Y16654581D01*
X11325569Y16654581D01*
X11325569Y16466896D01*
X11325569Y16279211D01*
X10950199Y16279211D01*
X10950199Y16466896D01*
X10950199Y16654581D01*
X10762515Y16654581D01*
X10574830Y16654581D01*
X10574830Y16466896D01*
X9473746Y16466896D01*
X9473746Y16654581D01*
X9286062Y16654581D01*
X9098377Y16654581D01*
X9098377Y16279211D01*
X9098377Y15903842D01*
X9461234Y15903842D01*
X9824091Y15903842D01*
X9824091Y15716157D01*
X9824091Y15528472D01*
X9648919Y15528472D01*
X9473746Y15528472D01*
X9473746Y15353300D01*
X9473746Y15340788D01*
X9473746Y15153103D01*
X9286062Y15153103D01*
X9098377Y15153103D01*
X8723007Y15153103D01*
X8723007Y15353300D01*
X8723007Y16654581D01*
X7421727Y16654581D01*
X6120446Y16654581D01*
X5745076Y16654581D01*
X5745076Y17004925D01*
X10750002Y17004925D01*
X15754928Y17004925D01*
X15754928Y15353300D01*
X15754928Y13676650D01*
G37*
D13*
%TO.C,J5*%
X9090002Y18669999D02*
X9090002Y21329999D01*
X14230002Y21329999D02*
X9090002Y21329999D01*
X14230002Y18669999D02*
X9090002Y18669999D01*
X14230002Y18669999D02*
X14230002Y21329999D01*
X16830002Y21329999D02*
X15500002Y21329999D01*
X16830002Y19999999D02*
X16830002Y21329999D01*
%TO.C,J7*%
X9090002Y1999999D02*
X9090002Y669999D01*
X9090002Y669999D02*
X10420002Y669999D01*
X11690002Y3329999D02*
X11690002Y669999D01*
X11690002Y3329999D02*
X14290002Y3329999D01*
X11690002Y669999D02*
X14290002Y669999D01*
X14290002Y3329999D02*
X14290002Y669999D01*
%TD*%
%LPC*%
D14*
%TO.C,J3*%
X27749999Y1800000D03*
D15*
X27749999Y4340000D03*
X27749999Y6880000D03*
X27749999Y9420000D03*
X27749999Y11960000D03*
X27749999Y14500000D03*
%TD*%
D16*
%TO.C,REF\u002A\u002A*%
X84749999Y11250000D03*
%TD*%
D17*
%TO.C,mouse-bite-3mm-slot*%
X20750000Y9738000D03*
X23750000Y9738000D03*
X23750000Y10488000D03*
X20750000Y10500000D03*
X20750000Y11250000D03*
X23750000Y11250000D03*
X20750000Y12000000D03*
X23750000Y12000000D03*
X20750000Y12774000D03*
X23750000Y12774000D03*
%TD*%
D14*
%TO.C,J2*%
X30289999Y19580000D03*
D15*
X27749999Y19580000D03*
%TD*%
D14*
%TO.C,J6*%
X76669999Y2000000D03*
D15*
X79209999Y2000000D03*
%TD*%
D14*
%TO.C,J4*%
X81749999Y20000000D03*
D15*
X79209999Y20000000D03*
X76669999Y20000000D03*
%TD*%
D18*
%TO.C,J1*%
X84275999Y7000000D03*
X84275999Y15500000D03*
%TD*%
D14*
%TO.C,J5*%
X15500002Y19999999D03*
D15*
X12960002Y19999999D03*
X10420002Y19999999D03*
%TD*%
D14*
%TO.C,J7*%
X10420002Y1999999D03*
D15*
X12960002Y1999999D03*
%TD*%
%LPD*%
M02*
