%TF.GenerationSoftware,KiCad,Pcbnew,10.0.4-10.0.4~ubuntu22.04.1*%
%TF.CreationDate,2026-09-12T00:22:47+02:00*%
%TF.ProjectId,PMOD2VGA,504d4f44-3256-4474-912e-6b696361645f,rev?*%
%TF.SameCoordinates,PX8c6db50PY50d2eb0*%
%TF.FileFunction,Drillmap*%
%TF.FilePolarity,Positive*%
%FSLAX45Y45*%
G04 Gerber Fmt 4.5, Leading zero omitted, Abs format (unit mm)*
G04 Created by KiCad (PCBNEW 10.0.4-10.0.4~ubuntu22.04.1) date 2026-09-12 00:22:47*
%MOMM*%
%LPD*%
G01*
G04 APERTURE LIST*
%ADD10C,0.100000*%
%ADD11C,0.200000*%
%ADD12C,0.320000*%
G04 APERTURE END LIST*
D10*
X19350000Y-6850000D02*
G75*
G02*
X19450000Y-6950000I0J-100000D01*
G01*
X19450000Y-8375000D02*
G75*
G02*
X19350000Y-8475000I-100000J0D01*
G01*
X14825000Y-8475000D02*
G75*
G02*
X14725000Y-8375000I0J100000D01*
G01*
X19450000Y-6950000D02*
X19450000Y-8375000D01*
X14725000Y-6950000D02*
G75*
G02*
X14825000Y-6850000I100000J0D01*
G01*
X14825000Y-6850000D02*
X19350000Y-6850000D01*
X14725000Y-8375000D02*
X14725000Y-6950000D01*
X19350000Y-8475000D02*
X14825000Y-8475000D01*
D11*
D10*
X16200000Y-8325000D02*
X16250000Y-8375000D01*
X16250000Y-8325000D02*
X16200000Y-8375000D01*
X16475000Y-7875000D02*
X16525000Y-7925000D01*
X16525000Y-7875000D02*
X16475000Y-7925000D01*
X16500000Y-8325000D02*
X16550000Y-8375000D01*
X16550000Y-8325000D02*
X16500000Y-8375000D01*
X16675000Y-7875000D02*
X16725000Y-7925000D01*
X16725000Y-7875000D02*
X16675000Y-7925000D01*
X16775000Y-8325000D02*
X16825000Y-8375000D01*
X16825000Y-8325000D02*
X16775000Y-8375000D01*
X16875000Y-7875000D02*
X16925000Y-7925000D01*
X16925000Y-7875000D02*
X16875000Y-7925000D01*
X17025000Y-8325000D02*
X17075000Y-8375000D01*
X17075000Y-8325000D02*
X17025000Y-8375000D01*
X17075000Y-7875000D02*
X17125000Y-7925000D01*
X17125000Y-7875000D02*
X17075000Y-7925000D01*
X17275000Y-7875000D02*
X17325000Y-7925000D01*
X17325000Y-7875000D02*
X17275000Y-7925000D01*
X17325000Y-8325000D02*
X17375000Y-8375000D01*
X17375000Y-8325000D02*
X17325000Y-8375000D01*
X17600000Y-8325000D02*
X17650000Y-8375000D01*
X17650000Y-8325000D02*
X17600000Y-8375000D01*
X17875000Y-8325000D02*
X17925000Y-8375000D01*
X17925000Y-8325000D02*
X17875000Y-8375000D01*
X18175000Y-8325000D02*
X18225000Y-8375000D01*
X18225000Y-8325000D02*
X18175000Y-8375000D01*
X18450000Y-8325000D02*
X18500000Y-8375000D01*
X18500000Y-8325000D02*
X18450000Y-8375000D01*
X18725000Y-8325000D02*
X18775000Y-8375000D01*
X18775000Y-8325000D02*
X18725000Y-8375000D01*
X19025000Y-8325000D02*
X19075000Y-8375000D01*
X19075000Y-8325000D02*
X19025000Y-8375000D01*
X19300000Y-7875000D02*
X19350000Y-7925000D01*
X19350000Y-7875000D02*
X19300000Y-7925000D01*
X19300000Y-8100000D02*
X19350000Y-8150000D01*
X19350000Y-8100000D02*
X19300000Y-8150000D01*
X19300000Y-8325000D02*
X19350000Y-8375000D01*
X19350000Y-8325000D02*
X19300000Y-8375000D01*
X15175000Y-7021000D02*
G75*
G02*
X15075000Y-7021000I-50000J0D01*
G01*
X15075000Y-7021000D02*
G75*
G02*
X15175000Y-7021000I50000J0D01*
G01*
X15175000Y-7275000D02*
G75*
G02*
X15075000Y-7275000I-50000J0D01*
G01*
X15075000Y-7275000D02*
G75*
G02*
X15175000Y-7275000I50000J0D01*
G01*
X15175000Y-7529000D02*
G75*
G02*
X15075000Y-7529000I-50000J0D01*
G01*
X15075000Y-7529000D02*
G75*
G02*
X15175000Y-7529000I50000J0D01*
G01*
X15175000Y-7783000D02*
G75*
G02*
X15075000Y-7783000I-50000J0D01*
G01*
X15075000Y-7783000D02*
G75*
G02*
X15175000Y-7783000I50000J0D01*
G01*
X15175000Y-8037000D02*
G75*
G02*
X15075000Y-8037000I-50000J0D01*
G01*
X15075000Y-8037000D02*
G75*
G02*
X15175000Y-8037000I50000J0D01*
G01*
X15175000Y-8291000D02*
G75*
G02*
X15075000Y-8291000I-50000J0D01*
G01*
X15075000Y-8291000D02*
G75*
G02*
X15175000Y-8291000I50000J0D01*
G01*
X15429000Y-7021000D02*
G75*
G02*
X15329000Y-7021000I-50000J0D01*
G01*
X15329000Y-7021000D02*
G75*
G02*
X15429000Y-7021000I50000J0D01*
G01*
X15429000Y-7275000D02*
G75*
G02*
X15329000Y-7275000I-50000J0D01*
G01*
X15329000Y-7275000D02*
G75*
G02*
X15429000Y-7275000I50000J0D01*
G01*
X15429000Y-7529000D02*
G75*
G02*
X15329000Y-7529000I-50000J0D01*
G01*
X15329000Y-7529000D02*
G75*
G02*
X15429000Y-7529000I50000J0D01*
G01*
X15429000Y-7783000D02*
G75*
G02*
X15329000Y-7783000I-50000J0D01*
G01*
X15329000Y-7783000D02*
G75*
G02*
X15429000Y-7783000I50000J0D01*
G01*
X15429000Y-8037000D02*
G75*
G02*
X15329000Y-8037000I-50000J0D01*
G01*
X15329000Y-8037000D02*
G75*
G02*
X15429000Y-8037000I50000J0D01*
G01*
X15429000Y-8291000D02*
G75*
G02*
X15329000Y-8291000I-50000J0D01*
G01*
X15329000Y-8291000D02*
G75*
G02*
X15429000Y-8291000I50000J0D01*
G01*
X17360500Y-7398000D02*
G75*
G02*
X17260500Y-7398000I-50000J0D01*
G01*
X17260500Y-7398000D02*
G75*
G02*
X17360500Y-7398000I50000J0D01*
G01*
X17475000Y-7200000D02*
G75*
G02*
X17375000Y-7200000I-50000J0D01*
G01*
X17375000Y-7200000D02*
G75*
G02*
X17475000Y-7200000I50000J0D01*
G01*
X17475000Y-7596000D02*
G75*
G02*
X17375000Y-7596000I-50000J0D01*
G01*
X17375000Y-7596000D02*
G75*
G02*
X17475000Y-7596000I50000J0D01*
G01*
X17589500Y-7398000D02*
G75*
G02*
X17489500Y-7398000I-50000J0D01*
G01*
X17489500Y-7398000D02*
G75*
G02*
X17589500Y-7398000I50000J0D01*
G01*
X17704000Y-7200000D02*
G75*
G02*
X17604000Y-7200000I-50000J0D01*
G01*
X17604000Y-7200000D02*
G75*
G02*
X17704000Y-7200000I50000J0D01*
G01*
X17704000Y-7596000D02*
G75*
G02*
X17604000Y-7596000I-50000J0D01*
G01*
X17604000Y-7596000D02*
G75*
G02*
X17704000Y-7596000I50000J0D01*
G01*
X17818500Y-7398000D02*
G75*
G02*
X17718500Y-7398000I-50000J0D01*
G01*
X17718500Y-7398000D02*
G75*
G02*
X17818500Y-7398000I50000J0D01*
G01*
X17933000Y-7200000D02*
G75*
G02*
X17833000Y-7200000I-50000J0D01*
G01*
X17833000Y-7200000D02*
G75*
G02*
X17933000Y-7200000I50000J0D01*
G01*
X17933000Y-7596000D02*
G75*
G02*
X17833000Y-7596000I-50000J0D01*
G01*
X17833000Y-7596000D02*
G75*
G02*
X17933000Y-7596000I50000J0D01*
G01*
X18047500Y-7398000D02*
G75*
G02*
X17947500Y-7398000I-50000J0D01*
G01*
X17947500Y-7398000D02*
G75*
G02*
X18047500Y-7398000I50000J0D01*
G01*
X18162000Y-7200000D02*
G75*
G02*
X18062000Y-7200000I-50000J0D01*
G01*
X18062000Y-7200000D02*
G75*
G02*
X18162000Y-7200000I50000J0D01*
G01*
X18162000Y-7596000D02*
G75*
G02*
X18062000Y-7596000I-50000J0D01*
G01*
X18062000Y-7596000D02*
G75*
G02*
X18162000Y-7596000I50000J0D01*
G01*
X18276500Y-7398000D02*
G75*
G02*
X18176500Y-7398000I-50000J0D01*
G01*
X18176500Y-7398000D02*
G75*
G02*
X18276500Y-7398000I50000J0D01*
G01*
X18391000Y-7200000D02*
G75*
G02*
X18291000Y-7200000I-50000J0D01*
G01*
X18291000Y-7200000D02*
G75*
G02*
X18391000Y-7200000I50000J0D01*
G01*
X18391000Y-7596000D02*
G75*
G02*
X18291000Y-7596000I-50000J0D01*
G01*
X18291000Y-7596000D02*
G75*
G02*
X18391000Y-7596000I50000J0D01*
G01*
D12*
X16606500Y-7231000D02*
X16606500Y-7551000D01*
X16446500Y-7391000D02*
X16766500Y-7391000D01*
X19106500Y-7231000D02*
X19106500Y-7551000D01*
X18946500Y-7391000D02*
X19266500Y-7391000D01*
D11*
X14980777Y-8791484D02*
X14980777Y-8591484D01*
X14980777Y-8591484D02*
X15028396Y-8591484D01*
X15028396Y-8591484D02*
X15056967Y-8601008D01*
X15056967Y-8601008D02*
X15076015Y-8620055D01*
X15076015Y-8620055D02*
X15085539Y-8639103D01*
X15085539Y-8639103D02*
X15095062Y-8677198D01*
X15095062Y-8677198D02*
X15095062Y-8705770D01*
X15095062Y-8705770D02*
X15085539Y-8743865D01*
X15085539Y-8743865D02*
X15076015Y-8762912D01*
X15076015Y-8762912D02*
X15056967Y-8781960D01*
X15056967Y-8781960D02*
X15028396Y-8791484D01*
X15028396Y-8791484D02*
X14980777Y-8791484D01*
X15180777Y-8791484D02*
X15180777Y-8658150D01*
X15180777Y-8696246D02*
X15190301Y-8677198D01*
X15190301Y-8677198D02*
X15199824Y-8667674D01*
X15199824Y-8667674D02*
X15218872Y-8658150D01*
X15218872Y-8658150D02*
X15237920Y-8658150D01*
X15304586Y-8791484D02*
X15304586Y-8658150D01*
X15304586Y-8591484D02*
X15295062Y-8601008D01*
X15295062Y-8601008D02*
X15304586Y-8610531D01*
X15304586Y-8610531D02*
X15314110Y-8601008D01*
X15314110Y-8601008D02*
X15304586Y-8591484D01*
X15304586Y-8591484D02*
X15304586Y-8610531D01*
X15428396Y-8791484D02*
X15409348Y-8781960D01*
X15409348Y-8781960D02*
X15399824Y-8762912D01*
X15399824Y-8762912D02*
X15399824Y-8591484D01*
X15533158Y-8791484D02*
X15514110Y-8781960D01*
X15514110Y-8781960D02*
X15504586Y-8762912D01*
X15504586Y-8762912D02*
X15504586Y-8591484D01*
X15761729Y-8791484D02*
X15761729Y-8591484D01*
X15761729Y-8591484D02*
X15828396Y-8734341D01*
X15828396Y-8734341D02*
X15895062Y-8591484D01*
X15895062Y-8591484D02*
X15895062Y-8791484D01*
X16076015Y-8791484D02*
X16076015Y-8686722D01*
X16076015Y-8686722D02*
X16066491Y-8667674D01*
X16066491Y-8667674D02*
X16047443Y-8658150D01*
X16047443Y-8658150D02*
X16009348Y-8658150D01*
X16009348Y-8658150D02*
X15990301Y-8667674D01*
X16076015Y-8781960D02*
X16056967Y-8791484D01*
X16056967Y-8791484D02*
X16009348Y-8791484D01*
X16009348Y-8791484D02*
X15990301Y-8781960D01*
X15990301Y-8781960D02*
X15980777Y-8762912D01*
X15980777Y-8762912D02*
X15980777Y-8743865D01*
X15980777Y-8743865D02*
X15990301Y-8724817D01*
X15990301Y-8724817D02*
X16009348Y-8715293D01*
X16009348Y-8715293D02*
X16056967Y-8715293D01*
X16056967Y-8715293D02*
X16076015Y-8705770D01*
X16171253Y-8658150D02*
X16171253Y-8858150D01*
X16171253Y-8667674D02*
X16190301Y-8658150D01*
X16190301Y-8658150D02*
X16228396Y-8658150D01*
X16228396Y-8658150D02*
X16247443Y-8667674D01*
X16247443Y-8667674D02*
X16256967Y-8677198D01*
X16256967Y-8677198D02*
X16266491Y-8696246D01*
X16266491Y-8696246D02*
X16266491Y-8753389D01*
X16266491Y-8753389D02*
X16256967Y-8772436D01*
X16256967Y-8772436D02*
X16247443Y-8781960D01*
X16247443Y-8781960D02*
X16228396Y-8791484D01*
X16228396Y-8791484D02*
X16190301Y-8791484D01*
X16190301Y-8791484D02*
X16171253Y-8781960D01*
X16352205Y-8772436D02*
X16361729Y-8781960D01*
X16361729Y-8781960D02*
X16352205Y-8791484D01*
X16352205Y-8791484D02*
X16342682Y-8781960D01*
X16342682Y-8781960D02*
X16352205Y-8772436D01*
X16352205Y-8772436D02*
X16352205Y-8791484D01*
X16352205Y-8667674D02*
X16361729Y-8677198D01*
X16361729Y-8677198D02*
X16352205Y-8686722D01*
X16352205Y-8686722D02*
X16342682Y-8677198D01*
X16342682Y-8677198D02*
X16352205Y-8667674D01*
X16352205Y-8667674D02*
X16352205Y-8686722D01*
D10*
X14670000Y-9095000D02*
X14720000Y-9145000D01*
X14720000Y-9095000D02*
X14670000Y-9145000D01*
D11*
X15018872Y-9011484D02*
X15037920Y-9011484D01*
X15037920Y-9011484D02*
X15056967Y-9021008D01*
X15056967Y-9021008D02*
X15066491Y-9030531D01*
X15066491Y-9030531D02*
X15076015Y-9049579D01*
X15076015Y-9049579D02*
X15085539Y-9087674D01*
X15085539Y-9087674D02*
X15085539Y-9135293D01*
X15085539Y-9135293D02*
X15076015Y-9173389D01*
X15076015Y-9173389D02*
X15066491Y-9192436D01*
X15066491Y-9192436D02*
X15056967Y-9201960D01*
X15056967Y-9201960D02*
X15037920Y-9211484D01*
X15037920Y-9211484D02*
X15018872Y-9211484D01*
X15018872Y-9211484D02*
X14999824Y-9201960D01*
X14999824Y-9201960D02*
X14990301Y-9192436D01*
X14990301Y-9192436D02*
X14980777Y-9173389D01*
X14980777Y-9173389D02*
X14971253Y-9135293D01*
X14971253Y-9135293D02*
X14971253Y-9087674D01*
X14971253Y-9087674D02*
X14980777Y-9049579D01*
X14980777Y-9049579D02*
X14990301Y-9030531D01*
X14990301Y-9030531D02*
X14999824Y-9021008D01*
X14999824Y-9021008D02*
X15018872Y-9011484D01*
X15180777Y-9201960D02*
X15180777Y-9211484D01*
X15180777Y-9211484D02*
X15171253Y-9230531D01*
X15171253Y-9230531D02*
X15161729Y-9240055D01*
X15361729Y-9011484D02*
X15266491Y-9011484D01*
X15266491Y-9011484D02*
X15256967Y-9106722D01*
X15256967Y-9106722D02*
X15266491Y-9097198D01*
X15266491Y-9097198D02*
X15285539Y-9087674D01*
X15285539Y-9087674D02*
X15333158Y-9087674D01*
X15333158Y-9087674D02*
X15352205Y-9097198D01*
X15352205Y-9097198D02*
X15361729Y-9106722D01*
X15361729Y-9106722D02*
X15371253Y-9125770D01*
X15371253Y-9125770D02*
X15371253Y-9173389D01*
X15371253Y-9173389D02*
X15361729Y-9192436D01*
X15361729Y-9192436D02*
X15352205Y-9201960D01*
X15352205Y-9201960D02*
X15333158Y-9211484D01*
X15333158Y-9211484D02*
X15285539Y-9211484D01*
X15285539Y-9211484D02*
X15266491Y-9201960D01*
X15266491Y-9201960D02*
X15256967Y-9192436D01*
X15495062Y-9011484D02*
X15514110Y-9011484D01*
X15514110Y-9011484D02*
X15533158Y-9021008D01*
X15533158Y-9021008D02*
X15542682Y-9030531D01*
X15542682Y-9030531D02*
X15552205Y-9049579D01*
X15552205Y-9049579D02*
X15561729Y-9087674D01*
X15561729Y-9087674D02*
X15561729Y-9135293D01*
X15561729Y-9135293D02*
X15552205Y-9173389D01*
X15552205Y-9173389D02*
X15542682Y-9192436D01*
X15542682Y-9192436D02*
X15533158Y-9201960D01*
X15533158Y-9201960D02*
X15514110Y-9211484D01*
X15514110Y-9211484D02*
X15495062Y-9211484D01*
X15495062Y-9211484D02*
X15476015Y-9201960D01*
X15476015Y-9201960D02*
X15466491Y-9192436D01*
X15466491Y-9192436D02*
X15456967Y-9173389D01*
X15456967Y-9173389D02*
X15447443Y-9135293D01*
X15447443Y-9135293D02*
X15447443Y-9087674D01*
X15447443Y-9087674D02*
X15456967Y-9049579D01*
X15456967Y-9049579D02*
X15466491Y-9030531D01*
X15466491Y-9030531D02*
X15476015Y-9021008D01*
X15476015Y-9021008D02*
X15495062Y-9011484D01*
X15685539Y-9011484D02*
X15704586Y-9011484D01*
X15704586Y-9011484D02*
X15723634Y-9021008D01*
X15723634Y-9021008D02*
X15733158Y-9030531D01*
X15733158Y-9030531D02*
X15742682Y-9049579D01*
X15742682Y-9049579D02*
X15752205Y-9087674D01*
X15752205Y-9087674D02*
X15752205Y-9135293D01*
X15752205Y-9135293D02*
X15742682Y-9173389D01*
X15742682Y-9173389D02*
X15733158Y-9192436D01*
X15733158Y-9192436D02*
X15723634Y-9201960D01*
X15723634Y-9201960D02*
X15704586Y-9211484D01*
X15704586Y-9211484D02*
X15685539Y-9211484D01*
X15685539Y-9211484D02*
X15666491Y-9201960D01*
X15666491Y-9201960D02*
X15656967Y-9192436D01*
X15656967Y-9192436D02*
X15647443Y-9173389D01*
X15647443Y-9173389D02*
X15637920Y-9135293D01*
X15637920Y-9135293D02*
X15637920Y-9087674D01*
X15637920Y-9087674D02*
X15647443Y-9049579D01*
X15647443Y-9049579D02*
X15656967Y-9030531D01*
X15656967Y-9030531D02*
X15666491Y-9021008D01*
X15666491Y-9021008D02*
X15685539Y-9011484D01*
X15837920Y-9211484D02*
X15837920Y-9078150D01*
X15837920Y-9097198D02*
X15847443Y-9087674D01*
X15847443Y-9087674D02*
X15866491Y-9078150D01*
X15866491Y-9078150D02*
X15895063Y-9078150D01*
X15895063Y-9078150D02*
X15914110Y-9087674D01*
X15914110Y-9087674D02*
X15923634Y-9106722D01*
X15923634Y-9106722D02*
X15923634Y-9211484D01*
X15923634Y-9106722D02*
X15933158Y-9087674D01*
X15933158Y-9087674D02*
X15952205Y-9078150D01*
X15952205Y-9078150D02*
X15980777Y-9078150D01*
X15980777Y-9078150D02*
X15999824Y-9087674D01*
X15999824Y-9087674D02*
X16009348Y-9106722D01*
X16009348Y-9106722D02*
X16009348Y-9211484D01*
X16104586Y-9211484D02*
X16104586Y-9078150D01*
X16104586Y-9097198D02*
X16114110Y-9087674D01*
X16114110Y-9087674D02*
X16133158Y-9078150D01*
X16133158Y-9078150D02*
X16161729Y-9078150D01*
X16161729Y-9078150D02*
X16180777Y-9087674D01*
X16180777Y-9087674D02*
X16190301Y-9106722D01*
X16190301Y-9106722D02*
X16190301Y-9211484D01*
X16190301Y-9106722D02*
X16199824Y-9087674D01*
X16199824Y-9087674D02*
X16218872Y-9078150D01*
X16218872Y-9078150D02*
X16247443Y-9078150D01*
X16247443Y-9078150D02*
X16266491Y-9087674D01*
X16266491Y-9087674D02*
X16276015Y-9106722D01*
X16276015Y-9106722D02*
X16276015Y-9211484D01*
X16666491Y-9001960D02*
X16495063Y-9259103D01*
X16923634Y-9011484D02*
X16942682Y-9011484D01*
X16942682Y-9011484D02*
X16961729Y-9021008D01*
X16961729Y-9021008D02*
X16971253Y-9030531D01*
X16971253Y-9030531D02*
X16980777Y-9049579D01*
X16980777Y-9049579D02*
X16990301Y-9087674D01*
X16990301Y-9087674D02*
X16990301Y-9135293D01*
X16990301Y-9135293D02*
X16980777Y-9173389D01*
X16980777Y-9173389D02*
X16971253Y-9192436D01*
X16971253Y-9192436D02*
X16961729Y-9201960D01*
X16961729Y-9201960D02*
X16942682Y-9211484D01*
X16942682Y-9211484D02*
X16923634Y-9211484D01*
X16923634Y-9211484D02*
X16904587Y-9201960D01*
X16904587Y-9201960D02*
X16895063Y-9192436D01*
X16895063Y-9192436D02*
X16885539Y-9173389D01*
X16885539Y-9173389D02*
X16876015Y-9135293D01*
X16876015Y-9135293D02*
X16876015Y-9087674D01*
X16876015Y-9087674D02*
X16885539Y-9049579D01*
X16885539Y-9049579D02*
X16895063Y-9030531D01*
X16895063Y-9030531D02*
X16904587Y-9021008D01*
X16904587Y-9021008D02*
X16923634Y-9011484D01*
X17085539Y-9201960D02*
X17085539Y-9211484D01*
X17085539Y-9211484D02*
X17076015Y-9230531D01*
X17076015Y-9230531D02*
X17066491Y-9240055D01*
X17209348Y-9011484D02*
X17228396Y-9011484D01*
X17228396Y-9011484D02*
X17247444Y-9021008D01*
X17247444Y-9021008D02*
X17256968Y-9030531D01*
X17256968Y-9030531D02*
X17266491Y-9049579D01*
X17266491Y-9049579D02*
X17276015Y-9087674D01*
X17276015Y-9087674D02*
X17276015Y-9135293D01*
X17276015Y-9135293D02*
X17266491Y-9173389D01*
X17266491Y-9173389D02*
X17256968Y-9192436D01*
X17256968Y-9192436D02*
X17247444Y-9201960D01*
X17247444Y-9201960D02*
X17228396Y-9211484D01*
X17228396Y-9211484D02*
X17209348Y-9211484D01*
X17209348Y-9211484D02*
X17190301Y-9201960D01*
X17190301Y-9201960D02*
X17180777Y-9192436D01*
X17180777Y-9192436D02*
X17171253Y-9173389D01*
X17171253Y-9173389D02*
X17161729Y-9135293D01*
X17161729Y-9135293D02*
X17161729Y-9087674D01*
X17161729Y-9087674D02*
X17171253Y-9049579D01*
X17171253Y-9049579D02*
X17180777Y-9030531D01*
X17180777Y-9030531D02*
X17190301Y-9021008D01*
X17190301Y-9021008D02*
X17209348Y-9011484D01*
X17466491Y-9211484D02*
X17352206Y-9211484D01*
X17409348Y-9211484D02*
X17409348Y-9011484D01*
X17409348Y-9011484D02*
X17390301Y-9040055D01*
X17390301Y-9040055D02*
X17371253Y-9059103D01*
X17371253Y-9059103D02*
X17352206Y-9068627D01*
X17561729Y-9211484D02*
X17599825Y-9211484D01*
X17599825Y-9211484D02*
X17618872Y-9201960D01*
X17618872Y-9201960D02*
X17628396Y-9192436D01*
X17628396Y-9192436D02*
X17647444Y-9163865D01*
X17647444Y-9163865D02*
X17656968Y-9125770D01*
X17656968Y-9125770D02*
X17656968Y-9049579D01*
X17656968Y-9049579D02*
X17647444Y-9030531D01*
X17647444Y-9030531D02*
X17637920Y-9021008D01*
X17637920Y-9021008D02*
X17618872Y-9011484D01*
X17618872Y-9011484D02*
X17580777Y-9011484D01*
X17580777Y-9011484D02*
X17561729Y-9021008D01*
X17561729Y-9021008D02*
X17552206Y-9030531D01*
X17552206Y-9030531D02*
X17542682Y-9049579D01*
X17542682Y-9049579D02*
X17542682Y-9097198D01*
X17542682Y-9097198D02*
X17552206Y-9116246D01*
X17552206Y-9116246D02*
X17561729Y-9125770D01*
X17561729Y-9125770D02*
X17580777Y-9135293D01*
X17580777Y-9135293D02*
X17618872Y-9135293D01*
X17618872Y-9135293D02*
X17637920Y-9125770D01*
X17637920Y-9125770D02*
X17647444Y-9116246D01*
X17647444Y-9116246D02*
X17656968Y-9097198D01*
X17723634Y-9011484D02*
X17856968Y-9011484D01*
X17856968Y-9011484D02*
X17771253Y-9211484D01*
X17923634Y-9011484D02*
X17923634Y-9049579D01*
X17999825Y-9011484D02*
X17999825Y-9049579D01*
X18295063Y-9287674D02*
X18285539Y-9278150D01*
X18285539Y-9278150D02*
X18266491Y-9249579D01*
X18266491Y-9249579D02*
X18256968Y-9230531D01*
X18256968Y-9230531D02*
X18247444Y-9201960D01*
X18247444Y-9201960D02*
X18237920Y-9154341D01*
X18237920Y-9154341D02*
X18237920Y-9116246D01*
X18237920Y-9116246D02*
X18247444Y-9068627D01*
X18247444Y-9068627D02*
X18256968Y-9040055D01*
X18256968Y-9040055D02*
X18266491Y-9021008D01*
X18266491Y-9021008D02*
X18285539Y-8992436D01*
X18285539Y-8992436D02*
X18295063Y-8982912D01*
X18476015Y-9211484D02*
X18361730Y-9211484D01*
X18418872Y-9211484D02*
X18418872Y-9011484D01*
X18418872Y-9011484D02*
X18399825Y-9040055D01*
X18399825Y-9040055D02*
X18380777Y-9059103D01*
X18380777Y-9059103D02*
X18361730Y-9068627D01*
X18571253Y-9211484D02*
X18609349Y-9211484D01*
X18609349Y-9211484D02*
X18628396Y-9201960D01*
X18628396Y-9201960D02*
X18637920Y-9192436D01*
X18637920Y-9192436D02*
X18656968Y-9163865D01*
X18656968Y-9163865D02*
X18666491Y-9125770D01*
X18666491Y-9125770D02*
X18666491Y-9049579D01*
X18666491Y-9049579D02*
X18656968Y-9030531D01*
X18656968Y-9030531D02*
X18647444Y-9021008D01*
X18647444Y-9021008D02*
X18628396Y-9011484D01*
X18628396Y-9011484D02*
X18590301Y-9011484D01*
X18590301Y-9011484D02*
X18571253Y-9021008D01*
X18571253Y-9021008D02*
X18561730Y-9030531D01*
X18561730Y-9030531D02*
X18552206Y-9049579D01*
X18552206Y-9049579D02*
X18552206Y-9097198D01*
X18552206Y-9097198D02*
X18561730Y-9116246D01*
X18561730Y-9116246D02*
X18571253Y-9125770D01*
X18571253Y-9125770D02*
X18590301Y-9135293D01*
X18590301Y-9135293D02*
X18628396Y-9135293D01*
X18628396Y-9135293D02*
X18647444Y-9125770D01*
X18647444Y-9125770D02*
X18656968Y-9116246D01*
X18656968Y-9116246D02*
X18666491Y-9097198D01*
X18904587Y-9211484D02*
X18904587Y-9011484D01*
X18990301Y-9211484D02*
X18990301Y-9106722D01*
X18990301Y-9106722D02*
X18980777Y-9087674D01*
X18980777Y-9087674D02*
X18961730Y-9078150D01*
X18961730Y-9078150D02*
X18933158Y-9078150D01*
X18933158Y-9078150D02*
X18914111Y-9087674D01*
X18914111Y-9087674D02*
X18904587Y-9097198D01*
X19114111Y-9211484D02*
X19095063Y-9201960D01*
X19095063Y-9201960D02*
X19085539Y-9192436D01*
X19085539Y-9192436D02*
X19076015Y-9173389D01*
X19076015Y-9173389D02*
X19076015Y-9116246D01*
X19076015Y-9116246D02*
X19085539Y-9097198D01*
X19085539Y-9097198D02*
X19095063Y-9087674D01*
X19095063Y-9087674D02*
X19114111Y-9078150D01*
X19114111Y-9078150D02*
X19142682Y-9078150D01*
X19142682Y-9078150D02*
X19161730Y-9087674D01*
X19161730Y-9087674D02*
X19171253Y-9097198D01*
X19171253Y-9097198D02*
X19180777Y-9116246D01*
X19180777Y-9116246D02*
X19180777Y-9173389D01*
X19180777Y-9173389D02*
X19171253Y-9192436D01*
X19171253Y-9192436D02*
X19161730Y-9201960D01*
X19161730Y-9201960D02*
X19142682Y-9211484D01*
X19142682Y-9211484D02*
X19114111Y-9211484D01*
X19295063Y-9211484D02*
X19276015Y-9201960D01*
X19276015Y-9201960D02*
X19266492Y-9182912D01*
X19266492Y-9182912D02*
X19266492Y-9011484D01*
X19447444Y-9201960D02*
X19428396Y-9211484D01*
X19428396Y-9211484D02*
X19390301Y-9211484D01*
X19390301Y-9211484D02*
X19371253Y-9201960D01*
X19371253Y-9201960D02*
X19361730Y-9182912D01*
X19361730Y-9182912D02*
X19361730Y-9106722D01*
X19361730Y-9106722D02*
X19371253Y-9087674D01*
X19371253Y-9087674D02*
X19390301Y-9078150D01*
X19390301Y-9078150D02*
X19428396Y-9078150D01*
X19428396Y-9078150D02*
X19447444Y-9087674D01*
X19447444Y-9087674D02*
X19456968Y-9106722D01*
X19456968Y-9106722D02*
X19456968Y-9125770D01*
X19456968Y-9125770D02*
X19361730Y-9144817D01*
X19533158Y-9201960D02*
X19552206Y-9211484D01*
X19552206Y-9211484D02*
X19590301Y-9211484D01*
X19590301Y-9211484D02*
X19609349Y-9201960D01*
X19609349Y-9201960D02*
X19618873Y-9182912D01*
X19618873Y-9182912D02*
X19618873Y-9173389D01*
X19618873Y-9173389D02*
X19609349Y-9154341D01*
X19609349Y-9154341D02*
X19590301Y-9144817D01*
X19590301Y-9144817D02*
X19561730Y-9144817D01*
X19561730Y-9144817D02*
X19542682Y-9135293D01*
X19542682Y-9135293D02*
X19533158Y-9116246D01*
X19533158Y-9116246D02*
X19533158Y-9106722D01*
X19533158Y-9106722D02*
X19542682Y-9087674D01*
X19542682Y-9087674D02*
X19561730Y-9078150D01*
X19561730Y-9078150D02*
X19590301Y-9078150D01*
X19590301Y-9078150D02*
X19609349Y-9087674D01*
X19685539Y-9287674D02*
X19695063Y-9278150D01*
X19695063Y-9278150D02*
X19714111Y-9249579D01*
X19714111Y-9249579D02*
X19723634Y-9230531D01*
X19723634Y-9230531D02*
X19733158Y-9201960D01*
X19733158Y-9201960D02*
X19742682Y-9154341D01*
X19742682Y-9154341D02*
X19742682Y-9116246D01*
X19742682Y-9116246D02*
X19733158Y-9068627D01*
X19733158Y-9068627D02*
X19723634Y-9040055D01*
X19723634Y-9040055D02*
X19714111Y-9021008D01*
X19714111Y-9021008D02*
X19695063Y-8992436D01*
X19695063Y-8992436D02*
X19685539Y-8982912D01*
D10*
X14720000Y-9384000D02*
G75*
G02*
X14620000Y-9384000I-50000J0D01*
G01*
X14620000Y-9384000D02*
G75*
G02*
X14720000Y-9384000I50000J0D01*
G01*
D11*
X15085539Y-9475484D02*
X14971253Y-9475484D01*
X15028396Y-9475484D02*
X15028396Y-9275484D01*
X15028396Y-9275484D02*
X15009348Y-9304055D01*
X15009348Y-9304055D02*
X14990301Y-9323103D01*
X14990301Y-9323103D02*
X14971253Y-9332627D01*
X15180777Y-9465960D02*
X15180777Y-9475484D01*
X15180777Y-9475484D02*
X15171253Y-9494531D01*
X15171253Y-9494531D02*
X15161729Y-9504055D01*
X15304586Y-9275484D02*
X15323634Y-9275484D01*
X15323634Y-9275484D02*
X15342682Y-9285008D01*
X15342682Y-9285008D02*
X15352205Y-9294531D01*
X15352205Y-9294531D02*
X15361729Y-9313579D01*
X15361729Y-9313579D02*
X15371253Y-9351674D01*
X15371253Y-9351674D02*
X15371253Y-9399293D01*
X15371253Y-9399293D02*
X15361729Y-9437389D01*
X15361729Y-9437389D02*
X15352205Y-9456436D01*
X15352205Y-9456436D02*
X15342682Y-9465960D01*
X15342682Y-9465960D02*
X15323634Y-9475484D01*
X15323634Y-9475484D02*
X15304586Y-9475484D01*
X15304586Y-9475484D02*
X15285539Y-9465960D01*
X15285539Y-9465960D02*
X15276015Y-9456436D01*
X15276015Y-9456436D02*
X15266491Y-9437389D01*
X15266491Y-9437389D02*
X15256967Y-9399293D01*
X15256967Y-9399293D02*
X15256967Y-9351674D01*
X15256967Y-9351674D02*
X15266491Y-9313579D01*
X15266491Y-9313579D02*
X15276015Y-9294531D01*
X15276015Y-9294531D02*
X15285539Y-9285008D01*
X15285539Y-9285008D02*
X15304586Y-9275484D01*
X15495062Y-9275484D02*
X15514110Y-9275484D01*
X15514110Y-9275484D02*
X15533158Y-9285008D01*
X15533158Y-9285008D02*
X15542682Y-9294531D01*
X15542682Y-9294531D02*
X15552205Y-9313579D01*
X15552205Y-9313579D02*
X15561729Y-9351674D01*
X15561729Y-9351674D02*
X15561729Y-9399293D01*
X15561729Y-9399293D02*
X15552205Y-9437389D01*
X15552205Y-9437389D02*
X15542682Y-9456436D01*
X15542682Y-9456436D02*
X15533158Y-9465960D01*
X15533158Y-9465960D02*
X15514110Y-9475484D01*
X15514110Y-9475484D02*
X15495062Y-9475484D01*
X15495062Y-9475484D02*
X15476015Y-9465960D01*
X15476015Y-9465960D02*
X15466491Y-9456436D01*
X15466491Y-9456436D02*
X15456967Y-9437389D01*
X15456967Y-9437389D02*
X15447443Y-9399293D01*
X15447443Y-9399293D02*
X15447443Y-9351674D01*
X15447443Y-9351674D02*
X15456967Y-9313579D01*
X15456967Y-9313579D02*
X15466491Y-9294531D01*
X15466491Y-9294531D02*
X15476015Y-9285008D01*
X15476015Y-9285008D02*
X15495062Y-9275484D01*
X15685539Y-9275484D02*
X15704586Y-9275484D01*
X15704586Y-9275484D02*
X15723634Y-9285008D01*
X15723634Y-9285008D02*
X15733158Y-9294531D01*
X15733158Y-9294531D02*
X15742682Y-9313579D01*
X15742682Y-9313579D02*
X15752205Y-9351674D01*
X15752205Y-9351674D02*
X15752205Y-9399293D01*
X15752205Y-9399293D02*
X15742682Y-9437389D01*
X15742682Y-9437389D02*
X15733158Y-9456436D01*
X15733158Y-9456436D02*
X15723634Y-9465960D01*
X15723634Y-9465960D02*
X15704586Y-9475484D01*
X15704586Y-9475484D02*
X15685539Y-9475484D01*
X15685539Y-9475484D02*
X15666491Y-9465960D01*
X15666491Y-9465960D02*
X15656967Y-9456436D01*
X15656967Y-9456436D02*
X15647443Y-9437389D01*
X15647443Y-9437389D02*
X15637920Y-9399293D01*
X15637920Y-9399293D02*
X15637920Y-9351674D01*
X15637920Y-9351674D02*
X15647443Y-9313579D01*
X15647443Y-9313579D02*
X15656967Y-9294531D01*
X15656967Y-9294531D02*
X15666491Y-9285008D01*
X15666491Y-9285008D02*
X15685539Y-9275484D01*
X15837920Y-9475484D02*
X15837920Y-9342150D01*
X15837920Y-9361198D02*
X15847443Y-9351674D01*
X15847443Y-9351674D02*
X15866491Y-9342150D01*
X15866491Y-9342150D02*
X15895063Y-9342150D01*
X15895063Y-9342150D02*
X15914110Y-9351674D01*
X15914110Y-9351674D02*
X15923634Y-9370722D01*
X15923634Y-9370722D02*
X15923634Y-9475484D01*
X15923634Y-9370722D02*
X15933158Y-9351674D01*
X15933158Y-9351674D02*
X15952205Y-9342150D01*
X15952205Y-9342150D02*
X15980777Y-9342150D01*
X15980777Y-9342150D02*
X15999824Y-9351674D01*
X15999824Y-9351674D02*
X16009348Y-9370722D01*
X16009348Y-9370722D02*
X16009348Y-9475484D01*
X16104586Y-9475484D02*
X16104586Y-9342150D01*
X16104586Y-9361198D02*
X16114110Y-9351674D01*
X16114110Y-9351674D02*
X16133158Y-9342150D01*
X16133158Y-9342150D02*
X16161729Y-9342150D01*
X16161729Y-9342150D02*
X16180777Y-9351674D01*
X16180777Y-9351674D02*
X16190301Y-9370722D01*
X16190301Y-9370722D02*
X16190301Y-9475484D01*
X16190301Y-9370722D02*
X16199824Y-9351674D01*
X16199824Y-9351674D02*
X16218872Y-9342150D01*
X16218872Y-9342150D02*
X16247443Y-9342150D01*
X16247443Y-9342150D02*
X16266491Y-9351674D01*
X16266491Y-9351674D02*
X16276015Y-9370722D01*
X16276015Y-9370722D02*
X16276015Y-9475484D01*
X16666491Y-9265960D02*
X16495063Y-9523103D01*
X16923634Y-9275484D02*
X16942682Y-9275484D01*
X16942682Y-9275484D02*
X16961729Y-9285008D01*
X16961729Y-9285008D02*
X16971253Y-9294531D01*
X16971253Y-9294531D02*
X16980777Y-9313579D01*
X16980777Y-9313579D02*
X16990301Y-9351674D01*
X16990301Y-9351674D02*
X16990301Y-9399293D01*
X16990301Y-9399293D02*
X16980777Y-9437389D01*
X16980777Y-9437389D02*
X16971253Y-9456436D01*
X16971253Y-9456436D02*
X16961729Y-9465960D01*
X16961729Y-9465960D02*
X16942682Y-9475484D01*
X16942682Y-9475484D02*
X16923634Y-9475484D01*
X16923634Y-9475484D02*
X16904587Y-9465960D01*
X16904587Y-9465960D02*
X16895063Y-9456436D01*
X16895063Y-9456436D02*
X16885539Y-9437389D01*
X16885539Y-9437389D02*
X16876015Y-9399293D01*
X16876015Y-9399293D02*
X16876015Y-9351674D01*
X16876015Y-9351674D02*
X16885539Y-9313579D01*
X16885539Y-9313579D02*
X16895063Y-9294531D01*
X16895063Y-9294531D02*
X16904587Y-9285008D01*
X16904587Y-9285008D02*
X16923634Y-9275484D01*
X17085539Y-9465960D02*
X17085539Y-9475484D01*
X17085539Y-9475484D02*
X17076015Y-9494531D01*
X17076015Y-9494531D02*
X17066491Y-9504055D01*
X17209348Y-9275484D02*
X17228396Y-9275484D01*
X17228396Y-9275484D02*
X17247444Y-9285008D01*
X17247444Y-9285008D02*
X17256968Y-9294531D01*
X17256968Y-9294531D02*
X17266491Y-9313579D01*
X17266491Y-9313579D02*
X17276015Y-9351674D01*
X17276015Y-9351674D02*
X17276015Y-9399293D01*
X17276015Y-9399293D02*
X17266491Y-9437389D01*
X17266491Y-9437389D02*
X17256968Y-9456436D01*
X17256968Y-9456436D02*
X17247444Y-9465960D01*
X17247444Y-9465960D02*
X17228396Y-9475484D01*
X17228396Y-9475484D02*
X17209348Y-9475484D01*
X17209348Y-9475484D02*
X17190301Y-9465960D01*
X17190301Y-9465960D02*
X17180777Y-9456436D01*
X17180777Y-9456436D02*
X17171253Y-9437389D01*
X17171253Y-9437389D02*
X17161729Y-9399293D01*
X17161729Y-9399293D02*
X17161729Y-9351674D01*
X17161729Y-9351674D02*
X17171253Y-9313579D01*
X17171253Y-9313579D02*
X17180777Y-9294531D01*
X17180777Y-9294531D02*
X17190301Y-9285008D01*
X17190301Y-9285008D02*
X17209348Y-9275484D01*
X17342682Y-9275484D02*
X17466491Y-9275484D01*
X17466491Y-9275484D02*
X17399825Y-9351674D01*
X17399825Y-9351674D02*
X17428396Y-9351674D01*
X17428396Y-9351674D02*
X17447444Y-9361198D01*
X17447444Y-9361198D02*
X17456968Y-9370722D01*
X17456968Y-9370722D02*
X17466491Y-9389770D01*
X17466491Y-9389770D02*
X17466491Y-9437389D01*
X17466491Y-9437389D02*
X17456968Y-9456436D01*
X17456968Y-9456436D02*
X17447444Y-9465960D01*
X17447444Y-9465960D02*
X17428396Y-9475484D01*
X17428396Y-9475484D02*
X17371253Y-9475484D01*
X17371253Y-9475484D02*
X17352206Y-9465960D01*
X17352206Y-9465960D02*
X17342682Y-9456436D01*
X17561729Y-9475484D02*
X17599825Y-9475484D01*
X17599825Y-9475484D02*
X17618872Y-9465960D01*
X17618872Y-9465960D02*
X17628396Y-9456436D01*
X17628396Y-9456436D02*
X17647444Y-9427865D01*
X17647444Y-9427865D02*
X17656968Y-9389770D01*
X17656968Y-9389770D02*
X17656968Y-9313579D01*
X17656968Y-9313579D02*
X17647444Y-9294531D01*
X17647444Y-9294531D02*
X17637920Y-9285008D01*
X17637920Y-9285008D02*
X17618872Y-9275484D01*
X17618872Y-9275484D02*
X17580777Y-9275484D01*
X17580777Y-9275484D02*
X17561729Y-9285008D01*
X17561729Y-9285008D02*
X17552206Y-9294531D01*
X17552206Y-9294531D02*
X17542682Y-9313579D01*
X17542682Y-9313579D02*
X17542682Y-9361198D01*
X17542682Y-9361198D02*
X17552206Y-9380246D01*
X17552206Y-9380246D02*
X17561729Y-9389770D01*
X17561729Y-9389770D02*
X17580777Y-9399293D01*
X17580777Y-9399293D02*
X17618872Y-9399293D01*
X17618872Y-9399293D02*
X17637920Y-9389770D01*
X17637920Y-9389770D02*
X17647444Y-9380246D01*
X17647444Y-9380246D02*
X17656968Y-9361198D01*
X17828396Y-9342150D02*
X17828396Y-9475484D01*
X17780777Y-9265960D02*
X17733158Y-9408817D01*
X17733158Y-9408817D02*
X17856968Y-9408817D01*
X17923634Y-9275484D02*
X17923634Y-9313579D01*
X17999825Y-9275484D02*
X17999825Y-9313579D01*
X18295063Y-9551674D02*
X18285539Y-9542150D01*
X18285539Y-9542150D02*
X18266491Y-9513579D01*
X18266491Y-9513579D02*
X18256968Y-9494531D01*
X18256968Y-9494531D02*
X18247444Y-9465960D01*
X18247444Y-9465960D02*
X18237920Y-9418341D01*
X18237920Y-9418341D02*
X18237920Y-9380246D01*
X18237920Y-9380246D02*
X18247444Y-9332627D01*
X18247444Y-9332627D02*
X18256968Y-9304055D01*
X18256968Y-9304055D02*
X18266491Y-9285008D01*
X18266491Y-9285008D02*
X18285539Y-9256436D01*
X18285539Y-9256436D02*
X18295063Y-9246912D01*
X18361730Y-9294531D02*
X18371253Y-9285008D01*
X18371253Y-9285008D02*
X18390301Y-9275484D01*
X18390301Y-9275484D02*
X18437920Y-9275484D01*
X18437920Y-9275484D02*
X18456968Y-9285008D01*
X18456968Y-9285008D02*
X18466491Y-9294531D01*
X18466491Y-9294531D02*
X18476015Y-9313579D01*
X18476015Y-9313579D02*
X18476015Y-9332627D01*
X18476015Y-9332627D02*
X18466491Y-9361198D01*
X18466491Y-9361198D02*
X18352206Y-9475484D01*
X18352206Y-9475484D02*
X18476015Y-9475484D01*
X18542682Y-9275484D02*
X18676015Y-9275484D01*
X18676015Y-9275484D02*
X18590301Y-9475484D01*
X18904587Y-9475484D02*
X18904587Y-9275484D01*
X18990301Y-9475484D02*
X18990301Y-9370722D01*
X18990301Y-9370722D02*
X18980777Y-9351674D01*
X18980777Y-9351674D02*
X18961730Y-9342150D01*
X18961730Y-9342150D02*
X18933158Y-9342150D01*
X18933158Y-9342150D02*
X18914111Y-9351674D01*
X18914111Y-9351674D02*
X18904587Y-9361198D01*
X19114111Y-9475484D02*
X19095063Y-9465960D01*
X19095063Y-9465960D02*
X19085539Y-9456436D01*
X19085539Y-9456436D02*
X19076015Y-9437389D01*
X19076015Y-9437389D02*
X19076015Y-9380246D01*
X19076015Y-9380246D02*
X19085539Y-9361198D01*
X19085539Y-9361198D02*
X19095063Y-9351674D01*
X19095063Y-9351674D02*
X19114111Y-9342150D01*
X19114111Y-9342150D02*
X19142682Y-9342150D01*
X19142682Y-9342150D02*
X19161730Y-9351674D01*
X19161730Y-9351674D02*
X19171253Y-9361198D01*
X19171253Y-9361198D02*
X19180777Y-9380246D01*
X19180777Y-9380246D02*
X19180777Y-9437389D01*
X19180777Y-9437389D02*
X19171253Y-9456436D01*
X19171253Y-9456436D02*
X19161730Y-9465960D01*
X19161730Y-9465960D02*
X19142682Y-9475484D01*
X19142682Y-9475484D02*
X19114111Y-9475484D01*
X19295063Y-9475484D02*
X19276015Y-9465960D01*
X19276015Y-9465960D02*
X19266492Y-9446912D01*
X19266492Y-9446912D02*
X19266492Y-9275484D01*
X19447444Y-9465960D02*
X19428396Y-9475484D01*
X19428396Y-9475484D02*
X19390301Y-9475484D01*
X19390301Y-9475484D02*
X19371253Y-9465960D01*
X19371253Y-9465960D02*
X19361730Y-9446912D01*
X19361730Y-9446912D02*
X19361730Y-9370722D01*
X19361730Y-9370722D02*
X19371253Y-9351674D01*
X19371253Y-9351674D02*
X19390301Y-9342150D01*
X19390301Y-9342150D02*
X19428396Y-9342150D01*
X19428396Y-9342150D02*
X19447444Y-9351674D01*
X19447444Y-9351674D02*
X19456968Y-9370722D01*
X19456968Y-9370722D02*
X19456968Y-9389770D01*
X19456968Y-9389770D02*
X19361730Y-9408817D01*
X19533158Y-9465960D02*
X19552206Y-9475484D01*
X19552206Y-9475484D02*
X19590301Y-9475484D01*
X19590301Y-9475484D02*
X19609349Y-9465960D01*
X19609349Y-9465960D02*
X19618873Y-9446912D01*
X19618873Y-9446912D02*
X19618873Y-9437389D01*
X19618873Y-9437389D02*
X19609349Y-9418341D01*
X19609349Y-9418341D02*
X19590301Y-9408817D01*
X19590301Y-9408817D02*
X19561730Y-9408817D01*
X19561730Y-9408817D02*
X19542682Y-9399293D01*
X19542682Y-9399293D02*
X19533158Y-9380246D01*
X19533158Y-9380246D02*
X19533158Y-9370722D01*
X19533158Y-9370722D02*
X19542682Y-9351674D01*
X19542682Y-9351674D02*
X19561730Y-9342150D01*
X19561730Y-9342150D02*
X19590301Y-9342150D01*
X19590301Y-9342150D02*
X19609349Y-9351674D01*
X19685539Y-9551674D02*
X19695063Y-9542150D01*
X19695063Y-9542150D02*
X19714111Y-9513579D01*
X19714111Y-9513579D02*
X19723634Y-9494531D01*
X19723634Y-9494531D02*
X19733158Y-9465960D01*
X19733158Y-9465960D02*
X19742682Y-9418341D01*
X19742682Y-9418341D02*
X19742682Y-9380246D01*
X19742682Y-9380246D02*
X19733158Y-9332627D01*
X19733158Y-9332627D02*
X19723634Y-9304055D01*
X19723634Y-9304055D02*
X19714111Y-9285008D01*
X19714111Y-9285008D02*
X19695063Y-9256436D01*
X19695063Y-9256436D02*
X19685539Y-9246912D01*
X14620000Y-9548000D02*
X14620000Y-9748000D01*
X14520000Y-9648000D02*
X14720000Y-9648000D01*
X14961729Y-9539484D02*
X15085539Y-9539484D01*
X15085539Y-9539484D02*
X15018872Y-9615674D01*
X15018872Y-9615674D02*
X15047443Y-9615674D01*
X15047443Y-9615674D02*
X15066491Y-9625198D01*
X15066491Y-9625198D02*
X15076015Y-9634722D01*
X15076015Y-9634722D02*
X15085539Y-9653770D01*
X15085539Y-9653770D02*
X15085539Y-9701389D01*
X15085539Y-9701389D02*
X15076015Y-9720436D01*
X15076015Y-9720436D02*
X15066491Y-9729960D01*
X15066491Y-9729960D02*
X15047443Y-9739484D01*
X15047443Y-9739484D02*
X14990301Y-9739484D01*
X14990301Y-9739484D02*
X14971253Y-9729960D01*
X14971253Y-9729960D02*
X14961729Y-9720436D01*
X15180777Y-9729960D02*
X15180777Y-9739484D01*
X15180777Y-9739484D02*
X15171253Y-9758531D01*
X15171253Y-9758531D02*
X15161729Y-9768055D01*
X15256967Y-9558531D02*
X15266491Y-9549008D01*
X15266491Y-9549008D02*
X15285539Y-9539484D01*
X15285539Y-9539484D02*
X15333158Y-9539484D01*
X15333158Y-9539484D02*
X15352205Y-9549008D01*
X15352205Y-9549008D02*
X15361729Y-9558531D01*
X15361729Y-9558531D02*
X15371253Y-9577579D01*
X15371253Y-9577579D02*
X15371253Y-9596627D01*
X15371253Y-9596627D02*
X15361729Y-9625198D01*
X15361729Y-9625198D02*
X15247443Y-9739484D01*
X15247443Y-9739484D02*
X15371253Y-9739484D01*
X15495062Y-9539484D02*
X15514110Y-9539484D01*
X15514110Y-9539484D02*
X15533158Y-9549008D01*
X15533158Y-9549008D02*
X15542682Y-9558531D01*
X15542682Y-9558531D02*
X15552205Y-9577579D01*
X15552205Y-9577579D02*
X15561729Y-9615674D01*
X15561729Y-9615674D02*
X15561729Y-9663293D01*
X15561729Y-9663293D02*
X15552205Y-9701389D01*
X15552205Y-9701389D02*
X15542682Y-9720436D01*
X15542682Y-9720436D02*
X15533158Y-9729960D01*
X15533158Y-9729960D02*
X15514110Y-9739484D01*
X15514110Y-9739484D02*
X15495062Y-9739484D01*
X15495062Y-9739484D02*
X15476015Y-9729960D01*
X15476015Y-9729960D02*
X15466491Y-9720436D01*
X15466491Y-9720436D02*
X15456967Y-9701389D01*
X15456967Y-9701389D02*
X15447443Y-9663293D01*
X15447443Y-9663293D02*
X15447443Y-9615674D01*
X15447443Y-9615674D02*
X15456967Y-9577579D01*
X15456967Y-9577579D02*
X15466491Y-9558531D01*
X15466491Y-9558531D02*
X15476015Y-9549008D01*
X15476015Y-9549008D02*
X15495062Y-9539484D01*
X15685539Y-9539484D02*
X15704586Y-9539484D01*
X15704586Y-9539484D02*
X15723634Y-9549008D01*
X15723634Y-9549008D02*
X15733158Y-9558531D01*
X15733158Y-9558531D02*
X15742682Y-9577579D01*
X15742682Y-9577579D02*
X15752205Y-9615674D01*
X15752205Y-9615674D02*
X15752205Y-9663293D01*
X15752205Y-9663293D02*
X15742682Y-9701389D01*
X15742682Y-9701389D02*
X15733158Y-9720436D01*
X15733158Y-9720436D02*
X15723634Y-9729960D01*
X15723634Y-9729960D02*
X15704586Y-9739484D01*
X15704586Y-9739484D02*
X15685539Y-9739484D01*
X15685539Y-9739484D02*
X15666491Y-9729960D01*
X15666491Y-9729960D02*
X15656967Y-9720436D01*
X15656967Y-9720436D02*
X15647443Y-9701389D01*
X15647443Y-9701389D02*
X15637920Y-9663293D01*
X15637920Y-9663293D02*
X15637920Y-9615674D01*
X15637920Y-9615674D02*
X15647443Y-9577579D01*
X15647443Y-9577579D02*
X15656967Y-9558531D01*
X15656967Y-9558531D02*
X15666491Y-9549008D01*
X15666491Y-9549008D02*
X15685539Y-9539484D01*
X15837920Y-9739484D02*
X15837920Y-9606150D01*
X15837920Y-9625198D02*
X15847443Y-9615674D01*
X15847443Y-9615674D02*
X15866491Y-9606150D01*
X15866491Y-9606150D02*
X15895063Y-9606150D01*
X15895063Y-9606150D02*
X15914110Y-9615674D01*
X15914110Y-9615674D02*
X15923634Y-9634722D01*
X15923634Y-9634722D02*
X15923634Y-9739484D01*
X15923634Y-9634722D02*
X15933158Y-9615674D01*
X15933158Y-9615674D02*
X15952205Y-9606150D01*
X15952205Y-9606150D02*
X15980777Y-9606150D01*
X15980777Y-9606150D02*
X15999824Y-9615674D01*
X15999824Y-9615674D02*
X16009348Y-9634722D01*
X16009348Y-9634722D02*
X16009348Y-9739484D01*
X16104586Y-9739484D02*
X16104586Y-9606150D01*
X16104586Y-9625198D02*
X16114110Y-9615674D01*
X16114110Y-9615674D02*
X16133158Y-9606150D01*
X16133158Y-9606150D02*
X16161729Y-9606150D01*
X16161729Y-9606150D02*
X16180777Y-9615674D01*
X16180777Y-9615674D02*
X16190301Y-9634722D01*
X16190301Y-9634722D02*
X16190301Y-9739484D01*
X16190301Y-9634722D02*
X16199824Y-9615674D01*
X16199824Y-9615674D02*
X16218872Y-9606150D01*
X16218872Y-9606150D02*
X16247443Y-9606150D01*
X16247443Y-9606150D02*
X16266491Y-9615674D01*
X16266491Y-9615674D02*
X16276015Y-9634722D01*
X16276015Y-9634722D02*
X16276015Y-9739484D01*
X16666491Y-9529960D02*
X16495063Y-9787103D01*
X16923634Y-9539484D02*
X16942682Y-9539484D01*
X16942682Y-9539484D02*
X16961729Y-9549008D01*
X16961729Y-9549008D02*
X16971253Y-9558531D01*
X16971253Y-9558531D02*
X16980777Y-9577579D01*
X16980777Y-9577579D02*
X16990301Y-9615674D01*
X16990301Y-9615674D02*
X16990301Y-9663293D01*
X16990301Y-9663293D02*
X16980777Y-9701389D01*
X16980777Y-9701389D02*
X16971253Y-9720436D01*
X16971253Y-9720436D02*
X16961729Y-9729960D01*
X16961729Y-9729960D02*
X16942682Y-9739484D01*
X16942682Y-9739484D02*
X16923634Y-9739484D01*
X16923634Y-9739484D02*
X16904587Y-9729960D01*
X16904587Y-9729960D02*
X16895063Y-9720436D01*
X16895063Y-9720436D02*
X16885539Y-9701389D01*
X16885539Y-9701389D02*
X16876015Y-9663293D01*
X16876015Y-9663293D02*
X16876015Y-9615674D01*
X16876015Y-9615674D02*
X16885539Y-9577579D01*
X16885539Y-9577579D02*
X16895063Y-9558531D01*
X16895063Y-9558531D02*
X16904587Y-9549008D01*
X16904587Y-9549008D02*
X16923634Y-9539484D01*
X17085539Y-9729960D02*
X17085539Y-9739484D01*
X17085539Y-9739484D02*
X17076015Y-9758531D01*
X17076015Y-9758531D02*
X17066491Y-9768055D01*
X17276015Y-9739484D02*
X17161729Y-9739484D01*
X17218872Y-9739484D02*
X17218872Y-9539484D01*
X17218872Y-9539484D02*
X17199825Y-9568055D01*
X17199825Y-9568055D02*
X17180777Y-9587103D01*
X17180777Y-9587103D02*
X17161729Y-9596627D01*
X17352206Y-9558531D02*
X17361729Y-9549008D01*
X17361729Y-9549008D02*
X17380777Y-9539484D01*
X17380777Y-9539484D02*
X17428396Y-9539484D01*
X17428396Y-9539484D02*
X17447444Y-9549008D01*
X17447444Y-9549008D02*
X17456968Y-9558531D01*
X17456968Y-9558531D02*
X17466491Y-9577579D01*
X17466491Y-9577579D02*
X17466491Y-9596627D01*
X17466491Y-9596627D02*
X17456968Y-9625198D01*
X17456968Y-9625198D02*
X17342682Y-9739484D01*
X17342682Y-9739484D02*
X17466491Y-9739484D01*
X17637920Y-9539484D02*
X17599825Y-9539484D01*
X17599825Y-9539484D02*
X17580777Y-9549008D01*
X17580777Y-9549008D02*
X17571253Y-9558531D01*
X17571253Y-9558531D02*
X17552206Y-9587103D01*
X17552206Y-9587103D02*
X17542682Y-9625198D01*
X17542682Y-9625198D02*
X17542682Y-9701389D01*
X17542682Y-9701389D02*
X17552206Y-9720436D01*
X17552206Y-9720436D02*
X17561729Y-9729960D01*
X17561729Y-9729960D02*
X17580777Y-9739484D01*
X17580777Y-9739484D02*
X17618872Y-9739484D01*
X17618872Y-9739484D02*
X17637920Y-9729960D01*
X17637920Y-9729960D02*
X17647444Y-9720436D01*
X17647444Y-9720436D02*
X17656968Y-9701389D01*
X17656968Y-9701389D02*
X17656968Y-9653770D01*
X17656968Y-9653770D02*
X17647444Y-9634722D01*
X17647444Y-9634722D02*
X17637920Y-9625198D01*
X17637920Y-9625198D02*
X17618872Y-9615674D01*
X17618872Y-9615674D02*
X17580777Y-9615674D01*
X17580777Y-9615674D02*
X17561729Y-9625198D01*
X17561729Y-9625198D02*
X17552206Y-9634722D01*
X17552206Y-9634722D02*
X17542682Y-9653770D01*
X17780777Y-9539484D02*
X17799825Y-9539484D01*
X17799825Y-9539484D02*
X17818872Y-9549008D01*
X17818872Y-9549008D02*
X17828396Y-9558531D01*
X17828396Y-9558531D02*
X17837920Y-9577579D01*
X17837920Y-9577579D02*
X17847444Y-9615674D01*
X17847444Y-9615674D02*
X17847444Y-9663293D01*
X17847444Y-9663293D02*
X17837920Y-9701389D01*
X17837920Y-9701389D02*
X17828396Y-9720436D01*
X17828396Y-9720436D02*
X17818872Y-9729960D01*
X17818872Y-9729960D02*
X17799825Y-9739484D01*
X17799825Y-9739484D02*
X17780777Y-9739484D01*
X17780777Y-9739484D02*
X17761729Y-9729960D01*
X17761729Y-9729960D02*
X17752206Y-9720436D01*
X17752206Y-9720436D02*
X17742682Y-9701389D01*
X17742682Y-9701389D02*
X17733158Y-9663293D01*
X17733158Y-9663293D02*
X17733158Y-9615674D01*
X17733158Y-9615674D02*
X17742682Y-9577579D01*
X17742682Y-9577579D02*
X17752206Y-9558531D01*
X17752206Y-9558531D02*
X17761729Y-9549008D01*
X17761729Y-9549008D02*
X17780777Y-9539484D01*
X17923634Y-9539484D02*
X17923634Y-9577579D01*
X17999825Y-9539484D02*
X17999825Y-9577579D01*
X18295063Y-9815674D02*
X18285539Y-9806150D01*
X18285539Y-9806150D02*
X18266491Y-9777579D01*
X18266491Y-9777579D02*
X18256968Y-9758531D01*
X18256968Y-9758531D02*
X18247444Y-9729960D01*
X18247444Y-9729960D02*
X18237920Y-9682341D01*
X18237920Y-9682341D02*
X18237920Y-9644246D01*
X18237920Y-9644246D02*
X18247444Y-9596627D01*
X18247444Y-9596627D02*
X18256968Y-9568055D01*
X18256968Y-9568055D02*
X18266491Y-9549008D01*
X18266491Y-9549008D02*
X18285539Y-9520436D01*
X18285539Y-9520436D02*
X18295063Y-9510912D01*
X18361730Y-9558531D02*
X18371253Y-9549008D01*
X18371253Y-9549008D02*
X18390301Y-9539484D01*
X18390301Y-9539484D02*
X18437920Y-9539484D01*
X18437920Y-9539484D02*
X18456968Y-9549008D01*
X18456968Y-9549008D02*
X18466491Y-9558531D01*
X18466491Y-9558531D02*
X18476015Y-9577579D01*
X18476015Y-9577579D02*
X18476015Y-9596627D01*
X18476015Y-9596627D02*
X18466491Y-9625198D01*
X18466491Y-9625198D02*
X18352206Y-9739484D01*
X18352206Y-9739484D02*
X18476015Y-9739484D01*
X18714111Y-9739484D02*
X18714111Y-9539484D01*
X18799825Y-9739484D02*
X18799825Y-9634722D01*
X18799825Y-9634722D02*
X18790301Y-9615674D01*
X18790301Y-9615674D02*
X18771253Y-9606150D01*
X18771253Y-9606150D02*
X18742682Y-9606150D01*
X18742682Y-9606150D02*
X18723634Y-9615674D01*
X18723634Y-9615674D02*
X18714111Y-9625198D01*
X18923634Y-9739484D02*
X18904587Y-9729960D01*
X18904587Y-9729960D02*
X18895063Y-9720436D01*
X18895063Y-9720436D02*
X18885539Y-9701389D01*
X18885539Y-9701389D02*
X18885539Y-9644246D01*
X18885539Y-9644246D02*
X18895063Y-9625198D01*
X18895063Y-9625198D02*
X18904587Y-9615674D01*
X18904587Y-9615674D02*
X18923634Y-9606150D01*
X18923634Y-9606150D02*
X18952206Y-9606150D01*
X18952206Y-9606150D02*
X18971253Y-9615674D01*
X18971253Y-9615674D02*
X18980777Y-9625198D01*
X18980777Y-9625198D02*
X18990301Y-9644246D01*
X18990301Y-9644246D02*
X18990301Y-9701389D01*
X18990301Y-9701389D02*
X18980777Y-9720436D01*
X18980777Y-9720436D02*
X18971253Y-9729960D01*
X18971253Y-9729960D02*
X18952206Y-9739484D01*
X18952206Y-9739484D02*
X18923634Y-9739484D01*
X19104587Y-9739484D02*
X19085539Y-9729960D01*
X19085539Y-9729960D02*
X19076015Y-9710912D01*
X19076015Y-9710912D02*
X19076015Y-9539484D01*
X19256968Y-9729960D02*
X19237920Y-9739484D01*
X19237920Y-9739484D02*
X19199825Y-9739484D01*
X19199825Y-9739484D02*
X19180777Y-9729960D01*
X19180777Y-9729960D02*
X19171253Y-9710912D01*
X19171253Y-9710912D02*
X19171253Y-9634722D01*
X19171253Y-9634722D02*
X19180777Y-9615674D01*
X19180777Y-9615674D02*
X19199825Y-9606150D01*
X19199825Y-9606150D02*
X19237920Y-9606150D01*
X19237920Y-9606150D02*
X19256968Y-9615674D01*
X19256968Y-9615674D02*
X19266492Y-9634722D01*
X19266492Y-9634722D02*
X19266492Y-9653770D01*
X19266492Y-9653770D02*
X19171253Y-9672817D01*
X19342682Y-9729960D02*
X19361730Y-9739484D01*
X19361730Y-9739484D02*
X19399825Y-9739484D01*
X19399825Y-9739484D02*
X19418873Y-9729960D01*
X19418873Y-9729960D02*
X19428396Y-9710912D01*
X19428396Y-9710912D02*
X19428396Y-9701389D01*
X19428396Y-9701389D02*
X19418873Y-9682341D01*
X19418873Y-9682341D02*
X19399825Y-9672817D01*
X19399825Y-9672817D02*
X19371253Y-9672817D01*
X19371253Y-9672817D02*
X19352206Y-9663293D01*
X19352206Y-9663293D02*
X19342682Y-9644246D01*
X19342682Y-9644246D02*
X19342682Y-9634722D01*
X19342682Y-9634722D02*
X19352206Y-9615674D01*
X19352206Y-9615674D02*
X19371253Y-9606150D01*
X19371253Y-9606150D02*
X19399825Y-9606150D01*
X19399825Y-9606150D02*
X19418873Y-9615674D01*
X19495063Y-9815674D02*
X19504587Y-9806150D01*
X19504587Y-9806150D02*
X19523634Y-9777579D01*
X19523634Y-9777579D02*
X19533158Y-9758531D01*
X19533158Y-9758531D02*
X19542682Y-9729960D01*
X19542682Y-9729960D02*
X19552206Y-9682341D01*
X19552206Y-9682341D02*
X19552206Y-9644246D01*
X19552206Y-9644246D02*
X19542682Y-9596627D01*
X19542682Y-9596627D02*
X19533158Y-9568055D01*
X19533158Y-9568055D02*
X19523634Y-9549008D01*
X19523634Y-9549008D02*
X19504587Y-9520436D01*
X19504587Y-9520436D02*
X19495063Y-9510912D01*
M02*
