G04 #@! TF.GenerationSoftware,KiCad,Pcbnew,10.0.4-10.0.4~ubuntu22.04.1*
G04 #@! TF.CreationDate,2026-09-12T00:22:47+02:00*
G04 #@! TF.ProjectId,PMOD2VGA,504d4f44-3256-4474-912e-6b696361645f,rev?*
G04 #@! TF.SameCoordinates,PX8c6db50PY50d2eb0*
G04 #@! TF.FileFunction,Copper,L1,Top*
G04 #@! TF.FilePolarity,Positive*
%FSLAX46Y46*%
G04 Gerber Fmt 4.6, Leading zero omitted, Abs format (unit mm)*
G04 Created by KiCad (PCBNEW 10.0.4-10.0.4~ubuntu22.04.1) date 2026-09-12 00:22:47*
%MOMM*%
%LPD*%
G01*
G04 APERTURE LIST*
G04 #@! TA.AperFunction,ComponentPad*
%ADD10C,4.000000*%
G04 #@! TD*
G04 #@! TA.AperFunction,ComponentPad*
%ADD11R,1.600000X1.600000*%
G04 #@! TD*
G04 #@! TA.AperFunction,ComponentPad*
%ADD12C,1.600000*%
G04 #@! TD*
G04 #@! TA.AperFunction,ComponentPad*
%ADD13R,1.700000X1.700000*%
G04 #@! TD*
G04 #@! TA.AperFunction,ComponentPad*
%ADD14O,1.700000X1.700000*%
G04 #@! TD*
G04 #@! TA.AperFunction,ViaPad*
%ADD15C,1.000000*%
G04 #@! TD*
G04 #@! TA.AperFunction,Conductor*
%ADD16C,1.000000*%
G04 #@! TD*
G04 #@! TA.AperFunction,Conductor*
%ADD17C,0.500000*%
G04 #@! TD*
G04 #@! TA.AperFunction,Conductor*
%ADD18C,0.300000*%
G04 #@! TD*
G04 APERTURE END LIST*
G04 #@! TA.AperFunction,SMDPad,CuDef*
G36*
G01*
X157475000Y-79955000D02*
X157475000Y-78705000D01*
G75*
G02*
X157725000Y-78455000I250000J0D01*
G01*
X158350000Y-78455000D01*
G75*
G02*
X158600000Y-78705000I0J-250000D01*
G01*
X158600000Y-79955000D01*
G75*
G02*
X158350000Y-80205000I-250000J0D01*
G01*
X157725000Y-80205000D01*
G75*
G02*
X157475000Y-79955000I0J250000D01*
G01*
G37*
G04 #@! TD.AperFunction*
G04 #@! TA.AperFunction,SMDPad,CuDef*
G36*
G01*
X160400000Y-79955000D02*
X160400000Y-78705000D01*
G75*
G02*
X160650000Y-78455000I250000J0D01*
G01*
X161275000Y-78455000D01*
G75*
G02*
X161525000Y-78705000I0J-250000D01*
G01*
X161525000Y-79955000D01*
G75*
G02*
X161275000Y-80205000I-250000J0D01*
G01*
X160650000Y-80205000D01*
G75*
G02*
X160400000Y-79955000I0J250000D01*
G01*
G37*
G04 #@! TD.AperFunction*
G04 #@! TA.AperFunction,SMDPad,CuDef*
G36*
G01*
X157475000Y-75455000D02*
X157475000Y-74205000D01*
G75*
G02*
X157725000Y-73955000I250000J0D01*
G01*
X158350000Y-73955000D01*
G75*
G02*
X158600000Y-74205000I0J-250000D01*
G01*
X158600000Y-75455000D01*
G75*
G02*
X158350000Y-75705000I-250000J0D01*
G01*
X157725000Y-75705000D01*
G75*
G02*
X157475000Y-75455000I0J250000D01*
G01*
G37*
G04 #@! TD.AperFunction*
G04 #@! TA.AperFunction,SMDPad,CuDef*
G36*
G01*
X160400000Y-75455000D02*
X160400000Y-74205000D01*
G75*
G02*
X160650000Y-73955000I250000J0D01*
G01*
X161275000Y-73955000D01*
G75*
G02*
X161525000Y-74205000I0J-250000D01*
G01*
X161525000Y-75455000D01*
G75*
G02*
X161275000Y-75705000I-250000J0D01*
G01*
X160650000Y-75705000D01*
G75*
G02*
X160400000Y-75455000I0J250000D01*
G01*
G37*
G04 #@! TD.AperFunction*
G04 #@! TA.AperFunction,SMDPad,CuDef*
G36*
G01*
X157475000Y-73205000D02*
X157475000Y-71955000D01*
G75*
G02*
X157725000Y-71705000I250000J0D01*
G01*
X158350000Y-71705000D01*
G75*
G02*
X158600000Y-71955000I0J-250000D01*
G01*
X158600000Y-73205000D01*
G75*
G02*
X158350000Y-73455000I-250000J0D01*
G01*
X157725000Y-73455000D01*
G75*
G02*
X157475000Y-73205000I0J250000D01*
G01*
G37*
G04 #@! TD.AperFunction*
G04 #@! TA.AperFunction,SMDPad,CuDef*
G36*
G01*
X160400000Y-73205000D02*
X160400000Y-71955000D01*
G75*
G02*
X160650000Y-71705000I250000J0D01*
G01*
X161275000Y-71705000D01*
G75*
G02*
X161525000Y-71955000I0J-250000D01*
G01*
X161525000Y-73205000D01*
G75*
G02*
X161275000Y-73455000I-250000J0D01*
G01*
X160650000Y-73455000D01*
G75*
G02*
X160400000Y-73205000I0J250000D01*
G01*
G37*
G04 #@! TD.AperFunction*
G04 #@! TA.AperFunction,SMDPad,CuDef*
G36*
G01*
X157475000Y-77705000D02*
X157475000Y-76455000D01*
G75*
G02*
X157725000Y-76205000I250000J0D01*
G01*
X158350000Y-76205000D01*
G75*
G02*
X158600000Y-76455000I0J-250000D01*
G01*
X158600000Y-77705000D01*
G75*
G02*
X158350000Y-77955000I-250000J0D01*
G01*
X157725000Y-77955000D01*
G75*
G02*
X157475000Y-77705000I0J250000D01*
G01*
G37*
G04 #@! TD.AperFunction*
G04 #@! TA.AperFunction,SMDPad,CuDef*
G36*
G01*
X160400000Y-77705000D02*
X160400000Y-76455000D01*
G75*
G02*
X160650000Y-76205000I250000J0D01*
G01*
X161275000Y-76205000D01*
G75*
G02*
X161525000Y-76455000I0J-250000D01*
G01*
X161525000Y-77705000D01*
G75*
G02*
X161275000Y-77955000I-250000J0D01*
G01*
X160650000Y-77955000D01*
G75*
G02*
X160400000Y-77705000I0J250000D01*
G01*
G37*
G04 #@! TD.AperFunction*
D10*
X191065000Y-73910000D03*
X166065000Y-73910000D03*
D11*
X174250000Y-75960000D03*
D12*
X176540000Y-75960000D03*
X178830000Y-75960000D03*
X181120000Y-75960000D03*
X183410000Y-75960000D03*
X173105000Y-73980000D03*
X175395000Y-73980000D03*
X177685000Y-73980000D03*
X179975000Y-73980000D03*
X182265000Y-73980000D03*
X174250000Y-72000000D03*
X176540000Y-72000000D03*
X178830000Y-72000000D03*
X181120000Y-72000000D03*
X183410000Y-72000000D03*
G04 #@! TA.AperFunction,SMDPad,CuDef*
G36*
G01*
X157475000Y-70875000D02*
X157475000Y-69625000D01*
G75*
G02*
X157725000Y-69375000I250000J0D01*
G01*
X158350000Y-69375000D01*
G75*
G02*
X158600000Y-69625000I0J-250000D01*
G01*
X158600000Y-70875000D01*
G75*
G02*
X158350000Y-71125000I-250000J0D01*
G01*
X157725000Y-71125000D01*
G75*
G02*
X157475000Y-70875000I0J250000D01*
G01*
G37*
G04 #@! TD.AperFunction*
G04 #@! TA.AperFunction,SMDPad,CuDef*
G36*
G01*
X160400000Y-70875000D02*
X160400000Y-69625000D01*
G75*
G02*
X160650000Y-69375000I250000J0D01*
G01*
X161275000Y-69375000D01*
G75*
G02*
X161525000Y-69625000I0J-250000D01*
G01*
X161525000Y-70875000D01*
G75*
G02*
X161275000Y-71125000I-250000J0D01*
G01*
X160650000Y-71125000D01*
G75*
G02*
X160400000Y-70875000I0J250000D01*
G01*
G37*
G04 #@! TD.AperFunction*
D13*
X153790000Y-82910000D03*
D14*
X151250000Y-82910000D03*
X153790000Y-80370000D03*
X151250000Y-80370000D03*
X153790000Y-77830000D03*
X151250000Y-77830000D03*
X153790000Y-75290000D03*
X151250000Y-75290000D03*
X153790000Y-72750000D03*
X151250000Y-72750000D03*
X153790000Y-70210000D03*
X151250000Y-70210000D03*
G04 #@! TA.AperFunction,SMDPad,CuDef*
G36*
G01*
X157475000Y-82205000D02*
X157475000Y-80955000D01*
G75*
G02*
X157725000Y-80705000I250000J0D01*
G01*
X158350000Y-80705000D01*
G75*
G02*
X158600000Y-80955000I0J-250000D01*
G01*
X158600000Y-82205000D01*
G75*
G02*
X158350000Y-82455000I-250000J0D01*
G01*
X157725000Y-82455000D01*
G75*
G02*
X157475000Y-82205000I0J250000D01*
G01*
G37*
G04 #@! TD.AperFunction*
G04 #@! TA.AperFunction,SMDPad,CuDef*
G36*
G01*
X160400000Y-82205000D02*
X160400000Y-80955000D01*
G75*
G02*
X160650000Y-80705000I250000J0D01*
G01*
X161275000Y-80705000D01*
G75*
G02*
X161525000Y-80955000I0J-250000D01*
G01*
X161525000Y-82205000D01*
G75*
G02*
X161275000Y-82455000I-250000J0D01*
G01*
X160650000Y-82455000D01*
G75*
G02*
X160400000Y-82205000I0J250000D01*
G01*
G37*
G04 #@! TD.AperFunction*
D15*
X162250000Y-83500000D03*
X193250000Y-81250000D03*
X176250000Y-83500000D03*
X173500000Y-83500000D03*
X182000000Y-83500000D03*
X169000000Y-79000000D03*
X190500000Y-83500000D03*
X170500000Y-83500000D03*
X171000000Y-79000000D03*
X167000000Y-79000000D03*
X193250000Y-79000000D03*
X165000000Y-79000000D03*
X187500000Y-83500000D03*
X193250000Y-83500000D03*
X168000000Y-83500000D03*
X184750000Y-83500000D03*
X179000000Y-83500000D03*
X173000000Y-79000000D03*
X165250000Y-83500000D03*
D16*
X151250000Y-82910000D02*
X153790000Y-82910000D01*
D17*
X177685000Y-73980000D02*
X173105000Y-73980000D01*
X182265000Y-73980000D02*
X184500000Y-73980000D01*
D16*
X151250000Y-80370000D02*
X153790000Y-80370000D01*
D18*
X157580000Y-79330000D02*
X157000000Y-78750000D01*
X157000000Y-76950000D02*
X155340000Y-75290000D01*
X158037500Y-79330000D02*
X157580000Y-79330000D01*
X155340000Y-75290000D02*
X153790000Y-75290000D01*
X157000000Y-78750000D02*
X157000000Y-76950000D01*
X156400000Y-77250000D02*
X155700000Y-76550000D01*
X156400000Y-79650000D02*
X156400000Y-77250000D01*
X158037500Y-81287500D02*
X156400000Y-79650000D01*
X158037500Y-81580000D02*
X158037500Y-81287500D01*
X155700000Y-76550000D02*
X152510000Y-76550000D01*
X152510000Y-76550000D02*
X151250000Y-75290000D01*
X158037500Y-74830000D02*
X155957500Y-72750000D01*
X155957500Y-72750000D02*
X153790000Y-72750000D01*
X152500000Y-74000000D02*
X155250000Y-74000000D01*
X151250000Y-72750000D02*
X152500000Y-74000000D01*
X158037500Y-76787500D02*
X158037500Y-77080000D01*
X155250000Y-74000000D02*
X158037500Y-76787500D01*
X153790000Y-70210000D02*
X157997500Y-70210000D01*
X157997500Y-70210000D02*
X158037500Y-70250000D01*
X152540000Y-71500000D02*
X151250000Y-70210000D01*
X156957500Y-71500000D02*
X152540000Y-71500000D01*
X158037500Y-72580000D02*
X156957500Y-71500000D01*
X160962500Y-72580000D02*
X162580000Y-72580000D01*
X163250000Y-73250000D02*
X163250000Y-79500000D01*
X174250000Y-79500000D02*
X174250000Y-75960000D01*
X163250000Y-79500000D02*
X164100000Y-80350000D01*
X160962500Y-70250000D02*
X160962500Y-72580000D01*
X164100000Y-80350000D02*
X173400000Y-80350000D01*
X162580000Y-72580000D02*
X163250000Y-73250000D01*
X173400000Y-80350000D02*
X174250000Y-79500000D01*
X162080000Y-77080000D02*
X160962500Y-77080000D01*
X160962500Y-74830000D02*
X160962500Y-77080000D01*
X176540000Y-75960000D02*
X176540000Y-78060000D01*
X163750000Y-80950000D02*
X162500000Y-79700000D01*
X162500000Y-79700000D02*
X162500000Y-77500000D01*
X173650000Y-80950000D02*
X163750000Y-80950000D01*
X162500000Y-77500000D02*
X162080000Y-77080000D01*
X176540000Y-78060000D02*
X173650000Y-80950000D01*
X173870000Y-81580000D02*
X178830000Y-76620000D01*
X160962500Y-81580000D02*
X173870000Y-81580000D01*
X160962500Y-79330000D02*
X160962500Y-81580000D01*
X178830000Y-76620000D02*
X178830000Y-75960000D01*
G04 #@! TA.AperFunction,Conductor*
G36*
X157191137Y-73768336D02*
G01*
X157260772Y-73809740D01*
X157260773Y-73809740D01*
X157260786Y-73809748D01*
X157338254Y-73849826D01*
X157415721Y-73883918D01*
X157415726Y-73883920D01*
X157415734Y-73883923D01*
X157462491Y-73900888D01*
X157493189Y-73912027D01*
X157531981Y-73923105D01*
X157570648Y-73934148D01*
X157570655Y-73934149D01*
X157570657Y-73934150D01*
X157648124Y-73950289D01*
X157725592Y-73960444D01*
X157803059Y-73964614D01*
X157877209Y-73962876D01*
X157880529Y-73962799D01*
X157896729Y-73961167D01*
X157946249Y-73956182D01*
X157954823Y-73958763D01*
X157959061Y-73966651D01*
X157959071Y-73966756D01*
X158037419Y-74822114D01*
X158034761Y-74830665D01*
X158030229Y-74833997D01*
X157486232Y-75058362D01*
X157477277Y-75058349D01*
X157470955Y-75052007D01*
X157470803Y-75051620D01*
X157424618Y-74926433D01*
X157424616Y-74926428D01*
X157424598Y-74926379D01*
X157393237Y-74845227D01*
X157374237Y-74796059D01*
X157323856Y-74671873D01*
X157323848Y-74671853D01*
X157273482Y-74553892D01*
X157223087Y-74442050D01*
X157172719Y-74336453D01*
X157172712Y-74336439D01*
X157122330Y-74237003D01*
X157071949Y-74143754D01*
X157021568Y-74056692D01*
X156976099Y-73983705D01*
X156974634Y-73974872D01*
X156977756Y-73969249D01*
X157176886Y-73770119D01*
X157185158Y-73766693D01*
X157191137Y-73768336D01*
G37*
G04 #@! TD.AperFunction*
G04 #@! TA.AperFunction,Conductor*
G36*
X161532871Y-76528469D02*
G01*
X161533226Y-76528842D01*
X161591636Y-76593059D01*
X161658273Y-76660250D01*
X161724910Y-76721370D01*
X161772507Y-76760691D01*
X161791549Y-76776422D01*
X161858177Y-76825394D01*
X161858184Y-76825399D01*
X161924821Y-76868307D01*
X161924829Y-76868312D01*
X161991462Y-76905148D01*
X161991473Y-76905154D01*
X162058084Y-76935909D01*
X162058095Y-76935913D01*
X162124732Y-76960611D01*
X162172094Y-76973850D01*
X162179138Y-76979376D01*
X162180211Y-76988267D01*
X162177216Y-76993390D01*
X161980510Y-77190096D01*
X161977646Y-77192198D01*
X161933815Y-77215050D01*
X161888387Y-77243550D01*
X161888386Y-77243551D01*
X161842968Y-77276855D01*
X161797532Y-77314990D01*
X161752125Y-77357912D01*
X161752118Y-77357920D01*
X161706698Y-77405667D01*
X161661260Y-77458249D01*
X161615852Y-77515608D01*
X161570416Y-77577817D01*
X161532961Y-77633068D01*
X161525483Y-77637993D01*
X161516712Y-77636187D01*
X161514987Y-77634759D01*
X160970059Y-77087593D01*
X160966649Y-77079313D01*
X160970092Y-77071048D01*
X161516326Y-76528414D01*
X161524610Y-76525015D01*
X161532871Y-76528469D01*
G37*
G04 #@! TD.AperFunction*
G04 #@! TA.AperFunction,Conductor*
G36*
X152032942Y-74969398D02*
G01*
X152039267Y-74975737D01*
X152039456Y-74976226D01*
X152105705Y-75159529D01*
X152106033Y-75160592D01*
X152149419Y-75329283D01*
X152149624Y-75330243D01*
X152174774Y-75478725D01*
X152174861Y-75479335D01*
X152190318Y-75613025D01*
X152190318Y-75613029D01*
X152204600Y-75736917D01*
X152226254Y-75855895D01*
X152226254Y-75855896D01*
X152263853Y-75975109D01*
X152325986Y-76099758D01*
X152421211Y-76234984D01*
X152421216Y-76234990D01*
X152421222Y-76234998D01*
X152483653Y-76303854D01*
X152550663Y-76377761D01*
X152553681Y-76386192D01*
X152550268Y-76393893D01*
X152353893Y-76590268D01*
X152345620Y-76593695D01*
X152337761Y-76590663D01*
X152320295Y-76574827D01*
X152194998Y-76461222D01*
X152194990Y-76461216D01*
X152194984Y-76461211D01*
X152059758Y-76365986D01*
X151935109Y-76303853D01*
X151815895Y-76266254D01*
X151696917Y-76244600D01*
X151573028Y-76230318D01*
X151573026Y-76230317D01*
X151573025Y-76230318D01*
X151439335Y-76214861D01*
X151438725Y-76214774D01*
X151290243Y-76189624D01*
X151289283Y-76189419D01*
X151120592Y-76146033D01*
X151119529Y-76145705D01*
X150936226Y-76079456D01*
X150929610Y-76073422D01*
X150929200Y-76064476D01*
X150929377Y-76064016D01*
X151247438Y-75293783D01*
X151253759Y-75287448D01*
X152023988Y-74969389D01*
X152032942Y-74969398D01*
G37*
G04 #@! TD.AperFunction*
G04 #@! TA.AperFunction,Conductor*
G36*
X157256740Y-80293261D02*
G01*
X157331907Y-80356087D01*
X157331921Y-80356098D01*
X157331926Y-80356102D01*
X157415322Y-80419619D01*
X157498718Y-80476948D01*
X157582113Y-80528089D01*
X157665509Y-80573043D01*
X157748905Y-80611809D01*
X157832300Y-80644388D01*
X157915696Y-80670779D01*
X157999092Y-80690983D01*
X157999103Y-80690984D01*
X157999118Y-80690988D01*
X158046653Y-80698977D01*
X158072215Y-80703273D01*
X158079806Y-80708023D01*
X158081961Y-80715402D01*
X158038610Y-81572719D01*
X158034770Y-81580808D01*
X158030618Y-81583230D01*
X157486613Y-81764172D01*
X157477681Y-81763531D01*
X157471818Y-81756763D01*
X157471670Y-81756282D01*
X157431139Y-81613240D01*
X157419180Y-81572719D01*
X157387299Y-81464700D01*
X157387279Y-81464634D01*
X157343419Y-81322215D01*
X157299559Y-81185983D01*
X157255699Y-81055939D01*
X157211839Y-80932082D01*
X157167979Y-80814413D01*
X157124119Y-80702931D01*
X157086162Y-80611809D01*
X157080265Y-80597651D01*
X157069375Y-80573045D01*
X157039644Y-80505865D01*
X157039430Y-80496914D01*
X157042069Y-80492860D01*
X157240965Y-80293964D01*
X157249237Y-80290538D01*
X157256740Y-80293261D01*
G37*
G04 #@! TD.AperFunction*
G04 #@! TA.AperFunction,Conductor*
G36*
X157191137Y-71518336D02*
G01*
X157260772Y-71559740D01*
X157260773Y-71559740D01*
X157260786Y-71559748D01*
X157338254Y-71599826D01*
X157415721Y-71633918D01*
X157415726Y-71633920D01*
X157415734Y-71633923D01*
X157462491Y-71650888D01*
X157493189Y-71662027D01*
X157531981Y-71673105D01*
X157570648Y-71684148D01*
X157570655Y-71684149D01*
X157570657Y-71684150D01*
X157648124Y-71700289D01*
X157725592Y-71710444D01*
X157803059Y-71714614D01*
X157877209Y-71712876D01*
X157880529Y-71712799D01*
X157896729Y-71711167D01*
X157946249Y-71706182D01*
X157954823Y-71708763D01*
X157959061Y-71716651D01*
X157959071Y-71716756D01*
X158037419Y-72572114D01*
X158034761Y-72580665D01*
X158030229Y-72583997D01*
X157486232Y-72808362D01*
X157477277Y-72808349D01*
X157470955Y-72802007D01*
X157470803Y-72801620D01*
X157424618Y-72676433D01*
X157424616Y-72676428D01*
X157424598Y-72676379D01*
X157393237Y-72595227D01*
X157374237Y-72546059D01*
X157323856Y-72421873D01*
X157323848Y-72421853D01*
X157273482Y-72303892D01*
X157223087Y-72192050D01*
X157172719Y-72086453D01*
X157172712Y-72086439D01*
X157122330Y-71987003D01*
X157071949Y-71893754D01*
X157021568Y-71806692D01*
X156976099Y-71733705D01*
X156974634Y-71724872D01*
X156977756Y-71719249D01*
X157176886Y-71520119D01*
X157185158Y-71516693D01*
X157191137Y-71518336D01*
G37*
G04 #@! TD.AperFunction*
G04 #@! TA.AperFunction,Conductor*
G36*
X151586073Y-82129165D02*
G01*
X151752420Y-82197971D01*
X151899909Y-82257532D01*
X152025559Y-82304798D01*
X152137185Y-82341181D01*
X152242589Y-82368089D01*
X152242587Y-82368089D01*
X152242594Y-82368090D01*
X152242601Y-82368092D01*
X152349619Y-82386944D01*
X152466055Y-82399149D01*
X152599721Y-82406118D01*
X152758431Y-82409265D01*
X152938345Y-82409955D01*
X152946605Y-82413414D01*
X152950000Y-82421655D01*
X152950000Y-83398344D01*
X152946573Y-83406617D01*
X152938345Y-83410044D01*
X152758444Y-83410733D01*
X152599707Y-83413880D01*
X152466064Y-83420849D01*
X152466045Y-83420850D01*
X152349634Y-83433052D01*
X152349627Y-83433053D01*
X152349624Y-83433053D01*
X152349619Y-83433054D01*
X152286983Y-83444087D01*
X152242588Y-83451908D01*
X152137190Y-83478816D01*
X152137185Y-83478817D01*
X152025565Y-83515197D01*
X151899914Y-83562464D01*
X151752439Y-83622020D01*
X151586075Y-83690833D01*
X151577120Y-83690828D01*
X151570799Y-83684511D01*
X151250864Y-82914488D01*
X151250856Y-82905534D01*
X151250865Y-82905511D01*
X151570799Y-82135487D01*
X151577137Y-82129164D01*
X151586073Y-82129165D01*
G37*
G04 #@! TD.AperFunction*
G04 #@! TA.AperFunction,Conductor*
G36*
X154125879Y-71969686D02*
G01*
X154126352Y-71969894D01*
X154302830Y-72052673D01*
X154303799Y-72053185D01*
X154453778Y-72141799D01*
X154454586Y-72142323D01*
X154577364Y-72229535D01*
X154577857Y-72229905D01*
X154683319Y-72313507D01*
X154683318Y-72313507D01*
X154683322Y-72313509D01*
X154781005Y-72391000D01*
X154781017Y-72391008D01*
X154781025Y-72391015D01*
X154880460Y-72459829D01*
X154991350Y-72517542D01*
X155123419Y-72561747D01*
X155286394Y-72590035D01*
X155478872Y-72599455D01*
X155486968Y-72603282D01*
X155490000Y-72611141D01*
X155490000Y-72888858D01*
X155486573Y-72897131D01*
X155478872Y-72900544D01*
X155301414Y-72909228D01*
X155286394Y-72909964D01*
X155123419Y-72938252D01*
X155056975Y-72960491D01*
X154991352Y-72982456D01*
X154880458Y-73040171D01*
X154781023Y-73108985D01*
X154781005Y-73108998D01*
X154683322Y-73186488D01*
X154683319Y-73186491D01*
X154577857Y-73270093D01*
X154577364Y-73270463D01*
X154454593Y-73357670D01*
X154453770Y-73358204D01*
X154303806Y-73446809D01*
X154302823Y-73447329D01*
X154126359Y-73530101D01*
X154117413Y-73530511D01*
X154110797Y-73524477D01*
X154110594Y-73524019D01*
X153790864Y-72754488D01*
X153790856Y-72745534D01*
X153790865Y-72745511D01*
X153855463Y-72590035D01*
X154110586Y-71976000D01*
X154116924Y-71969677D01*
X154125879Y-71969686D01*
G37*
G04 #@! TD.AperFunction*
G04 #@! TA.AperFunction,Conductor*
G36*
X160969538Y-70259102D02*
G01*
X160971846Y-70261410D01*
X161500195Y-70963003D01*
X161502435Y-70971673D01*
X161499578Y-70977832D01*
X161466622Y-71014755D01*
X161427271Y-71064978D01*
X161427267Y-71064984D01*
X161387945Y-71121298D01*
X161387934Y-71121314D01*
X161387928Y-71121324D01*
X161348581Y-71183808D01*
X161348576Y-71183817D01*
X161309230Y-71252432D01*
X161269886Y-71327176D01*
X161230549Y-71408037D01*
X161191191Y-71495077D01*
X161151846Y-71588221D01*
X161115428Y-71680111D01*
X161109194Y-71686539D01*
X161104551Y-71687500D01*
X160820449Y-71687500D01*
X160812176Y-71684073D01*
X160809572Y-71680111D01*
X160773153Y-71588221D01*
X160764300Y-71567263D01*
X160733805Y-71495071D01*
X160694458Y-71408056D01*
X160655111Y-71327174D01*
X160615765Y-71252425D01*
X160576418Y-71183808D01*
X160537071Y-71121324D01*
X160497724Y-71064974D01*
X160458377Y-71014756D01*
X160425420Y-70977831D01*
X160422469Y-70969378D01*
X160424803Y-70963004D01*
X160953154Y-70261409D01*
X160960868Y-70256862D01*
X160969538Y-70259102D01*
G37*
G04 #@! TD.AperFunction*
G04 #@! TA.AperFunction,Conductor*
G36*
X154323686Y-74587193D02*
G01*
X154393920Y-74612711D01*
X154499595Y-74651107D01*
X154649797Y-74703079D01*
X154780889Y-74749675D01*
X154781272Y-74749820D01*
X154899862Y-74797584D01*
X154900641Y-74797932D01*
X155013632Y-74853479D01*
X155014559Y-74853989D01*
X155128980Y-74924012D01*
X155129845Y-74924596D01*
X155252667Y-75015847D01*
X155253335Y-75016383D01*
X155391408Y-75135588D01*
X155391863Y-75136002D01*
X155543525Y-75281730D01*
X155547117Y-75289933D01*
X155543856Y-75298272D01*
X155543692Y-75298439D01*
X155347412Y-75494719D01*
X155339139Y-75498146D01*
X155331820Y-75495574D01*
X155206400Y-75395022D01*
X155206396Y-75395020D01*
X155089012Y-75353321D01*
X154982685Y-75366203D01*
X154882261Y-75422843D01*
X154782601Y-75512409D01*
X154782600Y-75512410D01*
X154678539Y-75624084D01*
X154618031Y-75689565D01*
X154565164Y-75746779D01*
X154564681Y-75747272D01*
X154437095Y-75869977D01*
X154436081Y-75870846D01*
X154289218Y-75982882D01*
X154287603Y-75983917D01*
X154126642Y-76069273D01*
X154117728Y-76070121D01*
X154110824Y-76064417D01*
X154110354Y-76063418D01*
X154075417Y-75979182D01*
X153791152Y-75293777D01*
X153791149Y-75284825D01*
X154110867Y-74515324D01*
X154117205Y-74509001D01*
X154125977Y-74508936D01*
X154323686Y-74587193D01*
G37*
G04 #@! TD.AperFunction*
G04 #@! TA.AperFunction,Conductor*
G36*
X152032942Y-69889398D02*
G01*
X152039267Y-69895737D01*
X152039456Y-69896226D01*
X152105705Y-70079529D01*
X152106033Y-70080592D01*
X152149419Y-70249283D01*
X152149624Y-70250243D01*
X152174774Y-70398725D01*
X152174861Y-70399335D01*
X152190318Y-70533025D01*
X152190318Y-70533029D01*
X152204600Y-70656917D01*
X152226254Y-70775895D01*
X152226254Y-70775896D01*
X152263853Y-70895109D01*
X152325986Y-71019758D01*
X152421211Y-71154984D01*
X152421216Y-71154990D01*
X152421222Y-71154998D01*
X152483653Y-71223854D01*
X152550663Y-71297761D01*
X152553681Y-71306192D01*
X152550268Y-71313893D01*
X152353893Y-71510268D01*
X152345620Y-71513695D01*
X152337761Y-71510663D01*
X152320295Y-71494827D01*
X152194998Y-71381222D01*
X152194990Y-71381216D01*
X152194984Y-71381211D01*
X152059758Y-71285986D01*
X151935109Y-71223853D01*
X151815895Y-71186254D01*
X151696917Y-71164600D01*
X151573028Y-71150318D01*
X151573026Y-71150317D01*
X151573025Y-71150318D01*
X151439335Y-71134861D01*
X151438725Y-71134774D01*
X151290243Y-71109624D01*
X151289283Y-71109419D01*
X151120592Y-71066033D01*
X151119529Y-71065705D01*
X150936226Y-70999456D01*
X150929610Y-70993422D01*
X150929200Y-70984476D01*
X150929377Y-70984016D01*
X151247438Y-70213783D01*
X151253759Y-70207448D01*
X152023988Y-69889389D01*
X152032942Y-69889398D01*
G37*
G04 #@! TD.AperFunction*
G04 #@! TA.AperFunction,Conductor*
G36*
X161532668Y-72026375D02*
G01*
X161533215Y-72026963D01*
X161581250Y-72082291D01*
X161581253Y-72082294D01*
X161637488Y-72141840D01*
X161637492Y-72141844D01*
X161637500Y-72141852D01*
X161693750Y-72196180D01*
X161750000Y-72245278D01*
X161806250Y-72289144D01*
X161806255Y-72289147D01*
X161806261Y-72289152D01*
X161862486Y-72327769D01*
X161862492Y-72327772D01*
X161862500Y-72327778D01*
X161918750Y-72361180D01*
X161918754Y-72361182D01*
X161918768Y-72361190D01*
X161974988Y-72389346D01*
X161975000Y-72389352D01*
X162031250Y-72412291D01*
X162079313Y-72427422D01*
X162086176Y-72433175D01*
X162087500Y-72438582D01*
X162087500Y-72721417D01*
X162084073Y-72729690D01*
X162079313Y-72732577D01*
X162031253Y-72747706D01*
X161975008Y-72770643D01*
X161974988Y-72770652D01*
X161918768Y-72798808D01*
X161918754Y-72798816D01*
X161862486Y-72832229D01*
X161806261Y-72870847D01*
X161806248Y-72870857D01*
X161750005Y-72914716D01*
X161693752Y-72963816D01*
X161637492Y-73018154D01*
X161637488Y-73018158D01*
X161581253Y-73077704D01*
X161533223Y-73133028D01*
X161525212Y-73137029D01*
X161516718Y-73134193D01*
X161516122Y-73133638D01*
X161214169Y-72832221D01*
X160969793Y-72588278D01*
X160966360Y-72580010D01*
X160969779Y-72571735D01*
X161516124Y-72026360D01*
X161524398Y-72022941D01*
X161532668Y-72026375D01*
G37*
G04 #@! TD.AperFunction*
G04 #@! TA.AperFunction,Conductor*
G36*
X161112824Y-75645927D02*
G01*
X161115428Y-75649889D01*
X161151846Y-75741777D01*
X161191191Y-75834921D01*
X161230549Y-75921961D01*
X161269886Y-76002822D01*
X161309230Y-76077567D01*
X161309235Y-76077575D01*
X161348581Y-76146191D01*
X161387928Y-76208675D01*
X161387940Y-76208693D01*
X161387945Y-76208700D01*
X161427267Y-76265014D01*
X161427271Y-76265020D01*
X161466622Y-76315243D01*
X161499578Y-76352167D01*
X161502530Y-76360621D01*
X161500195Y-76366996D01*
X160971846Y-77068589D01*
X160964132Y-77073137D01*
X160955462Y-77070897D01*
X160953154Y-77068589D01*
X160424804Y-76366996D01*
X160422564Y-76358326D01*
X160425419Y-76352169D01*
X160458377Y-76315243D01*
X160497724Y-76265025D01*
X160537071Y-76208675D01*
X160576418Y-76146191D01*
X160615765Y-76077575D01*
X160655111Y-76002825D01*
X160694458Y-75921943D01*
X160733805Y-75834928D01*
X160773152Y-75741780D01*
X160809571Y-75649888D01*
X160815805Y-75643461D01*
X160820448Y-75642500D01*
X161104551Y-75642500D01*
X161112824Y-75645927D01*
G37*
G04 #@! TD.AperFunction*
G04 #@! TA.AperFunction,Conductor*
G36*
X178834122Y-75962717D02*
G01*
X179387213Y-76517192D01*
X179390630Y-76525469D01*
X179387193Y-76533737D01*
X179386984Y-76533941D01*
X179253715Y-76660406D01*
X179253189Y-76660875D01*
X179130224Y-76764230D01*
X179129625Y-76764702D01*
X179020659Y-76844786D01*
X179020094Y-76845176D01*
X178920361Y-76909818D01*
X178920005Y-76910040D01*
X178824646Y-76967104D01*
X178729105Y-77024274D01*
X178628924Y-77089207D01*
X178628912Y-77089215D01*
X178628907Y-77089219D01*
X178519367Y-77169724D01*
X178519351Y-77169737D01*
X178395847Y-77273544D01*
X178395816Y-77273572D01*
X178261875Y-77400678D01*
X178253515Y-77403887D01*
X178245548Y-77400464D01*
X178049118Y-77204034D01*
X178045691Y-77195761D01*
X178048489Y-77188170D01*
X178147381Y-77072237D01*
X178208147Y-76959290D01*
X178231779Y-76853392D01*
X178227048Y-76764702D01*
X178226285Y-76750389D01*
X178226284Y-76750386D01*
X178226284Y-76750381D01*
X178199668Y-76646098D01*
X178159938Y-76536382D01*
X178152725Y-76517191D01*
X178148133Y-76504973D01*
X178115202Y-76417350D01*
X178115012Y-76416800D01*
X178073337Y-76284582D01*
X178073037Y-76283422D01*
X178042280Y-76133804D01*
X178042070Y-76132274D01*
X178030876Y-75972505D01*
X178033716Y-75964013D01*
X178041729Y-75960017D01*
X178042510Y-75959988D01*
X178825846Y-75959297D01*
X178834122Y-75962717D01*
G37*
G04 #@! TD.AperFunction*
G04 #@! TA.AperFunction,Conductor*
G36*
X157256740Y-75793261D02*
G01*
X157331907Y-75856087D01*
X157331921Y-75856098D01*
X157331926Y-75856102D01*
X157415322Y-75919619D01*
X157498718Y-75976948D01*
X157582113Y-76028089D01*
X157665509Y-76073043D01*
X157748905Y-76111809D01*
X157832300Y-76144388D01*
X157915696Y-76170779D01*
X157999092Y-76190983D01*
X157999103Y-76190984D01*
X157999118Y-76190988D01*
X158046653Y-76198977D01*
X158072215Y-76203273D01*
X158079806Y-76208023D01*
X158081961Y-76215402D01*
X158038610Y-77072719D01*
X158034770Y-77080808D01*
X158030618Y-77083230D01*
X157486613Y-77264172D01*
X157477681Y-77263531D01*
X157471818Y-77256763D01*
X157471670Y-77256282D01*
X157450943Y-77183132D01*
X157450500Y-77179942D01*
X157450500Y-76975953D01*
X157450574Y-76974643D01*
X157455270Y-76932971D01*
X157455269Y-76932968D01*
X157455270Y-76932965D01*
X157444245Y-76874701D01*
X157444176Y-76874288D01*
X157435348Y-76815715D01*
X157435348Y-76815713D01*
X157432288Y-76809358D01*
X157431335Y-76806461D01*
X157430024Y-76799529D01*
X157402303Y-76747079D01*
X157402140Y-76746755D01*
X157379851Y-76700472D01*
X157376427Y-76693361D01*
X157376425Y-76693358D01*
X157371625Y-76688184D01*
X157369862Y-76685699D01*
X157366566Y-76679463D01*
X157324678Y-76637575D01*
X157324374Y-76637260D01*
X157284054Y-76593805D01*
X157284052Y-76593804D01*
X157277945Y-76590278D01*
X157275522Y-76588419D01*
X157264077Y-76576974D01*
X157261264Y-76572440D01*
X157255706Y-76555961D01*
X157255699Y-76555939D01*
X157211839Y-76432082D01*
X157167979Y-76314413D01*
X157124119Y-76202931D01*
X157086162Y-76111809D01*
X157080265Y-76097651D01*
X157069375Y-76073045D01*
X157039644Y-76005865D01*
X157039430Y-75996914D01*
X157042069Y-75992860D01*
X157240965Y-75793964D01*
X157249237Y-75790538D01*
X157256740Y-75793261D01*
G37*
G04 #@! TD.AperFunction*
G04 #@! TA.AperFunction,Conductor*
G36*
X152032942Y-72429398D02*
G01*
X152039267Y-72435737D01*
X152039456Y-72436226D01*
X152105705Y-72619529D01*
X152106033Y-72620592D01*
X152149419Y-72789283D01*
X152149624Y-72790243D01*
X152174774Y-72938725D01*
X152174861Y-72939335D01*
X152190318Y-73073025D01*
X152190318Y-73073029D01*
X152204600Y-73196917D01*
X152226254Y-73315895D01*
X152226254Y-73315896D01*
X152263853Y-73435109D01*
X152325986Y-73559758D01*
X152421211Y-73694984D01*
X152421216Y-73694990D01*
X152421222Y-73694998D01*
X152483653Y-73763854D01*
X152550663Y-73837761D01*
X152553681Y-73846192D01*
X152550268Y-73853893D01*
X152353893Y-74050268D01*
X152345620Y-74053695D01*
X152337761Y-74050663D01*
X152320295Y-74034827D01*
X152194998Y-73921222D01*
X152194990Y-73921216D01*
X152194984Y-73921211D01*
X152059758Y-73825986D01*
X151935109Y-73763853D01*
X151815895Y-73726254D01*
X151696917Y-73704600D01*
X151573028Y-73690318D01*
X151573026Y-73690317D01*
X151573025Y-73690318D01*
X151439335Y-73674861D01*
X151438725Y-73674774D01*
X151290243Y-73649624D01*
X151289283Y-73649419D01*
X151120592Y-73606033D01*
X151119529Y-73605705D01*
X150936226Y-73539456D01*
X150929610Y-73533422D01*
X150929200Y-73524476D01*
X150929377Y-73524016D01*
X151247438Y-72753783D01*
X151253759Y-72747448D01*
X152023988Y-72429389D01*
X152032942Y-72429398D01*
G37*
G04 #@! TD.AperFunction*
G04 #@! TA.AperFunction,Conductor*
G36*
X152946891Y-82066883D02*
G01*
X153782712Y-82901722D01*
X153786144Y-82909993D01*
X153782722Y-82918268D01*
X153782712Y-82918278D01*
X152946891Y-83753116D01*
X152938616Y-83756538D01*
X152931981Y-83754469D01*
X152855000Y-83701374D01*
X152770000Y-83647999D01*
X152769979Y-83647986D01*
X152685033Y-83599891D01*
X152684977Y-83599861D01*
X152600025Y-83557011D01*
X152599996Y-83556997D01*
X152583697Y-83549783D01*
X152515000Y-83519375D01*
X152429999Y-83487000D01*
X152429992Y-83486998D01*
X152429987Y-83486996D01*
X152345024Y-83459883D01*
X152344999Y-83459875D01*
X152325858Y-83454949D01*
X152260011Y-83438002D01*
X152259999Y-83438000D01*
X152175013Y-83421377D01*
X152175001Y-83421375D01*
X152174999Y-83421375D01*
X152100148Y-83411358D01*
X152092403Y-83406864D01*
X152090000Y-83399761D01*
X152090000Y-82420238D01*
X152093427Y-82411965D01*
X152100145Y-82408642D01*
X152174999Y-82398624D01*
X152259999Y-82381999D01*
X152344999Y-82360124D01*
X152429999Y-82332999D01*
X152515000Y-82300625D01*
X152600000Y-82263000D01*
X152642025Y-82241801D01*
X152684977Y-82220137D01*
X152684989Y-82220130D01*
X152685000Y-82220125D01*
X152685010Y-82220119D01*
X152685033Y-82220107D01*
X152769979Y-82172012D01*
X152769981Y-82172010D01*
X152770000Y-82172000D01*
X152855000Y-82118625D01*
X152931983Y-82065529D01*
X152940736Y-82063653D01*
X152946891Y-82066883D01*
G37*
G04 #@! TD.AperFunction*
G04 #@! TA.AperFunction,Conductor*
G36*
X177204625Y-76235196D02*
G01*
X177267818Y-76261457D01*
X177274143Y-76267796D01*
X177274132Y-76276751D01*
X177273926Y-76277217D01*
X177196737Y-76442272D01*
X177196234Y-76443231D01*
X177113620Y-76584238D01*
X177113105Y-76585039D01*
X177032066Y-76700640D01*
X177031715Y-76701115D01*
X176954228Y-76800561D01*
X176954229Y-76800562D01*
X176882544Y-76892779D01*
X176819019Y-76986625D01*
X176765833Y-77091173D01*
X176725152Y-77215524D01*
X176725150Y-77215532D01*
X176699150Y-77368769D01*
X176690533Y-77548859D01*
X176686714Y-77556959D01*
X176678846Y-77560000D01*
X176401154Y-77560000D01*
X176392881Y-77556573D01*
X176389467Y-77548859D01*
X176388256Y-77523560D01*
X176380849Y-77368772D01*
X176354847Y-77215526D01*
X176314165Y-77091172D01*
X176260977Y-76986621D01*
X176197455Y-76892782D01*
X176125773Y-76800567D01*
X176125769Y-76800561D01*
X176048282Y-76701115D01*
X176047931Y-76700640D01*
X175966892Y-76585039D01*
X175966377Y-76584237D01*
X175883764Y-76443230D01*
X175883261Y-76442272D01*
X175806073Y-76277217D01*
X175805672Y-76268271D01*
X175811715Y-76261663D01*
X175812168Y-76261462D01*
X176535512Y-75960864D01*
X176544461Y-75960854D01*
X177204625Y-76235196D01*
G37*
G04 #@! TD.AperFunction*
G04 #@! TA.AperFunction,Conductor*
G36*
X157628051Y-78489585D02*
G01*
X157630037Y-78492468D01*
X158033525Y-79321093D01*
X158034066Y-79330031D01*
X158029052Y-79336232D01*
X157485880Y-79664091D01*
X157477026Y-79665432D01*
X157469817Y-79660120D01*
X157469358Y-79659284D01*
X157424618Y-79569081D01*
X157374237Y-79473691D01*
X157374229Y-79473675D01*
X157350123Y-79430995D01*
X157323856Y-79384488D01*
X157273474Y-79301473D01*
X157223093Y-79224645D01*
X157172712Y-79154005D01*
X157172705Y-79153996D01*
X157172700Y-79153989D01*
X157122346Y-79089571D01*
X157122333Y-79089555D01*
X157071936Y-79031272D01*
X157021582Y-78979223D01*
X157021578Y-78979219D01*
X157021568Y-78979209D01*
X156980249Y-78941573D01*
X156976441Y-78933468D01*
X156979478Y-78925044D01*
X156979832Y-78924673D01*
X157180671Y-78723834D01*
X157187013Y-78720570D01*
X157227296Y-78713845D01*
X157271273Y-78702735D01*
X157315250Y-78687857D01*
X157359227Y-78669210D01*
X157403204Y-78646796D01*
X157447181Y-78620613D01*
X157491158Y-78590661D01*
X157535135Y-78556942D01*
X157579112Y-78519454D01*
X157611515Y-78489055D01*
X157619891Y-78485896D01*
X157628051Y-78489585D01*
G37*
G04 #@! TD.AperFunction*
G04 #@! TA.AperFunction,Conductor*
G36*
X157483133Y-69675579D02*
G01*
X157483705Y-69676131D01*
X157839219Y-70043868D01*
X158030353Y-70241573D01*
X158033639Y-70249903D01*
X158030073Y-70258117D01*
X158030058Y-70258131D01*
X157484038Y-70784129D01*
X157475703Y-70787401D01*
X157467495Y-70783820D01*
X157466947Y-70783210D01*
X157418748Y-70725595D01*
X157362506Y-70663688D01*
X157334456Y-70635469D01*
X157306250Y-70607092D01*
X157306238Y-70607081D01*
X157306232Y-70607075D01*
X157250023Y-70555843D01*
X157250008Y-70555831D01*
X157250000Y-70555823D01*
X157193750Y-70509878D01*
X157190948Y-70507854D01*
X157137507Y-70469260D01*
X157081259Y-70433962D01*
X157081232Y-70433947D01*
X157025018Y-70403990D01*
X157025006Y-70403984D01*
X156968745Y-70379327D01*
X156920398Y-70362713D01*
X156913687Y-70356783D01*
X156912500Y-70351648D01*
X156912500Y-70068816D01*
X156915927Y-70060543D01*
X156920973Y-70057569D01*
X156968750Y-70043868D01*
X156968760Y-70043863D01*
X156968764Y-70043863D01*
X156988669Y-70036333D01*
X157025000Y-70022592D01*
X157081250Y-69996169D01*
X157137500Y-69964600D01*
X157193750Y-69927886D01*
X157250000Y-69886026D01*
X157306250Y-69839020D01*
X157362500Y-69786868D01*
X157418750Y-69729570D01*
X157466610Y-69676440D01*
X157474692Y-69672588D01*
X157483133Y-69675579D01*
G37*
G04 #@! TD.AperFunction*
G04 #@! TA.AperFunction,Conductor*
G36*
X160969538Y-79339102D02*
G01*
X160971846Y-79341410D01*
X161500195Y-80043003D01*
X161502435Y-80051673D01*
X161499578Y-80057832D01*
X161466622Y-80094755D01*
X161427271Y-80144978D01*
X161427267Y-80144984D01*
X161387945Y-80201298D01*
X161387934Y-80201314D01*
X161387928Y-80201324D01*
X161348581Y-80263808D01*
X161348576Y-80263817D01*
X161309230Y-80332432D01*
X161269886Y-80407176D01*
X161230549Y-80488037D01*
X161191191Y-80575077D01*
X161151846Y-80668221D01*
X161115428Y-80760111D01*
X161109194Y-80766539D01*
X161104551Y-80767500D01*
X160820449Y-80767500D01*
X160812176Y-80764073D01*
X160809572Y-80760111D01*
X160773153Y-80668221D01*
X160764300Y-80647263D01*
X160733805Y-80575071D01*
X160694458Y-80488056D01*
X160655111Y-80407174D01*
X160615765Y-80332425D01*
X160576418Y-80263808D01*
X160537071Y-80201324D01*
X160497724Y-80144974D01*
X160458377Y-80094756D01*
X160425420Y-80057831D01*
X160422469Y-80049378D01*
X160424803Y-80043004D01*
X160953154Y-79341409D01*
X160960868Y-79336862D01*
X160969538Y-79339102D01*
G37*
G04 #@! TD.AperFunction*
G04 #@! TA.AperFunction,Conductor*
G36*
X161112824Y-80145927D02*
G01*
X161115428Y-80149889D01*
X161151846Y-80241777D01*
X161191191Y-80334921D01*
X161230549Y-80421961D01*
X161269886Y-80502822D01*
X161309230Y-80577567D01*
X161309235Y-80577575D01*
X161348581Y-80646191D01*
X161387928Y-80708675D01*
X161387940Y-80708693D01*
X161387945Y-80708700D01*
X161427267Y-80765014D01*
X161427271Y-80765020D01*
X161466622Y-80815243D01*
X161499578Y-80852167D01*
X161502530Y-80860621D01*
X161500195Y-80866996D01*
X160971846Y-81568589D01*
X160964132Y-81573137D01*
X160955462Y-81570897D01*
X160953154Y-81568589D01*
X160424804Y-80866996D01*
X160422564Y-80858326D01*
X160425419Y-80852169D01*
X160458377Y-80815243D01*
X160497724Y-80765025D01*
X160537071Y-80708675D01*
X160576418Y-80646191D01*
X160615765Y-80577575D01*
X160655111Y-80502825D01*
X160694458Y-80421943D01*
X160733805Y-80334928D01*
X160773152Y-80241780D01*
X160809571Y-80149888D01*
X160815805Y-80143461D01*
X160820448Y-80142500D01*
X161104551Y-80142500D01*
X161112824Y-80145927D01*
G37*
G04 #@! TD.AperFunction*
G04 #@! TA.AperFunction,Conductor*
G36*
X154125879Y-69429686D02*
G01*
X154126352Y-69429894D01*
X154302830Y-69512673D01*
X154303799Y-69513185D01*
X154453778Y-69601799D01*
X154454586Y-69602323D01*
X154577364Y-69689535D01*
X154577857Y-69689905D01*
X154683319Y-69773507D01*
X154683318Y-69773507D01*
X154683322Y-69773509D01*
X154781005Y-69851000D01*
X154781017Y-69851008D01*
X154781025Y-69851015D01*
X154880460Y-69919829D01*
X154991350Y-69977542D01*
X155123419Y-70021747D01*
X155286394Y-70050035D01*
X155478872Y-70059455D01*
X155486968Y-70063282D01*
X155490000Y-70071141D01*
X155490000Y-70348858D01*
X155486573Y-70357131D01*
X155478872Y-70360544D01*
X155301414Y-70369228D01*
X155286394Y-70369964D01*
X155123419Y-70398252D01*
X155056975Y-70420491D01*
X154991352Y-70442456D01*
X154880458Y-70500171D01*
X154781023Y-70568985D01*
X154781005Y-70568998D01*
X154683322Y-70646488D01*
X154683319Y-70646491D01*
X154577857Y-70730093D01*
X154577364Y-70730463D01*
X154454593Y-70817670D01*
X154453770Y-70818204D01*
X154303806Y-70906809D01*
X154302823Y-70907329D01*
X154126359Y-70990101D01*
X154117413Y-70990511D01*
X154110797Y-70984477D01*
X154110594Y-70984019D01*
X153790864Y-70214488D01*
X153790856Y-70205534D01*
X153790865Y-70205511D01*
X153855463Y-70050035D01*
X154110586Y-69436000D01*
X154116924Y-69429677D01*
X154125879Y-69429686D01*
G37*
G04 #@! TD.AperFunction*
G04 #@! TA.AperFunction,Conductor*
G36*
X161112824Y-71145927D02*
G01*
X161115428Y-71149889D01*
X161151846Y-71241777D01*
X161191191Y-71334921D01*
X161230549Y-71421961D01*
X161269886Y-71502822D01*
X161309230Y-71577567D01*
X161309235Y-71577575D01*
X161348581Y-71646191D01*
X161387928Y-71708675D01*
X161387940Y-71708693D01*
X161387945Y-71708700D01*
X161427267Y-71765014D01*
X161427271Y-71765020D01*
X161466622Y-71815243D01*
X161499578Y-71852167D01*
X161502530Y-71860621D01*
X161500195Y-71866996D01*
X160971846Y-72568589D01*
X160964132Y-72573137D01*
X160955462Y-72570897D01*
X160953154Y-72568589D01*
X160424804Y-71866996D01*
X160422564Y-71858326D01*
X160425419Y-71852169D01*
X160458377Y-71815243D01*
X160497724Y-71765025D01*
X160537071Y-71708675D01*
X160576418Y-71646191D01*
X160615765Y-71577575D01*
X160655111Y-71502825D01*
X160694458Y-71421943D01*
X160733805Y-71334928D01*
X160773152Y-71241780D01*
X160809571Y-71149888D01*
X160815805Y-71143461D01*
X160820448Y-71142500D01*
X161104551Y-71142500D01*
X161112824Y-71145927D01*
G37*
G04 #@! TD.AperFunction*
G04 #@! TA.AperFunction,Conductor*
G36*
X160969538Y-74839102D02*
G01*
X160971846Y-74841410D01*
X161500195Y-75543003D01*
X161502435Y-75551673D01*
X161499578Y-75557832D01*
X161466622Y-75594755D01*
X161427271Y-75644978D01*
X161427267Y-75644984D01*
X161387945Y-75701298D01*
X161387934Y-75701314D01*
X161387928Y-75701324D01*
X161348581Y-75763808D01*
X161348576Y-75763817D01*
X161309230Y-75832432D01*
X161269886Y-75907176D01*
X161230549Y-75988037D01*
X161191191Y-76075077D01*
X161151846Y-76168221D01*
X161115428Y-76260111D01*
X161109194Y-76266539D01*
X161104551Y-76267500D01*
X160820449Y-76267500D01*
X160812176Y-76264073D01*
X160809572Y-76260111D01*
X160773153Y-76168221D01*
X160764300Y-76147263D01*
X160733805Y-76075071D01*
X160694458Y-75988056D01*
X160655111Y-75907174D01*
X160615765Y-75832425D01*
X160576418Y-75763808D01*
X160537071Y-75701324D01*
X160497724Y-75644974D01*
X160458377Y-75594756D01*
X160425420Y-75557831D01*
X160422469Y-75549378D01*
X160424803Y-75543004D01*
X160953154Y-74841409D01*
X160960868Y-74836862D01*
X160969538Y-74839102D01*
G37*
G04 #@! TD.AperFunction*
G04 #@! TA.AperFunction,Conductor*
G36*
X174258267Y-75967277D02*
G01*
X175040121Y-76750109D01*
X175043543Y-76758383D01*
X175040111Y-76766654D01*
X175038524Y-76767981D01*
X174984996Y-76805213D01*
X174919998Y-76858153D01*
X174854983Y-76918841D01*
X174854977Y-76918846D01*
X174790015Y-76987211D01*
X174725001Y-77063362D01*
X174725000Y-77063363D01*
X174660002Y-77147226D01*
X174594998Y-77238828D01*
X174529997Y-77338158D01*
X174464999Y-77445212D01*
X174403361Y-77554065D01*
X174396303Y-77559576D01*
X174393180Y-77560000D01*
X174106820Y-77560000D01*
X174098547Y-77556573D01*
X174096639Y-77554065D01*
X174034999Y-77445211D01*
X173969999Y-77338153D01*
X173904999Y-77238826D01*
X173839999Y-77147230D01*
X173775000Y-77063364D01*
X173710000Y-76987230D01*
X173709992Y-76987221D01*
X173709983Y-76987211D01*
X173645021Y-76918846D01*
X173645015Y-76918841D01*
X173645008Y-76918834D01*
X173645000Y-76918826D01*
X173580000Y-76858153D01*
X173515000Y-76805211D01*
X173461474Y-76767981D01*
X173456640Y-76760445D01*
X173458551Y-76751696D01*
X173459874Y-76750113D01*
X174241722Y-75967287D01*
X174249993Y-75963856D01*
X174258267Y-75967277D01*
G37*
G04 #@! TD.AperFunction*
G04 #@! TA.AperFunction,Conductor*
G36*
X193846288Y-69018954D02*
G01*
X193927070Y-69072930D01*
X193981046Y-69153712D01*
X194000000Y-69249000D01*
X194000000Y-73319883D01*
X193981046Y-73415171D01*
X193927070Y-73495953D01*
X193846288Y-73549929D01*
X193751000Y-73568883D01*
X193655712Y-73549929D01*
X193574930Y-73495953D01*
X193520954Y-73415171D01*
X193506411Y-73366541D01*
X193491248Y-73287055D01*
X193491244Y-73287043D01*
X193394038Y-72987872D01*
X193260097Y-72703233D01*
X193260095Y-72703230D01*
X193091542Y-72437632D01*
X193000712Y-72327839D01*
X192362732Y-72965818D01*
X192199870Y-72775130D01*
X192009178Y-72612265D01*
X192650026Y-71971418D01*
X192407222Y-71795010D01*
X192407217Y-71795007D01*
X192131550Y-71643459D01*
X191839062Y-71527655D01*
X191534384Y-71449427D01*
X191534379Y-71449426D01*
X191222282Y-71410000D01*
X190907718Y-71410000D01*
X190595620Y-71449426D01*
X190595615Y-71449427D01*
X190290937Y-71527655D01*
X189998449Y-71643459D01*
X189722789Y-71795004D01*
X189479972Y-71971418D01*
X190120820Y-72612266D01*
X189930130Y-72775130D01*
X189767266Y-72965820D01*
X189129285Y-72327839D01*
X189038460Y-72437630D01*
X188869904Y-72703230D01*
X188869902Y-72703233D01*
X188735961Y-72987872D01*
X188638755Y-73287041D01*
X188579809Y-73596044D01*
X188560057Y-73910000D01*
X188579809Y-74223955D01*
X188638755Y-74532958D01*
X188735961Y-74832127D01*
X188869902Y-75116766D01*
X188869904Y-75116769D01*
X189038457Y-75382367D01*
X189129285Y-75492158D01*
X189767264Y-74854178D01*
X189930130Y-75044870D01*
X190120818Y-75207733D01*
X189479972Y-75848580D01*
X189722783Y-76024993D01*
X189998449Y-76176540D01*
X190290937Y-76292344D01*
X190595615Y-76370572D01*
X190595620Y-76370573D01*
X190907718Y-76410000D01*
X191222282Y-76410000D01*
X191534379Y-76370573D01*
X191534384Y-76370572D01*
X191839062Y-76292344D01*
X192131550Y-76176540D01*
X192407216Y-76024993D01*
X192650026Y-75848580D01*
X192009179Y-75207733D01*
X192199870Y-75044870D01*
X192362733Y-74854179D01*
X193000713Y-75492159D01*
X193091542Y-75382366D01*
X193260095Y-75116769D01*
X193260097Y-75116766D01*
X193394038Y-74832127D01*
X193491244Y-74532958D01*
X193506410Y-74453458D01*
X193542884Y-74363409D01*
X193611041Y-74294173D01*
X193700506Y-74256290D01*
X193797658Y-74255526D01*
X193887707Y-74292000D01*
X193956943Y-74360157D01*
X193994826Y-74449622D01*
X194000000Y-74500116D01*
X194000000Y-84001000D01*
X193981046Y-84096288D01*
X193927070Y-84177070D01*
X193846288Y-84231046D01*
X193751000Y-84250000D01*
X155399000Y-84250000D01*
X155303712Y-84231046D01*
X155222930Y-84177070D01*
X155168954Y-84096288D01*
X155150000Y-84001000D01*
X155150000Y-80634480D01*
X155131335Y-80624242D01*
X155127274Y-80620000D01*
X155093147Y-80620000D01*
X155074364Y-80617109D01*
X155041358Y-80620000D01*
X154223686Y-80620000D01*
X154249493Y-80579844D01*
X154290000Y-80441889D01*
X154290000Y-80298111D01*
X154249493Y-80160156D01*
X154223686Y-80120000D01*
X155042758Y-80120000D01*
X155057962Y-80123024D01*
X155065080Y-80120949D01*
X155086802Y-80120000D01*
X155173633Y-80120000D01*
X155226279Y-80102130D01*
X155258776Y-80100000D01*
X155826914Y-80100000D01*
X155922202Y-80118954D01*
X156002984Y-80172930D01*
X156572756Y-80742702D01*
X156626542Y-80823027D01*
X156654602Y-80890391D01*
X156656458Y-80894973D01*
X156695100Y-80993190D01*
X156696707Y-80997386D01*
X156735986Y-81102766D01*
X156737385Y-81106615D01*
X156777300Y-81219331D01*
X156778524Y-81222873D01*
X156818915Y-81342632D01*
X156819992Y-81345901D01*
X156860761Y-81472534D01*
X156861713Y-81475554D01*
X156902866Y-81609183D01*
X156903711Y-81611985D01*
X156945132Y-81752327D01*
X156945884Y-81754929D01*
X156965068Y-81822632D01*
X156974500Y-81890514D01*
X156974500Y-82255006D01*
X156985001Y-82357800D01*
X157014340Y-82446337D01*
X157040186Y-82524334D01*
X157132288Y-82673656D01*
X157256344Y-82797712D01*
X157405666Y-82889814D01*
X157405669Y-82889815D01*
X157405667Y-82889815D01*
X157569310Y-82944040D01*
X157572203Y-82944999D01*
X157674991Y-82955500D01*
X158400008Y-82955499D01*
X158441221Y-82951288D01*
X158466525Y-82950000D01*
X160533466Y-82950000D01*
X160558771Y-82951289D01*
X160562740Y-82951694D01*
X160599991Y-82955500D01*
X161325008Y-82955499D01*
X161427797Y-82944999D01*
X161594334Y-82889814D01*
X161743656Y-82797712D01*
X161867712Y-82673656D01*
X161959814Y-82524334D01*
X161995150Y-82417695D01*
X162043112Y-82333210D01*
X162078390Y-82299666D01*
X162099123Y-82283498D01*
X162111418Y-82274503D01*
X162111943Y-82274143D01*
X162201249Y-82235886D01*
X162252760Y-82230500D01*
X173772643Y-82230500D01*
X173796072Y-82231605D01*
X173808292Y-82232759D01*
X173808296Y-82232760D01*
X173876289Y-82230622D01*
X173884111Y-82230500D01*
X173910922Y-82230500D01*
X173910925Y-82230500D01*
X173910927Y-82230499D01*
X173915458Y-82230214D01*
X173932830Y-82228845D01*
X173972569Y-82227597D01*
X173983502Y-82224420D01*
X174021756Y-82216498D01*
X174033058Y-82215071D01*
X174070038Y-82200428D01*
X174092210Y-82192837D01*
X174130398Y-82181744D01*
X174140195Y-82175949D01*
X174175289Y-82158757D01*
X174185871Y-82154568D01*
X174218046Y-82131191D01*
X174237637Y-82118322D01*
X174271865Y-82098081D01*
X174279916Y-82090029D01*
X174309629Y-82064652D01*
X174318837Y-82057963D01*
X174344176Y-82027331D01*
X174359952Y-82009992D01*
X178570069Y-77799875D01*
X178602189Y-77772773D01*
X178609839Y-77767354D01*
X178727294Y-77655890D01*
X178738473Y-77645906D01*
X178825793Y-77572510D01*
X178838508Y-77562510D01*
X178910438Y-77509646D01*
X178922445Y-77501355D01*
X178992724Y-77455802D01*
X179000222Y-77451130D01*
X179179571Y-77343809D01*
X179187486Y-77338974D01*
X179187842Y-77338752D01*
X179195301Y-77334009D01*
X179281665Y-77278032D01*
X179295033Y-77269368D01*
X179307226Y-77261211D01*
X179307255Y-77261191D01*
X179307820Y-77260801D01*
X179320020Y-77252110D01*
X179328831Y-77245635D01*
X179370222Y-77215214D01*
X179428986Y-77172026D01*
X179442490Y-77161749D01*
X179443089Y-77161277D01*
X179455476Y-77151194D01*
X179578441Y-77047839D01*
X179589603Y-77038175D01*
X179590129Y-77037706D01*
X179601675Y-77027086D01*
X179734944Y-76900621D01*
X179740073Y-76895684D01*
X179740282Y-76895480D01*
X179780394Y-76851421D01*
X179780394Y-76851420D01*
X179788862Y-76842120D01*
X179791016Y-76844081D01*
X179847105Y-76793159D01*
X179938553Y-76760350D01*
X180035595Y-76765035D01*
X180123457Y-76806499D01*
X180151361Y-76830547D01*
X180280861Y-76960047D01*
X180280864Y-76960049D01*
X180280865Y-76960050D01*
X180467258Y-77090563D01*
X180467262Y-77090565D01*
X180467266Y-77090568D01*
X180467270Y-77090569D01*
X180467272Y-77090571D01*
X180542776Y-77125779D01*
X180673504Y-77186739D01*
X180893308Y-77245635D01*
X180912984Y-77247356D01*
X181119994Y-77265468D01*
X181120000Y-77265468D01*
X181120006Y-77265468D01*
X181299668Y-77249749D01*
X181346692Y-77245635D01*
X181566496Y-77186739D01*
X181772734Y-77090568D01*
X181959139Y-76960047D01*
X182120047Y-76799139D01*
X182124757Y-76792411D01*
X182194935Y-76725226D01*
X182285483Y-76690010D01*
X182328305Y-76688140D01*
X182926922Y-76089523D01*
X182950507Y-76169844D01*
X183028239Y-76290798D01*
X183136900Y-76384952D01*
X183267685Y-76444680D01*
X183277465Y-76446086D01*
X182684527Y-77039023D01*
X182684527Y-77039025D01*
X182757515Y-77090132D01*
X182963676Y-77186267D01*
X183183396Y-77245140D01*
X183410000Y-77264965D01*
X183636602Y-77245140D01*
X183636603Y-77245140D01*
X183856326Y-77186266D01*
X184062476Y-77090137D01*
X184062483Y-77090133D01*
X184135471Y-77039025D01*
X183542532Y-76446086D01*
X183552315Y-76444680D01*
X183683100Y-76384952D01*
X183791761Y-76290798D01*
X183869493Y-76169844D01*
X183893077Y-76089523D01*
X184489025Y-76685471D01*
X184540133Y-76612483D01*
X184540137Y-76612476D01*
X184636266Y-76406326D01*
X184695140Y-76186603D01*
X184695140Y-76186602D01*
X184714965Y-75960000D01*
X184695140Y-75733397D01*
X184695140Y-75733396D01*
X184636267Y-75513676D01*
X184540132Y-75307515D01*
X184489025Y-75234527D01*
X184489023Y-75234527D01*
X183893076Y-75830474D01*
X183869493Y-75750156D01*
X183791761Y-75629202D01*
X183683100Y-75535048D01*
X183552315Y-75475320D01*
X183542533Y-75473913D01*
X184135471Y-74880974D01*
X184135471Y-74880972D01*
X184062488Y-74829869D01*
X184062486Y-74829867D01*
X183856323Y-74733732D01*
X183679384Y-74686322D01*
X183592248Y-74643351D01*
X183528190Y-74570306D01*
X183496960Y-74478307D01*
X183503314Y-74381360D01*
X183503315Y-74381359D01*
X183550139Y-74206611D01*
X183550140Y-74206602D01*
X183569965Y-73980000D01*
X183550140Y-73753397D01*
X183550140Y-73753396D01*
X183503444Y-73579122D01*
X183497090Y-73482175D01*
X183528320Y-73390176D01*
X183592378Y-73317131D01*
X183679509Y-73274162D01*
X183856496Y-73226739D01*
X184062734Y-73130568D01*
X184249139Y-73000047D01*
X184410047Y-72839139D01*
X184540568Y-72652734D01*
X184636739Y-72446496D01*
X184695635Y-72226692D01*
X184705363Y-72115504D01*
X184715468Y-72000005D01*
X184715468Y-71999994D01*
X184695636Y-71773320D01*
X184695635Y-71773308D01*
X184636739Y-71553504D01*
X184569822Y-71410000D01*
X184540571Y-71347272D01*
X184540563Y-71347258D01*
X184410050Y-71160865D01*
X184410049Y-71160864D01*
X184410047Y-71160861D01*
X184249139Y-70999953D01*
X184249135Y-70999950D01*
X184249134Y-70999949D01*
X184062741Y-70869436D01*
X184062727Y-70869428D01*
X183856499Y-70773262D01*
X183856496Y-70773261D01*
X183636694Y-70714365D01*
X183636679Y-70714363D01*
X183410006Y-70694532D01*
X183409994Y-70694532D01*
X183183320Y-70714363D01*
X183183305Y-70714365D01*
X182963503Y-70773261D01*
X182963500Y-70773262D01*
X182757272Y-70869428D01*
X182757258Y-70869436D01*
X182570865Y-70999949D01*
X182570861Y-70999952D01*
X182570861Y-70999953D01*
X182441066Y-71129747D01*
X182360288Y-71183721D01*
X182265000Y-71202675D01*
X182169712Y-71183721D01*
X182088933Y-71129747D01*
X181959139Y-70999953D01*
X181959135Y-70999950D01*
X181959134Y-70999949D01*
X181772741Y-70869436D01*
X181772727Y-70869428D01*
X181566499Y-70773262D01*
X181566496Y-70773261D01*
X181346694Y-70714365D01*
X181346679Y-70714363D01*
X181120006Y-70694532D01*
X181119994Y-70694532D01*
X180893320Y-70714363D01*
X180893305Y-70714365D01*
X180673503Y-70773261D01*
X180673500Y-70773262D01*
X180467272Y-70869428D01*
X180467258Y-70869436D01*
X180280865Y-70999949D01*
X180280861Y-70999952D01*
X180280861Y-70999953D01*
X180151066Y-71129747D01*
X180070288Y-71183721D01*
X179975000Y-71202675D01*
X179879712Y-71183721D01*
X179798933Y-71129747D01*
X179669139Y-70999953D01*
X179669135Y-70999950D01*
X179669134Y-70999949D01*
X179482741Y-70869436D01*
X179482727Y-70869428D01*
X179276499Y-70773262D01*
X179276496Y-70773261D01*
X179056694Y-70714365D01*
X179056679Y-70714363D01*
X178830006Y-70694532D01*
X178829994Y-70694532D01*
X178603320Y-70714363D01*
X178603305Y-70714365D01*
X178383503Y-70773261D01*
X178383500Y-70773262D01*
X178177272Y-70869428D01*
X178177258Y-70869436D01*
X177990865Y-70999949D01*
X177990861Y-70999952D01*
X177990861Y-70999953D01*
X177861066Y-71129747D01*
X177780288Y-71183721D01*
X177685000Y-71202675D01*
X177589712Y-71183721D01*
X177508933Y-71129747D01*
X177379139Y-70999953D01*
X177379135Y-70999950D01*
X177379134Y-70999949D01*
X177192741Y-70869436D01*
X177192727Y-70869428D01*
X176986499Y-70773262D01*
X176986496Y-70773261D01*
X176766694Y-70714365D01*
X176766679Y-70714363D01*
X176540006Y-70694532D01*
X176539994Y-70694532D01*
X176313320Y-70714363D01*
X176313305Y-70714365D01*
X176093503Y-70773261D01*
X176093500Y-70773262D01*
X175887272Y-70869428D01*
X175887258Y-70869436D01*
X175700865Y-70999949D01*
X175700861Y-70999952D01*
X175700861Y-70999953D01*
X175571066Y-71129747D01*
X175490288Y-71183721D01*
X175395000Y-71202675D01*
X175299712Y-71183721D01*
X175218933Y-71129747D01*
X175089139Y-70999953D01*
X175089135Y-70999950D01*
X175089134Y-70999949D01*
X174902741Y-70869436D01*
X174902727Y-70869428D01*
X174696499Y-70773262D01*
X174696496Y-70773261D01*
X174476694Y-70714365D01*
X174476679Y-70714363D01*
X174250006Y-70694532D01*
X174249994Y-70694532D01*
X174023320Y-70714363D01*
X174023305Y-70714365D01*
X173803503Y-70773261D01*
X173803500Y-70773262D01*
X173597272Y-70869428D01*
X173597258Y-70869436D01*
X173410865Y-70999949D01*
X173249949Y-71160865D01*
X173119436Y-71347258D01*
X173119428Y-71347272D01*
X173023262Y-71553500D01*
X173023261Y-71553503D01*
X172964365Y-71773305D01*
X172964363Y-71773320D01*
X172944532Y-71999994D01*
X172944532Y-72000005D01*
X172964363Y-72226679D01*
X172964365Y-72226693D01*
X173011202Y-72401490D01*
X173017556Y-72498437D01*
X172986326Y-72590435D01*
X172922267Y-72663480D01*
X172835133Y-72706450D01*
X172658680Y-72753731D01*
X172452514Y-72849867D01*
X172452510Y-72849870D01*
X172379527Y-72900972D01*
X172379527Y-72900974D01*
X172972465Y-73493913D01*
X172962685Y-73495320D01*
X172831900Y-73555048D01*
X172723239Y-73649202D01*
X172645507Y-73770156D01*
X172621922Y-73850476D01*
X172025973Y-73254527D01*
X172025972Y-73254527D01*
X171974870Y-73327510D01*
X171974867Y-73327514D01*
X171878732Y-73533676D01*
X171819859Y-73753396D01*
X171819859Y-73753397D01*
X171800034Y-73980000D01*
X171819859Y-74206602D01*
X171819859Y-74206603D01*
X171878732Y-74426323D01*
X171974867Y-74632486D01*
X171974869Y-74632488D01*
X172025972Y-74705471D01*
X172025974Y-74705471D01*
X172621922Y-74109523D01*
X172645507Y-74189844D01*
X172723239Y-74310798D01*
X172831900Y-74404952D01*
X172962685Y-74464680D01*
X172972463Y-74466086D01*
X172379527Y-75059023D01*
X172379527Y-75059025D01*
X172452515Y-75110132D01*
X172658678Y-75206268D01*
X172764944Y-75234741D01*
X172852080Y-75277711D01*
X172916139Y-75350755D01*
X172947370Y-75442754D01*
X172949500Y-75475257D01*
X172949500Y-76807865D01*
X172949501Y-76807869D01*
X172955908Y-76867480D01*
X172955909Y-76867484D01*
X173006204Y-77002332D01*
X173057141Y-77070375D01*
X173059891Y-77074120D01*
X173070092Y-77088291D01*
X173075949Y-77095498D01*
X173092454Y-77117546D01*
X173092457Y-77117548D01*
X173092458Y-77117549D01*
X173133512Y-77148282D01*
X173154116Y-77165516D01*
X173172825Y-77182964D01*
X173172827Y-77182965D01*
X173172830Y-77182968D01*
X173202892Y-77203877D01*
X173217919Y-77215198D01*
X173241045Y-77234033D01*
X173253679Y-77245054D01*
X173270566Y-77260817D01*
X173283537Y-77272924D01*
X173294114Y-77283406D01*
X173329725Y-77320883D01*
X173338572Y-77330704D01*
X173378948Y-77377995D01*
X173386390Y-77387141D01*
X173430694Y-77444306D01*
X173436948Y-77452736D01*
X173484521Y-77519774D01*
X173489808Y-77527530D01*
X173540032Y-77604277D01*
X173544521Y-77611396D01*
X173563341Y-77642393D01*
X173596593Y-77733681D01*
X173599500Y-77771621D01*
X173599500Y-79127414D01*
X173580546Y-79222702D01*
X173526570Y-79303484D01*
X173203484Y-79626570D01*
X173122702Y-79680546D01*
X173027414Y-79699500D01*
X164472586Y-79699500D01*
X164377298Y-79680546D01*
X164296516Y-79626570D01*
X163973430Y-79303484D01*
X163919454Y-79222702D01*
X163900500Y-79127414D01*
X163900500Y-75742389D01*
X163919454Y-75647101D01*
X163973430Y-75566319D01*
X164054212Y-75512343D01*
X164122731Y-75498713D01*
X164767265Y-74854178D01*
X164930130Y-75044870D01*
X165120818Y-75207733D01*
X164479972Y-75848580D01*
X164722783Y-76024993D01*
X164998449Y-76176540D01*
X165290937Y-76292344D01*
X165595615Y-76370572D01*
X165595620Y-76370573D01*
X165907718Y-76410000D01*
X166222282Y-76410000D01*
X166534379Y-76370573D01*
X166534384Y-76370572D01*
X166839062Y-76292344D01*
X167131550Y-76176540D01*
X167407216Y-76024993D01*
X167650026Y-75848580D01*
X167009179Y-75207733D01*
X167199870Y-75044870D01*
X167362733Y-74854179D01*
X168000713Y-75492159D01*
X168091542Y-75382366D01*
X168260095Y-75116769D01*
X168260097Y-75116766D01*
X168394038Y-74832127D01*
X168491244Y-74532958D01*
X168550190Y-74223955D01*
X168569942Y-73910000D01*
X168550190Y-73596044D01*
X168491244Y-73287041D01*
X168394038Y-72987872D01*
X168260097Y-72703233D01*
X168260095Y-72703230D01*
X168091542Y-72437632D01*
X168000712Y-72327839D01*
X167362732Y-72965818D01*
X167199870Y-72775130D01*
X167009178Y-72612265D01*
X167650026Y-71971418D01*
X167407222Y-71795010D01*
X167407217Y-71795007D01*
X167131550Y-71643459D01*
X166839062Y-71527655D01*
X166534384Y-71449427D01*
X166534379Y-71449426D01*
X166222282Y-71410000D01*
X165907718Y-71410000D01*
X165595620Y-71449426D01*
X165595615Y-71449427D01*
X165290937Y-71527655D01*
X164998449Y-71643459D01*
X164722789Y-71795004D01*
X164479972Y-71971418D01*
X165120820Y-72612266D01*
X164930130Y-72775130D01*
X164767266Y-72965820D01*
X164129284Y-72327838D01*
X164079814Y-72330172D01*
X164017220Y-72348894D01*
X163993779Y-72350000D01*
X163373086Y-72350000D01*
X163277798Y-72331046D01*
X163197016Y-72277070D01*
X163108810Y-72188864D01*
X163093025Y-72171516D01*
X163085201Y-72162059D01*
X163035625Y-72115504D01*
X163030011Y-72110064D01*
X163011041Y-72091094D01*
X163007697Y-72088146D01*
X162994386Y-72076778D01*
X162965393Y-72049552D01*
X162965390Y-72049550D01*
X162965388Y-72049548D01*
X162955409Y-72044062D01*
X162922763Y-72022617D01*
X162913767Y-72015639D01*
X162913768Y-72015639D01*
X162877281Y-71999850D01*
X162856222Y-71989533D01*
X162821370Y-71970374D01*
X162821369Y-71970373D01*
X162821368Y-71970373D01*
X162810323Y-71967536D01*
X162773373Y-71954885D01*
X162762926Y-71950364D01*
X162723660Y-71944145D01*
X162700692Y-71939389D01*
X162662177Y-71929500D01*
X162662176Y-71929500D01*
X162650794Y-71929500D01*
X162611839Y-71926434D01*
X162600595Y-71924653D01*
X162561011Y-71928395D01*
X162537578Y-71929500D01*
X162299000Y-71929500D01*
X162203712Y-71910546D01*
X162122930Y-71856570D01*
X162068954Y-71775788D01*
X162050000Y-71680500D01*
X162050000Y-69249000D01*
X162068954Y-69153712D01*
X162122930Y-69072930D01*
X162203712Y-69018954D01*
X162299000Y-69000000D01*
X193751000Y-69000000D01*
X193846288Y-69018954D01*
G37*
G04 #@! TD.AperFunction*
G04 #@! TA.AperFunction,Conductor*
G36*
X153330507Y-80160156D02*
G01*
X153290000Y-80298111D01*
X153290000Y-80441889D01*
X153330507Y-80579844D01*
X153356314Y-80620000D01*
X151683686Y-80620000D01*
X151709493Y-80579844D01*
X151750000Y-80441889D01*
X151750000Y-80298111D01*
X151709493Y-80160156D01*
X151683686Y-80120000D01*
X153356314Y-80120000D01*
X153330507Y-80160156D01*
G37*
G04 #@! TD.AperFunction*
G04 #@! TA.AperFunction,Conductor*
G36*
X161532668Y-81026375D02*
G01*
X161533215Y-81026963D01*
X161581250Y-81082291D01*
X161581253Y-81082294D01*
X161637488Y-81141840D01*
X161637492Y-81141844D01*
X161637500Y-81141852D01*
X161693750Y-81196180D01*
X161750000Y-81245278D01*
X161806250Y-81289144D01*
X161806255Y-81289147D01*
X161806261Y-81289152D01*
X161862486Y-81327769D01*
X161862492Y-81327772D01*
X161862500Y-81327778D01*
X161918750Y-81361180D01*
X161918754Y-81361182D01*
X161918768Y-81361190D01*
X161974988Y-81389346D01*
X161975000Y-81389352D01*
X162031250Y-81412291D01*
X162079313Y-81427422D01*
X162086176Y-81433175D01*
X162087500Y-81438582D01*
X162087500Y-81721417D01*
X162084073Y-81729690D01*
X162079313Y-81732577D01*
X162031253Y-81747706D01*
X161975008Y-81770643D01*
X161974988Y-81770652D01*
X161918768Y-81798808D01*
X161918754Y-81798816D01*
X161862486Y-81832229D01*
X161806261Y-81870847D01*
X161806248Y-81870857D01*
X161750005Y-81914716D01*
X161693752Y-81963816D01*
X161637492Y-82018154D01*
X161637488Y-82018158D01*
X161581253Y-82077704D01*
X161533223Y-82133028D01*
X161525212Y-82137029D01*
X161516718Y-82134193D01*
X161516122Y-82133638D01*
X161214169Y-81832221D01*
X160969793Y-81588278D01*
X160966360Y-81580010D01*
X160969779Y-81571735D01*
X161516124Y-81026360D01*
X161524398Y-81022941D01*
X161532668Y-81026375D01*
G37*
G04 #@! TD.AperFunction*
M02*
