M48
; DRILL file KiCad 10.0.4-10.0.4~ubuntu22.04.1 date 2026-09-12T00:22:47
; FORMAT={-:-/ absolute / metric / decimal}
; #@! TF.CreationDate,2026-09-12T00:22:47+02:00
; #@! TF.GenerationSoftware,Kicad,Pcbnew,10.0.4-10.0.4~ubuntu22.04.1
; #@! TF.FileFunction,Plated,1,2,PTH
FMAT,2
METRIC
; #@! TA.AperFunction,Plated,PTH,ViaDrill
T1C0.500
; #@! TA.AperFunction,Plated,PTH,ComponentDrill
T2C1.000
; #@! TA.AperFunction,Plated,PTH,ComponentDrill
T3C3.200
%
G90
G05
T1
X162.25Y-83.5
X165.0Y-79.0
X165.25Y-83.5
X167.0Y-79.0
X168.0Y-83.5
X169.0Y-79.0
X170.5Y-83.5
X171.0Y-79.0
X173.0Y-79.0
X173.5Y-83.5
X176.25Y-83.5
X179.0Y-83.5
X182.0Y-83.5
X184.75Y-83.5
X187.5Y-83.5
X190.5Y-83.5
X193.25Y-79.0
X193.25Y-81.25
X193.25Y-83.5
T2
X151.25Y-70.21
X151.25Y-72.75
X151.25Y-75.29
X151.25Y-77.83
X151.25Y-80.37
X151.25Y-82.91
X153.79Y-70.21
X153.79Y-72.75
X153.79Y-75.29
X153.79Y-77.83
X153.79Y-80.37
X153.79Y-82.91
X173.105Y-73.98
X174.25Y-72.0
X174.25Y-75.96
X175.395Y-73.98
X176.54Y-72.0
X176.54Y-75.96
X177.685Y-73.98
X178.83Y-72.0
X178.83Y-75.96
X179.975Y-73.98
X181.12Y-72.0
X181.12Y-75.96
X182.265Y-73.98
X183.41Y-72.0
X183.41Y-75.96
T3
X166.065Y-73.91
X191.065Y-73.91
M30
