G04 #@! TF.GenerationSoftware,KiCad,Pcbnew,10.0.4-10.0.4~ubuntu22.04.1*
G04 #@! TF.CreationDate,2026-09-12T00:22:47+02:00*
G04 #@! TF.ProjectId,PMOD2VGA,504d4f44-3256-4474-912e-6b696361645f,rev?*
G04 #@! TF.SameCoordinates,PX8c6db50PY50d2eb0*
G04 #@! TF.FileFunction,Legend,Top*
G04 #@! TF.FilePolarity,Positive*
%FSLAX46Y46*%
G04 Gerber Fmt 4.6, Leading zero omitted, Abs format (unit mm)*
G04 Created by KiCad (PCBNEW 10.0.4-10.0.4~ubuntu22.04.1) date 2026-09-12 00:22:47*
%MOMM*%
%LPD*%
G01*
G04 APERTURE LIST*
%ADD10C,0.150000*%
%ADD11C,0.120000*%
%ADD12C,4.000000*%
%ADD13R,1.600000X1.600000*%
%ADD14C,1.600000*%
%ADD15R,1.700000X1.700000*%
%ADD16O,1.700000X1.700000*%
G04 APERTURE END LIST*
D10*
G36*
X184661399Y-79229077D02*
G01*
X184733341Y-79301019D01*
X184773683Y-79462386D01*
X184773683Y-79777251D01*
X184733341Y-79938617D01*
X184661398Y-80010561D01*
X184592883Y-80044819D01*
X184437817Y-80044819D01*
X184369301Y-80010561D01*
X184297358Y-79938617D01*
X184257017Y-79777251D01*
X184257017Y-79462386D01*
X184297358Y-79301019D01*
X184369301Y-79229077D01*
X184437817Y-79194819D01*
X184592883Y-79194819D01*
X184661399Y-79229077D01*
G37*
G36*
X185617693Y-79232990D02*
G01*
X185691806Y-79307103D01*
X185730299Y-79384090D01*
X185773683Y-79557624D01*
X185773683Y-79682013D01*
X185730299Y-79855547D01*
X185691805Y-79932534D01*
X185617693Y-80006647D01*
X185503180Y-80044819D01*
X185352255Y-80044819D01*
X185352255Y-79194819D01*
X185503180Y-79194819D01*
X185617693Y-79232990D01*
G37*
G36*
X189220817Y-79759104D02*
G01*
X188952741Y-79759104D01*
X189086779Y-79356989D01*
X189220817Y-79759104D01*
G37*
G36*
X182518542Y-79229077D02*
G01*
X182548949Y-79259484D01*
X182583207Y-79328000D01*
X182583207Y-79435447D01*
X182548949Y-79503963D01*
X182518542Y-79534370D01*
X182450026Y-79568628D01*
X182161779Y-79568628D01*
X182161779Y-79194819D01*
X182450026Y-79194819D01*
X182518542Y-79229077D01*
G37*
G36*
X189605634Y-80305930D02*
G01*
X181900668Y-80305930D01*
X181900668Y-79119819D01*
X182011779Y-79119819D01*
X182011779Y-80119819D01*
X182013220Y-80134451D01*
X182024419Y-80161487D01*
X182045111Y-80182179D01*
X182072147Y-80193378D01*
X182101411Y-80193378D01*
X182128447Y-80182179D01*
X182149139Y-80161487D01*
X182160338Y-80134451D01*
X182161779Y-80119819D01*
X182161779Y-79718628D01*
X182467731Y-79718628D01*
X182482363Y-79717187D01*
X182484852Y-79716155D01*
X182487540Y-79715965D01*
X182501272Y-79710710D01*
X182596510Y-79663091D01*
X182602809Y-79659126D01*
X182604637Y-79658369D01*
X182606693Y-79656680D01*
X182608953Y-79655259D01*
X182610252Y-79653760D01*
X182616002Y-79649042D01*
X182663621Y-79601423D01*
X182668339Y-79595673D01*
X182669838Y-79594374D01*
X182671259Y-79592114D01*
X182672948Y-79590058D01*
X182673705Y-79588230D01*
X182677670Y-79581931D01*
X182725289Y-79486693D01*
X182730544Y-79472962D01*
X182730735Y-79470272D01*
X182731766Y-79467784D01*
X182733207Y-79453152D01*
X182733207Y-79310295D01*
X182731766Y-79295663D01*
X182730735Y-79293174D01*
X182730544Y-79290485D01*
X182725289Y-79276754D01*
X182677670Y-79181516D01*
X182673705Y-79175216D01*
X182672948Y-79173389D01*
X182671259Y-79171332D01*
X182669838Y-79169073D01*
X182668339Y-79167773D01*
X182663621Y-79162024D01*
X182621416Y-79119819D01*
X183011779Y-79119819D01*
X183011779Y-80119819D01*
X183013220Y-80134451D01*
X183024419Y-80161487D01*
X183045111Y-80182179D01*
X183072147Y-80193378D01*
X183101411Y-80193378D01*
X183128447Y-80182179D01*
X183149139Y-80161487D01*
X183160338Y-80134451D01*
X183161779Y-80119819D01*
X183161779Y-79457886D01*
X183352148Y-79865821D01*
X183355322Y-79871180D01*
X183355982Y-79872993D01*
X183357156Y-79874275D01*
X183359642Y-79878471D01*
X183368051Y-79886171D01*
X183375746Y-79894574D01*
X183378764Y-79895982D01*
X183381223Y-79898234D01*
X183391935Y-79902129D01*
X183402264Y-79906950D01*
X183405592Y-79907096D01*
X183408724Y-79908235D01*
X183420118Y-79907734D01*
X183431500Y-79908234D01*
X183434628Y-79907096D01*
X183437960Y-79906950D01*
X183448295Y-79902126D01*
X183459001Y-79898234D01*
X183461456Y-79895984D01*
X183464478Y-79894575D01*
X183472179Y-79886164D01*
X183480582Y-79878470D01*
X183483065Y-79874277D01*
X183484242Y-79872993D01*
X183484902Y-79871177D01*
X183488076Y-79865820D01*
X183678445Y-79457886D01*
X183678445Y-80119819D01*
X183679886Y-80134451D01*
X183691085Y-80161487D01*
X183711777Y-80182179D01*
X183738813Y-80193378D01*
X183768077Y-80193378D01*
X183795113Y-80182179D01*
X183815805Y-80161487D01*
X183827004Y-80134451D01*
X183828445Y-80119819D01*
X183828445Y-79453152D01*
X184107017Y-79453152D01*
X184107017Y-79786485D01*
X184107268Y-79789038D01*
X184107106Y-79790131D01*
X184107915Y-79795604D01*
X184108458Y-79801117D01*
X184108880Y-79802138D01*
X184109256Y-79804675D01*
X184156875Y-79995151D01*
X184161822Y-80008997D01*
X184165141Y-80013476D01*
X184167275Y-80018628D01*
X184176603Y-80029994D01*
X184271841Y-80125233D01*
X184277591Y-80129953D01*
X184278890Y-80131450D01*
X184281144Y-80132869D01*
X184283206Y-80134561D01*
X184285038Y-80135319D01*
X184291333Y-80139282D01*
X184386571Y-80186901D01*
X184400302Y-80192156D01*
X184402991Y-80192347D01*
X184405480Y-80193378D01*
X184420112Y-80194819D01*
X184610588Y-80194819D01*
X184625220Y-80193378D01*
X184627709Y-80192346D01*
X184630397Y-80192156D01*
X184644129Y-80186901D01*
X184739367Y-80139282D01*
X184745666Y-80135317D01*
X184747494Y-80134560D01*
X184749550Y-80132871D01*
X184751810Y-80131450D01*
X184753109Y-80129951D01*
X184758859Y-80125233D01*
X184854098Y-80029993D01*
X184863425Y-80018628D01*
X184865558Y-80013476D01*
X184868878Y-80008997D01*
X184873825Y-79995151D01*
X184921444Y-79804675D01*
X184921819Y-79802138D01*
X184922242Y-79801117D01*
X184922784Y-79795604D01*
X184923594Y-79790131D01*
X184923431Y-79789038D01*
X184923683Y-79786485D01*
X184923683Y-79453152D01*
X184923431Y-79450598D01*
X184923594Y-79449506D01*
X184922784Y-79444032D01*
X184922242Y-79438520D01*
X184921819Y-79437498D01*
X184921444Y-79434962D01*
X184873825Y-79244486D01*
X184868878Y-79230640D01*
X184865559Y-79226161D01*
X184863425Y-79221008D01*
X184854097Y-79209643D01*
X184764273Y-79119819D01*
X185202255Y-79119819D01*
X185202255Y-80119819D01*
X185203696Y-80134451D01*
X185214895Y-80161487D01*
X185235587Y-80182179D01*
X185262623Y-80193378D01*
X185277255Y-80194819D01*
X185515350Y-80194819D01*
X185522755Y-80194089D01*
X185524730Y-80194230D01*
X185527327Y-80193639D01*
X185529982Y-80193378D01*
X185531813Y-80192619D01*
X185539067Y-80190970D01*
X185681924Y-80143351D01*
X185695349Y-80137357D01*
X185697384Y-80135591D01*
X185699875Y-80134560D01*
X185711240Y-80125233D01*
X185806479Y-80029993D01*
X185811196Y-80024244D01*
X185812695Y-80022945D01*
X185814116Y-80020686D01*
X185815806Y-80018628D01*
X185816563Y-80016798D01*
X185820527Y-80010502D01*
X185868146Y-79915264D01*
X185868555Y-79914194D01*
X185868878Y-79913759D01*
X185871070Y-79907622D01*
X185873401Y-79901533D01*
X185873439Y-79900992D01*
X185873825Y-79899913D01*
X185921444Y-79709437D01*
X185921819Y-79706900D01*
X185922242Y-79705879D01*
X185922784Y-79700366D01*
X185923594Y-79694893D01*
X185923431Y-79693800D01*
X185923683Y-79691247D01*
X185923683Y-79548390D01*
X185923431Y-79545836D01*
X185923594Y-79544744D01*
X185922784Y-79539270D01*
X185922242Y-79533758D01*
X185921819Y-79532736D01*
X185921444Y-79530200D01*
X185873825Y-79339724D01*
X185873439Y-79338644D01*
X185873401Y-79338104D01*
X185871070Y-79332014D01*
X185868878Y-79325878D01*
X185868555Y-79325442D01*
X185868146Y-79324373D01*
X185820527Y-79229135D01*
X185816564Y-79222840D01*
X185815806Y-79221008D01*
X185814114Y-79218946D01*
X185812695Y-79216692D01*
X185811198Y-79215393D01*
X185806478Y-79209643D01*
X185726034Y-79129199D01*
X186821892Y-79129199D01*
X186825152Y-79143536D01*
X187158485Y-80143536D01*
X187164479Y-80156961D01*
X187167989Y-80161008D01*
X187170386Y-80165802D01*
X187177494Y-80171967D01*
X187183653Y-80179068D01*
X187188442Y-80181462D01*
X187192493Y-80184976D01*
X187201418Y-80187950D01*
X187209826Y-80192155D01*
X187215170Y-80192534D01*
X187220256Y-80194230D01*
X187229636Y-80193563D01*
X187239016Y-80194230D01*
X187244101Y-80192534D01*
X187249446Y-80192155D01*
X187257856Y-80187949D01*
X187266778Y-80184976D01*
X187270825Y-80181465D01*
X187275619Y-80179069D01*
X187281782Y-80171963D01*
X187288886Y-80165802D01*
X187291281Y-80161010D01*
X187294793Y-80156962D01*
X187300787Y-80143536D01*
X187499169Y-79548390D01*
X187773684Y-79548390D01*
X187773684Y-79691247D01*
X187773935Y-79693800D01*
X187773773Y-79694893D01*
X187774582Y-79700366D01*
X187775125Y-79705879D01*
X187775547Y-79706900D01*
X187775923Y-79709437D01*
X187823542Y-79899913D01*
X187823927Y-79900992D01*
X187823966Y-79901532D01*
X187826293Y-79907613D01*
X187828489Y-79913759D01*
X187828811Y-79914194D01*
X187829221Y-79915264D01*
X187876840Y-80010502D01*
X187880803Y-80016798D01*
X187881561Y-80018628D01*
X187883250Y-80020686D01*
X187884672Y-80022945D01*
X187886170Y-80024244D01*
X187890889Y-80029994D01*
X187986127Y-80125233D01*
X187997492Y-80134561D01*
X187999982Y-80135592D01*
X188002017Y-80137357D01*
X188015443Y-80143351D01*
X188158299Y-80190970D01*
X188165554Y-80192619D01*
X188167385Y-80193378D01*
X188170038Y-80193639D01*
X188172636Y-80194230D01*
X188174610Y-80194089D01*
X188182017Y-80194819D01*
X188277255Y-80194819D01*
X188284660Y-80194089D01*
X188286635Y-80194230D01*
X188289232Y-80193639D01*
X188291887Y-80193378D01*
X188293718Y-80192619D01*
X188300972Y-80190970D01*
X188443829Y-80143351D01*
X188457254Y-80137357D01*
X188459289Y-80135591D01*
X188461780Y-80134560D01*
X188473146Y-80125232D01*
X188487939Y-80110439D01*
X188679035Y-80110439D01*
X188681110Y-80139629D01*
X188694196Y-80165802D01*
X188716303Y-80184976D01*
X188744066Y-80194230D01*
X188773256Y-80192155D01*
X188799429Y-80179069D01*
X188818603Y-80156962D01*
X188824597Y-80143536D01*
X188902741Y-79909104D01*
X189270817Y-79909104D01*
X189348961Y-80143536D01*
X189354955Y-80156961D01*
X189374129Y-80179068D01*
X189400302Y-80192155D01*
X189429492Y-80194230D01*
X189457254Y-80184976D01*
X189479362Y-80165802D01*
X189492448Y-80139628D01*
X189494523Y-80110438D01*
X189491263Y-80096102D01*
X189157930Y-79096102D01*
X189151936Y-79082676D01*
X189148424Y-79078627D01*
X189146029Y-79073836D01*
X189138925Y-79067674D01*
X189132762Y-79060569D01*
X189127968Y-79058172D01*
X189123921Y-79054662D01*
X189114999Y-79051688D01*
X189106589Y-79047483D01*
X189101244Y-79047103D01*
X189096159Y-79045408D01*
X189086779Y-79046074D01*
X189077399Y-79045408D01*
X189072313Y-79047103D01*
X189066969Y-79047483D01*
X189058561Y-79051687D01*
X189049636Y-79054662D01*
X189045585Y-79058175D01*
X189040796Y-79060570D01*
X189034637Y-79067670D01*
X189027529Y-79073836D01*
X189025132Y-79078629D01*
X189021622Y-79082677D01*
X189015628Y-79096102D01*
X188682295Y-80096102D01*
X188679035Y-80110439D01*
X188487939Y-80110439D01*
X188520764Y-80077613D01*
X188530092Y-80066247D01*
X188537830Y-80047565D01*
X188541290Y-80039212D01*
X188542731Y-80024580D01*
X188542731Y-79691247D01*
X188541290Y-79676615D01*
X188530091Y-79649579D01*
X188509399Y-79628887D01*
X188482363Y-79617688D01*
X188467731Y-79616247D01*
X188277255Y-79616247D01*
X188262623Y-79617688D01*
X188235587Y-79628887D01*
X188214895Y-79649579D01*
X188203696Y-79676615D01*
X188203696Y-79705879D01*
X188214895Y-79732915D01*
X188235587Y-79753607D01*
X188262623Y-79764806D01*
X188277255Y-79766247D01*
X188392731Y-79766247D01*
X188392731Y-79993514D01*
X188379598Y-80006647D01*
X188265085Y-80044819D01*
X188194187Y-80044819D01*
X188079674Y-80006648D01*
X188005561Y-79932534D01*
X187967067Y-79855547D01*
X187923684Y-79682013D01*
X187923684Y-79557624D01*
X187967067Y-79384090D01*
X188005561Y-79307103D01*
X188079674Y-79232990D01*
X188194187Y-79194819D01*
X188307169Y-79194819D01*
X188386571Y-79234520D01*
X188400302Y-79239775D01*
X188429492Y-79241849D01*
X188457254Y-79232595D01*
X188479361Y-79213422D01*
X188492449Y-79187247D01*
X188494523Y-79158057D01*
X188485269Y-79130296D01*
X188466096Y-79108188D01*
X188453653Y-79100356D01*
X188358415Y-79052737D01*
X188344683Y-79047482D01*
X188341995Y-79047291D01*
X188339506Y-79046260D01*
X188324874Y-79044819D01*
X188182017Y-79044819D01*
X188174610Y-79045548D01*
X188172636Y-79045408D01*
X188170038Y-79045998D01*
X188167385Y-79046260D01*
X188165554Y-79047018D01*
X188158299Y-79048668D01*
X188015443Y-79096287D01*
X188002017Y-79102281D01*
X187999982Y-79104045D01*
X187997492Y-79105077D01*
X187986127Y-79114405D01*
X187890889Y-79209643D01*
X187886170Y-79215392D01*
X187884672Y-79216692D01*
X187883250Y-79218951D01*
X187881562Y-79221008D01*
X187880804Y-79222835D01*
X187876840Y-79229135D01*
X187829221Y-79324373D01*
X187828811Y-79325442D01*
X187828489Y-79325878D01*
X187826293Y-79332023D01*
X187823966Y-79338105D01*
X187823927Y-79338644D01*
X187823542Y-79339724D01*
X187775923Y-79530200D01*
X187775547Y-79532736D01*
X187775125Y-79533758D01*
X187774582Y-79539270D01*
X187773773Y-79544744D01*
X187773935Y-79545836D01*
X187773684Y-79548390D01*
X187499169Y-79548390D01*
X187634120Y-79143536D01*
X187637380Y-79129200D01*
X187635305Y-79100010D01*
X187622219Y-79073836D01*
X187600111Y-79054662D01*
X187572349Y-79045408D01*
X187543159Y-79047483D01*
X187516986Y-79060570D01*
X187497812Y-79082677D01*
X187491818Y-79096102D01*
X187229636Y-79882648D01*
X186967454Y-79096102D01*
X186961460Y-79082676D01*
X186942286Y-79060569D01*
X186916113Y-79047483D01*
X186886923Y-79045408D01*
X186859160Y-79054662D01*
X186837053Y-79073836D01*
X186823967Y-79100009D01*
X186821892Y-79129199D01*
X185726034Y-79129199D01*
X185711240Y-79114405D01*
X185699875Y-79105078D01*
X185697384Y-79104046D01*
X185695349Y-79102281D01*
X185681924Y-79096287D01*
X185539067Y-79048668D01*
X185531813Y-79047018D01*
X185529982Y-79046260D01*
X185527327Y-79045998D01*
X185524730Y-79045408D01*
X185522755Y-79045548D01*
X185515350Y-79044819D01*
X185277255Y-79044819D01*
X185262623Y-79046260D01*
X185235587Y-79057459D01*
X185214895Y-79078151D01*
X185203696Y-79105187D01*
X185202255Y-79119819D01*
X184764273Y-79119819D01*
X184758859Y-79114405D01*
X184753109Y-79109686D01*
X184751810Y-79108188D01*
X184749550Y-79106766D01*
X184747494Y-79105078D01*
X184745666Y-79104320D01*
X184739367Y-79100356D01*
X184644129Y-79052737D01*
X184630397Y-79047482D01*
X184627709Y-79047291D01*
X184625220Y-79046260D01*
X184610588Y-79044819D01*
X184420112Y-79044819D01*
X184405480Y-79046260D01*
X184402991Y-79047290D01*
X184400302Y-79047482D01*
X184386571Y-79052737D01*
X184291333Y-79100356D01*
X184285038Y-79104318D01*
X184283206Y-79105077D01*
X184281144Y-79106768D01*
X184278890Y-79108188D01*
X184277591Y-79109684D01*
X184271841Y-79114405D01*
X184176603Y-79209643D01*
X184167276Y-79221008D01*
X184165142Y-79226158D01*
X184161822Y-79230640D01*
X184156875Y-79244486D01*
X184109256Y-79434962D01*
X184108880Y-79437498D01*
X184108458Y-79438520D01*
X184107915Y-79444032D01*
X184107106Y-79449506D01*
X184107268Y-79450598D01*
X184107017Y-79453152D01*
X183828445Y-79453152D01*
X183828445Y-79119819D01*
X183827497Y-79110197D01*
X183827575Y-79108431D01*
X183827230Y-79107482D01*
X183827004Y-79105187D01*
X183822022Y-79093160D01*
X183817575Y-79080930D01*
X183816445Y-79079696D01*
X183815805Y-79078151D01*
X183806605Y-79068951D01*
X183797811Y-79059348D01*
X183796294Y-79058640D01*
X183795113Y-79057459D01*
X183783100Y-79052482D01*
X183771293Y-79046973D01*
X183769620Y-79046899D01*
X183768077Y-79046260D01*
X183755071Y-79046260D01*
X183742057Y-79045688D01*
X183740484Y-79046260D01*
X183738813Y-79046260D01*
X183726794Y-79051238D01*
X183714556Y-79055689D01*
X183713322Y-79056819D01*
X183711777Y-79057459D01*
X183702578Y-79066657D01*
X183692975Y-79075452D01*
X183691799Y-79077436D01*
X183691085Y-79078151D01*
X183690408Y-79079784D01*
X183685481Y-79088102D01*
X183420111Y-79656750D01*
X183154743Y-79088103D01*
X183149817Y-79079787D01*
X183149139Y-79078151D01*
X183148423Y-79077435D01*
X183147249Y-79075453D01*
X183137652Y-79066664D01*
X183128447Y-79057459D01*
X183126901Y-79056818D01*
X183125668Y-79055689D01*
X183113437Y-79051241D01*
X183101411Y-79046260D01*
X183099737Y-79046260D01*
X183098167Y-79045689D01*
X183085166Y-79046260D01*
X183072147Y-79046260D01*
X183070602Y-79046899D01*
X183068931Y-79046973D01*
X183057132Y-79052479D01*
X183045111Y-79057459D01*
X183043928Y-79058641D01*
X183042413Y-79059349D01*
X183033624Y-79068945D01*
X183024419Y-79078151D01*
X183023778Y-79079696D01*
X183022649Y-79080930D01*
X183018201Y-79093160D01*
X183013220Y-79105187D01*
X183012993Y-79107482D01*
X183012649Y-79108431D01*
X183012726Y-79110197D01*
X183011779Y-79119819D01*
X182621416Y-79119819D01*
X182616002Y-79114405D01*
X182610252Y-79109686D01*
X182608953Y-79108188D01*
X182606693Y-79106766D01*
X182604637Y-79105078D01*
X182602809Y-79104320D01*
X182596510Y-79100356D01*
X182501272Y-79052737D01*
X182487540Y-79047482D01*
X182484852Y-79047291D01*
X182482363Y-79046260D01*
X182467731Y-79044819D01*
X182086779Y-79044819D01*
X182072147Y-79046260D01*
X182045111Y-79057459D01*
X182024419Y-79078151D01*
X182013220Y-79105187D01*
X182011779Y-79119819D01*
X181900668Y-79119819D01*
X181900668Y-78933708D01*
X189605634Y-78933708D01*
X189605634Y-80305930D01*
G37*
X156083333Y-79784819D02*
X155750000Y-79308628D01*
X155511905Y-79784819D02*
X155511905Y-78784819D01*
X155511905Y-78784819D02*
X155892857Y-78784819D01*
X155892857Y-78784819D02*
X155988095Y-78832438D01*
X155988095Y-78832438D02*
X156035714Y-78880057D01*
X156035714Y-78880057D02*
X156083333Y-78975295D01*
X156083333Y-78975295D02*
X156083333Y-79118152D01*
X156083333Y-79118152D02*
X156035714Y-79213390D01*
X156035714Y-79213390D02*
X155988095Y-79261009D01*
X155988095Y-79261009D02*
X155892857Y-79308628D01*
X155892857Y-79308628D02*
X155511905Y-79308628D01*
X156988095Y-78784819D02*
X156511905Y-78784819D01*
X156511905Y-78784819D02*
X156464286Y-79261009D01*
X156464286Y-79261009D02*
X156511905Y-79213390D01*
X156511905Y-79213390D02*
X156607143Y-79165771D01*
X156607143Y-79165771D02*
X156845238Y-79165771D01*
X156845238Y-79165771D02*
X156940476Y-79213390D01*
X156940476Y-79213390D02*
X156988095Y-79261009D01*
X156988095Y-79261009D02*
X157035714Y-79356247D01*
X157035714Y-79356247D02*
X157035714Y-79594342D01*
X157035714Y-79594342D02*
X156988095Y-79689580D01*
X156988095Y-79689580D02*
X156940476Y-79737200D01*
X156940476Y-79737200D02*
X156845238Y-79784819D01*
X156845238Y-79784819D02*
X156607143Y-79784819D01*
X156607143Y-79784819D02*
X156511905Y-79737200D01*
X156511905Y-79737200D02*
X156464286Y-79689580D01*
X156083333Y-75284819D02*
X155750000Y-74808628D01*
X155511905Y-75284819D02*
X155511905Y-74284819D01*
X155511905Y-74284819D02*
X155892857Y-74284819D01*
X155892857Y-74284819D02*
X155988095Y-74332438D01*
X155988095Y-74332438D02*
X156035714Y-74380057D01*
X156035714Y-74380057D02*
X156083333Y-74475295D01*
X156083333Y-74475295D02*
X156083333Y-74618152D01*
X156083333Y-74618152D02*
X156035714Y-74713390D01*
X156035714Y-74713390D02*
X155988095Y-74761009D01*
X155988095Y-74761009D02*
X155892857Y-74808628D01*
X155892857Y-74808628D02*
X155511905Y-74808628D01*
X156416667Y-74284819D02*
X157035714Y-74284819D01*
X157035714Y-74284819D02*
X156702381Y-74665771D01*
X156702381Y-74665771D02*
X156845238Y-74665771D01*
X156845238Y-74665771D02*
X156940476Y-74713390D01*
X156940476Y-74713390D02*
X156988095Y-74761009D01*
X156988095Y-74761009D02*
X157035714Y-74856247D01*
X157035714Y-74856247D02*
X157035714Y-75094342D01*
X157035714Y-75094342D02*
X156988095Y-75189580D01*
X156988095Y-75189580D02*
X156940476Y-75237200D01*
X156940476Y-75237200D02*
X156845238Y-75284819D01*
X156845238Y-75284819D02*
X156559524Y-75284819D01*
X156559524Y-75284819D02*
X156464286Y-75237200D01*
X156464286Y-75237200D02*
X156416667Y-75189580D01*
X156083333Y-73034819D02*
X155750000Y-72558628D01*
X155511905Y-73034819D02*
X155511905Y-72034819D01*
X155511905Y-72034819D02*
X155892857Y-72034819D01*
X155892857Y-72034819D02*
X155988095Y-72082438D01*
X155988095Y-72082438D02*
X156035714Y-72130057D01*
X156035714Y-72130057D02*
X156083333Y-72225295D01*
X156083333Y-72225295D02*
X156083333Y-72368152D01*
X156083333Y-72368152D02*
X156035714Y-72463390D01*
X156035714Y-72463390D02*
X155988095Y-72511009D01*
X155988095Y-72511009D02*
X155892857Y-72558628D01*
X155892857Y-72558628D02*
X155511905Y-72558628D01*
X156464286Y-72130057D02*
X156511905Y-72082438D01*
X156511905Y-72082438D02*
X156607143Y-72034819D01*
X156607143Y-72034819D02*
X156845238Y-72034819D01*
X156845238Y-72034819D02*
X156940476Y-72082438D01*
X156940476Y-72082438D02*
X156988095Y-72130057D01*
X156988095Y-72130057D02*
X157035714Y-72225295D01*
X157035714Y-72225295D02*
X157035714Y-72320533D01*
X157035714Y-72320533D02*
X156988095Y-72463390D01*
X156988095Y-72463390D02*
X156416667Y-73034819D01*
X156416667Y-73034819D02*
X157035714Y-73034819D01*
X156083333Y-77534819D02*
X155750000Y-77058628D01*
X155511905Y-77534819D02*
X155511905Y-76534819D01*
X155511905Y-76534819D02*
X155892857Y-76534819D01*
X155892857Y-76534819D02*
X155988095Y-76582438D01*
X155988095Y-76582438D02*
X156035714Y-76630057D01*
X156035714Y-76630057D02*
X156083333Y-76725295D01*
X156083333Y-76725295D02*
X156083333Y-76868152D01*
X156083333Y-76868152D02*
X156035714Y-76963390D01*
X156035714Y-76963390D02*
X155988095Y-77011009D01*
X155988095Y-77011009D02*
X155892857Y-77058628D01*
X155892857Y-77058628D02*
X155511905Y-77058628D01*
X156940476Y-76868152D02*
X156940476Y-77534819D01*
X156702381Y-76487200D02*
X156464286Y-77201485D01*
X156464286Y-77201485D02*
X157083333Y-77201485D01*
X162666666Y-78024819D02*
X162666666Y-78739104D01*
X162666666Y-78739104D02*
X162619047Y-78881961D01*
X162619047Y-78881961D02*
X162523809Y-78977200D01*
X162523809Y-78977200D02*
X162380952Y-79024819D01*
X162380952Y-79024819D02*
X162285714Y-79024819D01*
X163095238Y-78120057D02*
X163142857Y-78072438D01*
X163142857Y-78072438D02*
X163238095Y-78024819D01*
X163238095Y-78024819D02*
X163476190Y-78024819D01*
X163476190Y-78024819D02*
X163571428Y-78072438D01*
X163571428Y-78072438D02*
X163619047Y-78120057D01*
X163619047Y-78120057D02*
X163666666Y-78215295D01*
X163666666Y-78215295D02*
X163666666Y-78310533D01*
X163666666Y-78310533D02*
X163619047Y-78453390D01*
X163619047Y-78453390D02*
X163047619Y-79024819D01*
X163047619Y-79024819D02*
X163666666Y-79024819D01*
X156083333Y-70704819D02*
X155750000Y-70228628D01*
X155511905Y-70704819D02*
X155511905Y-69704819D01*
X155511905Y-69704819D02*
X155892857Y-69704819D01*
X155892857Y-69704819D02*
X155988095Y-69752438D01*
X155988095Y-69752438D02*
X156035714Y-69800057D01*
X156035714Y-69800057D02*
X156083333Y-69895295D01*
X156083333Y-69895295D02*
X156083333Y-70038152D01*
X156083333Y-70038152D02*
X156035714Y-70133390D01*
X156035714Y-70133390D02*
X155988095Y-70181009D01*
X155988095Y-70181009D02*
X155892857Y-70228628D01*
X155892857Y-70228628D02*
X155511905Y-70228628D01*
X157035714Y-70704819D02*
X156464286Y-70704819D01*
X156750000Y-70704819D02*
X156750000Y-69704819D01*
X156750000Y-69704819D02*
X156654762Y-69847676D01*
X156654762Y-69847676D02*
X156559524Y-69942914D01*
X156559524Y-69942914D02*
X156464286Y-69990533D01*
X157166666Y-83204819D02*
X157166666Y-83919104D01*
X157166666Y-83919104D02*
X157119047Y-84061961D01*
X157119047Y-84061961D02*
X157023809Y-84157200D01*
X157023809Y-84157200D02*
X156880952Y-84204819D01*
X156880952Y-84204819D02*
X156785714Y-84204819D01*
X158166666Y-84204819D02*
X157595238Y-84204819D01*
X157880952Y-84204819D02*
X157880952Y-83204819D01*
X157880952Y-83204819D02*
X157785714Y-83347676D01*
X157785714Y-83347676D02*
X157690476Y-83442914D01*
X157690476Y-83442914D02*
X157595238Y-83490533D01*
X156083333Y-82034819D02*
X155750000Y-81558628D01*
X155511905Y-82034819D02*
X155511905Y-81034819D01*
X155511905Y-81034819D02*
X155892857Y-81034819D01*
X155892857Y-81034819D02*
X155988095Y-81082438D01*
X155988095Y-81082438D02*
X156035714Y-81130057D01*
X156035714Y-81130057D02*
X156083333Y-81225295D01*
X156083333Y-81225295D02*
X156083333Y-81368152D01*
X156083333Y-81368152D02*
X156035714Y-81463390D01*
X156035714Y-81463390D02*
X155988095Y-81511009D01*
X155988095Y-81511009D02*
X155892857Y-81558628D01*
X155892857Y-81558628D02*
X155511905Y-81558628D01*
X156940476Y-81034819D02*
X156750000Y-81034819D01*
X156750000Y-81034819D02*
X156654762Y-81082438D01*
X156654762Y-81082438D02*
X156607143Y-81130057D01*
X156607143Y-81130057D02*
X156511905Y-81272914D01*
X156511905Y-81272914D02*
X156464286Y-81463390D01*
X156464286Y-81463390D02*
X156464286Y-81844342D01*
X156464286Y-81844342D02*
X156511905Y-81939580D01*
X156511905Y-81939580D02*
X156559524Y-81987200D01*
X156559524Y-81987200D02*
X156654762Y-82034819D01*
X156654762Y-82034819D02*
X156845238Y-82034819D01*
X156845238Y-82034819D02*
X156940476Y-81987200D01*
X156940476Y-81987200D02*
X156988095Y-81939580D01*
X156988095Y-81939580D02*
X157035714Y-81844342D01*
X157035714Y-81844342D02*
X157035714Y-81606247D01*
X157035714Y-81606247D02*
X156988095Y-81511009D01*
X156988095Y-81511009D02*
X156940476Y-81463390D01*
X156940476Y-81463390D02*
X156845238Y-81415771D01*
X156845238Y-81415771D02*
X156654762Y-81415771D01*
X156654762Y-81415771D02*
X156559524Y-81463390D01*
X156559524Y-81463390D02*
X156511905Y-81511009D01*
X156511905Y-81511009D02*
X156464286Y-81606247D01*
D11*
X158772936Y-78420000D02*
X160227064Y-78420000D01*
X158772936Y-80240000D02*
X160227064Y-80240000D01*
X158772936Y-73920000D02*
X160227064Y-73920000D01*
X158772936Y-75740000D02*
X160227064Y-75740000D01*
X158772936Y-71670000D02*
X160227064Y-71670000D01*
X158772936Y-73490000D02*
X160227064Y-73490000D01*
X158772936Y-76170000D02*
X160227064Y-76170000D01*
X158772936Y-77990000D02*
X160227064Y-77990000D01*
X194050000Y-77630000D02*
X163080000Y-77630000D01*
X194050000Y-69030000D02*
X194050000Y-77630000D01*
X174500000Y-78524338D02*
X174000000Y-78524338D01*
X174250000Y-78091325D02*
X174500000Y-78524338D01*
X174000000Y-78524338D02*
X174250000Y-78091325D01*
X163080000Y-77630000D02*
X163080000Y-69030000D01*
X158772936Y-69340000D02*
X160227064Y-69340000D01*
X158772936Y-71160000D02*
X160227064Y-71160000D01*
X155060000Y-84180000D02*
X153790000Y-84180000D01*
X155060000Y-82910000D02*
X155060000Y-84180000D01*
X152747071Y-80750000D02*
X152292929Y-80750000D01*
X152747071Y-79990000D02*
X152292929Y-79990000D01*
X152747071Y-78210000D02*
X152292929Y-78210000D01*
X152747071Y-77450000D02*
X152292929Y-77450000D01*
X152747071Y-75670000D02*
X152292929Y-75670000D01*
X152747071Y-74910000D02*
X152292929Y-74910000D01*
X152747071Y-73130000D02*
X152292929Y-73130000D01*
X152747071Y-72370000D02*
X152292929Y-72370000D01*
X152747071Y-70590000D02*
X152292929Y-70590000D01*
X152747071Y-69830000D02*
X152292929Y-69830000D01*
X152680000Y-83290000D02*
X152292929Y-83290000D01*
X152680000Y-82530000D02*
X152292929Y-82530000D01*
X150207071Y-83290000D02*
X149810000Y-83290000D01*
X150207071Y-82530000D02*
X149810000Y-82530000D01*
X150207071Y-80750000D02*
X149810000Y-80750000D01*
X150207071Y-79990000D02*
X149810000Y-79990000D01*
X150207071Y-78210000D02*
X149810000Y-78210000D01*
X150207071Y-77450000D02*
X149810000Y-77450000D01*
X150207071Y-75670000D02*
X149810000Y-75670000D01*
X150207071Y-74910000D02*
X149810000Y-74910000D01*
X150207071Y-73130000D02*
X149810000Y-73130000D01*
X150207071Y-72370000D02*
X149810000Y-72370000D01*
X150207071Y-70590000D02*
X149810000Y-70590000D01*
X150207071Y-69830000D02*
X149810000Y-69830000D01*
X149810000Y-84240000D02*
X149810000Y-68880000D01*
X149810000Y-81640000D02*
X147150000Y-81640000D01*
X149810000Y-79100000D02*
X147150000Y-79100000D01*
X149810000Y-76560000D02*
X147150000Y-76560000D01*
X149810000Y-74020000D02*
X147150000Y-74020000D01*
X149810000Y-71480000D02*
X147150000Y-71480000D01*
X149810000Y-68880000D02*
X147150000Y-68880000D01*
X147150000Y-84240000D02*
X149810000Y-84240000D01*
X147150000Y-83290000D02*
X141150000Y-83290000D01*
X147150000Y-83230000D02*
X141150000Y-83230000D01*
X147150000Y-83110000D02*
X141150000Y-83110000D01*
X147150000Y-82990000D02*
X141150000Y-82990000D01*
X147150000Y-82870000D02*
X141150000Y-82870000D01*
X147150000Y-82750000D02*
X141150000Y-82750000D01*
X147150000Y-82630000D02*
X141150000Y-82630000D01*
X147150000Y-80750000D02*
X141150000Y-80750000D01*
X147150000Y-78210000D02*
X141150000Y-78210000D01*
X147150000Y-75670000D02*
X141150000Y-75670000D01*
X147150000Y-73130000D02*
X141150000Y-73130000D01*
X147150000Y-70590000D02*
X141150000Y-70590000D01*
X147150000Y-68880000D02*
X147150000Y-84240000D01*
X141150000Y-83290000D02*
X141150000Y-82530000D01*
X141150000Y-82530000D02*
X147150000Y-82530000D01*
X141150000Y-80750000D02*
X141150000Y-79990000D01*
X141150000Y-79990000D02*
X147150000Y-79990000D01*
X141150000Y-78210000D02*
X141150000Y-77450000D01*
X141150000Y-77450000D02*
X147150000Y-77450000D01*
X141150000Y-75670000D02*
X141150000Y-74910000D01*
X141150000Y-74910000D02*
X147150000Y-74910000D01*
X141150000Y-73130000D02*
X141150000Y-72370000D01*
X141150000Y-72370000D02*
X147150000Y-72370000D01*
X141150000Y-70590000D02*
X141150000Y-69830000D01*
X141150000Y-69830000D02*
X147150000Y-69830000D01*
X158772936Y-80670000D02*
X160227064Y-80670000D01*
X158772936Y-82490000D02*
X160227064Y-82490000D01*
%LPC*%
G36*
G01*
X157475000Y-79955000D02*
X157475000Y-78705000D01*
G75*
G02*
X157725000Y-78455000I250000J0D01*
G01*
X158350000Y-78455000D01*
G75*
G02*
X158600000Y-78705000I0J-250000D01*
G01*
X158600000Y-79955000D01*
G75*
G02*
X158350000Y-80205000I-250000J0D01*
G01*
X157725000Y-80205000D01*
G75*
G02*
X157475000Y-79955000I0J250000D01*
G01*
G37*
G36*
G01*
X160400000Y-79955000D02*
X160400000Y-78705000D01*
G75*
G02*
X160650000Y-78455000I250000J0D01*
G01*
X161275000Y-78455000D01*
G75*
G02*
X161525000Y-78705000I0J-250000D01*
G01*
X161525000Y-79955000D01*
G75*
G02*
X161275000Y-80205000I-250000J0D01*
G01*
X160650000Y-80205000D01*
G75*
G02*
X160400000Y-79955000I0J250000D01*
G01*
G37*
G36*
G01*
X157475000Y-75455000D02*
X157475000Y-74205000D01*
G75*
G02*
X157725000Y-73955000I250000J0D01*
G01*
X158350000Y-73955000D01*
G75*
G02*
X158600000Y-74205000I0J-250000D01*
G01*
X158600000Y-75455000D01*
G75*
G02*
X158350000Y-75705000I-250000J0D01*
G01*
X157725000Y-75705000D01*
G75*
G02*
X157475000Y-75455000I0J250000D01*
G01*
G37*
G36*
G01*
X160400000Y-75455000D02*
X160400000Y-74205000D01*
G75*
G02*
X160650000Y-73955000I250000J0D01*
G01*
X161275000Y-73955000D01*
G75*
G02*
X161525000Y-74205000I0J-250000D01*
G01*
X161525000Y-75455000D01*
G75*
G02*
X161275000Y-75705000I-250000J0D01*
G01*
X160650000Y-75705000D01*
G75*
G02*
X160400000Y-75455000I0J250000D01*
G01*
G37*
G36*
G01*
X157475000Y-73205000D02*
X157475000Y-71955000D01*
G75*
G02*
X157725000Y-71705000I250000J0D01*
G01*
X158350000Y-71705000D01*
G75*
G02*
X158600000Y-71955000I0J-250000D01*
G01*
X158600000Y-73205000D01*
G75*
G02*
X158350000Y-73455000I-250000J0D01*
G01*
X157725000Y-73455000D01*
G75*
G02*
X157475000Y-73205000I0J250000D01*
G01*
G37*
G36*
G01*
X160400000Y-73205000D02*
X160400000Y-71955000D01*
G75*
G02*
X160650000Y-71705000I250000J0D01*
G01*
X161275000Y-71705000D01*
G75*
G02*
X161525000Y-71955000I0J-250000D01*
G01*
X161525000Y-73205000D01*
G75*
G02*
X161275000Y-73455000I-250000J0D01*
G01*
X160650000Y-73455000D01*
G75*
G02*
X160400000Y-73205000I0J250000D01*
G01*
G37*
G36*
G01*
X157475000Y-77705000D02*
X157475000Y-76455000D01*
G75*
G02*
X157725000Y-76205000I250000J0D01*
G01*
X158350000Y-76205000D01*
G75*
G02*
X158600000Y-76455000I0J-250000D01*
G01*
X158600000Y-77705000D01*
G75*
G02*
X158350000Y-77955000I-250000J0D01*
G01*
X157725000Y-77955000D01*
G75*
G02*
X157475000Y-77705000I0J250000D01*
G01*
G37*
G36*
G01*
X160400000Y-77705000D02*
X160400000Y-76455000D01*
G75*
G02*
X160650000Y-76205000I250000J0D01*
G01*
X161275000Y-76205000D01*
G75*
G02*
X161525000Y-76455000I0J-250000D01*
G01*
X161525000Y-77705000D01*
G75*
G02*
X161275000Y-77955000I-250000J0D01*
G01*
X160650000Y-77955000D01*
G75*
G02*
X160400000Y-77705000I0J250000D01*
G01*
G37*
D12*
X191065000Y-73910000D03*
X166065000Y-73910000D03*
D13*
X174250000Y-75960000D03*
D14*
X176540000Y-75960000D03*
X178830000Y-75960000D03*
X181120000Y-75960000D03*
X183410000Y-75960000D03*
X173105000Y-73980000D03*
X175395000Y-73980000D03*
X177685000Y-73980000D03*
X179975000Y-73980000D03*
X182265000Y-73980000D03*
X174250000Y-72000000D03*
X176540000Y-72000000D03*
X178830000Y-72000000D03*
X181120000Y-72000000D03*
X183410000Y-72000000D03*
G36*
G01*
X157475000Y-70875000D02*
X157475000Y-69625000D01*
G75*
G02*
X157725000Y-69375000I250000J0D01*
G01*
X158350000Y-69375000D01*
G75*
G02*
X158600000Y-69625000I0J-250000D01*
G01*
X158600000Y-70875000D01*
G75*
G02*
X158350000Y-71125000I-250000J0D01*
G01*
X157725000Y-71125000D01*
G75*
G02*
X157475000Y-70875000I0J250000D01*
G01*
G37*
G36*
G01*
X160400000Y-70875000D02*
X160400000Y-69625000D01*
G75*
G02*
X160650000Y-69375000I250000J0D01*
G01*
X161275000Y-69375000D01*
G75*
G02*
X161525000Y-69625000I0J-250000D01*
G01*
X161525000Y-70875000D01*
G75*
G02*
X161275000Y-71125000I-250000J0D01*
G01*
X160650000Y-71125000D01*
G75*
G02*
X160400000Y-70875000I0J250000D01*
G01*
G37*
D15*
X153790000Y-82910000D03*
D16*
X151250000Y-82910000D03*
X153790000Y-80370000D03*
X151250000Y-80370000D03*
X153790000Y-77830000D03*
X151250000Y-77830000D03*
X153790000Y-75290000D03*
X151250000Y-75290000D03*
X153790000Y-72750000D03*
X151250000Y-72750000D03*
X153790000Y-70210000D03*
X151250000Y-70210000D03*
G36*
G01*
X157475000Y-82205000D02*
X157475000Y-80955000D01*
G75*
G02*
X157725000Y-80705000I250000J0D01*
G01*
X158350000Y-80705000D01*
G75*
G02*
X158600000Y-80955000I0J-250000D01*
G01*
X158600000Y-82205000D01*
G75*
G02*
X158350000Y-82455000I-250000J0D01*
G01*
X157725000Y-82455000D01*
G75*
G02*
X157475000Y-82205000I0J250000D01*
G01*
G37*
G36*
G01*
X160400000Y-82205000D02*
X160400000Y-80955000D01*
G75*
G02*
X160650000Y-80705000I250000J0D01*
G01*
X161275000Y-80705000D01*
G75*
G02*
X161525000Y-80955000I0J-250000D01*
G01*
X161525000Y-82205000D01*
G75*
G02*
X161275000Y-82455000I-250000J0D01*
G01*
X160650000Y-82455000D01*
G75*
G02*
X160400000Y-82205000I0J250000D01*
G01*
G37*
%LPD*%
M02*
